<svg xmlns="http://www.w3.org/2000/svg" width="44.979" height="39.032" viewBox="0 0 44.979 39.032">
  <g id="Booth_Committee" transform="translate(0.3 0.3)">
    <path id="Path_11752" data-name="Path 11752" d="M9.117,24.533a.6.6,0,0,1-.127-.013.634.634,0,0,1-.5-.746L10.522,13.7a.634.634,0,0,1,.621-.507H31.23a.634.634,0,0,1,.621.507l2.029,10.07a.634.634,0,1,1-1.243.25L30.71,14.456H11.665L9.738,24.024A.634.634,0,0,1,9.117,24.533Z" transform="translate(1.005 -0.706)" fill="#fff" stroke="#fff" stroke-width="0.6"/>
    <path id="Path_11753" data-name="Path 11753" d="M16.378,33.351H7.225a.634.634,0,0,1-.622-.761l1.5-7.426a.634.634,0,1,1,1.243.254L8,32.083h8.381a.634.634,0,0,1,0,1.268Z" transform="translate(0.498 2.367)" fill="#fff" stroke="#fff" stroke-width="0.6"/>
    <path id="Path_11754" data-name="Path 11754" d="M31.984,33.352H22.824a.634.634,0,1,1,0-1.268h8.384l-1.347-6.666a.634.634,0,1,1,1.243-.254l1.5,7.428a.634.634,0,0,1-.622.761Z" transform="translate(4.678 2.367)" fill="#fff" stroke="#fff" stroke-width="0.6"/>
    <path id="Path_11755" data-name="Path 11755" d="M25.967,15.341a.634.634,0,0,1-.634-.634V14.48A3.333,3.333,0,0,0,22,11.154H17.826a3.333,3.333,0,0,0-3.332,3.326v.228a.634.634,0,1,1-1.268,0V14.48a4.6,4.6,0,0,1,4.6-4.594H22a4.6,4.6,0,0,1,4.6,4.594v.228A.634.634,0,0,1,25.967,15.341Z" transform="translate(2.276 -1.591)" fill="#fff" stroke="#fff" stroke-width="0.6"/>
    <path id="Path_11756" data-name="Path 11756" d="M19.258,10.516A3.586,3.586,0,1,1,22.844,6.93,3.586,3.586,0,0,1,19.258,10.516Zm0-5.9A2.318,2.318,0,1,0,21.576,6.93a2.318,2.318,0,0,0-2.318-2.318Z" transform="translate(2.932 -3.344)" fill="#fff" stroke="#fff" stroke-width="0.6"/>
    <path id="Path_11757" data-name="Path 11757" d="M12.708,27H1.634A.634.634,0,0,1,1,26.37V24.9a4.265,4.265,0,0,1,4.26-4.26H9.081a4.265,4.265,0,0,1,4.26,4.26v1.471A.634.634,0,0,1,12.708,27ZM2.268,25.736h9.806V24.9a3,3,0,0,0-2.992-2.992H5.26A3,3,0,0,0,2.268,24.9Z" transform="translate(-1 1.291)" fill="#fff" stroke="#fff" stroke-width="0.6"/>
    <path id="Path_11758" data-name="Path 11758" d="M6.571,21.324a3.335,3.335,0,1,1,3.335-3.335A3.335,3.335,0,0,1,6.571,21.324Zm0-5.4a2.067,2.067,0,1,0,2.067,2.067,2.067,2.067,0,0,0-2.067-2.067Z" transform="translate(-0.401 -0.313)" fill="#fff" stroke="#fff" stroke-width="0.6"/>
    <path id="Path_11759" data-name="Path 11759" d="M37.974,27H26.9a.634.634,0,0,1-.634-.634V24.9a4.265,4.265,0,0,1,4.26-4.26h3.821a4.265,4.265,0,0,1,4.26,4.26v1.471A.634.634,0,0,1,37.974,27Zm-10.44-1.268H37.34V24.9a3,3,0,0,0-2.992-2.992H30.527A3,3,0,0,0,27.534,24.9Z" transform="translate(5.771 1.291)" fill="#fff" stroke="#fff" stroke-width="0.6"/>
    <path id="Path_11760" data-name="Path 11760" d="M31.839,21.324a3.335,3.335,0,1,1,3.335-3.335,3.336,3.336,0,0,1-3.335,3.335Zm0-5.4a2.067,2.067,0,1,0,2.067,2.067A2.067,2.067,0,0,0,31.839,15.921Z" transform="translate(6.37 -0.313)" fill="#fff" stroke="#fff" stroke-width="0.6"/>
    <path id="Path_11761" data-name="Path 11761" d="M25.341,35H14.267a.634.634,0,0,1-.634-.634V32.894a4.264,4.264,0,0,1,4.26-4.26h3.822a4.264,4.264,0,0,1,4.26,4.26v1.471A.634.634,0,0,1,25.341,35ZM14.9,33.731h9.805v-.837A3,3,0,0,0,21.715,29.9H17.893A3,3,0,0,0,14.9,32.894Z" transform="translate(2.385 3.433)" fill="#fff" stroke="#fff" stroke-width="0.6"/>
    <path id="Path_11762" data-name="Path 11762" d="M19.2,29.319a3.335,3.335,0,1,1,3.335-3.335A3.335,3.335,0,0,1,19.2,29.319Zm0-5.4a2.067,2.067,0,1,0,2.067,2.067A2.067,2.067,0,0,0,19.2,23.918Z" transform="translate(2.985 1.829)" fill="#fff" stroke="#fff" stroke-width="0.6"/>
  </g>
</svg>
