<svg height="512pt" viewBox="0 0 512 511" width="512pt" xmlns="http://www.w3.org/2000/svg"><path d="m156 386.144531v-259.742187c0-16.5625 13.425781-29.988282 29.988281-29.988282h140.027344c16.558594 0 29.984375 13.425782 29.984375 29.988282v259.742187c0 16.5625-13.425781 29.988281-29.984375 29.988281h-140.027344c-16.5625 0-29.988281-13.425781-29.988281-29.988281zm0 0" fill="#d5f1fe"/><path d="m356 171.347656v-44.957031c0-16.554687-13.429688-29.976563-30-29.976563h-140c-16.570312 0-30 13.421876-30 29.976563v44.957031zm0 0" fill="#0076de"/><path d="m290 141.273438h-67c-4.144531 0-7.5-3.355469-7.5-7.5 0-4.140626 3.355469-7.5 7.5-7.5h67c4.144531 0 7.5 3.359374 7.5 7.5 0 4.144531-3.355469 7.5-7.5 7.5zm0 0" fill="#93dcfc"/><path d="m156 341.199219v44.960937c0 16.554688 13.429688 29.972656 30 29.972656h140c16.570312 0 30-13.421874 30-29.972656v-44.960937zm0 0" fill="#0076de"/><path d="m326 96.414062h-40c16.570312 0 30 13.421876 30 29.972657v259.769531c0 16.554688-13.429688 29.976562-30 29.976562h40c16.570312 0 30-13.421874 30-29.976562v-259.769531c0-16.550781-13.429688-29.972657-30-29.972657zm0 0" fill="#93dcfc"/><path d="m326 96.414062h-40c16.570312 0 30 13.421876 30 29.972657v44.960937h40v-44.960937c0-16.550781-13.429688-29.972657-30-29.972657zm0 0" fill="#005eb0"/><path d="m316 341.199219v44.960937c0 16.554688-13.429688 29.972656-30 29.972656h40c16.570312 0 30-13.421874 30-29.972656v-44.960937zm0 0" fill="#005eb0"/><path d="m271 379.164062c0-8.277343-6.714844-14.984374-15-14.984374s-15 6.707031-15 14.984374c0 8.277344 6.714844 14.988282 15 14.988282s15-6.710938 15-14.988282zm0 0" fill="#93dcfc"/><path d="m256 .5c-141.386719 0-256 114.515625-256 255.773438 0 141.261718 114.613281 255.773437 256 255.773437s256-114.511719 256-255.773437c0-141.257813-114.613281-255.773438-256-255.773438zm-216.117188 255.773438c0-52.304688 18.613282-100.261719 49.585938-137.625l304.28125 304.011718c-37.398438 30.941406-85.398438 49.539063-137.75 49.539063-119.359375 0-216.117188-96.671875-216.117188-215.925781zm382.191407 138.167968-304.363281-304.09375c37.476562-31.214844 85.683593-50 138.289062-50 119.359375 0 216.117188 96.671875 216.117188 215.925782 0 52.558593-18.800782 100.726562-50.042969 138.167968zm0 0" fill="#e5554e"/><path d="m256 .5c-6.710938 0-13.359375.261719-19.941406.769531 130.183594 10.019531 233.082031 117.335938 235.984375 249.285157.097656 3.71875.101562 7.441406.003906 11.164062-2.765625 132.074219-105.710937 239.53125-235.988281 249.5625 6.578125.503906 13.230468.765625 19.941406.765625 141.386719 0 256-114.511719 256-255.773437 0-141.257813-114.613281-255.773438-256-255.773438zm0 0" fill="#c62430"/></svg>