<svg id="President" xmlns="http://www.w3.org/2000/svg" xmlns:xlink="http://www.w3.org/1999/xlink" width="66.605" height="85.759" viewBox="0 0 66.605 85.759">
  <defs>
    <linearGradient id="linear-gradient" x1="0.5" x2="0.5" y2="1" gradientUnits="objectBoundingBox">
      <stop offset="0" stop-color="#463afd"/>
      <stop offset="1" stop-color="#875fbd"/>
    </linearGradient>
  </defs>
  <path id="Path_11960" data-name="Path 11960" d="M67.879,32.426a.546.546,0,0,1-.138-.759,20.755,20.755,0,0,1,5.566-5.472.546.546,0,1,1,.606.908,19.673,19.673,0,0,0-5.275,5.186A.546.546,0,0,1,67.879,32.426Zm8.266-6.612a19.1,19.1,0,0,1,2.083-.887.545.545,0,0,0,.4-.526.559.559,0,0,0-.731-.514,20.158,20.158,0,0,0-2.238.951.546.546,0,1,0,.488.976Zm37.2,16.035H67.614A17.317,17.317,0,0,1,84.8,26.19V23.7l-.82-.646a8.564,8.564,0,0,1-3.138-7.3h-.253a2.405,2.405,0,0,1-.694-4.709c-.131-.436-.048-.41-.074-2.894A8.162,8.162,0,0,1,87.977,0h5a8.165,8.165,0,0,1,8.157,8.152c-.022,2.4.057,2.518-.074,2.894a2.405,2.405,0,0,1-.694,4.709h-.253a8.754,8.754,0,0,1-3.138,7.3l-.82.646V26.19a17.317,17.317,0,0,1,17.191,15.659ZM86.812,23.895a5.71,5.71,0,0,0,7.328,0L96.3,22.2c3.889-3.085,2.387-7.315,2.723-10.339-.236-.131-.367-.292-.991-.755a2.221,2.221,0,0,0-2.509-.092,11.324,11.324,0,0,1-10.086,0,2.228,2.228,0,0,0-2.514.092c-.69.519-.755.628-.982.751.327,2.959-1.161,7.267,2.723,10.348Zm8.249.668a7.323,7.323,0,0,1-4.583,1.763A7.175,7.175,0,0,1,85.9,24.562v1.872L90.478,29.3l4.583-2.867Zm24.087,29.721,4.076-6.193a3.319,3.319,0,0,0-2.771-5.15H60.5a3.319,3.319,0,0,0-2.771,5.15l4.076,6.193A6.081,6.081,0,0,0,66.9,57.028h47.152A6.08,6.08,0,0,0,119.147,54.283Zm-9.091,14.845.607-2.33a.546.546,0,1,0-1.056-.275L109,68.854a.546.546,0,1,0,1.056.275Zm-3.293,10.477a.546.546,0,0,0,.665-.391l1.938-7.446a.546.546,0,0,0-1.056-.275l-1.938,7.446A.545.545,0,0,0,106.764,79.605ZM100.2,63.891H80.761a.843.843,0,0,0-.816,1.056l2.935,11.269a.843.843,0,0,0,.816.631H97.26a.843.843,0,0,0,.816-.631l2.935-11.269A.843.843,0,0,0,100.2,63.891Zm9.119-5.772-7.092,27.233a.543.543,0,0,1-.528.406H79.262a.542.542,0,0,1-.528-.406L71.642,58.119ZM100.193,62.8H80.763a1.934,1.934,0,0,0-1.872,2.422l2.933,11.269A1.933,1.933,0,0,0,83.7,77.938H97.26a1.933,1.933,0,0,0,1.872-1.449l2.933-11.269A1.935,1.935,0,0,0,100.193,62.8Z" transform="translate(-57.176 0)" fill="url(#linear-gradient)"/>
</svg>
