<svg xmlns="http://www.w3.org/2000/svg" width="135.97" height="135.964" viewBox="0 0 135.97 135.964">
  <g id="Profile_dummy" transform="translate(0 -0.001)">
    <path id="Path_30643" data-name="Path 30643" d="M67.985,0A67.982,67.982,0,1,0,135.97,67.983,67.985,67.985,0,0,0,67.985,0Zm0,20.327A22.486,22.486,0,1,1,45.5,42.815,22.488,22.488,0,0,1,67.985,20.328Zm-.015,97.862A49.894,49.894,0,0,1,35.48,106.21a9.582,9.582,0,0,1-3.363-7.283A22.677,22.677,0,0,1,54.905,76.255H81.071a22.645,22.645,0,0,1,22.752,22.672,9.559,9.559,0,0,1-3.36,7.28A49.877,49.877,0,0,1,67.97,118.191Z" transform="translate(0 0)" fill="#853399"/>
  </g>
</svg>
