<svg xmlns="http://www.w3.org/2000/svg" width="347.815" height="300.989" viewBox="0 0 347.815 300.989">
  <g id="Ahmednagar" transform="translate(-1968.712 -710.008)">
    <path id="talId119" fill="#7DB8EC" title="Shrirampur Taluka" data-name="Shrirampur Taluka" d="M1162.41,946.6l.3-.227.1-1.62.167-1.348.091-.9.075-.53.316-1.34.5-1.227.432-1.294.589-1.242.017-.561.116-.416.806.015.665-.09.582.37.631.3.557.129.265-.023.474-.234.282-.289.332-.492.615-.046,1.13.068.606-.022.6-.1.316-.446.515-.053,1.014.129.707-.031.706-.106.549-.068.291-.121.091-.2-.2-.341-.191-.363.158-3.757-.374-.386-.864-.2-1.2-.008-1,.1-.781.136-1.122.091-.474.03-.448-.356.133-3.325.39-.265,1.272-.189,1.687-.356.523-.045.366-.5.083-.8.109-.4.623-.136.382-.272,1.022-1.007.947-1.477,1.163-1.894.8-1.847,1.1-1.432.067-.8-.092-.667-.4-.408-.789.083-.482.295-.615.311-.482.175-.4.09-.333.015-.05-.189.025-.621-.275-.734-.141-.7-.407-1.772.041-.734.54-.6,1.6-1.6.739-1.235-.008-1.045.108-1.514.274-1.25.108-.736.664-1.128.433-.282.049.093.225.167.465.09,1.155.008.415-.037.432.037.241.069.275.318.374.485.273.409.482.4.64.129.407-.038.382-.09.333-.038.4.046.233.129.125.44-.05.341-.141.409.008.515.183.242.631.19.4-.145.424-.287.415-.326.574-.409.183-.3-.192-.689-.332-.425-.249-.423-.116-.622.241-.409.607-.379.3-.363.441-.242.5.106.582.394.7.378.058.607.041.635-.274.894-.149.629.167.417.191.355.133.281.124.121.216.234.183.151.39.068.473-.174.233-.258.175-.219.092-.257-.017-.387-.125-.2-.233-.273-.174-.227-.117-.348.025-.281.158-.2.266-.166.416-.023.282.379.274.447.266.3.158.166.324.5.415.613.391.78.448.447.316.235.274.144.507.03.349-.129.2-.3.132-.273.349-.181.307-.152.291-.053.349.061.224.22.266.417-.041.673-.15.833-.025.523.183.393.183.227.391.106.665-.022.682-.03.332-.016.349.053.349.273.308.326.125.492-.067.394-.108.758.067,1.03.175.5.406.492.7.621.764.621,1.064.7.822.008.225-.076.515-.068.3.167.107.4-.025.583-.316.629-.241.348-.216.311-.116.371.125.379.416.356.664.493.366.408.4.588.182.446.1.576.108.473.133.2.283.3.274.139.506.1-.067.594-.108.273-.3.712-.59.833-.573.622-.382.424-.457.235-.407.068-.357.008-.566.953-.132.561.249.7.507.492.632.106.856.137.64.143.349.386.125.7-.133.879-.316,1.136-.382,1.113-.149,2.007-.075.438-.191.349-.108.734-1.845.727-.29.25-.183.3v.25l.241.4.1.333.008.939.573,1.644.366,3.908.108,1.393-.424.273-.781-.107-.707-.409-1.113.37-.748.152-.574.242-.548.3-.54.424-.141,1.584.075.219.158.159.291.228.008.242-.241.242-.806.167-.574-.152-.906-.643-.224.295-.183.3-.117.166-.29.28-.358.189-.316-.091-.465-.265-.025-.273.258-.379.191-.371-.224-.3-.524-.273-.216.053-.232.485-.108.219-.2.2-.233.152-.341-.031.009.454v.3l-.108.424-.556.219-.3-.129-.5-.287-.582-.053-.424.2-.615.25-.507.325-.216.19-.407.219-.341-.022-.4-.167-.357-.272.083-.3.44-.213.291-.317-.05-.47-.73-.431-1.155.409-.5.219-.54.068-.656.039-.175.258-.282.4-.5.152-.615.31-.257-.341-.391.1-.465.265-.607.167-.374-.386-.6-.538-.216-.394-.009-.318.033-.235.191-.6-.108-.249-.275-.243-.6-.364-.05-.166.208-.3.208-.022.25.3.515-.2.3-.281.058-.78-.49-.136-.665-.015-.914-.053-.141-.2.133-.288.224-.379.142-.28-.117-.371-.374-.318v-1.681l-.058-.447-.224-.386-.448-.4-.524-.462-.714-.5-.382.106-.092.424.241.432.033.379-.208.462-.515.325-.208.492-.374,1.348-.158,1-.3.591-.332.56-.375.757-.249.667-.075.652-.349.552-.474.213-.432.09-.415-.061-.083-.5-.016-1.167.125-1.7-.333-.326-.507-.219-.05-.341-.009-.545-.349-.129-.482-.227-.291-.4.182-.364.574-.235.465-.28.457-.311.158-.378-.282-.326-.6.037-.689.152-.523.2-.316.53.208.355-.216.545-1.072-.076-.632.136-.49.22-.715.1-.914.031-.374-.288-.556-.122-1.629-.015-.357.174-.233.4-.3.265-.224.03-.457-.212-.357-.379-.3-.3-.183.144-.108.341-.133.447-.257.416-.3.3-1.279.061-.474.192-.29.3-.191.249-.182.239-.209-.257-.224-.345-.265-.318" transform="translate(971.292 -149.303)"  stroke="#fff" stroke-linecap="square" stroke-linejoin="bevel" stroke-width="1" fill-rule="evenodd"/>
    <text id="119" transform="translate(2148.37 782.408)" fill="#fff" font-size="13"  font-family="OpenSans-Bold, Open Sans" font-weight="700"><tspan x="0" y="0"></tspan></text>
    <g id="_110_Akole" data-name="110 Akole" transform="translate(1969.437 756.777)">
      <path id="talId110" fill="#7DB8EC" title="Akole Taluka" data-name="Akole Taluka" d="M1053.8,927.279l-.15,1.182-.108.62.025.493.083.4.125.394.016.454.117,1.113-.016.6-.133.212-.416.106-.374.068-.457.1-.257.145-.091.227-.058.355-.083.379-.141,1.008-.183.553-.066.432-.2.764-.249.2-.806.236-.548.136-2.2.644-1,.318-1.072.129-.657.113-.531.038-.382-.053-.391-.2-.291-.069h-.416l-.864-.129-.357.583v.689l.1.834.283.3.39.158.44-.007.241.015.341.182.515.348.249.477.025.454.473.378.141.447.008.5.125.462.208.394.366.424.706.7.3.106.79.394.448.711-.042.394-.008.682.166,1.068.59.4-.44,1.008-.308.4-.133.56-.025.53-.042.424-.39.424-.258.326-.906.614-.789.455-.39.249-.349.243-.316-.387-.108-.5-.415.052-.922.258-.391.2-.4.212-.283.4-.407.234-.233-.182-.382-.326-.1.009-.731.628-.374.553-.108.469-.091.469-.233.5-.665.6-.324-.129-.233-.182-.44-.091-.05.523-.017.371-.233.386-.182.265-.324.272-.2.114.141.242.316.113.341-.076.324-.1.233-.031.415.159.391.326-.05.378-.083.773.15.561.349.484.241.3.357.159.432.083.374.084.316-.144v-.484h.216l.432.288.224.205.565-.023.3-.023.714-.1.458.061.273.235.009.265-.2.151-.357.091-.374.083-.465.234-.016.242.515.28.573.114.441-.03.4-.007.423-.016,1.371.962.64.576.216.181.3.97-.357.629-.091.416-.208.424-.2.492-.49.356-.332.2-.341.333-.025.28.69.712.349-.462.357-.447.482-.357.383-.226.017.629-.266.462-.274.37-.2.342.083.2.423-.137.49-.2.415-.136.341-.143.175-.129.54-.4.232.3.3.507.365.4,1.08.583.1.4.05.349-.174.916-.257.478-.158.279.581-.137.1-.363.05-.508.05-.394.1-.455.382-.022.581.424.365.25.308.265.075.538-.208.523-.4.469-.391.356-.939,1.318.216.848.108.613.108.493.158.514-.033,1.136-.3.2-.565-.228-.457.046-.557.288-.224.2-.632.439-.432-.28-.149-.439-.814.462.025.265.482.357.05.105v.531l-.216.151-.731.258-.366.476-.548.44-.291.409.05.458.191.407.174.557.017.382.108.274.524.125.382.208,1.3,1.188.964.931.922.648.332.366,1.031.556.955.98v.482l.166,1.088.216,1.18-.241,1.089-.083.507-.316.406-.54.349-.939.565-.889.557-1.562.656-1.063.308-1.969-.042-.856.025-1.853.025-1.088-.025-.316.191-.241.3-.225.332-.033.939-.225.233-.174-.4-.191-.407-.008-.291-.025-.249-.108-.2-.157-.033-.133.117-.182.2-.192.232-.158.191-.183.224-.158.158-.208.191-.366.448-.191.249-.191.058-.117-.058.125-.44v-.424l-.075-.3-.1-.316-.49-.707-.257-.315-.2-.166-.175-.141-.208-.05-.257-.025.308-.4.108-.191.116-.009.183-.116.075-.233-.116-.257-.05-.233.083-.175.166-.066.15-.016.2-.033.2-.158.067-.324.05-.232-.1-.291-.2-.374-.224-.224-.15-.183-.34-.157-.1-.167-.116-.208-.175-.024-.167.191-.166.183-.141.233-.082.174-.133.175-.15-.091-.125-.142-.083-.133-.116-.224.009-.258.041-.34-.041-.407-.142-.075-.283.05-.166-.025-.174-.167-.1-.241-.033-.531.191-.316.207.033.233.174.266.15.224.1.158.049.241-.091.109-.117.149-.166.15-.133.091.117h.149l.141-.008.108-.15.05-.25-.033-.34-.124-.291-.133-.341-.133-.623-.291-.091-.167.008.033-.158.208.008.224-.016.166-.033.142-.141.058-.349-.158-.166-.158.016-.174-.016-.15-.233-.257-.025-.216-.025-.108-.016-.15-.05-.067-.1-.025-.191.05-.291.075-.191.1-.25.016-.141-.141-.133-.174-.183-.149-.167-.125-.116-.1-.133-.183-.042-.175-.034-.108-.016-.075-.366.025-.847-.016-.407-.158-.233-.249-.3-.208-.213-.291-.091-.224-.1-.224-.1-.233-.088-.133-.477-.008-.9-.008-1.371-.066-.345-.208-.238-.175-.11-.208.034-.274.262-.041.185-.042.2-.141.359-.2.117-.249.072-.308.068-.174.034-.108.08-.133.09-.274.114-.258.091-1.188.136-.4-.046-.216.068-.25.106-.266,0-.208-.072-.091-.364-.066-.265-.141-.2-.274-.022-.141.159-.091.193-.241.258-.374.155-.175.117-.183.03-.24.031-.258.046-.224.079-.307.405.042.238.083.209.059.19-.034.173-.066.054-.133-.019-.133-.042-.141-.034-.175.019-.108.065-.149.125-.108.079-.124.034-.092-.16-.033-.155-.092-.181-.183-.068-.1,0-.091.079-.05.114-.05.154-.05.186-.142.1-.083.021-.075-.016-.058-.066-.008-.077.041-.13.017-.206-.008-.136-.008-.176-.008-.089-.091-.032-.034.035-.074.11-.033.1-.05.106-.05.037-.166.01-.075,0-.083-.04-.133-.058-.108-.04-.116-.017-.05.017-.033.049-.025.068-.009.066.017.064.05.073.033.056.05.074.017.052-.025.129-.174.145-.166.057-.075,0-.1-.049-.074-.1-.042-.087-.058-.087-.058-.076-.083-.055-.1-.021-.108-.006-.083.068-.067.061-.108.075-.091.053-.125.011-.091-.017-.083-.017-.116,0h-.075l-.274-.218-.191-.3-.141-.258-.249-.339-.407-.42-.324-.569-.009-.488-.1-.42-.258-.45-.316-.484-.315-.315-.457.016-.457.025-.515-.045-.282-.144-.374-.409-.772-.735-.474-.439-.191-.125-.324-.114-.465-.1-.482-.091-.274.072-.282.307-.4.416-.457.852-.224.58-.133.261-.216.247-.207.174-.316.14-.374.2-.258.121-.257.113-.25.058-.473-.023-.175-.1-.224-.034-.2-.03-.266-.015-.191.03-.207.092-.391-.16-.258-.17-.382-.412-.989-.9-.2-.322-.166-.511-.2-.636-.257-.42-.183-.265-.332-.189-.349-.2-.523-.14-.831-.36-.282-.219-.4-.523-.125-.325-.266-.187-.449.016-.266.083-.258.023-.2-.053-.191-.147-.332-.5-.125-.254-.216-.109-.283-.163-.158-.125-.282-.14-.241-.064-.54.224-.3.2-.208.14-.656.171-.4.015-.241.011-.241.083-.191.156-.815.477-.282.092-.431.037-.287-.03-.613.125-.307.09-.208.019-.083-.238.034-.269.034-.348-.076-.273-.06-.189-.232-.171-.4-.117-.462,0-.242-.022-.648-.007-.356-.039-.352-.178-.238-.129-.126-.1-.091-.205-.136-.351.064-.5-.037-.541-.031-.238-.31-.171-.459-.155-.31-.095-.378-.152-.394-.052-.318-.046-.148-.053-.322-.128-.272-.117-.284-.121-.182-.068-.223-.262-.137-.265-.223-.227-.352-.027-.156-.022-.075-.136.053-.247.117-.246.144-.491.262-.77.109-.352.034-.265-.03-.159-.238-.022-.323-.019-.333.022-.5.038-.3-.031-.257-.011-.4.011-.311-.068-.239.019-.477.065-.3.129-.277.057-.181.053-.152.015-.246-.212-.166-.292-.167-.114-.269-.114-.306-.095-.234-.052-.288.007-.288.019-.186.11-.087,0-.136-.178-.141-.2-.224-.291-.121-.212-.36-.3.095-.163.026-.137-.129-.147-.454-.39-.178-.129-.056-.042-.016-.2.152-.826-.095-.363-.1-.519-.182-.249-.2-.167-.243-.049-.234-.042-.148.027-.341.023-.325-.579.435-.216.421-.22.394-.2.564-.351.568-.118.609-.163.254-.132.325-.273.091-.163.155-.716.042-.379.03-.246.227-.151.258.061.3-.031.284-.008.245,0,.284-.008.171-.068.143-.36.095-.375.042-.193.318-.064.3.05.246.03.08-.105-.151-.216-.451-.462-.269-.727.083-.462-.095-.144-.159-.167-.2-.155-.326-.073-.478-.068-.321-.034-.216.026H979.1l-.272-.01-.277-.027-.223-.046-.28-.08-.155-.079-.289-.11-.139-.185.132-.364.174-.193.151-.192.031-.141-.068-.238-.186-.2-.246-.185-.155-.231-.011-.238.022-.25-.068-.212-.2-.136-.277-.087-.235-.155-.121-.265-.174-.212-.163-.038-.065.177v.209l-.049.253-.034.121v.2l-.083.181-.148.159-.166.068-.17.171-.118.114-.156-.057-.163-.182-.2-.167-.182-.132-.287-.087-.216.019-.348.1-.2.061-.14-.073-.042-.3,0-.3-.061-.405-.173-.478-.258-.548-.209-.239.027-.575,0-.247-.148-.287-.163-.17-.083-.326-.023-.223.007-.25-.011-.147-.307-.069-.477-.113-.477-.1-.321-.084-.175.114-.14.109h-.132l-.129-.03-.19-.091-.2-.083-.356-.087-.163-.026-.17.031-.117.151-.121.178-.091.178-.087.155-.106.114-.159.352-.288.034-.129-.088-.065-.17,0-.234.052-.478-.072-.234-.087-.136-.114-.076-.22-.163-.265-.008-.262-.105-.276-.019-.231-.056-.121-.027-.053-.065-.026-.428.022-.344-.253-.424.269-.216.283-.178.179-.175.124-.253.114-.329-.011-.451-.057-.492-.088-.424-.049-.538.027-.379.17-.223.117-.189-.03-.215-.072-.216-.083-.337-.337-.208-.246-.284-.125-.156-.166-.2-.17-.219-.092-.163-.192-.284-.182-.109-.159.158-.1.258-.05.185-.185.245-.08.068.095-.367.046-.242.026-.341v-.318l-.049-.235,1.143-.739.595-.462.56-.341.344-.209.25-.11.265-.053.231.009.238.1.219.121.156.19.133.216.121.174.14.14.6.2.19.095.3.019.16-.046.19-.015.223.114.269.109.3.046.3.1.386.121.746.413.212-.075.295-.095.163-.117.121-.163.182-.22.129-.156.117-.215.163-.148.292-.015.262.041.249.087.114.09.16.163.117.1.352.007.382-.053.269.019.193-.068.148-.163.125-.258.061-.189.121-.292.33-.087.363.023.284.015.6.038.277.023.178.012.314-.208.315-.167.518-.1.227-.079.565-.625.3-.265V934.7l-.114-1.057.057-.446.139-.326.24-.208.367-.469.428-.163.329-.144.454-.239.569-.265.458-.113.284.042.114.216.114.219.079.171.129.027.144-.053.189-.023.33.027.36.007.189-.012.224-.117.091-.159.344-.314.25-.216.276-.2.182-.087.163.175.269.1.283.015.428-.322.489-.337.325-.238.356-.239.277-.189.222-.083.255.072.216.113h.147l.307-.223.11-.224-.019-.246.03-.227.194.167.178.231.238.2.265.321.285.243.189.114.129-.239-.007-.307.083-.288.136-.155.185-.144.084-.2-.075-.886-.095-.379.151-.076.5.049.352.049.515,0,.266-.121.291-.124.258-.068.249-.042.192-.1.066-.17-.008-.212-.083-.175-.191-.12-.365-.072-1.163-.027-.289-.4-.2-.788.041-.375.179-.292.258-.455.639-.3.374-.289.216-.151.141-.424.058-.527.257-.519.141-.239.216-.288.324-.405.324-.162.3-.065.349-.008.316.046.224.03.166-.061.083-.163-.075-.227-.382-.269-.258-.363-.233-.167-.407-.064-.34-.038-.258-.11-.233-.163-.1-.182.016-.318.108-.182.2-.079.258.091.249.027.332.026.549.1.266-.148.132.11.042.223.133.258.124.174.233.095.191.046.133-.068.141-.2.133-.438-.033-.242.158-.221.092-.106.058-.091.008-.163-.016-.238.008-.213-.033-.424.108-.277.083-.234.091-.352.017-.3.058-.367.4-.628.133-.274.175-.4.149-.3.324-.2.5-.106.814-.068.9-.4.615-.622.291-.476.075-.8.042-.629-.066-.742-.225-.409-.232-.4.249-.231.366-.038.283-.105.382-.171.274-.139.349-.007.258-.05.374-.37.449.129.291.17.2.11.041-.11-.083-.2-.067-.125.059-.261.182-.068.249.027.324,0,.457.008.3.038.142.272.075.318.125.258.274.352.324.095.2.037.2.08.15-.068.266-.023.158.03.3.068.307.109.191.065.133-.091.116-.219.208-.1.191-.027.141-.087.109-.11.166-.292.083-.6.2-.488.141-.194.075.262.066.231.167.227.216.065.266.018.432.012.233-.015.29.08.166.152.108.166-.042.754-.083.481-.05.428-.083.534-.058.958.008.28-.282.534-.109.413-.166.795.2.436.183.272.274.292.25.073.257.079.141.133.307.435.067.231.141.2.108.136.15-.056h.24l.242.088.15.2.074.133.042.253.066.228.283.511.058.386.009.185-.091.027-.183-.076-.224-.1-.2-.1-.141-.1-.117-.121-.125-.027-.2.064-.083.057-.133.049-.05.288-.05.14.05.156.141.1.133.114.025.147.016.7.307.341.166.2.3.209.216.095.324.113.274.193.324.2.292.421.241.167.257.1.44.344.407.19.224.008.275-.129.116.008.116.227.125.159.224.126.257,0,.324-.015.548.08.258.011.257-.049.291-.056.274-.031.249-.038.241,0,.224-.01.208-.057.25.057.182.1.291.14.207.117.142.022.092-.079.29-.428.216-.254.282-.083.282.091.374.17.2.144.207.17.208.05.166-.129.125-.2.116-.193.15-.151.274-.114.258-.053.424-.03.191-.046.283.553.224.368.424.223.714.292.49-.034.391-.008.382.1.332.034.258-.038.532-.235.233.087.166.042.249-.163.2-.147.167-.152.166-.231.208-.121.158.178.166.105.133.046.191.011.341-.3.39-.11.249-.068.324-.132.249.064.349.291.067.19.623.048.615.111.457.234.166.254.208.03.607.027.765.041h.307l.275.246.24.258.191.167.183.075.373.049.507.038.523.083.466.17.482.046.365-.027.516,0,.4.023.174.257.208.136.416.045.266.038.207.148.009.166.133.731.25.258.373.3.25.14.374-.14.258-.011.3.227.174.3.158.261.2.277.15.2.615.311.274-.034.249-.1.208-.178.017-.227-.017-.223.017-.352.066-.238.132.022.25.137.183.14.19.113.449.265.307.061.282-.015h.257l.474-.068.2.076.183.2.432.3" transform="translate(-964.708 -907.02)"  stroke="#fff" stroke-linecap="square" stroke-linejoin="bevel" stroke-width="1" fill-rule="evenodd"/>
      <text id="110" transform="translate(35.934 41.631)" fill="#fff" font-size="13"  font-family="OpenSans-Bold, Open Sans" font-weight="700"><tspan x="0" y="0"></tspan></text>
    </g>
    <g id="_34_Sangamner" data-name="34 Sangamner" transform="translate(2041.204 751.617)">
      <path id="talId34" fill="#7DB8EC" title="Sangamner Taluka" data-name="Sangamner Taluka" d="M1078.211,1005.209l-.216-.125-.416-.141-.415-.225-.241-.058-.075.349-.058.34-.1.241-.1.307-.116.3-.141.2-.066.474.05.291.083.241.059.182-.092.225-.282.208-.282.149-.382.175-.25.141-.4-.158-.092-.149-.025-.49-.05-.59-.141-.357-.108-.374-.042-.39.075-.258.108-.216.133-.25-.133-.108-.166-.067-.117-.191-.058-.224-.033-.233-.017-.225-.49.075-.4.141-.291.025-.315-.025-.258-.033-.266-.025-.383-.033-.29.249-.233.075-.275.083-.266.066-.374.075-.365.05-.216-.008-.44-.108-.407-.307-.373-.208-.291-.133-.191-.116-.132-.249-.116-.224-.25.033-.141.15-.083.224-.2.075-.274-.075-.457-.282-.208-.175-.282-.091-.191.016-.191.05-.3-.083-.166-.108-.041-.133.033-.191-.141-.125-.149.092-.266.116-.191-.042-.132-.149-.275-.208-.266-.1-.208-.058-.182-.083-.224-.2-.183-.224-.175-.108-.249-.083-.192-.042-.141.1-.016.2.166.34.058.241.034.116.058.208.133.116.349.067.274.182.191.208.141.183-.025.116-.232-.025-.141-.083-.382-.241-.266-.233-.241-.2-.19-.208-.332-.241-.266-.125-.25-.092-.424-.083-.266.016-.3.1h-.157l-.2-.133-.249-.29-.274-.266-.54-.448-.175-.225-.174-.182-.225-.124-.191-.158h-.158l-.125.108-.208.116-.149.108-.15.058-.557.016-.357-.133-.108-.149-.15-.333v-.307l.075-.324-.117-.316-.2-.391.224-.233.033-.939.224-.332.241-.3.316-.191,1.089.024,1.853-.024.856-.025,1.969.042,1.063-.307,1.562-.656.889-.557.938-.565.54-.349.316-.407.083-.507.241-1.088-.217-1.18-.165-1.089V989.9l-.956-.98-1.03-.557-.332-.365-.923-.648-.964-.931-1.3-1.188-.382-.208-.524-.124-.108-.274-.016-.382-.175-.557-.191-.407-.049-.459.29-.408.549-.439.365-.477.732-.257.216-.151v-.531l-.05-.105-.482-.356-.025-.265.813-.462.15.44.432.28.631-.439.224-.205.557-.288.457-.045.565.227.3-.2.034-1.136-.158-.515-.108-.493-.108-.613-.216-.848.939-1.318.391-.356.4-.469.208-.523-.074-.537-.308-.265-.366-.25-.581-.424-.383.023-.1.454-.05.394-.05.508-.1.364-.582.136.158-.28.257-.477.175-.916-.05-.349-.1-.4-1.08-.583-.365-.4-.3-.507-.233-.3-.54.4-.174.129-.341.143-.416.136-.49.2-.424.137-.083-.2.2-.341.274-.371.265-.462-.016-.629-.382.227-.482.356-.357.447-.349.462-.69-.712.025-.28.341-.333.333-.2.489-.356.2-.492.208-.425.092-.416.357-.629-.3-.969-.216-.181-.64-.576-1.371-.962-.424.016-.4.008-.439.03-.574-.113-.515-.28.017-.243.465-.234.374-.083.358-.091.2-.151-.009-.265-.274-.236-.457-.061-.714.1-.3.022-.564.023-.225-.205-.433-.287h-.216v.484l-.315.145-.375-.084-.432-.083-.357-.159-.241-.3-.349-.485-.149-.561.083-.773.05-.378-.391-.326-.415-.159-.232.031-.324.1-.341.075-.315-.113-.141-.242.2-.114.324-.273.183-.265.233-.386.017-.372.05-.522.441.091.232.182.324.128.665-.6.232-.5.092-.469.108-.469.374-.553.731-.628.1-.008.383.325.232.182.407-.235.282-.4.4-.212.39-.2.922-.258.415-.052.109.5.315.387.35-.243.39-.249.79-.455.905-.614.258-.326.39-.424.042-.425.024-.529.133-.561.307-.4.441-1.008-.59-.4-.166-1.068.008-.682.042-.394-.449-.711-.79-.393-.3-.107-.706-.7-.365-.423-.207-.394-.125-.462-.008-.5-.141-.447-.474-.378-.024-.455-.25-.478-.515-.348-.34-.182-.241-.015-.44.007-.391-.159-.282-.3-.1-.833v-.689l.358-.583.864.129h.416l.291.068.39.2.383.053.532-.038.656-.113,1.072-.129,1-.318,2.2-.644.548-.136.806-.236.25-.2.2-.765.067-.432.183-.552.141-1.008.083-.379.058-.355.091-.227.258-.145.457-.1.374-.068.415-.107.133-.212.017-.6-.116-1.113-.016-.455-.125-.394-.083-.4-.025-.493.108-.62.149-1.181.225-.345.141-.22.216-.33.166-.673.091-.4.116-.364.109-.265.224-.216.133-.094.615-.591.291-.428.083-.239.108-.42.125-.128.174.008.192-.095.091-.561.565.057.257-.042.258-.125.132-.147.042-.2-.042-.261-.074-.235-.5-.719-.3-.3-.125-.186-.125-.152-.025-.231.141-.19.083-.121-.091-.287-.39-.349-.15-.1.083-.257.15-.216.19-.136.374-.277.241.219.391.2.29.167.208.174.25.155.183.175.116.182.075.241.274-.105.407-.212-.025-.5.05-.349.124-.375.324-.757.224-.731-.017-.363L1075,914.2l.066-.355.159-.194.266-.272.341-.348.274-.773.124-.632.05-.427-.016-.338.025-.477.083-.228.374-.294.182-.107.242-.049.847-.109.382-.106.29-.034.358.034.316-.068.266-.155.723-.825.332-.28.432-.057h.473l.582.072.657.045.581-.015.782-.064,1.1.064.473.14.391.155.391.155.208-.034.025-.258.066-.417.1-.261.357-.11,1.2-.209.449-.243.432-.023.782-.019.29.151.183-.057.175-.17.083-.432.1-.579.249-.253.432-.236.873-.382.532-.272.465-.152.582-.17.216-.329.383-.258.133-.387.315-.859.3-.761.125-.431.183-.432.182-.091.424,0,.557.046.3.064.332.027.482.091.689.174.631.167.731.272.166.064.515.284.557.323.432.272.175.166-.232.969-.557.985-.307.788-.15.97.075.894.365,1,.441.212.482.106.44.273,1,1.075.823.97.44.7-.091.53-.307.439.033.561.365.545,1.953.092,1.055.257.9.03-.648,1.106-.349.44.058.242.349.59.515.8.591.939.814.182,2.243.317,2.468.274.075.289.016.311.05.861.025.366v.77l-.2.288.025.246.158.231.166.163.107.239.017.295-.017.224.05.148.149.054,1.363.212,1.305.228,1.154.394.557.076.091.817-.091.788-.258.485-.44.575-.15.591-.017.531.441.772-.607,1.515-.723,1.3-.4,1.439.939-.137-.075.243-.3.318-.167.333v.394l.174.484.383.44.44.242.391.076.747.045.025-.667-.465-.243-.258-.363-.05-.605.332-.667.249-.394.557-.379.241.045.233.349-.017.212-.2.424-.366.531.091.409.407-.076.606-.379.183-.046.333.379-.116.5-.108.273v.363l.424.258.532-.136.665-.257h.682l1.171-.008.224.432-.133.56-.2.659-.532,1.227-.814.091-.424.084-.54.174-.333.167-.157,1.446-.092.764-.091.5-.192.6-.133.394-.158.734.465.568.357.266.216.265.133.348-.008.334-.366.076-.482-.061-.5.053-.3.174-.407.682-.191.47-.232.219-.241-.121.066-.462.025-.326-.033-.28-.44-.091-.407.3-.217.4-.074.463.042.606-.175.8-.141-.008-.207-.212-.158-.447-.3-.621-.407-.31-.59-.016-.515.175-.4.295-.084.3.059.424.282.356.016.431-.431.273-.125.2.474.091.731.25,1.2.591v.7l.673.258.782.091.755-.182.531-.545.424-.872.382-.2,1.5-.409.839-.454.564-.182.557-.038.423.068.358.114-.05.765-.208.84.042.659-.166.5.124.318.573.023.972.022.075.894.083.833-.1,1.022-.067,1.023-.358.455-.323.394-.066.582-.133.522-.216.4-.507.241-.332-.2-.424-.234-.208.257.125.439.233.272.133.47-.682.151-1.163.311-.39.424-.149.4.166.424.357.47.557.416.614.2.341.826v.515l-.25.788-.124,1.25.025,1.219.34.6.408.643.025,1.174.324.916-.3.273-.4.379.216.257.249.962-.332,1.31-.325.863-.473.416-.565.258-.731.061-.657.243-1.212.56-.906.128-.731.053-.657.1-.548.129-.938-.046-.458-.2-.407-.41-.349-.34-.307-.113-.133,1.06-.041.523-.025,1.03.141,1.523.249,1.764-.241,2.787-.241,1.539-.233.083-.125.208-.067.149-.066.141-.074.091-.141.058-.341.141-.166.075-.158.092-.091.116-.075.341-.083.158-.166.141-.241.091-.257-.017-.175-.025-.158-.249-.075-.191-.033-.365-.149-.357-.174-.208-.241-.108-.166-.033-.341.016-.133-.024-.208-.042-.149-.058-.133-.166-.134-.15-.274-.1-.166-.009-.182.083-.083.182-.15.366-.183.291-.15.183-.2.1-.3.008-.108-.083-.149-.291-.108-.158-.15-.075-.8-.3-.59.15-.249.133-.831.349-.291.15-.133.1-.133.2-.2.341-.075.25-.05.141-.033.166-.075.523-.158.266-.167.141-.216.033h-.091l-.183-.19-.091-.117-.757-1.138-.224-.141-.249-.017-.191.05-.308.083-.523.241v.266l-.042.2-.165.091-.374-.058-.108-.041-.266-.133-.291-.1-.24-.175-.191-.1-.1-.3-.125-.623-.357-.232-.374.008-.391.074-.374.133-.249.075-.224.025-.448.141-.175.2-.191.108-.307-.008-.325.042-.257.066-.1.125-.091.39-.008.25-.016.191-.009.175.108.183.208.216-.009.2-.083.133-.167.075-.557.066-.083.183.124.141.291.117.29.042.25.05.249.133.075.083.523.075.308.474.274.4.333.457.656.6-.166.266-.266.083-.29.05-.474.233.091.324.506.383.075.141.033.382.033.407-.1.175-.174.059-.258-.125-.141-.158-.349-.291-.323-.066-.432.158-.324.274-.391.407-.448.183-.523.125-.623.141-.474.116-.54.033-.175.033-.59-.033-.39-.207-.266-.266-.15-.158-.233.024-.324.225-.182.308.008.249.149.241.266.141.2.116v.216l-.083.482.025.307.374,1.063-.041.382.124.208.116.382.308.582-.092.474-.332.183-1,.258-.532.066-.44-.008-.432-.133-.448-.191-.441-.05-.4.158-.69.383-.349-.067-.972.216-.89.025-.615.009-.656-.075-.7-.366-.3-.249-.789-.764-.516.05-.523.191-.465.075-.631-.067-.357.009-.523.149-.382.224-.025,1.421-.066.9-.066.731-.084.59-.066.473-.324.291-.365.391-.109.266.075.291.1.233.083.357-.067.349-.208.241" transform="translate(-1050.91 -900.986)"  stroke="#fff" stroke-linecap="square" stroke-linejoin="bevel" stroke-width="1" fill-rule="evenodd"/>
      <text id="34" transform="translate(17.166 56.791)" fill="#fff" font-size="13"  font-family="OpenSans-Bold, Open Sans" font-weight="700"><tspan x="0" y="0"></tspan></text>
    </g>
    <g id="_30_Kopargaon" data-name="30 Kopargaon" transform="translate(2080.856 710.72)">
      <path id="talId30" fill="#7DB8EC" title="Kopargaon Taluka" data-name="Kopargaon Taluka" d="M1159.289,891.173l-.125-.3-.108-.21-.133-.144-.316-.271-.332-.219-.324-.173-.382-.248-.3-.166-.366-.1-.3-.15-.458-.259-.391-.235-.523-.062-.4,0-.316-.04-.249-.07-.1-.14-.05-.2-.017-.11.15-.505.365-.6.175-.416.116-.668v-.345l.025-.258-.175-.377-.208-.415-.249-.3-.341.013-.6.146-.4.293-.781.072-.532.283-.415.084-.648-.034-.607-.05-.664.288-1.088.5-1.139.8-.673.11-.357-.022-.382-.151-.682-.228-.914-.2-.64-.659-.466-.281-.556-.011-.465.174-.333.118h-.265l-.191-.152-.266-.174-.266-.057-.366-.015-.257-.019-.673-.105-.565-.459-.283-.216-.648-.037-.44.027-.557-.133-.465-.087-.581-.049-.565.178-.241.3-.191.421-.15.7-.249,1.264-.05,1.2-.008,1.318-.083.325-.241.182-.565.215-.764.3-.947.508-1.013.2-.54.25-1.214.432-1.038.469-.508.242-.672.334-.091.2-.025.635-.017,1.015-.365.121-.466.288-1.1.719-.823.992L1123,898.5l-.416.864-.839,1.071-.191.206.066.215.656.16.465.1.923.239.764.136,1.205.379.257.143-.208,1.231.125.677.042.542.739,1.083.316.556.25.3.373.03.325.042.5.317-.008.425-.017.776-.458.905-1.5-.068-.307.257-.573.576-.333.258-.44.273-.565.257-.631.288-.657.136-2.467-.273-2.243-.317-.814-.182-.59-.939-.515-.8-.349-.591-.058-.242.349-.439.648-1.106-.9-.03-1.055-.258-1.953-.092-.365-.545-.033-.561.307-.439.091-.53-.44-.7-.823-.969-1-1.075-.441-.273-.482-.107-.44-.212-.366-1-.075-.894.15-.969.307-.788.557-.984.233-.97.224.155.407.174.308.125.274-.075.192-.17.116-.117.449-.269.216-.155.175-.163.208-.159.216-.28.033-.224-.083-.212-.1-.239-.1-.239-.067-.185-.142-.428.058-.45.217-.644.349-1.359.141-.539.524-.143.366-.137.249-.064.424-.031.3-.03.374-.038.732-.019.581.019.25.068.133.148-.008.219.216.121.224,0,.166-.05.115-.061.125-.2.15-.129.232.129.266.053.166-.243.083-.341.141-.223.192-.015.249-.144.133-.114.291.072.174-.117.075-.155.049-.129.216-.2.275.246.107.189.225.193.175.023.125-.186.058-.253.016-.182-.108-.136-.124-.087-.158-.132-.125-.2-.141-.227-.2-.19-.158-.151-.075-.246.009-1.181.141-1.292.149-.764.042-.477v-.318l-.333.03-.282.031-.241,0-.167.007-.2-.049-.042-.14.033-.314-.025-1.2-.034-.924.067-2.749.075-1.663-.781-.041-1.4.091-.641-.076-.348-.084-.416-.1-.407-.027-.324-.061-.3-.171-.116-.329.042-2.057-.449-.19-.705-.053-.416-.2-.357-.148-1.163-.193-.939-.227-.407-.17-.914-.428-.507-.246-.416-.166-.465-.008-1.013-.105-.316-.133-.1-.125-.026-.337-.049-.31.033-.25-1.2-.16-.374-.064-.49-.107-.382-.124-.3-.076.033-.36.175-.75.049-1.09-.183-.962-.232-1.3-.2-.7-.632-.079-.465-.049-.715-.073-1.488.106-.747-.05-.183-.083.033-.844-.033-1.731-.208-1.693.042-.582v-.337l.357-.021.308.013.34.038.341.036.474-.016.39.008.4-.019,1.429.092.755.25.491.371.208.2.231.144.391-.439.25-.614.207-.7.091-.561.133-.894-.116-1.158-.033-.826.033-.508.764.728.4.522.175.454.157.25.291.265.39.2.241.273.092.3.281.4.241.31.225.144.49-.083.282-.272.224-.546.183-.53.2-.341.175-.106.341-.023.241-.091.116-.174.042-.265.083-.34.016-.257-.025-.386.639-.039h.782l.822.167h1.346l.864.037.49-.022.4.068.117.6.041.546.059.454.025.364.034.416.016.357.125.386.59.037.582.129.515.106.54.1.174-.712.026-.545.157-.462.316-.2.606.227.5.151.365.1.258.1.165-.227.109-.166.506-.333.075-.288.132-.3-.016-.273,1.163.1,1.28.151,1.18.235,1.8.22,2.318.257.8.3.681.106.781.105.532-.061.557-.143.614-.371.532-.477.424-.712.39-.916.274-.848.184-.454.132-.242,4.2.083-.134.394.075.243.059.173-.034.387.009.152-.075.174-.092.121-.091.144.033.152.116.136.067.09v.5l.025.143.066.155-.017.133-.067.109-.108.125-.116.095-.083.087.034.17v.129l-.058.129-.108.144-.141.4-.067.235-.083.208v.409l.025.178.067.2.083.087.149.049.906.114.606.049.291.087.266.037.083-.2.249-.8.058-.356.623.038.349.06.415-.242.342-.129.507-.083.432-.129.224.5.349.159.615.03.731.015.157-.523-.024-.5.149-.3.69-.129.54.007.69.114.747.212,1.454.659.8.4.607.234.615.175.44.272.556.576.474.636.972.8,2.027.257,1.562.037.649.06,1.163.334,1.229-.038,1.8-.023.973.023.648.053,1.337.326,1.878.2,1.08.2.64.009,1.736.068.988-.121.025.272.167.837-.041,1.253-.025.307.133.182.333.053.564.037.008.545.017.372.109.413-.225-.023-.59.023-.873.019-.706.14-1.262.2-.532.155-.624.114-.15.216-.133.784-.224.534-.2.613-.009.435.216.962.116.875.051.89-.2.647-.083.481-.091.588-.283.506.108.9.059.958-.1,1.428.025.425.282.14.382.125.449.1.8.145.573.144.033.246-.116.841-.158,1.374-.075,1.193-.083.284-.174.117-.175-.027-.765-.253-1.055-.357-1.4-.53-.864-.181-.623-.22-.889-.1-.4-.016-.5.019-.673-.049-1.081-.121-.431-.019-.532.027-.125,1.711-.034.724-.125,1.238v.641l-.191,1.019-.058.523v.47l-.067.685-.2.936-.316,1.034-.224.988-.34.587-.416.432-.449.4" transform="translate(-1099.02 -851.644)"  stroke="#fff" stroke-linecap="square" stroke-linejoin="bevel" stroke-width="1" fill-rule="evenodd"/>
      <text id="30" transform="translate(19.515 20.688)" fill="#fff" font-size="13"  font-family="OpenSans-Bold, Open Sans" font-weight="700"><tspan x="0" y="0"></tspan></text>
    </g>
    <g id="_117_Rahata" data-name="117 Rahata" transform="translate(2103.443 743.116)">
      <path id="talId117" fill="#7DB8EC" title="Rahata Taluka" data-name="Rahata Taluka" d="M1127.453,917.459l.656-.136.631-.288.565-.258.441-.272.331-.258.574-.576.308-.258,1.495.068.457-.9.016-.777.008-.424-.5-.317-.323-.042-.375-.03-.249-.3-.316-.557-.74-1.082-.041-.542-.125-.678.208-1.23-.258-.144-1.2-.379-.765-.136-.922-.239-.465-.1-.656-.16-.066-.215.191-.205.839-1.071.416-.864.88-1.692.823-.993,1.1-.719.466-.288.366-.121.016-1.015.025-.636.091-.2.673-.334.507-.241,1.039-.47,1.213-.432.54-.25,1.014-.2.946-.508.765-.3.564-.215.241-.182.083-.326.008-1.317.05-1.2.25-1.265.149-.7.191-.42.241-.3.565-.177.581.048.465.088.556.133.441-.027.648.038.282.216.566.458.673.106.257.019.366.015.265.057.266.173.191.152h.266l.332-.118.465-.173.556.011.466.281.64.659.914.2.681.227.383.151.357.022.673-.11,1.139-.8,1.088-.5.665-.288.606.049.648.035.415-.084.532-.283.78-.072.4-.293.6-.146.341-.013.249.3.209.414.174.377-.025.258v.345l-.116.668-.174.417-.366.6-.15.505.017.11.05.2.1.14.249.07.316.04h.4l.524.062.39.235.457.259.3.15.365.1.3.166.383.248.324.173.332.219.316.272.133.144.108.21.126.3.149.769.109.411.05.185.324.294.382.276.574.36.689.4.59.242h.557l.731-.242.465-1,.45-.7.324-.455.39-.53.341-.583.714-.485.374-.2.44-.143.382-.061.308.007.44.175.2.219.873.553.357.212.3.226.167.258.208.5.05.281.14.247-.431.283-.666,1.128-.108.736-.274,1.25-.109,1.514.009,1.045-.74,1.235-1.6,1.6-.54.6-.041.734.407,1.772.141.7.274.735-.025.62.049.189.333-.015.4-.09.482-.174.615-.311.483-.295.789-.083.4.409.092.666-.066.8-1.105,1.432-.8,1.848-1.163,1.894-.948,1.477-1.021,1.007-.383.272-.623.137-.109.4-.083.8-.366.5-.522.046-1.687.356-1.272.189-.39.265-.133,3.325.448.356.474-.03,1.122-.092.781-.136,1-.1,1.2.007.864.2.373.386-.158,3.756.191.364.2.341-.092.2-.291.121-.548.069-.707.105-.706.031-1.013-.129-.516.053-.315.446-.6.1-.606.023-1.13-.068-.615.046-.333.492-.282.289-.474.234-.266.024-.557-.129-.631-.3-.581-.37-.665.09-.806-.015-.116.416-.017.561-.59,1.242-.432,1.294-.5,1.227-.315,1.34-.075.53-.091.9-.167,1.348-.1,1.62-.3.228-.232.076-.266.114-.149-.136-.225-.364-.249-.318-.275-.016-.157.273-.2.25-.183.075-.257-.112-.266-.318-.383.015-.265.265-.233.605-.424.863-1.337-.363-.674-.129-.747-.015-.449.159-.548.379-.316.129-.424-.235h-.623l-1.138.167-.757.47-.813-.455-.59-.174-.715.031-.772.689-.432.235-.6.189h-.433l-1.229-.8-.432-.281-.641-.044-.357-.114-.423-.068-.557.037-.565.182-.84.454-1.5.409-.382.2-.424.872-.531.545-.757.182-.78-.092-.673-.257v-.7l-1.2-.591-.732-.25-.473-.091.125-.2.432-.273-.017-.431-.282-.356-.058-.424.082-.3.4-.295.515-.175.59.016.407.31.3.621.157.447.208.211.141.008.175-.8-.042-.607.075-.462.217-.4.406-.3.441.09.033.28-.025.326-.066.462.241.121.233-.219.192-.469.406-.682.3-.174.5-.053.482.061.366-.076.008-.334-.133-.348-.216-.265-.357-.265-.465-.568.158-.734.133-.394.191-.6.091-.5.092-.764.157-1.446.332-.167.54-.174.424-.084.814-.09.532-1.227.2-.659.133-.56-.224-.432-1.172.008h-.681l-.665.257-.532.136-.424-.257v-.363l.109-.273.116-.5-.333-.379-.183.046-.606.379-.407.076-.092-.409.366-.531.2-.424.017-.212-.233-.349-.241-.045-.557.379-.248.394-.333.666.05.606.257.363.465.242-.025.666-.748-.045-.39-.077-.44-.242-.382-.439-.174-.484v-.393l.166-.333.3-.318.074-.243-.939.136.4-1.439.722-1.3.607-1.515-.44-.772.016-.531.15-.591.44-.575.257-.485.092-.788-.092-.817-.556-.076-1.155-.394-1.3-.228-1.363-.212-.15-.053-.05-.148.017-.224-.017-.295-.108-.238-.166-.163-.158-.23-.025-.247.2-.288v-.77l-.025-.366-.05-.861-.017-.311-.075-.289" transform="translate(-1126.14 -890.562)"  stroke="#fff" stroke-linecap="square" stroke-linejoin="bevel" stroke-width="1" fill-rule="evenodd"/>
      <text id="117" transform="translate(8.928 31.292)" fill="#fff" font-size="13"  font-family="OpenSans-Bold, Open Sans" font-weight="700"><tspan x="0" y="0"></tspan></text>
    </g>
    <g id="_12_Nevasa" data-name="12 Nevasa" transform="translate(2171.863 772.823)">
      <path id="talId12" fill="#7DB8EC" title="Nevasa Taluka" data-name="Nevasa Taluka" d="M1217.5,951.042l-.108-1.393-.366-3.908-.573-1.644-.009-.939-.1-.333-.241-.4v-.25l.183-.295.291-.25,1.845-.727.109-.734.191-.349.075-.438.149-2.008.382-1.113.316-1.136.132-.879-.124-.7-.349-.386-.64-.144-.856-.137-.631-.106-.506-.493-.249-.7.133-.561.565-.953.357-.007.407-.068.457-.235.382-.424.573-.621.591-.834.3-.712.108-.273.066-.594.532.034.225.011.248.053.275.137.257.223.25.391.3,1.029.358.644.182.352.149.3.283.181.449.118.415-.019.49.012.649-.1.706-.3.324-.208.3-.228.124-.078.2-.072.182.012.224.076.191.087.249.12.275.019.141-.038.324-.162.441-.281.448-.291.2-.1.258-.034.224.046.225.189.091.2.016.409-.041.444-.233.458-.091.322.008.242.091.246.242.3.315.133.556-.179.707-.2.69-.148.2-.083.291-.228.258-.226.308-.262.34-.212.507-.14.282-.052.233-.023.34.008.266.06.233.122.158.163.241.148.174.049.266-.049.241-.163.341-.114.29.068.217.231.05.163-.025.3-.041.2-.05.269.042.189.067.212.149.159.134.087.258.05.216-.148.49-.549.266-.2.233-.311.3-.276.441-.254.34-.083.374.019.34.053.424.027.374.008.4-.091.324-.095.307-.083.408-.027.482.148.523.268.3.2.773.39.606.159.532.189.54.175.308.261.074.307.041.262.1.318.333.295.4.269.557.413.4.394.217.2.215.114.224.076.324-.019.6-.167.224-.041.224.007.182.024.349.083.491.133.856.083h.391l.473-.031.881-.071.332-.107.533-.151.456-.083.457,0,.324.163.307.246.091.25-.033.242-.2.322-.2.488-.067.307.033.3.25.284.473.117.624.019.465.035.441.177.448.439.473.367.582.1.5-.1.191-.079.366-.238.564-.243.723-.095.357-.049.474-.109.614-.216.69-.133H1266l.257.034.341.269.705.629.2.208.3.254.449.144,1.129-.053.39-.068.483-.015.507.053.4.268.316.269.416.322.44.318.266.23.275.3.274.219.282.076.432-.307.217-.212.564-.155.473.22.565.147.465.311.316.268.681.436.307.079.216-.019.191-.03.183-.2.316-.447.631-.488.34-.2.665-.186.723-.14.3-.065.323-.011.532.05,1.021.186.324.128.532.2.507.174.657.674.208.359.1.326.158.405.382.412.49.216.382.353.2.647-.059.515-.507.807-.149.69.116.385.182.33.507.193.781.227.282.125-.457.818-.357.832-1.222,1.985-.831,2.106-1.139.037-1.346-.3-.59-.091-.631.068-.74.167-.805.394-1.7.727-.615.144-.764.031-1.163.136-.3,1.386.009,3.173-.017.924.182.265.507.356.515.273-.174.53-.092.5-.033,1.052-.317,1.121-.963,1.81-.266.53-.407.167-.425-.068-.665-.053-1,.107.141,3.923-.7,1.249-1.031,2.106-.041,1.742-.765,1.939-.008,1.021-.274.622-.9,1.007-.108.4.067.447.116.4.133.614.2.871.141,1.772-.224.531-.672.182-1.429.833-1.977.485-.715.273-.689.287-.64.236-.647.09-.7.318-.972,1.216-.349.739-.806,1.189-.341.381-.191.382.075.565.075.333.291.789-.557.755-.482.424-.291.373.1.54.091.5-.249.64-.365-.1-1.654-.531-1.3-.365-1.238-.158-1.454-.116-1.944.1-1.313-.008-.806-.075-.416-.025-.673-.34-.44-.108-1.18-.133-.415-.424.083-3.282-.6-.224-.416-.108-1.4-.258-1.081-.183-2.957.166-.831.074-.308.391-.274.374-.3.025-.656.008-.614.141-.266.756.008,1.5-.033.74-.458.315-1.022-.1-.805.474.116.54.165.424.059.507-.017.723-.182,1.105-.324.614-1.562-.374-.548-.249-.283-.224-.266-.49-.141-.382-.856-.083-.524.216-.582.232-.59-.033-.656-.2-1.32-.308-.74-.175-.714-.1-1.03.822-.589.814-.266,1.271-.416,1.047-.3.349-.615.39-1.1.2-1.171-.44.174-.989.117-.407.174-.258.1-.432-.232-.491-.615-.822-1.138-.931-.989-.166-.756-.108-.923-.142-.689-.141-.764-1.105-1.4-1.72-.6-2.468-.274-1.321,1.637-2.493.54-1.068.067-.439-.416-.538-.307-.333-.307-.378-.041-.644.1-3.347v-2.173l-.2-.743-.175-.424-.15-.417-.074-.341-.042-.462-.365-.182-.4-.022-.324.022-.417.046-.339-.2.016-.416.108-.386.465-2.008.067-4.143.125-1.09.266-.257.464-.357.474-.007.416-.038.34-.265.432-.394.283-.469-.075-.416-.249-.462-.158-.318-.008-.4.166-.311.267-.355.115-1.273.241-.03.266-.053.4.076h.365l.283-.174-.051-.364-.39-.31.224-.281.407-.31.441.2.332.356.349.234.407.016.033-.454-.365-.561-.324-.28-.431-.408.108-.364.407-.311.557-.053.382.152.441.34.424.295.473.1.349-.136.234-.333-.034-.348-.507-.266-.548-.06-.407-.386.058-.758.224-.666.332-.644.357-.182.457-.129.474-.06.789-.06.623-.038.291-.212.224-.575-.69-1.068-.15-.107-.323-.175-.3-.256-.033-.22.158-.3.341-.22.157-.371-.374-.106-.624-.3-1.345.061" transform="translate(-1209.27 -926.304)"  stroke="#fff" stroke-linecap="square" stroke-linejoin="bevel" stroke-width="1" fill-rule="evenodd"/>
      <text id="12" transform="translate(22.508 42.584)" fill="#fff" font-size="13"  font-family="OpenSans-Bold, Open Sans" font-weight="700"><tspan x="0" y="0"></tspan></text>
    </g>
    <g id="_31_Rahuri" data-name="31 Rahuri" transform="translate(2105.678 792.338)">
      <path id="talId31" fill="#7DB8EC" title="Rahuri Taluka" data-name="Rahuri Taluka" d="M1160.973,1006.7l-.756-.183-.64-.266-.606-.233-.507-.174-.332-.141-.374-.274-.116-.208-.2-.582-.955-.141-1.022.382-.914.5-.856.133-.631.058-.607.216-.664.107-.507.125-.664.3-.407.274-1.113.241-.848.158-.482-.706-.149-.59-.066-.565.074-.7.075-.266-.116-1.437-.856-.523.283-.457.183-.241.049-.324-.282-.407-.191-.241.05-.241.407-.258.15-.182-.174-.316-.382-.291-.258-1.006-.133-.606.149-.582.266-.432.2-.515.266-1.3-.116-.707-.283-.64-.524-.166-.349-.166-.108-.44-.257-.823-1.388-.781-.648-.349-1.022-.469-.415.408-.424.19-.864-.037-.291-.326.042-.712.258-.3.058-.386-.365-.318-.44.1-.4.061-.307-.182-.357-.295-.316-.054-.208.061-.7.462-.34.348-.283.235-.29.061-.432.007-.4.053-.316.129-.241.265-.291.318-.382.386-.166.394-.149.3-.266.192-.208-.017-.366-.236-.3-.143h-.382l-.291.143-.98,1.1-.449.548-.283.324-.248.282-.49.431-.133.266-.856.05-.3-.308.042-.415.141-.407-.108-.174-.357-.432.24-1.538.241-2.788-.25-1.764-.141-1.523.024-1.03.042-.523.133-1.06.308.113.349.34.407.41.458.2.938.046.549-.129.656-.1.731-.053.906-.129,1.213-.56.656-.243.731-.06.565-.258.474-.416.324-.863.332-1.311-.25-.962-.216-.258.4-.379.3-.273-.324-.916-.025-1.174-.406-.643-.342-.6-.025-1.219.125-1.25.25-.787v-.515l-.341-.826-.615-.2-.556-.416-.358-.469-.166-.425.15-.4.39-.424,1.163-.311.681-.151-.133-.47-.232-.272-.125-.438.207-.258.424.234.332.2.507-.241.216-.4.133-.523.067-.583.324-.393.357-.455.066-1.023.1-1.022-.083-.833-.075-.894-.972-.022-.573-.023-.125-.317.167-.5-.042-.659.208-.841.05-.764.64.044.432.28,1.23.8h.431l.6-.19.432-.235.773-.689.714-.031.59.175.814.454.756-.47,1.139-.167h.623l.424.235.316-.129.549-.379.448-.159.748.015.673.129,1.337.363.425-.863.232-.606.266-.265.383-.015.266.318.256.113.183-.076.2-.25.158-.273.274.015.25.318.223.364.15.136.266-.114.233-.076.265.318.224.345.208.257.183-.239.192-.249.291-.3.473-.192,1.279-.061.3-.3.258-.416.133-.447.108-.341.183-.144.3.3.358.379.456.212.224-.029.3-.265.233-.4.357-.175,1.628.015.557.122.374.288.914-.031.714-.1.49-.22.631-.136,1.072.075.216-.545-.208-.356.316-.53.523-.2.69-.152.6-.037.283.326-.158.378-.457.311-.465.28-.573.235-.183.364.291.4.482.227.349.129.008.545.05.341.506.219.332.326-.124,1.7.017,1.166.083.5.415.06.432-.09.474-.213.349-.553.075-.651.249-.666.374-.758.332-.56.3-.591.158-1,.374-1.348.207-.492.515-.327.208-.462-.033-.379-.242-.432.091-.424.383-.106.714.5.523.462.448.4.225.386.058.447v1.681l.374.318.117.371-.142.28-.224.379-.133.288.141.2.914.053.665.015.49.136-.058.78-.3.281-.516.2-.249-.3-.208.022-.208.3.05.166.6.364.274.243.108.249-.191.6-.034.235.009.318.216.394.6.538.374.386.607-.167.466-.265.391-.1.257.34.615-.311.5-.151.282-.4.175-.258.656-.038.54-.068.5-.219,1.156-.408.731.431.05.47-.291.317-.44.213-.083.3.357.272.4.167.341.023.407-.22.215-.189.508-.326.615-.25.424-.2.581.054.5.287.3.129.557-.22.108-.423v-.3l-.009-.455.341.031.233-.152.2-.2.108-.22.232-.485.216-.052.524.272.224.3-.191.371-.257.379.025.273.465.265.316.09.357-.189.291-.28.116-.166.182-.3.225-.294.905.643.574.152.806-.167.241-.243-.008-.242-.291-.228-.158-.159-.074-.219.141-1.584.541-.424.548-.3.573-.242.747-.152,1.114-.371.706.409.781.107.424-.274,1.346-.061.623.3.374.106-.157.37-.341.22-.158.3.033.221.3.257.324.174.149.106.689,1.068-.224.576-.29.212-.623.038-.789.06-.474.06-.457.129-.357.182-.333.644-.224.666-.058.758.407.386.549.059.506.266.033.348-.233.333-.349.136-.474-.1-.423-.295-.44-.34-.382-.152-.557.053-.407.311-.108.363.432.409.324.28.365.561-.032.455-.407-.016-.349-.234-.332-.356-.441-.2-.407.31-.224.28.391.31.05.365-.282.173h-.366l-.4-.075-.265.053-.241.03-.116,1.273-.266.355-.166.31.008.4.158.318.249.461.075.417-.282.47-.432.394-.34.265-.416.038-.473.007-.466.357-.266.257-.125,1.09-.067,4.142-.464,2.008-.108.386-.017.416.341.2.415-.045.324-.022.4.022.365.182.043.462.074.34.15.417.175.424.2.743v2.173l-.1,3.348.041.644.307.378.307.334.416.538-.067.438-.54,1.069-1.636,2.493.274,1.321.6,2.467,1.4,1.72.764,1.1.69.141.922.141.755.108.989.166,1.138.931.615.823.233.49-.1.432-.175.257-.116.407-.174.989-.324.889-.357.59-.615.208-1.055.091-.739-.041-1.321-.074-.872.017-1.371.216-1.936.981-.922.282-.531-.316-.374-.174-.549-.183-.4.25-.391.166-.425.092-.414.515-.1.275-.366.033-.756-.067-.665.058-.441.033-.382.033-.573.241-.84.1-.141-.474-.473.349-.407-.133-.714.1-.292-.025-.315-.233-1.338-1.188-.764-.465-.167-.316.117-.382.283-.3.407-.349.082-.565-.556-.665-.266-.615-.133-.332-.175-.681-.664-.2-.714-.041-.64.074-.424.092-.523-.033-.756-.083-.632-.025-1.063-.233.416-.615.166-.333-.192-.34-.465-.1-.673.034-.673.132-.631.125-.814.049-.2-.008-1.57.365-1.3.374-.756.158-.523.158-.606.108-.39-.216-.349-.283-.49-.341-.324-.324-.124-.382.133-.482.108-.382.075-.408-.557-.282-1.761.041-.657.058-.581.282-.806.424-.333.249-.424.457-.166.233.091.382.183.5.224.74.374,1.221-.4.523-.616.3-.323.191-.125.74-.133.441-.174.2-1.03.806-.324.266" transform="translate(-1128.77 -949.981)"  stroke="#fff" stroke-linecap="square" stroke-linejoin="bevel" stroke-width="1" fill-rule="evenodd"/>
      <text id="31" transform="translate(25.691 29.07)" fill="#fff" font-size="13"  font-family="OpenSans-Bold, Open Sans" font-weight="700"><tspan x="0" y="0"></tspan></text>
    </g>
    <g id="_115_Parner" data-name="115 Parner" transform="translate(2067.632 830.649)">
      <path id="talId115" fill="#7DB8EC" title="Parner Taluka" data-name="Parner Taluka" d="M1164.057,1082.449l-.373.208-.4.257-.465.291-.224.124-.2.05-.224.042-.216.116-.192.266-.805.814-.664.581-.441.341-.416.332-.174.25-.182.282-.15.241-.133.349-.132.806-.175.532-.1.283-.515-.125-.5-.041-.458-.067-1.7.008-1.787-.448-1.653-.375-1.089-.2-.665-.224-.714.241-.574.332-1.271.3-.274-.532-.557-.008-.6.149-.257.349-.174.3-.474-.349-.29.108-.358.308-.249,1.512-.632,1.163-.565.382-1-.241-.648-.249-.4-.424-.39-.117-.39.2-.682.283-.565.241-.365.249-1.6,1.388-.789.657-.574.19-.831-.332-.639-.407-.424-.407-.374-.457-.249-.557-.183-.847-.224-.291-.457-.216-.689.141-.681.465-.582.49-.557.358-.365.091-1.837.383-1.289-.275-.681-.133-.615-.183-.839-.033-.848.166-.723.366-.382.481-.274.565-.507.906-.265-.033-.217.058-.407.167-.839-.067-.6-.275-.689-.241-.482-.249-.59-.524-.266-.091-.557-.133-.565-.133-.274-.157-.216-.191-.167-.158-.307-.183-.25-.116-.332-.075-.274-.033-.358.091-.207.2-.324.391-.075.224-.116.25-.2.215-.233.175-.29.05-.581.033-1.322-.249-.432-.25-.391-.307-.191-.233-.266-.474-1.022-.914-.574-.457-.689-.615-.05-.282.009-.308v-.332l-.067-.166-.091-.3-.033-.274.091-.158.208-.14.124-.141.017-.166-.025-.242-.091-.133-.317-.166-.4-.2-.192-.249-.057-.166-.05-.208.008-.316.017-.241-.033-.473-.1-.324-.191-.266-.191-.175-.607-.514-.191-.565-.016-.315.049-.175.025-.316-.141-.349-.058-.208.008-.183.2-.274.075-.158.033-.374-.091-.216-.183-.09-.208-.067-.258-.033-.291.017-.207.017-.191-.058-.183-.092-.574-.515-.191-.291-.091-.266-.075-.382-.142-.465-.25-.092-.3.075-.258-.042-.224-.14-.374-.291-.316-.233-.124-.291-.116-.382-.4-.541-.365-.507-.216-.382-.158-.208-.107-.457-.149-.465-.258-.249-.283-.216-.573-.374-.4-.457-.116-.291-.05-.2-.133-.556-.083-.474-.108-.316-.116-.157-.133-.034-.183.166-.083.108-.208.041h-.166l-.332-.025-.465.05-.208.017-.183.025-.208-.092-.092-.216.05-.166.133-.116.108-.142.067-.124.067-.175-.025-.166-.058-.166-.116-.142-.166-.024h-.1l-.107-.083.05-.349.207-.383.067-.233-.017-.2-.067-.158-.083-.074-.249-.016-.2.082-.167.075-.241.025-.208-.025-.191-.141-.2-.142-.4-.067-.324-.083-.183-.091-.116-.083-.1-.125-.133-.191-.058-.24-.009-.258-.016-.39.191-.4.149-.2.366-.357.15-.166.017-.258-.1-.407-.217-.507-.249-.565-.066-.291-.167-.174-.174-.025-.158.05-.109.1-.149.108-.167.133-.15.059-.182.016-.233-.066-.083-.05-.183-.1-.183-.166-.009-.308.075-.232.133-.125.233-.191.108-.115.108-.142.017-.191-.125-.282-.175-.241-.058-.142.008-.216.042-.175-.059-.166-.141-.083-.207-.008-.141.042-.515.282-.258.141-.149.083-.183.075-.241.05-.291-.025-.174-.066-.125-.316-.033-.25.142-.257.116-.258v-.207l-.257-.341-.249-.133-.474-.133-.274-.025-.274.025-.291-.05-.1-.116-.05-.183-.016-.282.033-.266.033-.29-.232-.333-.208-.116-.216-.083-.224-.058-.233-.033-.224-.033h-.216l-.241-.05-.3-.382-.332-.357-.3-.208.2-.307.09-.175-.09-.249-.241-.191-.092-.374-.025-.25-.025-.307.324-.274.215-.125.133-.208.033-.125-.033-.108.017-.075.051-.116.107.017.125.008.1-.033.092-.058.083-.083.033-.124v-.017l-.008-.183.075-.166.082-.058.083-.041.091-.058.016-.034.009-.124.058-.084.058-.05.117-.216.1-.083.183-.074.133-.059.158-.05.067-.058.034-.117-.017-.332.125-.158.092-.2.074-.067.092.017.083.033.108.008h.074l.1-.05.041-.091.067-.349.008-.191-.049-.158-.051-.141-.016-.083.091-.341-.05-.183-.074-.108-.017-.125.009-.108.008-.166.008-.15.017-.091-.083-.607.041-.232.075-.358h.125l.183-.042.008-.107-.008-.175.033-.183.033-.083.283-.283.132-.191.266-.15.49-.374.266-.141.092-.1.066-.116-.132-.141-.183-.142-.017-.108.041-.15v-.374l-.166-.29-.149-.266-.1-.216-.108-.232-.034-.208.075-.266.233-.474.092-.374.066-.307.025-.249.042-.133.44-.307.125-.274.224-.349.307-.872.15-.382.249-.4.141-.3.05-.208.017-.224.149-.091.283-.066.274-.083.25-.025.124.1.208.075.216.016.482-.025.381.016.192.108.091.291.1.191.208.365.224.183.315.067.374-.083.225-.182.108-.183.108-.308.165-.764.773-1.462.44-.324.108-.308.092-.332.017-.191.107-.125.341-.074.216.008.216.008.157-.066.192-.4.457-.615.432-.265.074-.192.108-.282.117-.2.108-.365.39-.15.357-.166.258-.141.257-.191.241-.349-.25-.565-.166-.208-.1-.265.049-.225.424-.764-.024-.241-.158-.5v-.266l.1-.174.266-.241.872-.707.756-.158.964-.058h1.047l1.1.116.009-.224.008-.358.141-.116.24.025.191.066.257.017.324-.166.033-.224.207-.075.108.05.084-.092.016-.232.033-.232.349-.457.291-.282.216-.159.249-.182v-.233l.016-.249.05-.266.174-.166.2-.042.175-.025.158-.083.166-.092.224-.191-.024-.174-.158-.241-.282-.141-.241-.075-.282-.058-.332-.042-.374-.075-.291-.075-.316-.141-.656-.332-.366-.274-.357-.167-.332-.125-.366-.108-.333-.016-.381-.033-.682-.042-.622-.075-.45-.058-.348-.083-.358-.125-.316-.083-.415-.166-.374-.324-.382-.232-.225-.108-.266-.1-.215.108-.182.374-.142.174-.133.133-.174.108-.117.083-.465-.066-.282-.025-.175.05-.133.133-.125.1-.183.016-.149.033-.191.042-.133.058-.025.124.025.042.041.125-.083.058-.133.016-.125.05-.091.1-.083.108-.05.15-.05.116-.075.05-.083.041-.116.075-.15.091-.191.058-.125.026-.141.049-.108.108-.133.058-.133.033-.116.033-.116.034-.133-.017-.108.017-.1.041-.116.066-.108.149.041.141.1.117-.05.141-.182.15-.2.149-.166.058-.141.075-.15.133-.107.016-.117-.033-.083-.033-.174-.041-.117.05-.1-.092-.132-.033-.067.067-.042.108-.025.083h-.124l-.067-.033-.1-.025-.075.058-.058.092-.091.025-.075-.083-.115-.058-.209-.008-.216-.016-.132-.017-.258-.058-.207-.083-.108-.05-.141-.091-.44-.091-.307-.133-.266-.075-.232-.091-.241-.116-.357-.124-.349-.058-.366-.017-.481-.066-.5.033-.258-.067-.215-.192-.232-.216-.449-.349-.507-.474-.307-.291-.183-.175-.207-.158-.333-.141.208-.241.066-.349-.083-.357-.1-.233-.075-.291.108-.266.366-.39.324-.291.067-.474.083-.59.066-.731.066-.9.025-1.421.382-.224.524-.149.357-.008.632.067.465-.075.524-.191.515-.05.789.764.3.249.7.365.657.075.614-.009.889-.024.972-.217.349.067.69-.383.4-.158.441.05.448.191.432.133.44.009.532-.067,1-.257.333-.183.092-.474-.308-.582-.116-.382-.124-.208.041-.382-.374-1.063-.025-.307.083-.482v-.216l-.2-.116-.266-.141-.15-.241-.008-.249.183-.307.324-.225.233-.025.15.158.265.266.39.207.59.033.175-.033.54-.033.473-.116.624-.141.523-.125.448-.183.391-.407.324-.274.432-.158.324.067.349.291.141.158.258.125.175-.058.1-.174-.034-.407-.033-.382-.075-.141-.506-.383-.092-.324.473-.233.291-.05.266-.083.167-.266-.657-.6-.333-.457-.273-.4-.308-.474-.524-.075-.075-.083-.249-.133-.249-.05-.291-.042-.291-.116-.125-.141.083-.183.557-.066.167-.075.082-.133.009-.2-.208-.216-.109-.183.009-.174.016-.191.008-.25.092-.39.1-.125.257-.067.324-.042.307.008.191-.108.175-.2.448-.141.224-.025.25-.075.374-.133.39-.074.374-.009.357.233.125.623.1.3.192.1.241.174.291.1.266.133.108.042.374.058.166-.091.042-.2v-.266l.524-.241.307-.083.191-.05.249.017.224.142.757,1.138.091.116.183.191h.091l.216-.033.166-.141.158-.266.074-.523.033-.167.05-.141.075-.249.2-.341.133-.2.133-.1.291-.15.831-.349.249-.133.589-.149.8.3.15.074.108.158.15.291.108.083.3-.008.2-.1.149-.183.183-.291.15-.366.083-.183.182-.083.167.009.274.1.132.149.133.166.149.058.208.042.132.025.341-.016.167.033.24.108.174.207.15.357.033.366.075.191.158.249.175.025.257.017.241-.092.166-.141.083-.158.075-.34.091-.116.158-.091.166-.074.341-.141.141-.058.075-.091.067-.141.066-.15.125-.208.232-.083.357.432.108.174-.142.407-.041.415.3.308.856-.05.132-.266.491-.432.249-.282.283-.324.448-.548.98-1.1.291-.144h.382l.3.144.364.235.208.017.266-.191.15-.3.166-.394.382-.387.291-.318.242-.265.315-.128.4-.053.432-.008.291-.061.282-.235.341-.348.7-.462.208-.06.316.053.357.3.308.182.4-.061.44-.1.365.318-.058.386-.257.3-.042.712.291.326.865.037.423-.189.415-.409,1.022.469.648.349,1.387.781.257.822.108.441.349.166.524.166.282.64.116.706-.266,1.3-.2.515-.265.432-.15.582.133.607.258,1.005.382.291.175.315-.15.183-.407.258-.05.241.192.242.282.406-.05.324-.182.241-.282.457.855.523.117,1.437-.075.266-.075.7.066.565.15.59.481.706.849-.158,1.113-.241.407-.275.665-.3.506-.125.665-.108.606-.216.633-.058.855-.133.913-.5,1.022-.382.955.141.2.581.116.207.374.275.333.141.507.175.607.232.639.266.756.182.05.532.067.59.033.556.091.814-.042.573.507.482-.024.34-.108-.066-.258-.2-.266-.033-.14.116-.108.391-.192.457-.266.316-.266.266-.033.34.158.275.4.157.282.158-.166.806.34.3.275.182.224.49.083.416.192.473.224.6.2.607.058,1.2.05,1.371-.224.6.273,1.363-.3.714-.507.731-.64.989-.565.548-.282.283-.141.382-.315.706.025,1.147.092.623.074,1.778.308.449.266.606.333.432.507.39,2.8.158.4.266-.1.806.24.59.366.557.075.44-.308.715-.424,1.869-.407,1.322-.532,1.271.182.881.282.507.317.465.191.806.092,1.238-.025.656-.033.548-.091.365-.283.142-.191-.025-.308-.275-.548-.116-.382.016-.416.192-.208.2-.058.3-.69,1.52-.523.831-.407.615-1.156.108-.656-.157-.473.008-.54.283-.4.233-.374.124-.4.125-.315.175-.224.324-.075.283.066.282.275.507.457.673.574.382.507.523-.166.507-.233.5-.324.822-.183.466.025.232.216.1.407-.091.307-.2.391-.125.39.415.457.291.656.266.8.224.366.59.142,1.786-.033,1,.15.648.706.648.8.324,1.529.333.764-.133.632-.233,1.362-.166-.132,1.121v1.139l.764.258.648-.358.557-.357.549-.25.606.183.565.141.672.058.856.05.457.041.972-.016.424.2.166.324.009.274-.025,3.032-.557.706-.681.664-.839,1.3-.523,1.171-.266.5-.058.357.349.773.116.639.315,1.321.125.565.075.465-.042.441" transform="translate(-1083.16 -996.251)"  stroke="#fff" stroke-linecap="square" stroke-linejoin="bevel" stroke-width="1" fill-rule="evenodd"/>
      <text id="115" transform="translate(27.738 56.759)" fill="#fff" font-size="13"  font-family="OpenSans-Bold, Open Sans" font-weight="700"><tspan x="0" y="0"></tspan></text>
    </g>
    <g id="_33_Shevgaon" data-name="33 Shevgaon" transform="translate(2218.38 792.319)">
      <path id="talId33" fill="#7DB8EC" title="Shevgaon Taluka" data-name="Shevgaon Taluka" d="M1267.288,999.452l.249-.64-.092-.5-.1-.54.29-.374.483-.423.556-.756-.29-.789-.074-.332-.076-.565.192-.382.341-.382.806-1.188.349-.74.973-1.216.7-.319.648-.09.64-.235.69-.288.715-.272,1.977-.485,1.43-.833.673-.182.224-.53-.141-1.772-.2-.871-.133-.614-.116-.4-.066-.447.108-.4.9-1.007.274-.621.008-1.022.765-1.939.041-1.741,1.03-2.106.7-1.25-.141-3.923,1-.107.664.053.424.068.407-.167.266-.53.964-1.81.316-1.12.033-1.053.092-.5.174-.53-.515-.272-.506-.357-.183-.265.016-.924-.008-3.173.3-1.386,1.164-.136.764-.031.615-.144,1.694-.727.806-.393.74-.168.631-.068.59.091,1.345.3,1.139-.037.831-2.106,1.222-1.985.357-.833.457-.818.191.079.358.148.473.288.407.6.2.424.166.458.348.678.408.583.25.431.656.383.324.189.283.182.381.095.765.208.24.227.374.337.731.64.665.773.307.311.265.1.174-.136.058-.291.432-.8.166-.583.166-1.2.2-.988.474-1.189.216-.557.033-.277.125-.156.274-.011.54-.008.266.072.39.671.349.575.224.375.075.545.008.723-.083.852-.157.678-.192.317-.133.247-.2.7-.224.974-.109.368.025.314.175.148.232.015.366.027.515.132.382.1.365.083.257.094.208.148.872.1.516-.026.606-.031.415.061.092.306-.034.315-.058.295-.024.481.348.284.391.2.166.068.175.084.074.155.083.234.166.17.124.136.3.144.224.053.4-.113.365-.079.632-.106.257-.139.282-.2.116-.148.008-.318-.075-.2-.166-.163-.141-.147-.058-.216.107-.109.216-.053.191,0,.266.034.208.194-.042.416-.058.746-.033.6-.1.5.125.5.075.337.058.5-.025.37.05.133.159.132.107.1.282.083.324-.03.182-.144.092-.285.1-.923.091-.3.149-.329.067-.314.025-.254.017-.353.075-.254.166-.14.216.016.308.049.689-.22.466-.158.332-.106.457-.056.424.056.125.254.141.345.033.25.058.413.108.367.157.6.167.417.008.4-.05.31-.1.314-.225.269-.232,0-.665-.223-.557-.239-.358-.034-.465-.064-.208.182-.25.825-.365,1.057-.183.621-.166.508-.108.09-.265.053-.416-.019-.523.019-.432.015-.574.053-.374.125-.009.25-.083.4.009.586-.017.671.1.474.083.557.216.761.133.345.15.253.1.219.216.069.217-.084.448-.181.565-.446.291-.265.182-.243.191-.208.233-.158.283-.129.282-.08.416-.053.207.026.225.114.249.311.191.3.216.554.133.375.091.416.017.272.075.318.216.288-.05.451-.083.51-.166.338-.756.909-1.047,1.177-.565.742-.349.326-.224.219.149.224.333.158.441.175.473.155.548.182.673.261.523.151.623.163.582.239.307.094.216,0,.216-.03.166-.061.158-.079.216-.224.15-.095.124-.1.3-.185.307-.394.083-.113.1-.073.141-.007.191,0,.274-.05.15-.155.125-.205.15-.382.058-.076.167-.049.141.015.133.087.282.113.241-.037.191-.083.225-.159.357-.519.058-.125.1-.083.158-.012.175.016.125.064.125.038.2.042.208-.1.282-.163.166.023.083.026.125-.015.149-.095.183-.117.249-.046.615-.33.166-.076.174.019.2.019.15.037.1.095.066.152.067.129.132.03.091-.019.109-.049.158-.064.166.109.307.068.266.019.291-.016.258-.011.181.037.2.015.133-.06.074-.114.125-.307.141-.11.15-.118.208-.124.373.007.233.156.167.027.117-.016.091-.1.05-.156.05-.178.016-.132.108-.129.182-.087.149-.049.133-.151.108-.246.141-.117.233-.038.074.155-.092.357-.132.359-.1.53.034.348.067.318.341.314.464.038.856-.126.615-.178.3-.076.623.109.715.155.406-.079.5-.129.382-.379.316-.5.266-.795.939.367.549.109.049.205-.058.212.066.163.357.087.482.242v.97l-.1,1.022-.125.644-.091.575-.026,1.091-.224.886-.116.508v.416l.249.394.415.349.549.265.34.144.773.016,1.18-.4.656-.234.474-.023.207-.022.291-.137.217-.121.357-.219.125.106.158.372.091.272.606.182.3.106,1.014.288.373.326-.132.56-.108,1.015-.258,1.544-.523,1.212-.847,2.446-.6,1.276v.174l.64.133,1.005.233.988.166,1.355.142.233.067.108.415-.049.266-.05.233.108.191-.025.175-.108.174-.083.208v.249l.008.191.008.315.025.2-.034.157-.191.091-.1.067-.117.124v.158l.108.116.05.141.008.233-.116.05-.133.042-.1.05-.184.116-.216.2-.316.091-.092.133-.075.2-.067.166-.125.158-.141.083-.216.108-.15.067-.141.058-.266.166-.058.174.008.191-.008.482v.241l-.116.283-.224.523-.358.706-.124.167-.134.158-.075.108-.025.158.034.224.033.183-.067.191-.066.133-.374.2-.274.249-.307.191-.291.175-.249.133-.291.157-.166.133-.366.507-.257.183-.232.067-.233.05-.174.025-.357-.008-.167.074-.133.133-.523.067-.092.241-.108.133-.183.075-.241.033-.215.042-.308-.034-.158.034-.216.082-.133.1-.532.307-.34.133-.308.033h-.249l-.249.009h-.357l.058,1.071-.5.158h-.407l-.482.05-.415.042-.316.133-.35.125-.141.083-.307.781-.349.773-.058.482-.042.357-.117.449-.108.266-.415.233-.075.349-.016.249-.075.249-.191.233-.233.233-.324.806-.423.3-.474.008-.474-.025-.407-.108-.524-.133-.539-.05-.449.066-.664.05-.242.117-.191.482-.216.224-.292.141-.174.1-.216.216-.132.34-.167.224-.208.274-.424.415-.39.258-.814.631-.208.366-.075.324-.432.091-.316-.224-.141-.108-.208-.158-.307-.117-.2.017-.416.175-.415.174-.158-.225-.05-.349-.357-1.188-.482-.548-.275-.59-.6-.4-.5.69-.366.365-.572.25-.582.166-.989.4-1.088.291-.764.083-.656-.158-.166-1.23.116-.656.217-.349.34-.432.457-.64.491-.7.93-.806.649-.615.141-.381V1010l-.157-.407-.242-.424.016-1.163-.582-.748-.324-.374-.448-.283-.6-.175-.3-.149-.233-.424-.124-.5-.15-.59-1.13-.349-1.67-.166-1.554-.241-.69-.166-.772.025-1.155.083-.125.881-.349.914-.639,1.687-.466.49-.764-.332-1.029.224-.649-.033-.548-.025-.864-.125-.075-.4-.116-.49-.191-.556-.109-.665-.366-1.546-.083-.357-.44-.515-.358-.357-.274-.357-.166-.457-.141-.457-.266-.282-.307.091-.333.316-.39.366-.507.232-.731-.249-.665-.008-1.155-.034-.514.075-.532.233-.622.249-.739.224-.89.108-1.91-.3-.657.207-.39.532-.042.964-.6,1.953-.408.515-.648.124-1.338-.54-.008-.175-.207-.772-.225-.357-.407-.258-.482-.167-.473-.1-.407.017-.441.191-.506.191-.524.083-.639-.257-.416-.316-.632-.341-1.6-.116-.083-.224-.141-.457-.157-.374-.316-.025-.341.307-.574.374-.98.067-1.927.025-.59-.033-.356.183-.457.366-.3,1.138-.075.789-.1.374-.373.233-.25-.1-.374-.216-.665.083-.4-.241.025-.332.191-.341.067-.457-.149-.565-.49-.207-.839-.059-.772.075-1.08.042-.391-.125-.606-.258-.616-.1-.282.166-.174.183-.357.091-.266.017-.59-.075-.557-.041-.424.05-.241.216-.083.324-.025.457-.05.64-.333.191-.507.058-.98.009-2.227-.582-.449-.524-.041-.341.09-.224.175-.233.333-.4.349-.282.365-.349.15-.275.091-.357.042-.465.067-.789.482-1.08.175-.748" transform="translate(-1264.97 -950.154)"  stroke="#fff" stroke-linecap="square" stroke-linejoin="bevel" stroke-width="1" fill-rule="evenodd"/>
      <text id="33" transform="translate(22.99 40.088)" fill="#fff" font-size="13"  font-family="OpenSans-Bold, Open Sans" font-weight="700"><tspan x="0" y="0"></tspan></text>
    </g>
    <g id="_113_Nagar" data-name="113 Nagar" transform="translate(2132.312 841.059)">
      <path id="talId113" fill="#7DB8EC" title="Nagar Taluka" data-name="Nagar Taluka" d="M1210.146,1014.06l1.172.44,1.1-.2.615-.391.3-.349.416-1.047.266-1.271.589-.815,1.03-.823.714.1.739.174,1.322.307.656.2.591.033.581-.233.523-.216.855.083.142.382.266.49.282.224.548.249,1.563.374-.175,1.188-.366,1.7.058,2.036-.316.681-.988.632-.208.482.449.307.357.075.349.116.2.349.283.3.324.242.315.349-.315,1.031-.441,1.072-.166.531-.208.54-.307.25-.15.448-1.287.017-.449.307-.34.333-.365.208-.416.133-.5.141-.473.116-.49.117-.54.149-.3.167-.465.548.116.424.382.341.233.457-.283.39-.4.482-.141.315.033.274.141.2.457.183.374.316.282.249.374.374.474-.3.349-.257.241-.117.217.358.149.465.083.291.291.182.349.05.856.556.448.183.574-.241.365-.307.4-.275.225.449.182.448.573.125.723-.075.773.058.672.067.541-.158.166-.158.282-.258.349.266.2.3.166.374.224.5.266.275.457.057-.058.856.232.665.507.258.132.15-.141.208-.357.2-.233.249-.091.333.133.358.324.3.356.033.424.166.449.84-.125.431-.224.324.125.3.64.009.5.025.367.307.116.175-.009.283.017.265-.25-.083-.249.066-.241.133-.166.158-.175.232-.132.216-.133.208-.05.291-.067.515-.233.3-.191.141-.15.183-.074.266-.025.266.083.731-.142.448-.132.283-.441.64-.407.515-.183.332-.133.132-.573.507-.192.249-.033.2.008.241-.008.283-.016.273-.324,1.23-.074.224-.1.208.1.357.066.457-.157,1.163-.233.532-.033,1.885-.408,2.892.117.839.216.449.5.382.5.257,1.047.058,1.013-.208.515-.05,1.089-.025.913.116.449.075-.241,1.188-.017.963.017,1.763-.058.7-.041.6.424.083.989.216.606.274.033.358-.016.224-.108.25-.232.281-.583.657-.174.341-.083.323.117.333v.557l.1.307.058.225.05.232.017.233-.05.183-.183.216-.233.307.1.183-.017.133-.115.175-.208.125-.291.133-.449.125-.274.033-.266-.025-.2-.067-.4-.241-.523-.341-.141-.208-.083-.183-.224-.033-.183.117-.158.216-.165.149-.116.15-.166.242-1.2-.117-.274.075-.258.149-.158.149-.141.167.026.125.016.216-.082.208-.058.175-.108,1.03-.274.108-.366-.075-.481-.183-.332-.132-.357-.1-.432-.257-.266-.2-.092-.5.025-.54.05-.316-.025-.249-.192-.283-.3-.589-.2-.258-.232-.166-.392-.108-.341-.05-.565-.075-.3-.017-.872-.008-.25-.075-.315-.149-.225-.167-.34-.166-.249-.108-.391-.058-.323-.042-.316.067-.324.39-.216.357-.257.142-.382.133-1.163.564-1.105.349-.723.266-.689.265-.266.1-.357.057-.365-.025-.166.008-.491-.656-.283-.557-.374-.865-.732-1.2-.157-.332-.249-.008-.283.174-.183.341-.042.207-.133.216-.2.282-.88.682-.507.241-.208.133-.174.249-.175.074.017.091.083.05.033.083.009.05.009.075-.017.075-.049.274.016.125V1070l.008.216.009.091.025.066.058.141.083.224.025.108.025.116.025.142.125.315.108.133.274.134.133.041.3.1.166.067.166.008.15-.025.108-.05.116-.067.15-.124.067-.075.1-.033.108-.008.607.1.49-.016.217.091.108.116.059.2.016.191-.008.108-.05.116-.008.224.05.116.091.092.075.083.067.058.058.083.058.033.083.033.1.009.091.008.224.066.075.058.041.117.025.108-.008.091-.033.091-.025.158V1074l.016.183.033.224.058.258-.016.182-.05.158-.133.25-.1.415-.075.225-.083.074-.075.066-.116.075-.2.108-.566.266-.266.1-.108.092-.066.083-.059.241.008.141.025.074.032.066.075.075.316.174.174.166.283.1.381.149.49.2.466.142.44.265.258.233.332.383.191.266.116.224.057.133.034.208-.009.117-.09.166-.067.1-.058.108-.025.141.066.374.083.2.141.116.291.224.407.373.365.291.266.091.208.125.315.216.117.174.083.15.076.19.066.2.082.083.15.074.191.05.474.075.075-.009.108-.066.282-.6.307-.341.2-.316.158-.232.158-.29.373-.574.224-.324.216-.1.341-.082.224-.117.374.033.216.058.108.165.15.449.025.2.109.324.082.291.166.482-.024.208-.033.174-.05.357-.033.324v1.521l-.033.266-.008.233.066.166.067.092.116-.05.166-.058h.075l.108.025.125.067.358.3.3.506.317.407.166.191.133.124.2.175.066.157.016.141-.042.083-.025.091-.075.058-.1.033-.067.017-.033.016-.025.033-.033.033-.016.034v.116l.033.067.033.049.067.117.042.167.008.091v.182l-.05.158-.058.2-.067.091-.058.083-.049.075-.033.075v.2l.1.232.083.216.083.1.108.092-.116.657.024.307-.074.324-.092.249-.074.266-.059.274-.024.316.017.158-.905-.167-.291-.44-.748-.249-.657-.723-.415-.432-.257-.515-.341-.548-1.1-.315-.382-.615-.915.008-1.113-.133-.964-.207-.988-.1-.316.382-1.163.066-.639.158-.482.4-.5.175-.74.182-.772.233-.565.108-.291.283-1.063,1.529-.307.772-.292.424-.806.191-1.113.182-.748.2h-.481l.05.4-.257.931-1.205,1.495-.93,1.778-.5.166-.557-.026-.44-.091-.358-.108-.473.217-.74,1-.44.582-.441.6-.116.682.142.365.291.507-.723,1.237-.607.349-.4.216-.49.191-.648.033-1.03-.24-.433-.267-.482-.432-.565-.673-.622-.49-.856-.523.424-.258.233-.158.382-.466-.307-.789-.458-.623-.456-.881-.432-.8-.258-.856.839-1.354.307-1.055.889-.906,1.171-.806.357-.382,1.122-.3.449-1.1.383-.732.432-1.129.54-1.388.257-.573.3-.432.083-.406.041-.574-.706.033-.831-.623-.664-.557-1.047-.565-.823-.025-1.213.2-.291-.083-.1-.539-.057-.624-.424-.066-.515-.15-1.013-.149-.5-.008-1.629-.1-.789.074-1.238.208-.764.465-.54.341-.731.648.091,1.239.042.332-.042.507-.424.232-.681.4-1.28-.266-.781-.133-.739-.033-.573-.009-.782-.307-.457-.291-.532-.424-.324-.307-.232-.839.041-.44-.074-.466-.125-.565-.315-1.321-.116-.641-.349-.772.058-.358.266-.5.523-1.172.839-1.3.68-.665.557-.706.025-3.033-.008-.274-.166-.324-.424-.2-.972.017-.457-.042-.856-.05-.673-.058-.565-.141-.606-.183-.549.249-.556.358-.648.358-.764-.258v-1.138l.133-1.121-1.363.167-.631.232-.765.133-1.528-.331-.8-.324-.706-.648-.149-.648.033-1-.141-1.786-.366-.59-.8-.224-.657-.266-.457-.291-.391-.415-.39.125-.307.2-.407.091-.216-.1-.025-.233.183-.466.323-.822.233-.5.167-.507-.507-.524-.573-.383-.457-.673-.274-.507-.067-.282.075-.283.224-.324.316-.175.4-.125.374-.125.4-.232.54-.283.474-.008.656.157,1.155-.108.407-.615.523-.832.69-1.52.058-.3.208-.2.415-.191.382-.017.549.116.307.274.191.025.283-.142.091-.366.033-.548.025-.657-.092-1.237-.191-.807-.316-.465-.282-.506-.182-.881.531-1.271.407-1.321.424-1.869.307-.715-.075-.441-.365-.556-.241-.59.1-.806-.4-.266-2.8-.158-.506-.39-.333-.432-.266-.606-.307-.449-.075-1.778-.092-.623-.025-1.146.316-.706.14-.382.283-.283.565-.549.64-.988.507-.731.3-.714-.274-1.363.224-.6-.05-1.371-.058-1.2-.2-.606-.224-.6-.191-.473-.083-.416-.225-.49-.274-.183-.341-.3.166-.806-.283-.158-.4-.158-.157-.275.033-.34.266-.266.266-.316.191-.457.108-.391.141-.116.266.033.257.2.108.066.025-.34-.506-.482.041-.573-.091-.814-.033-.557-.067-.59-.05-.531.324-.266,1.031-.806.173-.2.133-.44.125-.74.324-.191.615-.3.4-.524-.374-1.221-.224-.74-.183-.5-.092-.382.166-.232.423-.457.333-.249.806-.424.582-.283.656-.058,1.761-.041.556.282-.074.407-.108.382-.132.482.124.382.324.324.491.341.349.283.39.216.607-.108.523-.158.756-.158,1.3-.374,1.571-.366.2.009.814-.05.632-.125.673-.133.674-.033.465.1.191.341-.167.332-.415.615,1.064.233.631.025.756.083.523.033.424-.092.639-.074.715.042.665.2.175.682.132.332.265.615.557.665-.083.565-.407.349-.282.3-.116.383.166.315.764.466,1.337,1.188.316.233.291.025.714-.1.407.133.474-.349.141.473.839-.1.573-.241.381-.033.442-.033.664-.058.756.066.365-.033.1-.274.416-.515.424-.091.39-.166.4-.249.549.183.373.174.532.316.923-.283,1.935-.98,1.371-.216.872-.017,1.321.075.74.042,1.056-.091.615-.208.357-.59.325-.889" transform="translate(-1161.11 -1008.56)"  stroke="#fff" stroke-linecap="square" stroke-linejoin="bevel" stroke-width="1" fill-rule="evenodd"/>
      <text id="113" transform="translate(22.059 45.349)" fill="#fff" font-size="13"  font-family="OpenSans-Bold, Open Sans" font-weight="700"><tspan x="0" y="0"></tspan></text>
    </g>
    <g id="_116_Pathardi" data-name="116 Pathardi" transform="translate(2188.623 835.12)">
      <path id="talId116" fill="#7DB8EC" title="Pathardi Taluka" data-name="Pathardi Taluka" d="M1235.881,1010.642l.324-.615.183-1.1.017-.723-.058-.507-.167-.423-.116-.541.806-.473,1.022.1.457-.316.034-.739-.009-1.5.266-.756.615-.141.656-.008.3-.025.274-.374.307-.391.831-.075,2.958-.166,1.08.182,1.4.258.415.108.6.224-.083,3.282.416.424,1.18.133.441.108.673.34.415.025.806.075,1.313.008,1.944-.1,1.454.117,1.238.158,1.3.365,1.653.531.366.1-.175.748-.481,1.08-.067.789-.041.465-.091.357-.15.274-.366.349-.349.283-.332.4-.175.233-.091.224.041.341.449.524,2.227.581.981-.008.507-.058.332-.191.05-.64.025-.457.083-.324.241-.216.424-.05.556.042.591.075.266-.016.357-.092.175-.183.283-.166.615.1.607.258.39.125,1.08-.041.773-.075.839.058.49.208.15.565-.067.457-.191.341-.026.332.4.241.666-.083.374.216.249.1.374-.233.1-.374.074-.789.3-1.139.457-.365.357-.183.59.033,1.928-.025.98-.067.573-.374.341-.308.316.025.158.374.141.457.083.224,1.595.117.632.341.415.316.641.258.523-.083.507-.191.44-.191.407-.017.474.1.481.166.407.258.225.357.207.773.008.174,1.338.541.648-.125.407-.515.6-1.953.041-.963.391-.532.656-.207,1.911.3.889-.108.739-.224.624-.249.532-.232.515-.075,1.155.033.664.008.732.249.506-.232.391-.366.333-.315.307-.091.266.282.142.457.166.457.275.357.356.357.441.515.083.357.366,1.546.108.665.191.557.116.49.075.4.864.125.548.025.648.033,1.03-.224.765.332.465-.491.64-1.687.349-.914.124-.881,1.155-.083.772-.025.69.166,1.554.241,1.67.166,1.13.349.149.59.125.5.233.424.3.149.6.175.449.282.324.374.581.748-.016,1.163.241.424.158.407v.54l-.141.383-.648.614-.931.806-.49.7-.457.64-.341.432-.215.349-.117.656.167,1.23.656.158.764-.083,1.089-.291.989-.4.581-.166.574-.25.365-.365.5-.69.6.4.274.59.482.548.357,1.188.05.349.158.224.416-.174.415-.175.2-.016.308.116.208.158.141.108.316.224.432-.091.066.3.15.357.233.34.283.316.3.307.424.391.756.374.673.574.606,1.047.167.5.274.265.581.158.789.124,1.205.008.606.083.491.166.391.257.149.408.316.731.224,2.11.166.374.125.332.116.15-.174.415-.158.166-.5.274-.473.066-.507.125-.407.05-.606-.058-.391-.033-.59.041-.349.017-.6.075-.566.473-.091.416.224.416.117.465.067.441.124.357.581.848.1.515.25.407.581.258.673-.573.5-.4.34-.4.524-.233.631-.166.615-.158.706-.092.49-.091,1.478-.141,1.047.025.731.091.391.058.4.241.05.4-.075.457-.058.357-.092.415-.067.349-.008.191.465.831.175.315.05.349-.332.141-.166.183-.117.183-.091.083-.067.05-.1.158-.05.108-.041.083-.042.066-.091.083-.125.1-.116.034-.149-.008-.141-.017-.133-.009h-.108l-.067.025-.082.033-.116.091-.091.133-.083.125-.05.133-.042.107-.075.083-.083.041-.091.05-.158.058-.242.1-.075.108-.05.083-.025.083-.024.1-.058.108-.075.067-.091.041-.133.058-.3.092-.158.033-.1.008-.108-.008-.1.017-.132.091-.067.083-.058.1-.058.291-.075.133-.108.066-.341-.157h-.141l-.15.025-.057.033-.15.091-.132.108-.117.067-.191.058-.108.066-.025.083-.074.067-.175-.033-.075-.025-.224-.341-.083-.374-.033-.332-.034-.183-.05-.274-.191-.058-.209.058-.29.149-1.28.166-.714.174-1.047.108-.466.058-.39.025-.565.15-.166.2-.125.166-.166.665-.341.1-.282.1-.316.117-.306.066-.333.017-.283.016-.332-.008-.423-.323h-.615l-.49.132-.424.108-.5.191-.756.1-.158-.241-.092-.257-.216-.117-.216-.05-.266-.1-.474-.074-.565.016-.191.183-.316.025-.15-.05-.282-.457-.092-.4.008-.433.133-.166.315-.291.715-.706.739-.689.507-.507.556-.656.2-.607.3-.723.108-.432v-.407l.083-.282.174-.133.3-.191.241-.465.166-.324.241-.183.473-.066.258.033.507.216.324.141.266.033.274-.174.25-.307.24-.233.333-.689-.025-.441-.033-.315-.133-.457-.125-.283-.307-.207-.207-.191-.216-.058-.241-.108h-.216l-.141.058-.15.017h-.349l-.116-.042-.158-.058-.175-.058h-.075l-.092.025-.082.05-.134.158-.042.149-.041.108-.133.174-.075.142-.141.125-.125.075-.141.058-.191.058-.182.058-.208.117-.158.1-.1.083-.266.116-.167.083-.116.042-.149.058-.083.108-.224.257-.175.174-.158.067-.241-.009-.34-.041-.307-.083-.291.008-.573-.025-.216-.05-.192-.125-.141-.1h-.241l-.133.208-.15.24-.09.142-.133.124-.25.05-.182.033-.192.141-.2.091-.191.017-.34-.191-.042-.382.083-.349.025-.308.066-.764.1-.831-.016-.623.067-.324-.358-.357-.249-.092-.332-.165-.3-.233-.416-.25-.391-.249-.183-.175-.323-.125-.374.116-.291.091-.34.133-.324.175-.216.232-.009.374-.041.424.025.4.075.282-.05.357.008.332.058.449.026.49.058.332.216.383.339.365.449.307.615.333.581.233.615.041.514.142.258,1.255.183.465.3.316.474.125.582.324.365.174.158.823.133.482.009.914.008.556.074.5.009.391.182.656-.008.449.025.374-.183.407-.407.174-.582.066-.64.033-.507-.016-.74-.15-.723-.158-.873-.208-.806-.283-1.28-1.1-.465-.582-.432-.365-.573-.258-.5-.125-.789-.183-.349-.133-.232-.075-.482.092-.25.315-.149.4-.233.257-.415.192-.266.216-.2.333-.066.249-.191.232-.258.067-1.121.166-.423-.174h-.5l-.266.224-.067.457.175.2.432.149.324.15.34.208.507.208.3.349.067.373.05.557.059,1.063-.375.865-.166.615-.4,1.579-.058.665-.3.631-.1.457-.05.366.34.556.4.042.6-.15.482-.033.374.058.324.1.573-.067.449.067.939.158.565.017.424.274.557-.366.19-.2.956.075.747.192.665.39.457.224.657.257.432.249.316.258.058.291-.025.349-.15,1.412-.034.732.009.5-.175.914.191,1.612-.357.341-.407.108-.656.233-.473.266-.549.291-.515.258-.524.358-.614.315-.482.158-.864.158-.9-.149-.814.024-1.935-.049-.507-.349-.407-.324-.282-.482-.324-.192-.241-.183-.133-.107-.39-.258-.54-.307-.216-.25-.373-.266-.466-.332-.158-.432-.316-1.795-.067-.632-.34-.366-.025-.432v-.341l-.291-.3-.167-.166-.357-.274-.257-.157-.125-.167-.008-.241.474-.357.316-.216.406-.216.166-.174.224-.6.291-1.5.216-1.271-.141-.8-.432-.93-.381-.606-.208-.365-.258-.715-.2-.407-.623-.091-.5.091-.523.174-.482.141-.44.166-.316.2-.515.3-1.013.465-.59-.033-.391-.216-.465-.324-.332-.224-.216-.457.133-.415.349-1.446.117-1.205-.233-1.038-.133-.707-.349-.731-.449-.324-.3-.149.092-.565-.042-.366-.124-.756-.3-.166-.349.058-.408.291-.124.316-.266.258-.25.133-.333.075-.4.142-.274.282-.25.282-.814.872-.341-.1-.374-.067-.29.083-.266.291-.291.308-.133.324.058.407.216.34.308.183.125.407.033.565.224,1.371.1.075.407.274-.008.424-.042.441-.092.341-.182.291-.2.265-.814.922-.366.482-.116.29.157.291.424.332.631.2.4.282.224.474.324.706,1.545.848.275.5.1.523.05.491.083.972-.224.357-.473.224-.565.158-.44.233-.531.266-1.03.382-.474.091-.639.357-.624.142-.481-.183-.857-.98-.589-.266-.358-.282-.083-.565-.107-1.263-.133-.905-.265-.3-.532.066-.482.017-.29-.009-.358-.2-.233-.341-.406-.332-1-.033-.274.34-.075.4-.274.4-.482-.058-.4-.05-.516-.1-.4-.125-.522-.2-1.18-.415-.5-.1-.581-.124-.341-.2-.341-.266-.265-.016-.383.258-.374.075-.489-.083-.458.008-.839-.292-.466-.415-.556-.274-.424-.125-.93-.2-1.005-.175-.748-.382-.431-.332-.225-.332-.024-.5.307-.349.083-.366.041-.415.225-.449.333-.166.341.257.324.092.241-.266.241-.365.532.158.44.308.216.025.208-.2-.25-.183-.764-.258-.283-.15-.108-.357.141-.266-.274-.258-.257-.166-.166-.175-.1-.34.266-.416.365-.083.507.017.523.042.573.158.465.067.44.008.266-.216.116-.2-.208-.4.042-.864.141-1.43.033-.623.191-.341.657-.739.622-.391.291-.324.216-.424.149-.4-.025-.457-.2-.681-.025-.374-.232-.232-.258-.258-.365.025-.291.283-.233-.025-.166-.091-.39-.041-.191.232-.158.125-.2-.058-.258-.282-.265-.174-.25.05-.066.216-.05.415-.208.183-.416.025-.565-.016-.5.025-.464.075-.2.033-.474-.058-.281-.008-.183.108.083.157.2.066.416.109-.033.116-.175.082-.182.067-.132.058-.183.067-.041.083.075.092.215.075.382.083.083.091-.1.083-.208.075-.215.05-.142.042-.125.083-.033.083.066.083.29.074.017.15-.157.083-.15.257.091.149.183-.008.216-.058.092-.057.191-.092.091.1-.058.141-.05.133v.116l-.133.092-.141.125-.133.216-.132-.058-.108-.108h-.233l-.167.058-.091.125-.1.083-.133.008-.1-.208-.008-.108-.017-.108-.05-.166-.042-.1-.149-.033-.058.075.058.2.041.158-.025.158-.116.1-.217-.117-.091-.074-.125-.017-.116.041-.067.116-.049.175-.1.158-.067.091-.066.033-.283.158-.341.075-.258.033-.258-.05-.1-.058-.059-.224.017-.224v-.358l-.008-.191-.174.042-.142.141-.557.341-.307.058-.166.083-.158-.025-.124-.042-.117.017-.075.083-.133.125-.241-.016-.191-.009-.482.058.117-.307.116-.307.149-.174.232-.133.174-.116.266-.141.141-.125.125-.216.009-.141-.175.091-.2.141-.15.124-.216.108-.224.067-.15.066-.2-.017-.224-.033-.108-.05-.033-.142-.266-.041-.382.166-.383.357-.15.241-.142.191-.232.183-.224-.017-.058-.191.041-.208.1-.149.025-.166-.074-.1-.15-.066-.025-.083.083-.29.274-.4.049-.266-.008-.208-.1-.083-.224.116-.125.15-.125.15-.092.141-.091.133-.191.39-.092.191-.2.066-.133.033-.291.066-.191.091-.174.1-.108.075-.191.066-.2.017-.241.008-.183-.025-.174.017h-.2l-.042-.025-.067-.233-.066-.208-.116-.241-.15-.091-.174-.092-.241-.158-.333-.1-.207-.124-.1-.075-.515.042-.416.132-.266.058-.241.042-.274-.008-.258-.041-.3-.1-.456-.365-.117-.183h-.074l-.134-.265-.191-.191-.158-.091-.132-.017.008.142.033.141.058.208.1.191.075.166-.34.315-.448-.008-.291-.091-.216-.108-.44-.141-.315-.133-.349-.291-.415-.565-.291-.125-.358-.042-.241.017-.124-.05-.15-.174-.2-.166-.2-.316-.333-.631-.373-.232-.283-.009-.141-.083-.158-.15-.1-.141-.067-.108-.266-.415-.016-.266.007-.283-.116-.174-.365-.307-.5-.025-.639-.009-.124-.3.224-.323.125-.432-.449-.839-.424-.166-.357-.033-.324-.3-.133-.357.091-.332.233-.249.357-.2.141-.208-.132-.15-.507-.257-.233-.665.059-.856-.457-.058-.265-.274-.224-.5-.166-.373-.2-.3-.349-.266-.283.258-.166.158-.54.158-.673-.066-.772-.058-.723.075-.573-.124-.183-.448-.224-.449-.4.274-.365.307-.573.241-.449-.183-.857-.557-.348-.05-.291-.182-.083-.292-.15-.465-.216-.357-.242.116-.348.258-.474.3-.374-.374-.282-.25-.374-.316-.457-.182-.141-.2-.033-.274.141-.316.4-.482.282-.39-.233-.457-.382-.341-.117-.423.466-.548.3-.167.539-.149.49-.116.474-.117.5-.141.415-.133.366-.207.341-.333.449-.307,1.287-.016.15-.448.307-.25.208-.54.167-.532.44-1.072.315-1.031-.315-.349-.324-.241-.282-.3-.2-.349-.349-.117-.357-.075-.449-.308.208-.482.988-.632.316-.681-.058-2.035.366-1.7.174-1.188" transform="translate(-1228.86 -1001.86)"  stroke="#fff" stroke-linecap="square" stroke-linejoin="bevel" stroke-width="1" fill-rule="evenodd"/>
      <text id="116" transform="translate(38.748 30.288)" fill="#fff" font-size="13"  font-family="OpenSans-Bold, Open Sans" font-weight="700"><tspan x="0" y="0"></tspan></text>
    </g>
    <g id="_118_Shrigonada" data-name="118 Shrigonada" transform="translate(2104.847 914.645)">
      <path id="talId118" fill="#7DB8EC" title="Shrigonada Taluka" data-name="Shrigonada Taluka" d="M1225.765,1111.59l-.017.482-.066.232-.233.432-.075.274-.058.358-.008.2-.349,1.553-.1.557-.207.29-.515.108-.441.149-.324.208-.333.391-1.055,1.005-.607.523-.14.49-.092.806-.574.441-.4.341-.308.307-.532.091-.374-.157-.316-.117-.548.017-.249.191-.233.382-.117.416-.208.473-.058.382.083,1.819-.233.723-.274.3-1-.009-1.072.017-.872.033-.473.1-.9.083-.63.274-.241.233-.3.54-.864,2.559-.183.474.275.291.432.365.157.415.108.316.308.332.282.274.325.457.281.457.258.473.349.291.872.515.407.141.017.224-.283.382-.34.216-.457.249-.673.441-.241-.066.042-.474-.1-.349-.431-.016-.358.274-.25.232-.481.374-.042,1.637-.532.357-.648.017-.582-.083-.283.009-.506-.108-.407-.1-.216.224-.05.49.166.324.2.34-.025.424-.142.448.133.914v.722l-.1.474-.133.449-.1.573-.008.88.473.333.474.316.248.332-.091.383-.183.482-.016.565-.307,1.878-.54,1.562.025.865-.067,1.944-.282.756-.125.623-.15.573-.332.016-.332.092-.474.191-.25.333-.249.49-.133.349-.05.4.366.274.773.157.615.159.49.108.531.175.35.116-.166.565-.432.515-.465.358-.283.274-.4.233-.69.275-.258.274-.407.091-.282.133-.067.074-.25.133-.59.931-.523.34-.457.216-.208.316-.207.349-.274.415-.191.357-.266.623-.432,1.113-.041.291-.059.308-.208.233-.282.116-.183.257.033.249.15.324.175.342.025.3v.216l-.083.341-.424.042-.307.557-.109.457-.125.324-.1.39-.117.283.05.266.465.216.067.274-.407.2-.149.125.174.241-.033.441-.083.273-.266.225-.34-.158-.54-.249-.648-.324-.49-.091-.449.05-.183.391-.307.489-.258.45-.474.581-.158.291-.822.158-1.03.191-.855-.274-.507-.358-1.238-.822-.731-.25-.5-.133-.431-.033-.532.083-.3.216-.756.831-.25.333-.739.972-.233-.29-.8-.69-.432-.523-.39-.466-.5-.266-.615-.141-.316-.025-.756.291-.606.307-.449.423-.49.349-.507.349-.823.341-.972.307-.873-.075-.756.241-.457.258-.217.1-.539.847-.158.54-.141.673-.05.449.009.373.124.283.748.707.6.315.49-.075h.523l.424.15.266.249.149.357-.067.474-.266.382-.282.2-.383.117-.432.033-.432-.008-.632.125-.49.19-.722.441-.549.64-.673.223h-.59l-.623-.1-.815-.282-.606-.366-.674-.506-.664-.673-.607-.681-.406-.573-.524-.233-.831-.174-.981-.075h-.831l-1.262-.307h-.715l-.672.008-.607-.233-.481-.249-.391-.639-.183-.283-.731-.9-.515-.532-.956-.515-.623-.433-.881-.764-.623-.989-.6-.905-.29-.423.323-.549.432-.54.424-.24.415-.2.449-.142.333-.191.182-.324.092-.257.083-.291.216-.133.391-.191.365-.606.382-.781.141-.349.109-.54.049-.324-.024-.4-.2-.224-.084-.125-.041-.183.008-.216.117-.2.149-.033.258.066.249.158.166.083.225.025.224-.141.083-.207.025-.249.033-.291-.041-.158-.233-.266-.3-.158-.282-.15-.607-.207-.407-.166-.274-.175-.257-.523-.357-.748-.366-.548-.448-.2-.217-.191-.258-.416-.216-.34-.116-.391-.366-.374-.482-.266-.6-.215-.4-.242-.158-.274-.175-.365.091-.581.2-.407.266-.814-.1-.566-.017-.532.15-.4.191-.266.34-.332.224-.142.482-.257.141-.207-.009-.233-.133-.29-.266-.407-.266-.216-.241-.108-.357-.142-.407-.2-.515-.3-.383-.133-.274-.024-.266.008-.232.058-.207.083-.341.15-.225.1-.6.2-.59.117-.49.158-.316.05-.4-.025-.266-.025-.482.075-.05.008-.29-.083-.192-.183-.149-.34-.067-.374-.024-.665-.166-.341-.416-.166-.316-.058-.506-.1-.939-.349-.565-.158-.723-.141-.2-.074-.267-.117-.216-.125-.4-.274-.407-.407-.5-.539-.348-.516-.192-.365-.058-.374.033-.316.058-.274.142-.232.141-.141.441-.092.457.067.373.133.341.166.217.091.25.016.157-.057.174-.166.05-.191.067-.266.066-.25.183-.357.141-.183.117-.224.44-.075.432-.083.4-.108.357-.166.216-.233.731-.381.59-.531.174-.449-.008-.407-.091-.324-.242-.4-.141-.44-.249-.316-.241-.158-.282-.141-.3-.066-.29-.049-.267-.017-.349.033-.232.082-.224.142-.191.133-.3.141-.249.075-.2-.017-.3-.175-.515-.323-.69-.848-.607-.573-.125-.507-.008-.39.041-.283.466-.681.489-.64.2-.582-.042-.847-.158-.963-.232-.906-.415-.432-.723-.623-.64-.3-.723-.117-1.463.506-.8.25-.8.049-.763-.208-.1-.34v-.449l.058-.689v-.582l-.125-.366-.291-.39-.656-.448-.615-.64-.448-.523-.44-.432-.315-.207-.382.05-.408.141-.424.108-.406.141-.233.133-.233.208-.208.274-.673.241-.556.033h-.332l-.374-.025-.275-.009-.34.033-.125-.3-.2-1.162-.224-1.072-.217-1.778-.05-.457.358-.465.216-.2.217-.217.157-.183.124-.315-.017-.183-.323-.216-.241-.083-.374-.15-.225-.149-.6-.54-.158-.282-.083-.224-.05-.249.008-.174v-.349l-.158-.565-.241-.648-.149-.557-.25-.913.133-.523.2-.233.25-.167.341-.175.25-.531.207-.582.191-.382.175-.323.491-.225.316-.266.017-.233-.083-.365-.69-.931-.308-.166-.207-.075-.349-.074-.083-.017.508-.906.273-.565.382-.482.723-.366.847-.166.839.033.614.183.682.132,1.288.274,1.836-.382.366-.091.556-.358.582-.49.681-.465.69-.141.456.216.224.29.183.848.25.556.374.457.424.407.639.407.831.333.573-.191.789-.656,1.6-1.388.366-.249.565-.241.681-.282.391-.2.39.116.4.423.648.249,1,.242.565-.383.632-1.163.249-1.512.357-.308.291-.108.473.349.174-.3.257-.349.6-.149.557.008.274.532,1.271-.3.573-.333.715-.241.664.225,1.089.2,1.653.374,1.786.448,1.7-.008.457.067.5.042.515.125.1-.283.175-.531.132-.806.134-.349.15-.241.183-.283.174-.249.415-.333.44-.341.665-.582.806-.814.191-.266.216-.116.224-.042.2-.049.224-.125.466-.291.4-.258.374-.208.233.839.324.308.532.424.458.291.78.307.573.009.74.033.781.133,1.279.266.681-.4.424-.232.042-.507-.042-.332-.091-1.239.731-.647.54-.341.764-.465,1.238-.208.79-.075,1.628.1.5.008,1.014.15.516.149.423.066.058.623.1.54.291.083,1.213-.2.823.025,1.046.565.665.557.831.623.706-.033-.042.574-.083.406-.3.432-.258.573-.541,1.388-.431,1.13-.382.731-.449,1.1-1.122.3-.357.382-1.172.807-.888.906-.308,1.055-.839,1.354.257.856.432.8.458.881.457.623.307.789-.383.466-.233.157-.423.258.855.523.624.491.565.672.482.432.432.266,1.03.24.648-.033.49-.191.4-.216.607-.349.723-1.238-.291-.506-.142-.366.116-.682.441-.6.44-.582.739-1,.474-.216.357.108.44.091.556.025.5-.166.93-1.778,1.2-1.5.258-.931-.05-.4h.482l.748-.2,1.114-.182.805-.191.292-.424.307-.772,1.064-1.529.292-.283.564-.108.773-.232.739-.183.5-.175.482-.4.64-.158,1.163-.067.316-.382.989.1.964.208,1.113.132.914-.008.382.615,1.1.316.34.548.257.516.415.432.656.723.748.249.291.44.906.167.44.091.415.025.706.042.607-.033.59-.108.29-.2.191-.2.183-.166.166-.124.382-.449.166-.067.125.224.175.258.282.34.208.366.183.174.116.091.125.058.15.075.075.125.091.19.017.117-.025.149-.067.133-.349.524-.391.432-.249.516-.066.274.008.14.042.2.083.233.141.266.341.274.465.008.8-.191.54-.182.673-.282" transform="translate(-1128.15 -1097.79)"  stroke="#fff" stroke-linecap="square" stroke-linejoin="bevel" stroke-width="1" fill-rule="evenodd"/>
      <text id="118" transform="translate(27.523 40.763)" fill="#fff" font-size="13"  font-family="OpenSans-Bold, Open Sans" font-weight="700"><tspan x="0" y="0"></tspan></text>
    </g>
    <g id="_112_Karjat" data-name="112 Karjat" transform="translate(2163.693 917.833)">
      <path id="talId112" fill="#7DB8EC" title="Karjat Taluka" data-name="Karjat Taluka" d="M1276.225,1149.221l.083.416.091.274.116.175.2.117.191.074.2.025.241.008.265-.025h.141l.125.025.274.083.241.1.142.108.157.141.141.249.166.3.017.208.024.257.05.349-.058.233-.059.158-.016.125.025.232.05.241.066.15.117.158.191.15.208.158.174.133.257.091.224.016.133.033.166.042.2.2.132.191.05.141.017.158-.091.216-.117.15-.158.182-.208.224-.2.158-.175.158-.3.241-.233.224-.29.19-.2.133-.083.266-.008.208.075.158.084.091.157.075.2.009h.183l.191.116.1.108.067.133-.017.158-.373.533-1.121,1.163-.232.407-.026.183.017.191.058.158.091.166.125.174.8.149.449.192.49.183.3.241.216.25.232.274.24.215.707.524.257.391.057.424.083.274.083.174.092.142.3.349.391.274.3.142.582.167.357.241.224.1.307.1.291.008h.274l.4-.024.39-.025-.2.465-.349.764-.316.74-.241.623-.275.457-.233.416-.39.672-.473.017-.432-.033-.4-.025-.532.076-.623.074-.524.026-.44.224-.4.415-.713.482-.574.216-.681.25-.482.165-.7.25-.781.107-.581-.274-.341-.182-.565-.017-.216.009h-.5l-.847-.316-.872-.366-.5.017-.274.607-.108.423-.091.6-.116.465-.2.349-.208.333-.283.822-.373.956-.125.682-.058.482-.142.432-.324.1-.324-.016-.357.009-.44.116-.366.066-.348.05-.358.041-.3.183-.972,2.1-.316,1.4-.714,1.828-.49,1.629-.349,2.185.141.423.107.391-.016.357-.067.34-.125.141-.307.125-.582.207-.664.416-.183.515-.324.2-.64.141-.656.166-.365.1-.532.125-.623.149-.582.066-.133-.108-.357-.59-.49-.648-.649-.457-.64-.307-.964-.124-1.089-.258-.739-.224-.573-.117-1.562-.415-.448.175-.158.474-.233.564-.183.59-.7,2.177-.208.623-.116.482-.174.989-.366.166h-.806l-.581.091-.956.192-.682.075-1.238.29-.482.391-.548.466-.225.274-.075.582-.059.349-.664.581-.5-.025-.448-.291-.516-.182-1.262.025-1.811.341-1.4.39-.739.325-1.3.839-.764.083-.672-.091-.69,1.379-.157.515-.142.44-.033.374-.107,1.23-.914.025-1.553.058-1.986.008-.922.174-.822.192-.473.2-.449.233-.166.183-.391,1.138-.026.581-.075.524-.024.365-.009.374-.3.2-.316.083-.332.025-.54-.141-.175.274.141.15-.25.142-.349.19-.208.05-.141.041-.3-.183-.275-.266-.357-.091-.432-.141h-.391l-.257-.042-1.089-.241-.407-.556-.631-.3-.673-.158-.922-.083-.806-.158-.632-.266-.523-.265-.723-.349-.39-.416-.332-.315-.523-.432-.167-.317v-.357l.108-.3.158-.424.915-1.088.789-1.454.631-1.2.067-.706-.506-.49-.773-.532-.374-.316-.233-.532-.242-.556-.589-.864-1.03-.482-.906-.482-.739-.506-.6.067-.723.258-1.03.415-.889.69-.549.5-.44.316-.416.116-.549.083-1.2-.05-.714-.133-.622-.192-.516-.216-.491-.44-.141-.574-.083-.7-.141-.781-.649-.681-.432-.374-.34-.34-.291-.507-.1-.64v-.548l.2-1.139.623-.914.257-.665.1-1,.017-1.778.249-1.18.117-1,.158-1.105.216-.856-.058-.465-.482-.432-.4-.424-.714-.906.739-.971.249-.333.757-.831.3-.217.532-.082.431.033.5.132.731.25,1.238.822.507.358.855.274,1.03-.191.823-.158.158-.291.473-.581.257-.449.308-.49.182-.39.449-.05.49.091.648.324.54.249.34.158.266-.224.083-.275.033-.44-.175-.241.15-.125.408-.2-.067-.274-.466-.216-.05-.266.117-.283.1-.39.124-.324.108-.457.308-.557.423-.042.083-.341v-.216l-.025-.3-.174-.34-.15-.325-.034-.249.183-.258.282-.116.208-.233.058-.308.042-.291.432-1.113.266-.622.191-.358.274-.416.208-.348.207-.316.457-.216.524-.341.589-.93.25-.133.066-.075.283-.133.407-.091.258-.275.689-.274.4-.233.282-.274.465-.356.431-.516.167-.565-.349-.117-.531-.174-.491-.108-.615-.158-.772-.158-.366-.274.05-.4.133-.349.249-.49.249-.333.474-.191.332-.091.333-.017.15-.573.125-.623.283-.756.066-1.944-.025-.864.539-1.563.308-1.877.017-.565.183-.482.092-.382-.249-.332-.474-.316-.474-.333.009-.881.1-.574.133-.448.1-.474v-.722l-.132-.915.141-.448.025-.424-.2-.34-.167-.324.05-.491.216-.224.406.1.507.108.282-.008.582.083.648-.016.532-.358.042-1.636.481-.374.25-.233.358-.274.432.016.1.349-.042.474.24.066.673-.44.457-.25.34-.215.283-.383-.017-.224-.406-.142-.873-.514-.349-.291-.258-.474-.281-.457-.325-.457-.282-.274-.307-.332-.108-.316-.158-.416-.432-.365-.274-.291.182-.474.864-2.559.3-.54.241-.233.631-.274.9-.083.473-.1.873-.033,1.072-.017,1,.008.275-.3.232-.723-.082-1.82.057-.382.209-.473.116-.416.233-.382.249-.191.548-.017.316.116.375.158.531-.091.307-.307.4-.341.573-.441.091-.806.141-.491.606-.523,1.056-1.005.332-.391.325-.207.441-.15.515-.109.208-.29.1-.557.349-1.554.009-.2.058-.357.074-.274.233-.433.067-.232.016-.482.507-.067.548-.008.274.1.266.249.773.847.341.407.149.091.34.058.257.075.4-.017.315-.2.415-.316.307-.183.341-.216.672-.432.216-.216.258.008.125.3.058.232.008.282-.008.449-.241.639-.116.266-.116.2-.092.15-.033.183.1.3.158.142.191.15.108.091.175.2.191.349.6.74.581.456.241.3.183.3.233.116.59.1.5-.133.241-.083.216-.108.282-.1.125-.723.083-.507.183.05-.15,1.163.358-.109.091-.747.507-.083h.507l.258.058.1.366-.058.315-.042.316-.041.772-.125.216-.141.184-.158.216-.174.175-.183.274.166.432.083.407.075.216.116.142.242.082.2.133.174.1.233.341.092.391.2.224.1.05.157.067.167.075.141.116.166.216.207.05.167-.125.182-.108.15-.033.233.033.149.116.524.5.191.067.176-.017.166-.016h.141l.15.016.3.158.125.216.1.133.1.133.083.074.224.142.532.216.092.1.033.108.026.124v.1l-.026.125.033.4.042.175.042.1.132.108.109.057.124.058.116.108.008.166.1.44.116.191.1.091.133.092.125.057.192.05.348.058.25.1.166.091.15.116.166.183.432.631.1.307.042.208-.05.324-.05.291.058.141.091.1.075.108.141.133.15.074.465.108.406.108.25.05.175.1.166.125.166.157.108.233.059.333.074.333.225.5.315.623.291.432.4.5.283.174h.208l.25-.058.141-.008.116.016.166.075.158.158.1.274.1.141.149.166.1.091.208.158.34.091.532.05.332.075.274.083.59.382.415.315.282.317.166.182.1.133.042.174-.033.116-.033.157-.033.15.008.142.033.117.117.24.182.241.407.4.232.308.258.1h.291l.191.016.191.033.157.1.224.125.216.157.075.391-.116.158-.1.067-.183.084-.1.149.058.266.141.158.316.1.224-.025.158-.042.15-.025.132.258.157.233.225.183.274.349.225.333.324.332.358.224.15.067.224.108.4.158.283.091.258.141.174.249.067.366.017.8-.042.39.025.3.058.233.241.208.182.133.416.241.524.208.49.124.283.3.141.133.149.166.083.316.066.232" transform="translate(-1198.7 -1114.31)"  stroke="#fff" stroke-linecap="square" stroke-linejoin="bevel" stroke-width="1" fill-rule="evenodd"/>
      <text id="112" transform="translate(34.678 50.575)" fill="#fff" font-size="13"  font-family="OpenSans-Bold, Open Sans" font-weight="700"><tspan x="0" y="0"></tspan></text>
    </g>
    <g id="_111_Jamkhed" data-name="111 Jamkhed" transform="translate(2240.955 917.845)">
      <path id="talId111" fill="#7DB8EC"  title="Jamkhed Taluka" data-name="Jamkhed Taluka" d="M1292.01,1149.157l.208-.224.191-.449.681-1.587.216-1.437.049-1.072.158-1.546.166-1.4.092-.74-.026-1.3.6-1.429.523-.564.432-.316.108-.4-.026-1.321-.233-.774-.033-.473-.1-1.729.034-.731,1.994.008,1.621.208,1.014-.449.656-.216.565-.025.606.191.375.116.191.383.2.423,1.064.424,1.37.432,1.4.332.814.192.623.241.582.266.681.315.357.033.29-.092,1.413-.93,1.421-.531.83-.175.516-.316.448-.939.715-1.886.673-1.379.815-1.895.357-.614.764-.491.432-.548.333-.573.888-1.188.964-1.163,1.122-1.254.125-.133.707-.981.241-.332.44-.207.241.257.041.391.15.49.074.432.25.249.373.191.308.391.308.465.548.566.332.373.366.166.423-.083.382-.174.275-.149.39-.125.308-.091.266-.158.224-.192.1.225.05.208.158.091.324-.091.266-.133-.067.3-.133.34.025.241.2.216.158.067.133.225.074.274.2.133.125.049.166.382.15.059.233-.225.208-.108.2.266v.191l-.241.166-.025.158.042.224.091.166.166.283.157.374.416-.358.291-.091.615-.083-.224-.424.083-.257.349.042.258-.033.058-.424.134-.557.033-.506.15-.574.208-.44.15-.865.016-1.453.208-1.621.166-.789-.116-.789.242-1.18.407-.722.332-.516.216-.4.283-.025.265.308.307.182.25.166.316.166.349.158.348.258.216.2.308.075.564.133.1.266.208.266.191.033.241.1.1.141-.083.183-.108.19.033.174.207.166.216.224.225.291.257.2.374.2.1.216.24.3.623.615.44.324.15.191.207.258.358.183.332.307.39.607-.3,1.2.225,1.628.15,1.139.108,1.081.067.39.083.116.25-.108.124.383-.016.332-.075.323.016.333.142.291.191.415.225.316.1.15.623.149.59.05.307-.117.191-.207.257-.349.258.308.291.066.274-.091.374-.05.025.141.058.408-.008.192.307.108.44.05.507.165.366.208.358.158.266.049.391.141.125.274.133.291.1.233.208.083h.49l.432.133.257.2.125.258-.067.382-.1.357.041.532.64.257.441.15,1.08.374.324.125.556-.033.407-.058.4-.208.49-.316.4-.224.431-.274.374-.408.1-.382.008-1.453-.133-.8-.166-.549.142-.632.282-.215.4.215.573.275.615.249.515.275,1.6.789,1.055.939.341.366.125.457-.165.5-.191.565-.075.282-.1,1.329.025.607.075.5.024.756.067.415.473.225.424.291.308.233.448.142.291-.116.4-.108.3-.017.523.042.283.2-.017.348.017.216.481.257.507.225.207-.116.382-.134h.167l-.051.781-.2,1.1-.091.6-.274.05-.424-.033-.747-.149-.607-.05-.865.116-.457.067-1.371.216-1.562.432-.474.291-.133.482-.083.407-.108.416-.066.241.025.307v.441l-.1.415-.05.432.017.423.008.416.182.365.332.05.541.058.224.515.008.656-.349,1.172-.515.191-.191.291-.116.266-.358.116h-.341l-.432-.074-.366-.117-.324-.067-.457.025-.432.141-.208.05-.407.057-.423.083-.042.258-.009.266-.066.349-.507.3-.349.333-.241.183-.208.116-.366.374-.265.315-.174.175-.175.108-.382.041-.448-.041-.125.116-.15.307-.208.042-.258-.224-.125-.266-.133-.083-.141-.017-.108.083-.166.133-.241-.074-.166-.208-.158-.274-.133-.091-.216.132-.166.267-.133.207-.141.233-.042.191v.257l-.449.242-.614.291-.5.5-.457.257-.6.482-.283.291-1,.457-.183.133-.1.308-.025.283.042.224-.149.175-.466.59-.075.266-.4-.15-.307-.049-.2.15-.025.348-.1.324-.258.324-.241.249-.274.473-.915,1.421-.4,1.412-.316,1.645-.9,1.953-.732.714-1.52,1.82-.689.847-.39.349-.366.116-.366-.216-.407-.316-.59-.648-.3-.324-.373-.275-.507-.324-.441-.15-.731-.216-1.836-.773-.931-.473-.573-.141-.566.025-.406.009-.291-.166-.274-.158-.466-.125-.473-.125-.591-.2-.705-.547-.59-.291-.341-.05-.357.009-.241.224-.349.507-.083.374-.182.6-.075.432-.125.357-.183.333-.88.906-.291.8-.05.64-.05.649-.008.465-.008.374-.257.124-.506-.009-.724.075-1.42.656-1.246-.233-.574-.016-.4-.133-.382-.133-.208-.017-.316.158-.207.108-.25.158-.382.083-.358.033-.839.332-.266.224-.5.175-.582.158-.714.141-.357.208-.167.207-.2.174-.132.2-.1.225-.224.116-.183.042h-.29l-.357-.042-.316-.05-.125-.241-.274-.3-.116-.207-.125-.191-.125-.175-.1-.257-.382-.515-.324-.333-.391-.365-.174-.274-.308-.182-.341-.291-.083-.241-.083-.275-.083-.133-.125-.207-.074-.158-.042-.192-.016-.141.207-.557.017-.249-.092-.183-.166-.191-.357-.175-.425-.249-.365-.075-.216.141-.116.075-.183.108-.1.05-.2.016-.506-.291-.424-.34-.125-.15-.174-.391-.141-.316-.207-.241-.183-.183-.432-.233-.374-.224-.224-.041-.391.025-.4.025h-.274l-.291-.008-.307-.1-.224-.1-.358-.242-.581-.165-.3-.142-.39-.274-.3-.349-.092-.142-.083-.174-.082-.274-.059-.424-.258-.39-.706-.523-.241-.216-.233-.275-.216-.249-.3-.241-.491-.183-.448-.191-.8-.149-.125-.175-.092-.166-.058-.157-.017-.191.025-.183.233-.408,1.121-1.163.374-.531.017-.158-.067-.133-.1-.108-.192-.117h-.182l-.2-.008-.157-.075-.083-.091-.075-.158.008-.207.083-.266.2-.132.29-.191.233-.225.3-.241.175-.157.2-.158.207-.224.158-.183.117-.149.092-.216-.017-.158-.05-.141-.133-.191-.2-.2-.166-.041-.132-.033-.225-.017-.257-.091-.175-.133-.207-.158-.191-.149-.117-.158-.067-.149-.049-.241-.025-.233.017-.125.058-.158.059-.232-.05-.349-.024-.257-.017-.208-.166-.3-.142-.249-.158-.141-.141-.108-.241-.1-.274-.084-.125-.024h-.141l-.266.024-.241-.008-.2-.025-.191-.075-.2-.116-.116-.175-.091-.274-.083-.415" transform="translate(-1292.01 -1113.93)"  stroke="#fff" stroke-linecap="square" stroke-linejoin="bevel" stroke-width="1" fill-rule="evenodd"/>
      <text id="111" transform="translate(16.416 35.563)" fill="#fff" font-size="13"  font-family="OpenSans-Bold, Open Sans" font-weight="700"><tspan x="0" y="0"></tspan></text>
    </g>
  </g>
</svg>
