<svg xmlns="http://www.w3.org/2000/svg" width="267.777" height="300.579" viewBox="0 0 267.777 300.579">
  <g id="Akola" transform="translate(-1889.193 -393.739)">
    <g id="_237_Patur" data-name="237 Patur" transform="translate(1890.7 602.919)">
      <path id="talId237" fill="#7DB8EC" title="Patur Taluka" data-name="Patur" d="M1713.35,759.039l-.068.359-.068.623-.2.63-.163.385-.366.754-.407.58-1.085.947-.19.871.014,2.609v.9l.026,1.312.015.345-.069.433-.108.246-.841-.1-.462-.179-.42-.16-.353-.149-.447-.049-.2.068-.422.4-.257.73-.556.18-.474.167-.462.117-.5.124-.515.092-.327.273.163.958.23.582.19.426.15.359.217.612.217.841-.013.284-.271.24-.42.044-.38-.135-.27-.094-.312-.092-.2-.019-.326.236-.163.934-.149.3-.285.21-.326.05-.786.211-.312.186-.04.184.013.322-.013.891.068.6-.231.248-.407-.019-.325-.13-.38-.025h-.515l-.2.148-.108.329-.026.37.284.656.366.426.638.624.176.284-.081.278-.27.167-.57.149-.964.21-.623.24-.531.081-.406-.031-.542.056-.624.271-.624.21-.624.249-.543.6-.434.1-.448.024-1.328-.191-.6-.056-1.179-.5-.638-.513-.6-.328-.379-.142-.3.042-.258.1-.135.167-.489.464-.311,1.953-.176,1.131-.149.26-.612-.111-.365-.222-.353-.28-.406-.37-.408-.112-.543-.068-.61.2-.353.352-.23.792-.108.563.055.308-.055.384-.3.111-.53.173-.772.327-1.29,1.367-1.5,1.755-1.316,1.187-.435,1.564-.366,1.817-.339.273-.272.322-.136.4v.593l.122.316.651.3.883.507,1.016.5.408.191.284.055.461-.024.177-.056.38-.068.23.031.245.172.149.248-.137.259-.337.161-.448.235-.515.376-1.331,1.026-.609.587-.474.1-.462.161-.747.73-1.234.878-1.234.853-.815.525-.27.471-.245.655v.679l.3.186.407.154.326.272.027.389-.271.372-.665.593-.487.687-.529.526-.692.433-.923-.6-.528-.377-.191-.353-.121-.352-.2-.469-.121-.785-.177-2.3-.664-1.231-.869-.784-.787-.341-.611-.031-.365-.284-.2-.042-.258.153-.215.248-.2.259-.2.242-.379.123-1.208-.3-1.112.038-.516-.348-.556.316-.312.481-.081.4.244.372.285.184.123.222.08.4-.624.742-.719.883-.556.976-.582.18-1.181.16-.6.223-.313.05-.747.11-.744.223-.584.172-.488.149-.339.1-.352-.068-.312-.321-.326-.811-.23-.611-.136-.346-.15-.235-.285-.18-.516-.081-.623.043-.909.068-1.342.155-.476-.056-.637-.135-.38-.259-.813-.415-.258-.6.163-.694.15-.7.271-1.724.163-1,.055-1.268.15-.3.488-.4.081-.26.014-.476.026-.371-.163-.37-1.072-.65-.434-.16-1.016-.118-1.125-.2-1.3-.167-.542-.2-.435-.2L1640,797.9l-.3.037-.083.371-.039.513-.068.427-.286.24-.27-.167-.475-.544-1.492-1.025-.514-.489-.611-.347-.76-.129-1-.106-.434-.1-.422-.1-.392-.148.122-.333.094-.513.082-.563.108-.5.068-.822-.244-.5-.244-.328-.693-.005-1.084-.1-.719-.055-.678.055-.76.179-.5.167-.231-.229-.027-.3v-.425l.094-.415.151-.421-.272-.191-1.832-.488-1.641-.575-2.048-.675-.692-.166-.5-.093-.734-.29-.475-.3.122-.691.257-.737.395-.877.217-.2.123-.63.136-.464.23-.7V783l-.054-1.112.135-.531.746-1.064.258-.4.135-.445.124-.5.081-.63.272-.216.554-.149.638-.087,1.276-.259.543-.309.529-.409.258-.464.352-.989.556-1.261.109-1.786-.121-.464-.136-.223-.392-.2-.271-.545-.231-.462-.149-.464-.109-.6-.447-.563-.652-.557-.447-.186-.5-.031-.678-.259.068-2.175.149-2.238v-.55l-.245-.545-.568-.761-.4-.444-.338-.532-.516-.692-.813-.828-.312-.409-.3-.469-.163-.488-.286-.78-.935-.58-.339-.229-.244-.4.055-.425.054-.477.38-1.063.041-.488.19-.539.216-.549.516-.154.434.049.3.031.394.068.393-.019.311-.025.489-.056.311-.074.327-.08.176-.284-.2-.316-.245-.259-.258-.31-.177-.346-.218-.459-.054-.8-.394-.7-.121-.365.013-.612.122-.5.367-1.334.176-1.453.583-1.539.176-.643.449-1.167.569-1.145.2-.322.285-.518.149-.137.2-.024.149.253.271.08.285-.031.326-.037.366-.018.76-.235.286-.29.23-.179.257.031v.235l-.123.339-.149.322-.027.39.516-.1,1.519-.266.651.148.38.841.407,1.175-.041,1.025-.081.916-.054.915-.109.95,1.315-.469.732-.234.516-.2.528-.186.217-.358.381-.469.38-.248.61-.593-.218-1.027-.027-.507-.041-.631.448-.3.366-.137.312.125.61.2.353.087,1.127-.519,1.179-.815.449-.544.176-.78.041-1.929.189-2.608.2-1.434,2.21.322-.04-.853.107-.9.815-1.607.434-.8.569-.556.258-.681.027-.89.218-.952,1.844.074,3.3.012,2.006-.036,1.166.283.109.989.23.742.245.63.027,1.064.488.829,1.072.235,1.451.3,1.75.537.787.112,1.587.335.326.042.433.236.5.056.528-.044.747-.056.12-.76.013-1.687.015-.389.23-.217.5-.167.272-.123.284-.321.271-.469.312-.458.557-.124.84-.024,1.248.055.122-.321.109-.624.04-.965-.082-.21-.257-.476-.272-.489-.218-.55-.4-.489-.068-.34.555-.482.6-.142h.651l.664.384.706.358.6.055.556.123.8.136.706.34.568.234.544.149.488.037.326-.162.555-.141.9-.007.665.346.7.21.57.031.407.179.447.111.705.043.734.587.582.352.068,3.641.312.341.9.2.936.735,1.072,1.07.826.631.5.785.543,1.422.867,1.274.775,1.063.73.592.543.254.787.3.718.254.462.389.6.261,1.315.334.5.414,1.057.063.705-.044.571-.234.543-.352.434-.278.27-.025.232.061.543.458,1.165.513.529.451.57.223.909.624.867.457.23.093.232.013.516-.026.65.031.732.191.462.384.393.408.5.222.27.186.585.2.365.475.177.371-.163.47-.407.773-.285.89v.977l.042.483.175.537.176.309-.04.186-.122.26-.177.321-.135.45.013.612.122.6.434.538.312.106.163-.014.2-.068.3-.155.3-.123.434-.043.326.241.189.42.218.426.2.477.028.531-.313.669-.054.315.258.538.163.383.244.594.054.513.067,1.033.136.451.244.31.149.9.136.185.189.055.245.1.312.111.421.019.637.241.651.42" transform="translate(-1618.811 -721.211)"  stroke="#fff" stroke-linecap="square" stroke-linejoin="bevel" stroke-width="1" fill-rule="evenodd"/>
      <text id="237" title="Patur" transform="translate(37.673 46.178)" fill="#fff" font-size="13"  font-family="OpenSans-Bold, Open Sans" font-weight="700"><tspan x="0" y="0"></tspan></text>
    </g>
    <g id="_234_Balapur" data-name="234 Balapur" transform="translate(1890.095 492.895)">
      <path id="talId234" fill="#7DB8EC" title="Balapur Taluka" data-name="Balapur" d="M1681.684,753.482l-.583-.353-.731-.587-.706-.044-.448-.111-.406-.179-.569-.031-.707-.211-.664-.346-.895.007-.557.141-.325.162-.488-.037-.543-.149-.569-.234-.7-.341-.8-.136-.557-.123-.6-.056-.706-.358-.664-.384h-.652l-.6.143-.556.481.067.34.408.488.217.55.271.488.258.476.081.211-.04.964-.11.624-.121.322-1.248-.056-.841.025-.557.123-.312.458-.271.47-.284.321-.271.123-.5.167-.23.217-.014.389-.013,1.687-.122.761-.747.055-.529.044-.5-.055-.434-.236-.327-.042-1.586-.335-.786-.111-1.75-.538-1.452-.3-1.071-.235-.489-.828-.026-1.064-.245-.631-.231-.742-.109-.988-1.165-.283-2.009.036-3.3-.012-1.844-.074-.217.952-.027.889-.259.681-.57.556-.434.8-.813,1.607-.109.9.041.854-2.211-.322.474-2.189.732-1.707.583-1.434.909-2.448.1-1.67.3-.89.027-.618-.392-.086-.489.012-.8.049-.963-.049-.421-.149-.122-.445.2-.52.312-.458.244-.408.786-1.335.15-.321.312-.471.76-.334.7-.012.692.024.679-.073v-.21l-.162-.348v-.37l.08-.234.285-.31.23-.259.081-.347-.135-.409-.664-.445-.543-.655-.094-.321-.137-.508v-.358l-.69-.186-.787.173-.828.148-1.208.1-.989.075-1.343.024-.327-.31-.012-.7.053-.717.624-1.41.584-1.051.231-1.236.7-1.138-.013-.483-.123-.481-.569-.075-1.046-.112-.624-.024-1.031-.2-.948-.159-.652-.21-.38-.558.163-.617.175-.348.177-.543.286-.977.3-.73.408-.779.393-.556.285-.433.38-.234v-.457l-.557-.867-.094-.394-.326-.31-.69-.037-.49.026-.487.148-.435-.061-.5-.248-.677-.16-.91-.123h-.691l-1,.1-.691-.148-.028-.469.149-.668.285-.866.46-.532.489-.433.286-1.446v-.655l.053-.953-.109-.779-.217-.879-.014-.246.137-.452.136-.469.135-.551-.243-.141-1.058-.328-1.03-.2-.815.085-.623-.068-.569-.061-.2-.2-.218-.353-.013-.377.067-.562.408-1.058.013-.333.094-.3.218-.173.312.062.325.191.326.278.419.106.136-.359.176-.588.2-1.663.027-.518.176-.452.46-.439.354-.6.149-.3.285-.161.475-.093.7-.08,1.045.068,1.939-.427.2-.185.49-.253,1.884-.531.529-.193.189-.278v-.3l.055-.359.013-.322-.068-.445-.068-.16-.34-.186-.419-.08-.285-.038-.406-.056-.2-.073-.3-.242-.122-.241-.095-.216.013-.292v-.246l-.027-.433-.19-.5-.161-.333-.11-.346-.041-.426.177-.532.283-.99.6-1.05.027-.674.136-.8.257-.489.272-.186.378-.129.394-.334.326-.242.448-.5.61-.544.38-.5.475-.518.284-.594.149-.4-.041-.326v-.5l.055-.563.121-.433.258-.771-.027-.674-.108-.346-.1-.241-.109-.3-.054-.087-.135-.254-.217-.261-.312-.247-.163-.234-.218-.341-.324-.853-.122-1.008-.284-.617-.244-.236-.53-.395-.38-.137-.624-.018-1.384-.024-.515-.074-.692-.174-.651-.1-1.057-.346-.19-1.095-.122-.693.054-.791.353-.984.094-.494.245-.526.027-1.149-.068-.489-.15-.506-.013-.34.082-.482.286-.5.108-.24.311-.142.625.024.352-.049.407-.051.435-.024.013-.3-.271-.186-.121-.284-.163-.581-.23-.514-.082-.271-.135-.551v-.8l.067-.254.218-.266.284-.223.218-.179.178-1.224-.07-.451.122-.315.325-.161.313-.068.3-.217.054-.462.176-.056.366-.162.149-.1.15-.118.08-.222-.066-.315-.109-.285-.081-.3.041-.111.163-.074.257.043.339.024.1-.154.123-.334.081-.266-.067-.266-.231-.185-.136-.1-.433-.358-.379-.291-.773-.6-.53-.551-.229-.421-.054-.334.066-.253.2-.254.083-.3-.487-.408-.489-.31-.381-.036-.271.005-.191.125-.2.136-.311.074-.135-.026-.137-.142-.2-.247-.014-.606.19-.141.284-.112.055-.2-.015-.285-.068-.222-.148-.384-.53-.481-.041-.179v-.21l.069-.173.08-.26.055-.365-.013-.334-.054-.415-.055-.2-.149-.21-.285-.222-.271-.162-.326.026-.42.056-.394.092-.258.037-.434-.025-.326-.21-.3-.1-.284.106-.176.593-.219.309-.2.241-.339.278-.244.093-.34.111-.365-.136-.719-.914-.272-.527-.217-.278-.232-.309-.432-.061-.313-.056-.351-.026-.109-.092-.054-.186.094-.7.2-.568.082-.254-.042-.309-.136-.21-.122-.167-.2-.031-.2.118-.285.087-.163-.038-.379-.16-.271-.162-.447-.339-.76-.265-.216-.111-.123-.186-.026-.253.053-.259.124-.241.175-.242v-.2l-.027-.174-.135-.117-.462-.192-.38.012-.27.069-.475.247-.488.185-.583.172-.326-.018-.448-.217v-.266l.109-.2.2-.31.489-.433.176-.346-.014-.249-.2-.215-.448-.131-.46-.161-.365-.265-.272-.309-.027-.329.027-.241.109-.247.176-.266.324-.229.706-.259h.489l.651.012,1.1-.055,1.273-.143.422-.017.393.03.381.193.324.265.245.365.338.414.448.1.366-.148.394-.217.283-.153.366-.205.9-.191.962-.038.46-.092.489-.167.34-.186.107-.3.068-.284.068-.285.095-.154.774-.322.284-.086.313-.086.487-.167.245-.217.2-.179.271-.111.271.087.258.247.232.444.378.334.258.328.421.4.217.308.5.21.446.056.53-.03.379-.1,1.031-.365.313-.155.366-.117.406-.1.3.007.568.2.381.117.366.031.542.13.583.353.095.271.177.464.1.341.109.346.135.092.19.063.34.087.175.073.19.223-.027.236-.177.16-.271.2-.3.266-.258.155-.394.235-.055.278.177.222.109.1.19.056.311.087.407.124.421.13.555.259.475.012.339-.351.6-.865.406-.737.122-.655-.378-.7.9-.068.38.012.312.179.352.2.651.358,1.073.514.351.167.271.061.271-.03.313-.075.217-.2.435-.525.217-.1.365.075.109.315-.218.817-.406.889-.434.4-.448.333-.271.766.163.2.285.457.692.316.529.16.584.3.325.166.515.247.339.05.38.056.352-.056.787-.377,1.044-.68.326-.172.325-.094.366-.03.325.129.365.322.326.2.366.117.6.032.378-.186.421-.24.448-.18.407-.024,1.031.514,1.221.617.609.408.747.358.122.421-.082.446-.026.655.2.568.286.173.921-.026,1.94-1.47.882-.5.706-.4.6-.457.678-.346.922.2.719.581.326.643.555.754,1.317-.333.5-.309.583-.025.434.148.489.322.147.582.354.964-.094.952.08.308.407.113.475-.224-.122-.766.082-.643.529-.271.772-.186.8-.222h.867l.421.63.19.9.937-.012,1.234-.246.23,6.02-.5,1.336-1.615.086-1.681-.061-1.249-.075-1.506-.334-.989-.21-.95.062-.5.556-.488,1.483-.148,1.916.5.186,1.1.273,1.017.111,1.085.346.8.161.706.568.719.358-.258,3-.46,1.5.094,2.844-.42,1.175v1.5l.475-.038.961-.247.883-.16,1.112.148.123.754.258.556.094.582-.04,1.175.284.839.285,8.087-.706.556-5.832-.087-.028,1.262-.378.865-.19,1.027-.271.469-.665.42-.475,2.733-.123.506-.378.582-.286.631-.311.977.027.952.665.012,2.4.346,4.136,1.013,3.094.8.339.656.542.222.963.643,2.767.841,2.117.235,2.55.47,2.239.629.107,2.4-.434,3.215-.069,3.35-.583,2.523-5.181.061-.421.57-1.111.939-.286,1.126.218.2.881.37.76.3,1.559.469.76.384-.271,1.446-.3,1.027-.353,1.88-.435,1.866-.717,2.152-1.262,2.522-.555.148-.909.049-.475.594-.2.9-1.043-.123-1.139.1-1.3.124-1.207.15-3.079.123v-.235l.135-.816.136-.532.177-.853v-1.347l-1.98-.161-.286.778-.677,1.372-.366,1.138-.57,1-.3,1.211-.609,1.595-.137,1.868.1,1.088.326.691.162.805.922.667.733.1,1.316-.234.5-.235,1.288-.075,1.912-.258,1.261.085,1.234.309,1.8.21.325.062.286,3.35-2.224-.1.175.766.34.4.19.433.353.211.977-.063.636.087v.507l-.7,1.434-.624.94-.571.841-1.6,1.4-1.656,1.651" transform="translate(-1618.41 -640.111)"  stroke="#fff" stroke-linecap="square" stroke-linejoin="bevel" stroke-width="1" fill-rule="evenodd"/>
      <text id="234" title="Balapur" transform="translate(24.277 61.201)" fill="#fff" font-size="13"  font-family="OpenSans-Bold, Open Sans" font-weight="700"><tspan x="0" y="0"></tspan></text>
    </g>
    <g id="_238_Telhara" data-name="238 Telhara" transform="translate(1911.254 408.867)">
      <path id="talId238" fill="#7DB8EC" title="Telhara Taluka" data-name="Telhara" d="M1689.175,675.215l.15.106.053.358v.538l-.109.593-.176.352-.57.037-.746.593-.2.229-.558.292-.339-.05-.419-.383-.2-.4-.014-.5.231-.29.148-.428-.256-.5-.3-.464-.53-.37-.338.3-.11.347-.229.506-.149.3-.23.4-.272.2-.325.025-.326-.1-.176-.209-.177-.36-.121-.4-.2-.568-.5-.637-.284-.155-.475-.167-.705-.061-.664-.081-.882-.1-.516.031-.162.242-.094.4-.352.5-1.235.247-.936.012-.19-.9-.421-.631h-.867l-.8.222-.773.186-.528.271-.082.643.123.766-.475.224-.408-.113-.081-.308.1-.952-.353-.964-.149-.582-.487-.321-.434-.148-.584.025-.5.309-1.316.334-.556-.754-.325-.643-.719-.58-.922-.2-.679.346-.6.457-.7.4-.884.495-1.938,1.47-.924.026-.284-.174-.2-.569.028-.655.081-.446-.121-.421-.747-.358-.61-.408-1.221-.617-1.031-.514-.406.024-.448.181-.42.24-.38.185-.6-.032-.367-.116-.325-.2-.366-.321-.326-.129-.365.03-.326.094-.326.172-1.044.68-.787.378-.352.056-.381-.056-.337-.05-.516-.247-.327-.167-.583-.3-.529-.16-.691-.316-.286-.457-.163-.2.272-.766.448-.334.434-.4.406-.89.218-.817-.109-.315-.366-.075-.216.1-.435.526-.217.2-.312.075-.271.029-.271-.061-.352-.167-1.071-.514-.653-.358-.352-.2-.312-.179-.38-.012-.894.068-.123-.489-.028-1.15.136-.723-.094-.619-.325-.481-.109-.161-.326-.266-.313-.117-.38-.031-.529-.012-.447.036-.583.087-.2-.222v-.315l.149-.315.543-1.119.679-1.126.325-.215.379-.1.449.118.475-.043.081-.334.053-1.355.04-.469.15-.508.23-.8v-1.972l.04-.419.055-.391.094-.29.435.007.475.086.772.308.937.249.583.049.419.038.489.141.489.34.312.162.461.141.365-.043.3-.3.245-.353.136-.2-.1-.273-.407.026-.2-.464-.2-.316-.163-.34-.054-.278.027-.334.257-.316.489-.112.394-.056.244-.155-.136-.2-.583-.068-.665-.007-.46-.452-.218-.382-.488-.174-.693-.019-.921.087-1.316.321-.677-.123-.733-.154-.691-.087-.5-.284.014-1.02.027-3.221-.068-.451-.177-.259-.542-.1-.609.013-.624.031-.284-.186.012-.408.082-1.02.027-.476.109-.711.448-.339.354-.309.569-.137.828-.08.7-.055.91-.056,1.248-.163.162-.114.055-.036.081-.027.122-.018v-.077l-.013-.1-.041-.155-.041-.25-.041-.137-.013-.069.013-.091.026-.109-.068-.047-.121,0-.109-.03.014-.107.149-.2.122-.1.054-.174-.054-.13-.026-.123.026-.136.217-.007.108-.092.083-.235-.055-.2-.176-.359.312-.235v-.136l-.177-.557.109-.26.082-.267.135-.295-.2-.254-.123-.4-.338-.094-.245-.087-.135-.4-.284-.258-.286-.475-.041-.383-.013-.3-.286-.267-.5-.058-.964-.083-.908.042-1.314-.068-.15.134-.149.858-.245.133-.176.024h-.366l-.569-.041-.327-.209.028-.45.312-.3.177-.508.081-.491-.271-.467-.273-.15-.243-.517-.028-.692-.46-.574-.612-.141-.135-.259-.027-.557.624-.268.434-.275.462-.25.489-.242.216-.458.122-.734.177-1.358.678-.042.366.018.447.016.557-.008.177-.243.041-.467-.014-.825-.027-.825.136-1.367.3-1.307.014-.376-.217-.349-.583-.183-.434-.066-.719-.016-.435-.209-.407-.766-.135-.675-.2-1.084-.068-.654.23-.8.285-.278.379-.287.461-.313.45-.262.418-.229.366-.651.272-1.074.3-.754.475-.867.244-.541.406-.643.109-.37-.013-.321-.028-.41-.162-.42-.231-.254.217-.367.123-.671.177-.55-.013-1.124.15-.342.013-.333-.082-.215-.353-.084-.421-.129-.325-.155-.394-.545-.244-.4-.055-.525-.366-1.2-.136-.513-.151-.366-.324-.447-.529-.312-.34-.276-.217-.279-.041-.316v-.571l.325-.933.15-.416.081-.442-.135-.5-.177-.258-.149-.255-.027-.658.176-.774.163-.812.041-.922-.162-.816-.354-.826-.393-.8-.528-1.013-.326-.7-.136-.563-.027-.533.027-.708.054-.209.109-.308.271-.33.651-.424.23-.167.379-.151.638-.2.623-.229.123-.037.094-.1.951.153.2.393h.5l.516.048.094.328.055.278.149.278.529.21.42-.3.76-.044.936.026.5-.062.5-.1.624-.254.76-.167.515-.217.517-.21.434-.111.419.012.341.1.882.186,1.071.062.624-.05.19.13.068.266.542.032,1.262.03.407-.3.677-.352.407-.365.395-.235.489-.055.717-.179.489-.345.231-.31.108-.278.068-.248.245-.191.541.21.122.247.163.384.122.365.271.3.434.086.448.007.46-.043.515-.247,1.113-.13.582-.068.843-.142,1.614.05.867-.193.488-.172,2.076-.531.814-.112.542-.365.543-.278.529-.068.664-.038.732-.321,1.06-.08.542-.08,1.262-.273.622-.012,2.172-.3,1.559-.037,2.428-.025,1.018-.025,1.111.21,1.153.321,1.574.322.719.181.583.179.693.253.5.136.639.005.584-.123.935-.01.054.612v.284l-.257.278-.231.148-.109.427.46.347.625.47.271.625-.325.383-.055,1.181-.013.5.04.691.286.236.176.21-.217,1.161-.2.155-.746-.056-.745-.03-1.329-.266-.353-.285-.2-.655-.149-.674-.5-1.013-.1-.631-.04-.594-.042-.421-.407-.42-1.044-.5-.746-.135-.448-.119-.786-.222-.6.038-.38.351-.3.464-.367.519.258.254.1.2.109.514-.122.4-.244.265-.2.327-.217.118-.122-.2-.149-.372-.476-.092-1.193-.031-.257.439-1.587-.007-.068.723.068.384.461.631.2.494-.314,1.07-.3,2.3.42.038.351-.019.339.049.272.211.529.019,1.424.007.406.036.191.353.379.031.556-.014.544-.049.854.08.406.556.991.26.027.309.081.545-.081.568-.366.687.068.928.122.784.177.625.421,1.069.2.544.284.384.312.278.339.025.705-.117.164.334-.367.5-.067.334.013.556.108.321.272.051.582-.056.923-.087.053.921-.095.42-.244.266-.15.285.013.6.122.148.448.155.34-.13.229-.909.163-.359.326-.277.257-.012-.123.481.014.489-.164.73-.366.241.04.365-.094.6-.3.835-.243.642-.339,1.082-.15.531-.068.426-.108.254-.42.278-.528-.166-.462-.37-.082,2.8.326.353.109.242-.163.4-.991.6,1.166.328.651.129,1.33.5.84.358.882.266.7.3.393.11.571.031.638.26v.321l-.529.525-.963.742-.232.539-.189.624-.081,1.348.027,1.687-.421.7v2.992l-.068,1.354-.284.05-.787-.05.027,1.015-.108,1.057.123.859.338.712-.081,1.811-.285.748-.433.724-.136.358-.217.711-.042.612.217.36.109.822-.026.556-.245.42.136.606.474.853-.244.89-.462.928-.095,1.749-.2.55-.34,1.237-.557.982-.325.582-.325.476.583.215.122,1.484.054,1.088.271.068.312.007.163.309-.434.259-.326.427-.257.624-.3,1.032-.462.094-.474.21-.366.488-.2.827-.352,1.063-.162.594-.271,1.273-.353,1.093-.285.73-.217.693.04.643-.434.247-.664.161-.067.364.027.674.312.415.014,1.391-.462.483-.245.29.069.321.189.228.3.137.554.142.462.235.611.345.054.47.027.34-.285.7.054,3.7.8.049.663.1.584.191.475.08.731.106.571.2.394.5v.692l.041.618-.137.242-.284.117-.38.124-.434.21-.557.433.148.111.516.321-.108,1.23-.2.3-.312.384-.027.389h.7l.611-.007" transform="translate(-1634.12 -578.224)"  stroke="#fff" stroke-linecap="square" stroke-linejoin="bevel" stroke-width="1" fill-rule="evenodd"/>
      <text id="238" title="Telhara" transform="translate(16.119 51.23)" fill="#fff" font-size="13"  font-family="OpenSans-Bold, Open Sans" font-weight="700"><tspan x="0" y="0"></tspan></text>
    </g>
    <g id="_233_Akot" data-name="233 Akot" transform="translate(1955.082 394.358)">
      <path id="talId233" fill="#7DB8EC" title="Akot Taluka" data-name="Akot" d="M1677.708,679.065l-.611.007h-.706l.027-.389.313-.385.2-.3.109-1.23-.515-.321-.149-.112.556-.432.434-.21.38-.123.285-.117.136-.242-.041-.619V673.9l-.393-.5-.571-.2-.733-.106-.473-.08-.584-.191-.666-.1-.8-.049-.054-3.7.285-.7-.027-.34-.055-.469-.61-.346-.461-.234-.557-.143-.3-.137-.191-.228-.068-.321.244-.29.46-.483-.013-1.39-.312-.415-.027-.674.069-.364.663-.161.435-.247-.042-.643.217-.693.286-.73.353-1.093.271-1.274.163-.594.352-1.064.2-.827.366-.488.475-.21.46-.094.3-1.032.258-.624.326-.427.435-.259-.164-.309-.311-.007-.272-.067-.054-1.088-.122-1.484-.583-.215.325-.477.325-.582.556-.982.339-1.237.2-.549.1-1.751.46-.928.245-.89-.475-.853-.135-.606.244-.421.027-.556-.108-.823-.218-.359.041-.612.217-.711.134-.358.435-.723.285-.748.081-1.811-.339-.712-.122-.859.109-1.057-.026-1.015.785.05.286-.05.067-1.354v-2.992l.42-.7-.027-1.687.083-1.349.189-.623.23-.539.964-.742.528-.525v-.322l-.637-.259-.57-.031-.393-.111-.705-.3-.883-.266-.839-.358-1.329-.5-.652-.129-1.167-.328.99-.6.163-.4-.109-.241-.324-.353.08-2.8.461.37.529.167.421-.278.108-.254.068-.425.149-.532.339-1.083.244-.643.3-.834.1-.6-.04-.365.366-.242.163-.73-.015-.488.123-.481-.257.012-.326.278-.163.359-.23.909-.338.13-.447-.155-.122-.148-.014-.6.148-.285.245-.266.095-.42-.053-.921-.923.087-.584.056-.27-.05-.109-.322-.013-.555.068-.334.365-.5-.163-.334-.7.116-.339-.025-.312-.278-.285-.384-.2-.544-.42-1.069-.177-.625-.122-.784-.067-.928.366-.687.081-.567-.081-.545-.027-.309-.989-.26-.408-.556-.855-.08-.541.049-.557.014-.38-.031-.19-.353-.407-.037-1.423-.007-.53-.019-.271-.211-.34-.049-.353.019-.42-.038.3-2.3.311-1.07-.2-.494-.461-.63-.069-.384.069-.723,1.588.007.257-.44,1.193.031.475.092.149.371.122.2.218-.118.2-.327.245-.266.123-.4-.109-.514-.095-.2-.258-.254.366-.519.3-.465.381-.351.6-.037.787.222.446.118.747.136,1.043.5.408.42.042.421.039.594.1.63.5,1.014.149.674.2.655.353.285,1.329.266.747.03.745.056.2-.155.215-1.16-.175-.21-.285-.236-.041-.692.014-.5.053-1.181.327-.382-.272-.625-.624-.47-.461-.346.109-.427.23-.148.258-.278v-.284l-.054-.612.258,0,.719-.37.434-.242.285-.019.366.094.366.092.326-.1.04-.3-.23-.333.148-.285.449.217.57.271.489.191,1.41.464.23-.265.027-.353.19-.111.516.106.53.191.8.266.732.277.34.111.516.142.338.056.218-.167.041-.16.054-1.595.732-.062.76.036.245-.141.176-.94.392-.161.109-.346-.027-.477-.229-.58-.014-.866-.15-.514-.339-.556.068-.982.19-.637.014-.687.19-1.557.826-.55.557-.211.529-.488.108-.7.094-.438.1-.167.665.049.434.173.624.143.243.012.244-.261.164-.45.624-1.663.135-.347.786-.271.734-.377.569-.278.95.3.528.309.963.377.38.1.963.334.3.2.216.638.272.692.31.563.218.9.3.241,1.194.142.637-.2.5.2.284.643.245.841.394.57.447.426.257.273.544.691.216.378.311-.074.19-.129.407-.087.461-.087.435-.043.3.032.366.031.421.222.353.458.188.364.1.291.191.161.283-.012.312-.317.312-.191.285-.229.258-.29.122-.186.1-.185.122-.308.026-.118.556.031.447-.211.407-.365.286-.3.216-.2.461-.025.557.13.272.346.38.291.366.13.393.087.407.068.475.148.42.253.325.247.679.347.446.086.8-.012.487-.085.38-.038.258-.068.163-.254.081-.382.094-.471.19-.315.379-.1.678.006.53.043.271.167.272.44.148.174.339.247.421.13.422.005.365-.185.38-.321.3-.179.42-.184.759-.162.367-.136.366-.34.271-.179.462-.123.434-.106.6-.111.38-.155.2-.339.176-.4.23-.421.23-.29.408-.365.474-.266.7-.092.544-.019h.433l.311-.019.421-.074.394-.125.339-.469.082-.525-.014-.867.135-.407.177-.291.381-.043.406.112.557.154,1.288.475.76.26.476-.007.6-.155.544-.029.569-.012,1.1.1.556.811-.054.458-.082.5-.27.717-.055,1.279-.923.261-.935.321-.773.235-.84.148-.366.111-.258.167-.149.142-.135.266-.014.186.04.179.136.278.177.389.366.4.094.4-.04.3-.068.285-.122.135-.068.186-.109.278v.211l.068.2.068.2-.34,1.273.992.111.6.1.2.179.245.495.23.865.067.482-.027.246-.284.031-.325.038-.326.253-.366.693-.149.39-.081.575.04.328-.04.334-.407-.026-.407-.085-.326-.062-.313-.031-.3.087-.149.247-.039.253-.028.353-.014.3-.1.2-.312.063-.38.006-.462.019-.284.111-.094.111-.042,1.218.042.551-.027.112-.082.612-.434,1.081-.272.749-.272.4-.163.445-.244.512.3.186.447.031.393.1.434.149.217.148v.364l-.217.718-.148.674-.041.816-.1.426-.162.526-.162.631-.314.94-.447.723-.381.111h-.337l-.054.532.067.247.65.038.475-.019.449-.012.313-.012.027.309-.244.588-.178.464-.257.958-.028.291.68.031,1.885.118.651.018.352.167.367.2h.733l1.112.068.841-.186.46-.266.693-.061.434-.112.243-.334.123-.462.014-.266.976-.026-.041.8-.027.921.068.989-.1,2.825-.583.019-.8.049-.8-.049h-.718l-.53.049-.393.162-.448.167-.272.123-.609.191-1.019.024-.486-.018-.3.049.055.625.149,1.971.014.662-.136.5-.313.464-.04,2.4-.027.791.162.4.191.309.854.7.217.254-.054.278.108.636.177.087.244.347-.327.438-.094.254.04.186.081.172.122.631-.325.662-.1.52v.358l.041.3.082.217.027.3-.3.193-.422.037-.271-.044-.244-.037-.19-.186-.3-.309-.326-.13-.272-.012-.378.062-.978.167-.733.075-.827-.038-.8.019-1.22.174-.176.394-.122.427v.413l.027.39.23.415.257.377.2.791-.1.469-.176.42-.108.5.013,1.447.15,1.063-.177.829-.014,1.088-.2,1.373v.871l-.013.4.082.247.719.229.569.179.366.092.557.137.312.116.393.193.162.519.042.543.432.149.5.111.423.143.472.167.327.092,1.261.353-.217,1.088-.136.76-.1.537-.013,1.682-.285-.024-.258.179-.029.357-.867,2.318-.041.421.055.3.243.309.109.241-.109,2.441-.922.075-1.817.043-2.62-.149-2.046-.044-2.334.081-.081,1.224-.081,2.93.38.291.487.259,1.073.062.963.005.91.036.729.056.489.2,1.1.13.773.017.515.007.488.018-.989,1.515-.8,1.2-.3,1.032-.366,2.559-.245.587-.461.8-.284.829-.5,1.385-.161,1.15-.231,1.707-.271,1.076-.109.414-.041.451-.122.279-.528-.136-.353-.137-.515-.068-.407.024.026.625.055.346-.218.21-.542.031-1.492-.1-.624-.154-.515-.18-1.614-.017-.122,1.9-4.26.094-.15.636-1.8.026v.179l-.055.686-.122.365-.257.1-.448-.116-.366-.452-.977-.043-.108,1.491-.123.246-.176.174-.19.3.149.408.353-.024.5.111.529.259.6.106.259.247-.014,2.219-.08.5-.68.784-.325.829-2.712-.087-.1,1.583-2.509.019-.42-.031-.5-.037-.6-.167-.434-.217-.72-.222-1.261-.049-1.411-.075-.027.266.053.52.231.309.027,2.812-.027,1.281-.312.766-.027,1.608v.795l-.611-.022h-.175l-.3.064-.23.13-.19.321-.285.3-.259.241-.473.355-.72.5-.434.293-.42.3-.272.193-.271.126-.27.044-.354-.075-.3-.2-.231-.219-.271-.231-.258-.044-.406.012-.584.182-.149.013-.244-.108-.325-.183-.394-.241-.272-.136-.257-.235-.217-.417-.625-1.144-.244-.291-.718-.463-.584.007-.324.049-.584.352-.609.513-.394.21-.366.185-.408.179-.15-.037-.269-.4-.136-.494-.122-.371-.109-.439-.041-.42.054-.47-.013-.395-.326-.3-.257.026-.353.278-.325.278-.353.3-.366.191-.5-.042-.353-.384-.177-.9.149-.464.2-.321.245-.365.177-.254.081-.4-.054-.3-.3-.348-.473-.056-.529.118-.434.327-.191-.151-.447-.543-.163-.542-.15-.606-.135-1.109-.042-.269-.054-.352-.054-.479-.026-.618.026-.4.081-.244.176-.445.136-.408.082-.1.012-.176-.121-.215-.339-.247-.57-.136-.352-.09-.964.235-.5.049-.326.09-.19.2-.163.358.217.428.08.148.163.222.11.2-.069.31-.163.089-.135.019-.2-.022-.367-.084-.434-.059-.351.031-.2.142-.108.139-.34.239-.34.14-1.586-.063-.652.027-.392.068-.38.245" transform="translate(-1666.3 -567.423)"  stroke="#fff" stroke-linecap="square" stroke-linejoin="bevel" stroke-width="1" fill-rule="evenodd"/>
      <text id="233" title="Akot" transform="translate(31.291 62.739)" fill="#fff" font-size="13"  font-family="OpenSans-Bold, Open Sans" font-weight="700"><tspan x="0" y="0"></tspan></text>
    </g>
    <g id="_232_Akola" data-name="232 Akola" transform="translate(1945.409 495.011)">
      <path id="talId232" fill="#7DB8EC" title="Akola Taluka" data-name="Akola" d="M1667.1,752.953l1.655-1.651,1.6-1.4.571-.841.623-.94.706-1.434v-.507l-.637-.087-.976.062-.354-.21-.189-.433-.338-.4-.177-.766,2.225.1-.285-3.35-.325-.062-1.8-.211-1.235-.309-1.261-.085-1.913.259-1.288.074-.5.235-1.316.235-.732-.1-.924-.667-.161-.8-.326-.692-.094-1.088.136-1.868.609-1.6.3-1.211.57-1,.367-1.138.677-1.372.284-.778,1.981.161v1.347l-.177.853-.136.532-.135.817v.235l3.08-.124,1.206-.149,1.3-.124,1.138-.1,1.044.124.2-.9.475-.594.91-.049.555-.148,1.262-2.523.718-2.151.435-1.867.353-1.88.3-1.027.271-1.446-.76-.384-1.559-.469-.76-.3-.883-.37-.216-.2.285-1.127,1.111-.938.421-.57,5.182-.061.584-2.523.067-3.35.435-3.214-.109-2.4-2.239-.63-2.55-.47-2.116-.235-2.767-.841-.964-.643-.543-.222-.339-.656-3.092-.8-4.137-1.013-2.4-.345-.664-.012-.028-.953.313-.977.285-.631.379-.581.123-.506.475-2.733.665-.42.272-.469.19-1.027.378-.865.028-1.261,5.832.086.706-.556-.285-8.087-.285-.839.041-1.175-.1-.582-.258-.557-.122-.754-1.112-.148-.883.16-.962.247-.474.038v-1.5l.42-1.175-.094-2.844.461-1.5.257-3-.718-.358-.706-.569-.8-.161-1.085-.346-1.017-.111-1.1-.273-.5-.186.149-1.915.487-1.484.5-.556.951-.063.988.21,1.505.334,1.25.075,1.681.061,1.615-.086.5-1.336-.232-6.021.353-.5.1-.4.163-.242.515-.031.882.1.664.082.705.061.474.167.286.155.5.638.2.568.123.4.176.359.176.208.326.1.325-.024.272-.2.23-.4.149-.3.231-.506.108-.347.34-.3.528.371.3.464.259.5-.15.427-.231.29.014.5.2.4.42.383.339.05.556-.292.2-.228.746-.594.569-.037.177-.353.109-.593v-.539l-.055-.358-.15-.106.38-.244.394-.068.649-.027,1.588.064.338-.141.34-.239.108-.138.2-.143.352-.031.434.059.366.085.2.021.135-.019.163-.089.068-.309-.109-.2-.163-.222-.081-.148-.217-.427.163-.359.19-.2.326-.091.5-.049.962-.234.353.089.571.136.339.247.121.214-.014.176-.082.1-.135.408-.176.445-.082.244-.027.4.027.619.055.478.054.353.042.268.135,1.11.15.606.163.541.446.544.19.151.435-.327.529-.117.473.055.3.347.054.295-.082.4-.176.254-.244.364-.2.321-.149.464.175.9.353.383.5.042.366-.191.352-.3.325-.278.353-.278.257-.026.326.3.015.395-.055.47.04.421.109.438.122.372.136.493.272.4.149.037.408-.179.365-.186.393-.21.611-.513.583-.353.325-.049.585-.007.719.464.244.291.623,1.143.218.418.257.235.271.136.394.241.324.183.245.107.148-.012.583-.182.408-.012.257.043.27.232.231.218.3.2.353.075.271-.043.271-.126.27-.192.421-.3.434-.293.72-.5.474-.356.258-.241.285-.3.189-.322.232-.13.3-.064h.177l.609.022V660.9l.027-1.607.313-.766.028-1.281-.028-2.811-.23-.31-.054-.519.027-.266,1.411.075,1.261.049.719.222.433.217.6.167.5.037.421.031,2.509-.019.094-1.583,2.713.087.326-.829.677-.784.081-.5.013-2.219-.257-.247-.6-.106-.529-.259-.5-.111-.353.025-.149-.408.188-.3.177-.173.122-.247.109-1.491.977.043.366.452.446.116.259-.1.122-.364.054-.687v-.179l1.8-.026.149-.636,4.259-.093.123-1.9,1.614.017.514.181.624.154,1.492.1-.04,1.125-.122,2.583.014,2.893.419.193.313.185.1.3-.163.34-.258.78-.122,1.569-.285,1.261.041.866v.489l-.393.031-.421.185.054,1.02.068.976-.122.94-.218.661-.326.81-.215.411.257.149.367.136.3.145.3.152.3.214.245.074.257-.04.19-.087.2-.107.23-.181.272-.189.312-.191.312-.071.542.08.516.126.475.118.665.14.433.1.258.115.1.228v.26l.054.163.19.15.3,0,.286-.1.244-.089.2-.109.339-.312.148-.176.014-.1-.027-.2-.068-.157-.123-.145-.258-.383-.069-.121-.08-.163-.067-.288.054-.519.135-.3.19-.21.23-.154.245-.083.366-.062.245.068.189.155.2.272.026.257.082.37.148.578.23.406.435.234.515.259.244.087.272.137.214.123.245.143.041.188-.015.268-.054.17-.162.355-.176.377-.014.3.027.2.135.135.162.053.612.2.9.143.352.278.6.377.34.179.367.032.311-.06.718-.265.815-.457.637-.251.473-.092.571-.071.759-.06.733.162.6.191.475.242.528.269.516.17.394.093.2.176.326.244.242.17.2.034.217-.059.434,1,.2,1.694.312,2.177.407.982.04,4.352.2.285.34.055.678.049.488-.037.528-.05.191-.358-.055-.631-.027-.581.15-.545.284.05.313.5.637.019,1.465.353.84.179,1.1.037.028.989.367.179.419.057.487.264h1.019l.718.379-.1,3.022,2.414.155.652-.037,1.1.358-.055,1.817.435.285.408.136.094.674.325.6.121.532,2.957-.012.136-2.288.665-.389.638-.037,1.274.068.76-.21,1.18-.2,1.316-.766.787-.551,1.1-.68.475-.321.434-.36.338-.1.571-.068.583.1.624.409.325.234.109.372-.1.278-.23.315-.408.278-.406.439-.936,1.373-.624.742-.569.8v1.383l.2.193.271.2.379-.031.325-.247.49-.16.447.018.5.118.421.327.231.495-.1.711-.773.976-.459.415.039.253.271.241.149.384-.082.334-.271.2-.651-.024-1.343-.106-.542.451-.448.477-.393.568-.514-.16-.842-.291-.827-.327-1.141-.365-1.6-.358-.543-.285-1.587-.5-1.519-.012-.353.222-.244.681-.176,1-.326,1.076-.068.495-.488.711.313.544,3.513.111.8.315.516.106.651.278.868.143.868.426.42.21.2.377-.353.4-.515.075-1.438-.036-.692-.321-.366.421-5.249-.031.136.494.109.476.636.792.135.588.123.389.176.581.163.118.352.067.421.123.732.594.448.148.909.4.5.335-.1.438-.773.384-.366.278-.163.636-.027,1,.286.512.5.285.231.2-.014.242-.19.277-.094.186.108.44.177.222.407.321.42.173.638.012.136.2-.435.358-.23.321.136.365.244.464.691.989.6.612.814.185.841-.031.326-.365.584-.24.136,2.145-.462.519-.027,2.306-.5.358.151.86.23.049.692.136.624.235,1,.426,1.41.514,1.818.754.827.439.827.217.094.42v.568l-.365.55-.013,1.014-.3.606-.623.747v3.536l-.2.594-.053,2.263-.258.012-1.017.025-.475.346-.42.069-.868-.038-.6.248-.813.45-1.031.742-1.276.921-1.953-.123-.15.4-.162.4-.244.5-.841.977-.325.314-.624.471-.571.358-.366.469.529.544.286.007.476.048.352.335,1.193.822,1.885.4.528.378.381.234.433.185.665.235.76.05.922-.026-.04-.994.284-.3.3-.346.218-.316.351-.686.149-.841,2.2-.055.6.229.6.3.026.508-.095,1.193-.285.605-.053.352-.123.675-.149.463-.109.952-.313.791-.013,3.449.027.118.136.2.339.34.434.377.691.476,1.127.788.284.307.638.46,1.152.655.474.331.272.282.217.231.122.146.38.566-1.071.092-1.248-.2-2.022.433-.582-.346-.57-.358h-.517l-.827.333-.609.494-.5.47-.638.407-.881.483-.489.5-.651.42-.691-.026-1.019-.3-1.111-.792-2.4-1.1-1.274-.162-.733-.259-1.18-.087-1.045-.16-.99-.173-.421-.4-1.382-1.668-.706-1.015-.326-.89-.2-.829.067-.433.163-.778.109-.952-.1-1.5-.259-1.761.028-.885-.379-.66-1.629-1.213-1.547-.728-.867-.674-.68-1.076-.23-.408-.121-.254-.083-.34v-.3l.083-.341.189-.246.286-.174.609-.012v-1.119l.082-.464.163-.413.055-.459-.069-.4-.149-.223-.326-.2-.365-.043-.354-.092-.272-.3-.014-.457.151-.186.244-.167.095-.3-.013-.241-.055-.31.122-.315.244-.167.407-.136.284-.148.109-.309-.109-.179-.366-.167-.149-.242v-.3l.231-.94-.028-.618-.963-.223-1.166-.123-1.8-.3-1.884-.346-.462,1.039-.177,1.088-.2,2-.162,2.25-.677,2.671.027.791.5.841.461.717.177.742-.488.766-.691.914.122,1.237-.231,1.014-.935.471-1.56.37-1.736.247-.855.371-1.518,1.236-1.207-.222-1.086-.124-1.464-.247-1.18-.321-1.831-.346-2.252.024-.543,1.286-.719.989-1.315.471-1.125-.2-.325-.742.121-1.88-.882-3.091-.23-.339-.175-.476.229-.44.395-.284.447-.284.542-.3.787-.469.407-1.187.23-.792-.109-.166-.556-.377.028-.34v-.383l.163-.333.271-.4-.5-.414.231-.322.175-.285.042-.223.027-.445.054-.483-.258-.513-1.776-.08-.517.013-.515-.087-.407-.259h-.882l-.122-1.924.027-3.239h-2.277l-.353.2-.3.358-.176.611-.176.292-.421.042-.421-.142-1.356-.074-.447-.4-.312-.192-.394-.433-.135-.561-.651.148-.854.568-.652.5-.677.6.243,1.855-.555.631h-.814l-.624-.032-.514.068-.394.235-.162.254-.3.26-.678.123-.366.619-.026.648-.15.679-.312.372-.421.3-.9-.16-1.384-.36-.447-.049-.637-.2-.652-.241-.866-.217-.571.094-.42.315-.678.413-1.411-.284-.556-.142-.989-.235-.815-.155-.962-.13-.87-.247-1.573-.1-.949-.019-.815-.1-.583-.272-.392-.563-.788-.217-.054,1.428-.326.761-.19,2.869-.366.446.081,2.744.285.154.067,1.082-.026.452-.339.488-.285-.019-.406-.056-.747-.005-.516.413-.054,1.044.054.421-.149.234-.229.174-.381.432-.122.612-.026.179-.272.248-.312.166-.379.26-.2.464-.379.8-.245.291-.339.16-.638.044-1.044-.08-.773-.266-2.536-.031-1.534-.056-.407,1.032.135.242.271.254.3.124.177.754-.53,1.267-.122.223-.216.353-.069.959.434.612.04.191v.4l-.271.587-.216.5.109.371.379.513v.964l-.094.161-.27.242-.394.2h-.516l-.882-.085-.908-.043-.8.135-.541.019.108.493.243.539.122.525.245.736.434.957.163.81.339.551v.909l-.339.76-.041.971-.081,2.318-.23.636-.164.922-.326,1.26-.148,1.619-.244,1.2-.272.024-.433.278-.543.352-.569.235-.706.043-1.06-.062-.5-.413-1.317-.334-.6-.261-.462-.389-.72-.254-.786-.3-.543-.253-.732-.593-.773-1.064-.868-1.273-.543-1.421-.5-.785-.828-.631-1.071-1.07-.936-.735-.9-.2-.312-.341-.067-3.64" transform="translate(-1659.33 -641.597)"  stroke="#fff" stroke-linecap="square" stroke-linejoin="bevel" stroke-width="1" fill-rule="evenodd"/>
      <text id="232" title="Akola"  data-name="Akola" transform="translate(44.964 52.085)" fill="#fff" font-size="13"  font-family="OpenSans-Bold, Open Sans" font-weight="700"><tspan x="0" y="0"></tspan></text>
    </g>
    <g id="_235_Barshitakli" data-name="235 Barshitakli" transform="translate(1969.288 573.599)">
      <path id="talId235" fill="#7DB8EC" title="Barshitakli Taluka" data-name="Barshitakli" d="M1676.9,745.43l.245-1.2.149-1.619.325-1.261.163-.922.231-.636.081-2.318.041-.972.338-.759v-.909l-.338-.551-.163-.81-.434-.958-.244-.736-.123-.525-.244-.539-.108-.494.543-.019.8-.135.908.043.882.085h.514l.394-.2.271-.241.1-.162v-.965l-.379-.512-.109-.371.217-.5.272-.587v-.4l-.04-.191-.435-.612.069-.959.217-.352.123-.223.529-1.267-.177-.754-.3-.123-.271-.254-.135-.241.407-1.032,1.532.056,2.538.031.771.265,1.045.08.636-.044.34-.16.244-.292.38-.8.2-.464.381-.259.31-.166.271-.249.027-.179.123-.612.38-.433.23-.173.149-.234-.054-.42.054-1.045.516-.413.747.005.406.055.286.019.339-.488.026-.452-.067-1.083-.284-.154-.082-2.744.366-.444.19-2.869.325-.761.054-1.429.788.217.393.563.584.272.813.1.95.019,1.574.1.866.247.964.13.813.155.991.234.556.142,1.41.284.678-.413.421-.315.569-.094.869.217.65.241.639.2.448.049,1.383.359.9.16.42-.3.312-.372.148-.679.028-.648.365-.619.679-.123.3-.261.164-.253.394-.235.515-.068.624.031h.814l.556-.631-.244-1.854.677-.6.652-.5.855-.569.651-.148.135.562.394.432.312.193.449.4,1.356.075.42.141.421-.042.175-.292.177-.612.3-.358.353-.2h2.279l-.027,3.24.123,1.923h.88l.408.259.516.086.516-.012,1.776.08.258.513-.055.483-.026.445-.042.222-.175.285-.23.322.5.414-.272.4-.163.334v.382l-.028.34.558.377.107.166-.231.793-.406,1.186-.788.47-.543.3-.447.283-.393.285-.23.439.177.477.231.339.88,3.091-.122,1.88.325.742,1.127.2,1.314-.471.72-.988.54-1.286,2.253-.025,1.832.346,1.18.321,1.465.246,1.085.124,1.208.222,1.518-1.236.855-.371,1.736-.247,1.56-.37.935-.47.23-1.014-.122-1.237.692-.914.489-.766-.176-.741-.462-.718-.5-.841-.027-.791.678-2.671.163-2.25.2-2,.178-1.088.46-1.038,1.886.346,1.8.3,1.167.123.962.222.028.618-.231.94v.3l.149.241.366.167.11.179-.11.309-.284.148-.408.135-.243.167-.122.316.055.309.012.24-.094.3-.244.167-.15.186.014.457.271.3.353.092.367.044.324.2.149.222.069.4-.055.458-.163.414-.081.464v1.119l-.611.013-.284.173-.191.247-.081.341v.3l.081.341.123.254.232.408.677,1.076.868.674,1.546.728,1.627,1.213.38.661-.027.884.258,1.762.1,1.5-.109.952-.163.779-.067.432.2.829.326.89.706,1.014,1.384,1.669.42.4.99.173,1.044.16,1.181.087.732.259,1.275.161,2.4,1.1,1.114.792,1.016.3.692.026.652-.421.487-.495.882-.483.638-.406.5-.472.612-.493.827-.334h.515l.571.358.583.345,2.02-.432,1.249.2,1.072-.092-.286.358-.079.624-.2.853-.2,1.589-.19,1.78-.191,2.82.705.056.394.012.325.179.217.315.042.353-.23.433-.354,1.02-.665,1.4-.148,1.107-.124,1.107-.148,1.131-.014.116.407.348.557.122.677.2.434.1.543.141.963.391.8-.031.421.309.759.092.421.036.719.162.771.216.774.217.6-.162.407-.389.068-.395.013-.575.055-.71.937-.031.365.2.527.228.856-.007h.637l.949.068.393.2.555-.111.393-.346.34-.222.625-.031.447-.012.854.037-.258,1.145-.841,2.763-.583,2.214-.585,1.724-.3.643-.719.415-.176.167-.135,1.347-.082,1.163-.393,1.267-.909.222-1.235.292-.731.2-.707.2-.082-.08-.013-.73.258-.544.082-.235.028-.4v-.37l-.082-.7-.042-1.336-.135-.4-.271-.186-.637-.1-.584-.068-.6-.073-.5.346-.759.012-.476-.037-.718-.07-1.832.032-1.532.222-.991.031-.474-.092-.76-.21-1.289-.087-.787-.118v.631l.027.6-.149.544-.2.415-.189.3-.244.643.623.205.515.11.461.223.747.136.623.179.72.174.637.2.569.334.258.334.394.333.068,1.244-.041.84-.027.359-.313.192-.8-.006-.841-.094-.474-.075-.637.062-.924,1.039-.487.735-.732,1,.217.679.12.452-.027.469-.256,1.107-.042.519-.066.427-.34.179-.829.229-.5-.013-.652-.254-.339-.327-.366-.05-.19.211-.081.365-.246.23-.312.154-.461.092-.474.006-.731.068-.5.433-.395.285-.652.042-.528-.067-.285.043-.284,1.336-.135,1.231-.176,1.371.041,2.071-.027.582-.231.438-.271.428-1.288.556-.665.16-.407.082-.475.123-.38-.043-.393-.174-1.057-.957-.611-1.644-.61-1.28-.461-.81-.366-1.806-.353-.94-.625-1.453-.2-.9.028-.9.094-1.235-.529-.137-.353.087-.285.278-.489.08-.529.038-1.98-.285-.705-.21-.38-.228-.652-.266-.2-.582v-.921l.134-2.337-.976-.2-.705-.193-.623-.005-.87.3-.434.007-.542-.031-.5-.08-.244.315-.259.4-.1.271-.108,2.25-.257,1.274-.366,1.02-.177,2.257-.882-.031-.6.094-.487.191-.515-.012-1.152-.261-.517.291-.407.217-.366.173-.27-.352-.2-.415-.3-.389-.421-.2-.556-.092-.787-.081-.718-.018-.6.018-.176.13-.557.445-.366.186-.406.056-.87.024-.2.452-.067.556-.123.575-.516,1.545-.068.742v.9l.57.129.433.075.434.149.313.29.108.346.218,1.138-.042.445.408-.024.406-.2.488-.013.312.044.191.278-.069.488-.162,1.514-.2.927-.27.687-.2.495-.609,1.206-.692.914-.665.365-.339.488-.229.321-.366.235-.38.178-.462.069-.528-.074-.448-.068-.257-.149-.435-.321-.962-.061-.719.266-.733.049-.651.068-.6-.049-2.021-.068-.6-.068-.271.012-.135.191-.081.334.041.285.163.389.135.358-.081.452-.1.384-.149.284-.422.254-1.085.976-.365.606-.15.619-.068.581-.095.208-.175.13-.273.063-.229,0-.2-.065-.2-.152-.177-.148-.147-.251-.082-.259-.394-.458-.176-.356.094-.321-.014-.371-.012-.239-.055-.284-.217-.3-.272-.055-.271.015-.217.056-.337-.031.041-.359.122-1.421.067-.711-.027-.761-.459.328-.314.2-.326.2h-.732l-.3-.13-.5-.464-.869-.883-.109-.657.068-.37.027-.476v-.551l-.473.248-.476.117-.284-.073-.325-.248-.76-.556-1.045.2-.407.2-.366-.085-.258-.476-.2-.471-.2-.31-.326-.16-.732-.254-1.071-.242-.556-.148-.421-.106-.229.031-.068.217.039.383.149.42.162.4.027.582-.109.822-.027,1.162-.121.544-.475.977-.42.958-.517.853-.73.3-.611.217-.937.111-1.7-.111-1,.111-1.153.241-.9.068-1,.216-.541.118-.191.42-.068.414-.339.031-.38-.205-.543-.394-.379-.372-.244-.092h-.2l-.706-.1.339-.841.272-.674.284-.357.556-1.6.081-.712-.027-.544-.08-.55-.15-.8-.5-1.23-.352-.551-.15-.488-.013-.285.23-.834.217-.94.529-.748,1.438-1.107.476-1.46.69-.909.177-1.013-.1-.909-.163-.341-.718-.166-.665-.2-1.777-.291-1.682-.271-1.465-.284-2.184-.2-.991-.061-.609.117-.394.143-.271.229-.652-.42-.636-.242-.421-.019-.312-.111-.244-.1-.191-.056-.135-.184-.149-.9-.245-.309-.134-.452-.068-1.032-.054-.513-.244-.594-.163-.383-.258-.538.054-.315.312-.668-.026-.532-.2-.475-.216-.427-.192-.421-.325-.241-.434.044-.3.123-.3.155-.2.068-.162.013-.311-.106-.435-.537-.123-.6-.013-.612.135-.45.177-.322.122-.261.041-.185-.176-.309-.177-.537-.04-.483V752.9l.285-.889.406-.773.162-.47-.175-.372-.367-.474-.583-.2-.27-.186-.5-.222-.394-.408-.461-.384-.732-.191-.652-.031-.515.026-.231-.013-.23-.092-.868-.458-.909-.624-.57-.223-.529-.45-1.167-.515-.542-.457-.231-.061" transform="translate(-1676.82 -699.43)"  stroke="#fff" stroke-linecap="square" stroke-linejoin="bevel" stroke-width="1" fill-rule="evenodd"/>
      <text id="235" title="Barshitakli" transform="translate(36.085 42.498)" fill="#fff" font-size="13"  font-family="OpenSans-Bold, Open Sans" font-weight="700"><tspan x="0" y="0"></tspan></text>
    </g>
    <g id="_236_Murtajapur" data-name="236 Murtajapur" transform="translate(2039.412 508.009)">
      <path id="talId236" fill="#7DB8EC" title="Murtajapur Taluka" data-name="Murtajapur" d="M1728.58,660.832l.244-.111.149-.226.135-.243.163-.57.176-.786.136-.407.137-.241.161-.189.244-.139.652-.077.611-.04.393.008.162.069.244.173.191.164.2.309.176.152.109.018.284-.123.842-.176.842-.031.515-.015,1.112.125.461.3.677.412.462.29.407.083.367-.073.135-.117.367-.315.433-.35.136-.092.311.067.2.195.313.251.285.3.312.249.053.284-.066.232-.069.3-.121.312-.027.165.108.3.325.28.3.278.3.059.272-.043.175-.075.135-.142.136-.237.109-.229.136-.25.137-.214.052-.216.6-.287.5-.4.449-.368.392-.106.326-.022.285.072.23.1.367.305.285.276.231.106.311.08.38.089.3.087.407.123.258.216.27.294.15.167.244.293.2.149.312.077.326-.028.23-.146.122-.222.1-.2.04-.23.081-.565.326-.061.2.027.163.083.325.213.5.188.448.009.446-.05.354-.064.257-.094.258-.031.176.048.313.114.27-.022.8-.247.367-.275.272-.232.339-.355.163-.174.258-.012.284.012.326-.053.19-.151.082-.234-.041-.474.041-.266.135-.161.176-.046.176.082.19.167.136.188.216.225.19.2.191.06.258.337-.191.348.014.285.285.086.19-.223.1-.244.34-.271.326-.08.433-.013.421.1.121.22.1.4v.254l.082.336.067.174.176.17.977.294.543.2.312.162.245.241.081.189.109.232.23.333.325.047.232-.037.243-.126.2-.159.313-.126.19.031.271.114.15.169.148.174.285.18.189.021.232-.078.217-.077.5-.392.338-.433.339-.319.584-.306.6-.006.394.01.651-.012,1.045-.026.719.183.353.1.693.128.5.15.312.111.109.167.231.44.176.189.2.13.421.107.42.039.61-.138.57-.138.529-.072.257-.037.3-.138.136-.142.34-.387.257-.133.611.031.258.244.08.3.217.537.136.353.38.191.38-.024.325.029.164-.133.094-.285v-.3l.1-.283.175-.132.638-.392.393-.2.258-.032.312.084.218.092.325.109.406.024.244-.121.109-.191.679.17.718.124.189.432.109.329.691.031.746-.038.353-.012.474-.389.245-.273.515-.363.42-.3.259-.249.188.137.1.222.191.092.19.024.46.074.23.124.191.155.135.08.285-.067.041.415.1.358.284.006.312-.031.3-.2.054-.45-.081-.576.162-.507.041-.551.149-.828.122-.248.353.075.515.179.217.167.149.229.637.111.461-.087.421-.223.651-.667.407-.476.393-.185.366-.179.231-.16.2-.372.379-.958.217-.178.163-.253.04-.244v-.3l.067-.286.15-.118.257.044h.163l.232-.065.055-.213-.122-.266-.437-.355-.188-.189-.081-.232.054-.217.244-.087.163-.005.2-.016.27-.012.178-.09.135-.176.2-.365-.136-.188-.231-.114-.189-.09-.054-.154.094-.189.245-.355.312-.2.174-.229.233-.216.23-.186.177-.027.134.1.15.124-.027.225-.107.135-.177.14-.082.235.121.166.258.2.244.111.245-.128.122-.3.067-.183.3-.119.123.1.258.152.217.145.3.115.2-.017.231-.089.137-.071.148-.14-.04-.213-.163-.1-.108-.077-.068-.122-.069-.127v-.065l.082-.068.312-.019.434.07.392.043.258.031-.082.531-.324,1.67-.326,1.112-.176.86-.053.421-.163.784.014.217.2.012,2.2-.242,1.385.087,1.084.259,1.4.377.3.421.108.321.476.328.76.266.65.044.543.37,1.817.277.734.353.093.322.639.155.623.074.489.056.325-.433.543.068.353.118.027.327.354.3,1.274-.131.2-.389.082-.718.244-.235.584-.075.691-.042.312-.044.5-.253.5-.112h.42l.259.049.365.3.611.018.5.038.15,1.069-.029,1.842.15,3.71.3,1.837-.039.518.093.273.435-.062.367-.124.365-.024.325.019.312.18.151.21-.041.3.366.9.42.408-.015.3.5-.168.406-.1.353.247.232.383.107.569.109.507.38,1.138,1.316.2.746-.012.555.049.326-.018.976.1.487-.094.462-.211.842-.408.42-.185.313-.075.217.08.04.316-.055.377-.067.5v.438l.271.272.625.192.5.2.827.483.462.24.732-.005.8.092.842.1.162,1.687.067.655.163,1.293.081,2.059-.013,1.044.908-.007h.693l.637-.123-.366.964-.27.9.041.619-.421,2.182-.137.345-.068.328.164.871.84.377.313.971-.584,1.552-.99,1.391.04.983-.3,1.422-.652,5.941-1.464-.549-.569-.3-.747-.16-.7-.193-.61-.068-.367-.154-.284-.216-.422-.414-.244-.4-.258-.314-.19-.063-.636-.012-2.836-.087-.447.248.04.532.2.544.149.432-.312.309-.662.457-.164.742.055,1.1-.2.779-.325.557-.381.049-.5-.087h-.625l-.419.372-.285.531-.2.421-.353.469-.379.445-.531-.024-.582-.161-.651-.124-.72-.247-.407-.123-.814-.3-.637-.29-1.207.117-1.222.26-.786.192-1.139.024-2.049.284-.963.037-.6.063-.217.266-.245.327-.081.279.217.222.353.013.38-.007.476.019.555.075.3.308,1.031.05.447.006.908.086.462.031.556.767.163.661.068.452.15.518.055.649.108,1.057-1.667.068-1.4.143-1.059.149-1.94.2-.949-.1-.393.056-.081.47.067.383.122.321.312.247.23.372-.027,1.039-.258.692-.285.506-.258.477-.366.742-.46.223-.624.025-.516.007-.163-.063-.2-.433-.122-.432-.2-.749-.38-1.2-.34-.544-.557-.619-.557-.266-.6-.346-.76-.513-.585-.075-.324.068-.258.4-.026.438v.377l-.041.476-.3.73-1.127,1.695-.515.815-.407.483-.53.3-.677.216-1.533-.13-1.274-.154-.679-.1-.5-.4-.38.093-.38.229-.434.081-1.22.017-.2.309-.1.353-.42.173h-.651l-1.113-.125-.488-.284-.583-.007-.882-.1-1.153-.242-.842-.031-.312.284-.188.37-.286.193-.434.123-.448.167-.353,1.057-.271.365-.258.556-.489.544-.488.643-.326.372-.353.234-.052.254.08.309.231.117.555.229.394.043.718.075.666.042.814.087.486.223h.761l.515.068,1.411-.061.529.451.476.477.46.573.814.705.557.817.351.476.475.951.162.471.244.155.34-.019.257-.044.393-.061.421-.081.3.1.271.253.1.36.027.506-.176,1.379-.436.458-.378.191-.516.266-.393.242-.461.464-.286.322-.42.117-.7.044-4.532-.117-.976.043-.367-.28-3.187-.025-1.044.483-.421.278-.514.37-.15.341-.027.426.041.421.284.853.027,1.175.217.575.122.31-.068.346-.149.364-.786.792-1.181.743-1.193.53-.57.421-.609.377-.163.3-.869.266-.584-.235-.76-.142-.841.031-.419.129-.882.118-1.493.191-.882.154-.677.173-.421.124-.6,1.136-.353.984-.19.642-.2.5-.23.377-.245.184-.651-.012-1.545-.309-1.18-.377-.976-.419-1.058-.7-.666-.469-.38-.566-.121-.147-.218-.23-.271-.283-.474-.331-1.154-.655-.636-.46-.285-.306-1.127-.788-.691-.476-.434-.377-.339-.341-.136-.2-.027-.118.014-3.449.311-.791.109-.953.149-.464.123-.674.052-.353.286-.605.094-1.194-.027-.507-.6-.3-.6-.229-2.2.055-.15.841-.353.686-.218.316-.3.346-.284.3.041.994-.924.026-.758-.05-.664-.235-.435-.186-.379-.235-.529-.377-1.886-.4-1.193-.822-.354-.335-.474-.049-.286-.006-.528-.544.366-.47.569-.358.625-.47.325-.315.841-.977.245-.495.163-.4.148-.4,1.954.123,1.274-.921,1.031-.742.814-.45.6-.248.867.038.422-.07.474-.346,1.017-.024.258-.013.053-2.262.2-.595v-3.536l.624-.747.3-.607.014-1.013.365-.551v-.568l-.094-.421-.826-.217-.827-.438-1.818-.755-1.41-.514-1-.426-.622-.234-.692-.137-.232-.049-.149-.86.5-.358.027-2.306.462-.52-.135-2.144-.583.24-.326.365-.84.031-.814-.186-.6-.612-.692-.988-.244-.465-.136-.365.23-.322.435-.358-.136-.2-.638-.012-.42-.172-.406-.321-.176-.223-.109-.439.1-.186.19-.278.014-.242-.231-.2-.5-.285-.284-.513.028-1,.162-.636.366-.278.773-.383.094-.438-.5-.335-.908-.4-.448-.148-.731-.594-.421-.123-.352-.068-.163-.118-.176-.58-.122-.389-.135-.587-.637-.792-.109-.476-.136-.494,5.249.031.366-.42.692.322,1.438.036.516-.074.352-.4-.2-.377-.419-.21-.868-.427-.868-.142-.652-.278-.516-.105-.8-.315-3.514-.111-.311-.544.488-.711.068-.494.326-1.076.176-1,.244-.681.354-.222,1.518.012,1.587.495.543.285,1.6.358,1.138.365.828.327.842.292.513.16.4-.568.447-.476.543-.452,1.342.106.651.024.272-.2.08-.334-.149-.384-.27-.242-.04-.252.459-.415.774-.977.1-.711-.23-.5-.421-.327-.5-.118-.447-.017-.489.16-.325.247-.38.031-.27-.2-.2-.192V679.19l.568-.8.625-.742.936-1.372.407-.44.407-.278.23-.315.1-.278-.108-.371-.326-.235-.625-.409-.583-.1-.57.067-.339.1-.434.36-.473.321-1.1.68-.786.551-1.318.767-1.178.2-.76.21-1.276-.067-.638.036-.663.39-.136,2.288-2.957.012-.122-.531-.324-.6-.1-.675-.407-.135-.434-.284.054-1.818-1.1-.358-.651.037-2.415-.155.095-3.022-.719-.378h-1.017l-.488-.265-.42-.057-.366-.179-.027-.988-1.1-.037-.841-.179-1.465-.352-.637-.019-.312-.5-.285-.05-.148.546.026.58.054.63-.189.358-.529.05-.489.037-.677-.049-.34-.056-.2-.285-.042-4.352-.406-.982-.312-2.177-.2-1.694-.434-1" transform="translate(-1728.58 -651.157)"  stroke="#fff" stroke-linecap="square" stroke-linejoin="bevel" stroke-width="1" fill-rule="evenodd"/>
      <text id="236" title="Murtajapur" transform="translate(41.96 38.088)" fill="#fff" font-size="13"  font-family="OpenSans-Bold, Open Sans" font-weight="700"><tspan x="0" y="0"></tspan></text>
    </g>
  </g>
</svg>
