<svg xmlns="http://www.w3.org/2000/svg" width="416.836" height="300.515" viewBox="0 0 416.836 300.515">
  <g id="Amravati" transform="translate(-1190.365 -1146.741)">
    <g id="_130_Dharni" data-name="130 Dharni" transform="translate(1191.182 1158.175)">
      <path id="talId130" fill="#7DB8EC" data-name="Dharni" d="M1639.448,588.914l-.224-.106-.46-.072-.34.04-.492-.079-.482.065-.257.008-.684-.2-.354-.217-.267-.328-.033-.736v-.775l.033-1.183-.577-1.852-.353-1.17-.011-.487-.375-.288-.524.013-.642.211-.385.618-.236-.223-.684-.605-.546-.46.2-.446.2-.591-.449-.329-.343-.644-.524-1.208-.234-.986.224-.815.534-.407.364-.406.192-.369.257-.617-.065-.5-.449-.263-.353-.2-.288-.473-.128-.921-1.252-.236-.256-.578-.385-.5-.043-.828-.012-1.065-.117-.6-.289-.578-.78-.381-.438-.328-.225-.342-.235-.328-.267-.433-.4-.342-.706.027-.437.315-.3.289-.481.013-.78.04-1.786-.138-.888.02-.716-.24-.845-.374-.4-.151-.578-.112-.5.049-.6.456-.385.365-.77.457-1.346.109-1.828.46-1.881-2.281-.5-.8-.726-1.19-.846-1.018-1.208-1.5-1.154-1.477-1.314-1.939-1.017-1.345-.737-1.111,1.111-.829.866-.751,1.914-1.583,1.3-.892,2.106-1.764,1.2-.853,2.406-1.764,2.309-2.105.739-.682,2.662-1.686,1.764-1.077,2.511-1.438,2.054-1.574,1.571-1.037.9-.43.972-.223.417-.3.214-.219-.031-.283-.172-.151-.064-.3.043-.33.117-.463-.021-.259-.1-.3-.161-.181-.107-.2-.053-.175.075-.195.247-.185.139-.238.107-.264.106-.385-.085-.258-.181-.268-.076-.2.021-.151.065-.317.309-.444.2-.634.247-.462.566-.541.46-.274.406-.17.427-.019.492-.009.107-.517.267-.341.685-.911,1.026-.594.694-.332,1.026-.438,1.165-.332.887-.36.353-.307.9-1.078.3-.555.1-.868.032-.711.064-.8.107-.356.481-.327.362-.121.482-.073.086-.37.021-.444.289-1.121.011-.506-.2-.249-.438-.516-.6-.629-.257-.38-.032-.39.021-.345-.075-.249-.257-.073-.482-.039-.3-.058-.33-.049-.225-.56-.064-.253-.48-.083-.4,0-.491.029-.279-.039-.289-.152-.63-1.29-.535-.9-.62-.882-.193-.37.1-.278.182-.278.289-.36.289-.38.6-.224.4-.152.588-.1.46-.039.385-.025.481-.224.406-.256.406-.278.791-.706.322-.292.182-.331.01-.29-.053-.458-.086-.328-.171-.24-.493-.4-.225-.347-.277-.558-.278-.414-.182-.634-.064-.4-.065-.213-.1-.439.085-.191.022-.123-.193-1.342.385-2.43,1.977-2.222.46-2.787.824-.536,4.361,1.043,3.079.76,1.411-.507.93-.762.47-2.185.332-1.034.727-.833.888-.492.812-.37,3.26.881,2.662,1.8,2.833,1.023,1.3.555,1.176-.692.834-.934.428-1.3,1.165-1.228,1.8-1.388,1.176-1.331,2.128-1.17,1.69-1.13,1.325-1.52,1.154-.975,1.872-.78,2.4-1.072.77-1.481,1.6-.945,1.539-.868.556-1.013,1.914-1.862,1.571-.951,1.475-.51,2.694-1.94,2.321-1.111,3.143-2.174,1.732-.663.791-.292.919-1.234.557-.677.385-.453.5-.36.32-.21.342-.107.492-.015.395.063.4.234.289.419.236.336.277.22.256.038.246.015.386-.059,1.528-.307,1.637-.3,1.176-.322,1.806-.532,1.229-.156,1.347-.117.813-.029,1.326.516.758.238.546.478.662.677.77.419,1.005.263,1.55.171.673,0,.439-.053.459-.126.353-.239.192-.283.139-.307.065-.307-.042-.317-.139-.361.086-.818.5-.434.385-.254.332-.126.374.01.342.082.385.2.449.253,1.026.137.31.053.653.219.266.17-.085,1.135-.1,1.223-.129.585-.224.629-.171.282-.108.352-.129.316.247.326.652.219.492.088.354.088.535.318.32.219.225.267.224.381.246.229.716.522.332.214.46.181H1737l.694.259.621.24.833.365.931.605.106.546-.236.63-.534.97-.866,1.16-.406.638-.471.464-.448.174-.535.182-.257-.133-.064-.539-.3-.141-.7.382-1.3.588-1.4.8-.4.282-.534.555.192.912v.878l-.108.448-.181.373-.332.471-.309.365.011.622.245.29h.353l.267-.455.438-.282.491.083.439.638.342.448.514.274.33.091.417-.191.352-.547.15-.456.332-.207.491-.116.748.04.651.108.515.406.331.48.321.58-.064.422-.246.315h-.449l-.461-.647-.641-.414-.5-.116-.363.223-.4.4-.342.8-.15.722-.139.431-.2.265-.128.522.214.331.6-.124.555-.025.61.19.225.63-1.134,1.152.033,2.163-.407,1.549-.5,1.077-.106,1.293-.417,1.078.031,3.96.224.373.107.538-.331.6-.076,3.405.118,1.451.011,2.7.268,1.533-.032,2.114-.172.853-.266.7-.439,1.152-.545.514-1.229.016-.524.075-.47.274-.428.3-.524.265-.5.066-.365-.116-.427-.348-.481-.382-.684-.555-.364-.464-.374-.033-.716-.042-1.144.009-.813-.431-.32-.19-.587-.282-.535-.29-.92-.738-.567-.19-.525-.009-.673.075-.524.066-.374-.274-.266-.447-.129-.563-.406-.249-.716-.133-.524-.1-.7-.141-.1.5-.011,1.376-.213.488-.182.539-.161.8-.075.78-.192,1.143-.471,1.177-.085.895-.343.895.321.919-.343.813-.556.762-.074.679-.022.854-.171.571-.737-.041-.353-.307-.117-.331-.375-.108-.536.083-.918-.157-.385-.124-.61.082-.5.117-.482.066-.47-.05-.31-.224-.428-.431-.427-.058-.256.232-.46.116-.46-.265-1.047-.306-.589.133-.342.281-.342.373-.331.3-.332-.249v-.39l.2-.34.032-.356-.225-.208-.513-.257-.385-.24-.31-.3-.322-.555-.289-.579-.363-.39-.791-.016-.279.265-.4.539-.5.663-.781.663-1.571.289-.4.033-.332-.05-.3-.157-.545-.539-.395-.588-.675-1.251-.374-.523-.545-.248-1.091.042-1.1.539-2.118,1.881-1.347,1.483-.427.373-.653.853-.246.655-.054,1.483.193.579.214.762.331.589.289.215.342-.3.181-.6.139-.745.193-.291.183.117.181.53.4-.033.182-.273.6.008.1.347-.246,1.294.139,1.209-.063.6.629.762.076.472-.085.8.117.414.63.265.364.439-.181.6-.353,1.674.545.936.118,1.078.118,1.914-.118.919-4.918,4.9-5.6,5.212-4.9,4.938-5.752,5.709-4.416,4.516-3.09,3.066-2.672,1.509-2.781,1.872-2.245,1.292-3.207,1.749-.951.6-.6.522-.032.588.395,1.467.161.456-.224.365-.748.058-.4-.149-.343-.157-.427.4-.588.48-.93,1.045.075.431.321.157.641.067.673.133.054.655.054.471.331.406.032.455v.4l.075.465.065.489-.3.215-.342.059-.834-.307-.139-.108-.235-.075-.31.05-.032.232.053.331.1.207.139.232-.086.273-.245.075-.257.075-.2-.033-.139-.2-.213-.34-.278-.19-.214.108-.257.14-.182.1-.4.042-.224.042-.289.083-.16.207.021.273.1.323-.032.406-.065.422-.054.422-.074.4-.3.207-.2-.124-.139-.373.021-.38-.363-.1-.363.008-.268-.074-.16-.224-.171-.538-.4-.68-.255-.654-.2-.431-.406-.075-.15.332-.064.563-.224,1.268-.342,1.142.032.73-.064.92-.054.878-.428,1.472" transform="translate(-1603.28 -458.386)"  stroke="#fff" stroke-linecap="square" stroke-linejoin="bevel" stroke-width="1" fill-rule="evenodd"/>
      <text id="130" transform="translate(49.818 55.497)" fill="#fff" font-size="13"  font-family="OpenSans-Bold, Open Sans" font-weight="700"><tspan x="0" y="0"></tspan></text>
    </g>
    <g id="_241_Chikhaldara" data-name="241 Chikhaldara" transform="translate(1227.691 1147.339)">
      <path id="talId241" fill="#7DB8EC" data-name="Chikhaldara" d="M1637.11,589.617l.427-1.472.054-.878.063-.919-.032-.73.342-1.143.225-1.268.064-.563.149-.331.407.075.2.431.257.654.4.68.171.538.161.225.266.074.364-.008.363.1-.021.381.139.373.2.124.3-.207.075-.4.053-.422.064-.422.032-.406-.1-.323-.021-.274.161-.207.289-.082.225-.042.4-.042.182-.1.256-.14.214-.108.277.191.214.34.14.2.2.033.256-.075.245-.075.086-.273-.139-.232-.1-.207-.052-.332.031-.232.309-.05.236.075.139.108.834.307.341-.059.3-.215-.065-.488-.075-.465v-.4l-.033-.455-.331-.406-.053-.471-.054-.655-.673-.133-.642-.066-.319-.157-.075-.431.93-1.044.588-.48.427-.4.343.157.4.15.748-.059.225-.364-.161-.456-.394-1.467.032-.588.6-.521.952-.6,3.208-1.749,2.245-1.293,2.78-1.872,2.673-1.509,3.089-3.066,4.416-4.516,5.753-5.709,4.9-4.939,5.6-5.212,4.918-4.9.118-.92-.118-1.914-.118-1.078-.545-.936.352-1.673.182-.605-.363-.439-.63-.265-.119-.414.086-.8-.075-.473-.63-.762.063-.6-.139-1.209.247-1.294-.1-.348-.6-.009-.181.274-.4.033-.181-.53-.182-.117-.192.291-.139.745-.182.6-.343.3-.288-.215-.331-.589-.214-.762-.192-.58.053-1.483.245-.655.652-.853.429-.373,1.346-1.483,2.118-1.881,1.1-.539,1.091-.042.545.248.375.523.673,1.251.4.588.545.539.3.158.332.05.4-.033,1.572-.29.78-.663.5-.663.4-.539.279-.266.79.016.364.39.289.58.32.555.311.3.385.241.513.257.225.207-.032.356-.2.34v.389l.329.249.332-.3.343-.373.342-.281.589-.133,1.047.306.459.265.46-.115.257-.232.428.057.427.431.31.223.47.05.481-.066.5-.116.61-.083.384.124.92.157.535-.082.374.108.118.332.353.307.738.041.17-.571.021-.854.075-.679.556-.762.342-.813-.321-.919.342-.895.086-.895.47-1.177.192-1.143.075-.779.161-.8.181-.538.215-.489.01-1.376.1-.5.7.141.524.1.716.133.406.249.128.564.268.447.374.274.524-.066.674-.075.524.009.567.19.92.738.533.29.589.282.32.19.813.431,1.144-.008.717.042.374.033.363.464.685.555.481.381.428.347.363.117.5-.066.523-.265.428-.3.47-.273.525-.075,1.229-.016.545-.514.439-1.152.267-.7.172-.853.031-2.114-.267-1.533-.011-2.7-.118-1.451.075-3.405.331-.6-.107-.539-.224-.373-.033-3.96.417-1.078.107-1.293.5-1.078.407-1.549-.031-2.163,1.132-1.151-.224-.63-.609-.19-.556.024-.6.124-.214-.331.129-.522.2-.265.138-.431.149-.722.343-.8.4-.4.364-.223.5.116.642.414.459.647h.448l.246-.315.064-.422-.321-.581-.331-.48-.513-.406-.653-.108-.748-.041-.492.116-.332.207-.149.456-.352.548-.418.19-.331-.091-.514-.274-.342-.448-.438-.637-.491-.084-.438.283-.267.455h-.354l-.246-.29-.01-.622.31-.365.331-.471.182-.374.106-.448v-.878l-.192-.912.534-.555.4-.282,1.4-.8,1.3-.588.706-.382.3.141.064.539.256.133.535-.182.449-.174.471-.464.406-.638.866-1.16.534-.969.236-.63-.107-.546-.93-.605-.834-.364-.619-.241-.7-.259.118-.438.16-.356.2-.4.214-.063.267.1.31.064.353,0h.257l.138-.082.289-.439.438-.063.343-.092.375-.162.236-.17.192-.21-.086-.307-.053-.317.032-.414.171-1.2-.042-.453-.213-.945.031-.6.481.044.352.054.278.18.182.019.279-.078.331-.073,1.176.132.748.024.363-.053.332.142.364.135.363.054.385.005,1.3.175.331-.034.62-.829.6-1.242,1.048-1.16.385-.175.6.107.406.283.535.355.909.405.865.179.385.02.236-.166.214-.506.16-.571.321-.935-.032-.307-.257-.122-.245-.156-.322-.267-.266-.161-.246-.195-.129-.166.021-.234.075-.331.311-.56.171-.366.021-.36-.086-.229-.17-.181-.46-.282-.47-.259-.417-.238-.149-.229.1-.57.012-.712.127-.717.322-.122.405-.078.4-.019.567-.082.172-.278.4-.019.438.263.77.551.385.223.556.166.513.03.9-.02.865-.18.824-.005.566.064.513.195.417.2.63.331.685.044.887-.092.77-.122.856-.327.791-.316.855-.175.662-.029.556.161.407.141.417.234.481.147,1.175.087,1.208.122.791-.04.76.04.385-.122.759-.064.728.225,1.208.132,2.48.117,1.711.063,2.567-.146,2.137-.808.91-.308.779-.126.93-.034.6-.1,1.122-.249,1.262.034,1.069-.1.428-.132.9-.615.983-.482,1.155-.335.609-.381.482-.2.737-.318.535.128.374.278.2.238.2.351-.065.249-.17.214-.2.019-.182-.014-.149.014-.321.293.01.3.054.273-.032.579.1.474.063.336.171.259.417.165.342.2.641.516.407.341.288.234.407.112.491-.059.279-.093.331.064.193.073.995.282.257.224.032.381.021.321.117.253.417.361.674.448.352.473.2.347.183.408.149.24.481.414,1.058.892.451.438.459.112.417-.132.085.24-.171.273-.214.5-.032.292.053.346.193.9.182.526.182.2.4-.019.322-.127.544.005.759.175.331.414.235.215.364.175.3.185.352.4.726,1.14.5,1.463.321,1.135.139,1.067.117.551.278.56.171.254.46.219.2.341.385.873.31.77.267.5.268.449.128.317.021.4.053.868.033,1.037.268.912.127,1.14.321,1.408.363.96.684,1.3.684,1.009.642,1.384.032.541-.087.331-.181.257-.256.327-.086,1.511.139,1.281-.012.712.151,1.437.245.99.054,2.329.214,1.583-.2,1.16-.171,1.705.021.672.129.468.181.448.183.814.223.444.364.151.567.034.523-.126.877-.472.77-.375.47-.205.288-.17.322-.009.427.336.984.916.672.794.524.307.139.307.556,1.428.279.418.064.322-.15.19-.267.059-.225.057-.278.142-.309.326-.994.911-.556.615-.224.316-.354.229-.32.073-.4.005-.427-.093-.418-.058-.438,0-.438.049-1.379.019-.642.122-.5-.059-.728-.1-.673-.171-.7-.234-.78-.292-.888-.405-1.54-.613-.662-.282-.525-.2-.63-.034-.47,0-.727.166-.481-.108-.491-.253-.417-.19-.481-.282-.267-.082-.482-.03-.888-.141-.695-.2-.352-.141-.4-.268-.256-.3-.182-.37.01-.126-.641-.487-.46-.341-.491-.249-.609-.238-.684-.122-.739.171-.812.038-.278.17-.332.161-.492.044-.973-.088-1.048.015-.866.054-.929.048-.342-.053-.193-.3-.364-.248-.31-.117-.578-.136-.5-.054-.769-.074-.92-.092-.31.2-.064.352-.033.389.065.268.193.3.182.3-.193.467-.342.283-.8.379-.309.2-.234-.074-.257-.17-.289-.156-.193.113-.172.009-.16-.1-.181-.151-.161-.107-.2-.034h-.31l-.331.107-.973.322-.63.307-.566.312-.621.414-.374.575-.171.375-.16.316-.01.336-.3,1.179.022.848.128.6.118,1.1.362.513.374.307.493.979.31.863.309.57.438.278.781.663.427,1.008.589.828.46.764.16.259-.138.331-.225.278-.021.521.042.409-.16.151-.288.122-.172.209.032.166.182.2.374.526.118.619.033.366.053.36.256.112.46.141,1.219.326.781.185.438.02.459,0,.749.337.235.336.459.722.675.5.609.293.353.287.256.287.075.186-.021.277-.064.581-.161.322.022.282.214.253.235.185.043.205-.257.94-.182.751.011.648.235.566.482.413.074.479.193.423.085.259.161.492.107.838.118.624.278.379.3.351.343.838.384.848.278.581-.033.521.128,1.121.118,2.422-.043,1.261-1.015-.521-.61-.173-.642.433-.448.087-.706-.018-.47.173-.578.182-.534-.224-.032,1.437.064.51.2.546-.353.416-1.732-.1-.769-.121-.62-.1-.673-.233-.257.294-.256.467-.106.676-.556.432-1.113-.051-1.454.1-.523-.008-.845.087-.535.017-.534-.216-.75-.485-.694.069-.118,3.185-.3.537-.321.112-.566-.129-1.3-.346-.159.277-.022.909.246.624-.181.234-.963.26-.716.121-.931.008-1.154-.087-.342.208.234.771-.234.934.363.4,1.166.459.032,1.342-.084.476-.353,1.021-.652,1.194-.075.874.139.38.674.424.684.32.823.39.631.6-.182.364-.224.113-.737-.018.406,1,.534,1.488-.107,1-1.967.216-.93.234-1.571-.026-.321.787-.267.641-.641.458-.364.5-.545,1.048-.471.839-.534-.355-.054-.459.107-.77.182-.658-.31-1.306-.235-1.186-.481-.467-.514-.26-1.24.216-1.529.666-1.4,1.654-1.186,1.523-.845.8-.673.234-.5,1.411-.354.311-.459.139-.62.043-.32-.148-.7-.233-.31.4-.6.459-.224.849-.909.926-.781.251-.5.068-.482.382-.374.736-.427.892.042.591-1.454.282-.856.027-.672-.234-.7-.805-.653-.165-1.817,1.368-1.475,1.073-.77.338-.685.277-.631.312-.685.311-.694.173-.941.156-.792-.26-.715.052-.727.1-1.379.078-.482-.051-.448-.217-.46-.484-.215-.484-.46-.606-.791-.416-.781-.173h-1.015l-.738.122-.834.458-1.507.865.065-.394.041-.36-.438-.639-.866-.077-.449.009-.428.024-.47.122-.374.005-.6-.205-1.015-.374-.439-.122-.321-.088-.3.033-.139.229-.107.321.011.683-.065.414-.267.37-.311.1-.33.058-.247.015h-.341l-.428.015-.555.073-.374.21-.321.288-.183.229-.182.331-.138.312-.16.267-.3.122-.47.088-.343.083-.364.1-.213.141-.289.269-.288.107-.6.128-.33.146-.236.141-.3.254-.289.146-.332,0-.33-.1-.269-.195-.118-.137-.214-.347-.213-.131-.417-.034-.535,0-.3.078-.15.248-.074.371-.065.3-.129.2-.2.053-.3.03-.385.067-.63.009-.354-.068-.533-.273-.257-.195-.332-.2-.374-.117-.32-.053-.311-.068-.289-.1-.3-.229-.214-.273-.438-.1-.364.019-.171.161-.224.239-.322.288-.352.165-.438-.025-.022.093-.1.244-.075.145-.1.147-.2.229-.224.181-.247.151-.245.249-.225.009-.15-.127-.075-.229-.15-.288-.279-.36-.331-.175-.289-.025-.235-.024-.342.034-.364.069-.321.068-.15.1-.246.059-.17-.3-.429-.545-.2-.215-.354-.336-.309-.449-.192-.663-.225-.507-.4-.16-.5.156-.941-.112-.235-.19-.171-.711-.246-.444-.214-.545-.171-.5-.236-.156-.759-.263-.3-.078-.76-.3-.418-.244-.747-.233-.45.219-.577.3-.62.214-.107.274-.492,1.311-.128.355-.192.205-.193-.01-.492-.112-.343-.137-.524-.039-.074.132-.075.345-.085.556-.418.385-.438.166-.652.434-.151,1.227-.01.541-.15.5-.053.774.266.438.119.4.011.682.182.458.021.375-.086.272-.31.128-.14.741-.191.111-.6-.029-.578.049-.042,1.257-.032.126-.171.131-.268-.044-.4-.112-.267-.088-.577-.22-.631-.209-.417-.151-.406-.083-.15.088-.021.278-.182.209-1.112-.366-.385-.151-.448-.214-.353-.171-.118.225.183.263-.032.234-.257.082-.288-.073-.289-.074-.225.015-.341.19-.567.292-.2,0-.738.007-.459.1-.5,0-.4-.107-.546-.2-.46-.141-.565-.142-1.242-.253-.908-.253-.877-.166-.8.02-1.914.019-1.23.029-1.71.234-.492.01-.994.215-.427.063-.835.063-.578.254-.524.03-.417.054-.428.219-.427.288-.642.087-1.636.419-.385.136-.684.152-1.272-.039-.663.112-.459.053-.877.1-.405.194-.364.034-.353-.005-.342-.067-.214-.234-.1-.288-.128-.3-.1-.195-.428-.166-.192.151-.053.2-.086.219-.182.244-.385.273-.566.141-.385.044-.31.185-.321.287-.534.278-.32.239-1-.024-.428-.024-.053-.21-.15-.1-.492.039-.844-.049-.695-.147-.268-.078-.33-.01-.343.088-.406.166-.407.171-.6.132-.492.2-.4.082-.4.049-.738-.02-.6.034-.333.239-.417-.166-.118-.219-.042-.219-.075-.259-.406-.038h-.4l-.16-.31-.749-.12-.246-.545" transform="translate(-1637.11 -448.226)"  stroke="#fff" stroke-linecap="square" stroke-linejoin="bevel" stroke-width="1" fill-rule="evenodd"/>
      <text id="241" transform="translate(76.31 91.333)" fill="#fff" font-size="13"  font-family="OpenSans-Bold, Open Sans" font-weight="700"><tspan x="0" y="0"></tspan></text>
    </g>
    <g id="_131_Anjangaon" data-name="131 Anjangaon" transform="translate(1313.478 1274.588)">
      <path id="talId131" fill="#7DB8EC" data-name="Anjangaon" d="M1724.85,570.519l1.507-.865.834-.459.738-.121h1.015l.781.173.791.416.46.606.215.484.46.485.448.217.481.051,1.38-.078.727-.1.715-.051.793.259.941-.156.7-.173.683-.311.632-.312.683-.277.77-.338,1.475-1.073,1.818-1.367.652.164.695.805.673.234.855-.027,1.455-.282.63.034.5.292.235.4.183.372.139.407.224.336.727.557.78.381.31.468-.011.5.075.327.4.08,1.015.017h1.038l1.241.035.565.24.6.557.108.353.042.531.14.567-.053,1.221.009.9-.107.5-.117.983.139.425.63.07.8.275,1.058.044.75.009.63.239.6.141.364.141.823.221.321.531.01.451.065.257.309,1.486,2.085.884,1.646.425,1.454.513.353.637.02,1.026.065.92.288.654.385.62.3.76.161.655-.278.637-.192.673-.2,2.405.043,1.363.491.938.866.831,1.026.655.62.672.438.477.451-.5.01-.619.257-.354,1.09.194.888.23.813.443.7.495-.043.567-.118.831.086.354.321.248,1.57.018.493,1.133,1.208.83-.106.938.748.832-.288.69-.278.6.01.849.535.478.973.584,3.057,1.964-.374,1.415-.6,1.38-.385.8-.289.9-.353.194-.245-.424-.546-.052-.663.476.321.85-.364.495-.267-.106-.855-.726-1.219-.371-.353-.07-.384.141-.342.283-.728.5-.214.708-.033.664.3.645.609.3.727.132.8.345.365.381.032.327.021.513.555.256v.451l-.2.548.022.663.395.213.9.274.182.521.074.5.107.3.182.531-.279.575-.32.769-.128.664-.417.3-.514.116-.459-.08-.053-.292-.289-.619-.342.062-.642.24-.5.3-.684.478-1.326,1.787-.822.9-.824.433-.15-.133-.107-.636-.118-.815-.491-.371-.385.407-.31.442-.161.5-.129.716-.651.805-.984.6-1.229,1.531-.759.327-.46.389-.727-.2-.556-.1-.545-.045-4.694-.123-.459-.929-.524-.416-.632-.018-.758-.159-.61-.857-.117-.469.246-.5.322-.619.416-.85.791-.513.1-.7.16-.628.225-.8.011-.6.022-.593-.749-.194-.587-.053-.406-.275-1.069-.052-1.027.027-.459-.116-.139-.628.108-.5.107-.6-.268-.425-.577-.512-1.24-.947-3.292-.451-1.069-.052-.364-.761-.941-.894-.845-.495-1.123-.23-.706-.053-.534-.141-.406-.265-.972-.089-.761-.354-.309-.105-.6.274-.268.4-.343.5-.534.1-.813-.053-.577-.186-.706-.132-.5-.309-.823.052-.706.212-.652.168-.7-.062-.684-.184-1.113-.275-.309-.381v-.619l-.182-.407-.578-.088-.47-.132.106-.788-.736-.222h-1.487l-.3-.088-.139-.451-.032-.5-1.165-.487-.951-.248-1.081-.283-.972-.089-.053-.4.192-.512.107-.257.086-.814-.6-.583-.705-.124-.159-.389.063-1.892-1.785.009-1.017-.089-.309.257.085.407.245.584.043.8.021.468.234.557-.182.353-.225.17-1,.38-.428.025-.064-.172-.033-.238v-.282l.075-.409.257-.522-.1-.5-.063-.136-.033-.146.075-.2.257-.346-.192-.273-.139-.069-.086-.5.042-.219-.17-.2-.674-.551-.15-.244-.129-.316.021-.624.033-1.9.247-.366.106-.39-.011-.522-.117-1.554-.044-.493.235-.038.386.014.8-.019.482-.15.214-.1.352-.132.31-.127.417-.038h.567l.63.038.631-.038.46-.015.074-2.227-.053-.78.021-.726.032-.634-.77.02-.011.21-.1.365-.192.263-.343.089-.544.048-.364.209-.663.147-.876-.054h-.578l-.289-.162-.277-.132-.513-.013-1.487-.093-.534-.025.021-.229.2-.755.14-.366.193-.463-.023-.244-.245.01-.353.01-.373.015-.514-.03-.054-.195.043-.419h.268l.3-.088.353-.57.246-.741.128-.5.128-.414.073-.337.033-.642.119-.531.171-.566v-.288l-.171-.117-.343-.117-.311-.077-.352-.024-.235-.147.192-.4.128-.351.214-.312.214-.59.341-.853.065-.482.021-.088-.032-.434.032-.96.075-.088.224-.088.364-.015.3,0,.246-.049.075-.156.011-.238.022-.278.032-.2.117-.194.235-.068.246.025.256.049.321.067.32.021.033-.263-.033-.259.065-.453.117-.307.289-.547.257-.2.256-.03.224-.025.021-.195-.053-.379-.182-.682-.191-.39-.16-.141-.47-.078-.78-.088.267-1-.053-.156-.054-.16v-.166l.086-.219.053-.147.1-.107.054-.225.032-.238-.075-.317-.289-.317-.139-.307-.106-.219-.032-.141.01-.147.106-.21.118-.112.2-.132.289-.087.664-.117.608-.185.739-.254.727-.2.043-1.009.214-.565" transform="translate(-1717.43 -567.525)"  stroke="#fff" stroke-linecap="square" stroke-linejoin="bevel" stroke-width="1" fill-rule="evenodd"/>
      <text id="131" transform="translate(9.522 37.085)" fill="#fff" font-size="13"  font-family="OpenSans-Bold, Open Sans" font-weight="700"><tspan x="0" y="0"></tspan></text>
    </g>
    <g id="_127_Achalpur" data-name="127 Achalpur" transform="translate(1344.343 1232.823)">
      <path id="talId127"  fill="#7DB8EC" data-name="Achalpur" d="M1746.232,571.127l-.042-.592.427-.891.375-.735.481-.382.5-.069.781-.251.909-.926.226-.849.6-.459.31-.4.7.233.319.147.62-.042.461-.139.353-.312.5-1.411.673-.234.845-.8,1.187-1.524,1.4-1.654,1.529-.666,1.241-.216.513.26.481.467.236,1.186.309,1.306-.181.659-.107.769.054.459.534.354.471-.839.545-1.048.363-.5.642-.459.268-.641.321-.787,1.571.026.931-.235,1.967-.215.107-1-.536-1.488-.405-1.005.738.018.225-.114.181-.363-.63-.6-.825-.391-.683-.319-.673-.425-.14-.381.074-.874.653-1.195.352-1.021.086-.476-.032-1.342-1.167-.459-.362-.4.235-.935-.235-.77.341-.208,1.156.087.93-.008.716-.121.962-.26.181-.234-.245-.623.021-.909.16-.277,1.3.346.569.129.319-.112.3-.537.116-3.185.7-.07.748.486.535.216.535-.017.844-.086.525.008,1.454-.1,1.111.051.557-.432.107-.676.255-.467.257-.294.674.233.62.1.77.121,1.732.1.352-.416-.2-.545-.063-.51.032-1.437.533.225.578-.182.472-.173.7.018.449-.087.642-.433.609.173,1.016.521.2.678.288.448.2.565-.033.345-.171.221-.246.2.129.327.352.048.523-.019.5-.112.759-.2.554-.175.514-.107.557.04.352.048.866.019.555.006.332-.04.224-.254.086-.277.107-.371-.012-.453.021-.238.087-.181.277-.209.427-.3.214-.288.374-.272.267-.331.075-.419.332-.979.074-.448-.021-.492-.15-.322v-.546l.47-.439.3-.326.086-.381.012-.385.043-.9.169-.672.172-.439.161-.453.469-.147.406.191.387.3.33.288.309.394.418.454.278.311.29.108.373-.088.331-.034.183.2-.022.347-.065.346-.033.36.214.257.5.1.482.078.383.219.375.346.877.813.406.536.194.331.1.415-.075.273-.086.282-.213.1-.3.009-.159.161-.076.215-.1.116-.063.463-.086.293-.043.263.086.307.15.3.352.857.385.423.193.288.064.316.021.205.117,1.029-.866.808-1.2,1.771-.4,1.248.129,1.031-.181,1.375-.941,1.97.181.4,1.005.307.513,1.808-.2,1.212-.129.489,1.251.018,1.017.017,2.094.2.055,3.182.32.941-.085.361-.652.162-.631.163-.748.344-.5.6-.727,1.428-.684,3.489-.534.949-.214,1.067.267.921-.5.977-.909,1-.214.443.075.625-.1.335-.247.551.139.452.653.389,1.594.886.748.479.632.371.726.28.845.353,1.079.5,1.188.461.845.706.426.877v.2l.139.732-.1.416-.085.461-.138.732-.117.489v.56l.3.4.224.389.237.325.169.578-.159.245-.385.252-.236-.081-.266-.461-.407-.461-.107-.533-.032-.489-.374-.343-.385-.235-.107-.316.566-.416.086-.353-.107-.552-.576-.5-.632-.27-.214.126-.149.8.269.976.01.542.032,1.2-.406,1.52-.053.487-.193.317-.073.47.373.272-.032.523-.288.588-.181,1.491-.118.28-.3.136-.353-.144-.685-.227-.374.128-.406.542-.117.8-.342,1.112-.353,1.14.384.542.535.452.15.434-.352.688-1.08,1.238-.545.507-.578.5-.224.452.235,1.446.3.542.459.154.738.09.909.081.566.38.716.551.941.47.063.588-.63.506-.47.153-.5.181-.363.353-.312.759.108.814v.995l-.086.443.234.416.525.262.406.47-.652,1.139-.3,1.095-.193.271-.407.344-.405.406-.278.542-.118.643.15.4.385.29.085.316-.139.433-.556.335-.662-.082-.364.082-.515.642-.16.84-.117,1.2v.994l-.706.081-.417-.008-.78-.253-.748-.389-.91-.542-.791-.326-.545-.153h-1.038l-.725-.145-.482-.234-.257-.434-.268-.38-.545-.352-.908-.135-1.241-.163-1.2-.19-1.444-.091-.288-.163-.717.262-.084.543.073.624.011.732-.106.579-.321.506-.566-.2-.288-.389-.513-.505-.268-.3-.566-.2-.877-.208-1.23-.027-1.741-.2-3.058-1.964-.973-.584-.533-.477-.012-.849.277-.6.289-.691-.748-.832.106-.938-1.208-.83-.491-1.132-1.572-.018-.321-.248-.086-.354.117-.831.042-.567-.694-.495-.812-.443-.886-.229-1.092-.195-.256.354-.011.619-.448.495-.439-.476-.621-.672-1.026-.656-.865-.83-.492-.938-.043-1.363.2-2.406.193-.672.278-.638-.16-.654-.3-.76-.385-.62-.289-.654-.065-.92-.021-1.026-.352-.637-1.454-.513-1.647-.424-2.084-.884-.311-1.486-.064-.257-.011-.451-.319-.532-.825-.221-.364-.141-.6-.141-.63-.239-.747-.009-1.059-.044-.8-.274-.631-.071-.138-.425.119-.982.106-.5-.01-.9.053-1.221-.139-.566-.043-.53-.107-.354-.6-.557-.567-.239-1.241-.035h-1.037l-1.016-.017-.4-.08-.074-.327.01-.5-.309-.468-.782-.38-.726-.558-.224-.335-.14-.407-.181-.372-.236-.4-.5-.292-.632-.034" transform="translate(-1746.19 -528.369)"  stroke="#fff" stroke-linecap="square" stroke-linejoin="bevel" stroke-width="1" fill-rule="evenodd"/>
      <text id="127" transform="translate(15.657 50.85)" fill="#fff" font-size="13"  font-family="OpenSans-Bold, Open Sans" font-weight="700"><tspan x="0" y="0"></tspan></text>
    </g>
    <g id="_129_Daryapur" data-name="129 Daryapur" transform="translate(1306.78 1313.048)">
      <path id="talId129" fill="#7DB8EC" data-name="Daryapur" d="M1785.768,606.839l1.743.2,1.23.027.876.209.567.2.267.3.513.506.289.389.566.2.322-.506.105-.58-.01-.732-.075-.623.085-.543.717-.262.288.163,1.444.091,1.2.19,1.24.162.91.136.544.352.268.38.257.434.482.234.726.146h1.038l.545.153.791.326.908.542.749.389.781.253.417.009.705-.081-.267,1.005-.15.377.139.217.065.4-.427.207-.406.209.042.17.235.207.172.246-.128.293-.1.4-.1.424-.257.34-.439.246-.428.227-.663.122-.235.424.129.51.16.34.117.415-.213.4-.193.245.021.227.343.189.47.2.363.161.021.245-.148.265-.267.358-.642.887-.556.227-.491.039-.289.463.2.358.651.5.406.416.021.331-.2.425.043.727.279,1.378-.119.445-.715-.066-.471-.227-.512.1-.354.255-.427.312-.268.273.246.5.214.453-.172.207-.385-.018-.479-.17-.674.075-.31.3-.171.34-.289.859.011.387.289.444.609.132.353-.2.909-.141.192.4-.267.425-.438.746-.535.4-1.326.467.01.512-.01.3.065.162.288.131.2.088.172.312-.086.2-.149.049-.417.068-.032.253-.107.341-.117.117-.352.014-.257.025-.054.083-.053.189-.042.215-.012.166.1.272-.01.151-.044.2-.074.141-.139.213-.128.186-.15.21-.15.662-.17.121-.128.147-.194.1-.053.151-.032.206-.1.345-.2.181-.074.244-.054.248-.053.194-.022.244.043.2.16.309.128.19.032.139-.01.126-.086.068-.118-.019-.1-.046-.117-.1-.107-.112-.086-.149-.074-.156-.1-.057-.117,0-.075.048-.107.085-.053.1-.065.111-.118.114-.074.147-.021.048-.054.076-.139.026-.1-.058-.053-.124-.054-.115-.033-.1-.053-.132-.064-.063-.139,0-.107.078-.053.137-.055.113-.084.1-.075.073-.128.115-.086.071-.086.114-.02.063.063.042.161.011.172.044.18.057.1.082v.147l-.213.112-.107.017-.182.012-.225-.041-.33-.1-.2-.122-.086-.076-.15-.1-.149-.058-.183.057-.021.126v.12l.075.1.148.087.129.082.118.074.107.1.085.1.022.154-.085.1-.076.063-.191.129-.374.172-.278.117-.107.122-.139.112-.033.1.023.116.041.139.064.137.075.088.129.013.075-.048.064-.088.011-.1.031-.092.224-.127.074,0,.107.08.128.131.1.107.065.087-.043.118-.086.107-.161.151-.16.022-.1.054-.064.1-.063.141.021.169.1.216.053.129.075.139.214.251.1.141.053.312.044.351.021.165v.219l-.01.156-.086.17-.214.1-.224-.08-.225-.027-.128.075-.15.1-.032.083-.022.18.01.389.064.151.15.049.161-.021.138-.059.064-.078.032-.117.065-.127.257-.065.117.058.065.149.032.152-.139.287-.149.078-.172.067-.192.024-.256-.03-.192-.027-.172-.019-.171,0-.193,0-.108.053-.171.227.021.134.128.076.193-.029.139.02.139.1.15.075.033.082.053.131.022.146v.137l.021.4-.021.185.054.158-.011.148-.054.17-.181.22-.267.078-.289.01-.236-.037-.129-.082-.1-.069-.1-.1-.107-.1-.118-.022-.075.02-.129.065-.085.069-.065.072-.118.032-.353-.027-.15.019-.075.07-.021.12.012.1.106.116.032.068v.1l.032.1.075.125.1.241-.065.1-.117.027-.107-.059-.106-.031-.14.024-.074.07-.107.1-.213.188-.161.017-.075-.085-.054-.12.011-.118.011-.129.063-.074.151-.012.117.027.183-.044.042-.078-.053-.163-.086-.053-.331-.054-.118-.012-.214.029-.139.1-.033.141-.021.168v.147l-.031.148-.118.105-.1.1-.127.21-.022.236-.139.091-.086.124-.064.19-.3.385-.1.141-.011.107.076.09.053.057-.043.271-.075,0-.107.02-.106.058-.021.1-.012.118.075.111.085.074.1.036h.193l.107-.024.139.024.063.084.119.229.278.482.128.12.033.1.011.059-.031.244.053.185.236.129.352.015.225-.025.16.009.193.029.139.044.225.1.053.1.085.061.129.076.033.168-.119.111-.107.055-.182.071-.16.013-.235-.091-.171-.115-.2-.12-.1-.077-.235.095-.053.144-.1.238-.193.1-.192-.087-.2-.154-.1-.132.064-.185.139-.11.085-.107.02-.178-.116-.1-.107-.077-.139.022-.182.147-.182.17-.139.181-.246.158-.194.28-.075.148.043.122.149.07.183.09.107.149-.16.288-.107.138-.139.071-.213.01-.161.013-.128,0-.193.068-.042.172.064.183.149.148.341.28.1.21-.043.168-.181.051h-.128l-.2-.034-.119.093-.053.226v.234l-.031.193-.13.2-.171.14-.3.755-.161.293-.182.126-.289.141-.309.146-.321.375-.513.526-.331.175-.363.068-.5-.088-.117-.18-.171-.132-.406-.141-.278-.059-.1.2-.118.652-.031.434-.129.4.064.453-.042.355-.235.162-.246.025-.224-.005-.074-.282-.032-.327-.225.054-.108-.063-.149-.122-.181-.1-.364-.059-.149-.019-.151-.072-.074-.175-.15-.108-.2.2-.332.234-.406.286-.193.215-.373.307-.278.01-.588.03-.544-.025-.086-.259-.15-.341-.566-.1-.536-.134-.085.151-.192.1-.321-.019-.257-.086-.171-.073-.247-.066-.2.025-.309.158-.5.309-.139.1-.075.222v.239l-.074.224-.128.1-.257-.023-.3.02-.3-.151-.107-.278-.172-.424-.064-.236-.2-.193-.482-.025-.2.1-.268.3-.107.112-.235.109-.2.029-.417.056-.448.109-.482.108-.331-.03-.332-.085-.159-.1-.14-.149-.181-.346-.086-.132-.245-.088-.4-.119-.545-.1-.279-.08-.566-.144-.824.02-.513.01-.309-.008-.47,0-.461.241-.267.252-.267.341-.4.309-.169.061-.183.061-.15-.017-.224-.141-.118-.137-.119-.134-.213-.089-.15-.025-.245.1-.16.125-.191.1-.184.029-.256-.036-.182-.263-.086-.183-.064-.148-.193-.19-.245-.129-.428-.156-.771-.232-.138-.134-.054-.137-.065-.265v-.2l-.074-.317-.1-.173-.332-.076-.342.011-.256.063-.267.214-.075.192-.149.175-.225-.068-.011-.224.15-.274-.2-.265-.149-.047-.15-.156-.171-.177-.107-.148-.149-.132-.14-.064-.139.036-.107.127-.032.209.032.373-.064.185-.149.118-.257.042-.224-.01-.2.01-.128.137-.267.28-.214.183-.288.217-.632.195-.213.017-.246-.09-.14-.038-.2.025-.2.074-.279.05-.353.04-.353-.007-.4-.149-.256-.168-.128-.066-.161-.021-.257.048-.063.446-.033.181-.074.158-.1.176-.181.114-.256.023-.247-.061-.159-.118-.193-.231-.118-.132-.214-.232-.2-.17-.32-.1-.234-.068-.3-.071-.246-.063-.182-.083-.225-.217-.288-.241-.182-.078-.225-.056-.257.017-.31.083-.354.29-.394.315-.471.226-.043.17-.107.169-.107.2-.086.18-.107.187-.107.112-.138.059-.214.034-.236-.048-.235-.219-.257-.221-.085-.234.021-.129.1-.246.053-.236.053-.183-.043-.223-.246-.2-.224-.238-.246-.2-.16-.153-.246-.053-.107.073-.341.276-.289.248-.108.093-.288.058-.321-.066-.364-.228-.535-.325-.362-.236-.877-.1-.407.012-.662.025-.663.139-.224.1-.086-.014-.139-.12-.159-.243-.15-.129-.193-.136-.128-.054-.31-.006-.482.031-.513.061-.192.11-.129.149-.106.19-.107.321-.14.619-.129.449-.107.192-.118.178-.191.087-.172.046-.16-.027-.193-.134-.257-.193-.16-.139-.311-.072-.405-.135-.417-.212-.374-.19-.47-.151-.577-.127-.6.047-.448.056-.374.072-.5.2-.641.36-.568.209-.246.047-.288-.025-.267-.141-.471-.3-.278-.219-.706-.112-.48-.154-.128-.042-.108-.107-.02-.158.01-.234.14-.3.127-.28.043-.134.011-.211-.033-.148-.192-.113-.172-.1-.214-.108-.192-.069-.406-.2-.342-.185-.182-.32-.118-.455-.063-.292-.022-.2-.16-.215-.15-.122-.192-.054-.288.05-.192.065-.183.122-.15.165-.107.235-.042.409.054.227.063.128.053.1.2.3.1.114.053.124.021.16-.011.078-.118.139-.268.245-.16.086-.192.071-.225.081-.234,0-.15-.118-.042-.128v-.205l-.075-.18-.2-.091-.343-.075-.524-.11-.373-.093-.407-.1-.428-.063-.246.056-.246.15-.213.149-.182.142-.16.084-.15.069-.2.032-.192-.059-.235-.168-.235-.12-.235-.115-.288-.107-.2-.117.172-.324.257-.638.171-.521.1-.741-.053-.77-.042-.8.331-.147.31-.025v-.385l-.033-.682.225-.994.1-1.237.2-.615.128-.267-.075-.239-.246-.146-.331-.152-.011-2.28.1-2.036.033-.887.427-.024.171-.166-.042-.272-.021-.493.32-.019.406.053.279.108.417.107.1-.219.033-.356.085-.326.213-.848.182-1.345.128-.907.4-1.091.224-.654.364-.629.193-.463.288-2.018.236-.813.631-.945.78-1.194-.385-.014-.405-.005-.61-.014-.866-.1-.385-.162-.577-.044-.716-.029-.76,0-.843-.049-.386-.2-.3-.229.064-2.31.064-.964,1.84-.064,1.613.034,2.064.118,1.433-.034.726-.059.086-1.925-.086-.19-.192-.244-.043-.234.032-.331.684-1.828.021-.282.2-.141.225.019.011-1.326.075-.424.106-.6.171-.857-.993-.278-.257-.073-.374-.132-.331-.112-.4-.088-.342-.118-.032-.429-.129-.408-.31-.152-.245-.092-.439-.108-.288-.073-.45-.141-.565-.181-.065-.195.011-.312v-.686l.161-1.082.01-.858.139-.653-.117-.838-.011-1.14.087-.395.139-.331.073-.37-.159-.623-.2-.3-.182-.327-.021-.307v-.326l.1-.337.139-.311.962-.136.63-.015.652.03.578-.059.77-.132.3-.049.213.01.258.1.234.244.15.146.191.029.214.034.332-.029.235-.151-.021-.239.428-.025,1-.38.225-.169.181-.354-.236-.557-.021-.468-.042-.8-.247-.584-.086-.407.311-.257,1.015.089,1.786-.009-.064,1.892.16.389.706.124.6.584-.086.815-.107.256-.192.513.053.4.973.089,1.079.283.952.248,1.166.487.032.5.139.452.3.087h1.487l.737.221-.107.788.471.133.577.088.183.407v.619l.31.381,1.112.275.685.185.7.062.653-.168.705-.213.823-.052.5.308.706.133.577.186.812.054.536-.1.342-.495.267-.4.6-.273.309.105.76.354.974.088.405.266.535.141.705.053,1.123.23.844.5.94.894.364.761,1.069.053,3.293.451,1.24.947.577.512.267.425-.107.6-.107.5.14.628.459.115,1.026-.026,1.07.052.407.275.587.053.748.195-.021.592-.01.6-.224.8-.161.629-.095.7-.792.513-.417.85-.321.619-.246.5.118.47.609.857.76.159.63.018.524.416.46.929,4.694.123.544.045.557.1.727.2.459-.389.76-.327,1.229-1.531.983-.6.653-.805.128-.716.161-.5.31-.443.386-.406.491.371.119.815.106.636.15.132.823-.433.824-.9,1.325-1.786.685-.478.5-.3.641-.24.341-.062.289.619.054.292.459.08.513-.116.417-.3.129-.664.321-.769.278-.575-.182-.531-.107-.3-.074-.5-.182-.522-.9-.274-.4-.213-.021-.663.2-.548V616.8l-.556-.256-.022-.514-.031-.327-.364-.381-.8-.345-.727-.132-.609-.3-.3-.645.032-.664.214-.708.726-.5.342-.284.385-.141.352.07,1.219.371.855.726.267.106.364-.5-.321-.85.664-.477.543.053.246.424.353-.194.289-.9.384-.8.6-1.38.374-1.416" transform="translate(-1711.1 -603.583)"  stroke="#fff" stroke-linecap="square" stroke-linejoin="bevel" stroke-width="1" fill-rule="evenodd"/>
      <g id="_127_Achalpur-3" data-name="127 Achalpur" transform="translate(23.791 33.653)">
        <text id="129" transform="translate(0.43 9.972)" fill="#fff" font-size="13"  font-family="OpenSans-Bold, Open Sans" font-weight="700"><tspan x="0" y="0"></tspan></text>
      </g>
    </g>
    <g id="_122_Bhatkuli" data-name="122 Bhatkuli" transform="translate(1382.48 1294.603)">
      <path id="talId122" fill="#7DB8EC" data-name="Bhatkuli" d="M1827.541,667.236l-.653.033-.449.18-.482.268-.31.278-.257.345-1.378.878-.48.038-.568-.058-.534-.029-.374.019-.257.064-.588.341-.781.214-.632.175-.523.1-.438-.092-.31-.093-.9-.638-1.209-.457-.6-.312-1.208-.166-.855-.088-.385.069-.374.253-.183.311-.224.581-.245.906-.663.229-.268.083-.2.337.075.477-.032,1.019-.246.059-.331.145-.664.322-.364.165-.384.074-.77-.078-.257.014-.438-.039-.588.01-1.037-.16-.3-.9-.085-.4-.085-.448-.181-.3-.278-.194-.321.082-.4.133.01-.239-.332-.322-.288-.706.032-.233-.117-.166-.246-.141-.256-.015-.288.019-.29.1-.342.049-.075-.214.032-.409-.236-1.447-.117-2.924.021-1.452-.117-.842-.4-.03-.48-.013-.289-.24-.2-.039h-.332l-.4.088-.395.2-.246.034-.545.033-.46.059-.192.185-.063.565-.161.307-1.006.1-.276-.234-.022-.258-.277-.093-.429-.054-.257.341-.385-.044-.491-.059-.5-.122-.075-.253-.577-.278-1.434-.219-.426-.292-.513-.034-.6-.209-.375-.259-.086-.253-.235-.331-1.1-.3-.855-.2-1.09-.068-1.731.19-.161-.01-.01-.171.129-.618.042-.331.139-.678.257-.877.257-1.316.063-.419-.2-.024-.31-.034-.342-.055-.246.015-.063.054v.051l.053.1-.225-.1-.138-.044-.193-.029-.161-.009-.224.025-.353-.016-.235-.129-.054-.185.033-.244-.012-.058-.031-.1-.129-.12-.278-.482-.117-.229-.064-.084-.139-.025-.106.025h-.193l-.1-.036-.086-.074-.073-.111.01-.118.021-.105.106-.057.108-.021.075,0,.043-.271-.054-.056-.075-.09.01-.107.1-.141.3-.385.065-.19.084-.124.14-.091.021-.236.129-.21.1-.1.117-.1.033-.149v-.147l.021-.168.031-.141.139-.1.214-.029.117.012.333.054.086.053.053.163-.043.078-.182.044-.118-.027-.149.012-.065.074-.01.13-.01.119.054.12.075.086.161-.017.214-.188.106-.1.075-.071.139-.023.106.031.108.059.117-.027.064-.1-.1-.24-.075-.125-.032-.1v-.1l-.032-.069-.107-.117-.011-.1.021-.12.075-.07.15-.019.352.027.118-.032.063-.073.086-.068.128-.065.075-.021.118.023.106.1.1.1.1.068.128.082.236.037.288-.009.267-.078.183-.22.053-.17.01-.149-.053-.158.021-.185-.021-.4v-.137l-.022-.145-.053-.131-.032-.081-.15-.075-.138-.1-.14-.019-.191.029-.131-.076-.02-.134.171-.226.107-.053.192,0,.172,0,.17.019.193.027.257.03.191-.024.171-.066.149-.078.14-.287-.031-.152-.064-.148-.119-.058-.257.065-.064.127-.03.116-.065.079-.139.059-.162.021-.149-.049-.064-.151-.011-.389.022-.181.031-.083.151-.1.128-.075.224.027.224.08.213-.1.086-.17.012-.156v-.219l-.023-.166-.042-.35-.054-.312-.1-.141-.214-.251-.073-.139-.055-.13-.1-.216-.022-.169.065-.141.063-.1.1-.053.161-.023.16-.151.086-.107.043-.118-.065-.087-.1-.107-.128-.132-.107-.08-.075,0-.223.127-.032.092-.012.1-.063.087-.075.048-.129-.014-.075-.087-.064-.137-.042-.139-.021-.117.031-.1.139-.112.108-.122.278-.117.373-.172.192-.129.075-.063.086-.1-.02-.154-.086-.1-.108-.1-.118-.074-.128-.082-.15-.088-.074-.105v-.12l.021-.126.18-.056.15.059.15.1.085.076.2.122.332.1.225.042.182-.012.105-.017.214-.113v-.146l-.1-.082-.182-.057-.17-.044-.161-.012-.064-.042.022-.063.086-.115.085-.07.129-.116.074-.073.085-.1.054-.113.053-.136.107-.078.139,0,.064.063.053.132.032.1.053.114.054.124.1.059.139-.027.054-.076.022-.048.074-.147.118-.114.065-.11.053-.1.106-.085.076-.048.117,0,.1.057.075.156.085.149.107.112.118.1.1.046.119.019.085-.068.011-.126-.032-.139-.129-.19-.162-.309-.041-.2.021-.244.053-.195.054-.248.075-.244.2-.18.1-.346.032-.2.054-.151.192-.1.128-.147.171-.121.15-.663.15-.209.128-.186.139-.214.075-.141.042-.2.011-.151-.1-.273.011-.166.042-.215.053-.189.053-.083.257-.024.354-.014.118-.118.106-.341.032-.253.416-.068.151-.049.086-.2-.172-.312-.2-.088-.288-.131-.065-.162.011-.3-.011-.512,1.327-.466.534-.4.438-.746.268-.424-.194-.4-.909.141-.352.2-.61-.133-.288-.443-.011-.387.288-.86.172-.34.31-.3.673-.075.481.17.385.018.172-.208-.213-.453-.246-.5.266-.274.429-.312.352-.254.512-.1.471.227.716.067.118-.445-.277-1.378-.043-.727.2-.426-.021-.33-.407-.416-.651-.5-.2-.358.289-.463.492-.038.556-.226.642-.888.267-.358.15-.265-.022-.245-.363-.162-.471-.2-.342-.189-.021-.227.193-.245.214-.4-.118-.416-.161-.34-.128-.51.235-.424.664-.123.428-.227.438-.246.257-.34.1-.424.1-.4.127-.293-.17-.246-.235-.208-.043-.17.406-.208.427-.208-.064-.4-.138-.217.15-.377.267-1V609.7l.117-1.2.161-.84.514-.643.363-.081.663.081.556-.334.139-.433-.086-.316-.385-.29-.149-.4.118-.643.277-.542.407-.406.406-.344.193-.27.3-1.095.653-1.139-.407-.47-.524-.262-.236-.416.086-.442v-1l-.108-.814.31-.759.365-.353.5-.181.471-.154,1.731.087,1.721.259,1.133.277,1.165.2.952.167,1.261.185.406.166.279-1.218.053-.869.181-.924.652-.684,1.112-.388,1.476-.074,1.4-.036,1.037.185.48.794.577.684.62.278.781-1.627-.181-1.774.086-1.682.257-1.459.118-1,.235-.794.428-.388,1.668-.036.973.166.4.629.107.961.5,1.4.364.887.534.241,1.016.369,1.411.591,1.091.148,2.8.259.192.044-.236.872-.075,1.077.236,1.341.149,1.076.492,1.436.812,1.435,1.337,2.833.118,1.342.792.188.79.283.866.34.664.454-.545,1.152-.192,2.058-.813.435-1.132.207-1.391-.15-.951-.793-1.037.414-.279,1.927.076.623-.417.869.075.473.545.7.149,2.814-.2.775-.459.4-.406.057-.14.737.461.377.256.66-.4.775-1.282.075-1.134.114-1.476-.133-.662-.471-.769-.85-.664-.756.042,2.115v.4l-.267.718-.225.6-.193,1.115-.32,1.19.129,1.151.405,2.247-.267,1.756.1.946.4.7.6.114.877.076,1.09.114,1.037.207-.128,1.039-.866.4-.267.377.352.831-.417.453-.941,1.625-.129.85-.213.981.063,1.322.771.189,1.262.358.342,2.38.385,1.039.2.7-.117,1.02-.428.888-.737.245-1.53.133-1.175.491-.919,1.379-.309.529.064.643.245.453.385.047.417.18-.065.793.8.557.93.434.62.038,1.165.057,1.038.141.982-.17.92-.2.054,3.277-.107,2.106.139,1.388-.15.368-.235.68.16.492.267.131.534.3.085.2-.321.292-.459.1-.963.056-1-.151-1.218-.085-.845.141-.437.529-.717,2.04-.3,1.52-.9,1.927-.395,1.123" transform="translate(-1781.751 -586.289)"  stroke="#fff" stroke-linecap="square" stroke-linejoin="bevel" stroke-width="1" fill-rule="evenodd"/>
      <g id="_129_Daryapur-3" data-name="129 Daryapur" transform="translate(12.429 44.179)">
        <g id="_127_Achalpur-4" data-name="127 Achalpur" transform="translate(0 0)">
          <text id="122" transform="translate(0.09 8.89)" fill="#fff" font-size="13"  font-family="OpenSans-Bold, Open Sans" font-weight="700"><tspan x="0" y="0"></tspan></text>
        </g>
      </g>
    </g>
    <g id="_239_Amravati" data-name="239 Amravati" transform="translate(1427.85 1293.016)">
      <path id="talId239" fill="#7DB8EC" data-name="Amravati" d="M1908.475,593.35l-.031,1.172-.278,1.057-.032.491.042.547.044.435-.513.085-.417-.274-.385.133-.332.264-.481,1.219-.245.915-.129.51-.876.066-.771-.01-.406-.084-.469-.322-.44.029-.406.264-.3.312-.523.236-.288.122-.289.019-.471-.349-.33-.444-.311-.2-.394-.048-1.743-.3-.791-.133-.289.4-.277.69-.066.727-.138.444-.4.113-.7.076.065,1.01.16.85.012.567.106.491.234.246.14.349-.129.113-.5.227.246,1.444-.182,1.039.021.783.022.51-.022.623-.578.481-1.026.217-1.763.2-.45.529-.267.5-.31.4-1.058-.038-.708.019-1.538-.094-.93.075-.536.218-.309.377-.214.661-.406,4.221.342,1.219.246,1.02v1.048l-.236.812-.469.538-.93.566-1.2.435-1.5.991-.151.727.224.916.075.651.011.746.139.982.727,1.067.236.643.3.4-.171.311-.471.236-.427.434-.1.236-.086.34.139.387.127.416v.141l-.417.443-.118.445.055.378.064.406-.524.378-.78.18-.76.028-.813-.065-.522-.1-.481-.188-.577-.209-.482-.236-.48-.208-.62-.2-.407.065-.063.2.106.142.139.246-.01.283-.138.331-.054.662-.107,1.888.1.736.2.548.214.576.47.378.79.208,1.112.227.759.131.877.161.536.1.663.2.042.179.375.756.513.594.353.463,1.507.906.32.661.236.67-.075.728-.481,2.3-.63-.01-.812-.226-.825-.057-.683.114-.653-.057-.652-.256-.6.179-.365.378-.383.585-.46.643-1.028.878-.309.746.257.879.427,1.171.61,1.057.5,1,.362,1.256.033.69-.428.519-.652.284-.514.274-.512.246-.5.217-.513.33-.321,1.767.042,1.237.033,1.03-.183.528-.983.048-.47-.17-.49-.414-.461-.539-.461-.179-.672-.264-.642-.1-1.379-.473-.748-.311-.631.123-.374.528-.235.426-.043.4.245.51.321.4.46.434.16,2.464-.459,2.087-.129,1.549-.15.972-.2.6.032.661.171.388.641.094.813.047.545.151.695.35.707.426.405.349.129.283-.246,1.067-.01.972.1.586.031.557-1.56-.245-1.2-.1h-1.069l-.93.047-.921.076-.683.029-.064-1.03-.076-.963-.1-.453-.322-.35-.5-.2-2.566-.652-1.144-.51-.269-.226-.619-.52-.9-.52-.492-.434-.6-.084-.472.415-.46.557-.181.5-.589,1.35-.139.784-.075.576-.235.3-.738.123-.62.01h-1.369l-1.656-.264-1.625.084-.8.076-.973-.16-.663-.3-.546-.17-.566-.51.138-1.359.771.16.321-.027.428-1.143.267-1.388.235-.812.47-1.473.3-.991.214-.793-.3-.388-.653.086-.738.114-.995.076-.833-.076-.952-.133-.759-.358-1.86-.379-2.523-.5-1.519-.368-1.134-.576-.941-.35-.566-.132-.171-.368.331-.444.193-.359.01-.463-.117-.208-.823-.151-.428-.029-.567.2-.287.491-.353.311-.61.01h-.717l-.32.6-.332.831-.374.594-.449.7-.365.227-1.025-.189-.343-.453-.406.039-.5.406-.183.661-.085.8-.043,1.077-.364,1.765-1.121-.405-.418-1.115-.192-.482-.236-.434-.129-.3.4-1.123.9-1.927.3-1.52.717-2.04.439-.529.845-.141,1.219.084,1,.152.964-.056.459-.1.321-.292-.086-.2-.535-.3-.267-.132-.161-.492.235-.68.15-.368-.139-1.388.106-2.107-.053-3.276-.918.2-.984.17-1.037-.141-1.164-.056-.621-.039-.929-.434-.8-.557.064-.794-.417-.18-.384-.047-.247-.453-.063-.643.31-.528.919-1.379,1.177-.491,1.527-.133.739-.245.428-.889.118-1.02-.2-.7-.385-1.039-.342-2.38-1.262-.358-.77-.189-.064-1.323.214-.982.128-.85.941-1.625.417-.453-.353-.831.266-.377.867-.4.129-1.039-1.038-.207-1.09-.113-.876-.076-.6-.114-.4-.7-.1-.945.267-1.756-.406-2.247-.128-1.152.321-1.19.193-1.115.225-.6.267-.718v-.4l-.043-2.115.663.756.77.85.662.471,1.476.133,1.133-.114,1.283-.075.4-.775-.257-.661-.46-.377.138-.737.407-.057.46-.4.2-.775-.149-2.814-.546-.7-.074-.472.417-.87-.075-.623.279-1.927,1.036-.415.952.793,1.39.15,1.134-.207.811-.435.193-2.058.546-1.152-.663-.454-.866-.34-.791-.283-.791-.189-.118-1.341-1.336-2.833-.813-1.435-.493-1.436-.148-1.077-.236-1.34.075-1.077.234-.872.919.215.963-.055.91-.185.213-.167.448-.442.151-.278.535-.11.459.332.021.554-.15.37-.223.647.021.315.631.074,1.294.221,1.122.167,1.016.221.3-.443-.022-.3-.181-.814v-1.959l-.076-1.071-.2-1.072-.578-1.866,1.518-.148.931-1.164,1.145-.332,1.977.406,3.25.315.022.924-.278,1.239-.482.85-.321,1.127-.032.887.074.794,1.091.518.512.295.63.61.867.5,1.006.313.545-.147.2-.424.192-.5.481-.794.738-.647.482-.388.693-.259.579-.222,1.892-.238,1.081.755.3.68.151.68.384.321.748.17,1.1.189,1.379.207.128.68.4.6.663.4.909.057.791-.057,1.09.076,1.272.226,2.983.4,1.647.566.748.264.3.775.173.4.908.057h1.027l1.132-.226.181-.492-.128-1.416v-1.133l.245-1.114.321-1.04.268-.452,2-.057,1.721-.1,1.315.264,2.1.283,1.23-.169.706-1.115.395-.944.471-.963.674-.264,1.155.717,1.037.453,1.688.189,1.219.245,1.08.567,1.08.7.909.207,1.358-.3,1.775-.68,1.486-.133.739.283.47.6,1.23-.188.855-.567,1.058-.661.738-.245.994.132-.5,3.316.524.188.664.047.661.01" transform="translate(-1823.931 -584.802)"  stroke="#fff" stroke-linecap="square" stroke-linejoin="bevel" stroke-width="1" fill-rule="evenodd"/>
      <g id="_122_Bhatkuli-3" data-name="122 Bhatkuli" transform="translate(9.623 37.847)">
        <g id="_129_Daryapur-4" data-name="129 Daryapur" transform="translate(0 0)">
          <g id="_127_Achalpur-5" data-name="127 Achalpur" transform="translate(0 0)">
            <text id="239" data-name="Amravati" transform="translate(-0.473 9.809)" fill="#fff" font-size="13"  font-family="OpenSans-Bold, Open Sans" font-weight="700"><tspan x="0" y="0"></tspan></text>
          </g>
        </g>
      </g>
    </g>
    <g id="_242_Tiosa" data-name="242 Tiosa" transform="translate(1479.153 1288.797)">
      <path id="talId242" fill="#7DB8EC" data-name="Tiosa" d="M1905.177,593.623l.054-.623.043-.623.172-.595.31-.53,2.469-.49.738-.2.663-.386-.066-1.492.087-.5.234-.6.183-2.163,1.55-.131h1.572l.887-.039.695-.018.362-.567.033-1.284.118-1.266.107-.831.4-.435.556.718.576.453.8.188.909.571.01.292.139.322.289.238.278.118.352.214.3.2,1.154,1.291.364.531.428.307.428.219.332.15.716.619.482.453.257.331.106.282.1.24.171.175.311.116.364.107.288.093.256.107.267.171.417.5.279.449.172.16.416.127.332.078.342.122.193.2.16.214.577.6.374.293.321.2.375.214.171.156.15.16.1.181-.01.322-.256.322-.342.307-.214.126-.311.156-.245.259-.214.277-.042.219-.043.161-.01.312-.064.789-.055.491-.459.58-.417.263-.2.21-.224.307-.128.254-.108.3-.074.292.032.467.225.853.2.4.278.366.171.19.256.181.246.082.545.025h.288l.246-.03.7-.136.363.239.161.228.075.254.042.308-.171.623-.032.331.2.366.2.423.118.7.075,1,.086.615.117.395.289.926.2.379.021.3v.678l-.224.8v.614l-.074.653-.1.238-.343.585-.288.594.322.823.2.244.32.4.128.307.043.657-.181.462-.247.416-.319.516-.235.366-.279.2-.331.141-.31.015-.31-.034-.406-.029-.225.1-.236.571.086.36.246.322.375.331.31.239.364.287.224.225.213.37.063.814.055.57-.118.385-.256.435-.545.677-.546.629-.352.428-.289.677-.128.594.033.809-.012.419.267.906.225.4.31.254.523.273.226.136.587.355.16.141.429.472.224.609-.086.566-.053,1.16.053,1.847.16,1.052.054,1-.161.546-.129.244-.235.311-.407.419-.566.7-.022.371.149.336.321.259.536.263.6.244.652.292,1.058.531,1.058.135.524.093.374.219.31.244.29.312.353.511.127.346.031.409-.17.526-.086.292-.086.362.193.395.309.278.343.375.62.551.235.375.032.258-.032.326-.438,1.322.01.458.321.259.343.2.308.2.15.157.118.249.1.355.225.78.363.267.33.2.343.17.364.127.321.078.374.073.417.04.62.092,1.09.316.663.04.416-.01.514-.215.331-.068.6-.355.065-.35.054-.415-.118-.248.235-.463.322-.122.234.156.235.258.247.219.276.278.364.361.566.678.653.292.492.1.471.112.235.122.256.179.3.24.277.16.694.151.546.161.653.165.544.176.364.156.407.3.492.633.309.215.353.082.332.074.363.078.364.1.128.165.033.288-.033.277-.042.308.042.263.086.253.118.224.235.5.15.463.149.41.192.233.321.244.331.225.524.336.459.453.513.594.4.347.289.2.182.263.032.214-.066.707v.81l.258.867.383,1.219.16.307.3.467.257.225.461.16.319.049.268-.107.353-.1.331-.059.428.049.31.17.214.478-.031.365-.085.38-.088.321-.17.326-.139.517.032.376.214.311.31.249.342.146.3-.024.3-.152.289-.2.32-.32.193-.274.343-.385.118-.151.351-.5.46-.161.471.039.31.156.545.345.128.225.011.214-.054.293-.074.194-.032.195.032.2.053.17.364.443.4.469.149.457.021.322-.149.5-.161.253-1.1.9-.62.244-.4.034-.416-.044-.417-.059-.3-.048-.352-.034-.269.034-.16.058-.406.425-.01.326.107.175.192.318.042.244-.075.258-.192.429-.3.371-.321.477.183.429.181.546.021.755-.16.736-.331,1.345-.172.956-2.4-.8-2.417-1.209-.223-1.637.031-.585.14-.5.417-.642.353-.565-.46-.185-.759.048-2.16.206-.31.379-.117.371-.246.146-.5.127-.481-.272-.694-.156-.439-.3-.429-.029-.834.331-.577.146-.545.1-1.444-.449-2.491-1.091-.258-.321-.255-.741.159-.575.064-.516-.308-.322-.365-.458-.557-.283-.791.088-.822.175-.866.186-.364.517-.288.341-.461.244-.438-.215-.128-.77-1.3-.516-1.337-.04-.812-.088-1.069-.029-.566.263-.151.263-.47.547-.321.067-.695.078-.471.02-.727-.1-.78-.458-1.979-1.305-.94-.391-.363-.457-.3-1.443-.032-.858.214-.652.609-.429.353-.779-2.641-3.508-1.176-1.706-.781-.155-.994.029-.716.126-.834.4-.9.156-.641-.147-.663-.311-.576-.273.053-.915.032-.634.118-.691.022-.526-.6-.449-.588-.126-.481.019-.716.283-.588.264-.878.351-.5.223-.845.108-.727-.224-.022-.672-.138-1.161.022-1.374.032-.809-1.327-.419-.021-.809-.117-.936-.064-1.169-.107-.692-.652-.547-.8-.351-1.359-.487-.886.05-1.187.447-1.615,1.628-.439.615-.438.945-.287.906-.321.41-.578.126-.887.019-1.1-.156-1.262-.039-.6.1-.7-.282-.854-.156-1.133-.088-.236.926.181.867-.149.536-.375.605-.343.36-.523.457-.587.6-.5.575-.566.263-.845-.165-1.069-.088-.032.624-1.518.379-.641.293-.973.332-.717.233-.523.156-.567.371-.385.379-.5.331-.556.068-.214-.234-.021-.458.171-.253-.129-.468v-.263l.033-.682-.043-.507-.418-1.013-.79-1.151-.758-.486-.5-.341-.61-.089-.835-.155-1.218-1.062-.4-.5-.471-.779-.064-.779-.321-.936-.118-1.632.481-2.3.076-.728-.236-.67-.321-.661-1.507-.906-.353-.463-.512-.6-.376-.756-.042-.179-.663-.2-.534-.1-.877-.161-.759-.132-1.112-.227-.791-.208-.47-.379-.214-.576-.2-.547-.1-.737.108-1.888.053-.662.139-.33.011-.283-.139-.246-.106-.141.063-.2.407-.066.619.2.481.207.482.237.577.209.481.188.524.1.813.065.759-.028.781-.179.524-.378-.064-.406-.054-.378.118-.445.416-.444v-.141l-.127-.416-.14-.387.086-.34.1-.237.427-.434.472-.237.17-.311-.3-.4-.235-.642-.727-1.067-.138-.982-.011-.747-.074-.651-.225-.916.149-.727,1.5-.991,1.2-.435.929-.567.471-.538.235-.812v-1.048l-.246-1.02-.343-1.219.407-4.221.214-.661.31-.378.534-.218.929-.075,1.54.094.706-.019,1.058.039.31-.4.267-.5.45-.53,1.765-.2,1.026-.217.578-.481.022-.624-.022-.51-.021-.783.182-1.039-.246-1.445.5-.226.129-.114-.139-.35-.234-.246-.107-.491-.01-.566-.161-.851-.064-1.01.694-.076.4-.113.139-.444.066-.727.277-.689.289-.4.79.133,1.742.3.4.048.31.2.331.444.471.35.289-.019.288-.122.524-.236.3-.312.406-.264.44-.029.469.322.406.085.77.009.876-.066.128-.51.246-.915.481-1.219.331-.264.385-.132.416.273.513-.084-.043-.435-.043-.547.033-.491.278-1.057.031-1.172" transform="translate(-1871.67 -580.846)"  stroke="#fff" stroke-linecap="square" stroke-linejoin="bevel" stroke-width="1" fill-rule="evenodd"/>
      <text id="242" transform="translate(22.848 52.875)" fill="#fff" font-size="13"  font-family="OpenSans-Bold, Open Sans" font-weight="700"><tspan x="0" y="0"></tspan></text>
    </g>
    <g id="_240_Chandur_Railway" data-name="240 Chandur Railway" transform="translate(1471.115 1355.529)">
      <path id="talId240"  fill="#7DB8EC" data-name="Chandur Railway" d="M1868.6,673.56l-.032-.557-.1-.586.01-.972.245-1.067-.127-.283-.406-.35-.706-.425-.7-.35-.544-.151-.813-.047-.641-.094-.171-.388-.033-.66.2-.6.15-.973.128-1.549.459-2.087-.161-2.464-.459-.434-.321-.4-.245-.51.042-.4.236-.426.374-.528.632-.123.748.311,1.38.472.641.1.673.264.461.18.459.539.491.415.472.17.984-.047.181-.528-.033-1.03-.043-1.237.321-1.767.513-.33.5-.217.514-.246.512-.274.654-.283.427-.52-.031-.69-.365-1.256-.5-1-.609-1.057-.428-1.171-.256-.879.309-.746,1.027-.878.46-.642.385-.585.365-.378.6-.18.652.255.651.057.684-.113.824.056.812.227.631.01.118,1.633.321.936.064.779.47.78.4.5,1.219,1.063.834.154.61.089.5.341.76.486.79,1.151.417,1.013.043.507-.032.682v.263l.128.468-.171.254.021.457.214.234.557-.068.5-.332.384-.379.567-.371.522-.156.718-.233.973-.332.641-.293,1.519-.379.032-.624,1.069.088.844.165.567-.262.5-.575.586-.6.526-.457.341-.36.375-.605.148-.535-.181-.867.235-.926,1.133.088.856.156.7.283.6-.1,1.262.039,1.1.155.886-.019.577-.126.321-.41.289-.907.438-.945.439-.615,1.615-1.627,1.186-.448.887-.049,1.357.488.8.35.651.546.107.691.064,1.17.118.936.021.808,1.326.419-.032.809-.022,1.373.139,1.16.021.673.727.225.846-.108.5-.224.876-.351.588-.264.717-.283.48-.019.589.126.6.449-.021.526-.117.691-.031.634-.054.915-.407.682-.225.4-.428.487-.448.166-.277-.224-.375-.282-.375-.107-.609-.069-.621-.068-.609-.1-.663-.156-.492-.126-.428-.166-.364-.243-.214-.244-.384-.293-.3.1-.309.409-.257.6-.235.642-.215.673-.289.634-.31.564.055.829.031.867-.214.488.2.7.641,4.357-.95.955-1.112.682-.876.43-1.422.019-.952-.1-.823.117-1.187.448-.727.6-.31.585.2.859.46.584.257.683.215.682.171.6.043.663.288.429.942.448.758.038.856.021.47-.663.588-.507,1.112-.371.952.059.684.507.191.682-.095.956-.118,1.032.075,2.768-.1,1.325-.02.877.309.545.994.234-.149.838-.288.974-.118.995-.448.682-.995.273-1.443-.175-.855-.1-.609.332-.375.35-2.063.41-.021,1.208.086,1.56.428,1.208,1.208,2.183.663,2.885.1,2.047.289,1.89.043,1.072.663.429,1.346.135,1.262.1,1.272.1.878.038,1.026-.059.664-.038.1.467-.695.487-.065.274-.053.194.128.5.513.6-.106.327-.29.141-.193.019-.278-.048-.1-.2.065-.224-.012-.219-.213-.078-.395-.093-.3-.092-.28-.229-.181-.219-.257-.25-.277-.17-.642.092-.438.151-.333.1-.416-.068-.321-.019-.214.117-.064.165-.086.073-.385.078-1.2.141-1.486.215-.534.1-.835.2-.171.229-.1.351-.021.391.042.5-.086.2-.458.021-.568.063-.993.082-.246.391-.1.346-.149.356-.193,1.364-.033.546-.31.151-.256.2-.277.278-.2.238-.107.3.588.863.384.292.161.215.117.19.172.316.042.219-.546.322-.267.326-.341.263.042.219.064.264-.1.146-.171.006-.375-.034-.223-.015-.237.025-.256.025-.3.078-.245.112-.268.1-.309.024h-.374l-.513.068-.353.073-.375.03-.5-.005-.236.131-.2.1-.075.025-.129-.044-.278-.078-.1-.137-.161-.038-.1.136-.011.244.041.21.054.234.021.18-.053.234-.192.259-.161.257-.171.23-.1-.015-.2.379-.2.21-.2.181-.246.219-.245-.059-.182-.1-.257-.082-.363.292-.171.19-.427-.219-.279-.273-.631-.653-.214-.156-.309-.214.032-.244.107-.254.407-.293-.2-.194-.364-.068-.578.107-.555-.194-.033-.478.429-1.227.266-.673-.074-.419-.139-.77-.545-.409-1.111-.507-4.309-.5-2.352.039-.076-.672-7.8-.127-.352-.117-.01-.537-.1-.486-.5-.419-.214-.38.01-.945-.161-.663-.331-.429-.161-.614-.15-1.706-.1-.915-.108-.809-.129-1.852-.053-1.1-.214-.926-.321-.907-.844-2.787.171-.477.009-.361-.16-.273-.972-.088-.245-.116-.108-.517.054-.546.245-.438.087-.5.043-.467-.578-.2-.621-.145-.962-.166-1.112-.283-1.411-.448-.77-.429.385-2.223-.107-.955-.459-.682-.1-.624.31-.506.482-.137.866.04.481.233.524.351.513.078.46-.194.235-.448.3-.682.289-.74.705.156.385.175h.449l.352-.507-.428-1.385-1.111-1.637-.31-1.072-.491-.915-.429-1.091-.406-1.171" transform="translate(-1864.34 -643.301)"  stroke="#fff" stroke-linecap="square" stroke-linejoin="bevel" stroke-width="1" fill-rule="evenodd"/>
      <g id="_122_Bhatkuli-4" data-name="122 Bhatkuli" transform="translate(7.932 27.795)">
        <g id="_129_Daryapur-5" data-name="129 Daryapur" transform="translate(0 0)">
          <g id="_127_Achalpur-6" data-name="127 Achalpur" transform="translate(0)">
            <text id="240" data-name="Chandur Railway" transform="translate(-0.047 9.348)" fill="#fff" font-size="13"  font-family="OpenSans-Bold, Open Sans" font-weight="700"><tspan x="0" y="0"></tspan></text>
          </g>
        </g>
      </g>
    </g>
    <g id="_132_Nandgaon_Khandeshwar" data-name="132 Nandgaon Khandeshwar" transform="translate(1412.177 1370.38)">
      <path id="talId132"  fill="#7DB8EC" data-name="Nandgaon Khandeshwar" d="M1872.4,672.612l.406,1.171.429,1.092.492.915.31,1.072,1.111,1.637.428,1.384-.352.507h-.449l-.385-.175-.706-.156-.288.741-.3.682-.236.448-.46.195-.513-.078-.524-.35-.482-.233-.864-.039-.482.137-.31.507.1.623.461.682.107.955-.385,2.223.77.429,1.412.448,1.111.283.962.166.62.145.577.2-.041.467-.087.5-.246.438-.053.546.106.517.246.117.973.087.16.273-.01.361-.172.477.845,2.787.321.907.214.926.053,1.1.129,1.852.107.809.1.915.149,1.706.161.614.33.429.161.663-.011.945.214.38.5.419.1.486.011.537.353.116,7.8.127.075.672,2.352-.039,4.309.5,1.112.507.545.41.139.77.075.419-.267.673-.429,1.227.033.478.555.195.577-.107.364.068.2.194-.407.293-.106.254-.031.243.31.214.214.156.631.653.277.273.428.219-.321.292.031.22-.053.175-.128.1-.139.068-.107.108-.053.119-.118.1-.192.053-.1.064-.149.253-.1.168-.053.156-.021.172-.1.181-.063.11-.193.258.1.341.075.263.129.571.1.321.01.25-.117.17-.4.546-.213.366-.171.2-.2.244-.234.165-.322.253-.3.166-.4.078-.706.053-.482.171-.192.229-.257.3-.385.375-.438.356-.556.355-.268.19-.246.165-.182-.126v-.244l.032-.307-.042-.175-.352-.074-.225.137-.117.147-.107.044-.161-.19-.033-.2-.245-.083-.118.156-.032.253-.128.21-.1.053-.225.1-.331-.186-.459.059-.321.112-.493.082-.287.083-.311.17-.085.278-.075.375.022.721-.236.248-.257.132-.171.2-.065.3-.01.682-.18.394-.2.238-.3.108-.278.092-.235.01-.13-.117v-.229l.032-.263.021-.313-.1-.273-.342-.122-.236-.049-.566-.038-.31.092-.128.166-.129.244-.256-.059-.161-.185-.085-.3-.032-.283.075-.38.064-.267.15-.512.866-1.7.117-1.271.053-.9-.246-.292-.277-.04-.289-.023-.1-.093-.053-.194.063-.327.193-.379.215-.468.063-.545.213-.638-.041-.571-.087-.6-.192-.5-.567-.059-.086-.146-.181-.308-.183-.292-.235-.327-.192-.283-.236-.341-.225-.409-.459-.146-.257-.055-.278-.1-.278-.069-.255-.1-.343-.258-.161-.219-.353-.545-.246-.341-.15-.287-.129-.03-.6.015-.213.009-.919-.069-.321.078-.1.185-.043.362-.117.311-.171.337-.194.17-.17.205-.129.268-.118.3-.266.887-.15.341-.181.214-.172.107-.342-.019-.182-.107-.182-.127-.321-.243-.384-.092-.471-.049-.813.249-.084.346-.011.371.021.951.16.486.1.975.021.589-.32.331-.353.23-.556.438-1.551.575-.94.219-.675.023-.479.044-.011,1.244-.042.667.073.4.054.566.321.866.043.332-.343.428-.405.312-.482.429-.353.341-.341-.029-.62-.575-.823-.623-.8-.663-.706-.575-.4-.448-.45-.517-1.036-.749-.707-.254-.524-.165-.513.019-.214.282-.139.244-.064.4-.032.389-.032.625-.128.623-.149.507-.214.847-.054.624-.406.311-.652.088-.5.078-.717.215-.535.135-.332.449-.2.36-.15.438-.63,1.452-.374.878-.161.4-.353.35-.353.263-.533.322-.589.223-.781.234-.439.156h-.181l-.171-.478-.332-.535-.543-.156-1.412-.234-1.155.146-.481-.039-.908-.907-.449-.858-.278-.546-.417-.575-.245-.993-.556-.4-.771.01-.364.106-.47.2-.364.088-.576-.293-.375-.116-1.048-.488-.673-.248-.609-.186-.471-.088-.5.015-1.295.156-.887-.132-.418-.175-.449-.2-.47-.214-.716-.361-.439-.215-.234-.092-.118-.253v-.3l-.021-.282.011-.741.01-.092-.417.082-.449.059-.427,0-.375-.024-.781-.049-.952-.269-.385-.2-.437-.1-.385.118-.214.048-.3-.088-.321-.038-.321.107-.213.332-.15.838.01.448-.129.3-.214.234-.246.155-.277.142-.214,1.139-.545.044-.726-.034-.813.036-1.615-.056-1.111-.156-1.176-.141-.641-.151-.31-.1v-.37l.064-.356.171-.409.256-.448.214-.81.074-.511.332-.143.224-.194.161-.444.257-.613.813-1.57.459-1.13.31-1.4.16-.594.075-.341.309-.044.172-.024.073-.342.066-1.686.148-.789.011-.433.3-.878.288-.692.352-.253.235-.281.171-.41.022-.477.128-.313.4-.341.288-.244.225-.263.181-.6-.17-1.812-.685-.186-.48-.117-.963-.185.075-.819.289-.555.352-.419.374-.274.225-.467-.042-.428-.491-.234-.375.01-.535.175-1.848.459-.706.029-.32-.01-.268-.535.171-2.086-.545-.381-.032-.585.171-.536.4-1.374.278-.956.341-1.159-.139-.779-.01-.518-.417-.282-.481-.282-.375-.429-.192-.527.1-.623-.032-.722.193-.438.267-.517.1-.389-.674-.312-.824-.185-.94-.283-.749-.1-.577-.1-.844-.078-.577-.113.513-4.683.234-1.12-.032-.775.781-1.1.46-1.223-.246-.766-.664-.3-.127-.686.053-.258.106-.273.332-1.721-.032-.487.214-.707.288-.76-.5.1h-.545l-.716.005.01-.823-.064-1.623-.128-1.019-.054-.516-.128-1.33-.663-.078-.631-.073-.576,0-.365-.189-.652-.38-.4-.157-.491-.151-.215-.215v-.345l.054-.395.042-.3-.031-.249-.172-.063.031-1.019-.074-.477.2-.337.267-.082.664-.229.245-.907.225-.58.182-.311.373-.253.385-.068.856.088,1.208.165.6.313,1.208.457.9.639.312.093.437.092.525-.1.631-.175.78-.214.588-.341.257-.064.373-.019.536.029.566.059.481-.038,1.379-.877.257-.346.309-.278.482-.268.449-.18.652-.033.129.3.235.434.192.481.417,1.115,1.123.405.363-1.765.041-1.077.086-.8.182-.661.5-.406.406-.039.341.453,1.027.189.364-.226.448-.7.376-.594.331-.831.32-.6h.717l.609-.01.353-.311.288-.491.567-.2.427.029.823.151.118.207-.01.463-.194.359-.331.444.171.367.568.133.941.35,1.133.576,1.518.368,2.523.5,1.861.378.759.359.951.132.834.076.995-.076.739-.114.652-.086.3.388-.214.793-.3.991-.47,1.473-.235.813-.268,1.388-.428,1.143-.319.028-.77-.161-.14,1.36.568.51.545.17.662.3.973.16.8-.076,1.625-.084,1.658.264h1.368l.619-.009.738-.123.236-.3.075-.576.139-.783.588-1.35.182-.5.459-.557.47-.415.6.084.492.434.9.519.62.52.268.227,1.144.51,2.566.652.5.2.322.35.1.453.075.964.063,1.03.685-.029.918-.076.931-.047h1.068l1.2.095,1.562.245" transform="translate(-1809.31 -657.021)"  stroke="#fff" stroke-linecap="square" stroke-linejoin="bevel" stroke-width="1" fill-rule="evenodd"/>
      <text id="132" data-name="Nandgaon Khandeshwar" transform="translate(13.823 31.292)" fill="#fff" font-size="13"  font-family="OpenSans-Bold, Open Sans" font-weight="700"><tspan x="0" y="0"></tspan></text>
    </g>
    <g id="_125_Morshi" data-name="125 Morshi" transform="translate(1456.055 1227.643)">
      <path id="talId125"  fill="#7DB8EC" data-name="Morshi" d="M1925.038,545.394l-.781-.229-.47-.375-.321-.223-.245-.249-.247-.16-.683.082-.416.219-.535.21-.332-.058-.32-.137-.2-.126-.525-.469-.555-.322-.7-.1-.385.039-.609.131-1.1.37-.426.278-.333.3-.139.3-.032.35.171.3.161.282.235.4.2.907.321.984.2.633-.01.935.033.619-.011.458-.074.4-.075.53-.364,1.009-.148.516-.055.423-.459.956-1.059,1.481-.342.722-.31.585.1.395.459.341.428.3.491.36.727.429.556.361.182.385.429,1.082.02.7-.127.828-.407.335-.385.556-.5.4-.364.034-.192-.111-.172-.415-.331-.312-.758-.053-.5.005-.438.147-.385.36-.267.463-.118.414-.182.868.011.623.086.37-.022.175-.15.166-.171.166-.151.19-.2.356-.5.789-.1.351.064.38.1.273.075.259.042.12.257.722.352.609.1.292.021.24.01.243-.021.405.138.438.193.2.31.1.407-.039.416-.175.342-.088.375.019.575.107.258.2.2.2.278.618.181.5.108.238.032.219-.065.253-.15.137-.192.122-.247.2-.17.317-.075.439v.229l.065.332.149.248.2.312.461.522.448.282.438.137.406.155.385.21.641.443.641.7.588.595.813,1.072.471.545.288.293.139.223.054.283.256,1.164.087.5.032.312-.118.686-.15.337-.181.189-.448.25-.556.457-.076.293-.907-.571-.8-.188-.577-.453-.556-.718-.4.435-.107.83-.119,1.266-.032,1.284-.363.566-.695.018-.886.039H1913.1l-1.55.132-.182,2.163-.235.6-.086.5.065,1.492-.664.387-.738.2-2.47.491-.309.53-.172.594-.042.623-.054.624-.663-.01-.662-.047-.525-.188.5-3.316-1-.131-.737.245-1.058.662-.856.567-1.229.188-.47-.6-.738-.284-1.485.133-1.776.68-1.358.3-.909-.207-1.079-.7-1.08-.567-1.219-.245-1.689-.19-1.038-.453-1.155-.718-.673.264-.47.963-.4.944-.705,1.115-1.23.169-2.1-.283-1.314-.264-1.722.1-2,.056-.268.452-.32,1.039L1875,598.37V599.5l.127,1.416-.182.492-1.134.227h-1.026l-.908-.057-.171-.4-.3-.775-.748-.264-1.647-.566-2.981-.4-1.274-.226-1.089-.076-.792.056-.909-.056-.662-.4-.4-.6-.128-.68-1.379-.207-1.1-.189-.749-.17-.385-.321-.148-.68-.3-.68-1.08-.756-1.891.238-.258-.85-.2-.683.054-.832-.054-2.144.406-.111.974.24.727.13,2.748.627,1.614.647.759-.591.278-.942.107-1,.075-.831.459.2,1.037.313,1.2.038.6-.2v-.794l-.343-.611-.534-1.811-.2-.665-1.047-.425-1.593-.277-1.924-.388-.844-.277-.15-1.737-.235-.905-1.316-.111-1.037.2-.577.313.064,1.055-.1.942-.738-.055-.577-.369-.61-.721-.159-.352.213-.683.427-.7.1-.647.535-1.146.759-3.955-.662-1.4-.277-.5-.536.609-.683.222h-.931l-.738-.24-.3-.74-.032-1.015.332-1.423.022-1.59.033-1.33.321-.832.694.425.535,1.127.449.924.331.831.5.647.64-.7.171-1.515.514-1.349.3-1.017.683-2.383-.245-1.719-.9-.462-.022-.868.354-1.165.129-2.274.331-.9,1.09.536.994.258.631-.5.385-1.405.33-.757.728-.443.9.111.374-.148.374-.406.694-1.312-.586-.573-.2-.832-.021-.424v-3.013l.662-1.091,1.155.7,1.551.591.843.425.877.222.331-.48.352-.85-.225-1.9-.128-.979-1.422-.129-1.155-.129-1.047-.092-1.059-.222-.919-.24-.225-.444.2-.961.481-.905.685-2.015.588-1.219v-.886l-.343-.61-.4-.665-.106-.906.353-.663,1.08.9.684.5.289.351.321.219.736.3.706.1.6.073.225.253.055.288.534.034.567.088.919.006.738-.03.46.059,1.539.531.759.044.4.116.1.3-.043.341-.054.254-.065.194-.085.322-.043.531.257.054.407-.132.31-.15.416-.1.363.01.417.058.973-.014.952.019.674,0,.428-.078.385-.088.331-.18.331-.219.684-.322,1.123-.337.94-.214.76-.337.78-.273.588,0,.578.057h1.049l.416.035.1-.268-.117-.38-.01-.326.031-.322.1-.273.266-.853.2-.293.427-.1,1.241-.345,2.8-.747,1.133-.272,1.615-.015.7.045.6-.011,1.1-.2.513-.2.481-.341,1.336-.892.887-.819.438-.38.47-.068.7-.068.438.005.952-.687.321-.168.416-.059.343.019.321.008.343-.044.373-.078.824-.307.7-.254.407-.219.374-.336.589-.466.609-.338.728-.546.663-.457.374-.42.332-.341.673-.02.525-.126.609-.156.919-.234.642-.146.672-.146.588-.206,1.026-.517.813.254,2.405-.107,1.208.029.62.2.535.546.641.331,1.016.313,1.186.1.568-.3.394-.341.449-.429.384-.224.6-.2.758.03.941.292.416.575.236.322.459.214.578.234.63.478.567.857-.16,1.364-.2.809-.823.974-2.321,1.52-1.2,1.141-.758,1.559-.225.56-.535.278-.439.093-.406.141-.171.238-.064.371-.01.574.032.975-.032.6.074.452.32.342.642.633.332.556.181.614-.01,1.262-.075.259-.193.191-.213.209.021.239.289.093.363.092.192.234-.245.677-.171.385-.064.678.011.589" transform="translate(-1850.22 -523.514)"  stroke="#fff" stroke-linecap="square" stroke-linejoin="bevel" stroke-width="1" fill-rule="evenodd"/>
      <text id="125" transform="translate(16.945 45.029)" fill="#fff" font-size="13"  font-family="OpenSans-Bold, Open Sans" font-weight="700"><tspan x="0" y="0"></tspan></text>
    </g>
    <g id="_126_Warud" data-name="126 Warud" transform="translate(1521.606 1185.195)">
      <path id="talId126"  fill="#7DB8EC" data-name="Warud" d="M1920.819,548.144l-.011-.589.064-.678.171-.385.245-.677-.193-.234-.363-.092-.288-.093-.022-.239.214-.209.193-.19.074-.259.011-1.262-.182-.614-.332-.556-.642-.633-.32-.342-.075-.453.033-.6-.033-.975.011-.574.064-.371.171-.238.406-.141.438-.093.536-.278.224-.56.759-1.559,1.2-1.141,2.321-1.52.823-.974.2-.809.161-1.364-.568-.857-.63-.478-.578-.234-.46-.214-.236-.322-.416-.575-.942-.292-.758-.03-.6.2-.384.223-.449.429-.4.341-.567.3-1.186-.1-1.016-.312-.642-.332-.534-.545-.62-.205-1.208-.029-2.406.107-.812-.254,1.454-.739,1.455-.781,1.518-1.383,1.155-1.121,1.177-.79,2.063-.526.994-.575,1.069-.711.78-.263,1.048-.672,1.518-1.179,1.508-.926,2.426-1.463,2.287-1.159,2.065-1.326,1.185-.644.119-.37-.193-.751-.118-.448-.1-.39-.085-.322.492.166.363-.175.3-.292.331-.253.14-.38-.023-.3-.16-.272-1.282-1.491-.461-.575-.245-.487.064-.37.459-.253.2-.293.032-.351-.022-.614-.449-1.3-.054-1.472.408-1.325.523-.858.941-.974.9-.1,1.027.156.994.3.972.273.8.224,1.134.088h1.86l1.036-.01.973-.137,1.059-.4.577-.244,1.293-1.229.749-.526.9.107.491.156.758.029.664-.3.972-.2,1.412-.389.726-.35.471-.122.364-.131.491-.146.289-.176v-.19l-.16-.238-.247-.127-.224-.092-.129-.122-.1-.1-.223-.166-.289-.063-.342-.206-.246-.166-.268-.185-.192-.21-.223-.292-.236-.2.022-.316.107-.3.011-.219-.087-.253-.074-.224.054-.234.1-.185.278-.575.236-.395.224-.219.374-.069.449.059.309.107.225.044.342.025.514-.229.459.17.353.293.236.331.268.3.213.3.171.151.417-.005.4.02.717.175.427.224.332-.019.288-.054.385-.019.342.029.877.015.332-.03.3.034.064.249.128.477.053.581.108,1.008.009.512-.031.316-.075.171.29.1.375.078.17-.493.363-.068.5-.117.482-.063,1,.015.429.063.8-.166.4-.254.29-.224.353-.3.309-.463,1.465-1.193.812-.683.77-.5,1.145,2.169.833.771.493.458.245.093.491-.083.407-.126.866-.107.941-.346.641-.366.428-.258.684-.415.546-.545.406-.57.309-.453.15-.566.065-.579-.171-1-.172-.541-.181-.336-.022-.312.01-.341-.042-.316-.523-.672-.246-.37-.224-.352-.14-.326-.107-.322-.043-.292.033-.215.405-.034.438-.024h.4l.491.01.385-.04.289-.1.277-.077.461-.064h.567l.448.1.289.151.075.244.032.259.01.239-.021.293.15.263.214.175.384.122.385.078.331-.093.46-.117.341-.083.578-.156.738.069.375.268.342.326.319.288.226.346.417.511.47.215.332.166.364-.015.342.01.394.005.375.014.193.166-.085.259-.14.19-.213.3-.267.478-.364.448-.225.463-.085.316-.053.463-.1.264-.1.33-.033.234-.086.814-.031.824.042.448-.151.907.065.209.482.01.48-.04.257.093.193.156v.244l-.011.526.021.175.1.579-.012.371.193.288.075.272.1.3.022.23-.022.273-.074.258-.182,1.135.01.634-.128.316-.171.453.01.414.1.2.3.088.364.044.287.166.128.258.877,1.135.236.284.021.36-.053.341-.151.278-.182.2-.257.179-.374.425-.044.21.076.36.214.278.289.16.321.156.2.2.5.556.225.3.085.249-.085.288-.118.151-.31.053-.289-.005-.257,0-.245.116-.16.21-.042.2.332.448.352.385.043.385-.076.386-.074.243v.283l.266.619.055.36-.183.219-.63.215-.461.185-.063.288.074.3.224.2.256.21.086.171.011.21-.064.233-.15.239-.13.2-.48.6-.074.419.021.273.053.3.032.336-.139.4-.117.356-.032.292.17.366.31.171.406.2.642.263.384.181.214.117.076.263-.065.185-.107.283-.171.477.116.361.279.248.225.1.2.23-.022.2-.065.225-.138.267-.139.6.054.341.2.317.225.253.128.463v.263l-.064.215-.021.336.043.2.246.18.181.268.032.307-.054.253-.193.194-.2.069-.182.019-.246.088-.15.156-.021.23.054.219.256.336.278.434.119.663.031.765.054,1.286.074.474-.064.336v.36l.2,1.438.116.419.108.345.353.142.4.111.32.088-.01.619.02.624-.031.307-.214.209-.353.078-.331.024-.3.083-.246.166-.257.078-.171-.03-.353-.12-.609.019-.278.029-1.028.478-.4.238-.321.156-.354.093-.352.077-.139.049-.075-.234V536.4l-.171-.166-.2.015-.053.112v.21l-.064.2-.139.161-.513.415-.364.18-.192.259.2.078.289-.068.2-.137.288-.156.1-.024.171.2-.107.3-.171.259-.257.189-.266.181-.268.151-.16.118-.14.176-.16.18.022.1-.258.141-.117-.03-.214-.341-.266-.214-.32-.03-.246.093-.172.2-.064.268.107.249.161.258.064.166.022.272-.225.225-.236-.073-.332-.137-.471-.194-.77-.229-.33-.074-.385-.1-.438-.127-.406-.336-.15-.4-.268-.3-.14-.214-.35-.112-.226.029-.288.166-.4.478-.183.238-.266.112-.311-.01-.662-.287-.331-.171-.13-.263-.032-.248-.01-.293-.16-.267-.15-.268-.171-.215-.407-.077-.93.2-.375.074-.491.263-.15.156-.085.351.1.268.235.677-.01.556-.2.311-.235.2-.459.078-.471-.01-.267.083-.481.375-.331.073-.385-.048-.333-.01-.3.058-.609.053-.214-.243.053-.342.14-.311.085-.2-.139-.263-.278.059-.235.17-.1.3-.074.371-.1.414-.139.292-.236.307-.246.278-.385.341-.5.394-.373.156-.333.091-.364.059-.224.029-.277.112-.1.127-.277.438-.1.19-.161.126-.224.069-.374-.131-.29-.044-.255-.015-.439.146-.567.263-.331.272-.385.371-.353.244-.354.141-.224.126-.278.263-.064.2-.022.258-.064.272-.084.224-.322.185-.181.034-.46.054-1.175.166-1.059.537-.92.507-.652.263-.256.01-.406-.147-.449-.16-1.059-.131-.64.039-.321.093-.194.141-.2.248-.118.268-.064.346-.257.385-.234.141-.354.082-.512.146-.44.156-.63.253-.6.322-.984.541-.491.257-.138.21-.055.176.055.341.042.259-.042.629-.161.2-.471.278-.267.06-.439-.061-.213-.039-.246-.044-.214-.012-.267.046-.652.329-.373.138-.289.051-.277,0-.194-.03-.333-.068-1.325-.375-1-.341-.78-.368-1.133-.2-.46-.033-.363.08-.278.055-.406.036-.9.166-.449.173-.236.053-.321.019-.107-.023-.438-.108-.491-.136-.311-.08-.439-.076-.341-.029-1.005.014-.524,0-.439.055-.781.156-.417.034-.406-.007-.822-.082-.675.055-.459.078-1.155.032-.653-.118-.534-.17-.267-.307-.076-.4-.042-.307-.086-.429-.107-.337-.374-.311-.224-.161-.545-.1-.749-.161-.534-.132-.943-.224-1.272-.263-.63-.162-1.369-.58-.854-.341-.855-.171" transform="translate(-1911.271 -483.717)"  stroke="#fff" stroke-linecap="square" stroke-linejoin="bevel" stroke-width="1" fill-rule="evenodd"/>
      <text id="126" transform="translate(28.394 44.478)" fill="#fff" font-size="13"  font-family="OpenSans-Bold, Open Sans" font-weight="700"><tspan x="0" y="0"></tspan></text>
    </g>
    <g id="_128_Chandur_Bazar" data-name="128 Chandur Bazar" transform="translate(1401.907 1235.19)">
      <path id="talId128" fill="#7DB8EC" data-name="Chandur Bazar" d="M1804.824,599.808l.631-.506-.063-.588-.942-.47-.716-.551-.566-.381-.909-.081-.738-.089-.46-.154-.3-.542-.234-1.447.223-.452.577-.5.545-.507,1.08-1.238.353-.687-.15-.434-.534-.452-.385-.542.353-1.14.343-1.112.118-.8.406-.542.376-.127.683.227.353.144.3-.136.118-.28.181-1.492.288-.588.033-.524-.374-.272.074-.471.192-.317.054-.487.406-1.519-.033-1.2-.009-.542-.268-.976.149-.805.214-.126.632.27.576.5.108.551-.086.352-.566.416.107.316.384.235.373.344.033.489.106.533.407.461.268.46.235.081.384-.252.161-.245-.171-.579-.235-.325-.225-.39-.3-.4v-.56l.118-.489.138-.732.086-.461.1-.416-.139-.732v-.2l-.428-.877-.844-.706-1.187-.461-1.08-.5-.846-.353-.726-.28-.632-.371-.747-.479-1.594-.886-.653-.389-.138-.452.245-.552.1-.335-.075-.624.213-.443.909-1,.5-.976-.266-.921.214-1.067.535-.95.683-3.489.728-1.428.5-.6.749-.344.631-.163.652-.162.085-.361-.321-.941-.054-3.182-2.094-.2-1.017-.017-1.251-.018.128-.489.2-1.211-.513-1.808-1.006-.307-.18-.4.94-1.97.182-1.375-.129-1.031.4-1.247,1.2-1.772.867-.808.215.161,1.1.117.481-.185.214-.263.374-.126.406.253.7.254.513.214.588.273.523.088.043.361.234.341.225.058.354-.146.459-.263.545.33.823.177.577-.011.674.011.618.019.247-.263.191-.5.032-.594v-.537l-.321-.439-.138-.419-.064-.37-.127-1.385-.118-.974-.011-.6-.064-.556.416-.292.781-.147.481-.137.332-.01.374.517.321.468.449.273.406.049.545.01.8-.147.77-.36.888-.1.877-.03.48.078.385.156.321.293.459.068.342-.341.3-.341.578-.507.3-.048.663.126.043.234.107.556.043.273.331.253.952.038.769.108.546.165.063.361.01.488-.032.242-.1.352-.235.926.128.438.385.331.214.4.182.39.536-.273.426-.4.513-.4L1830,538.4l1-1.637.32-.8.769-1.17.514-.75.256-.39h.535l.321.341.139.79-.075.77-.1.857-.054.7.011.663.031.381.086.406.161.412.193.232.416.095.279-.034.213-.212.193-.283.214-.2.375-.012.4.1.182.241-.17.828-.054.5.01.429.14.614.332,1.375v.409l.267.263.588-.284.545-.292.6-.224.61-.2.875-.087.706-.02.588-.011.578.049.738-.107.524-.341.406-.4.321-.682.277-.429.288-.692.162-.556.235-.692.255-.478.515-.457.416-.274.546-.2.417-.117,1.3-.3.578.653.32.214.6-.214.909-.283,1.24-.253.834-.2,1.133-.341,1.882-.41.79-.166.075-.818-.02-.925-.1-.887.14-.643.139-.4.395-.907.47-.341.471.078.534.156.183.087.459-.078.31-.137.332-.1.2.128.16.223.226.147.267.059.277-.078.567-.03.268.03.555.233.278.322.352.284.182.179.375.074.449.029.289.063.844.395.257.18-.354.663.107.906.4.665.342.611v.886l-.588,1.219-.685,2.015-.48.906-.2.961.224.444.919.239,1.059.222,1.048.092,1.155.129,1.422.129.128.979.224,1.9-.352.85-.332.48-.875-.221-.846-.425-1.551-.591-1.154-.7-.662,1.091V549.3l.021.425.2.832.588.573-.694,1.312-.375.407-.374.148-.9-.111-.727.443-.332.757-.384,1.4-.63.5-.995-.258-1.09-.536-.332.9-.129,2.274-.353,1.164.021.868.9.462.246,1.719-.684,2.383-.3,1.016-.514,1.349-.17,1.515-.641.7-.5-.647-.331-.831-.448-.924-.536-1.127-.7-.425-.321.832-.031,1.33-.021,1.59-.333,1.423.034,1.016.3.74.737.24h.93l.683-.222.536-.61.277.5.663,1.4-.759,3.955-.534,1.146-.1.647-.428.7-.214.683.161.352.609.72.577.369.737.055.1-.941-.065-1.055.577-.313,1.037-.2,1.315.111.235.906.149,1.737.844.277,1.925.388,1.593.277,1.047.425.2.665.535,1.811.342.611v.794l-.6.2-1.2-.038-1.037-.313-.46-.2-.075.832-.107,1-.277.942-.759.591-1.614-.647-2.747-.627-.728-.129-.973-.241-.406.111.054,2.144-.054.832.2.683.255.85-.577.222-.695.259-.48.388-.738.647-.482.794-.193.5-.2.424-.545.147-1-.313-.866-.5-.631-.61-.513-.3-1.091-.517-.074-.794.031-.887.322-1.126.48-.85.277-1.24-.021-.923-3.248-.315-1.979-.406-1.144.332-.931,1.164-1.518.147.577,1.867.2,1.072.076,1.071v1.959l.181.813.021.3-.3.443-1.016-.221-1.122-.167-1.293-.221-.631-.074-.021-.314.225-.647.15-.37-.022-.554-.46-.333-.535.11-.15.279-.448.442-.214.167-.909.185-.963.056-.919-.215-.192-.044-2.8-.259-1.091-.148-1.412-.591-1.014-.369-.535-.241-.362-.887-.5-1.4-.108-.961-.395-.629-.973-.166-1.668.036-.428.388-.234.794-.118,1-.258,1.459-.086,1.681.183,1.775-.781,1.626-.621-.278-.576-.683-.482-.794-1.038-.185-1.4.036-1.474.074-1.113.388-.652.684-.182.924-.053.869-.279,1.219-.406-.166-1.261-.185-.952-.167-1.164-.2-1.133-.277-1.722-.258-1.732-.088" transform="translate(-1799.81 -530.589)"  stroke="#fff" stroke-linecap="square" stroke-linejoin="bevel" stroke-width="1" fill-rule="evenodd"/>
      <text id="128" data-name="Chandur Bazar" transform="translate(32.094 35.482)" fill="#fff" font-size="13"  font-family="OpenSans-Bold, Open Sans" font-weight="700"><tspan x="-18.776" y="0"></tspan></text>
    </g>
    <g id="_123_Dhamangaon_Railway" data-name="123 Dhamangaon Railway" transform="translate(1512.324 1366.999)">
      <path id="talId123" fill="#7DB8EC" data-name="Dhamangaon Railway" d="M1918.736,654.307l.576.274.665.311.64.146.9-.156.834-.4.717-.126.993-.029.781.155,1.176,1.706,2.64,3.508-.353.779-.609.43-.214.652.033.857.3,1.444.362.458.941.39,1.979,1.306.78.457.726.1.471-.02.694-.078.323-.067.469-.547.151-.263.567-.263,1.069.029.811.088,1.338.04,1.305.516.128.77.438.215.46-.244.289-.341.363-.516.866-.187.822-.175.791-.088.556.283.363.457.31.322-.064.516-.161.575.256.741.257.321,2.491,1.092,1.444.449.545-.1.578-.145.833-.331.429.029.438.3.694.156.481.273.5-.127.246-.146.117-.371.311-.38,2.159-.2.758-.048.461.185-.353.566-.417.643-.138.5-.032.585.224,1.637,2.417,1.209,2.405.8.16.988.13.444.332.316.384.263.62.356.844.663.546.613.31.965.182.574.086.25.01.608-.129.434-.225.293-.171.468-.161.711v.5l-.032.41.214.409.395.278.674.336.234.288v.185l-.085.318-.331.579-.064.4-.043.292-.076.381-.138.439-.545.877-.2.634-.117.4-.161.215-.492.346-.535.6-.1.438-.021.327v.384l.245.58-.1,1.3-.064.277-.182.312-.245.219-.171.225-.256.087-.224.025-.182-.088-.15-.234-.15-.347-.15-.283-.235-.2-.267-.068-.288,0-.288.1-.6.458-.234.175-.31.048-.288-.048h-.268l-.343-.01-.161.145-.074.243-.043.219.138.366-1.7-.092-.758-.02-.61-.1-.469-.1-.353-.038-.342,0-.086.146v.282l-.129.283-.2.331-.192.531-.245.814-.021.317v.267l.021.205-.054.282-.385.058-.373-.112-.374-.078-.267-.083-.653-.274-.405-.073-.321.078-.289.082-.31-.087-.405-.151-.429-.263-.363-.229-.375-.307-.278-.395-.353-.3-.278-.024-1.059-.209-.726-.03-.428.049-.47.073-.567.1-.823.112-.107.512-.031.638.042,1.2-.084.623-.491.238-.365.278-.138.219-.247.282-.31.03-.641-.015-.8-.078-1.015-.082-.514-.093-.491-.16-.224-.1-.385-.171-.417-.059-.255.112-.13.287-.171.347-.129.277-.032.916-.042.288-.267.171-.321-.141-.246-.142-.406-.126-.418.039-.5.064-.32.219-.461.223-.469.121-.568.049-.405.019-.4.005-.321.122-.235.56-.011.41v.677l-.171.293-.395.078-.557-.034-.5-.078-1.037-.141-.919-.146-.278-.141-.268-.118-.3-.165-.374-.175-.5-.044-.857-.01-.544.171-.257.213-.214.312-.053.317.139.268.3.185.385.219.406.219.225.288-.182.75-.106.409-.375.239-.406.039-.471.054-1.56-.054-1.111-.054-.312.668-.1.735-.075.278-.235.195-.5.137-.46.01-.706-.185-.2-.318-.149-.219-.235-.058-.352.116-.322.131-.31.127-.288.083-.118-.093-.064-.17.193-.731.246-.608.2-1.585.1-.833.321-.326.235-.21.118-.23.053-.292v-.784l-.332-.336-.385-.24-.491-.3-.4-.126-.535-.107-.289.117-.138-.185.01-.253-.064-.249-.353-.145-.278-.034-.214.029-.214.137-.107.22-.032.262-.18.185-.129.005-.171.033-.075.156.022.472-.515-.6-.129-.5.055-.194.063-.273.7-.488-.1-.467-.663.038-1.026.059-.878-.038-1.271-.1-1.262-.1-1.347-.136-.663-.429-.043-1.072-.289-1.891-.1-2.047-.663-2.884-1.208-2.183-.428-1.208-.085-1.56.02-1.208,2.064-.41.375-.35.608-.331.856.1,1.444.175.994-.273.448-.682.118-.994.288-.974.151-.839-.995-.234-.309-.545.021-.878.1-1.325-.075-2.768.117-1.032.1-.956-.193-.682-.683-.507-.952-.059-1.11.371-.59.507-.469.663-.856-.02-.758-.038-.942-.448-.288-.428-.043-.662-.171-.6-.214-.682-.256-.683-.459-.584-.2-.859.31-.585.728-.6,1.186-.448.823-.116.952.1,1.422-.019.877-.43,1.112-.682.952-.955-.641-4.357-.2-.7.213-.487-.033-.867-.053-.828.311-.565.288-.634.214-.673.235-.642.256-.6.311-.409.3-.1.385.292.214.245.364.244.428.166.491.126.663.156.611.1.62.069.61.068.374.107.374.282.278.225.449-.166.428-.487.225-.4.407-.682" transform="translate(-1902.26 -653.966)"  stroke="#fff" stroke-linecap="square" stroke-linejoin="bevel" stroke-width="1" fill-rule="evenodd"/>
      <text id="123" data-name="Dhamangaon Railway" transform="translate(35.676 28.674)" fill="#fff" font-size="13"  font-family="OpenSans-Bold, Open Sans" font-weight="700"><tspan x="-23.664" y="0"></tspan></text>
    </g>
  </g>
</svg>
