<svg xmlns="http://www.w3.org/2000/svg" width="319.117" height="300.99" viewBox="0 0 319.117 300.99">
  <g id="Group_4" data-name="Group 4" transform="translate(-2129.826 -236.33)">
    <g id="_141_Sillod" data-name="141 Sillod" transform="translate(2293.548 259.584)">
      <path id="talId141" fill="#7DB8EC" title="Sillod Taluka" data-name="Sillod" d="M1342.876,747.051l.371-1.325.2-.357.278-.292.257-.365.227-.367.618.141.3-.094.927-.564.463-.376.516-.525.257-.347,1-.132.9.112.5-.253.659-.375.443-.423.7-.544.411-.442.835.066.8.066.329.047.505.113.535.1.474-.075.083-.489.072-.263.34-.112.38-.066.546-.6-.01-.478.063-.564-.073-.648-.1-.348v-.544l.371-.319.35-.207.443-.281.433-.084.567-.029.421.141.587.329.34.263.391.1.7-.5.587-.151.5-.084.443.2.135.31.278.5.2.075.413.046.474.048.9.084.783.094.576.207.752.206.752.151.68.009.6-.347.8-.817.443-.432.443-.488,1.515-1.137.691-.6.412-.413.381-.281.381-.113.731-.113,1.35-.62.546-.694.371-.16.248.375.041.5.246.564.4.224.3-.056.247-.169.248-.349,1.4-1.211.958-.582.413-.366.175-.5.124-.62-.021-.516.113-.508.309-.779.185-.657.1-.488.134-.451.1-.366.2-.536.227-.413.051-.376-.083-.422-.309-.45-.413-.169-.329-.367v-.545l.165-.544.33-.4.536-.206.35-.141.464-.056.474.347.453.658.092.48-.123.46-.351.225-.618.319-.113.4.557.3.505-.028.473-.057.557.159.515.808.309.009.422-.169.269-.235.361-.094.36.037.124.273-.278.347-.741.525-.3.395-.34.639-.206.742.413.573.463.2.5.271.484.31.308.386v.769l.186.592.309.141.432.188.257.217.3.367.258.384.268-.15.206-.365.269-.423.061-.385-.391.037-.278-.121v-.357l.391-.075.649-.1.052-.384.165-.395.052-.329-.341-.367-.206-.122-.051-.225.32.018.4.187.412-.046-.154-.676.163-.386.135-.235.237.048.216.309.351-.1.319-.29.236-.094.1.123.144.441.33.169.609-.45.793-.714.423-.15.34-.151-.021-.244-.237-.245-.186-.178.217-.215.35.122.206.328.206.451.371.149.186-.1.166-.263.031-.394-.051-.366-.175-.385-.062-.207.186-.235.257-.1.206-.141-.319-.131-.619-.094.042-.244.269-.189.2-.206-.165-.253-.094-.254.114-.423.186-.291.288.206.155.273.464-.093.237-.226.113-.479.1-.348.33-.159.319.036.391.208.206.393.237.339.35.206.588.048.371.2-.134.479-.051.6.01.958.093.413,1.092.949.134.413.124.7-.124.329-.113.469.227.32.392.291.411.217.34-.01.33-.234.258-.292.278-.469.711-.779.341-.292.2-.338-.124-.413-.041-.347.114-.451.319-.048.607-.074.557.056.721.056.422.178.268.328.206.347.165.217.206.319.206.292.7-.479.2-.2.278-.216.484.047.267-.028.485-.019.421.2-.174.441-.185.329.062.376.339.1.34.057.526.179.545.093.412-.112.031-.366-.38-.7-.2-.356-.154-.424-.113-.488-.227-.4-.072-.422.124-.441.638-.273.422.15.4.329.669.517.361.4.392.441.391.46v-.395l-.01-.47-.289-.694-.371-.4-.083-.339.1-.338.226-.29.279-.235.483-.028.041.2.031.376.082.206.227.263.206.066.289-.141.318-.169.35.123.371.178.495.207.391.084.412.009.381-.1.093-.272-.083-.3-.258-.121-.4-.169-.4-.085-.412-.131-.113-.282.6.169.3.01.535-.347,1.051-.245.711-.113.391-.094.753.075.144.254-.3.536.093.544.288.452.32.376.319-.038.186-.32.289-.395.485.029,1.38-.244-.1.309-.433.32-.485.273-.338.395.1.253.546-.075.412-.338.392.122.38.282.361.1,2.771-.094-.021.573.072.262.175.216-.01.263-.392.253-.38.132-.31.14-.371.292.021.47.433.15.587-.217.639-.235.639-.291.555-.339,1.67-.281,1.071.723.309.281.547-.253.473-.027.887-.15.823-.169.4-.433.134-.441-.134-.516.33-.292.72-.178.351.235.33.507.257.094.4-.066.7-.178.958-.45,1.216-.686,1.031-.544.154.469.3.488.4.536.711.619.638,1.052.887.911.525,1.155.711.986.5.63.278.6-.1.451-.391.356-.381-.123-.64-.253-.627-.281-.876-.216-.422.169-.608.479-.9.47-.206.328.051.422.226.433.154.478-.215.563-.66.5.031,1.587-.577.15-.618.01-.351.723-.309,2.254-.227.478.083.657.216.526.165.244.7.6.844.038.279.883.555.723.155.779.061,1.212.144.376,1.566.723.216.4-.092.244-.268.234.2.564.412.179.392.019.844.385.865.423.7.338.8.375.226.394-.36.273-.752.085-.505.056-.546.291-.546.911-.206.367-.4-.395-1.3.009-1.009-.112-.494-.263.061-.291.278-.442.268-.329.062-.413-.227-.413-.618-.751-.844-.948-.6-1.118-1.02.273-.351.253-.535.16-.814.2-.752-.076-.742-.685-1.051-1.371-.422-.413-.947-1.089-.958.272-.752.4-.525.413-.536.592-.536.433-.422.206-1.051.179-.752.122-.525.347-.309,1-.1.985-1.112-.159-1.052-.075-1.112-.225-.907-.217-.721-.038-1.123.432-.938.667-.289,2.019-.834,2.544-.392.752-.278.619-.422.3-.917.084-1.215.169-.844-.037-.928.882-.37.986-.227.658-.062.319.145.47.186.207.391.188.742.207.834.093.979.6.34.8.134.742.051.949-.134,1.146-.093.47-.309.488-.113,1.4-.144,1.381.432.3.567.095.937.085.8.206v1.578l.176.535.4.6.937.826.392.92.257.883.391,1.267.062.807-1.04-.122-.361.347-.248.527-.279.694-.143.189-.34.347-.494.281-.679.1-1,.094-1.328-.442-.2-.441.093-1.137-.463-.075-1.577.253-.247.977-.7.263-.814-.225-.762-.141-1.112-.093-.485.535-.453,1.456-.577,1.07-.567.826-.948.63-1.484.075-.9.141-1.2.206-.67.282-.382.648.32.413.361.648.443.733.556.8.567,1.474.392.7.339.752-.3,1-.649,1.83-.269.714-.813.648-.762,1-.649,1.071-.546,1.408.062,1.212-.649,1.559-.093.742.041.479.464.075.318.17.382.253-.051.648.031,1.109-.115,1.136-.278,1.052.124,1.07.227,1.032.227,1.512-.548,1.258-.412.968-.484.864-.8.084-1.061-.347-1.02-.348-1.38-.234-.948-.141-.762.057-.289.394-.124,1.437-.237,1.324-.535,1.3.01,1.972-.515,2.508-.01,1.6-.351,1.211-.947.695.134,3.062-.516,1.381-.9,1.483-.36.921-.206.873-.381.244-1.215.225-.865.132-1.8-.047-1.483-.01-1.35.112-1.112.244-.021.883-.206.986.051,1.175v1.08l.257.78.155.61.03.92.227.8-.906.123-.639.169-1.03.507-.926.32-.742-.112-.474-.244-1.143-.677-.432-.9-.186-.939-.1-.828-.206-.732-.443-.619-.886-.977-.618.15-.453.826-.526,1.033-1.009.713-.526-.676-1.246-1.465-1.093-2.366-.257-2.743-.68-.413-1.536-.865-.793-.939-2.586.188-2.441.263-3.719.075-.659-1.719-.041-2.385.206-.572.341-.536.329-.263-.154-.45-.371-.3.052-1.127.576-.1.443-.132.144-.479v-.619l-.814-.827.33-.338.123-.534-.381-.9-1.082-.31-.8-.029-1.195.132-.99.216-1.133.281-3.43-.112-1.731-.01-.608.347-.309.507-.288.544-.042.911-.2.516-.526.574-1.267.225-1.02-.094-.268-.235-.4-.432-.423-.357-.731-.179-.484-.1-.165-.263.072-1.381.052-.563-3.328-1.315-1.524-1.259-1.2-.995-1.7-.226-.329-.019-.124.263-.381.3-.464.338-1.154-.019-1.679.019-.072-.507-.062-.376.021-.534-.164-.376-.567-.085-1.031-.141-.082-.281.278-.4.608-.319.494-.451.556-.309.484-.4-.34-.564-.679-.169-.154-.189.4-1.112.422-.512,1.452-1.014,1.062-.611.761-.2.681.009.577.3.639.028,1.484-.094,1.226.826.33.075.741-.2.5-.141.639-.253.587-.216.36.357.309-.084.392-.17.5-.019.556.207.536.14.413-.253-.186-.76.144-.525.474-1.127.731-.159.495-.057.494-.3.4-.225.711.065.072-.525-.01-.423.288-.272.762-.046.525.094,1.041.1,1.009.5.886.629.763.676.762.2.3-.263.588-.31.474-.328,1.585-1.513.629-.8.351-.563.041-.582-.835-1.033-.36-.423-.4-.366-.526-.207-.556-.3-.145-.3.1-.479.349-.742.484-.526.392-.45.207-.582-.362-.742.279-.433.247-.742.711-1.456.3-.263.392-.667v-.395l-.423-.488v-1.258l-.247-.639-.216-.62.361-.432.226-.188.237-.234.144-.367-.092-.395-.526-.835-.165-.507.185-1.588.1-3.325-.412-.16-.762-.253-.227-.263-.072-.78.031-.347.319-.451-.1-.488-.5-.235-.618-.291.2-.235.629-1,.124-1.558.3-1.672-.124-.564-.247-.3.083-.292.217-.488.021-.169-.145-.976-1.164-.751-.628-.451-1.2-.639-1.143-.431-1.431-.432-.227-.921-.145-1.051V762.01l-.2-1.126-1.01-1.9-1.916-1.822-3.605-2.366-1.092-1.579-.618-.413-.361-.751-.319-.714-.011-.469.175-.563.031-.075.257-.846.093-1.107.3-1.23" transform="translate(-1329.37 -721.038)"  stroke="#fff" stroke-linecap="square" stroke-linejoin="bevel" stroke-width="1" fill-rule="evenodd"/>
      <text id="141" transform="translate(44.453 54.387)" fill="#fff" font-size="13"  font-family="OpenSans-Bold, Open Sans" font-weight="700"><tspan x="0" y="0"></tspan></text>
    </g>
    <g id="_137_Kannad" data-name="137 Kannad" transform="translate(2200.208 276.255)">
      <path id="talId137" fill="#7DB8EC" title="Kannad Taluka" data-name="Kannad" d="M1333.756,807.33l-.545-.1-.568.075-.7.258-.422.123-.392.1-.165.009-.381-.118-.349.193-.268.051.227-.582.289-.24.288-.178.217-.263.329-.887.444-.386.092-.328-.278-.188-.422-.132-.072-.141.124-.431.278-.432-.629-.084-.257-.16-.216-.1-.288-.065-.32.149-.2.31-.041.573-.1.4-.341.544-.37.441-.206.029-.207-.442.4-.648.042-.525-.135-.169-.206-.282-.031-.5.093-.535-.093-.424-.608.189-.289.16-.227.244-.319.2-.289.114.042.468.073.358-.073.441-.134-.009-.267-.15-.217-.32-.433.507-.608.873-.269.282.33.3.258.349-.319.431-.351.1-.586.038-1.741.019-.927.423-.567.169-.567.178-.484.094-.546.752-.257.554-.4.46-.288.5-.474.226-.268-.151-.494-.573-.846-.911-.278-.648-.112-.489-.082-.451-.381-.14-.557.235-.638.281-.763.253-1.268.489-.278.451-.216.385-.731.028-.485.019-.742.047-.752.2-.442.272-.5.348-.279-.385-.2-.038-.268.235-.144.319-.021.338.092.385.072.686-.01,1.126-.483-.263-.257-.188-.258.169-.052.451-.051.451-.144.4-.31.292-.236.29.628,1.54.217,1.249.371,1.324-.052.7-.2.545-.588.188-.556-.15-.453-.3-.412-.244-.5-.292-.546-.169h-.681l-3.162.066-.876-.009-.309-.075-.216-.582-.237-.3-.556-.037-.247.159v.6l-.175.367-.144.356-.072.7-.031.469-.5.217-1.164.319-.257-.338-.34-.507-.453-.32-.731-.038-.433.084-.474.235-.392-.047-.2-.451-.4-.226-.35.066-.268.367.134.431.226.47.474.892.3.648.33.629.134.451v3.569l-.618.414-.495.121-.659-.441-.4-.292-.475-.319-1.02-.2-.443.338-.278.676-.33.338-.774.807-.535.348-.362-.217-.113-.516v-.545l-.073-.591-.062-.178-.4-.123-.5.272-.1.536-.309-.047-.567-.1-.38.094-.474.235-.154.461.186.356.443.216.206.385-.124.206-.113.629-.1.5-.268.338-.36.15-1.164-.141-.144-.206.3-.291.227-.235-.052-.384-.278-.367-.258-.019-.628-.141-.32.132-.133.459-.227.527-.175.47-.2.713-.134.677.051.459.124.3.67.207.628.45.4.422.083.7.082.817v.685l-.062.526-.031.488,1.473.122.8.273,1.278.131-.186,2.507-.938.047-.165.488-.226.215-.216-.149-.474-.2-.628-.094-.546.066-.186.018.021,1.193.576.291.444.141.37.639.743.16.483.056.876.282.247.15.463.338.114.667-.1.386-.494.159-.155-.028-.443-.226.021,2.065-.412,1.757-.145,6.065-5.027-1.661-2.307-.7-1.071-.206-.731.019-.433.207-.341.637-.772.114-.64.093-1.122-.207-2.03.319-1.092.169-.989.057-1.937-.094-1.318-.075-1.535-.15-1.143-.131-.959-.057-1.03-.3-.454-.7-.03-1.466-.021-.948-.154-1.615.267-.582.66-1.1.2.066.361.047.453-.094.567-.329.752-.611.5-.366.617-.414.732-.788.392-.536.422-.3.247-.413.218-.32.422-.187.422-.188.329-.479-.422-.441-.412-.123-.979-.253-.505-.027-.319-.226-.063-.5.4-.461.547-.545.783-1.014.639-1.079.525-.329,1.256-.4.485-.358v-.525l-.155-.564-.464-.263-.494-.048-.33-.009.144-.817.185-.591.638-.611.154-1.127.1-.854-.041-.8-.371-.319-.309-.319-.515-.122-1.051-.056-2.329-.226-.917.292-.432.4-.609.469-.463.423-.6.675-.289.395-.546.235-.516-.057-.71-.751-.495-.761-.526-.253-.464-.329-.649-.432-.319-.028-.38.113-.372.009-.289-.122-.361-.075-.154-.019-.071-.46-.156-.545-.206-.385-.577-.188-.475-.066-.463-.057-.5-.516-.36-.47-.206-.149-.2-.33.062-.309-.258-.244-.144-.029-.351-.319-.6-1.014-.247-.686-.052-.281-.33-.422-.639-.029-.679.1-.443.01-.515-.141-.413-.413-.381-.507-.01-.949-1.195-.047-.711-.074-.741-.047-.289-.2-.288-.451.144-.441-.041-.488.577-.047.175-.676.052-.464-.1-.193-.185-.268-.176-.151-.155-.235-.113-.174-.072-.206-.1-.347.062-.339-.02-.249.072-.141.175-.277-.071-.179-.165-.234-.134-.272-.144-.132-.2.038-.133-.075-.072-.282.113-.159.124-.08.061-.123-.051-.215-.062-.127-.051-.169.1-.141.133-.042.072-.047.062-.118.145-.173.37-.071.092-.229.072-.451.185-.375.032-.855.082-.685.1-1.051-.021-1.315-.083-1.292-.03-2-.959-.037-1.266-.2-.68-.1-.536.009-.515-.009-.432-.1-.041-.657-.021-3.615-.35-.714-.124-.573-.134-.461.021-.309.371-.179h.485l.679.151.916-.141.949-.14.711-.15.762-.132.494-.244.473-.225.33-.442.092-2.441.145-1.578,1.668-.4.732-.2.226-.231.042-.249-.845-.738-.1-.248-.1-.192.041-.231.124-.169.278-.29.484-.465,1.257-1.442.7-.769,2.049-1.911.526-.484.381-.155.566.028.938.217.587-.028.4.094.361.151.6-.066.154-.46.032-.329.021-.573-.1-.63-.175-1.2.288-1.681.206-.78.093-.6.32-.395.288-.272.289-.244.247-.244.464-.273.72-.234.505.046.36.16.442.253.619.414.926.554,1.556.742,1.165,1.137.257.451.2.422.392.225.505.206.494.113.351.169.319.216.351.424,1.122.629,1.277.47.485.127.225.089.412.028.32-.061.289-.127.123-.24-.082-.685-.041-.342-.083-.221v-.371l.268-1.507-.154-.507-.093-.338-.031-.568.216-.592.124-.319.216-.376.258-.277.6-.037.566-.1,1.854-.235.268.08.649.122,1.432.127,1.03.253.392-.037.37-.047.33-.07.371-.145.185-.25.031-.69-.01-.164.216-.211.463-.292.34-.286.474-.3.9-.268.557-.169,1.256-.319,1.041.061.454.08.4-.042.422-.2.2-.362-.217-1.047-.359-1.414-.526-2.108-.206-.69-.248-.991-.165-.483-.062-.69-.04-.329-.082-.3-.113-.249-.1-.99v-.244l-.021-.165-.289-.136-.237-.08-.371-.089-.2-.156-.413-1.252-.5-1.949-.185-.972.165-.146.165-.037h.443l.4-.08.33-.191.258-.222.608-1.056.154-.324.03-.192.2-.306.485-.108.392-.019.278-.108.073-.2-.011-.259-.062-.38.041-.45.135-.433.154-.117.361-.066.443-.047.865.024.465-.1.319-.263.175-.263.227-.114.433-.056,1.371.09,1,.169.269-.08.453-.169.5-.127.525-.193.176-.2.041-.225-.134-1.079-.062-.512-.145-.569-.2-.755-.1-.419-.02-.244.175-.352.165-.29v-.244l-.258-.255-.041-.188.072-.145.1-.164.134-.056h.1l.2-.066.062-.24.063-.244-.176-.192-.237-.089-.175-.141-.1-.122-.032-.282.093-.362-.062-.7.134-.437.124-.291.144-.24.267-.126.752.015.629-.015.525-.042.608.029.546.107.072.151.587.244.309.071.485.117.412.075.4.075.247-.028.134-.239.237-.273.927.047.567-.038.557-.023.339-.066-.031-.319-.206-.367-.174-.286.072-1.056-.041-1.127.051-.348.113-.235.206-.029.423-.013.351.028.351.033.566-.108.072-.522-.031-.244-.051-.3-.052-.2-.051-.281.433-.052.433.024.535.071.65.173.411.362.453.169.35.174.5.174.3.028.2-.094.536.93.237.235.463-.151.31-.46.227-.376.4-.066.412.15.392.347.3.564.34.76.732.3.258-.122.309-.319.443-.188.412.273-.031.516.1.442.773.648-.166,1.146v1.032l-.37.846-.144.16-.32.7-.154.94-.475.958-.113.8-.2.273-.566.61-1.041.686-.1.544.34.254.165.582-.186.423-.36.45-.349.47-.176.648-.062,1-.184.752-.083.206-.073.339.237.263.341.037.421-.057.6.066.2.657.216.451.267.47.269.535.422.178.537.169.381.179.556-.084.34-.883.278-1.9.154-.29.289-.564.2-.751.371-.339.371-.573.3-1.191.32-.283.68-.357.381-.178.464-.386.092-.46.1-.309.381-.141.556.084,1-.376.484-.066.3-.169.268-.028.051.545.217.14.587-.084.339.047.886.094,1.36-.122h.741l.33.084.258.375.411.329.6.442.577-.1.525-.2.876-.178.483.028.722.4.958.3.587-.094.959-.967.557-.573.463-.573.866-.1.453-.1.484-.385.413-.328.484-.375.412-.338.217-.376-.083-.281.041-.282.381-.085,1-.545.649-.459.319-.394.236-.329-.01-.347.124-.273.339-.094.6.225.917.395.567.178.555.253.671.376.927.564-.3,1.229-.092,1.108-.257.846-.032.075-.175.564.01.469.32.714.36.751.619.413,1.092,1.578,3.606,2.367,1.916,1.821,1.011,1.9.2,1.126v1.316l.143,1.051.227.921,1.432.431,1.144.432,1.195.639.629.451,1.163.751.145.977-.02.169-.217.489-.083.291.247.3.123.564-.3,1.672-.124,1.559-.629.995-.2.235.618.292.505.235.1.489-.319.45-.031.347.073.78.227.262.762.253.412.16-.1,3.324-.185,1.588.165.507.525.836.093.395-.145.367-.236.234-.227.188-.361.432.216.62.248.638V788.4l.422.488v.395l-.391.666-.3.263-.712,1.456-.248.742-.277.433.36.742-.205.583-.392.45-.485.526-.351.742-.1.479.144.3.556.3.526.207.4.366.361.423.833,1.033-.041.582-.351.563-.629.8-1.586,1.512-.473.329-.588.31-.3.263-.763-.2-.762-.676-.886-.629-1.009-.5-1.041-.1-.525-.094-.763.046-.289.273.01.422-.072.525-.711-.065-.4.225-.494.3-.494.056-.732.159-.474,1.127-.144.525.186.76-.412.254-.536-.141-.556-.207-.495.019-.392.17-.309.084-.36-.358-.588.216-.637.254-.505.141-.742.2-.329-.075-1.227-.826-1.484.094-.638-.028-.577-.3-.679-.009-.763.2-1.061.611-1.453,1.013-.422.512m-70.117,14.477-.412.459.1.178.638.808.629.095.793.149.587.141.639.056.814.291.566.141h.855l.494-.254.02-.45-.319-.555-.525-.338-1.04-.31-.546-.029-.381.226-.361.094-.473-.056-.67-.273-.649-.235-.763-.14m-11.857-2.641.226.073.258.086.32.1.278.078.257.062.2.038.351.065.247.046.113.018.577.047.021-.191.247.032.011-.079.031-.058.01-.043v-.1l.166.016.021-.141.051-.3-.144,0-.052-.009-.082-.013-.041,0-.062,0-.133-.012.03-.445v-.21l-.01-.109.032-.4-.011-.083-.01-.3.01-.071v-.14l.021-.225.009-.228-.009-.119.009-.136V816.3l.021-.135.01-.063v-.327l-.041.014-.4.136-.021-.038-.1.025-.051.018-.032.01-.073.009-.031.014h-.031l-.072.029-.021-.006h-.062l-.154-.006h-.021l-.009.008-.032.008h-.062l-.041.005-.041,0h-.052l-.051-.006-.062,0-.082,0-.062-.008-.072-.009h-.114l-.04-.012-.072,0h-.052l-.051-.008-.031,0-.051,0-.071.01h-.01l-.2-.01-.351.028-.268.065-.154.018-.185.037-.226.063-.31.052.166.216.072.125.084.149.113.181.154.32.092.2.218.34.031.089.041.328v.36l-.011.119-.03.333-.031.2" transform="translate(-1238.78 -737.673)"  stroke="#fff" stroke-linecap="square" stroke-linejoin="bevel" stroke-width="1" fill-rule="evenodd"/>
      <g id="_14talId137count-3" data-name="141 Sillod" transform="translate(56.72 45.659)">
        <text id="137" transform="translate(0.072 9.058)" fill="#fff" font-size="13"  font-family="OpenSans-Bold, Open Sans" font-weight="700"><tspan x="0" y="0"></tspan></text>
      </g>
    </g>
    <g id="_143_Vaijapur" data-name="143 Vaijapur" transform="translate(2130.609 334.53)">
      <path id="talId143" fill="#7DB8EC"  title="Vaijapur Taluka" data-name="Vaijapur" d="M1261.56,850.651l.092.639-.154.78-.381.459-.32.338-.268.442-.154.385-.154.4-.031.3.237.386.248.4-.021.366-.113.3-.6.555.02.658.258.291.36.422.031.413-.031.413.392.432.35.3.288.328-.288.986-.278.347-1.37.648-.319.169-.578.883.114.761.206.431.216.4.021.939-.176.536-.165.262-.423.479-.216.488-.092.348-1.236,2.338-1.01,1.315-.021.4.237.376.165.657-.134.461-.144.582-.546,1.212-1.123.817-.422.329-.288.31-.052.835.031.47-.083,1.1-.082.432-.216.273-.443.188-.433.113-.113.215-.257.676-.319.095-.217-.207-.515-.253-.5.122-.33.33-.361.553-.134.423-.133.583-.649.788-.609.216-.36.329-.412.478-.794.028-1.113.1-.555-.123-.392-.338-.814-.31-.69-.019-.443.15-.3.751-.257.45-.3.545-.34.338-1.206.488-.124.282.34.657-.217.365-.4.084-.8.066-.1,1.973-.268.723.02.667-.267,1.277-.588,1.278-.968.986.1.244.495.808.3.855.215.667v.788l.093,1.682.3.554.216.5.051,3.672-.34.864-.278,1.043-1.061,2.225-.237.694-.052.563-.638,2.123-.165.987.947.742.412.591.309.573-.052.516-.123.593-.433,2.273-.71,1.933-.907,2.621-.217.375-.731-.075-.4.066-.2.253.206.31.484.432.082.526.144.995.124.32-.7.15-.268.328-.67.263-.494-.048-.691-.046-.432-.1-.381-.085-.269.169-.442.553-.67.235-.433.357-.165.31-.083.712.031.677v.563l-.083.526-.184.874-.505,1.483-.092.751-.145.554-.289.592-.35-.225-.185-.366-.227-.437-.443-.8-.371-1.277-.308-.484-.32-.278-.34-.169-.31-.066-.278-.013-.658-.042-.629-.123-.339-.173-.35-.376-.165-.254-.134-.587-.124-.714-.227-.553-.494-.728-.453-.507-.826-.611-.514-.441-.155-.47.145-.459.268-.386.3-.431.391-.78.031-.723-.134-.5-.371-.207-.639.084-.278.1-1.02-.01-1.318-.873-.948-.771-.866-.77-.5-.611-.216-.619-.083-1.278.134-.94.083-.488-.155-.61-.381-.4-.433-.338-.433-.066-.411.018-.845.038-.824.028-.485-.132-.227-.281-.226-.489.03-.648.186-1.033.051-.836-.33-.516-.278-.274-.433-.075-.361.066-.381.189-.432.224-.165.338-.248.376-.433.159-.628-.037-.34-.179-.392-.29-.556-.554-.484-.967-.515-.76-.4-.62-.2-.206-.33-.367-.34-.555-.35-.47-.515.029-.33.206-.2.244-.031.348.144.431.216.282.289.339.154.253.021.48-.113.319-.217.272-.288.319-.588.216-.484-.085-.227-.187-.268-.29-.154-.15-.165-.349-.238-.44-.2-.516.185-.78.34-1.109-.052-.788-.072-.752-.865-.469-.722-.488-.618-.132-.546.3-.371.45-.751.47-.3.507.144.77.309.525.413.526.236.854-.226.376-.712.507-.514.4-.526.357-.495.179-.782-.235-.227-.3-.011-.638.175-.507.062-.423-.155-.545-.289-.16-.495-.057-.412.047-.474.112-.505.047-.793-.16-.6-.5-.341-.507-.463-.6-.34-.394-.3-.085-.536-.046-.514.046-1.432-.009-.577-.112-.279-.207-.061-.115-.174-.307-.063-.347-.257-.621-.206-.319-.37-.282-.444-.262-1.081-.687-.248-.272-.545-.216-.382-.009-.474.075-.545.178-.465.254-.885.6-.423.723-.484.658-.4.563-.557.864-.577,1.239-.907.3h-.69l-.732-.3-.855-.5-.711-.446-.474-.343-.4-.364-.062-.23-.133-.51-.186-.953.555-.493.516-.535.422-.728.279-1.225.39-1.282.248-1.16.082-.85v-.582l.072-.648.237-1.263v-.794l.155-1.535.042-.9.154-2.122.659-.033.536.024,1.34.15.834.061.619-.024.495.02,1.1.122.772.273,1.071.225,1.731.657,1.31.442.947.314.217.033.216-.145.1-.352.092-1.48.2-1.7.144-1.043-.041-.3-.71-.178-.99-.179-.556-.121-.474-.155-.351-.174-.03-.526.124-1.77-.072-1.187-.134-1.118.35-.628.114-.729.1-.6.248-.8-.062-1.1-.144-1.085-.268-1.193.01-.54.248-.76.278-.663.165-.971.186-.268.773-.141.659-.193,1.566-.253.876-.173,1.081-.024.732-.027.278.027-.134-.511-.021-.461-.01-.675-.7-.046-.413-.066-.165-.225.031-.38.052-1.555-.206-1.037-.031-.337-.051-.856.03-.516.072-.54.165-.517.052-.357-.031-.31.01-.493.35-.5.36-.267.371-.052.443.052.371-.052.391-.178.289-.141.2-.136.143-.141.031-.333-.133-.9.02-1.1-.113-.676-.422-.93-.052-.648.021-.319.587-.432.546-.525.176-.348-.042-.277-.186-.3-.165-.22-.083-.31.1-.211.279-.61.071-.357.124-.469.175-.531.216-.4.37-.347.268-.479.475-.611.216-.094.7.019.475.1.5.093.443.066.865.085.669-.019.34-.136.237-.117.216-.25.041-.248v-.189l-.155-.173-.268-.094-.2-.09-.207-.155-.113-.16.1-.5-.073-.427-.113-.423-.1-.183-.267-.325-.319-.573.02-.329-.082-.441-.082-.263-.134-.231-.124-.245-.144-.332-.031-.244.268-.141.165-.028.617-.424.67-.751,1.051-1.29.1-.259-.237-.455-.257-.464-.248-.428-.041-.461-.216-.389-.289-.244-.217-.31-.175-.347-.164-.531-.061-.54-.042-.582-.113-.756.041-.338.557-.014.567.051.351.028.566.052,1.628-.211.814-.081.814-.079.216-.075-.041-.621.021-.775-.289-.512-.144-.559-.062-.4-.092-.316-.062-.257-.062-.108-.041-.311-.01-.5-.042-.769-.062-.5-.112-.516-.2-.639-.072-.418.1-.287.134-.151-.113-.088-.392-.047-.453.005-.494-.029-.485.024-1,.019-.742.075-.577.066-.617.113-.443.023-.247-.042-.2-.084-.237-.159-.083-.173.021-.094.072-.1.094-.036.1.05.062.012.062-.071-.093-.115-.052-.033v-.148l.1-.035.164.007v.286l.021.084.124,0,.124-.106.082-.129.03-.138v-.131l-.051-.208-.031-.159.1-.143.124-.044.134.009.114.047.216-.056.021-.167-.124-.082-.144-.072-.083-.052-.1-.1-.145-.055-.124,0-.094-.042-.1-.048-.062-.079-.031-.1.073-.052.041-.086.011-.112-.021-.119.062-.068.124.009.113-.007.073-.053.021-.1.051-.226.041-.253.124-.023.144.035.134.011.1-.052.021-.08-.052-.1-.041-.2-.01-.188-.011-.238-.154-.149-.113-.023-.073-.055-.052-.127-.021-.145.011-.119.082-.042.145-.012.134.01.114-.044.072-.033.124-.04.061.062v.108l-.01.117.031.131.113.071.113.04.134.023.093-.026.093-.068.206-.2.021-.178.061-.09-.185-.164-.083-.123-.011-.16v-.206l.011-.726.021-.464.113-1.071.165-.4.021-.361.051-1.343.206-.657.062-.442-.073-.281-.206-.46-.351-.385-.319-.356-.351-.418-.061-.126.041-.065.051-.045.062-.025.072-.027.021-.04v-.069l-.031-.027-.051-.052-.052-.042-.021-.075-.01-.073.021-.057.031-.057.072-.115.082-.091.041-.057.021-.03.041-.051.021-.057-.031-.1-.021-.058-.062-.105-.031-.1-.01-.078v-.019l.021-.105.041-.075.031-.051h.227l.072-.029.072-.029.072-.06.021-.082v-.116l.052-.15.082-.153.041-.072.031-.042.051-.164-.01-.068.01-.019.011-.064.237-.331.186-.245.1-.093.144-.064.227-.138.124-.053.114-.095.01-.093-.041-.067-.031-.063-.041-.064-.238-.3-.082-.186-.02-.091-.011-.193.011-.086v-.051l.072-.181.227-.173.114-.061.1-.019.093.023.094.041.061.042.278.193.2.124.113.016.155.021.464.017.236,0,.145-.016.124-.036.092-.04.175-.172.2-.268.237-.416.041-.112.011-.136.041-.1.185.086.1.079.041.073.021.117-.041.1-.041.108-.063.1-.041.144v.32l-.041.43.01.171.021.1.124.112.361.066.257.061.464.09.443.108.206.1.176.073.185.119.947.11.959.188.463.042.67-.122.258-.192-.01-.39-.124-.431-.083-.283-.145-.356-.246-.358-.248-.5.113-.371.2-.188.185-.216.1-.108.361-.389.32-.564.258-.188.277-.033.5-.065.258-.019.422-.145.412-.15.546.075.989.108.464.1.516-.014.33-.17.268-.3.433-.451.433-.831.494-1.061.515-1.108.557-1.047.309-.644.289-.352v-.258l-.278.052-.433.375-.484.188-.474.216-.67.2-.463.047-.309.019-.319-.127-.175-.132-.052-.446v-.4l.062-.367.555.015.361,0,.278-.136.247-.176.268-.292.5-.326.134-.042.135.073.082.115.124.077.082.024.124-.062.052-.123.061-.165.114-.031.226.057.33.049.206-.031.165-.039.134-.1.175-.138.093-.106.154,0,.114-.113.051-.129.082-.122.021-.054.062-.138-.031-.115-.052-.117.052-.053.134-.025.114-.033.083-.022.113-.141-.062-.127-.093-.053-.041-.109.031-.06.155.057.33-.048.1-.058.113.005.083-.151.031-.075.093,0,.041.037.072-.011.061-.029.124-.086.041-.064v-.068l.01-.105.083-.035.072-.016.092-.02.083-.035.093-.055.083-.139.113-.031.2.01.114-.017h.1l.165-.041.113.021.011.1.02.117.052.082.1.04.072.054.031.084.051.094.051.113.052.084.072.07.072.022.01-.061.073-.021.041.062.051.052.072-.023v-.122l.062-.061.083.021.114.073.062.01.051-.021.051-.019.278-.053.33.021.216.1.165.118.052.354.072.709.031.835.03.322.021.158.134.06.186.02.906.033.371-.022.495.047.175.182,1.39-.037.814.356.711.442.051.629-.207.479-.144,1.193v.92l-.022.554v.573l.011.629.03.385.443.517.1,2.074.124.639.134.686-.042.591-.062.4-.052.094.031.169-.144,1.005.1.488,1.69-.047,3.071-.187,1.658-.029,1.03.094.927.065.618.283.082.347-.01,1.323.4.461.349.254.649.047h.762v1.08l-.072.742.082.789.155.46.423-.009.618-.056,1.01-.141.412.038.514.132.392.112.546.1.042.489-.145.441.288.451.288.2.742.047.711.075,1.194.047.011.949.382.507.412.413.515.141.443-.01.68-.095.639.029.329.422.052.281.247.686.6,1.014.351.32.145.029.257.244-.062.309.2.329.206.15.36.469.495.516.464.057.474.066.577.187.207.386.154.545.072.46.155.019.36.075.289.122.371-.009.381-.113.319.028.649.432.464.328.525.253.495.761.711.751.515.057.546-.235.288-.395.6-.676.464-.424.608-.469.432-.4.918-.292,2.328.226,1.05.056.516.122.309.32.37.319.041.8-.1.854-.154,1.127-.639.611-.186.591-.144.817.33.009.495.047.463.263.154.563v.526l-.484.357-1.257.4-.525.329-.639,1.08-.782,1.014-.547.545-.4.461.062.5.319.225.505.028.979.254.412.123.422.441-.329.479-.423.188-.423.187-.215.319-.248.413-.423.3-.392.536-.731.788-.618.414-.495.366-.752.611-.567.328-.452.093-.361-.047-.2-.066-.66,1.1-.267.582.155,1.615.02.948.032,1.466.452.7" transform="translate(-1171.561 -794.048)"  stroke="#fff" stroke-linecap="square" stroke-linejoin="bevel" stroke-width="1" fill-rule="evenodd"/>
      <text id="143" transform="translate(39.391 72.441)" fill="#fff" font-size="13"  font-family="OpenSans-Bold, Open Sans" font-weight="700"><tspan x="0" y="0"></tspan></text>
    </g>
    <g id="_136_Gangapur" data-name="136 Gangapur" transform="translate(2187.226 390.266)">
      <path id="talId136" fill="#7DB8EC"  title="Gangapur Taluka" data-name="Gangapur" d="M1226.29,932.813l.289-.591.144-.555.092-.751.505-1.483.185-.873.083-.526v-.563l-.031-.677.083-.713.165-.31.432-.357.67-.235.443-.553.268-.17.381.085.433.1.69.047.5.047.67-.263.267-.329.7-.15-.124-.32-.145-.995-.082-.527-.484-.431-.206-.31.2-.253.4-.066.732.075.218-.375.906-2.62.711-1.934.432-2.272.124-.593.051-.516-.309-.573-.411-.591-.949-.742.166-.987.639-2.123.052-.564.237-.694,1.06-2.225.278-1.043.339-.865-.051-3.672-.217-.5-.3-.554-.092-1.681v-.788l-.217-.667-.3-.855-.494-.808-.1-.244.968-.986.588-1.277.267-1.277-.02-.668.267-.723.1-1.972.8-.066.4-.085.217-.365-.341-.657.124-.282,1.2-.488.341-.338.3-.545.258-.45.3-.751.442-.15.69.019.813.31.392.338.556.123,1.113-.1.792-.028.413-.479.361-.329.607-.216.649-.788.134-.582.134-.423.361-.553.329-.33.505-.122.515.254.217.207.319-.095.258-.676.113-.215.433-.114.443-.187.216-.273.083-.432.083-1.1-.031-.47.051-.835.288-.31.423-.329,1.122-.817.546-1.212.145-.583.134-.46-.165-.658-.237-.376.021-.4,1.009-1.315,1.236-2.338.093-.347.217-.488.422-.479.164-.262.176-.536-.021-.938-.217-.4-.206-.432-.114-.761.577-.883.319-.169,1.371-.648.278-.347.288-.986-.288-.329-.35-.3-.392-.432.031-.413-.031-.413-.36-.422-.257-.291-.021-.658.6-.554.114-.3.021-.366-.247-.4-.236-.385.03-.3.155-.4.154-.385.268-.442.319-.338.381-.46.154-.78-.093-.638,1.031.3.958.057,1.143.131,1.536.15,1.319.075,1.936.094.989-.057,1.092-.169,2.029-.319,1.122.207.639-.094.773-.113.34-.637.433-.208.731-.019,1.072.206,2.307.7,5.028,1.662,1.607.367,2.082.77,1.781.789.794.563.34,1.371.7.131.433-.432.206-.47.432-.093.444.357-.135.694-.185.47-.319.347-.617.084-.548.1-.1.3.278.019.341-.028.567-.178.762-.16.567-.066.844.009.567.2.35.188.412.178.722.488.433.7.361.479.38.535.1.536-.382.488-.381.516-.37,1.052-.083.835-.062.686-.237.459-.278.424-.278.3-.226.348.072.441.6.066.772-.113.34.057.144-.676.34.131.217.189.052.544.3.075.433-.3.443-.545.248-.367.308-.432.578-.6,1.061.225.341-.423.37.047.093.554-.165.554-.3.394-.31.62-.021.395.546.423.31.507-.093.479.361.723.225.47.011.422.464.414.577.131.267.056.257.452.176.591-.093.422-.124.395.465.376.484.356.134.892-.475.488-.061.367.247.422.422.31.257.5-.083.413-.782.414-.288.027-.608.122-.247.122-.062.113-.721,1.164-.8.6-.856.15-.175.489v.611l.3.564.535.432.638.207.907.253.731.151,1.658.215.072.518.145.666.165.516.248.376.71.122.743-.009.566-.075.815-.141.443.113-.176.733-.247.619-.031.545-.041,1.306-.2.686-.031.526-.031.47v.413l.783.47.6.112,1.37.188-.454.527-.083.516-.02.526.031.619.123,2.122.134.6.34.459.638.273.433.094.649.084.526.207.206,1.051-.041.488.392.329.566.2.4.366.144.375.1.31.392.075.36.14.113.395-.133.348-.35.544.1.413-.423,1.3v.545l.361.507-.186.442-.175.309-.154.376.113.714.453.16.021.395-.267.178-.258.291-.185.592-.226.348-.371.281-.392.075-.555-.14-.093-.489.257-.714-.68-.385-.216.516-.351.16-.217-.254-.37-.713-.237-.6-.463-.225-.474.075-.381.338-.042.5.362.722.421.17.794.122.442.187.237.386.175.318.083.93-.2.376-.258.169-1.329-.028-.525.178-.433.132-1.814.094-.392.676-.2.5-.134.657-.052,1.418.011.685-.279.216-.226.131-.2.442-.341.61-.39,1.53-.309.479.155.422.34.376.083.461-.268.375-.433.31-1.03,1-.031.432-.052.479-.381.376-.422.338-.051.282.669.619.227.611.134.3.34,1.24.144.592.34.4.783.169.422.291.381.423.454.6.206.376,1.545.564.226.638.144.685.175.94-.494.29-.339.3-.1.347.217.356.422-.009.114.189-.031.356-.381.338-.124.4.267.667.175.583-.082,1.165-.031.488.236.3.423.338.35.291.278.263v.414l-.134.366-.556.621-.742.638-.412,1.512.031.488.267.311-.33.62-.288.309-.516.226-1.03.675.03.545.031.376-.278.235h-.278l-.288-.235-.443-.253-.556-.207-.186.207-.02.347.247.376.083.234.062.291-.144.751-.247.423-.278.319-.937.986-.01.508.051.356.268.254.381-.151.278.226-.01.376-.31.535-.566.428-.473-.437-.609-.268-.474-.511-.2-.5-.124-.4-.257-.446-.814-.835-.628-.216-.66-.254-.4-.16-1.266-.23-.659-.061-.4.014-.371.081-.9.173-.825.231-.422.248-.783.606-.392.554-.226.253-.237.037-.268.023-.382-.1-.844-.541-.392-.332-.578-.385-.7-.183-.588-.272-.7.192-.268.263-.536.38-.35-.094-.341-.272-.339-.376-.33-.287-.546-.394-.516-.4-.392-.333L1285,942.8l-.628-.066-.6.018-.484.085-1.4.066-.557-.178-.371-.315-.247-.258-.875-.78-.422-.333L1279.1,941h-.392l-.854.165-.763.268-.588.136-.442.061-.9.117-.7.3-.454.3-.237.1-.617.122-.721-.122-.587-.455-.557-.546-.546-.22-.577-.042-.773-.024-.586-.145-.309-.353-.042-.367.083-.38.247-.606.247-.4.041-.3-.113-.31-.382-.3-.4-.2-.566.005-.567.1-.659.188-.411.132-1.093.088-.586.039h-.485l-1.061-.1-.608-.164-.433-.1-.226-.029-.279-.009-.278.051-.741.207-.4.024-.279-.093-.268-.141-.267-.254-.494-.488-.69-.512-.494-.334-.412-.366-.124-.395-.051-.324-.093-.38-.381-.324-.669-.216-.66-.235-.752-.2-.958-.484-.371-.253-.649-.333-.6-.183-.5.033-.381.1-.4.118-.494.112-.464-.009-.525-.033-.422-.065-.464-.023-.422.1-.545.313-.372.344-.288.385-.33.244-.607.681-.268.183-.32-.062-.165-.108-.186-.2-.082-.262-.052-.235.062-.334.051-.248.032-.367-.062-.2-.267-.286-.361-.084-.422.141-.3.2-.329.061-.217-.061-.3-.183-.2-.2-.289-.15-.33-.075-.422-.009-.289.029-.35.065-.629.174-.423.263-.381.324-.319.281-.36.282-.248.1-.855.184-.876.248-.691.221-.391-.165-.3-.376-.113-.3-.01-.3.113-.4.289-.568.051-.551-.021-.507-.114-.253-.278-.235-.278-.057-.319.042-.247.127-.556.362-.547.348-.4.2-.175.046-.34-.023-.309-.15-.238-.108-.278-.094-.226-.015-.248.09-.154.1-.371.283-.4.257-.876.376-.8.123-.608-.015-.516.023-.555-.146" transform="translate(-1226.29 -848.408)"  stroke="#fff" stroke-linecap="square" stroke-linejoin="bevel" stroke-width="1" fill-rule="evenodd"/>
      <text id="136" transform="translate(31.773 54.705)" fill="#fff" font-size="13"  font-family="OpenSans-Bold, Open Sans" font-weight="700"><tspan x="0" y="0"></tspan></text>
    </g>
    <g id="_135_Aurangabad" data-name="135 Aurangabad" transform="translate(2256.969 384.671)">
      <path id="talId135" fill="#7DB8EC"  title="Aurangabad Taluka" data-name="Aurangabad" d="M1314.543,899.793l-.1-.413.349-.544.134-.348-.113-.395-.36-.14-.392-.075-.1-.31-.144-.376-.4-.366-.566-.2-.392-.328.041-.488-.206-1.051-.525-.207-.649-.084-.433-.093-.638-.273-.34-.459-.134-.6-.124-2.123-.03-.619.02-.526.083-.516.453-.527-1.37-.187-.6-.112-.782-.47v-.413l.03-.47.03-.525.2-.686.042-1.306.031-.545.247-.619.176-.733-.443-.113-.814.141-.567.075-.741.009-.711-.121-.248-.376-.164-.516-.144-.666-.072-.517-1.659-.215-.732-.15-.906-.254-.64-.207-.535-.431-.3-.564v-.611l.175-.488.855-.15.8-.6.721-1.164.062-.114.247-.122.608-.123.288-.027.783-.413.083-.413-.257-.5-.423-.31-.247-.422.062-.367.475-.488-.135-.892-.484-.357-.463-.376.124-.395.092-.423-.175-.591-.257-.452-.268-.056-.576-.132-.464-.414-.01-.422-.227-.47-.36-.723.093-.479-.309-.507-.546-.423.021-.394.309-.62.3-.393.165-.554-.094-.554-.37-.047-.34.423-1.062-.225-.576.6-.309.431-.248.367-.443.545-.433.3-.3-.075-.051-.544-.217-.189-.34-.13-.144.676-.34-.057-.773.113-.6-.066-.072-.441.227-.348.277-.3.278-.423.237-.46.061-.686.083-.835.371-1.052.38-.516.382-.488.535-.019.454-.011.287-.149.186-.31.031-.639.114-.423.216-.385.536-.536.473-.478.238-.4.093-.329.207.084.154.6.154.488.329.187.557.442.546.741.473.47.753.441,1.112-.1.794-.47.473-.187.691.01.289-.338-.01-.733.36-.114.228.846.587-.255.722-.233.731.394.361.668.566.441.341.789.1.563.3.413.371.121h.392l.412-.262.206-.376.721-.178,1.349-.046.484-.461.072-.572.155-.188.628-.02.392.461.217-.057.3-.375-.154-.273-.062-.516.536-.188.122-.188-.04-.592.011-.47.432-.263.556.432.371-.085.916-.544-.175-.751.422-.47.5-.451.3-.507.422-.329,1.628-1.015.268-.29.495-.516.082-.488-.37-.526-.083-.5.576-.216.495-.2.145.959.123.046.525.1.536.038.5-.066.566-.019.557-.244.175-.546.318-.225.217.545.463.254.608.159,1.133-.046.577.864.638.385.834-.338.433-.273.619-.347.432-.084.268.113.711.761.793.7.4-.349.454-.262.37.16.4-.009.433-.3.484-.657.351-.609.4-.668.546-.779.875-1.465.186-1.211-.259-.564-.278-.507-.072-.292.279-.441.289-.376,1.287-.5.619-.45.834-.235.741.2.814.329.608.319.948.488.257-.1.371-.386.371-.554.453-.328.454-.206.772.112.588.591.359-.15h.7l-.062.667.021.6.319.169.567-.235.969-.582,1.443-.235,1.761-.272,1.71-.292.732-.262.772-.207.33.414.34.131.474-.16.525-.169.629.207.072.526.186.376.349.384.774.066.658.066.618-.046.68-.282.722-.009.885.281.505.169,1.175.16.547-.094,1.658.826.473.9.67.074.288-.573.052-.525.412-.422.824-.094.938.206.3.169.67.413.267-.338.485-1.277.33-.422.463.291.114.16.319-.178.361-.291.391.347.257.433.288.169.433.094.64-.291.4-.272.33-.292.371-.534.33-.263.556.309.268.282.67.863.1.479.319.394.382.216.351.009.5-.188.186.5.329.628.608.536.7.028h.939l.586-.094.609-.516-.051-.4-.124-.526.083-.253.71.075.206.648.484.967.021,1.747.268.648.443.056.69.066.2.751,2.205.216,1.2-.009,1.947-.009,1.021-.3.474-.2.444-.348.144-.553.164-.479.484-.217.743.169.463.235.556.413.278.488-.082.63.021.694.206,1.23-.319.63-.444.573-.524,1.09.556.478.247.488.083.621.144.526.453.309.267.517-.349,1.625-.423.789-.3.742.65.046h.535l.618-.046.721.224.67.78,1.237,1.155,1.184.995,1.051.958.134,1.268.381.45.3.461.051,1.127.238.169.278.329.031.525-.186.433-1.659,1.192-.855.385-.741.272-.845.263-.886.441-.165.733-.216,2.132-.216,2.113.092,1.409-.835.666-.217.948-.237.912.175,2.235.073,1.493-.556,1.136-.072.629-.1.592.124.479.308.282.495.1h.834l.412.169.175,1.381.319.9.372.751-.267,1.277-.289.986-.319,1.061-1.288.066-1.638.31-1.793.028-.041.836.268.7.536.516.464.508.3.7.124.555.206.488.526.094-.062,1.09.062.977-.051.5-.412.2-1.144.328-.536.169-.135.508.289.441-.144.422-1.432.141-1.1.141.062,2.113.092.826-.021.7-.474.22-.4.178-.144.273-.279.347-.216-.075-.341-.122-.5.2-.412.291-.34-.038-.267-.413-.259-.441-.535-.1-.33.432-.443.309-1.38-.62-1.247-.178-.751.076-1.092.224-.917.151-1.2.3-.608.385-.577.393-.453-.018-.608.093-.474.169-.515-.075-.093-.441-.062-.413-.247-.216-.464-.056-.825.516-.566-.047-.6-.244-.4-.112-.371.356-.6,1.174-.35.32-.6.093-.681.751-.649.328-.494.123-.536.347-.041.47.041.685-.216.892-.031.545-.309,1.146-.268.582-.154.254-.454.226-.494-.113-.6-.395-.917-.413-1.443-.508-.618-.262-.741-.357-.567-.338-.639-.2-.813.31-1.031.911-.288.677-.165.526-.083.7.072,1.943.216.593.257.563.175.4.278.7.124.582-.361.479-.114,2.442.546.263.175.141.237.376-.134.366-.412.667-.423.526-.494.648-.391.094-.433.178-.577.179-.288-.084-.505-.263-.36.188-.608.178-.731-.413-.546.263-.33.244-.34.1-.4-.122-.361-.253-.443-.207-.73-.169-.609-.413-.3-.357-.514-.545-.238-.63-1.947-.2-.031-.18.175-.29.134-.357v-.61l-.01-.367-.165-.263-.248-.169-.4-.244-.494-.225-.113-.591v-.545l.021-.5-.083-.46-.2-.329.217-1.277.175-.6.186-.732.463-1.193.165-.751-.34-.02-.576.02-.6.215-.576.367-.484.3-.742.244-.844.141-.865.009-.1-.517-1.514-.723-.742-.263-.783-.291-.68-.338.2-.7.433-1,.669-2.264-.093-.291-.319-.328-.093-.7v-.751l.011-.657-.092-.488-.227-.526.34-.864.093-.883-.093-.554-.279-.253-.319-.188-.66-.339-1.751-.732-.742-.084-.639-.15-.782-.14-.773.075-.5.2-.382.413-.236.554-.155-.254-.134-.611-.289-.723-.546-.525-.484-.395-.66-.459-.741-.226-1.186,1.268-.876.7-.474.789-.227.469-.339.075-.381-.14-.567-.339-.6-.45-.927-.564-.495-.648-.051.694-.061.264-.176.187-.516.244-1,.413-.258.3-.2.189-.32.117-.308-.032-.1-.3.041-.484-.3-.324-.659-.193-.752-.084-1.112-.15-.577-.07-.7-.094-.422-.141-.309-.474-.2-.479-.371-1.211-.351-.592-.124-.31-.237-.169-1.02-.009h-.68l-.64-.053-.267-.149-.4-.188-.855-.033" transform="translate(-1293.65 -842.856)"  stroke="#fff" stroke-linecap="square" stroke-linejoin="bevel" stroke-width="1" fill-rule="evenodd"/>
      <text id="135" transform="translate(37.031 43.3)" fill="#fff" font-size="13"  font-family="OpenSans-Bold, Open Sans" font-weight="700"><tspan x="0" y="0"></tspan></text>
    </g>
    <g id="_142_Soegaon" data-name="142 Soegaon" transform="translate(2269.759 236.996)">
      <path id="talId142" fill="#7DB8EC" title="Soegaon Taluka" data-name="Soegaon" d="M1445.69,724.522l-1.031.544-1.215.686-.958.45-.7.178-.4.066-.258-.094-.329-.507-.351-.235-.72.178-.33.292.134.517-.134.441-.4.433-.823.169-.887.15-.473.028-.547.253-.309-.281-1.072-.723-1.669.281-.556.338-.639.292-.639.235-.587.216-.433-.15-.02-.47.371-.292.308-.14.381-.132.392-.253.01-.263-.175-.216-.072-.263.021-.573-2.772.093-.36-.1-.381-.283-.391-.121-.412.338-.546.076-.1-.254.34-.394.484-.273.433-.32.1-.309-1.379.245-.485-.029-.289.395-.186.32-.318.038-.32-.376-.289-.451-.093-.544.3-.536-.145-.253-.751-.075-.392.094-.712.113-1.05.244-.537.347-.3-.009-.6-.169.113.282.413.131.4.085.4.169.258.121.081.3-.092.272-.381.1-.412-.009-.392-.084-.494-.207-.372-.178-.349-.123-.32.169-.288.141-.206-.066-.227-.262-.084-.206-.03-.376-.041-.2-.484.028-.278.235-.227.291-.1.338.083.339.37.4.289.694.01.47v.394l-.391-.46-.392-.441-.36-.4-.67-.517-.4-.329-.423-.15-.638.273-.124.441.072.422.227.4.113.488.155.423.195.357.382.7-.032.366-.412.112-.546-.094-.525-.178-.342-.057-.339-.1-.062-.376.185-.328.174-.442-.422-.2-.484.019-.268.028-.485-.046-.278.215-.2.2-.7.479-.205-.291-.206-.319-.165-.216-.206-.347-.268-.329-.422-.178-.721-.056-.556-.056-.607.075-.32.047-.114.451.041.347.124.413-.2.338-.34.292-.711.778-.278.47-.257.292-.33.234-.34.01-.412-.216-.392-.292-.226-.319.114-.469.124-.328-.124-.7-.134-.413-1.092-.949-.094-.413-.01-.958.052-.6.134-.479-.371-.2-.587-.048-.351-.206-.236-.339-.207-.394-.392-.207-.318-.037-.33.159-.1.347-.114.479-.237.225-.464.094-.154-.273-.289-.206-.186.29-.113.423.093.253.166.253-.2.206-.268.189-.041.244.619.094.318.131-.206.141-.256.1-.186.234.061.207.176.385.051.366-.031.395-.165.262-.186.1-.371-.149-.206-.451-.206-.329-.35-.122-.217.215.186.178.236.244.021.244-.34.15-.423.15-.793.714-.608.45-.33-.169-.144-.441-.1-.123-.236.1-.32.291-.35.1-.217-.309-.237-.047-.133.235-.165.385.154.676-.412.046-.4-.187-.319-.019.051.225.206.121.34.367-.051.328-.165.395-.052.384-.649.1-.392.075v.356l.278.122.391-.037-.061.385-.267.422-.206.366-.268.15-.257-.384-.3-.367-.258-.216-.432-.187-.31-.141-.185-.591v-.769l-.309-.385-.484-.31-.495-.272-.464-.2-.412-.573.205-.742.339-.639.3-.394.741-.525.277-.347-.124-.273-.36-.037-.36.094-.269.235-.422.169-.308-.009-.515-.808-.557-.16-.474.057-.5.028-.557-.3.114-.4.619-.319.35-.225.123-.461-.092-.479-.453-.657-.474-.347-.464.056-.349.141-.537.207-.329.4-.165.544v.545l.329.367.413.169.309.45.082.423-.051.376-.227.413-.2.536-.1.366-.133.451-.1.488-.186.657-.308.779-.113.508.021.516-.124.62-.175.5-.412.366-.957.582-1.4,1.211-.247.348-.248.169-.3.056-.4-.225-.248-.564-.041-.5-.248-.375-.37.16-.546.694-1.35.62-.731.112-.382.114-.381.281-.412.413-.69.6-1.515,1.136-.443.489-.442.432-.8.817-.6.347-.68-.009-.752-.15-.753-.206-.576-.207-.784-.094-.9-.084-.474-.048-.412-.046-.2-.075-.278-.5-.134-.31-.444-.2-.494.084-.588.151-.7.5-.391-.1-.341-.262-.587-.329-.422-.141-.567.029-.433.084-.444.281-.35.207-.371.319v.544l.1.348.073.648-.062.564.01.478-.546.6-.381.065-.34.112-.072.263-.083.488-.474.076-.535-.1-.506-.113-.329-.046-.8-.066-.834-.066-.411.442-.7.544-.444.424-.659.375-.494.253-.9-.112-1,.132-.257.347-.515.526-.464.376-.927.564-.3.094L1344.9,745l-.227.367-.257.366-.279.292-.2.357-.371,1.325-.927-.564-.669-.376-.557-.253-.566-.178-.917-.395-.6-.225-.34.093-.124.273.011.348-.237.328-.32.395-.649.459-1,.545-.38.084-.042.282.083.281-.216.376-.411.338-.485.375-.413.328-.483.386-.453.1-.865.1-.464.573-.557.573-.957.967-.588.094-.957-.3-.721-.4-.485-.027-.876.178-.525.2-.578.1-.6-.442L1325.3,752l-.258-.375-.33-.084h-.741l-1.36.121-.886-.093-.339-.048-.587.084-.217-.14-.052-.545-.267.028-.3.169-.484.066-1,.376-.557-.084-.381.141-.1.309-.092.46-.464.385-.381.178-.68.356-.319.282-.3,1.192-.371.573-.37.339-.2.751-.289.563-.154.291-.279,1.9-.34.883-.556.084-.381-.179-.536-.17-.422-.178-.269-.535-.267-.47-.217-.451-.2-.657-.6-.066-.422.057-.34-.037-.237-.263.072-.338.083-.206.185-.752.062-.995.175-.648.351-.47.361-.45.184-.422-.164-.582-.34-.254.1-.544,1.041-.687.566-.61.2-.273.113-.8.474-.958.154-.94.321-.7.142-.159.371-.846v-1.033l.166-1.145-.773-.648-.1-.442.031-.516-.412-.273-.444.189-.309.32-.256.121-.732-.3-.34-.76-.3-.563-.392-.347-.412-.151-.4.066-.226.376-.31.459-.464.151-.237-.235-.535-.929.113-.178-.072-.353-.154-.334-.381-.334-.011-.417.042-1.118.061-.573.165-.633.113-.963.237-.365.236-.118.37-.084h.248l.382-.1.339-.127.742-.231.062-.206.135-.207-.011-.375v-.113l-.01-.151.01-.2.051-.229-.062-.424-.33-.981-.072-.169-.073-.277.011-.4.268-.122.217-.075.36,0,.277.014.361.038.216.042.166-.056.02-.714-.134-.963-.052-.211-.144-.277-.175-.371-.155-.442-.113-.447h.258l.464.095.392.055.226.029.329.061.371.019.217-.131-.041-.361-.042-.329-.051-.258-.072-.409-.01-.869.072-.352.175-.2.155-.267.031-.4.359-.582.1-.178.042-.15.041-.235.062-.259.33-.661.144-.193.278-.2.248-.024.246.075.176.136.124.3.083.525.267.583.134.333.165.188.145-.009.35-.131.649-.1.38-.051.464.018.268.033.381.066.361.108.463.155.144.014.536-.014.6.028.483-.009.372-.065.35-.131.247-.24.164-.272.093-.385v-.375l.36-.385.711-.085.463-.037.34-.071.578-.094.452-.075.671.07.886.061.36-.042.165-.192.021-.334-.041-.353-.093-.539-.154-.681-.052-.619.093-.343.134-.38.216-.2.516-.089,1.39.2,1.071-.071.7.014.546.259.474.046,1.226.2,1.225.1.557.028.432-.112.206-.291.093-.469.083-.31.175-.31.175-.183.289-.056.155.2.071.367-.061.455.391.723.124.276.083.273.206.394.093.145.062.164v.122l-.092.151-.011.173.155.15.01.147-.042.16-.031.257.073.207.164.2.1.127.113.013.2-.051.361-.019.351-.057.793-.084.514-.075.33-.052.36-.061.628-.037.959-.146.318,0,.237.01.1.138v.866l.186.566.155.726.155.542.1.329.021.74-.051.4-.165.084-.113.073-.021.261.041.216.093.189.134.728.041,1.349.01.474-.031.869.031.772-.01.789.083.549.226.787.073.246.1.381.113.258.042.228v.242l.134.3.227.1.227-.015h.143l.557-.059.721-.052.381-.021.195.021.2.08.217.089.082.11.041.169.031.148.164.042.1.024.145.078.218.12.277.064.031.006.062.021.154.113.115.123.041.128.051.178.041.108.186.169.372.113.257.035.247.008.351,0,.371.053.206.1.351.087.2.064.226.216.021-.275-.031-.061-.041-.126-.041-.185-.289-.329-.041-.1-.031-.1-.051-.077-.113-.035-.051-.062-.021-.112.062-.187v-.083l.031-.141.092-.182.113-.1.083-.092.031-.085-.031-.089-.021-.077.072-.083-.031-.174-.021-.117-.041-.211-.257-.324-.155-.214-.134-.141-.082-.166-.083-.3.227-.122.227-.042.937.013.33-.122.1-.07.051-.1v-.077l.032-.154.092-.09.072-.111.01-.141.01-.169.206-.248.257-.048.382.024.165-.015.329-.086.587-.143.371-.087.412-.042.176.006v.15l-.021.2-.021.233-.01.266.237.584.124.242.144.368.361.73.071.465.145.911.33.685.124.284.123.162.176.094.165.048.2-.007.361-.174.464-.476.195-.172.063-.131-.073-.261-.215-.263-.144-.155-.093-.167-.1-.246-.062-.26v-.672l.032-.837-.022-.2.032-.407-.021-.626-.041-.132-.093-.187-.061-.125.092-.234.083-.174-.042-.594-.03-.108-.052-.066-.072-.124-.052-.132.031-.15.051-.253-.051-.463-.042-.22-.073-.148-.082-.151.051-.4.361.005.4.017.33.009.35.187.124.176.155.277.011.141v.161l-.062.242.01.354.01.169.052.145.113.059.433-.017.483-.016.412.014.381.019.72.031.64-.026.216,0,.062.112.03.146v.178l.216,1.047.073.259.32.326.175.167.093.1.216.229.216.257.062.153.165.226.041.171.021.143.062.174.2.072.361.219.185.1.155.112.082.075.185.037.154-.019.154-.059.094-.115.01-.143.02-.187-.02-.169-.041-.323-.051-.181-.062-.234v-.255l.021-.246.113-.307v-.172l-.021-.108-.031-.1-.052-.139-.051-.14-.041-.2.083-.112.34,0,.227-.017.35-.037.309-.062.814-.223.4-.108.062-.028-.032-.127-.114-.12-.1-.173-.052-.246-.041-.125v-.172l.1-.371.041-.777.041-.209.186-.152.392.049.082.024.134.059.227.08.144.059.175.055.268,0,.073-.1.051-.094.072-.07.072,0,.062.122.051.016.061-.023.021-.066v-.1l.01-.115.042-.066.092-.028.061-.044-.021-.092-.01-.151-.021-.148-.04-.164-.093-.211-.031-.073.031-.105.175-.1.228.117.072.038.175-.012.113-.061.177-.028.1-.033.011-.113.011-.092h.093l.112.085.094.1.226.153.031.061.062.162.041.027.206-.008.051-.106.051-.19.072-.13.145-.056.093.091-.021.193.072.007.145-.014.267-.119.01-.206-.134-.249-.1-.254-.34-.874-.072-.582-.135-1.77-.072-.4-.094-.164-.051-.319-.02-.193-.083-.333.031-.662-.021-.413-.072-.358-.2-.615-.083-.253-.072-.169.165-.155.66-.146.433.033.711-.052.588-.046.01-.244.01-.231-.01-.342.093-.23.2-.389.329-.422.041-.3-.082-.249-.01-.277.041-.371.031-.3.144-.24.092-.006.3-.022.926.637.537.245.74.212.485.3.258.216.226.141.258.065.33-.047.165-.174.072-.4.011-.263.01-.817.051-.408.228-.206.412.028.144.052.237.155.38.334.237.151.329.173.248.123.247.047.257-.066.206-.061.33-.02.247.005.083.141.114.113.184-.005.144-.013.587.033.856.07.2.014.1.089.134.268.071.09.176.033.186.055.092.061.289.052.308.037.124-.155.175.042.186.066.082.267.2.033.134-.145.123-.047.145.057.205-.117.217.057.185.037.371-.1.186-.063.278-.1.36-.126.371-.164.536,0,.443-.052.608-.033.257-.091-.051-.143-.206-.273.01-.549.062-.174.051-.277-.021-.089-.2-.127-.186-.1-.093-.141-.082-.291-.041-.146v-.1l.041-.2.071-.193-.175-.206-.185-.084-.236-.253-.144-.141-.114-.113.051-.244-.082-.511.483-.02.309.015.619-.033.33-.051.844-.019,1.154.037.814.174.185.328.133.221.135.207.443.169.329.1.485.009.711.027,1.339-.277.329.108.289.061.165.014.2-.187.051-.231.052-.455.319-.742.247-.09.372-.056.433.01.38.051.381.037.4-.037.062-.155.073-.3.031-.253.041-.221.062-.244-.164-.446-.186-.413v-1l-.041-.582.165-.286.124-.174.082-.225-.123-.371-.1-.273-.082-.258-.1-.244-.092-.273-.114-.216-.288.028-.145.028-.257-.018-.061-.268.051-.347-.092-.343.1-.558.1-.4.1-.324.186-.366.339-.461.227-.365.206-.193.349-.127.227-.052.226-.009.083.052.155.1.134.02.124-.277-.052-.306.113-.149.319.061.278.061.247.057.351.061,1.02.2.67.141,1.03.282,1.587.328,1.648.752.392.127.422.07.165.2-.248.46-.165.329-.124.319-.092.393.009.874-.071.8.124,1.639-.052.582-.3.338-.072.1-.144.229-.289.8-.248,1.272-.01.69.093.319.165.282.134.193.175.253.165.277.269.226.607.009.289-.033.248-.014.514.036.6.2.113.064.165.075.1-.11.515-.565.34-.244.2-.17.186-.152.494-.263.184-.115.135.127.165.163.062.152.071.092.051.053.083.108.062.092.041.089.031.115.042.09.113.136.3.128.124.122.082.127.113.089.144.132.248.268.051.257.114.461,1.514.009.432-.066.505-.187.2-.432.083-.329.659-.019.341.028.793-.009.638-.094.37.094.269.254.339.131.145.639-.031,1.4-.094,1.089-.1,1.437-.154,1.3-.062.385.135.506.258.686.113.949,2.039.112.866-.047.4-.131.113-.357.175-.479.371-.573.4-.291.371-.216.412-.112.464.028.484.084.464.15.485.329.01.422-.062.574-.124.7-.36,1.314-.442.891-.042.189.051.121.247.013.814-.131.608-.111.289-.021.134.106.134.206.124.117.113-.068.155-.165.361-.185.226-.329.257-.2.227-.1.279.037.134.3.124.174.236.174.174.08.3.136.444.1.454.066.349.366.741.63.659.371.424.178.381-.033.474-.1.638-.272,1.391-.8.949-.37.318-.16.351-.328.133-.263-.133-.249-.289-.15-.433-.1-.629-.356-.432-.033-.453-.113-.5-.07-.464-.169-.362-.145.145-.3.361-.263.247-.169.226-.31.01-.3v-1.2l-.021-.779-.237-.7-.009-.314.082-.206.412-.217.217-.056.328-.014.31.046.495-.027.432-.01-.36-.428-.01-.314v-.69l-.165-.606-.113-.253-.03-.358-.114-.4-.371-.784.062-.526.083-.4.072-.375.32-.1h.4l.3.062.361.018.484.117,1.2.3.391.037.135-.079.021-.361.021-.39.031-.488.031-.343.092-.347.092-.132.5.014.237.013.33.009.422-.013.505.046.36.2.33.258.113.259-.031.431.092.344.144.224.052.3-.042.9.124.986-.062.99.031.419.165.082.772.03.515.039.248.1.041.244.846.263.37.138.371.163.289.121.134.149.051.145.01.075-.031.092-.093.056-.01.075.031.142.042.117-.051.246.009.114v.1l-.031.075-.062.087-.062.081.01.081.031.1.052.212.052.461.009.132.01.115-.031.164v.163l-.021.169.041.286.1.25.1.8.206,1.423.68-.287.494-.01.587-.047.567-.028.371-.066.411-.169.443-.319.392-.356.351-.358.473-.037.217.1.3.385.9.225,1.9-.272.732-.117.546-.131.5-.2v-.394l.082-.348.041-.511.082-.738.052-.46.051-.281.031-.23-.113-.231-.258-.159-.093-.291.083-.521-.062-.263-.124-.207-.092-.163-.052-.09.144-.193.444.009.184-.088.31-.123.34-.121.4-.057.339.057.669.064.34-.023.485-.155.5-.253.361-.16.308-.206.227-.4.144-.573-.011-.517-.031-.437-.081-.436-.155-1.1.083-.4.164-.277.2-.226.412-.173.288-.029.793.047.3-.005.454,0,.34.192.2.1.268.061.464-.038.6.061.731.145.537.165.4.225.268.052.463-.014.361-.244.144-.343.133-.662.288-.1.413-.042.432-.048.35-.116.289-.118.144-.156.1-.31.051-.272.2-.281.227-.165.381-.08.391-.066.268-.029.226-.122.423-1.019.082-.165.052-.215-.042-.207-.041-.381-.062-.5-.072-1.156.638.6.794.005.288-.042.278-.183.175-.188.341-.112.371.042.442.605.3.393.217.31.361.328.267.085.546.1.144.357-.134,1.793-.082,1,.38.944.834,1.874.443.826.207.5v.521l.072.8-.124.981-.093.273-.216.54-.165.878-.03.31.134.244.33.286.32.418.247.633.083.418-.062.352-.206.352-.443.488-.361.681.011.461.113.732.124.821.134.752-.021.3-.185.343-.422.362-.547.075-.69.066-.813.055-1.1.413-.494.132-.371.16-.2.211-.082.371.145.85.081.409.218.7.051,1.188.009.7-.02.248-.1.254-.247.08-.185-.014-.329-.151-.506-.249-.3-.211-.175-.286-.123-.418-.031-.319-.154-.16-.155.132-.165.389-.165.239-.247.307-.289.163-.237.07-.247.244-.309.217-.422-.112-.164-.113-.144-.211-.062-.31-.052-.234-.308-.066-.207.018-.133-.093-.217-.066-.124.2.021.211-.124.418-.062.117-.217.117-.35.046-.639.056-.618.2-.247.108-.258.057-.309-.029-.237-.131-.145-.22-.328-.231-.393.057-.412-.334.041-.356.051-.422-.155-.658-.35.31-.442.413-.361.235-.464.3-1.029.507h-1.144l-.639-.112-.752-.413-1.144-.226-.37-.3-.227-.658-.2-.788-.536-.413-.546-.264-.247-.658-.495-.177-.474.3-.4.169-.278-.023-.381-.16-.248-.259-.319-.281-.443-.695-.258-.554-.351-.173-.34-.029-.577.009-.618.024-.535-.281-.526-.244-.5-.193-.473-.048-1.205-.1-.711-.052-1.268-.132-.443-.061-.5-.047-.711.2-.31.422-.227.488-.184.356-.175.048-.846-.5-.514-.488-.557-.367-.67-.4-.339.17" transform="translate(-1306.26 -699.275)"  stroke="#fff" stroke-linecap="square" stroke-linejoin="bevel" stroke-width="1" fill-rule="evenodd"/>
      <text id="142" transform="translate(8.24 41.975)" fill="#fff" font-size="13"  font-family="OpenSans-Bold, Open Sans" font-weight="700"><tspan x="0" y="0"></tspan></text>
    </g>
    <g id="_138_Khuldabad" data-name="138 Khuldabad" transform="translate(2240.947 341.097)">
      <path id="talId138" fill="#7DB8EC" title="Khuldabad Taluka" data-name="Khuldabad" d="M1332.871,811.658l-.3.249-.844.079-.227.093-.2.428-.072.442-.051.459-.144.371-.165.418-.267.357-.835.732-.072.62-.011.681-.041.512-.041.333.392.315.3.3.145.324.083.338.226.286.495.287.1.1.732.465.937.235.505.122.7.263.206.546.062.488.186.554.113.573.227.591.144,1.014.485.113.4.123.144.544-.02.489.144.442.38.329-.35.554-.464-.216-.361-.226-.413.1-.215.075-.556-.178-.206-.366-.154-.31-.237-.347-.38.16-.341.272-.206.281-.464-.037-.339.027-.227.16-.722.188-.216.451-.083.413.093.582.289.282.186.7.433,1.756-.113.883-.268.6-.072.545-.824,2.038-.3.864-.113.488.011.788-.145.573-.536.424-.6.648-1.1.422-.412.384-.021.536.494.629.464.61.248.5.2.5.34.366.495.441.051,1.147-.01.6-.155.479-.236.488-.01.357.277.442.113.488-.083.46-.092.63-.021.441.35,1.034.073.686-.124.46-.083.46-.351,1.2-1.133.047-.608-.16-.463-.253-.217-.546-.319.226-.175.545-.556.244-.566.019-.494.066-.536-.039-.526-.1-.124-.047-.143-.958-.495.2-.577.217.082.5.372.526-.083.489-.5.516-.268.29L1320.252,855l-.422.329-.3.507-.5.451-.422.47.175.751-.917.544-.371.085-.556-.432-.433.262-.01.47.041.591-.124.189-.536.187.062.517.154.273-.3.375-.216.057-.392-.461-.629.02-.154.188-.072.572-.484.461-1.35.046-.722.178-.206.376-.412.262h-.392l-.371-.121-.3-.413-.1-.564-.341-.789-.566-.441-.361-.668-.732-.393-.722.234-.586.254-.227-.846-.361.114.011.732-.288.338-.69-.009-.474.187-.793.47-1.113.1-.752-.441-.474-.47-.546-.742-.556-.442-.33-.187-.154-.488-.154-.6-.206-.084-.093.328-.237.4-.474.478-.535.536-.217.385-.113.422-.031.639-.186.31-.289.149-.452.01-.536.018-.1-.536-.381-.534-.36-.479-.433-.7-.722-.488-.411-.178-.351-.187-.567-.2-.845-.01-.567.066-.762.159-.567.178-.34.028-.278-.019.1-.3.547-.1.618-.085.319-.347.185-.47.134-.694-.443-.357-.432.094-.207.47-.433.431-.7-.131-.339-1.371-.794-.563-1.782-.789-2.081-.769-1.607-.366.144-6.066.413-1.757-.021-2.066.443.226.154.028.494-.16.1-.385-.113-.666-.464-.338-.247-.151-.876-.282-.484-.055-.741-.16-.371-.638-.443-.141-.577-.291-.021-1.193.186-.018.546-.066.629.094.474.2.217.149.226-.215.165-.488.938-.048.186-2.508-1.278-.131-.8-.273-1.473-.121.031-.489.062-.526V833.2l-.083-.817-.083-.705-.4-.422-.628-.45-.67-.207-.124-.3-.052-.459.134-.677.2-.713.176-.47.227-.526.134-.459.319-.132.628.141.258.019.278.367.051.384-.226.235-.3.292.144.206,1.165.141.36-.15.268-.338.1-.5.114-.63.123-.206-.206-.385-.443-.216-.186-.357.155-.461.474-.235.38-.094.567.1.31.047.1-.535.505-.272.4.123.062.178.073.592v.544l.113.516.361.217.535-.348.773-.807.329-.339.277-.676.443-.338,1.02.2.474.32.4.291.659.441.494-.122.619-.413v-3.569l-.134-.451-.329-.628-.3-.648-.475-.892-.226-.47-.134-.432.268-.366.35-.066.4.226.2.451.392.046.474-.235.433-.085.731.038.454.32.34.507.257.338,1.164-.319.494-.216.032-.469.071-.7.144-.357.175-.367v-.6l.248-.16.556.037.238.3.216.582.309.075.876.01,3.162-.066h.68l.546.169.5.292.412.244.454.3.556.149.587-.187.2-.545.052-.7-.371-1.324-.217-1.25-.628-1.54.236-.291.309-.292.144-.4.052-.45.052-.451.257-.169.257.187.484.263.01-1.126-.072-.686-.093-.385.021-.338.144-.319.268-.235.2.038.278.386.494-.348.443-.272.752-.2.742-.048.485-.018.731-.028.217-.385.278-.451,1.267-.488.763-.253.638-.281.556-.235.381.14.082.451.113.488.279.648.844.91.494.573.268.15.474-.226.289-.5.4-.459.258-.554.546-.752.484-.093.566-.178.567-.169.927-.423,1.741-.019.586-.038.351-.1.319-.432-.258-.348-.33-.3.268-.282.608-.874.431-.507.216.319.269.151.134.009.072-.441-.072-.358-.042-.468.289-.114.32-.2.226-.244.288-.16.609-.188.092.424-.092.534.03.5.207.282.134.169-.042.525-.4.648.206.442.206-.029.371-.441.34-.545.1-.4.042-.573.2-.31.32-.149.289.065.215.1.258.16.629.085-.279.432-.124.432.072.141.423.131.278.188-.093.329-.443.385-.33.887-.216.263-.289.178-.288.24-.227.582.268-.051.349-.193.381.117.165-.01.392-.1.422-.123.7-.259.568-.075.545.1-.4,1.112.154.188.681.169.34.563-.485.4-.556.308-.495.452-.608.319-.278.4.083.281,1.031.141.566.084.165.376-.021.535.062.376.073.507" transform="translate(-1278.27 -800.369)"  stroke="#fff" stroke-linecap="square" stroke-linejoin="bevel" stroke-width="1" fill-rule="evenodd"/>
      <text id="138" transform="translate(7.053 35.875)" fill="#fff" font-size="13"  font-family="OpenSans-Bold, Open Sans" font-weight="700"><tspan x="0" y="0"></tspan></text>
    </g>
    <g id="_140_Phulambri" data-name="140 Phulambri" transform="translate(2289.756 351.636)">
      <path id="talId140" fill="#7DB8EC" title="Phulambri Taluka" data-name="Phulambri" d="M1327.767,851.9l.35-1.2.083-.461.124-.459-.072-.686-.35-1.033.02-.441.092-.629.083-.459-.114-.488-.278-.442.011-.357.236-.488.155-.479.01-.6-.052-1.146-.494-.441-.34-.366-.2-.5-.247-.5-.463-.61-.495-.629.021-.536.412-.385,1.1-.422.6-.648.537-.424.144-.573-.01-.788.114-.488.3-.864.824-2.038.072-.545.268-.6.113-.883-.434-1.757-.185-.7-.289-.282-.092-.582.081-.413.217-.451.721-.189.227-.159.339-.028.463.037.207-.281.34-.272.381-.159.237.347.154.31.206.365.557.178.216-.075.411-.1.36.226.464.216.35-.555-.381-.328-.144-.442.021-.488-.144-.544-.4-.123-.483-.112-.144-1.015-.227-.591-.113-.573-.186-.554-.061-.488-.206-.545-.7-.263-.5-.121-.937-.235-.732-.465-.1-.1-.494-.287-.226-.286-.083-.338-.145-.325-.3-.3-.392-.315.041-.333.042-.512.01-.681.073-.62.834-.733.268-.356.165-.418.144-.371.051-.459.073-.442.2-.427.227-.094.844-.079.3-.249,1.679-.019,1.154.019.464-.338.381-.3.124-.263.33.019,1.7.225,1.195,1,1.525,1.259,3.328,1.315-.051.564-.072,1.38.164.263.485.1.731.18.423.356.4.432.268.235,1.02.093,1.267-.224.525-.574.2-.517.041-.91.289-.545.309-.507.607-.347,1.731.01,3.431.112,1.133-.281.989-.217,1.2-.132.8.029,1.081.31.381.9-.124.535-.33.338.814.827v.619l-.144.479-.443.132-.576.1-.051,1.127.37.3.154.45-.329.263-.34.536-.206.572.041,2.385.659,1.719,3.72-.075,2.441-.263,2.585-.188.794.939,1.535.864.679.413.258,2.742,1.092,2.367,1.246,1.465.525.675,1.01-.713.524-1.033.454-.826.618-.151.886.977.443.62.2.733.1.827.186.939.433.9,1.143.676.475.244.741.112.927-.32,1.03-.507.639-.169.907-.123.113.667.1.648.34.075.411-.028.423-.1.453.122.206.526.432.535.515.855-.021.3-.124.38-.886,1.465-.536,1.6-.875,1.333-.422.676-.289.967-.71-.075-.083.253.124.526.051.4-.607.516-.588.094h-.937l-.7-.027-.608-.536-.33-.628-.185-.5-.5.188-.35-.01-.382-.216-.32-.394-.1-.479-.67-.863-.268-.282-.557-.309-.329.262-.371.535-.33.291-.4.272-.638.291-.433-.094-.288-.169-.258-.433-.39-.347-.362.291-.319.178-.114-.16-.463-.291-.33.422-.484,1.277-.268.338-.67-.413-.3-.169-.938-.206-.825.094-.413.422-.051.526-.287.573-.67-.074-.475-.9-1.658-.826-.546.094-1.174-.16-.505-.169-.886-.281-.721.01-.679.282-.619.046-.658-.065-.773-.066-.35-.384-.186-.376-.072-.526-.629-.207-.525.169-.473.16-.34-.131-.33-.414-.773.207-.731.263-1.711.291-1.761.272-1.442.234-.969.582-.567.235-.318-.169-.021-.6.062-.668h-.7l-.361.151-.587-.592-.773-.112-.453.206-.454.328-.371.554-.371.385-.257.1-.948-.488-.607-.319-.814-.329-.742-.2-.835.234-.617.45-1.288.5-.288.376-.279.441.073.291.278.507.258.564-.186,1.212-.876,1.465-.545.779-.4.667-.35.61-.484.658-.433.3-.4.009-.371-.16-.453.263-.4.348-.793-.7-.711-.76-.268-.114-.433.085-.618.347-.433.273-.834.338-.64-.385-.576-.863" transform="translate(-1325.83 -810.451)"  stroke="#fff" stroke-linecap="square" stroke-linejoin="bevel" stroke-width="1" fill-rule="evenodd"/>
      <text id="140" transform="translate(7.244 30.335)" fill="#fff" font-size="13"  font-family="OpenSans-Bold, Open Sans" font-weight="700"><tspan x="0" y="0"></tspan></text>
    </g>
    <g id="_139_Paithan" data-name="139 Paithan" transform="translate(2264.813 441.402)">
      <path id="talId139" fill="#7DB8EC"  title="Paithan Taluka" data-name="Paithan" d="M1314.3,898.123l.854.033.4.188.268.15.638.052h.68l1.021.009.236.169.124.31.35.591.371,1.212.2.479.309.474.422.141.7.094.577.07,1.113.151.752.084.66.193.3.323-.042.484.1.3.309.033.319-.117.2-.189.257-.3,1-.413.515-.244.175-.187.062-.264.052-.694.494.648.928.564.6.45.567.339.381.14.34-.075.226-.468.474-.789.876-.7,1.186-1.267.741.226.66.459.484.394.547.526.288.723.134.611.155.253.236-.554.381-.413.5-.2.772-.075.783.14.638.15.742.085,1.752.733.659.339.319.188.278.254.093.554-.093.883-.34.863.227.526.093.489-.011.657v.751l.092.7.32.329.092.29-.67,2.263-.433,1-.2.7.68.338.783.292.742.263,1.514.724.1.516.865-.009.845-.141.741-.244.485-.3.576-.367.6-.216.578-.019.339.019-.165.751-.463,1.193-.185.733-.176.6-.217,1.278.2.328.082.459-.021.5v.545l.113.591.5.226.4.244.247.169.165.263.011.367v.61l-.135.357-.174.291.03.179,1.948.2.237.63.514.545.3.356.608.413.731.169.444.207.36.254.4.122.34-.1.33-.244.546-.263.732.413.608-.178.36-.189.5.264.289.085.576-.179.433-.178.392-.094.495-.648.422-.525.412-.668.134-.366-.238-.376-.175-.14-.546-.263.113-2.442.361-.479-.124-.582-.278-.7-.175-.4-.257-.563-.216-.593-.072-1.942.082-.7.165-.525.289-.677,1.03-.911.814-.31.639.2.567.338.742.357.618.263,1.442.507.916.414.6.394.494.112.454-.226.154-.254.269-.582.307-1.146.032-.545.216-.892-.042-.685.042-.47.536-.347.495-.123.649-.329.68-.751.6-.094.35-.32.6-1.174.37-.356.4.112.6.245.566.048.825-.517.462.056.248.216.062.413.093.441.516.075.473-.168.608-.094.453.019.577-.394.608-.386,1.2-.3.916-.15,1.093-.224.751-.076,1.246.179,1.381.619.443-.309.33-.433.535.1.257.441.268.413.341.039.412-.292.5-.2.34.122.217.075.277-.347.145-.274.4-.178.475-.221-.011.286.083.639.02,1.118.217.478.031.667-.133,1.08.288.178.587.122.7.225-.133,1.6-.289,2.489-.073,1.774-.319,1.259-.495.075-.1.45.156,1.156.1.92.556,1.662.464.995.144,1.371-.391,1.578-.526,1.765-.443.987-2.03.234-.71-.084-1.628-.188-.186.572-.278,1.588-.114,1.107-.536.3-.9.178-1.432.338-1.092.273.154,1.511.391,1.588.557.779.721.855.093.845.02.7-.174.573.093.375.247.469.443.376.361.573.669-.1.681-.009.9.009.206.872.9.057,1.01.142.906.31,1.154.1,3.328.019,1.247.065.392.235-.031,1.427.258.545.093.423-.114.638-.164.667.319.657.515,1.024.32.817-.258,1.108-.257,1.324-.845,1.417-.34,1.278-.391,1.4-.36.667-.557.253-.268,1.381-.051,1.258.04.977-.04,1.793.185,1.709.206.977-.351,1.775-.453,1.483-.206,1.429-.464,1.014-.546.751-.392,1.127-.268,1.127-.391.676-.8-.272-.835-.226-1.081-.676-.413-.394-.318-.009-.093.431-.093.554-.1.807-.248.751-.5.62-.536.386-.257,1.173-.2,2.78.1.719-.051.634.248.385.638.206.732.2.165.531.021.977-.144.995-.031.916v.788l-.227.789-.1.578-.319.939-.391,1.2-.206,1.729-1.1-.216-.495-.132-.361.072-.33.257-.319.376-.423.381-.237.211-.587.329-.546.094-.566-.131-.557-.235-.453-.253-.484-.156-.525.132-.536.174-.649-.117-.576-.183-.526-.193-1.308-.446-.772-.206-.876-.4-.576-.441-.381-.484-.495-.586-1.185-.7-.989-.31-.824-.254-.69-.3-.742-.292-.608-.338-.423-.225-.351-.264-.247-.341-.072-.41.124-.535.155-.559.051-.428-.134-.582-.206-.5-.288-.362-.433-.141-.752-.24-.411-.248-.186-.3-.051-.338.072-.31.1-.188.236-.334-.082-.3-.216-.126-.36-.085-1.144.146-.639-.4-.485-.694-.463-.647-.516-.488-.566-.2-.422-.038-.381.094-.443.207-.267.244-.206.375-.124.367-.165.479-.206.649-.258.431-.278.516-.144.4-.051.31-.33.985-.392.625-.474.47-.618.159-.5.1-.885-.193-.774-.136-.37.094-.763.22-1.061.156-.577-.047-.423-.389-.082-.395-.042-.431.123-.657.165-.447.113-.442-.093-.193-.288.048-.175.145-.134.3-.165.188-.186.061-.227.108-.134.16-.02.164-.062.22-.062.193-.113.127-.144.02-.206-.033-.288-.193-.464-.009-.257.155-.186.145-.175.137-.154.38-.093.141-.165.074-.248-.019-.226-.046-.319.013-.361.02-.329-.024-.381-.085-.207-.136-.2.08-.133.06-.114.024-.164-.037-.083-.16-.082-.188-.124-.117-.186-.047-.248-.023-.216-.024-.206.094-.762.409-.31.057-.227.145-.185.118-.154.018-.1-.033-.206-.028-.351.2-.258.127-.248-.052-.154-.048-.154-.079-.217-.02-.2.014-.124.1-.072.156-.443.643-.278.2-.237.1-.3.047-.35-.141-.165-.108-.175-.019-.206.061-.071.093-.186.474-.154.255-.186.192-.34.062-.237,0-.175.01-.124.089-.1.141-.381.488-.371.23-.155.127-.186.117-.268.277-.195.1-.207.075-.267.037-.269-.005-.381-.117-.721-.3-.772-.2-.649-.187-.835-.324-.679-.226-.587-.192-.546-.216-.413-.2-.185-.277.279-.272.433-.4.7-.921,1.3-1.46.938-1.127.205-.418.1-.634.063-.559-.268-.357-.093-.395-.02-.337-.114-.516-.165-.465-.269-.686-.237-.375-.308-.385-.278-.141-.257-.033-.515.066-.351.1-.35.16-.288.2-.237.258-.227.3-.361.328-.7.553-.556.226-.268.1-.267-.085-.124-.272-.186-.315-.165-.428-.268-.944-.1-.69-.124-.587.021-.831-.01-.727.1-.493.01-.309.464-.156.711-.065.536-.019.648-.024.516.024.33-.066.134-.112.206-.63.226-.77.453-1.311.309-1.022.257-.225.576.079.443.042.691.3.824.276.289.005.278-.334.124-.389.062-.385-.011-.5-.206-.517-.2-.742-.134-.455-.072-.512-.042-.308-.175-.428-.154-.315-.525-.07-.567.07-.412.132-.577.2-.855.273-.381-.061-.268-.02-.206.175-.093.314-.02.437-.031.315-.082.39-.186.408-.114.371-.124,1.145-.113.352-.227.179-.4.037-.351-.1-.134-.123-.2-.164-.062-.164.031-.46-.073-.62-.093-.419-.155-.619.124-.62.041-.742.072-.925.052-.516-.258-.24-.329-.042-.237,0-.268.066-.134.136.072.267.175.183.206.2.093.253-.01.394-.144.184-.351.249-.319.173-.782.132-.454.1-.494.14-.279-.066-.371-.179-.155-.169-.206-.211-.1-.291-.094-.193-.216-.1-.205-.084-.484-.249-.433-.352.031-.6.072-.366.041-.39-.113-.38-.515-.075-.752.038-.638.033-1.083-.127-.257-.183-.319-.118-.454-.1-.474-.127-.638-.164-.453-.033-.289-.019-.216-.184-.031-.389.134-.456.278-1.207.248-.863.165-.306.238-.394.2-.84.1-1.057-.01-.9-.092-.676-.278-.466-.434-.713-.484-.831-.329-.089-.67.009-.34.015-.154.192-.042.343-.268.69-.587,1.474-.247,1.224-.206,1.484-.206.723-.535.991-.072.361-.217.169-.33-.121-.381-.385-.824-.959-.906-.793-.464-.419-.3-.281-.948-.258-.474-.117-.35-.226-.4-.235-.815-.473-.309-.535-.5-.723-.433-.84-.206-.569-.248-.526-.5-.747-.587-.357-.443-.184-.237-.1-.351-.154-.968-.283-.628-.239-.227-.409-.144-.478.185-.855.629-1,.072-.639-.248-.8.567-.428.309-.535.01-.376-.279-.225-.38.15-.268-.254-.052-.356.011-.508.937-.986.278-.319.248-.422.145-.751-.062-.291-.083-.234-.248-.376.021-.347.186-.207.556.207.443.253.289.235h.278l.278-.235-.031-.376-.031-.545,1.031-.676.515-.225.288-.309.33-.62-.268-.31-.031-.488.413-1.511.742-.639.555-.621.134-.366v-.414l-.278-.263-.35-.291-.422-.338-.237-.3.031-.488.083-1.164-.175-.583-.268-.667.124-.4.382-.338.03-.356-.113-.189-.422.009-.216-.356.1-.347.34-.3.495-.29-.175-.939-.145-.685-.227-.639-1.545-.563-.207-.376-.452-.6-.381-.422-.423-.292-.782-.169-.34-.4-.144-.591-.341-1.241-.133-.3-.227-.611-.669-.619.051-.282.422-.339.381-.376.051-.479.031-.432,1.031-1,.432-.31.268-.374-.083-.461-.34-.376-.155-.423.309-.479.392-1.531.34-.61.2-.442.227-.131.278-.216-.01-.685.052-1.418.134-.657.206-.5.391-.676,1.814-.094.432-.132.525-.178,1.329.027.257-.169.2-.376-.083-.929-.175-.32-.237-.385-.443-.187-.793-.121-.423-.17-.36-.722.041-.5.381-.338.475-.075.463.225.237.6.371.713.217.253.35-.16.216-.516.68.385-.258.714.093.488.557.14.392-.075.37-.281.227-.347.186-.593.258-.29.268-.179-.021-.394-.454-.161-.113-.714.154-.376.175-.309.186-.442-.36-.507v-.545l.423-1.3" transform="translate(-1301.76 -898.123)"  stroke="#fff" stroke-linecap="square" stroke-linejoin="bevel" stroke-width="1" fill-rule="evenodd"/>
      <text id="139" transform="translate(35.188 56.569)" fill="#fff" font-size="13"  font-family="OpenSans-Bold, Open Sans" font-weight="700"><tspan x="0" y="0"></tspan></text>
    </g>
  </g>
</svg>
