<svg xmlns="http://www.w3.org/2000/svg" width="396.797" height="196.618" viewBox="0 0 396.797 196.618">
  <g id="_11_Beed" data-name="11 Beed" transform="translate(-5815.507 -1416.406)">
    <path id="talId151" data-name="151 Parli" d="M1534.706,1111.251l-.425-.707-.562-.358-1.065-.426-1.723-.281-.6-.065-.532-.426-.281-.319-.173-.8-1.346-.813-.456-.465-1.065-.426-1.415-.1-.241-.6-.107-.678.348-.669.291-.639.065-1.016-.065-1.027.456-.706.852-1.162.912.28,1.173.563,1.337,1.093.881-.629.89-.891,1.056-.842.667-.882.358-1.173.242-.882.958-1.829,1.83.349,1.2.038,2.575.629,1.278-.175,1.055-.135,1.238-.291.629-.8.281-.6.745-1.133,1.162-.881-.813-1.093-.988-.281-1.162-.145-.745-.386.213-.814.88-1.307,1.065-1.2,1.734-.919.029-.708-.388-.881-.493-1.094-.391-1.336-.6-.678-2.4-.562-.387,1.482-.774.493-.678.212-.706-.135.842-1.549-.291-.2.1-.3.271-.794.029-.242.32-.425.107-.32.251-1.655.039-.416.145-1.3.058-1.016-.532-.261v-.242l.01-.309.029-.358-.107-.2-.9-.155-.465-.1-.832-.155-1.123.164h-.59l-.736-.01-.959-.154-1.665-.521-.319-.117-.465-.271-.416-.223-.638-.3-.572-.319-.426-.339-.087-.416.319-.891.106-.2.233-.106.223.126.135-.01.214-.088.367-.047.32-.175.3-.391.281-.493.135-.106.29-.136.1-.175.214-.184.271-.078.456.078,1.1.213,1.2.065h.464l.88.02.939-.048.707-.291.571.1.271.117.2.165.291.358.224.233.251.126.319.116.3-.173-.058-.988.049-.3.087-.464.116-.233.291-.174.329-.01.367-.078.417-.765.706-1.54.233-.271.4-.126.667-.184,1.125-.29.326.009.63.087.571.117.309.126.427.065.184-.155.126-.271-.087-.261-.038-.29.212-.116.465-.349.039-.513.126-.377.029-.4-.233-.561-1.288-.717-.279-.213-.426-.33-.833-.977-.912-.687-.165-.1-.338-.155-.1-.436.116-.291.184-.629.233-.629-.2-.242-.542.1-1.037.126-.154-.009-.2-.021-.4.03-.223-.107-.272-.56.708-.252.7-.552.311-.213.416-.407.233-.417.242-.521.436-1.51.465-1.055.647-.7.688-.591.562-.474.571-.291.764.058.408.184.62.358.62.349.406.339.2.977.106.573.242.667.348.668.639.782.657.6.746,1.065.62,1.017.532.736.6.319.456.058.61-.02.542-.184.388-.426.242-.436.261-.386.4-.233.485-.1.707.117.521.426.349.426.456.88-.01.707-.048.755-.349.881-.456.813-.087.8.32.7.465.842.512,1.085.629.687.667.7.708.551-.33.213-.164.126-.3.164-.378.146-.4.01-.31.009-.415.078-.029.378-.048.483.019.291.155.426.29.4.426.6.32.126.349.078.319.242.164.309-.047.3-.2.33.065.358-.078.59.174.319.32.107.3-.01.28.049.1.339.135.416.117.6.126.367.039.521-.01.5.2.242.291.048.3-.038.164.367.27.232.521.26.658.282.521.271.417.242.833.088.687.164.02.416-.029.61-.078.425-.125.571-.321.571-.416.184-.465.213-.213.165-.126.32-.184.483-.039.349-.048.513.106.532.4.048.416.106.63.049.252.065-.136.379-.126.435-.261.5-.233.912-.038.338.078.378.5.831.107.485.261.326.367.2.6.009,1.356.233,1.424.059,1,.326.5.427.155.562.049.823.115,1.065.4,1.007.465,1.238.562.912.367.581.659.251h.9l1.569.166.736-.059v-.271l-.058-.376-.058-.521.058-1.336.27-1.142.065-.881.326-1.491.01-.494.1-.436.378.01.774.039.659-.058.958.184,1.181.1.977-.038.6-.011.659.136.8.2.958.175.746.175.668.212.407.252.212.339-.01.466-.116.376-.164.391-.1.416v.687l-.078.688.213.532.009.377.01.562v.774l.01,1.113.039.678v.59l.165.32.1.184.039.233-.116.3-.2.281.029.678-.019.851.009.862-.242.562-.242.426-.145.532-.155.668-.057.533.222.444.261.426.349.476.309.377.184.2.125.1.668-.078.745-.039.7.01.754.048.495-.048.212-.117.521-.1.473-.02h.495l.368.087.687.078.425.029.3.01.1.136-.065.309-.077.427.019.242.1.629.116.3.039.367.281.532.252.4.223.474.367.456.571.417.291.2.31.183.4-.01.32-.155.271-.087.436-.107.184-.048v.117l-.078.271-.145.367-.059.629.038.272.164.27.32.339.339.416.281.552.164.436v.484l-.087.494-.078.513-.058.659.174.029.126.01.223-.02.2-.126.233-.164.135-.251.261.077.32.155.272.2.386.078.591-.047.465.047.358-.1.2-.077v.243l.058.326.1.184.214.165.213.154.4.233.242.087.116.135.029.184-.077.233-.426.444-.1.127-.155.214-.048.232.106.126.183.175.2.25.2.5.078.291.213.339.3.521.223.32.048.223.029.252.009.386-.106.29-.02.311.065.175.222.326.5.358.253.281.223.339.3.3.175.357.039.175-.078.165-.26.233-.291.319-.319.338-.339.485-.484.59-.329.339-.2.368.2.2.416.4.319.484.339.3.3.281.6.291.494.145.212.058.059.736-.107.474-.213.9-.367,1.026-1.395-.233-1.306-.086-1.858.086-1.143.146-1.394-.087-.832.116.319.679.261.842.425.426.62.513.842.58.513.475.233.639-.321.407h-.319l-.6.029-.349.465-.339,1.462-.174.173-.512-.241-.756-.233-.571-.039-1.143.087-.261.706.5.391.407,1.985-.688.212-.474-.145-.745-.348v-1.433l-.03-1.629-1.394-.048-1.889-.252-.659-.087-.542-.406-.62.367-.6.164-.726-.164-.62-.01-1.211-.019-1.3-.087-.88-.019-.349-.339-.794-.652-.175-.881.261-2.246.174-.474.387-.533.775-.494.977-.542.669-1-.339-.049-1.142-.126-.426-.474-.436-1.452-1.384,1.6-.175-.02-.513-.659-.436-.416-.252-.271-.087-.542.087-.426.391-.339.271-.581-.184-.386-1.037-.02-.745.464-.349-.464-.232-.562-.155-.813-.146-1.056-.319-2.187-.495-.427-.473.223-.339.532-.5.338-.426.63-.494.852-.378.668-.387.988-.717.882-.513.782-.921.988-.939.814-.88.648-.456-.087-.379-.387-.456-.495-.638-.639-.581-.755.494-3.039.725-1.162.638-.494.156-.581.039-1.133-.319-.949-2.847-2.371-.735-.6-.939.881-.775,1.2-.687,1.094-1.006,1.394-1.25,1.684-1.413-1.084-.446-.775-.135-.736-.058-1.2.125-.688.329-.988-.242-.9-4.715.416-2.081-.388-1.162-.3-1.346-.175-.833-.339-.756-.707-.28-.6-1.046-.456-1.162-.3-1.89-.513-1.8-.242-1.588-.251-1.2-.407-.62-.349.2-.426.407-.638.562-.629-.029-1.085-.386-.842-1.2-.2-1.346.6-.669-.814-.339-1.132-.968-.8-.9-.745-1.433.638-.474.436-.861.533-.427.532-.242.881-.823.61-.581.552-.667.512-1.076,1.046-1.181.988" transform="translate(4588.094 438.033)" fill="#7DB8EC" stroke="#fff" stroke-linecap="square" stroke-linejoin="bevel" stroke-width="1" fill-rule="evenodd"/>
    <text id="talId151count" transform="translate(6145.024 1536.782)" fill="#fff" font-size="7" font-family="OpenSans-Bold, Open Sans" font-weight="700">
      <tspan x="0" y="0"></tspan>
    </text>
    <path id="talId144" data-name="144 Ambejogai" d="M1534.667,1113.161l1.181-.988,1.075-1.046.668-.513.58-.552.823-.61.242-.881.426-.532.862-.533.474-.435,1.433-.639.9.745.968.8.339,1.132.667.814,1.346-.6,1.2.2.391.842.029,1.085-.561.629-.407.639-.2.425.62.349,1.2.408,1.588.251,1.8.242,1.889.513,1.162.3,1.042.456.281.6.754.707.833.337,1.345.175,1.162.3,2.085.387,4.714-.417.242.9-.329.988-.126.687.058,1.2.135.736.445.774,1.414,1.086,1.249-1.684,1.007-1.4.687-1.094.774-1.2.939-.881.736.6,2.846,2.372.32.949-.039,1.132-.155.582-.639.493-.726,1.162-.494,3.04.581.756.639.638.456.495.379.391.456.087.882-.652.939-.812.919-.988.513-.782.717-.88.388-.988.378-.667.493-.852.425-.63.5-.338.338-.532.475-.223.493.426.319,2.188.145,1.055.156.812.232.562.349.466.745-.466,1.036.02.183.387-.27.58-.388.339-.087.426.087.542.252.271.435.417.513.657.175.02,1.384-1.6.436,1.452.426.474,1.142.126.339.048-.668,1-.977.543-.774.493-.388.533-.175.474-.261,2.246.173.882.794.648.348.339.881.019,1.3.087,1.21.02.621.01.726.165.6-.165.62-.368.543.406.657.087,1.889.251,1.394.048.029,1.629v1.433l.746.349.474.145.688-.214-.407-1.984-.5-.386.261-.708,1.143-.087.571.039.755.232.513.242.175-.174.339-1.463.347-.465.6-.029h.319l.319-.406-.231-.639-.513-.474-.842-.581-.62-.513-.427-.426-.261-.843-.319-.678.832-.116,1.394.086,1.142-.144,1.859-.088,1.307.088,1.394.232.368-1.027.213-.9.106-.475-.058-.736.232.059.814.281.261.087.2.117.291-.02.145-.175.31-.532.156-.2.164-.126.261-.068h.338l.377.068.427.213.347.2.582.242.407.261.387.2.61.192.521.224.379.116.406.126.1.8.048.339.117.543.164.725.04.368.106.185.241.135.223.087.165.291v.92l-.065.483.078.2.2.2.289.271.407.378-.018,1.248.154,1.3.049,1.9-.126.386-.183.212-.339.146-.349.146-.214.326-.175.31h-.2l-.378-.184-.736-.416-.309-.115-.456-.184-.32-.065-.581-.058-.26.065-.34.291-.358.3-.329.164-.387.155-.513.271-.61.3-.252.145-.427.106-.291.02-.281-.065-.2-.184-.446-.087-.572.01-.6.02-.367.136-.281.552-.358,1-.651,1.646-.406.794-.629.861-.426.7-.4.581-.3.561-.164.233-.126.145-.1.213-.065.3-.02.251.174.223.126.058.513.251.368.165.629.2.425.231.62.214.581.214.174.406-.029.339-.271.5-.065.406-.049.717-.155.678-.59.232-.552.077-.687.065-.466-.116-.9-.214-.668-.174-.726-.214-.465-.31-.456-.958-.31-.609-.456-.156-.657-.1-.7-.077-.987.048-1.065-.048-.126-1.879.6-.048.782-.087.252-.174.629-1.472.088-.3-.02-.339-.184-.358-.281-.2-.367-.291-.145-.2-.019-.368-.058-.475-.339-.164-.552.058-.678.165-.435.106-.048.271-.212.446-.417-.155-.348-.358-.417-.291-.871-.435-1.085.145-1.042.223-.872.183h-1.094l-.436-.01-.928.736.358.774.038.437.136.609.087.659-.039.521-.2.659-.281.629-.252.115-.446-.009-.407-.02-.445-.2-.039,1.046-.1,1.268-.145.581-.2.814-.039.7.087.7.078.465.1.58.117.775-.117.7-.493-.291-.562-.281-.717-.349-.814-.474-.562-.5-.794-.651-.049-.289v-.495l.059-.5.078-.677-.261-.474-.3-.282-.794-.038-.494.552-.532-.126-.4-.572-.446-.406-.261-.4-.154-.5.039-.5-.3-.463-.542.048-.474.1-.717.2-.988.164-.232.261-.065.494-.33,1.056-.174.591-.358,1.248-.2.63-.281.2-.456.311-.107.388-.154.435-.272.214-.349.3-.521.4-.581.425-.708.31-.706.2-.651.078-.977.339-.687.125h-1.636l-.466.087-.339-.048-.087-.135-.039-.485-.029-.426-.241-.281-.175-.261-.116-.4-.32-.987-.154-.359-.252-.416-.213-.426-.1-.533-.059-.543-.2-.281-.367.059-.745.36-.048.318-.146,1.084.02.475-.116.436-.388.638-.426.5-.494.136-1.056.27-.647.165-1.473.379-.562.261-.774.291-.222-.281-.019-.319-.271-.212-.484.251-.252.34-.581.456-.726.233-1.042.154-1.182-.087-.813.552-1.113.686-.794.62-.445.912.165,1.927-.175.968-.271.871-.065.668v.745l-.126.494-.513.581-.116.542.155,1.394.107,1.878.077,1.559.02.213-.038.2-.136.156-.212.058-.3-.058-.233-.165-.2-.1-.261-.117-.251-.01-.319.106-.456.212-.319.1-.4-.029h-.2l-.309-.059-.339-.065-.319-.078-.326-.009-.359-.155-.231-.483-.126-.436v-.3l-.106-.289-.106-.436-.065-.164-.183-.088-.251-.078-.117-.2-.136-.232-.125-.233-.117-.222-.077-.242-1.007-.368-.727-.426-.2-.164-.222-.233-.521-.326-.233.1-.3.252-.465.406-.223.251-.271.329-.233-.02-.386-.106-.417-.184-.6-.261-.551-.33-.378-.388-.572-.861-.2-.077-.281.029-.252.145-.4.213-.291.173-.271.271-.359.2-.338.088-.126-.107-.406-.106-.416-.184-.29-.108-.543-.106-.357-.086-.165-.087-.349-.233-.281-.358-.2-.126-.2-.117-.2-.184-.3-.386-.2-.155-.2-.029h-.291l-.271.115-.222.2-.165.233-.309.1-.175-.039-.271-.126-.212-.048-.339.009-.326.02-.155.049-.126.213-.049.175-.087.33-.125.493-.02.611-.154,1.559-.311-.065-.349-.106-.319-.1-.494-.175-1.752-.494-.426-.126-.3-.106-.29-.146-.065-.2.009-.63-.048-.746-.065-.4-.087-.387.126-.62.326-.668.02-.4-.136-.31-.3-.252-.33-.165-.542-.174-.6-.117-.61-.173-.377-.213.02-.184.065-.32.319-.5.668-.629.233-.252.348-.407.251-.57.485-1.278.521-.04.542-.058.543.02.552.038.542-.087.687-.174.233-.842.349-.309.717-.31.01-.175-.115-.223-.272-.319-.222-.222-.059-.408-.145-1.259.117-.223.175-.155.2-.135.474-.107.281-.261.213-.368.2-.456.2-.542.2-.521.1-.782-.086-1.134.135-.213.029-.3-.164-.155-.446-.126-.425-.03-.629-.029-.7-.145-.34-.253-.376-.609-.436-1.51-.581-2.342.106-2.731.174-.745.32-.552.232-.513-.077-1.684-.02-.707.087-.349.214-.493.232-.445.2-.358.727-.659.851-.872.1-.542-.252-.609-.039-.688-.077-.416-.212-.339-.223-.416-.475-.417-.4-.164-2.178-1.869-1.3-1.409-1.22-.92-.135-.388.065-.62.281-.541.425-.6.261-.446.406-.493.552-.542-.164-.638-.349-1.133-.474-1.423v-2.063l.174-.919.155-.464.572-.116,1,.029.891-.175,1.007-.174,1.6.065.291,1.056.436.59.271.155.581-.3-.339-.32-.065-.367.2-.261.513-.319,1.113.281.309-.126.6-.6-.01-.648-.1-.891-.029-1.056.687-2.73" transform="translate(4588.162 436.031)" fill="#7DB8EC" stroke="#fff" stroke-linecap="square" stroke-linejoin="bevel" stroke-width="1" fill-rule="evenodd"/>
    <text id="talId144count" transform="translate(6126.782 1577.177)" fill="#fff" font-size="7" font-family="OpenSans-Bold, Open Sans" font-weight="700">
      <tspan x="0" y="0"></tspan>
    </text>
    <path id="talId149" data-name="149 Kaij" d="M1428.349,1147.473l.117-1.336.261-.851.136-.747.125-2.13.3-.6.658-1.732-.01-2-.222-1.714-.291-2.187-.212-1.114.105-2.45.447-1.162.4-.039.281.059.736.591.977.667,1.336.833,1.259.31.185-.078.2-.339.281-.4.058-.425-.251-.5.309-.521.01-.213.02-.376.145-.61-.058-.5.222.048.3.065.474.165.465.233.388.2.426.136.261-.213.233-.272.154-.29.261-.271.222-.048,1.238.155.775-.019.726.146,1.539.115.562-.949.358-1-.1-2.508.116-2.4.1-.416.038-.532-.214-.2-.406.058-.513.009-.7.065-.542.145-1.084.02-1.824-.078-.164-.745.2-3.409.156-2.052.087-1.221-.059-.948.214-.369.214-.338-.019-.329-.214-.155-.184-.175-.02-.232.2-.136.214-.087.087-.2-.155-.224-.261-.145.02-.223.212-.175.252.117.2.01.5-.9-.156-.2-.319-.2.136-.184.155-.31.261-.261.212-.135.184-.223.1-.271v-.391l-.224-.493-.048-.367.126-.349.348-.26.465-.049.34.01.425-.106.358-.212.5-.251.464-.136.813-.135,1.346.087.62-.232.5-.184.339-.175.426-.3.319-.1.348-.164.184-.223.677-.407.4-.184.521-.126.475-.065.823-.135.319-.184.271-.2.232-.251.145-.261.63-.407,1.123-.164.687-.009.552-.01.387-.106.388-.175.261-.106.281-.078.5.1.242.223.261.2.27.135.253.01.3-.145.242-.116.388-.02.434.065.466.154.434.146.175.125.309.387.126.4-.1.542-.155.5-.087.562.115.688.261.2.782.047.717.048.493-.065.93.232.464.145.521.048.708.126.862.231.155-.01.939.688.785.464.5.28.368.164.475.184.28.009.281-.2.427-.348.367-.281.552-.339.233-.175.326-.271.551.639.521.4.745.571,1.452,1.646.4.213.794-.184.765-.2.513-.1.532.174.291.29.456.513.155.3-.184.475-.367.106-.465.065-.29.126-.391.26-.174.261-.184.391.03.309.175.281.4.435,1.674,1.056.853-.532.435.087.417.281-.038.464.038.291.164.078.484-.029.222.378-.058.456-.029.329.065.61.309,1.173-.2,1.375-.214.609-.326.32.326.64-.212,2.594.958.184.639.145.562.291.552.184.7.165.717.145.61.065.766.2.251.4.407.813.717,1.093.446.175.521.01.358.078.4.126.184.32.106.367.687.513.891.417.57.26.456.125.416.165-.165.5-.165.31-.02.513.039,1.027.377.2.562-.048.493.212.407.3.765.3.668.2.861.146.668.02.629.164.659-.212.639-1.249.58-1.017.349-.755-.087-.31-.184-.233-.214-.27-.1-.435.116-.281.03-.261-.437-.706-.183-.543-.31-1.042-.105-.533.521-.464.436-.339.562-.378.484-.2.582-.281.289-.126.406-.078.32.02,1.229.407,1.336.881,1.607.358.823.261.59.233.542.126.668-.058.62-.106.774-.521,1.317-.988.484-.377.339-.319.144-.358v-.456l.281-.213.407-.136.233-.3.929-1.723.426-.553.3-.174.561.231.494.261.474.32.164.368.271.435.33.823.212.416.543.077.281-.251.782-.475.464-.2.5-.1v2.061l.475,1.423.348,1.132.165.639-.551.543-.406.494-.261.445-.425.6-.281.542-.065.62.135.391,1.22.919,1.268,1.394,2.179,1.869.4.164.476.416.222.417.213.339.078.416.038.688.253.609-.1.542-.851.871-.726.658-.2.358-.232.444-.213.5-.088.349.019.706.078,1.685-.232.513-.319.551-.175.746-.107,2.73.581,2.345.436,1.51.376.609.34.252.7.145.629.029.426.029.445.126.164.155-.028.3-.135.212.088,1.133-.1.782-.2.521-.2.542-.2.456-.214.369-.28.261-.474.105-.2.136-.174.155-.117.223.146,1.258.059.407.223.223.271.319.116.222-.01.175-.717.309-.349.311-.232.842-.687.175-.542.087-.551-.039-.542-.02-.543.058-.521.039-.483,1.278-.253.571-.347.406-.233.251-.669.63-.318.5-.065.32-.02.184.377.213.611.175.6.116.542.173.329.164.3.252.135.309-.02.4-.326.668-.126.62-.746.261-.59.184-.3.039-.6.135-.309.065-.2-.078-.223-.117-.291-.106-.349-.174-.677-.213-1.723.087-.659.107-.338.076-.639-.222-.339-.2-.609-.242-.391-.01-.309-.009-.475.019-.4.039-.368.029-.521-.049-.059-.184v-.977l-.31.065-.456.213-.326.029-1.036-.408-.755-.223-.493-.087-.977-.02-.988-.272-1.1-.065-.339,1.51-.1.592-.2,1.084.077.542.252.62.251.358.2.435-.231.521-.145.155-.475.251-.33.029-.174.175-.28.33-.339-.065-.107-.038-.213-.309-.2-.33-.029-.562-.116-.8.038-1.81-.165-.668-.048-.446-.115-.822-2.305-.378-.628-.242-.521-.223-.912-.145-1.152-.116-.988.2-.658.329-1.3-.1-.465-.065-.368.164-.387.065-.358-.174-.378-.348-.28-.2-.61.02-.552.184-.561.367-.775.379-.677.358-.833.513-1.259.94-.339.088-.551.048-.533-.1-.493-.019-1.076.326-.444.165-.678.136-.446.02-.862-.242-.456-.29-.348-.533-.261-.968-.106-.4-.029-.349-.058-.31-.126-.456-.049-.2-.213-.29-.165-.127-.261-.115-.28-.058-.233-.01-.3.1-.32.135-.048-.117-.065-.106-.126-.5-.106-.668-.2-.378-.135-.174-.31-.175-.513-.281-1.307-.426-.483-.155-.651-.164-.58-.184-.542-.126-.542.029-.252.435-.135.233-.125.406-.088.456.029.474.175,1.132.2.688.146.465-.019.367-.4.117-.679.349-.473.126-.349.065-.59-.011-.58-.164-.3-.136-.388-.2-.27-.339-.252-.532-.106-.2-.31-.065-.387-.038-.156-.117-.048-.261.058-.309.165-.281.214-.291.222-.242.252-.3.145-.319.184-.378.629-.521.669-.339.163-.134.253-.233.126-.591-.146-.416-.135-.474-.174-.349-.483-.136-.456-.5-.252-.107-.406.03-.562.117-.445.27-.358.326-.319.562-.9.184-.794.086-.639.233-.59.184-.437.2-.406.165-.426.4-.272.456-.358.065-.426-.038-.677-.039h-.34l-.386-.117-.223-.326-.252-.378-.116-.388-.174-.291v-.3l.1-.833-.1-.571-.087-.426.058-.349.078-.2.212-.2.252-.174.145-.242-.01-.252-.116-.2-.107-.281-.029-.281v-.571l-.378-.543-.252-.339-.222-.474-.28-.2-.959-.117h-.464l-.485-.2-.367-.261-.61.029-.33.029-.387.078-.367.078-.184-.145-.562-.445-.261-.242-.212-.232-.435-.1-.4.029-.465-.184-.611-.223h-.81l-1.539.135-.651.387-.326-.106-.326-.117-.319.02-.233.145-.358.2-.358.078-.368-.116-.475-.116-.842-.155-.106-.2v-.326l.058-.679-.251-.039-.717.223-.233.1-.165.126-.339.242-.581.183-.435.116-.571.078-.214-.106-.049-.29.03-.3.048-.387.078-.33.174-.416.117-.425-.349-.136-.348.048-.533.329-.32.521-.252.065-.58-.521-1.412-.3-.652-.349-.435-.155-.175-.058-.319-.155-.2-.3-.232.145-.339.2-.4-.009-.349-.135-.117-.213-.156-.391-.145-.272-.164-.406-1.811-.048-.726-.059-.183-.358-.145-.272-.4-.261-.475-.125-.513-.029-.475.019" transform="translate(4591.112 435.982)" fill="#7DB8EC" stroke="#fff" stroke-linecap="square" stroke-linejoin="bevel" stroke-width="1" fill-rule="evenodd"/>
    <text id="talId149count" transform="translate(6063.584 1579.783)" fill="#fff" font-size="7" font-family="OpenSans-Bold, Open Sans" font-weight="700">
      <tspan x="0" y="0"></tspan>
    </text>
    <path id="talId147" data-name="147 Dharur" d="M1506.677,1074.464l.4.1.279.087.521.1.271.065.7.253.261.125.065.145v.2l.146.224.493.048h.8l.426.01.61-.02.427-.065.31-.1.1-.32.009-.291.058-.386.174-.115.475.028.552.155.426.184.513.184.155.145-.01.3v.3l.029.261.145.038.7.184.465.164.378.078.456.078.3-.048.513-.223.514-.184.319-.2.154-.232.391-.611.078-.387-.164-.377-.01-.222.106-.358.077-.281-.047-.521.087-.534.165-.252.271-.213.726-.445.33-.1.222.252-.048.309-.117.348-.065.233.1.252.156.1.02.281-.029.377-.126.367-.164.223-.01.165.145.184.117.155-.222.648-.291.26-.117.272-.049.319-.029.281.048,1.1-.087.242-.155.213-.164.232.416.1.735-.1.358-.01.475.059.087.222.029.242.289.533.339.652.116.251.513-.135.222-.155.494-.222.367-.078.6.107.822.2h.561l.416-.039.174-.174.03-.253.018-.667.2-1.211.146-.659.087-.368.136-.184.782-.03.881.01,1.182.077.677.107.495.2.483.242.358.2.261.252.165.271.087.26.233.562.173.813.261.436.446.417.388.339.949.435.5.2.659.242,1.055.078.5.01.427-.065.3-.065.61-.281.291.2-.843,1.549.707.136.677-.212.775-.494.387-1.482,2.4.562.6.677.388,1.336.493,1.093.387.882-.029.706-1.733.92-1.066,1.2-.88,1.307-.213.812.745.387,1.162.146.987.281.814,1.093-1.163.881-.745,1.133-.281.6-.629.8-1.238.291-1.055.136-1.278.173-2.575-.63-1.2-.038-1.83-.348-.957,1.829-.243.881-.359,1.173-.668.881-1.056.842-.891.891-.88.629-1.337-1.094-1.173-.562-.912-.281-.852,1.161-.456.707.065,1.027-.065,1.016-.29.639-.349.667.107.679.242.6,1.414.1,1.065.426.456.464,1.346.814.173.8.281.32.533.426.6.065,1.723.28,1.065.427.561.358.427.707-.688,2.729.03,1.056.1.89.01.648-.6.6-.309.126-1.114-.281-.513.32-.2.26.065.367.339.32-.581.3-.271-.155-.435-.59-.291-1.055-1.6-.065-1.007.175-.891.175-1-.029-.571.116-.154.465-.175.919-.5.1-.466.2-.782.474-.281.251-.542-.078-.214-.416-.326-.823-.272-.435-.165-.368-.474-.32-.494-.261-.562-.233-.3.175-.427.552-.93,1.723-.233.3-.407.135-.281.213v.456l-.145.358-.338.319-.484.377-1.317.988-.774.521-.621.106-.667.058-.542-.126-.591-.233-.822-.261-1.607-.358-1.336-.881-1.23-.406-.319-.019-.407.076-.29.126-.582.281-.484.2-.561.378-.435.339-.521.465.106.532.309,1.042.184.543.436.706-.029.261-.115.281.1.435.214.271.183.232.088.31-.349.754-.581,1.017-.638,1.249-.659.213-.629-.164-.668-.02-.861-.146-.669-.2-.765-.3-.407-.3-.495-.214-.561.049-.378-.2-.038-1.027.02-.513.164-.31.165-.5-.416-.165-.456-.126-.571-.261-.891-.417-.688-.513-.106-.367-.184-.319-.4-.126-.358-.078-.521-.01-.445-.174-.717-1.093-.407-.814-.251-.4-.764-.2-.61-.065-.717-.145-.7-.165-.552-.184-.562-.29-.638-.146-.958-.184.213-2.594-.326-.64.326-.319.213-.61.2-1.374-.31-1.173-.065-.611.029-.326.059-.456-.223-.379-.483.03-.165-.078-.04-.29.04-.464-.416-.281-.435-.087-.852.532-1.675-1.055-.4-.435-.174-.281-.029-.31.184-.387.175-.261.387-.26.291-.125.465-.065.367-.107.183-.475-.154-.3-.456-.512-.291-.291-.533-.174-.513.1-.766.2-.793.184-.4-.213-1.452-1.646-.745-.571-.521-.4-.552-.639.058-.474.01-.417-.135-.339-.048-.251-.02-.233-.029-.184.065-.281.3-.233.6-.252.474-.165.474-.174.378-.145.224-.233.029-.2-.107-.251-.038-.562.038-.406.1-.271.33-.484.106-.2.065-.164-.01-.795.2-.377.214-.318.326-.3.156-.155.456-.154.639-.01.521.038.233.164.184.349.106.242.281.029.164-.107.542-.445.407-.368.309-.338.145.019.271.224.377.174.407.105.747.272.386.107.281-.087.184-.214.069-.271-.039-.31-.175-.145-.407-.1-.232-.048-.2-.077-.136-.233-.125-.31-.126-.339-.146-.726-.048-.542.116-.242.135-.174.009-.223-.175-.2-.562-.833-.105-.309.087-.33.136-.388.349-.9.717-1.529.648-.949.2-.368.3-.126.464.03.456.155.2.164.224.213.2-.029.231-.184.242-.174.184-.165.29-.116.794.088.416-.088.871-.029.465.02.339.251.31.156.406.077.3-.126,1.22.04.7.233.387.107.271.755.039.445v.367l.377.1.639.174.291.078h.2l.251-.223.166-.223.2-.3.271-.184.261-.135.6-.252,1.182-.9.7-.652.435-.156.233.135.329-.107.281-.164.25.049.165.213.213.019.242-.2.2-.049.31.166.261.107.291.065.145-.184.04-.326.242-1.027.048-.387.213-.435.232-.175,1.82-.813.668-.252.386.01.391.087.242.049.126-.039.029-.261-.1-1.064v-1.027l-.2-.464-.164-.26-.34-.291-.319-.26-.416-.309-.717-.659-.125-.407v-.289l.077-.368.184-.233.562-.659.484-.842.2-.242.233-.01.32-.087.184-.106.087-.135.019-.184" transform="translate(4589.809 437.149)" fill="#7DB8EC" stroke="#fff" stroke-linecap="square" stroke-linejoin="bevel" stroke-width="1" fill-rule="evenodd"/>
    <text id="talId147count" transform="translate(6083.13 1541.995)" fill="#fff" font-size="7" font-family="OpenSans-Bold, Open Sans" font-weight="700">
      <tspan x="0" y="0"></tspan>
    </text>
    <path id="talId150" data-name="150 Manjalgaon" d="M1506.495,1072.4l-.3-.224v-.291l.135-.164.065-.175-.2-.214-.445-.029h-.746l-.59-.058-.446-.087-.32-.02-.309-.048-.272-.029-.261-.028-1.161-.107-.853-.019-.318-.039-.213-.049-.184-.377-.155-.165-.233-.165-.117-.2.068-.222.3-.155.2-.174.175-.2.087-.687-.175-.251-.1-.368-.048-.987-.174-.339-.145-.281-.059-.145.106-.184.088-.233-.059-.242-.165-.426-.125-.61-.2-.465.009-.6.252-.252.145-.2.058-.318.125-1.134.3-.387.861-1.327.224-.261.465-.446.329-.291.1-.27v-.252l-.2-.3-.135-.039-.223-.125-.175-.175.065-.2h.406l.774.222.63.175.474.155.495.2,1.568.542.726.223.736.117.358.01.174-.1.087-.154.077-.326.223-1.307.456-1.512.048-.456.1-.667.512-.223.358-.782.32-1.337.145-.483.01-.31-.058-.232-.652-.116-.667-.058-.7-.2-.912-.326-.552-.174-.339-.145-.212-.116-.224-.233-.252-.271-.456-.2-.232-.02-.281-.019-.949-.126-.117.213-.126.116-.358.01-.652-.116-.464-.059-.4-.087-.6-.183-.233-.059-.532-.126-.271-.039-.2-.2-.291-.521-.145-.57-.367-.659-.388-.242-.426-.009-.445.058-.521.136-.214.078-.473.117-.562.106-.321-.039-.2-.048-.581-.233-.493.009-.135-.087-.065-.326.127-.445-.02-.736-.358-.755-.456-.417-.552-.232-.3-.2-.213-.1-.326-.058-.339-.01-.552-.019-.745.087-.659-.009-.367.039-.2.048-.281-.136-.232-.078-.349-.02-.309.029-.214.058-.233.087-.968.3-.912.252-.521.213-.533.281-.326.261-.851.59-.359.261-.483.175-.871.125-.521.107-1.027-.281-.6-.28-.349-.117-.349-.01-.291.087-.358.156-.291.065-.358-.106-.513-.281-.629-.183-.272-.155-.223-.213-.213-.223-.232-.058-.261-.02-.33.02-.184.01-.648-.077-.513-.213-.213-.242-.261-.174-.155-.039-.367-.116-.261-.039-.261-.048-.223-.087-.416-.3-.2-.175-.272-.116-.339-.155-.717-.184-.426-.077.326-1.734.065-1.694.533-1.629.348-1.665.02-2.476.367-1.519-.039-4.086-.4-.048-.223-.136.233-1.161.3-2.807.417-2.476-.281-.358.184-.474-.281-.126-.745.029h-.775l-.552-.058-.521-.184-.165-.125.078-.426.358-.3.465-.446v-.319l.3-1.153.659-1.065,1.384-.02h1.849l.494.02.521.107.135-.01.271-.484.61.106,1.016.271.679.117.88.223.212.27-.077.494-.048.611v.474l.145.339.647.175.5.009.416-.038.174-.087.183-.726.136-.823.271-1.811.252-1.423.106-.852-.048-.851.987-.107h.852l.629.058.483.164.562.31.706.31.61.164.513.117.63-.065.861-.087.939-.184.552-.222.446-.484.183-.456.436-1.152.222-1.414.146-.881.136-.446.2-.319.27-.339.485-.222.474-.039.483.02.407.164.591.368.271.465.107.456.048.456.126.242.214.2.29.078.407-.106.222-.31.358-.513.474-.252.406-.165.6-.106.329.078.426.367.184.533.145.782.126.349.291.251.474.223.513.126.736.01.242-.078,1.1-.687.736-.5.814-.175.562.184.357.348.011.62-.184.659-.065.309.009.291.1.348.417.369.56.145.368.048.562-.116.629-.224.391-.358.407-.349.281-.213.377-.106.416.048.5.164.436.184.912.222.93.165.658.261.706.5.794.677.591.639.572.552.2.31.233.456.048.456-.135.63v.27l.1.252.146.242.232.048.542.048,1,.107.251.233.456.521.048.687-.542.581-.349.6-.058.533.126.261.376.2.717.048.377-.2.581-.164.708-.145.677-.1.659.222.242.26.318.358.562.31.638-.088.378-.175.31-.367.261-.377.116-.543.3-.659.311-.6.271-.339.456-.261.638-.242.669-.145.629-.358.391-.358.571-.4.62-.387.919-.281.456-.02.5.116.4.252.562.2.581.155h.948l.436-.223.755-.213.64.01.542.367.717.755.928.912.543.319.851.358.572.242.648-.019.688-.048.754-.048.456.126,1.23.8.794.629,1.423,1.1.533.436.369.532.077.359.049.59-.146.775-.058.591.058.629-.02.842-.116.62-.291.591-.164.765-.261.775-.435.736-.427.521-.485.425-.261.378-.039.416.078.465.27.562.4.706.391.765.048.416-.116.639-.116.281-.339.832-.087,1.016.155.426.417.4.435.319.281.359.1.348-.1.521-.339.764-.5.949-.426.436-.7.387-.6.319-1.368.456-.5.232-.521.32-.6.377-.223.378-.358.609-.232.553-.106.912-.02.6-.155.3-.242.252-.379.26-.492.213-.475.261-.2.513.039.543.242.521.319.416.427.542.754.532.852.62,1.076.223,1.1.106.852-.1.27.562.224.106.4-.029.2.02.155.01,1.036-.125.542-.1.2.242-.233.629-.184.63-.116.291.1.436.339.155.164.1.912.687.833.977.425.33.281.212,1.288.717.232.561-.029.4-.126.378-.039.513-.464.349-.213.116.038.291.087.26-.126.271-.184.155-.427-.065-.309-.126-.572-.116-.629-.087-.33-.01-1.123.291-.668.184-.4.126-.233.271-.706,1.54-.416.766-.368.076-.326.01-.29.175-.117.232-.087.464-.05.3.059.988-.3.174-.319-.116-.252-.126-.222-.233-.29-.358-.2-.164-.272-.116-.571-.1-.707.29-.939.049-.88-.02h-.464l-1.2-.065-1.107-.213-.456-.077-.27.077-.214.183-.1.174-.291.136-.135.106-.281.493-.3.391-.319.174-.368.048-.212.087-.135.01-.223-.126-.232.107-.107.2-.32.891.088.416.426.339.57.319.639.3.416.222.464.272.319.115,1.665.521.958.154.736.01h.591l1.123-.164.833.154.464.1.9.154.107.2-.029.359-.01.31v.242l.534.261-.058,1.018-.146,1.3-.038.416-.252,1.656-.107.32-.319.426-.029.242-.272.794-.1.3-.61.281-.3.065-.426.065-.5-.009-1.055-.078-.658-.241-.5-.2-.949-.436-.391-.339-.444-.416-.261-.436-.174-.813-.233-.562-.087-.26-.164-.271-.261-.251-.359-.2-.484-.242-.494-.2-.678-.106-1.181-.078-.88-.01-.782.029-.135.184-.087.368-.145.657-.2,1.211-.02.668-.029.252-.174.175-.416.038h-.562l-.822-.2-.6-.106-.367.077-.494.223-.222.154-.513.136-.117-.251-.339-.651-.291-.533-.03-.241-.087-.223-.473-.058-.359.009-.737.1-.415-.1.165-.232.154-.214.087-.242-.049-1.1.03-.281.048-.32.116-.271.291-.26.223-.652-.116-.155-.145-.183.01-.164.166-.223.125-.369.029-.378-.019-.28-.156-.1-.1-.252.068-.233.116-.349.049-.309-.224-.252-.326.1-.726.445-.271.214-.165.251-.087.533.049.521-.078.281-.107.358.01.222.165.377-.078.388-.388.61-.154.232-.32.2-.513.184-.512.223-.3.048-.456-.077-.378-.078-.465-.164-.7-.184-.145-.039-.029-.26v-.3l.009-.3-.154-.145-.513-.184-.426-.184-.551-.154-.475-.03-.175.117-.058.387-.009.29-.1.319-.31.1-.426.065-.61.02-.427-.01h-.8l-.494-.049-.146-.222v-.2l-.065-.145-.261-.126-.7-.251-.271-.068-.521-.1-.281-.087-.4-.1" transform="translate(4589.993 439.125)" fill="#7DB8EC" stroke="#fff" stroke-linecap="square" stroke-linejoin="bevel" stroke-width="1" fill-rule="evenodd"/>
    <text id="talId150count" transform="translate(6085.084 1480.752)" fill="#fff" font-size="7" font-family="OpenSans-Bold, Open Sans" font-weight="700">
      <tspan x="0" y="0"></tspan>
    </text>
    <path id="talId148" data-name="148 Georai" d="M1354.843,1040.975l-.135-.174-.145-.388-.2-.436-.261-2.459-.368-.852-.175-.474-.456-.3-.571-.2-.707-.1-1.4-.01-.92-.145-.677-.184-.32-.31-.2-.581-.706-1.22-.785-.668-.881-.435-.494-.456-.347-.358-.33-.368-.271-.4-.175-.417-.078-.349.087-.378.242-.425.949-.736.456-.3.495-.484.241-.319.2-.26.155-.4.251-.252.2-.116.34-.164.251-.261.223-.562.281-.135.774-.059.521-.077.631.058.609.155.475.126.551.029.552-.01.495-.349.377-.94.272-.271.223-.271.087-.29.02-.291.088-.406.484-.271.125-.31.136-.521.048-.416.065-.562.406-.9.358-.912.166-.1.406-.145.369-.155.484-.049.561-.057h.475l.58-.184-.065-1.249h.416l.291-.01h.291l.358-.038.4-.155.62-.358.156-.117.252-.1.184-.039.358.039.252-.049.281-.038.213-.087.125-.155.107-.281.61-.078.155-.155.2-.087.416.01.2-.029.272-.058.271-.078.3-.213.425-.59.2-.155.339-.183.29-.155.338-.2.358-.224.319-.29.437-.233.078-.155.078-.222-.039-.213-.038-.261.029-.184.088-.126.154-.184.146-.2.416-.823.261-.61.135-.329v-.281l.01-.562-.01-.223.065-.2.31-.2.164-.065.175-.078.251-.125.166-.1.145-.184.077-.2.087-.232.107-.155.367-.106.252-.232.214-.136.115-.058.155-.048.136-.058-.01-.271-.059-.165-.125-.136v-.184l.136-.145.116-.078.222-.107.038-.184-.029-.232-.009-.368-.009-.223v-.291l.1-.242.126-.2.029-.2-.126-.223.058-.271.057-.31-.125-.484-.271-.078-1.579-.165-1.151-.2-1.173-.272-.746-.155v-.2l.7-1.487.988-2.85.608-1.413.3-1.8.126-1.183.155-.652-.436-.38-1.181-.336-.349-.123-.706-.212-.106-.317-.184-.433-.146-.123-.416.255-.251.141-.339.16-.242.026-.552.027-.764.273-1.375.467-.9-.017-.4-.168-.639-.308-.483-.407-.291-.456v-.485l.135-.592.261-1.031.03-1.272.106-.67.145-.75.115-1.192v-1.13l-.561-.282-.416-.1-.077-.19.065-.247-.058-.239-.638-.13-1.1-.427.049-.292.135-.379.261-.485.242-.405.2-.609.154-.451.117-.345.2-.353.251-.229.416-.2.358-.088.4.037.532.185.485.456.435.608.456.652.6.371,1.074-.137.339.079.2.119.078.278-.222.314-.1.177-.068.291.049.318.175.283.386.233.707.225.406.13.272.34.2.471.126.547-.049.4-.145.524-.117.5.065.384.232.321.329.248.4.211.571.317.7.274.651.278.775.238.929.292,1.113.652.465.551.358.456.542.414.823.375.726.2,1.229.419.495.181.542.173.611.111.5-.163.494-.124.456.146.426.238.521.221.532.123.513-.089.552-.309.223-.2.4-.358.3-.353.31-.242.339-.065.464.124,1.037.2,1.132.706.532.436.581.442.562.3.416.185.464.2.726.014.4-.115.407-.2.379-.2.59-.605.407-.648.309-.061.377.026.271.318.417.614.291.59.326.7.252.485.309.312.31.16.755.1.969-.2.619-.088.736-.093.657-.022.562.235.338.269.243.456v.456l.01.534.155.511.3.172.426.141.968.186.6-.052.542-.1.581-.349.416-.233.485-.155.4-.04.435.088,1.173.442.677.265.745.092.571-.065.435-.137.407-.158.842-.155,1.064-.026.8-.027.912-.22.581-.089.639.036.358.071.475.13.465.122.243-.137.261-.309.135-.336.174-.436.736-1.284.4-.7.2-.7.01-.406-.029-.574-.368-.4-.31-.339-.2-.283-.01-.269.106-.4.2-.287.339-.274,1.355-.652.912-.344.474-.137,1.074-.172.987-.436.708-.278.435-.022.465.119.358.114.774.513.5.436,1.042.487,1.238.6,1.472.878,1,1.042.63.48.416.331.736.41.446.291,1,.4.281.071.358.093.513.009.416-.177.668-.319,1.055-.414.958-.362.833-.419.852-.383,1.074-.482.707-.15.688-.009.7.221.648.521.378.216.561-.049.591-.34.542-.433.407-.569.62-.763.629-.428.513-.234.813-.13.513.053.822.38.4.343.552.45.406.391.106.442-.065.551-.426.688-.571.574-.078.433-.154.68-.1.859-.078.565-.5.657-.651.521-.658.551-.175.6-.291,1-.261,1.46-.106.949.135.765.242.832.117.746.01,1.413.174.581.532.987.629.862.881,1,.746.707.822.561.987.495.437.1.977.358.843.378.561-.02.446-.174.707-.5,1.153-.513,1.18-.61,1.375-.688.754-.058.882-.3.59-.145.794-.494.832-.571.572-.552,1.074-1.21,1.007-.736.465-.3.6-.494.358-.426.513-.717.2-.513.261-.5.543-.426.533-.192.58-.155.475.014.444.136.31.294.106.406-.155.349-.358.3-.164.349-.038.368.019.513.242.939.01.048.233.552.358.92.184.678.01.7-.145,1.1-.03.687.1.591.464.958.706.823,1.2.823.326.367.658.164.639.065.466-.058.047.852-.106.852-.252,1.424-.272,1.81-.136.823-.183.726-.174.087-.416.038-.5-.01-.648-.174-.145-.339v-.474l.047-.609.078-.495-.213-.271-.882-.222-.678-.116-1.016-.27-.61-.107-.271.484-.136.01-.521-.107-.495-.019h-1.85l-1.384.019-.659,1.065-.3,1.152v.32l-.464.445-.359.3-.078.426.166.126.521.184.552.058h.775l.746-.029.28.126-.183.474.28.358-.416,2.476-.3,2.807-.233,1.163.224.135.4.048.038,4.086-.368,1.52-.02,2.476-.349,1.665-.532,1.629-.065,1.694-.329,1.733-.222.029-.349-.039-.326.146-.233.01-.32.038-.658-.029-.281-.242-.561-.174-.437.065-.154.551.077.329.261.533.048.562.1.378-.281.213-.4-.048-.659-.116-.638-.106-.652-.078-.3.416-.242.521-.251.358-.326.32-.543.4-.833-.059-.29-.184-.291-.078-.521.039-.552.136-.367.184-.349.3-.339-.02-.32-.115-.5-.078-.677.048-.5.126-.426.184-.521.01-.485-.02h-.4l-.456-.2-.668-.378-.406.048-.475.087-.4.019-.29-.065-.4-.145-.435-.242-.387-.213-.368.02-.28.232-.242.407-.106.213-.416.29-.233.1-.261-.078-.3-.156-.271-.251-.456-.242-.358-.065-.407-.065-.214-.532-.009-.184v-.223l-.058-.465-.048-.338.155-.465-.1-.542-1.868-.065-.281.552.184,1,.166.5v.3l-.368.271-.368.065-.291.261-.2.609-.2.088-.2-.058-.359-.078-.4.02-.164.242.065.456.367.349.272,1.173.02.407-.058.571-.572-.065-.261-.271-.358-.02-.2.039-.272.483-.116.368.078.349-.009.214-.542.387-.251.2-.427.6-.794.533-.465.126h-.349l-.309-.107-.367-.154-.339-.146-.407-.135-.571-.164-.416-.01-.358.065-.521.1-.358.039-.532-.065-.309-.029-.281-.145-.155-.2-.407-.223-.319-.065-.387-.01-.3.087-.61.059-.039-.059-.106-.1-.065-.107-.077-.065-.126-.087-.107-.065-.155-.107-.116-.1-.165-.252-.048-.116-.048-.125-.039-.107-.116-.1-.106-.028-.232-.065-.2-.057-.475-.065-.271-.01-.243.01-.2-.038-.242-.039-.165-.03-.562.184-.184.175-.126.145-.125.136-.2.087-.31.1-.155.058-.087.116-.065.135-.05.145-.02.126.01.087.01.058-.01.116-.058.136-.029.049-.065.078-.135.116-.231.078-.117-.019-.087-.126-.049-.106-.009-.252.029-.155.029-.213-.01-.358.078-.358.02-.1v-.065l-.02-.126-.107-.115-.077-.108-.126-.115-.213-.1-.242-.155-.2-.135-.319-.155-.339-.059-.125.02h-.2l-.175-.02-.126-.065-.156-.116-.125-.126-.1-.184-.368-.377-.223-.291-.184-.2-.387-.213-.232-.087-.156-.03h-.289l-.446-.019-.586-.106-.252-.009h-.184l-.32.048-.183.078-.154.135-.087.291-.048.251-.019.087-.1.1-.1.039-.213.029-.213.009-.657.049-.33.02-.591-.106-.3-.175-.029-.223.029-.146.048-.164.01-.164-.01-.146-.02-.087-.058-.078-.125-.065-.329-.174-.145-.039-.494.058-.2.048-.164.058-.2.019-.136-.009-.184-.047-.078-.078-.135-.106-.155-.058-.281-.02-.117.107-.164.29-.116.165-.184.2-.233.326-.609.387-.456.31-.581.272-.609.213-.708.232-.358.01-.436-.135-.456-.774-.475-.048-.435.116-.6.126-.5.165-.406-.038-.117-.329-.291-.175-.213.164-.319.281-.174.078-.155-.048-.223-.107-.387.116-.378.087-.2.272.115.717.087.782v1.123l.145,1,.039.378.126.5.117.165.135.184-.02.223-.4.532-.7.146-.668-.126-.532-.087h-.762l-1.461.213-.456.038-.62.1-.794.135-.677.065-.475.058-.668.1-.562.1-.59-.039-.077-.223.058-.281.2-.281.2-.184.029-2.7.038-1.114.02-.552-.048-.242-.116-.184-.175-.223-.281-.058-.406.02-.833.32-.388.2-.223.115-.272.088-.416.019-.465.048-.416.059-.271.125-.291.185-.359.077-.232-.01-.223.087-.212.155-.184.155-.145.175-.117.2-.251.233h-.184l-.185.01-.232.029-.232.378-.521.135-.61.155-.338-.2-.213-.1-.233-.126-.291-.222-.047-.184-.155-.281-.2-.184-.242.02-.232.065-.407.078-.493-.2-.272.049-.154.087-.281.174-.251.126-.31.047h-.3l-.271.059-.437.135-.4.077-.222-.077-.261-.107-.2-.145-.426-.059-.309.065-.242.115-.31.2-.242.2-.2.126h-.2l-.221-.116-.261-.3-.048-.184-.058-.165-.087-.31.184-.3.164-.065.126-.106.115-.184v-.136l-.009-.271-.029-.222-.077-.232-.065-.184-.106-.135-.126-.078-.31-.1-.3-.038-.2-.059-.2-.116-.164-.155-.106-.223.125-.078.058-.087.065-.116.057-.165-.164-.136-.2-.135-.252-.049h-.146l-.242.106-.261.261-.232.233-.175.165-.2-.02-.175-.184-.155-.368-.1-.165-.174-.145-.252.166-.2.183-.184.039-.252.048-.28.048-.252.065-.28.065-.3.065-.2.048-.2-.01-.126-.106-.154-.223-.339-.212-.174-.126-.2-.33-.1-.174-.126-.174-.2-.164-.213-.117-.126-.117-.251-.058-.1.1-.271.391-.2.184-.359.009-.106-.106-.087-.175-.087-.126-.078-.135-.2-.155-.252-.029-.291-.065-.2-.106-.155-.1-.165-.145-.165-.059-.115.136-.078.065-.212.1-.107-.087-.407-.388-.782-.659-.533-.222-.145-.087-.155-.272-.145-.377.01-.3.117-.348.213-.542-.02-.252-.3-.2-.232-.145-.5.251-.368.2-.184.165-.184.2-.2.31-.2.213-.155.077h-.261l-.2-.019-.281-.02-.2-.058-.135-.184-.087-.2-.087-.184-.106-.155-.3-.146-.388-.126-.386-.184-.339-.049-.174.175-.233.145-.252-.116-.223-.145-.241-.165-.126-.126-.165-.184-.088-.164-.164-.165-.252-.1h-.339" transform="translate(4593.755 440.326)" fill="#7DB8EC" stroke="#fff" stroke-linecap="square" stroke-linejoin="bevel" stroke-width="1" fill-rule="evenodd"/>
    <text id="talId148count" transform="translate(5992.568 1466.418)" fill="#fff" font-size="7" font-family="OpenSans-Bold, Open Sans" font-weight="700">
      <tspan x="0" y="0"></tspan>
    </text>
    <path id="talId146" data-name="146 Beed" d="M1466.752,1043.609l.425.078.717.184.339.155.271.117.2.174.416.3.222.087.261.048.261.038-.223,1.491-.416,1.424-.251.242-.485-.2-.542-.116h-.532l-.639.029-.252.02-.145.065.183.958.214.659.116.368.261.291.252.154.456.107.407.135.4.136.232.02.475.494.484.367.591.339.309.164.388-.106.214-.107.174.01.183.2-.019.271-.065.31-.116.551-.039,1.21-.125.391-.029.445v.435l.3.252.078.533.029.309.058.291.27.01.33.039.242.174.223.213.117.2.29-.02.326.009.116.175-.01.4-.039.377-.291,1.19-.029.31.078.233.32.117.281.087.154.2v.319l-.077.484-.175,1.965-.107.561.088.61-.088,1.036-.164,1.249-.319,1.084-.329-.057-.407-.126-.271-.039-.252-.106-.212-.126-.465.33-.233.358-.107.291-.222.813-.077,2.179.065,1.694.038,1.569-.406.077-.378.145-.456.175-.077.833-.039.444.165.62.058.416-.126.4-.252.214-.3.3.038.416.435.465-.019.184-.252.2-.581.532-.678.174-.464.309-.3.32-.61.726-.456.222-.756-.048-.261-.039-.348-.135-.339-.271-.252-.3-.87.59-1.21.495-.988.1-.629.038-.521.087-.465.1-.782.126-.726.019-.446.065-.929-.271-1.269.155-.823.232-.59.232-.765.242-.813.436-.33.242.088.754-.049.465-.272.261-.326.038-.319.444-.465.165-.426.106-1.3.126-.406.814-.572.425-.426.252-.5,1.307-.349.456-.521.184-.406.155-.31.26-.242.32-.222.349.4,1.113.183.184.2.378.029.407.058.7.329,1.191.059.4.078.2.5.086.242.1.173.233.078.562-.117.349-.087.116-.63.912-.368.349-.165.26-.125.349-.01.3.146-.029.387-.214.1-.126h.309l.1.242-.087.271-.1.281v.687l.388.087.242.2.029.3-.184.222-.348.165-.32.1-.426.3-.338.175-.5.184-.62.232-1.346-.087-.813.136-.464.136-.5.251-.358.213-.426.107-.339-.01-.465.048-.349.261-.126.349.048.367.224.494v.388l-.1.271-.184.222-.212.135-.261.261-.154.31-.135.184.319.2.155.2-.5.9-.2-.01-.252-.115-.212.174-.02.223.261.145.155.223-.087.2-.214.087-.2.135.019.233.184.174.214.156.019.326-.212.339-.213.368.059.949-.087,1.22-.155,2.053-.2,3.408.163.745,1.821.078,1.085-.02.542-.145.7-.065.514-.01.407-.058.214.2-.039.532-.1.418-.117,2.4.1,2.508-.358,1-.562.949-1.539-.117-.727-.145-.774.02-1.238-.155-.221.048-.261.272-.155.291-.233.27-.261.213-.426-.135-.387-.2-.465-.232-.474-.165-.3-.065-.222-.049.058.5-.146.61-.02.378-.009.213-.311.521.252.5-.058.426-.281.4-.2.338-.183.078-1.259-.309-1.337-.833-.977-.668-.735-.591-.282-.058-.4.039-.444,1.162-.106,2.449.212,1.114.291,2.187.223,1.714.009,2-.657,1.733-.3.6-.126,2.13-.135.746-.261.851-.116,1.336-.3.842-.2.552-.174.813-.233.959-.184.7-.2.048-.368-.038-.493-.078-.483-.494-.571-.912-.116-.2-.233-.213-.437-.214.01-.2.039-.261.009-.214.02-.387-.359.02-.135-.319-.164-.165-.484-.175-.2.155-.029.416-.126.521-.349-.155-.511-.329-.513-.338-.426-.339-.581-.745-.077-.233-.465-.242-.338-.165-.407.077-.291.2-.2-.01-.261-.009-.386-.01-.32-.155-.252-.378-.135-.271-.4.1-.474.223-.533.136-.842.117-.581.232-.368.126-.2.271-.174.271-.184.271-.59-.2-.435-.26-.456-.231-.465-.175-.59-.319-.63-.32-1.065-.629-.717-.639-1.268-.242-1.055-.135-3.2-.087-.782-.048-.571-.164-.3-.039-.223,1.035-.319,1.481-.135.745-.175.775.087,1.742v.3l.107.339.065.339.02.251.019.232.065.223.107.261.135.368-.01.358-.058.281-.223.281-.145.145-.108.106-.164.078-.329.038-.387.271-.2.165-.065.009-.106-.087-.078-.117-.039-.155-.126-.065-.126.077-.076.058-.135.038-.224.01-.542-.136-.107-.039-.183-.02-.155.01-.1.059-.087.038-.087-.01-.117-.029-.105-.039-.146-.058-.116-.059-.126-.078-.154-.106-.165.01-.116.038-.135-.038-.446-.185-.116-.077-.155-.088-.057-.087v-.116l.029-.135.01-.2v-.126l-.038-.2-.02-.065-.077-.065-.135-.029-.088.009-.077.048-.078.078-.106.1-.126.087-.145.078-.117.009-.078-.038-.136-.126-.1-.1-.106-.1-.117-.116-.125-.087-.272-.224-.164-.116-.272-.2-.242-.165-.156-.038-.184-.145-.136-.136-.065-.135-.087-.214-.155-.106-.33.009-.154.01-.165-.02-.106-.02-.1-.029-.116-.078-.136-.1-.155-.145-.183-.184-.271-.32-.126-.281-.019-.136-.058-.261-.039-.2-.038-.464-.2-.349-.2-.368-.058-.117-.02-.125-.058-.224-.039-.222-.1-.155-.116-.116-.271-.252-.154-.435-.078-.213-.038-.2-.135-.145-.426-.31-.146-.078.271-.339.039-.542.242-.339.368-1.424.048-.8.242-1.055.183-.745.108-.339.116-.3-.02-.233-.326-.076-.311.019-.446-.049h-.416l-.27-.136.02-.31v-.242l-.078-.88.01-1.521.029-.232.136-.3.154-.106.349-.145.33-.135.326-.136.349-.136.106-.378-.222-.58-.349-1.046-.358-.793.01-.319-.029-.417-.039-.426-.038-.543-.116-.436-.039-.445-.214-.862-.065-.4-.058-.3-.145-.417-.065-1.035.117-.135.2-.165.125-.2-.077-.4.367-1.007.446-1.142.474-.542.117-.465.223-1.007.2-.543.687-.822.9-.949,1.182-.416.126-.242.065-.281.058-.281.065-.339.281-.842.251-.833.077-.233-.125-.3-.174-.184-.31-.358-.708-.513-.213-.2-.222-.261-.3-.233-.319-.2-.426-.291-.059-.242.2-.435-.136-.233-.048-.116.136-.223.145-.175-.019-.61.039-.521.087-.271.039-.117.048-.145-.088-.165-.222-.174-.2-.126-.117-.2.058-.183.213-.117.2.048.358-.028.175-.339.125-.2.01-.184-.1-.174-.242-.059-.233-.106-.105-.2-.021-.2-.057-.251-.31-.446-.115-.126-.2-.087-.232-.065-.485-.261-.232-.174-.425-.407-.213-.359-.252-.4-.281-.358-.4-.513-.251-.426-.1-.251.107-.242.358-.4.117-.484.4-.309.261-.106.29-.155.474-.281.338-.223.2-.184.088-.521.065-.581.311-.58.28-.272.223-.174.32-.048.591.01h.377l.28-.029.388-.116.311-.065.3-.116.048-.232.058-.232.465-.543.174-.29.213-.126.251-.087h.145l.388.048.126-.135.242-.367.243-.281.289-.291.058-.5-.038-.326-.049-.562.01-.495.154-.425v-.32l-.3-.291-.222-.261-.078-.483-.01-.339-.125-.368-.243-.223-.29-.2-.253-.214-.27-.231-.087-.185-.01-.233.1-.242.164-.242.175-.2.261-.281.164-.2.126-.224-.106-.164-.2-.146-.339-.241-.425-.349v-.281l-.01-.311.02-.357-.039-.32-.01-.281-.107-.31-.087-.213-.087-.2-.038-.2.078-.329.058-.3-.485-.224-.145-.135-.484-.039-.708.126-.048-.358-.078-.378-.2-.823-.115-.774-.145-1.287-.02-1.055.175-.213.2-.214.117-.146.106-.2.058-.213-.028-.232-.339-.165-.5-.065-.775.065-.89-.058-1.4-.173-.437.019-.212-.184-.065-1.317.163-.3.039-.106-.01-.261-.087-.155-.242-.2-.126-.175.01-.261.146-.213.2-.117.242-.174.388-.629.039-.291-.02-.232-.232-.358-.251-.213-1.056-.359-.919-.521-.95-.474-.289-.164-.707-.2-.329-.106-.571-.126-.407-.2-.213-.309-.02-.406-.058-.456.184-1,2.991.048.378-.009.251-.049.059-.145.048-.329.368-1.162.611-1.181.483-.977.521-.919.106-.165.059-.213.019-.212-.065-.252-.175-.426-.609-.89-.521-.795-.065-.3-.125-.319-.065-.338-.078-.446-.164-.687-.223-.243-.184-.261-.3-.213-.281-.29-.039-.31-.065-.251-.078-.271-.222-.2-.116-.107-.319-.2-.3-.261-.039-.233.078-.252.4-.368.048.184.29.223.232.126.213.1.339.2.61-.154.521-.136.232-.379.233-.029.183-.01h.184l.252-.232.116-.2.145-.175.184-.155.213-.155.222-.087.233.01.358-.078.29-.184.271-.126.416-.058.465-.048.416-.02.272-.087.221-.116.388-.2.833-.32.407-.019.281.058.174.223.117.184.049.241-.02.552-.039,1.113-.029,2.7-.2.184-.2.281-.058.281.078.222.591.039.561-.1.668-.1.474-.057.678-.065.794-.135.62-.1.456-.038,1.461-.213h.766l.532.087.668.126.7-.146.4-.533.02-.222-.135-.184-.117-.164-.125-.5-.039-.378-.145-1v-1.123l-.087-.782-.116-.717.2-.271.377-.087.388-.117.223.108.155.048.175-.077.319-.28.213-.165.291.175.116.326.407.039.5-.165.6-.125.436-.117.474.049.456.775.435.135.358-.01.708-.232.61-.213.581-.272.456-.309.609-.387.233-.33.183-.2.117-.165.165-.289.116-.107.28.02.155.058.135.106.077.078.185.048.135.01.2-.02.165-.057.2-.048.495-.058.145.039.329.174.126.065.058.078.02.087.01.145-.01.164-.048.165-.029.145.029.223.3.175.59.1.329-.019.658-.048.213-.01.213-.029.1-.04.1-.1.02-.087.048-.251.087-.291.155-.135.184-.077.319-.048h.183l.252.009.591.107.445.019h.291l.155.029.233.087.387.214.184.2.223.29.367.378.1.184.126.126.155.115.125.068.175.02h.2l.126-.02.339.058.319.155.2.135.242.155.213.1.126.115.078.107.106.116.02.126v.065l-.02.1-.078.358.01.358-.028.213-.03.154.01.252.048.106.088.126.116.018.232-.077.135-.117.065-.078.029-.049.057-.135.009-.117-.009-.058-.01-.087.019-.126.05-.145.065-.135.087-.115.155-.059.309-.1.2-.087.126-.136.127-.145.183-.175.562-.184.166.029.241.039.2.039.242-.01.271.01.475.065.2.058.233.065.106.029.116.1.038.107.049.126.047.117.165.252.116.1.156.107.105.065.127.087.077.065.065.106.106.1.039.057.61-.057.3-.088.387.01.32.068.406.223.155.2.281.146.309.029.532.065.359-.039.521-.1.358-.065.416.009.571.166.406.135.338.145.369.155.31.106h.347l.465-.125.794-.533.425-.6.252-.2.543-.386.009-.213-.078-.348.116-.368.271-.484.2-.038.359.02.261.271.57.065.059-.571-.02-.407-.27-1.173-.367-.349-.065-.456.165-.242.4-.02.359.078.2.058.2-.087.2-.61.291-.261.367-.065.368-.272v-.3l-.165-.5-.184-1,.282-.552,1.869.065.1.542-.154.465.047.338.058.465v.223l.011.184.212.532.408.065.358.065.456.242.271.252.3.155.261.077.233-.1.416-.291.106-.213.242-.407.28-.232.369-.019.388.213.435.241.4.146.291.065.4-.02.475-.087.406-.048.668.377.456.2h.4l.484.02.521-.01.426-.184.5-.126.678-.048.5.078.32.116.339.02.349-.3.367-.184.553-.135.521-.039.29.078.291.184.833.058.542-.4.329-.319.252-.358.242-.521.3-.416.651.077.638.107.659.115.4.048.28-.212-.1-.378-.049-.562-.26-.532-.078-.33.154-.552.436-.065.561.175.281.242.657.029.32-.039.233-.01.326-.145.348.038.223-.029" transform="translate(4592.578 438.193)" fill="#7DB8EC" stroke="#fff" stroke-linecap="square" stroke-linejoin="bevel" stroke-width="1" fill-rule="evenodd"/>
    <text id="talId146count" transform="translate(6001.69 1537.434)" fill="#fff" font-size="7" font-family="OpenSans-Bold, Open Sans" font-weight="700">
      <tspan x="0" y="0"></tspan>
    </text>
    <path id="talId153" data-name="153 Shirur Kasar" d="M1381.773,1052.945l-.4.368-.078.252.039.233.3.261.32.2.116.107.222.2.078.272.065.251.039.31.281.289.3.214.184.261.223.242.164.687.077.445.065.339.125.319.065.3.521.794.611.891.173.426.065.252-.019.212-.059.213-.105.165-.521.919-.485.977-.609,1.181-.369,1.162-.048.33-.058.145-.251.048-.378.01-2.991-.048-.184,1,.059.456.02.406.213.31.407.2.571.126.329.106.706.2.291.165.949.474.919.521,1.055.359.251.213.231.359.02.232-.039.29-.386.63-.242.175-.2.116-.145.212-.01.261.127.175.242.2.087.155.01.261-.038.106-.165.3.065,1.317.213.184.435-.02,1.4.175.891.058.774-.065.5.065.339.165.029.232-.058.213-.106.2-.116.145-.2.213-.175.213.02,1.056.146,1.287.116.775.2.823.077.377.048.358-.058.367-.087.33-.2.087-.833-.1-.561-.1-.668-.065-.562.049-.436.2-.339.5-.222-.058-.242-.184-.32-.242-.213-.135-.349-.087h-.348l-.465-.1-.484-.116-.31.01-.842-.02-.446.32-.367.232-.242.154-.29.01-.281-.02h-.26l-.318.106-.272.32-.165.446-.213.638-.164.6-.02.3.029.2-.065.251-.184.378-.7.9-.319.359-.065.406-.049.242-.309.065-.359.2-.233.164-.164.184-.261.232-.319-.009-.3-.1-.406-.039-.88.145-.348.175-.243.065-.426.019-.521.029-1.219.009-1.114.01-.426.087-.214.106-.358.038-.252.01-.232-.039-.222-.135-.2-.213-.223-.213-.271.1-.155.2-.233.261-.222.233-.368.755-.543.058-.222-.03-.3.039.065.659-.116.3-.2.233-.232.1-.3.077-.4.146-.552.126-.736.326-.8.349-.339.175-.2.126-.309.107-.029-.136.065-.465.02-.464-.04-.213-.065-.174-.106-.31-.1-.745-.175-.378-.291-.495-.232-.2-.173-.146-.2-.281-.291-.319-.533-.272-.058-.212-.638-.077-.358-.02-.4-.049-.213-.3-.368-1.016-.367-.435-.572-.349-.435-.184-.01-.291.184-.386.2-.242.174-.242.184-.348.326-.513.31-.427.03-.271-.214-.116-.368-.01-.456-.049-.349-.087-.358-.164-.272-.349-.367-.521-.039-.33-.145-.27-.146-.166-.222-.222-.136-.087v-.2l.281-.31.107-.213-.116-.552-.117-.339-.184-.31-.3-.232-.319-.2-.261-.1-.581-.087-.745-.048-.513-.048-.541-.02-.252.039-.358.1-.406.107-.368.252-.326.2-.281.145-.31.183-.26.107-.155.213.02.378.058.223.165.435.107.291.445.92.261.368.251.58.213.562.349,1.278.135.318.116.281.233.165.521.106.417.135.319.049.912.058.242.106-.065,1.742-.065.446-.029.242-.349.039h-.542l-.357-.039-.407-.029-.3.029-.174.116-.242.183-.147.155-.163.358-.678.736-.6.6-.591.678-.456.173-.5.165-.271.078-.436.077-.26.1-.291.164-.766,1.181-.415.7-.223.02-.33-.746-.706-1.491-.563.078-.475.009h-.251l-.214-.048-.078-.1-.126-.252-.233-.145-.668.1-.349.03-.252.076-.318.107-.232.038-.184-.01-.106-.338-.2-.319-.31-.281h-.572l-.387.117-.184-.039-.2-.136-.048-.2.048-.29.1-.261.009-.3-.048-.242-.105-.232-.2-.281-.3-.59-.9-1.182-.427-.629-.638-.687-.823-.32-.939-.321-.521-.145-.89-.2-.764-.2-.427.029-.407.065-.561.107-.872-.059.339-.754.233-.407.233-.3.135-.3v-.1l-.058-.842.02-1.2-.116-.6-.4-.339-.291-.7-.2-.456-.2-.378-.184-.339.638-.338.552-.31.765-.271.475-.126.416-.4-.223-1.878.2-1.066-.009-.58.038-.853.173-1.645.03-.407-.065-.339-.368-.3-.5-.291-.765-.3-.532-.261-.774-.456-.872-.222-1.113-.088-.223.232-.648.426-.493-.32-.659-.02-1.094-.183-.521-.077-.668.077-.377-.116-.436-.065-.562.038-.7.174-.464-.048-.4-.652.058-.426.117-.532.349-.736.065-.774.465-1.84.2-.717.436-1.008-.065-1.238-.059-.652-.078-.436-.349-.407-.591-.241-.4-.242-.378-.175-.5-.174-.2-.232.078-.532.31-.261h.581l.493.2,1.308-.2.3-.078.222-.271.078-.291.232-.387.31-.252.485-.223.271-.3.173-.465.291-.367.562-.107.271.088.406.154.92.212.58.145.668.3.5.426.542.677,1.492,1.277.939.33,1.017.242.842.184.861.175.591.02.746-.039.678-.078.474-.2.213-.474-.029-.436.01-.521-.214-.765-.01-.456-.087-.581-.009-.652-.01-1.065-.155-.562-.184-.958-.426-.2-.677-.378-.552-.146-.349-.368-.213-.542-.3-1.463-.6-.164-.717-.048-.678-.271-.717-.388-.521-.358-.4-.426-.252-.446-.065-.387-.03-.571-.065-.521-.01-.386.059-.417-.087-.329-.03-.464.049-.495.009-.436.252-.271.377-.2.4-.154.34-.108.435-.135.378.146.212.2.456.289.483.291.348.271.391.2.289.107.417.417-.078.377.02.726-.116.969-.078.89-.029.358-.1.406.048.445.4.224.223-.019.232-.108.224-.164.212-.038.291-.058.155-.145.106-.165.175-.281.155-.242h.28l.165.117.223.145.251.057.668.03.338-.01.36.1.4.049.281.009.184-.077.2-.2.26-.3.1-.125.175-.065.135-.048.2-.1.31-.136.116-.1.184-.117.242-.135.213-.068.222-.065.166-.065.145-.087.164-.146.087-.165.155-.2.048-.125.048-.175.156-.184.1-.058.106-.029h.087l.2.065.184.065.135.048h.407l.175-.019.164-.065h.252l.281.126.25.065.242.221.358.242.146.33.155.532.039.367.029.514-.387.8-.281.272-.29.358-.319.2-.31-.039-.378-.164-.586-.251-.3-.039-.552.077-.282.213-.2.378-.28.541-.349.223-.2.155-.1.329v.474l-.126.5-.348.842-.232.708-.651.764-.591.591-.861.8-.832.823-.368.34-.155.2-.009.5.106.465.329.532.175.058.368-.029.222-.214.659-.018.55.087.311.117.252.058.251.135.107.3.184.281.88-.116.581-.222.493-.126.571-.155h.717l.495.378.387.009.326-.02.387-.02.359-.078.369-.135.326-.117.4-.116.2-.775.145-.2.2-.233.659-.174.456-.029.542-.065,1.221-.126.833-.2,1.49-.2.339-.174.242-.068.223.068.058.32.039.212.038.388.1.436.261.4.087.029.2.039.088-.078.028-.1.126-.078.221-.065.136-.077.155-.126.174-.106.065-.039.175-.029h.165l.4.184.125-.078.087-.154.068-.339.065-.117.078-.1.155-.106.117-.019.125.009.117-.009.184-.039.348-.107.155-.065.107-.048.088-.078.065-.126.03-.117.029-.1.058-.1.087-.126.281-.115.185-.068.106-.058.1-.048.087-.1.049-.126.058-.155.1-.145.107-.155.136-.107.1-.039.078-.029h.126l.155.009.165.02.174.01.135-.039.145-.117.106-.1.05-.078.048-.1.057-.126.117-.183.076-.058.107-.1.136-.213.2-.214.386-.165-.058-.407-.2-.367-.542-.969.009-.222.078-.408.106-.483.069-.416.086-.533-.058-.465-.465-.28-.456-.068-.852-.105-1.22-.03-1.723.164-.57.106-.823.107-.717.183-.736.2-.61.271-.4.465-.581.466-.782.668-.678-.3-.291-.474-.116-.6-.677-.988-.146-.416-.078-.514-.135-.541-.26-.484.107-.484.658-.551.7-.087.406-.02.688-.048.456.039.706.065.475-.059.59-.145.552-.078.581-.319.184-.2.2-.484h.34l.252.1.165.165.087.165.164.184.126.126.242.164.222.145.253.116.232-.145.175-.175.338.048.391.184.387.126.3.145.107.155.087.184.087.2.135.184.2.059.281.02.2.02h.261l.155-.078.2-.214.2-.311.185-.2.184-.164.368-.2.5-.252.232.145.3.2.02.251-.213.542-.117.349-.009.3.146.376.155.272.145.087.532.223.782.658.406.387.107.087.213-.1.077-.065.117-.135.165.058.165.145.155.1.2.107.29.065.251.029.2.155.077.135.087.126.087.175.107.106.359-.009.2-.184.271-.388.1-.1.252.058.126.117.214.116.2.164.125.175.1.173.2.33.174.126.339.213.155.222.126.106.2.01.2-.048.3-.065.281-.065.251-.065.281-.05.252-.049.184-.038.2-.184.251-.166.174.146.1.164.155.369.174.183.2.02.175-.164.232-.232.261-.261.242-.106h.145l.251.048.2.135.165.135-.058.165-.065.117-.057.087-.126.077.106.221.165.155.2.117.2.058.3.039.309.1.126.078.106.135.065.184.077.233.029.223.01.271v.136l-.116.183-.126.107-.164.065-.184.3.086.309.059.165.048.184.26.3.222.117h.2l.2-.126.242-.2.31-.2.242-.117.31-.065.426.059.2.145.26.107.224.078.4-.078.437-.136.27-.058h.3l.31-.048.252-.126.28-.173.155-.087.271-.048.495.2.406-.078.232-.065.242-.02.2.184.155.28" transform="translate(4594.615 438.14)" fill="#9cb1c9" stroke="#fff" stroke-linecap="square" stroke-linejoin="bevel" stroke-width="1" fill-rule="evenodd"/>
    <text id="talId153count" data-name="Shirur Kasar" transform="translate(5930.674 1511.373)" fill="#fff" font-size="7" font-family="OpenSans-Bold, Open Sans" font-weight="700">
      <tspan x="0" y="0"></tspan>
    </text>
    <path id="talId152" data-name="152 Patoda" d="M1388.788,1083.12l.707-.126.483.038.146.136.484.222-.059.3-.077.326.038.2.088.2.087.214.106.31.01.281.038.319-.019.358.009.309v.28l.426.349.339.242.2.145.106.165-.126.222-.165.2-.261.28-.174.2-.165.242-.1.242.01.232.087.184.271.232.251.212.291.2.242.223.126.368.009.339.078.483.221.261.3.291v.32l-.155.425-.009.495.048.562.039.326-.058.5-.29.29-.242.28-.242.369-.126.135-.387-.049h-.146l-.251.087-.214.126-.174.291-.465.542-.058.233-.049.232-.3.116-.309.068-.387.116-.282.029h-.378l-.586-.009-.32.048-.223.175-.28.27-.309.581-.065.581-.087.521-.2.184-.339.223-.473.281-.291.156-.261.106-.4.309-.116.484-.358.4-.106.242.1.251.251.427.4.513.281.357.251.4.213.358.425.407.233.174.485.261.233.065.2.088.117.126.31.445.057.252.02.2.106.2.233.107.242.058.1.175-.009.184-.126.2-.175.339-.358.029-.2-.049-.214.117-.057.184.115.2.2.126.222.175.087.165-.048.145-.039.116-.087.271-.039.521.02.61-.146.173-.135.224.048.115.135.233-.2.435.058.242.427.29.319.2.3.233.222.261.214.2.706.513.309.358.175.184.126.3-.077.232-.252.833-.281.842-.065.339-.058.281-.068.281-.125.242-1.181.416-.9.949-.687.824-.2.542-.223,1.008-.115.464-.474.542-.446,1.142-.367,1.007.078.4-.126.2-.2.165-.115.135.065,1.036.145.416.058.3.065.4.212.862.039.444.117.436.038.542.039.426.029.416-.01.319.358.794.349,1.046.223.581-.107.377-.348.136-.329.135-.326.135-.349.145-.155.107-.135.3-.029.233-.009,1.519.077.881v.242l-.019.31.271.136h.416l.446.049.309-.019.326.077.02.233-.117.3-.106.339-.184.745-.242,1.056-.048.8-.368,1.423-.242.339-.039.541-.271.339-.3-.155-.2-.107-.174-.117-.155-.126-.165-.183-.232-.2-.242-.175-.223-.078-.251-.068-.175-.065-.126-.029-.126-.078-.135-.078-.126-.106-.116-.107-.107-.136-.155-.1-.126-.065h-.164l-.116.02-.145-.01-.349-.126h-.2l-.445.154-.242.136-.591-.261-.562-.3-.02-.251.02-.407-.326-.233-.61-.048-.349.02-.464.126-.339.135-.521-.165-.358-.27-.494-.34-.552-.261-.078-.484-.029-.88-.088-.581-.029-.707.116-1.549.087-.33.222-.657.2-.581-.145-.532-.4-.426-1.23-1.095-1.869-.92-.6-.319-.717-.29-.669-.321-.464-.251-.326.251-.165.735.2.639.155.929-.01,1.694-.117.445-.436.474-.5.32-.465.261-.572.368-.464.242-.474.068-.651.038-.378-.146-1.258-.435-.513-.175-.745-.3-.048-.619.116-.416.078-.446-.145-.3-.3-.233-.5-.154h-.571l-.242-.1-.116-.271-.156-.339-.145-.319-.456-.165-.309-.059-.416-.183-.427-.242-.59-.2-.513-.058-.358-.126.01-.222-.065-.474-.029-.165-.435.058-.32.107-.339-.078-.3-.358-.3.407-.224.242-.358.135-.687-.058-.726-.174-.116-.175-.261-.369-.222-.483-.165-.339-.02-.387.088-.378.019-.387-.145-.445-.29.126-.1-.135-.078-.456-.125-1.259-.175-1.326-.261-1.9.349-1.4-.456-.708-.388-.358-.416-.214-.242-.3-.174-.222-.513-.378-.726-.717-.28-.349-.117-.251-.436-.233-.3-.232-.26-.339-.251-.26-.242-.2-.038-.2.125-.223.1-.213-.116-.165-.281-.116-.223-.038-.242-.31-.117-.31-.658-.154-.358-.087-.252-.233-.406-.3-.406-.184-.368-.2-.291-.2-.358-.212-.31-.358-.33.029-.251.464-.388.6-.474.842-.281,1.375.136.919-.2.921-.242,1.89-.019,1.694-.175,1.006-.241.513-.175.668-.039.59-.155.651-.065.494-.3.038-.406-.048-.1.3.261.5-.717.1-.339.106-.484.416-.184-.435-.2-.329-.107-.2-.048-.26.029-.184.281-.2v-.221l-.233-.31-.242.126-.272.261-.175-.065-.2-.446-.146-.058-.232-.155-.087-.319-.155-.261-.184-.078-.233-.251-.029-.282.155-.4.078-.347-.31.154-.377.106-.184-.106-.058-.241-.116-.261-.261.224-.31.183-.358.106-.456.146-.32.174-.446.2-.493.1-.426-.2-.388-.436-.638-.657-.358-.543-.359-.456-.435-.224-.291-.29-.087-.5-.174-.571-.049-.456-.281-.3-.513.242-.281.387-.824,1.142-.145.154-.212-.281-.057-.367.078-.183.087-.184v-.126l-.155-.145-.154-.01-.184.058-.058-.126.038-.165.065-.2.106-.164.136-.184.145-.212.106-.2.107-.349.126-.465.059-.145.174-.212-.078-.223-.233-.164-.231.01-.368.116-.223.117-.233.107-.291.107-.242.058-.629-.154-.223-.02-.242.065-.165.106-.145-.048-.164-.117-.233-.242-.106-.213-.039-.213.117-.224.232-.2.126-.117.2-.076.3-.078.329-.029.4-.048.28-.065.272-.065-.106-.456.065-.2.078-.155.087-.2-.135-.154-.2-.02-.212.058-.271.01-.184-.156-.106-.175-.039-.213.029-.2.145-.155.155-.184.155-.28-.107-.823.02-.291.009-.174-.057-.077-.175.01-.165.01-.048-.125.048-.2-.039-.251-.135-.165-.4-.126-.338.126-.165.2-.174.281-.242.107-.065-.1.087-.213.136-.175.2-.261.047-.4-.222-.221-.136-.359.1-.242-.135-.261-.223.155-.117.135-.2.135-.115-.165-.136-.222-.2.155-.107.126-.2.065-.077-.165.048-.329.058-.2.058-.349v-.251l-.117-.126-.3.388-.581.407-.281.106h-.233l-.145.087.088.31.154.252-.048.174-.106.214-.175.222-.339.251-.5.474-.223.165-.358.164-.242.019-.048.184.146.126.2.135.155.065.242.155.116.242.087.2.251.174.087.261-.1.145-.668.214-.2.077-.358.1-.2.1-.32.136-.31.174-.136.2.039.2.126.145.184.087.184.117.242.2.166.165-.1.213-.2.184h-.1l-.135-.116-.3-.31-.3-.591-.164-.184-.2-.1-.223-.029-.233-.1.038-.146.146-.154.233-.2.261-.116.33-.165.629-.4.087-.125-.029-.155-.242-.213-.281-.078-.222.01-.311.02-.261-.087-.184-.135-.078.02-.106.164-.174.1-.058-.02.048-.175.029-.261.184-.367.155-.223.155-.281.1-.2-.146-.175-.319-.155-.242-.077-.349-.02-.27.02-.106.164-.049.272-.048.416-.2.108-.252-.03-.164-.029-.155-.01-.106.068-.126.135-.183.029-.029-.213-.029-.261.029-.223.136-.242.183-.282.087-.367-.019-.136-.058-.174-.116-.2-.2-.233-.2-.116-.107.058-.174.174-.214.117-.2-.049-.058-.475.01-.309.065-.2.106-.126.126-.291-.213-.484-.087-.213-.039-.251-.233-.117-.367-.065-.126-.261v-.271l.019-.687.065-.271.02-.31-.1-.126-.62-.2-.338-.065h-.214l-.242-.1-.252-.155-.126-.028-.213.2-.038.107-.2.241-.251.038-.048.059.038.261.146.087.28.2.233.184.02.184-.166.116-.212.065-.212.019-.31.019-.106.214-.2.145-.116-.1-.272-.145-.145-.145-.106-.145-.065-.185.155-.116.117-.2-.02-.261-.174-.369.145-.135.175-.155.078-.145-.039-.174-.108-.106-.1-.155.3-.26.213-.184.243-.126.483.049.1.213.184-.029.145-.2.1-.474.213-.065.291.029.135.2.107.155.2-.029.165-.184.213-.242.388-.388.165-.513.065-.591v-.251l-.242-.049-.213.135-.115.242-.311.2-.175.01h-.358l-.436.048-.2-.155.087-.117.33-.028.116-.2.174-.4.087-.2.231-.174.214-.107.281-.125.291-.1.271-.1.126-.252-.078-.136-.29-.174-.029-.271.223-.446-.494-.048-.339-.038-.5-.05-.475.117-.339.145-.291.02-.514.019.05-.135.136-.252.1-.174.2-.184.261.029.136.136.2-.116.329-.329.2-.029.309.165.136.038.2-.135.329-.242h.252l.165.087.184.059.164-.029.154-.232.272-.339.639-.582.165-.212.26-.261.087-.242-.087-.233-.174-.33-.154-.251-.184.057-.31.272-.175.2-.34.32-.309.232-.31.145-.155-.116.1-.2.2-.165.2-.2.038-.2-.078-.155h-.27l-.145.117-.4.145-.077.019-.223-.232-.078-.4-.077-.261-.2-.009-.3.116-.368.039-.107-.136.048-.552.242-.01.184-.009.368-.02.184-.251.01-.155-.02-.242-.1-.155-.165-.087-.368-.029-.184-.029-.271-.145.087-.107.272-.058.3.049.281-.01.2-.1.271-.049.358.029.233.087.338.232.271.2.2.127.281.058.039-.087-.1-.223-.029-.223.146-.174.2-.232-.01-.2-.233-.125-.3-.078-.329-.106-.125-.165-.01-.232.173-.136.261-.1.571-.077-.117-.2-.223-.173-.6-.872-.183-.31.01-.183.107-.175.164-.155.242-.1.251-.019.1-.2.184-.223.629.272.165-.223.261-.881.339-.678.368-.755.493-.756.465-.358.349-.2.407-.349.038-.919.611-1.368-.184-2.43.02-.319.145-.387.155-.272.272-.261.4-.232.281.213.378.222.329.562.474.377.591.407,2.255.058.949-.029,1.046.175,1.007-.184.562-.184.717-.367.61-.417.6-.3.184.339.2.378.2.456.291.7.4.339.117.6-.019,1.2.058.843v.1l-.135.3-.232.3-.232.407-.339.755.871.058.562-.107.406-.065.426-.029.766.2.891.2.521.145.939.32.823.319.639.687.426.63.9,1.181.3.59.2.281.106.233.049.242-.009.3-.1.261-.049.291.049.2.2.136.184.039.387-.117h.571l.309.282.2.318.106.339.184.01.233-.039.318-.107.252-.078.349-.029.668-.1.233.145.125.252.078.1.214.048h.251l.475-.01.561-.078.708,1.491.326.745.222-.019.416-.7.765-1.181.291-.164.26-.1.436-.077.271-.078.5-.165.456-.174.59-.678.6-.6.678-.735.165-.358.145-.155.242-.184.174-.116.3-.029.406.029.358.04h.542l.349-.04.029-.241.065-.446.065-1.743-.241-.107-.912-.058-.319-.048-.416-.135-.521-.106-.233-.165-.117-.281-.135-.319-.348-1.278-.213-.561-.252-.581-.261-.368-.444-.92-.106-.291-.166-.436-.057-.222-.02-.377.154-.213.261-.106.309-.184.281-.145.33-.2.368-.251.406-.106.359-.1.251-.039.542.02.513.048.746.049.58.087.261.1.321.2.3.233.185.31.115.339.117.551-.108.214-.281.31v.2l.135.087.223.223.145.165.145.271.039.33.368.521.271.347.358.165.349.087.456.048.368.009.212.117-.029.27-.31.426-.329.513-.184.349-.175.242-.2.242-.184.387.01.29.436.184.57.349.368.435.368,1.017.213.3.4.048.358.02.64.078.057.212.532.271.291.32.2.281.173.145.233.2.291.494.174.378.1.745.107.309.065.175.039.213-.02.464-.065.466.029.135.31-.107.2-.125.339-.175.8-.349.736-.326.552-.126.4-.145.3-.078.232-.1.2-.232.117-.3-.065-.658.3-.038.223.029.541-.058.369-.756.223-.231.232-.261.155-.2.272-.1.222.213.2.213.223.135.233.038.252-.009.357-.039.213-.107.427-.087,1.113-.01,1.22-.01.521-.029.427-.02.241-.065.349-.173.88-.146.407.038.3.1.319.01.261-.233.164-.184.233-.165.358-.2.31-.065.049-.242.065-.406.319-.358.7-.9.184-.377.065-.252-.029-.2.02-.3.165-.6.213-.638.163-.446.272-.319.319-.106h.261l.281.019.291-.01.242-.155.368-.231.446-.32.842.02.31-.01.483.117.465.1h.349l.349.087.212.135.319.241.242.184.223.058.339-.5.436-.2.562-.048.667.065.562.1.832.1.2-.087.087-.33.058-.367" transform="translate(4594.855 437.101)" fill="#7DB8EC" stroke="#fff" stroke-linecap="square" stroke-linejoin="bevel" stroke-width="1" fill-rule="evenodd"/>
    <text id="talId152count" transform="translate(5935.886 1543.949)" fill="#fff" font-size="7" font-family="OpenSans-Bold, Open Sans" font-weight="700">
      <tspan x="0" y="0"></tspan>
    </text>
    <path id="talId145" data-name="145 Ashti" d="M1315.594,1077.432l-.4.232-.271.261-.155.272-.145.388-.02.319.185,2.43-.61,1.368-.038.919-.407.349-.349.2-.464.358-.494.755-.368.756-.339.678-.261.881-.165.223-.63-.272-.184.224-.1.2-.251.019-.242.1-.165.156-.107.175-.009.184.184.309.6.871.223.175.116.2-.571.078-.261.1-.175.135.01.233.126.165.33.106.3.078.232.126.01.2-.2.233-.146.173.029.222.1.224-.039.087-.28-.058-.2-.126-.271-.2-.339-.233-.232-.086-.358-.029-.271.047-.2.1-.28.01-.3-.048-.27.058-.087.107.27.145.184.029.368.029.165.087.1.155.02.242-.01.155-.184.252-.368.019-.184.01-.242.01-.048.551.106.135.367-.038.3-.116.2.009.078.261.078.4.223.231.078-.02.4-.145.145-.116h.272l.078.155-.039.2-.2.2-.2.165-.1.2.155.116.309-.145.31-.233.338-.32.175-.2.31-.272.184-.058.155.252.175.326.087.233-.087.241-.261.261-.165.213-.639.58-.271.339-.155.232-.164.029-.184-.058-.165-.087h-.252l-.326.242-.2.135-.135-.038-.31-.165-.2.029-.329.326-.2.116-.135-.135-.261-.029-.2.183-.1.175-.136.251-.048.135.514-.02.291-.02.338-.146.474-.115.5.048.338.038.495.048-.223.446.03.271.291.175.078.135-.126.253-.272.1-.291.1-.28.126-.213.107-.233.173-.087.2-.175.4-.116.2-.326.029-.087.116.2.156.437-.049h.358l.173-.01.31-.2.116-.242.213-.135.242.049v.251l-.065.591-.164.513-.388.388-.212.242-.166.184-.2.029-.107-.155-.135-.2-.291-.029-.212.065-.1.475-.145.2-.184.029-.1-.214-.484-.048-.242.126-.212.184-.3.261.1.154.106.107.039.175-.078.145-.173.154-.146.135.174.368.02.261-.117.2-.154.116.065.185.106.145.145.145.272.146.116.1.2-.145.106-.214.31-.018.213-.02.213-.065.165-.117-.02-.184-.233-.184-.281-.2-.145-.087-.039-.261.049-.057.251-.039.2-.243.038-.106.213-.2.126.029.251.155.242.1h.214l.339.065.619.2.1.126-.02.309-.065.271-.02.688v.271l.126.261.368.065.232.117.039.252.087.213.212.483-.125.291-.106.125-.065.2-.01.309.058.474.2.049.213-.116.174-.174.107-.058.2.116.2.232.116.2.059.175.02.135-.087.368-.185.281-.135.242-.029.222.029.261.029.213.184-.029.126-.135.106-.065.155.009.164.03.253.029.2-.108.048-.416.049-.27.107-.165.27-.02.349.02.242.078.319.155.145.174-.1.2-.155.281-.155.222-.184.368-.029.26-.048.175.058.019.174-.1.108-.164.077-.019.184.135.261.088.31-.02.221-.01.281.077.242.214.029.155-.087.125-.629.4-.329.164-.261.116-.233.2-.145.155-.038.145.233.1.222.029.2.1.165.184.3.59.3.31.135.116h.1l.2-.183.1-.213-.164-.165-.242-.2-.184-.117-.184-.087-.125-.145-.038-.2.135-.2.309-.175.32-.135.2-.1.358-.1.2-.078.668-.213.1-.146-.087-.261-.252-.174-.087-.2-.116-.242-.242-.154-.154-.065-.2-.135-.145-.126.049-.184.241-.02.358-.165.223-.165.5-.474.339-.252.175-.223.105-.214.048-.175-.154-.251-.087-.309.145-.087h.232l.281-.107.581-.407.3-.391.116.126v.252l-.058.349-.058.2-.049.326.077.165.2-.065.106-.126.2-.155.135.222.116.166.2-.136.117-.135.222-.154.136.261-.1.242.135.358.224.224-.049.4-.2.261-.135.174-.087.213.065.1.242-.107.175-.28.165-.2.339-.126.4.126.135.165.039.252-.048.2.048.126.165-.009.175-.01.058.078-.01.174-.02.291.107.823-.156.281-.155.184-.145.155-.029.2.038.213.108.174.184.155.272-.01.213-.057.2.019.135.155-.087.2-.078.155-.065.2.106.456-.271.068-.281.065-.4.048-.326.029-.3.078-.2.078-.126.117-.233.2-.116.223.039.213.107.212.233.243.164.115.146.048.164-.107.242-.065.222.019.63.155.242-.058.289-.106.232-.107.224-.117.368-.116.233-.01.233.165.076.223-.174.212-.058.145-.126.465-.107.349-.105.2-.146.214-.135.184-.106.163-.065.2-.038.165.058.126.184-.058.156.01.155.145v.126l-.087.184-.078.184.058.368.213.28-1.306,1.462-1.123,1.355-1.036,1.385-.387.668-.5.638-.891.571-.417.717-.948,2.207-.782,1.607-.833,2.2-.521,1.095-.6.367-.969.2-1.655.62-1.646,1.084-.339.106-.417-.038-.793-.367-.679-.311-.726-.28-.949-.223-1.629-.387-1.6-.5-1.238-.494-.233-.493-.223-.445-.436-.136-.706-.223-.659.029-.764.252-1.181.521-1.889-.242-2.323-.01-.039.852.116,2.014.039.551.271.9.029,1.539-.126.464-.5.368-.61.658-.7,1.665.03,1.51-.106.862-.2,1.635-.184,1.8-.058,1.249-.251,1.674-.794,1.85-.223.521-.242.261-.078-.27-.1-.369-.175-.2-.165-.155-.33-.349-.57-.145-.61-.242-.485-.281-.213-.154-.281-.243-.065-.27-.029-.349.049-.456-.02-.93-.078-.425-.2-.29-.3-.165-.33-.107-.464-.184-.261-.126-.174-.077-.416-.261-.377-.388-.261-.387-.319-.407-.261-.212-.184-.271-.154-.3-.175.029-.183.048-.26.03-.367-.117-.165-.184-.065-.31.117-.174.213-.1.116-.078.135-.183-.087-.456-.252-.184-.261-.145-.183-.117-.223-.038-.224-.02h-.338l-.3-.117-.271-.357-.474-.465-.214-.281-.136-.281-.038-.135-.01-.164.039-.175.038-.184.039-.136-.049-.2-.117-.154-.2-.214-.326-.367-.484-.368-.688-.446-.318-.1-.391-.087-.62-.058-.4-.107-.242-.183-.116-.106-.174-.2-.116-.165-.116-.319-.184-.184-.2-.087-.135-.02-.166.01-.291.065h-.241l-.33-.2-.464-.58-.339-.5-.368-.726-.261-.581-.087-.388-.065-.387-.126-.272-.2-.184-.2-.145-.2-.116-.29-.058-.474-.126-.543-.125-.174-.087-.164-.155-.088-.126-.106-.117-.065-.164.058-.339.058-.377-.048-.242-.116-.358-.5-.736-.2-.212-.175-.136-.2-.107-.29-.117-.407-.065-.222-.058-.146-.065-.155-.106-.116-.107-.135-.223-.116-.513-.01-.2-.135-.125-.145-.068-.126-.065-.155-.126-.048-.116-.048-.2-.039-.464.029-.145v-.116l-.029-.145-.038-.126-.107-.116-.62-.251-.261-.165-.1-.087-.116-.154-.117-.156-.145-.252-.349-.184-.175-.02h-.165l-.2.02-.2.02-.223-.078-.61-.58-.174-.136-.271-.038-.175.038-.214.126-.2.145-.242-.057-.2-.251-.164-.136-.2-.087-.184-.078-.116-.058-.233-.261-.106-.456-.272-.4-.2-.117-.232-.154-.281-.1-.135-.165-.087-.251-.1-.474-.2-.5.213-.32.2-.2.184-.251.165-.213.145-.252.048-.9.048-.368.065-.368-.115-.426-.3-.065h-.591l-.59.1-.106.872-.416.125.174-1.354-.213-.058-.1.59-.145.843-.329.116-.251.126-.281.1-.581.155-.687-.116-.272-.135-.213-.349-.281-.349-.678-.533-.7-.861-.223-.407-.2-.233-.126-.106-.223-.175-.184-.165-.116-.348.039-.213.106-.175.135-.231.135-.31.281-.745.01-.521-.01-.326-.065-.272-.145-.349-.3-.01-.252.251-.782.5-.4.251-.358.213-.483.368-.368.232-.464.02-.3-.088-.4-.065-.175-.106-.4-.474-.9-.988-.311-.29-.319-.117-.638.01-.591.078-.782.326-.629.213-.929.223-.543-.01-.4-.32-.165-.31-.1-.27-.048-.233-.01-.164.078-.32.29-.6.456-.5.407-.611.078-.154.03-.173-.019-.136-.107-.222-.087-.145-.175-.087-.145-.065-.136-.107-.213-.2-.24-.426-.33-.4-.2-.3-.145-.261-.2.078-.445.521-.2.145-.213.2-.222.231-.339.232-.687.126-.708.039-.823-.049-.484-.028-.512-.107-.02-.184.03-.368.065-.32.086-.31.107-.291.087-.377-.029-.359.136-.764-.126-.106-.1-.116-.1-.251-.117-.271v-.233l.039-.087.058-.087.065-.1.078-.107.065-.232.058-.184v-.213l-.01-.106-.049-.2-.078-.135-.039-.058-.038-.078v-.136l.019-.038.038-.038.029-.038.038-.019.078-.02.116-.039.087-.065.029-.107.048-.1-.02-.164-.077-.184-.233-.2-.155-.146-.2-.222-.368-.474-.349-.591-.416-.349-.145-.077-.125-.029h-.087l-.2.065-.135.058-.078-.106-.078-.2.01-.272.039-.31v-1.772l.039-.377.058-.416.038-.2.029-.242-.2-.56-.1-.339-.126-.378-.029-.232-.174-.521-.126-.2-.251-.065-.437-.038-.261.136-.4.1-.251.116-.26.378-.436.668-.184.339-.184.272-.232.367-.358.4-.326.7-.126.078-.088.009-.551-.087-.224-.058-.174-.087-.1-.1-.078-.233-.087-.222-.1-.175-.135-.2-.368-.251-.242-.145-.309-.106-.426-.339-.474-.436-.339-.261-.165-.135-.1-.232-.077-.436.029-.165.065-.126.077-.116.107-.2.01-.136-.04-.242-.065-.155-.135-.261-.224-.31-.387-.445-.3-.271-.513-.311-.543-.165-.571-.233-.446-.175-.326-.116-.2-.2-.367-.2-.087-.087-.039-.078-.029-.087-.009-.165.065-.28.078-.1.126-.107.311-.117.658-.309.232-.126.136-.087.087-.078.1-.087.087-.261.116-.484.155-.29.058-.184.02-.213-.068-.3-.038-.261-.02-.212v-.164l.029-.184.039-.107.01-.106-.029-.126-.048-.135-.087-.065-.261-.077-.107-.01-.117-.01-.1-.039-.065-.039-.065-.1-.078-.065-.088-.1-.106-.107-.057-.136.009-.261.058-.135.01-.126-.02-.222-.065-.233-.125-.135-.251-.106-.572.02-.707-.117-.126.009-.116.039-.078.088-.174.144-.136.078-.126.059-.175.029-.2-.01-.2-.078-.348-.116-.155-.048-.32-.155-.126-.155-.145-.368-.029-.165-.029-.135-.029-.126-.1-.261-.065-.165-.029-.077-.009-.107-.01-.251v-.136l-.02-.145.058-.319.02-.087-.01-.086-.01-.058-.038-.1-.1-.058-.018-.106.2-.087.2-.291.242-.155.591-.28,1.026-.794.233-.329.155-.251.048-.242.212-.4.33-.2.291.01.184.388.852,1.4.436,1.007.33.651.571.765.2-.01.426.029.415-.065.31-.117.8-.309.842-.31,1.287-.406,1.355-.659.446-.155.3-.165.251-.416.377-.456.368-.078.378.048.456.065.291.126.4.2.261.2.367.175.291.087,1.016.01.349.019.659.087.4.058.456.126.272.2.233.3.347.687.223.329.028.291-.058.368-.03.629.107.581.309.232.5.3.415.116.391.156.562.212.425.087.319-.126.126-1.2.065-.2.1-.242-.018-.251-.03-.145.165-.2.184-.175.3-.175.321-.087,1.4.136.2-.281.136-.174.2-.175.184-.251.212-.136.26.039.1.213.166.241.61.4.464.281.232.077.31.029.32-.038.521-.146.34-.155.242-.146.136-.2.02-.155-.117-.212.272-.359.214-.251.057-.214-.019-.271-.057-.271-.068-.261-.115-.358v-.651l-.136-.386.1-.378.2-.4.677-.765.271-.326.126-.291.02-.261-.038-.415-.708-.32-1.152-.251-.494-.1.048-.7.065-.814-.02-2.053.02-1.123.281-1.384-.521-.088-1.065-.135-1.268.029-.6.058-1.181.241-1.22-.065-.58-.3-.581-.446-.252-.521-.135-.977.474-3.369.038-2.2.271-.618.184-1.356-.078-.533-.117-.416.117-.242.087-.261.379-1.433.018-.319.01-.33-.01-.28.039-.233.221-.29.669-.591.155-.155.213-.388.474-.6.513-.745.155-.329.165-.521-.1-.852.029-.31.087-.309.174-.213.222-.165.272-.349.078-.6.057-.338.155-.243.154-.252.2-.271.2-.184.281-.156.291-.078.291.1.31.484.078.126.116.166.184.175.164.1.33.009.436.271.387.736.233.367.232.2.175.2.145.058.281-.02.416.048.339.146.485.659.407.338.367.155.513.165.251.125.338.107.521.009.4-.368-.087-.2-.117-.222-.065-.242-.039-.166-.009-.165.154.02.184.106.224.224.153.309h.088l.135.212.532.425.349.117.3.049.319.009.281-.048.31-.065.483-.154.6-.048.117.086.242.146.387.116.281.184.2.106.174.107.136.28.078.242.078.271.048.03h.232l.2-.02.213.029.281-.009.232-.02.223-.078.126-.087.2-.117.222-.106.339-.077.155-.039.233-.078.106-.222.223-.456.106-.155.106-.165.145-.175.146-.174.26-.135.116.1.01.241-.058.31-.319.465-.1.339.029.1.175.078.087.116-.03.2-.116.175-.048.242.065.222.261.02.271-.214.164-.222.175-.281.444-.416.446-.2.31.048.04.165.126.057.261.04.233.02.173-.078.261-.077.251-.126.175-.145.232-.165.2-.106-.01.165-.145.251-.164.145-.309.163-.2.135-.272.156-.174.2-.136.358-.136.358.562-.065.223.01.281.02.154-.146.087-.1.135-.019.145.048.184.029.2-.1.359-.065.648-.4.166-.165.2-.048.01.223v.416l-.02.261.065.261.116.065.3.058.3-.038.4-.087.329-.183.078-.039.078-.106.116-.185.058-.2.078-.136.135-.048.144.019.107.087.252.135.135-.116.03-.184-.048-.184-.068-.233.068-.087.174.04.049.116.058.2.02.126.009.125.117.242.154-.01.116-.1.106-.145.2-.068h.271l.126.126.155.065.154-.251.165-.146.155-.106v-.135l.058-.155.065-.165-.106-.117-.223.108-.106.065-.252.065-.213.01-.107-.174.175-.3.184-.1-.019-.174-.339-.088-.078-.1.038-.1.146-.1.164-.049.251-.058.243-.087.116-.1-.1-.106-.445-.1-.252-.087-.087-.106.049-.1.212-.078.155-.065.213-.078.2-.1.039-.135-.484-.126-.233-.078-.1-.183.213-.126.329.01.552.065.233-.039.543-.087.581-.029.659.02.485-.029.241-.213.058-.484.078-.252.29-.058.311.2.3.33.232.065.184-.145.223-.271.456.048.2.106.27.029.339-.329.426-.029.3.3.27.271.029.436.233.794.03.532-.175.465-.251.495-.339.378-.726.456-.764.862-.223.4-.039.725-.164,1.666-.049,1.006.242.465-.135.233-.31.251-.512-.01-.543-.078-.667-.183-.61-.049-.59-.019-.425.1-.309.483.115.4.2.2.3.2.319.3-.165.31.126.416.33.175.891.3.29.212-.242.233-.251-.029-.513-.358-.62-.184-.281.426-.28.311-.378-.107-.4-.3-.386.2-.26.521-.048.483-.1.427-.359.407.029.58.26.391.5.387.871.445,1.173.2,1.084.232.494.146.651.319.542.485.977.338.532-.01.572.1.435-.087.445-.3.31.019.4.309.4.232.677.146.581.116,1.375.485.61.232.465.145.6.117.465.058.562.065.319-.464.087-.465.319-.4,1.161.039.475.388.271.4.417.232.339.01.562-.02.619-.078.31.349.155,1.056.126,1.472.1.659.416.326.687.309,1,1.143.562.213.726-.165.746-.416.552-.107,1.2-.446.621-.31.513-.27.659-.184.552-.261.261-.416-.1-1.133-.057-.571-.116-.61-.319-.581-1.8-.987-.378-.823-.261-.552-.465-.329-.737-.233-.493-.387-.184-.338.135-.339.427-.561.949-1.075.232-.31.213-.339.106-.4.049-.513.01-.494-.474-.319-.117-.087-.26-1.6-.038-.657-.146-.475-.358-.213-.25-.4-.065-.475.155-.377.338-.358.31-.339.339-.1.436.078.4.117.949-1.017.291-.329.319-.326.465-.165.387-.087.291-.155.31-.3.145-.367.475-.339.406-.065.349.2.145.881.049.425-.107.659.348.174.521.378.407.852.155.824.271,1.21-.136,1.4-.406,1.686-.155.483.251.533.388.261.542.376.456.251.687.038,1.181-.541.6-.349.368-.233.513-.2.562-.165.61-.2.58-.107.726.107.233.474.3.833.242.426.445.708.5,1.083.164.929-.251,1.481-.339,1.753-.261.7-.2.2-.474.252-.367.252-.552.416.01.28.145.2.3.184.417.319.2.2.339.347v.4l.029.5.4.426.078.735.368,2.091.183.5.543.391.436.309.252.291.629.358.456.3.155.126" transform="translate(4597.86 438.07)" fill="#7DB8EC" stroke="#fff" stroke-linecap="square" stroke-linejoin="bevel" stroke-width="1" fill-rule="evenodd"/>
    <text id="talId145count" transform="translate(5859.658 1538.737)" fill="#fff" font-size="7" font-family="OpenSans-Bold, Open Sans" font-weight="700">
      <tspan x="0" y="0"></tspan>
    </text>
    <path id="talId155" data-name="155 Wadwani" d="M1473.231,1103.04l-.329.271-.232.175-.553.338-.368.281-.426.348-.281.2-.281-.009-.474-.185-.367-.164-.5-.28-.782-.465-.94-.687-.155.011-.862-.233-.706-.126-.521-.049-.465-.145-.929-.233-.494.065-.717-.048-.782-.048-.261-.2-.117-.687.088-.562.155-.5.1-.542-.126-.4-.309-.391-.175-.125-.437-.146-.465-.155-.436-.065-.387.02-.242.116-.3.145-.252-.01-.272-.135-.261-.2-.242-.223-.5-.1-.281.077-.261.107-.386.175-.388.106-.552.01-.687.009-1.123.165-.629.406-.146.261-.233.252-.27.2-.32.185-.824.135-.474.065-.521.125-.4.184-.677.407-.03-.3-.242-.2-.391-.087v-.687l.1-.281.088-.271-.1-.242h-.31l-.1.125-.387.214-.145.029.01-.3.126-.348.164-.261.367-.348.63-.912.087-.115.116-.349-.077-.562-.175-.233-.242-.1-.5-.087-.078-.2-.058-.4-.329-1.19-.058-.7-.029-.407-.2-.377-.184-.185-.4-1.113.222-.349.243-.319.309-.261.406-.155.521-.185.349-.456.5-1.306.425-.251.571-.427.406-.814,1.3-.125.426-.107.464-.165.319-.445.326-.039.271-.26.049-.464-.087-.756.33-.242.814-.435.765-.243.591-.232.822-.233,1.268-.155.929.272.446-.065.726-.019.782-.126.465-.1.521-.087.629-.039.987-.1,1.211-.494.871-.59.251.3.339.27.349.136.261.039.755.049.456-.224.61-.726.3-.319.465-.31.677-.174.581-.533.251-.2.02-.184-.436-.465-.039-.416.3-.3.252-.213.126-.4-.058-.416-.165-.619.039-.446.078-.833.456-.174.378-.146.407-.076-.038-1.568-.065-1.694.078-2.178.223-.813.107-.289.231-.359.465-.326.213.126.252.107.271.039.406.126.329.059.319-1.084.165-1.25.087-1.035-.087-.609.106-.562.173-1.964.078-.485v-.32l-.154-.2-.28-.087-.32-.115-.078-.232.03-.31.29-1.19.039-.379.01-.4-.116-.175-.33-.01-.291.019-.116-.2-.222-.213-.242-.174-.326-.039-.272-.01-.058-.291-.029-.309-.078-.532-.3-.252v-.435l.029-.445.126-.388.038-1.21.116-.552.065-.31.019-.27-.184-.2-.174-.009-.213.107-.387.107-.31-.166-.591-.339-.482-.367-.475-.494-.233-.019-.4-.135-.407-.136-.456-.107-.252-.156-.26-.29-.116-.368-.214-.658-.184-.958.145-.065.252-.018.638-.029h.533l.542.116.484.2.251-.243.417-1.422.222-1.491.368.117.156.039.261.173.212.243.513.213.651.078.184-.01.33-.02.261.02.233.059.214.222.222.213.272.155.629.183.513.281.358.107.29-.065.358-.156.291-.087.349.009.347.117.6.281,1.026.281.521-.106.871-.126.484-.174.359-.261.851-.59.329-.26.532-.281.521-.214.912-.251.968-.3.232-.087.213-.058.31-.029.349.02.233.076.28.136.2-.048.369-.04.658.01.745-.087.552.019.339.009.329.059.213.1.3.2.551.232.456.417.358.756.02.736-.126.445.065.326.135.088.493-.01.581.233.2.048.32.038.562-.107.475-.115.213-.078.521-.136.446-.056.426.009.387.241.368.659.146.571.291.521.2.2.271.038.533.126.233.058.6.184.4.087.465.057.651.116.358-.01.126-.115.117-.212.948.126.281.02.233.02.456.2.252.271.223.233.213.116.339.145.551.175.912.326.7.2.668.059.648.116.059.233-.01.31-.145.483-.319,1.337-.358.782-.513.223-.1.667-.049.456-.456,1.51-.222,1.307-.078.33-.087.155-.174.1-.358-.01-.736-.117-.726-.223-1.569-.542-.494-.2-.475-.156-.629-.174-.774-.222h-.407l-.065.2.175.173.223.125.136.039.2.3v.251l-.1.271-.33.291-.464.444-.224.261-.861,1.326-.3.391-.126,1.132-.058.32-.145.2-.252.251-.009.6.2.465.126.608.166.427.058.242-.088.232-.106.184.059.145.145.28.175.339.047.987.1.367.174.252-.087.687-.174.2-.2.175-.3.155-.065.223.117.2.232.165.155.164.183.378.214.049.319.038.852.019,1.162.107.261.028.271.03.31.048.32.02.444.087.591.058h.745l.446.029.2.212-.065.174-.135.166v.291l.3.223-.02.184-.087.136-.184.1-.32.087-.233.009-.2.242-.485.842-.562.659-.184.233-.076.368v.29l.125.407.717.658.416.31.319.261.339.291.164.261.2.465v1.025l.1,1.065-.029.261-.126.038-.242-.049-.391-.087-.386-.01-.668.253-1.82.813-.231.175-.214.436-.049.386-.242,1.027-.038.326-.145.184-.291-.065-.261-.106-.31-.165-.2.05-.242.2-.214-.02-.165-.213-.251-.049-.281.164-.33.107-.232-.135-.436.154-.7.651-1.181.9-.6.252-.261.135-.27.184-.2.3-.165.222-.252.223h-.2l-.291-.078-.638-.174-.379-.1v-.368l-.039-.446-.271-.754-.388-.106-.7-.233-1.22-.038-.3.126-.407-.078-.309-.156-.339-.251-.465-.02-.871.029-.417.088-.794-.088-.291.116-.184.165-.242.174-.232.184-.2.029-.223-.214-.2-.165-.456-.155-.465-.029-.3.126-.2.367-.648.949-.717,1.53-.349.9-.136.386-.087.326.107.31.561.833.175.2-.01.223-.135.175-.116.241.049.543.145.726.126.339.126.309.136.233.2.078.232.049.406.1.175.145.039.309-.065.271-.184.214-.281.087-.386-.107-.746-.271-.407-.106-.377-.174-.271-.222-.146-.02-.309.339-.407.367-.542.445-.165.107-.281-.029-.107-.242-.183-.349-.232-.165-.521-.038-.639.01-.456.155-.155.155-.33.3-.213.32-.2.376.01.795-.065.165-.107.2-.326.485-.1.271-.039.407.039.562.107.252-.029.2-.222.233-.377.145-.474.173-.475.165-.6.252-.3.232-.065.281.029.184.019.232.047.251.135.339-.009.417-.059.474" transform="translate(4590.514 437.868)" fill="#7DB8EC" stroke="#fff" stroke-linecap="square" stroke-linejoin="bevel" stroke-width="1" fill-rule="evenodd"/>
    <text id="talId155count" transform="translate(6058.319 1519.475)" fill="#fff" font-size="7" font-family="OpenSans-Bold, Open Sans" font-weight="700">
      <tspan x="0" y="0"></tspan>
    </text>
  </g>
</svg>
