<svg xmlns="http://www.w3.org/2000/svg" width="191.443" height="301.458" viewBox="0 0 191.443 301.458">
  <g id="Bhandara" transform="translate(-2218.335 -98.463)">
    <g id="_368_Tumsar" data-name="368 Tumsar" transform="translate(2219.365 99.081)">
      <path id="talId368" fill="#7DB8EC" title="Tumsar" data-name="368 Tumsar" d="M2343.463,519.972l-.274.871-.81,1.551-.6.9-.673,1.034-1,1-.11.065-1.248,1.214-1.275,1.189-1.851,1.7-.452.485-.4.394-.4.524-.26.087-.329.116-.3.188-.59.576-.233.3-.068.2-.068.254-.028.094-.042.123-.082.225-.013.21.069.422-.439.709-.714.884-.85,1.179-1.071,1.407-.11.315-.013.443.041.4.11.406.191.357.248.669.04.428-.082.434-.4.712-.89.562-1.248.676-2.976,1.235-.521.2-1.975.838-.917.575-1,.674-2.073,1.666-5.277,4.184-1.851,1.4-2.112.588-.85.488-.589.361-.7.437-.617.581-.384.892-.234.465-.068.44-.028.912.152.886.945,3.33-.684.622-1.3,1.331-.52.78-.3.613-.027.41-.235,1.019-.219.861-.589,1.413-.11.747-.111.727-.286,2.2-.149,1.737-.083.944-.068.738-.578,2.881-.314.856-.63.96-.562.665-.591,1.05-1.589.993-1.016.632-1.4.392-.534-.32v-.921l-.315-.472-.2-.063-.138.1-.014.247-.083.167-.289-.141-.068-.154-.013-.136.26-.062.261-.161.178-.229.055-.175-.095-.023-.1.269-.207,0-.149-.028v-.13l.231-.144.178-.032.014-.2-.123-.2-.07-.04h-.095l-.068.226h-.139l-.014-.279.123-.056v-.282l-.192-.118-.137-.219-.288-.2-.136-.122-.013.227h-.151l-.083-.017-.11.115-.053.257-.111-.033.041-.252-.22-.006-.082.122.069.1.013.085h-.109l-.052.106.052.073.166.008-.056.141-.162.072-.181.078-.082.036-.067.11-.1-.069-.027-.177-.193-.105-.081-.123.027-.129-.068-.15-.016-.217-.314.14-.041-.218-.082-.129.069-.107.081-.022-.027-.2-.11.005-.039-.162.067-.106.218-.13.153-.295.026-.289-.094-.134-.084-.039-.081-.12-.192,0-.055-.147.082-.289-.013-.152-.014-.237-.028-.248-.109-.1.056-.132.027-.02-.369-.066-.3-.072-.137.123-.151.054-.191.026-.344.023-.039.078-.209.111-.136.017-.123.065-1,.58-.768.071-.547-.1-.356-.016-1,.139-.645.219-.2.055-.317-.021h-.068v-.361l.192-.031.015-.289-.139-.054.013-.161-.082-.178-.136-.023.108-.206-.012-.274.012-.388-.108-.047-.028-.094.082-.222v-.126h-.111l-.122-.044-.042-.245.07-.214-.138-.09-.04-.139.192-.206.027-.392.053-.137-.053-.222-.056-.224.138-.461.041-.189-.054-.05-.125-.06-.289-.062-.123,0-.109.019-.41.036-.315-.019-.494.037-.178-.031-.332-.07-.136.247-.26-.045-.178-.1-.619-.2-.245-.184-.015-.045v-.218l-.452-.119-.508-.024-.479-.018-.644.1-.26-.193-.3-.089-.152-.033-.055.057-.041.016h-.122l-.028-.035-.207-.019-.219-.008-.095.114-.068-.007-.071-.085-.164.037-.206-.047-.138-.029-.26-.074-.028-.007-.122-.039-.234-.11-.094-.2-.054-.121-.167-.121-.109-.032-.258-.053-.3-.023-.192,0-.026-.008v-.081l-.168-.02-.2-.018-.26-.063-.137-.03-.179-.042-.177-.044-.112-.006-.027.032-.138-.019-.081.107-.137.048-.028-.156-.068-.143-.042-.152v-.141l.027-.237v-.122l-.152-.173-.189-.024-.1-.063.124-.167.151-.2.054-.213.125-.182.137-.265.1-.2.122.111.083.146.124-.085.165-.163.094-.164-.069-.177.042-.216.137-.072.082.133.177.151.138-.027.164-.074.054-.23.03-.107-.084-.1-.082-.125V569.9l.055-.128.15.03.1.036.123.026.11-.066.108-.147.1-.1-.013-.195-.124-.094-.137.014-.111.2-.083.014-.123-.106.015-.121.122-.159.054-.2-.082-.186-.165-.093-.083.1-.152.01-.136-.182-.027-.129.1-.155.18,0,.192.049.149-.1.124-.213.165-.229.054-.163.069-.174-.1,0-.055-.016-.027-.223.233-.007-.028-.152.012-.118.058-.122-.084-.073-.082-.011-.165-.047.055-.1.055-.135.109-.012.027.064.1.061.109-.05.083.03.014-.113-.139-.06-.164-.177-.013-.2.1-.076.094-.243-.094-.037.04-.121.108.036.056-.162.054-.151.179-.081-.124-.1-.013-.038.013-.133.139-.018.054.012.069-.1.094.027-.012.166.137,0,.039.007.069-.1.042-.064.054-.04.111-.022.082-.071.082-.059.015-.081.027-.042.012-.171.054-.118.069-.012.029-.093.039-.091.042-.045h.068l.056-.1.108,0,.18.01.163,0,.028-.081.151-.894.014-.674.192-.3.054-.011.193-.077.082-.042.069-.1.027-.118.165.007.138-.015.165-.026.013.056.055-.008.028.069.137-.044.015.055.273-.011.083-.159.1-.11.122-.134.152-.1.257.012.083-.2.315-.421.137.015.042-.041.027-.063v-.153l.11-.208.068-.119.125-.147.053-.144-.012-.146.028-.127-.057-.182.029-.155-.014-.221-.042-.119-.026-.2-.042-.065.042-.144-.042-.2-.056-.269.084-.239-.055-.159.1-.295h.056l.081-.206.1-.019.042-.237-.083-.021v-.1l.029-.236.026-.151-.014-.288.124-.018-.1-.1-.013-.245.548.055.153.012.315.062.015-.348-.041-.794.136-.313.012-.569.166-.248.111-.071.068-.277.109-.177.287-.322.315-.55.056-.081-.74-.269-.412-.126-.688-.243-.163-.066-.29-.005-.177.031-.369-.089-.234-.045-.027.105-.221.024-.165.021-.094.005-.177-.042h-.11l.014-.092-.11-.042-.164-.04-.289-.138-.206-.046-.192-.047-.193-.11-.179-.084-.547-.082-.345-.133-.26-.094-.425-.118-.164-.06-.15-.087-.289-.213-.232-.056-.315-.077.192-.745.1-.717.248-.835.123-.394.053-.239.206-.476.028-.158.056-.172-.068.014-.057.066-.068-.005-.054.008-.15-.118-.1,0-.029-.077-.094-.071v-.044l.041-.005.015-.033-.07-.005-.026-.149-.029-.08-.2-.234-.111-.187-.287-.126-.344.1-.329.106-.138.085-.1.016-.069.03-.108.02-.221.01-.1-.012-.357-.025-.3-.1-.4-.034-.26-.048-.221-.044-.229-.071-.166.007-.286-.025-.646-.068h-.056l-.041.111-.095.05-.1.022-.041.053-.124-.02-.178-.06-.151-.051-.33-.03-.014-.067-.026.017-.055.024-.042.052-.055.011-.041.066-.082.085-.1-.023-.042-.053-.1.027-.068.118-.136-.026.028.1-.056.125.028.156-.028.088.1.117.151-.014.11.084.042-.022.082-.085.082.025.028.045.027.059.041-.006.042-.018.081.033.125.015.082.041.014.143.028.084-.028.079-.027.022-.069-.024h-.07l.014.107v.027l-.052.023-.016-.025-.014-.022v-.028l-.026-.026-.042.01-.029.044.084.048.012.077.03.042v.036l-.069.007-.058.029-.026.062.042.034.027.056-.013.026-.055,0-.069-.017-.07-.007-.027.022-.027.082.04-.007.083.008.04.082v.1l-.027.026-.054.016-.069-.01-.1-.013-.164-.141-.166-.1-.068-.049-.082-.033-.179-.023-.178-.066-.191-.081-.013.047.013.115-.138-.008v.056l-.108-.01-.026.051-.192-.015-.082-.017-.152.011-.124-.022-.083-.033-.192-.026-.233-.048-.123-.021-.1-.062-.027-.041-.164.018-.138-.005-.137-.008-.054.1-.068.073-.054.048-.083.1-.082.147-.068.06-.1.02-.1.129-.081.06-.041.069-.042.079-.081-.094-.124-.025-.028-.115-.041-.081.1.047.014-.037-.041-.052v-.062l-.082-.1-.056-.054-.026.035-.1-.049.056-.06.083-.043-.056-.045-.111.013-.04-.114.04-.073-.068-.07-.026-.145-.054-.015.054-.094-.042-.092.015-.121.013-.174-.07-.067v-.091l-.068-.013-.014-.057.07-.1-.07-.108-.026-.081.055-.066-.042-.1-.056.006-.055-.071-.1-.052-.11-.018-.013-.07-.068-.055-.055.062-.122-.068.039-.087.1-.105-.014-.22-.041-.055-.092-.026-.139-.2-.014-.159V543.8l-.028-.091-.137-.092h-.164l-.22-.07-.068-.083-.056-.1-.1-.182-.385-.154-.52-.486v-.386l-.151-.032-.288-.029-.166-.048-.411-.055-.96-.168-.2-.079-.109-.011-.151.1-.124.032-.137.123-.054.055-.069-.012-.083.035-.1.061-.109-.023-.028-.023-.082.011-.069,0-.1.017-.068.029-.054.044-.084.012-.095-.009-.082-.021-.1-.17.069-.188.013-.119-.082-.151.069-.052-.041-.156-.071-.029-.068.058.042-.114.012-.169-.259-.1-.3-.079.042-.085.026-.034.042-.172-.042-.044-.013-.116-.1.011-.111-.067-.343.173-.137.086-.178.068h-.233l-.11.066-.261.135-.231.2-.287.091-.165.1-.452.165-.372.085-.4.117-.167.082-.081.01-.125.1-.109.052-.083.113-.137.029-.15.151-.084.2-.067.026-.028.088-.014.085v.076l.014.1-.124.012-.2.011-.083.395-.042.237-.026.181-.055.326.027.076-.069.34-.246.688-.028.066-.027.286.055.435.013.177-.041.13.014.065.111.048.012.148-.055.184-.205.2-.135.236-.014.16v.211l-.1.121-.042-.085-.1.055-.068.015-.152.03-.165.022-.233.1-.152.04v-.057l-.15.014-.137.033-.286.151-.18.088-.259.145-.028.062-.069.277.014.077-.288.045-.494-.125-.4.007-.411-.027-.645-.123-.245-.054-.315-.022-.249-.06h-.355l-.235.037-.15-.026-.139-.041-.108-.019-.3-.145-.123-.023-.768-.254-.466-.014-.109.076-.069.032-.053.089.04.089-.055.06.027.1-.11.122-.013.079.081.073.03.079-.042.058.042.079-.042.1.012.069-.369-.028-.194.017-.192.037-.206-.048-.26-.265-.934-.385-.754-.24-.054-.071-.233-.111.014-.091.068-.125-.04-.14-.18-.085.028-.146.028-.059-.068-.2.123,0,.083.022.178-.021.083-.034-.014-.051-.137-.087-.138-.04-.039-.034.055-.084-.07-.03.015-.041.013-.038-.028-.047-.123.044-.069-.018.012-.05.11-.026.068-.066.11-.034.041-.089-.1-.018-.026-.058-.042-.127.029-.1v-.122l-.083-.019-.027-.067.041-.051.054-.048v-.047l.028-.041.014-.037V545.3l-.027-.019h-.069l-.056.024v-.159l.11-.536.054-.45.016-.211-.905-.979-.2-.309-.221-.565-.288-.786-.164-.905-.357.189-.027.072-.084-.03-.343.214-.506.3-.4.223-.3.065-.315.055-.354.069-.673.1-.053.646-.084.242-.135.8-.125,1.143-.438-.189-.372-.029-.069.094-.149.293-.494.782-.315,1.246-.207.182-.083.02-.259-.082-.3-.257-.466-.26-.52-.353-.865-.952-.629-.835-.51-.824-.04-.432-.054-.894.054-.14.178-1.011-1.109-.061-.164.223-.03.245-.012.307-.52.712-.385.349-.193.177-.4.267L2225.6,543l-.056.82.152.6-.042.063.1.253.042.3.111.2.3.36.356.342.4.316,1,.907-.5.125-.371.07-.439.324-.686.376-.465.2-.275.056-.316-.221-.2-.152.027-.185v-.086l.04-.217-.151-.021-.042-.089-.081-.037.013-.141.029-.214-.029-.111-.11-.122-.068-.278.151-.246.109-.27-.438.182-.478-.2-.288-.005-.234-.076-.355-.254-.055-.218-.028-.35-.054-.16-.124-.189-.343-.154-.246-.292-.07-.217-.04-.318-.234-.129-.1-.126-.274-.041-.343.031-.11.11-.137.276v.313l-.138.336-.384.165-.232.242-.617.946-.3.5.069.206.028.236h-.125l-.411-.02-.632-.055-.754-.055-.069.292-.22.993-.534.019-.574.005-.741-.038.082-.066v-.055l-.014-.041-.11-.056-.028-.054-.026-.132-.042-.165-.11-.3-.069-.1.013-.13-.028-.165-.081-.312-.056-.16.042-.373v-.341l.054-.232v-.357l-.013-.475v-.392l-.055-.114-.165-.383-.177-.45-.317-.744-.19-.63-.083-.15-.48-.47-.63-.053-.645-.022-.313.056-.715.222-.3.352-.482.42-.191-.029-.549-.034-.385-.227-.44-.244-.341.032-.274.156-.288-.009-.466-.2-.494-.233-.712-.17-.22-.624-.18-.105-.479-.407-.5-.214-.806-.472.041-.312.015-.394-.029-.391-.055-1.031-.055-.621.083-.374.15-.343.07-.193.109-.331.055-.351-.015-.85-.014-.38-.068-.166-.344-.589-.109-.223-.042-.142.206-.636.191-.495.358.085.547-.074.151.009.329-.18.425-.285.248-.008.273-.251.137-.225-.013-.222.027-.643.261-.549.136-.277.083-.462.151-.262.371-.468.206-.2.026-.246.151-.133.068-.162.124-.083.041-.24.355-.48.165-.225.233-.239.261-.552.245-.391.166-.319.1-.338.012-.207.207.088.178.116.343-.079.233-.106.274-.132.166-.108.054-.359.15-.706.316-.507.329-.355.437-.545.246-.081.165-.244.233-.687.123-.319.181-.23.026-.307.026-.162-.052-.137-.22-.425.645-.095.329-.062.069-.293.438-.493.357-.267.412-.116.275-.086.752-.6.328-.246.426-.3.4-1.048.205-.519.33-.312.385-.231.59-.666.59-.915.875-1.241.631-1.072.042-.357.343-.14.205-.153.151-.169.4-.109.357-.642.288-.281.247-.125.439-.175.464-.162.261-.044.274-.011.26-.113.165-.236.37-.436.14-.1.563-.288.1-.1h.012l.329-.077.069-.114.083.049.357-.076.053.021.042.075.012.073-.069.092.453-.127.643-.18.22-.055.22-.05.109.021.082.077.041.2.055.288.138.1.039.077.016.1.221.27.272.11.179.044.053.009.042-.026.083-.134.014-.162-.111-.3-.013-.2-.084-.2.015-.189.081-.1.152-.047.232-.167.124-.163.246-.252.371-.2.152-.1.409-.171.479-.081.357.074.288,0,.507.236.329-.048.522-.143.438-.119,1.111-.281.328-.1.494-.132.411-.116.3-.069.246-.059.179-.039.245-.043.3,0,.275.027.122.022.344.257.358.288.532.334.372.241.357.219.643.3.535.125.893.01.739-.222.684-.347.685-.736.688-.523.535-.256.918-.262.631-.122.781-.163.934-.4,1.344-.58,1.26-.618.44-.222.494-.174,1.165-.347.562-.051.482.009.506.24.493.238.685.269.508.115,1.4.313.7.053.865-.026.685-.174.809-.173,1.346-.355.574-.154.6-.426.316-.346.4-.662.11-.479.535-1.3.041-.53.1-.723.026-.44.055-.573-.055-.509.084-.4.137-.169.41-.193,1.012-.4,1.594-.4.466-.178.426-.253.163-.07.62-.043,1.37.286.807.225h.426l.413-.041.506-.118.59-.284.548-.422.274-.306.343-.488.151-.428.11-.584.221-.628.258-.4.727-.19.741.012,1.5.141.562.068,1.165.038.824-.156,1.341-.479.606-.178,1.069-.8.714-.773.671-.756.739-.41.452-.112.741-.091.823.169.8.569.618.525.629.5.439.333.687.3.522.105,1.1.328,1.3.332,1.112.352,1.481.481,1.507.594,2.141.3.848.2,1.166.407,1.18.556,1.684,1.351,1.319,1.109,1.44,1.452,1.6,1.712,1.7,1.532.247.348.3.314.631,1.319.793,1.575.37.557.659.6.646.4,1.248.443,1.6.325.341.1.4.13.413.125.342.137.3.118,1.166.755,1.618,1.663,1.261.956.592.144.49.035.577-.015.631.077.549.1,1.016.3.288.111.165.071.615.228.8.274.85.694.274.409.29.782.4.484.33.136.315-.046-.012-.081.2-.048.013-.078.107-.1.152-.15.056-.1-.028-.025.108-.133.169-.363.026-.133.191-.192.192-.145.219-.086.261-.1.191-.049.277-.05.947.088.615.079.18.021.163,0,.288-.061.259.012.507-.005.221-.142.409-.077.138-.067.014-.052.426-.158.382,0,.4.051.26.092.329.144.124.113.014.018.07-.288.422.63.234.373.671,1.113.549,1.011.26.469.22.557.345,1.3.273,1.119.042,1.356-.247,1.166" transform="translate(-2203.541 -486.103)"  stroke="#fff" stroke-linecap="square" stroke-linejoin="bevel" stroke-width="1" fill-rule="evenodd"/>
      <text id="talId368count" transform="translate(64.59 39)" fill="#fff" font-size="10"  font-family="OpenSans-Bold, Open Sans" font-weight="700"><tspan x="0" y="0"></tspan></text>
    </g>
    <g id="_365_Mohadi" data-name="Mohadi" transform="translate(2229.907 153.274)">
      <path id="talId365" fill="#7DB8EC" data-name="365 Mohadi" title="Mohadi" d="M2272.835,559.763l.163-.036.071.085.067.007.1-.114.221.008.2.019.03.036h.123l.041-.017.055-.056.15.033.3.089.26.193.644-.1.48.018.507.023.453.119v.218l.015.045.246.184.618.2.177.1.261.046.137-.247.329.07.179.032.49-.037.315.02.413-.036.11-.019.124,0,.287.061.125.06.054.049-.04.189-.139.461.055.224.055.222-.055.137-.026.392-.192.206.041.139.137.09-.068.214.041.245.123.044.109,0v.126l-.081.222.028.095.108.047-.013.388.013.274-.108.206.136.023.082.178-.013.16.138.054-.013.29-.193.031v.362l.069,0,.317.021.205-.055.643-.22,1-.138.356.017.55.1.77-.071,1-.58.123-.065.136-.017.207-.111.042-.078.343-.023.191-.026.15-.054.138-.124.3.073.369.066-.026.021-.056.132.108.1.03.248.012.237.016.153-.084.289.056.147.193,0,.081.12.084.039.094.134-.026.289-.152.3-.219.13-.068.106.042.161.107-.005.03.2-.083.021-.07.107.084.129.039.218.316-.14.013.217.068.149-.026.129.083.124.191.105.027.177.1.069.069-.11.083-.035.178-.079.164-.071.056-.142-.165-.008-.055-.072.055-.106h.109l-.013-.085-.069-.1.083-.122.22.006-.041.252.108.033.056-.256.109-.115.082.017h.151l.014-.227.138.122.287.2.138.219.192.117v.283l-.124.057.015.28h.135l.067-.226h.1l.07.039.123.2-.012.2-.18.032-.23.143v.13l.149.027.2,0,.1-.269.1.023-.057.176-.177.228-.258.162-.261.062.013.136.069.154.286.14.083-.167.013-.247.138-.106.205.063.315.472v.921l.536.32,1.4-.393,1.016-.632,1.59-.993.591-1.05.561-.665.632-.959.316-.856.574-2.881.068-.738.084-.944.149-1.737.287-2.2.11-.727.111-.747.589-1.413.22-.862.233-1.019.027-.41.3-.613.52-.781,1.3-1.331.686-.622.989-.541.026.147.042.1.068.023.041.078.1-.011.125-.112.191-.005.138.065.1-.008.069-.075.15.043.11.087.206-.025.04.106-.014.116.1.206.138,0,.107.057h.111l.067-.1-.082-.127.015-.043.123-.036.11,0,.068.249-.055.192v.159l.246.205.138-.147.2.017.069-.132.164-.024-.027.313-.013.457-.029.5.015.375.027.28-.069.267v.167l-.054.076-.083.355-.164.4-.055.105-.081.245-.029.331-.04.135.012.075-.082.533-.069.38-.014.272.083.224.166.293.137.188-.084.086.028.107.124.052.083-.04.122.066.192-.066.22.122-.014.118-.039.678.012.542.041.341-.053.344.012.078-.081.92-.153.4v.344l-.027.294-.1.172-.083.3.329.029.371.071.316.064.2.095.233.06.181.014.137.094.63.171.234-.04.206-.1.52.065.042-.065.452.072v.269l.2.277-.026.215.3.076.1.12.287.3-.081.411v.036l.164.1-.137.143-.178.08.069.067.205.089.192,0,.054.13.083.181.123-.14.152.005.012.162-.081.17-.042.2-.193.192.1.083.081.081.07-.07.083.044.109.021.068.111.07-.032.082-.045-.082-.157v-.155l.068.015.04.041.028.076.041-.122-.055-.145.1-.081.123,0-.013.168.026.234-.068.1.275.056-.1.548.054.014.026.237-.053.276-.041.263-.109.146-.055.229-.083.225-.082,0-.165-.019-.082.026-.179.79-.081.033-.631-.075v.2l-.028.295-.029.092-.012,1.431.069.044v.1l-.028.31.068.045.083-.027.137-.037.15.009.152-.129.11.016.012-.245.027-.028.07.02.081.111.2.162.1.122.138.167.1-.025.083.075-.028.089.082.068.151-.085v.106l-.026.2.136.029.028.062-.164.165.012.148.137-.062.18-.066.109-.046.068.076-.014.14.04.136-.15.024-.1-.049-.014.155-.083.112h-.1l-.069-.019.012.2.1-.037.028.059.11.008.11.074.1.1.124.031.189.094-.026.089.136.062.123.042.028.063-.165.046-.041.107-.068.151-.382.017-.591.046-.179.458-.26.091-.193.016-.136.128-.124,0-.054.078-.123.016-.166,0h-.191l-.04.11-.165.049-.208.047-.081.082-.1.086-.11.059-.015.31-.082.1v.551l.013.227.084.021-.028.063-.027.108.013.214-.068.182.123.041-.013.11-.123.235.3.092.138.055.151-.035.219-.092.082-.074.054.248-.136.726.136.126.22.76.232.533.181.706.3.044.261.006.3.063.038.019.042.01h.1l.315.048.04-.111.52.292.424.169.948.348.368.156.428.114.863.143.7-.083.851-.316.178.089.151-.037.191-.244.083-.148.137-.06.206.066.232.027.138-.009.152-.031.15-.012.1.057.125.011.315.429.026.2.028.235.083.108.192.108.179.105.054.036.341.014.137.784v.895l-.725.252-.465-.266-.591.033-.453.026-.549.148-.315-.042-.027-.312-.042-.763-.563-.03-.819-.032-.247-.032-.275-.026-.548-.115-.536-.192-.644-.2-.165.229-.11.4-.083.273-.041.086.549.091.247.022.178.087.687.331.232.216.194.219.259.183.125.053.013.011.192.126.068.165.165.2.23.024.166-.042.959.346.386.417.108.244.125.057.11-.039.59-.625.152.044.054.119.179.505.369.2.248.084.191-.045-.026.939.2.646.453.453.44.246.164-.049.371.177.125.391-.317.436-.273.123-.179.418-.893-.262-.4.062-1.248-.012-.727.187-1.042-.088-.644.424-1.646,1.023-.7.261-.563.156-.74.42-.356.7-.44.859.44.243.711.425v.268l-.136.237v.239l-.18.55-.314.656-.247.363-.246,1-.1.466-.026.446-.1.505-.11.462.028.262-.22-.052-.3-.162-.191-.293-.177-.1-.4-.291-.851-.711-.549-.138-.341-.069-.33-.018-.548.338-.261.237-.234.3-.4.383-.672.245-.726.782.1-1.344v-.329l-.014-.156-.027-.156-.177-.069-.6.249-.164.082-.4.273-.205.182-.193.1-.164.063-.205.026-.179-.036-.042-.039.028-.327.508-1.02-.562-.275.1-.2.014-.175-.1-.075-.151-.01-.069-.032-.233-.111-.369-1.014v-.138l-.042-.15-.057-.171-.108-.528-.576-.267-.454-.171.056-.212-.028-.079-.152-.155-.108.008-.055.1-.068-.122-.095.027v-.071l.027-.075-.137.042-.069.018v.064l-.1.063v.043l-.028.062.028.34.04.237.042.167-.343.328-.1.058-.015.226-.026.263.054.323-.013.208-.041.079-.152.037-.164.006-.219.035-.179-.006-.179.056-.039,0-.11.009-.194.03-.052-.1-.179-.015-.1-.084-.234.03-.205.123-.165-.165-.165.145-.124.258-.081.024-.206-.05-.014.09.028.192-.013.049-.138.055-.013.116-.15.122.042.091-.125.034-.1-.045.029-.122-.111-.042-.233.066-.138-.088.028-.142-.152-.055-.094,0-.207-.01-.028-.119-.082-.093-.109.28-.138-.042-.109-.147.028-.118-.055-.061-.013-.1-.068.049-.1-.008-.014.085.083.138-.138.046-.219.127-.055.083-.055-.1-.288.07-.068.011-.151-.078-.138-.065-.1-.039-.219.076-.233-.051-.248-.28-.095-.217-.137-.245-.259-.157.083-.251-.027-.331-.865-.422-.191-.086-.865-.4-.619-.933-.424-.556-.26-1.172-.384-.5-.095-.278-.027-.324.068-.348.164-.449-.246-.443.095-.05.027-.12-.272-.013-.041.16.082.155-.042.078-.178-.06-.137.113-.082-.074.1-.116-.111-.086-.136-.008-.138-.008.014-.107.193-.012.012-.156-.137-.059-.028-.218-.165.085-.287-.156-.11.093.028.129.094.128-.026.086-.123.018-.18.2-.137-.176-.247.029-.191-.118-.18-.117-.054.085-.041.209-.151.045-.124-.184-.261-.108-.122.033-.111.128-.1-.113-.219-.008-.179.053.179.211-.014.134-.136.1-.194-.159-.355.15-.04.156-.273.387-.138-.1-.07-.273-.176-.2.288-.228v-.129l-.124-.1-.742.144-.205.328-.755.016-.261,0-.383,0-.494-.118-.367-.119-.592.026-.493.254-.2-.02-.194-.049-.163-.068-.18-.037-.492-.393,1.63-1.95-.411-.759.274-.371-.041-.227.083-.374-.027-.218.247-.365.219-.2.234-.369.053-.048-.026-.2-.042-.049-.219.063-.082-.1-.068.05-.453-.558-.152-.126-.3.163-.11-.007-.385-.1-.178-.044-.013-.05-.1-.044h-.357l-.617-.027-.259.037-.22-.034.041-.142-.109-.026-.315-.037-.479-.077.013.187-.013.092-.562-.01-.5-.058-.233-.014-.837-.086-.071-.01-.2-.052-.054.011-.192,0-.1.05-.138.025-.205.01-.546-.042-.056-.054.016-.18-.277-.131H2274l-.109-.007.013-.156-.193-.03-.577.039-.067.048-.071.009-.232-.023-.273.075-.11.019-.439-.032-.233-.039-.645-.21h-.08l.041-.224-.756-.268-.094-.041-.083-.095-.124-.053-.316-.037-.165.112-.11.1.11.074.014.11-.028.078-.082.005-.138-.122-.508,0-.259-.136-.22-.04-.315-.022-.014.113.22.692.452.975.22.526.259.736.028.447v.116l.192.647.109.442-.081.351-.261.21-.7.034-.824-.231-.506.018-.232.155-.22.294-.1.733-.054.4-.068.556-.083.78-.122.363-.1.327-.1.323-.1.479.028.478-.22.054-.108.053-.1-.218-.027-.113.151-.049.013-.08-.1-.091-.11-.063-.082-.006-.1.068-.069.072-.041.056-.165.012-.151,0-.054-.058-.014-.174-.027-.094-.15.033-.247.021-.015-.137.042-.2-.083-.262.1-.182v-.213l-.026-.414-.247-.378-.029-.193.233-.037.042-.2-.138-.174.042-.131.068-.07.054-.114-.081-.137.094-.122.016-.221-.138.015-.164.117-.124-.04-.124-.059-.178.008-.193-.155-.176-.038-.232-.037-.027-.361-.165-.064-.344.019-.11.382-.1.348-.068.12-.109.43-.646-.169-.054.43-.042.2-.233-.048-.015.115-.178-.034-.026.143-.083.368-.26.232-.014.063-.137.015.041.088-.028.284-.123.237-.028.032-.082-.032-.329-.192-.163-.052-.344-.056-.244-.045-.165.478-.193-.062h-.274l-.152-.005h-.1v.066l-.083.027-.177,0-.069.012-.149.029-.111-.011-.219-.008-.136.032-.153.017.042.265.056.292.012.041.015.152-.015.363v.246l-.012.224-.03.3.03.106-.317-.051-.041.1-.083-.019-.535-.07-.234-.1-.287-.125-.205.032-.3-.007-.343-.048-.068-.152-.22-.206-.3-.215-.37-.172-.193,0-.219-.039-.288-.017-.207.1-.083.029-.109.621-.028.336-.042.45-.026.262-.042.372-.027.258-.014.2v.272l-.04.4v.174l-.219-.076-.207,0-.179-.012-.068.076-.109.153.027.093-.014.117-.042.155-.1.174-.07.047-.052.024-.081.066-.013.133-.028.171.015.118-.152.019-.109-.022-.536.072-.151.039-.069,0-.219-.015-.562-.147.026-.259-.054-.041-.179-.112-.028-.011-.287-.108-.373-.082-.41-.052-.6-.067-.34-.141-.123-.068-.221-.108v.025l-.095.169-.084.134-.027.039-.178.2-.193.225-.013.013-.164.046-.3-.006-.137.136-.069.194-.274.038-.177.129.082.1.028.113-.068.1.054.04-.028.39.178.032-.013.075-.123.168.11.017.163-.054.014.052-.136.11.054.149-.054.233-.315.218-.1.152-.067.086.014.153-.124.123-.028.027.056.136-.071.071-.165-.051-.3-.122-.164-.115.069-.243-.218-.149.053-.291-.191-.054.027-.1.152-.092.026-.164-.041-.082-.027-.311-.248-.062-.039-.274-.125-.058-.094-.222-.123,0,.068-.257-.11-.071-.151-.024-.014.03-.013.073-.109-.058-.151-.011-.138-.262-.275-.06-.234.011-.053-.025-.069-.133-.11.105-.1.014-.1-.141-.245-.06.123-.168.219-.191-.109-.111-.125-.006-.012-.1.069-.263-.179-.15.11-.093-.042-.112-.015-.125-.04-.193.2-.126.083-.107.111-.232.027-.132V591.7l.053-.068.207-.572.027-.082.042-.085.028-.088.068-.172.027-.144-.37-.023-.138-.05-.013.061-.247-.167-.028-.022-.7-.49-.754-.221-.614-.431-.056-.263-.2-.148-.385-.071-.22.391-.74-.224-.013.322-.015.122-.22,0-.464.015h0l-.577.021-.4.014-.055.367-.315-.014-.2-.03-.289-.04-.508-.07-.877-.067.083-.34-.015-.155-.081-.287.027-.494-.137-.012-.177,0-.275-.019.013-.24-.356-.034.027-.29-.149-.018.04-.574v-.021l.055-.585.041-.072.081-.466.193-.737-.193-.037.193-.356.014-.028.232-.481.317-.337.014-.021.342-.526.508-.244.55-.125.178-.137.231-.335.083-.2-.029-.128-.04-.125-.124-.332-.054-.027.013-.131v-.228l-.041-.2-.109-.261-.193-.478-.081-.367-.029-.136-.039-.5-.028-.336.055-.286.11-.532.178-.355.206-.452.137-.534.027-.257.042-.409.11-.746.26.028.425.033.193-.011.426-.029.013-.27.068-.177.054-.2.1-.116.055-.161.081-.138.151-.163.027-.169-.053-.173-.083-.223-.042-.165-.11-.169-.068-.106v-.28l-.081-.047-.151-.045-.069-.1-.068-.084-.11-.089.028-.062.1-.087.149-.115-.012-.048.163-.044.084-.039.04-.073-.04-.129-.029-.209-.068-.025-.069-.006-.1.026-.137.038-.027.03-.083-.021-.082.041-.054,0-.068.037-.083-.152-.015-.067-.054-.152v-.119l.041-.129.028-.188-.015-.133-.027-.272-.027-.152-.041-.042-.136-.148-.069-.1-.028-.113-.012-.131-.042-.118-.069-.121.041-.2.028-.129.042-.129-.015-.1-.1-.049-.124.048-.233.13-.042.029-.134.032-.111-.005-.053-.027-.056-.091-.028-.122v-.14l.165-.083.068-.047.052-.065L2236,568.8l-.04-.041-.1-.021-.083-.031-.081-.073-.029-.146v-.062l.029-.089-.015-.112-.083-.081-.152-.1-.178-.034-.068-.032-.082-.079v-.079l.042-.082.095-.074.069-.047.055-.05V567.5l-.068-.03-.179-.011-.22.048-.124-.041-.041-.091-.041-.081-.04-.131.013-.126.042-.1v-.081l-.055-.045h-.069l-.041.035-.1.1-.109.094-.081.048-.125.069-.055.136-.026.071-.042.021-.15-.013-.055-.108-.028-.084V566.9l.014-.143V566.6l-.11-.176V566.3l-.013-.133-.014-.085-.042-.075-.055-.077-.067-.079-.069-.059-.055-.008-.191.022-.124.034-.124.06-.082.095-.124.171-.3.005-.166-.087-.039-.078-.042-.085-.083-.118-.066-.073-.055-.044-.109-.007-.029.012-.109-.069v-.071l.014-.113.041-.118-.082-.252-.068-.059-.082-.131-.026-.079.041-.159.094-.052.083-.032.423-.036.109-.089.1-.082.136-.08.016-.136-.042-.078-.1-.1-.15-.072-.149-.065-.262-.1-.109-.063-.056-.071-.055-.153-.081-.189.054-.263-.013-.037-.029-.095-.094-.04-.083-.026-.109-.05-.04-.079.013-.085.041-.078.069-.048.136-.108.068-.1.083-.069.053-.045.028-.078-.081-.026-.083-.013-.068-.027-.042-.059-.027-.124-.027-.134.083-.172.039-.015.1-.016.027-.013.068-.034.027-.063.068-.139.083-.027.055-.044.082-.058.054-.09.015-.1-.055-.066-.122.011-.112-.085-.041-.041.041-.062.1-.144.138-.14.04-.08-.013-.09-.054-.06.082-.173.014-.069-.029-.124-.026-.114-.055-.093-.041-.095-.027-.088.014-.088.082-.053.148.014.11,0h.1l.027-.041.015-.1-.015-.069-.055-.051-.123-.032-.068,0-.094.023-.027-.045-.014-.084.014-.07.04-.093-.026-.06-.041-.032-.095,0-.084-.062-.11-.051-.068-.038-.054-.082.014-.091.04-.1.083-.035.068-.01.1-.183.069-.161.042-.1-.028-.06-.055-.03-.083-.049-.082-.031-.07-.048-.04-.064-.013-.082.04-.056-.013-.049-.054-.038-.028-.01-.071-.018-.039.021-.069.034-.054.039-.123.089-.071.1-.069-.036-.095-.031-.054.012-.014.084-.041.114-.04.054-.054.01-.084-.055-.039-.07-.015-.083-.026-.048-.015-.1-.041-.089-.055-.042-.068.041-.057.142-.149.151-.123.01-.07-.068v-.084l.015-.084-.055-.065-.109-.021-.07-.025-.082-.045-.068-.051-.041.029-.11-.049-.015-.067-.069-.113-.052-.055-.1.01-.15-.032-.015-.058-.082-.02-.125,0-.121-.059v-.08l-.015-.151-.026-.13-.095-.238-.042-.02-.055-.046.013-.1.029-.06-.068-.067-.084-.014-.095-.021-.082-.039-.067-.057-.014-.074-.014-.11-.027-.08-.041-.011-.054-.063-.056-.042.03-.051v-.188l-.042-.109-.084.011-.069.028-.042.243-.081.048-.068-.127-.069-.073-.055-.025-.068-.015-.111-.043-.11-.1.057-.063.053-.011.057,0,.094-.014.015-.056-.042-.068-.041-.075V554.5l.068-.076.041-.031.055-.058.027-.06-.014-.09-.165-.025-.192-.317-.042-.014-.08.031-.083.045-.082.033-.054.015v-.06l-.056-.028-.1.061-.123.005-.084.067-.039.046-.055.005-.1-.066-.055,0-.055.037-.136.034-.069.053-.056.047-.026.051-.054.023-.042-.018h-.054l-.042,0,.056-.191.109-.21.138-.173.123-.169.1-.148v-.085l.124-.118.164-.089.056-.106.026-.03.042-.137-.125-.122-.04-.074-.069-.043-.042.04-.068.054-.11.084-.068-.008-.055,0-.013-.086.013-.054.095-.338-.012-.007-.111.109-.082.136-.028.008h-.04l-.069.012-.1-.029-.015-.074.082-.246.083-.135v-.054l-.083-.048-.04-.058V551.7l.014-.111-.125-.11-.11-.009-.108.122-.083-.119-.178-.014-.03.081-.039.081-.042-.036-.026-.162-.042-.014v-.073l-.151-.057-.179-.1-.11.086-.054.119-.054.023-.125-.027-.123-.063-.107-.074-.261.007h-.1l-.039-.076v-.135l.053-.07-.053-.084-.083-.033-.123-.016-.083-.043-.027-.094v-.123l.013-.1-.082-.061-.04-.187-.042-.078-.054-.094-.1-.1-.083-.048-.041-.077.026-.109.029-.1v-.14l-.041-.112.095-.1-.068-.125-.082-.012-.083-.063.07-.091.068-.122v-.1l-.138-.147v-.164l.041-.188.138-.051.109-.045.07-.1.053-.258-.123-.082-.109-.1-.138.045-.11-.163.165-.029-.013-.069-.166-.087.082-.066-.014-.113-.054-.04-.068-.111.068-.089-.042-.056-.026-.159-.083-.168-.164-.076-.083.159-.11.052-.067-.116.055-.141-.152-.073-.192-.05-.192-.029-.123-.034-.069-.118-.1-.126-.164.048-.125-.007-.149-.066-.124-.156-.069-.136.042-.333-.016-.173-.082-.187.1-.19.012-.25.138-.091-.014-.058-.042-.035-.136.07-.11-.04-.123-.11-.1-.129v-.1h-.069l-.052.056-.015-.019-.012-.026.012-.048-.012-.03-.057,0-.053-.057.053-.036.151-.035.053-.062.015-.094.014-.076-.029-.025-.053,0-.054.054h-.055l-.042.018-.026-.007-.027,0-.027-.038.027-.03-.015-.046-.068,0v-.058l-.069.024-.083-.017-.026-.061-.028-.066.028-.033.026-.06-.068-.055-.028-.033-.04,0-.11.056-.1-.024-.026-.052.026-.14.058-.117.068-.136.041-.115-.028-.17-.1-.017-.124.023-.027-.086-.042-.007-.013.092-.041.018-.042-.085-.027-.039.014-.046v-.043l-.055-.06-.015-.091-.012-.043-.042-.068-.04-.012-.042.007-.068.063-.029-.114.042-.034.029-.045-.029-.052-.026.011-.055-.015.039-.081.1-.01.013-.05-.094,0,.013-.092-.029-.082.042-.052-.042-.033-.1.019-.069.037-.053-.041-.041-.047.026-.068-.068,0-.026.08-.071.06-.068.067-.083-.029.014-.1.04-.045.042-.026-.042-.077.015-.059-.083,0,.028.049-.041.04-.042-.028-.039-.1.108-.167-.108-.225-.194-.238-.039-.082-.1.029-.071-.079-.08-.034.123-.074v-.12l.1,0,.029-.056.026-.088-.136,0-.069-.063.054-.059.057-.076-.016-.1-.111-.082-.122-.059-.194-.015-.15-.072-.015-.114.029-.14.028-.084.026-.039-.026-.047h-.042l-.055.035-.233-.13-.1-.087.055-.1-.152-.056-.027-.162.014-.081v-.055l-.029-.051h-.069l-.012-.023v-.036l-.082-.025v.026l-.054.016-.042-.02-.013-.095-.056-.059-.027-.137v-.094l-.013-.063v-.141l.013-.013.013-.163-.136-.007-.013-.069-.026-.137-.027-.014-.028-.173-.012-.1-.084-.129-.068-.023-.04-.016-.041-.171-.056-.133.028-.064-.014-.106-.056-.261-.082-.008-.027-.265-.042-.015-.163.028-.1-.008-.562-.118-.823-.044-.054.031-.095.032-.234-.071-.247.014-.549.049-.3-.093-.464-.017-.356.067-.344.065-.205.038-.122-.012-.1-.059.014-.128.068-.091.07,0,.039-.007.015-.035-.015-.088.029-.077.069-.06h.1l.068.039.055-.019.042-.023.069.01.069-.037.039-.052.069-.136.206-.113.053-.081.084-.13.012-.128.084-.148-.055-.046v-.134l.027-.148-.082.031-.07-.027v-.111l-.039-.154-.124.024-.028-.107-.028-.2-.013-.013-.014-.064v-.1l.027-.1.014-.067.054-.082.739.039.577-.005.535-.019.219-.993.068-.292.754.055.632.055.411.02h.124l-.028-.235-.069-.206.3-.5.614-.946.235-.241.384-.165.138-.336V529.1l.136-.275.11-.112.343-.03.274.042.1.126.233.129.042.318.068.217.245.292.345.154.122.188.056.161.026.35.055.218.356.253.233.077.287.005.481.2.439-.182-.11.27-.151.246.069.278.108.122.029.111-.029.214-.013.142.082.037.042.089.151.02-.042.216v.087l-.026.185.206.152.315.221.275-.057.466-.2.686-.376.439-.323.368-.07.509-.125-1-.908-.4-.315-.357-.342-.3-.361-.109-.2-.042-.3-.1-.252.041-.063-.151-.6.056-.82.426.076.4-.267.192-.176.384-.35.519-.711.014-.307.028-.246.165-.223,1.11.061-.177,1.01-.055.14.055.894.04.432.508.824.631.835.866.951.519.353.466.261.3.256.259.082.082-.021.207-.182.315-1.246.493-.781.152-.293.069-.094.369.029.441.189.123-1.144.136-.8.084-.242.054-.646.668-.1.358-.069.316-.055.3-.064.4-.224.507-.3.344-.214.083.03.026-.071.356-.19.165.906.288.785.219.565.205.308.906.979-.014.211-.055.45-.11.536v.159l.054-.025H2237l.027.02v.046l-.013.038-.027.041v.046l-.055.048-.04.05.026.068.082.019v.122l-.026.1.04.128.028.058.1.018-.04.089-.11.034-.069.066-.109.026-.015.051.069.017.124-.043.027.047-.014.038-.013.042.069.03-.057.083.042.034.136.04.137.086.014.051-.083.034-.178.021-.082-.022-.124,0,.068.2-.027.059-.027.145.179.085.041.14-.07.125-.013.09.233.111.055.072.755.24.933.385.26.264.205.048.193-.037.193-.017.368.028-.014-.068.041-.1-.041-.079.041-.058-.026-.078-.083-.073.015-.079.11-.122-.029-.1.055-.061-.042-.089.055-.089.069-.032.11-.077.467.014.768.254.124.023.3.146.109.019.137.041.151.026.233-.037h.358l.246.061.314.022.246.054.644.123.413.027.4-.007.494.125.287-.045-.015-.077.07-.277.028-.062.261-.146.178-.088.287-.15.137-.033.152-.014V533l.151-.04.232-.1.163-.022.15-.03.068-.015.1-.055.041.085.1-.121v-.211l.014-.161.138-.236.2-.2.056-.184-.014-.149-.11-.048-.012-.064.04-.13-.013-.177-.055-.435.028-.287.027-.065.246-.688.071-.34-.029-.076.055-.326.026-.181.041-.237.084-.4.206-.011.123-.012-.016-.1v-.075l.016-.085.026-.088.068-.026.083-.2.152-.151.136-.029.083-.114.11-.052.122-.1.082-.009.165-.083.4-.116.371-.085.45-.165.163-.1.289-.091.233-.2.26-.135.109-.066h.235l.178-.067.136-.087.342-.173.11.068.1-.011.014.117.041.044-.041.172-.028.034-.04.085.3.079.261.1-.015.168-.04.114.067-.058.07.029.042.157-.069.052.083.151-.014.12-.069.188.1.17.083.02.1.01.081-.012.055-.044.068-.029.1-.016.069,0,.082-.011.026.024.11.023.1-.061.082-.035.069.012.054-.055.137-.123.123-.031.151-.1.11.011.206.079.96.169.412.055.164.048.288.029.151.032v.387l.52.485.385.154.1.183.054.1.071.084.217.07h.165l.137.092.027.09v.151l.013.159.137.2.1.026.04.055.014.22-.1.1-.041.087.122.069.055-.062.069.055.013.07.112.017.095.052.054.072.055-.006.041.1-.054.066.026.081.07.109-.07.1.016.057.068.013v.09l.067.067-.013.174-.014.121.04.091-.054.1.054.016.028.145.068.07-.041.073.041.113.11-.011.054.045-.081.042-.056.06.1.049.029-.035.054.055.082.1v.061l.041.053-.012.037-.1-.047.041.082.027.115.125.025.081.095.042-.08.04-.068.083-.06.1-.129.095-.021.068-.06.083-.147.082-.1.056-.048.069-.072.053-.1.138.008.136.005.165-.018.029.041.094.062.126.021.232.047.19.026.083.033.123.022.15-.011.083.017.192.015.028-.051.109.01v-.056l.137.008-.013-.115.013-.047.191.081.18.065.178.023.082.033.07.05.165.1.163.141.1.014.069.01.054-.017.027-.026v-.1l-.041-.082-.082-.008-.042.007.027-.082.027-.022.069.006.069.017.055,0,.013-.026-.027-.055-.042-.034.028-.062.054-.029.069-.007v-.036l-.027-.042-.014-.077-.082-.048.027-.044.042-.009.027.026v.027l.013.021.014.025.055-.023V531.6l-.012-.107h.068l.068.023.026-.022.029-.08-.029-.083-.013-.143-.082-.041-.124-.015-.082-.033-.04.018-.042.005-.027-.059-.028-.045-.082-.025-.081.085-.041.022-.109-.084-.151.014-.1-.117.029-.088-.029-.156.055-.125-.026-.1.136.026.069-.118.1-.028.04.054.1.023.082-.085.041-.066.055-.011.042-.052.056-.023.027-.018.013.067.329.03.151.051.179.06.123.02.04-.053.1-.022.1-.05.04-.111h.057l.641.068.287.025.167-.007.232.071.22.044.26.048.4.035.3.1.357.025.1.012.22-.009.11-.021.068-.03.1-.016.137-.085.329-.106.342-.1.286.126.111.187.207.234.026.079.028.15.07,0-.014.033-.041.006v.043l.1.072.027.076.1,0,.153.118.054-.008.068.006.055-.066.068-.014-.055.172-.027.158-.206.475-.056.239-.123.393-.248.836-.095.717-.194.744.317.077.233.057.287.213.152.086.165.06.425.118.261.093.342.133.549.082.178.084.194.11.189.046.206.047.285.138.165.04.11.042-.012.092h.109l.178.042.1-.005.164-.021.22-.024.027-.106.232.045.371.089.178-.032.288.005.165.066.686.243.413.125.739.269-.055.081-.314.55-.288.323-.11.177-.069.277-.11.071-.164.248-.012.569-.139.312.041.795-.013.347-.316-.061-.152-.013-.548-.055.013.245.095.1-.123.018.015.288-.029.151-.026.235v.1l.082.021-.042.238-.1.019-.081.206h-.057l-.1.294.055.159-.083.239.054.269.042.2-.042.144.042.066.027.2.041.119.016.221-.029.155.056.182-.027.128.012.145-.054.144-.125.147-.068.119-.11.209v.153l-.026.063-.042.041-.137-.015-.314.422-.083.2-.261-.012-.151.1-.125.133-.1.111-.082.159-.272.011-.013-.055-.136.044-.029-.069-.054.008-.015-.056-.163.026-.138.015-.165-.006-.027.118-.069.1-.082.042-.192.077-.054.011-.195.3-.012.673-.15.894-.03.081-.164,0-.178-.01-.11,0-.055.1-.068,0-.042.045-.042.091-.027.093-.068.012-.055.117-.014.171-.027.042-.013.081-.084.059-.081.072-.11.022-.054.04-.042.064-.068.1-.042-.007-.136,0,.014-.166-.1-.027-.068.1-.055-.013-.136.018-.015.133.015.038.123.1-.179.08-.055.151-.054.162-.111-.036-.041.12.1.038-.1.243-.1.076.015.2.164.177.136.06-.014.113-.083-.03-.109.049-.094-.06-.028-.064-.109.012-.055.135-.055.1L2271,552l.083.011.08.072-.055.122-.014.117.027.152-.23.006.028.224.054.016.094,0-.068.175-.053.163-.166.229-.122.212-.152.1-.192-.049-.177,0-.1.155.028.129.137.183.152-.01.08-.1.165.093.084.187-.056.2-.125.159-.013.121.125.106.082-.014.109-.2.137-.014.122.093.015.195-.1.1-.111.147-.109.066-.124-.026-.1-.035-.15-.03-.057.128v.132l.084.125.081.1-.027.107-.054.23-.165.074-.138.027-.179-.151-.08-.132-.138.071-.041.217.068.177-.1.164-.165.163-.123.085-.083-.147-.123-.112-.1.2-.137.265-.124.183-.055.212-.15.2-.124.167.1.063.192.024.153.173v.122l-.027.237v.141l.041.152.068.143.026.156.138-.048.083-.107.137.019.028-.031.109.006.178.044.179.043.135.029.261.064.207.018.165.02v.08l.026.009.193,0,.3.023.26.054.11.032.164.121.056.12.095.2.234.11.125.038.027.007.261.074.136.029.206.046" transform="translate(-2211.238 -525.693)"  stroke="#fff" stroke-linecap="square" stroke-linejoin="bevel" stroke-width="1" fill-rule="evenodd"/>
      <text id="talId365count" transform="translate(28.049 37.807)" fill="#fff" font-size="10"  font-family="OpenSans-Bold, Open Sans" font-weight="700"><tspan x="0" y="0"></tspan></text>
    </g>
    <g id="_362_Bhandara" data-name="Bhandara" transform="translate(2232.469 207.027)">
      <path id="talId362" fill="#7DB8EC" title="Bhandara" data-name="362 Bhandara" d="M2306.092,583.5l.727-.781.673-.245.4-.383.233-.3.259-.237.55-.337.327.018.345.069.548.139.851.711.4.291.18.1.192.294.3.161.222.052.026.554-.026.589.012.669.111.562-.042.773-.247,1.018-.014.043-.134.908-.166.655-.383.537-.165.164-.41.63-.358.843-.2.346-.042.225-.042.13-.317.018-.3-.02-.412-.054-.3.174-.6.22-1.082.789-.371.729-.686.229-.6.447-.535.455-.37.433.123.677.192.494.11.685-.164.734-.013.607-.042.109.042.118-.028.082-.068.136-.028.2-.014.033-.054.173-.1.125-.18.359-.23.354-.11.125-.082.176-.178.19-.056.1.056.233-.083.069.027.237-.192.209.013.125-.109.173-.109.293-.11,0-.054.091-.083-.037-.356.029-.028.052-.095.12-.069.023-.125.018-.082.066-.165.014-.1-.075-.081-.017-.084.064-.094.051-.083-.034-.1-.052-.054-.14-.041-.033-.084.029-.068.07-.068.04-.124.047-.1.052-.166.108-.135.048-.1.056-.042.055-.014.171-.028.081-.041.177-.07.117-.106.159-.11.33-.124.146.124.007.423.024.33.073.151.13-.04.111-.124.266-.232.5-.139.116-.163.216-.058.134.11.19.042.152-.026.191.052.172-.111.721-.149.3-.094.087-.054.231-.029.077.042.125.08.055.194-.023.343-.027.273.018.138.068.1.132.041.108-.027.148-.041.142-.082.109-.1.143-.151.225-.124.211-.039.162-.042.238.015.193-.056.165-.055.018-.07.025-.082.031-.109.119-.124.082-.08.308.013.237-.041.444-.287.452-.126-.077-.081-.115-.165-.061-.122-.1-.234-.06-.013-.044-.055-.015h-.081l-.016.275v.689l.136.019.537.039-.207.523-.109.517-.111.15-.26.277-.15.067-.178.176-.166.193-.081.115-.126.164-.123.2-.11.287-.068.313-.027.6.013.363-.013.182.068.345.055.259-.342.038-.6.051-.356.021-.261.266-.23.23.135.578.4,1,.042.082-.042.191-.123.09-.013.147.013.133.1.056-.042.158.082.123.1.115.068.214.18.023.164.114.234.042.052.175.125.1.219.426.013.081.11.149.068.043.069.194.016.075.038.027.042.077-.013.071-.1.137-.136.284v.365l-.029.143-.012.1-.028.19-.028.321.056.233v.1l-.028.146.013.1-.042.2-.041.075-.083.428-.081.436-.068.019-.1.006-.027.041.1.04-.057.037-.026.084.069.056v.173l-.042.04.057.053.028.14.137.015.083.067.04-.026.11-.108.069.048.15.044.125.048.178.026.013.055-.152.41-.081.636-.136.546-.016.076-.111.04-.052-.01-.069.011-.055.109-.055-.027-.082-.068-.042.087-.068.182-.055.15.013.134-.04.04-.04.1-.069.188-.029.061-.04.087v.213l-.041.067-.069.319-.069.533-.057.69.057.416.053.213.016.127.012.033.069.244.014.349.054.1-.014.45-.026.391v.335l.15.434.219.3.11.2.272-.023-.04.072-.029.066-.012.045v.122l.012.286.165.169.317.238.165.006.342.014.3.093-.081.184-.11.23.041.357.068.425-.083.191-.191.127-.177.208-.057.27.48.863.165.219-.137.183.234.523.177.435-.026.259-.235.106-.382,1.243-.233.244-.057.406.083.656.247.376.358.763.012.023.057.281.026.267.015.1-.056.474-.275,1.429-.426.114-.149.033-.287.044-.522.246-.192.4-.576-.28-.494.037-.205-.249-.067-.158-.029-.716-.246-.28.314-.425-.013-.022-.04-.044-.1.078-.22.1-.11.1-.15-.057-.426.123-.151.176-.04.228-.193.1-.164-.132-1.234-.674-.235.232-.259-.021-.122.11-.055.109.192.329-.1.1-1.068.038-.836.069-.247-.207.026-1.089-.562.115-.273.129-.26.173-.26.052-.344.1-.2.187-.275.125-.272-.117-.248-.166-.219.047-.177.074-.358.205-.562-.042-.164,0-.124.06-.288.127-.164-.23-.1-.093-.137-.018-.659-.352-.452-.229-.258-.529-.275.292-.027.033-.083,0-.1-.083-.124-.112-.041-.075-.083-.125.056-.114-.069,0-.286-.163.014-.141-.125-.259-.11-.019-.136-.223-.3.1-1.114-.016h-.2l-.2-.031-.193-.053-.807.019-.3,0-.013.039-.137-.025-.344-.023-.782-.034-.275-.109-.3-.07-.233-.037.012-.053-.205-.049-.136.007-.056-.062-.164-.1-.248-.055-.082.018v.294l-.109.393-.109.542-.054.332-.124.166v.657l-.206.124-.22.3-.205.941-.042.18-.042.083-.123-.052-.039.1-.057.079-.014.04v.06l-.027,0-.041,0-.055.031-.054-.023-.249.078-.026.133v.187l-.068.095-.068.082-.11-.038v-.077l.068-.079-.068-.055-.069.021-.057.062.015.123-.015.24-.053,1.243-.042.313-.2.508-.193.732-.232.643-.1.266-.054.659-.028.319.1.578.054.721-.288.025-.439.572-.233.018-.04-.031-.15-.113.027-.3.014-.069-.014-.3.014-.5-.166-.513-.027-.484-.52-.38-.713-.488-.55-.4-.069-.023-.068.05.016.11-.194.014-.152.069-.136.075-.206.119-.081-.144-.139.04-.082.08-.151.137-.1.039-.069-.053h-.1l.013.093-.355.162-.053-.03-.248.041-.191.051-.165.039-.1-.077-.068-.048-.015.178-.164.067-.109-.033-.069-.1-.095.045-.068.117-.113-.13-.343.173.029.1.206.068v.288l-.167.17-.313.134-.11.141-.219.008-.123.258-.315.123-.193.242-.137.005.082-.212-.082-.114-.412.052.041-.29-.177-.175.192-.238.012-.237-.136-.169.069-.175.055-.371.425-.058.013-.267.043-.322.04-.506-.261-.413-.4-.037-.069-.026.056-.233-.042-.067-.165.04v.108l-.042.148-.079.25-.453.019-.385.015-.33-.032-.109-.077-.136-.031-.195-.1-.712-.042-.768-.147-.769-.03-.135-.011-.3-.023-.672.078-.44-.027-.123-.041-.139.089-.327.057-.153.022-.343.04-.068.046-.083.124-.123.23-.124-.02-.1.126-.1.126-.014.159-.248.72-1.273-.849-.782-.569-.685-.476-.343-.587-.315-1.045-.206-.656-.44-1.474-1-1.619-.522-.655-.988-1.432-.3-.594-.782-1.488-.794-1.356-.248-.471-.3-.691-.48-1.107-.55-1.617-.164-.345-.247-1.327-.687-1.686-.37-.919-1.013-1.725-.178-.508-.248-.655-.535-1.793-.15-1.023-.027-.176-.356-.781-.51-.643-.412-.388-.371-.313-.889-.386-.522-.151-.466-.011-.372.2-.218.388-.644,1-.29.662-.274.457-.479.569-.588.282-.741.105-.657-.025-.92-.337-.467-.356-.452-.418-.891-1.151-.422-1.031-.3-.606-.369-.417-.275-.289-.562-.57-.48-.8-.632-.718-.438-.225-.45-.151-.523.095-.48.255-.522.357-.478.413-.4.438-.631.439-.809.656-1.139.493-.4.15-.479.068-.413.02-.438-.25-.794-.95-.809-1.338-.508-1.069.508-.141.191-.1.207-.165.012-.059.084-.082.039-.11.22.055.26.058.232-.1.289-.229.384-.25.136-.092.29-.155.192-.121.1-.1.15-.193.219-.233.137-.173-.012-.092-.194-.064-.15-.017h-.083l-.274-.144-.344-.232-.122-.107-.069-.168v-.228l-.248-.079-.26-.071-.247-.141-.069-.277-.054-.273-.492-.121-.151-.032-.056-.166-.191-.015-.343-.028-.028,0-.109-.011-.042-.005-.207.058-.081.026-.1-.117-.2.026-.236-.189-.123-.118-.013-.02-.125-.1.042-.3.083-.273.042-.1.081-.2.151-.36v-.019l.068-.081.082-.1.056-.287.054-.092.165-.371.221.089.179-.409.149-.493.151.033.1-.008.124-.313.041-.091.137-.1.109-.191.1-.1.124-.157v-.073l-.055-.063.2-.517-.217-.227-.136-.117-.233-.089-.7-.074-.508.041-.192.035-.246-.042-.138-.31-.1-.169-.2-.064-.247-.095.04-.278-.069-.159-.122-.129-.1,0-.191.1-.138.119-.082.118-.1.044-.259.109-.219-.169.15-.306-.219-.054-.123-.073-.15-.123-.029-.192.11-.406.109-.248.042-.232.014-.257.054-.528v-.188l-.083-.182-.123-.105-.205-.053-.371-.144-.191-.183-.248-.18-.4-.219-.178.177-.164.1-.069.169-.248.025h-.246l.015-.07-.1-.137-.247.018-.083-.117.123-.167.042-.164.068-.151.084-.18-.125.011-.177.037-.125.077-.261.087-.094-.014-.26-.023-.138-.184-.219-.208-.205-.152-.288.039-.329.137-.027-.206-.029-.16-.042-.173-.068-.306.055-.092.042-.1.055-.517.26.032.522-.005.329.027.082-.2.465-.174.371-.138.081-.049.288-.27.385.05.054-.309-.054-.056.083-.17.082.008.1-.029.068-.226.054-.173.056-.363.054-.309.1-.386.068-.2.11-.234.109-.254.069-.191.055-.141v-.292l.124-.438.028-.211.056-.214-.029-.261.029-.19.027-.2.041-.216.109-.4v-.114l-.056-.06.015-.185-.177-.157-.344-.276-.562-.274-.235-.116-.383-.145-.1-.041-.014-.064-.658-.246.123-.31.137-.373-.042-.04-.316-.127.083-.276-.04-.061.028-.288.012-.125h.042l.027-.1.042-.222.014-.3-.165-.051-.247-.014-.123-.037-.233-.126-.205-.08-.082-.027.054-.111.028-.118.041-.12-.013-.178-.028-.18-.041-.114-.261-.448.22-.124.123-.227.11-.3.069-.072.082-.031.15.056.136.009.55.154.549.181.327.069.219.01.359,0,.3.014.22-.014.1-.007.056-.077.026.063v.054l.083.04.165.081.248.07.136.026.163.1.042.161.069.159.1,0,.163.087.219.119.206.011-.07.182-.013.18.055.2.165.129.15.042.262-.048.1-.131.042-.174.041-.13.1-.026.137.066.055.063-.028.258.055.266.055.024.178-.04.246-.275.3-.264-.012-.085.027-.479.179.051.027-.082.248.122.054-.043-.026-.193.328.04-.014.18.068.016-.054.169.123.1.069.116.247-.128.138-.091.19-.007.1.095-.015.2.083.171.165.04.165-.086.1-.239v-.1l.177.043.207.23.165.122.247.179.192.173.041.05v.038l.014.065-.026.156-.016.147-.109.111-.1.282-.1-.023-.109.2-.152.129-.095.151-.1.007-.083.234-.178-.017-.151,0-.261-.026-.123-.021-.054.284-.066.237-.083.225-.028.1v.049l.1.056-.027.1-.177.02-.126.084-.027.161-.083.012-.068.353-.056.4.3.085.246.056.2.009.15.007.275.095.439.151v.111l.247.14.247.116.1.066-.053.2.453.177v.158l.095.174.125.056.356.084.411.081.246.06.219.017h.451l.042-.02v-.133l.316-.02.027.03.125,0,.013-.048.165-.006.357.129.04,0,.027.162v.1l.042.167.137-.123.177-.2.166-.163.055.083.027.074.153.072.095-.049.069-.106-.014-.108-.11-.029-.069.034-.055-.005-.041-.057.084-.119v-.125l.136-.026.152-.052.083.07-.014.113.095.049.22.018.056-.1.027-.056.123.043.1.1h.109l.054-.037.111.026.123.046.069.065.027,0v-.242l.208.025-.056.286.056.088.191-.034.151.049.148-.1.1-.147.219-.015.042.089-.054.126v.08l.136-.022.124.158.068-.163.246.016.111.117-.069.087-.068.169-.11,0-.039.09.135.044.179.119.123.08.015-.144.165-.012.028.155.11.03.136-.033.04-.119.042-.1.082-.164.04-.106v-.206l.014-.137-.082,0h-.109l-.068.063-.1.042-.11-.007v-.086l-.013-.111v-.135l.067-.062.068,0,.11-.107.042-.078.081-.081.18-.042.177.148.056.022.177-.115.124-.085.041-.085v-.149l-.041-.084-.029-.091-.165-.184-.081-.106-.082-.076-.193.068-.054-.3.152-.066.1-.019.028-.077.041-.062.068-.205-.041-.177-.272-.138-.057-.112.015-.14.068-.2.11-.116-.068-.12-.249-.056-.245.018-.262.02-.3,0-.275-.123-.314-.262-.275-.208-.231-.139v-.158l-.028-.056v-.151l-.042-.083-.026-.088.026-.036.056-.08.04-.115.056-.174.106-.195.1-.14.1-.182.111-.151.122-.175.138-.189.083-.107.138-.163.136-.189.068-.163.1-.193.029-.082.067-.193.1-.246.027-.176v-.269l-.014-.111.287-.18.151-.089.07-.114.11-.064.258-.139.125-.14.012-.031-.069,0,.083-.134.027-.156.069-.21.069-.077.042-.252-.069-.583-.028-.138-.1-.052-.15-.11-.247-.073-.193-.136-.151-.357.054-.228.139-.193.136-.163v-.1l-.026-.166.026-.162-.068-.094-.083-.052-.193-.058-.067-.063-.041-.13.1-.129.191-.11.207-.048-.11-.52-.343-.872-.165-.076-.11-.169-.07-.1-.123.025-.1-.044-.069.063-.069-.036-.152-.108-.081-.1-.153-.049-.177-.082-.22-.114-.1-.068-.107.029-.165-.067-.055-.069-.137-.033-.164-.082.107-.339.015-.134-.027-.122.108-.007.1.038.109-.081.055-.046.014-.069.054-.044.028-.019.2-.022.207-.063.054-.092.1-.144.18-.261.068-.134.082-.066.056-.127.109-.117.193-.306.054-.164.07-.215v-.051l.041-.128.04-.122.068-.05.11-.08.18-.331.068-.249.056-.244.219.051.055-.231.11-.559.053-.329v-.1l.069-.163.082-.633.331-.014.041-.258.04-.264.1-.033.221,0,.164-.016.042-.052.876.067.507.07.289.04.206.029.316.014.054-.367.4-.014.576-.021h0l.467-.015.219,0,.013-.122.015-.322.739.225.22-.39.385.071.2.148.054.263.617.431.755.22.7.49.027.022.248.168.014-.062.135.051.37.023-.028.144-.069.171-.026.088-.04.085-.028.082-.2.571-.056.067v.124l-.028.132-.109.232-.081.107-.207.126.042.193.013.124.041.112-.109.093.177.149-.069.264.014.1.125.007.111.109-.221.192-.124.167.248.06.1.141.094-.013.11-.106.068.134.055.024.232-.011.273.061.137.262.151.011.111.057.012-.072.015-.031.152.024.107.071-.068.257.122,0,.1.222.126.058.039.274.247.062.029.311.041.082-.027.164-.15.092-.028.1.193.053-.056.292.22.149-.069.243.165.115.3.122.164.051.069-.071-.054-.135.027-.028.123-.123-.013-.154.068-.085.1-.152.315-.218.054-.234-.054-.15.137-.11-.013-.052-.165.053-.112-.017.126-.167.013-.075-.178-.032.026-.391-.056-.04.069-.1-.027-.113-.081-.1.178-.129.275-.038.068-.193.136-.138.3.007.163-.047.013-.012.195-.225.177-.2.027-.039.081-.133.1-.169v-.025l.219.108.124.067.342.141.6.066.411.052.371.082.287.108.029.011.178.113.054.041-.028.26.562.146.218.015h.069l.151-.039.536-.071.108.022.152-.019-.014-.118.026-.172.016-.133.081-.066.055-.024.068-.046.1-.175.04-.155.014-.116-.026-.093.107-.154.07-.076.178.013.207,0,.218.076v-.174l.041-.4v-.271l.014-.2.028-.258.042-.371.027-.262.042-.45.027-.336.11-.621.083-.029.2-.1.289.016.22.04.193,0,.367.171.3.216.218.205.069.153.343.048.3.007.207-.031.287.124.233.1.536.07.082.02.04-.1.315.051-.026-.106.026-.3.015-.225v-.246l.013-.361-.013-.153-.015-.042-.055-.292-.039-.265.149-.018.138-.032.22.009.109.011.15-.029.069-.013.176,0,.083-.027v-.066h.1l.15.005h.275l.194.061.165-.479.246.045.344.056.164.052.329.192.082.032.027-.032.125-.237.026-.284-.04-.088.137-.015.013-.063.261-.231.084-.37.026-.142.178.034.013-.115.234.048.04-.2.055-.429.642.169.111-.431.068-.12.1-.348.109-.383.344-.019.165.065.026.361.234.037.178.039.192.155.178-.008.123.059.124.04.164-.117.138-.015-.012.221-.1.123.083.137-.054.114-.069.07-.041.13.137.174-.042.2-.232.037.026.194.248.378.027.414v.213l-.1.182.084.262-.042.2.012.137.248-.022.152-.033.027.095.013.174.055.059.153,0,.164-.013.041-.056.069-.071.1-.069.08.005.111.064.1.091-.015.079-.15.05.027.114.1.218.111-.054.219-.053-.027-.478.093-.479.1-.323.1-.328.124-.362.082-.78.069-.557.054-.4.1-.733.221-.294.233-.155.506-.018.822.232.7-.035.26-.21.084-.351-.111-.442-.193-.648v-.116l-.027-.447-.261-.736-.22-.526-.452-.975-.219-.691.013-.112.316.022.22.04.26.136h.508l.136.122.083-.005.027-.078-.014-.11-.11-.073.11-.1.164-.112.314.037.123.054.082.094.1.041.754.267-.041.224h.082l.646.21.231.04.439.031.11-.019.275-.075.233.023.069-.01.069-.048.576-.039.189.03-.014.156.109.007h.179l.274.132-.012.179.053.053.55.043.2-.01.138-.025.1-.049.192,0,.057-.011.2.052.069.009.837.086.235.014.493.057.561.01.014-.092-.014-.186.48.076.315.037.11.026-.041.142.22.034.26-.037.617.028h.36l.094.044.014.051.177.044.385.094.11.007.3-.163.148.126.452.558.07-.051.081.1.221-.063.042.05.027.2-.057.048-.233.369-.219.2-.246.365.028.218-.083.375.042.226-.272.371.409.76-1.631,1.95.494.394.178.037.166.069.191.048.207.02.492-.255.589-.026.372.12.493.118.384,0,.26,0,.756-.015.2-.329.739-.144.123.1v.129l-.287.228.177.2.069.273.138.1.275-.387.041-.156.357-.15.192.16.137-.1.013-.135-.178-.211.178-.052.221.008.094.112.111-.128.125-.033.259.109.122.184.152-.045.042-.21.054-.085.179.116.193.118.247-.029.136.175.177-.2.125-.018.028-.087-.1-.128-.027-.129.109-.093.287.156.165-.085.027.218.137.059-.013.157-.193.012-.013.107.138.008.136.008.109.086-.1.117.083.074.137-.112.179.06.041-.078-.081-.155.041-.161.274.014-.029.119-.1.051.247.442-.165.449-.068.349.026.323.1.279.384.5.259,1.172.427.557.616.934.865.4.19.087.864.422.029.33-.084.251.26.158.138.246.1.216.248.28.234.05.218-.076.1.04.139.064.149.078.069-.011.287-.07.057.1.053-.083.219-.128.137-.045-.081-.139.012-.085.1.008.068-.049.015.1.055.062-.028.118.11.147.138.043.108-.28.082.094.028.118.2.01.1,0,.151.055-.028.143.138.088.233-.065.111.042-.028.123.095.045.124-.034-.041-.092.151-.122.014-.116.137-.055.012-.049-.027-.192.015-.091.2.051.084-.025.122-.258.165-.145.165.166.2-.123.234-.03.095.084.178.015.055.1.191-.03.111-.01.042,0,.177-.056.179.006.218-.036.164-.007.15-.037.041-.078.014-.209-.055-.322.029-.263.012-.227.1-.057.343-.328-.042-.167-.042-.237-.027-.341.027-.062v-.044l.1-.063v-.063l.069-.019.137-.042-.029.076v.071l.1-.027.068.122.054-.1.11-.008.151.155.028.078-.055.212.452.172.576.266.111.528.053.171.042.151v.137l.372,1.015.234.111.067.032.151.009.095.076-.013.176-.1.2.56.275-.506,1.02-.027.326.042.038.177.036.205-.026.163-.064.193-.1.207-.182.4-.273.164-.081.6-.249.178.068.029.156.013.157v.329l-.1,1.344" transform="translate(-2213.19 -565.034)"  stroke="#fff" stroke-linecap="square" stroke-linejoin="bevel" stroke-width="1" fill-rule="evenodd"/>
      <text id="talId362count" data-name="Bhandara" transform="translate(32.486 45.054)" fill="#fff" font-size="10"  font-family="OpenSans-Bold, Open Sans" font-weight="700"><tspan x="0" y="0"></tspan></text>
    </g>
    <g id="_364_Lakhni" data-name="364 Lakhni" transform="translate(2311.689 228.404)">
      <path id="talId364" fill="#7DB8EC" title="Lakhni" data-name="Lakhni" d="M2319.014,666.215l-.494.525-.917,1.224-.521.557-.427.417-.644.32-1.179.239-.958.307-.371.117-.123.052-.508.217-.37.209-.7.706-.094.4-.029.589.192.736.054.267.11.459-.3.919-.054.033-.74.455-1.4.281-.577.144-.357.215-.4.621-.768.663-.205.105-.3.151-.449.078-.071.013-.218,0-.275.031-.728.026-.481-.24-.341-.15-.371-.381-.33-.291-.617-.471-.629-.4-.44-.233-.15.082-.26.137-.249.055-.52.3-.481.366-.233.47.22.082.109.06.136.069.221.076-.015.106.027.182.138.409.055.055.082.292.013.249-.027.125-.068.085-.136.114-.028.037.013.078-.053-.074-.028-.075-.083-.024-.122.067-.207.205-.207-.012-.191.111-.274.1-.178.045.013-.166-.138-.111-.191-.1-.219-.149-.4.378-.729-.037-.794-.45-.261-.2-.316-.379-.286-.377-.866-1.94-.052-.11-.288-.5-.329-.429-.454-.325h-.453l-.4.3-.122.149-.357.393-.248.926-.453,1.369-.054.533-.067.836-.152.787-.177.293-.192.347-.069-.117-.083-.093-.123-.112-.342-.1-.535.071-.094-.082-.084-.1.235-.171.013-.159-.083-.159-.166-.1-.179-.036-.177-.02-.165.059-.137.075-.138-.058-.042-.259-.04-.063-.082-.046-.1.085-.206.078-.082-.034-.1-.066-.083-.192.013-.152.028-.1.083-.144.1-.141.163-.19.1-.1.095-.041.137-.075.1-.152v-.14l-.041-.082-.1-.1-.15-.131-.084-.08.069-.277-.069-.09-.149-.03-.084-.085-.287.159-.111.025-.042.118-.068.079-.151.056-.094-.058-.042-.113-.137-.12.013-.1v-.167l.068-.193.042-.285-.015-.129.11-.213.028-.115-.247.148-.261.062-.123-.015-.083-.083-.109-.288-.135-.125-.207.063-.191.15-.275.313-.231.093-.289-.181-.248-.061-.081-.391-.082-.2-.126-.129-.258-.2-.263-.217-.247-.15-.467.1-.1-.05-.123-.107.026-.245-.22-.235-.028-.222-.026-.02-.26-.259-.056-.2.125-.4-.069-.224-.111-.122-.134-.082-.289-.128-.191-.269-.015-.011-.233-.149-.068.069.055.155-.016.132-.162-.015-.194-.129-.094-.137-.083.063-.124.02-.15-.1-.068-.087-.013-.1.081-.193-.137-.118-.248-.008-.233-.1-.205-.069.013-.138.109-.153v-.088l-.177-.085-.165.1-.083.005.015-.148.136-.026.067-.025.029-.089-.042-.057-.178-.079-.178.027-.233-.175-.07-.079-.136-.058-.083-.085.138-.159.054-.184-.22-.059-.3-.026-.121-.087-.316-.1-.055.107-.194-.015-.15-.1-.122-.091-.179.038-.095.187-.125.06-.111-.045-.012-.078-.15-.037-.11.185-.068.088-.112,0-.041-.055-.151.008-.082-.067-.151.027-.1-.125-.123-.025-.259.062-.058-.169-.026-.146.084-.216-.016-.056-.094-.008h-.125l-.109-.132.15-.083.028-.117-.1-.017-.04-.055.055-.125.123-.163.056-.129-.04-.059.012-.087.014-.141-.151-.1.1-.14-.11-.123-.014-.095-.1-.013-.082-.052-.013-.141-.343-.348-.152-.313-.1-.153.015-.138.205.035.151-.013V665.7l-.068-.015-.027-.179-.083-.1-.108.031-.111-.068.069-.081-.027-.132v-.051l-.11-.057-.014-.1.1-.091-.015-.087-.083,0-.065-.008-.029-.209.042-.111-.1-.07-.069-.18.056-.675-.1-.487-.136-.417-.261-.494-.028-.587-.205-.293-.191-.4-.068-.292-.138-.671-.179-.486-.165-.666-.055-.158.013-.636.042-1.049-.123-.776-.3-1.025-.769-1.142-.644-.708-.357-.813-.423-.606-.275-1.019-.11-.543v-.406l.152-.537.314-.594.315-.419.232-.283.495-.5.7-.9.4-1.011.482-.759,1.07-1.187.629-.655.809-.891.866-.924.285-.274.578-.774-.453.039.272-1.429.056-.474-.014-.1-.027-.268-.055-.281-.013-.023-.358-.764-.247-.375-.082-.656.055-.406.231-.244.384-1.244.233-.1.029-.26-.179-.435-.233-.524.137-.182-.165-.22-.48-.862.055-.27.177-.208.193-.126.082-.192-.069-.426-.042-.356.111-.231.082-.184-.3-.093-.344-.014-.165-.006-.315-.239-.165-.168-.014-.287V628.4l.014-.045.028-.066.042-.073-.275.023-.11-.2-.22-.3-.151-.435v-.335l.029-.391.012-.45-.054-.1-.015-.349-.069-.244-.012-.033-.014-.127-.055-.213-.055-.417.055-.69.069-.533.068-.32.04-.067v-.214l.041-.087.027-.061.069-.188.042-.1.042-.04-.013-.134.054-.15.068-.182.042-.086.082.067.055.027.054-.109.068-.011.056.01.109-.04.013-.075.139-.545.081-.637.152-.41-.014-.055L2277,620l-.122-.048-.152-.044-.068-.048-.111.108-.042.026-.081-.067-.137-.015-.029-.14-.054-.054.04-.04V619.5l-.068-.056.027-.084.054-.036-.1-.04.027-.041.1-.005.069-.019.081-.436.083-.428.042-.075.04-.2-.014-.1.028-.145v-.1l-.054-.233.026-.321.028-.191.014-.1.028-.142v-.365l.137-.284.1-.137.012-.072-.04-.077-.042-.027-.013-.076-.068-.193-.069-.043-.108-.149-.015-.08-.219-.427-.123-.1-.056-.176-.234-.042-.165-.114-.175-.023-.069-.213-.095-.116-.084-.123.042-.158-.1-.056-.014-.133.014-.147.122-.09.042-.19-.042-.082-.4-1-.135-.578.234-.23.258-.266.356-.021.6-.051.344-.039-.056-.259-.068-.345.014-.183-.014-.364.028-.6.068-.313.11-.286.123-.2.125-.165.08-.115.166-.194.177-.175.15-.067.262-.277.11-.15.11-.518.206-.523-.535-.038-.136-.02v-.688l.012-.276.082,0,.054.015.015.044.234.06.122.1.165.061.084.116.121.076.289-.452.043-.443-.016-.236.085-.309.122-.082.11-.119.081-.032.069-.025.057-.018.054-.165-.014-.193.041-.239.042-.162.121-.211.152-.225.094-.142.084-.11.041-.143.028-.148-.042-.109-.094-.132-.138-.068-.272-.018-.344.028-.19.023-.085-.055-.038-.125.026-.076.054-.232.1-.087.151-.3.109-.721-.054-.172.029-.191-.042-.152-.11-.189.054-.134.166-.216.136-.117.232-.5.124-.266.04-.111-.15-.13-.328-.073-.425-.025-.122-.007.122-.147.11-.33.11-.159.067-.116.042-.177.028-.081.015-.171.041-.055.1-.056.137-.048.163-.108.1-.052.125-.047.068-.04.069-.07.082-.029.041.033.055.14.1.051.084.035.095-.051.082-.064.084.016.1.076.165-.014.083-.066.122-.018.07-.023.1-.121.028-.052.357-.029.081.038.056-.091.109,0,.109-.292.111-.172-.014-.126.193-.209-.029-.237.083-.069-.054-.233.054-.1.176-.191.084-.176.11-.125.234-.354.179-.359.094-.125.056-.173.013-.033.027-.2.069-.135.025-.082-.039-.118.039-.109.015-.608.165-.734-.11-.685-.19-.494-.124-.677.369-.432.534-.455.6-.447.686-.23.371-.728,1.084-.79.6-.219.3-.174.413.053.3.021.314-.018.041-.13.042-.225.205-.345.358-.844.411-.63.165-.163.384-.538.166-.656.137-.908.479-.356.354-.247.412-.2.262,0,.245-.109.165.136.288-.14.619.044.576.195,1.1.2.74.076.4.077-.084.2-.067.226-.191.559-.206.133-.425.271-.4.152-.507.208-.262,1.078.111,1.219.027.7.3.775.4.82.9.565.741.375.207.035.246-.233-.028-.558-.15-.707.15-.121.248-.134.233-.08.208.026.438.095.247.136.232.245.589-.052.3-.159.287-.359.329-.116.275-.056.1.01.1.036.274.077.055.145.206.064,1.124-.149-.013-.122.069-.158.1-.048.027-.138.083-.134v.2l.1.115.11.089.258.084.056.06-.014.117.123.13.072.02.164-.117.026.285.014.154.1.048.082-.043.139-.175.054-.042.026.1v.087l.042.068.054.02.247-.029.206.049.082-.037.027-.1.056-.012.136.015.055.055.11-.045.125-.135.014-.239.287.234.371.264.493.43.577.728.271.411.592.57.9.058.1,1.307-.056.7-.136.561-.137.329.151.005.1-.117.163.125.015-.122.026-.13.084-.2.054-.15.069.081.055.017v.131l.1.032.124.028.109-.136.137.12.18.027.149.135.18-.057.177.085-.1.165v.082l.082.045h.138l.123.091.055.129-.041.185.136.067.055.167.135.1.165.139.081.154v.151l.3-.016.165.047.054.13.3.035-.013.138.027.351.055.215.109.151.427.018h.355v.221l.013.313-.027.358v.838l.042.417.137.193-.055.212-.041.171-.04.173-.07.125.206.4v.095l.042.122.012,0,.906.358.33.236.343.221.134.831.178.808-.123.509-.271.575-.152.386-.248.048-.232.073-.1.2-.137.164-.137.071-.122.019-.275.1-.288-.007-.206.043-.055.167-.191-.08-.166.189-.111.026-.219-.1-.165-.064-.15-.144-.646-.109-.246.019-.1.623-.165.569-.137.578-.1.341-.04.23-.042.088.206.1.207.081.176-.008.094.049-.013.207.013.286.055.578-.027.258-.012.231-.042.4.165.609.137.085.137.066.261.218.137.143.081.245.071.262.121.153.289.263.028.087.015.177-.015.063-.041.273v.167l.027.1.082.019.028.376-.04.27-.083.281-.109.09.1.126v.044l.041.041.083,0-.028.06-.041.119.095-.009.11-.033.054.011.069.094h.123l.11.055-.055.086-.124.077-.124.011-.315.077-.069.177-.15-.088-.152-.007-.11.136-.013.081-.139.072-.094-.039-.138.2.042.076-.152.089-.1.226-.081.079-.082-.05-.1-.025.014.128-.042.075-.148-.023.013.176-.013.073-.069.14-.164.173-.26-.384-.22-.1-.22-.116-.069,0-.4.018-.494.171-.521.058-.741.034-.231.034-.44.181-.4.181-.015.442-.7.022-.094,1.062.012.535.658.488.137.133.41.02.274.1.3.18.233.133.138-.417.054-.243.631-.657.027-.049.165-.008.48-.013.15-.005.605-.093.383-.1.587-.333.3-.253.329-.26,1.139-.565,1.043-.334.178.268.095.042.016.185.068-.018.08-.09.083-.021.014.087-.069.118.1.1.055-.106.083.128.1.073-.109.1.069.185.164.036-.013.157.08-.016.068.017.1.062-.015.1-.095.111.095.095.029.115-.111-.021-.055-.054-.079,0-.013-.066-.043-.018-.068.069-.054.07.054.051-.04.11-.083.04-.234,0-.136.032-.136,0-.152.063-.082.065-.11.1-.136.122-.1.1-.207.292-.178.274-.069.191.028.093-.054.163-.029.1-.068.074-.042.062-.027.151.027.353-.013.523-.069.008-.041.014-.028,0-.028.042-.068-.027-.041.007v.1l.055.04-.026.166-.069-.017-.069-.06-.041.021-.029.08-.069-.008-.069-.035-.068-.081-.1.025-.04-.062-.081-.008-.058.121-.04.025-.042.085h-.178l-.233.012-.287.016-.274-.086-.179-.04-.1.025-.317.129-.136.059-.137.02-.192.168-.207.117.481.15v.178l-.012.407v.182l-.016.185-.1.379-.041.126.041.2v.207l-.069.306-.068.408-.013.077.054.335-.342.311-.194.1-.384.115-.2.068-.178.154.191.111.2.248-.026.492-.026.228-.042.844-.11.391v.675l.152.906.068.5.014.514-.068.295-.11.364,1.138-.064.3.048.247.063.752-.067.536.01.946.245-.1,1.467.013,1,.029.646.3.342.536.26,1.139.72.656.128.328.137.453-.155.151.022.343-.025.5-.06.766.066.7.032.768-.092.1.082-.015-.15.027-.139.069-.215.193-.506.041-.119.068-.186-.026-.253.042-.082.219-.673.179-.458.315.116.316.026.192-.074.164.033.084.066.081.007.04.058.083,0,.068.05.069-.019.247.092.123.028.124.008.453.117.437.117.315.045v.069l.124.109-.04.139-.084.065.014.107.178.034.165.106.151.062.137-.025.041.1.191.146-.053.112-.082.027-.069.07.1.089.177.027.11-.021.069-.056.151-.048.055-.063.068-.05.068.018.137.1-.026.029-.027.042-.068-.022-.083.039-.013.1.028.068.095-.058.11,0,.206.069.027.358.3.8.042.847.012.061-.1.011-.084.018-.012.032.028.028-.016.051-.052-.029-.028-.043-.082.048-.111.024-.042-.037-.054,0-.083.012-.014-.012.014-.037-.041,0-.109.118-.054-.043-.1.073-.082.1.04,0v.03l-.069.079-.122.146-.167.532-.04.21-.192.4-.055.12-.013.162-.027.174-.041.033.013.076-.028.141.11.284.1.152.165.119-.069.108.1.374.109.216.206.2.259.323.056.3.165.095.164.118.083-.04.287,2.9-.206,1.275-.37,1.03-.192.284-.385.621-.274.509-.739.684-.836.76-.371.372-.425,1.091-.069.461-.054.515.069,1.063-.042.1.275.955.234.994.149.4.042.446v.275l.18,1.343.012.425.176,1.213.208.712.082.259.452.783.234.465.26.406.1.29.042.14v.7l-.068.357-.042.158-.411.819-.1.128-.274.348-.78.683-.8.51-1.77,1.6-.562.6" transform="translate(-2270.979 -580.572)"  stroke="#fff" stroke-linecap="square" stroke-linejoin="bevel" stroke-width="1" fill-rule="evenodd"/>
      <text id="talId364count" transform="translate(14.268 55.677)" fill="#fff" font-size="10"  font-family="OpenSans-Bold, Open Sans" font-weight="700"><tspan x="0" y="0"></tspan></text>
    </g>
    <g id="_367_Sakoli" data-name="367 Sakoli" transform="translate(2331.333 207.706)">
      <path id="talId367" fill="#7DB8EC" title="Sakoli" data-name="Sakoli" d="M2313.69,671.828l.562-.6,1.768-1.6.8-.51.781-.683.275-.348.1-.128.409-.818.041-.157.068-.358v-.7l-.041-.14-.1-.291-.259-.406-.234-.465-.454-.783-.083-.26-.2-.711-.179-1.214-.014-.425-.177-1.342v-.276l-.041-.445-.152-.4-.231-.994-.275-.956.041-.1-.068-1.062.054-.516.069-.461.425-1.092.371-.371.838-.76.738-.685.275-.508.384-.621.19-.284.371-1.03.207-1.276-.287-2.9-.084.04-.165-.118-.164-.095-.054-.3-.26-.322-.209-.2-.109-.216-.1-.373.069-.108-.164-.12-.1-.152-.109-.284.027-.141-.013-.075.042-.033.027-.175.013-.162.057-.12.189-.394.04-.21.166-.532.123-.145.068-.079v-.03l-.041,0,.083-.1.094-.073.057.042.109-.118h.041l-.013.037.013.012.082-.012.056,0,.041.036.109-.024.082-.048.027.044.054.028.016-.052-.029-.028.012-.032.084-.018.1-.011-.015-.061-.04-.848-.3-.8-.027-.358-.207-.069-.11,0-.1.058-.027-.067.014-.1.082-.039.068.022.027-.043.027-.029-.135-.1-.069-.018-.07.049-.053.063-.151.048-.069.056-.111.022-.177-.028-.1-.089.068-.07.08-.028.056-.113-.191-.145-.038-.1-.139.025-.152-.062-.164-.105-.178-.035-.014-.107.084-.065.04-.139-.124-.109v-.069L2317.4,637l-.439-.117-.45-.116-.125-.008-.125-.028-.245-.092-.068.019-.069-.049-.084,0-.04-.058-.082-.007-.081-.067-.166-.033-.191.074-.318-.026-.314-.117-.178.458-.218.673-.041.082.027.253-.07.187-.04.119-.192.506-.068.216-.028.139.012.149-.1-.082-.768.092-.7-.032-.767-.065-.493.06-.344.024-.15-.022-.452.155-.329-.137-.659-.127-1.138-.72-.536-.26-.3-.342-.027-.646-.013-1,.1-1.467-.944-.245-.536-.01-.754.067-.246-.063-.3-.048-1.139.065.111-.363.067-.295-.013-.514-.069-.5-.152-.907V631.1l.111-.391.041-.845.028-.229.025-.49-.205-.249-.191-.111.178-.155.207-.067.383-.115.191-.1.343-.311-.052-.337.013-.076.068-.407.068-.306V626.7l-.041-.2.041-.125.1-.379.014-.185v-.183l.013-.407v-.178l-.479-.15.207-.118.19-.167.136-.02.138-.059.315-.128.1-.025.177.04.275.086.288-.017.232-.012h.18l.041-.085.041-.025.055-.121.083.008.041.062.1-.025.068.081.067.036.067.008.029-.081.041-.021.068.061.068.016.028-.166-.055-.04v-.1l.041-.007.07.028.027-.043.025,0,.043-.014.069-.008.014-.524-.028-.352.028-.151.04-.062.069-.074.027-.1.055-.163-.026-.093.068-.191.177-.274.206-.292.1-.1.136-.121.11-.1.081-.064.15-.063.138,0,.137-.032.234,0,.082-.039.041-.11-.054-.051.054-.07.068-.069.043.018.012.066.083,0,.055.054.11.02-.028-.115-.1-.095.1-.111.016-.1-.1-.062-.07-.016-.08.015.012-.156-.164-.037-.068-.185.109-.1-.1-.073-.083-.129-.053.107-.1-.1.069-.118-.014-.086-.082.02-.081.091-.071.018-.011-.186-.1-.041-.177-.268-1.042.334-1.136.565-.329.259-.3.253-.59.334-.385.1-.6.092-.151.006-.481.013-.164.009-.027.049-.63.657-.054.243-.137.417-.234-.133-.3-.179-.276-.1-.413-.021-.136-.133-.659-.488-.014-.535.1-1.061.7-.022.014-.443.4-.181.438-.181.234-.034.739-.034.522-.058.493-.171.4-.018.07,0,.218.117.22.1.259.384.167-.173.068-.14.014-.073-.014-.177.152.023.038-.074-.011-.128.1.025.083.051.081-.08.1-.226.151-.089-.041-.076.136-.2.1.039.136-.071.016-.081.108-.137.152.007.15.088.069-.177.315-.077.123-.011.122-.077.055-.086-.11-.055h-.122l-.068-.093-.056-.011-.11.033-.1.01.041-.119.027-.06-.082,0-.04-.041v-.044l-.1-.127.109-.09.082-.281.04-.27-.027-.376-.083-.02-.025-.1v-.168l.04-.272.014-.063-.014-.176-.027-.087-.287-.263-.124-.152-.069-.261-.082-.246-.139-.144-.259-.218-.138-.066-.136-.085-.165-.609.043-.4.013-.23.027-.258-.054-.578-.014-.287.014-.207-.1-.049-.177.008-.207-.081-.2-.1.04-.088.041-.228.1-.342.137-.578.164-.569.1-.622.247-.019.645.108.15.144.166.065.217.1.11-.025.164-.189.191.08.057-.167.205-.043.288.007.275-.1.123-.019.138-.071.137-.165.1-.2.234-.073.247-.048.151-.385.274-.576.123-.509-.177-.808-.138-.831-.344-.221-.327-.236-.906-.357-.013,0-.043-.122v-.094l-.2-.4.069-.125.043-.173.04-.171.052-.211-.135-.193-.041-.417v-.838l.029-.358-.013-.313v-.221h-.359l-.423-.018-.108-.15-.054-.215-.028-.352.014-.139-.3-.036-.055-.13-.165-.047-.3.015v-.15l-.082-.154-.165-.139-.138-.1-.054-.168-.138-.067.043-.185-.056-.129-.123-.09h-.136l-.083-.045v-.082l.1-.165-.179-.085-.178.058-.153-.136-.177-.026-.137-.121-.111.138-.123-.029-.1-.032v-.132l-.056-.016-.068-.081-.052.149-.084.2-.027.13-.016.122-.162-.125-.1.117-.15-.006.137-.329.136-.561.055-.7-.1-1.307-.905-.058-.589-.571-.272-.409-.578-.728-.5-.431-.37-.265-.288-.233-.014.239-.123.136-.109.045-.055-.055-.136-.015-.056.012-.027.1-.084.037-.2-.049-.248.029-.052-.021-.043-.067v-.088l-.027-.095-.054.042-.137.176-.084.043-.1-.048-.015-.154-.026-.285-.165.116-.068-.021-.125-.13.016-.117-.054-.06-.262-.083-.108-.09-.1-.115v-.2l-.084.135-.027.138-.095.048-.069.158.015.122-1.125.149-.208-.064-.053-.145-.275-.077-.1-.036-.1-.01-.272.056-.331.115-.285.359-.3.159-.59.052-.232-.246-.247-.136-.441-.094-.2-.026-.234.079-.246.134-.152.121.152.708.026.558-.247.234-.206-.035-.738-.376-.9-.565-.4-.82-.3-.775-.029-.7-.11-1.219.261-1.078.507-.207.4-.152.425-.27.2-.134.194-.558.069-.226.082-.2-.4-.076-.74-.076-1.1-.2-.575-.195-.621-.044-.286.14-.162-.136-.25.109-.256,0-.414.2-.356.247-.482.357.016-.042.244-1.019.043-.773-.111-.561-.013-.669.027-.59-.027-.554-.027-.262.108-.462.1-.5.028-.445.1-.467.247-1,.246-.363.316-.656.179-.549v-.239l.136-.237v-.269l-.714-.425-.441-.243.441-.86.359-.7.737-.42.563-.156.7-.261,1.645-1.023.645-.424,1.041.088.727-.186,1.249.012.4-.061.891.262.177-.418.274-.123.316-.437-.125-.39-.37-.177-.164.05-.437-.246-.454-.452-.205-.647.028-.939.3-.419v-.3l.153-.3.436-.393h.4l.509-.222.274-.135h.63l.482-.137.15-.081.617-.293.592-.3.959-.376,1.631-.556.438-.219.262.181.043.307-.783.387-.1.332.136.538.206-.165.028-.125,1.465-.166,1.03.405.878-.23.836.35.672.413-.152.2.3.241.368.563.219-.582,1.813-.868.727-.476,1.179-1.05.6-.33.907.144.659.23.931.026.316-.126,1.055.095,1.056.169.384.033.207.486-.084.236.591.637,1.149.762,1.073.875.631.838.466.869.109.694.357.219.6.032.672.149.629.312.811.925.727.025.754-.125.737,0,.291-.122.466-.024.426-.056.479-.129.355-.264,1.879.206.852-.005.219.487.754.8.495,1.207.74.332.219.319.563.562.231.6.259.325.344.177.275,0,.906-.182.55-.086.918-.641.589-.509.547-.489,2.072-1.663.316,1.378.15.524.671.743-.093.421-.33.259-.055.379-.179.512-.11.5.028.288.849.338.7-.051.92-.437.577.313.452.713.15.192.289.057.3-.028.289.108.3.044.329.145.179-.165.3.02.563.286.382.334.29.069.178.112.1.126.222-.035.121.044.125.136-.125.083-.028.052.014.059.22-.077.025.09-.232.13-.013.382.165-.012.11.2.027.217.027.2.261.024.4.2.574.22-.056.122h.139l.424.064.92.426.507.149.468.276.6.173,1.027.3.028.124-.041.1-.26.039-.151.339.068.09.123-.012.138.126-.055.156.15.181-.2.148-.1.129.125.227.177-.152.205.1.126.133.025.231-.1.092-.177.062-.126.1.082.1.206.019.153-.039.054-.114.083-.019.082.111-.027.121.082.085.206-.1.11.029.014.089-.11.051-.1.161v.176l.124.04-.016.135-.148.137.1.278-.138.209-.191-.013-.234.191-.163.058-.125.214.069.108-.082.318v.172l.233.031.274.132-.232.13-.22.192.11.39.164.007.166-.188.178-.037.054.262-.068.162.028.238-.028.388-.151.46-.178-.06-.1.086-.163-.052-.125-.015-.166.276-.15.11.15.092.1.167.137.257.261.458.178.524.329.927.206.747-.07.755-.068.51-.025.284.052.239.056.408.657.081.262.47.232.46.384.62.385.142.289.111.15.39.055.32-.162.376-.029.284-.055.832-.069.671-.083.455-.259.494.15.244-.562.152-.206.118-.466.122-.207.046.177.832.03.375-.084,1.23-.63.2.025.254.084.17.177.607v.281l-.067.724.769.094,1.809-.27.137.622-.439.195-.438.323-.768.224-.357.159-.191.151-.193.059-.275.218-.218.145-.55.235-.259.562-.234.685-.261.7-.275.207-.9.957-.22.1-.289.255-.245.778-.013.061.067-.021.1-.035.126.1h.19l.207.111.136.073.3-.09.194.011.1-.057-.07-.1.054-.1.1.107.068-.133.149-.063.055.113.136.015.194-.122.109-.017.218.047.167-.026.125.1.039.14.425-.213.152.02.178-.027-.014.108.111.079.315,0,.234.02.124.46.15.635.207.753-.055.03-.425.591-.385.6-.55,1.26-.177.555-.274.659.657.264.482.219.37.2.492.162.234.141.385.161.284.092.2.049.275.19.258.15.22.062.234.106v.1l.041.517-.041.3-.454-.048.015.209-.067.431.081.2.042.075-.166.43-.19-.055-.137.566-.055-.007-.193.3-.042.423-.056.266-.243.07-.084.234-.123.066-.259-.029-.331.067-.41.219-.726.183-.194-.038-.136.026v.048l-.441.012-.151.063-.178-.011v.049l-.014.048.275.168.2.139.153.1.152.031.561.248.082.024v.091l.123.011.207.093.138.05.109-.007.068.041-.08.13-.029.147-.083.156-.068.313.179.095.328.1.232.1-.055.149.33.115.043.023.012.163.33.379.135.249-.083.154v.185l.043.119-.095.25-.067.327-.056.2-.068.092.027.081-.055.275-.247.34-.33.614-.123.5-.1.368-.166.269-.576.557-.7.187-.425.156-.344.159-.425.265.1.378-.286.195-.247.038-.163-.031-.111.248-.274.2-.287.1.014.081.2.156.261-.072.137-.214v-.161l.179-.225.151,0,.122.261-.016.314-.08.461.189-.045.206-.187.191.084.305.1.369.095.562.038.289-.12.261-.086.479.328.275.255.083-.017.053-.042v-.364l.028-.323.043-.359.246-.121.33.189.367-.093.028-.225-.219-.265-.1-.214.107-.167.1-.134.123.045.2.168.193-.179.012-.273.193-.041.4,0,.275.158.29.045.108.1.083.179.15.109.191.036.357-.031.165.036.288.078.385-.1.123-.24.15-.011.15.066-.04.246.2.049.068.064.234-.03.164.015-.012.158.191-.026.111.121-.233.225-.137.114-.084.3-.149.277-.054.423.231-.03.289-.032.1.169.15-.126.151.145.1.257-.18.376.055.2.275,0,.054.4.082.291-.149.084-.112.018.166.425.07.458-.016.19-.288.124-.15.322.082.323-.164.25-.207.157.057.234.218.14.082.164-.261.114-.081-.021-.205.058-.15.217-.111.058-.234.245-.15.15.04.244.068.272-.1.067-.04.123v.074l.272.2-.041.318.247-.022.1.078.138-.105.137.078.027.167.179-.052-.029.312-.011.156.108.108-.136-.009-.207.029.139.274.191.076.041.255-.055.265.316.048.069.162-.234.251.151.471.123.149.123.018.1-.261.1.014.1.17.055.181-.07.195-.191.138.042.145.15.079.166,0-.013.127-.153-.029.054.19-.013.146-.026.14-.1.051-.11.176.069.143.138.056.246-.04.1.146.014.145.084.217.1.063-.014.067-.027.036-.153.081-.013-.115-.274-.019-.358-.241-.149-.067-.164-.058-.536-.108-.8-.089-.163.034-.275.195-.15.1-.15.066h-.275l-.152.027-.136.058-1.7,1.181-.409-.144.068-.129-.03-.012.191-.391-.068-.073-.232-.115-.441.038-.12-.019-.082-.049-.289.049-.247-.064-.164.511-.043.106.178.062.264.06.245.072.3.026.275.055.152.058.15.048.03.115-.016.15-.053.125-.03.218v.211l-.028.147.028.159-.082.052-.041.056.014.052v.128l-.111.14-.054.063-.055.042-.068.233-.19,1.091-.438.928-.864,1.443-.207,1.418-.823-.025-.4-.036-.068.471.453-.072-.4,2.482-.275.04-.411-.069-.466-.268-.068-.163-.371-.111h-.218l-.248-.063-.274-.159-.646-.125-.177.018-.509.159.068.569.111.683.122.111.177.142.291.678.409.321-.079.352-.427-.241-.493-.35-.741-.389-.112-.066-.163.084-.273-.029-.48-.445-.384-.566-.481-.527-.232-.17-.757-.55-.89-.925-.509-.457-.412-.123-.354-.325-.436-.277-.016.31.152,1.188-.057.63.684.317.6.034.439-.025.808.328.784.535.013.266-.054.392-.138.178-.6.666-.411.233-.355.409.026,1.385.083.247-.083.341-.3.842-1.054,1.032-1.29.11-.96-.339-.534-.2.081-.207-.029-.1.056-.169-.056-.039-.314-.168-.054.064-.122.3.011.061-.025.387.163.163.248.161.012.081.495.206v.049l-.193.14-.122-.022-.11-.117-.082.024-.043.117-.122.2-.083,0-.07.054-.177-.093-.043.137-.052.019-.3.089-.191.1-.111-.067-.054.166-.151-.046.014-.126-.057.019-.024.105-.125-.051-.1.1-.107-.109-.166.114-.191-.044-.043.124-.136-.021-.11-.16-.138.076-.286-.033-.1-.011-.068-.191.166-.021.025-.1.125-.01-.081-.1-.028-.121-.206.024.013-.113-.043-.059-.04.107-.082.041-.069-.037-.067,0-.11-.076-.054-.143-.3.076-.179-.045-.081-.082-.164-.029.027-.089-.041-.039-.1.015-.083-.056-.108-.16.136-.005.083-.041v-.045l-.152-.041-.055.052-.067,0-.03-.117-.1.039-.107.126-.027.025-.125.234-.054.247-.042.083-.15-.115.041-.091-.014-.256-.041-.051-.083-.015-.136.049-.014-.094-.109,0-.084-.068v-.082l-.054-.129-.055-.181.03-.076.107-.037.056-.108.082-.052.221.164.22-.007.08-.154.057-.521-.3-.044-.179.028.1-.189-.015-.078-.082-.132v-.116h.153l.027-.148.123,0,.137.075.2.068.234.082.028-.145.067-.015v-.025l.1-.224.166.006.1.045.054.007-.013.292.041.008v.061l.11.026.014.047.11,0,.1.03.136,0,.083.018.027.03.315-.2.083-.23v-.107l.149.039.152.07.575-.414.071-.242.548.314.507.332.45.349.456.351.052.045.152-.943.069-.47.122-.383.812-.924.054-.757.22-1.6-.123-.022-.468-.119-.288-.055-1.275.206-.412.067-1.384.318-.769.005-.205.03v.059l-.124-.013v.1l-.1.019-.04.08-.138-.117-.082-.019-.1.159v.044l-.068.134-.081,0-.057.21-.15-.009-.013.122-.205.006-.043.048-.053.093-.6-.139-.3-.108-.368-.081h-.043l-.082.28-.081.21-.178-.04-.07.068-.261.248-.177.177-.152.221-.136.13-.055.034-.1.039-.109.056-.164.117v.107l-.108.04-.125-.059-.136-.049-.109-.078-.1-.022-.1.015-.1-.037-.055-.022-.1-.022-.136-.044-.054-.134-.039-.059-.1.059-.054.04-.123-.034-.123-.027-.057-.073-.1-.039-.054.112-.068.034-.068-.053v-.088l.025-.081-.011-.125-.014-.078-.043-.063-.1,0-.082-.04-.071-.11-.038-.075-.112-.006-.041.047-.108.2-.139.108-.083.063v.111l-.122-.012-.013-.13-.084-.034-.136-.019-.041-.03-.166-.222v-.138l-.231-.056-.4.164.016.062-.136.061-.136-.058-.1-.089-.083-.037-.082-.034-.068-.005-.15-.08-.1.032-.136-.021-.148-.051-.043.228-.014.161.014.219-.055.057-.082.118-.123-.145.082-.145-.1-.013-.19-.085-.191-.107v.185l-.124.169-.193.072-.012.225-.016.117v.116l-.052.111-.043.032-.069-.005-.04.015-.068.128-.084.055-.054.042-.083-.054-.027-.058-.04-.084-.057-.036-.068.033-.026.059-.043.045-.041.073-.041.048-.054.008-.083.006-.084-.092-.109-.033-.082.026-.111.04-.068.048-.082.062-.041.032-.054-.005-.054-.042.013-.021.109-.181V661.6l-.052-.234-.138-.083-.318.259-.052-.065-.07-.071-.054-.108-.014-.135-.042-.31-.151-.052-.094-.033-.111-.041-.136-.073-.259.025-.1-.011-.068-.119.013-.063.041-.08.069-.027-.029-.073-.108-.14-.069-.132-.043-.015-.218-.044-.112.018-.068.051-.015.041-.108.06-.125.028-.218-.059-.151-.032-.139.062-.178.018-.191-.012-.194-.036-.177-.027-.329.018-.234.114-.055.185-.1.178-.234.141-.165.13-.191.07-.423-.107-.136.044-.027.169-.167.256v.147l-.011.346.011.08.016.077.1.107.041.125-.014.086.193.088.194.147-.03.281-.164.06-.084-.026-.19-.179-.164.08-.261-.019-.3-.037-.177.181-.274.113-.1.3.112.311-.084.3-.191.03-.04.164.124.293.245.014.083.07.041.116.373-.037.794-.063,1.383-.161.482.018,1.3-.018.029,1.8-.315.063-.728.106-.318.363-.232.15-.135,1.075-.138,1.168-.083.618.03.833v.095l-.5.291-.751.369-1.427.2-1.263.427-.959.493.56.771.262.649.069.185.122.189.194.393.082.2-.111.81-.191,1.02.082.091.206.13.357.18.465.222.316.176.33.208.632.417.82.132.44.1-.056.161.056.1-.043.147-.013.147-.178.087.151.25-.056.2.029.232-.055.5-.069.323-.247-.056-.382-.039-.248.023-.275.029-.259.066-.124-.04-.014-.007-.261-.26-.288-.039-.232-.231-.3-.114-.123-.176v-.27l-.288-.166-.288-.01-.164-.075-.15-.189-.136-.2-.138.076-.234.081-.177-.056-.218-.172-.084.023-.107-.052-.125.153-.219-.081-.2.095-.261-.07.041-.058-.3.014-.013-.161-.082-.023-.027-.081-.1-.076.041-.11-.1-.1-.071.2-.068.034-.109.128-.043-.019-.11.039-.095-.157.068-.161-.109-.033.069-.1.1-.075-.068-.1-.029-.146-.028-.114.095-.023-.095-.152.014-.128.138.015-.016-.152.112-.066-.18-.038-.368-.056.039-.133-.1-.2-.054-.333.081-.293.137-.384.207-.463-.1-.191.014-.042-.084-.038-.011-.06-.057,0-.068.044-.054-.036-.068-.019-.042-.062-.054-.023-.111-.014-.011.035.027.084-.138.043.013.071-.151.156-.274.01-.179-.057-.123.174-.151.2-.1.218-.108-.042-.055.208-.152.039-.109.1-.137-.033-.083.015.027-.166-.1-.062-.082.141-.082-.052-.082-.008h-.125l-.069-.058-.108-.194h-.125l.014-.08.043-.095-.111-.072-.041.056-.1-.023-.125-.222-.042-.009v.075l-.053,0-.084.088-.178-.074.042-.11-.151-.009-.083.156-.122.017-.014.087-.138-.057-.014-.166-.22-.042.013-.1-.054-.18.177-.237-.052-.311.52-.557.92-1.225.5-.525" transform="translate(-2285.329 -565.451)"  stroke="#fff" stroke-linecap="square" stroke-linejoin="bevel" stroke-width="1" fill-rule="evenodd"/>
      <text id="talId367count" transform="translate(34.623 51.375)" fill="#fff" font-size="10"  font-family="OpenSans-Bold, Open Sans" font-weight="700"><tspan x="0" y="0"></tspan></text>
    </g>
    <g id="_363_Lakhandur" data-name="363 Lakhandur" transform="translate(2305.2 312.911)">
      <path id="talId363" fill="#7DB8EC" title="Lakhandur" data-name="Lakhandur" d="M2330.289,642.09l.151,1.223.151.195.052.193.743.156.6.037.685,1.351.081,1.1.191.466.111.66.412.809.8.04.85-.009.439-.019.371-.1.287.045.248-.005.792-.137.661.126-1.209.5-.534-.173-.52.689-.632-.2-1.111.2-.945.659v1.111l.4-.093.523-.042.384.153.494.337-.426,1.15-1.606.207-1.7-.415-.056.4.056,1.417,1.454.066.2,2.575-.272.538-.193,0-.039.2-.384,1.76-.1.938.082.6-.521,1.68.495-.03.863-.179.082.432.273.593.068.822.4,1.232.288,1.576.81.991.864.374.273-.81.316-.474.753-1.144.4-1.2-.138-.1-.274-.172-.41-.609-.22-.827.029-.552-.824-.108.549-1.028-.207-.835.865-.68.779,1.046-.053.427.3,1.1.549.156,1.317.483,1.548.682-.176.538-.195.764-.027.327-.313,1.007-.207.513-.165.451-.4,1.038-.577,1.252-.671,1.03-.647.562-.724.362-.438-.044-.426.03-.082.141-.617-.172-.288.1-1.125-.184-.454.007-.4.627-1.027-.466-.221-1.724-.589-.338-.521.421-.837.735-1.316.8-1.37.169-.179.081.179.685.644,1.005.631.621.4.494.342.567.316.568-.48.113-.587.93-.207.039-.177.1-.522.62-.425.022-1.263.568-.479-.2-.644.23-.563.865-.15.472-.138.983.425,1.951-.15.651,2.453-.14-.205.49-.179.539-.205,1.752,1.565.307.425-.554.426-.24,1.15-.508,1.317.094,1.1-.163.208.645.765.581,2.291,1.87.137.465-.535.141-.659-.041-.314.285-.275.135-.727-.191-.382.239-.44.051-.7.256-.727.137-.507.512-1.029.389-1.027.239.341,1.433.071.728.039.894.125.819,1.176.207.44.186.4.319.631.419,1.616.857-.532,1.824-.59,1.087-.783-.323-.6.095-.166.045-.234.488-.547.583-.454.444-.479.387.328.2.29.17v.592l-.18.128-.463.309-.412-.361.054-.3-.233-.364-.068.256-.248.251-.15.2-.645.147h-.3l-.385-.251-.3-.092-.054.222-.014.284-.261.157v.125l.165.071.028.153.04.174-.069.191-.069.174-.1.152.083.271-.138.153.027.234-.11.136-.177.071h-.233l-.109.07.355.093.11.059-.081.191-.042.212.383.017.329.064.344.005.288.022.345-.147.3-.191.288-.174.1-.017.44-.092.645.408,1.067.6.577.229.495.059.727-.087.411.25.371.082.191.586.259.365.151.431-.231.637-.15.891-.249.626-.466.86-.48.734-.589.99-.247.414-.042.2-.879.542-.258.164-.7.484-.343.237-.424.376-1.21.783-.494.364-.272.606-.068.158-.125-.024-.165-.182-.1.031-.357-.045-.11.1.015.107-.123.05-.151.094-.3.254-.164.032-.083-.047.014.141-.153.048-.2.029-.178-.044-.1-.13-.125.127-.192.019-.135.166-.207,0-.1-.051-.329.164-.152,0-.136.05.11.053.027.139-.151.093.165.167-.165.013-.069.1.109.045-.054.084-.068.173-.069.195-.04.117-.194.041v.219l-.054.175.068.164.084.177-.057.176-.053.241-.592.751-1.781-.916-1.342-.452-1.289-.33-.769-.125-.246-.07-.494-.137-.508-.218-.659-.139-.451-.5-1.33-.831-1.22-1.17-.548-.455-.33-.275-.562-.382-.532-.212-1.908-.013-.533.112-1.989.414-1.92.319-.425.255-2.194.713-1.661.413-1.37.174-1.3-.025-1.675-.625-.069-.035-.149.289-.986-.584-2.045-1.185-.149-.335-.33-.244-.275-.131-1.672-.676-3.866-1.567-.427-.044-.782-.488-1.933-1.975-.671-2.025-.59-1.332-.151-.909-1.264-.858-1.244-.877-.714-.536-1.974-1.325-.467-.191-.041-.022-1.659-.575-1.1-.214-.563-.063-1.891.087-1.166.015h-.055l-.509.126-1.04.262-.027-.757.039-.352.057-.466.189-.372.383-.809.236-.644.11-.427.165-.487-.056-.028.11-.944.068-.317.11-.23.136-.292.136-.8.209-.958.052-.4v-.494l-.027-.107.069-.331.068-.01.1-.609.383.013.055-.441-.013-.469-.974-.427-.056-.232.262-.388.1-.082.149-.186-.3-.1.124-.359.193.062.165-.41.193.026.164-.377.15-.333.084-.284.136.07.152-.282.136-.232.123-.18.439-.461.272-.571.152.022.1-.334.437.022-.04-.584.178,0,.083-.362.012-.253.138-.042.563.116.026-.065.07-.423.042-.49.04-.121.1-.38.027-.216.013-.507-.137-.014-.344-.088v-.132l.068-.386.083-.019.152-.326.095-.131.013-.033.055-.141-.22-.075-.165-.028-.92-.482-.039-.089-.261-.122-.274-.155.069-.19v-.366l-.041-.136-.028-.254.014-.227-.246-.066-.165.331-.177.263-.33-.294-.4-.371.013-.082-.247-.026-.3-.066-.069.086-.357-.063.1-.158.165-.45.08-.317.152-.005.012-.292-.041-.4-.1-.426-.205-.634-.014-.36.451-.062.206.022.356.053.442.059.314-.009.369.03.467-.018.081-.441-.2-.037.027-.439.287-.052.014-.191.151-.266.1-.134.094-.447.165-.342-.027-.163.069-.233.138-.292.149-.089.068.041.07-.286.055-.5.1-.38.11-.015.123-.113.056-.221.04-.094.055-.058.15,0,.26-.022v-.148l-.108-.122-.069-.033.015-.1-.042-.124-.042-.195.014-.115.07-.012.012-.075-.1.007-.234-.043.014-.218v-.3l-.1-.176.028-.279-.124-.066-.013-.095.081-.158.028-.234-.1-.039-.109-.032-.042.085-.041.07-.1-.017.026-.23.1-.14v-.134l.069.029.056-.3-.165-.074-.028-.344-.219-.159.014-.111.081-.354.112.012.04-.068.055.077.069.025.164-.017-.026-.124-.138.027-.041-.112-.014-.151-.108-.077-.028-.148-.221-.019-.367-.118.106-.353.056-.448.042-.61-.179-.174-.068-.141.013-.079.03-.257.231.048.164-.39.109-.367.18-.482.068-.422.344-.188.261-.168.521-.265.219-.04-.055-.136-.083-.157-.039-.113-.055-.068-.055.045-.138-.019-.6-.473.042-.195-.083-.011.055-.336-.329-.059.04-.493.056-.367.069-.436.081-.333-.013-.4.068,0,.055-.247.054-.015-.027-.3-.137-.23-.165-.146.014-.077-.1-.069-.275-.3-.165-.114-.013-.014-.137-.021.042-.171.014-.128-.1-.167.042-.126.028-.079.028-.314.177-.322.137-.19.207-.5.054-.063.234-.282.163-.344.125-.381.042-.432.135-.313.1-.194.18-.286.068-.2.288-.692.26-.391.207-.436.341-.761.081-.239.314-.04.221-.077.452-.121.357-.069.386-.025.26.014.248-.014.274-.028-.07-.563.028-.546.163-.747.18-.214.356-.735.534.137.109.132.124,0,.094.008.015.056-.082.217.027.147.055.169.261-.062.122.025.1.125.15-.027.082.067.151-.008.042.055.109,0,.068-.088.109-.185.152.037.013.078.111.046.123-.06.1-.186.18-.038.122.092.151.1.192.015.055-.107.315.1.124.086.3.026.221.059-.056.184-.136.159.082.085.138.057.068.08.23.175.179-.027.178.08.041.056-.028.089-.068.025-.136.026-.016.148.084-.005.164-.1.179.085v.088l-.11.153-.013.139.207.069.231.1.248.008.138.118-.084.194.014.1.07.086.15.1.124-.021.084-.062.1.137.192.129.164.015.014-.131-.055-.155.068-.069.233.149.015.011.192.269.287.129.137.082.111.122.068.224-.123.4.054.2.261.259.027.02.026.222.221.235-.028.246.123.107.1.051.465-.1.247.149.261.217.259.2.124.129.083.2.082.391.247.061.288.181.233-.094.274-.312.194-.15.2-.063.138.125.109.288.083.083.123.015.261-.061.243-.148-.026.115-.11.212.012.129-.04.285-.067.193v.167l-.013.1.135.121.04.112.1.059.149-.056.069-.08.042-.118.108-.025.29-.158.083.084.153.03.068.09-.068.277.081.079.15.132.1.1.041.083v.14l-.1.15-.137.076-.1.041-.1.1-.163.191-.1.141-.084.144-.028.1-.012.152.081.192.1.066.083.034.206-.078.1-.085.082.047.042.063.042.259.136.058.139-.074.162-.059.179.019.179.035.166.1.082.159-.014.159-.233.172.082.1.1.082.534-.072.344.1.123.113.081.093.071.116.191-.347.178-.293.151-.787.067-.835.055-.533.453-1.369.245-.926.357-.394.125-.149.4-.3h.453l.453.325.329.429.288.5.054.109.863,1.94.287.377.317.379.26.2.8.45.727.038.4-.379.22.148.193.1.136.111-.012.166.177-.045.272-.1.192-.111.207.012.205-.206.124-.068.08.025.029.074.055.075-.014-.079.026-.037.138-.114.069-.085.027-.125-.014-.25-.082-.292-.055-.055-.136-.408-.027-.183.013-.105-.22-.077-.136-.069-.108-.06-.223-.082.235-.47.482-.366.52-.3.246-.055.26-.137.152-.082.44.233.631.4.616.47.33.291.368.381.344.149.48.239.727-.025.275-.032.219,0,.069-.012.453-.078.3-.151.207-.106.767-.662.4-.622.356-.215.576-.144,1.4-.281.738-.455.056-.033.3-.919-.107-.458-.054-.268-.194-.736.028-.588.094-.4.7-.707.371-.208.507-.217.125-.052.369-.118.961-.307,1.177-.239.645-.319.425-.417.054.311-.178.237.056.179-.015.1.22.042.015.166.135.058.014-.086.123-.018.083-.156.152.008-.042.11.179.075.084-.088.054,0v-.076l.042.01.121.222.1.023.04-.056.11.071-.04.095-.013.079h.122l.11.195.069.058h.124l.083.008.081.052.084-.141.1.062-.028.166.08-.015.136.033.11-.1.152-.039.054-.209.109.043.1-.218.15-.2.125-.174.177.056.275-.009.15-.157-.013-.071.138-.043-.027-.084.013-.034.11.014.055.023.04.062.07.019.054.036.068-.044.055,0,.014.061.081.038-.013.042.1.191-.206.463-.137.384-.082.293.054.332.1.2-.041.133.37.056.179.039-.111.066.013.152-.136-.015-.013.128.1.152-.1.024.027.114.028.147.067.1-.1.076-.068.1.108.033-.068.162.1.156.11-.039.042.02.109-.128.069-.034.068-.2.1.1-.039.11.1.075.028.081.082.023.014.16.3-.013-.041.058.26.07.207-.095.217.081.123-.152.11.052.084-.023.219.172.178.057.233-.081.137-.075.137.2.151.189.165.075.29.01.288.166v.27l.123.176.3.114.233.231.288.038.26.261.014.007.123.04.261-.066.273-.028.246-.024.385.039.246.056.069-.322.056-.5-.028-.232.056-.2-.153-.251.179-.086.014-.147.041-.147-.055-.1.055-.162-.438-.1-.823-.132-.628-.417-.33-.209-.317-.175-.466-.222-.356-.179-.206-.131-.08-.09.19-1.02.11-.81-.083-.2-.193-.394-.123-.189-.068-.185-.261-.649-.562-.77.96-.494,1.263-.426,1.425-.2.753-.369.5-.291" transform="translate(-2266.239 -642.09)"  stroke="#fff" stroke-linecap="square" stroke-linejoin="bevel" stroke-width="1" fill-rule="evenodd"/>
      <text id="talId363count" transform="translate(11.756 45.17)" fill="#fff" font-size="10"  font-family="OpenSans-Bold, Open Sans" font-weight="700"><tspan x="0" y="0"></tspan></text>
    </g>
    <g id="_366_Pauni" data-name="366 Pauni" transform="translate(2239.62 284.583)">
      <path id="talId366" fill="#7DB8EC" data-name="Pauni" title="Pauni" d="M2259.236,628.385l.138.011.768.029.768.147.711.042.192.1.138.032.109.076.329.032.385-.015.453-.019.083-.25.041-.148v-.108l.165-.04.041.068-.055.233.068.026.4.037.261.413-.042.505-.039.323-.015.268-.426.058-.053.371-.07.176.137.169-.015.237-.191.237.178.176-.04.291.411-.052.083.114-.083.213.137-.005.191-.243.317-.123.123-.258.217-.008.109-.141.316-.134.165-.17v-.288l-.206-.069-.027-.1.344-.173.109.13.068-.117.1-.045.068.1.111.033.164-.068.014-.178.069.048.1.076.164-.038.193-.05.246-.042.056.03.356-.162-.015-.093h.1l.068.054.094-.04.153-.137.081-.08.137-.04.084.144.2-.12.139-.075.15-.069.19-.013-.013-.11.069-.05.067.023.549.395.713.488.522.38.027.484.165.513-.015.5.015.3-.015.069-.027.3.151.114.039.032.235-.018.438-.572.29-.024-.055-.722-.1-.577.028-.32.054-.658.094-.266.234-.643.193-.733.2-.509.041-.313.056-1.244.013-.239-.013-.123.054-.062.069-.02.068.055-.068.08v.077l.11.038.068-.082.069-.1v-.187l.028-.133.247-.078.054.023.054-.031.042,0,.028,0v-.06l.014-.04.054-.08.042-.1.123.051.042-.083.04-.18.205-.941.221-.3.2-.123v-.657l.125-.166.056-.332.109-.543.111-.393V621.5l.082-.018.245.055.165.1.055.062.138-.007.2.049-.012.054.234.037.3.07.275.108.781.035.343.023.138.025.013-.038.3,0,.808-.019.192.053.207.03h.207l1.107.017.3-.1.138.224.11.02.123.259-.013.14.289.164.069,0-.056.114.083.125.041.074.123.113.1.084.082,0,.028-.033.274-.292.26.529.454.229.659.353.136.017.1.094.163.23.287-.128.124-.06h.164l.563.042.356-.206.178-.074.22-.047.249.166.272.118.275-.125.207-.188.341-.1.26-.052.26-.173.274-.129.562-.115-.028,1.089.247.207.838-.069,1.07-.038.094-.1-.191-.329.055-.11.123-.11.261.02.234-.232,1.232.675.165.131.192-.1.042-.229.152-.176.424-.123.151.057.111-.1.217-.1.1-.078.042.044.013.022-.317.426.249.28.026.716.069.158.208.249.493-.037.577.28.191-.4.519-.245.288-.044.152-.033.425-.114.451-.039-.575.775-.288.274-.864.924-.807.891-.632.655-1.07,1.187-.479.759-.4,1.011-.7.9-.495.5-.233.283-.314.42-.317.594-.151.537v.407l.11.542.273,1.019.426.606.358.813.643.707.768,1.143.3,1.024.123.776-.041,1.05-.013.636.054.158.165.666.178.486.138.672.068.292.191.4.2.293.029.587.26.494.137.417.1.487-.054.675.068.179.1.071-.041.111.027.208.069.008.082,0,.013.086-.094.091.013.1.109.056v.051l.03.132-.07.081.108.067.111-.03.083.1.027.179.068.016v.092l-.152.014-.206-.036-.012.139.1.153.151.313.343.349.013.141.083.052.095.014.015.094.108.123-.095.14.148.1-.013.142-.015.086.042.059-.055.129-.121.163-.056.125.04.055.1.016-.029.117-.149.083-.535-.137-.357.735-.178.214-.164.747-.027.546.068.562-.274.029-.248.014-.261-.014-.384.025-.356.069-.453.12-.221.077-.315.04-.079.24-.344.761-.206.436-.26.391-.287.693-.069.2-.18.287-.1.2-.135.312-.042.432-.124.382-.165.344-.233.283-.054.063-.206.5-.136.191-.179.323-.027.313-.028.08-.042.126.1.167-.012.128-.042.171.135.022.014.014.165.114.275.3.1.069-.015.077.164.145.138.231.026.3-.053.015-.055.248-.069,0,.012.4-.081.333-.069.436-.056.368-.04.492.329.059-.056.336.084.011-.042.194.6.473.138.019.054-.045.055.069.042.114.083.156.055.136-.22.039-.52.265-.263.167-.342.188-.069.423-.179.483-.108.367-.165.39-.233-.048-.029.256-.013.08.068.141.18.174-.042.61-.056.448-.108.353.369.118.22.019.027.148.11.077.013.151.042.112.137-.027.027.125-.164.016-.07-.025-.054-.077-.042.068-.11-.012-.081.354-.014.112.219.16.029.343.165.075-.057.3-.069-.029v.134l-.1.14-.027.231.1.016.041-.069.042-.085.108.032.1.039-.028.233-.081.158.012.094.125.066-.028.28.1.175v.3l-.015.219.233.042.1-.007-.012.075-.069.013-.016.115.042.195.042.123-.015.1.069.033.109.122v.148l-.262.022-.149,0-.055.057-.042.095-.055.221-.124.114-.108.015-.1.38-.055.505-.068.286-.069-.041-.151.089-.136.293-.07.233.027.163-.164.341-.1.447-.095.135-.151.266-.015.191-.287.052-.026.439.2.037-.082.44-.465.018-.371-.03-.314.009-.44-.059-.357-.054-.205-.022-.453.061.013.361.208.633.1.427.04.4-.013.293-.151.005-.081.317-.166.449-.1.158.357.063.069-.086.3.066.246.026-.012.082.4.372.329.293.178-.262.165-.331.248.066-.015.226.028.254.042.136v.366l-.07.189.273.155.261.122.041.089.92.483.164.027.22.075-.055.141-.015.033-.1.131-.152.326-.081.019-.069.387v.131l.344.088.136.014-.012.508-.028.215-.1.38-.042.121-.042.491-.068.422-.027.064-.563-.116-.137.042-.013.254-.084.362-.178,0,.042.584-.437-.022-.1.335-.151-.022-.273.571-.439.461-.123.179-.137.232-.153.282-.136-.07-.083.284-.151.333-.164.377-.192-.026-.166.41-.192-.061-.123.359.3.1-.15.186-.1.082-.26.388.056.232.973.427.013.469-.056.442-.383-.013-.1.609-.068.01-.07.332.028.107v.494l-.057.4-.2.959-.137.8-.138.292-.109.23-.069.317-.11.943.056.027-.166.489-.109.426-.234.645-.382.809-.191.371-.056.466-.04.352.028.757,1.04-.262.506-.127h.056l1.166-.015,1.892-.086-.165.62-.11.113-.067.329-.122.623-.027.2-.151.532-.124.433-.027.166-.26.661-.138.286-.068.177-.083.24-.094.429-.042.183-.095.413.109.03-.151.554-.055.379.027.115-.014.068.371-.157.165.046.026.074-.055.244.015.178.028.062.273.222.125.061.164-.02.313.055.206.1.22-.1-.11.586-.013.412-.084.207.014.328-.083.314-.165.035-.191.044-.1.091-.109.073.068.17-.177.3-.37.3-.083.3v.412l-.1.679-.028.553-.165.645-.341.532-.1.208-.289.76-.618.156-.424-.052-.439.1-.261.147-.492.048-.493.065-1.016.191-.439.151-.287.144-.357.322-.233-.014-.509-.112-.437.13-.425-.089-.481.08-.589-.174-1.3-.25-.4-.168-.673.063-1-.354-.59.019-.55-.029-.1.2.07.4-.425.426-.549.35-.563.42-.547.45-1.084,1.268-.329.225-.534.222-.715.191-.356.088-.151.728-.152.764.11.564.083.229.191.171.234.438.151.166.315.753-.07.255.125.34.233.145.261.3.191.439.207.775.026.3-.22.31v.333l.713.412.055.555v.515l.082.29-.343.1-.44.039-.507.92-.26.13-.508.05-.7-.094-.176-.181-.508-.5-.739-.632-.358-.286-.426-.221-.384-.309-.178-.322-.123-.118-.371-.2-.179-.044-.26-.049-.466.065-.343-.066-.259-.044-.275-.066-.728.286-.232-.045-1.017-.41-.479-.331-.684-.547-.22-.2-.205-.225.205-.921v-.281l-.027-.133-.151-.161-.014-.524.11-.377-.07-.62-.4-.487-.754.027-.837-.274-.659-.332-.4-.408-.588-.235-.919-.513-1.084-.2-.754-.088-.385.019-.381-.081-.564-.051-.437.016-.481-.259-.275-.1-.315-.028-.658,0-.482.094-.272.093-.384-.115-.755-.115-.52-.1-.165-.878-.3-.422-.288-.528-.109-.682.139-.236.026-.156-.026-.164-.236-.311-.424-.677-.138-.572-.192-.574-.52-.3-.466-.341-.275-.312-.219-.254-.1.2-.177.143-.07.181-.357.151-.164.037-.152.091-.234.1-.288.213-.356.2-.384.235-.37.078-.494-.036-.864-.053-.3.015-.177.074-.276,0-.52-.013-.068.038-.51-.085.028-.064-.327-.195-.374-.251-.189-.042v-.122l-.74-.437-.425-.3-.315-.068-.838-.233-.247-.066-.562-.208-.3-.022-.4-.047-.274-.011-.341-.067-.439.011-.125.1-.054.133-.247.078-.122-.015-.014-.148-.055-.085-.137-.133.027-.243-.027-.235v-.106l-.055-.294.055-.292v-.387l-.07-.018-.013-.338-.041-.39-.027-.535-.865,0-.506.216-.549.354-.178-.005-.151-.04-.153.048-.492-.071-.727-.085-.04-.2-.042-.114-.164-.021-.179.1-.138.037-.192-.083-.109-.023-.028.1.056.041v.183l-.51.026-.04-.108-.082-.033-.233-.052-.275-.068-.108.007-.029.059-.22-.065-.068.152-.315-.039-.108-.127-.219-.038-.178.044-.245.105-.288.048h-.523l-.3.124-.068.048-.4.108-.084-.117-.1,0-.042-.025-.164-.112-.136-.15-.029-.182-.013-.027-.124.059-.082-.022v-.082h.164l-.027-.081-.1.005-.042.021-.166-.1-.053.011-.069.03-.041-.075.053-.2-.082,0-.056-.053-.191.175-.125.073v-.085l-.04-.071.081-.189.083-.246-.193-.139-.354-.132.014-.152-.042-.077-.094-.053-.329.053-.111-.007-.109-.062-.055-.119.084-.118-.262-.021-.521-.1-.261-.062-.659-.17-.411-.109-.453-.063.055-.462-.068-.266-.041-.17.041-.1.068-.056.1-.23.081-.4.014-.164.055-.347.151.046.137-.459.33.008-.014-.405.068-.087.082-.11.029-.229.1-.118.109-.149.056-.089-.1-.106-.137-.125-.167-.1v-.114l.152-.155.123-.086.084-.071.012-.064-.191-.083.014-.126.1-.1.137-.16.083-.166-.028-.067-.123-.007v-.129l.041-.025.164.044.094.03.056-.056-.028-.09-.1-.079-.082-.021-.028-.082.041-.042.1-.018.123-.091.11-.022.164-.043.083-.138-.015-.132V707.5l.124-.122.192-.041.205.124.234-.176.248-.153.165-.181.082-.145.055-.212-.11-.1-.206-.126-.054-.174.026-.09.042-.107-.042-.113.081-.252.233-.077.112-.026.052-.65h.15l.192-.654.15-.514.042-.09-.275-.292V703.1l.028-.227.069-.392.1-.318-.015-.284-.1-.8.11-.518.068-.072.083-.147.258-.17.331-.08.272-.346.084-.451-.125-.7-.013-.17.426.137-.028-.1.152-.228-.042-.214-.205-.121-.054-.144-.056-.254-.4-.534-.273-.412-.166-.493-.262-.455-.136-.366.1-.323.287-.244.26-.26.372-.156.137-.218.012-.383-.026-.207.261-.409.233-.1.659-.139.589-.068.508-.411.3-.317.468-.351.1-.243v-.2l-.137-.3-.248-.716.014-.388.287.136.056-.115.178-.156.152-.169.054-.09.1-.118-.014-.31.152-.08.4-.153.246-.2.068-.4.167-.406.095.051.22-.164-.042-.226-.083-.075.29-.214.342.081.193-.068.411-.073.726-.252.288-.347.042-.158.011-.106-.189-.1-.139-.18-.026-.263.123-.17.111.054.068-.054.11-.142-.015-.122-.123-.318-.014-.274-.2-.37-.275.049-.424-.3-.2-.622.052-.254v-.231l-.122.057-.192-.093-.192-.3-.125-.419-.028-.073.084-.229-.452-.361-.372-.491-.151-.186-.179-.207.193-.037.054-.059.221.059.082-.055.042-.213.027-.473-.015-.427-.026-.439-.315-.095-.179-.041-.384.077-.165-.076-.165-.225-.328-.565-.07-.247.123-.241.248-.04.137-.188-.328-.21-.083-.139.026-.2.152-.088.028-.248-.275-.412-.356-.4-.274-.337-.23-.251-.165-.185-.248-.078-.26-.034-.165-.54-.466-.591-.028-.36.123-.413.124-.3.014-.263-.152-.477-.152-.435-.479-.723v-.057l.1.037.054.029.165.24.124,0,.137-.034.247-.136.207.008.273.062.807.332.523.162.245.114.276.088.3.122.081,0,.11-.027.125-.041.094-.065.178-.2.138-.224.288-.059.164-.155.1-.165.122-.185.221-.095.218-.284.111-.182.123-.219.069-.078.068.015.1.049.028.047-.015.038.015.056.067,0,.136-.026.012.044v.078l.1,0,.068.025-.012.074v.119l.028.137-.016.036-.012.038.028.1.041.019v-.081l.014-.085.039-.026.069.037.07-.07.1.03.123.065.069.055.055-.068.122.059-.027.085.055.069.04.057.166.029.055.1.191.033.193.049.041.155.013.069-.013.07.205.045.232.1.236.085-.015.2-.027.342-.041.132-.1.229-.123.267-.042.121.016.065.041.074.231.172.248.1.123.028.151,0,.125.014.494.089.217.079.384.108.287-.161.1-.042.33.029.356.062.288.069.371.171.178.116.193.1.3-.03.22-.084.686-.355.615-.583.59-.786.548-.587.536-.829.342-.5.331-.542-.014-.386.041-.664.22-.088.289-.2.287-.4.3-.558.094-.122.163.037.068.2.1-.276-.042-.118-.109-.1.041-.082.165-.1.084.1.108.022.165.038.205-.026.1.074.1-.138.11.165.151.068.261-.052.179-.027.013-.129.042-.19-.1-.053.015-.2.081-.008.165.1-.041.154.177-.035.1-.093.124.015.125-.006.082-.176.151.132.15-.014.11,0-.026.091-.057.107.057.117.163-.056.083-.085-.014.129-.1.234.163.128.111.07-.028.162.07.094.095.013.1-.054-.053-.1.053-.162.111-.1.151.047-.028.115-.054.028-.056.04-.042.062.015.1.151-.031.19-.111.728-.3-.577-.739-.574-.935-.521-1.378-.11-.377.055-.28.068-.7.48-1.38.153-.794.215-.8v-.882l.042-.476-.134-.906-.055-1.181.354-1.151.371-.743.274-.205.577-.513.658-.272.522-.185,1.383-.174,1.084-.416,1.358-.3.836-.624.959-1.087.33-.453,1.344-1.381,1.276-1.794.356-.816.465-1.491.453-2.106.231-1.6.522-1.818.152-2.781-.437-1.408-.345-1.256-.547-1.231-.878-1.212-.273-.238-.4-.462-.055-.126.247-.72.015-.159.094-.127.1-.126.123.021.124-.23.082-.125.067-.045.344-.04.148-.022.33-.058.136-.088.125.04.438.028.673-.078.3.023" transform="translate(-2218.51 -621.478)"  stroke="#fff" stroke-linecap="square" stroke-linejoin="bevel" stroke-width="1" fill-rule="evenodd"/>
      <text id="talId366count" transform="translate(34.336 65.498)" fill="#fff" font-size="10"  font-family="OpenSans-Bold, Open Sans" font-weight="700"><tspan x="0" y="0"></tspan></text>
    </g>
  </g>
</svg>
