<svg xmlns="http://www.w3.org/2000/svg" width="176.618" height="300.536" viewBox="0 0 176.618 300.536">
  <g id="Buldhana" transform="translate(-463.434 -1181.284)">
    <g id="_223_Sangrampur" data-name="223 Sangrampur" transform="translate(589.293 1181.921)">
      <path id="talId223" fill="#7DB8EC" data-name="Sangrampur" d="M1592.4,633.419l1.17-.983,1.561-.333,1.361-.249.4-.149.729-2.248.385-.683.265-.433.155-.549.019-.95.045-.982.548-.15.2-.35.337-3.047.284-.549.466-.2.329-.249-.2-2-.832-.666-.329-.583-.421-.451-.127-.166-.072-.966.2-.667.385-1.448.338-.466.84.35.6.633.868.4h.5l.027-1.082.036-2.015-1.187-.1-.63-.016-.667-.034-.284-.2-.2-1.048-.228-.766-.1-1.232.1-.649-.164-.983-.823-.982.219-1.4.037-1.365.081-1.132.083-.933.411-.6.621-.1,2.429-.133h.384l.483-.583-.347-.516-.42-1.149.147-.566.849.133.374-.05.566-.249.366-.617.182-.733.083-1.182.21-.749-.365-2.148-.027-1.183v-.816l-.164-.716-.458-.466-.182-.733.154-.482,1.042-.133-1.1-1.4-.448-1.649-.1-1.6-.529-1.582-.411-1.793.192-.123.182-.269.293-.366.338-.409,1.178-1.482.365-.6.1-.7-.146-.628-.219-.584.008-.477-.09-.634.319-1.039.1-.875.385-1.1.439-1.19.794-.926.548-.533.347-.241.43.123.539.162.539.218.393.2.265.08.274.005-.046-.533.128-2.368.083-3.007.128-2.47,1.562-.392,1.151-.093.658-.39.328-.312.511-.39.429-.042.494.1.338.129.722.319.611.206.759-.017,1.526.118.666-.034.412-.011.256-.247.373-.27.6-.023.338.292.227.37.2.28.192.293.375.28.666.325.246.494.1.516.009.91.036.707.329.426.219.493,1.069.2.109.786.246.4.3.168.384.224.055.427-.22.527-.164.315-.311.347-.456.348-.191.7.2.842.447,1.032.292.55.384.281-.173.5-.174.381.467.393.584.517.2.191.328-.528.549-.18.447-.011.319.247.01.415.3,1,.493,1.582-.027,1.01v.662l.027.628.229.28.3.186.584.169.219-.006.411-.056.421.068.292-.034.393.061.192.091.211.466-.064.065-.083.025-.42.154-.429.135-.255.1-.155.112-.439.286-.182.222-.073.207-.036.141-.018.477.018.359.091.379.219.474.357.682.265.538.238.556.109.55-.027.62-.109.548-.118.521.018.443.1.172.119.173.091.337-.055.3-.1.281-.219.628v.385l.027.212.147.188.227.185.357.21.219.3.1.246.091.345.247.812.036.353.163.272.266.367.219.1.283.087.237.057.055.145-.009.224-.1.23.009.757-.118.371-.082.451-.147.247.156.171.109.283.018.276.01.216-.073.249-.274.434-.165.364-.32.583-.2.508-.183.723-.247.439-.283.154-.3.177-.31.211-.255.193-.192.187-.156.539.046.44.137.73.092.455.274.516.292.141.484.011.292.045.392.123.147.236-.009.253-.2.88-.091.921.019.555.009.555-.027.314-.118.163-.375.006-.3-.011-.247-.012-.457.028-.118.915-.082.494-.147.309-.329.163-.31.168-.292.185-.42.18.019.375.09.175.412.095.31.387.018.466.164.348.183.1.182.314-.055.331-.119.342-.21.2-.019.3.22.141.384.027h.247l.118-.017.164-.09.1-.578.1-.09.886.046.612-.029.649.056.337.039.191.18.01.2.027.258.192.32.191.173.091.27.166.058.228.063.081.27.137.171-.092.2-.054.179-.072.175.118.375v.091l-.209.159.119.241.036.133-.054.158-.073.062-.146,0-.018.092.018.083.037.088-.037.117-.082.066-.1.138-.008.072.073.02.083,0,.046.032-.018.073-.009.061.009.046.027.092.028.168.027.1.01.063v.052l-.083.012-.054.018-.037.025-.109.077-.841.11-.613.038-.474.037-.556.054-.384.092-.238.208-.3.228-.073.479-.018.321-.056.687-.009.275.191.125.42-.021.412-.008.365.067.118.175.046.3-.018,2.169-.01.687.338.191.466.058.494.1.457.083.885-.216.621-.059.466.013.328.117.146.258.311.3.448,0,.392.046.092.137-.164.1-.265.038-.328.075-.175.213-.018.224.036.188.109.228.138.213.136.312.273-.017.064.183-.091.137-.164.237-.2.2-.247.029-.311-.095-.21-.109-.328-.23-.33-.1-.283-.025-.392-.033-.63-.167-.522-.208-.319-.058-.291,0-.064.2-.037.263-.027.282v1.328l-.156.537-.1.342-.028.316-.036.912-.055.224-.32.03-.3-.08-.255.067-.219.145-.457.758-.365.753-.1.212v.213l.137.15.392-.058.3-.025.357.008.256.021.209.079.22.179.073.109.219.324.064.417-.09.487.017.774.082.329.256.47-.082.441-.274.5-.4.583-.228.236-.319-.008-.375-.174-.283-.088-.275-.083-.209-.058-.128-.037-.073-.067-.118-.15.036-.187.265-.158.173-.1.2-.179.183-.133.119-.107.018-.159-.128-.15-.119-.049-.228-.058-.127-.042-.092-.062-.073-.233-.064-.229-.119-.312-.065-.183-.393-.238-.365-.087-.246-.021-.255-.079-.384-.133-.2,0-.274.067-.246.079-.209.1-.695.246-.256.067-.356.02-.3-.037-.338-.142-.146-.207-.283-.267-.173-.221-.257-.225-.155-.3-.173-.167-.183-.058-.182.074-.137.121-.164.146-.329.112-.21.058-.192.059-.52.216-.065.1-.046.192-.045.192-.073.2-.229.125-.328.112-.31.062-.649.026-.6.129-.246.138-.193.1-.265.146-.246.1-.3-.07-.229-.279-.164-.245-.219-.179-.255-.13-.266-.02-.283.012-.859.1-.74.038-.438-.008h-.329l-.475.174-.219.155-.119.179-.073.166-.018.163-.4.058-.794-.233-.182-.117-.557-1.032-.366-1.182-.712-.915-1.471-.084-.748.95-.165.4-.284.35.2.45.485.267.4.35.1.482-.467.117-.8-.067-1.918-.6-.576.216-.464.116-.457-.049-.329-.5-.155-.566-.594-.833-.466.267-.62.35-.567.566-1.032.566-.248-.017-.363-.15-.339-.283-1.16-1.049-.337-.084-.229.433.229.482.2.317.037.35-.319.583-.329.25-.722.133-.8-.182-.667-.3-.421-.516-.2-.45-.466-.266-.712.25-.867.166-.649.284-1.534.882-.713-.033-.484-.566-.018-.833.319-.782" transform="translate(-1592.08 -558.169)"  stroke="#fff" stroke-linecap="square" stroke-linejoin="bevel" stroke-width="1" fill-rule="evenodd"/>
      <text id="223" title="Sangrampur"  transform="translate(8.871 48.62)" fill="#fff" font-size="13"  font-family="OpenSans-Bold, Open Sans" font-weight="700"><tspan x="0" y="0"></tspan></text>
    </g>
    <g id="_216_Jalgaon_Jamod" data-name="216 Jalgaon Jamod" transform="translate(546.672 1200.5)">
      <path id="talId216" fill="#7DB8EC" data-name="Jalgaon Jamod" d="M1572.192,634.32l-.63.083-.557-.063-.365-.137-.247-.135-.119-.177-.292-.457-.092-.454-.146-.321-.264-.375-.32-.12-.594-.026-.219.058-.311.117-.831.6-.485.046-.6.112-.347.125-.4.15-.211.3-.5.941-.411.562-.228.279-.53.221-.219-.067-.338-.171-.4-.166-1.287-.733-.723-.059-.474-.117-.292-.179-.557-.666-.274-.383-.548-.3-.556-.475-.347-.1-.338.021-.284.1-.739.624-.412.258-.4.108-.448-.029-.338-.092-.292-.257-.319-.229-.311-.259-.613-.358-.492-.266-.512-.071-.356-.166-.209-.23-.293-.491-.329-.2-.393-.008-.256.067-.219.15-.292.237-.7.649-.419-.062-.429-.175-.465-.267-.493-.217-.347-.19-.238-.146-.767-.292-.393-.112-.292-.045-.164-.067-.21-.082.019-.087.008-.2.028-.514.018-.109-.009-.093-.009-.076.027-.068.073.019.064.042.045.034.064.025.118.029.119.027.082.029.064.022.091.049.109.021.046-.022.046-.038.036-.084.045-.047.083-.069.2-.138.009-.067-.009-.064-.009-.076-.018-.067-.065-.051-.026-.046-.047-.053v-.07l.009-.253-.036-.051-.037-.062-.027-.066v-.047l.046-.052.073-.023.247,0,.127.012.1-.007.045-.015.019-.057v-.194l.019-.092.073-.069.1-.069.073-.028.091-.032.128-.056.064-.1.028-.248.027-.038.165-.153.238-.167.164-.136.238-.189.246-.236.567-.191.118-.125.081-.241.009-.283-.045-.391.137-.13.32-.017.849.125.521,0,.485,0,.264-.122.128-.157.192-1.086.109-.758.238-.526.247-.7.109-.407.265-.7.063-.472.146-.572.082-.325.1-.514.036-.376.137-.436.128-.616-.183-.042-.1-.026-.082-.077-.027-.2.073-.058.11-.152.055-.085.037-.042.073-.032.091-.11.128-.2.119-.1.1-.1.074-.037.073-.03.063-.018.11,0,.036-.006.037-.026v-.049l-.01-.131v-.047l.01-.064.036-.054.091-.068.119-.088.027-.049.028-.069.018-.068-.01-.044-.037-.053-.009-.034.018-.083.064-.071.046-.042.045-.038.018-.038v-.11l-.037-.025-.055-.011-.063,0-.092-.025-.018-.022.018-.051.092-.172.027-.034.083-.084.037-.048-.009-.049-.045-.113-.046-.139-.009-.052V613.5l.037-.061.064-.076.164-.122.083-.033.054-.016.046-.029.019-.029V613.1l-.019-.047-.018-.039-.019-.057-.018-.073-.028-.066-.045-.156-.028-.171-.009-.068-.028-.094-.045-.07-.174-.093-.082-.163-.056-.164-.045-.077-.119.018-.046-.07v-.073l-.037-.12-.027-.1-.1-.015-.1-.164-.045-.117-.028-.185-.045-.077-.019-.081.019-.05.009-.1-.054-.1-.11-.124-.182-.353-.219-.629-.036-.366-.156-.458-.192-.308-.11-.388-.036-.291-.036-.287-.019-.246-.036-.267-.074-.516v-.179l.028-.229.037-.157.073-.238.11-.425.064-.287-.191-.166-.511-.534-.365-.313-.109-.258.264-.415.393-.32.785-.545.338-.118.466-.051.5-.056.677-.034.547-.068.274-.045.265-.219.238-.09.6.05.448.023.119-.275.01-.466.045-.487-.091-.421-.1-.314-.118-.259-.164-.376.091-.229.739-.04,1-.023.666.017.576.028.867.162.786.1.521-.028.338-.309.036-.416.246-.308.457-.085.584-.061,1.643-.073.083-.606-.083-.521-.064-.286-.32-.612-.1-.544v-.286l.265-.264.62-.55.137-.819-.045-.628.5-.219.8-.27.375-.016.5-.112.421-.118.337-.051.375-.326.01-.129-.348.006-.383-.016-.283-.107-.219-.162-.247-.55.11-.3.347-.18,1.306-.305.521-.311.091-.258-.045-.4.018-1-.046-.908.055-1,.247-.578-.027-1.207.046-1.2.119-.9.565-.4.412-.5.373-.595.448-.578.338-.185.52.185.21.185.265.056.3-.2.128-.218.311-.012.082.253-.145.32v.309l.164.186.393.112.256-.039.32-.185.183-.287.109-.375.109-.2.192.241.183.252.521.37.63.275.749.269.484.241.859.393.511.219.448-.169.5-.476.594-.315.712-.376,2.082-.83.768-.532.648-.562.712-.225.9-.061.676.168,1.232.381,1.4.46,1.882.37.931.163,1.205.208.567-.051.5-.2.366-.23.548.2.493.669.3.3.356.208.21.123.411,1.793.531,1.582.1,1.6.447,1.649,1.1,1.4-1.041.134-.155.482.182.733.457.466.164.716v.816l.029,1.182.364,2.148-.209.749-.083,1.182-.182.732-.366.617-.566.25-.373.05-.851-.134-.146.567.42,1.149.347.516-.484.582h-.383l-2.43.134-.622.1-.411.6-.083.932-.082,1.131-.037,1.366-.219,1.4.823.982.164.983-.1.649.1,1.232.229.766.2,1.048.284.2.667.034.63.016,1.187.1-.037,2.015-.027,1.082h-.5l-.868-.4-.6-.633-.84-.35-.338.466-.385,1.449-.2.667.073.965.128.166.421.451.329.582.831.666.2,2-.329.249-.465.2-.283.55-.338,3.047-.2.349-.548.15-.046.982-.018.95-.155.549-.265.433-.383.683-.73,2.248-.4.15-1.36.249-1.562.333-1.169.983-.063-.483-1.288-.75-.429.633-.4.733-.6.6-.529.166-.4-.133-1.041-.383-.823-.317-1.013-.349-.7.016-.493.466-.055.7-.484.3-.648-.133-.23-.332-.265-.516-.319-.6-.521-.616-.693-.35-1.534.017h-1.563l-2,.466" transform="translate(-1544.7 -578.558)"  stroke="#fff" stroke-linecap="square" stroke-linejoin="bevel" stroke-width="1" fill-rule="evenodd"/>
      <text id="216" title="Jalgaon Jamod"  data-name="Jalgaon Jamod" transform="translate(13.492 33.041)" fill="#fff" font-size="13"  font-family="OpenSans-Bold, Open Sans" font-weight="700"><tspan x="0" y="0"> </tspan></text>
    </g>
    <g id="_224_Shegaon" data-name="224 Shegaon" transform="translate(566.623 1255.381)">
      <path id="talId224" fill="#7DB8EC" data-name="Shegaon" d="M1569.162,673.481l-.9-.129-.74-.071-.474-.1-.393-.075-.211-.257.283-.221.128-.179.065-.42.1-.828.786-1.395,1.16-.1.566-.467.6-.8.933-1,.464-1.165.266-.849.32-1.016.182-1.232.813-3.363,1.388-2.348,1.2-.166,1.2.083,1.27.083,1.1.1.667-.133.529-1.765.037-1.1-.018-.917.3-.782.9-.783.685-.565.648-.649.685-.617.164-.65-1.361-.35-1.616-.633-.95-.3-2.384-.733-1.361-.582-1.3-.733-1.333-.75-.174-.565-.082-.95.219-1.015.146-.883.073-.8.227-1.382.118-.383,2-.467h1.563l1.534-.016.694.35.521.615.319.6.265.516.229.332.648.134.484-.3.054-.7.493-.466.7-.016,1.014.349.822.317,1.041.383.4.133.53-.166.6-.6.4-.732.43-.633,1.287.75.064.483-.32.782.018.833.484.566.712.033,1.535-.882.649-.283.867-.166.712-.25.467.266.2.449.42.516.667.3.794.183.722-.134.33-.249.319-.583-.037-.35-.2-.317-.228-.482.228-.433.338.083,1.16,1.048.338.283.365.15.246.017,1.031-.566.566-.566.622-.35.466-.267.594.833.155.566.329.5.456.05.466-.116.576-.216,1.918.6.8.066.466-.117-.1-.483-.4-.35-.483-.266-.2-.45.283-.35.164-.4.749-.95,1.47.084.713.915.365,1.183.557,1.032.183.117.795.233.4-.058.018.221.182.209.247.178.31.109.3.088.137.146.01.167-.119.233-.33.292-.136.208-.073.137v.179l.3.146.22.012.391-.116.329-.125.32-.166.183-.047.256-.008.31.13.091.078.018.117v.137l-.119.163-.082.162-.036.174.017.171.083.125.146.075.512.179.3.229.183.109.255.108.11.026.192-.058.137-.08.137.021.082.112.091.142.027.208-.055.171-.137.382-.063.471.036.125.073.062.238.017.209.038.292.041.155.208.146.187.183.355.484.615.246.091.229-.075.164-.062.229-.187.136-.162.146-.208.119-.4.191-.071.2.067.219.141.293.016.173-.025.265-.062.282-.037.219-.017.183.108.192.15.1.142.036.137.036.279.01.225-.036.246-.055.174-.045.117v.141l.027.121.356.324.1.258.046.15.009.192-.036.134-.192.075-.128.1.009.408.137.166.091.1.092.018.21-.05.137-.091.129-.084.182,0,.256.025.328.208.329.275-.055.2-.137.171-.047.17.037.225.155.283.356.371.521.4.256.2.292.241.091.067.155.125.046.179-.055.179-.081.225-.064.1-.229-.016-.174-.029-.11.05-.027.075.055.2.073.192.045.212-.055.15-.1.079-.1.071-.246.108-.118.038-.037.312-.2.146-.21.046-.219.109-.083.212.046.3-.119.824-.146.121-.192.15-.146.179-.046.171v.537l.091.371.055.183.155.346.11.391.082.192.183.125-.01.2-.292.016-.273.034-.238.033-.42-.016-.211.1-.073.161-.191.338-.055.325.01.229.1.341.045.329-.018.774-.165.354-.064.332-.238.662-.037.533.082.466.128.737.711.233.438.07.466.117.347.05.932.017.42.012.255.092.357.266.164.159.192.415.082.679.22.574.145.23.11.158.21.166.146.176.092.171.037.058.073.2.064.163.073.233.018.454-.173.52-.083.291-.037.379v.334l.028.22-.1.266-.193.4-.319.349-.256.338-.411.367-.3.337-.219.163-.265.225-.256.086-.182.125-.173.329-.092.542-.018.454-.4.707-.192.667-.119.358.028.287.073.233.11.224.128.334.018.291v.166l-.01.2.063.146.082.162.2.162.137.05.275.037.191.026.283.054.229.125.046.108.045.3-.01.216-.036.242v.2l-.129.188-.357.13-1.269.358-.328.171-.138.124-1.306.288-.7-.045-.475.054-.32.062-.191.109-.1.2-.238.4-.311.3-.119.3-.018.349-.137,1.12-.119.4-.09.242-.284-.071-.22-.187-.219-.129-.21-.042-.145.117-.065.2-.009.225-.273.712-.047.379.009.254.147.238.137.138.383.041.419.045.55-.058.693.137.713.221.165.1-.091.371-.091.316-.092.3.01.166.146.592.073.525-.037.641v.441l-.192.973-.329.291-.31.358-.193.583-.1.45.018.316.466.1.676-.066h.466l.612.083.457.108.338.167.292.041.329-.1.328-.018.465.026.22.208.064.266.375.584v.308l-.255.158-.193.291-.265.375-.275.524-.2.492-.191.657-.12.366-.119.234-.11.416-.667.517-.483.5-.366.366-.786.666-.913.449-.6.15-2.147-.616-2.858-1-.621-.533.019-4.2.045-1.932.375-.866.729-1.449-.931-.416-1.635-.35-1.453-.1-1.178-.449-1.278-.749-.42-.833.3-.765-.246-1.349-1.316-.849-.686-.383-1-.283-.731-.333-.018-.482.22-.6-.22-1.149-1.142-.166-.821-1.266-1.745-.682-2.649.033-1.3.783-.585.417-1.068.766-.2,1.115-.813,2.282-1.1-.1.512-1.382-.229-1.232-.238-1.032-.511-.516-2.338-.566-1.325-.533.758-1.565.722-.75,1-.549.821-.017.931.167,1.143.3,1.369.267.484-1.1.448-2.5-.4-1.215-.146-.983-.521-.433-1.278-.067-1.552.3-1.279.666-2.7.067h-2.85L1584.7,675l-2.137.316-.613.125-.51-.233.009-.666.209-.475.357-.383.109-.317-.849-.2-1.2-.242-1.453-.241-2.858-.283.238,1.857-.21,1.3-.165-.034-.657-.225-.96-.407-1.534-.6-.548-.208-1.069-.292-.849-.283-.85-.033" transform="translate(-1566.44 -638.971)"  stroke="#fff" stroke-linecap="square" stroke-linejoin="bevel" stroke-width="1" fill-rule="evenodd"/>
      <text id="224" title="Shegaon"  transform="translate(25.541 23.16)" fill="#fff" font-size="13"  font-family="OpenSans-Bold, Open Sans" font-weight="700"><tspan x="0" y="0"></tspan></text>
    </g>
    <g id="_217_Khamgaon" data-name="217 Khamgaon" transform="translate(542.685 1288.518)">
      <path id="talId217" fill="#7DB8EC" data-name="Khamgaon" d="M1540.051,708.99l.686-.054,1.068-.112.421-.3.4-.412.923-.957.255-.433.457-.358.174-.333-.164-.283-.193-.333-.064-.383.137-1.864.311-.817.429-.666.5-.284,1.288-.841,1.26-1.091.475-.374.293-.532.228-.55.118-.532-.018-.342.3-.941-.338.066-.74.308-.676.558-.877.458-.657.267-.475-.233-.055-.5.009-.367-.4-.042-.373.016-.274-.332.045-.408.009-.541.036-.617-.319-.583-.539-.092-1.078.158-.712.025-.466-.025-.521-.008-.768-.059.092-.371.137-.778.256-.766.493-.766.1-.908.091-.566.165-.433.392-.266.457-.184.447.383.384.342.639.042.841.041.475.051.109-.392.037-.675-.046-2.264-.42-.841-.283-.783-.064-.524.165-.532.237-1.266.457-.566,1.087-.408.9-.084.978-.2.446-.35.639.1.457.083,1.388.558.6.225.246.449-.164.592-.366.707-.2.758-.055.907.32.341.913.158.539.042.958-.066.694-.016.566-.067.393-.408.137-.482.082-.517.027-.524.064-.657.146-.366.456-.175.3-.125.256-.441.566-1.957.338-.775.448-.25,1.114.067,1.205-.1,1.3-.017.575.067.667.132,2.274.109.52-.283.375-.516.173-.716.092-.457.091-.908.849.033.849.283,1.068.291.549.209,1.534.6.959.407.658.225.163.034.21-1.3-.236-1.857,2.859.283,1.452.241,1.2.242.85.2-.11.316-.357.383-.209.475-.009.666.512.233.612-.125,2.138-.316,3.023.117h2.85l2.7-.067,1.279-.666,1.552-.3,1.278.067.521.433.146.983.4,1.216-.448,2.5-.484,1.1-1.37-.267-1.142-.3-.932-.167-.822.017-1,.549-.722.75-.758,1.564,1.325.534,2.338.566.511.516.238,1.032.229,1.232-.512,1.382,1.1.1.812-2.281.2-1.116,1.069-.766.585-.417,1.3-.783,2.649-.033,1.744.682.823,1.265,1.142.167.219,1.149-.219.6.018.482.73.333,1,.283.685.383,1.315.849.247,1.349-.3.765.421.833,1.279.749,1.177.449,1.453.1,1.635.35.932.416-.73,1.449-.374.866-.046,1.932-.018,4.2.621.533,2.859,1,2.146.616.6-.15.913-.449.786-.666.365-.366.484-.5.666-.517.256.375.438.142.64.108.694.133.42.016.7.075.383.05.083.324.009.325-.475.766-.156.832-.392.708-.42.949-.036.483.009.474.219.208.9-.016.667-.05.813-.067.556-.1.531-.117.465.125v.241l.091.342.064.217.365.441.448.3.091.275-.056.234-.155.174-.192.208-.055.158v.249l.109.234v.142l-.457.05-.465-.017-.475.008-.512.225-.209.317-.1.217-.53.9-.164.275-.211.308-.137.35.082.3.284.1.648.033.538-.033.329-.008.265.058-.018.417-.2.6-.065,1.125-.612,1.649-.392.965-.493,1.149-.32,1.474-.137.966-.128,1.757-.027,1.3-.119.525-.3.366-.794.549-.758.35-.238-.058-.411-.133-.21-.084-.247.092-.3.2.028.425.018.341.146.692-.411.4-.255.167-.256.316-.147.241-.356.125-.348.134-.493.158-.885.316.072-.641.037-.616.055-.617.027-.69-.272-.791-.256-.566-.439-.1-1.023.179-.348.067.019-.263.1-.217.083-.229v-.158l-.174-.021-.155.121-.193.2-.511.158-.247.013-.219.025-.192.021-.182-.054-.1-.171-.137.016-.1.092-.192.349-.137.217-.384.771-.3.786-.119.433-.393,1.036-.119.978-.247.9-.082.338-.009.412.082.246.265.47.037.541.146.309.119.233.174.208.165.174.137.213-.119.191-.219.054-.21.05-.329.038-.21.016-.265.013-.264-.046-.2-.021-.292-.033-.347.1-.146.37-.127.363-.027.329-.256.716-.037.321-.036.287-.85.109-.319.1-.95.05-.932.033-.63.166-.2.766-.595,1.149-.968,1.165-.649.8-.8.533-.913-.25.046-.3.557-.533.429-.6-.319-.433-.859.233-.7.317-.219-.3.256-.567.165-.449-.165-.3-1,.017-.9.284-.238-.417.256-.7.611-.566.549-1.083.9-1.348-.219-.383-.667-.266-.666.366-.3-.117.1-.566-.347-.25-.622.116-.757.416-.667.317-.4.5-.6.832-.666.35-.914,1-1.078,1.831-.667,1.6-.155-.2-.53-.783-.4-.616-.228-.649-.174-.65-.283-.283-.283.6-.365.316-.859-.034-1.187-.167-.95.017-.913-.183-.365-.533-.484-.5-.667,1.032-.3.4-.484.716-.264.716-.083.35-.082.55-2.228-.083-.74-.467-.448-.382-.63-.583-1.562.35-1.653-.7-1.115-.416-.749-.383-.8-.366-.667-.117-.183-.349.092-.649.046-.35-.146-1.382-.658-1.5.319-1.215.247-.8-.128-.616-1.15-.233-.529-.649-.357-.633-.128-.566-1.032.3-1.087.35-.932.233-.749.167-1.48-.15-.631-.15-1.023-.2-1.223-.467-.5-.233-.347-.449-.183-.533-.173-.416-.283-.883-.384-.666-.091-.9.036-.325.037-.7-.3-.125-.128.1-.613.507-.1.467-.283.583-.347.333-1.188.159-.228-.042-1.124-.575-1.115-.2.019.6-.284.9-.3.666-.612.7-.585.249-1.069-.049-1.114-.234-1.05-.565-.677-.534-.538-1.149-.3-.449-.347-.966-.082-.817.164-1.182.1-1-.3-.632.055-1.133.219-.9.631-1.166-.037-.649-1.215-.117-.886.1-.329-.716-1.863-1.932-.7-.6-.876-.6.137-1.374.146-.949.256-.516-.393.117-1.16-.208-1.114.016-.649.017-.383-.067-.5-.508.082-.458.146-.308-.329-.266-.347-.067-.156-.3-.018-.409.027-.407-.182-.4-.356-.275-.265-.241-.274-.55" transform="translate(-1540.051 -675.579)"  stroke="#fff" stroke-linecap="square" stroke-linejoin="bevel" stroke-width="1" fill-rule="evenodd"/>
      <text id="217" title="Khamgaon"  transform="translate(32.478 37.023)" fill="#fff" font-size="13"  font-family="OpenSans-Bold, Open Sans" font-weight="700"><tspan x="0" y="0"></tspan></text>
    </g>
    <g id="_220_Mehkar" data-name="220 Mehkar" transform="translate(549.419 1349.919)">
      <path id="talId220" fill="#7DB8EC"  data-name="Mehkar" d="M1564.01,818.344l.548-1.982.448-.55.53-.383.447-.566.457-.8V813.5l.018-1.048-.183-.533-2.246-.383-.721.083-.832.034-.191-.384.146-.349.365-.442.137-.5-.1-1.449-.641-1.965.183-1.773.055-.708.329-.683.447-1.374.046-.949-.44-.35-.192-.974.091-.491.366-.083.657-.008.914.033.831.042,1.042.233.94.217.447.174.913-.067.2-.482.192-.524.274-.574.256-.558.264-.317.448-.041.421.541.474-.009.714-.441.666-.058.595-.033.593-.034.53.2.712.2.813.075h.858l.74-.175.392-.409.539-.641.393-.691-.466-.582-1.627-.874-.639-.258-1.855-.841-.7.15-.493,1.1-.721.574-.677.416-1.388.217-.666-.042-.329-.124-.366-.259-.447-.1-.5.15-.65.15-.419.016-.411.016-.521-.141-.164-.3-.146-.367-.256-.349-.584-.217-1.05-.05-.585.108-.868.732-.328.542-.6.633-.476.749-.164.55.081.716.036.965-.2.05-.357.033-.357-.158-.155-.317-.265-.65-.118-1.09-.585-1.016.037-.407.247-.442.283-.316.374-.342.43-.749,1.252-1.407.539-.482.858-.6.439-.3.2-.566.065-.408.237-.724.164-.583.028-.583-.036-.716-.064-.608-.43-.449-.813-.375-.63-.35-.3.383-.494,1.09-.164.808-.356.541-.758.267-.712.058-1.425.016-.8.016-.722.251-.657-.117-.429-.316-.42-.325-.694-.192.028-.608-.073-.691h-.6l-1.479.325.045.4v.608l-.146.924-.036.341-.219.208-.228.026-.4.008-.064.375.265.291.091.408-.165.375-.466.342-.383-.092-.421-.366-.375-.474.146-.425-.146-.37-.137-.316-.064-.3-.136-.3-.256-.2-.375-.025-.246.033-.448-.587-.146-.517.328-1.319.082-.217,1.6.084.686.149.264.016,1.032-1.315.3-.683.43-1.648-.631-.9-.621-.333.1-.3,1.2-.932,1.087-1.049.95-.433,1.178-.416,1.452-.8,1.315-.134,1.114.467.266.949-.147,1.382.247,1,.284.932.4.416.685.267.465.382.549.084,1.132-.066,1.334-.883.585-.233.511-.05,1.1.184-.466-.55.256-.283.493-.166.822-.383.712-.166.338-.1.366-.483-.083-.682-.657-.25L1568,778.7l-.812-.516-.42-.6-.229-.332.028-.916.192-.484.566-.733.7-.566,1.516-.965,1.278-.583.722.366.283.8.229.683.338.415.995.05.73-.25.621-.017.849-.016.932-.616.4-.95.11-.482-.027-.649-.119-.45.264-.666,1.664-1.232,1.789-1.265.8-.734.484-.832.228-.45,1.169-2.5.466-.9.284-.683.483-.516.786.067.575.516.257.433.428.633.256.049.265-.449.293-.567.439-.8.566-2.7.886-1.748,1.16-.883.3-.649.137-.583-.337-1.232-.366-.417-.365-.249-1.434-.882-.329-.65-.32-.766-.347-.633-.686-.549.083-.55.081-.35.265-.716.485-.716.3-.4.667-1.032.484.5.366.533.913.183.951-.017,1.186.166.858.034.366-.316.283-.6.284.283.173.65.228.649.4.616.53.783.155.2.667-1.6,1.078-1.831.914-1,.666-.349.6-.832.4-.5.666-.317.758-.416.622-.116.347.25-.1.566.3.117.667-.366.666.266.219.384-.9,1.348-.549,1.082-.611.566-.256.7.238.417.895-.284,1-.016.164.3-.164.449-.256.566.219.3.7-.316.857-.233.32.432-.429.6-.557.533-.046.3.914.251.8-.534.649-.8.968-1.165.595-1.149.2-.766.631-.167.931-.033.95-.05.32-.1.85-.109.165.27.228.155.63.391.192.525.109.328.2.316.211.275.548.558.346.466.229.358.265.3.384.512.165.366v.371l-.1,1.507-.046,1.465.457.175.338.021.3.125.439.374.3.379.073.4.1.312.155.312.183.367.264.132.092.15.082.312-.072,1.2-.375.849-.238.665-.173.313-.356.275-.365.208-.859.174-.43.059-.374.1-.182.145-.054.425-.083.333-.091.3-.173.27-.5.716-.091.358.036.749v.774l-.156.471-.091.312-.083.425-.146.137-.265.591-.173.5-.082.465.32.2.493.2.338.062.466.112,1.379.454,1.106.387,1.233.329.183.129-.1.283-.064.28v.287l.018.2.155.154.338-.112.512-.121.457-.037.483.037.73.067.466,0,.164.222.165.337-.046.554-.073.333-.055.379-.065.345-.082.225.265.1.283.067.293.067.676.071.511.087.411.234.347.328,1.005.691.32.366.183.112.192-.161.046-.288.027-.345.055-.25.2-.024.237.125.293.134.365.132.877.112.758.138.684.079.293.108.721.438.11.25-.018.249-.009.321-.055.175-.328.271-.1.2-.037.853-.109.675-.183,1.161-.1.47-.11.467.174.408.547.279.255.175.43.092.32.037.9-.1.611-.046.421-.029.347.055.192.121.1.158.092.233.155.412.219.547.21.216.237.046.229-.067.33-.1.392-.116.5-.15.584.926.384.635.074.22.1.317.119.35.109.291-.137.525-.283.212-.182.15-.156.113-.119.162-.045.229.082.216.128.25.037.271.063.7.147.367.082.521-.019.612-.091,1.079-.192.453-.255.609-.092.283-.5.624-.485.525-.392.337-.238.246-.347.632-.091.341.028.279-.055.233-.173.067-.192-.1-.237-.12-.356-.087-.356-.02-.6-.1-.649.249-.192.225-.667.825-.347.674-.356.953-.138.246-.31.191-.265.092-.393.024-.73-.192-.758-.217-.547-.187-.686-.308-.84.009-1.233,0-1,.041-.493.121-.312.1-.3.134-.255.2-.082.262-.147,1.133-.063.558.026.316.128.521.109.791.32.45.109.27-.054.649.228.833.073.436-.054.733-.083.45-.1.645.082.187.421.075.292.117.366.158.438.174.311.125.265.179.064.291-.092,1.3-.164,1.365-.083,1.39-.165,1.541.055.716-.109.3-.293.138-.264-.013-.64-.145-.429-.063-.959.1-.6.317-.485.046-.265-.013-.238.042-.246.2-.43.283-.292.017-.2-.083-.183-.279-.5-.192-1.023-.016-.53.171-.383.1-.3.088-.476.132-.456.217-.338.121-.4.041-.8-.086-.831.112-.384.116-.566.112-.631-.2-.6-.087-.467-.041-1.242-.258-.61-.171-.649-.134-.284.037-.255.113-.147.3-.109.316-.174.4-.265.25-.3.212-.484.312-.476.437-.082.367-.028.453.229,1.042.064.745.164.77-.365.241-.348.213-.309.32-.394.346-.246.294-.147.8-.255.871-.037,1.723v.949l-.382.057-.311.009-.22-.067-.246-.058-.2-.042-.255,0-.229.083-.174.07-.1.009-.164-.046-.055-.1-.054-.184-.037-.312-.119-.308-.2-.484-.056-.379.019-.262-.118-.254-.2-.145-.338-.142h-.183l-.073.1-.064.274-.063.292-.055.3-.036.349-.01.35-.255.8-.192,1.211-.209,1.207-.256.845-.01.608-.593-.063-.384-.166-.393-.067-.228-.233.018-.467-.018-.674-.155-.692-.649-.915-.319-.616-.174-.608-.474-.266-1.927.233-.913.208-.567.117-.777.116-.977.167-1.142.067-.31-.275-.009-.491.028-.6-.028-.184-.557-.067-.5.034-.064-.55-.667-1.232-.357-.317-.685-.308-.511.016-.758.018-.75-.192-1.561-1.44-.393-.474-.512-.591.083-.549.412-.558.018-.408-.421-.249-1.461-.359-.383-.166-.211-.342-.046-.608-.292-.092-.548-.257-.393-.242-.137-.417.128-.424.292-.8-.156-.182-.456-.058-.648.291-.539.292-.366.349-.4.816-.3,1-.375.292-.511.508-.357.35-.11.374.027.441.466.791.027.3-.4.291-.311.008-.675-.133-.649.033-.722-.024-.566-.059-.676-.091-.347-.374v-1.133l-.274-.3-.3-.167-.657-.05-.823.151-1.232.507-.512-.042-.429-.121-.366-.083-.529-.038-.758-.053-.813-.2" transform="translate(-1547.68 -742.997)"  stroke="#fff" stroke-linecap="square" stroke-linejoin="bevel" stroke-width="1" fill-rule="evenodd"/>
      <text id="220" title="Mehkar"  transform="translate(42.744 44.623)" fill="#fff" font-size="13"  font-family="OpenSans-Bold, Open Sans" font-weight="700"><tspan x="0" y="0"></tspan></text>
    </g>
    <g id="_214_Chikhli" data-name="214 Chikhli" transform="translate(499.903 1329.32)">
      <path id="talId214" fill="#7DB8EC" data-name="Chikhli" d="M1544.81,788.443l-.522.166-.766.441-.283.125-.539.241-.575.109-.467.316-.94.9-.21,1.041.019,1.058-.073,1.673.073,1,.466,1.989.009,1.324.2,1.04-.009.466-.585.8-1.371,1.922-.456.524-1.151.875-.548.791-.932-.491-.794-.417-.576-.275-.283-.449-.046-.35-.073-.583-.384-.425-.42-.208-.813-.133-.548-.049-.474-.092-.164-.666-.868-.482-.667-.25-.465-.291-.211-.35-.063-.375.063-.466.129-.725-.357-.416-.585-.216-.356.041-.3.258-1.206.666-.685.617-.63.541-.384.366-.557.467-.694.5-.484.308-.338.091-1.972.333-.922.049-.787.125-.474.009-.356-.341-.438-.25-.237-.033-.073.233-.046.254-.018.181-.384.6-.136.591-.119.176-.474-.163-.165-.162-.366-.062-.3.041-.292.2-.182.308-.046.241-.749,1.475-.493.549-1.69.658-.694.158-1.753-.425-1.306-.382-.566-.125-.794-.5-.43-.267-.621-.008-.393.325-.228.349-.9.967-.658.906-.6.734-.466.208-.675.116-.65.283-.684.316-1.443.533-.895.208-.96.174-.922.025-.74-.116-.621-.083-.94-.1v-.245l-.073-.537-.1-.446-.1-.295-.128-.224-.174-.184.136-.562.284-.571.21-.736.282-.234.375.125.3.129.311.092.292.032.256,0,.265-.088.128-.308.064-.329-.064-.329.11-.167.164.017.264,0,.21-.191.045-.5-.027-.283-.073-.27.165-.254.146-.187.439-.512.09-.3.2-.316.137-.242.484-.254.2-.345-.046-.337-.073-.412-.055-.742-.019-.416-.026-.436v-.275l.063-.171.466-.07.4.012.576.025.63-.034.448-.166.273-.446.147-.274.356-.574-.182-.442-.247-.22-.356-.146-.265-.091-.73-.428-.192-.254-.11-.312-.164-.392-.237-.27-.246-.216-.22-.483-.064-.441.146-.257.219-.179.411-.508.192-.454.393-.183.338-.067.565-.212.9-.762.456-.208.485-.12.474-.1.511-.175h.54l.374,0,.283-.1.091-.237.036-.391.074-.724.056-.737.173-1.158.429-.911.494-.424.775-.633.238-.183.118-.25.11-.458.42-.566.347-.77.274-.583.119-.858.155-1.02.192-.274.3-.234.264-.728.211-.446.247-.6-.036-.254-.292-.033-.639.091-.438-.033-1.4-.2-.557-.17-.328-.176-.312.034-.191.171-.11.274-.365.716-.183.183-.338-.034-.4-.174-.346-.179-.421-.2-.092-.158-.064-.33-.119-.187-.228-.038-.3,0-.293.013-.146.02-.375.138-.182.163-.173.041-.576-.008-.53-.021-.347-.037-.155-.041-.064-.213.018-.3.174-.17.255-.167.183-.137.164-.154.238-.549-.018-.35-.256-.217-.5-.275-.366-.425-.366-.316-.238-.146-.319-.158-.329-.15-.393.187-.21.184-.164.145-.319.192-.082-.034-.037-.154.092-.237.092-.287.073-.316.018-.275-.064-.145-.493-.325-.265-.286-.1-.338-.037-.5-.036-.617.11-.428.191-.446-.028-.778.019-.442-.165-.154-.192.116-.219.084-.247-.05-.22-.163-.11-.454-.11-.137-.155,0-.01-.713.485-.75.447-.166.685-.466.685-.516.7-.166,1.1-.1.849-.384.686-.232.511.183.914-.034,1.233-.566,1.169-.5.666-.549.019-.833.2-.233.549-.316,1.315-.384.547-1.649.3-1.315-.785-.05-.42-.865-.027-1.149.767-1.931.063-.983.347-.466.85-.167,1.717-.09,1.132-.061.5-1.448.448-2.3-.365-1.348-.137-.633.018-.433.7-.616,1.809-.033,2.164.265.731-.049.274-.35.009-.35.172-1.8,1.152-.016,1.06.1,1.452.251-.219-1.05.548-1.1.1-.2.5-.182.9.133.823.033,1.233-.083,1.215.016,1.361.516,1.662-1.166.622-.983.229-.915.42-.683,1.269-1.049.028-.766.256-.6.375-.534.656-.6-.182-.3-.759-.683-.027-1.016.164-1.714,1.1-1.9.439-1.082.384-.981.1-.451-.173-.466-.128-.532.566-.667.63-.783.2-.265.428-.666.8-.884.685-.665.694-.566,1.57-.85.877.6.7.6,1.864,1.932.329.716.885-.1,1.214.117.036.649-.63,1.166-.219.9-.055,1.131.3.633-.1,1-.164,1.182.082.817.347.965.3.449.54,1.149.675.534,1.05.565,1.114.234,1.07.049.583-.249.613-.7.3-.666.284-.9-.018-.6,1.114.2,1.123.574.229.042,1.187-.159.347-.332.283-.583.1-.467.611-.508.128-.1.3.125-.037.7-.036.325.092.9.384.666.282.884.174.415.182.533.347.45.5.232,1.223.467,1.023.2.629.15,1.48.15.749-.167.931-.232,1.087-.35,1.032-.3.128.566.356.633.53.649,1.151.233.128.617-.246.8-.32,1.214.658,1.5.146,1.382-.045.35-.091.649.182.35.668.117.8.366.749.382,1.115.417,1.653.7,1.561-.35.631.583.447.383.74.467,2.228.083.685.549.347.633.319.766.329.649,1.434.883.364.249.366.416.338,1.233-.137.583-.3.649-1.159.883-.886,1.748-.567,2.7-.437.8-.293.567-.265.45-.256-.049-.429-.633-.256-.433-.576-.516-.785-.067-.484.516-.283.683-.465.9-1.169,2.5-.228.45-.484.831-.795.734-1.79,1.265-1.663,1.232-.264.665.119.45.027.65-.109.482-.4.95-.932.616-.85.016-.62.017-.732.25-1-.05-.338-.415-.227-.683-.283-.8-.723-.366-1.278.583-1.516.965-.694.566-.566.733-.191.483-.027.916.227.332.42.6.813.516.731.266.658.25.083.682-.365.483-.338.1-.713.166-.822.383-.493.166-.255.283.466.55-1.1-.184-.511.05-.585.232-1.334.883-1.132.067-.549-.084-.465-.383-.685-.266-.4-.416-.283-.932-.246-1,.146-1.382-.265-.949-1.114-.467-1.315.133-1.453.8-1.178.416-.95.433-1.087,1.049-1.2.932-.1.3.622.333.63.9-.429,1.649-.3.683-1.032,1.315-.265-.016-.685-.149-1.6-.084-.082.216-.329,1.319.146.517.448.586.246-.033.374.025.255.2.137.3.064.3.137.316.146.37-.146.425" transform="translate(-1493.68 -719.989)"  stroke="#fff" stroke-linecap="square" stroke-linejoin="bevel" stroke-width="1" fill-rule="evenodd"/>
      <text id="214" title="Chikhli"  transform="translate(38.261 45.221)" fill="#fff" font-size="13"  font-family="OpenSans-Bold, Open Sans" font-weight="700"><tspan x="0" y="0"></tspan></text>
    </g>
    <g id="_218_Lonar" data-name="218 Lonar" transform="translate(543.477 1421.222)">
      <path id="talId218" fill="#7DB8EC"  data-name="Lonar" d="M1563.458,825.119l.813.2.758.054.529.037.365.083.429.121.512.042,1.233-.507.822-.15.658.05.3.166.272.3v1.133l.348.374.676.091.566.058.722.025.648-.033.676.133.31-.008.4-.291-.027-.3-.466-.791-.028-.441.11-.375.357-.35.512-.508.373-.292.3-1,.4-.815.366-.349.538-.292.649-.291.457.058.155.183-.293.8-.127.424.136.416.394.242.548.257.292.092.046.608.21.342.384.166,1.462.358.42.249-.018.408-.411.558-.083.549.511.591.393.475,1.562,1.44.748.192.758-.017.512-.017.686.308.356.317.667,1.232.064.549.5-.034.557.067.027.184-.027.6.009.492.311.275,1.141-.067.978-.167.776-.116.566-.117.915-.208,1.926-.233.474.266.174.608.32.617.649.915.155.691.019.674-.019.467.229.233.392.067.384.166.594.063.493.124.421.059.52.125.612.158.639.051.512.046.85.016.593.054.621.046.693.03.676.05.576-.024.21.1.11.266-.055.512-.018,1.507-.073.569-.283.845-.293.95-.026,1.136-.027,1.161-.137,1.287-.237,1.395-.32.641-.74,1.219-.731,1.053-.165.259-.036.22.1.179.347.237.621.15.448.129.365.092.365.117.247.133.246.146.109.333-.036.225-.1.208-.119.7-.073.629-.055.312-.064.383-.74-.055-.53.042-1,.263-.329.037-.374.125-.457.254-.265.171-.758.379-.255.274-.091.188-.119.32.027.275.054.258.22.383.027,1.082.028.662.073.35.055.565-.018.533-.045.491-.046.27-.328.262-.613.554-.4.259-.356.228-.192.175-.282.158-.375.025-.867.125-.458-.083-.373-.08-.421-.112-.273-.075-.374-.07-.284-.008-.109.219.027.217.155.163.238.195.192.2.119.2.1.328.045.221.182.465.091.234.165.224.073.429.018.354-.018.653-.11.637-.1.212-.191.1-.128.1-.055.317.028.329-.055.762.2.191.338.063.283.1.237.071.841.224.385.122.319-.047.21-.071.264-.253.21-.221.283-.3.22-.138.2-.275.173-.271.165-.187.174-.183.146-.055.621-.021.895.034.712-.088.749-.182.448-.017.329.141.4.254.192.2.336.462.119.3.082.349.046.35-.156.562-.219.454-.283.479-.494.866-.529.862-.411,1.049-.146.275-.165.166-.109.133-.584-.084-.475-.044-.54-.042-.419.013-.356.059-.155.1-.165.3-.173.387-.127.345-.448,1.194-.421.9-.356,1.116-.4.8-.749.292-.785.349-.247.213-.456.179-.191,0-.165-.179-.237-.254-.276-.191-.446-.195-.33-.063-.484-.012-.493.062-.676-.224-.977-.246-.383,0-.4.008-.63.038-.849-.083-.639-.121-.4-.087-.31-.041-.3.012-.109.187-.037.291-.028.246-.055.341-.137.191-.192.008-.32-.058-1.288-.458-1.443-.374-1.68-.387-.612-.042-.328-.191-.165-.2-.246-.725-.073-.595-.118-.333-.037-.266-.018-.292-.128-.267-.174-.146-.027-.3.119-.2.091-.171.065-.2-.037-.221-.173-.1-.292-.2-.685-.361-.612-.246-.3-.1-.247-.037-.265-.054-.128-.125-.091-.216-.037-.208.082-.345-.009-.333-.2-.22-.31-.117-.228-.008-.174.117-.136.167-.183.058-.228.013-.282.02-.521-.137-.229-.27-.191-.342-.2-.39-.338-.5-.119-.355-.055-.321-.182-.183-.256-.117-.229-.091-.136-.121-.311-.279-.274-.175-.247-.141-.21-.166-.137-.771.009-.77-.1-1.011.064-.821.2-.775.146-.549.036-.309-.009-.207-.2-.046-.329-.025-1.143.016-1.159.092-1.37.047-1,.016-.694-.045-.95-.2-.392-.266-.356-.262-.539-.1-.42.049-.319.133-.32.179-.2.171-.173.163-.421.3-.182.142-.256.037-.437-.238-.7-.1-.575-.029-.9-.062-.721-.046-.75.05-1.343-.121-.73.078-.348.088-.137.149-.183.305-.118.34-.375.738v.237l-.009.241-.138.079-.164.209-.329.225-.227.1-.338.166-.229.158-.4.171-.275-.016-.164-.092-.164-.175-.2-.241-.129-.28-.082-.233-.091-.291-.027-.47-.174-.366-.22-.241-.163-.142-.155-.083-.238-.138-.228-.183-.348-.349-.3-.283-.247-.208-.256-.117-.3-.212-.238-.109-.228-.12-.155-.134-.174-.3-.027-.687-.173-.758-.228-.524-.237-.366-.474-.275-.887-.166-1.3.066-1.178.066-.319.1-.539.1-.147-.292-.466-1.024-.1-.225-.209-.3-.384-.251-.456-.108-.466-.191.119-.533.619-1.316.239-.732.146-.941.247-.749-.439-1.116-.037-.749.055-.616.6-.857.054-1.582.037-.433-.183-1.449-.183-2.174.256-.524.347-.249.365-.325.237-.533-.384-.608-.31-.458-.4-.366-.347-.3.31-1.407-.054-.749-.375-.491-.008-.433.21-.308.538-.416.164-.874-.064-.316.019-.375.466-.075.767.125.484.308.448.276.438.116.849.383.969-.033,1.169-.025.576.2.894.349.137,1.574.156.049.758.291.858.608,1.425.5,1.059.233,1.133-.3.565-.2,1.151-.059,1.27-.049,1.022-.075.677-.259.867-.566.046-.541-.183-.458.037-.6.31-.574.091-.483-.018-.416-.383-.324-.475.008-.886.217-.392-.291.2-.8-.137-1.915-.054-.773-.155-.733.027-.533.877-.615.365-.892.1-.491.338-.491.658-.825,1.224-1.49.22-.5.429-.941" transform="translate(-1541.3 -821.189)"  stroke="#fff" stroke-linecap="square" stroke-linejoin="bevel" stroke-width="1" fill-rule="evenodd"/>
      <text id="218" title="Lonar"  transform="translate(24.687 32.319)" fill="#fff" font-size="13"  font-family="OpenSans-Bold, Open Sans" font-weight="700"><tspan x="0" y="0"></tspan></text>
    </g>
    <g id="_225_Sindkhed_Raja" data-name="225 Sindkhed Raja" transform="translate(488.821 1392.654)">
      <path id="talId225" fill="#7DB8EC"  data-name="Sindkhed Raja" d="M1532.575,870.757l-.393-.079-.128-.083-.1-.167-.146-.224-.037-.238-.092-.083-.145.124-.256.363-.228.158-.247.147-.247.1-.355.641-.192.345-.137.279-.147.112-.183.026-.283-.075-.3-.217-.256-.108-1.334-.182-.63-.263-.52-.108-.293-.021-.876-.141-.448-.075-.411-.037-.949-.017-.649-.029-.584.037-.421.165-.219.246-.256.192-.356.129-.329.075-.247-.017-.969-.208-.237-.075-.311.079-.292.183-.31.27-.713.567-.255.362-.21.162-.192.063-.2-.125-.256-.15-.392-.046-1.06-.158-.547-.071-.475-.058-.274.029-.237.088-.164.117-.63.487-.293.129-.319.058-.649-.083-.822.033-.229.225-.1.267-.1.308-.21.328-.219.184-.959.637-.275.32-.292.28-.374.153-.475.021-.429-.07-.731-.117-1.124-.275-1.105-.1-1.205-.2-.822-.2-.429-.026-.246.092-.129.225-.045.241-.019.25-.055.453-.064,1.174-.265.008-.356-.141-.219.024-.137.071-.182.054h-.173l-.22-.042-.466-.324-.118-.4-.065-.466-.2-.5-.192-.57-.173-.533-.191-.462-.128-.446-.118-.241-.238-.163-.357-.128-.483-.071-.274-.021-.439.122-.182.329-.119.245-.156.254-.246.13-.283-.026-.22-.016-.557-.129-.977.15-.9.217-.347.12-.338.063-.283-.063-.091-.1-.082-.332v-.3l-.182-.5-.092-.342-.357-.691-.3-.474-.173-.262-.7-.55-.767-.609-.494-.358-.357-.233-.118-.37.019-.633.054-2.1-.008-2.456-.019-.8-.128-.179-.612-.075-1.435-.321-.794-.267-.475-.245-.292-.208-.11-.379-.146-.637-.045-.5-.2-.521-.128-.27-.21-.125-.347-.2-.346-.3-.274-.342-.3-.288-.1-.279-.009-.166.073-.175.3-.278.092-.437.775.14,1.032-.006,1.005-.212,1.551-.008,1.216.033.511.291.192.275.357.075.465.008.356-.125.338-.35.046-.549.247-.549.356-.633.3-.092.411-.116.255-.433.613-.75.073-.84.274-.65.174-.467.429-.849.858-1.332.52-.6.8-.157.794.017,1.205.14.4.459.547.275.612.2.474.15,1.544.708,1.042-.059.94-.449.238-.766.128-1.124.082-1.149-.137-.574-.265-.15-.448.308-.621-.024-.941-.167-.548-.325-.338-.491-.192-.533.292-.558.484-.1.5-.091.357-.042.51-.25.6-.093.494-.166.218-.716.932-.949,1-1.132.247-.541.036-.459.74-.433.648-.35.493-.274.594-.159,1.105-.041.631.125.657.05.684.316.731-.042.639-.125.494-.116.429-.367.119-.467.2-.549-.228-.624-.9-.382-.593-.259-.439-.208-.192-.35.2-.283.283-.466.175-.391.283-.683.283-.516.347-.492.448-.166.795-.05.813.042.7.057.9.209.549.25.474.483.366.4.311.166.484.017.337-.383.156-.341.31-.175.531.133.438.259.549.316.356.35.4.5.092.45.045.366.073.375.128.375.118.175.447.4.521.317.42-.1.475-.749.073-.382-.374-.342-.091-.591.128-.683.337-.474.055-.358-.155-.775-.183-.208-.493.067-.758.184-.8-.093-.784-.225-.475-.074-.183-.433.1-.666.046-1.357.119-.524.42-.341.84-.516.831-.849.356-.483.795-.459.813.375.685.258.758.275.785.25.438.083.511.008.421-.05.155-.325-.146-.5.037-.5,1.47-1.656.85-.674,1.334-1.24.913-.491.219-.492-.209-.291-.192-.016-.539-.258-.119-1.274-.265-.716-.265-.458.019-.957.1-.774.319-.516.448-.124.539-.125.685-.216.448-.382.11-.566-.028-.891.475-1.324.475-.641.575-.441.365-.991.1-.5-.009-.34.548-.791,1.151-.875.456-.524,1.371-1.922.584-.8.009-.466-.2-1.04-.009-1.325-.466-1.989-.073-1,.073-1.673-.019-1.058.211-1.041.941-.9.465-.316.576-.109.538-.241.284-.124.768-.441.52-.166.375.474.42.366.383.092.467-.341.165-.375-.092-.408-.265-.292.064-.374.4-.008.228-.025.22-.209.036-.34.146-.924V791.5l-.046-.4,1.48-.325h.6l.072.691-.027.607.694.193.42.324.429.316.658.117.722-.251.8-.016,1.425-.016.712-.058.758-.267.356-.541.165-.808.493-1.091.3-.382.63.35.814.374.429.45.064.608.036.716-.027.583-.164.583-.238.724-.063.407-.2.567-.438.3-.859.6-.538.483-1.251,1.407-.43.749-.375.342-.282.316-.246.442-.037.407.584,1.016.119,1.09.265.65.155.317.357.158.355-.033.2-.05-.037-.965-.082-.716.164-.55.475-.749.6-.633.329-.541.868-.733.584-.108,1.05.049.585.216.256.35.146.366.164.3.521.141.411-.016.42-.017.649-.15.5-.15.448.1.366.259.329.124.667.042,1.389-.216.675-.417.722-.575.494-1.1.7-.15,1.855.842.639.258,1.626.874.465.583-.392.691-.539.641-.392.408-.74.174h-.858l-.813-.075-.711-.2-.531-.2-.593.033-.594.033-.666.059-.713.441-.474.009-.42-.541-.448.041-.264.317-.256.558-.274.575-.192.524-.2.482-.913.067-.448-.174-.94-.217-1.041-.233-.832-.042-.913-.033-.656.008-.366.083-.092.492.191.973.439.35-.046.949-.448,1.374-.329.683-.054.708-.183,1.773.64,1.965.1,1.449-.137.5-.366.442-.146.349.192.384.832-.034.722-.083,2.247.383.182.534-.017,1.048v.566l-.457.8-.447.567-.53.382-.447.55-.548,1.982-.429.94-.22.5-1.223,1.49-.657.825-.338.49-.1.491-.365.892-.877.616-.028.533.155.733.056.774.137,1.915-.2.8.393.291.885-.216.476-.008.383.325.018.416-.09.483-.311.574-.037.6.183.459-.046.541-.867.566-.676.258-1.023.075-1.269.05-1.151.058-.567.2-1.132.3-1.059-.233-1.426-.5-.859-.608-.758-.292-.155-.049-.137-1.574-.895-.35-.575-.2-1.169.026-.968.033-.849-.383-.439-.117-.447-.275-.484-.308-.767-.125-.466.075-.018.376.064.316-.165.874-.539.416-.21.308.009.433.374.491.056.749-.311,1.408.348.3.4.366.31.458.384.608-.237.532-.365.325-.347.25-.255.524.182,2.174.183,1.448-.037.433-.055,1.582-.6.857-.055.616.037.749.438,1.116-.247.749-.146.941-.238.732-.62,1.316-.118.532.466.192.456.107.384.251.21.3.1.225.465,1.023.146.292.539-.1.32-.1,1.179-.066,1.3-.067.886.167.475.275.237.366.228.524.173.758.028.687-.384-.121-.2.133-.146.192-.056.221-.155.5-.192.309-1.068,1.827-.558,1.116-.082.433-.074.433-.018.475.1.682-.183.267-.338.108-.374.3-.421.3-.328-.121-.173-.067-.247-.008-.128.15-.054.229-.091.275-.128.283-.128.27-.328.567-.146.241-.164.134-.32-.033-.3-.042-.292-.083-.311-.133-.256-.088-.32.018-.594.2-.347.366-.247.162-.173.1-.657.666-.557.216-.693,0" transform="translate(-1481.5 -789.595)"  stroke="#fff" stroke-linecap="square" stroke-linejoin="bevel" stroke-width="1" fill-rule="evenodd"/>
      <text id="225" title="Sindkhed  Raja"  data-name="Sindkhed Raja" transform="translate(16.344 70.888)" fill="#fff" font-size="13"  font-family="OpenSans-Bold, Open Sans" font-weight="700"><tspan x="0" y="0"> </tspan></text>
    </g>
    <g id="_215_Deulgaon_Raja" data-name="215 Deulgaon Raja" transform="translate(472.487 1406.399)">
      <path id="talId215" fill="#7DB8EC" data-name="Deulgaon Raja" d="M1463.777,847.056l.128-.345.174-.283.292-.121.21-.037.338-.025.246-.025.3-.167.155-.229.211-.058.21.2.31.046.439-.041.476-.134.456-.17.659-.362.538-.354.438-.212.622-.371.355-.2.219-.158.264,0,.265-.012.246.033.256.033.164-.07.128-.237.448-.7.182-.425.156-.237.283-.124.374-.189.649-.212.456-.062.321-.058.274-.079.128-.171.038-.208-.019-.471-.009-1.082-.1-.741-.137-1.436-.1-.8-.054-.887-.4-.849-.173-.511.2-.1.238-.013.566-.067.511-.05.512-.092.483-.091.732-.191.912.042.375-.054.329-.167.236-.121.3,0,.768.2.282.124.246-.129.22-.342.284-.265.283-.224.347-.113.786-.338.511-.234.384-.2.146-.27.037-.237-.055-.254-.137-.325-.137-.616-.228-.492-.192-.308-.3-.237-.183-.184-.31-.075-.439-.041-.438.038-.293.041-.448.017-.182-.121-.027-.441.091-.225.292-.491.2-.674.127-.425.219-.3.429-.146.512-.054.812-.017.5-.062.421-.033.41-.113.8-.067.483.113.348.125.392.091.256.025.165-.095.219-.25.137-.012.137.1.027.162.027.163.092.192.182.154.293.2.319.067.284-.116.256-.116.173-.212.073-.337.009-.491.019-.658.118-.625.091-.3.465-1.136.055-.6-.164-1.107-.109-1.044.019-.45.274-.2.731-.245.52-.358.055-.413-.01-.374.055-.4.109-.3.229-.341v-.138l.94.1.622.082.739.117.923-.026.959-.174.9-.209,1.443-.533.685-.316.648-.283.675-.116.466-.208.6-.734.657-.907.894-.966.228-.349.393-.326.621.008.429.267.794.5.566.125,1.306.382,1.754.425.693-.158,1.69-.659.493-.549.749-1.474.045-.242.183-.308.292-.2.3-.041.366.062.164.162.475.163.118-.175.138-.591.383-.6.019-.181.045-.254.073-.233.239.033.438.25.357.341.475-.008.786-.125.922-.049,1.973-.334.339-.091.483-.307.694-.5.557-.466.384-.367.63-.54.686-.616,1.205-.666.3-.259.357-.041.584.217.357.416-.129.725-.063.466.063.374.211.35.465.291.667.251.867.482.164.666.475.092.547.049.814.133.419.208.384.424.073.583.045.35.284.449.575.275.795.417.931.492.009.34-.1.5-.366.992-.575.441-.475.641-.475,1.323.028.891-.109.567-.447.382-.686.217-.538.125-.448.124-.319.516-.1.774-.018.958.264.458.265.716.119,1.273.54.258.19.017.211.291-.22.492-.913.491-1.333,1.24-.849.674-1.471,1.657-.036.5.146.5-.156.325-.42.049-.511-.008-.438-.083-.786-.249-.759-.275-.685-.259-.813-.375-.794.458-.356.483-.831.849-.84.516-.421.341-.118.524-.046,1.357-.1.666.183.433.476.075.786.225.8.092.758-.183.493-.067.183.208.155.775-.055.358-.338.474-.127.683.091.591.374.341-.073.383-.475.749-.421.1L1521,839.2l-.447-.4-.119-.176-.128-.374-.073-.375-.046-.366-.091-.449-.4-.5-.356-.35-.548-.316-.438-.259-.529-.133-.312.176-.155.341-.338.384-.484-.017-.311-.167-.366-.4-.474-.483-.549-.25-.9-.208-.7-.058-.812-.042-.795.05-.448.166-.347.491-.284.516-.282.683-.174.391-.283.465-.2.284.192.35.439.208.593.258.9.383.228.625-.2.548-.119.467-.43.366-.494.116-.639.125-.731.042-.684-.317-.659-.049-.629-.125-1.105.041-.594.159-.493.274-.648.35-.74.433-.036.458-.246.541-1.005,1.132-.932.949-.219.716-.492.167-.6.093-.511.249-.356.042-.5.092-.484.1-.292.558.192.532.338.492.547.325.94.167.622.025.447-.308.264.15.138.575-.082,1.149-.129,1.124-.237.766-.941.45-1.041.058-1.544-.708-.474-.15-.612-.2-.548-.275-.4-.458-1.2-.141-.8-.017-.8.158-.521.6-.858,1.332-.429.849-.173.467-.275.65-.073.84-.613.75-.255.433-.411.116-.3.091-.356.633-.246.549-.046.549-.338.35-.357.125-.466-.008-.356-.075-.192-.275-.511-.291-1.215-.033-1.553.008-1,.211-1.032.007-.775-.139-.138-.362-.191-.354-.384-.274-.676-.084-.32.029-.21.018-.174-.079-.037-.3-.036-.254-.119-.038-.292.087-.293.113-.567.142-.219-.066-.191,0-.274.088-.229.179-.21.041-.155-.141-.137-.142-.392-.187-.74-.241-.795-.154-.475-.124-.375-.346-.036-.362.082-.579.3-1.016.074-.8v-.87l-.138-.35-.275-.066-.273.087-.256.137-.265.113-.265.125-.246.029-.191-.024-.274-.088-.567-.37-.319-.212-.265-.208-.183-.1-.2.075-.192.121-.137.054-.229.1-.228.037-.119-.051-.128-.174-.055-.25-.018-.254-.037-.246-.027-.278-.119-.079-.219-.008-.675-.054-.512-.083-.466-.113-.4-.021-.421-.174-.364-.25-.429-.445-.475-.732-.247-.391-.155-.341-.1-.524.027-.471" transform="translate(-1463.75 -804.891)"  stroke="#fff" stroke-linecap="square" stroke-linejoin="bevel" stroke-width="1" fill-rule="evenodd"/>
      <text id="215" title="Deulgaon  Raja"  data-name="Deulgaon Raja" transform="translate(28.678 31.142)" fill="#fff" font-size="13"  font-family="OpenSans-Bold, Open Sans" font-weight="700"><tspan x="0" y="0"> </tspan></text>
    </g>
    <g id="_213_Buldhana" data-name="213 Buldhana" transform="translate(464.294 1320.128)">
      <path id="talId213" fill="#7DB8EC" data-name="Buldhana" d="M1538,719.13l-1.572.849-.693.567-.686.666-.8.883-.43.666-.2.266-.63.783-.567.667.128.532.174.466-.1.45-.384.982-.439,1.082-1.1,1.9-.164,1.714.027,1.016.759.683.183.3-.658.6-.375.533-.255.6-.028.766-1.269,1.048-.42.683-.23.915-.62.983-1.662,1.165-1.361-.516-1.214-.016-1.233.083-.822-.033-.9-.133-.5.183-.1.2-.549,1.1.219,1.05-1.453-.25-1.058-.1-1.151.016-.174,1.8-.009.35-.274.35-.731.049-2.165-.266-1.808.033-.7.616-.018.433.136.633.366,1.348-.448,2.3-.5,1.449-1.132.06-1.717.09-.849.167-.347.466-.064.983-.767,1.931.026,1.149.421.866.784.05-.3,1.315-.548,1.648-1.315.384-.548.316-.2.234-.018.833-.667.548-1.168.5-1.233.566-.914.034-.511-.183-.686.233-.849.383-1.1.1-.7.167-.686.516-.684.467-.448.166-.485.75.009.713-.155,0-.209.109-.266.054-.5-.113-.109-.246-.055-.237-.137-.15-.173.034-.2-.016-.164-.093-.019-.637-.173-.3-.666,0-.54.013-.483-.029-.119.288-.036.312-.028.266-.073.283-.146.158-.256,0-.3-.045-.238-.112-.045-.072-.375-.4-.265-.262.009-.259.1-.108.146-.224.083-.25.1-.407.009-.442-.31-.121-.22-.038-.365-.324v-.337l.027-.28-.037-.2-.174-.062-.192.078-.375.312-.128.188-.437.491-.31.25-.183.17-.229.267-.155.278-.32.857-.2.216-.2.229-.237.184-.412.245-.776.67-.483.242-.567.124-.374.059-.859.141-.365.358-.3.3-.229.257-.493.791-.62,1.407-.347.578-.338.545-.136.363-.439.9-.3.558-.11.358-.329.986-.136.217-.43-.025-.613.034-.821.083-.246.225-.266.042-.227,0-.164-.067-.192-.2-.237-.28-.2-.22-.293-.079-.273-.016-.832.133-.42.025-.393-.091-.411-.063-.612-.2-.284-.258-.411-.146-.256.046-.173.195-.174.242-.164.029-.531-.021-1.1-.029-.785.013-.283-.062-.192-.146.036-.224.192-.383.027-.262-.266-.146-.274.013-.237.037-.456-.2-.238-.042-.146.15-.164.254-.211.166-.3.2-.173.108-.384.537-.338.241-.265.242-.9.653-.547.271-.566.3-.4.013-.511-.017-.53-.1-1.133.092-.493-.074-.283-.146-.275-.238-.247-.287-.393-.454-.237-.52-.229-.566-.183-.72.073-.654.064-.511.073-.242.31-.428.43-.349.337-.179.165-.229.055-.341.2-.575.346-.924.392-.57.558-.3.594-.345.063-.537-.082-.6.091-1.048.027-.937.055-1.494.009-.946.11-.212.557-.029.42.117.42.153.393.121.474.241.567.117.236-.009.083-.187.046-.292.009-.249.027-.321.284.029.273.141.248.1.2.05.146-.008.128-.125.082-.221.01-.258-.073-.416-.566-.762-.328-.554-.211-.441-.284-.22-.319-.13-.429-.112-.293-.108-.173-.179-.174-.466-.2-.433-.182-.283-.047-.258-.036-.3-.055-.366-.027-.283-.055-.687-.037-.432-.046-.238-.119-.279-.055-.413.037-.657-.092-.37-.183-.116-.236-.059-.128-.046-.1-.117.009-.52-.009-.346v-.4l-.073-.454-.164-.262-.164-.07-.128-.245-.119-.641-.008-.283.219-.091.21-.113.164-.242.046-.533.063-.74.046-.463.209-.316.21-.246.21-.325.776-.558.283-.233.284-.179.191-.153.055-.279.054-1.211v-1.062l-.136-.2-.257-.05-.246-.066-.055-.2.1-.375.374-.778.083-.262-.175-.121-.328.02-.347.029-.238-.02-.174-.092-.063-.208.082-.508-.127-.424-.183-.317-.1-.308-.328-.462-.128-.337-.083-.45-.274-.416-.219-.467-.074-.657-.046-.832.164-.629.266-.378.219-.2.365-.367.374-.549.155-.341.064-.35.018-.337v-.445l.183-.354.52-.312.365-.22.239-.176.3-.345.383-.43.256.1.4.3.32.212.264.179.228.079.257,0,.2-.1.119-.224.054-.217.073-.566.182-.342.173-.241.146-.158.165-.1.347-.05.292.2.128.2.209.116.274.026.229-.05.219-.1.547-.174.567-.05.31-.041.193-.1.055-.1.109-.37-.019-.187.11-.179.192.058.118.083.183-.016.274.058.046.208.055.274.128.188.146.1.374.1.275-.191.219-.217.21-.062.256-.145.219-.272.146-.212.146-.345.137-.117.137.141.027.283.11.371.155.254.264.187.448.221.292.133.165.013.22-.071.09-.225.019-.221-.01-.625-.045-1.053-.192-.62-.073-.362-.128-.754.073-.329.173-.187.329-.142.438-.117.977-.366.722-.049.611-.058.485-.067.374-.321.165-.3,1.351,1.241.9.965.785-.633.247.034.439.167,1.031.666.758.2.466-.2.475-.4h1.014l1.16.682.183.183.585.616.3-.183.082-1.282.238-.583.529.033,1.927-.067.923.967.731-.5.666-.25,1.05.483.43.233.2.333,1.132.532.767.067,1.16-.965.6-1.732.6-1.632,1.863-.633,4.276.583.264.017,1.023-.192.4-.433.474-.183.53-.292.411-.166.512.117.576.283.447.274.128.641-.1.483.055.192.566.183.393-.166.52-.733.43-.141.429-.217.338-.3.3-.167.365-.058.5.041.666.224.53.283.338.158.822.084.283-.275.385-.4.237-.374.247-.375.265-.133.941-.025.666-.042h.841l1.233-.017.64-.4.958-.575.768-.791.375-.391.182-.483-.228-.275-.557-.374-.155-.474v-.692l-.036-3.113.119-.692.009-.6.073-.267.109-.2.091-.207-.119-.142-.155-.275.155-.183.52-.1.375.059.52.366.392.425.365.217.375.049.6-.067.383-.166.293-.191.256.034.393.157.43.267.42.217.867.224.794-.091.521.249.329.133.6.308.357-.033.739-.108.759-.142.273.55.265.241.356.275.183.4-.027.407.019.408.154.3.348.067.328.266-.147.308-.081.458.5.508.384.067.648-.017,1.113-.016,1.162.208.392-.117-.256.516-.145.949L1538,719.13" transform="translate(-1454.78 -710.072)"  stroke="#fff" stroke-linecap="square" stroke-linejoin="bevel" stroke-width="1" fill-rule="evenodd"/>
      <text id="213" title="Buldhana"  data-name="Buldhana" transform="translate(21.869 36.413)" fill="#fff" font-size="13"  font-family="OpenSans-Bold, Open Sans" font-weight="700"><tspan x="0" y="0"></tspan></text>
    </g>
    <g id="_221_Motala" data-name="221 Motala" transform="translate(476.53 1276.238)">
      <path id="talId221" fill="#7DB8EC" data-name="Motala" d="M1533.818,707.824l-.758.141-.74.109-.357.033-.6-.308-.329-.133-.521-.249-.794.091-.867-.224-.421-.217L1528,706.8l-.393-.158-.256-.034-.292.191-.384.166-.6.067-.375-.049-.366-.217-.392-.425-.521-.366-.374-.059-.521.1-.156.183.156.275.119.142-.091.207-.11.2-.074.267-.008.6-.118.691.036,3.114v.691l.156.474.556.374.229.276-.183.483-.374.391-.768.791-.959.574-.639.4-1.234.016h-.841l-.667.042-.941.025-.264.133-.247.375-.238.374-.384.4-.283.275-.822-.084-.338-.158-.529-.284-.667-.225-.5-.041-.366.057-.3.167-.338.3-.429.217-.43.141-.521.732-.393.166L1510,718.6l-.055-.192.1-.483-.128-.641-.447-.274-.576-.283-.512-.117-.41.166-.53.291-.475.184-.4.433-1.022.192-.265-.017-4.275-.583-1.863.633-.6,1.632-.6,1.732-1.161.965-.766-.067-1.133-.532-.2-.333-.429-.233-1.05-.483-.666.25-.731.5-.921-.967-1.928.067-.53-.033-.237.583-.082,1.282-.3.183-.584-.615-.183-.184-1.16-.682h-1.014l-.475.4-.467.2-.758-.2-1.032-.666-.439-.167-.247-.033-.784.633-.9-.965-1.352-1.241.019-.266-.119-.667-.11-.728-.1-.649-.009-.408.319-.6.393-.433.183-.312.055-.312-.073-.371-.219-.562-.283-.371-.292-.253-.119-.217.027-.275.146-.778.192-.479.082-.242.109-.87-.064-.708v-.462l-.182-.441-.393-.733-.74-1.661-.338-.836.074-.887.118-1.59-.129-.316-.484-.088-.238-.075-.319-.291-.192-.275-.265-.349-.393-.537-.33-.038-.3.1-.155.166-.247.163-.255.037-.7,0-.566-.529-.063-.162V700.4l.017-.274-.127-.221-.092-.129-.137-.32-.1-.217-.092-.3-.174-.458-.1-.221-.393-.024-.338-.083-.219-.163-.1-.221-.146-.2-.238-.229-.082-.957.128-.241.384-.292.237-.77.164-.308.238-.624.036-.267-.256-.535-.045-.16.009-.25-.028-.124v-.154l.055-.117.137-.075.092-.01.1-.008.065-.025-.055-.124-.182-.169-.247-.152-.128-.083-.054-.067-.146-.069-.329-.052-.073-.125.046-.171.064-.144.073-.117.119-.108-.127-.271-.091-.146-.119-.266-.073-.2-.064-.562.182-.375.2-.291.191-.679.09-.791-.045-.3.164-.412.4-.146.393-.029.465-.149.667-.088,1.059-.6.338-.986.091-.571v-.919l-.037-.166-.183-.113-.265-.042-.128-.116-.036-.441-.037-.35-.019-.179-.036-.163-.21-.167-.219-.013-.438-.016-.073-.27v-.263l-.255-.07-.492-.167-.594.25-.731.034-.749-.616-1.534-1.831-.056-.3-.026-.508.136-.682.75-.524.42-.258.329-.316V675.6l.1-1.474.247-.417.32-.148.6-.284.494-.142,1.15-.224.421-.142.355-.9.247.081.228.028.366.005.383-.005.229-.063.238-.029.155.04.146.158.11.013.21-.034.356-.108.256-.037.466-.081.246.018.292-.016.366-.021.32.067.173.05.164.016.246.094.191.068.138-.011.174-.033.21-.05.192-.041.091.018.255-.025.119-.086.183-.191.174-.25.174-.137.156-.2.1-.234.01-.251-.175-.14-.063-.2.01-.2.064-.2.146-.094.109-.193.229-.4.11-.214.173-.135.137-.158.073-.119.137-.138.037-.225-.055-.084-.028-.075.009-.131v-.16l-.137-.12-.4-.225-.192-.148-.027-.094-.018-.13-.027-.073-.1-.015-.082.033-.165-.025-.091-.071-.055-.094-.009-.143.027-.221-.055-.237-.146-.279.192-.394.092-.082.119-.024.219.052.118-.016.21-.079.137-.092.073-.129.11-.256.137-.206.1-.184.083-.122.027-.086-.027-.122-.055-.021-.1.034-.146.023-.082-.063-.037-.12.055-.152.109-.075.165-.092.191-.289.1-.04.045-.014.174.011.137.018.127.042.073.08.064.085.092-.007.092-.021.182-.089.11-.062.146-.065.055-.056.037-.132-.019-.1v-.1l.831.566,1.031.083.677.2.785.25.429.532,1.489.1,1.178-.083.265-.332.136-.716.018-.267.365-.633.749-.266.913-.067.466.167.538.216.347-.083.749-.383.228-.133.256.05.064.416.219.4.365.182.731.383.8.282,1.379.368.5.249-.4,1.548-.118.317.283,1.007.247.22.365.013.4-.05.365-.071.649-.008.566.2.5.146.438.312.3.384.228.388.284.029.246-.076.484-.146.7-.283.53-.27.686-.217.291-.112.384.183.1.288.32.442.383.549.265.384.282.3.348.108.483-.163.668-.183.219-.079.355.025.264.021.275.275.228.088.456.053.539-.042.9.259.265.233.21.358.238.358.484.562.119.379.026.513.147.166.429.317.485.325.31.387.2.2.466.166.293.179v.367l.182.536.594.5.374.159.612.278.457.275.055.575.1.516-.036.807.247,1.756.064.742.136.708.384.348,1.015.367.95.466.73.15.521.008.621.25-.21.49-.511.916-.293.749-.566,1.357-.32,1.466.182.982-.127.957.136.325.631.233.612.15.337-.208.119-.591.191-.383.64-.141.41-.467.257-.233.255-.041.247.183.19.275.284.259.466.158.3-.292.2-.333.492-.208.384.3.383.309.109,1.5.009.883-.082.9-.036,1.057.091.691.383.558.832.666.639.334.667.3.822-.89.329-.425.255-.574.538-.649.238-.125.411-.142.475-.241.484-.217.766.059.521.009.466.024.713-.024,1.077-.158.539.091.319.583-.037.616-.009.541-.045.408.273.333.375-.016.4.042-.009.366.055.5.474.233.658-.267.877-.457.676-.558.739-.308.339-.067-.3.941.019.342-.119.533-.228.55-.293.532-.475.374-1.259,1.091-1.288.841-.5.283-.43.666-.31.817-.138,1.864.064.383.192.333.164.283-.173.333-.457.358-.256.433-.923.957-.4.412-.42.3-1.069.112-.685.054" transform="translate(-1468.13 -662.125)"  stroke="#fff" stroke-linecap="square" stroke-linejoin="bevel" stroke-width="1" fill-rule="evenodd"/>
      <text id="221" title="Motala"  transform="translate(24.633 34.303)" fill="#fff" font-size="13"  font-family="OpenSans-Bold, Open Sans" font-weight="700"><tspan x="0" y="0"></tspan></text>
    </g>
    <g id="_219_Malkapur" data-name="219 Malkapur" transform="translate(491.729 1234.757)">
      <path id="talId219" fill="#7DB8EC" data-name="Malkapur" d="M1519.736,672.558l-.456-.275-.612-.278-.374-.159-.594-.5-.183-.536v-.367l-.292-.179-.466-.166-.2-.2-.31-.387-.485-.325-.428-.316-.147-.167-.027-.512-.119-.379-.485-.562-.237-.358-.21-.358-.265-.233-.9-.258-.54.042-.456-.054-.228-.088-.274-.275-.265-.021-.357-.025-.219.079-.667.183-.484.163-.347-.108-.283-.3-.265-.384-.384-.549-.32-.441-.1-.288-.384-.183-.292.112-.684.217-.531.27-.7.283-.484.145-.247.076-.283-.029-.228-.387-.3-.383-.439-.312-.5-.146-.566-.2-.649.008-.365.071-.4.05-.365-.013-.246-.22-.284-1.007.119-.317.4-1.548-.5-.249-1.379-.368-.8-.282-.73-.384-.366-.182-.219-.4-.063-.416-.256-.049-.228.133-.749.383-.347.083-.539-.216-.465-.166-.914.067-.749.266-.365.633-.018.267-.137.716-.265.332-1.177.083-1.489-.1-.43-.532-.785-.251-.676-.2-1.031-.083-.832-.566.036-.118.055-.087.147-.173.227-.112.384-.154.375-.025.356-.046.055-.226-.036-.265.164-.354.082-.187.074-.383.173-.908-.018-.661.437-.013.229.037.219-.133.137-.254.384-.8.083-.075v-.262l-.027-.288.037-.22.218-.112.138-.071.155-.112.065-.163.026-.249.037-.275.21-.25.32-.17.2-.092.274-.121.228-.225.129-.6.319-.05.21-.049.092-.183.136-.192.091-.2.1-.192.2-.337.2-.179.5-.4.191-.133.247-.207.31-.192.156-.129-.037-.184-.027-.192.1-.15.229-.02.22-.084.117-.054.11-.088.055-.187.082-.3.22-.349.064-.184.045-.212.046-.225.11-.179.036-.179-.265-.08-.329-.058-.429-.058L1493,645.4l-.227-.216-.247-.324-.136-.313-.173-.583-.283-.208-.247-.208-.868-.241-.4-.184-.63-.2-.695-.191-.721-.288-.385-.137-.219-.112-.11-.163.009-.237.11-.246.11-.287.054-.387-.009-1.249.119-.592.063-.4.082-.275.256-.155.456.021h.466l.119-.965.027-.254.073-.329.082-.516.466-1.333.813-.091.255-.042.575-.116.666-.159.85-.487.475-.324.311-.221.21-.212.164-.35.018-1.044.055-.612.008-.283.129-.316.392-.783.165-.516.128-.355.063-.4.018-.28.128-.283.174-.145.228.163.146.145.173.158.192-.183.823-.512.931-.487.63-.5.712-.429.283-.275.239-.383.154-.229.32-.267.649-1.057.173-.259.219-.279.256-.2.238-.241.228-.158.31-.017.228-.113.173-.179.174-.212.137-.412.064-.508.127-1.1.11-.329.411-.778.264-.779-.008-.337-.065-.379-.128-.35-.009-.346.082-.454.083-.383.173-.133.237.192.338.558.138.236.338.242.385.25.73.346.658.316.374.137.53.071.822.279.2.12.137.146.192.2.274.562.338.4.357.449.556.3.531.288.547.175.411.242.366.108.237,0,.374-.088.8-.058.895.154.3.088.758.358.311.254.384.341.585.617.209.362.147.35.083.467.145.358.156.207.274.13.384.041.329.071.594.07.7.162.5.158.429.146.567.591.584.391.686.238.2.067.183.117.182.116.357.279.274.557.219.271.265.4.2.233.2.151.246.162.44.267.191.316.055.2-.027.4.055.612.138.608.119.116.155.138.311.091.429.021.594-.117.475-.067.419-.066v.01l-.119.689-.019.5-.109.624.219.291h.493l.64.109.6.532.028.742-.283,1.19-.128,1.457-.21.384-.1,1.473.3,1.374.156.35.42.658.767.475.183,1.956-.895,1.024-1.288,1.8-.265.708-.4.45-.31.075-.338-.075-.6-.083-.548.008-.448.158-.3.758-.757,1.582-.539,1.582-.365,1.781-.411,2.589-.384,1.782-.275.441-.191.308-.182.449.557.134.567.1.465.008.923-.05,1.26.333.621.116.575.242,1.16.382,1.169.607.576.283,1.086.25.8.2-.018.874.045.474-.192.134-.283.466.109.416-.109.451-.484.823-.439.366-.365.192-.31.142-.448.041-.9-.041-.429.308.028,1.457-.019.591-.146.591-.42-.117-.457-.174-.694-.175-1.141.074-.028.367-.037.708.074.833.137.383.292.2.164.465-.091.375.046.475.01.4-.165.333-.2.275-.6.358-.43.1-.958.025-.841-.067-.722-.117-.713-.075-1-.391-.52-.5-.394-.766-.191-.516-.576.133" transform="translate(-1484.8 -616.014)"  stroke="#fff" stroke-linecap="square" stroke-linejoin="bevel" stroke-width="1" fill-rule="evenodd"/>
      <text id="219" title="Malkapur"  transform="translate(15.435 30.785)" fill="#fff" font-size="13"  font-family="OpenSans-Bold, Open Sans" font-weight="700"><tspan x="0" y="0"></tspan></text>
    </g>
    <g id="_222_Nandura" data-name="222 Nandura" transform="translate(526.823 1250.573)">
      <path id="talId222" fill="#7DB8EC" data-name="Nandura" d="M1565.4,673l-.091.908-.091.458-.173.716-.375.516-.521.283-2.273-.108-.667-.133-.575-.067-1.3.016-1.2.1-1.114-.067-.448.25-.338.774-.566,1.956-.256.442-.3.125-.456.174-.146.367-.064.658-.027.524-.082.517-.137.482-.393.408-.566.066-.694.017-.958.067-.54-.042-.913-.158-.32-.342.054-.907.2-.758.366-.707.164-.592-.246-.449-.6-.224-1.388-.558-.458-.083-.639-.1-.448.349-.977.2-.9.084-1.087.407-.457.566-.237,1.266-.164.533.064.524.283.783.421.841.045,2.264-.037.675-.109.391-.475-.05-.84-.041-.64-.042-.384-.341-.448-.383-.456.183-.393.266-.165.433-.091.566-.1.908-.493.765-.256.766-.137.778-.091.371-.484.216-.474.241-.412.142-.237.125-.538.65-.256.574-.329.424-.822.891-.667-.3-.638-.333-.832-.666-.384-.558-.092-.69.037-1.058.082-.9-.009-.883-.11-1.5-.384-.309-.383-.3-.493.208-.2.333-.3.291-.466-.158-.283-.258-.192-.275-.247-.183-.255.041-.256.233-.411.467-.64.141-.192.383-.119.591-.338.208-.612-.15-.63-.233-.137-.325.128-.957-.183-.982.32-1.466.565-1.357.293-.749.511-.916.21-.49-.621-.25-.521-.008-.73-.15-.95-.467-1.014-.366-.383-.349-.138-.708-.064-.742-.247-1.756.037-.807-.1-.516-.055-.575.577-.134.191.516.393.766.521.5,1,.391.713.075.722.117.84.067.958-.025.431-.1.6-.358.2-.275.163-.333-.008-.4-.045-.475.091-.375-.164-.466-.292-.2-.138-.382-.074-.833.037-.708.028-.367,1.141-.075.694.175.457.174.42.117.146-.592.018-.591-.027-1.457.429-.308.9.041.447-.041.311-.142.365-.192.438-.366.484-.824.11-.45-.11-.416.284-.466.192-.134-.046-.474.018-.874-.8-.2-1.087-.25-.575-.283-1.17-.607-1.16-.383-.576-.242-.621-.116-1.26-.334-.923.05-.466-.008-.566-.1-.558-.133.183-.449.193-.308.273-.441.383-1.782.411-2.589.366-1.781.538-1.582.759-1.582.3-.758.448-.158.548-.008.6.083.338.075.312-.075.4-.449.264-.708,1.288-1.8.9-1.024-.182-1.956-.768-.475-.42-.657-.155-.35-.3-1.373.1-1.473.21-.384.129-1.457.283-1.19-.027-.741-.6-.533-.639-.108h-.493l-.22-.292.11-.624.019-.5.118-.689v-.01l.192-.03.393-.016.612.033.411.146.731.312.566.187.593.267.849.37.575.125.448.059.493.1.759-.162.447-.079.311-.1.512-.062.292-.055.9.288.338-.038.182-.029.283-.008.119,0,.456.148.211.081.164.067.292.046.393.112.767.291.238.146.347.191.494.217.466.266.429.175.421.062.7-.649.292-.238.22-.15.255-.067.393.008.329.2.293.492.209.229.357.166.511.071.493.266.612.358.311.259.319.229.292.258.338.091.448.03.4-.108.41-.258.74-.624.283-.1.339-.021.347.1.556.475.549.3.275.383.557.666.292.179.475.117.721.059,1.288.732.4.166.338.171.22.067.529-.221.229-.279.41-.561.5-.941.21-.3.4-.15.346-.125.6-.112.484-.046.832-.6.31-.117.219-.059.594.026.32.121.264.374.146.321.092.454.292.458.119.177.247.135.365.137.557.063.63-.083-.119.383-.229,1.382-.073.8-.146.883-.219,1.016.082.95.174.565,1.333.75,1.3.732,1.36.583,2.384.733.95.3,1.617.633,1.361.35-.164.65-.685.616-.649.649-.685.565-.9.783-.3.783.018.916-.037,1.1-.53,1.765-.666.134-1.1-.1-1.27-.083-1.2-.083-1.2.167-1.388,2.348-.813,3.363-.182,1.232-.32,1.016-.265.849-.466,1.166-.931,1-.6.8-.566.467-1.161.1-.785,1.395-.1.828-.064.42-.128.179-.284.221.21.257.393.075.475.1.74.072.9.129" transform="translate(-1523.05 -633.37)"  stroke="#fff" stroke-linecap="square" stroke-linejoin="bevel" stroke-width="1" fill-rule="evenodd"/>
      <text id="222" title="Nandura"  transform="translate(17.342 27.969)" fill="#fff" font-size="13"  font-family="OpenSans-Bold, Open Sans" font-weight="700"><tspan x="0" y="0"></tspan></text>
    </g>
  </g>
</svg>
