<svg xmlns="http://www.w3.org/2000/svg" width="264.049" height="300.626" viewBox="0 0 264.049 300.626">
  <g id="_26_Chandrapur" data-name="26 Chandrapur" transform="translate(-2335.759 -521.332)">
    <g id="_104_Warora" data-name="104 Warora" transform="translate(2336.734 577.345)">
      <path id="talId104" fill="#7DB8EC" title="Warora Taluka" data-name="Warora" d="M2102.568,816.16l-.54-.021-.862-.452-.6-.374-.354-.328-.093-.345.021-.333.094-.411.477-1.041.249-.458.042-.287-.177-.36-.145-.384-.136-.421-.155-.559-.135-.544-.032-.364.136-.323.333-.391.3-.344.365-.374.2-.421.333-.713.04-.539-.1-.344-.363-.43-.417-.381-1.061-.456-1.486-.683-.809-.3-.739-.262-.292-.359-.146-.466.073-.432.125-.349-.156-.482-.394-.43-.342-.3-.426-.18-.541-.215-.644-.323-.656-.457-.5-.482-.083-.333-.155-1.863.1-.662v-.471l-.167-.37-.624-.359-.312-.031-.614-.031-.55.041-.767.154-1.207.641-.687.267-.561.2-.882.063-.894.051-.978-.051-1.87-.313-1.321-.463-1.111-.225-1.186-.1-.863.067-.883.113-1.321.364-1.048.314-.707.092-2.35.1-1.029.118-.686-.067-.624-.129-.332-.3-.364-.467-.188-.524-.3-1-.042-.334.042-.36.228-.337.375-.354.279-.293.353-.369.489-.618.145-.215.021-.5-.042-.387-.082-.252-.084-.223-.291-.228-.458-.4-.925-.639-.645-1-.509-.821-1.465-1.839.2-.459.344-.9.278-.506.52-.564.916-.654,1.557-.753,1.394-.374.688-.257.581-.284.446-.474.2-.435.1-.38.064-.3-.105-1.2-.115-.856-.187-.441-.352-.469-.509-.459-.655-.877-.4-.6-.342-.379-.064-.384.085-.493.707-1.047.28-.578.208-.412.011-.469-.146-.368-.3-.252-.418-.412-.207-.327-.166-.881-.095-.81.041-.616-.217-1.373-.4-1.52.01-.72.042-1.113.061-.365.136-.271.218-.118.25.094.3-.559.291-.189.375-.033h.385l.364-.038.488-.148.539.005.677.043.9-.1,1.133-.44.427-.388.509-.389.2-.5.156-.246.083-.218-.031-.233-.51-.217-.4-.175-.4-.109-.333-.089-.125-.252-.176-.216-.175-.238-.23-.261-1.039-.355-.219-.18-.156-.294.1-.193.261-.124.135-.015.291-.01.2-.056.188-.118.093-.266.042-.336.074-.309.135-.208.237-.151.291-.1.426.1.312.2.176.156.189.3.217.331.323.346.249.165.343.076.147.142v.161l-.023.308.042.252.094.194.135.171.228.071.228.091.239-.029.291-.128.905-.388.229-.176.374-.124.487-.038.593-.123.646-.118.426-.133.55-.176.375-.114.591-.189.3-.181.685-.344.8-.4.4-.416.282-.313.351-.218.4-.152.726.072.354.336.458.374.375.2.5.2.59.143.427-.043.332,0,.5-.052.479,0,.394.067.447.137.353.063.292-.034.311-.015.592.043.552.194.758.151.643.01.718.189.229-.013.27-.072.292-.25.2-.059.083-.027.373.09.279.156.365.085.261-.02.238-.17.157-.265.2-.615.188-.318.385-.321.53-.388.271-.413.093-.346.123-.539.167-.46.456-.36.26-.289.094-.228.187-.563-.249-1.056v-.555l.052-.18.239-.161.52.057.571.014.531.156.426.052.53.034.592-.156.166-.133.375-.256.208-.146.1-.18.051-.322.073-.17.239-.062.249.137.28.289.281.418.48.469.145.165.146.223.27.431.094.275.135.454.124.209.219.146.218.071.208-.08.2-.246.114-.189.175-.251.188-.2.333-.124.26-.256.207-.18.124-.313.031-.351.136-.972.166-.331.271-.331.769-.829.073-.394.042-.582.073-.209.363-.123.248-.109.188-.076.29-.113.146-.318.157-.332.331-.463.136-.109.25-.024.395.08.416.119.6.148.437.085.312.113.188.213.1.222.228.342.542.1.28-.081.115-.2.26-.09.353,0,.239.048.051.17.031.3.145.137.365.057.051.152-.029.326-.054.322-.051.317.051.223.074.085.208.009.311.076.208.189.187.27.386-.061.259-.085.445-.218.593-.146.905-.067.718.1.621.155.739.223.883.247.54.246,1.31.283.624.076.727-.062.458.014.56.048.52.176.5.247.091.279.083.365.146.369.188.094.322.223.281.157.469.066.332.023.583.038.312.047.2.161.4.437.217.2.333-.029.77-.492,1.527-.791.635-.128.051-.213-.011-.4-.093-.384.084-.374.24-.375.311-.648.529-.531.385-.729-.021-.673.072-.63.167-.639.051-.237.167-.1.3-.066.583-.033.9-.009.258.033.313.061.3.132.2.243.291.27.353.208.249.177.219.738.457.79.239.466v.339l.073.236-.135.391-.125.252-.052.209.114.334.415.447.749,1.359,1.279.929.749.446.082.421-.011.627-.02.667.154.594.167.555.208.5.042.461.2.535.374.512.551.513,1.133.36,1.018.328.842.215.875.175.756.185.74.164.384-.071.1-.5-.124-.729.011-.709.052-.708.519.061.312.113.365-.482.208.482.04.513.582.473.884.339.478-.092.655-.339-.03-.38-.24-.329-.1-.348.208-.41.352-.206.27-.247.052-.39-.094-.863.177-1.3.156-.462-.052-.463-.228-.246.374-.636.219-.832-.177-.606-.166-.4-.011-.411.229-.492.282-.493.965-1.436.636-1.006.447-.821.622-.709.956-.851.271-.524-.176-.39-.063-.328.385-.247.478.082.136.421-.01.6.125.933.146.606.238.432.312-.062.238-.4.115-.513.218-.482.5-.1.383-.01.605-.124.685-.154.343-.123.292-.288.156-.339.167-.41.479-.811.374-.39.561-.062.342.134.123.3-.082.482-.28.391-.25.522v1.252l.375.626.394.442.031.9-.777.544-.656.565-.572.5-.166.554.322.575.063.615-.073.627.073,1.889-.385.719-.01.975.063,1.345-.178,2.515.083,1.478.126.852.592.4,1.2.585.207.309.323,1.642.415,1.447.572,1.416.3,1.221.448,1.478.354,1.427.332,1.55.249,1.088-.27.575-.331.585-.24.523-.239.462-.666.749-2.235.646-1.185.442-.78.164h-.924l-.957-.073-.77-.03-1.112-.124-1.6-.1-.778.092-.9.185-.395.185-1.062.626.231-2.257-.925.257-.78-.277-.53-.432-.562-.267-.612-.041-1.517,1.109-.99.041-.612.021-.33.257-.2.4.166.308.2.267.052.431.052.287.156.36.406.5.062.472-.146.328h-.541l-.55-.031-.665-.072-.852-.123h-.646l-.53.236-.228.216-.77,1.663-.426.708-.333.4-.031.482.25.276.613.6-.01,1.181-1.082.112-.852-.04-.437.04-.654-.122-.573-.215-.426.143-.426.307-.445.8-.24.318-.479,1.263v.36l.292.338.042.482-.323.411-.344.514-.29.39-.355.379-.79.627-.467.421-.936.358-.6.175-.291.493.25.431-.125.421-.707.1-.467-.3-.373-.246-.5-.5-.344-.533-.436-.3-.552-.092-.531-.227-.518-.646-.228-.461-.54-.606-.489-.01-.4.154-.333.226-.6.165-.758-.092-.375.276-.125.431-.157.41-.581.883-.271.431-.249.5-.364.472-.352.4-.3.236-1.113.072-.312.851-.166.452.249.2.478-.01.469.112.259.246.1.6-.113.5-.208.575-.385.339-1.29-.154-.82.164-.571.143-.573.482-.238.41-.395,2.823-.344.842-.352.421-.5.389-.115.349-.073.708-.062.472-.157.442-.321.165-.946.082-.022.411.01.616-.249.42-.58.277-.645.3-.551.083-.593-.165-.385.134-.489.39-.363.472-.311.206-.24.01-.6-.093-.654.811-.8-.318-.424-.308-.667-.052-.552.164-.654.236-.427.216-.259.636-.146.688-.486,1.816-.1.759.009,1.324.469.329.321.648.03.594-.208.5-.413.811-.355.607-.26,1.324-.374.339-.468.1-.521.38-.145.688-.1.461-.177.4-.767.041-.625.051-.665-.153-.2-.339-.23-.678-.134-.708.01-.472-.177-.453-.508-.3-.614.021-1.487-.1-.871-.227-.6-.04-.562-.124-.509.021-.229.143-.135.309-.031.318-.032.606" transform="translate(-2065.881 -737.701)"  stroke="#fff" stroke-linecap="square" stroke-linejoin="bevel" stroke-width="1" fill-rule="evenodd"/>
      <text id="104" transform="translate(33.266 40.655)" fill="#fff" font-size="13"  font-family="OpenSans-SemiBold, Open Sans" font-weight="600"><tspan x="0" y="0"></tspan></text>
    </g>
    <g id="_97_Chimur" data-name="97 Chimur" transform="translate(2415.82 526.534)">
      <path id="talId97" fill="#7DB8EC"  title="Chimur Taluka" data-name="Chimur" d="M2171.214,773.887l.667-.749.238-.462.24-.523.331-.585.272-.575-.25-1.088-.332-1.549-.354-1.427-.448-1.478-.3-1.221-.571-1.417-.417-1.447-.32-1.642-.21-.309-1.193-.585-.593-.4-.124-.851-.085-1.478.177-2.515-.062-1.345.01-.975.385-.718-.073-1.889.073-.626-.063-.616-.322-.575.167-.554.572-.5.654-.565.78-.544-.032-.9-.395-.441-.376-.626v-1.252l.252-.523.279-.391.084-.482-.124-.3-.343-.134-.56.062-.375.39-.479.811-.166.411-.156.339-.291.288-.344.122-.687.154-.6.123-.384.011-.5.1-.217.483-.115.513-.24.4-.311.062-.24-.431-.145-.606-.125-.933.01-.6-.135-.421-.477-.082-.385.247.063.329.177.389-.271.524-.957.851-.624.709-.447.821-.632,1.006-.966,1.436-.283.493-.227.493.008.41.167.4.177.606-.219.831-.374.636.227.246.054.463-.157.461-.176,1.3.093.863-.051.39-.27.246-.354.206-.206.41.1.349.238.328.031.38-.655.339-.477.093-.885-.339-.583-.473-.041-.513-.209-.482-.362.482-.312-.113-.52-.062-.052.708-.01.708.124.729-.1.5-.385.072-.739-.164-.757-.185-.873-.175-.843-.215-1.019-.329-1.132-.359-.549-.514-.375-.512-.2-.534-.041-.462-.209-.5-.167-.555-.155-.594.021-.667.011-.627-.083-.421-.747-.446-1.28-.929-.749-1.36-.415-.447-.115-.333.052-.21.126-.252.136-.391-.074-.236v-.339l-.24-.467-.456-.79-.218-.738.145-.144.113-.408.043-1.255.188-.265.226-.123.666-.716.206-.469.146-.781.229-1.132.176-1.127.26-1.023.115-.559.094-.407.6-.232.166-.024.29-.057.156-.009.4.133.291.147.25.17.2.043.22-.043.154-.18.147-.261.051-.228.03-.275.032-.744.062-.73.093-.482.095-.224.208-.118.124-.165.249-.5.55-.99.415-.763.551-.5.572-.435.333-.374.633-.3.406-.113.508.033.416.085.24-.057.146-.256.291-.071.353-.085.188-.1.1-.261.021-.232.146-.241.405-.3.249-.341.009-.782.021-.65.063-.706.145-.255.219-.3.365-.359.2-.389.115-.483.021-.374v-.431l.022-.615-.157-.568-.135-1.439.646-.38.219-.046.363.024.114.021.167,0,.186.045.1.014.092-.031.115-.035.136-.033.176-.011.124.011.062-.057.1-.08.455-.161.178-.039.165-.042.2-.013.188-.009.176-.056.187-.08.467-.057.281-.036.218-.08.374-.125.592-.279.136-.154.207-.074.177.052.365.173.476.283.125.021.2.01.27-.067.146-.026h.186l.26.037.125.085.27.215.229.1.094.039.114,0,.147-.032.145-.031.146-.076.124-.09.1-.089.126-.057.135-.015.312.026.176-.028.208-.042.208-.06.124-.1.084-.06.135-.092.114-.032.136.024.074.107.071.123.115.131.1.144.1.006.186-.063.147-.052.135-.043.2-.009.188.028.217.052.291-.024.166-.038.24-.119.749-.5.54-.263.364-.118.417-.035.24.014.248.061.135.239.041.244.1.187.123.12.135.109.179.057.365.08.447.1.7.094.208.078.1.122.094.2.146.094.362.094.532.147.457.178.748.041.458-.014.188-.069.03-.166-.02-.325.3-.445.51-.67.344-.376.322-.239.3-.152.114-.19.041-.308.042-.654.084-.461.081-.206.086-.287.008-.811.021-.724.165-.672.012-.594.1-.265.084-.237.157-.25.352-.651.144-.173.188-.251.124-.3.177-.374.156-.17.115-.14.031-.2.084-.4.176-.453.093-.128.095-.125.125-.095.188-.07.249-.032.125-.163.365-.383.114-.17.083-.141v-.139l.042-.218-.021-.715-.021-.2-.031-.187-.186-.033-.2.036-.2.076-.156.041-.176-.057-.126-.156-.093-.2.062-.152.146-.282.145-.291.219-.183.354-.152.258-.293.7-.592.26-.235.239-.177.177-.244.176-.469.1-.242.073-.265.135-.37.032-.232-.032-.244-.176-.154-.167-.123-.3-.176-.291-.161-.323-.147-.157-.057-.1-.106-.083-.193-.136-.321-.134-.213.009-.3.085-.326.145-.463.082-.184.061-.152.167-.047.188-.026h.26l.355-.035.5.109.062.1.062.273.167,0,.353-.114.777-.109.251-.073.2-.1.26-.084.6.01.208-.088.145-.185.042-.059.052-.106.074-.18-.051-.062.008-.1.023-.048.093-.073.083-.066.051.005.095,0,.041-.066-.02-.106.052-.081.094-.073.073-.072.2-.01.374.05.364.005.251-.063.2-.089.124.067.157.378.281.052.342.048.739.1.208.1.174.18.136.313.114.208.042.379-.083.455-.208.545-.01.62.073.317.061.179.115.256.3.133.323.052.489.142.489.271.261.365.041.08.1.052.2.061.093.01.155-.072.146-.028.1.176.24.009.156-.063.156-.08.126-.085.186-.071.177-.118.26-.138.228.053.3.07.167-.042.229-.028.188-.02.186.006.177.1.175.066.135.057.052-.166.095-.076.259.057.385.313.062-.213.167-.1.2.009.219.061.167-.024.146-.114.083-.218.031-.189.175-.024.293-.132.425-.038.31.009.239.119.271.222.239.266.229.128.229.047.167-.132.124-.289.5-.279.375-.061.331-.161.155-.352.375-.265.5-.156.646-.242.177-.061.343-.09.508-.341.634-.4.521-.389.593-.478.645-.28.374-.209.3-.226.3-.408.393-.459.447-1.17.084-.568.207-.213.427-.152.592-.209.312-.165.239-.279.217-.185.167-.3.157-.383.26-.436.531-.748.134-.3.115-.356.021-.383.134-.224.312-.061.229-.033.354.148.2.215.083.153.073.217.061.087.1.016.134.017.25.03.395.064.292.123.312.092.155.107.26.185.126.184.124.029.062-.085v-.344l.062-.175.221-.176.029-.159-.01-.13-.063-.108-.062-.159-.1-.175.011-.12.073-.138.2-.073.064.053.072.032.095-.032.123.037.292.061.279.056.26.056.2.023.145.028.03-.168.271.052.032-.162.406-.067-.012-.131.042-.33.166.019V689.1l.022-.017v-.268l.343.048.313.083.5.129.2.046.395.075.2.015-.062.09.042.09.083.047.083.005.251-.04.073.04.031.058-.01.115.27.1.146.106-.063.186-.062.143.031.054v.064l.094-.055.145-.134.042.041.063,0-.042.155.031.056.053-.023.042-.008.124.077.031-.015.072,0,.023.061h-.126v.062l.062.017.094-.045.012.021.02.138.1.113.123.086.032.019.071,0,.062.088.3-.082.053-.036.229-.094h.395l.217-.036.189-.08.134-.033.167.029.083.1.239.03.052-.116.167.049.02-.045.083-.006.208.051.176.04.063.025.031.082.383-.02v-.138l-.042-.031.022-.075.082.018.145.063.1-.028.134-.078.126.017.032.086.031.152.551.064.374.054.115-.037.114.031.135,0,.415-.268.384-.164.654,0,.021.405.031.3.01.256.053.014v.293l-.041.221.041.223v.08l.019.178-.019.184.1.1.042.064.011.112.094.012.186-.059.042-.1.094-.078.333-.008.26.051.208.008.3.035.227.017.426.158.187.05.635.177.238.051.322.224.563.331v.092l.145.032.281.19.249.148-.02.048-.115.61-.248.746.052,1.321-.343,1.614.238.689.324.414.424.2.4.217.353.216.552.689.8.772.489.307.6.312.677.409.351.268.606.3.228.293.125.531-.02.421-.136.37-.654-.1-.813-.2-.944-.377-.323-.465-.413-.581-.282-.217.01.376.1.4-.25.281-.415.332-.374.249-.281.331-.125.811-.114,1.518-.436.171-.593.1-.623.159-.478-.063-.448-.421-.209.242-.052.4.074.746.124.357.207.753.22.613-.458.236-.717.286-1.081.307-.883.8-1.133,1.334-1.579,1.666-.677.415-.459.191-.84,1.441-.3.748-.346,1.269-.946,1-.458.447-.123.441.154.236.522.249.487.325.865.548.789.734.531.747-.539.357-.719.415-.946,1.13-2.077,1.474-.292.319-.229.562-.312.855.3.74.573.543.666.5.539.581.52.816.458.467.342.293.25.376-.1.274-.363.224-.3.064-.448.052-.227.037-.2.313v.319l.2.364.291.307.114.593-.229.734-.468.989-.239.76.654.3.966.058,1.54.019.343.191.082,1.57.021,1.141.26.92.177.848.384.478.895.938.811,1.761.415.428-.031.44-.135.473-.293.383-.341.172-.541.013-.27.8-.093.39.093.478-.011.721-.219,1.015-.165.172-.458.382-.27.358-.625.772-.207,1.175.114.434.093.516-.164.632-.1.363-.51.9-.5,1.244-.229.663-.343.346-.3.344-.187-.255-.052-.384-.313-.23-.571-.089-.477.141-.2.4-.642.109-3.285-.07-2,.077-.06,1.856.125.4.27.344-.2.416-.322.274.425.351.522.3.1.371.312.785.258.6.136.549.436.523-.021.447-.072.325.041.741.114.728.167.918v.671l.188.715.228.5.177.447.2.332.241.4.188.306.186.459.063.4-.053.422-.322.376-.342.121-.281-.09-.353-.344-.052-1.008-.094-.485-.167-.415-.344-.376-.684-.434-.675-.345-1.341-1-.729-.388-1.08-.434-.541-.261-.446-.256-.375.065-.324.261-.009.376.188.256v.338l-.353.414.3.7.364.619.394.447.448.46.52.415-.032.389.114.351.177.287.042.332-.126.338-.528-.1-.646-.089-.4.1-.458.218-.321.427-.394.683-.749,1.271-.2.644-.022.478.01.5-.02.792-.31.791-.137.817-.094.746-.041.4-.25.223-.27-.032-.353-.274-.281-.25-.394-.159-.384.114-.375.148-.446.179-.4.171-.363.014-.312-.313-.4-.549.322-.421.124-.332-.051-.395-.675-.006-1.622.012-1.59.2-2.681.02-.935.147-.77.229-3.752.063-2.122-.1-.985-.006-.7.313-.521.153-.717-.064-.6-.1-.583.153-.7.153-1.259-.031-.6-.4-.4-.492-.582-.045-.395.217-.832-.063-1.154-.256-1.382-.134h-1.259l-1.61.038-.6-.007-1.672.057-1.509-.012-.892.006-.646.039-1.04-.044-.644-.09-.384-.229-.292-.5-.028-.644.2-.6.228-.575.2-.881-.03-1.008-.29-.67-.4-1.141-.479-.691" transform="translate(-2142.051 -688.814)"  stroke="#fff" stroke-linecap="square" stroke-linejoin="bevel" stroke-width="1" fill-rule="evenodd"/>
      <text id="97" transform="translate(40.18 61.466)" fill="#fff" font-size="13"  font-family="OpenSans-SemiBold, Open Sans" font-weight="600"><tspan x="0" y="0"></tspan></text>
    </g>
    <g id="_100_Nagbhid" data-name="100 Nagbhid" transform="translate(2496.209 530.919)">
      <path id="talId100" fill="#7DB8EC" title="Nagbhid Taluka" data-name="Nagbhid" d="M2254.581,703.925l.136.244.29.234.322.167.27.217.561.479.385.377.137.137.529.071.385-.038.2-.1.384-.7.333-.03.259-.079-.062-.219v-.39l-.042-.42-.539-.313v-.253l.167-.235-.022-.23-.155-.588-.145-.333-.2-.224-.176-.11-.092-.258.051-.194-.241-.57-.112-.126-.179-.332-.145-.13-.063-.174-.081-.427.113-.579.115-.552.269-.067.541-.145.4-.169.25-.17.822-.962.415-.341.427-.318.417-.265.321-.323-.053-.3.073-.15.417.022.446-.014.76.268.509-.048.3.128.987.189.447.132.364-.06.322.068.333-.1.386.084.176.011.272-.244.215-.109.334-.115.77-.144.374-.049.374-.036.2-.111.334-.079.32.039.467-.118-.084.291-.05.178.654.215.738.2.063.019.093.18-.2.379.405.4.416.635.82.682-.021,1.81.031.378.156.37.344.464.727.379.865.445.457.435,1.039.332.8.171.76-.085.508.019.581.474-.052.407-.3.1-.352.123-.239.549.011,1.176.3.359.56.37.415.408.344.4.4.643.155.759-.062.521-.437.493-.437.218-.7.019h-1.257l-1.114.228-.747.3.115.559.363.787.5,1.212v.92l-.458,1.07-.809,1.156-.073,1.165-.01,1.45-.916,1.317-.916,1.752-.217,1.08-.146.465-.27.407.3.255,1.9-.171.093.777-.062.276-.229.265.042.426.53.436.57.379.479.417.572.38.686.152.114.464-.718,1.07-.3.416-.188.607.5.625.155.3.229.426.1.55-.24.843-1.475,1.355-.363.483-.209.624-.051.578-.156.407-.333-.056-.406-.285-.541-.445-.7-.133-.924-.019-.884-.048-.978-.113-.57-.426-.405-.6-.375-.256-.417.276-.4.568-.811,1.335-.458.947-.248.568-.219.711.241.274.768.143.686-.094.686-.275.717-.171.83.1.437.351.354.264.758.512.51.474-.708,1.174-.477.55-.23.7-.052.891.239.417.615-.181.6-.142.291.417-.341,1.516-.126.948-.1.644.218.758.852.142.043.8.135.228.289.237.6.37.416.549.125.805-.021.445.125.568.344.2.365.228.424.408.188.378-.136.616-.79,1.184-2.309,2.69-1.09,1.113-.666.2-.468.36-.5.454-.57.1-.229-.379-.155-.839-.437-.35-.946-.179-.583-.115-.572.1-.412.473-.345.5-.312.322-.656.105-.134.123.052.284.25.142.624.294.135.511-.073.522-.239.445-.593.843-.822.881-.425.606-.292.56-.062.654.177.654-.489,1.308-.135.569.219.417.364.474.446.189.571.17.531.095.041.427-.759.141-.3.094-.143.3.04.578.478.417-.072.54-.332.009-.519-.028-.615.132-.363.161-.562.663-.717,1.052-1.049.985-.176.408.062.464.4.767.061.52-.166.446-.551.246-.26-.114-.062-.4-.427-.076-.624-.1h-.871l-.646-.247-.051-1.108-.219-.445-.686-1.109-.324-.579-.342-.757-.219-.587-.352-.3-1.31-.4-1.019-.265-.872.578-1.559.332-.562.009-.736-.161-.125-.294.041-.455-.29-.559-.427.095-.458.18h-.654l-.156-.313-.114-.522-.208-.4-.5-.444-.53-.417-1.289-1.28-.924.105-1-.01-.273.426.1.606.177.616.227.35.19.435.267.455.168.587-.25.323-.78-.124-.406-.331-.593-.323-2.172-.369-1.6-.644-.989-.256-.208-.417-.8-.522-.623-.436-.5-.426-.624-.55-.646-.483-.789-.17h-.852l-.334-.132-.167-.276-.207-.558-.293-.483-.52-.285-.529-.3-.48-.492-.56-.473-.509-.644-.488-.512-.51-.085-.208.569.136.283.25.2.062.474-.415.559-.323.323-.634.341-.176.018-.393-.2-.51-.161-.417.2-.416.417-.415.407-.572.407-.634.066-.738-.389-.675-.161-.718-.171-.28-.663.061-1.554.3-.6.384-.407.532-.293.611-.208.969-.351.975-.627.3-.344.342-.346.229-.663.5-1.244.51-.9.1-.364.166-.632-.094-.517-.113-.433.207-1.174.623-.772.272-.358.457-.383.167-.172.218-1.015.012-.721-.095-.477.095-.391.27-.8.539-.013.345-.172.289-.383.136-.473.031-.44-.417-.427-.809-1.761-.894-.939-.385-.478-.176-.848-.26-.92-.021-1.141-.084-1.57-.343-.191-1.539-.019-.968-.058-.652-.3.237-.76.467-.988.23-.734-.115-.593-.291-.307-.2-.363v-.319l.2-.313.229-.037.446-.052.3-.064.365-.224.1-.274-.25-.376-.343-.293-.456-.467-.522-.816-.539-.581-.665-.5-.572-.543-.3-.74.312-.856.229-.561.29-.319,2.077-1.473.947-1.13.718-.414.538-.357-.527-.747-.791-.734-.862-.549-.49-.325-.52-.249-.155-.236.124-.44.458-.447.945-1,.345-1.269.3-.747.843-1.442.455-.191.676-.415,1.581-1.666,1.131-1.334.883-.8,1.081-.307.718-.287.456-.236-.218-.614-.209-.753-.124-.357-.072-.746.052-.4.208-.243.446.421.478.063.624-.159.594-.1.435-.172.115-1.518.122-.811.283-.331.375-.25.416-.332.248-.281-.1-.4-.009-.376.28.217.416.58.322.466.946.377.811.2.656.1.135-.37.02-.421-.124-.531-.23-.293-.6-.3-.353-.267-.677-.409-.6-.313-.488-.307-.8-.772-.553-.689-.353-.216-.394-.217-.424-.2-.323-.415-.239-.689.343-1.614-.051-1.321.249-.746.114-.61.384.065.052-.029.394.01.209,0,.135-.056.229-.011.655.041.374.027.282-.059.291-.178.268-.15.22-.161.176-.079.115-.069.124-.028.27-.114.054-.137.135-.108.071-.152.167.192.208.236.353.259.394.23.146.435.1.434.319.514.177.236.021.124-.021.119-.1.179.083.518.219.4.229.32.124.665.4.073.572.088.291.087.209-.071.363-.072.5,0,.238.021.21.077.363.2.331-.013.429.038.291.062.291-.015.572.066.82.152.7.389.447.178.3.309.5.252.633.208.573-.021.3.369.051.47-.083.285.01.4.115.122.019.1v.213l-.155.7.155.171.167.149.52.415.364.251.767.311.177.034.551-.217.208.05.2.033.259.05.355-.049.2.037.136.033.281.149.093.089" transform="translate(-2219.39 -692.901)"  stroke="#fff" stroke-linecap="square" stroke-linejoin="bevel" stroke-width="1" fill-rule="evenodd"/>
      <text id="100" transform="translate(10.791 49.081)" fill="#fff" font-size="13"  font-family="OpenSans-SemiBold, Open Sans" font-weight="600"><tspan x="0" y="0"></tspan></text>
    </g>
    <g id="_95_Brahmapuri" data-name="95 Brahmapuri" transform="translate(2539.65 522)">
      <path id="talId95" fill="#7DB8EC" title="Brahmapuri Taluka" data-name="Brahmapuri" d="M2263.45,769.41l-.041-.427-.53-.095-.572-.171-.448-.189-.362-.474-.218-.417.135-.568.487-1.308-.177-.654.064-.654.29-.559.427-.606.821-.881.592-.842.241-.445.073-.522-.136-.511-.624-.294-.249-.142-.051-.284.135-.123.655-.1.312-.322.341-.5.416-.473.573-.1.582.115.948.179.435.35.155.839.23.379.571-.1.5-.454.468-.36.666-.2,1.091-1.113,2.307-2.691.79-1.183.136-.617-.188-.378-.427-.407-.363-.227-.342-.2-.125-.568.021-.445-.126-.805-.415-.549-.6-.37-.292-.237-.135-.228-.042-.8-.853-.143-.215-.758.1-.645.123-.948.343-1.515-.291-.417-.6.141-.613.181-.239-.417.051-.891.229-.7.479-.55.706-1.175-.508-.474-.758-.511-.355-.265-.437-.351-.833-.1-.716.172-.685.275-.686.094-.77-.142-.239-.274.219-.711.248-.568.458-.947.811-1.336.406-.569.416-.275.373.256.4.6.573.426.976.113.885.047.923.019.7.133.54.445.405.285.333.056.156-.407.051-.578.208-.625.364-.483,1.477-1.356.238-.843-.1-.55-.229-.427-.156-.3-.5-.625.187-.607.3-.416.719-1.071-.115-.463-.686-.152-.573-.379-.478-.417-.571-.379-.53-.436-.042-.426.23-.265.062-.275-.092-.776-1.9.17-.3-.256.27-.407.145-.464.218-1.08.916-1.752.913-1.317.01-1.45.073-1.165.81-1.155.458-1.071V713.1l-.5-1.212-.363-.787-.115-.559.748-.3,1.114-.227h1.256l.7-.019.436-.219.438-.493.062-.52-.156-.759-.4-.643-.343-.4-.415-.408-.563-.37-.3-.36-.009-1.176.239-.549.354-.124.3-.1.052-.407-.581-.474-.51-.019-.758.086-.8-.171-1.04-.332-.455-.436-.864-.446-.728-.378-.344-.465-.156-.37-.03-.378.019-1.81-.821-.682-.415-.635-.406-.4.2-.38-.093-.18-.063-.018-.738-.2-.654-.215.051-.177.084-.291.218-.576.073-.157.26-.4.125-.488.021-.419.073-.514v-.312l.062-.228.282-.231.135-.226-.052-.129.083-.055.073-.07.145-.033.124-.026.063-.238-.01-.248.062-.157.011-.312.083-.445-.167.076-.156-.072-.239-.042-.124.016-.1-.047-.207-.169-.022-.047-.01-.135.042-.185-.021-.056-.124-.035-.281.119.01-.052-.021-.088.042-.287.114-.42-.084-.023.073-.313.032-.138.072-.325.063-.182.052-.134.1-.217.2-.5.022-.126.093-.328.114-.4.02-.148.094-.472.052-.249.083-.086.125-.47.426.048.832.162,1.258.435.03.017.355.144,1.5,1.006.539.406.947.664.957.651.115.689.446,1.009.509,1.535,1.464,1.5.594.37.322.033,2.931,1.188,1.269.512.207.1.25.185.114.254,1.547.9.75.443.115-.219.051.027,1.267.474.987.019,1.04-.132,1.257-.313,1.664-.54.323-.194,1.454-.242,1.509-.313.4-.084,1.446.009.406.161.426.289.248.209.415.345.926.887,1.008.63.344.378.5.105.385.166.375.1.186.053.583.094.977.251,1.018.343,1.352.695.6.626.311,1.327.3,1.97.53,2.408.323,2.141.03,2.293-.146,3.638-.155,4.13-1.289,4.491-.79,1.289-.759,1.554-.042,1.213.437,1.118,1.311.985,1.87.645.843.587.716.891.375,1.042-.074,1.516-.58,4.074-.083,1.648v1.724l-.323,1.932-.395,1.592-.51,3.695-.291,1.97-.261,1.819.146,2.217.936,1.137,1.7,1.193,1.227,1.4.852,1.97.425,1.856-.456,1.592-.364,1-.437,1.78.188,1.4.85,1.628,1.54,1.971.531,1.1.032.291.155,1.415-.187,1.5-1.31,1.515-1.528,1.383-1.935,2.1-.683,1.421-.323,2.406-.157,1.247-1.527-.679-1.309-.8-1.363-.114-1.059.531-1.154.7-1.029.379-.759.076-.53-.094-.759-.513-.229-.587-.322-1.041-.656-.531-.228.682-.2.644-.446.531-.915.208-1.4-.928-.55-.246-1.611-.777-1.944-.739-5.332-1.213-1.819-.341-1.361-.133-1.008.208-1.321.607-1.246.492-1.1.322-1.383.152-1.7-.133-2.173-.208-1.9-.4-1.321-1.422-2.108-2.6-1.5-2.454-1.9-2.5-1.59-2.188-.968-1.071" transform="translate(-2261.279 -684.292)"  stroke="#fff" stroke-linecap="square" stroke-linejoin="bevel" stroke-width="1" fill-rule="evenodd"/>
      <text id="95" transform="translate(11.35 83)" fill="#fff" font-size="13"  font-family="OpenSans-SemiBold, Open Sans" font-weight="600"><tspan x="0" y="0"></tspan></text>
    </g>
    <g id="_103_Sindewahi" data-name="103 Sindewahi" transform="translate(2471.342 597.105)">
      <path id="talId103" fill="#7DB8EC" title="Sindewahi Taluka" data-name="Sindewahi" d="M2205.442,779.349l.406.549.31.313.365-.014.4-.171.447-.179.375-.148.384-.114.4.159.281.249.352.275.27.032.25-.224.042-.4.094-.746.134-.817.313-.791.02-.792-.011-.5.022-.478.2-.644.749-1.271.4-.683.321-.427.457-.217.4-.1.645.089.53.1.125-.337-.04-.333-.177-.287-.114-.351.031-.389-.521-.415-.448-.459-.395-.447-.363-.618-.3-.7.353-.414v-.338l-.188-.255.011-.376.321-.261.375-.064.447.256.541.261,1.081.434.726.389,1.343,1,.676.345.685.433.343.376.167.415.093.485.052,1.008.353.344.281.089.343-.121.322-.376.052-.422-.063-.4-.186-.459-.188-.307-.238-.4-.2-.332-.176-.447-.229-.5-.187-.715v-.671l-.167-.919-.114-.727-.042-.74.071-.325.022-.447-.437-.522-.135-.549-.259-.6-.312-.785-.1-.37-.52-.3-.427-.35.323-.275.2-.416-.271-.344-.124-.4.062-1.857,1.995-.077,3.284.071.646-.109.2-.4.478-.142.573.09.31.23.051.383.188.255-.976.628-.967.35-.613.209-.53.293-.385.407-.3.6-.062,1.554.28.663.716.171.677.161.737.389.636-.066.57-.408.415-.408.417-.417.416-.2.51.161.394.2.176-.019.633-.34.323-.322.416-.559-.062-.474-.25-.2-.135-.284.209-.568.508.085.49.511.509.645.563.472.476.492.53.3.52.285.292.483.208.558.166.275.333.132h.851l.79.17.645.484.623.55.5.426.623.436.8.522.208.417.987.256,1.6.644,2.172.369.593.322.4.332.78.124.249-.322-.166-.587-.27-.455-.188-.435-.228-.351-.178-.616-.093-.606.271-.426,1,.009.926-.1,1.288,1.279.53.417.5.445.205.4.115.522.156.312h.656l.458-.181.425-.094.291.559-.041.456.124.293.738.161.562-.009,1.559-.332.872-.578,1.02.265,1.308.4.356.3.216.587.342.757.323.578.687,1.109.218.445.052,1.108.646.246h.872l.625.1.425.076.063.4.259.114.552-.246.166-.446-.062-.52-.4-.768-.062-.464.175-.407,1.05-.985.718-1.052.559-.663.366-.161.612-.132.52.028.333-.009.073-.54-.477-.417-.042-.578.146-.3.3-.095.759-.141.966,1.07,1.59,2.188,1.9,2.5,1.5,2.454,2.11,2.6,1.319,1.421,1.9.4,2.174.208,1.693.133,1.384-.151,1.1-.323,1.248-.492,1.32-.607,1.008-.208,1.363.133,1.818.34,5.332,1.213,1.943.738,1.611.777.552.246,1.4.929-.177.436-.125.606-.549.331-.469.066-.312.256-.551.35-.426.094-.7.066-.758-.217-.666.1-.228.786.073.739.134.692.249.7.313.73.385.341.468.1.446.15.4.379.114.541-.239.332-.177.293.114.276.126.587-.375.208-.729-.189-.663-.057-.79.361L2295,791.3l-.956-.171-2.121-1.165-.85-.5-.656.171-.7.19-.518-.009-.749.53-.488.085-.134-.36-.1-.446.124-.928-.136-.228-.362.351-.447.189-.136-.3.2-.644-.073-.568-.624-.511-.664.038-.312.426-.6,1.184-.292.55-.417.511,1.123.8-.01.236-.187.36v.227l.341.55.1.417.084.549-.219.352-.374.256-.322.407-.4-.029-.375-.246-.248.436-.083.777.5.607.456.454-.186.863-.26,1.042-.572.4-.457.152-.238.426-.333,1.194-1.237,1.042-.3.351-.166.53-.073.588-.344.882-.394.417-.863.493-.718-.1-.562-.35-1.276-1.195-.573.18-.447.3-.446.142-.28-.009-.719-.6-.529-.633-.353-.711v-.474l.384-.3.633-.085.593.076.542.209.258-.171-.083-1.365.042-2.605.125-.986-.342.152-.355.37-.354.36-.291-.152-.29-.426-.437-.465-1.144-.35-.75-.076-1.006.3-1.518,1.611-.011.275.365.379.02.388-.394.246-.509.522-.146.71-.137.275-.352.019-.289-.115-.667-.492-.634-.16-.978.047-1.268.067h-.728l-.581.085-.594.284-.268.407-.063.531-.238.274-.469.161-.177.426.168.8v.492l.249.588.354.255.424.067.385-.341.479-.313.238.294-.124.474-.031.71-.052.672-.354.692-.541.378-1.538.588-.79.218-.634.039-.529.132-.239.607-.126.644-.633.435-1.352-.361-.332-.18-.624-.208-.437.01-1,.957-.416.785-.395-.133-.249-.739-.417-.171-.166.853-.592.7-.3-.019-.436-.53-.343-.437-1.226.683-1.776.606-.728.189-.832-.113-.76-.114-1.007.037-.208.417-.51.341-.811.38-.208.511.355.606.343.437.322.189.738-.018.78-.341.666.152-.251.928-.28.947-.385,1.1-.757,1.515-.562,1.1-.935,1.156-.282-.161-.549-.617-.509-.493-.479.209-1.039.569-1.4-.247-1.4-.549-1.04-.436-1.975-.436-.945.172-1.549.776-1.466.4-1.475.037-.988-.4-1.642-.663-1.217-.436-.986.095-.738,1.212-.677.815-.592.587-.718-1.232-1.081-1.97-.947-1.648-.5-1.156-1.527-2.065-2-2.634-1.518-1.82-.645-.834.135-1.8.458-.681.467-.758.427-.663-1.082.037h-1.7l-2.34.018.353-.5.4-.387.49-.418.469-.4.6-.455.872-1.743-.393-1.25-.135-.995-.738-.38-1.884.6-.912.17-.9.237-.844.274-.976.1-1.009-.218-1.134-.417-.81-.6.167-.484.323-.407.01-.522-.218-.35-1.872-.355-1.537.062-1.164-.171-.49-.152-.562-.062-.444.072-.355.284-.467.124-.5-.422.041-1.89.021-1.161.229-.9.353-1.057.635-1.236.486-.54.821-.829.542-.847.177-.4v-.317l-.155-.318.073-.459.249-.365.552-.9.468-.56.321-.62.248-.38.615-.359.832-.27.249-.27.333-.3.457-.383.362-.218.635-.147.447-.109.635-.122.437-.006" transform="translate(-2195.381 -756.467)"  stroke="#fff" stroke-linecap="square" stroke-linejoin="bevel" stroke-width="1" fill-rule="evenodd"/>
      <text id="103" transform="translate(25.658 35.895)" fill="#fff" font-size="13"  font-family="OpenSans-SemiBold, Open Sans" font-weight="600"><tspan x="0" y="0"></tspan></text>
    </g>
    <g id="_99_Mul" data-name="99 Mul" transform="translate(2501.695 639.528)">
      <path id="talId99" fill="#7DB8EC" title="Mul Taluka" data-name="Mul" d="M2277.6,868.037l-.967.675-.281.246-.281.227-.323.19-.655-.085-.531-.018-.5.265.28.274.083.739-.777,1.316-.437.607-.488.852-.51,1-.115,1.08.259,1.061.365.777.6.815.3.815-.125.739-1.144.227-.967.246-.872.19-1.591.36-.79.625-.229.871-.664.531-.687.095-.926-.265-.643-.474-.437-1-.093-1.839.25-3.373.073-1.61.435-1.724.073-1.933-.4-.644-2.026-.454-1.4-.057-2.08-.19-3.19-.417-1.205.189-.436-.039-.781-.265-.612-.152-.852.446-.686.654-.271.473-.28.73-.334.512-.052.6.177.417.062.313-.385.085-.6-.085-.54-.331-.729-.456-.623.058-.6.046-.384-.426.134-.51.332-.493.385-1.383-.219-.711-.478-1.032-.227-.842-.386-.559-.594-.465-1.216-.123h-.437l-.529-.142-.593-.294-.593-.028-.748.113-.6-.208-.332.463.01.6.011.7-.27.786-.386.028-.593-.122-.78-.01-.789-.029-1.164-.132-1.216-.256-1.361-.237-.593-.285-.728.189-.666.247-1.225.17-1.164-.208-1.238-.407-.757-.246-.853-.255-.333-.124-.291-.2,1.082-1.724.55-.36.7-.266,1.329-.284,2.432.085.874-.644.446-.161.333-.284.3-1.109.239-.52.53-.493.425-.332.436-.634.553-.958.447-.454-.531-.313-.551-.313-1.112-.682-1.008-.427-.739.047-.977.209-.155.351.373.369.635.322.26.341-.542.947-.51.265-.622.237-.759.067-.937.048-1.183-.115-.8-.312-.582-.351-.779-.4-.675-.2-.562-.322-.583-.539-.239-.616.79-.834.708-.806.9-.957.4-.1.458.019.468.133.259.265.4-.01.363-.369.646-.284.769-.293.509-.1.832-.161.426-.208.593-.872.426-.369.353-.086.52.161.552.17.393.2.4-.18.322-.72.322-.672.313-.824-.313-.37-.541-.275-.354.123-.393.1-.521-.066-.645-.114-.424-.2-.541-.711-.229-.663-.084-.8-.146-1.222.3-2.653.738-.275,1.311-.143.383-.53.854-1.6.395-.275.427-.236.531-.341.613-.341.633-.189.687-.133.592-.265-.248,1.582-.791.663.749,1.185,1.174.369,1.278.521.781.9.414,1.915,1.247-.03.062-2.027,1.706-1.07.511-1.212,1.464.189.7-.89-.281-.692-2.713.018-1.092-.739-1.746.474-2.941-1.715.063-.3-.166-.3-.49-.729-1.683-.181-1.009-.236-.914-.132-.862-.266-.5-.6.219-.445.633-.161.645.312.884-.133.009-.426v-.606l-.175-.654-.219-1.393.239-.607.093-.643-.3-.322-.239-.313-.51-.853-.208-.862.457-.682.385-.568.468-.73.125-.55-.167-.587-.374-.957-.718-.407-.757-.047-.5.009-.272-.3-.3-.635-.071-.578.384-.3.635.141.528.048.676-.057.562-.2,1.258.076.924.341.457.052.582.152.4.076.706.085.676-.062.135-.157.052-.393-.124-.563-.23-.621-.343-.512-.289-.483-.322-.412.01-.289.332-.332.28.161.937-1.155.56-1.1.76-1.515.385-1.1.278-.947.25-.929-.663-.151-.781.341-.738.019-.321-.189-.344-.437-.354-.606.208-.511.811-.38.51-.341.208-.416,1.009-.038.757.113.832.113.728-.189,1.778-.606,1.227-.683.342.437.437.53.3.019.593-.7.166-.853.417.17.249.739.4.133.415-.786,1-.957.437-.009.624.208.333.18,1.349.361.635-.436.125-.644.239-.607.53-.132.636-.039.788-.218,1.538-.588.542-.379.352-.692.052-.673.03-.71.128-.474-.24-.294-.477.313-.387.341-.426-.067-.354-.255-.249-.587v-.493l-.167-.8.178-.426.468-.161.239-.275.063-.53.27-.407.593-.284.579-.085h.729l1.268-.066.269.919.209.578.072.617-.145.426-.27.4-.2.265-.26.483-.032.541.084.587.29.578.219.8.56.133.593.18.032.436-.053.492-.322.151-.393-.009-.417-.312-.322-.16-.114.188-.239.6h-.375l-.271-.256-.135-.332-.479.171-.333.3-.28.426-.218.615.238,1.3-.092.919.009.635.478.417.728.379.592.284.708.227.363-.019.393-.512.063-.436.177-.739.343-.35.51-.038.269.445-.166.587-.032.587.167.663.156.559.456.683.417.189,1.07.2,1.019.17,1.009.38.341.559.1.635-.113.606-.406.521-.343.095-.427-.226-.5-.076-1.259.445-.737.276-.686.141-2.4.6-.375.568-.625.644-.02.513.312.928-.145.843-.426.672-.406.341.01.531.26.483.021.682v.3l.044.882.613.606.417.521.28.437.061.5-.092.937-.063,1.317.292.455.642-.322.552-.873.551-.492.666-.493.417.01.488.711.675.815.405.615.426.73.593,1.289.167.757.176.474.644.019.612.076.355.474.238.369.157.607v.6l.124.332.561.132.478.132.559.739-.5.976-.155.844,1.4,1.279,3,1.28.625-1.3.218-.228,1.039.617.913.53,1.237.976,1.226,1.611.728,1.373-.53,1.327-.25.768-.094.464.417,1.025-.395.17-1.944,1.259-2.921,2.122-.987,1.023-.5,1.914-.769.99-1.083,3.307-.363,3.4.5,1.826.573,1.033,1.808,2.454.656,1.883" transform="translate(-2224.68 -797.343)"  stroke="#fff" stroke-linecap="square" stroke-linejoin="bevel" stroke-width="1" fill-rule="evenodd"/>
      <text id="99" transform="translate(25.305 57.472)" fill="#fff" font-size="13"  font-family="OpenSans-SemiBold, Open Sans" font-weight="600"><tspan x="0" y="0"></tspan></text>
    </g>
    <g id="_101_Pombhurna" data-name="101 Pombhurna" transform="translate(2492.164 706.968)">
      <path id="talId101" fill="#7DB8EC" title="Pombhurna Taluka" data-name="Pombhurna" d="M2215.49,899.211l.258-.759.415-.17.937-.246.166-.72.833-1.5.57-.7.852-.55.967-.682.76-.4.779-.379.094-.663-.437-.663-1.247-.853-.551-1.024.875-.057.625-.682-.292-2.861.456-1.971.271-1.78.208-2.046.145-2.161.3-1.715.01-.682-.1-.787v-.728l.1-.513.115-.654-.167-.227-.5-.294-.415-.246-.4-.227-.064-.237.146-.132.853.085.57-.009.615.056.51.181.343.132.219-.237.092-.408-.217-.473-.644-.181-.4-.226-.124-.589-.167-.578-.258-.4v-.408l.416-.342.468-.265.29-.293.115-.568.009-.426-.228-.257-.354-.35-.187-.445.125-.313.4-.228.324.028.673-.293.553-.379.551-.313.446-.312.273-.332.227-.284.251-.5.291.2.33.124.853.256.759.247,1.237.407,1.164.209,1.227-.17.663-.248.73-.189.591.285,1.362.237,1.214.255,1.166.133.789.029.78.01.592.123.386-.029.27-.786-.01-.7-.01-.6.333-.464.6.208.749-.113.593.028.591.294.532.142h.434l1.216.123.594.465.384.559.229.842.477,1.032.218.71-.384,1.384-.332.492-.134.511.384.427.6-.046.625-.057.728.454.539.332.6.085.384-.085-.062-.313-.177-.417.052-.6.334-.513.279-.729.271-.473.686-.653.854-.447.611.152.779.265.439.038,1.206-.189,3.19.417,2.079.189,1.4.057,2.029.454.394.644-.072,1.933-.437,1.724-.073,1.61-.25,3.373.094,1.838.437,1,.642.474.926.265.688-.094.665-.531.229-.871.787-.625,1.591-.36.871-.19.968-.247,1.145-.226.124-.739-.3-.815-.6-.815-.365-.777-.259-1.061.114-1.08.51-1,.489-.852.436-.607.779-1.317-.083-.739-.279-.275.5-.265.53.018.656.085.322-.19.281-.226.279-.247.966-.675.729,2.067,2,3.732.873,1.644-.094,3.291-.812.91-2.182,1.583-.4,1.7-1.526,2.632-.978.31-.978.336-3.023,3.439-1.622.646-1.682,1.428-.428,1.753-.322,2.9,1.1,5.295-1.1.612-1.007.569-.677.208h-.665l-1.54.019-2.368-.663-1.705-.417-.446-.986-.344-1.042.031-1.1.2-1.042-.322-.682-1.2-.436-.248-.019-.832.285-.479.284-.809.379-.833.359-1.08.435-.624.854.353,1,.623.8-.145.512-1.1.208-1.009-.511-.539-.511-.478-.645-.717-.4-.948.018-.706.3-.582.4-.552-.152.115-.378.032-.664-.417-.4-.78.037-1.07-.189.541-.531.25-.966.436-.643.374-1.005-.218-1.458-1.4-.853-.384.36-.624.871-.345.739-.238,2.255.28.89.51.284.135.531-.042.567.114.588.114.606.064.967.124,1.08.156,1.383.188,1.117-.491.72-.853,1.024-1.03.568-1.381-.209-1.175-.019-.354.284-.042,1.061-.55-.057-.437-.36-.529-.359-.78-.626-.448-.208-.966-.285-.456-.284-.8-.777-.646.189-.415.532-.759.341-.112-.909-1-.682-2.026-.02-1.31.891-.737-.095-.529-.228-.667-.568-.592-.663-.978-.341-1.278-.284-1.154-.1-1.7-.19-.758-.378-1.381-.626-1.384-.228-1.195-.378-.279-.511" transform="translate(-2215.49 -862.309)"  stroke="#fff" stroke-linecap="square" stroke-linejoin="bevel" stroke-width="1" fill-rule="evenodd"/>
      <text id="101" transform="translate(9.836 23.032)" fill="#fff" font-size="13"  font-family="OpenSans-SemiBold, Open Sans" font-weight="600"><tspan x="0" y="0"></tspan></text>
    </g>
    <g id="_98_Gondpipri" data-name="98 Gondpipri" transform="translate(2478.67 735.401)">
      <path id="talId98"  fill="#7DB8EC" title="Gondpipri Taluka" data-name="Gondpipri" d="M2213.87,905.411l.813-.143.383-.076.748-.113h.739l.573.152.884.208.488-.047.978.161.676.237.895-.095.2-.588.064-.776.042-1.914-.82.019-.874.018-1.01-.123-.632.037-.791.313-.447-.274-.355-.333-.561-.15-.54.217-.571.219-.239-.058-.479-.284-.146-.285.021-.464.115-.465.145-.359.279-.531.344-.426.385-.7.82-.653.28.511,1.2.379,1.383.227,1.382.626.759.378,1.7.191,1.156.094,1.276.284.978.341.592.663.664.568.531.227.738.1,1.312-.891,2.025.02,1,.682.112.91.76-.341.416-.531.646-.189.8.778.456.284.967.285.447.208.781.626.529.36.438.359.55.057.041-1.062.355-.284,1.175.019,1.381.208,1.029-.568.853-1.024.488-.72-.188-1.117-.155-1.384-.125-1.08-.061-.967-.115-.606-.115-.588.042-.568-.135-.531-.51-.284-.28-.891.239-2.255.343-.739.624-.871.383-.361,1.4.854.218,1.458-.375,1.005-.436.644-.249.966-.542.531,1.072.19.779-.038.417.4-.031.664-.114.379.55.151.582-.4.708-.3.946-.019.716.4.479.644.541.511,1.008.512,1.1-.208.146-.511-.622-.8-.354-1,.623-.853,1.082-.435.832-.36.81-.379.477-.284.833-.284.249.019,1.2.436.323.682-.2,1.043-.031,1.1.341,1.042.447.985,1.707.417,2.368.663,1.537-.019h.666l.677-.209,1.007-.568,1.1-.612.6,2.858,2.1,5.776,1.945,2.495,2.608,2.364,1.859,2.914-.206,6.377.508,12.77,1.571,8,4.1,6.938-.27,0-.02-.016-.27-.143-.261-.153-.227-.133-.3-.14-.27-.15-.031-.018-.093-.1-.229-.136-.415-.162-.458-.112-.073-.037-.094-.064-.032-.019-.384-.219-.394-.492-.592-.608-.364-.4-.115-.14-.073-.1-.074-.044-.009,0-.251-.232-.291-.206-.124-.069-.021-.029-.032-.03-.2-.232-.156-.19-.218-.243-.26-.222-.208-.192-.094-.06-.072-.08-.135-.111-.292-.173-.363-.228-1.873-.752-.28-.007-.321-.022-.395-.182-.792-.31-1.029-.219-.674-.222-.687-.072-.385-.054-.052.071-.323-.069-.436-.082-.458.063-.736.268-.8.511-.8.589-1.247,1.13-.4.4V943.9l-.208.25-.395.416-.551.572-.4.35h0l-.009,0v0l-.125.155-.344.256v0h0v0l-.134.078-.4.253-.592.263-.354.123-.365.08-.375.077-.291.014-.645-.014-.31.065-.438.019-.135.025v.04h0v-.038l-.28-.026-.365-.049-.114-.029-.093.012.02-.032-.084-.02-.333-.041-.426.007-.384.041-.269.111-.218.126-.385.12-.686.244-.364.143v0l-.771.142v.01l-.27.01-.342-.108-1.269-.021-1.756.075-.769.152-.53.1-.957.181-1.2.127-2.09.406-.1.02-.853.358v0l-.135.037-1.031.722-1.089,1.145.01.009v0h0l-1.082,1.1-.374.756-.187.9-.1.864-.052.34h0l.012.023v.179l-.239.736-.448.857-.364,1.135-.259.9-.052.623.042.9-.095.267h0l-.093.441-.417,1.829-.581,1.226-.5.333-.5.251-.508.077-.656-.088-1.663-.539-1.163-.664-.885-.711-1.331-.78-.757-.322v0l-.311-.1-.749-.286-.707-.379-.581-.077-.115-.007-.064-.05-.28-.266-.177-.172-.239-.475-.249-.5-.177-.732-.385-1.945.042-.536-.229-1.486-.177-.406-.093-.12-.052-.054-.2-.242-.229-.233-.113-.021-.312-.022-.655.191-.021,0-.687.34-.249.1-.188.051v0l-.135.048-.53.221-.124.07.041-.03-.395.3-.819.705-.938.777-.863.784-.934.72-.457.132-.958-.085-.82-.237-.914-.311-.926-.465-.894-1.365-.923-1.753-.075-.776.282-1.071.52-.7,1.839-.767,1.164-.541.353-.654-.021-2.293.322-2.084-1.267-3.591-1.216-4.188-.968-3.23-.643-2.35-.468-.644-.552-.511-.645-.484-.811-.444-.737-.617-.186-.994-.062-1.128.03-.34-.571-.37-.3-.085-.634-.284-.674-.284-.769-.2-.729-.028-.468-.285-.427-.473-.426-.483-.656-.606-.28-.654.291-.492-.011-.635-.01-.559,3.608.265.861.019.883.076.8.341.477.2.478.171.874.35.635.465.572.188.362-.331.177-1.658-.2-2.909-.749-3.7.81-3.316.863-2.606.2-.739.031-.748-.01-.36V906l.093-.3.353-.288" transform="translate(-2202.48 -889.664)"  stroke="#fff" stroke-linecap="square" stroke-linejoin="bevel" stroke-width="1" fill-rule="evenodd"/>
      <text id="98" transform="translate(20.33 38.599)" fill="#fff" font-size="13"  font-family="OpenSans-SemiBold, Open Sans" font-weight="600"><tspan x="0" y="0"></tspan></text>
    </g>
    <g id="_102_Rajura" data-name="102 Rajura" transform="translate(2409.721 718.928)">
      <path id="talId102"  fill="#7DB8EC" title="Rajura Taluka" data-name="Rajura" d="M2216.492,906.045l-.354.289-.093.3v.436l.01.36-.031.748-.2.739-.864,2.606-.811,3.315.749,3.7.2,2.91-.177,1.658-.363.332-.571-.189-.634-.465-.874-.351-.478-.171-.478-.2-.8-.341-.883-.076-.864-.019-3.606-.265.01.559.01.634-.29.492.28.654.655.607.427.483.427.473.468.285.728.028.768.2.677.284.635.285.3.085.572.369-.032.341.063,1.127.185.995.74.616.809.445.645.483.552.511.466.645.645,2.35.967,3.23,1.215,4.187,1.268,3.591-.322,2.084.019,2.293-.352.654-1.163.541-1.841.767-.519.7-.281,1.071.072.776.925,1.752.895,1.365.926.465.913.312.821.237.958.085.456-.132.936-.72.863-.783.208.445.1.3.124.516.021.093.073.512-.021.163-.011.076-.009.066-.021.155-.032.284-.062.331-.02.049-.021.263-.021.212-.135.819-.052.563v.161l-.042.26-.083.149-.021.1-.125.021-.457.049-.333.177-.1.076-.188.09-.27.1-.425.318-.4.259-.155.084-.333.212-.447.3-.447.256-.167.136-.052.114-.145.176-.146.236-.063.069-.248.255-.064.048-.278.181-.354.162-.312-.038-.176-.033-.125-.034-.457.049-.458.02-.4.035-.685.06-.779.322-1.124.452-.561.23-.79-2.119L2208.8,963.1l-.125-.076-.228-.363-.167-.2-.675-.215-.166-.081-.458-.485-.458-.529-.354-.287-.135-.137-.155-.092-.458-.124-.29-.1-.064-.019-.488-.67-.3-.306-.667-.625-.218-.259-.3-.3-1.5-.137-.385-.028-.26-.016-.29.011.051.713.009.277.064.577.01.1-.032.1-.364.018-.094.112-.446-.211-.758-.359-.146-.1-.083-.054-.843-.346-.623-.17h-.095l-.375-.156-.414-.329-.136-.028-.029.034v-.019l-.011-.081-.084-.064-.081-.054-.084-.134-.073-.238-.093-.188-.042-.144-.021-.141.021-.007.042-.017h.052l-.145-.221-.23-.271-.029.048-.167-.171-.25-.363-.124-.189-.052-.086.062-.028-.073-.1-.051.006-.3-.333-.321-.4-.187-.278-.167-.219-.238-.045-.424,0-.021-.034-.072-.089-.073-.138-.125-.039-.167-.355-.093-.309-.082-.134-.093-.134h-.167l-.083-.016-.739-.089h-.863l-.509-.242-.342-.173-.011-.024-.124-.045-.115-.159-.124-.49-.115-.435-.04-.324-.011-.245-.011-.167-.04-.111-.021-.021-.063-.256-.052-.095-.073-.125-.011-.022-.021-.129-.115-.2-.291-.01-.164,0-.147-.27-.1-.308v-.088l-.053-.2-.395-.029-.644.068-.582-.075-.3-.2-.229.041-.281.035-.312.062-.292.17-.374.051-1.308.057-.594.068-.289-.117-.157-.015-1.091.3-.271-.093-1.122-.4-.26-.057v-.02l-.208-.047-.218-.014-.323.042-.455.051-.79.062-.011.143.02,2-1,.278-.375-.451-.1-.117-.167-.22-.155-.264-.094-.6.094-.965-.125-.366-.031-.212-.082-.48-.041-.253-.115-.745-.063-.417-.26-1.719-.01-.087-.031-.189-1.03.053-.666.056-.02,0-.177,0-1.236.062-1.727.1-.653-.162-.157-.052-.146-.033-.259-.1-.9-.3-.6-.2-.041-.026-.27-.213.041-.071v-.125l-.178-.958.126-.76-.146-.219-.093-.114-.592-.606.5-.706.374-.455.311-.719-.062-.492-.788-.361.051-.454,1.5-1.4.6-.455-.239-.72-.729-.36-1.09-.094-1.029.227-1.342-.379-.705-1.895.156-1.195.455-.871.125-.7-4.729-1.837-1.008-.417-1.215-.379-1.684-.341-1.007-.72-1.29-.663-.646.852-1.131.967-1.4,1.763-.791,1.193-.685.739-.364,1.042-.094,1.383-.114.341-.9.322-1.424.379-.373.834-.594-.038-.7-.19-.322-.511-.458-.589-.53-.643-.684-.437-1.425-.681-.924-.417-1.685.037-1.173.492.094-.568.164-1.117.686-1.44.271-1.952-.02-.511-.23-.72-.5-.664-.923-.473.041-1.346-.4-1.5.062-1.763-.416-2.405.624-.266,1.153-.606,1.8-.759,1.143.341.739.228.926.038.986.227.924.246,1.332.38.988.264,1.319.133,1.33-.039.78-.037,1.4.341,1.361.455,1.06-.133.7-.094,1.278.019.238.549.854-.114.322-.682.209-.739.29-1.251v-1.364l.353-.966v-.835l-.322-.417-.978.36.323.606-.364.4-.645.207-.686.172-1.132-.36-.25-.834-.187-1.1.187-.7.822-.511,2.005-1.043,1.02-.55.893-.454.343-.36-.25-.683-.871-.91-.666-.909-.718-.493-.207-.568.51-.739.519-1.8-.1-.246-.811-.493-.229-.474-.094-1.023.114-.909.167-.645.438-1.042.342-.8.177-.985-.55-.1-.084-.417-.354-.852h-2.327l-.25-.72-.094-.891.167-.739.25-1.193v-.341l-.531-.607-.687-.758-.924-.416-.395.037-.988.17-.687.057-.364-.057.063-1.1-.8-3.506.063-.834.581-.682.634-.682.3-.361.978-.454.458-.493.705-2.843-.955-2.506-.208-.857.458-.028,1.141-.323,1.134-.44.924-.156,1.216-.038,1.665.113,1.371-.065,1.33-.058,1.039.29,1.135.9,1.392,1.075.758.891.989,1.137,2.473,1.082.863.145,1.881-.143.551-.141.55-.076.644.028,1.018.361.707.35.645.426.676.635,1.237.967.7.578,1.039.682,1.538.4.51.256.614.464.425.719.052.644-.041.474-.187.493-.28.323-.488.464-.292.511.021.909.779,1.043,1.62,1.241,2.442,1.032,2.994,1.346.863.208,1.695.379.882.19,1.322-.19,1.475-.313,1.361-.18.863.161.674.464.667.492.873.513.811.407,1.133.521,1.589.862,1.862.635.82.55.542.568.551.606.467.635.812.606,1.578.54.874.569.625.52.6.778.8.569.634.388,1.382.417.924.873.521.445.666.8" transform="translate(-2135.932 -873.53)"  stroke="#fff" stroke-linecap="square" stroke-linejoin="bevel" stroke-width="1" fill-rule="evenodd"/>
      <text id="102" transform="translate(34.279 48.072)" fill="#fff" font-size="13"  font-family="OpenSans-SemiBold, Open Sans" font-weight="600"><tspan x="0" y="0"></tspan></text>
    </g>
    <g id="_381_Jivati" data-name="381 Jivati" transform="translate(2367.238 763.176)">
      <path id="talId381" fill="#7DB8EC" title="Jivati Taluka" data-name="Jivati" d="M2156.506,973.545l-.155.009-.2-.074-.209.061-.072,0-.447-.019-.187-.034-.227,0-.146.033-.24.066-.384.074-.458.073-.239.166-.3.115-.333.145-.3.069-.789.116-.187.064-.177.056-.135.016-.957-.024-.81-.121-.789-.111-.146-.04-.259-.163-.094-.04-.115-.07-.072-.033-.073-.04-.187-.352-1.166-1.383-1.152-1.192-.811-2.686-.375-.367-3.772-2.657-1.237-.244-.52-1.191L2137.4,963l-1.986-.581-1.661-2.107-1.789-.519-.831-1.741-1.1-.55-2.5-.121-2.588-.275-1.237-.4-.541-.855-4.209-2.015-1.466.153-3.222,1.291-2.91-.222-2.879.4-.114-1.741-3.627-2.779-.259.61-.717.337-.55,1.65-5.873.121-1.663-.55.177-.325.1-.712-.873-1.707.052.009.114.016.147.013.124.015.229.03.073.016.248.055.063.018.281.081.27.048.125.009.083.017.053.006.238.016.032-.014.094-.073.124-.1.1-.057.186-.116.125-.067.073-.046.2-.11.167-.095.25-.143.052-.035.031-.008.02.084.187-.1.042-.033v-.113l.043-.009.05-.006.155-.087.053-.1.042.013.1-.091.041-.044.1-.092.115-.11.1-.1.063-.06.042-.028.176-.153.146-.131.031-.013.166-.061.188-.077.073-.018.021-.012.114-.034.062-.017.125-.033.321-.1.084-.064.063-.041.229-.08.083-.089.1-.108.053-.065.05-.041.188-.13.031-.025.229-.28.031-.079.094-.218.083-.194.083-.147.125-.127.3-.336-.01-.09-.073-.472-.03-.253-.021-.228-.022-.078-.031-.235-.042-.242-.063-.055-.145-.138-.177-.179-.229-.224-.26-.237-.031-.025-.165-.111-.1-.045-.2-.066-.333-.121-.1-.044-.489-.219-.03-.012-.334-.209-.052-.029-.343-.295-.032-.044-.145-.14-.176.079-.219.107-.083.037-.184.083-.064.026-.279-1.025-.479-1.866.426-.067.136-.018.156-.032.259-.082-.011-.091-.031-.207-.042-.207-.01-.006-.022-.162-.038-.153-.012-.062.012-.12.008-.183.03-.258-.01-.025v-.041l.022-.2.01-.089.029-.147.013-.115.114-.249h.01l.083-.049.032-.121.04-.155.053-.159.062-.11.063-.1.062-.1.042-.065.073-.209.083-.184.072-.176.011-.026.072-.188.031-.079.167-.322.1-.244.146-.523.115-.347.093-.156.063-.58-.01-.569-.1-.347-.114-.373-.458-.64-.146-.525-.291-.825-.385-1.144-.156-.149.749-1.709.312-.54.384-.492.573-.607.27-.672.28-.435.778-.133,1.746.161.884-.085h1.716l1.486.076,1.039.882.1.416.021.786.3.455.178.681.177.767.955.578.728.237.832.115.676.2.675-.133.093-.53.093-1.743-.041-.786.146-.882.311-1,1.373-.815.823.522.518.237.487.151.584.047.6-.113.8-.379,1.174-.663.864-.5-.167-1.829-.041-.18-.821-.435-1.112-.294-.218-.4.021-.664.28-.482.342-.389.188-.72.208-.663.261-.739.519-.237.593-.066,1.059.181.791.463,1.642.672.841.966.437.778.239.625.333.711.592,1.022.624.3.674.37.708.133.967.066.748-.209.633-.578.55-1.449-.01-.309-.021-.321-.095-.375-.228-.354.032-.342.3-.426,1.435.09.2.189.041.28.042.289.145.185.177.142.26.009.374-.1.354-.208.374-.37.114-.952.095-.308.2-.341.312-.4.51-.332.424-.109.417,2.406-.062,1.763.406,1.5-.042,1.346.925.473.5.663.229.721.02.511-.271,1.952-.685,1.441-.167,1.118-.094.568,1.174-.493,1.683-.037.926.417,1.424.681.686.437.531.643.457.589.323.511.7.189.592.039.374-.835,1.425-.378.9-.323.114-.341.093-1.383.365-1.042.687-.739.79-1.193,1.4-1.762,1.134-.967.643-.852,1.289.663,1.009.72,1.683.341,1.218.379,1.007.417,4.73,1.837-.124.7-.458.871-.156,1.195.706,1.894,1.341.379,1.03-.227,1.091.095.726.359.24.72-.6.455-1.5,1.4-.053.454.791.361.063.492-.313.719-.374.455-.5.705-.137-.134-.071-.13-.064-.153-.135-.574-.051-.149-.157-.249-.041-.119-.031-.111-.063-.284-.145-.238-.986-.391-.239-.164-.156-.065-.729-.437-.405-.169-.114-.075-.354-.141-1.611,1.772-.664.719-.312.341-.042.446-.062.708-.073,1.17.061.941.251.914.249.4.48.223.374.6-.832,2.739-.011.069.114.419.29-.2.2-.147.6-.237.7-.262.488-.2.332-.264-.03.213v.081l-.041.383-.083.738-.115.448-.124.168-.094.123-.1.123-.073.181-.02.072-.042.653-.03.344-.01.056-.03.289-.281.4-.3.473-.3.221-.291.613-.052-.047-.042-.041-.811.959-.021.153-.124.116.01,1.292.3.39.155.174-.02.141-.042.147-.01.07-.115.634.282,1.532-.106.151-.249.368-.25.353-.311.453.031.2.01.247-.113.388-.084.353-.258.594-.469.878-2.453-.218-1.882,2.491-1.027,1.018-.24,1.326-.343,1.049-.374.447.125.659.259.589.229.631.675.605.073.087-.031.3.042.011.073.067.052.015.238.088.125.016.395.042.136.027.082.129.23.307.228.288.4.532.2.261.031.034.1.124.23.235.029.032.166.1.1.33.02.1-.02.27-.012.086v.026l.022.068-.115.122-.145.038-.4.1-.52.215-.312.108-.031.022-.114.181-.093-.023" transform="translate(-2095.08 -915.953)"  stroke="#fff" stroke-linecap="square" stroke-linejoin="bevel" stroke-width="1" fill-rule="evenodd"/>
      <text id="381" transform="translate(28.762 31.824)" fill="#fff" font-size="13"  font-family="OpenSans-SemiBold, Open Sans" font-weight="600"><tspan x="0" y="0"></tspan></text>
    </g>
    <g id="_105_Korpana" data-name="105 Korpana" transform="translate(2345.998 716.692)">
      <path id="talId105" fill="#7DB8EC"  title="Korpana Taluka" data-name="Korpana" d="M2153.8,874.608l.209.857.955,2.506-.706,2.843-.458.492-.976.454-.3.361-.631.682-.583.682-.063.834.8,3.506-.062,1.1.362.057.687-.057.987-.171.4-.037.924.417.686.758.531.607v.341l-.249,1.193-.167.74.094.89.249.721h2.329l.352.852.084.417.55.1-.176.985-.343.8-.437,1.042-.165.645-.114.909.093,1.023.228.474.811.493.1.247-.519,1.8-.509.739.206.569.719.492.666.91.872.909.25.683-.344.359-.893.454-1.018.55-2.007,1.042-.82.512-.189.7.189,1.1.25.834,1.132.361.687-.172.643-.208.365-.4-.322-.606.976-.361.323.417v.835l-.353.966v1.364l-.291,1.251-.209.739-.322.681-.852.114-.239-.55-1.278-.019-.7.095-1.059.133-1.361-.455-1.4-.341-.777.037-1.332.039-1.319-.133-.989-.265-1.332-.379-.923-.246-.987-.227-.926-.038-.737-.228-1.144-.341-1.8.758-1.154.607-.623.265-.426.109-.509.332-.311.4-.2.341-.094.308-.113.952-.374.37-.354.208-.375.105-.259-.009-.177-.143-.146-.185-.041-.288-.043-.279-.2-.19-1.434-.09-.3.426-.031.342.227.354.094.375.021.321.011.309-.551,1.449-.635.578-.747.209-.967-.066-.708-.132-.676-.37-.622-.3-.592-1.023-.333-.711-.24-.625-.436-.777-.843-.967-1.642-.672-.79-.463-1.06-.181-.593.066-.52.237-.26.739-.208.663-.188.72-.342.389-.281.482-.021.664.218.4,1.111.294.822.435.043.18.167,1.829-.864.5-1.176.663-.8.38-.6.113-.582-.047-.489-.151-.52-.237-.819-.522-1.375.815-.311,1-.145.881.042.787-.094,1.743-.095.53-.676.133-.674-.2-.831-.114-.73-.237-.954-.578-.177-.767-.177-.681-.3-.455-.02-.786-.1-.417-1.041-.881-1.484-.076h-1.716l-.884.085-1.747-.161-.778.133-.282.436-.269.672-.571.606-.385.493-.312.541-.748,1.708-.218-.159-1.194-.442-.167-.065-.2-.367-.177-.15-.166.49-.135-.035-.291,0-.562-.008-.031,0-.092.015-.312-.055-.321-.045-.271-.046-.3-.039-.062-.015-.093-.057-.311-.059-.106,0-.374-.019-.416-.015v0l-.032-.006-.218-.047-.02-.006-.031-.006h-.021l-.343-.029-.269.035-.01-.083-.052-.228-.01-.058v-.1l-.052-.011-.031-.007-.177-.019-.312-.047v-.016l-.01-.261-.011-.161-.021-.289-.011-.145-.176-.093-.125-.066-.073-.042-.083-.006-.115-.008-.113-.011-.146-.02-.052,0-.219.021-.1-.089-.073-.077-.052-.041-.208-.133-.125-.073-.125-.073-.083-.036-.115-.006-.062-.007-.126-.012-.134-.013-.113.012-.135-.016-.271-.019-.239-.024-.176-.014-.156-.018-.074,0-.228.017-.26.012-.186,0-.126,0-.02,0-.021.021-.032.061-.022.044-.052.079-.03.074-.053.11-.031.052-.228.191-.136.107-.031.046-.051.063-.072.125-.052.03-.083.013-.135.016-.083.012-.062.013-.053.019-.052.024-.062.024-.26.059-.145.027-.074.014-.031-.006-.042-.05-.135-.124-.042-.019-.031.009-.073.039-.071.041-.116.052-.343.173-.072.033-.271.145-.218.115-.177.09.02.048.041.132.042.157.1.3.094.3v.059l-.022.155-.021.2-.031.262-.032.194-.663-.274-.77-.341-.416-.108L2082.3,930l-.635-.274-.55-.065-.6.007-.635.09-.323.241-.406.092v-.013l-.333-.018-.291-.009-.4-.005-.447.006-.448-.008.042-1.075.093-.214.052-.123.073-.253.135-.517.022-.073.1-.423v-.03l.022-.037.1-.381.021-.039.03-.032.125-.145.021-.031.01-.042v-.775l.042-.22.062-.22.02-.061.021-.049.032-.178v-.056l-.053-.093-.1-.051-.062-.044v-.042l-.02-.49-.043-.294-.01-.071-.052-.171-.094-.3.115-.278.239-.618.83.092-.061-.5-.01-.033v-.038l-.105-.595-.415-.676-.125-.544h0l-.072-.479-.073-.642-.416-.549-.125-.355-.073-.553-.032-.217-.03-.091-.188-.495-.166-.646-.228-.5-.23-.584-.01-.047.208-.659.146-.288.176-.383.052-.2-.031-.373-.125-.247-.012-.04-.009-.03-.031-.2-.011-.063-.01-.031-.032-.159-.02-.044v-.043l-.031-.133v-.049l-.011-.038-.02-.057-.022-.146-.021-.074-.019-.17v-.02l-.032,0-.395.007h-.021l-.051.016-.115.042-.094-.341-.021-.132-.072-.3-.095-.164-.04-.234-.053-.256-.051-.089-.052-.086-.051-.4-.051-.441-.013-.051-.051-.394-.094-.222-.176-.409-.238-.332-.073-.1-.155-.426-.115-.325-.01-.02-.073-.337v-.443l.135-.148-.062-.231-.022-.176.821-.193.56-.359.406-.2.3-.256,1.185-1.026.727-.123.571-.011.615.113.748.226.5.175.487.114.479.081.811.225.561.339.116.308v.657l-.116.554-.188.81-.156.822.043.739.28.411.541.154.508-.042.312.134.707.749.707.493.593.286.55.36.676.164h.6l.758-.124.625-.287.6-.585,1.029-.986,1.113-.442.83-.185.925-.03,1.114.082,1.048.144.978-.031.352-.143.427-.318.385-.555.228-1.159-.176-1.088-.531-.461-.145-.114-.478-.36-.552-.38-.489-.451-.312-.554-.281-1.129.187-1.242.8-.975.615-.935.426-.76.458-.522.683-.657.884-.719,1.165-.8.437-.257.331-.143.833-.135,1.112-.133.79.031,1.049.072,1.123.205,1.038.01.978-.175,1.728.031,1.37.082.479.164.426.39.531.575.518.288.459.061.414-.011.779-.246.645-.575.333-.554.323-.791.375-.862.113-.667.314-.606,1.07-.575.448-.164.747-.041.332.011.676.39.687.4,1.028.37.759.031.831-.041.968-.042,1.547-1.334,1.372-1.129.956-1.734.219-1.457.218-.472.115-.339.187-.246.23.266.385.369.572-.031.486-.112.479-.246.552-.063.4-.184.478-.278.562-.359.393-.451.874-1.622.353-.565.344-.441.374-.318.594-.238,1.287-.389.469-.174.323-.3.342-.471.188-.535.352-.861.23-.524.341-.287.292-.267.239-.349.3-.318.26-.37.323-.533.645-1.832.083-.226-.01-.177-.126-.154,1.569-.1.925.052.437-.089.426-.124.53-.62.4-.578.269-.417.354-.465.541-.251.738.086.592.25.718.455,1.154.867,1.028.905.5.284.768.313.281.019" transform="translate(-2074.631 -871.429)"  stroke="#fff" stroke-linecap="square" stroke-linejoin="bevel" stroke-width="1" fill-rule="evenodd"/>
      <text id="105" transform="translate(35.002 40.308)" fill="#fff" font-size="13"  font-family="OpenSans-SemiBold, Open Sans" font-weight="600"><tspan x="0" y="0"></tspan></text>
    </g>
    <g id="_96_Chandrapur" data-name="96 Chandrapur" transform="translate(2400.469 643.597)">
      <path id="talId96" fill="#7DB8EC" title="Chandrapur Taluka" data-name="Chandrapur" d="M2244.951,817.928l-.333.331-.01.289.322.412.292.484.343.513.23.62.125.564-.053.393-.135.157-.676.061-.706-.085-.394-.076-.583-.152-.457-.052-.924-.341-1.259-.076-.56.2-.676.057-.531-.048-.635-.141-.384.3.073.577.3.635.269.3.5-.009.76.047.715.407.374.957.167.587-.125.55-.468.729-.384.568-.457.682.208.861.508.854.24.312.3.322-.094.643-.24.607.219,1.393.177.654v.606l-.011.427-.882.133-.645-.313-.633.161-.219.445.5.6.863.265.915.133,1.008.236,1.682.18.489.73.167.3-.063.3,2.942,1.714,1.747-.473,1.091.739,2.712-.019.281.692-.7.891-1.465-.189-.511,1.213-1.7,1.071-.063,2.027-1.248.029-.416-1.914-.779-.9-1.278-.521-1.176-.369-.746-1.185.788-.663.248-1.582-.591.265-.686.133-.634.189-.613.341-.53.341-.426.237-.395.274-.852,1.6-.386.53-1.31.142-.737.276-.3,2.652.146,1.222.083.8.229.663.54.711.426.2.646.114.519.066.4-.105.353-.122.54.274.312.37-.312.825-.322.672-.323.72-.4.18-.394-.2-.551-.17-.522-.161-.352.085-.425.369-.593.872-.427.208-.832.161-.509.1-.768.292-.645.285-.365.369-.394.009-.26-.265-.468-.133-.455-.019-.4.1-.9.957-.709.806-.788.834.239.616.581.539.562.322.676.2.78.4.581.351.8.312,1.186.114.935-.047.758-.066.624-.238.51-.265.542-.947-.261-.341-.634-.323-.375-.37.157-.35.976-.209.737-.047,1.009.426,1.113.682.549.313.53.312-.447.454-.549.958-.436.634-.426.332-.531.493-.239.52-.3,1.109-.333.284-.445.161-.874.645-2.432-.085-1.331.284-.7.266-.55.36-1.081,1.724-.832-.568-.812-.237-.976-.189-.531.019-2.493.067-1.6-.076-1.049-.095-.739-.161-.853-.246-.893-.161-1.4-.569-3.255.189-1.142-.085-1.206-.274-.3.189.073.522.145.493-.041.776-.1.36-.105.948-.686.133-.4.151-.237.36.081.474.429.255.155,1.147-.031.645-.239.369-.531.085-.476-.417-.456-.587-.283-.493-.281-.5-.446-.578-.542-.133-.548.019-.519.058-.938.161.323,1.155-.125.778-.321.587-.209.445.1.635.3.53.25.408,1.1,2.037.643,1.658.51,2.795.157.835.052.435-.282.323-.686-.019-.539.3-.354.54.25.4-.01.634-.042.89-.229,2.369-.583.237-.5.493-.177.541-.177.69-.063.229-.779.217-.612.19-.708.189h-.414l-.563-.275-.53.521-.384,1.156-.427-.4-.531-.35-.623-.028-.615.037-.881-.143-.718-.066-2.327-.019-.074-.463.188-.73.261-.218.341-.237.25-.3v-.2l-.333-.133-.341.02-.458.152-.27-.057-.26-.255-.375-.265-.374.113-.271.332-.27.5-.27.388-.779-.171-.374-.294-.188-.3.011-.464.114-.388L2192,885h-.717l-.624.028-.354-.123-.29-.492-1.4-1.715-.655-.635-.063-.748.563-.635.51-.464.1-.417.1-.711-.042-.587-.437-1.156-1.019-1.2-1.319-1.97-1.363-2.492-.8-.824-1.1-.209-.656.086-.531.123-.518.483-.747.767-.646,1.023-1.268.437-1.319.17-.666-.057-.832-.587-.59-.435-.209-.267-.031-1.193-.892-.076-.761.246-.914.38-.529.226-.469.36-.227.53.249.38.031.359-.094.361-.281.056h-.707l-.885.246-.321.437-.082,1.856-.188.739.094.663.821,1.119-.208.986-.55.416-.2.606-.218.66-2.474-1.081-.987-1.137-.76-.891-1.391-1.076-1.134-.9-1.04-.289-1.329.056-1.373.066-1.663-.113-1.217.038-.924.156-1.134.441-1.144.322-.456.029-.281-.019-.77-.313-.5-.284-1.029-.906-1.152-.867-.718-.455-.594-.251-.739-.085-.539.251-.353.465-.27.417-.4.578-.531.62-.425.124-.438.089-.923-.052-1.57.1-.385-.094-.966-.139-.9-.174-1.206-.314-.759-.238-.9-.388-.685-.218-1.174-.28-.832-.169-.531-.118-.145-.152-.376-.3-.55-.724-.321-.623-.53-.69-.219-.17-.155-.077-.281-.021-.312.052-.352.218-.209.077-.166.005-.208-.021-.342-.264-.427-1.16-.218-.963.042-1.776.25-1.452.042-.451-.022-.6-.186-.7.186-.508.208-.318.57-.395,1.2-.749.344-.226.322-.22.28-.256.6-1.114.405-.615.135-.447.011-.421-.2-.549-.458-.452-.913-.478-.77-.251-.821-.21-.768-.077.02-.318.021-.365.031-.318.279-.365,1.061-.821.427-.282.384-.2.343-.05.521.02.331.113.51.19.363-.011.2-.128.167-.266.061-.236.916.122.322.635.4.057.583-.265.365-.142.477.057.541.17.656.3-.01.4.061.663.166.654.135.672.24.36.572.066.612-.085.9-.142,1.828-.436,1.082-.265.685.246.478.02.333-.427v-.493l-.165-.549-.4-1.6-.146-.624-.726-.531-1.446-1.25-.292-.663-.529-.256-.717-.256-.624-.161-.26-.342.042-.369.115-.4.114-.445-.312-.512-.6-.824-1.515-1.165-.064-.313.51-.492.29-.388-.021-.492-.227-.352-.333-.4-.218-.209.323-.2.477.028,1.134.095,2.026-.028.739-.246.519-.218.281-.54,1.029-1.269.28-.767.042-.616.385-.2.591,1.222.687.4.561.408.539.246.677-.009.989-.777.239-.143.52-.028,1.007.037.748-.047.479-.342.386-.406.186-.076.489.217.289,1.44.135.644.594.322,3.565.246.789-.1.916-.511.186-.559.062-.474.167-.351.27.133.592.179.115-.019.2-.246.052-.455.187-.492-.073-.473-.125-.237-.083-.417.54-.048.468-.057.415.616.073.691.01.759.124.682.459.483.54.208.842.313.562.18.809.341.344.3.082.521.094.322h.3l.385-.5.458-.464.559-.4.437-.692.364-.331.063-.549-.011-.644-.53-1.27.219-.332.26-.378-.063-.361-.436-.463.458-1.261.124-1-.072-.55-.426-.5-.592-.417-.666-.559-.821-.54-1.07-.464-.1-5.277,1.238-.607,1.714-.663,1.072-.493,2.026.076.406-.332.635-.568.9-.568.686-.473.1-.711.3-.578.208-.891.061-1.033,1.166-.18.572-.1.478-.039.778.114.635.171.51.037.779-.056.54-.332.508-.654.521-.616-.322-.768.218-.435.312-.322.572-.389.011-.957-.064-.35-.31-.189-.894-.123-.314-.351.219-.256h.853l.551-.076.614-.094.571-.475-.156-.843-.435-.834-.353-.644-.375-.085-.936-.379-.582-.332-.788-.246-.2-.587.177-.635.2-.73.269-.635.563-.482.4-.436.406-.474.385.01.154.407.147.426.655-.066,1.226-.484.613-.237,1.2-.151,1.985.455-.217,1.516-.281.436-.375.35-.374.426-.2.474-.136.615.105.512.623.454.666.407.7.313.563-.435.487-.085.333.208.208.948.323,1.327.3.72.3,1.241.281,1.6-.469,1.137-.8.521-.031.54.207.493v.4l-.145.739.24.445,1.225.768,2.453,1.316.854.3.893-.056.956-.181.729-.5.343-.493.768-.748,1.425-.4,1.953.011,1.061-.048.594-.578.756-.7.813-1.089-.064-.843-.219-1.81-.073-1.44.811-1.052.094-.341.26-.076.448.076.354.265.393.181.468.274.5-.219.291-.416.3-.588.093-.767-.135-.824.52-.8,1.455-.805.529-.369.084-.635-.135-.578-.375-.891-.4-.758-.092-.626.509-1.677.489-.568.261-.578-.021-.465-.218-.389-.229-.455.01-.417.186-.464.23-.445.487-.284.666-.009,1-.389,2.339-.019h1.705l1.08-.037-.425.663-.468.758-.458.682-.135,1.8L2216,806l1.517,1.819,2,2.634,1.526,2.065.5,1.156.947,1.649,1.079,1.971.718,1.231.593-.587.677-.815.736-1.214.988-.094,1.218.435,1.641.663.988.4,1.476-.037,1.466-.4,1.547-.776.946-.171,1.975.436,1.04.435,1.4.55,1.4.247,1.04-.569.477-.209.511.493.55.616" transform="translate(-2127.34 -801.263)"  stroke="#fff" stroke-linecap="square" stroke-linejoin="bevel" stroke-width="1" fill-rule="evenodd"/>
      <text id="96" transform="translate(37.531 52.403)" fill="#fff" font-size="13"  font-family="OpenSans-SemiBold, Open Sans" font-weight="600"><tspan x="0" y="0"></tspan></text>
    </g>
    <g id="_94_Bhadravati" data-name="94 Bhadravati" transform="translate(2373.352 610.735)">
      <path id="talId94" fill="#7DB8EC" title="Bhadravati Taluka" data-name="Bhadravati" d="M2212.744,802.561l-1,.389-.666.009-.486.285-.231.445-.186.465-.011.416.228.455.218.389.02.465-.258.578-.49.568-.509,1.677.094.625.4.758.373.891.136.578-.085.635-.529.369-1.455.806-.52.8.134.824-.093.767-.3.587-.291.417-.5.219-.469-.275-.4-.181-.352-.265-.447-.076-.261.076-.092.341-.81,1.052.073,1.441.219,1.809.064.843-.812,1.089-.759.7-.594.577-1.058.048-1.955-.011-1.423.4-.77.748-.343.493-.727.5-.958.181-.893.056-.853-.3-2.453-1.317-1.226-.768-.238-.445.146-.739v-.4l-.208-.493.032-.541.8-.521.468-1.137-.282-1.6-.3-1.241-.3-.72-.322-1.326-.208-.947-.333-.208-.489.085-.561.435-.7-.312-.665-.408-.624-.454-.1-.513.135-.615.2-.474.375-.426.374-.35.281-.437.216-1.515-1.984-.456-1.195.152-.613.237-1.228.483-.655.067-.146-.427-.155-.407-.383-.01-.407.474-.4.437-.563.482-.27.635-.2.729-.177.635.2.588.791.246.582.332.934.379.375.085.354.643.436.835.157.843-.572.474-.615.094-.549.076h-.853l-.219.256.314.35.892.124.311.189.063.35-.012.957-.569.389-.312.322-.218.436.321.767-.521.616-.51.654-.541.331-.779.056-.508-.037-.634-.17-.781-.114-.479.038-.572.1-1.162.179-.062,1.033-.208.891-.3.578-.1.711-.686.473-.9.569-.635.568-.405.331-2.026-.076-1.071.493-1.714.663-1.238.607.1,5.277,1.073.464.82.54.665.559.593.417.426.5.073.55-.124,1-.458,1.261.438.463.061.361-.259.378-.219.332.53,1.27.01.644-.062.548-.364.332-.436.692-.562.4-.458.463-.382.5h-.3l-.093-.322-.083-.521-.343-.3-.812-.341-.561-.18-.841-.313-.54-.208-.458-.483-.125-.682-.01-.759-.073-.691-.416-.617-.469.057-.54.048.084.417.124.237.072.473-.187.492-.052.456-.2.246-.114.019-.592-.18-.271-.133-.167.351-.061.473-.188.56-.915.511-.788.1-3.565-.246-.594-.322-.135-.644-.291-1.441-.489-.217-.187.076-.385.406-.476.342-.748.047-1.008-.038-.52.028-.24.142-.986.776-.677.01-.541-.246-.561-.408-.685-.4-.593-1.223-.385.2-.042.616-.281.767-1.03,1.269-.278.541-.522.218-.738.246-2.025.028-1.135-.095-.478-.028-.323.2.218.209.334.4.23.352.02.492-.291.388-.51.492.063.313,1.518,1.165.6.824.31.512-.115.445-.113.4-.041.369.259.342.623.161.718.256.531.256.29.663,1.445,1.251.728.531.146.624.395,1.6.165.549v.492l-.332.427-.477-.02-.688-.246-1.079.266-1.831.435-.891.143-.614.085-.571-.067-.24-.36-.135-.672-.167-.654-.062-.663.01-.4-.654-.3-.541-.17-.477-.057-.365.143-.583.265-.4-.057-.323-.635-.913-.122.041-.16-.27-1.113-.333-.729-.281-1.279-.073-.538-.093-.471-.271-.381-.833-.508-.716-.493-.624-.308-.738-.026-.49-.025-.436-.272-1.175-1-.29-.406-.344-.461-.115-.436.042-.847.137-.657-.053-.687-.135-.643-.468-1.329-.405-.646-.675-.8-.27-.379-.052-.278v-.3l.041-.421.146-.564-.053-.961-.26-.379-.29-.318-.416-.3-.416-.2-.458.035-.468.529-.353.148-.737.191-1.477-.2-.479-.169-.332-.174-.384-.267-.166-.287-.052-.662.217-.708.3-.339.248-.529.136-.569-.031-.575-.052-.4-.364-.4-.385-.2-.779-.246-.365-.123-.394-.231-.562-.431-.424-.487-.822-1.069-1.009-1.216-.478-.657-.323-.374-.372-.391-.261-.149-.592-.5-.728-.421-.467-.472-.956-.718-.354-.436-.572-.606-.594-.287-.664-.323-1.039-.256-.395-.01-.438.092-.457.236-.437.278-.5.271-.561.129-.665-.01-.654-.164-.239-.252-.374-.257-.229-.359-.125-.314.052-.3.053-.374.081-.534.137-1.6.1-.446.373-.339.333-.051.406.02.375.016.312-.046.25-.134.226-.339.167-.436-.383-.888-.447-.872-.593-.893-.78-.559-.531-.318-.416-.155-.257-.009.031-.606.029-.318.134-.309.229-.143.51-.021.559.124.605.041.873.226,1.485.1.613-.021.51.3.176.452-.01.472.137.708.224.678.2.339.666.154.624-.051.77-.041.175-.4.105-.461.145-.688.518-.38.469-.1.374-.339.26-1.324.354-.606.414-.811.209-.5-.032-.594-.321-.648-.468-.329-.01-1.324.1-.759.49-1.816.145-.689.26-.636.424-.216.656-.236.55-.165.667.052.427.308.8.318.654-.811.6.093.24-.011.312-.206.363-.472.49-.389.383-.134.593.166.552-.083.645-.3.582-.277.249-.42-.009-.616.021-.411.944-.081.322-.164.157-.442.062-.472.073-.708.115-.349.5-.39.352-.421.345-.842.394-2.823.238-.411.573-.482.571-.143.821-.164,1.289.154.384-.339.207-.575.114-.5-.1-.6-.259-.246-.469-.112-.478.011-.249-.2.165-.452.312-.851,1.112-.072.3-.237.353-.4.364-.472.249-.5.269-.432.583-.883.155-.41.125-.431.374-.276.759.092.6-.164.331-.227.4-.154.489.011.54.606.229.461.519.646.532.227.55.091.437.3.343.533.5.5.374.246.468.3.706-.1.125-.421-.25-.432.292-.492.6-.175.935-.358.47-.421.788-.627.353-.379.291-.39.344-.513.323-.411-.042-.482-.292-.339v-.359l.478-1.263.24-.318.446-.8.426-.308.426-.144.573.215.655.123.437-.041.853.041,1.08-.112.011-1.181-.613-.6-.251-.277.032-.482.333-.4.427-.708.77-1.663.229-.215.531-.236h.641l.855.123.664.072.552.031h.54l.146-.328-.063-.472-.406-.5-.155-.36-.052-.287-.051-.432-.2-.267-.167-.308.2-.4.332-.257.614-.021.987-.04,1.518-1.109.611.04.561.267.531.431.78.277.927-.256-.229,2.257,1.058-.626.4-.185.895-.185.779-.092,1.6.1,1.112.124.769.03.955.072h.928l.776-.164,1.186-.442,2.234-.646.478.691.406,1.141.292.67.031,1.008-.2.88-.229.575-.2.6.032.645.292.5.385.23.644.089,1.038.045.645-.039.894-.007,1.506.013,1.675-.057.6.006,1.611-.039h1.26l1.381.134,1.154.255.83.063.395-.218.582.045.406.492.6.4,1.257.031.7-.153.582-.152.6.095.717.063.52-.152.7-.313.988.006,2.121.1,3.75-.063.77-.23.934-.146,2.683-.02,1.59-.2,1.621-.012.675.006.052.395-.125.333-.322.421-.437,0-.635.123-.445.109-.635.146-.364.218-.457.384-.334.3-.248.27-.833.27-.612.359-.25.38-.322.62-.469.559-.551.9-.25.365-.073.459.156.318v.317l-.177.4-.538.847-.821.829-.49.54-.634,1.236-.353,1.057-.229.895-.02,1.161-.042,1.89.5.422.467-.123.353-.284.448-.072.561.062.487.152,1.165.17,1.538-.062,1.871.356.218.35-.01.521-.322.408-.167.483.812.6,1.13.417,1.01.218.978-.1.841-.274.9-.237.914-.171,1.882-.6.737.379.135.995.4,1.25-.875,1.743-.6.455-.468.4-.486.418-.406.388-.354.5" transform="translate(-2101.182 -769.698)"  stroke="#fff" stroke-linecap="square" stroke-linejoin="bevel" stroke-width="1" fill-rule="evenodd"/>
      <text id="94" transform="translate(27.648 40.265)" fill="#fff" font-size="13"  font-family="OpenSans-SemiBold, Open Sans" font-weight="600"><tspan x="0" y="0"></tspan></text>
    </g>
    <g id="_380_Ballarpur" data-name="380 Ballarpur" transform="translate(2441.816 705.304)">
      <path id="talId380" fill="#7DB8EC" title="Ballarpur Taluka" data-name="Ballarpur" d="M2217.389,899.276l-.82.652-.384.7-.345.426-.279.531-.145.36-.115.464-.021.463.146.285.476.284.239.057.573-.219.539-.217.563.15.352.333.448.274.789-.313.634-.038,1.009.123.873-.019.821-.019-.042,1.913-.063.776-.206.589-.895.094-.675-.237-.978-.161-.488.046-.883-.208-.572-.151h-.739l-.749.112-.384.076-.81.143-.666-.8-.519-.445-.927-.872-1.381-.417-.634-.388-.8-.568-.6-.778-.623-.521-.874-.568-1.579-.541-.811-.606-.468-.635-.552-.607-.542-.568-.819-.549-1.861-.635-1.59-.861-1.134-.521-.809-.407-.873-.513-.667-.493-.676-.464-.861-.161-1.362.18-1.476.313-1.32.189-.884-.189-1.692-.38-.865-.208L2184.4,892.2l-2.442-1.032-1.621-1.241-.779-1.042-.021-.909.291-.512.489-.465.279-.322.188-.493.041-.474-.052-.644-.425-.719-.613-.464-.511-.256-1.538-.4-1.039-.682-.7-.578-1.237-.967-.675-.635-.645-.426-.707-.35-1.019-.36-.644-.028-.551.076-.55.142-1.881.142-.864-.146.218-.66.2-.606.55-.417.208-.986-.822-1.118-.094-.663.188-.739.083-1.857.322-.437.883-.246h.707l.281-.056.093-.36-.032-.36-.248-.379.229-.53.468-.36.531-.227.914-.379.759-.247.895.076.031,1.193.208.266.593.436.829.587.666.057,1.322-.17,1.265-.437.646-1.023.748-.767.52-.483.529-.124.656-.085,1.1.209.8.824,1.363,2.491,1.319,1.971,1.018,1.2.437,1.156.041.587-.1.711-.1.417-.508.463-.562.635.062.748.654.635,1.4,1.715.291.493.354.123.621-.028h.718l.166.407-.114.389-.01.463.187.3.374.294.78.17.271-.388.27-.5.27-.332.375-.113.373.265.261.256.27.057.457-.152.343-.02.333.133v.2l-.249.3-.343.237-.26.218-.187.73.073.464,2.326.019.718.066.884.142.613-.037.623.028.531.351.426.4.385-1.156.529-.521.56.274h.416l.707-.189.614-.19.777-.217.063-.228.177-.691.176-.54.5-.492.582-.237.229-2.369.041-.891.01-.634-.249-.4.353-.54.541-.3.685.019.282-.323-.053-.435-.156-.835-.508-2.795-.644-1.658-1.1-2.037-.249-.408-.3-.53-.1-.635.208-.445.322-.588.124-.777-.321-1.156.935-.162.521-.057.55-.019.54.133.448.578.28.5.281.493.457.587.479.417.53-.086.238-.369.031-.644-.155-1.147-.426-.255-.083-.474.239-.361.395-.151.686-.132.1-.949.1-.359.042-.776-.145-.493-.071-.522.3-.189,1.207.274,1.142.085,3.254-.189,1.4.568.894.161.852.246.739.161,1.05.094,1.6.076,2.494-.066.53-.019.978.19.809.237.833.568-.25.5-.228.285-.271.331-.446.312-.55.312-.552.38-.677.293-.322-.027-.406.227-.124.313.186.445.355.35.228.257-.009.426-.115.568-.292.293-.468.265-.414.342v.407l.259.4.167.578.125.588.394.227.645.181.219.473-.093.407-.219.237-.344-.132-.509-.181-.613-.056-.571.01-.853-.085-.145.132.063.237.405.228.417.246.5.294.167.227-.115.653-.1.513v.728l.1.787-.01.682-.3,1.715-.146,2.161-.207,2.046-.271,1.781-.457,1.971.29,2.861-.624.682-.874.057.552,1.024,1.249.852.437.663-.095.663-.779.379-.759.4-.966.682-.853.55-.571.7-.833,1.5-.166.721-.935.246-.415.171-.261.759" transform="translate(-2167.18 -860.659)"  stroke="#fff" stroke-linecap="square" stroke-linejoin="bevel" stroke-width="1" fill-rule="evenodd"/>
      <text id="380" transform="translate(26.184 30.696)" fill="#fff" font-size="13"  font-family="OpenSans-SemiBold, Open Sans" font-weight="600"><tspan x="0" y="0"></tspan></text>
    </g>
    <g id="_382_Saoli" data-name="382 Saoli">
      <path id="talId382" fill="#7DB8EC" title="Saoli Taluka" data-name="Saoli" d="M2262.771,798.029l.974-.047.633.16.665.492.29.114.354-.019.135-.275.145-.709.508-.521.395-.246-.022-.387-.362-.379.01-.274,1.514-1.608,1.007-.3.745.076,1.142.35.438.464.291.426.29.152.354-.359.351-.37.342-.151-.124.984-.042,2.6.083,1.362-.259.17-.539-.209-.592-.076-.633.085-.384.3v.473l.353.71.529.633.717.6.28.009.445-.142.447-.3.571-.18,1.278,1.193.558.349.716.1.864-.492.394-.417.344-.88.072-.586.167-.529.3-.351,1.235-1.04.333-1.192.239-.425.457-.151.57-.4.258-1.04.187-.861-.455-.454-.5-.606.082-.775.25-.437.373.246.394.029.323-.406.374-.255.218-.351-.082-.548-.106-.416-.342-.549v-.227l.187-.359.011-.237-1.121-.795.415-.511.292-.549.6-1.182.311-.426.666-.039.622.511.073.568-.2.643.135.3.446-.189.363-.351.135.227-.126.927.1.445.135.359.489-.085.748-.529.518.009.7-.19.653-.171.851.5,2.118,1.163.955.17,1.162-.094.788-.361.666.057.726.189.375-.208-.126-.586-.113-.275.175-.293.239-.331-.115-.539-.393-.379-.446-.15-.467-.1-.385-.34-.311-.729-.25-.7-.134-.691-.073-.738.229-.785.664-.1.759.217.695-.066.424-.094.551-.35.31-.255.469-.067.55-.331.125-.6.176-.436.913-.208.446-.53.2-.643.227-.681.654.53.322,1.04.228.586.756.511.529.095.759-.076,1.027-.379,1.151-.7,1.059-.531,1.36.114,1.309.794,1.523.677-.278,2.274.092,1.4.5,1.666,1.527,1.552,2.241,2.119,2.075,2.044,1.1,1.3,1.194,1.779,1.129,1.892.573,2.043.134,1.873-.291,1.1-.809.927-1.7.662-1.1.189-2.094.379-1.993.529-2.782,1.362-2,1.324-1.349,1.7-1.566,2.478-1.36,3.689-.509,1.74.394,1.59.85,1.343,1.889,1.362,2.293.87,2.158.512,2.979.855.414.138.893.781.769.893.476,1.126.655,1.527.467,1.5.291,1.174.239,1.309.187,1.334.206,1.259.292,1.329-.052.956.146.87.228.966.269.846.342.852.176.284.26.444.219.751-.052.86-1.08,2.088-1.971,2.951-3.414,4.881-3.394,3.513-3.061,2.239-1.951,1.191-2.428.644-2.4-.238-2.188-.724-2.534-1.606-.859-.742-.437-.644-.591-1.943-.249-1.914-.852-3.528-1.12-2.293-1.816-1.211-2.075-.093-3.187.012-1.888.317-1.754.758-.415-1.023.094-.463.249-.766.529-1.324-.726-1.371-1.226-1.608-1.236-.974-.911-.53-1.039-.615-.218.227-.622,1.3-3-1.278-1.4-1.276.156-.843.5-.975-.561-.738-.479-.132-.56-.133-.125-.33v-.6l-.156-.607-.239-.368-.352-.473-.611-.076-.644-.019-.177-.473-.167-.756-.592-1.287-.424-.728-.405-.615-.673-.814-.488-.71-.416-.01-.664.492-.55.492-.55.87-.642.322-.292-.455.062-1.315.095-.935-.063-.5-.28-.435-.415-.52-.612-.6-.043-.88v-.3l-.021-.68-.258-.483-.013-.531.406-.34.426-.672.144-.841-.31-.927.02-.511.624-.644.373-.567,2.4-.6.685-.141.737-.275,1.254-.444.5.076.427.227.342-.094.405-.52.113-.6-.1-.634-.342-.559-1.007-.378-1.018-.17-1.067-.2-.417-.189-.456-.682-.155-.558-.167-.662.031-.587.167-.586-.27-.444-.507.038-.344.35-.176.738-.06.436-.4.51-.363.019-.706-.228-.591-.283-.729-.379-.476-.416-.01-.634.094-.918-.238-1.3.217-.614.281-.425.331-.3.479-.17.133.331.271.255h.372l.239-.6.115-.188.322.161.415.311.393.009.322-.151.052-.492-.031-.436-.592-.179-.56-.133-.219-.794-.29-.577-.084-.587.032-.54.259-.483.2-.265.27-.4.145-.426-.073-.615-.208-.577-.269-.917" transform="translate(278.475 -158.308)"  stroke="#fff" stroke-linecap="square" stroke-linejoin="bevel" stroke-width="1" fill-rule="evenodd"/>
      <text id="382" transform="translate(2557 664)" fill="#fff" font-size="13"  font-family="OpenSans-SemiBold, Open Sans" font-weight="600"><tspan x="0" y="0"></tspan></text>
    </g>
  </g>
</svg>
