<svg xmlns="http://www.w3.org/2000/svg" width="379.709" height="301.588" viewBox="0 0 379.709 301.588">
  <g id="Group_21" data-name="Group 21" transform="translate(-1879.525 -179.796)">
    <g id="_244_Sakri" data-name="244 Sakri" transform="translate(1880.249 290.184)">
      <path id="talId244" fill="#7DB8EC" title="Sakri Taluka" data-name="Sakri Taluka" d="M1100.463,573.934l.342.066.315.425.276.635.184.149.395.155.183.222-.079.347-.315.545-.328.3-.158.228-.079.329.184.4.407.58.394.1.343-.018.473.035.446.162.408.228.6.443.775.754.487.132h.591l.814-.12.551-1.233.71-1.245.25-.479.224.005.145.138.21.45.21.1.183-.354.144-.431.342.031.684-.013,1.156-.006.71-.06.487-.047.59-.054.5-.145.842-.078.918.012.316-1.455.421-1.318.473-1.665.183-.719.144-.292.3-.2.5-.078.656.012,1.013.241.813.113.5-.054.394-.167.789-.48,1.051-.784.566-.461.472-.36.618-.275.3.035.382.186.446.037.539-.354.908-.114,2.916-.527,1.13.1.564.276.816,1.036.316.294.406.12.552.108.276.335.619.5,1.287.294,1.879.2,1.327-.007.92-.066.775-.131,1.275-.6.722-.569.46-.282.421-.282.342-.209.394-.33.039.8-.092.862-.105,2.672.539.077,2.682.065.407.168.512.1,1.314.1.341.186.184.418.223.091.473-.025.88-.005.986-.2,1.1-.2.684-.221.723-.1.236-2.928.091-1.989-.354-.377-.144-.15-.066-.227.013-.342.21-.131.341-.042,1.012.066,1.221-.246,1.314-.082.539-.1,1.143-.281,1.183-.047.473-.234.445-.048.658-.029.461-.121.17-.275.3-.359,1.209-.45.316-.2.223-.3.263-.318.406-.378.579-.281,1.379-.078.474-.132.513-.167.276-.025.368.018.2.209.118.432-.026.666-.105.179-.171.18-.249.239-.236.336-.04.269.144.186.473-.12.565-.138.658-.169,1.13-.323.775-.227,1.077-.179.855-.12.473.252-.04.616.078.653.277.221.447.108.631.133.525.293.329.342.262.478.316.486.052.5-.394.257-1.117.162-.328.15-.368.072-.263.149.066.42.119.263.105.515.2.617.2.437.289.222.6-.054.855-.27,1.168.03,2.3-.079,2.891-.382,1.117-.264.893-.072,1.131-.047.5-.1-.079,2.938.157.276.158.281.17.36-.21.443-.25.97-.381.63.065,3.179.067.234.144.251.236.173.3.3.091.45.027.3.237.2.25.12.566-.012.367-.1.8-.382,1.012-.749.684-.323.552-.2.827-.132h.987l.867.425.762.012.7.174.275.137.815.079.986.185,1.1.467.329.161-.053.438.092.683-.171.7-.237,1.011-.013.642-.224.581-.434,1.269-.341.755-.7.712-.959.431-.08,3.372.434.808-.066,1.475.21.132.355.065.237.15.053.288.04.263.21.323.433.037.474.017.539.282.275.347-.039.616-.013.648-.263.2-.184.1-.3.3-.42.557.012.965.3.228.474.282.592.34.237.647-.526.491-.04,2.079.486.953.2.251.158.4-.026.354-.2.216-.46.3-.144.822.513.957.316.438.446.562.407.1.84.121.592.346.566.174.486.144.288.359.605.658.683.414.093,1.115.289.328.236.575-.053.575-.288.353-.881.384-.276.384-.171.419.106.509.223.442.29.623.065,1.013.039,3.168-.709.083-.723.036-.538.539-.606,1.042-.065.629.157.5.21.646.408,1.06.066.736.237.66.091.478.224.373.119.634.1.845.264.611.341.462.328.556.369.665.118.569-.592.7-.487.491-.512.539-.631.223-.5.059-.25-.33-.7-.094-.592-.013-.828.054-.617-.095-.144-.33-.868-.066-1.26.12-.027,1.371-.013,2.066.027,1.587v1.33l-.027.287-.131.4-.289.425-.42.12-.276-.227-1-.085-.815.018-.237.538-.184.187-.342.15-.368.143-.25.023-.407-.047-.354-.246-.447.192-.447.174-.854-.007-.316-.042-.473-.059-.315-.168-.144-.312-.264-.239-.446-.132-.3.066-.105.274-.026.39-.039.294-.263.281-.38.335-.224.659-.21.15-.263.143-.2.239.183.252.341.407.026.4.223.419.146.36-.657.239-.381.257-.158.186-.039.33.092.288.145.275.21.265.027.479-.474.6-.367.234-.356.21-.118.34.132.288.316.126-.04.784.092,1.054-.223.3-.381-.054-.644-.049-.7.013-.854.1-.276.389-.053,2.138.106.2.249.45.106.557-.066,1.173.209.257.249.221.25.348-.04.354-.263.335.052,1.45.119.149.355.107.341.138.211.342-.144.436-.342.5-.592.389-.551.012-.421-.108-.42-.251-.473-.185-.315.275-.394.359-.395.5-.473.533.026.911-.145.359-.5.346-.75.414-.355.761-.2.532.013.581.262.509.066.36-.394.622-.211.269-.052.468.012.377.2.389.118.5-.749.742-.289.264-.079.383.158.341v.348l-.277.419-.775.365-.381.2-.38.335.2.485.2.508-.262.9.236.323.092.348.013.688.6.647.04.293-.223.568-.053.366-.184.546-.971.827-.027.125.027.27.3.274.289-.059.394-.108.434.072.224.419.407.047.524-.054.25-.114.237-.125.421.012.421.084.289.293.2.4.052.311.316.264.566.167.262-.347.342-.276.2-.191.328-.21.262-.036.263.191.171.029.342.054.342.174.393.2.395.1.25.312.079.51.276.424.473.588.565.485.552.509.013.366-.144.316.118.372.5.215.8.138.527.478.473.5.393.557.288.419-.222.539-.263.994-.158.318-.131.437.027.49-.237.569-.355.918-.972.886-.407.8-.185.827-.039.958-.289.407-.552.3-.671.169-1.078.406-1.05.586-1.025.815-1.039-.227-.578-.432-.526-.372-.722.12-.671.275-.8.574-.369.791-.039.766.1.611.25.707-.2.575-.421.167-.932-.12-.79-.3-.775-.49-1.314-.706-3.035-1.785-.895-.8-1.09-1.067-1.064-1.15-.605-.85-.118-.167-1-.791-.17-.934-.657-.5-.736-.4-.5-.275-.316-.384-.053-.55.118-.288.316-.18.67.1.854.168.827.263.723.276.46-.169.315-.443.026-.443-.447-.48-.5-.515-.4-.384-.592-.646-.209-.682-.092-.552-.118-.754.236-.8-.079-.359-.394.371-.473.264-.329-.024-.656-.252-.236.229.039.563-.053.515-.316.4-.395-.1-.25.035-.381.456-.053.6.144.468.277.527-.053.562-.7.527-.539.085-.355-.3-.919-.347-.96-.239-.683-.169-.63-.035-.868-.06-.722-.048-.789-.228-.487-.431-.419-.49-.394-.6.066-.646.157-.6-.012-.6-.842-.264-.814.18.013,1.067-.158.813-.1.229-.369.49-1.077.1-1.249-.55-.237.946-.065.754-.04.983.027.658-.171.635-.722.192-.894-.061-.354-.609-.631-.791-.605-.527-.2-.9.092-.754-.684-.312-.315.5-.341.289-.514.431-.552.275-1.011-.023-.618-.324-1.025-.791-2-.6-.618-.731-.919-.552-.658-.371-.578.036-.683.192-1.091.312-1.1.155-.972.061-1.394.228-1.393.048-.683-.18-.788-.347-.842-.288-.841-.311-.157-.443-.171-.564-.447-.276-.513.192-.407.419-.46.337-.488.706-.328.983-.617.407-.855-.145-.906.4-.711.132-.815-.323-.735-.286-.46-.456-.184-.516-.434-.8h-.907l-.868.083-1.656-.059-1.2.036-.854-.276-.512-.55-.473-.084-.5.359-.211.371-.393.444-.408.228-.8-.06-.382-.408-.249-.178-.775-.025-1.366-.227-.973-.288-.788-.275-2.076-.66-1.788-.119-.921-.089-.447.185-.315.347-.183.575.21.707.184.731.21.6-.158.173-.512.059-.92.091-.8.017-.816.037-.486-.145-.368-.293-.551-.724-.6-.905-.434-.371-.84-.5-.736-.617-.75-.347-.6-.06-.789.474-.631.257-.512.043-.264-.1-.434-.167-.472.091-.237.3-.394.437-.276.718-.329.545-.592.335-.972-.227-.46-.048-.368.162-.34.4-.224.43-.039.5.171.5.263.832.091.461-.327.138-.473.168-.407.246-.775.143-1.117-.407-1.471-.388-.644-.288-.525-.288-.75-.508-.617-.2-.459.1-.671.15-.683.09-.485.042-.579-.054-.618-.209-.656-.125-.224.2-1.038,1.361-.316.25-.7.4-1.012.312-.512.358-.5.522-.171.424-.434.222-1.012-.042-.552-.073-.513-.3-.7-.731-.486-1.185-.421-.965-.145-.287-.25-.425-.223-.461-.59-.456-.3-.1-.487.191-.616.425-.658.533-.435.659-.065,1.456.157.622.158.57.171.856-.171.083-.474-.059-.919-.33-.25.077-.762.288-.551.012-.368-.15-.513-.137-.381-.03-.408.12-.407.222-.105-.264-.131-.539-.5-.671-.723-.6-.867-.527-.433-.318-.381-.22-.551-.193-.631-.222-.526-.274-.618-.282-.762-.137-.7-.395-.644-.2-.591-.173-1-.073-.459.15-.316.7-.486.64-.315.654-.223.407-.421.293-1.288-.137-.88.3-.578.4-.88.2-2.09-.652-1.2-.253-1.76-.335-.552-1.35-.906-1.172.131-3.306-.171-3.257L1036,679.6l-.381-2.169.17-1.2-.761-.861-.46-1.456-.355-1.724-.6-1.5-1.826-1.857-1.669-1.018-1.84-1.56-.525-.7-.408-.467-1.919-2.207.447-1.877.367-1.766.04-1.98.157-.879,1.906-1.542,1.1.212,1.656.04.342-1.495-.329-.859-.551-.348-.71-.844-.644-1.312-.053-1.761-1.721.185-.538.58-.684-.4-1.722-.178-4.3-1.407-.906-1.146-1.327-.267-1.524-.938-1.879-1.776.367-1.005.21-.744.237-.682.631-1.414.276-1.138-.013-1.113.2-.6.119-.523.039-.382-.079-.24-.21-.209-.079-.306.013-.665.144-.892.683.24.434.137.933.126,1.642-.078.815-.145.867-.011.486.078.933.078,1.077.023.25-.072.447-.2.709-.365.827-.377.868-.354,1.773-.144,1.157.036.368-.077.145-1.222.091-.743.435.659.354.677.618.048.7-.067,1.157-.083.828.054,1.1-.049.919-.035.645-.115.617.211,1,.383.775.269.8.294.8.239.749.223.526-.677.513-.605.7-.467.144-.269-.066-.306-.21-.366-.2-.49.066-1.186-.25-.569-.144-.293.04-.414-.04-.395-.276-.414-.722-.707-.408-.652-.3-.45.039-.329.526-.492,1.169-1.166.276-.623.171-.367.2-.37-.157-.569-.316-.246-.538-.192-.5-.162-.25-.539-.1-.426.026-.436.158-.756.131-.359.276-.335.263-.252.25-.424.355-.641.275-.335.566-.389,1.669-1.18,1.156-.953.748-.887.92-.73.394-.246.171-.257.066-.361-.066-.383-.1-.413-.158-.389.092-.234.5-.216,1.157-.341,1.42-.593,1.432-.442,1.354-.491.67-.127,1.039-.341.222,1.2v.335l.145.347.21.653.407.629.25.628.315.557.223.419.184.51.394.772,1.681-.359-.144-.713-.052-.5-.105-.288-.237-.647-.25-.564-.249-.712-.079-.735-.132-.515.027-.611.039-.648V605.7l-.118-.317-.223-.318-.25-.437.276-.228.487-.347.906-.731.368-.648.224-.778.091-.731.3-.672.263-.251.552-.132,1.118-.072.644-.084.827-.132,1.222-.36.762.468,1.853,1.161,1,.48.5.4-.105.431-.211.467.027.527-.118.791-.157.743,1.063.119,4.652.1.42-1.042.3-.335.579-.563,2.287-1.69.669-.611-.105-.5-.932-.9-1.2-1.234-1.025-1.15-.8-.826-.537-.307-.3-.329-.474-.833-.748-1.078-.526-.63-.381-.377-.29-.3-.1-.317.237-.311.368-.456.394-.216.421-.245.525-.569,1.906-1.64,1.078-.869,1.261-1.114,1.432-1.06.289-.515.355-.257.6-.138,1.064-.148.684-.33,1.223-.665.761-.545.762-.742.355-.647.25-.4.473-.545,1.564-.9.972-.665.448-.185.775-.049,2.575.318,1.143.209.447.06.276.438.224.107.446.132.526.18.512.047.25-.047.381-.18.264-.2.132-.37-.158-.637-.263-.381-.473-.234-.369-.09-.38-.162-.052-.365.38-.7.157-.12.369-.084.46-.192.749-.67.157-.3.25-.162.329.054.3.131.262.048.29-.1.105-.431.026-.5.079-.462.184-.316" transform="translate(-1014.55 -563.231)"  stroke="#fff" stroke-linecap="square" stroke-linejoin="bevel" stroke-width="1" fill-rule="evenodd"/>
      <text id="talId244count" transform="translate(94.364 73.931)" fill="#fff" font-size="10"  font-family="OpenSans-Bold, Open Sans" font-weight="700"><tspan x="0" y="0"></tspan></text>
    </g>
    <g id="_246_Sindkheda" data-name="246 Sindkheda" transform="translate(2054.261 241.306)">
      <path id="talId246" fill="#7DB8EC" title="Sindkheda Taluka" data-name="Sindkheda Taluka" d="M1206.328,533.7l.553.227,1,.614.92.934.538.913.671,1.191.513,1.213.762,1.288.433.9.539.9.723.437.459-.006.894-.176.985-.372.96-.282,1.1-.185.671.04.578.129.828.37.749.658.7.673,1.879,1.2.552.327.894.069,1.156-.045.539-.193.88-.1.644.047.959.231,1.025.382.88.375.447.566.8.974v1.722l.5.818.2,1.1.683,1.618.421,1.113.236.576.25.269.288.185.342.048.789-.353,2.088-.019h1.25l.577.269.421.456.1.67-.013.63-.289.946-.525.7-.434.653-.789.527-.38.4-.605.766-.158.5.092.965.408.9.512.73.564.708.7.6,1.09.593,1.34,1.772,1.17,1.048,1.971,1.552,1,.652.723.126.919-.066,2.1.377,2.418-.03,3.167.072,2.34-.318,2.929.211,1.591,1.485,3.719,2.552,1.576.988,2.156.97,2.245.306,3.26.269,3.114.443,1.209.335.474,1.15-.014.8-.6,1.27-.526,1.113-.328.737-.223,1.024v.69l.328,1.054.29,1.053.314.377-.249.215-.039.366.13.456.171.347.394.484.33.413.236.395.381.27.237.18.341.066.473.011.408.079.513.155.42.2.263.269.2,1.037-.118.509-.105.222-.316.192-.288.083-.618.228-.447.215-.656.258-.079.377.1.492.223.269.381.179.356.042.448.011.589.018.474-.054.486-.03.434.18.263.281.079.431v.336l-.052.305-.329.3-.71.82-.25.611-.118.443-.21.419-.814.623-1.315.929-.63.719-.356.192-.407.192-.368.131-.6.18-.473.233-.736.606-.341.5-.171.366-.092.347-.21.492-.2.34-.539.456-.472.143-.723-.077-.631-.138-.8-.222-.579-.071-.5.054-1.354.342-.814.394-.447.306-.341.329-.632.934-.867.684-.933.7-.618.426-.749.754-.394.522-.329.382-.316.4-.34.623-.25.6-.25.646-.264,1.755-.512,1.492-.211,1.071.264.917.065.761v.5l.131.641-.249.436-.237.337-.315.263-.986.426-1.1.473-.763.454-.67.7-.381.69.013.742.158.706.472.959.316.49.091.383.027.468-.158.79-.158.545-.656,1.7-.132.48-.671.431-.879.323-.29.24-.736.354-.868.108-.565.185-.539.1-.446.03-.578.1-.25.066-.394.131-.356.107-.945-.478-.907.072-.118-.325-.04-.478-.144-.515-.709-.586-.486-.467-.92-.5-.67-.48-.75-.539-.748-.383h-.894l-.487.215-.774.623-.619.54-.656.586-.88.445-.04-.768.184-1.76-.762-.073-.342-.3-.289-.852-.393-1.089v-.683l-.171-.562-.369-.48-.815-.574-1-.648-.566.7-.5.276-.776.084-.945.023-.946-.168-.408.049-1.051.312-1.59.466-.315,1.175-.368,1.558-.539,1.281-.578,1.389-.263.671-.434.132-.7-.527-.92-.407-.933-.18-1.051-.4.092-.658-.263-.778-1.261-.2-1.551-.025-.933-.382-.84.839-1.092,1.976-2.418,3.21-.394-.072-3.089-1.473-1.708-1.365-1.629-1.1-6.359.2-3.168.108.157-2.18.145-.718.224-.586-.224-.6-.565-.515-.906-.564-.749-.228-.972-.3-.643-.838-.906-.55h-1.526l-1.09-.42-2.537.047v-2.491l.144-.323.394-.491.434-.312.408-.287.052-.563.394-.815.631-.431.395-.574-1.171-.419-.721-.2-.947-.336-.749-.156-1.354.3-.919.3-1.274.5-1.276.922-.512.347-.815.107-.578-.049-.788-.346-.434-.084-.342.277-.434.311-.6.408-.382.132-.617.239-.972.384-.96.575-.591.874-1.065,1.365-.945.575-.579.312-.736.4-.538.263-.723.335-.776.408-.8.36-.473.12-.355.611-.538.443-.933-.03.053-.574-.236-.576-.289-.328-.092-1.114-.682-.414-.605-.658-.29-.359-.485-.145-.565-.173-.592-.347-.841-.121-.407-.1-.447-.562-.316-.438-.512-.958.144-.821.46-.3.2-.216.026-.354-.158-.4-.2-.251-.486-.953.039-2.078.526-.49-.237-.648-.591-.34-.473-.282-.3-.228-.014-.964.42-.557.3-.3.185-.1.262-.2.013-.648.039-.616-.275-.347-.539-.282-.474-.017-.434-.037-.209-.324-.039-.263-.053-.287-.236-.15-.356-.065-.21-.132.066-1.475-.434-.808.079-3.372.959-.432.7-.712.342-.756.434-1.27.223-.581.013-.641.236-1.012.17-.7-.092-.683.052-.437-.328-.162-1.1-.467-.985-.185-.816-.079-.276-.137-.7-.175-.763-.012-.867-.425h-.986l-.827.132-.552.2-.684.324-1.011.748-.8.383-.369.1-.564.012-.25-.119-.237-.2-.027-.3-.092-.45-.3-.3-.237-.174-.144-.251-.066-.234-.066-3.18.381-.629.25-.97.21-.443-.171-.36-.158-.282-.158-.276.079-2.939.854-.17.867-.071.789-.018.5-.083.38-.265.184-.556.053-.359-.066-.342-.2-.318-.236-.215.025-.516.183-.813.158-.2.29-.21.053-.239-.118-.144-.382-.036-.353-.072.079-.353.287-.34.579-.575.749-.743.289-.388.5-.665.264-.456.315-.724.487-.929.144-.383-.013-.371-.237-.4-.079-.294.106-.245.184-.253.027-.288-.131-.855-.25-.73-.736-1.606-.472-.712-.592-.761-.512-.419-.5-.143-.92.089-.329-.042-.88.131-.486.227-.382.084h-.578l-.866-.024v-2.51l.276-.215.761-.275,1.025-.444-.026-.9-.21-1.562-.25-1-.184-1.761-.21-.743-.119-.963.066-1.707.053-2.228-.21-.474-.251-.484.08-.384.749-.089h1.458l1.419-.091.026-.411v-.041l.079-1.26-.014-1.791.276-.761.106-.976.026-1.054.263-.305.632-.754,1.129-1.18.684-.725,1.235-1.018.395-.82.2-.4.053-.258-.171-.419-.512-.395-.6-.3-.185-.21-.3-.06-.263.072-.342.131-.434.18-.617.18-.6.221-.158-.208.026-.324.04-.335.211-.51.368-.143.5-.174.447-.522.026-.455.079-.587.013-.515.039-.48.066-.419.1-.909.276-.648.119-.874-.066-.443-.224-.48-.237-.492-.868-.957-.013-.378-.026-.533.986-.209,1.275-.314.92-.282,1.287-.215,1.051-.129.973.049.578.117,1.3.316.959.147.973.2.789.285.709.239,1.169.692.933.578.829.494.827.4.512.281.854.6.934.791.671.829.341.635.645.766.684.489.656.206.539.01,1.287-.377.618-.393.539-.7.919-.946.67-.617.841-.5.736-.318.881-.185.42.024.408.033.394.066.435.011.682-.1.447.019.591.084.907.234.7.164.84.279.934.494.683.432.485.393,1.013.937.5.392.552.419.42.208.893.124,1.119-.021,1.484-.352,2.077-.848.749-.234,1.419-.159.526-.054h1.681l.985.051,1.287.185,1.708.414.736.443" transform="translate(-1147.17 -525.958)"  stroke="#fff" stroke-linecap="square" stroke-linejoin="bevel" stroke-width="1" fill-rule="evenodd"/>
      <text id="talId246count" transform="translate(28.352 63.81)" fill="#fff" font-size="10"  font-family="OpenSans-Bold, Open Sans" font-weight="700"><tspan x="0" y="0"></tspan></text>
    </g>
    <g id="_243_Dhule" data-name="243 Dhule" transform="translate(2043.307 330.542)">
      <path id="talId243" fill="#7DB8EC" title="Dhule Taluka" data-name="Dhule Taluka" d="M1169.6,604.36l.934.03.538-.443.354-.611.474-.12.8-.36.774-.407.724-.335.539-.263.735-.4.579-.312.946-.575,1.064-1.365.591-.874.96-.576.971-.384.618-.239.382-.132.6-.407.433-.311.342-.276.434.085.788.347.578.048.815-.107.512-.347,1.275-.923,1.274-.5.92-.3,1.354-.3.75.156.946.335.723.2,1.169.419-.394.574-.631.432-.394.815-.053.563-.407.287-.434.312-.394.491-.144.323v2.492l2.535-.047,1.092.419h1.524l.907.551.644.838.972.3.749.227.908.564.565.515.223.6-.223.586-.146.719-.157,2.18,3.167-.108,6.359-.2,1.63,1.1,1.708,1.365,3.088,1.473.395.072,2.416-3.21,1.092-1.976.841-.838.933.382,1.551.025,1.262.2.263.777-.093.659,1.052.4.933.18.919.407.7.527.434-.132.264-.671.578-1.389.537-1.281.369-1.557.316-1.174,1.59-.467,1.052-.311.407-.049.947.168.946-.023.775-.085.5-.275.565-.7,1,.648.815.574.367.48.172.562v.683l.394,1.089.29.851.342.3.762.072-.184,1.761.04.767.881-.444.656-.587.618-.54.775-.623.486-.216h.894l.748.383.749.539.671.48.919.5.487.466.709.587.143.516.04.478.118.325.907-.072.945.478-.052,1.019-.328,1.107-.355.6-.329.552-.421.521-.263.43-.012.384.118.3.525.126.737.1.709.084,1.157.263.577.348.381-.2.132-.618.236-.682.184-.491.131-.288.368-.45.262.169.447.575.2.347.223.4.131.294.276.221.591.126.38.019,1.446.014.486.028.736.3.828-.017,2.865.1.262.695.29.719.1.539.066.6.04.515.106.431.236.132.645.072.643.4.828.5.631.478,1.813,1.234.723,1.365.579,2.192.854,1.4.223.851-.209.455-.474.635-.2.947.04,4.048,1.352,1.054,2.038,2.6.158.67-.092.767-.092.431.013.216.552.372.447.371v.372l-.447.538-.131.874h-.565l-.736-.167-.67-.264-.539.012-.828.179-.722.024h-.618l-.407.156-.119.67.052,3.4.21,1.557.289,1.618-.079,3.161,1.512.372,2.115.1,1.038.262h1.471l-.04,2.8,1.2.228.827-.1.474.012.722.433.92.766.092.719.25.731.381.683.354.443.183.515.224.262.446-.059.289-.227.7-.108.394.023.106.478-.539,1.114.079,2,.2.683.171.551.46.527,1.143.108.25,1.534.1,1.426-.381,1.976-.445,1.773-.223.695.433,1.018.381.623.25.766.092.588.448.5.513.229.643.239.578.311.7.684.5.838v.922l.288.647.25.611.223.683.172.659.065.635-.1,1.293-.815.18-.7-.12-.644-.156-.618.048-.881.275-.6.24-.605,1.449-1.208,1.939-.408,1.618-.053.492.21.274.395.049.829.382,1.142,3.043.947,1.054,1.984,1.581.6.971.131.766.276.395.316.228,1.063,1.857.526,1.389.2.946.013.78.066.85-.447,2.444-.039,1.892-.5.754-.5.3-.3.1-.722-.443-.342.228-.3.623-.368.635-.643.3-.671.311-1.525.67-.8.875-.683.443-.631.407-1.038.227-.579.024-.723-.251-.7-.4h-.408l-.171.647.631.611.3.073.643.358.407.2-.052.3-.237.275-.591.443-.551,1.414.144.755.315,1.4.473,1.113.723,1.594-2.248,1.52-1.261.946-.736,1.186.145,1.916-.762,1.067-.933,1.186-.644,2.407-8.054.2-1.1-.012-.066,1.077-.249.922-.67.515-.618.827-1.222.756-1.695-.108h-2.853l-.21.539-.642.371-1.026.072-1.064.12-.237.06-1.905.969-.711.131-3.39-.562-.079.526.014.576.039.5-.184.156-.643-.192-.527-.227-.328.012-.368.06-.276.024-.433-.264-.408.311-.158.443-.408.528-.354.2-.985.239-.657-.456-.434-.239-.341-.4-.367-.167-.934-.216-.946-1.678-.447-.3-1.879-.061-.013-.479.21-2.036.105-1.653.131-1.964-.394-.024-1.682-.275-.236-.061-.762-.024-.906-.12-.895-.275-.932-.395-.987-.744-.471.349-.987.586-.262-.059-.039-.611v-.42l-.6-.012-.053.67-.645.564-.552-.037-1.116-.155-.132-.491v-.539l-.447-.215-.486.37-.46.349-.237-.108-.368-.863-.395.528-.538.179-.46-.251-.145-.348-.6-.515-.6.167-.237.323-.578.719-.658.18-.209.072-.539-.887-.249-.683-.237-.563-.3-.718-.512-.67-.855.1-1.1.155-.578-.538-1.485-.8-1.433-.969-1.419-.815-3.654-1.042-2.653-.742-2.878-.588-1.051.072-1.2.167-3.43-.228-.579-.071.46-.648.249-.527.264-.827.539-1.353.066-.647.2-.983.131-1.6-.223-.623-.183-.562-.487-.445-.224-.694.092-.672.21-.851.355-1.006.407-.466.5-.336.144-.528.106-.539-.106-.611-.3-.228-.25-.358-.341-1.007.184-.419.065-.539-.092-.241-.578-.311-.146-.024-.341-.227-.014-.647.067-.468.276-.646.342-.2.946-.2.262-.1.671-.707.145-.839.053-1.257.184-1.737-1.262-.167-.841-.192-2.05-.683-1.118-.358-.853-.251-1.419-.324-.934-.443-.25-.646-.171-1.042-.276-1.1-1.065-1.269-.67-.707-1.052-.886-.71-.7-1.511-.73-1.9-.576-1.064-.358-.815-.311-1.09-.143-1.17-.133-1.537-.563-2.274-.6-.682-.395-.354-.67-.04-.456-.066-1.485-.237-.814-.118-.682-.853,1.042-.526.611-.907.443-.367.1-.75-.216-1.2-.372-2.366-1.09-.972-.24-.906-.407-.289-.79-.552-.6-.854.647-.71.659-.315.623-.249.814-.21.636-.4,1.162-.381,1.03-1.183.623-.762.347-.645.5-.8.6-.6.431-.907.275-.237-.61-.25-.755-.407-.731-.316-.73-.079-.586-.723.047-.789.276-1.078.059-.407.515-.565.288-.7-.551-.46-.552-.566-.646-.447-.516-.092-.85.237-.646.039-.646-.669-.492-.8-.323.355-.917.236-.569-.026-.49.131-.438.159-.318.262-.993.223-.539-.289-.419-.395-.557-.473-.5-.527-.479-.8-.138-.5-.216-.118-.372.144-.317-.013-.365-.553-.51-.565-.485L1148.1,674l-.276-.424-.08-.51-.249-.311-.394-.1-.394-.2-.341-.175-.342-.054-.172-.029-.263-.191-.263.035-.328.21-.2.191-.342.276-.263.347-.565-.166-.316-.265-.052-.311-.2-.4-.289-.294-.421-.084-.421-.012-.237.125-.25.115-.525.054-.407-.048-.224-.419-.433-.072-.4.108-.288.059-.3-.275-.026-.269.026-.127.972-.826.184-.545.053-.365.223-.57-.039-.293-.605-.647-.012-.688-.092-.349-.235-.323.261-.9-.2-.509-.2-.485.38-.336.381-.2.776-.365.275-.419v-.349l-.157-.341.079-.383.29-.264.748-.743-.118-.5-.2-.389-.014-.377.053-.468.21-.269.4-.623-.066-.358-.264-.51-.013-.581.2-.532.355-.761.749-.414.5-.347.144-.359-.026-.911.472-.533.4-.5.393-.36.315-.274.474.185.421.251.421.108.552-.012.591-.389.342-.5.145-.437-.211-.342-.342-.137-.355-.108-.118-.15-.053-1.45.263-.335.039-.354-.25-.348-.25-.221-.211-.258.066-1.174-.1-.557-.25-.45-.105-.2.053-2.138.276-.389.854-.1.7-.013.642.049.382.054.224-.3-.092-1.053.039-.785-.315-.126-.131-.288.119-.341.355-.21.368-.233.474-.6-.026-.48-.211-.264-.144-.275-.092-.288.04-.33.157-.186.381-.257.656-.239-.144-.361-.224-.419-.027-.4-.34-.407-.184-.252.2-.24.262-.143.211-.149.224-.66.381-.335.263-.281.041-.294.025-.39.106-.275.3-.066.446.131.263.239.145.311.316.168.473.059.316.042.854.006.447-.174.448-.192.353.246.408.047.25-.024.368-.144.342-.149.184-.186.236-.539.815-.019,1,.084.277.228.42-.12.29-.425.131-.4.026-.287v-1.33l-.026-1.587.013-2.066.026-1.372,1.262-.12.868.066.144.33.617.095.828-.054.592.013.7.095.25.329.5-.059.631-.222.513-.538.486-.491.591-.7-.119-.569-.368-.664-.329-.556-.342-.461-.262-.612-.105-.845-.119-.635-.222-.372-.092-.478-.237-.66-.065-.736-.408-1.061-.21-.647-.158-.5.065-.63.605-1.042.54-.539.721-.037.71-.083-.04-3.168-.066-1.013-.289-.623-.223-.443-.1-.509.17-.419.277-.384.879-.384.29-.354" transform="translate(-1138.85 -594.005)"  stroke="#fff" stroke-linecap="square" stroke-linejoin="bevel" stroke-width="1" fill-rule="evenodd"/>
      <text id="talId243count" transform="translate(71.306 77.573)" fill="#fff" font-size="10"  font-family="OpenSans-Bold, Open Sans" font-weight="700"><tspan x="0" y="0"></tspan></text>
    </g>
    <g id="_245_Shirpur" data-name="245 Shirpur" transform="translate(2113.829 180.26)">
      <path id="talId245" fill="#7DB8EC" title="Shirpur Taluka" data-name="Shirpur Taluka" d="M1297.525,504.26l3.943,5.876,2.4,3.8.25.834.709.439-.329,1.158.355,1.687-.4,1.3,2.669,4.218,1.01,3.206.67,1.788,1,.9-.039,1.268,3.732,2.933,3.85,2.267,4.953,1.923,2.943,1.109,1.263.5.775.593,2.694.314,1.09.679,6.571,4.612-.775.1-.907.087-.8.151-1.052.163-.88.1-.631-.092-.539.1-.828.314-.722.39-.42.363-.539.93-.553.5-.342.141-.446.151-.525.087-.724-.076-.433-.205-.407-.238-.723-.206-.538.039-.382.092-.342.238-.184.314-.106.5-.066.557-.21.541-.329.385-.433.979-.618.746-.7.542-.2.254-.315.2-.63.141-.487.125-.513.184-.551.141-.356.243-.078.607.052.67.066,1.338-.605,1.212-.394.741-.222.883.091.724.157.46.275.455.448.276.71.374,1.155.476.776.72.327.579.04.347-.092.362-.209.406-.6.422-.659.281-.5-.118-.329-.309-.434-.552-.407-.309-.854-.173-.814-.049-.658.163-.92.373-.617.416-.368.634-.118.341-.052.439.092.6.367.5,1.039.3,1.142.195,1.262.319.933.682.7.487.671.7.158.573-.054.9-.079.66-.2.631.026.56-.146.36-.3.371-.276.487-.3.831-.211.562-.026.477.146.934.209,1.748-.092.957-.066,1.592-.472.673-1.221.432-1.3.874-.223,1.091.249,1.391.328,1.126-.774,1.362-1.406.946-1.078.538-.919.865-.106.218-.815,1.564-.671,1.512-.327.994.026.967-.54,1.005-1.039,1.2-.695.534-.789.116-.224.046-.683-.08-1.025-.325-.25.445-.092.739-.433.631-.657.1-1.117-.034-1.222.107-.237.01-.551.025-.934.327-.7.355-.762.649-.986.155-.341.174-.408.2-.5.75-.066,1.19-.447.723-.762.263-1.09.02-1.249.326-.63.751-.316.816-.21.949.014,1.08-.566,1.721-.67.351-1.142-.119-1.156-.509-.842.718-.671-.024-.932-.323-1.052.515-.683.3-.8.323-2.037.165-.722-.207-1.065-.6-1.6-1.557-.984-1.126-.947-1.229-.459-1.07-.434-1.079-.551-1.143-.368-.875-.447-.581-.893-.845-.763-.382-.867-.073-.6.018-1,.227-.908.114-.551.039-1.078-.094-.578-.293-.381-.323-.38-.239-.421-.126-.316-.377-.289-1.054-.328-1.054v-.69l.223-1.024.328-.737.526-1.113.6-1.271.013-.8-.473-1.15-1.209-.335-3.113-.443-3.259-.27-2.248-.306-2.155-.97-1.577-.988-3.719-2.552-1.589-1.485-2.931-.21-2.339.318-3.167-.072-2.418.03-2.1-.377-.921.066-.721-.126-1-.652-1.97-1.552-1.17-1.049-1.34-1.773-1.091-.592-.7-.6-.566-.707-.512-.731-.408-.9-.093-.964.159-.5.6-.766.381-.4.788-.527.434-.653.525-.7.289-.946.013-.629-.1-.671-.421-.456-.578-.269h-1.248l-2.089.018-.788.354-.342-.049-.29-.185-.249-.269-.236-.575-.421-1.113-.683-1.618-.2-1.1-.5-.818v-1.721l-.8-.974-.446-.567-.88-.374-1.024-.382-.961-.231-.642-.047-.881.1-.54.192-1.155.045-.895-.068-.551-.327-1.879-1.2-.7-.674-.748-.659-.828-.369-.579-.129-.67-.041-1.1.185-.959.281-.986.372-.893.176-.46.007-.723-.438-.538-.9-.435-.9-.763-1.288-.512-1.213-.669-1.192-.54-.913-.919-.934-1-.614-.552-.227.288-.557.158-.27.025-.311-.012-.257.079-.114.145-.125.209-.082.237-.068.3-.065.25-.088.341-.266.184-.362.092-.293.065-.384.053-.195.158-.536.171-.26.263-.375.157-.138.25-.323-.053-.141-.118-.15.025-.141.066-.054.145-.063-.106-.141-.236-.63-.184-.368-.039-.12.1-.135.106-.066.026-.129.013-.115-.026-.179-.093-.091-.065.007-.131.113-.171.126-.118.1-.065-.06.026-.135V540.6l-.065-.066-.551-.173-.263-.108-.013-.1.039-.15.065-.092.079-.1v-.132l-.079-.162-.025-.1.091-.117.158-.03.183-.021.132-.084.066-.162-.026-.1-.078-.062h-.158l-.039-.061.026-.081.158-.119.3-.084.08-.095.052-.091.065-.071.106-.079.12.018.077.11.054.079.118.005.092-.093.118-.14.106-.225-.026-.185-.2-.12-.119-.068-.026-.084.079-.257.039-.21.066-.129.144-.075.132-.075.13-.183.2-.4.026-.288.039-.18.106-.153.316-.1.249-.319.118-.162.12-.168.144-.085.21-.014.013-.138-.013-.07-.091-.091-.092-.075-.092-.105.052-.093.092-.038.13-.037.079-.116-.117-.112-.12-.042-.249.037-.105-.093v-.209l.027-.379.118-.257.263-.427.067-.765-.028-.448-.093-.452-.433-.278-.5-.672-.119-.192-.052-.389.078-.488.592-.482.526-.276.748-.236.355-.228.592-.213.513-.239.827-.021.605-.075.565-.236.84-.381.4-.078.393.031.263.044.3.206.973.824.3.162.237.089.261.042.185-.081-.08-.267-.143-.243-.119-.347-.077-.347-.146-.51.211-.221.262-.037,1.076-.042,1.236.031.894-.024.722.066.737.264.814-.021-.208-.129-.053-.154-.039-.41.052-.347.17-.26.329-.635.3-.273.053-.462-.066-.328v-.222l.145-.162.183-.145.08-.148-.013-.264-.21-.341-.118-.239.065-.372-.04-.317.067-.287.275.06.132.066.092-.042.053-.257-.014-.174-.079-.222-.144-.258-.25-.287-.171-.323.263-.258.132-.126.1-.359.079-.3-.093-.384-.091-.318-.158-.311.066-.4v-.329l.092-.126.158-.1.184-.234.158-.3.25-.359.184-.407.051-.335-.17-.414-.262.108-.3.009-.249-.47L1212.2,512l-.907-.5-.093-.552.145-.52.276-.808.565-.408.6-1.252-.159-.916-.183-.707-.132-.272.106-.419.184-.369-.106-.736.026-4.936.17-3.544,3.482-9.355.879-1.766,2.235,1.386,2.208-.562,1.957.848.3-1.511,1.144.124,1.878.484.842.54,1.694.584,2.878-.337.447-1.563.066-.968,1.011-.045,1.341-.213-.408-.868,1.065-.281,1.471-.213,2.536-1.008,1.616-1.985.46.485.263,1.041.815.045.038-.742,2.419.327,3.823-.051,3.062.3,2.6,4.437,5.005,1.916.119.033,6.295,1.608,7.872,2.253,5.624,2.882,5.782,3.33-.131,1.526,8.028.645.683.164,3.416,4.715" transform="translate(-1192.19 -479.352)"  stroke="#fff" stroke-linecap="square" stroke-linejoin="bevel" stroke-width="1" fill-rule="evenodd"/>
      <text id="talId245count" data-name=" Shirpur" transform="translate(49.784 70.854)" fill="#fff" font-size="10"  font-family="OpenSans-Bold, Open Sans" font-weight="700"><tspan x="0" y="0" xml:space="preserve"> </tspan></text>
    </g>
  </g>
</svg>
