<svg xmlns="http://www.w3.org/2000/svg" width="153.264" height="300.808" viewBox="0 0 153.264 300.808">
  <g id="Gadchiroli" transform="translate(-2559.702 -207.508)">
    <g id="_120_Armori" data-name="120 Armori" transform="translate(2587.313 242.463)">
      <path id="talId120" fill="#7DB8EC"  title="Armori" data-name="Armori" d="M2354.644,739.1l-.766-.147-.947-.079-.619.011-.309.153-.05.485.291.395.154.327.451.389.124.293.2.965-.031.513-.136.423-.024.5-.075.559-.662.755-.452.293-.223.09-.346.011-.217-.1-.118-.2-.006-.321.068-.429-.142-.35-.346-.056-.322.1-.266.147-.112.209-.062.3-.328.429-.284.085-.08.451-.1.423-.241.3-.408.118-.576.034-.785.078-.619.192-1.739.4-.874.276-.7.164-.96-.1-.327-.05-.83-.255-.5.153-.383.281-.638.5-1.423,2.149-1.033,1.861-.087.569.378.418.538.231.878.265.471.056h.482l.415.068.4.372.427.57.161.485-.025.35-.235.395-.266.282-.242.084-.246-.084-.452-.531-.445-.5-.292-.288-.445-.141-.322-.006-.365.174-.4.175h-.39l-.829-.056-2.339-.056-.173-.209.049-.259.124-.3.018-.474-.284-.282-.093-.192-.248.051-.2.305-.062.242.075.31.068.479-.291.136-.4.006-.241-.09-.483-.322-.247.079-.174.254-.055.271-.087.745-.458.174-.415.074-.575.051-.222.147-.05.372-.025,1.116.229.6.135.429-.266.253-.292.186-.643.361-1.077.226-.636.107-.286.208-.018.79-.038,1.63-.092,1.128-.043.643-.125.451-.247.35-.588.226-.724.078-.322.423-.279.378-.229.333-.284.135-.322-.2-.248-.316-.018-.333.2-.322.136-.316-.155-.277-.229-.259v-1.309l-.507-1.015-.427-.784-.867-1.19-.452-.5-.47-.333-.279-.091-.365.136-.211.158-.136.363-.13.132-.129.045-.161-.109-.106-.182-.346-.582-.242-.237-.482-.316-.822-.214-.929-.153-.531.008-.514-.268-.2-.462-.477-.9-.173-.731-.055-.857.074-.587.2-.823.408-.858.742-.891.4-.576.062-.361-.062-.5-.668-.135-.4-.079-.526-.209-.47-.152-.488-.152-.6-.171-.019-.173-.315-.655-.916-1.173-.508-.97-.111-.835.26-1.06.217-.6.272-.948-.253-1.105-.508-1.174-.73-.835-1.015-.71-.556-.677-.086-1.32.155-1.083.172-1.173.3-2.2.235-.948.192-1.15v-1.026l.048-.982.347-2.426.044-.9-.223-.621.415-.054.724-.022.508.016.427-.487.36-.6.3-.655.353-.592.346-.462.322-.327.458-.237.147-.383.05-.852.266-.333.445-.208.515.27.413.2.482.209.23.361.074.469.154.428.285.609.618,1.026.421.44.3.276.563-.051.42-.31.2-.288.012-.259-.1-.35.192-.277.4.221.538.158.476.248.42.1.366-.091.489-.146.365-.231.465-.287.581-.311,1.015-.253.743-.265.878-.231.341-.378.167-.547-.217-.316-.425-.147-1.375-.372-.625-.091-.594-.322-.155-.164.037-.277.249-.079.569-.005h.705l.724-.018.421-.039.562-.124.236-.248.236-.463.235-.389.8.745,1.121.643.965.384.49.53.544.372.674.226.453.282.284.344.038.383-.254.322-.458.457-.606,1.117-.192.942-.4,1.162-.3,1,.056.592.439.045.4-.074.575.005,1.4.2.731.276.217.406-.062.829v.407l-.5.107-1.169.05-.469.141-.1.333.155.389.341.344.05.344-.149.846-.242,1.106-.477.163-.37.022-.2-.118-.137-.31-.08-.553-.315-.1-.4.243-.16.361-.2.524-.209.344.141.418.266.231.408-.1.551-.09.328.423.4.53.384.164.656-.293.588-.333.495-.367.242-.039.737.31.835.13,1.237-.045.724.209,1.275.169.328-.817.341-.479.241-.209.649-.006,1.207-.135,1.757-.389.934-.1,1.455-.226.6.045,1.064.361.557.333.638.457.414-.028.619-.186.675-.073,1.126-.017.594-.034.693-.108,1.139-.293.891-.169.619-.023.372.242-.013.491-.086.429-.174.559-.186.953.3,1.247.074.609-.043.395-.329.226-.285.2.013.84-.1.412-.087.3" transform="translate(-2308.119 -717.145)"  stroke="#fff" stroke-linecap="square" stroke-linejoin="bevel" stroke-width="1" fill-rule="evenodd"/>
      <text id="120" transform="translate(10.164 27.707)" fill="#fff" font-size="13"  font-family="OpenSans-Bold, Open Sans" font-weight="700"><tspan x="0" y="0"></tspan></text>
    </g>
    <g id="_372_Desaiganj_Vadasa_" data-name="372 Desaiganj(Vadasa)" transform="translate(2585.513 225.364)">
      <path id="talId372" fill="#7DB8EC"  title="Desaiganj (Vadasa)" data-name="Desaiganj (Vadasa)" d="M2308.281,714.072l-.427-.53-.5-.35-1.113-.384-.78-.587-.26-.666.024-.721.451-.925.471-.767.768-2.674.093-2.459.086-2.166-.019-1.365-.192-1.275-.316-1.433-.179-1.173-.185-.789-.359-.372.266-.339.025-.109.024-.079-.036-.08-.031-.074.024-.079v-.1l.088-.019.018-.053.03-.088.032-.078.024-.038-.049-.021.031-.047.075-.006-.075-.076.069-.042-.013-.062-.048-.024.061-.022.068,0,.149-.075.043.024.093,0,.062-.075.086-.009.057-.057.043.058.081.02.094-.013.067-.022-.006-.064.036.021.075-.014.135-.114.069-.043.055-.022-.005-.048.049-.043.161.021.043-.014.074.082.056.011.031-.071.124-.273.222-.164.545-.353.191-.17.155-.107.316-.218.117-.075.4-.244.08.065.087.069.112.062.112.067.2.133.148.083.248.085.179.019.1.1.025.265.149.209.253.028.39.057.223.234.105.417.005.237.229.133.186.192.124.119.093.121.112.076.111.056.2.029.142-.124.366-.051.179-.07.086.025.1.023.1,0,.031.009.075.05.08.04.093,0h.062l.092.065.106.056.018.054.074.065.068.042.075.09.025.079.1.057.074.059.062.006.061-.026.106.082.081-.059.092-.181.168-.121.025-.037.006-.093-.013-.147.161-.006.118.014.037.06.13-.1.117-.028.167-.014.124.085-.006.237v.135l-.012.135-.031.167.05.175.3.045.094-.293.2-.384.414-.474.192-.367.333-.465.248-.491.037-.31.063-.505.124-.544.155-.313.155-.226.135-.152.241-.243.483-.358.179-.065.179-.132.2-.194.211-.184.359-.109.265.05.241,0,.185-.034.143-.062.124-.107.124-.118.167-.057.353-.062.371.065.321.1.576.293.427.259.1.446.125.273.2.2.2.279.353.206.112.031.105.029.2.022.192.121.279.133.383.178.36.186.273.09.4.031.353-.039.2-.006.427-.037.42-.386.093-.062.3-.014.284-.034.086.008.2.1.094.087.191.144.192.211.113.15.1.189.2-.118.162-.121.247.474-.043.632-.272,1.444-.236.665-.291.632-.3.643.037.869.167.857-.136.553-.179.383-.482.384-.656.181-.532.113-.551.316-.168.349.143.8.149.857.674,1.376.476.5.29.283.013.62-.427.507-.483.339-.544.192h-.688l-.736.022-.675.158-.235.389-.235.463-.236.248-.562.125-.42.039-.724.017h-.705l-.57.006-.247.078-.038.277.155.163.594.322.625.09,1.375.372.426.147.216.316-.166.547-.341.378-.878.231-.743.265-1.014.254-.582.311-.463.287-.366.232-.489.146-.365.09-.421-.1-.476-.248-.54-.158-.4-.22-.192.277.1.35-.012.259-.2.288-.421.31-.562.051-.3-.277-.42-.44-.618-1.027-.284-.609-.156-.428-.074-.469-.229-.361-.483-.209-.414-.2-.514-.27-.446.208-.266.333-.05.851-.148.384-.458.237-.323.327-.347.462-.352.592-.3.655-.359.6-.427.487-.508-.017-.723.022-.415.054" transform="translate(-2305.199 -689.407)"  stroke="#fff" stroke-linecap="square" stroke-linejoin="bevel" stroke-width="1" fill-rule="evenodd"/>
      <text id="372" data-name="Desaiganj (Vadasa)" transform="translate(2.965 10.806)" fill="#fff" font-size="13"  font-family="OpenSans-Bold, Open Sans" font-weight="700"><tspan x="0" y="0"></tspan></text>
    </g>
    <g id="_377_Kurkheda" data-name="377 Kurkheda" transform="translate(2606.264 218.832)">
      <path id="talId377" fill="#7DB8EC"  title="Kurkheda" data-name="Kurkheda" d="M2368.973,681.177l.229-.378.322-.547.271-.44.143-.426.049-.723.532.145.712.474,1.466.835,1.795,1.365,3.347,2.821,1.1.609.656.451.8.7.407-.181.65-.282.75-.011.779.056,1.126.034.563.011-.136.891-.372.485-.575.485-.6.869-.156,1.353-.352,1.738.136.722.105.9-.118.79-.8,1.286-.3.282-.657.214-.438.485-.427.5-.836.688-.946.733-.873.621-.223.53.372.282.464.226-.037.384-.533.293-.581.259-.192.463.507.936-.476.384-.316.406.081.395.483.294.711.6.811.305,1.014-.113.229-.056.726-.237.469-.113-.043.44-.488.564-.031.327,1.4.6.667.373.4.451.372.711.253.744.385.553.333.215.161-.677.18-.813.414-.62.452.282.247.767.08.7.3.53,1.041-.1,1.423.068.767-.079,1.262-.192,2.067-.079.1.564.025.745-.093.711.2,1.23.4.778.519.338.966.5.625.44.644.44.471.778.1.632-.073.767-.328,1.23-.44.643-.872.9-.767.508-.576.417-.513.485-.253.519-.439.643-.316.056-.391-.474-.284-.53-.736-.406-.315-.406-.608-.643-.8-.452-1.225-.259-.847.011-.427.023-.736-.136-.292-.192-.681-.519-.291-.294-.259-.282-.031-.282.451-.812-.285-.428-.452-.17-.9-.022-.526.158-.31.226-.427.113-.409-.1-.63-.136-.719-.067-.724-.023-.272-.3-.328-.056-.278.259-.038.349.18.429.093.395-.346.214-.229-.011-.464.034-.426.338-.18.44-.136.485-.675.2-.452.135-.476.237-.743.191-.44.17-.432.417-.317.485-.334.564-.749.643-.507.463-1.5.361-.477.282-.47.665-.3.711-.179.451-.538.271-.532.078-.544-.09-.556-.321.086-.3.1-.412-.012-.84.285-.2.328-.226.043-.395-.075-.609-.3-1.247.187-.953.174-.559.086-.429.012-.491-.371-.242-.618.023-.892.169-1.138.293-.693.108-.594.034-1.126.017-.675.073-.619.186-.415.029-.638-.457-.556-.333-1.065-.361-.6-.045-1.454.226-.936.1-1.757.389-1.206.135-.651.005-.24.209-.342.48-.327.817-1.274-.169-.724-.209-1.237.045-.836-.129-.736-.311-.241.04-.5.367-.587.333-.656.293-.384-.164-.4-.53-.328-.423-.551.09-.408.1-.266-.231-.143-.418.211-.344.2-.524.161-.361.4-.242.315.1.081.553.136.31.2.118.371-.022.476-.163.241-1.106.149-.846-.05-.344-.341-.344-.153-.389.1-.333.469-.141,1.17-.05.5-.107v-.406l.062-.829-.216-.406-.73-.277-1.4-.2-.575-.006-.4.074-.44-.045-.056-.592.3-1,.4-1.161.192-.943.607-1.116.457-.457.254-.322-.037-.383-.285-.344-.451-.282-.675-.226-.545-.372-.488-.531-.967-.384-1.119-.643-.8-.745.675-.158.736-.022h.687l.545-.192.482-.338.427-.507-.012-.621-.292-.282-.476-.5-.674-1.376-.149-.857-.143-.8.168-.35.55-.316.532-.113.657-.181.482-.384.18-.384.137-.553-.168-.857-.037-.869.3-.643.29-.632.235-.666.272-1.444.044-.632-.248-.474.371.005.162,0,.241-.017.191.009.217.034.062.076.055.124.038.141.042.169.087.175.025.06.229.056.285,0,.093-.191.29-.646.049-.1.149-.022h.155l.223.014.161.014.148.009.186-.014.273.009.285-.005.086-.11-.025-.136.025-.121.062-.058.044.022h.124l.049-.014.081-.051.149-.045.118.051.086.054.068.009.217-.051.038.118.05.107.043.232.006.107.019.13.2.154.074.058.042.086.044.094.068.131.21.157.05.038.074.06.043.079.043.075.069.056.075-.008.186-.044.067.064.05.034.1.054.086.1.1.131.241.282.044.067.1.024.081-.025.18-.072.167-.035.229,0,.3.172.137.167.2.037.167.028.136.044.292.111.111-.016.137-.044.117-.041.1.058.006.076.037.076.043.1.031.028.068.024.05.01.037.032-.024.037-.013.028.006.048.013.042.024.02.074.01.063.017.092.034.05.087.03.025.031.1v.02l-.044.041-.042.026.012.067.062.034.068.027h.062l.069-.021.055-.022.069-.012.067.04.025.047.031.042.031,0,.056-.007.05.032.049.044.062.049.05.006.037-.007.062-.007.05.038.042.027.05-.007.1-.013.086-.009.137.083.154.1.087.141.135.1.173.036h.3l.353.062.458.19.668.163.483.107.525.316.335.087.192.006.277-.042.18.04.291-.195.191-.107.16-.158.292-.33.136-.22.056-.163-.056-.2-.191-.316-.031-.635-.087-.189-.069-.088-.042-.1-.012-.127.087-.127.129-.112.167-.09.415.006,1.423.034.508-.025.2-.014.236-.1.1-.282.13-.4.329-1.315.2-.829.161-.965.191-.606.582-.059.328.039.174-.022.216-.085.217-.091.192-.071.167-.022.3.064.21.04.124-.146.154-.479.223-.525.39-.666.253-.172.068-.1.031-.184-.043-.2-.093-.335.21-.412.292-.533.235-.38" transform="translate(-2338.819 -678.663)"  stroke="#fff" stroke-linecap="square" stroke-linejoin="bevel" stroke-width="1" fill-rule="evenodd"/>
      <text id="377" transform="translate(13.213 29.339)" fill="#fff" font-size="13"  font-family="OpenSans-Bold, Open Sans" font-weight="700"><tspan x="0" y="0"></tspan></text>
    </g>
    <g id="_376_Korchi" data-name="376 Korchi" transform="translate(2636.774 208.17)">
      <path id="talId376" fill="#7DB8EC"  title="Korchi" data-name="Korchi" d="M2414.869,711.369l.328-1.23.075-.767-.1-.632-.47-.778-.644-.44-.625-.44-.966-.5-.519-.338-.4-.778-.2-1.23.094-.711-.025-.744-.1-.565-2.066.079-1.263.192-.766.079-1.423-.068-1.041.1-.3-.53-.081-.7-.247-.767-.451-.281-.415.62-.179.812-.161.677-.334-.215-.383-.553-.254-.744-.371-.711-.4-.451-.668-.372-1.4-.6.031-.328.489-.563.043-.44-.47.112-.725.237-.228.057-1.016.113-.811-.305-.712-.6-.481-.293-.081-.395.315-.406.476-.383-.507-.937.191-.463.581-.259.533-.294.038-.384-.465-.226-.371-.282.223-.53.873-.621.946-.733.836-.688.427-.5.439-.485.657-.214.3-.282.8-1.286.118-.79-.1-.9-.136-.722.352-1.737.156-1.353.6-.868.575-.485.37-.485.137-.891-.563-.011-1.126-.034-.78-.056-.748.011-.651.282-.408.18-.8-.7-.656-.451-1.095-.609-3.347-2.82-1.794-1.365-1.467-.835-.712-.474-.531-.145.031-.36-.081-.426-.142-.29-.352-.428-.037-.274.043-.4.05-.308.462-.451.161-.327.069-.211.081-.3.451-.429.168-.223.1-.155.087-.152-.062-.2-.316-.53-.311-.064-.2.031-.08-.226.131-.161.161-.183.4-.6.273-.431.118-.288.086-.868.062-.324.234-.153.4-.07.211-.012.42.012.354.245.376.491.285.3.31.313.217.152.2.223.445.048.371-.011.272-.045.161-.1.161-.11.186-.076.266.026.34.085.3.107.143.093.5.211.34.192.433.087.625-.039.96-.087.668-.172.254-.062.21-.135.248-.452.47-.759.284-.44.329-.341.235-.141.341.017.631-.036.686.056,1.09.127.618.138.366.1.508.107h.353l.611.181.2,0,.57-.011.519-.087.731-.26.247-.138.452-.158.539-.054.346-.031.377-.062.495-.056.582-.144.371-.07.34-.06.44-.172.494-.3.384-.194.34-.158.583-.02.314-.048.266-.028.576.068.353.13.229.141.149.189.2.087h.28l.352.014.347.079.266.152.593.223.5.155,1.287.322-.216.829-.043.485-.038.265-.161.226-.167.251-.371.708-.383.7-.044.587-.012.7.16.677.105.575-.018.423-.112.277.018.155.124.28.124.239-.031.8-.012.556.29.553.5.753.278.259.241.246.135.239-.043.406-.105.528.019.846-.216.587-.087.057-.031.04-.037.044-.018.048.006.03.025.03.024.035.019.032.012.036-.012.166.006.047.012.063-.012.052-.019.042.006.035.044.035.043.03.044.05-.006.042.049.145.148.175.105.2.012.266.05.36.013.181.085.331.093.2.112.215.142.159.254.086.328.156.34.206.223.161.427.444.179.191.074.131.223.355.413.674.2.618-.031.415-.272.586-.16.389-.464.392-.979.076-.711.042-.65.051-.613.121-.4.194-.447.284-.247.418-.316.35-.333.265-.4.1-.452-.039-.34-.059-.329-.014-.339.074-.477.166-.427.127-.347.073-.81.714-.465.395-.451.46-.854.655-.916.651-.482.249-.284.411-.242.634-.3.8-.21.38-.087.169.149.287.291.364.266.432.4.735.266.316.614.473.334.305.248.3.167.339.062.42-.013.344-.011.254.112.163.333.068.254.034.563.076.483.118.413.186.619.029.514-.062.446-.245.254-.107.371-.054.551-.324.365-.315.507-.291.576-.172.483-.158.34-.217.451-.431.229-.477.223-.268.576-.174.68-.336.353-.057.662-.169.52.167.358.078.3-.228.408-.129.563-.019.52.1.49.226.464.544.371.282.383.068.427.1.662-.054.426.009.483.09.1.11-.062.158-.254.138-.192.127-.174.24-.277.3-.167.4-.205.087-.154.07-.2.118-.186.178-.043.13.1.132.149.09.173.062.26.119.347.42.105.355-.179.163-.323.071-.067.079.074.257-.031.231-.038.14.217.023h.1l.266.161.055.135v.2l.024.259-.018.09-.036.181-.011.119-.112.2-.031.209-.1.392-.1.065-.205-.068-.166.008-.187.02-.136.076-.025.268-.025.094-.1.084-.1.074-.1.222.062.141.129.1.13.057.012.169.026.169-.032.169.025.164.081.15v.116l.068.245.136.242.006.192.032.1.05.116.055.138-.019.147-.111.1-.05.121-.037.116-.013.137-.062.171-.093.2-.043.094.012.07.038.028.124-.031.111-.045.044.017-.006.054-.038.04-.042.041,0,.057.037.057.02.055-.02.1-.055.15-.055.033-.062.022-.1.032-.018.072.031.078.049.063.037.051-.069.061-.031.011-.037.05v.068l.012.059.007.075-.087.1v.083l.019.065.043.031.093-.06.074.058.006.12-.08.061.012.09.006.069-.043.082-.074.023-.05,0-.043.027-.012.046.043.232.037.06.08.028.05.041.006.041-.024.095.062.322-.017.107-.044.163-.055.176-.254,1.046-.038.31.007.248.08.223-.05.414-.056.671-.074.454-.137.759-.086.457-.074.313-.074.711-.105.141-.446.511-.31-.15-.235-.147-.254-.016-.352.05-.4.175-.427.282-.248.406.056.282.459.7.247.327.112.293.012.254-.142.345-.31.507-.217.344-.321.282-.378-.1-.289-.175-.323-.366-.21-.857-.012-.338-.08-.621-.526-.056-.686-.107-.527-.124-.693.028-.761.1-.959-.276-.483-.332-.68-.858-.465-.908-.3-.615-.426-.6-.57-.418-.935-.468" transform="translate(-2388.25 -661.601)"  stroke="#fff" stroke-linecap="square" stroke-linejoin="bevel" stroke-width="1" fill-rule="evenodd"/>
      <text id="376" transform="translate(11.703 15)" fill="#fff" font-size="13"  font-family="OpenSans-Bold, Open Sans" font-weight="700"><tspan x="0" y="0"></tspan></text>
    </g>
    <g id="_373_Dhanora" data-name="373 Dhanora" transform="translate(2609.689 255.4)">
      <path id="talId373" fill="#7DB8EC" title="Dhanora" data-name="Dhanora" d="M2368.353,809.55l-.458-.688-.255-.321-.241-.434.149-.925.03-.389-.2-.2-.661-.085-.569.592-.434.378-.458.276-.687.124-.953-.045-.353-.169-.271-.349-.205-1.185.137-.6.21-.479.018-.355-1.058-.327-.693-.1-.545-.006-.482.2-.773.2-.626.1-1.138-.1-.594-.062-.4-.051-.4-.219-.044-.248.384-.739.328-.271.242-.316.192-.434v-.62l-.013-.615-.056-.507-.693-.13-.346.039-.47.231-.532.293-.47.141-1.046-.192-.47-.333-.315-.518.074-.519.389-.717.137-.417-.223-.519-.056-.446.348-.717.266-.451.112-.3-.161-.463-.773-.835-.977-1.021-.713-.631-.531-.407-1-.6-.556-.445-.334-.164-.434-.514-.173-.338-.08-.333-.074-.321-.186-.423-.532-.474-.2-.186-.452-.242-.433-.045-.458.028-.526-.04-.4.006-.421.062-.031-.209-.118-.446-.062-.508-.178-.553.085-1.145.038-.727.173-.536.118-1.849-.086-.722.173-.322,1.071-.22.538-.079.36-.028.538.068.471.163.482.3.415.209.409-.006.643-.384.173-.959.018-.728.031-.835-.062-.491-.252-.507-.335-.35-.236-.3.13-.423.118-.468.031-.462.1-.356.168-.321.308-.107.6.192.334.152.452.107.278.011.366-.011.216-.085.217-.169.341-.119.284-.1.388-.135.378-.2.273-.2.21-.389-.433-.107-.5-.547-.637-1.213.081-1.342-.124-.637v-.383l-.038-.378-.043-.418-.062-.468-.05-.541.068-.446.285-.773.1-.358.069-.392.1-1.374-.006-.409.092-.208.254-.237.235-.2.247.084.241-.084.266-.282.236-.395.025-.349-.161-.485-.426-.57-.4-.372-.415-.068h-.482l-.471-.056-.879-.265-.538-.231-.377-.417.086-.57,1.033-1.861,1.424-2.149.636-.5.384-.282.5-.153.829.255.329.051.958.1.7-.164.873-.276,1.739-.4.618-.192.786-.079.575-.034.408-.119.241-.3.1-.423.081-.451.285-.085.328-.429.061-.3.112-.209.266-.147.321-.1.347.056.143.35-.068.429.006.321.118.2.218.1.346-.011.222-.09.452-.293.663-.756.074-.559.025-.5.136-.423.031-.513-.2-.965-.125-.293-.451-.389-.155-.326-.291-.395.049-.485.31-.153.619-.011.946.079.768.147.557.321.544.09.532-.079.539-.271.179-.451.3-.711.471-.665.477-.282,1.5-.361.507-.463.749-.643.335-.564.315-.485.433-.417.439-.169.743-.191.476-.237.451-.136.675-.2.135-.485.18-.44.427-.339.463-.034.229.011.347-.214-.093-.395-.179-.429.037-.35.278-.259.328.056.273.3.723.023.719.067.631.136.407.1.428-.113.31-.226.526-.158.9.022.452.169.284.428-.452.813.031.283.26.282.292.293.68.518.29.192.737.135.427-.023.848-.011,1.225.259.8.452.607.643.315.406.737.406.285.53.389.474.315-.056.439-.643.254-.519.513-.485.575-.417.768-.508.872-.9.439-.643.934.468.569.418.427.6.3.615.464.908.681.858.483.332.958.277.762-.1.693-.028.525.124.688.107.525.056.081.621.012.338.211.858.322.366.292.175.377.1.322-.282.216-.344.31-.507.143-.345-.013-.254-.111-.293-.247-.327-.457-.7-.056-.282.246-.406.428-.282.4-.174.354-.051.253.016.236.147.308.15-.2.237-.179.214-.192.188-.173.2-.019.2-.013.246.057.167.117.144.545.3.445.319.223.4.1.217-.025.33-.16.271-.093.307-.191.525-.372.409-.7.572-.192.274-.13.792-.186.584-.155.6-.315.691-.271.527-.05.33.05.246.08.3.136.262.2.237.476.346.428.223.538.33.34.282.143.2.043.205-.031.251-.074.186-.019.183.223.322.086.187.093.143.018.13.093.1.094.036.111.07.229.274.019.141-.124.088-.124.27-.006.2.044.2-.007.243.1.136.118.112.223.147.062.178-.044.2.05.211.018.166.254.525.1.209.248.088.2.143.105.138.049.135-.006.2-.013.282-.024.2-.074.209-.167.327-.223.183-.329.085-.252.1-.422.392-.192.192-.192.13-.365.05h-.372l-.76.091-.787-.037-.778.048-.632.116-.513.232-.439.186-.929.248-.754.212-.613.2-.563.079-.272.017-.414.09-.2.161-.174.141-.08.152-.056.217.093.615-.111.358-.124.319-.557.578-.377.465-.353.488-.718.629-.717.561-.371.271-.211.778-.068.152-.142.006-.155-.014-.18-.036-.2-.04-.253-.118-.229-.1-.187-.081-.322-.175-.5-.248-.254-.153-.3-.127-.6-.149-.551-.045-.372.05-.655.042-.272.1-.643.164-.5.121-.83.277-.241.078-.315.121-.47.576-.13.232-.167.276-.223.228-.279.164-.354.118-.272.059-.8.307-.4.073-.333.22-.334.022-.254-.028-.278-.076-.613.121-.415.167-.271.118-.879.418-.508.109-.76.13-.415-.009-.192.012-.186.113-.013.223.056.708.155.6.3.4.155.414.384.733.3.553.613.6.569.471.613.389.3.274.075.3.019.321-.038.587-.055.161-.3.166-.178.048-.5.079-.662.214-.446.167-.266.1-.229.192-.284.414-.286.934-.05.516-.216.445-.1.2-.186.17-.3.16-.34.452.067.223.4.654.372.7.4.437.427.414.248.311.3.124.625.277,1.417.35.532.223.582.488.389.067.3-.025.341-.042.378.008.439.037.389-.037.366-.039.371-.063.366-.132.1-.234-.056-.375.062-.528.2-.319.321-.2.334-.124.384.042.687.257,1.1.4.688.139.6.147.57-.139.693-.091.581.088.7.223.465.339.284.544.3.209.786.149.618.161.675.319.8.742.538.507.477.24.266.064.315.04.206.094.123.028.117,1-.062.231-.111.311-.445.333-.49.643-.031.473.1.446.248.547.723,1.224.458.485.073.659-.2.722-.254.462-.191.446-.185.377-.013,2.166-.111.9-.26.852-.149,1.477-.532-.157-.427-.2-.812-.721-.952-.745-1.17-.789-2.53-.564-.416-.012-.73-.158-.568-.056-.643.113-.639.3-.891.474-.761.26-.649-.136-.78-.248-.9.271-.6.057-.359-.147.111-.293.384-.462-.619-.418-.946-.327-.5-.372-.792-.248-.865.011-.971.192-.6.214-.576.068-.922.045-.959.158-.452.293-.08.418v.721l-.025.711-.2,1.309.074.925.124.417.272.564.3.733-.235.948-1.275.293-.7.666-.464.384-.632.35-.686.124-.731-.079-.638-.045-1.02.113-.6.372-.674.485-.762.169-1.169-.09-1.256-.451-.86-.908" transform="translate(-2344.37 -738.33)"  stroke="#fff" stroke-linecap="square" stroke-linejoin="bevel" stroke-width="1" fill-rule="evenodd"/>
      <text id="373" transform="translate(11.787 42.771)" fill="#fff" font-size="13"  font-family="OpenSans-Bold, Open Sans" font-weight="700"><tspan x="0" y="0"></tspan></text>
    </g>
    <g id="_375_Gadchiroli" data-name="375 Gadchiroli" transform="translate(2583.702 274.618)">
      <path id="talId375" fill="#7DB8EC" title="Gadchiroli" data-name="Gadchiroli" d="M2312.145,812.586l-.1-.17-.2-.508-.161-.5-.136-.575-.086-.519.031-.57-.172-.792-.125-.751-.111-.795-.143-.781-.173-.7-.278-.9-.391-.911-.285-.671-.457-.533-.532-.465-.248-.083-1.776-.51-1.287-.305-1.367-.518-1.126-.812-.507-.8-.235-.948.3-1.038.811-2.2.934-1.477.8-1.016,1.194-.789,1.658-.813,1.188-.316,1.25-.226.656-.113,1.015-.395.482-.553.174-.654-.082-1.117-.34-1.218-.676-1.128-.711-1.061-.656-.778-1.237-1.218L2307.7,781.1l-.909-.925-.3-.993-.055-.834.167-1.356.093-.743.192-1.432.409-.846,1.15-1.253.91-.824.779-.9.112-.891-.093-.843.6.172.489.152.47.152.526.208.4.08.669.135.062.5-.062.361-.4.576-.743.891-.408.858-.2.823-.074.587.056.857.173.731.477.9.2.462.514.268.531-.009.929.153.823.214.482.316.241.237.347.583.105.182.161.109.129-.045.13-.133.136-.362.211-.158.365-.136.279.091.471.333.451.5.867,1.19.427.784.507,1.015v1.309l.229.259.154.276-.135.316-.2.322.018.333.248.315.321.2.285-.135.229-.333.277-.378.323-.423.724-.079.588-.226.246-.349.125-.451.043-.643.092-1.128.038-1.63.019-.79.285-.209.637-.107,1.077-.226.643-.361.292-.186.266-.254-.137-.429-.228-.6.025-1.116.05-.372.222-.146.576-.051.415-.074.458-.174.086-.745.055-.271.173-.253.248-.079.482.322.242.09.4-.005.291-.136-.067-.479-.074-.31.061-.242.2-.3.247-.051.094.192.284.282-.018.474-.125.3-.049.259.174.209,2.339.056.829.056h.39l.4-.175.365-.174.321.006.446.141.291.288.446.5.451.53-.235.2-.254.237-.093.208.006.409L2337,778.2l-.068.392-.105.358-.285.773-.067.445.049.541.062.468.044.418.037.378v.384l.124.637-.081,1.342.638,1.213.5.547.434.107-.211.389-.272.2-.377.2-.391.135-.284.1-.34.119-.217.169-.217.085-.364.011-.279-.011-.452-.107-.334-.152-.6-.192-.309.107-.167.321-.105.356-.031.462-.117.468-.13.423.235.3.334.35.254.508.062.49-.031.835-.019.728-.173.959-.645.384-.409.006-.413-.209-.483-.3-.47-.163-.538-.068-.358.028-.539.079-1.07.219-.173.322.086.722-.117,1.849-.173.536-.038.727-.086,1.145.179.552.062.507.118.446.03.208.42-.062.4-.006.526.039.459-.028.432.045.453.243.2.185.532.474.185.423.074.321.08.333.173.338.434.514.334.163.557.445,1,.6.532.407.711.631.978,1.021.773.835.161.463-.111.3-.267.451-.346.716.056.445.222.519-.136.417-.39.716-.074.519.316.519.469.333,1.047.192.47-.141.532-.293.47-.232.346-.039.693.13.055.507.012.615v.621l-.192.434-.24.316-.328.271-.384.739.043.248.4.219.4.051.593.063,1.139.1.625-.1.774-.2.482-.2.544.006.693.1,1.058.327-.019.355-.21.479-.136.6.2,1.185.272.35.353.169.953.045.688-.124.458-.277.431-.378.57-.592.663.085.2.2-.031.389-.148.925.242.434.252.321.458.689-.853.711-.49.469-1.169.959-.433.739-.42.976-.687,1.015-.507.5-.377.3-.965.068-1.1-.136-.637-.074-.725-.192-.458.085-.661.547-.458.564-.694.536-.285.373-.012.321.105.463.118.423.08.44-.037.412.1.648.012.874-.161.931-.148,1.072-.265.564-.192,1.061-.315.97-.347,1.432-.315.519-.366.378-.353.355-.767,1.162-.65-.548-.792-.53-.365-.13-.39-.113-1.584-.4-1.231-.5-.712-.689-.636-.451-.575-.755-.959-.345-1.177-.067-1.428-.028-1.3-.226-.91-.288-.39-.367-.055-.327.556-.514.371-.581.335-.366.236-.451.086-.265-.006-.248-.9-.434-.853-.214-.285-.181-.279-.366-.118-.266-.037-.254.291-.3.328-.254.593-.519-.024-.474.272-.22.5-.135.65-.147.438-.232.365-.293.2-.259.266-.355-.4-.739-1.263-.293-.539.1-.445.124-.273.1-.346.039-.323-.237-.371-.361-.638-.474.105-.632.18-.457.235-.435.285-.3.749-.5,1.021-.085.433-.215.3-.27.371-.288.371-.112.657-.063.291-.191.1-.671.025-.88-.037-.553-.08-1.15v-.558l-.018-.468-.619-.125-.675.017-.513.057-.366.011-.42-.22-.167-.44-.3-.412-.618-.124-.613-.119-.582-.078-.55.017-.34.085-.124.265-.049.344-.279.231-.21.011-.8.045-.415-.13-.346-.327-.137-.367-.037-.372-.068-.367-.223-.417-.03-.846-.2-.451-.694-.022-.644-.012-.309.1-.284.3-.31.338-.452.232-.958-.163-.885.005-.7.085-.928.281-.557.17.025-.621-.044-.643.038-.739-.235-.333-.185-.221.055-.265.007-.3-.223-.214h-.161l-.471.181" transform="translate(-2302.27 -769.254)"  stroke="#fff" stroke-linecap="square" stroke-linejoin="bevel" stroke-width="1" fill-rule="evenodd"/>
      <text id="375count-2" data-name="Gadchiroli" transform="translate(2.775 29.552)" fill="#fff" font-size="13"  font-family="OpenSans-Bold, Open Sans" font-weight="700"><tspan x="0" y="0"></tspan></text>
    </g>
    <g id="_371_Chamorshi" data-name="371 Chamorshi" transform="translate(2560.765 317.67)">
      <path id="talId371" fill="#7DB8EC" title="Chamorshi" data-name="Chamorshi" d="M2275.191,905.409l-2.445-4.131-.934-4.76-.3-7.6.124-3.8-1.108-1.734-1.554-1.408-1.156-1.485-1.249-3.438-.359-1.7-.657-3.153.192-1.728.253-1.044,1-.85.966-.385,1.8-2.048.582-.2.581-.184.911-1.568.235-1.009,1.3-.942.484-.542.054-1.959-.519-.979-1.188-2.222-.433-1.23-.39-1.122-1.076-1.461-.34-.615-.3-1.087.216-2.024.644-1.968.458-.59.3-1.139.588-.609,1.739-1.264,1.157-.749.234-.1,1.046-.451,1.126-.19,1.9-.007,1.237.056,1.083.722.668,1.367.507,2.1.148,1.141.353,1.158.26.384.513.443,1.51.958,1.305.432,1.428.142,1.449-.384,1.163-.711,1.826-1.335,2.023-2.094,2.036-2.91,1.177-1.76.643-1.245.031-.512-.13-.448-.154-.265.469-.18h.161l.223.214-.006.3-.056.265.186.22.236.333-.037.738.043.643-.024.621.557-.169.927-.282.7-.085.884-.005.96.163.451-.231.31-.338.284-.3.31-.1.643.012.692.022.2.451.031.846.223.417.067.367.038.372.136.367.347.327.414.13.8-.045.21-.011.279-.232.049-.344.125-.265.339-.085.551-.017.582.078.612.119.619.124.3.412.167.44.42.22.365-.011.515-.056.674-.017.619.124.018.469v.558l.08,1.151.038.553-.025.88-.1.671-.29.191-.656.062-.371.113-.372.288-.3.271-.432.215-1.022.084-.748.5-.285.3-.236.434-.18.457-.1.632.637.474.372.36.321.237.346-.04.273-.1.446-.124.537-.1,1.263.293.4.739-.266.355-.2.259-.365.293-.439.231-.65.146-.5.136-.272.219.024.474-.594.519-.327.254-.291.3.037.254.116.265.279.367.285.18.854.214.9.434.006.248-.087.266-.235.451-.333.366-.372.581-.556.513.055.327.39.367.909.288,1.3.226,1.43.028,1.175.068.959.345.575.755.637.451.713.688,1.231.5,1.584.4.39.113.365.13.792.53.65.548-1.158,1.72-1.275,3.272-1.07,2.2-1.362,1.579-1.287,1.41-.884,1.072-1.937,1.68-1.671.914-.291-.1-.656-.576-.891-.315-.725.09-.8.248-.464.169-.743.293h-.421l-.619-.631-.588-.18-1.386-.113-.452-.158-1.082-.6-.292-.508.007-.665-.323-.541-.488-.045-.576.27-.29.316-.478.575-.481.463-.384.383-1,.688-.432.542-1.689,1.534-1.918,2.516-.985,1.534-1.045,2.143-.477-.891-.5-.835-1.182.079-1.132.169-.756.44-.619.136h-.834l-.867-.113-.667-.1-.409-.022-.5.225-.37.3-.563-.1.019-1,.025-.8-.279-.429-.625-.237h-.438l-.464.282-.223.62.08.5.212.676.339.982.408.643.4.339.544.3.012.485-.136.237-.52.237-.5.067-.328.1-.371.406-.9.564-.352.384-.211.417-.092.655.043.665.136.677-.18,1.106-.155.519-.5.2-.328.259.589.248,1.119.147,1.362.135,1.268.158.978.079,1.027.395.612.542,1.239,1.015.507.452.465.339.043.462-.531.046-.755-.158-.743-.079-1.151-.056-.823-.067-1.355.226-.674.541.012.362.346.462-.086.541-.3.677-.1.575.1.767.246.44.508.451.105.417.167.7-.891.056.124,1.331-.607.271-1.244-.034-2.017.462-1.275.147-.766.192-.743.209-.174-.1-.352-.468-.477-.886-.582-.6-.074-.163-.087-.089-.086-.092-.1-.154V906.6l-.086-.2-.111-.3-.05-.279-.086-.137-.1-.109-.036-.035-.062-.046-.242-.08" transform="translate(-2265.55 -838.992)"  stroke="#fff" stroke-linecap="square" stroke-linejoin="bevel" stroke-width="1" fill-rule="evenodd"/>
      <text id="371" transform="translate(14.713 31.501)" fill="#fff" font-size="13"  font-family="OpenSans-Bold, Open Sans" font-weight="700"><tspan x="0" y="0"></tspan></text>
    </g>
    <g id="_374_Etapalli" data-name="374 Etapalli" transform="translate(2611.855 317.592)">
      <path id="talId374" fill="#7DB8EC" title="Etapalli" data-name="Etapalli" d="M2402.989,843.288l-.044.373-.1.429-.192.44-.062.242.074.237.229.389.562.451.037.711-.086,1.494-.4.688-.334.423-.21.243-.254.135-.266.057-.093.209-.08.474-.106.569.106.186.21.22.038.225-.112.276-.093.175.068.3.025.282.038.243-.155.113-.248.1-.266.107-.13.208-.123.305-.117.806-.131.26-.291.169-.216.214-.335.333-.556.045-.514.186-.34.107-.347.136-.271.118-.378.124-.427-.062-.273-.085-.828-.1-.5-.04-.384-.107-.3-.169-.346-.209-.167-.192-.055-.253-.019-.22-.013-.288-.092-.311-.168-.378-.192-.26-.155-.169-.131-.17-.241.04-.192.068-.3.135-.166.051-.062-.045-.279-.158-.2-.079-.192-.068-.2-.22-.161-.226-.21-.163-.315-.215-.222-.107-.2-.05-.31.378-.254.254-.328.276-.248.254-.668.355-.527.513-.823.411-.415-.028-.353-.023-.285.011-.4.056-.316.028-.389.169.117.333.063.378.043.558-.1,1-.229.361-.081.44-.111.384-.025.208.384.423.489.333.427.231.365.147.786.219,1.014.232.75.3.365.124.458.107.316.04.21-.127.39-.435.278-.465.309-.161.205.023.4.093.483-.133.6.113.638.163.489.088.953.039.489.164.619.547.551.835.193.818.247,1.213.141.36.18.339-.137.163-.247.09-.421.192-1.181.423-.322.265-.279.214-.254.316-.062.214.031.8-.2.564-.148.44-.2.508-.248.445-.346.169-.242.158-.185.344-.062.361-.259.417-.31.4-.445.158-.372.225-.8.5-1,.767-1.052.654-.849.214-.39.068-.333-.265-.322-.3-.4-.3-.656-.22-.39-.121-.266-.009-.458,0-.248-.019-.2-.048-.192-.059-.074.063.062.172.186.273.254.5.123.482.024.2-.036.17-.1.214-.31.271-.1.361-.155.13-.019.118.081.192.359.084.78-.028.817-.231.718-.186.471-.028.55.107.5.04.656.192.475.361.4.226.254.051.372-.09.359-.118.346-.2.253-.119.489-.18.353-.034.39.575.118.259.284.208.353.232.581.316.427.333.093.333.105.384v.338l.1.366.272.147.272.018.408-.2.093-.322.012-.423-.024-.548-.05-.671-.08-.452-.186-.44-.279-.524-.167-.8-.2-.225-.383.141-.328-.051-.427-.192-.292-.248-.26-.356-.124-.3.068-.288.291-.575,1.021-1.354.166-.158.775.011,1.639-.011.861-.5,1,.028,1.1.051,1.015.615,1.1.536.556.3.434.293.062.355-.006.457-.2.846.019.508.2.491.019.525-.037.339-.427.823v.9l.117.559.31.631.9,1,.724.406.5.192.458.017.271.062.3.158.271.3.069.26.34.169.265.186.36.169.235.113.2.22-.031.17-.142-.034-.093.034-.117.084.055.186.322.125.13.124.019.081.037.161.08.062.18-.008.13-.054.148-.056.136-.017.136.025.18.1.068.059.025.09-.007.059.044.063h.094l.123-.09.05-.059.086-.014.037.079.074.02.087-.023.037-.042.056-.034.087.012.056.053.142.124.067.045.216.011.124.087.148.125.107.073.111.051.117-.065.068-.14.05-.054.124-.011.167.036.16.054.074.107.093.175.074.065.142.09.129-.023.05.048.179.1.1.02.217,0,.272.11.135.318.081.139.113.138.061.042.081.127.025.074.037.073.105.1.179.006.21.005.143.014.272-.161.2.045.081.116.093-.048.087-.067.173-.037.062.065.13.011.118-.009.143.144.172.248.223.335.347.539.191.372.372.516.321.246.451.237.31.026.644.208.285.163.253.124.3.212.328.736.061.457.068.713.012.4-.105.429-.155.541-.217.84-.167.855-.185.716-.081.564.031.621-.08.516-.094.835-.012.6-.062.694-.13.765-.131.8-.019.429-.062.4.173.456.13.211-.91.027-2.369.056-1.195.215-1.237.242-2.865.491-1.411.124-.222.525-.662,1.049-1.12,1.207-1.93.779-2.481,1.213-1.857,1.015-2.283,1.494-2.239,1.439-1.794,1.7-2.092.857-2.036.711-1.6.428H2386.4l-.7.012-.617.073-1.2.288-1.046.282-.192.039-.49.189-.668.093-.674.15.1.507.13.432.328.764.433.406.378.465.321.567.3.547.167.666-.007.186-.074.542-.284.793-.2.273-.205.2-.252.172-.483.246-.372.318-.236.235-.192.242-.069.248.08.364.446.482.471.38.6.429.372.284.191.443v.175l-.025.189-.123.237-.409.284-.611.445-.285.228-.359.246-.241.282-.236.389-.105.378.143.327.217.5.209.759.038.313-.031.5-.216.426-.1.27-.087.5-.1.615-.007.13-.179.366-.21.3-.737.612-.161.166-.3.314-.179.344-.786-.8-.328-1.117-.315-1.139-.174-.531-.414-.541-.42-.293-.446-.192-.508-.215-.284-.417-.507-.846-.439.3-.383.519-.768.26.279-.981.093-.677v-.824l-.031-.767.018-.643.371-.8.069-.541-.069-.429-1.664-.09-2.043.1-3.78.406-.557.429-.526.6-.563.959-.327.744-.26,1.4-.409.417-1.045.44-1.108-.609-1.659.429-1.683.755h-.39l-.885-.214-.674.5-.928.259-.514-.733-.915-1.432-.5-2.426.779-2.8.923-4.524.272-3.914-.365-1.145-.069-1.432-.068-2.962-.3-1.336-.143-1.681-.2-1.9-.141-1.461-.366-2.459-.235-1.68-.725-1.839-.767-1.478-.749-.739.2-.361.712-.721-.3-.824-.235-.215-.6-.214h-.291l-.755-.124-.421-.316-.606-.643-.365-.6-.495-.835.038-.361.123-.552.582-.158.68.282.464.192.761-.079.917-.181.6-.1,1.07-.023.959.2.563-.057.3-.394.6-.158.935-1.015.681-.587.853-.8.508-.474.81.023.433-.338.384-.609.439-.869.385-2.38-.162-.474-.415-.406-.068-.429.093-.338.247-.587.383-1.049.774-1.32.44-.993.136-1.935-.217-.649-.972-.857-1.435-1.167-.792-.745-.465-1.45-.786-1.247-.643-.841-.415-.558.353-.355.365-.378.314-.519.347-1.432.316-.97.191-1.061.266-.564.148-1.072.161-.931-.011-.874-.1-.648.038-.412-.081-.44-.117-.423-.106-.463.013-.321.285-.372.692-.536.458-.564.663-.547.457-.085.725.192.637.074,1.1.136.965-.068.378-.3.508-.5.686-1.016.421-.976.433-.739,1.168-.958.49-.468.854-.711.859.909,1.256.451,1.17.091.761-.169.674-.485.6-.372,1.021-.113.638.045.73.079.687-.124.63-.35.464-.384.7-.666,1.274-.293.235-.947-.3-.733-.273-.565-.124-.417-.074-.925.2-1.308.025-.711v-.721l.081-.418.452-.293.959-.158.922-.045.575-.068.6-.214.972-.192.865-.011.793.248.495.373.947.327.618.417-.383.463-.111.293.359.147.6-.056.9-.27.779.248.65.136.761-.26.892-.474.636-.3.644-.113.57.057.729.157.415.012,2.531.563,1.17.79.953.745.81.721.427.2.533.157" transform="translate(-2347.88 -838.709)"  stroke="#fff" stroke-linecap="square" stroke-linejoin="bevel" stroke-width="1" fill-rule="evenodd"/>
      <text id="374" transform="translate(24.621 54.579)" fill="#fff" font-size="13"  font-family="OpenSans-Bold, Open Sans" font-weight="700"><tspan x="0" y="0"></tspan></text>
    </g>
    <g id="_378_Mulchera" data-name="378 Mulchera" transform="translate(2573.079 344.905)">
      <path id="talId378" fill="#7DB8EC" title="Mulchera" data-name="Mulchera" d="M2285.5,925.936l.742-.209.767-.192,1.276-.147,2.016-.462,1.244.034.606-.271-.123-1.331.892-.056-.167-.7-.105-.417-.508-.451-.248-.44-.1-.767.1-.576.3-.677.086-.541-.347-.463-.012-.361.675-.542,1.355-.225.823.067,1.151.056.742.079.755.158.533-.045-.043-.462-.464-.338-.509-.452-1.237-1.015-.613-.541-1.027-.395-.977-.079-1.269-.158-1.362-.136-1.12-.147-.588-.248.329-.259.5-.2.153-.519.18-1.106-.136-.677-.044-.665.094-.655.211-.417.353-.383.9-.564.371-.406.328-.1.495-.068.521-.237.135-.237-.012-.485-.544-.3-.4-.339-.409-.643-.34-.982-.209-.676-.081-.5.222-.62.464-.282h.44l.625.237.279.429-.026.8-.018,1,.563.1.372-.3.5-.225.408.022.669.1.867.113h.835l.619-.136.755-.44,1.133-.17,1.182-.078.5.835.475.891,1.047-2.144.983-1.534,1.918-2.516,1.69-1.534.433-.541,1-.688.384-.384.483-.463.477-.575.29-.316.576-.27.489.045.322.541-.006.666.291.508,1.082.6.453.158,1.386.114.588.18.618.632h.421l.743-.293.464-.169.8-.248.723-.09.892.315.655.576.291.1,1.67-.914,1.938-1.68.885-1.072,1.288-1.41,1.361-1.579,1.072-2.2,1.273-3.271,1.157-1.72.769-1.162.414.558.643.841.786,1.246.464,1.45.792.744,1.436,1.168.972.857.216.649-.136,1.935-.439.993-.774,1.32-.383,1.049-.248.587-.093.338.069.429.415.406.159.474-.383,2.38-.44.869-.383.609-.433.339-.81-.023-.508.474-.853.8-.68.587-.934,1.015-.6.158-.3.395-.563.057-.959-.2-1.071.023-.6.1-.915.181-.761.078-.465-.192-.681-.282-.581.158-.124.553-.037.361.5.835.365.6.607.643.421.315.754.124h.292l.6.214.235.215.3.823-.711.722-.2.361-.779.147-.451.1-.465.372-.111.361.1.891.49,1.264.3,1.726-.111,1.8.18,1.444-.5.564-.817.328-.755.418-.315.44.427.529.5.519.142.384-.074,1.061-.488.744-1.739.3-1.318.214-.835.418-.712.372-.551.113-1.807-.056-.4-.192-.966-.429-1.831.169-1.182.677-.674.643-.78.9-.9.474-1.244.541-1.534.62-1.181.632-.384-.236-.347-.384-.477-.9-.605-.507-.05-1.05.055-.632-.247-.518-.718-.09-.873.079-1.169.541-.519.485-.229.44-.142.507-.118.677-.179.722-.7.812-2.766.835-.822.35-1.22.09.328.869.439.61-.266.824-.1-.042-.1-.065-.105-.09-.087-.066-.117-.055-.149-.063-.136-.081-.112-.075-.265-.024-.161-.045-.155-.021-.155-.027-.186-.035-.143-.035h-.043l-.019,0-.433-.047-.012,0-.056,0-.377,0-.111-.025-.18-.027-.155-.014-.174-.033-.148-.013-.143-.017-.24-.095-.044-.027-.036.028-.193-.123-.173-.113-.21-.108-.2-.118-.192-.113-.161-.1-.1-.072-.075-.021-.05-.009-.223-.03-.167-.021-.13-.038-.062-.033-.094,0-.1-.067-.26-.293-.148-.2-.266-.34-.347-.438-.266-.268-.006,0-.328-.592-.439-.856-.532-.73-.73-.883-.433-.631-.353-.212" transform="translate(-2285.499 -883)"  stroke="#fff" stroke-linecap="square" stroke-linejoin="bevel" stroke-width="1" fill-rule="evenodd"/>
      <text id="378" transform="translate(14.398 31.265)" fill="#fff" font-size="13"  font-family="OpenSans-Bold, Open Sans" font-weight="700"><tspan x="0" y="0"></tspan></text>
    </g>
    <g id="_369_Aheri" data-name="369 Aheri" transform="translate(2583.25 373.228)">
      <path id="talId369" fill="#7DB8EC" title="Aheri" data-name="Aheri" d="M2364.426,987.468l-.266.971-.043.13-.3.941.712,1.547.606.891.16.613-.005.823-.341.959-2.314,1.436-2.6,1.658-.007.006-.458.148-.531,1.176-.434.328-1.305.557-.619,1.108.34,2.555.477.786.352.749.223.656-.018.464-.538.223-.767.464-.087.124-.018.47.2.885.118.4-.2.649.068.588-.05.39-.712.4-.618.371-1.208.879-1.584,1.046-.247.421.217.73.526.792.353,1.083-.012.674-.26.279-.811.959-.687.922-1.961,1.844-.235.433-.222,1.244.161,1.232-.037.451-1.813.037-1.479.248-2.846.588-2.692.532-3.6.687-1.465.3-2.772-2.549-2.958-2.3-2.109-1.8-2.959-2.358-3.334-2.395-1.523-1.083-3.824-1.936-2.741-1.4-2.054-1.3-2.495-1.974-2.164-1.59-1.591-.928-1.108-.507-.766-.526-.4-.613-.068-.674.587-.737.142-1.046-.16-.055-.538-.093-.34-.241-.1-.291.346-.142.3-.161.532-.322.427-.353.3-.254.3-.3.037-.038.143-.142.389-.346.217-.291.1-.142.149-.112.13-.043.248-.087.173-.1.118-.192.031-.21.013-.217-.074-.489-.019-.34-.006-.241v-.458l-.043-.384-.067-.26-.118-.229-.2-.142-.259-.105-.192-.148-.242-.26-.2-.3-.161-.328-.173-.291-.118-.13-.143-.105-.241-.3-.149-.241-.049-.173-.019-.248-.055-.111-.179-.13-.117-.142-.043-.124-.074-.321-.068-.285-.036-.223.017-.124.038-.062.055-.037.136-.074.074-.087.068-.093.05-.123.074-.118.062-.173.037-.173.006-.2.019-.316.006-.384.056-.216.074-.229.037-.192.062-.278.019-.142.031-.377.056-.235.031-.143v-.123l-.037-.149-.074-.192-.012-.136.018-.167.124-.3.161-.291.149-.272.217-.353.118-.235.185-.421.142-.322.149-.34.167-.279.266-.421.149-.384.427-.86.13-.241.3-.625.223-.681.322-.365.254-.254.241-.124.074-.024.273-.074.339-.186.322-.26.105-.105.2-.353.112-.631-.112-.755-.28-1.107-.284-.736-.172-.39-.044-.445.105-.551.222-.852.347-.742.266-.537.223-.6.129-.468.013-.029.26-.994.007-.045-.2-1.1.545-.774.21-.884.248-.135.117-.193v-.146l-.068-.126-.093-.131-.08-.107-.13-.16-.025-.088v-.135l.018-.088.012-.124.043-.1.006-.022.007-.029v-.124l.006-.1.019-.207-.019-.017h0l-.031-.039-.093-.037-.111-.125-.1-.216-.013-.163-.068-.807-.062-.113h.006v-.081l-.124-.281-.185-.369-.266-.437-.174-.29-.037-.028-.427-.5-.26-.4-.259-.315-.093-.172-.068-.069-.1-.126-.1-.087-.1-.146-.094-.132-.136-.162-.086-.106-.124-.181-.062-.165-.044-.11-.056-.133-.062-.13-.08-.15-.094-.155-.086-.146-.062-.118-.111-.217-.037-.124.012-.141.05-.16.006-.031.025-.086-.037.017.081-.327.012-.065.019-.119-.007-.16-.018-.179-.025-.19-.068-.279-.05-.109-.068-.172v-.151l-.037-.184-.2-.205-.073-.085-.131-.1-.174-.076-.141-.041-.149-.037-.291-.137-.124-.083-.187-.112-.16-.109-.322-.235-.39-.391-.266-.4-.452-.579-.123-.132-.118-.115-.173-.168-.118-.094-.087-.108-.019-.015-.037-.022-.056-.11-.21-.264-.2-.2-.012-.02-.038-.057-.062-.028-.217-.04-.123-.035.266-.824-.44-.609-.328-.869,1.219-.091.823-.349,2.767-.835.7-.811.179-.722.118-.677.143-.507.229-.44.52-.485,1.169-.541.873-.079.718.09.247.518-.055.632.05,1.05.606.507.476.9.346.384.384.237,1.182-.632,1.534-.62,1.245-.542.9-.474.779-.9.675-.643,1.182-.677,1.832-.169.965.429.4.192,1.806.056.551-.112.711-.373.836-.418,1.318-.214,1.739-.3.489-.744.075-1.061-.143-.383-.5-.519-.428-.529.316-.44.756-.418.816-.327.5-.563-.18-1.444.112-1.8-.3-1.726-.49-1.264-.1-.891.111-.362.464-.372.452-.1.779-.147.749.739.766,1.478.725,1.839.235,1.681.365,2.459.143,1.461.2,1.9.141,1.681.3,1.337.069,2.961.068,1.433.365,1.145-.273,3.914-.921,4.524-.781,2.8.5,2.426.916,1.432.513.733.928-.259.675-.5.886.214h.389l1.683-.755,1.658-.429,1.108.609,1.046-.44.408-.417.26-1.4.329-.745.563-.959.526-.6.557-.429,3.781-.406,2.041-.1,1.665.09.068.429-.068.542-.371.8-.019.643.031.767v.823l-.093.677-.278.981.766-.26.384-.518.439-.3.508.846.285.417.507.215.446.192.421.293.415.542.172.53.316,1.139.328,1.117.786.8-1.01,1.128-.24.536-.075.61-.315.981-.266.435-.118.636.049.309.624.5,1,.972.4.557.068.384-.062.5-.112.316-.043.544.173.285.29.235.192.31.006.278-.445.854-.254.334-.025.279.025.316v.476l-.081.483-.427.322-.65.315-.773-.018-.427.012-.526.08-.376.112-.248.235-.062.5.1.279.2.291.272.34.309.272.991.241.588.539.433.464.279.334.39.3.334.279.266.074.556-.167.181-.05.81-.068.333.117.31.229.3.508.167.377.346.415" transform="translate(-2301.459 -928.788)"  stroke="#fff" stroke-linecap="square" stroke-linejoin="bevel" stroke-width="1" fill-rule="evenodd"/>
      <text id="369" transform="translate(27.227 60.942)" fill="#fff" font-size="13"  font-family="OpenSans-Bold, Open Sans" font-weight="700"><tspan x="0" y="0"></tspan></text>
    </g>
    <g id="_379_Sironcha" data-name="379 Sironcha" transform="translate(2576.445 444.3)">
      <path id="talId379" fill="#7DB8EC" title="Sironcha" data-name="Sironcha" d="M2345.269,1067.731l-.093.891-.242.922-.229,1.838.241.52.093.712.861,1.225.848.829,2.388,2.079,1.719,2.543,1.01.885.1.087.785.569.328.582.384.8.749,1.169.841,1.1.5.619.291,1.318.019,1.51-.044.625-.37.631-.446.186-.012.006-.446.217-.816.637-.88.656-1.131.681-1.293.235-.879.062-.89.476-.583.656-.322.718-.408,1.046-.1.29-.921.668-.873.489-1.219-.322-.7-.056-.73.056-.5.179-.618.563-.272.817.581.545,1,.73.594.854.6.922.991,1.572-.7.668-2.722,2.413-5.922.557-2.11-.637-1.776,1-4,.222-4.219,1.256-.148-.155-.242-.3-.161-.2-.272-.3-.229-.161-.038-.006-.2-.105-.123-.068-.18-.2-.21-.266-.29-.464-.248-.3-.136-.2-.18-.211-.148-.172-.192-.08h-.166l-.155.031-.092.037-.174.037-.062-.006-.037-.013-.118-.037-.161-.087-.1-.087-.094-.08-.037-.05-.1-.061-.105-.019-.16.006-.124-.074-.105-.124-.073-.093-.05-.111-.019-.1-.13-.31-.155-.31-.143-.241-.2-.173-.186-.149-.179-.124-.118-.05-.155-.006-.217.037-.272.025-.322-.018h0l-.167-.031-.187-.111-.161-.161.038-.031-.038-.037.081-.068.007-.006-.112-.149-.05-.136-.056-.136-.031-.136-.024-.112-.062-.161-.073-.1-.112-.08-.111-.136-.068-.087-.136-.185-.061-.112-.037-.117-.049-.148-.118-.149-.062-.13-.1-.242-.019-.124-.025-.117-.006-.117-.038-.155-.031-.149-.018-.13-.013-.13-.031-.105-.074-.161-.062-.08.024-.031-.056-.074-.086-.074-.161-.068-.185-.062-.13-.012-.119.006-.211.013-.221.062-.156.006-.136.018-.211-.012-.112-.05-.1-.105-.094-.093-.1-.148-.006-.167.037-.168-.013-.2-.087-.161-.124-.173-.093-.093-.093-.074-.137-.124-.006-.142-.025-.2v-.185l-.149-.093-.16-.05-.179-.055-.179-.062-.186-.112-.18-.074-.192-.056-.142-.055-.112-.025-.143-.055-.167-.037-.178-.074-.261-.087-.129-.025-.118-.037-.192-.031-.112-.038-.117-.012-.161.087-.075.1-.074.142-.093.173-.049.1.049.42.012.093-.161-.062-.661-.174-.192-.037-.13-.018-.52-.037-.4-.025-.1.012h-.371l-.043-.006-.026.006-.3-.012-.5-.093-.291-.068-.3-.1-.235-.105-.235-.174h0l-.025-.018-.006-.007-.26-.216-.174-.235-.1-.192-.192-.254-.667-.823-.074-.062h0l-.235-.2-.335-.2-.433-.266-.44-.266-.265-.235-.408-.272-.39-.291-.434-.34-.352-.328-.341-.346-.2-.266-.167-.328-.019-.043h0l-.031-.068-.223-.5-.21-.414-.173-.365-.086-.192-.007-.167-.05-.093-.037-.074h-.209l-.031-.012-.012-.006-.069-.031-.018-.007-.068-.025-.068-.031.024-.334.161-.353.327-.272.335-.141.656-.266.928-.347.625-.241,1.019-.452.471-.278.477-.365.568-.514.575-.575.292-.34.135-.253.081-.254.043-.3.032-.389.012-.3-.055-.3-.074-.284-.13-.4-.069-.241-.074-.328-.117-.835-.093-.514-.056-.216-.056-.2v-.155l.05-.21.074-.2.117-.23.019-.155v-.18l-.05-.167-.037-.173-.007-.267.019-.291.038-.3.018-.34.074-.557.006-.272-.012-.557-.006-.284-.08-.323-.062-.315-.143-.316-.074-.105-.093-.136-.1-.266-.031-.309-.044-.508-.006-.315.05-.155.087-.136.006-.105-.025-.111.019-.111.043-.093.012-.136-.024-.155-.031-.142-.087-.273-.019-.241-.006-.248.012-.421-.025-.266-.068-.3-.018-.2-.013-.346-.005-.149-.049-.136-.087-.118-.143-.13-.093-.112-.086-.135-.075-.211-.086-.235-.1-.143-.335-.29-.161-.173-.155-.229-.111-.192-.173-.173-.149-.2-.11-.266-.037-.235-.069-.278-.018-.216-.025-.26-.006-.514-.019-.52-.012-.495.018-.452.062-.371.124-.366.19-.569.063-.334.049-.383.031-.526v-.495l-.019-.3-.1-.495-.08-.291-.067-.2-.111-.124-.187-.1-.235-.055-.155-.093-.167-.155-.142-.086-.087-.112v-.136l.056-.155-.024-.2-.081-.185-.185-.254-.13-.081-.136-.031-.259.031-.192.136-.229.118-.34.142-.334.217-.143.08-.154.006-.3-.074-.242-.025-.285.012-.335.092-.414.136-.241.136-.167.173-.073.105-.093.167-.137.21-.29.223-.292.155-.322.025-.378.012-.192.081-.154.142-.36-.031-.222-.05-.341-.2-.52-.377-.24-.328-.248-.371-.26-.452-.161-.44-.124-.408-.038-.229-.006-.26.038-.532.006-.421-.025-.476-.044-.409-.074-.241-.192-.3-.229-.452-.155-.39-.161-.519-.085-.508-.124-.291-.1-.2-.025-.223.056-.192.123-.315.167-.31.142-.334.1-.353.174-.507.105-.334.2-.192.167-.179.031-.235v-.3l.1-.217.185-.248.384-.364.328-.285.279-.3.378-.253.451-.353.285-.1.049-.019.309-.118.427-.142.379-.185.364-.086.335-.044.3-.124.365-.2.446-.161.514-.173.438-.129.1.29.34.242.539.093.161.056-.142,1.046-.588.736.069.674.4.613.767.526,1.108.508,1.59.928,2.166,1.591L2307.1,1053l2.054,1.3,2.742,1.4,3.823,1.937,1.522,1.083,3.336,2.394,2.958,2.357,2.11,1.8,2.957,2.3,2.772,2.55,1.467-.3,3.6-.687,2.691-.532,2.846-.588,1.479-.248,1.813-.037" transform="translate(-2290.52 -1043.729)"  stroke="#fff" stroke-linecap="square" stroke-linejoin="bevel" stroke-width="1" fill-rule="evenodd"/>
      <text id="379" transform="translate(26.033 40.871)" fill="#fff" font-size="13"  font-family="OpenSans-Bold, Open Sans" font-weight="700"><tspan x="0" y="0"></tspan></text>
    </g>
    <g id="_370_Bhamragad" data-name="370 Bhamragad" transform="translate(2638.861 378.565)">
      <path id="talId370" fill="#7DB8EC" title="Bhamragad" data-name="Bhamragad" d="M2395.342,972.1l.179-.344.3-.313.161-.167.736-.612.21-.3.181-.366.006-.13.105-.615.086-.5.1-.271.217-.426.031-.5-.037-.313-.211-.758-.216-.5-.142-.327.1-.377.236-.389.241-.282.359-.245.283-.229.613-.446.409-.284.124-.237.024-.188v-.175l-.192-.443-.371-.284-.6-.429-.47-.381-.446-.482-.081-.364.068-.248.191-.242.237-.234.37-.319.483-.245.253-.172.205-.2.2-.273.285-.793.074-.541.007-.186-.168-.666-.3-.547-.321-.567-.378-.465-.434-.406-.327-.764-.129-.432-.105-.507.673-.15.67-.093.489-.189.191-.04,1.046-.282,1.2-.288.619-.073.7-.012h1.943l1.6-.428,2.035-.711,2.092-.857,1.8-1.7,2.24-1.438,2.284-1.495,1.855-1.015,2.481-1.213,1.93-.778,1.12-1.207.662-1.049.223-.524,1.41-.124,2.866-.491,1.237-.243,1.195-.214,2.37-.056.909-.027.112.184.5.139.378-.054.748-.288.551-.031.372-.053.365-.07.284-.054.428.017.644,0,.55-.017.408-.1.39-.183.47-.136.309-.031.2.037.427.172.458.219.3.248.21.113.242.043.141.036.155.279.2.186.161.11.371-.014.292,0,.248.093.3.271.2.217.557.2.328.129.265.152.378.2.32.293.049.245.075.2.142.1.266.053.229.034.291.152.242.293.105.254-.093.375-.012.508-.111.279-.069.284.118.141.067.119.088.287.012.128.11.228.271.186.118.155.112.147.067.166.02.079.049.133.279-.009.247-.068.223-.025.217.073.167.079.178.09.13.053.155.057.124.036.178.022.106-.011.1-.025.365-.121.3-.1.34-.186.21-.118.322-.124.167-.084.1-.141.124-.189.093-.079.161.006.389-.037.359-.14.31-.122.253-.008.2.155.606.536.749-.076.36-.062.29.045.092.076.18.292.271.611.113.355.031.223.036.228.026.432v.31l.069.253.1.251.106.53.173.355.136.245.408.178.254.228-.031.31-.006.251.3.324.235.2.216.254.18.116.272.076.322.214.421.173.389-.026.137-.07.248.07.186.164.315.059.068-.023.192-.124.166-.2.292-.313.241-.186.161-.11.3-.039.278.208.241.164.118.1.186.212.241.11.211.031.112.11-.038.24-.055.4-.118.421-.037.516.056.417.044.3.135.607.124.866.136.778.081.871-.1.291-.187.363v.494l-.062.288-.074.243-.137.2-.173.225-.248.248-.172.364-.106.155-.253.234-.595.863-.446.507-.283.232-.2.161-.123.062-.161-.009-.229-.022-.18-.011-.148-.008-.15,0-.111.059-.117.054-.13.014-.2-.082-.7-.053-.273-.034-.241.009-.186-.02-.129-.054-.191-.081-.211.158-.186-.028-.166-.1-.385-.017-.209.056-.291.167-.39.082-.786.231-.155.206-.21.146-.186.009-.21,0-.254.206-.366.206-.427.308-.221.138-.23.141-.155.254v.418l-.167.922-.16,1.05.118.733.259.446.29.474.354.631.9,1.518.329.637.439.4.433.326.508.356.688.479.854.259.382.265.063.423-.076.333-.5.659-.328.349-.589.231-.958.469-.452.288-.247.144-.359.231-.285.157-.216.121-.222.165-.2.2-.16.129-.161.1-.131.042-.253.079-.21.093-.118.068-.048.1-.063.124-.081.266-.074.167-.068.173-.055.173-.044.118-.074.136-.1.062-.1.025-.26.013-.173-.025-.155-.018-.235-.031-.131.1-.037.143-.024.087-.073.105-.068.055-.044.019-.192.056-.081.025-.08-.019-.1-.037-.1-.031h-.074l-.049.006-.112.087-.161.167-.2.124-.3.18-.222.13-.141.031-.13.056-.155.087-.191.18-.087.1-.13.087-.186.093-.148.118-.049.074-.05.112-.025.161-.006.167-.056.068-.068.062-.068.074-.057.117-.16.223-.055.093-.1.049-.049.087-.192.167-.131.105-.086.111-.143.254-.1.142-.08.1-.1.025-.118.044-.173.08-.061.087-.019.185.043.117.019.106-.019.161-.031.093-.068.043-.1.068-.049.019-.143.074-.147.1-.143.025-.16.025-.081.08-.075.105-.154-.019-.136-.068-.2-.062-.161-.037-.192-.019-.248-.049-.128.031-.094.062-.142.229-.217.1-.322-.031-.31-.037-.284-.031-.4-.05-.372-.025-.247.074-.211.155-.1.111-.093.056-.235.037-.049-.068-.086-.062-.093.031-.13.031-.5.365-.323.043-.185-.031-.217-.093-.123.043-.124.062-.167-.043-.13-.019-.117-.013h-.118l-.173-.154-.112-.074-.1-.068-.155.049-.334-.043-.222-.08-.162-.055-.136-.049-.216-.087-.037-.248-.026-.26v-.743l.161-1.07.261-.835.086-.5-.025-.365-.149-.4-.272-.569-.551-.792-.42-.149-.608-.142-.574.05-.458.062-.434.241-.3.2-.464.26-.42.26-.65.371-.978.532-.866.31-.606.513-.892.347-.223.074-.334-.031-.679-.074-.254-.093-.507-.328-.557-.39-.26-.377-.26-.836-.161-1.014-.21-.551-.044-.987-.166-.547-.3-.49-.228-.864-.056-1.132-.4-.682-.191-.327.094-.422.508-.451.233-.585-.2-.413-.693-1.4-.31-.518-.545-.47-.68-.24-.452-.08-.285.006-.451.193-.668.192-.483.343-.334.327-.555.71-1.134.765-.544.622-.483.593-.334.632-1.225,2.168-.173.306-.606.839-.568.3-.985.32-1.237-.068-.917.077-.9.439-.452.556-.853,1.869-.105.334-.259.774-.768,1.065-.824,1.4-.21.947-.136.34-.1,1.33-.779,1.225-.4.631-1.565,1.008-.038.025-2.778.965-2.673.557-.619,1.318-.13.483-.346-.415-.167-.377-.3-.507-.31-.229-.334-.117-.811.068-.18.049-.556.167-.266-.074-.333-.278-.391-.3-.278-.334-.433-.464-.588-.538-.99-.241-.31-.272-.272-.341-.2-.291-.1-.279.061-.5.248-.235.377-.111.526-.08.427-.012.774.019.65-.316.427-.322.08-.483v-.476l-.026-.316.026-.278.254-.335.446-.854-.006-.278-.193-.309-.29-.235-.174-.285.043-.544.111-.316.063-.5-.068-.383-.4-.557-1-.971-.625-.5-.05-.309.117-.636.266-.434.316-.982.074-.61.242-.536,1.008-1.128" transform="translate(-2391.63 -937.242)"  stroke="#fff" stroke-linecap="square" stroke-linejoin="bevel" stroke-width="1" fill-rule="evenodd"/>
      <text id="370" transform="translate(25.615 23.604)" fill="#fff" font-size="13"  font-family="OpenSans-Bold, Open Sans" font-weight="700"><tspan x="0" y="0"></tspan></text>
    </g>
  </g>
</svg>
