<svg xmlns="http://www.w3.org/2000/svg" width="253.176" height="300.715" viewBox="0 0 253.176 300.715">
  <g id="Gondia" transform="translate(-2481.401 -435.862)">
    <g id="Group_23" data-name="Group 23" transform="translate(264.402 313.841)">
      <path id="talId359" fill="#7DB8EC" title="Sadak Arjuni" data-name="Sadak Arjuni" d="M2337.874,559.2l1.169.019.939.061.563.183.767.135,1.839-.031,1.5.019.4.331,1.13.79,1.059.7.714.2.7-.026.336.007.095.673.093.423.391.091.589-.055,1.115.141.645.735.47-.141.215-.3.833.452.336.35.281.17.39.116.979.067.215.814.537.466.511-.38.216-.2.5-.649.175.374.322.478.31.257.267.006.417-.3.254-.165.3.373.376.448.294.073.3-.306.645-.423.268.03.188.338.417.275.844.294-.025.82.039.373-.188.368-.028.268.228.484.242.766.47.637.081.092.416-.2.673-.184.779-.172.134-.288.067-.306.013-.514.135-.508.2-.508.684-.533.94-.336.525-.307.391-.227.845.711.55.367.335.165.3.239-.1.41-.135.27-.079.484-.31.38-.347.189-.336.074v1.2l.8.343,6.354-.067.593.318.535-.031h.4l.054.441-.311.416-.321.44-.388.472-.242.38-.256.453-.12,1.268.012.917.164.675.429,1.18.39.7-.026.838.052.392.443-.294.269-.362.43-.055.485.177.428.081.4.128.269.037,1.262.472.63.11.39-.184.35-.275.269-.282.147-.527.2-.373.283-.819.646-.552.645-.189.375.031.442.2.364.423.146.287.31.907,1.44.213-.2,1.3-.163.367.284.165.5-.073.4-.368.215-.331.483-.086,1.116-.342.336.392.5.477.336.263.484-.335.215-.534.187-.508.12-.325.31-.361-.055-1.291.242-.68.3-.466.134-.948.243-.637.322-.521.148-.446.241.361.443.465.646.448.457.251.429.41.189.435.323.618.3.263,1.3,1.372.954,1.481.858,2.173.35.527.7.361.739.446.981,1.029.673.741v.568l-.27.552-.188.324-.725.043-1.559-.024-.053,1.7-.136.521-.121.515-.228.544-.431.232-.4.062-6.139.007-.592-.388-1.315-.017-.027.238.269.356.308.251.164.348-.11.521.027,1.616-.228.766.013,3.722.107,3.231.041,3.858.2.618.3.227.363.024.5-.276.5-.19.591.2.941.311.873.387,1.571-.454.687-.122.792-.159.445-.392.75-.435.563-.484.578-.257.566-.122.979.029-.026.748.281.446,1.638,1.575.779.979.2.44-.389,1-.5.907-.093.809.121,1.2.591,1.3-.242,6.685.364.514-.323,1.078-.391,1.2-.095,1.177.124,1.052.334.832,1.089,1.4.8,1.028.094,6.049-.188,3.968-.966,1.664-.834.882-.78.93-.321.858-.537.929-.752,5.73-.322,2.572-.241,1.126-.565.809-.658.955-.941,1.1-1.463.759-4.729,2.475-1.249.661-1.047,1.666-.47,1.322-.026,1.249.107,1.125.724,3.282.941.2-.4.538-.241.784.323.318.215.783-.16.808-.741.465-.24.319.564.734.04.245-.175.636-.482.122-.9-.391v-1.249l-.229-1.3-.147-.613-.269-.759-.658-.906-1.184-.563-.8-.318-1.559-.71-.349-.221-.215-.612.27-1.616.484-1.249.564-.955.592-.367,1.488-.368,1.009-.244.484-.905-.309-1.422-.671-1.126-1.222-.074-.859-.342-.995-.759-.979-.809-2.2-1.029-1.692-.833-2.311-.391-1.168.048-2.443.734-2.072.735-1.367,2.057-.43-.025-1.063-.66-.861.2-.656-.466-.686-.538-1.344-1.224-.98-.833-.858-.979-.565-.883-.659-.735-1.129-.513-1.156-.466-1.047-.539-.832-.318-.767-1.762-1.558-.148-1.748-.294.539,1.079.417,1.322.551,1.493.629.931.469,1.3-.59.049-.8-.466-.618-.269-.738.319-.969.611-.79.123-.78.122-2.138.2-1.422.244-.659.049.107,2.523-.013.627-.079.873-.135.345-.35.031-.484-.022-.16.067-.35.291-.256-.021-.214-.153-.431-.111-1.126-.459-.51-.44-.471-.321.066-.627-.242-.818-1.545.265.849-1.413.429-.909.189-1.069.066-.228.054-.042.054-.062.106-.137v-.125l-.013-.051.041-.055.082-.051-.027-.156.027-.144v-.207l.027-.214.053-.122.014-.146-.029-.113-.147-.047-.146-.057-.27-.054-.3-.025-.241-.07-.255-.059-.175-.06.041-.1.16-.5.243.063.281-.048.082.048.12.019.428-.038.231.113.067.071-.188.383.027.012-.068.126.4.141,1.666-1.157.133-.056.149-.027h.268l.148-.065.148-.1.269-.191.161-.033.779.087.524.106.162.057.148.066.349.235.269.019.012.113.147-.079.028-.035.013-.065-.095-.062-.081-.212-.012-.143-.093-.142-.242.039-.134-.055-.067-.141.105-.172.095-.05.026-.137.014-.142-.055-.187.148.028.014-.123-.162,0-.147-.078-.039-.142.186-.136.067-.191-.053-.177-.095-.167-.093-.013-.095.255-.121-.018-.121-.147-.148-.46.228-.246-.067-.159-.308-.047.051-.259-.038-.25-.189-.074-.135-.269.2-.028.133.009-.107-.107.013-.152.028-.307-.177.052-.025-.164-.136-.077-.134.1-.095-.077-.241.021.041-.312-.269-.192v-.072l.041-.121.093-.066-.067-.266-.04-.239.148-.147.228-.24.108-.057.148-.212.2-.056.082.02.255-.111-.08-.161-.214-.137-.055-.229.2-.155.162-.245-.083-.316.15-.315.281-.121.014-.187-.068-.449-.16-.416.107-.017.148-.082-.081-.285-.054-.395-.269,0-.052-.2.173-.368-.094-.252-.146-.143-.149.124-.094-.166-.283.031-.227.03.052-.414.148-.27.081-.292.134-.111.23-.221-.11-.119-.187.026.012-.155-.16-.015-.229.03-.067-.063-.2-.048.04-.242-.148-.065-.147.011-.122.235-.375.1-.282-.077-.162-.035-.349.031-.186-.035-.148-.108-.081-.176-.107-.1-.284-.044-.268-.154-.39,0-.189.04-.013.268-.187.174-.2-.164-.121-.044-.093.131-.108.164.094.209.215.26-.026.22-.363.091-.322-.186-.243.118-.041.352-.026.316v.356l-.052.041-.081.016-.27-.25-.469-.321-.254.085-.282.118-.551-.038-.362-.093-.3-.094L2341,637.6l-.2.183-.188.044.081-.451.013-.308-.12-.255h-.148l-.176.22v.157l-.133.21-.256.071-.2-.153-.014-.079.281-.1.269-.191.11-.244.157.031.243-.038.283-.19-.1-.371.417-.259.336-.156.416-.153.685-.184.564-.545.159-.263.1-.36.121-.489.323-.6.243-.333.054-.27-.028-.079.067-.09.054-.195.067-.319.095-.246-.039-.117V631.3l.08-.151-.135-.242-.321-.372-.013-.16-.041-.023-.322-.113.053-.146-.227-.1-.324-.1-.175-.093.066-.306.082-.154.026-.143.08-.128-.067-.04-.107.007-.135-.048-.2-.091-.122-.011v-.089l-.08-.024-.55-.243-.148-.031-.148-.1-.2-.136-.269-.165.013-.047V628l.174.011.148-.062.431-.012v-.047l.134-.026.188.038.71-.178.4-.215.321-.066.258.028.119-.065.083-.23.24-.069.054-.26.041-.414.188-.3.054.007.133-.555.19.054.162-.421-.041-.073-.08-.2.067-.422-.013-.2.444.047.041-.294-.041-.507v-.1l-.231-.1-.214-.061-.255-.146-.27-.187-.187-.049-.281-.09-.377-.157-.228-.139-.484-.158-.362-.2-.47-.215-.646-.259.269-.646.175-.543.536-1.234.376-.59.416-.579.054-.029-.2-.737-.146-.623-.121-.451-.226-.02-.309,0-.108-.078.012-.107-.174.027-.148-.02-.416.208-.042-.137-.12-.1-.161.026-.216-.046-.108.016-.188.12-.134-.015-.053-.11-.148.062-.068.13-.094-.105-.053.1.067.1-.093.056-.189-.01-.3.089-.135-.073-.2-.109h-.187l-.121-.1-.093.034-.067.02.013-.059.24-.763.281-.25.215-.094.887-.938.269-.2.255-.682.228-.67.256-.551.537-.229.216-.143.267-.214.19-.057.185-.148.351-.156.751-.219.43-.317.431-.191-.136-.61-1.774.264-.75-.091.066-.71v-.275l-.175-.595-.08-.167-.026-.248.618-.2.08-1.2-.027-.367-.176-.815.2-.046.456-.12.2-.115.552-.149-.148-.239.255-.483.081-.446.066-.657.055-.815.026-.278.161-.368-.054-.313-.149-.383-.279-.109-.377-.14-.376-.607-.229-.45-.253-.46-.646-.079-.054-.4-.052-.233.026-.278.067-.5.067-.74-.2-.732-.323-.908-.176-.513-.255-.45-.135-.251-.094-.164-.146-.09.146-.108.162-.27.121.015.161.051.094-.085.175.059.148-.45.026-.38-.026-.234.066-.159-.053-.256-.174.036-.162.184-.161-.007-.107-.382.214-.188.229-.128-.269-.129-.228-.031v-.168l.08-.312-.067-.106.121-.209.161-.056.228-.187.189.012.134-.2-.094-.273.148-.134.013-.133-.121-.039v-.172l.094-.157.108-.049-.014-.088-.106-.028-.2.1-.079-.083.026-.118-.082-.109-.08.019-.054.111-.146.038-.2-.019-.082-.1.122-.1.174-.062.094-.091-.028-.226-.12-.13-.2-.1-.175.149-.121-.223.095-.126.2-.145-.149-.177.053-.154-.134-.123-.12.012-.067-.089.146-.331.256-.039.04-.1-.027-.122-1.008-.3-.592-.169-.457-.27-.495-.147-.9-.417-.417-.063-.134,0,.054-.12-.565-.215-.39-.192-.255-.024-.027-.195-.026-.213-.107-.2-.161.012.013-.375.228-.128-.026-.087-.215.076-.015-.058.029-.051.12-.081-.12-.133-.122-.043-.214.033-.095-.124-.173-.109-.281-.067-.376-.328-.552-.279-.3-.02-.175.161-.322-.141-.3-.043-.279-.106-.3.028-.281-.056-.148-.188-.443-.7-.565-.306-.9.428-.687.05-.833-.33-.026-.282.107-.49.175-.5.054-.371.322-.254.094-.413-.659-.728-.148-.513-.309-1.35-2.026,1.629-.539.48-.577.5-.9.628-.537.083-.887.179-.267,0-.338-.173-.254-.318-.228-.589-.553-.551-.213-.312-.723-.325-.484-1.181-.74-.784-.214-.476,1.208-.753,3.56-1.1,1.972-1.7,1-.577.767-.648.776-.514.606-.8.55-3.355.3-.539.269-.354.135-.515.135-.772.106-1.016,1-1.665.642-1.372.322-.857.256-.489.4-.527,1.169.551.793.245.926.38,1.411.465.942-.012" transform="translate(-45.524 -329.325)"  stroke="#fff" stroke-linecap="square" stroke-linejoin="bevel" stroke-width="1" fill-rule="evenodd"/>
      <g id="_357_Gondia" data-name="357 Gondia" transform="translate(2276.039 122.641)">
        <path id="talId357" fill="#7DB8EC" title="Gondia"  data-name=" Gondia" d="M2341.4,553.295l-.052-.636.04-.472.012-.354.149-.477.16-.411-.093-.446-.161-.251-.524-.356-2.027-.091-.228.11-.484.38-.377.36-.229.509-.147.331-.041.268-.188.471-.228.337-.416.3-.51.11-.417-.067-.119-.33-.284-.269-.266-.361.079-.527-.31.044-.5-.013-.282.2-.336.239-.39.251-.133-.1-.765-.49-2-.207-.052-.349-.027-.5-.269-.926-.054-.446-.228-.674-.229-.367-.364-.177-.683.263-1.019.453-4.178.074h-.62l-.51-.08-.215-.251-1.019-1.218-.041-.415.174-.675.269-.177.441-.257.808-1.189.536-.776.484-.747.806-1.219.176-.625.268-.734.108-.692-.094-.263-.364-.251-.47-.172-.47-.043-.806-.122-.389-.208.188-1.206-.216-.091-.389-.048-.457-.025-.174-.067.027-.287.308-.263.269-.165.12-.189v-.306l-.3-.392-.441-1-.255-.9.2-.612.281-.764.255-.6.3-.514.564-.63.444-.349.457-.239.483.024.592.227,4.084.1.026-1.8.135-.5.711-.685.725-.483.226-.313.11-.685.336-.318.348-.148.579-.526.5-.257.562-.311.147-.306.069-.337-.216-.392-.159-.147-.389-.067-.121-.227.041-.355.189-.33.281-.373.375-.117.47.105.537.483.726.441,1.1.618.592.337.185-.043.175-.184.2-.263.5-.214.2-.392-.014-1.726-.067-3.343.256-.153.3.251.363.141.872.062.2.759.31.017.656.043.268.043.323.3.5.179.471.269.416.423.484.489.323.191.579.024.669-.141.038-.441.15-.808.187-.57.148-.379-.053-.454-.08-.4-.78-.1-.71-.16-.564-.514-.323-.441.51-.845v-.183l-.028-.289-.093-.348-.256-.27-.054-.4-.08-.691-.107-1.066-.351-.005-.7-.1-.23-.324-.147-.485-.067-.47-.134-.349-.147-.466.174-.422.2-1.01.282-.05.107-.238-.039-1.072.014-1.329.376-1.058.053-.237-.027-.2-.362-.086-.336-.07-.162-.435-.041-.3.916-.661.872-1.065.94-1.249,1.382-1.408,1.33-1.311.566-.9.362-1.095,1.021-1.378.511-.545.51-.465.537-.214.5.041.483.136.5.079.39.012.575-.048.941-.582.646-.87.27-.563.134-.986-.054-1.053-.027-.679.081-1.176.389-.373.978-.391.552-.129.685.043,1.225.287.968.57.818.306,1.586.661.457.019,1.156-.019.938-.232.618-.239.791-.447.484-.465.808-1.017.415-.642.563-.771,1.023-.955.617-.57.686-.325,1.193-.256.6-.2,1.533-.508.9-.435.444-.477.457-.618.389-.907.927-.11,1.318-.251,1.38-.012.726.141.82.287.82,1.1.389.869.363.876.643.857.458.435.523.264.592-.055.376-.049.416-.11,1.1-.2.551.038.994.091.808.043.913.1.589.146.551-.226.457-.4.551-.289.741-.2.5.134.55.289.792.532,1.022.27.563.165.685.281.618.423.67.752.673,1.219.847,1.928.579,1.372.455.667.633.264.8.251,1.09.1.913.4.523.557.282.606.122.642-.054,1.385.054.58.308.894.308.716.162.287.471.356.429.146.832-.11,1.183-.4,1.06-.2.913-.1.551.036,1.035.214.938.631.86.752.417.447.227.466.229,1,.216.515.23.465.307.632.5.642.418.411.427.36.027.332-.188.159-.428.227-.391.153-.364.307-.43.343-.282.477.095.368.646.379.5.313,1.436.936.7.686.619.513.469.295.794.2,1.73.276,1,.349,1.236.513.564.692.455.527.27.122.375.093.513.153.684.306.738.582.483.807.122.55.2,1.33.162.556.43,1.115.431,1.475.24.5.484.7.228.454.121.422-.026.44-.1.313-.189.539-.24.967-.013.453.08.344.35.269-.244.368-.079.331-.27.244-.551.031-1.625.128-.348.2-.417.355-.86.71-.78.618-.294.148-.619.22-.63.2-.551.269-.362-.594-.083-.41-.322-.5-.161-.319-.31-.513.069-.215.161-.227.174-.245-.107-.4-.282-.4-.741-.294-.5-.146-.564.062-.631.281-.754-.08-.026-.227-.2-.312-.228-.38-.081-.4v-.661l.026-.551-.026-.569-.081-.245-.51-.062-.377-.048-.429.141-.737.453-.389.189-.3.129-.3.123-.309.049-.267-.129-.284.079-.148.306-.068.337-.429.177-.108-.251-.134-.355-.444.03-.2.148-.122.294-.093.477-.2.392-.47.484-.228.146-.389.093-.3-.27-.658.091-.5.031-.736-.1-.927-.539-.6-.184-.511-.165-.765-.4-.687-.287-.856-.16-.229.043-.282.153-.228.165-.324.184-.35.184-.2.177-.229.079-.187-.165-.362-.33-.389-.092-.337.262-.213.227-.376.331-.108.282-.27.282-.268.4-.054.68-.163,2.779.136.673-.256.631-.054,2.461.136.508.147.184.081.5-.109.422-.135.515.363.68.348.239.338.281.094.729v.373l-.027,1.426-.055.63-.335.423.281.446-.308.4-.389,1.06-.954.654-.928.208-.819.331-2.176.031-.43.172-.364.306-.807.563-.575,1.084-.107.716-.188.538-.12.551.255,1.1.336.9.12,1.487-.162.562-.186.184-.3.392-.364.416-.456.362-.457-.148-.417-.386-.7-.141-.309.165-.387.148-.414-.067-.446-.074-.2-.019.107.374.053.275.068.3.107.251.228.25.067.27-.216.3-.579.22-2.417-.067-.227.055-.7.062-.51.166-.39.086-.175-.33-.255-.368-.188-.392-.243-.367-.255-.294-.242-.306-.738-.532-.415-.4-.243-.392-.081-.343-.187-.526-1.158-.79-.482.029-1.557-.024-.9.772-.417.233-.3.3-.3.429-.229.416-.267.2-.244-.11-.174-.238-.041-.282v-.4l-.147-.336-.591-.277-.563-.33-.673-.7-.67-.3-.525-.141-.779-.129-.336-.226-.6-.116-.525-.141-.443-.544-.724-.055-.284.079-.255.239-.3.52-.067.606-.134.471-.322.074-.777-.16-.808-.232-1.021-.319-1.2-.617-.536-.221-.848-.1-.7-.227-.659-.324-.376-.136v-.208l.148-.563-1.235-.134-.671-.368-.618.007-3.089-.062-.363-.146-1.168-.141-.753-.091-.389.147-.243.282-.2-.055-.267-.3-.229-.366-.472-.172v2.419l.175.6.163.471.118.967-.2,1.194-.323.754-.417.929-.617,1.023-.551.111-.551-.166-.376-.313-.576.251-.659.153-1.814.055-.388.1-.457.141-.5.072-.484.086-.51.215-.471.226-.254.215-.188.4-.364.349-.444.042" transform="translate(-2320.819 -478.804)"  stroke="#fff" stroke-linecap="square" stroke-linejoin="bevel" stroke-width="1" fill-rule="evenodd"/>
        <text id="talId357count" data-name="Gondia" transform="translate(41.561 42.518)" fill="#fff" font-size="10"  font-family="OpenSans-Bold, Open Sans" font-weight="700"><tspan x="0" y="0"></tspan></text>
      </g>
      <g id="_354_Amgaon" data-name="354 Amgaon" transform="translate(2355.17 164.163)">
        <path id="talId354" fill="#7DB8EC" title="Amgaon"  data-name=" Amgaon" d="M2394.011,572.769l-.092-.428-.325-1.035.283-.575.4-.4.712-.96.4-.129.162-.423.16-.4.365-.441.174-.331.067-.5-.3-.5-.3-.269-.365-.091-.345.085-.458.251-.376.275-.457.411-.536.171-.605-.08-.3-.166-1.72-1.1-2.026-2.063-.888-.68-.671.136-.336.275-.6.515-.578.429-.363.269-.712-.049-.256-.031-.833-.741-.777-.483-.672-.348-.3-.318-.026-.313.229-.594.2-.373.592-1.218.563-.931.966-1.108,1.184-1.3,1.261-.4.321-.38.107-.435-.052-.471-.322-.552-.726-.881-.71-.563-.712-.8-1.437-1.91-.605-1.016-.16-.637.71-.613.848-.428,1.383-.539.846-.4,1.073.086,1.13.587,1.182.294.552-.159.9-.332.643-.574v-3.809l.822-1.555,1.6-1.212,1.487-1.127,1.144-.293,1.034.024,1.382-.024.026-.356-.188-.587-.053-.564-.013-1.91.485-1.235.092-.613-.174-.4-.592-.282-.871-.342-.9-.257-.7.2-.741.624-.618.441-.646.171h-.939l-.63-.111-.9-.221-.779-.342-.63-.735-.51-.366-.539-.013-.752-.293-1.141-.441-1.625-1.041-.362-.294-.229-.417.026-.931-.1-.759-1.262-1.481-.818-.465-.47-.417-.361-.563-.3-.172-.658.031v-.373l-.094-.73-.336-.281-.351-.239-.36-.68.134-.515.107-.422-.08-.5-.147-.184-.135-.508.055-2.461.253-.632-.133-.672.161-2.779.053-.68.27-.4.267-.282.109-.282.376-.33.216-.227.336-.262.389.091.363.331.185.165.229-.079.2-.177.35-.184.322-.184.228-.165.282-.153.231-.043.857.16.685.288.764.4.511.165.606.184.927.538.739.1.5-.031.657-.091.3.27.39-.092.229-.147.47-.483.2-.392.094-.477.12-.294.2-.147.445-.03.134.355.106.251.43-.177.067-.337.147-.307.281-.079.269.129.312-.05.293-.122.3-.129.389-.189.739-.452.429-.141.376.048.51.062.08.244.028.57-.028.551v.66l.081.4.229.38.2.312.024.227.754.08.632-.281.564-.061.5.146.737.294.283.4.107.4-.176.244-.161.227-.067.215.307.513.162.318.323.5.082.41.361.594.554-.269.629-.2.619-.221.3-.148.774-.617.861-.711.419-.355.349-.2,1.625-.127.55-.031.268-.245.079-.33.244-.368.376.129.592.086.522.14.432.258.107.239.053.269-.042.673-.094.65-.216.288-.12.367.04.227.163.392.416.373.588.453.834.838.646.447.323.129.632.417.189.237.174.086.552-.213.253-.062.442.227.378.386.133.306.176.759.012.557.336.5.214.172.269.172.269.544.12.729.257.857.416.752.187.5.068.258-.122.642-.013.361.1.245.241.208.349.067.374.2.016.22-.067.224-.2.233-.767.309-.43.262-.618.746-.59.756-.725.845-.189.229-.2.158-.2.124-.268.053-.267.138-.2.127-.149.138-.1.309.042.172.082.131.174.135.216.132.294.162.281.211.174.193.1.309.013.18-.094.218-.121.125-.267.246-.389.269-.834.371-.766.339-.483.389-.271.469-.31.457-.269.523-.038.533.067.4.107.442.443.688.338.543.416,1.068.523,1.279.31.893.458.823.133.367.134.322.109.3.147.278.094.194.4.288.227.174.08.367-.256.433-.2.532-.053.325-.014.3.2.484.189.2.456.49.458.232h.7l.268.416.123.478.2.576.578.563,1.088.8.712.636.953.651.739,1.2.458,1.046.067,1.69-.3.84-.43.673-.175.532.269.215.256.1.483.246.563.446.053.895.013.477-.053.466-.335.39-.765.252-1.411.416-.471.086-.874.055-.536-.11-.818-.147-.754-.179-.63.429v.27l.093.337.229.379.135.514-.067,1.017.323.434.214.5.04.924.336.6.029.373.107.251.35.2.4.288.442.686.213.919.2.226.012.22-.321.411-.255.331-.644.17-.227.3-.835.715-.2.361-2.738.637-1.426.563-.429.215-.3.256-.243.4-.748.049-.3.007-.363-.147-.243-.263.149-.208.094-.294-.363-.478-.75-.764-.525-.717-.378-.213-.523-.2-.469-.323-.362-.563-.4-.785-.417-.569-.51-.3-2.54-.036-.712.017-.9-.232-.723-.08-.324.508-.858,1.347-1.115.7-1.344.165-1.516.3-1.411-.129-1.01-.49-1.153-.293" transform="translate(-2379.84 -509.774)"  stroke="#fff" stroke-linecap="square" stroke-linejoin="bevel" stroke-width="1" fill-rule="evenodd"/>
        <text id="talId354count" data-name=" Amgaon" transform="translate(8.428 50.995)" fill="#fff" font-size="10"  font-family="OpenSans-Bold, Open Sans" font-weight="700"><tspan x="0" y="0" xml:space="preserve"> </tspan></text>
      </g>
      <g id="_361_Tirora" data-name="361 Tirora" transform="translate(2218.067 146.703)">
        <path id="talId361" fill="#7DB8EC" title="Tirora"  data-name=" Tirora" d="M2355.914,497.09l.04.3.162.435.336.07.363.086.026.2-.053.236-.377,1.058-.013,1.328.04,1.072-.107.238-.282.05-.2,1.01-.175.422.149.466.133.349.067.47.149.485.228.323.7.105.35.005.107,1.065.08.692.054.4.256.27.094.348.026.289v.182l-.51.845.323.441.564.515.712.16.778.1.08.4.055.454-.147.379-.19.569-.146.808-.041.441-.67.141-.578-.024-.321-.19-.485-.489-.417-.423-.471-.269-.5-.179-.322-.3-.266-.043-.658-.043-.311-.018-.2-.759-.873-.062-.364-.141-.3-.251-.255.153.066,3.343.013,1.726-.2.392-.5.214-.2.264-.174.184-.188.043-.592-.337-1.1-.618-.727-.441-.537-.483-.471-.1-.375.117-.282.373-.188.33-.041.355.121.227.389.067.162.146.212.392-.065.337-.147.306-.565.312-.5.257-.578.526-.35.148-.335.318-.108.685-.228.313-.725.483-.711.685-.135.5-.026,1.8-4.084-.1-.591-.227-.485-.024-.457.239-.444.349-.564.63-.295.514-.254.6-.281.764-.2.613.256.9.441,1,.3.392v.306l-.12.189-.269.165-.307.263-.027.287.175.067.455.026.389.048.213.091-.187,1.206.39.209.807.122.471.043.47.172.362.251.095.263-.109.692-.268.735-.174.624-.806,1.218-.484.747-.539.776-.806,1.188-.442.257-.269.178-.174.674.041.415,1.02,1.218.213.251.512.08h.618l4.177-.074,1.022-.453.684-.263.362.177.229.367.228.674.053.446.269.926.028.5.054.349,2,.207.764.49.134.1.39-.251.335-.239.281-.2.5.012.309-.043-.079.527.269.361.282.269.122.33.416.067.512-.11.415-.3.227-.337.189-.471.04-.269.149-.331.228-.509.377-.36.484-.38.229-.11,2.026.091.525.356.162.251.094.445-.161.411-.148.477-.013.355-.041.472.054.637-.243.576-.134.52-.134.687.175.257.592.392.415.41-.067.392.027.514.108.251.523.4.565.785.469.428-.012.453-.014.5-.067.337-.363.721-.055.533.055.613-.349,1.114-.31.895-1.087,4.475-1.423,4.677.965.538-.094.527-.307.65-.416,1.2-.351,1.113-.133.759.739.7.041,1.077-.08.588-.256.366-.6.6-.5.551-.632.613-.658.586-.135.588-.241.8-.122.392-.067.576-.093.783-.938.012-1.412-.464-.928-.38-.79-.244-1.169-.551-.4.526-.255.489-.323.857-.645,1.371-.994,1.666L2344,584.37l-.134.772-.133.514-.27.355-.3.538-.551,3.356-.605.8-.779.514-.767.649-.993.576-1.976,1.7-3.559,1.1-1.211.753-.829.005-1.842-.2-.351.259-.47.127-.415.055-.456.024-.283.12-.725,0-.74.122-.711-.024-.794-.907-.616-.306-.659-.147-.589-.031-.351-.213-.107-.68-.458-.852-.617-.82-1.046-.857-1.129-.747-.578-.625.079-.23-.2-.476-.377-.034-1.035-.165-1.032-.093-.309.124-.914-.026-.645-.225-.887-.141-.589.324-1.156,1.029-.712.466-1.772.851-.215.569-.364-.55-.3-.237.149-.192-.658-.4-.821-.342-.86.226-1.005-.4-1.439.162-.026.124-.2.161-.135-.527.094-.325.767-.379-.041-.3-.254-.178-.431.215-1.6.544-.941.368-.577.294-.606.288-.146.079-.471.134h-.619l-.268.132-.5.217h-.389l-.429.385-.149.295v.293l-.3.411-.189.044-.241-.082-.363-.2-.174-.5-.054-.117-.148-.043-.578.612-.108.039-.12-.056-.108-.239-.374-.408-.941-.339-.161.042-.228-.024-.161-.193-.067-.161-.189-.123-.012-.011-.121-.052-.256-.179-.188-.215-.228-.213-.671-.323-.176-.086-.24-.022-.537-.088.041-.085.081-.267.108-.39.159-.224.631.193.524.188.537.112.269.026.241.031.806.031.553.029.039.747.028.306.309.042.535-.146.444-.025.579-.032.456.262.712-.247v-.876l-.133-.768-.338-.013-.051-.035-.175-.1-.19-.106-.081-.106-.026-.229-.027-.2-.31-.42-.121-.011-.094-.055-.146.012-.149.03-.135.009-.229-.027-.2-.064-.134.059-.083.145-.185.24-.147.036-.176-.088-.833.309-.685.082-.847-.14-.417-.112-.363-.153-.925-.341-.417-.165-.51-.286-.041.109-.309-.047h-.094l-.04-.01-.041-.019-.3-.062-.256-.005-.3-.043-.175-.691-.229-.523-.215-.744-.135-.124.135-.71-.054-.243-.081.073-.214.09-.146.034-.135-.054-.3-.09.122-.232.015-.107-.123-.041.067-.178-.014-.209.028-.107.026-.061-.08-.021-.014-.223v-.54l.081-.1.014-.3.107-.058.094-.085.08-.079.2-.046.161-.049.039-.108h.188l.161,0,.121-.016.054-.077.121,0,.135-.125.188-.016.256-.089.175-.448.577-.046.376-.016.067-.148.04-.1.162-.046-.026-.062-.122-.042-.135-.06.027-.088-.187-.093-.122-.031-.094-.1-.109-.073-.106-.008-.027-.058-.094.036-.014-.2.067.019h.095l.079-.11.016-.152.093.049.148-.024-.041-.133.012-.137-.066-.075-.108.045-.174.064-.134.061-.014-.145.161-.161-.027-.06-.134-.028.027-.195v-.1l-.148.083-.081-.067.028-.088-.08-.072-.1.024-.134-.164-.094-.119-.2-.158-.081-.108-.067-.019-.026.026-.014.24-.108-.015-.148.127-.148-.01-.135.036-.079.027-.067-.044.027-.3v-.1l-.068-.043.015-1.4.026-.09.027-.288v-.2l.616.074.08-.032.176-.774.08-.026.162.019.082,0,.079-.22.055-.225.108-.142.038-.258.056-.269-.027-.233-.054-.013.094-.537-.27-.055.067-.1-.027-.23.015-.164-.122,0-.094.079.053.142-.038.12-.029-.075-.041-.04-.067-.015v.152l.081.153-.081.044-.067.031-.068-.109-.106-.02-.081-.043-.067.069-.081-.079-.094-.082.188-.188.041-.2.081-.167-.014-.158-.149,0-.121.137-.08-.176-.054-.128-.189,0-.2-.087-.067-.066.175-.078.134-.14-.161-.1v-.035l.081-.4-.282-.3-.093-.117-.3-.075.026-.211-.2-.271v-.263l-.443-.071-.041.063-.511-.063-.2.094-.228.039-.618-.167-.134-.093-.175-.013-.228-.059-.2-.093-.308-.063-.362-.07-.323-.028.08-.293.094-.168.027-.289v-.337l.149-.4.081-.9-.013-.076.052-.337-.038-.333-.013-.531.04-.665.012-.116-.212-.119-.189.065-.121-.065-.08.039-.123-.051-.026-.1.081-.084-.134-.184-.161-.288-.081-.219.014-.266.067-.372.08-.523-.014-.072.04-.133.026-.324.082-.24.054-.1.161-.395.081-.348.054-.074V560.8l.066-.26-.027-.274-.014-.368.028-.49.012-.448.027-.306-.161.023-.067.129-.2-.016-.134.144-.242-.2v-.156l.052-.188-.067-.244-.107,0-.12.035-.015.042.082.125-.067.094h-.108l-.108-.057-.134,0-.093-.2.012-.114-.04-.1-.2.024-.106-.086-.146-.042-.068.074-.094.008-.134-.064-.189.005-.121.11-.094.011-.041-.077-.067-.023-.038-.1-.029-.143-.965.531-.927-3.262-.148-.868.028-.893.066-.431.228-.455.376-.873.605-.569.682-.429.579-.353.834-.478,2.066-.577,1.814-1.371,5.173-4.1,2.027-1.632.981-.661.9-.563,1.932-.821.512-.2,2.915-1.21,1.223-.662.874-.551.389-.7.08-.426-.041-.419-.241-.656-.188-.349-.107-.4-.04-.391.012-.434.107-.309,1.046-1.378.833-1.155.7-.866.43-.695-.067-.412.014-.206.08-.22.041-.12.026-.092.067-.248.067-.2.229-.3.579-.564.295-.184.32-.114.254-.085.391-.513.389-.385.444-.475,1.814-1.667,1.248-1.164,1.224-1.189.107-.065.981-.984.658-1.012.59-.881.793-1.519.268-.853.243-1.142-.041-1.329-.268-1.1-.336-1.274-.215-.545-.256-.459-.537-.99-.656-1.091-.229-.365-.417-.617.47-1.675.094-1.256.11-1.58.762-1.456.874-1.359,1.182-1.39.915-.422,1.679-.141,1.464.005,1.611.381.724-.288.889-.287,1.194-.251.993-.22,1.142-.031.954.251.82.649.965.79.7.905.472.625.618.943.484,1.151.766,1.113.656.546.794.3.551.1.737.061,1.3-.453,1.369-1.01.806-.649,2.027-1.463,1.613-1.457,1.478-1.243,1.087-.411,1.156-.4,1.034-.031,1.663.153,1.479.367,1.438.509,1.208.128,1.036-.171,1.088-.368,1.033-.594" transform="translate(-2277.58 -496.748)"  stroke="#fff" stroke-linecap="square" stroke-linejoin="bevel" stroke-width="1" fill-rule="evenodd"/>
        <text id="talId361count" transform="translate(30.531 66.456)" fill="#fff" font-size="10"  font-family="OpenSans-Bold, Open Sans" font-weight="700"><tspan x="0" y="0"></tspan></text>
      </g>
      <g id="_360_Salekasa" data-name="360 Salekasa" transform="translate(2367.356 194.142)">
        <path id="talId360" fill="#7DB8EC" title="Salekasa"  data-name=" Salekasa" d="M2390.89,565.094l1.155.293,1.009.49,1.409.129,1.52-.3,1.343-.165,1.113-.7.861-1.347.321-.508.727.079.9.233.712-.018,2.538.036.51.3.417.569.4.785.364.563.469.323.525.2.376.214.523.717.752.764.364.478-.094.294-.147.209.241.263.363.146.294-.006.753-.048.241-.4.3-.256.431-.215,1.424-.563,2.74-.637.2-.361.832-.716.23-.3.643-.17.254-.331.322-.411-.013-.22-.2-.226-.217-.918-.442-.686-.4-.288-.349-.2-.107-.252-.029-.373-.335-.6-.04-.924-.214-.5-.323-.434.068-1.017-.135-.514-.228-.379-.095-.337v-.27l.632-.429.752.179.819.147.537.11.875-.055.47-.086,1.411-.417.763-.251.338-.391.052-.466-.014-.477-.053-.895-.564-.445-.482-.246-.255-.1-.269-.215.174-.532.431-.673.293-.84-.065-1.69-.456-1.046-.74-1.2-.955-.65-.711-.636-1.086-.8-.578-.563-.2-.576-.121-.477-.269-.416h-.7l-.458-.233-.456-.49-.189-.2-.2-.484.013-.3.054-.325.2-.532.254-.432.618.524.539.235.269-.06.228.049.176.157-.055.183.31.031.256-.122.362-.007.564.086.362.025.51-.008.847-.09.43-.06.416-.046.2-.1.242.285.268.282.266.2.216.086.779.171.591.193.62.092,1.032.162h.364l.281-.052.228-.049.189-.1.12-.083.1-.177.589-1.135.041-.615-.108-.87-.268-.875-.039-.487v-.376l.254-.668.3-.579.228-.321.295-.461.175-.5.27-.4.161-.351.256-.417.281-.443-.026-.355.093-.141.241-.089.388-.052.228.055.23.134.214.331.323.249.255.113.336.11.189.139.323.263.389.294.269.226.163.285.253-.021.176-.132.16-.241.308.134.189.171.256.165.254.113.041.006.227-.168.162-.12.107-.04.55-.32-.134-.6.161-.318.3-.11.431.086.107.33.283.759.188.208.643-.514.5.037.592-.05.215.282.35.043.148-.141.268.086.2.086.391-.031.6-.172.442-.281.362-.018.135.257.039.312.256.312.364.24.294.215.295.4.229.294.228.092.338-.013.322-.029.161-.239.081-.129.149-.122.24.006.229.167.185.146.162.037.188-.018.108-.055.255-.423.3-.453.214.1.122.2.106.139.189.149.725.169.376.331.174.022.148-.127.04-.257.054-.269.108-.192.163-.16.188-.085.293-.1.176.077.1.182.095.212.053.232.054.223.013.263-.039.948.106.258.161.26.069.094.269.225.079.171.04.215.082.242.053.211.053.138.068.077.2-.022.256-.138.295-.067.282.005.256-.008.308-.077.162.009.161.161.187.208.081.246.107.436.026.279v.221l.053.213.067.187.11.246.106.2.056.162.105.594.041.168.066.2.108.184.268.028.337-.074.416-.084.271-.015.214.024.108.086.24.328.283.18.268.117.337-.012.187.031.026.161.027.172.068.138.067.091.067.122.2.031.216-.129.188-.134.3-.074.2-.006.2.073.108.135.068.153.026.165.067.416.123.1.227-.022.147-.12.161-.15.255-.091.241,0,.094.064.162.16.187.247.3.772.281.362.295.18.31.256.241.23.109.177-.042.179-.067.115-.094.089-.147,0-.188-.024-.2-.037-.175.028-.306.134-.108.193-.041.707-.121.291-.067.2-.054.221.013.132.1.114.187.018.242.033.093.117.015.079-.069.193-.105.039-.095.184v.168l.095.1.2.11.228.149.147.261.121.208.43.132.482.091.162.049h.284l.188-.177.134-.224.081-.321.147-.294.122-.18.294-.031.215.055.216.086.254-.055.415-.153.188.036.3.349.324.3.174.153.147.108.257.022.175-.047.147-.067.149.031.281.11.47.242.256.382.093.306-.255.919-.162.44-.079.355v.313l.267.323.484.208.4.105.669.182.338.116.121.221.067.213.242.589.416.391.6.2.417.343.537.239.548.2.3-.167.04-.3.041-.338.04-.263.162-.159.2-.061.147.024.432.146.469.289.7.563.268.306.216.276.241.282.121.134.3.3.484-.092.375-.177.456-.117.512-.006.389-.079.175-.048,1.129-.27,1.088-.563.6-.215.646-.177.39-.214.536-.263.525-.1.416-.024.684.208.539.086,1.114-.624,1.4-1.512.834.183.323.205.214.542.136.658.322.433.148.218.228.084.363.146.348.249.39.318.455.319.176.254.079.192.1.315.053.316.039.251.108.382.134.272.7.521.226.137.269.129.135.177.095.292-.068,1.015-.3,1.036-.175.532-.027.483.093.288.028.392.014.367-.12.435-.659.459-1.3,1.121-.456.331-.767.079-.725-.079-.458.05-.711.072-.269.215-.295.63-.093,1.708-.229.355-.6.2-.5.214-1.074.821-.348.962-.1.649.04,1.6-.12.907-.095.527-.147.361-.349.942-.47,1.292-.174.784-1.223,1.051-.766.141-.578.067-.509.172-.644.435-1.8.967-1.062.955-.656,1.089-.31.814-.229.613-.241.49-.228.41-.351.306-.281.129-.846.221-.605.251-.669.048-1.3-.16-.456-.036-.578.055-.4.116-.375.147-1.048.428-1.411.508-.887.436-1.046.514-.645.5-.5.7-.415.747-.633,1.108-.792.888-.443.237-1.6.509-.9.343-1.023.214-1.031.105-2.675-.007-1.236-.33-.967-.385-.874-.472-.659.043-.387.283-.2.17-1.262,1.182-1.477,1.86-.471,2.505-.214.5-.136.177-.308-.086-.294-.146-.255-.349-.309-.122-.432-.019-.711.1-.739-.092-.659.269-.3.226-.334.294-.563.325-.5.459-1.006.642-.416.258-.471.029-.551.11-.362.178-.309.306-.269.27-1.021.876-.537.208-.324.005-.442-.055-.229-.129-.39-.422-.549-.306-.417-.049-.954-.227-.523-.031-.364.012-.295-.569-.135-.331-.3-.581-.9-.307-.59.069-1.061.348-2.176.093-1.841.177-.121-1.029-.175-.606-.3-.606-.432-.215-1.138-.232-.511-.227-.672-.464-.443-1.475-.968-1.213-.458-1.034-1.085-2.614-.713-1.438-.9-1.795-.686-1.01-.912-.972-.671-1.12-1.143-1.445-1.289-.962-1.531-1.377-1.452-.814-2.323-.5-1.8-.135-.336-.043-.4-.154-.6-.16-.537.031-.457.319-.538.1-.107,1.23-.013.539-.053.735-.027.5-.31.459-.982-.006-.547-.025-.739.165-.578.2-.539.141-.94.287-.672.049h-.656l-.592-.055h-.551l-.484-.093-.175-.127-.175-.337-.094-.441-.146-.435-.243-.581-.053-.875.067-.625.175-.423.147-.507-.013-1.463.255-.337.955-.27.47-.036.242-.3.134-1.806-.321-.7-.7-.961-.269-1.414-.308-.73-.808-.783-.645-.655-.388-.783-.7-.306-.417-.276-.215-.49-.013-.68.322-1.346.309-.789.566-.246.763-.017" transform="translate(-2388.931 -532.134)"  stroke="#fff" stroke-linecap="square" stroke-linejoin="bevel" stroke-width="1" fill-rule="evenodd"/>
        <text id="talId360count" transform="translate(36.242 43.018)" fill="#fff" font-size="10"  font-family="OpenSans-Bold, Open Sans" font-weight="700"><tspan x="0" y="0"></tspan></text>
      </g>
      <text id="talId359count" data-name="Sadak Arjuni" transform="translate(2307.598 290.159)" fill="#fff" font-size="10"  font-family="OpenSans-Bold, Open Sans" font-weight="700"><tspan x="0" y="0"></tspan></text>
      <g id="_355_Arjuni_Morgaon" data-name="355 Arjuni Morgaon" transform="translate(2259.184 317.538)">
        <path id="talId355" fill="#7DB8EC" title="Arjuni Morgaon" data-name=" Arjuni Morgaon" d="M2395.961,650.78l-.7.613-.618.73-.067.543-.052.864-.577,1.542.067.294.63.074.916.019,1.246.042.576.411.539.771.673,1.029-.053.575.564.894.47.465.3.57.441.814.591-.086.376.184-.47.135-.283.1-.147.337.134.342.405.258.71-.081.459.22.079.423-.2.115-.792.808-.134.644-.551.06-.067.263v.337l-.027.3-.3.191-.469.091h-.362l-.269-.416-.081-.472-.282-.282-.457.038-.873-.067-.472.005-.348.079.014.38-.055.306-.08.532-.737.38-.551.2-.658.239-.525.184-.617.2-.526.159-1.516.612-.739.46-1.464,1.5-.965,1.562-.875.991-.752,1.763-.39.649-.336.532-.361.674-.526.445-1.812,1.635-1.868,1.953-.979,1.39-.579.692-.293.46-.136.489.108.785.31.366.389.295.981.452,1.249.9.914.484,1.168.924,1.315.785,1.182-.026.659-.122.672.05.832.239.283.012,1.4.06.294.772.189.709.444,1.543,1.113.876,1.264,1.156,1.129.435.791.195.524.289,1.505,1,2.2,2.271,3.105,2.554,2.43,2.192.819.527h5.627l2.713.208-.51.826-.63,1.156-.457.9.2.728.095.44-.066.4-.148.227-.551.373-.847,1.446-.482,1.139-.337,1.039-.269.318-.456-.086-.646-.14-.363.049-.417.153-.47.2-.469.184-.375.048-.711-.086-1.264.129-.416,1.316-.348,2.094-.433,1.8-.709,2.853-.283.875-.226.612-.51.208-.444.031-1.1.055-3.089-.074-.9-.012-.365.2-.281.245-.188.275.025.275.1.22.147.191.188.41.067,1.378.417.685.121.435-.121.355-.3.478-.631.716-.346.343-.417.233-.632.423-.388-.086-.605.091-.418-.012-.724-.19-1.14-.686-1.051-.232-1.45-.354-.993-.411-.765-.134h-.646l-.375-.079-.3-.22-.188-.306-.335-.227-.295-.18-.189.019-.213.029-.108.017-.092-.06-.108-.082-.135.015-.081.017-.107-.012-.134-.107-.107-.1-.108-.07-.121.015-.067-.009-.066-.092-.054-.1-.148-.086-.147.027-.122.047-.147.046-.134,0-.148-.057-.135-.074-.027-.146.093-.055.095-.089v-.043l-.067-.215-.066-.055-.108-.189-.2-.074-.134-.036-.161-.022-.054-.043-.026-.091-.015-.1.028-.06.054-.081-.082-.07-.107-.021-.149-.052-.067-.06-.092-.218-.082-.165-.013-.166-.215-.126-.256.088-.293.1-.242.034-.632-.242-.3-.1-.363-.061-.443-.079-.3-.361-.657-.374-.5-.009-.36.076-.391.156-.174.055-.215-.053-.093-.146-.526-.612-.214-.285-.188-.223-.228-.116-.108-.073-.148-.138-.4.1-.161.018-.148-.122-.1-.163-.093-.17-.161-.132-.107-.083-.455-.34-.148-.284-.094-.2-.094-.187-.161-.126-.43-.333-.04-.282-.014-.232-.094-.5-.107-.232-.081-.257-.47.11-.148-.019-.188-.116-.256-.11-.323.1-.175.11-.106.031h-.269l-.094-.049-.133.128-.054.263.054.294-.187.239-.618.012-.591-.019-.4.031-.323-.019-.349-.029-.484-.031h-.336l-.322.048-.108.215-.629,1.4-.2.415-.619-.005-.5-.122-.054-.129-.187-.38-.095-.367-.081-.306-.122-.269-.134-.165-.47-.074-.418-.019-.521.036-.349.006-.807-.012-.35.263-.43.257-.229-.41-.24-.325-.417-.458-.418-.313-.2-.189-.442-.22-.187-.019-.619.074-.644.031-.2.134-.913.838-.927.081-.441.012-.766.084-.873-.067-.593-.2-.778-.4-.831-.385-.6-.289-.416-.263-.43-.049-.229-.062-.243-.067L2347.4,716l-.443-.606-.444-.428-.265-.594-.23-.967-.927-.563-1.25-.636-.7-.227-.8-.141-.767.134-.363.124-.269.257-.27.232-.307.135-.405.074-.522.007-.576-.11-.779.238-.457.4-.43.421-.391.288-.389.141-1.048.777-.521.526-.3.331-.336.49-.335.68-.269,1.18-.134,1.1-.082.673-.536,1.067-.727,1.01-.416.8-.9,1.029-.43.832-.2.636-.647-.1-.107-.38.067-.362.026-.294v-.293l.014-.514-.269-.184-.363.031-.255.06-.284.215-.079-.129-.255-.031-.35.013.028.319-.016.2-.051.078-.362.263-.2.393-.175.129-.228-.179-.134.055-.136-.012-.161-.127-.215-.124-.053-.171-.162-.2-.147-.091-.161-.141-.041-.117-.229-.122-.2-.141h-.134l-.2.006-.174-.086-.162-.11-.066-.019-.229-.005-.215-.05-.189-.055-.387.153-.791.111-.31.27-.43-.062-.243-.123-.241-.165-.2-.264-.268-.257-.4-.417-.5-.289-.014-.513-.225-.907-.485-.508-.846-.122-.551-.062-.323-.453-.054-.576-.215-.226-.391-.043-.536-.184-.321-.18-.429-.288-.243-.146-.241-.134-.191-.15-.174-.143.04-.194.242-.406.578-.97.469-.718.458-.843.241-.614.147-.873.23-.623-.149-.422-.256-.357-.187-.576-.363-.08-.4-.244-.71.084-.487-.057-.564-.225-1.049-.592-.631-.4-.428.09-.094.016-.283.171-.294.186-.336.144-.282-.022-.336-.005-.323-.063-.377-.016.041-.208.081-.187-.108-.058-.349-.091.107-.068h.228l.176-.07.107-.133-.028-.23.135-.148-.081-.266.094-.15.068-.171.067-.187-.041-.17-.027-.149-.162-.07v-.122l.255-.155.012-.278.055-.217.3.089.375.246h.3l.631-.143.148-.2.241-.246.067-.251.228.357-.054.3.4.353.456-.3.174-.124v-.581l-.282-.167-.321-.2.469-.378.444-.435.537-.571.229-.479.161-.044.592-.092.765.315.578-1.065.523-1.786-1.584-.839-.617-.409-.391-.313-.43-.183-1.156-.2-.119-.8-.041-.876-.067-.713-.338-1.4,1.009-.233,1.008-.38.5-.5.712-.133.683-.252.431-.049.377-.235.712.188.268-.133.309-.28.645.04.524-.138-.134-.455-2.243-1.832-.753-.57-.2-.631-1.072.16-1.292-.093-1.129.5-.417.235-.414.543-1.533-.3.2-1.715.175-.528.2-.479-2.405.137.148-.638-.415-1.912.131-.963.15-.462.551-.847.632-.226.47.192,1.237-.556.416-.021.508-.607.177-.1.2-.038.578-.911.47-.11-.308-.556-.337-.556-.388-.483-.618-.608-.631-.985-.176-.672.176-.079,1.342-.165,1.289-.789.82-.72.511-.412.577.33.214,1.69,1.009.457.389-.614.443-.007,1.1.18.281-.1.6.169.082-.138.416-.03.43.043.712-.355.632-.551.658-1.008.563-1.227.39-1.017.161-.442.2-.5.309-.986.027-.321.189-.748.174-.526-1.518-.668-1.29-.472-.537-.153-.295-1.079.054-.418-.768-1.025-.846.666.2.818-.534,1.007.8.106-.026.541.215.81.4.6.269.169.134.094-.39,1.172-.738,1.12-.31.465-.266.793-.847-.367-.792-.971-.284-1.543-.389-1.208-.067-.8-.267-.581-.082-.424-.846.177-.483.029.51-1.646-.08-.587.093-.918.376-1.723.041-.2h.188l.269-.526-.2-2.523-1.423-.065-.052-1.387.052-.388,1.666.407,1.571-.2.417-1.127-.484-.33-.376-.151-.51.042-.39.092V655.94l.928-.646,1.087-.193.617.194.51-.674.523.169,1.183-.495-.644-.123-.78.134-.242.005-.282-.044-.362.094-.43.019-.834.009-.779-.039-.4-.792-.108-.646-.188-.457-.081-1.08-.671-1.322-.59-.036-.726-.153-.054-.19-.148-.191-.148-1.2v-.093l-.026-.815.082-.606.133-1.144.134-1.053.228-.146.31-.356.71-.1.31-.062-.029-1.762-1.274.018-.471-.018-1.356.159-.78.062-.363.036-.04-.114-.08-.069-.241-.013-.121-.287.04-.16.189-.03.08-.289-.108-.305.094-.294.265-.11.177-.177.3.036.256.018.161-.078.187.175.081.026.161-.059.028-.276-.189-.144-.188-.086.015-.085-.04-.123-.094-.1-.014-.076-.012-.078.012-.34v-.144l.163-.251.025-.165.134-.043.418.1.187-.069.162-.128.228-.138.095-.175.055-.181.228-.112.323-.017.174.027.188.035.188.012.175-.017.136-.06.144.031.215.058.122-.027.1-.059.016-.041.067-.049.107-.017.215.043.041.014.067.129.107.137.027.071-.067.027-.04.078-.013.062.067.116.093.011.256-.025.135.071.108.04.094.032.147.051.041.3.013.132.054.106.069.07.051.065.31-.254.134.082.055.23v.154l-.107.177-.014.02.053.041.055.005.04-.03.08-.061.067-.047.108-.039.081-.026.107.032.081.09.082-.005.053-.008.04-.047.041-.071.041-.044.026-.058.068-.032.054.035.039.082.027.057.079.054.053-.042.081-.054.067-.125.041-.015.067.005.041-.031.052-.109v-.114l.015-.114.013-.221.188-.07.122-.165v-.182l.188.105.188.083.094.012-.08.142.121.142.079-.115.055-.056-.014-.215.014-.157.04-.225.149.05.133.02.095-.03.148.078.067.005.08.034.082.036.093.088.134.056.135-.059-.015-.06.391-.161.228.055v.136l.162.218.041.03.133.019.08.034.015.127.12.012v-.108l.081-.062.133-.106.108-.2.04-.046.108.005.039.074.068.108.08.039.095,0,.039.062.016.077.013.122-.028.079v.086l.069.052.067-.033.053-.11.1.039.053.071.122.027.12.034.054-.039.095-.057.04.057.053.132.135.043.094.022.054.021.092.036.1-.015.094.022.108.076.134.049.12.058.108-.039v-.1l.161-.116.108-.055.095-.038.054-.034.134-.127.15-.216.174-.174.253-.243.069-.066.173.039.08-.206.081-.273h.041l.362.079.294.107.593.136.054-.091.04-.047.2-.006.012-.12.147.009.055-.2.081,0,.066-.132v-.043l.094-.156.08.019.135.114.042-.078.092-.019v-.1l.123.013v-.058l.2-.03.754-.005,1.353-.311.405-.066,1.248-.2.282.054.458.116.12.022-.214,1.563-.055.742-.793.9-.12.377-.07.459-.147.924-.054-.044-.445-.343-.442-.343-.5-.325-.539-.307-.068.237-.562.405-.149-.069-.147-.037v.1l-.079.226-.31.193-.027-.03-.08-.018h-.134l-.1-.03-.107,0-.013-.046-.108-.025v-.061l-.04-.008.013-.286-.054-.007-.093-.044-.163-.006-.093.219v.025l-.066.015-.028.142-.228-.08-.2-.068-.135-.074-.119,0-.028.145h-.149v.114l.081.13.013.076-.095.185.177-.027.3.043-.054.51-.08.151-.215.007-.215-.16-.079.051-.055.106-.106.036-.028.074.054.177.053.127v.081l.083.067.105,0,.014.091.134-.048.08.014.041.05.014.251-.04.089.146.113.041-.081.053-.242.121-.23.028-.024.106-.124.094-.038.027.114.067,0,.054-.051.148.04v.044l-.082.04-.134.005.108.157.079.055.1-.015.04.039-.026.088.16.028.081.081.175.044.3-.073.052.14.108.073.067,0,.068.036.079-.04.041-.1.04.058-.012.11.2-.023.026.118.082.1-.123.009-.026.1-.16.02.067.188.093.011.283.032.133-.074.1.156.136.021.04-.122.188.043.16-.111.107.106.095-.094.122.05.026-.1.055-.019-.014.123.148.045.052-.163.108.066.189-.1.3-.087.051-.019.042-.135.175.091.067-.052.082,0,.121-.2.04-.114.082-.023.108.114.12.022.188-.137v-.048l-.485-.2-.013-.079-.243-.158-.159-.16.026-.378-.014-.06.121-.294.053-.063.309.165.055.037-.055.166.026.1-.079.2.524.194.938.332,1.264-.108,1.035-1.011.295-.825.081-.335-.081-.242-.026-1.356.35-.4.4-.228.59-.652.136-.175.053-.384-.012-.261-.766-.523-.792-.321-.43.024-.592-.034-.672-.311.053-.616-.146-1.165.013-.3.428.271.351.319.4.121.5.447.873.907.739.539.226.166.472.516.376.555.471.436.267.028.161-.082.108.064.726.382.484.342.415.236.079-.345-.4-.314-.282-.665-.176-.138-.12-.109-.108-.669-.067-.557.5-.156.175-.018.631.122.267.156.244.062h.215l.362.109.066.159.458.262.4.067.269-.039.39-2.431-.443.07.067-.461.389.035.8.024.2-1.389,1.546-.264.241.818-.067.627.471.321.51.44,1.127.46.431.111.215.153.255.022.351-.292.161-.067.483.021.35-.031.134-.346.08-.873.014-.627-.108-2.522.659-.049,1.421-.244,2.138-.2.778-.122.793-.124.968-.611.739-.319.618.269.8.466.589-.05-.469-1.3-.631-.931-.55-1.494-.416-1.322-.539-1.078,1.748.294,1.558.148.765,1.762.834.318,1.046.539,1.155.466,1.129.513.658.735.565.883.859.979.979.833,1.345,1.224.683.538.658.466.861-.2,1.061.661.431.024,1.367-2.056,2.071-.735,2.444-.735,1.17-.048,2.308.391,1.693.833,2.2,1.028.982.809.995.759.857.343,1.223.073.67,1.126.31,1.421-.484.906-1.006.244-1.491.368-.591.367-.563.955-.484,1.249-.269,1.616.217.612.348.221,1.559.71.8.318,1.183.563.66.907.268.759.147.612.23,1.3v1.249l.9.391" transform="translate(-2308.25 -624.04)"  stroke="#fff" stroke-linecap="square" stroke-linejoin="bevel" stroke-width="1" fill-rule="evenodd"/>
        <text id="talId355count" data-name="Arjuni Morgaon" transform="translate(43.414 48.621)" fill="#fff" font-size="10"  font-family="OpenSans-Bold, Open Sans" font-weight="700"><tspan x="-11.127" y="0"> </tspan><tspan x="-15.213" y="9"></tspan></text>
      </g>
      <g id="_358_Goregaon" data-name="358 Goregaon" transform="translate(2292.317 179.263)">
        <path id="talId358" fill="#7DB8EC" title="Goregaon"  data-name=" Goregaon" d="M2410.1,568.9l-.765.018-.565.246-.31.789-.321,1.346.014.68.214.49.416.276.7.306.389.783.646.655.807.783.307.729.27,1.415.7.96.323.7-.135,1.806-.241.3-.471.036-.95.27-.256.337.013,1.463-.147.507-.175.423-.068.624.054.875.243.582.146.435.094.441.175.337.176.128.485.093h.546l.592.055h.658l-.04.7.189,2.02.174,3.007.4,1.1-.805.967-.5,1.7.014,1.249-.189.52-.067.491-.243.721-.75.931-.432.282-.134.771-.136.245-.467.2-.525.038-1.1.539-.47.593-.267.551-.121,1.022.029.716-.256.864-.175.71-.617.862-.821,1.287-.539.728-.5.472-1.2.361-.643.287-.847.441-1.6,1.946-.282.9.015.624-.295.368-.536.4-.941.5-.282-.446.026-.748-.981-.03-.565.122-.577.256-.563.484-.752.435-.445.393-.791.158-.687.122-1.569.454-.874-.387-.943-.312-.589-.2-.494.19-.5.275-.362-.024-.3-.227-.2-.618-.04-3.858-.108-3.232-.012-3.722.228-.766-.025-1.616.107-.521-.16-.348-.311-.251-.269-.356.028-.238,1.316.017.594.387,6.136-.007.4-.062.429-.232.23-.544.121-.515.134-.521.054-1.695,1.557.024.726-.043.187-.323.269-.552v-.568l-.672-.741-.981-1.029-.738-.446-.7-.361-.35-.527-.861-2.173-.952-1.482-1.3-1.371-.3-.263-.323-.618-.187-.435-.431-.41-.457-.251-.645-.447-.442-.465-.241-.362-.149.446-.321.521-.242.637-.133.948-.3.467-.24.679.052,1.291-.309.361-.12.325-.189.508-.215.533-.483.336-.334-.263-.5-.477-.336-.392-1.115.342-.482.086-.216.331-.4.368-.5.073-.282-.165.162-.367.2-1.3-1.437-.213-.31-.907-.147-.287-.363-.423-.443-.2-.376-.031-.647.189-.644.553-.282.819-.2.373-.147.527-.269.282-.347.276-.389.184-.632-.11-1.262-.471-.27-.038-.4-.127-.429-.081-.483-.178-.431.055-.268.361-.444.294-.052-.393.026-.838-.389-.7-.432-1.181-.16-.674-.014-.917.121-1.268.255-.453.243-.38.389-.472.322-.441.309-.416-.053-.44h-.4l-.536.031-.592-.319-6.352.067-.808-.343v-1.2l.336-.074.35-.189.308-.38.081-.484.133-.27.1-.41-.3-.239-.336-.165-.552-.367-.846-.71-.39.227-.523.306-.941.336-.683.533-.2.508-.133.507-.013.515-.067.306-.136.287-.779.172-.672.184-.418.2-.077-.093-.469-.637-.245-.765-.227-.483.024-.269.189-.368-.04-.373.028-.819-.847-.294-.417-.276-.189-.337-.27-.031-.645.423-.3.307-.294-.074-.376-.447-.294-.373-.256.165-.419.3-.267-.006-.31-.257-.323-.478-.174-.374-.5.649-.216.2-.51.38-.536-.466-.214-.814-.98-.067-.391-.117-.283-.171-.336-.349-.832-.453-.215.3-.468.141-.645-.734-1.115-.142-.592.055-.39-.092-.1-.423-.093-.673-.336-.007-.7.026-.713-.2-1.061-.7-1.13-.79-.4-.33-1.5-.019-1.841.031-.763-.134-.564-.184-.943-.06-1.168-.019.094-.783.069-.577.118-.392.244-.795.134-.589.659-.587.632-.613.5-.551.6-.6.258-.367.081-.588-.041-1.077-.737-.7.134-.759.348-1.114.416-1.2.311-.65.092-.527-.966-.539,1.422-4.677,1.09-4.474.309-.895.35-1.113-.056-.612.056-.534.363-.721.067-.337.013-.5.013-.453-.469-.428-.565-.784-.525-.4-.107-.252-.026-.514.066-.393-.416-.409-.593-.392-.173-.256.134-.687.134-.519.244-.577.443-.042.363-.349.187-.4.256-.215.469-.225.511-.215.482-.086.5-.072.457-.142.389-.1,1.814-.055.658-.153.576-.252.376.313.552.165.549-.11.619-1.024.416-.929.321-.754.2-1.194-.122-.966-.158-.472-.174-.6V528.5l.468.172.229.367.269.3.2.055.242-.282.39-.146.752.091,1.171.14.359.147,3.091.062.619-.007.67.369,1.237.134-.149.563v.208l.376.136.659.324.7.227.845.1.536.22,1.2.618,1.023.319.8.233.781.159.321-.073.136-.472.067-.605.3-.521.254-.239.283-.079.725.055.445.545.521.141.6.117.336.225.78.129.525.141.671.3.671.7.564.331.591.276.147.336v.4l.04.282.175.238.24.11.269-.2.229-.416.3-.429.295-.3.418-.232.9-.773,1.558.024.485-.03,1.156.791.187.526.08.343.24.392.418.4.739.531.243.306.254.295.242.367.189.392.254.368.176.33.389-.086.51-.165.7-.061.227-.055,2.419.067.579-.22.213-.3-.067-.269-.229-.25-.107-.251-.067-.3-.053-.276-.107-.373.2.019.441.074.418.067.389-.148.31-.165.7.142.417.385.458.148.458-.361.363-.417.292-.392.189-.184.161-.563-.121-1.487-.334-.9-.254-1.1.118-.551.187-.539.108-.716.579-1.084.806-.563.363-.306.429-.172,2.175-.031.821-.33.926-.208.955-.654.389-1.06.308-.4-.281-.446.334-.423.053-.631.027-1.426.659-.031.3.172.364.562.468.417.821.464,1.262,1.482.093.759-.026.931.227.417.365.294,1.625,1.041,1.139.441.752.293.538.014.512.367.632.735.78.342.9.22.632.11h.941l.646-.17.618-.441.737-.624.7-.2.9.257.873.342.589.282.176.4-.093.612-.483,1.236.011,1.91.055.564.189.587-.029.356-1.384.024-1.033-.024-1.142.293-1.49,1.127-1.6,1.212-.817,1.555v3.808l-.646.575-.9.332-.55.158-1.181-.294-1.129-.586-1.075-.086-.847.4-1.382.539-.846.429-.712.613.161.637.605,1.015,1.438,1.91.71.8.711.563.726.881.323.552.054.47-.107.436-.321.38-1.266.4-1.18,1.3-.968,1.108-.563.931-.594,1.218-.2.373-.227.594.026.313.294.319.674.347.779.484.832.742.256.031.71.048.363-.268.576-.428.606-.515.336-.275.674-.136.884.68,2.03,2.063,1.718,1.1.3.165.6.079.537-.17.458-.411.376-.276.457-.251.349-.085.364.091.292.268.3.5-.067.5-.174.331-.363.441-.158.4-.165.423-.4.129-.712.96-.4.4-.281.575.323,1.036.093.429" transform="translate(-2332.96 -521.036)"  stroke="#fff" stroke-linecap="square" stroke-linejoin="bevel" stroke-width="1" fill-rule="evenodd"/>
        <text id="talId358count" transform="translate(36.281 38.896)" fill="#fff" font-size="10"  font-family="OpenSans-Bold, Open Sans" font-weight="700"><tspan x="-16.541" y="0"></tspan></text>
      </g>
      <g id="_356_Deori" data-name="356 Deori" transform="translate(2330.089 241.194)">
        <path id="talId356" fill="#7DB8EC" title="Deori"  data-name="Deori" d="M34.882,154.956h0l-2.713-.208H26.6l-.757-.487-2.43-2.192-3.1-2.552-2.2-2.271-1.5-1-.524-.289-.093-.023-.03-.017-.737-.182-1.059-.409L12.9,144.176l-1.112-.877-.444-1.543-.189-.709-.294-.771-.111,0-.013-.035-1.4-.06-.282-.013-.833-.238-.672-.05L6.9,140l-1.127.024-1.247-.743-1.168-.924-.914-.483-1.249-.9-.98-.452-.389-.294-.31-.366-.108-.785.136-.489.293-.459.58-.692.979-1.39,1.867-1.952,1.812-1.635.526-.445.361-.674.337-.532.39-.649.751-1.763.875-.991.965-1.562,1.463-1.5.739-.459,1.516-.612.526-.159.617-.2.525-.184.658-.239.551-.2.737-.381.079-.531.055-.307-.014-.38.347-.079.472-.005.873.067.456-.038.282.282.081.472.269.416h.362l.469-.09.3-.192.027-.3v-.337l.068-.263.551-.06.133-.644.792-.808.2-.115-.079-.423-.459-.22-.71.081-.405-.258-.133-.342.147-.337.284-.1.47-.135-.376-.184-.59.085-.442-.814-.3-.57-.471-.464-.563-.894.053-.575-.673-1.029-.538-.77-.576-.411L15.8,107.6l-.915-.019-.629-.074-.068-.293.577-1.543.053-.864.067-.543.617-.73.7-.612-.1-.045.462-.117.175-.636-.04-.245-.565-.734.242-.319.739-.464.162-.809-.216-.783-.322-.319.242-.784.4-.538-.941-.2-.725-3.281-.108-1.125.026-1.249.472-1.321,1.048-1.666,1.248-.66,4.726-2.474L24.6,84.4l.941-1.1.656-.954.563-.808L27,80.41l.323-2.571.751-5.729.538-.93.324-.858.778-.93.831-.882.967-1.663L31.7,62.88l-.094-6.047L30.8,55.805l-1.087-1.4-.336-.832-.122-1.053.1-1.175.387-1.2.323-1.077-.363-.514.24-6.683-.588-1.3-.122-1.2.094-.809.5-.906.387-1-.2-.441-.777-.978L27.59,33.667l.941-.5.538-.4.294-.368-.013-.625.282-.9,1.6-1.945.845-.441.645-.287,1.193-.362.5-.471.539-.728.82-1.286.617-.862.174-.71.257-.864-.028-.715.122-1.022.268-.551.469-.593,1.1-.538.522-.038.472-.2.134-.243.136-.771.429-.282.75-.931.24-.721.069-.491.188-.52-.014-1.248.5-1.7.8-.967-.4-1.1L42.4,7.288l-.186-2.02.041-.7.671-.05.94-.287.539-.141.575-.2.737-.166.552.025.981.006.31-.46.026-.5.054-.735.013-.538L47.76.305l.538-.1.455-.317.536-.031.6.16.4.153.337.042,1.8.135,2.322.5,1.45.814L57.738,3.04,59.027,4l1.143,1.444.668,1.121.916.972.684,1.01.9,1.795.712,1.437,1.087,2.614.457,1.034.968,1.212L67,18.116l.672.464.508.227,1.142.232.432.214.294.607.174.6.122,1.03,1.84-.178,2.176-.092,1.062-.348.588-.068.9.307.3.58.134.331.3.569-.176.33-.266.68-.162,1.23-.2,1.084.067,1.2-.216.985-.175,1.053-.3,1.022-.7,1.805-.562,1.4-.861,1.836-.362.648-.537.808L72.4,38.6l.121.362.377.121.792.355.712.245.672.3.548.519.241.319-.053.343-.2.2-.279.122-.458.2-.483-.012-.455-.042-.364-.013-.484.037-.133.171-.027.275-.107,1.255-.2.514-.255.337-.269.275-.495.379-.51.747-.3.428-.215.441.038.305.486.545.2.3-.256.668-.093.337.133.212.389.264.309.338.551.329.267.392.095.349-.108.556.079.356.176.287-.093.7-.042.4v.417l.068.258.228.348.336.477.2.6-.148.441-.377.44-.2.52.214.441.161.177.161.355.067.373.08.319.094.354.391.349.429.4.337.361.135.428-.04.476-.082.374-.214.515-.281.423-.19.893.121.478.174,1.1-.349.288-.161.281.015.349v.625l-.284.906-.59.347-.39.209-.429.122-.3.092-.213.037-.483.05-.336.238-.122.289-.2.978-.2.4-.241.306-.471.368-.374.355-.271.331-.59.942-.431.471-.347.129-.3.085-.416.1-.294.043-.284.421-.013.263.161.32.215.434.39.362,1.664.96,1.41.742.74.653.752.747.28.508.013.5.013.551-.04.961.323.746.094.343.081.838-.054.4-.135.275-.175.4.094.508.456,1.726.3.815.551.727.283,1.157.523.96.31,1,.442.728.029.667v.534l.255.759.267.4.443.362.349.6.578.448.256.361.066.374V95.5l-.093.807.214.594.068.428.564.319.55.012.632.018.724-.006,1.262.093,1.479-.006,1.462-.08,1.828-.3,1.287-.055,1.814-.257.9.061,1.517.245,1.384-.043,1.128-.032.538-.153.925-.158L96.1,96.6l.993-.479.526-.207.335.246.337.208.495.116.335.049.47-.1.458-.16.593-.158.7-.307.1.374-.041.348-.148.269-.228.325-.241.147-.633.318.148,2.137.2.845.39.417.374.794,1.1,3.233.738,2.436.563,1.725.349,1.1.055.955-.267.883v1.737l-.243,1.237.04,1.26.3.674.135.881.068,2.412-.2,1.237-.188,1.3.215,1.553.242.955.228.564.174.5,1.1,1.4.094,1.064-.174.766-.187.324-2.8-.7-1.073-.336-1.289-.484-.577-.33-.753-.171-.764-.031h-.6l-.432-.19-.32-.411-.5-.3-.768-.283-1.246-.146-.579.06-.683.1-1.265.043-.739.342-.832.422-1.075.661-.953.373-.739.13-.8.153-1.264.312-1.075.121-.82.135-.75.067-1.168.116-.982.343-.536.3-1.584.564-1.129.189-1.236.024-.443.006-1.327-.391h-.767l-1.1-.233-.791-.221-1.345-.3-2.364-.275-1.489-.122-1.371.078-.74-.036-.508.307-.713.74-.617.954L61.47,133.2l-.536.981-.457.292-.55.136-1.452.373-2.078.189-1.359.085-.94-.189-.738-.417-1.075-.458-.308-.2-.658-.232-.741-.184L50,133.522l-.4.165-.35.238-.349.221-.59.1-.8.024-.968-.1-.429-.483-.471-.33-.67-.679-.617-.656-.819-1.065-.765-.532-.916-.025-.455.025-.857.153-.512.331-.134.7-.189,1.885-.255.624-.591.936-.874,1.3-.349.4-.282.349.175.49.43-.067.671.139.686,1.151.134.428-.188.33-.216.337-.361.483-.982.931-.175.643-.148.457-.347.711-1.009.979-.106.668-.094.864.079.592.765.931.311.63.174.924-.067.781-.107,1.569-.311.925-.59.954-.7,1.188-.5.819Z" transform="translate(0 0)"  stroke="#fff" stroke-linecap="square" stroke-linejoin="bevel" stroke-width="1"/>
        <text id="talId356count" transform="translate(30.51 103.965)" fill="#fff" font-size="10"  font-family="OpenSans-Bold, Open Sans" font-weight="700"><tspan x="-9.208" y="0"></tspan></text>
      </g>
    </g>
  </g>
</svg>
