<svg xmlns="http://www.w3.org/2000/svg" width="291.789" height="300.933" viewBox="0 0 291.789 300.933">
  <g id="Group_9" data-name="Group 9" transform="translate(-332.14 -815.297)">
    <g id="_160_Sengaon" data-name="160 Sengaon" transform="translate(333.029 816)">
      <path id="talId160" fill="#7DB8EC"  title="Sengaon" data-name="Sengaon" d="M1693.631,965.285l-.519,1.328-.194.625-.589.983-.742,1.136-.658.868-.658.7-.812.511-.6.2-.841.165-.924-.1-.756-.446-.308-.652v-.779l.365-.715.419-.523.6-.7.421-.511.363-.574.14-.714-.224-.6-.448-.484-.476-.294-.658-.5-.7-.231-.6-.025-1.624.459-.981.014-.728-.244-.518-.242L1681,963.6l-.2-.5-.1-.5-.026-.626-.029-.919-.153-1.557.014-.8.6-.614.646-.421.686-.434.6-.345.56-.319.433-.357.281-.307.252-.267.111-.575-.209-.708-.49-.774-.337-.53-.463-1.282-.559-.791-.7-.991-.239-.657-.308-1.435-.1-1.258-.25-.908-.294-.624-.238-.154-.435.014-.687.21-.9.894-.42.237-.448.115-.6-.064-.364-.063-1.191-.371-1.316-.159-.476-.16-.588-.32-.392-.19-.322-.141-.323-.064-.462.032-.28.089-.742.735-.295.42-.322.332-.07.217-.126.575.1.306.2.326.267.262.728.78.826.943.615.855.379.843.335.925.1.544-.027.643-.056.613-.433,1.047-.435.868-.365.281-.266.044-.307-.006-.308-.095-.491-.55-.237-.531-.281-.542-.364-1.078-.335-.646-.392-.382-.434-.242-.309-.019-.294.064-.267.082-.224.161-.307.3-.448.518-.687.99-.854,1.111-.391.344-.365.166-.378.1-.323.05-.349.07h-.239l-.364-.242-.421-.382-.63-.479-.3-.454-.069-.714.028-.708.084-.556.056-.689.295-.931.013-.415-.056-.345-.126-.377-.155-.484-.293-1.233-.266-.708-.1-.377-.111-.618-.071-.5.028-.676.378-1.168.35-1.3.125-.337.294-.543.21-.58.2-.327.364-.408.168-.44-.069-.542-.449-.651-.322-.421-.547-.951-.349-.575-.279-.351-.38-.16-.378-.019-.448.1-.322.223-.308.344-.181.269-.28.567-.352.531-.714.931-.77.606-.49.543-.113.236-.2.319v.454l.083.5.435.829.224.746.253.736.419.841.21.549.083,1.742-.111.619-.237.646-.714,1.008-.631.357-1.008.983-.406.217-.253.02-.5-.237-.573-.568-.267-.357-.406-.357-.476-.491-.337-.275-.461-.409-.533-.837-.265-.44-.071-.536-.042-.377-.015-.632-.013-.638-.126-.555-.364-.543-.643-.683-.534-.485-.489-.242-.422-.013-.433-.026-.407-.006-.406-.064-.391-.063-.281-.2-.2-.2-.113-.293-.028-.715.028-.325.168-.576.364-.669.406-.39.28-.344.252-.326.295-.861-.21-.754-.435-.466-.364-.248-.63-.589-.8-.619-.742-1.014-.322-.932-.433-1.143-.154-1.115-.112-.747-.393-.721-.476-1.162-.251-.594-.337-1.131-.546-.764-.294-.454-.56-.127-.615-.123-.448-.012-.379.064-.631.434-.63.5-.433.325-.406.282-1.33,1.225-.616.362-.728.4-1.26.268-.77-.025-.518-.2-.309-.305-.1-.517-.029-.925.029-1.283-.38-.4-.56-.223-.56-.077-.77-.21-.575-.275-.378-.486-.4-.427-.505-.211-.56-.307-1.177-.7-1.065-.063-.434.154-.461.159-.392.185-.883.319-.476.18-1.289.069-.742-.077-.588-.192-.295-.184-.252-.657-.056-.588-.366-2.094-.2-1.461-.49-2.176-.35-1-.868-.838-.616-.12-.476.134-.407.293-.238.415-.182.389-.085.351-.069.459.028.568-.1,2.087-.126.766-.167.474-.35.357-.392.16-.715.325-.448.115-.56.287-.56.237-.672.237-1.289.912-.644.141-.461.127-1.233-.077-.756-.389-.6-.319-.365-.294-.21-.395-.057-.332.168-.447.2-.237.448-.306.434-.2.531-.166,1.008-.154,1.15-.35.672-.352.461-.287.211-.307-.084-.421-.224-.3-.645-.282-.812-.332-.868-.427-.546-.345-.434-.281-.168-.363-.153-.458.014-.429.2-.542.35-.269.392-.235,1.022-.843.182-.447.043-.529-.181-.422-.349-.562-.8-1.135-.617-1.418-.307-.977-.253-.734-.28-.491-.532-.255-.421.057-.476.135-.476.261-1.416.867-.964.141-1.078-.2-1.332-.2-.91.14-.2.249-.21.472-.266,1.3-.239,1.059-.225.294-.546.191-.28-.115-.238-.167-.364-.287-.49-.409-.882-.637-.854-.243-1.119-.153-.687.032-.352.133-.686.27-.266.248-.5.5-.406.019-.364-.2-.266-.492-.237-.312-.307-.294-.3-.223-.322-.088-.42.032-.631.139-1.106.211-.868.216h-.49l-.434-.1-.364-.108-.351-.155-.377-.254-.756-.267-.631-.065-.043-.638-.125-.906.14-.779.491-.032.434-.095.253-.115.294-.325.237-.352.239-.639.167-.677.548-.472.2-.416-.057-.4-.222-.46-.071-.753-.1-.408-.21-.581-.071-.434.281-.127.6.356.364.1.5-.147.519-.275.63-.013.532.077,1.134-.1.379,1.112.252.307.5.293.939.064,2.576.594,2.213.575,1.974.7.49.09.294-.013.211-.294.083-.522.043-.377.056-.447.168-.286.461-.02.477.063.615.135.981.185,1.3.127.965-.058.617-.013.589.008,1.5.376,1.035.345.757-.1.744.018.5.1.687.3.421.293.363.39.252.274.294-.006.7-.274.379-.326,1.2-.536,1.149-.446.616-1.233.546-1.711.645-1.378.685-1.831.2-.529.266-.595.253-.466.239-.153.546-.09.643-.02.827.065.729.068.9.129,4.411,5.446,4.649,1.127,1.849-.987.951-2.28.546-.8.239-.568-.055-.441-.156-.53v-.35l.183-.4.713-1.008.253-.427.1-.491.35-.344.644-.327.785-.051.574.2.658.217.546.217.771.409.8.14.911.16,1.107.155,1.134.095,1.386-.185.785-.389,1.161-.218,2.367-.115.506-2.285.336-2.132.029-2.1-.337-1.825.478-1.2,1.077-2.744,1.051.4,2.142,1.111,1.317.549.672-.039.517-.817.532-.856.337-.97.42-1.059.14-2.63.209-1.507.14-1.889,1.653.69,2.225.255,3.292.459,3.108.422,3.109.192,1.288-.052,1.4-3.089,1.344-4.02.477-1.864,1.037-1.38.559-.23,1.373.014,1.988.306,3.486.486,1.22.28,1.988.474.028.918.379.369,1.078.077,1.918.242,2.647.485.5.588.365.383.7-.665.237-.407.224-.231.28-.448-.043-2.807,2.41-1.074,3.571-1.735.645-1.022,1.05-.447,1.428-.37,1.638-.74,1.232-.357.926-.307.489-.664.21-.306,1.624-.026,1.6-.089,1.19-.267.84-.741,2.227-2.029,1.219-.344,1.455-.242,1.974-.242.589-.281.659-2.183.307-1.4.043-.805.113-.625v-.358l.07-.242.321-.208.28-.118.336.063.322.141.21.248.1.2.49.517.574.619.686.8.589.8.7.664.756.418.7.387.475.192.672.076.616-.006.266-.176.336-.327.364-.525.309-.551.225-.429.2-.261.378-.14.461-.108.323-.055.448-.019.476.125.406.115.629.139.42.074.35.1.2.332-.015.322.155.788.182.242.561.658.322.352.378.362.322.224.42.118.462.064.421-.013.406-.1.336-.044.308.01.28.08.63.249.49.307.365.1.42.144.194.1.31.1.251.319.1.3-.055.354.028.713.042.331.043.433.041.214.056.234.167.184.238.066.449.166.7.214.322.166.155.125.14.143.084.156.043.193.056.3-.168.553-.168.463-.028.461.015.249.027.2.1.162.252.251.685.6.435.288.392.225.505.242.573.193.519.171.56.156.2.194.141.367.042.3-.183.6-.365.884-.153.549.071.361.223.5.519.706.8.846.9.8.433.419.393.484.111.514-.126,1.034-.181.76.153.379.126.22.238.07.308.033.351.045.687.4,1.021.449.28.028.238-.07.211-.137.307-.456.294-.373.392-.229.363-.409.687-.536.295-.182.265-.047.518-.016.546.118h.337l.377-.072.293-.115.225-.249.5-.387.546-.153.281.006.307.062.323.079.337.029.194.741.085.421.379.485.111.816-.071.779-.125,1.264-.057,2.271.014.652-.63.344-.616.217-.658.358-.659.69.168,1.289-.351.946-.782.242-.673.155-.237,2.13.112,5.029-1.863-.076-.855.141L1755,890.915l-2.031,2.642-.392.689-.588.2-.965-.446-.477.2-.559.3-.729.1-1.12-.076-1.023.383-.657.689-.631.677-.672.1-.981-.1-1.134-.191-.644-.282-.672-.357-.687-.626-.489-.422-.645-.165-.14.816.476.486.07.638-.042,1.469-.378.688-.8.46-2.52,1.43-2.814,1.519-.784.422-.784.217-.532.459-.238.549.238.637-.056.613-.378.74-.434,1.072.014,1.162v1.1l-.139.563-.07.637.182.689.405.6.546.281.842.025.98.038.56.37-.77,1.289-.743.766-.826.5-1.12.319-1.107.5-.924.447-.98.294h-.744l-.853-1.468-.575-1.073-.56-1.047-.238-.74-.014-.933-.041-.816-.2-.5-.7-1.084-.35-.588-.9.805-1.064,1.047.027.931-.07.614.029.919.363.576.518.1.5.524-.127,1.085-.1,1.659-.2.382-.994.051-.531.255-.21.574-.322.4h-.265l-.618-.409-.657-.612-.743-.536-.923-.332-1.5.422-.9.639-.225.726.295.575.252,1.416-.043.689-.056,1.008-.462.7.112,2.629.531.191.728.09,1.023.154,1.092.152,1.625.447,1.429.319,1.133.28.784.474.225.587v.537l-.363,1.149-.883,1.06-.448.779-.7-.026-.182.562-.6,1.021-1.637,1.94-2.047,2.069-1.246,1.34-1.7,1.213-1.512,1.174-1.3,1.25-.364-.037-.87-.008-.825-.045-.839.084-1.289.784-.265.1-.448.058-.394.2-.559.651-1.009.963.1.7.266.452.294.447-.126,1.054-.364,1.4-.266,1.175-.379,1.219-.264,1.7-.337.5-.42-.026-.742-.134-.924-.032-.714.038-.742.645-.5.454-.533.395-.322.224-.309.4-.364.645-.49.963-.266.479-.307.331-.378.229-.407.166-.517.187-.406.236-.35.638-.182.97-.224.669-.448.447-.489.766-.085.92-.014.779.266.836.043.625.881.663" transform="translate(-1580.059 -846.626)"  stroke="#fff" stroke-linecap="square" stroke-linejoin="bevel" stroke-width="1" fill-rule="evenodd"/>
      <text id="160" transform="translate(83.971 63)" fill="#fff" font-size="13"  font-family="OpenSans-Bold, Open Sans" font-weight="700"><tspan x="0" y="0"></tspan></text>
    </g>
    <g id="_158_Hingoli" data-name="158 Hingoli" transform="translate(463.389 824.379)">
      <path id="talId158" fill="#7DB8EC" title="Hingoli" data-name="Hingoli" d="M1673.22,938.963l1.3-1.251,1.512-1.175,1.695-1.212,1.247-1.34,2.045-2.069,1.638-1.94.6-1.021.182-.56.7.025.449-.779.881-1.06.365-1.148V924.9l-.224-.586-.783-.474-1.136-.28-1.427-.319-1.624-.448-1.093-.152-1.021-.154-.729-.09-.533-.191-.11-2.63.461-.7.057-1.008.043-.688-.253-1.418-.293-.574.222-.726.9-.639,1.5-.422.924.331.742.537.659.612.616.41H1683l.321-.4.209-.574.532-.255,1-.052.2-.382.1-1.66.125-1.085-.5-.523-.518-.1-.365-.575-.028-.918.071-.614-.028-.931,1.064-1.047.9-.8.352.587.7,1.085.2.5.041.817.015.933.238.739.56,1.047.575,1.074.854,1.467h.742l.979-.294.925-.447,1.107-.5,1.12-.319.825-.5.744-.767.771-1.289-.559-.371-.983-.037-.839-.025-.547-.281-.406-.6-.182-.689.069-.638.141-.562v-1.1l-.013-1.162.433-1.072.378-.74.057-.614-.238-.637.238-.549.531-.459.784-.218.784-.421,2.815-1.519,2.521-1.429.8-.46.379-.689.041-1.469-.07-.637-.476-.485.139-.817.644.166.491.422.687.625.672.357.644.282,1.136.19.979.1.672-.1.63-.676.658-.689,1.024-.382,1.119.076.73-.1.56-.306.475-.2.966.446.588-.2.393-.689,2.031-2.643,1.974-1.315.854-.141,1.862.076-.112-5.029.238-2.131.672-.154.784-.242.352-.945-.17-1.288.659-.691.658-.357.616-.217.63-.344-.014-.652.056-2.271.126-1.264.069-.778-.111-.818-.379-.484-.084-.421-.2-.741.518-.032.545-.041.546-.275.294-.227.084-.264.014-.2.069-.517-.126-.4-.07-.348-.042-.321.055-.444.225-.31.252-.207.293-.159,1.051-.93,1.217-.893.365-.333.854-.826.336-.227.644-.312.561-.231.434-.092.365,0,.223.077.336.1.841.272.56.164.393.056.321.022.2-.022.308-.056.5-.176.308-.178.378-.246.2-.23.1-.374.21-.7.21-.717.071-.474.111-.661.083-.229.128-.275.139-.3.07-.115.126-.21.168-.174.153-.1.294-.153.2-.141.28-.1.377-.107.364-.134.323-.123.434-.146.2-.076.392-.14.574-.2.615-.326.253-.161.209-.213.267-.376.2-.373.28-.262.211-.185.21-.132.294-.1.336-.013.154.01.266.031.225.043.294.175.295.2.14.25.141.332.25.561.21.377.855.983.532.567.35.354.377.456.351.649.112.429.027.317-.013.386-.182.262-.226.191-.252.074h-.405l-.322.055-.35.137-.224.238-.085.2-.028.262.084,1,.154.8-.014.361-.056.444-.2.746-.21.59-.112.823-.253.592-.279.309-.168.207-.055.38.141.757.154.358.307.74.42.588.3.239.322.131.336.05.518-.031.531-.1.589,0,.239.028.615.227.35.1.8.093.575.015.392.01.363-.075.6-.188.532-.087.49.022.42.042.448.15.181.274.239.357.155.279.069.213-.041.234-.028.207-.2.315-.07.518.07,1.611.1,1.5-.029,1.091.1,1,.168.37.266.364.251.182.364.287.687.552.238.444.071.409.014.179-.127.36-.952.7-1.119.866-.561.58-.251.368-.043.26.083.524.2.571.253.556.238.05.35-.025.266-.057.293-.332.224-.275.743-.179.463-.032.362-.083.365-.177.364-.4.42-.28.7-.638.379-.676.419-.536.281-.147.448-.039.336.02.406.377.77.5.617.352.336.1.2-.057.336-.179.28-.39.267-.414.1-.714-.057-.99-.07-1.762.014-.6.013-.746.042-.55.182-.371.281-.235.377-.114.392.045.532.172.519.146.42.167.489.209.6.634.182.356.085,1.833.055.344.1.3.225.279.309.175.362.156.393.142.7.189.364.026.251-.012.378-.067.254-.135.518-.258.378-.249.685-.549.645-.7.491-.562.42-.379.377-.29.281-.192.323-.112.476-.06.365.044.21.08.167.141.127.214.054.191.071.453.014.312-.056.349-.266.516-.337.38-.167.278-.056.219.013.195.055.222.1.218.309.673.293,1.031-.026.68-.072.3-.138.134-.168.061-.251.012-.308-.095-.422-.09-.476-.06L1778,883l-.98-.223-.672-.129-.532.017-.519.229-.182.112-.153.233-.058.462v.313l-.013.315.169.616.294.792.211.5.2.223.308.115.365.08.391.057.771.157.77.112.559.038,1.037-.167.365-.321.406-.38.629-.534.813-.6.322-.242.657-.061.533.077.336.16.21.15.308.2.181.182.267.334.462,1.021.407.624.35.392.448.387.616.264.658.083.406-.01.658.042.4.032.337.01.281.075.2.135.2.227.2.223.056.234.043.28.029.434-.323.693-.125.677.041.292v.285l.2.526.264.287.309.179.266.12.435.112.351-.015.323.035.8,0,.659-.019.463-.016.252.04.279.157.2.2.238.338.1.539.112.341v.237l-.1.229-.2.162-.293.179-.406.15-.855.319-.195.242-.267.207-.266.162-.168.186-.112.383.2.648.406.347.406.351.463.741.392.69.224.385.14.722-.167.316-.292.057-.336-.007-.491-.073-.742-.14-.812-.134-.911-.127-.911.092-.448.182-.393.217-.293.312-.07.269-.014.791.154.427.168.326.35.664.223.293.21.147.489.182.337.1.365.207.2.3.365.6.294.364.182.267.364.3.363.125.211.02.546,0,.253-.24.35-.306.39-.427.378-.372.477-.711.6-.4.474-.1.337.047.559.088.436.142.74.454.462.229.519.058,1.162-.125.716-.006.5-.115.5.172.491.382.267.511.183.587.28.849.071.53-.083.447-.267.152-.351.058-.589.02-.418.076-.224.261-.126.479-.547,2.393-.421,1.494-.826,2.419.168.766.448.484.252.244.994.2.7.134.659.217.421.217,2.073.249,1.147-.147.49.1.407.487.267.452.07.576-.1,1.275-.672,1.3-.365.2-.588.058-.5-.07h-.631l-.769-.007-.743.025-.994-.063-.474-.071-.211.116-.307.325-.142.631-.686,2.375-.435.752-.9-.632-.42-.292-.392.242-.559-.319-1.122-.983-1.134-2.516-.112-.894-.154-.255-.477-.409-1.036-.177-.139-.307.251-.511.322-.638-.043-.638-.364-1.328.113-1.966.042-1.162-.224-.6-.771-.484-.645-.461-.362-.651-.31-1.161-.1-.281h-.5l-1.078.039-1.443.37-.811.038-.5.74-.366,1.4.057,1.48-1.386.23-.42.039-.854-.127-.981-.4-1.289-.14-2.283,1.071-.757.6-.519.714-.376.894-.267.421-.407.013-.784.676-.043.639-.252.742-.644.306-.9.345-.63.5-.267.882.5.408.855.077.84.025-.14,1.086-.21.625-.378.549-.449.434-.168.933-.965,1.1-2.228,1.8-1.12.549.126,1.238-.156.574-.881.7-.981.868-1.708,1.506-.069,1.418-.141.573-.658.651.013,1.992.128,1.635-.35.472-.281.307-.139.51-.141.561-.784.5-.6.484-.953.473-.615.626-.182,1.327-4.285-.062-.295.408-.6,1.187-.589.038-.854.077-.616.128-.671.434-.6.958-.168,1.212.1,1.123.056,1.149.042,1.035.308.434,1.275.473.98.409,1.19.305,1.191.319,1.429.192.7.127-.267,1.392-.042.944-.448,1.774-.672,1.815v1.11l-.252.753-.91.562-1.177.651-1.414.346-1.246.587-1.36.152-.628.2-.281.511-.476.881-.518.689-.7.754-.5.956-.645.933-.812-.281-.266-.344-.2-.754-.364-.55-.966-.471-.631-.422-.307-.854.63-1.341.868-.639.309-.613v-.639l-.856-.638L1746.1,963l-.309-.474-.574-.766-.588-.28-1.01.307-.825.229-1.514.178-2.269-.817-1.75-.741-2.912-1.187-1.261-.957-.489-.18-.91-.536.027-.484.281-.484-.1-.588-2.843-1.735-.938-1.29-1.316-1.327-1.429-.741-.56-.077-.6.358-.421.919-1.009,1.839-1.065-.013-.951.076-.546,1.035.028,1.455-.785.115-.643.178-1.192,1.315-.224.881-.182.906-.266.5-.418.127-2.859.307-.21.663-.141.55-.238.51-.727.449-.687.369-1.2.893-1.289,1.29-1.694-2.273-.461-.319-1.121-.32-1.135-.14-.476-.319-.657-1.2-1.359-1.94-1.5-2.234-1.359-1.839-2.017-2.745-1.331-1.148-.434.165-.434.2-.56.281-.742.179-.8.064-.7.2-.868.293-.561-.039-.07-.535-.307-.612-.35-.728-.14-.856-.533-1.161-1.022-1.073-.265-.868v-1.008l.152-1.2.086-.894.336-1,.377-.841.112-1.15.014-.856-.672.013-1.107.6-.826.511-1.205.7-1.134.4-.812.2-.713-.05-.883-.23-.786-.127-.629-.012-1.008.063-.616.14-.784.142-.688.037-.614-.229-.786-.319-.728-.6-1.175-1.289-.981-.856" transform="translate(-1673.22 -852.68)"  stroke="#fff" stroke-linecap="square" stroke-linejoin="bevel" stroke-width="1" fill-rule="evenodd"/>
      <text id="158" transform="translate(44.613 69.621)" fill="#fff" font-size="13"  font-family="OpenSans-Bold, Open Sans" font-weight="700"><tspan x="0" y="0"></tspan></text>
    </g>
    <g id="_159_Kalamnuri" data-name="159 Kalamnuri" transform="translate(540.117 882.654)">
      <path id="talId159" fill="#7DB8EC" title="Kalamnuri" data-name="Kalamnuri" d="M1741.335,976.926l.408.294.586.255.378-.025.63-.294.5-.255.714-.421.73-.4.951-.23.967.1.855.269.77.23,1.358-1.175.069-.626.182-.956.323-1.749-1.163-.013-1.092.051-.7-.076-.575-.1-.994-.2-1.19-.2-.951-.242h-.869l-.98.242-.349-.179-1.107-.293-.477-.012-.405-.129-.336-.317-.533-.013-.336.357-.406.242-.448-.025-.113-.358.085-.575.239-.5.446-.549-.209-.574-.63-.166-.967-.09-.6-.292-.1-.511-.435-.844.057-.65-.784-.575-.784-.408-.575-.243-.084-1.059-.365-.754-.364-1.212-.141-.587.071-.434-.028-.651v-.689l.07-.88-.671-.025-.617-.422-.672-.2-.644-.587-.308-.792-.812-.957-1.135-.754.644-.932.5-.956.7-.754.518-.689.476-.881.281-.512.63-.2,1.359-.153,1.247-.586,1.414-.344,1.178-.652.909-.561.253-.753V945.6l.671-1.814.449-1.774.042-.944.265-1.391-.7-.128-1.429-.192-1.189-.319-1.19-.305-.981-.409-1.275-.472-.307-.434-.041-1.035-.057-1.149-.1-1.123.167-1.212.6-.958.672-.434.616-.128.853-.077.588-.038.6-1.188.293-.407,4.286.063.181-1.328.617-.624.951-.474.6-.484.785-.5.139-.561.14-.51.28-.306.35-.472-.126-1.634-.014-1.991.658-.651.141-.574.07-1.418,1.708-1.507.981-.867.882-.7.155-.574-.128-1.238,1.122-.549,2.227-1.8.966-1.1.169-.933.448-.434.377-.549.209-.625.142-1.085-.842-.025-.854-.077-.506-.409.267-.881.631-.5.9-.344.645-.307.252-.74.042-.639.785-.676.405-.013.266-.422.378-.893.518-.714.757-.6,2.283-1.071,1.289.14.979.4.855.128.419-.039,1.388-.23-.057-1.48.364-1.4.5-.74.813-.038,1.443-.369,1.078-.04h.5l.1.281.309,1.161.365.651.644.461.77.485.224.6-.042,1.162-.112,1.966.365,1.328.041.637-.322.638-.253.512.141.307,1.037.177.476.409.153.255.111.894,1.135,2.516,1.121.983.56.319.393-.242.419.292.9.632-.42.485-.168.275-.2.434-.056,1.537.223.716.392.434.35.522.252.479.2.659-.056.625-.127.568-.295.46-.181.434.379.676.685.23.77.185.729.089.561-.025,1.133-.256.365-.441.281-.484.056-.6.014-.3.183-.491.265-.255.7-.46.533-.811,1.427-1.078.715-.606.588-.186.448.071.588.332.322.382-.027.435-.126.389-.015.382v.434l.071.2.153.185.422.37,1.02.574.883.224.657.152.6.224.616.032.951.644.156.5.237.39.239.217.38.109.432.121.182.186.154.492.267.938.21.624.069.549.015.339v.37l.406.32.42.217.292.165.294.262.267.282.1.529.043.6.083.555.226.357.278.479.183.441.058.418-.1.269-.127.168-.21.125-.449.242-.783.721-.238.289-.083.28-.126.215.111.582.155.359.153.262.154.175.224.042.209-.006.294-.048.281-.041.293-.008.295.018.183.017.112.045.293.159.6.526.883.752.5.431.112.705-.056.3-.448.554-.406.179-.448.065h-.28l-.419.031-.379.032-.084.447.071.3.35.154.364.1.518.185.337.179.475.159.588.14.562.167.321.16.113.229.113.44-.056.652.027.344.84.147.239.485.07.536.028.773-.337,1.283-.126.582-.154.389-.448.809-.083.3-.126,1.111.195.377.377.325.365.122.322.478.028.4.014.485-.07,3.069-.336,1.283-.2,1.213-.168.652v.646l-.07,1.161.057.586.866.659,2.116,1.365,1.736,1.078-.083.486-.533.344-.657.512-2.241,1.837-1.708,1.512-.868,1.2-1.008,1.577-.758,1.1-.363,1.015.1,1.347.1,1.194.351.077.6-.147.812-.045.631-.107.532-.142.726-.1.281.141.126.332-.07.6-.407,1.507.029,3.529.125,2.565.379,1.29.616,1.174.533.855-.141,2.769-.294,1.789.1,1.186-.168.958-.056.7.14.409.239.8v1.11l.363,1.1.224.272.253-.158.14-.108.14-.06.518-.083.77-.143.266-.162.364-.288.434-.487.378-.386.349-.208.224-.115.309-.043-.07.791.294.294.265.2.182.421-.013.255-.267.165-.07.255.307.237.352.211-.1.325-.267.185-.349.255.056.363.167.4.085.421v.345l-.111.415-.239.439-.281,1.285.043.567.2.365.127.267.069.594.041,1.916-.1,1.238-.086.365-.573.025-.574.038-.911.064-.616.063-.881.377-.14.454-.126.421-.211.517-.083.478-.365.931-.167.619-.1.569.042.491-.126,1.1-.5.07-.449-.07-.476-.152-.9-.127-.658-.039h-.869l-1.484-.039-.547-.025-.306-.007-.153.543-.128.6-.209.491-.057.524-.2,1.181-.281,1.1-.21,1.175-.378.766-.8,1.1-.364.511-.434.657-.281.633-.308.338-.1.357.208.346.182.46.394.594.617.779.419.332.364.331.168.313.154.446.295.391.251.478.352.312.224.523-.015.44-.224,1.245-.125.4-.477.268-.588.217-.405.2-.365.243-1.134.562-.994.312-.827.051-.644.019-.756.077-.575.095-.7.04-.727.075-.757.1-.419,1.633-.14.581-.211.536-.251.37-.772.568-1.246.511-.7.542-.253.268-1.6,1.584-.742.5-.518.292-1.107.13-.463.209-.488,1.469-.183,1.111-.21.618-.112.207-.21.386-.309.32-.712.147-1.61.4-2.045.025-1.779-.37-.757-.4-.644-.421-1.078-.773-.659-.447-.433-.223-.028-1.672-.155-.359-.8-.153-.925-.191-1.12-.192-1.008-.344-.882-.186-.756-.139-2.339.05-1.47.287-2.088.026-.238-1.449-.252-1.353-1.792-.229-.812-.052h-1.107l-.56-.459-.686-.817-.687-.945-.519-1.737,1.682-.23.028-.509v-2.323l-.35-1.379.153-1.378.07-1.608-.476-2.2-1.288-.2-.168-.588-.238-3.779-.069-1.4-.464-1.4v-.945l.029-1.685.2-1.2.434-1.2.211-1.327-.954-2.094-.448-.587-.923-.791-.533-1.021-.028-.793-.083-1.174-1.71-1.278-1.064-1.2-1.555-.714-1.329-.357-1.512-.256-1.485-.127-.629-.664-.336-1.43.28-1.377.685-1.124,1.876-.97.5-1.9.35-.734,1.036-1.519.546-.454.449-.414-.113-.524-.195-.369-.631-.357-.573-.4-.659-1.13-.407-.676-.74-.313-.771-.165-.392-.422.071-.638.251-1,.169-1.429.083-1.034" transform="translate(-1727.781 -894.258)"  stroke="#fff" stroke-linecap="square" stroke-linejoin="bevel" stroke-width="1" fill-rule="evenodd"/>
      <text id="159" transform="translate(22.883 88.346)" fill="#fff" font-size="13"  font-family="OpenSans-Bold, Open Sans" font-weight="700"><tspan x="0" y="0"></tspan></text>
    </g>
    <g id="_157_Basmath" data-name="157 Basmath" transform="translate(444.844 961.686)">
      <path id="talId157" fill="#7DB8EC" title="Basmath" data-name="Basmath" d="M1768.5,954.33l-.085,1.034-.167,1.43-.253,1-.071.639.393.421.771.165.741.314.406.676.659,1.13.574.4.63.357.2.369.111.524-.448.415-.545.453-1.038,1.52-.349.734-.5,1.9-1.877.97-.685,1.123-.281,1.379.335,1.429.631.663,1.486.128,1.51.257,1.331.357,1.555.715,1.064,1.2,1.708,1.276.085,1.173.028.794.532,1.021.924.791.448.586.952,2.094-.209,1.327-.435,1.2-.2,1.2-.028,1.685v.945l.462,1.4.069,1.4.239,3.778.168.588,1.29.2.476,2.2-.07,1.608-.153,1.378.349,1.38v2.323l-.027.51-1.681.23.517,1.736.687.945.687.816.56.46h1.107l.812.052,1.793.23.252,1.352.238,1.449-.056,1.385.056,1.206.028.644v.824l-.084,2.048-.323.757-.084.63-.181.393-.211.083-.266-.042-.6-.182-.826-.224-.589-.07-.239.042-.868.882-.279.252-.435.014-.393.014-.461.084-.21.085-.5.28-.294.252-1.639.014-.5.014-.322.112-.043.379-.014.5-.015.421v.364l-.224,1.232-.323.056-1.077.028-.618.056-2.029.1-.925-.056-.448-.084-.35-.155-.295-.168-.7-.28-.685-.238-.883-.406-1.091-.378-.757-.182-.461-.084-.42-.014-.533.042-.211.293-.154.379-.307,1.274-.154.756-.028.7-.183,1.485-.07,1.106-.21,1.919-.209,1.247.042,1.763.1,1.961.043,1.624-.2.407-1.079-.113-1.961.042-1.456-.014-.337.5-.5.742-.938,1.428-.812.84-.952,1.415-1.2.994-.673.518-.013.616.042.588.042.812-.125,1.2-.632.07-.658-.056-.714-.042-.293-.028-.505.056-.1.252v.379l.056.546-.154,1.373-.671.238-.827.308-1.147.378-.771.6-.336.519-.294,1.161.014.771-.125.336-.477,1.5-.238,1.287.168,1.359.252.6.35.364.337.6.42,1.386.154.813.154.784-.562,1.54-.279.995-.294,1.092.027.476.154.631-.042.574-.083,1.5-.168.392-.127.434-.015.434.1.421.476.2.631.21.673.153.433.168,1.485.406.321.476-.014.826.083,1.134-.1,1.681.392,1.232.015.672v1.051l-.015.755-.21.477-.2.322-.251.294-.224,1.33-.168.336-.406.154-.463.043-.435.014-.433-.042-.364-.224-.365-.07-.281.015-.223.07-.141,1.5-.1.49-.365.364-.419.658-.421.182-.322-.421-.21-.181-.533-.238-.279-.056-.28-.014-.238.014-.182.112-.686.5-.323.322-.153.281-.181.322-.337.869.013.6.071,1.177.14.9.014.225.056.714.154.742.028,1.079-.056.546-.1.307-.434.91v.322l-.323.771-.153.392-.168.378-.127.266-.434.854-.209.253-.238.182-.35.238-.435.545-.589.295-.391.182-.5.251-.8.435-.42.308-.2.224-.154.322-.392.28-.49.364-.406.083-.225.014h-.309l-1.091-.237-.476-.406-.224-.294-.21-.308-.421-.5-.56-.379-.365-.28-.309-.126-.363-.084-.449-.014-.489.111-.434.154-.323.112-.784.448-.966.519-.812.448-.784.42-.588.322-.854.6-.616.253-.59.21-.713.168h-.644l-.309-.085-.407-.139-.39-.336-.421-.42-.476-.644-.168-.756-.028-1.036.125-1.051.126-.644.224-.784.364-.715.406-.5.392-.265.588-.238.714-.267.854-.154.687-.211.5-.322.363-.533.141-.531-.071-.532-.1-.406-.279-.645-.266-1.064-.28-.686.1-.546.1-.5.113-.379.141-.238.489-.91.293-.448.085-.238-.015-.224-.041-.365-.5-.966-.562-.56-.082-.406-.211-.952-.125-.434-.211-.21-.392-.182-.308-.168-.029-.406-.181-.391-.239-.28-.391-.2-.392-.015-.2-.013-.153-.448.153-.5.337-.461.419-.5.449-.391.573-.141,1.037-.294.812-.1,1.092-.462,1.05-.168.589-.112.56-.266h.575l.391-.042.211-.322-.127-.323-.546-.154-.392-.126-.295-.2-.181-.252-.476-.686-.266-.266-.84-.1-.812-.014-.91.07-.967.042-.9-.042-.7-.168.519-.882.349-.6.293-1.554.113-.9-.028-.532-.057-.322-.728-.028-.841-.056-.433-.029-1.12-.336-.2-.167-.029-.379-.209-.251-.267-.015h-.307l-.015-.658.028-.42-.071-.56-1.007-.35-.646-.2-.083-.35.168-.419.07-.49-.168-.378-.379-.154-.362-.07-.294-.686-1.429-.575-.909-.013-.574.013-.449.042-.994-.252-.77-.405-.686-.1-.715-.266-.5-.21-.505-.183-.742-.28-.883-.252-.684-.252-.491-.155-.8-.237-.253-.21.183-1.275v-1.162l.448-1.358.435-1.008.126-.434,1.329-.994.841-.9.35-.827.5-1.218.6-1.008.125-.588-.111-.322h-1.288l-.028-.659.028-1.667.056-.77-.1-.406-.462.042-.379.238-.56.322-.826.336-.491.113-.518.07-.629.014-1.247-.083-.98-.211-.7-.21-.533-.252-.74-.462-.743-.434-1.414-.434-.91-.168.07-1.974-.169-1.667.015-1.429-.141-.91.156-.687,1.022-.532.5-.238.951-.295.406-.168.308-.294.183-.393.154-.5.083-.826-.153-.392-.6.028-.618.168-.573.154-.84.168-1.777.252h-1.009l-1.176.14-1.024.141-1.526.126-.336-.015.085-1.316-.225-.42-.559-.112-.463-.112-.014-1.106-.364-.547-.281-.617-.279-.98-.071-.714.014-.728.267-.49.322-.294.2-.561-.743-.56-.6-.406-.8-.14-.393-.07-.727-.336-.2-.139.9-.673.491-1.259-.282-.337-.5-.069-2.086-.364-1.148-.042-.854-.029-1.778.043-.7.294-.7.364-.337.28-.517.308-1.177.2-.951.35-.379.266-.295.266-.252.6-.182.407-.267.336-.351.139-.306-.027-1.108-.042-1.862-.1-.169.91-.013.966-.084.84-.056.588-.881.155-.8.084-3.165.225-1.442-.141-.6-.462-.378-.532-.5-.855-.364-.49-.252-.321-.434-.182-.364-.168-.308-.126-.279-.14-.141-.238.028-.252-.028-.281.265-.686.3-.518.434-.56.435-.393.476-.616.322-.407.336-.433.281-.448.07-.35-.042-.644-.111-.9-.1-.952-.085-.574.058-.434.223-.686-.141-.374-.266-.3-.546-.562-.727-.708-.6-.746-.715-.839-.377-.654-.279-.791-.015-.521.224-.575.476-.673.407-.532.182-.444.251-1.018.043-.639-.2-.778-.267-1.283v-.871l.056-.269.014-.869.126-.337.28-.2.294-.233.517-.2.211-.066.391-.072.28-.255.406-.763.323-.8.21-.638.308-1.133.267-.862.279-.474.265-.279.855-.482.1-.558.069-.752.084-.843.1-.411.224-.339.337-.315.295-.185.266-.061.6-.138.629-.425.365-.456.1-.382-.084-.539-.125-.327-.323-.4-.252-.2-.113-.222-.015-.154,1.557.134.7.166.869.28.98.294,1.331.307,2.311.548.546-1.927.126-.906.168-1.073.21-.906.2-.753.364-.843h.825l1.458-.064,3.191-.127,3.333.536,1.037.076-.14.728-.211.395-.322.7-.154.778.7.128.938.153.966.217,1.2.1,1.541.282,1.695.409,1.47.37.645.242.531.267.674.244.378.178.084.548-.028.677-.337,1.023-.125.714,4.4.127.295-.7.2-.933.377-1.1.869-1.1.672-.588.463-.689.615-1.1,1.4-1.1,1.9-1.071.575-.2,1.008-.268.391-.127.589-.013.491.409.35.42,1.232.868.574.115h1.049l1.29-.038.9-.217.8-.217.715-.179.643-1.072.351-.614.252-.587.043-.958.252-.727h2.184l1.05-.728.729-.868.98-.854.5-.486.267-.447-.183-.625-.28-.42.168-.716.309-.307.573-.14.546.409.28.344.126.575-.028,2,.043.485.335.5.573.561.687.614.673.472.924.357.435-5.629.392-.191.812.14h.56l.98.114.435-.229.573-.741.477-.816.28-.791-.323-1.609.141-4.991-.379-.906-.49-1-.042-.639.195-.369.379-.6.616-.217.951-.177.925-.179.659.078.672.165h.995l1.932.1.6-.434,2.409-2.144,1.219-1.417,2.744-1.775.687-.625.519-.714.629-.728.546-.639.533-.5.658-.613.041-.714.154-.5.168-.178.938-.5.7-.587.6-.792.251-.511.1-.639.154-.42.363-.525.9-.65.253.1.644.141.924.154,1.149-.205.559-.179,1.751-.153.91-.242,1.192-.5,1.147-.218,1.708,1.06.658.421.336.484.294.485.238.536.378.651" transform="translate(-1659.95 -950.691)"  stroke="#fff" stroke-linecap="square" stroke-linejoin="bevel" stroke-width="1" fill-rule="evenodd"/>
      <text id="157" transform="translate(45.156 77.314)" fill="#fff" font-size="13"  font-family="OpenSans-Bold, Open Sans" font-weight="700"><tspan x="0" y="0"></tspan></text>
    </g>
    <g id="_156_Aundha_Nagnath" data-name="156 Aundha Nagnath" transform="translate(433.322 910.68)">
      <path id="talId156" fill="#7DB8EC" title="Aundha Nagnath" data-name="Aundha Nagnath" d="M1758.223,946.692l1.135.753.812.956.309.793.643.587.671.2.617.422.673.025-.071.881V952l.029.652-.071.435.14.587.363,1.213.365.753.083,1.059.575.244.784.407.786.576-.057.65.434.843.1.511.6.292.966.09.631.167.21.575-.448.548-.239.5-.084.574.112.359.449.025.406-.242.335-.357.533.012.335.318.408.129.475.013,1.107.293.35.179.981-.243h.869l.95.243,1.192.2.994.2.574.1.7.076,1.093-.05,1.162.013-.322,1.749-.182.956-.072.626-1.358,1.175-.77-.23-.853-.268-.967-.1-.952.229-.728.4-.714.422-.5.254-.631.294-.377.025-.589-.255-.406-.294-.378-.651-.238-.536-.293-.485-.337-.484-.657-.423-1.71-1.059-1.147.217-1.191.5-.911.242-1.751.152-.56.18-1.15.2-.923-.154-.645-.14-.251-.1-.9.651-.365.523-.154.42-.1.639-.253.51-.6.792-.7.587-.939.5-.168.177-.156.5-.039.714-.658.613-.533.5-.545.638-.63.729-.518.714-.687.625-2.744,1.774-1.22,1.417-2.408,2.144-.6.434-1.933-.1h-.994l-.672-.166-.657-.077-.926.179-.951.177-.617.217-.377.6-.2.369.043.639.491,1,.378.906-.14,4.991.321,1.609-.28.791-.476.816-.573.741-.434.229-.98-.115h-.561l-.812-.14-.393.19-.435,5.63-.923-.357-.672-.472-.687-.613-.574-.562-.337-.5-.041-.486.028-2-.126-.574-.281-.344-.546-.41-.573.141-.308.306-.168.716.28.42.183.625-.267.447-.5.486-.981.855-.729.868-1.05.728h-2.184l-.253.727-.042.958-.252.587-.349.613-.645,1.071-.713.179-.8.218-.9.217-1.29.039H1716.8l-.574-.115-1.232-.868-.35-.42-.492-.409-.586.013-.392.127-1.009.269-.574.2-1.9,1.071-1.4,1.1-.616,1.1-.462.689-.672.589-.869,1.1-.377,1.1-.2.933-.294.7-4.4-.127.126-.714.337-1.022.028-.677-.083-.549-.378-.177-.672-.244-.533-.268-.645-.242-1.47-.37-1.694-.409-1.542-.282-1.2-.1-.967-.217-.937-.152-.7-.127.155-.779.321-.7.211-.4.14-.728-1.038-.076-3.332-.536-3.192.128-1.457.064h-.827l-.363.841-.2.753-.211.906-.169,1.073-.126.906-.546,1.927-2.31-.547-1.331-.307-.98-.294-.868-.279-.7-.167-1.555-.135.07-.22.1-.15.194-.167.492-.277.378-.223.267-.184.139-.2.112-.294.07-.564.195-.45.252-.405.127-.431.057-.507-.043-.406-.126-.312-.24-.417-.292-.254-.181-.14-.113-.139-.21-.437-.14-.084-.84-.19-1.051.022-1.037.053-.46-.06-.9-.29-.812-.217-.447-.07-.434,0-.057,1.564-.14.866-.364.92-.322.727-.363.69-.491.23h-.869l-.826-.089-.755-.127-.659-.127-.588-.192-.335-.191-.968-.906-1.008-.511-.98-.344-.9-.217-.9-.166-.111-.843.294-.523.252-.319.8.014.532-.053.154-.409-.561-.024-.377-.166-.028-.588.28-.357.825-.038h.128l.644-.357.056-1.342,1.008-.051.181-.038.295-.741,1.835-.166.28-1.85-1.667-.167-1.205-.217-1.331-.523-.826-.178-1.2-.269.126-1.645-.224-1.073-.686-.575-.532-.383-.2-.587v-.664l-.252-.74-.393-.791-.8-1.61.322-.534.253-.665-.532-.472-.687.052.308-1.942-.014-1-1.5-.485.043-.881.364-.868.3-1.443.168-1,.238-1.647.378-1.276.364-.995.153-.257,5.238.4,1.469.357.911.065.336-.639-.126-.332-.406-.626.686-2.808-.322-.689-.393-.461.827-.969.7-.651.56-.728.784-1.864.112-5.284.785-.358.84-.23.687-.152.574-.192.462-.484.167-.421.127-.843.083-.256.954-.2.658-.28.392-.269.827-1.288.489-.5.854.05.391.167h.672l.756-.115.28-.523.07-1.263.042-.651.141-1,.392-.178.532-.191.4-.461-.181-.484-.406-.255-.434-.7-.406-.331-.756-.037-1.092-.255-.757-.229-.713-.18-.631-.217-.141-.077-.335-.6.028-.511.463-1.62.476-1.1.153-1.186-.672-1.75-.644-.829-.518-.4-1.051-.268-.728-.039-.6.128-.812.318-1.023.766-.883-.664-.041-.624-.266-.836.013-.779.084-.921.491-.765.448-.446.224-.67.182-.971.351-.639.406-.235.518-.186.407-.165.378-.23.309-.332.263-.479.492-.964.363-.645.309-.4.323-.223.533-.4.5-.454.742-.644.715-.039.923.032.744.134.419.025.337-.5.266-1.7.378-1.218.266-1.175.365-1.4.125-1.054-.293-.446-.267-.452-.1-.7,1.007-.963.56-.652.393-.2.449-.057.264-.1,1.289-.784.84-.084.826.045.868.007.364.037.981.857,1.177,1.289.728.6.785.319.616.23.687-.037.783-.142.617-.14,1.008-.063.629.013.785.126.882.23.715.05.812-.2,1.135-.395,1.2-.7.827-.511,1.107-.6.671-.013-.014.856-.112,1.15-.377.841-.336,1-.084.894-.155,1.2v1.008l.266.868,1.022,1.073.533,1.16.141.856.35.729.307.611.071.536.561.039.869-.293.7-.2.8-.065.743-.178.56-.281.435-.2.433-.165L1706,927.8l2.017,2.745,1.358,1.839,1.5,2.234,1.358,1.94.659,1.2.475.32,1.135.139,1.12.32.463.319,1.693,2.273,1.289-1.29,1.205-.893.685-.37.728-.448.237-.51.14-.549.21-.664,2.857-.306.42-.127.266-.5.182-.906.224-.881,1.19-1.315.644-.177.785-.115-.028-1.455.545-1.035.953-.075,1.064.012,1.007-1.839.422-.919.6-.359.56.077,1.428.741,1.318,1.327.937,1.29,2.844,1.735.1.589-.281.484-.028.485.911.536.489.18,1.262.957,2.911,1.187,1.751.741,2.269.816,1.512-.178.827-.229,1.007-.307.589.28.575.766.308.473.938.791.855.638v.638l-.309.614-.87.639-.627,1.341.307.854.629.421.967.472.365.549.2.754.265.344.812.282" transform="translate(-1651.75 -914.23)"  stroke="#fff" stroke-linecap="square" stroke-linejoin="bevel" stroke-width="1" fill-rule="evenodd"/>
      <text id="156" data-name="Aundha Nagnath" transform="translate(19.678 52.32)" fill="#fff" font-size="13"  font-family="OpenSans-Bold, Open Sans" font-weight="700"><tspan x="0" y="0"> </tspan></text>
    </g>
  </g>
</svg>
