<svg xmlns="http://www.w3.org/2000/svg" width="403.717" height="300.521" viewBox="0 0 403.717 300.521">
  <g id="_22_Jalgaon" data-name="22 Jalgaon" transform="translate(-2090.537 -222.456)">
    <g id="_251_Chalisgaon" data-name="251 Chalisgaon" transform="translate(2091.334 400.902)">
      <path id="talId251" fill="#7DB8EC" data-name="Chalisgaon Taluka" title="Chalisgaon Taluka" d="M1269,697.62l-2.988-.158-1.246-.041-.692.041-.242.684.577,1.378.219.589.4.851.15.831-.323,1.188.346,1.483.079,1.283.392.694.578.915.208.368.553.273,1.212.116.853.211.877.052,1.269.022,1.569.116.633.273.52.632.242,1.072.115.578.6.4.38.1.623.095,1.13.158h1.419l1.13.021,1.269.431-.173,3.207.23,1.263.393.637.047.446-.047.389.058.584.5.563.6.268.334.316.022.31-.1.436v.715l.127,1.1-.081,1.12.335,1.357.981,1.225.3.536.311.489.507,1.03.312.7v.268l-.138.51-.174.426-.069.621.15.483.289.652.011.405-.1.521.012.51.369.262.8-.252.588-.163.473-.179.519-.189.5-.142.9-.142.739-.094.935-.109.611.031.923.078.5.063.484.564.219.2.347.136.3.053.461.037,1.085.088.646.08.612.289.645,1.025.069.226.427,1.057.311.794.058.736-.162.867-.185.448-.046.42-.069.547.093.558.138.369.231.11.358.053.438.105.358.095.4.2.6.269.414.152.623-.115,2.573.289-.842.842-.358.777-.23.736-.023.758-.866,2.144.024,1.977v.9l-.024.9.069.757.358.209.842.232,1.627.578.068.783-.1.405.035.316.115.136.2.158.266.1.2.216-.069.273-.07.268-.219.074h-.116l-.149.062-.116.184-.08.163.046.21.289.285v.273l-.185.325-.2.394.024.273.114.469.22.846.162.637.068.573.151,1.209-.047.253-.2.226-.588.216-.565.142-.508.189-.3.089-1.119-.189-1.534-.1-.485.064-.254.127-.2.294-.358.294-.519.111-.969-.027-.5.052-.4.075-.173.131-.15.485-.047.5.07.426.011.289-.081.22-.311.121-.438.021-.543.121-.219.342-.034.214-.173.364-.68,1.182-.288.248-.37.215-.451.09h-.5l-.185.041-.185.164.208,1.088.565,2.182.462,1.4.219.173.415.1.265.09.323.153.023.184v.273l.115,1.109.128.279.091.337.047.368.07.773.184.541.277,1.11.231.773.588,2.36.4,1.583.242,1.172-.219.4-.474.222-.449.048-.508-.09-1.165-.068-1.408.358-.622.189-1,.3-.531.331-.38.32-.52.327-.242.237.011.183-.035.773-.207.279-.415.163-.37.079-.416.053-.437.042-1.154-.284-1.6-.142-.727-.136-.3-.09-2.077.263-.634.111-.669.041-.289.31-.242.421-.139.358-.242.662.034.637.1.378.173.568-.3,1.688v.415l.093.247.046.384.092.767-.138.269-.321.142-.358.068-.463-.031-.254-.1-.542-.142-1.431-.526-1.257-.7-.392-.474-.358-.24-.392-.19-.553-.127-.565-.231-.439-.253-.219-.473-.289-.505-1.3-1.272-1.742-.831-1.037-.62-.693-.463-.5-.284-.4-.179-.566-.052-.808.262-.518.306-.277.273-.324.274-.323.3-.356.442-.1.672-.231.873-.323,1.883.2,1.345.115.705-.023.642-.035.367-.173.516-.669.073-.4-.168-.45-.1-.658.031-1.049-.243-.635-.031-.426.173-.589.542-2.3,2.141-.784.861-1.407,1.615-.542.521-.312.325-.138.188-.046.259.115.216.115.278.947.826-.046.278-.254.258-.82.227-1.869.452-.3-.116-.807-.011-1.13-.131-.635-.11-.347-.462-.219-.322-.311-.2-.392-.126-.8-.189-.4.031-.243.216-.2.363-.2.157-.323.074-.7.037-1.166.011-.807.321h-1.016l-.657.063-.439.089-.15.058-.657.153-.254.011-.277-.274-.323-.39-.876-.473-.589-.152-.565-.047-.45-.079-.277-.032-.716-.015-1.061-.175-.623-.4-1.176-1.078-.888-.8.057-.52.15-.594.266-.511.276-.436.092-.73-.011-1.846-.323-.626-.034-1.867.08-.41,1.165-.037.416-.011.323-.173.312-1.331-.012-.619-.161-.432-.242-.526.115-.884.058-.594-.034-.642-.439-.136-.288-.063-.242-.142-.138-.216-.162-.442-.047-.562-.369-.784-.22-.6-.092-.39-.2-.457-.069-.8.036-.62.092-.358.092-.267.069-.274-.035-.226-.311-.421-.07-.378.15-.389-.023-.411-.241-.31-.381-.382-.208-.337-.323-.29.219-.752.3-.157.092-.131.046-.316-.034-.162-.046-.332-.139-.4-.011-.364v-.144l-.093-.163-.068-.224-.058-.136-.185-.23-.115-.154-.149-.094-.15-.027-.231.016-.253.023-.185,0h-.241l-.093-.037-.139-.127-.15-.2-.139-.313-.081-.347-.173-.434-.276-.329-.161-.131-.3-.237-.4-.14-.358-.165-.5-.248-.843-.441-.381-.143-.368-.315-.508-.195-.023-.237.243-.472.2-.368.1-.352.1-.236.208-.417.208-.1.381.016.566.037.38-.006h.358l.37-.1.15-.1.127-.185.058-.389-.034-.3-.07-.347-.15-.463-.276-.872-.255-.384-.346-.252-.3-.257-.242-.179-.243-.263-.265-.257-.83-.758-.323-.336-.254-.215-.462-.152-.381-.074-.333-.01-.185-.043-.3-.121-.081-.346-.059-.447v-.672l-.126-.6-.23-.468-.4-.178-1.258-.573-.668-.253-.323-.2-.3-.211-.3-.41-.138-.326-.2-.7-.172-.956-.139-1.772-.208-.874-.057-.746.116-.506V753.5l-.266-.3-.369-.22-.231-.21-.1-.516-.115-.4-.172-.4-.231-.09-1.05.489-.38.29-.808.357-.358.121-.265.094-.4.189-.565.346-.508.248-.185-.095-.264-.116-.242-.142-.127-.11-.127-.252.1-.416.3-.41.311-.484.277-.968.057-.778.335-.388.288-.2.692-.552.231-.594.15-.568.057-.62.046-1.021-.068-.388-.2-.626-.15-.316-.023-.614-.15-.274-.322-.242-.288.1-.311.173-.324.116-.473.037-.323.011-.23-.068-.093-.451-.034-.174-.474-1.541-1.014-2.408-.647-.726-.4-.684.1-.726.507-1.083,1.8.148,1.72-.116,1.453-.063,1.43-.042h1.419l.381-.883.266-1.262.369-1.482-.7-.179-.4-.137-.08-.274.1-.746-.15-1.23-.23-.82-.023-1.819-.046-.684.011-.683.334-.61.5-.368.219-.3.728-1.3.4-.609.75.294.6.041.3-.115.37-.368.219-1.02.289-2.744.149-1.913.012-1.021-.046-1.166-.162-1.083.08-.621.255-.757.058-.9.818.189.323.146.3.348.379.21.578.4.866-.21.31-.179.358-.464.138-.389.358-.273.381.232.241-.021.323-.053.289-.01.461.2.566.168.161-.137-.035-.44-.012-.505.07-.463,2.977.494.623-.115,1.672-.851.208-.053.933-.1.9-.064.565-.325.184-.473h2.5l1.489.095,1.072-.663.543-.726.589-.452.219-.81.058-.946.969.011,7.072-.179.565-2.113.819-1.041.668-.937-.127-1.682.646-1.041,1.107-.831,1.973-1.335-.634-1.4-.416-.977-.277-1.231-.127-.662.484-1.241.519-.389.208-.243.047-.263-.357-.179-.565-.314-.266-.064-.554-.537.15-.568h.358l.612.348.634.22.507-.02.911-.2.554-.358.6-.388.7-.768,1.337-.589.589-.273.566-.263.323-.557.264-.547.3-.2.635.389.265-.085.438.473.358.063.461-.273.669-.168,1.039.315.945.336.866.2.046.873-.069.337v.335l-.115.589.092.483.4.526.322.673-.069,1.4-.024.231-.022.641-.15.821-.67,1.388-.334,1.042v.516l.219.44.935.968.438.516-.08.6" transform="translate(-1207.85 -683.993)"  stroke="#fff" stroke-linecap="square" stroke-linejoin="bevel" stroke-width="1" fill-rule="evenodd"/>
      <text id="talId251count" transform="translate(22.677 69.519)" fill="#fff" font-size="10" font-family="OpenSans-SemiBold, Open Sans" font-weight="600"><tspan x="0" y="0"></tspan></text>
    </g>
    <g id="_248_Bhadgaon" data-name="248 Bhadgaon" transform="translate(2147.532 385.951)">
      <path id="talId248" fill="#7DB8EC" data-name="Bhadgaon Taluka" title="Bhadgaon Taluka" d="M1348.541,687.148l-.75.1-.519.446-.739.894-.875.853-2.239,1.651-.323.347-.495.063-.682-.095-.6-.358-.529-.179-.543.022-.659.1-.334.42-.069.652-.126.621-.069.579-.982,1.567-2.49,3.071-.323.714-.047,1.188.047.779-.058.767-.243.547-.426.747-.3.358-1.154.642-1.789.619-2.18-.4-.657.115-.739.169-.762.168-.4.21-.681.4-.635.441-.347.558-1.211,1.409-.2.715-.231.516-.229.388-.451.358-.461.168-.427.2-.6.42-.335.641-.242.958-.1.61.128,1.357-.313.6-.311.388-.5.337-.438.284-.37.388-1,.748-.52.5-.715.305-.589.147-.646.168-.4.22-2.711,1.356-.347.463-.3.474-.346.493-.531.284-.738.316-.612.179-.693.147-.91.557-.658.39-.173.295-.173.536-.358.284-.485-.084-.461-.021-.38.21-.52.284-.369.074-.841.253-.393.23-.982.937-.553.788.012.978.393,1.23.483.736-.715.232-.438-.1-.462-.19-1.038.052-.4.263-1.015.506-.485.2-.3.2-.437.253-.254-.084-.242-.22-.394-.053-.173.116-.23.221-.312.305-.311.326-.311.251-.277.137-.45.158-.484.126-.277.084-.37.21-.207.211-.057.625.138.594.092.173.207.164.254.115.438.179.346.352-.023.532-.346.757-.253.2-.2.2.2.448.345.372.2.253.023.32-.208.269-.218.342-.08,1.525-1.247-.059-.5.095-.057-.736-.312-.794-.426-1.057-.069-.226-.646-1.026-.611-.288-.646-.08-1.084-.089-.462-.037-.3-.053-.346-.136-.219-.2-.485-.563-.5-.063-.921-.078-.612-.031-.933.11-.74.1-.9.141-.5.142-.517.19-.473.178-.59.164-.8.252-.369-.262-.012-.51.1-.522-.011-.4-.288-.652-.15-.483.07-.62.172-.426.138-.51v-.268l-.311-.7-.508-1.03-.311-.489-.3-.536-.981-1.226-.334-1.356.081-1.121-.127-1.1v-.715l.1-.437-.023-.31-.334-.316-.6-.268-.5-.563-.057-.584.046-.389-.046-.446-.392-.637-.231-1.262.173-3.207-1.268-.432-1.131-.021h-1.419l-1.13-.158-.623-.095-.381-.1-.6-.4-.115-.578-.243-1.073-.519-.631-.635-.274-1.568-.115-1.27-.022-.876-.052-.854-.211-1.211-.116-.554-.273-.207-.368-.577-.915-.392-.694-.081-1.283-.346-1.482.323-1.188-.15-.831-.4-.851-.219-.59-.577-1.377.243-.684.692-.041,1.246.041,2.987.158.83.694.578.263.854.2.426-.116.566.179.346.294.807.052.4-.052,1.43-.473.566-.284.692-.053.553-.115,1.557-.8,1.442-.495,1.742-.652.658-.5.127-.758-.243-.568-.069-.663.23-.536.323-.421,1.4-.663.9-.2.819-.074.969-.169.853-.021.785-.084.438-.168.461-.3.346-.631.324-.789.785-.43,1.315.6.785.474.739.579.6.483.345.368.681-.074.508-.094H1289l.52-.052.439-.39.219-.673-.311-.536-.415-.337-.543-.409-.139-.536.022-.705.255-.515.438-.442.693-.137h.6l2.493-.168,3-.252,2,.052,1.408-1.029.611-1.157.646-.62.485-.117.668-.325.589-.779,1.684-2.123.681.273.889.4.334.284.888-.578.52-.884.1-.536.069-1.22.7-2.514.751-2.724.485-1.567,1.141-.251,1.154-.1,1.107-.115,1.108.021.853-.126.611-.148.657-.274.716-.609.115-.378.818-.273,1.247.356.61.421,1.086-.1.219.968v1.114l.183,1.514.358,3.365.254.274,1.81-.147,1.362-.021,1.58-.043.866.1.945.484,1.3.63,1.109.441,2.318,1.01.923-.883,2.445-.589,1.9-.484,1.418-.589,1.569-.862,1.661-.294.219,1.809.1,1.135.1.652.033,1.367.15.989.278.715.772.1,1.178.337,2.191,1.513.277.82" transform="translate(-1256.38 -671.04)"  stroke="#fff" stroke-linecap="square" stroke-linejoin="bevel" stroke-width="1" fill-rule="evenodd"/>
      <text id="talId248count" transform="translate(9.479 38.469)" fill="#fff" font-size="10" font-family="OpenSans-SemiBold, Open Sans" font-weight="600"><tspan x="0" y="0"></tspan></text>
    </g>
    <g id="_254_Erandol" data-name="254 Erandol" transform="translate(2208.26 330.403)">
      <path id="talId254" fill="#7DB8EC" data-name="Erandol Taluka" title="Erandol Taluka" d="M1313,646l.508-.064,1.258-.609.9-.695.807-1.3.485-1.073.231-.968.542-.989.485-.021,2.146.252,1.512-1.493,1.2-1.2.889-.4,1.2-.695.312-.44.4-1.031-.485-.294-.842.084-1.038-.148-.231-.693.15-1.009,1.684-.295,1.708-.5.968-.127.8-.357.692-2.271.057-1.747.658-1.072,1.027-.127,2.722.947,1.639.588,1.176.59,1.511.21,1.027.126v-.946l-.035-1.283.161-.863.889-.8.8-.715.151-.8,1.28-.232,1.684.19,1.511.147.993.4.38.862.716,1.03.519,1.01.3.82.542.505,1.28.21,1.119.063,1.141-.043.67-.126,2.583-.968,1.051-.4,1.6-.378,1.361-.274,1.349.252,2.3.379,1.534.315.842.169,1.466-.231.554-.61.485-1.157.691-.925.969-.611,2.5-.9,1.743-.105.969.127v.892l.762.8.415.421.553.515.161.389-.1.767-.058,1,.265,1.535.346.831-.034,1.746-.185.852-.427.557-1.129.031-.739.031-1.212.569-.633.672-.1.516-.288,1.334-.474,1.021-.507,1.524.034.558.208.693.138.705-.138.852-.035.81.416.9.115.473-.1.389-.427.306-.7.483-.993.536-1.118,1.188-1.57,1.5-.576.146-.751.179-.577.327-.3.357-.391.2h-.519l-.751.074-.564.23-.5.473v.884l.347,1.063.254,1.02.034.756-.253.621-.429.61-.738.693-.461.873-.126.81-.139.716-.15.389-1.188.82-.555.462-.83,1.421-.357.473-.394.642-.23.578-.092.758.034,1.071-.057,1.01-.451.663-.346.358-.565.251-.8.232-.739.21-.588.084-.334,1.241-.081,1.3-.219.631-.334.652-.692.547-1.176.736-.923.358-1.165,1.073-.1.8.1.841.254.989.3,1.24.207.968.047.736-.588.694-.358.925.161.547.785.5.265.842-.335.841-.484,1.157-.669.841-.866.694-.738.421-.715.274-.75.316-.911.463-.1.378-.034,1.535-.1.862-.241.863-.289.673-1.015.777-.946.526-1.339.1-.276-.82-2.192-1.514-1.176-.337-.773-.105-.277-.715-.15-.989-.035-1.367-.1-.652-.1-1.135-.219-1.809-1.661.294-1.568.862-1.419.589-1.9.483-2.446.59-.922.882-2.319-1.009-1.108-.442-1.3-.63-.947-.485-.865-.1-1.581.043-1.36.021-1.812.146-.254-.274-.358-3.365-.184-1.513v-1.115l-.22-.967-1.084.1-.612-.421-1.246-.357-.818.273-.4-1.22-.035-.925.184-1.178.3-1.914.692-2.5,1.176-3.26.843-1.977.254-1.431.645-1.094.682-1.094.438-1.177-.08-1.851.115-.61-.8-.062-.38-.59.2-1.135.289-.61.231-.925.935-.925.726-.379.843-.484.658-.967.254-.526-.093-1.85-.461-2.251-.312-.063-.946-.042-.992-.253-.75-.462-.4-.9" transform="translate(-1308.76 -623.165)"  stroke="#fff" stroke-linecap="square" stroke-linejoin="bevel" stroke-width="1" fill-rule="evenodd"/>
      <text id="talId254count" transform="translate(7.751 39.017)" fill="#fff" font-size="10"  font-family="OpenSans-SemiBold, Open Sans" font-weight="600"><tspan x="0" y="0"></tspan></text>
    </g>
    <g id="_258_Pachora" data-name="258 Pachora" transform="translate(2182.414 374.26)">
      <path id="talId258" fill="#7DB8EC" data-name="Pachora Taluka" title="Pachora Taluka" d="M1385.7,674.746l.427.557.38.5.231.494.139,1.083.185.336,1.039.158,1.084.3,1.061.357,1.6.463,2.251.695,2.26.589,1.074.294.91.274.1.536.058.652.057.5.241.569.255.283.507.231.312.094.333.894.278,1.115-.115.852-.08.882-.289.642-.277.673-.046.6-.772,1.924-.334,1.042-.265.767-.036,1.251.473,2.156.52,1.293.38.726.37.442.231.4-1.443.327-5.652,2.282-.346.021-.184-.547-.058-.673-.439-.326-.462-.169-.622-.1-1.835.631-1.016-.053-.934.263.138.948.046.767.4,1.988-.162.694-.15.852-.22.767-.887.925-.2.789v.852l.162.326,1.223.084.7.095.669.483.3,1-.15.642-.646.421-.819.231-1.108.327-1.8.326-.669-.053-.174.726-.034.767.023.958.011,1.776.958,1.167.554.758.45.682.185.631.057.445-.1.007-.162.268-.034.336-.046.416.011.31.093.279-.046.332-.369.472-.22.436-.1.258.012.383-.012.259-.012.273-.656.052-.8.058-.484-.037-.738.164-.185.173.081.189.092.283.22.689.081.4.023.462-.034.742.092.373.023.216.058.357.1.183.08.447.15,1.982.08.652.38.978.116.284.15.279-.012.231-.3.134-.161.016-.081-.008.024-.216-.1-.1-.161.062-.081.145-.058.212-.057.119-.231.008-.046-.03-.07-.181-.034-.068-.254-.171-.1-.108-.126-.095h-.1l-.012.1-.012.127-.115.037-.2.031-.126.068-.2.014-.081-.043-.255-.131-.2.108-.035.117.035.082.1.237.046.183.023.166.011.168.023.1-.069.049-.1.031-.047.074-.011.129v.113l-.023.074-.069.025-.058-.018-.068-.136-.081,0-.081.078-.057.105-.081.113-.3,0-.195-.061-.162-.066-.254-.09-.15-.066-.093-.026-.438-.055-.208.171-.046.234-.047.87-.115.415v.193l.046.139.059.276.114.193.127.135.035.142-.07.031-.449.121-.911.25-.347.069-.391.042-.254.019-.381,0-.093.126.046.222.057.157.059.156.034.109.024.122v.193l-.127.344-.023.276v.285l.069.262.057.2.047.362.023.189-.023.209-.011.16-.1.128-.173.066-.173.021-.208-.042-.092-.084-.173-.126-.208-.109-.4-.244-.22-.081-.068-.2-.023-.16-.046-.191-.185-.253-.07-.171-.242-.288-.242-.257-.1-.107-.2-.187-.358-.365-.081-.29-.243-1.172v-.2l-.034-.164-.07-.126-.242,0-.715.029-.808-.035-.427-.021-.461-.016-.543.018-.485.018-.127-.065-.057-.163-.012-.19-.011-.4.068-.271v-.181l-.012-.158-.172-.31-.139-.2-.392-.21-.369-.01-.45-.018-.4-.006-.058.446.093.169.08.166.046.246.057.519-.057.283-.034.169.057.147.08.139.058.074.034.121.047.665-.093.194-.1.263.069.14.1.21.046.148.023.7-.034.456.023.229-.034.938v.752l.069.292.115.276.1.187.162.174.242.294.081.292-.069.146-.219.193-.519.533-.4.2-.219.008-.185-.053-.2-.105-.138-.181-.139-.318-.369-.767-.161-1.021-.081-.521-.4-.818-.162-.411-.138-.271-.265-.654.011-.3.024-.261.023-.229v-.168l-.2-.007-.461.047-.415.1-.658.16-.369.1-.184.016-.427-.027-.288.053-.232.278-.011.189-.011.158-.08.123-.1.1-.035.172v.087l-.057.117-.116.078-.369.136-1.05-.015-.254.047-.253.136.093.334.092.186.15.158.173.24.289.362.046.237.023.132.034.195-.081.093.023.086.035.1-.035.095-.092.1-.126.116-.1.2-.035.158v.092l-.069.21.023.126.057.069.128.039.057.086.036.109.046.113.323.369.046.207.047.142.035.068-.024.308-.252-.242-.219-.071-.393-.1-.23-.107-.416-.059-.391,0-.278-.008-.288-.039-.416-.126-.208-.189-.045-.121-.058-.2-.047-.144-.128-.137-.172-.126-.069-.025-.035-.007-.312-.071-.243-.134-.161-.087-.115-.027-.185-.047-.034-.166-.046-.189-.093-.124-.242-.1-.22-.09-.219-.023-.427.023-.807.058-.624.066h-.161l-.253.016-.254-.115-.149-.339v-.271l-.046-.255-.127-.29-.116-.426-.079-.276-.254-.882-.093-.615.011-.884-.034-.864.034-.973L1350.8,737l-.046-1.511-.149-.816-.1-.212-.046-.242.022-.292.128-.082.183-.095.058-.447-.023-.828-.115-.368-.174-.607-.172-.812-.208-.634v-.971l-.115-.154-.265-.01-.358-.006-1.072.164-.705.042-.4.068-.369.057-.577.084-.888.095-.393.063-.4.021-.23.057-.127-.015-.115-.142-.185-.225-.08-.232.034-.289.046-.179-.011-.164-.173-.168.012-.194.1-.168v-.137l-.068-.183-.1-.163-.231-.442-.093-.306-.138-.309-.438-.81.069-.509-.081-.411-.173-.22-.324.062-.195.2-.2.348-.093.347-.1.526-.231.326-.485.126-.622-.031-1.373-.111-1.373-.226-.53-.052-.611-.289-.785-.016-1.2.08-1.557-.226-.576.1-.243.222-.15.425-.1.384.057.693.174.762.1.6.047.395-.024.374-.184.215-.4.047-.992-.069-.75-.078-.508.084-.646.105-.38.079-.519.041-.8.095-.4.431v.42l-.1.431-.185.3-.277.269-.391.147-.416.073-.542.011-.669-.031-.6.016-.161-.016-.52-.173-.4-.121-.427-.074-.3-.037-.52-.021-.426.058-.727.111-.392.147-.162.01-.183-.21-.151-.373-.3-.653-.092-.588-.139-.331-.2-.153-.277-.085-.277.027-.311.221-.162.216-.369.74-.069.29-.045.263-.047.168-.116.2-.4.652-.035.448-.173.3-.2.226-.081.394.011.973.081.458.058.289.046.368.046.4-.241.147-.416-.021-.369-.068-.254-.032-.438-.062-.519-.106h-.289l.127.5.173.494.2.416.161.31.059.237.149,1.078-.022.8-.185.064-.242-.048-.4-.043-.312-.015-.4-.005-.241.084-.3.136-.012.448.081.31.08.189.369,1.1.069.474-.057.257-.012.221.012.169v.127l.012.42-.149.232-.07.231-.83.258-.381.142-.426.115h-.276l-.415.095-.266.132-.265.409-.127,1.079-.184.709-.068.641-.046,1.252.011.467.427.374.174.374.08.395-.127.2-.22.105-.334-.031-.554-.194-.392-.2-.508-.189-.461-.4-.726-.194-.6-.08-.485-.027-.484.059.058.315.058.226.057.342.034.273-.081.584-.635.121-.392-.037-.393-.031-.473.015-.231.032-.127.263-.058.389.046,1.262-.08,1.182.2.321.23.411.035.357-.381.074-.622.026-.635.043-1.038-.053-.265.306-.151.268-.276.031-.45-.084-.462-.084-.542-.13-.346-.08-.657-.273-.081-.168-.611-.12-.68-.033-.589.047-.7.016-.842-.016-.3.142-.161.268-.138.325-.15.489-1.626-.578-.843-.232-.357-.21-.069-.756.023-.9V753l-.023-1.977.866-2.144.024-.758.229-.736.358-.777.842-.842-2.572-.288-.623.115-.416-.152-.6-.269-.4-.2-.357-.094-.439-.1-.358-.053-.231-.11-.138-.368-.092-.558.069-.547.046-.42.185-.448.162-.867.5-.095,1.245.059.081-1.525.22-.341.208-.269-.023-.321-.2-.253-.346-.372-.2-.448.2-.2.254-.2.345-.757.024-.532-.346-.352-.439-.179-.254-.116-.206-.164-.093-.173-.138-.594.058-.625.208-.211.369-.21.277-.084.485-.126.451-.158.276-.138.312-.251.312-.326.312-.3.231-.222.173-.115.391.053.242.22.254.084.439-.252.3-.2.484-.2,1.016-.506.4-.263,1.039-.052.461.189.439.105.714-.232-.484-.736-.392-1.23-.012-.978.555-.788.98-.937.392-.23.842-.253.368-.074.52-.284.381-.21.461.02.484.085.358-.284.174-.536.173-.294.658-.39.911-.557.693-.147.61-.178.738-.316.531-.284.346-.494.3-.474.346-.462,2.71-1.356.4-.22.645-.169.589-.146.716-.305.518-.5,1-.748.37-.388.437-.284.5-.337.312-.388.312-.6-.128-1.357.1-.61.242-.958.334-.641.6-.42.426-.2.461-.168.45-.358.23-.388.231-.516.2-.715,1.211-1.409.346-.558.634-.441.681-.4.4-.21.761-.169.738-.169.657-.115,2.18.4,1.789-.62,1.154-.641.3-.358.427-.747.242-.546.058-.767-.046-.779.046-1.188.323-.714,2.492-3.071.981-1.566.069-.579.127-.621.07-.652.334-.42.658-.105.542-.022.532.178.6.358.68.095.5-.062.325-.348,2.236-1.651.877-.852.738-.894.52-.447.749-.1,1.339-.1.945-.526,1.015-.777.289-.673.242-.863.1-.861.035-1.536.1-.378.911-.463.75-.316.715-.273.738-.421.866-.693.669-.841.484-1.157.336-.841-.266-.842-.785-.5-.161-.547.357-.925.589-.695-.046-.736-.208-.968-.3-1.24-.254-.989-.1-.841.1-.8,1.165-1.072.923-.358,1.177-.736.693-.547.334-.652.22-.631.08-1.3.334-1.242.588-.084.738-.21.8-.232.567-.252.345-.358.45-.663.381.222.208.325.023.3-.3.5-.231.483.115.715.335.158.668.115.669.168.762.253.934.126.622.074.082.378-.046.516-.277.473-.3.284.012.516.393-.095.738.116.9.042.6-.01.046.251.058.768.277.43.681.211.633-.073.716-.274.576-.01,1.212.241.83.316,1.9.946,1.073.442.865.421.624.831.288.179.784.851.427.579.322.851.693.515,1,1.083.415.106,1.362.315,2.585-.089.345-.053.346-.092.555-.26" transform="translate(-1286.46 -660.602)"  stroke="#fff" stroke-linecap="square" stroke-linejoin="bevel" stroke-width="1" fill-rule="evenodd"/>
      <text id="talId258count" transform="translate(50.598 50.159)" fill="#fff" font-size="10" font-family="OpenSans-SemiBold, Open Sans" font-weight="600"><tspan x="0" y="0"></tspan></text>
    </g>
    <g id="_256_Jamner" data-name="256 Jamner" transform="translate(2280.059 353.289)">
      <path id="talId256" fill="#7DB8EC" data-name="Jamner Taluka" title="Jamner Taluka" d="M1420.709,645.245l.773-.146.634.1.658.031.681-.325.911-.043.635-.042.588-.053.739-.483.334-.672.4-.526.67-.262.438-.126.992-.074,1.026.147.993.242.727.21.773.3.45.336.173.4.023.483.036.526-.047.662.554.81.415.777.254.452.057.484.07.5.345.212.531.02,1.154.011.623-.169.577-.357.46-.084.6.01.911.105,1.3.295.541.147.692.2.485.251.393.211.577.031.646.078,1.026.279.716.226,1.281.432.127.44-.127.358-.093.38-.023.682.012,1.172.589.715.7.516.335.1.681-.652.289-.81.266-.7.312-.641.508-.115.438.253,1.062.936,1.073.958.576.368.415.167.553.127.335-.179.945-.274.485.189,1.361.432,1.05.44.334.358.093.326.139.432.738.441.692.525.75.547.392.2.773.251,1.915.432.832.294.519.674.345.893v1l-.011.694.3.568.486.589.506.473.509-.084.691-.389.554-.348.473.021.254.368v.547l.2.442.183.6-.172.452-.231.609-.069.7.058,2.124.219.326,1.684.105.577-.189.611-.21.865-.032.6.221-.161.462-.128.358.416.431h.622l1.235.178.542.873.161.725.254.611.542.294.761.179,1.281.452,1.372.494,1.015.915.612.684.611.547.554.7.624.988.45.99-.4.188-.312.526-.128,1.862v.462l-.415.4-.531.326-.946.662-.172.861.035.642.069.379,1.938,2.313.945.779.924-.042.749-.315.623.21.323.089v.332l.092.341.553.021.277.016.266.21.045.205.024.226.046.442.047.558.161.146.335.053.23.142.046.21v1.162l-.115.721-.427,1.245-1.338.757-.843.111-.589.189-.5.037-.507.185-.208.52.058.379-.115,1-.243.857-.254.368-.231.473.082.709.091.253.15.337.115.183.162.342-.151.136-.091.147-.081.181-.057.216.092.158.416.066.184.086.068.085.163.1.311.191.231.213.069.157-.08.032-.127.01-.115.013-.173.094-.069.148v.195l.036.157-.012.316.058.2.323.677-.046.336-.3.788-.207.39-.3.973-.484.368-.161.3.1,1.208.3.29.185.257.127.279.278.205.426.1.5.031.127.279.22.578.116.373.126.274.173.405.116.162.161.279-.023.346v.279l.081.2.08,1.294.07.558.046.425.047.232-.058.241-.093.184-.473,1.141-.253.136-.3.032-.438.074-.427.089-.253.185-.22.315-.057.3-.116.347-.161.174-.323.131-.392.131-.484.053-.462.047-.322.11-.15.741-.161.385-.4.273-.519.016-.3-.057-.45-.253-.6-.185-.818-.163-.67-.068-.519.042-.3-.068-.22-.116-.381-.216-.508,0-.335.006-.887-.053-.324.032-.461.194-.219.252-.184.311-.092.452.173,1.231.093.488.034.489.012.579-.161.641-.254.453-.346.231-.4.178-.565.284-.542.174-.381.025-.75-.073-.38-.063-.451.063-.38.136-.347.137-.207.1-.5-.011-.161.216.058.1.1.183.139.232.069.294-.092.583.1.326.289.179.127.258-.035.258-.058.315-.058.515-.092.826-.046.573-.092.39v.441l-.554.227-.612.147-.819.131-2.123.3-1-.251-.335-.432-.242-.115-.53.041-.393.4-.438.4-.5.358-.461.189-.415.074-.635.031-.658.053-.554.01-.76.32-.231-1.593-.115-.9-.115-.28-.047-.321.023-.189v-.183l.035-.183-.011-.129-.012-.148-.058-.517-.058-.238-.035-.113-.012-.091.07-.09.068-.1.035-.084v-.115l-.012-.126.057-.276-.046-.132-.035-.158.012-.084.1-.062.035-.1-.012-.084-.058-.163-.149-.166-.323-.136-.416-.182-.415-.155-.946-.294-.046-.274-.277-.108-.577-.044-.865-.035-.185-.092-.035-.469.07-1.109-.138-1.1.046-1.01-.058-.332-.161-.251-.1-.384.034-.484-.126-.29-.37-.289-.4-.227-.565-.052-.473.015-.37-.01-.266-.015-.554-.016-.1.148-.1.389-.035.384-.035.547-.023.436-.023.405-.15.089-.439-.041-1.337-.331-.543-.131-.4-.021-.333-.069h-.451l-.358.116-.081.42-.092.448-.069.588.415.878.127.452.035.4.127.284.185.678v.773l.01.352.4.479-.484.01-.554.031-.347-.052-.369.015-.242.064-.462.242-.093.231.011.352.266.789.023.874v1.346l-.011.342-.254.347-.277.189-.4.294-.161.337.4.163.52.189.565.078.507.127.484.037.7.4.485.111.323.169.149.277-.149.295-.393.368-.356.179-1.062.416-1.558.9-.715.3-.531.115-.427.037-.473-.2-.739-.415-.83-.7-.391-.41-.507-.074-.5-.116-.334-.152-.2-.09-.264-.2-.139-.194-.151-.337-.312-.042-.253.11-.288.226-.253.368-.4.208-.172.184-.128.076-.139-.131-.15-.23-.15-.119-.322.023-.681.125-.911.146-.277-.015-.057-.135.046-.212.495-1,.4-1.472.138-.778.07-.641-.012-.473-.542-.367-.519-.169-.542-.095-.52-.031-.461.126-.415.242-.451.325-.415.642-.2.536-.127.4-.45.147-.969.053-2.284-.126-.127-1.062-.289-.768-.15-.567.069-.43.173-1.452.116-1.609.1-1.219.035-1.568-.162-.715-.38-.146-.3-.284-.415-.105-.715.105-.888.01-.381-.031-.739.021-.093.368-.219.483-.564.21-.484.074-1.7-.011-.128-.516-.057-.289-.278-.3-.161-.148-.127-.1-.093-.142-.138-.137-.334-.144-.127-.152-.046-.1-.034-.129-.047-.1-.069-.1-.093-.121-.057-.06-.08-.1-.069-.171-.184-.182-.149-.142-.208.129-.554.294-.208.171-.219.19-.38.273-.577.634-.116.123-.185-.084-.128-.071-.668-.223-.576-.04-.278.016-.324.037-.68-.01-.3-.253-.185-.31-.2-.284-.149-.216-.185-.315-.1-.358.012-.772.277-1.425.323-.894.161-.257.082-.111.334-.378.058-.652-.139-1.835.081-.894-.012-.978.1-.441.138-.358.185-.368.277-.516-.185-.226-.472-.079-.439-.141-1.845-.843-1.777-.368-1.154-.315-.75-.158-1.142-.227-.392-.068-.277-.064-.311-.068-.358-.068-.126.167.058.343-.139.31-.15-.022-.173-.109-.092-.058-.254.01-.254.058-.391.142-.231.216-.255.41-.38.515-.208.41-.115.363-.115.452-.115.626.1.384-.057.389.069.3.288.021.162-.031.323-.031.128.241.1.306.116.273.092.289.115.306.139.415-.092.252-.139.2-.185.32.047.652v1.12l.208.463.184.5-.069.273-.046.247-.035.284-.082.332-.068.173-.45.042-.427-.042-.426-.057-.485-.011-.415.062-.277.1-.358.831-.057.509-.058.259-.219.21-.185-.016-.323-.068-.368-.121-1.5.31-.8-.031-.543-.01-.369-.111-.5-.19-.149-.232-.151-.246-.208-.368-.912-.195-1.292-.042-.946.02-.369.058-.693.037-.345-.016-.542.022.092.573-.057.273.127.127.162.158.266.284.207.094.2.231-.08.216-.047.226v.115l.047.164.092.325.1.158.208.111.219.142.023.1-.057.31-.07.2-.011.615.231.306.057.16-.288.1-.681.037-.5.058-.6,0-.415.184-.4.142-.31.108-.209.071-.415.113-.207-.042-.244-.063-.23.131-.161-.064-.139.053-.149.163-.22-.037-.093-.3-.208-.074-.2-.047-.139.173-.345-.041-.324-.059-.1-.068-.207-.062-.2-.037-.081-.1-.15-.3-.115-.1-.219-.016-.958-.078-.657-.037-.161.015-.208.006-.127-.126-.093-.158-.277-.005-.37.022-.23.068-.288.074-.278-.053-.277-.137-.369-.194-.266-.169-.426-.374-.266-.173-.161-.058-.462-.031-.254.231-.058.457-.012.915-.011.294-.08.447-.185.195-.368.052-.289-.073-.254-.158-.289-.242-.543-.336-.83-.238-.6-.273-1.037-.714-.335.024-.057-.445-.185-.631-.449-.683-.553-.758-.958-1.168-.012-1.776-.023-.958.034-.767.173-.725.669.053,1.8-.327,1.107-.326.82-.23.645-.421.151-.641-.3-1-.667-.484-.7-.095-1.222-.084-.162-.326v-.852l.2-.789.888-.925.219-.767.151-.851.162-.695-.4-1.988-.046-.767-.138-.947.934-.263,1.014.053,1.835-.631.623.1.463.169.437.327.057.672.184.546.346-.021,5.652-2.282,1.443-.327-.23-.4-.37-.442-.381-.726-.52-1.293-.472-2.156.034-1.252.265-.767.334-1.042.774-1.924.047-.6.277-.674.289-.641.081-.883.115-.853-.277-1.115-.334-.894-.311-.094-.508-.231-.254-.284-.242-.569-.058-.5-.057-.652-.1-.536-.91-.274-1.073-.294-2.261-.59-2.249-.694-1.6-.463-1.062-.358-1.085-.3-1.037-.158-.184-.336-.139-1.083-.231-.5-.381-.5-.427-.557-.047-.694-.229-1.682-.139-1.21.785-1.2.842-1.1.324-.263.934-.115.749-.294,1.2-.368,1.349-.442,2.18-.273.646-.189.634-.232.393-.337.092-.673.023-.841.3-.853.611-1.44.208-.452.946.062.6.064.359-.021.53-.137.277-.494.288-1.167.45-2.576-.035-4.07-.276-1.272-.267-.82-.23-.662.138-.516.22-.5.474-.925,1.256-.7.554-.063.83-.189.89.01.771.021.808.095,1.407.169,1.245.273,1.061.127,1.649.1h.2l.542-.1.531-.117.5.169.312-.062-.208-.306-.634-.273-.219-.41.3-.242.483.073.785.274.473.052.611-.1.669.169.785.4,1.108.168,1.3.621.438.043.208-.148.692-.021.577.095.4-.348.45-.577.393-.442,1.2.315.692.043.565-.306.762-.568.911-1,.023-.514.161-.442.092-.158.555.031.668.284.612.358,1.072.084,1.649-.21,1.213-.715.587-.253.763-.116.934-.178.716-.368-.393-1.009-.3-.59" transform="translate(-1370.92 -642.627)"  stroke="#fff" stroke-linecap="square" stroke-linejoin="bevel" stroke-width="1" fill-rule="evenodd"/>
      <text id="talId256count" transform="translate(44.951 49.131)" fill="#fff" font-size="10"  font-family="OpenSans-SemiBold, Open Sans" font-weight="600"><tspan x="0" y="0"></tspan></text>
    </g>
    <g id="_250_Bodwad" data-name="250 Bodwad" transform="translate(2351.933 338.021)">
      <path id="talId250" fill="#7DB8EC" data-name="Bodwad Taluka" title="Bodwad Taluka" d="M1475.606,631.259l.438.411.184.253.035.3-.023.453-.012.409.208.263,6.471.148.023.683.554.526.807.378.289.316.22.22.658.043.219-.274.508-.032.335.284.346.3.553-.105.3-.442,1.65-1.136,1.441-.81.739-.031,1.21.158.912.136,1.026.316,1.373.346,1.454.221.127.484-.162.526.15.746.463.547.346.347.53.315.542.2-.589,1.683-.1.653-.092.415-.035.321-.149,1.219h-.589l-.576-.027-.324.2-.1.347-.081.5-.15.747.012,1.577-.07.489-.138.362-.138.31-.012.3.138.205.277.142.484.173.912.364.876.241.8.252.507.232,1.1.3.312.263.358.263.219.736.173.394.312.41.289.273.6.269.542.073.415.074.335.1-.046.226-.139.227-.057.283-.058.268-.081.232-.277.442-.1.372-.069.237-.138.111-.151.068-.277.106-.287.025-.128.189.035.242.047.232-.2.162-.392.242-.311.262-.243.168-.633.5-.255.226-.254.425-.127.242-.115.257-.173.242-.115.232-.266.062-.4.064-.161.756-.289.284-.345.153-.255.115-.4.216-.265.315-.046.347-.035.315-.081.205-.2.142-.173.09-.277.142-.046.278.034.363v.331l-.1.095-.484,1.01-.172.32-.278.168-.288-.047-.554.016.023.835-.219,1.147-.093.483-.1.236-.208.447.046.336-.068.284-.451.058-.472.031-.484.2-.289.141-.185.218-.069.111-.046.149v.131l.023.122-.046.166-.068.071-.185.082-.138.079-.23.112-.116.026-.115.008-.081-.108-.092-.1-.162-.053-.173-.022-.219-.014-.058.018-.127.051-.242.364-.208.117-.138.095-.069.192.046.152.1.08.183-.029.126-.043.07.026.034.154-.034.109-.1.155-.126.232-.173.259-.138.324-.093.163-.173.116-.265.1-.151.021-.276-.066-.15.031-.115.1-.241.5.184.352.07.3-.035.28.011.181.07.119.115.089.207.031.1-.041.128.019.035.093.022.165.035.119.242.187.507.284.173.153v.2l-.011.165.035.1.068.107-.046.284-.174.175-.092.149-.172.2-.219.171-.139.271-.288.507-.139.245-.184.118-.08.25-.012.255.08.247.22.177-.011.317-.127.295-.2.257-.22.173-.219.316-.231.241-.149.108-.324.031-.115-.023-.242.051-.266.064-.219.042-.172.014-.242-.087-.312-.118-.208-.021-.219-.063-.4-.084-.461.027-.371.021-.312-.023-.589.1-.322.047-.45.137-.266.043-.139-.016-.185-.2-.2-.051-.3.037-.288.079-.485.006-.461-.006-.288-.035-.311-.1-.451,1.132-.53.179-1.453.284-.622.178-.762.359-.451-.99-.622-.987-.554-.7-.612-.547-.611-.684-1.016-.915-1.372-.494-1.28-.452-.761-.179-.543-.294-.254-.61-.162-.726-.543-.873-1.234-.177h-.623l-.416-.432.127-.358.161-.462-.6-.222-.865.033-.611.21-.577.189-1.684-.105-.22-.327-.057-2.123.069-.7.231-.609.173-.452-.186-.6-.2-.442v-.547l-.253-.368-.474-.021-.554.348-.692.389-.507.083-.508-.473-.484-.589-.3-.568.012-.694v-1l-.346-.893-.519-.674-.831-.294-1.915-.432-.774-.251-.391-.2-.751-.547-.692-.525-.737-.442-.139-.432-.092-.326-.335-.358-1.05-.44-1.36-.432-.485-.19-.945.274-.335.179-.554-.127-.416-.167-.576-.368-1.073-.958-1.061-.935-.439-.253-.507.116-.312.641-.266.705-.288.81-.68.652-.335-.105-.7-.516-.588-.715-.011-1.172.023-.683.093-.379.126-.358-.126-.44-1.281-.432-.715-.226-1.027-.28-.645-.078-.578-.031-.392-.211.161-.62-.1-.683-.15-.862-.1-.441-.218-.58-.034-.5.023-.705v-.746l-.046-1.661.934-1,.98-.19,1.05-.158,1.153-.147.7-.316.577-.462.231-.147,2.63.232.76.179.762.167.553.137.369-.221-.07-.547-.369-.326-.276-.347-.288-.327-.232-.43v-.222l.2-.441.046-.306-.022-1.576.241-.757.127-.947.1-.473.406-.442.623.043,1.165.21,2.042-.1,1.131.01.6.325.565-.167.346-.58,1.223-1.167.624-.242.992-.41.277.316-.081.483-.207.483-.485.557-.473.61-.542.758-.058.546.416.347,1.074.233,1.291-.053.4-.378.23-1.357.439-.82.449-.83.462-.874.184-.378.427-.22.634-.031.969-.937.716-.23.565.252.369.452.647.137.5-.347.312-.4.565-.116.866-.031.4.158.173.536.485.357.657.4.635.483.785.957.161.463.75.968.669.747.53.368.358.042.519-.409.22-.547.276-1.44.15-1.471.184-1.63.07-1.157.427-.872.576-.337.577-.232.589-.052.312.253v.7l.322.484.577.346.83.3.438.084.773.053.44-.169" transform="translate(-1432.9 -629.209)"  stroke="#fff" stroke-linecap="square" stroke-linejoin="bevel" stroke-width="1" fill-rule="evenodd"/>
      <text id="talId250count" transform="translate(17.078 24.399)" fill="#fff" font-size="10" font-family="OpenSans-SemiBold, Open Sans" font-weight="600"><tspan x="0" y="0"></tspan></text>
    </g>
    <g id="_249_Bhusawal" data-name="249 Bhusawal" transform="translate(2319.306 306.678)">
      <path id="talId249" fill="#7DB8EC" data-name="Bhusawal Taluka" title="Bhusawal Taluka" d="M1406.785,601.979l1.234.128,1.754.084,1.142.2,1.084.294.992.284.657.4.624.579.911,1.114.783.652.808.4.761.117.854-.022.785-.262.634-.474.693-.126.8.19.716.525.474.621,1.4,1.682,1.408.337,1.545.231,1.245.263.89.347.806.315,2.643.715,4.695.2,3.6.062,5.9.095,4.383.074,2.019.084,1.811-.736,5.641-1.788,3.23.084,1.938-.126,1.28-.42,2.481-.358.969-.693,1.142-.989.462-1.052.393.39.554.177.507.279.416.283.241.385-.011.372.08.522.174.341.312.284.289.253.229.173.2.279.081.336-.162.353-.23.237-.1.311.057.289.115.547.336.383-.035.631-.162.384.208.578.149.553v.325l.358.479.347.279.035,3.612.31.314.416.337.288.294.3.82.243.6.173.521.172.321.242.2.358.1.323.131.185.089-.08.747-.162.557-.151.551-.276.39-.161.672.058.668.288.341-.277.789.047,1.093.323.878v.705l.313.336.691.326.173.588.289.611.127.368.012.651-.128.463-.359,1.556-.1.674-.034.693-.439.168-.772-.052-.439-.084-.83-.3-.578-.346-.322-.484v-.7l-.313-.253-.588.052-.577.232-.577.337-.428.872-.068,1.157-.185,1.63-.15,1.472-.277,1.44-.22.547-.518.409-.358-.041-.531-.368-.668-.746-.751-.968-.161-.463L1469.4,638l-.635-.484-.658-.4-.485-.358-.173-.536-.4-.158-.864.032-.566.116-.312.4-.5.348-.646-.137-.369-.451-.565-.253-.716.231-.969.936-.635.031-.427.22-.184.379-.46.873-.451.831-.438.82-.231,1.356-.4.378-1.292.053-1.073-.232-.416-.347.058-.547.543-.757.473-.611.484-.557.208-.483.08-.484-.276-.315-.992.41-.623.241-1.223,1.167-.346.579-.564.168-.6-.326-1.13-.01-2.043.105-1.164-.21-.623-.043-.4.442-.1.473-.127.948-.242.756.023,1.577-.046.306-.2.44v.221l.231.43.287.327.278.347.369.325.069.546-.37.221-.553-.137-.761-.167-.762-.179-2.63-.232-.231.148-.576.462-.7.315-1.154.147-1.049.158-.981.189-.933,1,.045,1.661v.746l-.023.7.035.5.219.579.1.442.151.861.1.683-.161.621-.484-.252-.693-.2-.543-.147-1.3-.295-.911-.105-.6-.01-.462.084-.576.357-.623.168-1.154-.01-.531-.021-.347-.211-.07-.5-.057-.485-.255-.452-.414-.777-.554-.81.046-.662-.034-.526-.023-.483-.174-.4-.45-.336-.773-.3-.727-.21-.991-.242-1.027-.147-.992.074-.438.126-.669.263-.4.526-.335.673-.738.484-.589.053-.634.042-.912.042-.68.326-.658-.031-.634-.1-.772.147v-.819l.1-.536-.415-.874-.358-.273-.761-.315-.773-.2-.738-.2-.877-.2-.543-.294-.507-.652-.646-2.072.023-1.336-.612-1.62-.1-.82.08-.588.287-.389.508-.526.324-.621-.128-.578-.346-.516-.611-.662-.565-.421-.693-.326-.541-.022-.935.19h-.923l-.508-.231-.4-.41-.139-.452.058-.514.531-1.115.658-.9.311-.831.265-.7.046-1.126-1.073-1.661-.231-.621.381-.7.449-.684.485-.558.842-.873,2.261-1.408.507-.3.6-.274,1.061-.127,1.13-.1.981.043,1.119-.032.612-.19.253-.526-.045-.578-.3-1.241.508-2.135.415-.82-.024-.82-.15-.515.174-.588.2-.547-.023-1.157.035-.453-.173-.42-.692-.232-.831-.158-1.546.232-.5-.095-.831-.117-.646-.3-.508-.337-.461-.4-.151-.5-.046-.768-.162-.462-.449-.432-.277-.126-.484-.074-.6.064-.841.736-.7-.095-.2-.589.138-.557.312-.567.911-.989.231-.347.035-.388-.554-.158-.474.074-.345.169-.692.21-.311-.105-.346-.263-.162-.5.069-.516.646-.925.1-.5.161-.43.3-.305.139-.568-.036-.917" transform="translate(-1404.72 -601.979)"  stroke="#fff" stroke-linecap="square" stroke-linejoin="bevel" stroke-width="1" fill-rule="evenodd"/>
      <text id="talId249count" transform="translate(12.705 31.742)" fill="#fff" font-size="10" font-family="OpenSans-SemiBold, Open Sans" font-weight="600"><tspan x="0" y="0"></tspan></text>
    </g>
    <g id="_259_Parola" data-name="259 Parola" transform="translate(2134.068 335.042)">
      <path id="talId259" fill="#7DB8EC" data-name="Parola Taluka" title="Parola Taluka" d="M1307.2,627.232l2.007.105,4.4-.064.957.611,1.061,1.745,1,1.577.428.9-.277.9.67.779-.15.714-.313.61.024.883.968.315,1.177.358.692.8.669,1.094.358.61.3,1.178.462,2.839-.046,1.64.808.5.437.063.4.9.75.462.991.253.945.042.312.064.461,2.25.093,1.851-.254.526-.658.966-.841.485-.727.378-.934.925-.231.926-.288.61-.2,1.135.381.589.8.062-.116.61.081,1.85-.438,1.178-.681,1.093-.646,1.094-.254,1.43-.843,1.977-1.176,3.26-.691,2.5-.3,1.914-.185,1.177.035.925.4,1.221-.115.378-.716.609-.658.273-.611.148-.854.126-1.107-.021-1.106.115-1.154.1-1.142.252-.485,1.567-.749,2.724-.7,2.514-.069,1.219-.1.537-.519.883-.889.578-.335-.284-.888-.4-.681-.273-1.684,2.123-.588.779-.669.325-.484.116-.647.619-.611,1.158-1.408,1.03-2-.052-3,.252-2.492.167h-.6l-.692.137-.439.441-.253.515-.023.7.138.536.543.41.414.336.312.537-.219.672-.438.39-.52.052h-.588l-.508.095-.68.074-.347-.368-.6-.483-.738-.579-.785-.473-1.316-.6-.783.43-.324.789-.345.63-.462.3-.437.169-.785.084-.854.021-.969.169-.819.074-.9.2-1.4.662-.323.421-.231.537.07.662.242.567-.127.758-.657.5-1.742.652-1.442.495-1.557.8-.554.116-.693.053-.564.284-1.431.473-.4.052-.809-.052-.345-.294-.566-.179-.426.115-.854-.2-.577-.263-.83-.694.081-.6-.439-.516-.934-.968-.219-.44v-.515l.334-1.042.67-1.388.149-.82.023-.642.023-.231.07-1.4-.323-.672-.4-.526-.092-.484.115-.589v-.335l.07-.337-.047-.873-.865-.2-.946-.337-1.038-.315-.67.169-.46.274-.358-.064-.439-.473.439-.263.439-.662.034-1.661.392-2.146-.057-.746-.012-.684-.172-.831-.462-1.219-.935-1.63-.277-.2-.241-.347-.116-.672-.531-.852-1.742-1.388-.83-.925-1-2.672-.727-.336-.346-.043-.184-.241.046-.432.358-1.42,1.061-1.7.53-1.273.53-.21.774-.241.542-.043.565.137.612.1.715-.158.092-1.135-.057-.557-.15-.579-.2-.6-.219-.536-.254-.567v-.81l-.438-.736-.611-.6-.508-.273-.566-.211-.45-.2-.392-.441-.08-.516-.219-.672-.335-.546-.38-.895.2-.61.392-1.556.335-1.735-.093-1.252-.219-1.346-1-.1-.4-.462-.15-.484-.173-.6-.069-1.756.473-.978-.093-.42-.345-.021-.612.094-.253.2-.393.052-.2-.231-.161-.452-.312-.389-.334-.6-.219-.641-.081-.631-.808-.673-.635-.38-.414-.01-.727.084-1.05-.2.035-2.46-.185-.715.219-.6.589-.569.6-.43.5-.432.311-.6-.046-.641.138-.515.738.358.578.179.334-.127.773-.241,2.1.21,1.026.136.5-.126.507-.21.415-.4-.127-.4-.08-.432-.138-1.209-.024-.746.138-.284.427-.3.636-.263.656-.083.9.136,1.707-.473.439-.021.7-.011.808-.095.726-.493.611-.516.715-.315.589-.294.692-.128,1.42.053.864-.032.346-.251.45-.179.542-.032.323.232.253.473.358.243.485-.064.358-.1.427-.273.485-.316.622-.178.3-.3.034-.546.6.147.646-.3.485-.263.381-.273.208-.516-.046-.567.081-.41.484-.085.485.064.8.031,1.073.442,1.811.116.715.21.716.064.472.031.392.21.138.568.034.653.2.525.382.442.53.452.542.6.255.609.265.252.554.053.738.031.577-.158.011-.462-.139-.621-.265-.4-.312-.473-.369-.547-.461-.684-.161-.557.669-.126.647-.084.865.41,1.1.968.762.094,1.442-.084,1.142-.031,1.188.146h.6l.115-.4-.081-.516-.185-.336-.069-.505.174-.494.311-.326.657-.284.531-.064.922.022.888.01,1.073-.01.519-.043.174-.41-.242-.411-.092-.3.277-.263.507.116.484.41.451.4,1.05.651.646.221.473.084.322-.117.22-.514.427-.378.727.136.542.105.8-.105.507.284.924.294.68.169,1,.326.495.389.762-.294.173-.821.127-1.209" transform="translate(-1244.77 -627.085)"  stroke="#fff" stroke-linecap="square" stroke-linejoin="bevel" stroke-width="1" fill-rule="evenodd"/>
      <text id="talId259count" transform="translate(28.943 41.379)" fill="#fff" font-size="10"  font-family="OpenSans-SemiBold, Open Sans" font-weight="600"><tspan x="0" y="0"></tspan></text>
    </g>
    <g id="_247_Amalner" data-name="247 Amalner" transform="translate(2110.93 272.735)">
      <path id="talId247" fill="#7DB8EC" data-name="Amalner Taluka" title="Amalner Taluka" d="M1341.807,597.31l.022.594v.781l-.022.2-.623.518-.508.752-.266.4-.276.148-.243-.179-.312-.185-.242.2-.151.347-.058.384.047.347.277.494.081.442-.012,1.2-.381.216-.369.037-.334-.116-2.838-1.246-1.823-.442-.507-.022-.612,1.6-.8.463-1.35.1-1.511.148-1.384-.021-1.649-.273-1.072-.19-1.281-.126-1.327-.21-1.13-.19-.588.062-.311.3-.426,1.051-.185,1.387-.1,2.651-1.038.841-.542.693-.127.695.312.862.784,2.4.139,1.2.2.463,2.48.442-.276.315-.9-.084-1.177-.147-.841.379-.208,1.009-.4,1.282-.058,1.347.058,1.114.173,2.314-.45,1.072-.646.253-1.073-.294-1.05-.127-.785.084-.75.189-.173.968-.1.925.438.968-.485,1.051-1.107,1.263-.763.273-.657.948-.542.609.714,1.3-.541,1.156.058.589.081.337-.128,1.209-.172.82-.762.294-.5-.389-1-.327-.681-.169-.923-.293-.506-.284-.8.106-.542-.106-.727-.136-.426.379-.219.514-.323.117-.473-.084-.646-.222-1.049-.651-.451-.4-.484-.411-.507-.115-.277.263.092.3.242.41-.173.41-.52.043-1.072.01-.889-.01-.923-.022-.531.064-.656.283-.312.327-.173.494.068.506.186.336.08.516-.115.4h-.6l-1.188-.147-1.144.032-1.442.084-.761-.095-1.1-.968-.865-.41-.647.084-.669.126.161.557.462.684.369.547.311.473.265.4.139.621-.011.462-.578.158-.738-.031-.553-.053-.265-.253-.254-.609-.542-.6-.53-.452-.382-.442-.2-.525-.035-.653-.138-.567-.392-.21-.472-.031-.715-.064-.716-.21-1.811-.116-1.073-.442-.8-.031-.485-.063-.484.084-.08.411.047.568-.208.516-.381.273-.485.263-.646.3-.6-.148-.034.547-.3.3-.621.177-.486.316-.427.273-.357.105-.485.064-.357-.243-.254-.473-.323-.232-.541.032-.451.179-.346.251-.865.033-1.42-.053-.692.127-.589.294-.715.315-.611.516-.727.494-.807.094-.7.012-.437.021-1.708.473-.9-.136-.656.083-.635.264-.427.3-.139.283.024.746.138,1.209.08.432.127.4-.416.4-.507.21-.5.126-1.026-.136-2.1-.21-.773.241-.334.127-.577-.179-.738-.357-.139.514.046.641-.311.6-.5.431-.6.43-.588.569-.219.6.185.715h-1.293l-.911-.231-1.857-.084-1.326-.327.069-2.776-.255-1.42-.185-1.367-.046-2.987.1-.588.358-.137h.542l.634-.021.727-.158.474-.01.587.232.647.146h.5l.116-.767.392-.473v-.327l-.392-.325-.484-.326-.012-.189.081-.379.08-.674-.139-.588-1.788-2.282-1.189-.925-.034-3.554.173-.831.415-.558.185-.4-.2-.746-.749-1.231-.508-1.924-.635-1.2-1.592-1.083-.553-.42-.726-.442-.566-.347-.565-.063-.208-.115-.092-.378-.034-.452-.057-.526-.093-.473-.254-.631-.231-.611-2.514-.089-.728.015-.645-.262-.427-.024-1.268-.013-.335-.016-.52-.111-.242-.194-.115-.258-.2-.352-.173-.3-.393-.505-.231-.148-.323.395-.115.252-.161.431-.207.6-.116.542-.334.179-.508-.306-1.015-.23-.623-.074-.645-.084-.462-.11-.1-.268.011-.337.231-.379.37-.456.288-.484.311-.527.288-.972.046-.894.312-.094.347-.115.219-.058.508-.085.392-.026.474-.089.5-.163.762-.095.646-.311.254-.211.773-.284.588-.378.115-.421.577-1.493.138-.478.138-.694-.023-.411-.08-.337-.277-.43-.415-.842-.139-.619-.012-.652.335-.606.589-.615.669-.4.97-.416.864-.374.277-.231.207-.3.219-.383-.115-.563v-.436l-.058-.668-.23-.806.184-.94.45-1.31.231-1.541.22-.567.218-.531.3-.547.277-.353.288-.336.347-.458.656-.662.543-.374.819-.615.761-.6.554-.82.3-.288.392-.269.717-.346,1.187-.3.438-.048.507.063.7.195.555.12.634.068.415-.125.474-.4.173-.3.185-.431.079-.3.15-.322.3-.441.646-.532.416-.2.53-.158.323-.115.358-.168.312-.169.554-.631,1.154-.816.715-.547.185-.368.1-.389.219-.536.622-.72.288-.263.047-.268v-.3l-.069-.378-.23-.247-.38-.158-.427.026-.416.048-.519-.016-.391-.01-.312-.037-.334-.157-.2-.237-.092-.431.068-.331.577-.226.393-.189.542-.2.254-.073.276-.168.092-.2.1-.446-.173-.91-.231-.237-.369-.179-.449-.136-.357-.069-.416-.01-.3-.057-.208-.158-.334-.237-.207-.347-.289-.363-.347-.425-.15-.3-.115-.4.034-.321.22-.189.369.11.335.21.335.284.508.257.946.082.484-.034.8-.1.877-.2.531-.016.761.063.668.336.785.742.391.51.324.768.485,1,.381.947.4.94.831,1.079.865.989,1.408,1.367.934.525.635.182,1.787-.146.7-.284.462.483.807.172,2.077.089.716.037,2.329.008.5,0,.9.24.808.15.738.286,2.4,1.43,1.223.379.831.042.992.094,1.027-.115.889-.21.923-.273,1.892-.568.738-.032,2.087.295,2.251.831,1.51.21,1.246.126,2.1.094,1.106.263.762.473.9.61,1.05.537.83.115.577-.146.784-.232.669-.452.7-.514.82-1.21.772-1.072.807-.452,1.131-.337.8.031.946.368.7.378.681.726.507,1.083.7,1.147,2.837,2.251,1.362,1.166,1.961,1.136,1.372.578,3.346.641,1.845-.01,2.619.274,1.234-.21,1.926-.894,1.062-.662,1.211-.179.681.062,1.361.368,1.223.779,2.146,1.146,1.87.379,1.418.136.069.014-.115.449-.277.39-.185.189-.323.263-.622.326-.7.253-.069.158.024.537.265.251.381.074.565-.01.889-.011.334.116.288.168" transform="translate(-1224.74 -572.488)"  stroke="#fff" stroke-linecap="square" stroke-linejoin="bevel" stroke-width="1" fill-rule="evenodd"/>
      <text id="talId247count" transform="translate(31.082 45.686)" fill="#fff" font-size="10" font-family="OpenSans-SemiBold, Open Sans" font-weight="600"><tspan x="0" y="0"></tspan></text>
    </g>
    <g id="_252_Chopda" data-name="252 Chopda" transform="translate(2153.515 223.087)">
      <path id="talId252" fill="#7DB8EC" data-name="Chopda Taluka" title="Chopda Taluka" d="M1261.48,588.73l.6-.262.923-.452.819.284.589.021.737-.631,1.017.447,1,.1.588-.308.5-1.511-.011-.948.183-.833.277-.716.554-.66,1.1-.286.958-.017.669-.231.392-.634.058-1.045.438-.658.358-.173.3-.152.865-.137.669-.569.611-.311.82-.287.483-.022.208-.01,1.072-.093.982.03.576-.09.381-.553.081-.649.22-.391.9.285.6.07.2-.041.693-.1.611-.469.912-1.05.473-.883-.024-.849.289-.872.588-1.328.715-1.373.093-.191.808-.759.946-.471,1.235-.831.68-1.2-.289-.989-.219-1.221.2-.958,1.142-.767,1.073-.38.415-.59.057-1.4.081-.84-.184-1.535-.128-.82.024-.419.184-.494.265-.729.242-.428.265-.325.127-.316-.023-.491.173-.554.069-.579.047-.787-.139-.5-.589-.614-.611-.427-.82-.6-1.107-.281-1-.171-.912-.262-.323-.441-.081-.527.046-.385.1-.3.322-.556.543-.365.807-.328.577-.143.716.043.749.152.358.271.381.484.288.271.438.1.576-.247.531-.371.185-.356.08-.319-.035-.3-.287-.508-.681-.632-1.015-.418-.623-.328-.393-.243-.242-.4-.139-.4-.081-.636.2-.775.346-.65.532-1.063-.058-1.175-.046-.588.069-.533.313-.213.483-.124.45-.161.427-.11.553-.123.277-.175.173-.224.612-.475.542-.655.381-.859.289-.338.184-.475.057-.489.093-.442.161-.276.3-.209.334-.081.473-.033.634.181.358.209.381.18.635.067.461-.076.393-.133.3-.124.484-.437.474-.816.368-.318.636-.343.728-.276.472-.09.554.081.773-.09.923-.143.7-.133.8-.076.681-.09.472.1.15.076.612.354.392.17.472.139.358.1.311.092.3.047.334-.078.3-.169.243-.233.577-.511.358-.289.505-.219.359-.1.415-.029.865.186.612.314.4.195.438.362.5.774.231.271.589.494.633.475.474.261.5.161.369.058.346-.144.785-.5.507-.209.334-.405.381-.28.346-.061.323,0,.714.165.473.109.669-.062,1,.02.645-.124.566-.166.427-.166.127-.138.15-.242.219-.385.45-.185.485-.247.277-.118.218.027.311.091.5.238.508.28.162.227.1.267-.012.39-.069.361-.2.451-.127.537-.057.457.011.285.1.2.243.83-.046.453.046.247-.081.352-.081.133-.277.119-.219.061-.185.152.046.409.035.257.023.147.1.134.173.095.173.025.2.009.3-.076.346-.413.462-.365.266-.276.484-.262.23-.209.346.052.334.157.8.561.623.351.83-.114.912-.275.612-.285.691-.1,1.35-.025,1.384-.081.773-.018.692.056.623.057.8-.1.451-.352.275-.271.151-.247.057-.251.082-.428.035-.512.046-.339.127-.166.2-.047.3.047.37.128.322.3.427.361.173.175.623.281.266.213.23.294.288.352.3.317.45.2.311.114.137.071.128.1.023.052v.223l-.046.271.057.231.289.3.312.217.289.169.23.143.093.178.057.237.15.326.115.188.172.119.312,0,.2-.044.323-.126.254-.1.565-.078.566.047.277.105.242.092.507.143.335.034.415-.121.52-.382.414-.459.6-.582.4-.383.323-.173.253-.061.312-.079.335-.074.323-.05.541,0,.265.052.347.1.346.017.358-.038.368-.177.253-.168.116-.095.346-.121.172-.078.208-.055.173.031.1.038.207.164.2.278.2.285.241.219.289.116.265-.01.471.091.232.061.381.121.324.092.369.056.161-.128.138-.116.358-.4.531-.454.2-.161.2-.128.333-.081.335-.038.254.027.323.152.254.142.449.133.589.176.439.036.473-.033.322-.054.2-.14.22-.18.231-.153.219-.123.266-.076.219.019.438.123.53.181.323.251.277.235.254.138.773.218.8.119,1.211.094.7.033.4-.009.334.061.231-.07.4-.194.161-.215.184-.085.439.1.473.227.726.233.716.081.288.087.392.15.415.421.2.073.312.017.127-.125.161-.244.15-.168.184-.1.323-.191.161-.156.255-.282.139-.043.126,0,.231.074.242.191.242.228.289.385.266.432.23.334.127.133.127.09.231.171.162.066.16-.035.128-.02.173,0,.15.048.15.135.092.167.057.233.093.318.012.125.069.069.128.138.23.174.323.175.334.189.3.129.254-.015.543-.272.138-.049.091.032.081.064.069.114.046.094v.168l-.115.242-.024.133v.125l.012.085.07.077.046.023.265.088.266-.007.173-.035.173-.041.185.381-.162,1.735-.058,1.808.139,4.112.4,3.164.184,1.452.185,3.891.138,1,.092,3.87.162,1.02.185,1.356-.046.809-.589,1.116.185,1.124-.116,1.136-.426,1.63-1.822,2.187-.658,1.188-.427.789-.277,1-.23,1.482.058,1.462-.393,1.672-.1,1.6-.035.758-.011.777-.184.527-.416.483-.438.368v.4l.426.578.37.851-.162.779-.623,1.8-1.189,2.05-.185.631-.161.736.081.715.335.22.7.2h.519l.183.345-.15.685-.4.4-.6.274-.149,1.157-.162,1.1-.035,1.335-.058.816-1.257-.043-1.141-.01-1.592-.547-1.615-.662-1.155-.874-1.061-1.051-1-.6-2.135-.358-2.85.032-1.477-.127-.761-.473-1.315-1.242-.243-1.24-.461-1.126-1.408-.609-6.875.252-1.822.505-3.784.253-3.576.231-1.476-.231-1.175-.064-1.259.232-.842.5-.716.736-1.038.968-1.454.631-1,.442-1.015.8-.646.674-.253,1.324.15,1.662-.762,1.177-1.211.306-.126.031-.335-.136-.739-.526-.6-.347-.889-.154-.069-.014-1.419-.136-1.87-.379-2.145-1.147-1.223-.779-1.361-.368-.68-.063-1.212.179-1.061.662-1.927.894-1.234.21-2.618-.273-1.846.01-3.346-.641-1.372-.578-1.962-1.136-1.361-1.166-2.839-2.251-.7-1.146-.508-1.083-.68-.725-.7-.378-.945-.368-.8-.031-1.131.337-.808.452-.773,1.071-.819,1.21-.7.514-.669.453-.784.232-.578.146-.831-.115-1.049-.536-.9-.611-.762-.472-1.106-.263-2.1-.095-1.246-.125-1.511-.21-2.25-.831-2.089-.3-.737.032-1.892.568-.924.274-.887.21-1.027.115-.992-.094-.831-.041-1.222-.379-2.4-1.43-.738-.287-.807-.15-.9-.24-.495,0-2.331-.008-.714-.037-2.076-.089-.809-.172-.46-.483" transform="translate(-1261.48 -529.35)"  stroke="#fff" stroke-linecap="square" stroke-linejoin="bevel" stroke-width="1" fill-rule="evenodd"/>
      <text id="talId252count" transform="translate(55.497 45.333)" fill="#fff" font-size="10"  font-family="OpenSans-SemiBold, Open Sans" font-weight="600"><tspan x="0" y="0"></tspan></text>
    </g>
    <g id="_261_Yawal" data-name="261 Yawal" transform="translate(2278.822 229.172)">
      <path id="talId261" fill="#7DB8EC" data-name="Yawal Taluka" title="Yawal Taluka" d="M1370.005,599.633l.058-.816.034-1.334.162-1.1.15-1.157.6-.273.4-.4.15-.684-.185-.346h-.52l-.7-.2-.334-.221-.082-.715.162-.736.185-.631,1.188-2.05.623-1.8.162-.779-.37-.851-.427-.577v-.4l.439-.368.415-.484.184-.526.011-.778.035-.758.1-1.6.393-1.673-.057-1.462.23-1.482.278-1,.426-.789.658-1.188,1.822-2.187.427-1.63.116-1.135-.184-1.124.588-1.116.045-.808-.183-1.356-.162-1.021-.092-3.869-.139-1-.184-3.892-.185-1.451-.4-3.164-.138-4.113.057-1.808.162-1.735-.184-.381.173-.24-.069-.409-.035-.346.22-.211.357-.184.473-.147.184-.076.4-.2.288-.323.219-.214.174-.133.2-.085.312.176.011.2-.184.251-.115.152-.024.24.035.115.23.177.161-.016.242-.123.173-.135.115-.117.185-.164.2-.035.231.063.2.094.116.146.276.1.358-.062.612-.083,1.338-.25.554-.153.368-.208.07-.143-.242-.286-.7-.076-.657-.076-.139-.057-.057-.4.311-.256.45-.172.554-.217.576-.229.669-.171.981-.769.416-.294.935.57.484.019.346-.142.485.057.219.181.253.132.323-.094.346-.287.208-.3.266-.437.449-.361.22-.029.288.024.034.223-.068.253-.07.269.1.049.243-.062.138-.166.207-.166.278-.009.368.095.277.094.427.166.219.22-.022.132-.093.115-.046.186-.012.222.092.252.092.338.139.428.151.214.161.2.265.195.1.2.091.232.082.219.1.147.184-.1.1-.047.185.027.058.167.092.17.185.023.311-.042.635.086.243-.044.369-.1.288-.115.333-.083.381-.02.612-.057.265.085.093.143.264.155.15.083.289.043.185-.076.2-.114.335-.271.15-.155.149-.166.185-.107.219.045.115.1.116.089.161.018h.22l.149,0,.266,0,.323-.1.265-.081.288-.043.242-.076.243-.057.22-.016.092.133.081.2.079.1.127.069.2.036.254-.012.254-.005.438-.12.266-.044.172-.014.173.035.2.1.265.241.116.181.138.063.162.047.138.053.472-.121.081-.164v-.16l.208-.059.174.008.288,0,.208-.09.231-.144.219-.224.207-.152.185-.072.219-.054.288-.051.473-.093.208-.141.093-.163.046-.161.045-.115.138-.263.242-.166.174-.05.207-.01.231-.016.162-.052.415-.177.253.029.208,0,.185-.1.139-.09.566-.061.334-.12.183-.139.289-.153.554-.263.231.04.115.12.139.148.207.063.2.012.5-.052.277-.043.289-.045.231-.074.172-.05.242-.012.334.027.151.12.034.2.058.147.138.132.392.144.4.008.381-.218.242-.121.473-.121.369-.2.254-.146.162-.1.2-.089.161.047.254.084.347.113.184.074.195-.053.243-.05.253-.051.208-.01.265.069,1.5.407.807.146.681.19.577.3.231.567.369.452.347.095.265,1.566-.057.9,1.1,3.26,1.315,3.429.969,2.818,1.246,3.764.635,1.914.946,1.157,1.465,1.7,1.534,1.41,3.265,1.955,1.2,1.262-.2.968.657,1.114,2.561,1.746,1.038.863.5.462,1.431.882,1.626.675,2.285.966.969,1.137-.461.672-.15.568-.139,1.262.035,1.936.507,1.534.692,1.747-.057,1.766-.208.736-.2,3.491.946.189.946.085,1.961.526-.358.715.162.631.934.378.946.505.8.42.611.421-.738,1.6-.439.82-.461.273-.762.191-.542.44.691.526.058.82-.484.442-.819.126-.461.232-.311.862.75.715.381,2.188-.046,3.618.173,1.62-.289,1.745-.381,1.85-.427.863-.854.777-1.12.358-1.118.316-1.257.167-.8.421-.149,2.776-.023,2.712-.437,2.1-.324,1.283-.646,1.284-1.765.693-3.6-.062-4.7-.2-2.641-.715-.807-.315-.889-.348-1.246-.263-1.544-.231-1.408-.337-1.4-1.682-.474-.621-.715-.526-.8-.189-.692.126-.634.474-.784.262-.854.022-.761-.117-.809-.4-.784-.651-.911-1.115-.623-.579-.658-.4-.992-.283-1.083-.295-1.143-.2-1.753-.085-1.234-.128-.934-.25-1.592-1.04-.3-.61-.739-1.051-.622-1.052-.7-.672-.877-.4-.993-.263-.53.022-.6.2-.889.4-.668.715-.889.547h-2.827l-1.073-.873-.5-.5-.635-.863-1.372-1.409-1.153-.883-1.915-.179-.807.158-.936.389-.564.547-1.062.475-1.557.251-1.615.295-1.453-.211-1.269-.22-1.812-.61-1.822-1.377-.681-.83-1-1.178-.8-.863-.877-.452-2.7-.515-1.166-.137-1.13-.116-1.1-.126" transform="translate(-1369.74 -534.638)"  stroke="#fff" stroke-linecap="square" stroke-linejoin="bevel" stroke-width="1" fill-rule="evenodd"/>
      <text id="talId261count" transform="translate(25.189 44.248)" fill="#fff" font-size="10"  font-family="OpenSans-SemiBold, Open Sans" font-weight="600"><tspan x="0" y="0"></tspan></text>
    </g>
    <g id="_260_Raver" data-name="260 Raver" transform="translate(2336.306 228.353)">
      <path id="talId260" fill="#7DB8EC" data-name="Raver Taluka" title="Raver Taluka" d="M1438.466,621.288l1.765-.693.645-1.284.323-1.283.438-2.1.023-2.712.151-2.776.8-.421,1.256-.167,1.12-.316,1.12-.358.853-.777.426-.863.381-1.85.289-1.745-.173-1.62.046-3.618-.381-2.187-.75-.715.311-.862.462-.232.819-.126.484-.442-.058-.82-.691-.526.542-.441.761-.19.462-.274.438-.82.739-1.6-.611-.421-.8-.42-.947-.505-.934-.378-.162-.631.357-.715-1.961-.526-.945-.084-.947-.19.2-3.491.208-.736.057-1.766-.693-1.746-.506-1.534-.035-1.936.139-1.262.149-.568.461-.672-.969-1.136-2.284-.967-1.627-.674-1.43-.883-.5-.463-1.038-.863-2.56-1.745-.658-1.115.2-.967-1.2-1.262-3.265-1.955-1.533-1.41-1.466-1.7-.945-1.157-.636-1.914-1.245-3.764-.968-2.818-1.316-3.429-1.1-3.26.058-.905-.265-1.566h.392l.785-.073.773-.265.393-.081.357-.072.219-.076.7.042.566-.12.3-.094.5-.334.311-.224.242.022.231.06.3.123.53-.021.544-.018.23-.013.265.016.139.094.07.14.183-.056.127-.141.542-.226,1.9.076.08.03.161.129.162.059.174.023.171-.03.139-.119.312.011.287.053.162.117.208.148.2.15.635.326.45.232.149.111.554.087.277,0,.323.1.439.15.473,0,.38.031.473,0,.37.031.52.049.345.006.254,0,.139.082-.035.124.174.068.172.035.174.024.092-.009.116-.112v-.205l.034-.169.081-.189.173-.21.219-.141.265-.156.2-.163.173-.121.184-.21.2-.226.267-.132.126-.024.172.074.08.105.058.178.058.111.115.079.289.1.173.034h.565l.208-.073.184-.079.253-.169.243-.047h.392l.37.069h.426l.047.268v.115l.207.137.277.063.243.085.254.01.288.069.092-.069.1-.262.082-.069.23.174.474-.316.392-.462.265-.325.265-.269.219-.263.128-.2.011-.252-.035-.247.057-.311.231-.116.358-.126.369-.121.264-.078.288-.053.335.016.439-.111.312.08.265.041.127-.016.185-.058.288-.231.324-.153.345-.032h.369l.415.027.046.179.058.347.369.01.184.226.323.1.657.021.4.016.416-.068.38-.053.219.074.266.311.035.163.058.178.207.242.243.263.393.646.276.31.242.216.266-.037.623-.089.461-.158,1.027-.242.784-.221,1.063-.237,1.291-.084,2.181.231,1.741-.673,1.269-.336.819-.105,1.408.041.668.463,4.465,4.564.82.5,2.087.242,1.12.057,1.926.079,2.076.122,1.189.053,1.3.226.657.263.531.368,1.211,1.131,1.857,1.891.727.627.427.215h.3l.9-.573,2.156-1.2,2.551-1.225,3.218-1.6,2.366-1.094.507.893.819,1.509,1.281,2.209,1.372,2.7.809,1.8.345.693.254.664.092.5.045.725-.023.316.185.315.312.31.161.441.116.463.4,1.709.1,1.593.219.594.126.573.116,1.252.254,1.051.15.683.416.973.207.152.277.037,2.227-.064.738.021.254.273.2,1.042.173.689.277,1.152.07.694-.012.436-.023.378-.035.1.254-.09.346-.052.346.121.323.177.184.23.011.179-.057.216.034.2.1.043.139-.1.115.022.035.16-.035.223-.046.206.035.513.035.35.046.222.046.185.07.189.069.076.115.037.105.01.034-.053.011-.157-.08-.15-.036-.214-.011-.131.16-.136.151-.055h.127l.15.047.092.1.059.136.045.09-.034.155-.058.127-.058.142.012.134.1.066.231.082.046.091-.15.058-.081.09-.035.111.046.1.07.054.023.111-.046.079-.127.119-.15.115-.115.335-.105.036-.08-.018-.172-.059-.07-.11-.092-.095-.081-.109-.207-.039-.058.1.024.127.035.124v.118l-.035.1-.081.119-.3-.068-.093.07-.046.137-.023.163-.024.258.071.127.115.039.138.081-.092.063-.184.008-.1-.016-.139-.044-.195-.066-.036.1.023.086.092.114.093.1.046.5-.876-.239-.542.142-.508.158-.334.215-.277.327-.138.315-.058.7.289,1.151.115.531v.331l-.012.473-.3,1.167-.727,2.062.4.841.462,1.188.15.81-.808.715-.634.315-1.915.032-1.546.021-1.04-.389-.807-.39-.947-.084-1.1.4-.8,1.419-.461,2.051-.357,3.081v.81l-.254.578-.427.493-.553-.021-.542-.136-.646-.284-.993-.189-.887-.053-1.374.021-1.061.074-1.522.567-1.2.873-.323.432-.22.809.415.967,1.142,1.861,1.2,1.242,1.109.337.231.358-.013.841-.45.568-.75.253-2.168-.043-.947.357-1.512,1.62-.713.925-1.063.947-2.307,1.472-2.5,1.408-1.893,1.22-1.049,1.557-.784,1.283-.669.442-1.223-.547-.924-.567-1.118-.547-1.257-.484-1.3.169-1.2.4-1.326.758-1.176,1.24-1.005,1.177-.507,1.178-.461,1.052-1.142.989-.969.693-2.481.358-1.28.421-1.939.126-3.229-.084-5.642,1.788-1.811.736-2.019-.084-4.383-.074-5.894-.094" transform="translate(-1419.35 -533.925)"  stroke="#fff" stroke-linecap="square" stroke-linejoin="bevel" stroke-width="1" fill-rule="evenodd"/>
      <text id="talId260count" transform="translate(38.705 49.067)" fill="#fff" font-size="10"  font-family="OpenSans-SemiBold, Open Sans" font-weight="600"><tspan x="0" y="0"></tspan></text>
    </g>
    <g id="_257_Muktainagar" data-name="257 Muktainagar" transform="translate(2386.897 272.183)">
      <path id="talId257" fill="#7DB8EC" data-name="Muktainagar Taluka" title="Muktainagar Taluka" d="M1463.01,609.613l.508-1.178,1-1.178,1.176-1.24,1.327-.758,1.2-.4,1.3-.168,1.257.484,1.12.547.923.567,1.222.547.67-.442.784-1.283,1.05-1.556,1.892-1.221,2.5-1.408,2.308-1.472,1.06-.947.715-.925,1.511-1.62.946-.358,2.169.043.75-.253.45-.568.011-.841-.23-.357-1.107-.337-1.2-1.241-1.142-1.861-.416-.968.22-.809.323-.431,1.2-.873,1.522-.568,1.062-.073,1.373-.021.888.053.993.189.645.284.542.136.554.021.427-.494.253-.578v-.81l.358-3.081.462-2.052.8-1.418,1.1-.4.946.084.807.39,1.038.389,1.545-.021,1.916-.032.634-.315.807-.715-.149-.81-.461-1.188-.4-.841.727-2.061.3-1.168.946.016.8.19.6.148.518.168.508.2,1.384.527.5.21.451.136.3.132-.15.184-.253.183-.2.174-.855,1.1-.115.268.208.1.277.006.323.089.093.253-.023.315-.023.274.023.415.208.452.276-.015.369.021.289.048.346.026.266.073.23.137.277.184.092.195.116.395-.093.358-.081.294-.276.227-.347.047h-.253l-.231.043-.184.084-.208.152-.023.541-.022.578.068.427-.046.325v.216l.3-.031.415.079.555.263.414.148.657.888.162.289-.012.079-.554.337-.219.294-.092.253-.138.71-.127,1v1.063l-.035.431V588l-.414.153h-.254l-.059-.032-.184-.22-.243-.363-.3-.131-.369.016-1.5.1-1.155.068-.807-.1-.6-.105-1.211-.131-1.085-.032-.692.079-.427.047-.046-.5v-.493l.046-.31-.023-.253-.047-.121-.553-.021-.462.043-.081.115-.265.111-.231.12.011.154-.161.12-.255.175-.23.136-.208.037-.4-.157-.38.041-.231.206-.531.8-.392.368-.289.163-.392.016-.392.141.035.794.012.463.033.342.127.321.242.8.393.379.2.084.531.62.415.462.566.747.715.915.243.489.1.426.162.3.23.132.2.173.45.569.334,1.2.126.652.151.463.276.651.878,1.083.818.672.946.637,1.512.994.576.437.243.383.265.074.427-.183.265-.132.334.183.2.247.346.3.6.422.738.064.565.083.358.105.206.321-.022.525-.116.437-.08.253-.07.662.138.31.1.274.3.477.161.269-.08.331-.289.2-.415.184-.635,1.036-.2.651-.047.274.4.226.808.047.738-.021.819-.053.519-.242.762-.457.658-.7.415-.179.6-.158.53-.111.9.048,1.442.326,1.3-.174.578-.073.415-.189.392-.043.334.058h.659l.669.2.439.137.427.1.634,0,.842-.542.462-.289.979-.32.947.042,2.584-.3.922.131.416.105.335-.095.38-.064.981,0,.565.025.381.111.842.121.658.115.322.053.323.536.161.787.658,2.125.254.72.115.3.231.179.542-.016.716.011.611-.052.6-.064.9-.415.727-.095.9-.152.947-.01,2.215.052,1.66.195,1.754.041,1.568.51.554-.136.5.037.691-.242.612-.21.508-.273.992-.568.912-.037.818.021,1.362-.031.727.095.484.194.392.289.37.263.287.136.6-.015.889-.142.761-.363.969-.5.646.674.242.21-.081.362-.138.537-.092.3-.046.2-.035.29v.226l.093.652.046.337.023.31.046.362.046.368.139.489.242.389.2.579.046.463.277.794.231.447.138.156.069.132-.011.128-.024.063.024.1.057.1.034.234.058.148.128.207.127.019.035.131.046.152v.092l.057.089.151-.023.057.1.069.207.1.206.219.118.057.089.035.118.011.087.035.215.058.2.034.083.023.092.023.072.024.05.022.059v.042l-.022.037-.058.037-.069.02-.1.042-.207.154-.081.1-.046.077v.057l.011.066.058.175.058.143.011.062-.045.06-.1.106-.036.043-.115.218-.022.064.022.028.115.032.082,0,.068.014.046.031v.139l-.022.048-.058.049-.058.052-.08.089-.024.1.012.043.045.068.012.055-.023.087-.034.086-.035.062-.15.111-.116.087-.047.068-.011.081v.06l.011.166v.062l-.046.034-.046.008-.138,0-.082.023-.092.038-.092.046-.126.133-.15.126-.161.251-.116.139-.092.041-.046.053-.07.107-.138.193-.092.073.034.257.1.1.127.033.23.053-.161.778-.173.55-.046.476-.127.649-.1.41-.184.722-.081.6-.334.889-.138.515-.312.889-.3.665-.138.957-.243,1.371-.161.2-.334.154-.611,0-.658.006-1.073-.158-.4.021-.174.164.058.494-.012.358-.1.3-.15.158-.714.242-.312.3-.3.237-.208.173-.3.21-.207.194-.035.048-.035.313-.08.124-.161.071-.116.04-.092.034-.128.087-.092.088-.023.116v.245l-.024.073-.057.018-.127.009-.162-.016-.31,0-.093.029-.057.066v.059l.035.085.046.078.046.065-.012.319v.089l.058.067.034.057.08.065.023.086.012.1.012.08-.012.085-.253.174-.1.086-.058.06-.046.106-.059.049-.058.028-.139-.027-.115-.062-.08-.028-.1-.037-.151-.034-.15-.037-.08-.032-.058-.044-.081-.053-.092-.025-.034.086.011.1.011.118-.023.137-.035.649-.011.247-.023.111-.577-.187-.15,0-.357.01-.231.037-.427.047-1.142-.364-.369.069-.646.079-.393.121-.565.1-.958.2-.623-.125-.566-.074-.727-.158-1.072-.468-.75-.337-.715-.236-.923-.394-.518-.185-.774-.041-.5.021-.242.038-.53.083-.6.084-.75.147-.542-.026-.392-.115-.2-.174-.15-.146-.172-.769-.07-.773.036-.5-.07-.248-.242-.4-.554-.337-.312-.2-.254-.19-.253-.294-.335-.5-.277-.343-.346-.7-.451-.353-.23-.147-.23-.148-.255-.084-.865-.3-.738-.494-.715-.747-.542-.184-.635-.2-.888-.206-.75-.089-.415-.09-.485-.052-.345-.164-.2-.262-.185-.452-.1-.589-.185-.442-.265-.456-.737-.779-.484-.43-.394-.321-.957-.452-.38-.11-1.131-.2-1.016.074-.472.111-.3-.006-.462-.136-.518-.306-.693-.221-.67-.363-.7-.379-.45-.567-.427-.5-.347-.71-.242-.257-.174-.185-.253-.152-1.038-.352-.67-.09-.473-.173-.83-.4-.923-.437-.484-.315-.427-.306-.173-.3-.427-.7-.3-.242-.218.168-.1.483-.1.574.01.436.162.442.08.479.012.426-.335.984-.519.983-.139.415-.162,1.383-.08.641-.173.52-.219.268-.219.226-.289.142-.392.022-.288.2-.3.3-.323.253-.277.352-.22.327-.819,1.335-.4.337-.2.289-.3.483-.358.347-.9.541-.8.637-1.176.614-1.038.648-.242.231-.22-.2-.184-.183-.288-.206-.22.184-.162.357-.023.353-.08.5-.161.448-.207.652-.5.989-.161.4-.012.358-.07.773-.023,1.32-.208.442-.265.268-.391.279-.6.41-1.072.615-.843.2-.726.147-.323.053-1.027.116-.542-.195-.531-.315-.346-.347-.461-.547-.15-.746.162-.526-.127-.484-1.453-.221-1.373-.346-1.027-.316-.911-.137-1.212-.158-.738.032-1.441.809-1.65,1.136-.3.442-.554.1-.346-.3-.333-.284-.509.032-.219.274-.657-.043-.219-.22-.288-.316-.808-.379-.554-.526-.023-.683-6.472-.147-.208-.263.012-.41.023-.452-.034-.3-.185-.252-.439-.411.035-.693.1-.674.357-1.556.127-.463-.012-.652-.127-.368-.288-.611-.173-.588-.691-.326-.311-.336v-.7l-.324-.878-.046-1.094.277-.789-.289-.341-.057-.668.162-.672.277-.39.149-.552.162-.557.08-.747-.184-.089-.323-.132-.357-.1-.243-.2-.173-.321-.172-.522-.243-.605-.3-.82-.287-.294-.416-.337-.312-.315-.036-3.612-.345-.279-.358-.478v-.325l-.15-.552-.208-.578.162-.384.035-.631-.335-.383-.116-.547-.057-.289.1-.31.23-.237.161-.353-.08-.335-.2-.28-.231-.173-.288-.252-.311-.284-.174-.342-.08-.521.011-.373-.242-.384-.415-.284-.509-.279L1463.4,610l-.393-.39" transform="translate(-1463.01 -572.009)"  stroke="#fff" stroke-linecap="square" stroke-linejoin="bevel" stroke-width="1" fill-rule="evenodd"/>
      <text id="talId257count" transform="translate(9.115 49.237)" fill="#fff" font-size="10" font-family="OpenSans-SemiBold, Open Sans" font-weight="600"><tspan x="0" y="0"></tspan></text>
    </g>
    <g id="Group_21" data-name="Group 21" transform="translate(2225.695 285.111)">
      <path id="talId255" fill="#7DB8EC" data-name="Jalgaon Taluka" title="Jalgaon Taluka" d="M1379.963,686.629l-.554.26-.346.093-.346.053-2.584.089-1.361-.315-.415-.106-1-1.083-.692-.515-.324-.852-.427-.579-.784-.851-.289-.179-.622-.83-.865-.422-1.073-.441-1.9-.946-.83-.315-1.212-.242-.577.011-.715.273-.634.074-.681-.211-.277-.43-.058-.769-.046-.251-.6.011-.9-.043L1359.1,678l-.392.094-.011-.516.3-.284.277-.473.046-.515-.081-.379-.622-.074-.935-.126-.761-.253-.67-.169-.668-.115-.334-.158-.115-.715.23-.483.3-.5-.023-.3-.208-.325-.381-.222.058-1.009-.034-1.072.091-.758.232-.578.392-.642.358-.473.831-1.42.553-.463,1.189-.82.15-.388.138-.715.126-.81.461-.873.739-.693.426-.61.254-.62-.035-.757-.254-1.019-.345-1.063v-.884l.5-.472.565-.231.75-.074h.519l.392-.2.3-.358.576-.327.751-.178.577-.147,1.568-1.5,1.12-1.189.991-.536.7-.483.427-.306.1-.388-.116-.473-.415-.9.035-.81.138-.851-.138-.705-.208-.693-.035-.559L1370,643.9l.473-1.021.288-1.334.1-.516.635-.672,1.211-.569.739-.031,1.13-.032.427-.556.185-.853.035-1.745-.346-.83-.266-1.536.058-1,.1-.767-.162-.389-.554-.516-.414-.42-.763-.8v-.892l.277-.547.519-.748.23-1.061-.093-1.178.15-1.114.347-.736.2-.7.012-.6-.266-.494-.45-.81.011-.968.208-.9.035-.673-.369-.851-.369-.39-1.234-1.082-.253-.337.011-.778.415-.589.693-.579.439-.567.266-.6.1-.715-.3-.568-.3-.137-.53.209-.6.411-.415.337-.889.515-.323-.032-.357-.021-.219-.084-.1-.064-.922-.232.08-.82.287-.757.1-1.4.358-1.2v-.694l-.392-.821-.716-.936-1.062-.283-.841.157-.75.212-.7.01-.4-.179-.289-.483-.024-.916.243-.767.37-.389.806-.327.6-.252.542-.693.15-.567-.358-.537-.658-.474-.738-.105-.923.337-.508.337-.8.274-.75.094-.6-.127-.519-.462-.508-.683.324-.979.6-.347.611-.252.519-.356.312-.327-.127-.442-.381-.273-.911-.126-.715.084-.437.073-.635-.126-.472-.441-.474-.253-.415.012-.589.052h-.738l-.889-.189-.646-.064-.623.274-.462.546-.219.81-.15.442-.391.747-.635-.011-.392-.147-.265-.558.011-.568.162-.3.058-.432-.208-.368L1352,596.5l-.589-.3-.347-.557-.622-.758-.254-.6.058-.547-.265-.726-.739-.178-.426.421-.427.62-.243.715-.023.463.1.368.543.421.333.347.323.474-.231.452-.554.5-.451.3-.737.358-.647.22-1.465-.042-.831-.336-.668-.115-.532.326-.161.6.034.335.185.59-.23.315-.542.126-.463.073-.623-.042-.5.137-.437.2-.531.325-.635.022-.218-.19-.069-.6-.208-.6-.508-.22-.45.02-.345.379-.265.674-.4.578-.578.294-.76.211-.762.021-.565-.347-.173-.694-.035-.6.1-.631-.658-.505-.578.2-.645.063-.6.063-.669.158-.393.074-.727.072-.98-.746-.531-.925-.311-.673-.473-.38-.369-.378-.312-.442-.346-.22-.289-.169-.334-.115-.888.011-.565.01-.38-.074-.266-.251-.023-.537.069-.157.7-.253.622-.325.323-.263.185-.189.276-.39.115-.448.889.154.6.347.739.526.334.136.127-.031,1.211-.306.762-1.177-.15-1.662.254-1.324.645-.674,1.016-.8,1-.443,1.453-.63,1.039-.968.714-.736.843-.5,1.257-.232,1.176.063,1.477.231,3.577-.231,3.783-.253,1.823-.5,6.875-.252,1.408.609.461,1.126.243,1.24,1.314,1.241.763.473,1.476.127,2.849-.032,2.134.358,1,.6,1.061,1.051,1.153.873,1.615.662,1.592.547,1.143.01,1.258.043,1.1.126,1.13.115,1.165.137,2.7.515.876.452.8.863,1,1.178.681.83,1.823,1.378,1.811.61,1.27.22,1.452.211,1.615-.295,1.558-.251,1.061-.475.565-.547.935-.388.808-.158,1.915.179,1.154.883,1.372,1.409.635.863.5.5,1.073.873h2.826l.889-.547.669-.715.889-.4.6-.2.531-.022.99.263.878.4.7.672.623,1.051.739,1.051.3.61,1.592,1.04.935.251.034.917-.138.567-.3.306-.161.43-.1.505-.645.925-.07.516.162.5.345.263.313.106.692-.21.346-.169.472-.074.555.159-.035.389-.23.347-.911.989-.312.567-.139.558.2.589.7.095.843-.736.6-.063.485.074.277.125.45.432.162.462.046.768.149.5.461.4.508.337.645.3.831.116.5.1,1.547-.232.829.158.693.232.174.42-.035.452.023,1.157-.2.546-.173.588.15.516.024.82-.415.82-.508,2.134.3,1.241.046.578-.254.526-.61.189-1.12.032-.981-.043-1.13.1-1.062.127-.6.274-.508.3-2.261,1.408-.842.874-.484.557-.45.684-.38.7.231.621,1.072,1.661-.047,1.126-.265.7-.311.831-.657.9-.53,1.114-.058.515.138.452.4.411.507.23h.924l.934-.189.542.022.693.325.565.421.612.663.346.515.127.578-.323.621-.508.526-.288.389-.081.588.1.82.612,1.619-.023,1.335.645,2.073.508.651.542.294.877.2.738.2.772.2.762.315.358.273.415.873-.1.536v.82l.3.59.393,1.009-.715.368-.935.179-.761.115-.588.252-1.212.716-1.649.21-1.073-.084-.611-.357-.669-.284-.554-.031-.093.158-.16.442-.024.515-.911,1-.761.567-.566.306-.693-.043-1.2-.315-.393.442-.449.578-.4.347-.578-.1-.691.021-.208.148-.438-.043-1.3-.62-1.108-.168-.785-.4-.669-.168-.611.105-.473-.052-.785-.273-.484-.074-.3.242.219.41.634.273.208.306-.311.063-.5-.169-.53.117-.542.095h-.2l-1.649-.095-1.062-.126-1.245-.274-1.408-.168-.808-.094-.773-.021-.888-.011-.83.189-.554.063-1.258.705-.473.925-.219.5-.138.516.23.662.266.82.277,1.272.035,4.071-.451,2.575-.288,1.167-.276.494-.531.137-.358.02-.6-.063-.946-.062-.208.452-.611,1.44-.3.852-.023.841-.092.672-.392.337-.635.232-.645.189-2.181.273-1.349.443-1.2.367-.75.295-.934.115-.323.263-.841,1.1-.786,1.2.139,1.21.231,1.682.046.694" transform="translate(-1323.84 -583.24)"  stroke="#fff" stroke-linecap="square" stroke-linejoin="bevel" stroke-width="1" fill-rule="evenodd"/>
      <text id="talId255count" transform="translate(53.316 54.31)" fill="#fff" font-size="10"  font-family="OpenSans-SemiBold, Open Sans" font-weight="600"><tspan x="0" y="0"></tspan></text>
    </g>
    <g id="_253_Dharangaon" data-name="253 Dharangaon" transform="translate(2196.432 294.679)">
      <path id="talId253" fill="#7DB8EC" data-name="Dharangaon Taluka" title="Dharangaon Taluka" d="M1314.562,650.861l-.439-.064-.807-.5.046-1.64-.461-2.839-.3-1.178-.357-.61-.669-1.094-.693-.8-1.177-.357-.97-.315-.022-.884.312-.61.15-.714-.669-.779.276-.9-.426-.9-1-1.577-1.061-1.745-.958-.61-4.4.063-2.007-.1-.081-.337-.057-.589.542-1.156-.715-1.3.541-.609.659-.948.761-.273,1.108-1.262.484-1.051-.438-.968.1-.925.173-.968.749-.189.785-.084,1.049.127,1.072.294.646-.252.45-1.072-.173-2.314-.058-1.115.058-1.346.4-1.283.207-1.009.842-.379,1.177.146.9.085.276-.315-2.479-.442-.2-.463-.138-1.2-.785-2.4-.312-.862.127-.695.542-.693,1.039-.841.1-2.651.185-1.388.426-1.05.312-.3.589-.062,1.129.189,1.327.21,1.281.127,1.073.189,1.65.273,1.385.021,1.511-.148,1.35-.105.8-.462.612-1.6.507.022,1.823.442,2.838,1.246.335.116.369-.037.38-.216.012-1.2-.081-.442-.278-.494-.045-.347.057-.384.15-.347.243-.2.311.185.242.179.278-.148.265-.4.508-.752.623-.518.024-.2v-.781l-.024-.594.346.22.311.442.37.378.473.38.311.672.532.925.98.746.727-.073.392-.074.669-.157.6-.064.645-.062.577-.2.657.506-.1.631.034.6.173.695.565.347.762-.021.761-.211.578-.294.4-.578.264-.674.346-.378.45-.021.508.22.208.6.068.6.219.189.635-.022.531-.325.437-.2.5-.137.624.043.461-.074.542-.127.231-.315-.185-.59-.034-.336.161-.6.532-.325.668.116.831.336,1.465.042.646-.22.739-.358.449-.3.553-.5.231-.452-.323-.473-.335-.347-.542-.421-.1-.368.023-.463.243-.715.427-.619.427-.421.739.179.265.725-.057.547.254.6.622.758.347.557.589.3.622.263.208.368-.058.432-.162.3-.011.567.265.559.393.146.635.01.391-.747.15-.442.221-.81.461-.547.623-.274.646.064.889.189h.739l.588-.051.415-.012.473.253.473.442.634.126.439-.073.716-.084.91.126.381.273.127.442-.312.326-.519.357-.611.253-.6.347-.323.978.507.682.519.463.6.127.751-.095.8-.273.508-.337.924-.337.738.105.658.474.357.536-.149.568-.542.693-.6.253-.807.326-.369.389-.242.767.023.916.289.483.4.179.7-.01.75-.211.843-.157,1.061.284.715.935.392.821v.694l-.358,1.2-.1,1.4-.289.757-.08.82.923.232.1.064.219.084.357.021.323.031.89-.514.414-.337.6-.411.531-.21.3.138.3.567-.1.715-.264.6-.439.567-.692.579-.415.589-.012.779.253.337,1.235,1.082.368.39.37.851-.035.673-.207.9-.012.968.45.81.266.494-.011.6-.2.7-.346.736-.15,1.114.092,1.177-.231,1.062-.519.747-.276.547-.97-.127-1.742.105-2.5.9-.968.611-.692.925-.486,1.157-.553.61-1.465.231-.843-.169L1365,632.08l-2.295-.379-1.35-.252-1.361.273-1.6.378-1.049.4-2.585.968-.668.126-1.143.043-1.119-.064-1.281-.21-.542-.505-.3-.82-.519-1.009-.716-1.03-.381-.862-.992-.4-1.51-.147-1.684-.19-1.28.232-.15.8-.8.715-.887.8-.162.863.035,1.283v.946l-1.027-.126-1.51-.21-1.178-.59-1.638-.589-2.722-.947-1.026.127-.658,1.072-.057,1.747-.693,2.271-.8.357-.969.126-1.707.5-1.684.295-.15,1.01.23.693,1.038.148.842-.085.484.294-.4,1.031-.312.441-1.2.694-.887.4-1.2,1.2-1.511,1.493-2.146-.252-.485.021-.542.989-.231.968-.484,1.073-.807,1.3-.9.695-1.257.609-.509.064" transform="translate(-1298.62 -591.553)"  stroke="#fff" stroke-linecap="square" stroke-linejoin="bevel" stroke-width="1" fill-rule="evenodd"/>
      <text id="talId253count" transform="translate(11.579 30.741)" fill="#fff" font-size="10" font-family="OpenSans-SemiBold, Open Sans" font-weight="600"><tspan x="0" y="0"></tspan></text>
    </g>
  </g>
</svg>
