<svg xmlns="http://www.w3.org/2000/svg" width="209.258" height="300.794" viewBox="0 0 209.258 300.794">
  <g id="Group_10" data-name="Group 10" transform="translate(-2247.453 -1389.634)">
    <g id="_163_Bhokardan" data-name="163 Bhokardan" transform="translate(2248.298 1390.262)">
      <path id="talId163" fill="#7DB8EC" title="Bhokardan" data-name="Bhokardan" d="M1387.01,843.071l.02-.3-.516-.858-.436-.536-.206-.528-.454-.122-.424.1-.413.028-.341-.075-.1-.65-.113-.668-.227-.8-.032-.923-.155-.611-.259-.783v-1.083l-.052-1.178.206-.989.021-.886,1.116-.245,1.354-.112,1.488.009,1.808.048.868-.133,1.219-.227.382-.244.206-.875.363-.924.9-1.488.516-1.385-.133-3.071.951-.7.35-1.215.011-1.6.516-2.515-.01-1.978.537-1.3.238-1.328.124-1.441.29-.395.764-.057.951.141,1.384.235,1.024.349,1.065.349.806-.085.486-.867.412-.971.548-1.261-.227-1.517-.228-1.035-.124-1.074.28-1.055.113-1.139-.031-1.112.052-.65-.383-.254-.32-.17-.465-.075-.042-.481.092-.744.651-1.564-.061-1.215.547-1.413.65-1.074.766-1,.816-.65.268-.716.652-1.836.3-1-.342-.754-.392-.706-.569-1.479-.558-.8-.444-.734-.361-.65-.321-.414.383-.65.671-.283,1.21-.207.9-.142,1.488-.075.95-.632.569-.829.578-1.073.454-1.46.486-.536,1.116.094.765.142.816.225.7-.263.248-.98,1.581-.254.466.075-.094,1.14.2.443,1.333.443,1-.094.683-.1.5-.282.341-.348.146-.189.279-.7.248-.528.36-.348,1.044.122-.062-.81-.393-1.271-.259-.885-.392-.923-.941-.829-.4-.6-.175-.537v-1.583l-.806-.207-.94-.085-.569-.095-.434-.3.144-1.385.114-1.4.31-.49.093-.471.135-1.149-.052-.952-.135-.744-.341-.8-.981-.6-.837-.094-.745-.208-.392-.188-.186-.208-.145-.471.062-.319.227-.66.373-.989.929-.885.848.037,1.219-.169.92-.085.424-.3.279-.621.392-.754.837-2.552.29-2.025.94-.669,1.126-.434.724.037.909.217,1.116.226,1.054.075,1.116.159.1-.989.31-1,.527-.349.755-.122,1.054-.179.424-.207.537-.434.538-.593.527-.415.755-.4.961-.273.951,1.092.424.414,1.053,1.375.744.687.755.076.816-.2.537-.16.352-.255,1.022-.273.6,1.121.847.951.62.753.227.415-.062.414-.269.33-.279.443-.062.292.5.264,1.013.113,1.3-.009.4.4.207-.368.546-.913.549-.292.505-.056.754-.085.362-.274-.227-.4-.806-.376-.7-.339-.869-.424-.848-.386-.392-.019-.413-.18-.2-.565.269-.236.093-.244-.217-.4-1.571-.726-.145-.377-.062-1.215-.155-.781-.558-.725-.279-.885-.848-.038-.7-.6-.166-.245-.217-.528-.083-.659.228-.48.31-2.261.35-.726.621-.009.578-.151-.03-1.593.661-.5.217-.565-.155-.48-.227-.434-.052-.423.207-.33.9-.471.61-.48.424-.169.879.217.63.282.64.254.383.123.393-.358.1-.452-.279-.6-.506-.632-.713-.989-.528-1.159-.887-.914-.641-1.055-.713-.621-.4-.537-.3-.49-.155-.47.341-.171.671.405.558.368.517.49.846.5.176-.047.186-.358.228-.489.31-.424.713-.2.507.048.444.061,1.272.132.713.052,1.209.1.475.048.5.193.526.245.537.282.619-.024.579-.009.342.029.351.174.258.556.445.7.321.282.247.26.382.16.28.023.4-.169.476-.306.495.178.248.659.548.264.537.415.2.79.228.661.372.3,1.146.226.755.415.641.113h1.146l1.034-.509.464-.3.363-.236.444-.414.353-.311.154.659-.052.424-.04.357.412.335-.186.108-.166.179-.2.273-.207.387-.083.64-.062.245-.135.254-.227.112-.289,0-.259-.09-.3-.2-.362-.24-.454-.344-.29-.108-.434.485-.341.391-.269.2-.414.249-.589.354-.207.4v.5l-.02.381-.073.4-.175.387-.424.621-.413.414-.248.222-.3.428-.186.712.051.941.083.744.248.529.31.471.094.508.145.382.372.523.113.348.207.359.145.479-.094.575.072.236.2.1.269.022.392-.033.372-.023.2.137-.094.3-.423.88-.114.424.062.226.28.075.289.057.155.226v1.2l-.062,1.371-.062.316-.216.174-.322.2-.319.263-.879.631-.238.368-.238.278-.238.357-.052.523-.072.838-.051.6-.187.274-.237.128-.248.1.01.32.134.725.146.278.186.08.186.3.083.514v.457l.009.391-.009.589.114.132.145.052.268.066.207.132.1.419-.041.744.062.467.134.315.052.269.041.489.062.777.03.321.063.414.04.339.052.292.207.32.227.49.2.528.2.2.331.122.485.127.362.147.32.249.238.5.373.627.64.862.083.47-.01.292-.094.249-.143.141-.166.01-.228-.056-.279-.117-.31-.16-.32-.033-.031.362-.011.282-.052.329-.092.212-.269.01-.64-.132-.538-.273-.444-.137-.475-.174-.476-.132-.63.033-.124.24-.01,1.069-.061,1.691-.031,1.061-.1,1.186.093.683-.073.608-.671.391-.631.339-.444.645-.393,1.046-.227.65-.062.386-.187.258-.382.2-.485.4-.352.485-.083.274-.073.579-.082.74.206.814.259.641.269.589.444.513.279.324-1.013.707-1.354.952-.237.386-.032.839v.706l-.548,1.046-.682,1.394-.155.631.124.781-1.592.292-1.654.075-1.188.179-.465.547-.558.2-.361.868-.083.536-2.511.971-.145.471-.083.65-.258.556.082.622.692.461.589.453.6.376.343.434-.332.575-.145.291.4.528-.145.65-.238.461-.216.585-.455,1.026-.258,1.724-.124.914.382.3.486.132.92.226,1.126.245,1.684.2,1.488.009.858-.141.568-.452.62-.537.722.6,1.086.753,1.809,1.376,1.281.7-.671,1.121.02,1.234.083,1.158.082.538.051.649.062.772.31.18.3.01.662-.16.578-.321.217.763-.372,1.13-.681,1.121-.848.763-.6.848-1.023.18-.455.366-.278.217-.021.641.217.4.218.594-.166,1.092.207.792.248.762-.022,1.027-.474,1.271-.186.81-.445.49-.125.076-.051.622.382.716.444,1.5.31.858.093.555-.352.6-1.736,1.167-1.383.556-.394.442-.434.425-.475.433.3.433.4.292.445.263.651.358.754.51.755,1.319.247.546-.01.952-.309,1.319-.28,1.733-.31,1.055-.289.764-.373.65-.557,1.205-.063.754-.837.32-.609.31-.776-.094-.67-.113-.837-.236-2.18-.112-1.147-.208-.775-.122-.908-.537-2.79-.085-1.251-.028-.145-.735-.4-.462-.032-1.865-.7-.339-.65-.226-.517-.142-.806-.254-.59-.376-1.654-.1-1.58.471-.765.565-.517.33-.249.679-.495.31-.5.151-.445.245.1,2.007-.413.1-.228-.113-.5-.245-.744-.085-.465-.245-.828-.99-.671-.687-.1-.717.01-.856-.331-.943-.352-.451-.226-.584-.362-.481-.475-.48-.394.179-.474.414-.435.471-.765.527-1.7.029-.569.2-1.509.829-.733.151-.859-.132-.464-.612-.579-1.036-1.064-.744-.919-.339-.6-.112-.941-.1-.847-.206-.744-.33-.33-.443-.341-.848-1.365-.508-.579-.066-.9.085-.413.122-.858.519-1.117.545-1.591.2-.5.376-.258.565-.434,1.14-.115.988-.258.641-.527.434-1.013.367-1.249.631-1.013,1.149-.465.423-.682.245-1.074.292-.8-.254-.63-.377-.372-.387-.321-.7-.051-.688.289-.536.3-.274.228-.414.175-.725.186-.6.206-.49v-.611l-.516-.1-.444-.066-.838-.245-.868-.923-.475-.4-.766-.32-.692-.31-.62-.17-.662.189-.144.461-.186.632-.351.782-.746.979-.319.2-.237.17-.073.277.063.236.2.25.145.287-.052.334-.309.161-1.54.015" transform="translate(-1383.3 -723.617)"  stroke="#fff" stroke-linecap="square" stroke-linejoin="bevel" stroke-width="1" fill-rule="evenodd"/>
      <text id="talId163count" transform="translate(23.277 97.08)" fill="#fff" font-size="10"  font-family="OpenSans-Bold, Open Sans" font-weight="700"><tspan x="0" y="0"></tspan></text>
    </g>
    <g id="_165_Jafrabad" data-name="165 Jafrabad" transform="translate(2310.777 1435.85)">
      <path id="talId165" fill="#7DB8EC" title="Jafrabad" data-name="Jafrabad" d="M1452.294,846.6l.062-.754.558-1.205.372-.65.29-.763.309-1.055.279-1.733.309-1.319.011-.951-.248-.546-.754-1.318-.755-.509-.65-.358-.445-.263-.4-.293-.3-.433.477-.433.434-.425.393-.442,1.384-.556,1.736-1.167.352-.6-.093-.555-.309-.858-.445-1.5-.383-.716.053-.622.123-.075.444-.49.186-.81.475-1.271.021-1.027-.248-.763-.207-.792.166-1.092-.217-.593-.217-.405.02-.64.279-.217.456-.367,1.022-.179.6-.848.848-.762.682-1.121.372-1.131-.217-.763-.578.321-.661.16-.3-.01-.31-.18-.062-.772-.052-.65-.083-.537-.081-1.159-.021-1.234.672-1.121-1.281-.7-1.809-1.375-1.085-.754-.724-.6-.62.537-.568.452-.858.142-1.488-.009-1.685-.2-1.126-.245-.92-.226-.486-.132-.382-.3.124-.913.258-1.723.455-1.026.217-.585.237-.461.145-.65-.4-.528.145-.291.331-.575-.341-.434-.6-.376-.588-.453-.693-.461-.083-.622.259-.556.083-.65.145-.471,2.51-.97.083-.537.362-.867.559-.2.465-.546,1.188-.179,1.653-.075,1.591-.293-.124-.781.155-.632.683-1.394.547-1.046v-.706l.031-.839.238-.385,1.353-.952,1.014-.707.31.269.319.165.559.085,1.281-.1.6.114.579.019.456-.014.641-.343.619-.307,1.024-.739.3-.273.383-.273.434-.608.2-.122.341-.222.238-.188.187-.287.165-.169.269.048.516.221.269-.043.31-.015.3.166-.031.3-.217.433-.042.254.217.166.32.07.889-.015,1.239.033.6.024.185-.033.2-.273.2-.221.289-.052.466.164.319.292.693.226.465.072.443.1.476-.027.94-.151.309.018.331.09.228.249.269.317.216.225.187.076.258,0,.3-.047.279-.254.93-.094.693-.039.484.029.155-.245.372-1.116.125-.405.341-.631.5-1.022.155-.41.383-.617.393-.655.7-1.592.558-.9.258-.291.34-.335.413-.405.972-.16.424-.066.64-.14.549-.274.878-.758.464-.277.269-.208.228-.259.228-.245.362-.97.176-.315.257-.3.207-.192.352-.283.5-.556.143-.212.423-.354.218-.089.2.071.041.221-.031.317v.381l.414.367.248.042.351.138-.01.5-.115.46-.092.284-.165.254-.114.122-.01.292.3.3.424.448.052.081.268.127.342.052.289,0,.165-.179.083-.32.03-.3.042-.354.134-.326.548.033.61-.014.754,0,.2.339.02.72.187.1.226.019.2-.038.155.17.061.268.125.278.568.127.3-.061.237-.123.175,0,.176,0,.124.155.125.513.247.184.28.057.247-.1.218-.131.186.174-.021.5.031.881-.217.5-.123.485.041.7.04.564.115.382.3.324.558.368.073.164-.021.311-.083.358-.1.326-.1.269.041.174.093.038.361-.217.186-.164.238-.208.445-.212.373.169.361.179.269.165.413.358.414.48.569.311.289.245.021.4-.27.621-.187.175-.2.155-.29.189-.2.192-.021.344.072.24.175.047.393.042.6.024.652.009.2-.046.207-.184.423-.156.165-.023.331-.015.341,0,.259.042.134.212.073.373.1.179.475.221.392.2.454.2.383.038.207-.208.413-.81.125-.31.216-.193.352-.038.372.2.63.192,1.581.222.5.037.723-.1.331.037.041.287-.279.674-.238.5-.3.823-.341.265-.217.31-.176,1.154-.134.97-.31.659-.392.871-.476.641-.124.518-.135.283-.268.207-.877.717-.559.48-.485,1.031-.2,1.31-.062.834-.082.82-.042.442-.1.269-.32.109-.423,0h-.61l-.579.2-.538.117-.548.137-.517.236-1.023.862-.64.24-.383.076-.444.208-.218.514-.465.575-.248.2-.164.292.072.5.247.547.279.245.269.306.186.443.124.354.218.287.826.485.3.1.4.166.279.249.208.5-.4.649-.166.31-.31.5-.506.188-.714.038-.651-.029-.454-.014-.527.08-.073.193v.311l.032.494.02.471.062.839.083.466.051.382-.226.39-.548.287-.155.273-.227.358-.1.339-.5.58-.165.212-.187.287.084.306.03.32-.052.56-.236.217-.3-.005-.186-.019-.124.189.073.372-.073.372-.144.348-.3.1-.288,0-.332-.037-.351-.1-.342-.146-.424-.141-.319.264-.237.832-.321.646-.155.635.2.208.145.254.113.334.115.505.082.607v.433l-.259.387-.124.335-.062.452.01.423-.062.467-.589.405-.826.277-.311.223-.021.508.124,1.182.187,1.252-.063.683-.527,1.285-.1.335-.135.707-.02.744-.01.556-.083.381-.2.24-.289.132-.32.131-.362-.075-.33-.221-.206-.174-.1-.217-.03-.184-.031-.184-.155-.116-.155.013-.248.283-.186.107-.288-.028-.445-.1-.393-.141-.548-.127-.91.075-.464.127-.476.038-.569.071-.918.018-.58.061-.484.165-.249.339-.144.481-.228.763-.331.556-.1.254.031.5.207.137.507-.019.331-.047.494-.043.5.047.351.085.206.208.341.269.217.348.259.556.155.7.155.368.062.287-.042.269-.166.306-.434.23-.578.264-.889.382-.393.127-.32.254-.32.3-.248.387-.28.145-.321-.14-.867-.221-.341-.005-.269.137-.371.188-.425.062-1.032-.047-.828.217-.547.1-.579.1-.579.057-.64.076-.269.014-.227.118.2.579.456.961.062,1,.114.9.155,1.624.113.838.01,1.225.022.533-.042.235-.144.193-.31.09-.361.066-.517.071-.733.24-.424.213-.321.14-.175.269-.207.48-.506.8-.145.269-.186.08-.289-.037-.279-.037-.3.014-.3,0-.248.179-.4.221-.7.419-.5.239-.609.4-.745.409-.516.193-.538.151-.5.047-.352-.052-.236-.23-.238.066-.176.259-.341.189-.279.028-.382.027-.238.043-.331.137-.2.32-.145.391-.9.306-.444.094-.8-.245-.858-.273-.867.678-.29.339-.671-.1-.537.227-.8-.263-1.209-.5-1.58-.546,1.726-2.073.382-.583.341-.65.042-.641.155-.273.4-.254.476-.2.3-.49-.61-.208-1.468-.245-.909-.292-1.343-.461-1.148-.207-1.549-.367" transform="translate(-1443.809 -767.782)"  stroke="#fff" stroke-linecap="square" stroke-linejoin="bevel" stroke-width="1" fill-rule="evenodd"/>
      <text id="talId165count" transform="translate(17.798 46.493)" fill="#fff" font-size="10"  font-family="OpenSans-Bold, Open Sans" font-weight="700"><tspan x="0" y="0"></tspan></text>
    </g>
    <g id="_162_Badnapur" data-name="162 Badnapur" transform="translate(2248.849 1504.53)">
      <path id="talId162" fill="#7DB8EC" title="Badnapur" data-name="Badnapur" d="M1435.755,912.163l-.848-.033-.743.057h-.455l-.186.263v.763l-.238.377-.371.179-.569.179-.641.208-.858.264-.961.113-.423-.085-.3-.264-.176-.348-.2-.5-.444-.292-.372-.2-.475-.169-.609-.02-.661.17-.921.189-.662-.443-.3-.357-.465-.5-.486-.207-.5-.226-.609-.377-1.529-.255-.072-.565-.093-.5h-.351l-.29.3-.361.189-.382.037-.486-.131-.4-.245-.63-.207-.569-.057-.536.029h-.4l-.661-.169-.1-.716.042-.387-.259-.376-.361-.2-.435-.151-.391-.556-.362-.536-.7-.3-.516.029-.372.037-.559-.094-.486-.2-.4-.15-.466-.425-.114-.678.063-.451-.207-.472-.321-.094-.319.028-.145.292-.27.452-.444.283-.506-.066-.216-.235-.5-.321-.414.414-.289.122-.558.066-.454.076-.31.274-.165.273-.052.462-.114.357-.155.348-.031.368.063.16.361.236.186.188-.093.282-.269.132-.754.133-1.86.545-.9.3-.486.122-.412-.028-.279-.263-.145-.387-.372-.245-.444.029-.361.244.02.669-.073.433-.775.254-.485-.443-.3-.293-.31-.217-.4-.046-.546.17-.393.216-.538.056-.939-.207-.59.009-.516-.122-.321-.235-.621-.095-.309,0,.021-.7-.093-.829-.062-2.119,1.105-.142,1.437-.142.144-.423-.288-.443.134-.509.537-.169,1.146-.33.414-.2.052-.5-.063-.98.063-1.093-.528-.094-.207-.49-.123-.556-.3-.706-.465-.509-.538-.518-.268-.707.041-.838,1.8-.028,1.643-.311,1.292-.066.32-1.064.289-.989.269-1.281-.372-.753-.32-.9-.176-1.385-.414-.17h-.837l-.5-.1-.311-.283-.124-.481.1-.593.073-.632.558-1.14-.073-1.5-.175-2.241.238-.915.218-.951.837-.668-.094-1.414.217-2.119.218-2.138.166-.735.888-.442.848-.264.742-.273.859-.387,1.664-1.2.184-.434-.029-.527-.28-.329-.238-.17-.051-1.13-.3-.462-.383-.451-.134-1.272-1.053-.961-1.189-1-1.24-1.159-.673-.782-.723-.225-.62.046h-.538l-.65-.046.3-.745.423-.791.352-1.63-.269-.518-.455-.31-.144-.528-.083-.623-.248-.49-.558-.48.527-1.094.444-.574.319-.631-.205-1.234-.021-.7.082-.632-.279-.489-.558-.414-.465-.236-.744-.17-.485.217-.165.48-.144.555-.445.349-.475.2-1.023.3-1.953.009-1.21.009-2.211-.217-.2-.753-.693-.067-.444-.056-.268-.65-.021-1.752-.486-.971-.207-.65.289-.97.424-.678.878-1.337.538-1.6.888-1.47.125-.381,1.539-.015.31-.16.052-.333-.145-.287-.2-.25-.062-.235.072-.278.239-.169.319-.2.746-.98.351-.782.186-.631.145-.461.661-.189.62.171.692.31.764.32.475.4.868.923.837.245.445.066.517.1v.612l-.207.49-.186.6-.175.726-.228.415-.3.274-.29.537.052.688.32.7.372.386.63.377.8.254,1.075-.292.682-.245.465-.424,1.013-1.149,1.25-.631,1.013-.367.527-.434.26-.64.113-.989.433-1.14.258-.565.5-.376,1.592-.2L1407.5,835l.858-.519.414-.122.9-.085.58.066,1.364.508.341.847.33.443.744.329.847.207.94.1.6.113.919.339,1.064.744.579,1.036.465.612.857.132.733-.151,1.508-.829.568-.2,1.705-.029.764-.527.434-.471.476-.414.393-.179.475.48.361.481.227.584.351.452.331.942-.01.857.1.716.672.688.826.99.465.245.744.085.5.245.228.112.413-.1-.1-2.007.443-.245.5-.151.5-.31.248-.679.517-.33.765-.565,1.581-.471,1.653.1.589.376.806.254.516.142.651.226.7.339.032,1.865.4.462.145.735,1.25.027,2.789.085.909.538.775.122,1.147.208,2.18.113.837.236.672.113.775.094.61-.309.836-.321,1.552.367,1.146.208,1.343.461.91.292,1.467.245.61.208-.3.49-.476.2-.4.254-.155.273-.042.641-.34.65-.383.584-1.725,2.072-.713.443-.921.744-.651.556-.423.575-.62.734-.465.632-.393.734-.486,2.016-.558.5-.537.282-.445.179-.65.235.062,1.724.4.819-.072,1.178-.082.961-.392.509-.734.867-.619.414-.26-.434-.166-.281-.382.093-.6.472-1,.037-.568.216-.4.273-.124.528-.187.376-.878.424-.372.216-.311.4.114.867-.517,1.092-.433.838-.238.519-.434.282-.516.151.423.687v.641l-.165.434-.444.074-2.056.1-.755-.321-.641-.085-.415.321-.072.348.021.762-.114.415-.258.434-.414,1.422-.228.734-.092.508-.238.414-1.353.2-1.023.253-.786.282v4.249l-.093,1.6-.34.914-.134,1.366-.176.726-.176.48-.569.424-.784.405-.361.272-.063.83.176.678.258.895V893l2.407.085.207.829.02,3.108-.145,1.516-.444.9-.537,1.121.393.528.949,1.186.672.613.527.216.982.16.589.084.693.085.526.236.279.688-.124.735-.434,2.27-.134.358-.032.151-.568,1.291-.073.508-.2,1.319-.692.97-.166.2" transform="translate(-1383.85 -834.279)"  stroke="#fff" stroke-linecap="square" stroke-linejoin="bevel" stroke-width="1" fill-rule="evenodd"/>
      <text id="talId162count" transform="translate(20.727 37.813)" fill="#fff" font-size="10"  font-family="OpenSans-Bold, Open Sans" font-weight="700"><tspan x="0" y="0"></tspan></text>
    </g>
    <g id="_166_Jalna" data-name="166 Jalna" transform="translate(2295.639 1521.581)">
      <path id="talId166" fill="#7DB8EC" title="Jalna" data-name="Jalna" d="M1520.706,921.489l-.217.7-.248.527-.072.971-.186,1.6-.7-.245-.487-.339-.723-.8-.6-.132-.414-.018-.32-.076-.476-.4-.393-.236h-.774l-.548.076-.931,1.139-.114.405.135.471.269.509.031.443-.145.527-.268.293-.538.348-.331-.16-.352-.292-.185-.094-.59.039-.7-.161-.3-.358-.568-.5-1.033-.32-.63-1.074-.485-.178-.5-.01-.216.188-.568.547-.476-.1-.413-.434-.361-.621-.1-.546-.217-.378-.4-.357-.64-.471-1.147-.094-.692.085-.093.283.145.319.207.49.453.97.228.961.186,1.263-.61.273-.351.1-.3.076-.693-.161-1.064-.735-.837-.471-.422-.254-.177-.122-.083-.48.052-.772-.848-.405-.423.282-.507.519-.837.7-.444.489-.341.321-.259.094-.546-.085-.982-.018-.238.094-.218.433-.382.508-.362.265-.31.028-.588.094-.29.4-.342.424-.309.217-.817-.038-1.313.085-.537.151-.423.452-.218.254-.29.3-.3.2-.392.142-.424-.085-.279-.245-.3-.556-.227-.311-.65-.358-1.385-.34-.765-.2-1.064-.075-.579.009-.878-.085-.279-.292-.527-.132-.641.019-.651-.113-1.364-.791-.537-.131-.631-.255-.548-.31-.475.1-.6.584-.289.188-.589-.245-.362-.245-.258-.33-.392-.47-.4-.2-.454.075-.537.33-.124.009-.362-.179-.279-.254.031-.226.227-.264.321-.253.247-.387.145-.263.052-.4-.093-.254-.278-.274-.342-.292-.445-.368-.888-.254-1.086-.556-.764-.028h-.236l-.466-.066-.372-.113-.516-.038-.341.086-.238.3-.33.367-.6.067-.455-.227-.227-.423-.362-.4-.931-.255-.629-.442-.528-.122-.144.178-.32.386-.28.226-.64.169-.372-.009-.548-.113-.361-.188-.848-.359-1.344.123-.258.141-.424.265-.383.084-.175-.264-.166-.405-.526-.225-.352.112-.175.169-.28.8-.329.245-.206-.048-.186-.358-.1-.348-.269-.4-.319-.471-.527-.348-.455-.415-.734-.254-2.066.169-.227-.114-.176-.235v-.31l-.011-.265-.145-.225-.33-.057-.5.141-.425.179-.846.178-.756-.188-.692-.217-1.055-.32-.96-.113-.465.169-.382-.057-.352-.142-.631-.366-.547-.349-.486-.1-.579-.16-.381-.452-.558-.377-.114-.527-.083-.7-.051-.8-.259-.414-.267-.037-.321.206-.29.236-.4.094-.371.02-.175-.208-.187-.49-.187-.88.167-.2.691-.971.2-1.318.073-.508.568-1.291.032-.151.134-.358.434-2.27.124-.734-.28-.689-.526-.235-.693-.085-.588-.085-.982-.16-.526-.216-.672-.612-.951-1.187-.392-.528.537-1.121.444-.9.144-1.516-.02-3.109-.207-.828-2.408-.085v-1.037l-.258-.9-.176-.678.062-.83.362-.272.786-.405.568-.423.176-.48.176-.725.135-1.367.34-.913.093-1.6v-4.249l.786-.282,1.023-.255,1.354-.2.238-.414.093-.508.228-.735.413-1.422.258-.434.113-.414-.02-.763.072-.348.414-.32.641.085.754.319,2.056-.1.445-.074.165-.434v-.641l-.423-.687.516-.151.435-.282.237-.519.435-.838.516-1.092-.114-.868.31-.4.372-.216.879-.424.186-.376.124-.528.4-.273.568-.217,1-.037.6-.471.382-.094.167.283.258.434.619-.414.734-.867.392-.508.083-.961.073-1.178-.4-.82-.061-1.724.65-.236.445-.178.538-.282.557-.5.486-2.016.393-.735.465-.631.621-.735.423-.575.651-.556.92-.744.713-.442,1.581.546,1.209.5.8.264.538-.227.672.1.29-.339.868-.678.856.273.8.245.443-.094.9-.306-.032.532.114.593.176.386.28.442.536.829.486.5.414.283.475.2.454.024.527.127.579.094.765.061.248.01.134.09.031.315.042.278.02.286.062.283.145.2.134.057.259-.042.259-.114.155-.061.217-.137.227-.085.207.118.3.236.361.239.641.42.31.1.217.028.28-.033.3-.142.3-.127.29-.155.31-.1.311.076.155.4v.984l-.083.909-.341,1.149-.093.655.041.409.425.392.536.141.9.175.837.273.443.212.156.16.176.16.238-.046.259-.2.309-.1.217.005.248.074.64-.16.33-.127.331-.1.134.042.041.287.042.339.2.09.237-.02.362-.033.765.1.433.309.217.4.155.409-.1.5-.341.315-.082.2.01.188.114.316.341.326.31.386.393.339.392.221.237.142.145.306.228.589.051.565.165.72.125.429.33.235.537.277.9.3,1.622.363.692.085.144.2.021.9.01,2.779-.062,2.379-.021.716.134.418.4.264.558.405.868.688.8.622.2.3.342.536.4.782.1.386.207.565v.34l.093.376.1.118.32.071.383-.071.392-.136,1.024-.245,1.105-.17.629.146.248.019.32.029.28-.147.176-.287.134-.277.207-.372.5-.137.311.024.548.081.4.145.27.184.135.273.143.5.217.523.2.6.218.645.226.57.073.527.135.453.527.367.248.048h.2l.206-.061.155-.081.248-.028.4.16.3-.01.072-1.329.062-.512.021-.283.052-.273.144-.254.279-.1.486.029.929.22,1.364.23,1.25.109,1.271.311.827.132.486.08.537-.024.424-.173.332-.316.31-.363,1.085-.72.247-.207.238-.372.115-.348.113-.3.258-.254.931-.037.733.094.362-.067.33-.145.713-.551.187-.132.269-.1.31-.033.536.066.62.081,1.2.178.444.052.289.17.227.142.217-.072.238-.183.29-.41.806-.641.352-.306.331-.207.352-.09.267.085,1.1.236.279.019.372-.085.4-.146.29-.217.248-.278.475-.188.663-.042.732.033,1.075.018.465.042.506.085.992.16.331.024.589.122.714.3,1.508.207.289.123.342.245.319.085.207-.029.166-.127.155-.316.217-.391.4-.726.28-.117.278-.166.258-.178.29-.411.165-.141.1.094.042.268.165.255.114.188.144.094.444.09.083.579.33.415.031.443-.486.423-.619.227-.145.4.01.536-.03.556-.248.762.5.585.32.112.682.123.609.15.982.566.888.414.424.414-.083.49-.217.368-.424.792-.289.932-.031,1.149.021,1.036-.507.291-.919.18-.631,1.131-.373.687-.382.792-.342.734-.041.612.259.254.351.81-.372,1.4-.041,2.336-.156,2.957-.02.632-.166,1.394-.579.1-1.343.076-1.158.33-2.479.066-.859.01-1.271.141-.9.235-1.395.6-1.539.123-.4-.009-.228.334-.31.288-.692.056-.652.015-.464.349-1.363-.052-1.56.066-.786.009-.609.1-.4.141-.124.424-.2.711-.072.541-.393.6-.6,1.059-.258.707-.682,1.21-.166.4-.165.456-.134.411-.052.6-.258.641-.9,1.22-.734.946-.021.273.063.344.3.527.279.312.63.16.806.141.527.075.527.094.538.118.423.109.362.23.114.631-.114.5" transform="translate(-1429.11 -850.778)"  stroke="#fff" stroke-linecap="square" stroke-linejoin="bevel" stroke-width="1" fill-rule="evenodd"/>
      <text id="talId166count" transform="translate(30.937 45.761)" fill="#fff" font-size="10"  font-family="OpenSans-Bold, Open Sans" font-weight="700"><tspan x="0" y="0"></tspan></text>
    </g>
    <g id="_161_Ambad" data-name="161 Ambad" transform="translate(2248.787 1573.523)">
      <path id="talId161" fill="#7DB8EC" title="Ambad" data-name="Ambad" d="M1435.773,909.926l.186.88.186.49.176.207.372-.019.4-.094.289-.236.321-.207.268.037.259.415.051.8.084.7.113.527.557.377.383.452.579.16.485.1.549.348.63.367.351.142.382.057.466-.17.96.113,1.054.32.692.216.754.188.848-.179.423-.179.5-.142.331.057.145.225.01.264v.311l.176.235.226.114,2.067-.17.734.254-.187.875-.1,1.3-.341,2.153-.063,1.164.01.8.083.22.672.053,1.4-.1.857-.094.662-.151.619-.009.29.527-.032.64v1.62l.135,1.309.445,1.017.495,1,.3.16.9.989.3.575.011.65-.3.612-.837.066-1.281-.037-1.281-.038-1.158.048-.2,1.451-.28,1.177-.289.622-.383.235-.073.791-.33,1.611.8.122.342.4-.094,2.883.238.678.207.81.051.669.093,1.884.218,1.055-.052.612-.361.5-1.045,1.478-.981,1.046-.693.413-.588.17-.755.113-.537.169-.444.3-.217.367-.021.585-.465,1.9-.444,1.46-.134,1.046-.29.922-.093,1.432-.31.047-.392-.235-.528-.3-.424-.132-.258.339.02.349.29.329.372.414-.01.462-.868,1.46-.362.735-.052.386.156.7.01.471-.217.782-.351.687-.228.811-.216,1.346.641.877-.061.65-.311.885-.775.188-.754-.056-.7.01-1.137.046-1.787.378.2,2.232.145,1.008-.021,1.413.537.527.507.689.041.885.041.875.166.4.682,1.941.382,1.517.062,1.328.175,2.534-.021,1.376-.382.236-.775-.094-.186.141-.362,2.383-.4.98-.31.575-.5,1.318-.227.81.289.226.547.34.135.47-.073.707-.3-.076-1.066-.423-.474-.311-.786-.438-.444-.353-.672-.512-1.064-1.112-1.571-.937-1.323-.645-1.116-.519-.537-.466-.828-.547-.381-.122-.5-.127-.465.024-.753.3-1.055.466-1.147.184-.506.146-.972.367-1.446.693-.362.292-.206.306-.113.424.01.287.216.3.33.362.393.424.031.613-.011.433-.216.744-.424.749-.785,1.37-.186.467-.145.359-.279.33-.258.146-.5-.132-.506-.142-.383-.076-.681-.039-.621.1-.97.234-.858.029-1.137.028-.9.165-.434.169-.464.146-.61.07-.8-.1-.724-.284-1.25-.471-.465-.094-.423.042-.517.165-.445.249-.62.372-.579.1-.641.056-1.032-.2-.456-.151-.32-.184-.165-.546-.01-.57v-.484l-.258-.49-.361-.287-.6-.25-.7.023-.785.1-.661.094-1.033.206-.807-.107-.33-.171-.331-.334-.269-.518-.351-.745-.31-.63-.444-.655-.289-.339-.4-.028-.331.065-.433.693-.631.645-.4.212-.434.206-.424.124-.774-.015-.5-.212-.445-.2-.6-.321-.62-.471-.568-.465-1.209-.754.207-1.734.392-1.2.32-.941.1-.58.228-.791v-.791l.031-.919.144-1-.021-.98-.164-.532-.734-.2-.641-.207-.249-.386.052-.636-.1-.721.2-2.788.258-1.177.537-.386.506-.622.248-.753.1-.81.093-.556.093-.433.321.01.414.4,1.085.678.837.226.806.273.393-.678.268-1.13.393-1.131.548-.754.465-1.017.206-1.432.455-1.488.352-1.78-.207-.979-.187-1.715.042-1.8-.042-.98.052-1.261.268-1.385.558-.254.361-.67.393-1.4.341-1.281.847-1.422.258-1.328.259-1.112-.32-.82-.517-1.027-.32-.66.165-.669.114-.64-.093-.424-.259-.547.031-1.431-.392-.235-1.25-.067-3.338-.018-1.157-.1-.91-.311-1.013-.141-.9-.057-.207-.875-.9-.009-.681.009-.673.1-.361-.575-.444-.377-.249-.47-.092-.377.176-.574-.021-.707-.093-.848-.724-.857-.558-.782-.393-1.592-.155-1.516,1.1-.274,1.437-.339.9-.178.538-.3.113-1.11.279-1.593.186-.575,1.633.188.713.085,2.035-.235.445-.989.527-1.77.392-1.583-.143-1.376-.465-1-.558-1.667-.1-.923-.155-1.159.1-.452.5-.075.32-1.263.073-1.779.289-2.5.134-1.6-.7-.225-.589-.122-.29-.179.135-1.084-.031-.669-.217-.48-.02-1.121-.083-.641.011-.287.31-.005.62.1.321.234.516.123.59-.009.94.207.538-.055.392-.217.548-.169.4.047.31.217.3.292.486.442.775-.254.072-.433-.021-.669.361-.245.445-.029.373.245.144.386.279.264.413.028.486-.122.9-.3,1.86-.546.754-.132.269-.133.093-.282-.186-.188-.361-.236-.062-.16.031-.368.155-.348.114-.358.051-.461.166-.273.31-.273.455-.076.557-.066.29-.122.413-.414.5.32.216.236.506.066.445-.283.268-.452.145-.293.32-.027.321.094.207.471-.062.452.114.678.465.424.4.15.486.2.559.094.371-.037.517-.029.7.3.36.536.394.556.434.151.361.2.258.377-.041.386.1.716.662.169h.4l.537-.029.569.056.63.208.4.245.486.131.382-.037.362-.189.29-.3h.351l.093.5.072.566,1.53.254.609.378.5.225.486.207.465.5.3.357.662.443.92-.189.661-.169.609.019.476.169.372.2.443.293.2.5.176.349.3.263.423.085.961-.112.858-.263.641-.208.567-.179.373-.179.238-.377v-.763l.186-.264h.456l.743-.056.846.033" transform="translate(-1383.29 -901.378)"  stroke="#fff" stroke-linecap="square" stroke-linejoin="bevel" stroke-width="1" fill-rule="evenodd"/>
      <text id="talId161count" transform="translate(22.788 52.819)" fill="#fff" font-size="10"  font-family="OpenSans-Bold, Open Sans" font-weight="700"><tspan x="0" y="0"></tspan></text>
    </g>
    <g id="_164_Ghansawangi" data-name="164 Ghansawangi" transform="translate(2303.366 1589.343)">
      <path id="talId164" fill="#7DB8EC" title="Ghansawangi" data-name="Ghansawangi" d="M1450.012,916.391l.456.414.527.348.319.471.269.4.1.348.186.357.207.048.33-.245.28-.8.174-.17.353-.113.527.225.165.405.177.265.381-.085.424-.264.258-.141,1.343-.123.847.358.361.188.548.113.371.009.641-.17.279-.226.32-.385.145-.179.526.122.63.443.931.255.362.405.226.424.455.226.6-.066.331-.368.237-.3.341-.086.517.038.372.113.464.067h.238l.766.027,1.084.556.888.254.444.368.342.292.278.273.093.255-.052.4-.145.264-.248.386-.32.254-.227.264-.031.226.279.254.362.179.124-.009.536-.33.456-.075.4.2.393.47.258.33.361.245.589.245.29-.188.6-.584.475-.1.547.31.631.255.538.131,1.363.791.651.112.641-.018.527.133.279.291.879.085.578-.009,1.065.075.765.2,1.385.34.651.357.227.311.3.556.279.245.424.085.393-.142.3-.2.289-.3.217-.254.424-.453.537-.151,1.313-.085.817.038.31-.218.342-.423.288-.4.589-.094.311-.028.36-.264.383-.509.216-.432.239-.094.981.018.548.085.259-.094.341-.32.444-.49.837-.7.506-.517.424-.283.847.406-.052.773.082.48.176.122.424.254.836.471,1.065.735.692.16.3-.075.351-.1.61-.273.434-.236.31-.066.217.011.1.14.114.865.092.659.414.189.641.027.816-.066.465-.019.4.048.433.3.145.519.042.565-.094.772-.083.81-.113.556-.258.753-.806,1.272-.341,1.328-.1.66-.083.687-.01.745.135.235.785.3,1.158.659,1.219.029,1.147.235.869.293.072.612-.186.725-.134.537.01.716-.372,2.486-.156,1.856-.547,1.216-.59.235-.878.094-.827.057-.877.047-.1,1.009-.186.744-.28.555-.217.8.579,3.269.207,2.421.144,1.705-.444,1.4-.548.894-.423.932-.31.782.114.339,1.551,2,.557,1.667.083,1.677-.145.988-.226.82-.372.527-.806.783-.661.64.29,1.111-.042,1.225-.072.537-.227.556-.279.687-.145.433-.331,2.233.331.97-.269.781-.1.509-.2,1.054,1.095.377v.641l-.031.518-.134.754-.631.754-1.178,1.714-.8,1.168-.279,1.092v2.968l-.28.584-.32,1.309-.682,1.922-1.467.047-1-.019-.837-.018.01,1.694-.227.547-.186.452,1.4.292.579.2.331.424-.124,1.083.1.565.092,1.178-.321.612.052.358.331.255.319.406.093.47.279.48.248.443.155.527-.714.268-.971-.062-1.064-.051-.506-.042-.589-.16-.517-.094-.651.327-.082.258.672,1.064.434.486.319.517.187.372-.02.7-.33.765-.786.414-.4.413.01.362.207.351.93.083.63.134.62.155.113.144-.041,1.333v.661l.135.517.124.331-.238.331-.434.114-.31-.083-.227-.217-.134-.257-.052-.486-.113-.485-.289-.5-.631-.393-.434-.176-.516-.021-.507.041-.517.238-.289.362-.207.341-.145.474-.155.941-.237,1.509-.466,1.23-.195.486-.477.516-.588.238-1,.2-.92.093-.672.073-.548-.124-.65-.175-.755-.331-.6-.331-.517-.176-.672-.062h-.91l-1.054.114-.5.062-.681-.072-.7-.176-.35-.393-1.283-.879-.753-.878-.5-1.023-.1-.63.031-.734.155-1.178-.01-.744-.2-.723-.382-.982-.248-.589-.01-.052-.258-1-.021-.547.042-.392.175-.372.383-.321.165-.372-.113-.434-.331-.313-.476-.146-.506-.014-.62.165-.569.2-.578.454-.279.538-.218.548-.547.765-.382.454-.64.527-.5.32-1.074.785-1.147,1.292-.61.589-.889.61-.849.527-.629.155-.94.32-.806.062-1.468.734-1.26.651-1.229.547-.755.538-.474.186-.6.02-.9-.4-1.044-.383-.464-.1-1.055-.528-.878-.6-.8-.755-.941-1.064-.671-.92-.569-1.054-.186-.62-.01-1.509-.124-.8-.258-.889-.145-.816.114-1.013.279-1.558.309-1.069.187-.641.7-.588.694-.556.537-.7.083-.6.1-.918.165-.726.083-.462.61-.613.455-.735.073-.588-.114-.471-.434-.419-.589-.48-.423-.367-.878-.405-.548-.057-.868.141-.547.25-.672.457-.662.815-.433.607-.579.462-.629.363-.6.052-.4-.23-.693-.556-.744-.236-.734.01-.754.16-1.147.513-.91.41-.889.447-1.022.387-1.126.442-.714.341-.445.187-.547-.009-.382-.1.073-.707-.135-.47-.547-.34-.29-.226.228-.81L1437,991.2l.311-.575.4-.98.361-2.383.186-.141.776.094.382-.235.021-1.376-.176-2.534-.062-1.328-.383-1.516-.682-1.941-.165-.4-.042-.875-.041-.886-.506-.688-.538-.527.021-1.412-.144-1.009-.2-2.232,1.786-.377,1.137-.047.7-.009.755.056.775-.188.31-.886.062-.65-.641-.877.217-1.346.227-.81.352-.687.217-.782-.01-.471-.155-.7.051-.387.361-.735.869-1.46.011-.462-.372-.414-.29-.33-.02-.348.259-.339.424.131.527.3.393.236.31-.048.093-1.431.289-.923.135-1.046.445-1.46.465-1.9.02-.585.218-.367.443-.3.538-.17.755-.112.589-.169.692-.414.981-1.046,1.044-1.479.361-.5.052-.613-.218-1.055-.093-1.884-.052-.668-.207-.81-.237-.677.093-2.883-.341-.4-.8-.122.331-1.611.073-.791.383-.235.288-.622.28-1.177.2-1.451,1.158-.048,1.282.039,1.281.037.836-.066.3-.612-.01-.65-.3-.575-.9-.989-.3-.16-.5-1-.445-1.016-.134-1.31v-1.62l.031-.641-.289-.527-.62.009-.661.151-.857.094-1.4.1-.672-.053-.082-.221-.01-.8.062-1.163.341-2.153.1-1.3.187-.876" transform="translate(-1436.279 -916.391)"  stroke="#fff" stroke-linecap="square" stroke-linejoin="bevel" stroke-width="1" fill-rule="evenodd"/>
      <text id="talId164count" transform="translate(11.209 54)" fill="#fff" font-size="10"  font-family="OpenSans-Bold, Open Sans" font-weight="700"><tspan x="0" y="0"></tspan></text>
    </g>
    <g id="_168_Partur" data-name="168 Partur" transform="translate(2362.426 1592.243)">
      <path id="talId168" fill="#7DB8EC" title="Partur" data-name="Partur" d="M1501.051,923.955l-.186-1.263-.227-.961-.455-.97-.207-.49-.145-.319.093-.283.692-.085,1.147.094.641.471.4.357.216.378.1.546.363.621.412.434.477.1.569-.547.215-.187.5.009.487.179.63,1.074,1.034.32.568.5.3.358.7.16.589-.038.186.094.352.292.331.16.537-.349.268-.292.145-.527-.03-.442-.27-.509-.133-.471.113-.405.931-1.14.547-.075h.775l.392.235.475.405.321.075.413.019.6.133.723.8.486.339.7.245.186-1.6.073-.969.247-.528.218-.7.868.81,1.229-.2,1.065-.047,1.808.273.765.263.516.142.693-.085.547-.283.879.057,1.406.227.165.545.052.584.248.425.93.2.785.132,1.313.386,1.694.452,1.188.942,2.119,2.006-.507,1.9-.546,1.725-.559,2.834-.154.839,1.136.376,1.168.255.785.236.435.329-.02.538-.2.4-.465.4-.155.423.072.575.093.48.4.951,1.178,1.441.455.311.187.5.03.293-.144.376-.042.378v.282l.144.254.32.254.455.386.589,1.009v.394l-.093.49-.444.575-.144.612.061.7.249.575.155.452.187.444.2.385.454.462.558.433.455.283.8-.339.424-.339,1.2-.112.754.264.434.4.486.584.052.415.238.688.114.547.01.47.123.5.206.349.445.434.145.019.63-.076.331-.094.464.17.321.481.1.461.372,1.064.424.255.611.141,1.033.434.258.287-.072.045-.29.628-.227.587-.218.608-.382,1.174.01,1-.165.747-.042.71.042.886.269.1.556.155.312.248.124.252-.156.3-.372.664-.2.592-.02.385-.063.809-.34.952-.29.788-.4.88-.145.675-.135.494-.227.865-.135.618-.31.226-.465.021-.6-.036-.858-.2-.393-.15-.868-.093-.992,0-.061.376-.1.808-.134.618-.113.948-.145.484-.176.576-.134.246-.372.18-.4.284-.341-.474-.176-.17-.341-.186-.475-.031-.631.026-.393-.093-.454-.01-.3-.119-.269-.561-.455-.613-.62-.582-.331-.164-.31.277-.228.5-.475,1.05-.372,1.035-.321.941-.269.773-.258.844-.258.628-.352,1.22-.134.473-.94.036-.486-.149-.558-.124-.526.057-.042.592-.01.623-.393.8v1.884l-.3,1-.217,1.049-.186,1.632v.783l.775.046.486.052.031.582-.021.551-.01.335-.28,1.431-.3.777-.362.73-.248.454-.186.845-.134,1.415-2.14.118-.588-.087-.258-.041-.694-.186-1.012-.077-.186.453-.1.294-.217.535-.238.633-.062.473.144.268.341.356.167.164.5.351.464.19.476.216.651.278.682.325.247.164.166.232-.062.494-.516.6-.476.407-.557.389-.579.434-.176.351-.083.413-.165.052-.31-.186-.331.041-.589.1-.475.01-.8-.176-.381-.269-.5-.052-.362-.185-.507-.145-.609-.145-.34.114-.352.433-.257.527-.125.743-.062.8.01.538.021.5-.01.486-.124.269-.289.021-.507-.021-.052.331-.207.672-.29.1-.31-.01-.258-.217-.507-.062-.433-.093-.435-.155-1.085-.351-.269-.134-.248-.114-.465-.072-.217.124-.238.464-.124.558-.094.4.01.372-.133.455-.042,1.074-.041,1.406.558.041.5-.01.341.382.332.331.32.227.258.207.124.238v.351l-.176.279-.392.557-.837,1.406-.826,1.137-.631-.682-.846-.723-.755-.538-.7-.278-.992-.176-.972-.238-.465-.2-.538-.175-.445-.052-.4.114-.3.227-.435.372-.413.382-.672.237-.6.125-.393-.052-.6-.155-.445-.393-.1-.372-.011-.31.073-.331.2-.7-.01-.662-.383-.372-.6-.2-.868.186-.785.537-1.177.734-.259.082-.787-.011-.546-.134-.506-.238-.311-.269-.134-.372-.155-.837-.2-.568-.455-.393-.351-.083-.64.114-.434.175-.506.269-.383.547-.124-.331-.134-.516v-.661l.042-1.333-.114-.145-.62-.156-.629-.134-.931-.083-.207-.351-.01-.362.4-.413.785-.414.331-.765.021-.7-.187-.372-.32-.517-.434-.486-.672-1.064.083-.258.651-.326.517.094.589.16.506.042,1.064.051.971.062.713-.267-.155-.527-.248-.444-.279-.48-.094-.47-.32-.405-.331-.255-.052-.358.321-.612-.093-1.178-.1-.565.123-1.083-.33-.423-.579-.2-1.405-.292.186-.453.228-.546-.01-1.695.837.018,1,.018,1.468-.046.681-1.922.321-1.309.279-.584v-2.967l.279-1.093.8-1.168,1.177-1.714.631-.753.135-.754.031-.518v-.641l-1.095-.377.195-1.054.1-.509.269-.782-.331-.97.331-2.233.145-.433.279-.688.228-.556.072-.537.041-1.225-.29-1.111.661-.641.806-.782.373-.527.227-.82.145-.989-.083-1.677-.558-1.667-1.55-2-.114-.338.31-.782.424-.933.547-.895.445-1.4-.145-1.7-.207-2.421-.579-3.269.217-.8.28-.555.185-.744.1-1.009.878-.047.827-.057.877-.094.59-.235.547-1.215.155-1.856.372-2.486-.01-.716.134-.537.186-.726-.073-.611-.868-.293-1.147-.234-1.219-.029-1.157-.659-.786-.3-.135-.235.01-.745.082-.687.1-.659.342-1.328.8-1.272.26-.753.114-.556.082-.81.093-.772-.041-.566-.145-.519-.433-.3-.4-.048-.465.019-.817.066-.641-.027-.414-.19-.093-.659-.113-.866-.1-.139-.217-.012-.31.066-.435.236" transform="translate(-1493.59 -919.207)"  stroke="#fff" stroke-linecap="square" stroke-linejoin="bevel" stroke-width="1" fill-rule="evenodd"/>
      <text id="talId168count" transform="translate(18.149 52.1)" fill="#fff" font-size="10"  font-family="OpenSans-Bold, Open Sans" font-weight="700"><tspan x="0" y="0"></tspan></text>
    </g>
    <g id="_167_Mantha" data-name="167 Mantha" transform="translate(2382.728 1538.192)">
      <path id="talId167" fill="#7DB8EC" title="Mantha" data-name="Mantha" d="M1517.893,920.952l.114-.5-.114-.632-.362-.23-.424-.109-.537-.118-.527-.094-.527-.075-.805-.141-.63-.161-.28-.311-.3-.527-.062-.344.021-.273.733-.946.9-1.22.257-.641.052-.6.135-.41.165-.457.166-.4.682-1.21.257-.707.6-1.059.393-.6.072-.541.2-.711.123-.424.4-.142.61-.1.785-.01,1.56-.066,1.364.052.464-.348.651-.015.693-.057.31-.287.228-.334.4.009,1.539-.124,1.4-.6.9-.235,1.27-.141.858-.009,2.48-.066,1.157-.33,1.344-.075.579-.1.164-1.394.02-.631.156-2.958.04-2.336.373-1.4-.351-.81-.259-.254.041-.612.342-.735.382-.791.373-.688.629-1.13.921-.18.506-.291-.021-1.037.031-1.149.29-.932.424-.792.217-.368.082-.49-.424-.414-.889-.415-.982-.566-.61-.15-.682-.123-.32-.112-.5-.585.247-.763.031-.556-.01-.536.145-.4.62-.226.486-.424-.031-.442-.33-.416-.083-.579.785-.005.631-.245.744-.753.2-.109.279-.183.393-.414.672-.225.361-.02.29.1.352.151.33.094.341.047.362.037.186-.151.166-.273.371-.641.145-.306.144-.32.1-.311.062-.26.145-.169.28.01.2.075.371.137.476-.34.423-.339.384-.122.206-.3-.112-.772.02-.537.082-.49.094-.49.631-1.261,1.209-2.068.217-.349.176-.563.062-.251.165-.217.228-.15.433.136.2.343.175.151.259.137.268.122.341.24.289.133.279.236.342.32.393.4.257.207.269.156.176.094.187.16.248.273.2.415.031.532.1.33.092.264.145.316.227.272.187.2.186.1.31.019.454-.194.259-.179.382-.188.258-.108.372-.255.186-.235.155-.09.011-.273v-.269l.424-.833.134-.386.207-.344.155-.17.392-.1.827-.089,1.519.137.847-.057.816.052,1.023.071.652.033.8.114.5.268.289-.042.206-.16.476-.344.2-.184.228-.193.361-.2.362-.151.475-.056.61.109.4.3.445.3,1.074.222.786.052,1.126-.019,1.55-.053,1.313-.1,1.292-.018.372.028.227.051.01.236-.041.349-.166.621-.228.876-.073.928.114,1.143-.01.871.154.872.238.188.279.16.31.2.352.316.155.136.258.1.29.132.206.207.062.363.134.4.383.565.227.442.218.387.258.306.589.154.32-.023.258-.014.208-.067.154-.188.2-.132.259.009.352.132.227.248.011.378-.093.391.042.236.1.245.144.141.3.061.28.043.342.113.692.278.776.409.33.221.2.118.041.25-.072.231-.1.193-.134.226.03.343.2.165.145.3.021.329.042.3.134.377.082.672-.836.077-.393-.057-.465.009-.382.2-.373.108-.269-.076-.443-.264-.207.095.052.32.155.429.071.3.052.556.166.339.041.3-.145.307-.4.348-.125.5-.175.472-.176.259-.217.24-.186.085-.32.07-.361.024-.1.575.093.668.031.471-.3.673-.021.444.021.19.237.422.176.34.175.443.062.551.062,1.1-.155.546-.382.5-.072.613h-1.4l-1.24-.036-.362.278-.414.087-.289-.041-.134-.186-.412-.04-.445.025-.32-.076-.414-.216-.434.061-.175.318-.248.927-.082.7v.773l.143.772.4.665.837.936.672.412.433.453.331.16.507.071.65.2.476.112,1.023.1.465.041.372.236.1.314-.073.741-.145.541-.082.654-.6-.078-.372-.021-.641-.206-.528-.145-.547.124-.414.366-.4-.258-.34-.272-.889-.037-.124.614-.021,1.307-.051.463-.268.494-.455,1.462-.475.145-.992-.01-1.674-.17-1.5-.072-.919.123-.041.618-.072.366-.29.736.1.628.31.674.207.531v.844l.216.252h.259l.413.042.424.051.588.144.569.1.847.232.744.082,1.168.134-.094,1.668.166.675.382.5.073,1.318.216.721.145,1.606-.041,2.743-.01,1.128h-.609l-.363-.143-.392-.1-.414.036-.5-.035-.683-.084-.4-.206-.445-.01-.135.221-.052.624-.041.257-.135.592-.279.772-.309.834-1.571.01h-.475l-.414-.143-.289-.1-.4.2-.269.334-.145.366-.238.813-.258,1.256-.2.824-.166.637-.248.469-.217.514-.01.432.1.052.559.042.754.041.724-.016.154.057.166.247.165.458.187.443-.083.494-.3.695-.361.85-.094.962-.093,1.447-.175.484-.28.221-1.291-.016-.61-.031-.682.629-.3.355-.526.865-.548.756.083.211.31.144.392.133.486.212L1566,944l-.114.4-.082,1.457-.145.309-.114.242.155.3.424.093.5.066.5.047.537.037.506.195.1.17.052,1.024-.176.428-.33.72-.093,1.333-.248.278-.165.381.072.309.33.447.011,1.164-.021,1.431-.33,1.565-.206.5-.135.336-.217.1-.309-.021-.3-.169-.341-.15-.063.355-.175.284-.62.278-.641-.011-.672.1-.785.252-.146.5-1.156.072-.5-.01-.62-.1-.062-.262.01-.572-.538.032-.5-.191-.826-.17-.506-.016-.744-.149-.662.1-.2.8-.082.634-.175.551-.569-.093-1.146-.4-.6-.257-.651-.2-.641-.278-.166.1-.258-.287-1.033-.433-.609-.141-.423-.254-.372-1.064-.1-.462-.32-.481-.464-.169-.331.094-.631.075-.144-.018-.444-.433-.207-.35-.124-.5-.01-.47-.113-.547-.238-.688-.051-.414-.486-.584-.434-.405-.755-.264-1.2.113-.423.34-.8.339-.455-.283-.557-.433-.455-.462-.2-.385-.185-.443-.156-.452-.249-.574-.061-.7.145-.613.444-.574.093-.489v-.4l-.589-1.008-.454-.387-.321-.254-.145-.254v-.282l.042-.377.145-.376-.031-.292-.186-.5-.455-.311-1.178-1.442-.4-.951-.092-.48-.073-.575.154-.424.465-.4.2-.405.021-.537-.434-.329-.785-.236-1.167-.254-1.138-.376.154-.839.559-2.834.548-1.725.506-1.9-2.118-2.006-1.189-.942-1.694-.453L1529.85,924l-.786-.133-.93-.2-.248-.424-.052-.584-.166-.546-1.405-.226-.877-.057-.548.283-.693.085-.516-.141-.765-.264-1.808-.274-1.065.047-1.23.2-.868-.81" transform="translate(-1513.439 -866.857)"  stroke="#fff" stroke-linecap="square" stroke-linejoin="bevel" stroke-width="1" fill-rule="evenodd"/>
      <text id="talId167count" transform="translate(21.848 50.15)" fill="#fff" font-size="10"  font-family="OpenSans-Bold, Open Sans" font-weight="700"><tspan x="0" y="0"></tspan></text>
    </g>
  </g>
</svg>
