<svg xmlns="http://www.w3.org/2000/svg" width="203.698" height="300.496" viewBox="0 0 203.698 300.496">
  <g id="kolhapur" transform="translate(-1736.125 -1101.753)">
    <g id="kolhapur-2" data-name="kolhapur" transform="translate(1736.375 1102)">
      <path id="talId54" fill="#7DB8EC" title="Shahuwadi Taluka" d="M1008.59,1573.236l-.17-1.039-.17-.283-.387-.255-.529-.638-.425-.387-.283-.442-.178-.425-.85-.622-.831-.077-.754.134-.538.263-.406.31-.378.283-.453.263-.453.038-.329-.047-.482-.151-.387-.179-.425-.614-.2-.727-.17-.521-.123-.527-.228-.425-.359-.244-.606-.027-.516.019-.542.1-.542.453-.361.461-.5.376-.425.228-.472.1-.327-.244-.293-.576-.274-.378-.361-.463-.189-.34-.2-.425-.138-.425.094-.37.37-.359.285-.225.093-.576.026-.773.112-.3.387-.453.062-.33-.034-.472-.223-.34-.336-.159h-.472l-.929-.047v-.489l.13-.4-.213-.584-.412-.359-.55-.472-.765-.727-.576-.444-.448-.132-.285.076-.213.519-.145.5-.38.236h-.336l-.249-.161-.37-.31.172-.283.094-.291v-.34l-.232-.093-.448-.1-.61-.3-.8-.112-.508-.047-.483-.085-.266-.266-.283-.321-.059-.351.293-.4.568-.425,1.47-.9.24-.2.378.212.242.453.213.323.567-.132.249-.244.13-.225.525-.671.249-.463.31-.212.533-.019.386.293.293.387.4.359.44.376.464.227.425.028.425-.066.455-.376.164-.115,1.075-1.377.663-.9.251-.593.077-.406-.336-.8-.25-.321.147-.321.293-.263.189-.263.138-.529-.232-.51-.425-.348-.731-.7-1.721-1.18-.807-.935.051-.935.043-1.009.062-.727.119-.584v-.283l-.249-.425-.448-.019-.455.272-.344.321-.4.244-.344-.019-.121-.387-.034-.425.129-.34.2-.33.087-.3-.249-.5-.212-.293-.026-.356.146-.368.232-.332.482-.046.257.34.085.527.164.472.2.376.266.453.344.178.389-.019.37-.212.212-.189.31.121.223.387.361.227.344.151.5-.131.189-.274.094-.425.121-.518.425-.159.31.255.31.159.378.14.285-.038.3-.151.191-.151.325-.246.3-.047.948.274.255.3.283.162h.387l.312-.213.225-.425.113-.406.472-.593-.066-.482-.093-.37-.212-.348-.019-.3.472-.212.282-.189.1-.348.047-.453-.113-.425-.227-.283-.213-.178-.213-.425-.076-.228-.2-.472-.244-.285-.293-.546-.359-.444-.4-.321-.3-.212-.442-.255-.31-.213-.361-.332-.9-1.009-.3-.483-.259-.357-.319-.225-.425-.151-.138-.178-.059-.638.325-.688.336-.5.242-.321.4-.293.3-.143.542-.151.816-.793.414-.85.283-.623.227-.472.066-.266.255-.746.283-.348.68-.057.716.019.661.141.538.134.425.121.425.112.612.244.51.2.453.1.669-.2.963-.058.7.058.472.055.792-.124.3-.212.028-.538.1-.565.14-1.237v-.5l-.159-.51-.31-.406-.274-.425-.055-.7.077-.461.244-.425.3-.48.038-.85-.368-.793-.349-.387-.716-.6-.6-.557-.2-.34.17-.661.34-.4.34-.255.623-.689.387-.48.264-.378.132-.587-.151-.321-.293-.425-.387-.212-.3-.162-.557-.161-1.423-.637-.878-.038-.584.178-.461.159-.31.1-.312-.123-.1-.623.113-.727.076-.7.151-.971v-.614l.161-.557.028-.51-.274-.4-.688-.442-.878-.831-.31-.3-.283-.212-.212-.057-.31.1-.65.212-.34-.113-.348-.3-.227-.4-.161-.425-.312-.754-.028-.453-.138-.538-.378-.283h-.474l-.48.057-.542.038-.344-.057-.291-.189-.7-.877-1.358-1.651-.8-.6-1.309-.754-.55-.057-.31.212-.274.359-.212.48-.181.359-.344.1h-.533l-.637-.178-.723-.408-.542-.189-.973-.774-.55-.6-.455-.5-.276-.425-.336-.914-.37-.368-.552.019-.731.264-.638.265-.378.151-.954.181-.618-.03-.516-.425-.189-.425-.147-.916-.026-2.369.782-.5.85-.406.7-.212.584-.33.912-.425.251-.85.686-.213.378-.17.516.038,1.007.612.68.1.782-.066.861-.178.508-.162.283-.2.387-.378.412-.321H991l.147.425-.026.716.172.907.121.244-.026.244-.146.37-.2.225.034.51.231.368.285.425.508.37.336.047.612-.066.266-.123.508.019.472.093.491.094h.425l.448.1.37.187.274.3.387.212.412-.1.482-.212.212-.293.076-.4-.085-.263-.319-.236-.463-1.037-.533-.406.026-.34.017-.614-.068-.5-.276-.425-.127-.472.127-.4.361-.085.425-.085.378-.1.212-.235-.026-.529.37-.212.448.074.552.123.529.2.576.181,1.133.387.225.113.425.425.4.638.754.246.557-.027.453-.058.765.085h.729l.546.055.491.132.708.348.708.406,1.094.688.963.735.453.255.425.283.461.283.529.332.623.425.916.963.212.367.019.952.028.272.359.321.51.236.567.321.151.178.329.2.8.178.321.047.038.2.057.113.123.1.244.1.264.123.264.151.17.1.077.159.027.1v.066l-.038.106-.1.074-.161.038-.2.038-.225.027-.132.066-.143.142-.074.212.019.113.074.077.047.074v.124l.028.085.019.066.028.085.094.2.159.359.066.123.074.046h.1l.074-.027.066-.03.085.03.113.075.1.055.094.057.17.093.123.1.236.212.228.3.066.132.1.113.066.066.123.076.085.047.2.1.244.142.236.266.213.159.066.1.113.058.1.027.17.047h.9l.189.066.132.047.121.132.17.247.038.028.113.038.112.028.123.055.047.093.236.387.255.348.132.123.1.1.019.1-.132.312-.047.066-.085.1.028.066.085.143.028.1-.028.123v.3l.066.178.1.18.019.212v.236l.038.212.123.387.213.444.132.212.2.189.142.151.178.179.227.162.661.212.2.113.066.038.085.087.047.1.047.151-.019.159-.028.132-.047.123-.047.113-.028.112v.074l.028.076.066.028.094.027.1-.047.057-.057.085-.085.066-.094.142-.113.094-.076.057-.1.066-.112.085-.075.1-.066.085-.047.14-.019h.518l.162-.019.17-.027.227-.038.321-.019.274.057.212.066.142.1.132.093.066.066.057.1.057.1.028.113.047.057.1.076.1.066.161.058.2.019.213.085.312.236.066.113V1506l-.055.1-.057.093-.047.076-.019.055.019.113.066.132.057.076.028.085.066.093.066.057.066.028.094.028.132.027.1.03.132.055.1.019.17.038h.213l.236.019h.213l.159.055.282.113.047.057.057.094.019.112-.028.075-.074.066-.057.066-.028.076v.217l.047.077.077.066.132.057.1.038.113.028h.094l.085.019.112.02h.085l.113-.028.085-.038.123-.047.123-.057h.14l.282.066.368.212.123.123.094.143.076.236.074.3v.406l.057.085.085.066.181.132.2.112.212.14.161.143.378.482.359.331.637.916.321.587.094.113.151.057h.285l.123-.027.123-.066h.178l.178.151.085.151.055.142.066.17v.255l-.047.357.057.482-.019.812.019.283.019.49-.113.519.019.973-.161.809-.085.189-.074.1-.17.085-.212.019-.16-.03-.212-.055-.225-.077-.283-.038h-.178l-.113.113-.047.093-.057.151v.245l.123.236.112.151.2.255.123.132.047.153-.038.255-.028.291-.142.367v.274l.019.31.066.285.132.463.236.293.113.159.123.066.1.027.077.019h.077l.1-.038h.123l.132.019.151.047.2.085.132.1.161.049.274-.019.189-.028.112-.047.368-.228.142-.085.151-.055.085-.047.094-.076.057-.066.028-.123.028-.272.028-.142.03-.113v-.093l-.047-.17v-.217l.019-.055.038-.1.047-.1.055-.077.047-.066.066-.055.1-.038.113.019.074.075.115.066.159.057.132.066.161.066.179.046.2.066.123.093.085.143.057.274.094.189.2.113.1.027h.074l.359-.085.321-.1.151-.027.2-.02.151.066.038.113.123.151.038.068.076.074.057.1.094.113.1.066.113.085.329.124.17.047.247.038.244.036.161.03h.905l.159.055.236.123.2.123.264.151.113.178.057.2-.047.14-.1.178-.047.077-.047.085-.066.113-.077.132-.038.113-.038.244v.236l.055.132.028.132v.17l-.057.213-.244.387-.066.178-.019.283.057.359.212.378.1.057.178.019.213-.027h.181l.151.057.057.113-.019.112-.094.212-.066.3-.077.077-.113.038-.1.028-.2-.028-.113-.019-.17-.046-.151-.02-.132.055-.113.2-.028.1-.019.123.028.141.057.1.066.074.113.14.076.123.094.142.085.1.368.236.161.047.142.028.151.038.132.055.142.085.055.123v.236l-.028.332-.123.357-.181.368-.48.386-.027.074-.113.17-.077.143-.028.1v.142l.028.132.066.1.066.019h.244l.189-.019.263.074.213.038.14-.03.085-.055.151-.077.1-.074.115-.038.189.027.189.143.576.321.17.142.142.1.047.17-.077.614-.038.151-.066.212-.047.17.038.18.159.311.123.112.143.159.085.123.028.168-.093.293-.1.178v.1l.038.151.074.055.113.057.093.027.1.066.123.038.112.027h.113l.123-.057.2-.074.312-.047.227.066.178.057.181.094.113.066.1.066.066.113v.278l.028.1.094.123.264.368.113.212.066.077.066.047.093.038.151.038.212.055.212.162.425.274.227.1.123.046h.508l.212.055.17.038.123.055.1.124-.047.34-.057.291-.057.212-.047.085-.066.124-.028.14.019.076.057.142.093.132.151.085h.1l.189-.038.179-.058.17-.036h.213l.212-.019.178-.066.213-.094.425-.376.123-.1.123-.1.14-.074.181-.027.283-.038.244-.074.312-.2.132-.113.225-.162.213-.236.425-.612.1-.189.162-.247.123-.151.066-.113.094-.123.093-.074.094-.066.244-.028.244.132.094.162.085.142.1.151.132.151.17.159.212.263.085.213.212.255.047.538.548,1.435.123.916-.263,1.179-.952,1.179-1.179,1.179v1.133l-1.1,1.063-.85,1.6-.51.047-.727.548-.077,1.245-3.283,3.2-1.075,1.972-.718.737-1.275.132-.527.036-.348.213h-.4l-.321-.213-1.793.02-.453-.2-2.323,1.141-.782,1.462-.028.6-.368.425-.6.1-.623-.1-.444-.019-1.6,1.991-.066.5-.51,1.063-.85.151-.82.821-.038,1.358.565,1.009.038.48-.519.368-1.075.737-1.33.925-4.227-.784-1.912-.017-.425.14-.773-.321v.425l.565,1.045v.637l.378.867-2.775.9-.982.047-.425.236-1.642.925-1.876.019-.266.212-1.84-.038-.538-.34-1.062.2-.886-.1-.7-1.084-.7-.2-1.4.151-.321.179h-.27l-.283-.123-1.018-.028-.557.113-3.5.027" transform="translate(-980.051 -1482.365)"  stroke="#fff" stroke-linecap="square" stroke-linejoin="bevel" stroke-width="0.5" fill-rule="evenodd"/>
      <path id="talId52" fill="#7DB8EC" title="Panhala Taluka" d="M1068.808,1543.031l.038.637.236.48.669.518.688.877.378.886.472.637.283.313.82.055.367.17.255.236.444.387.359-.132.491-.425.68-.321.623-.49.386-.444.5-.867.123-.236.312-.212h.132l1.018-.548,1.207-.338.274.027.5.244.688.212.425.321.5.521.359.245.529.212.782-.057.576-.1.774-.038,1.094.246.283.093.368-.057.293-.159.123-.151,1.6,2.858.9,2.169-.246,2.471-.246,1.728,1.417,1.471-.622,1.963-1.755,1.487-.886,1.341-.244,1.651.038,1.415.548.272.793-.244.5.425-.678.406.094.538.612.716v.595l-.293.623-.754,1.651-.51,1.062-.189.689.212.508.019.7.236.491v.482l-.727.519-1.132.212-.483-.038-.312-.9-.212-.367-.638.057-.754-.027-1.349-1.275-.376-1.547-.548-.792-.244-.651-.376-2.125-.718-.453-.453-.48-2.235-.652-.17.027-.17.313.519,2.169v.483l-.661,2.125.038,2.027-.1.754-.17.311-1.519.348-.48.274-.34.442-.038.85,1.133,1,.1,1.1-.1,1.062-.236.518-.754.584-.48.754-.831,2.2-.549.584-.584.244h-1.585l-1.509-1.377-1.377.51-1.237.1-1.1.386-.962-.762-.727-.963-.584-.213-.65.313-.442.482-1.487,1.063-.754.933-.283,1.407.557.831.963.99.038.31-.31.727-.142,1-.548.718-1.69.425-.963.716-.17.31-.141,1.519-.17.236-2.235,1.237v.348l-.831,2.068-.3.34-2,1.377-1,1.207-.2,1.2.784,1.925.1.831.793.963-.378.586-.638.357-1.275.708-.378.1-2.586-.586-1.062-2.125-.378-1.717-.483-.425-.688-.246-1.585-1.632-.34-.51-.1-.6.094-.2.159-.085.482-.027.68-.623.274-.274.028-1.487.557-.444.652-.963v-.9l.245-.518.82-.378.274-.48.376-1.887.1-1.377.518-.378.546-.14,1.171.17.765-.066.576-.425.453-.963.754-.623.066-.34-.378-.9-.754-.689-.274-.586-.688-.48-.584-.213-1-.027-1.3-.557h-.661l-.82.765-.793.34-1.062-.212-2.471.17-.491,1.275-.48.349-.718.9-.727.376-1.377,1.275-2.1.689-.792.886-.793-.132-1.237-.038-.584.31-.17.689-.349.17-1.755-.038-.3.245-.142.548-.519.763-.962.444-2.337.425-.584-.143-.31-.236-.584-.074-.85.622-1.062.213-.587-.453-.406-.65-3.925-.9-.65-.65-.774-.65-1.774-1.415-1.528-.213-.68-.212-.51-.225-.329-.17-.359-.236-.378-.244-.4-.472-.529-.8-.3-.425-.3-.057h-.293l-.387.019-.14-.143.028-.264.123-.263.8-.765.637.151.5.1.51-.2.244-.4.4-1.141.123-.924.4-.463.453-.557.293-.463.584-.661-.48-.557-.264-.31-.236-.143-.7-1.385,3.5-.027.557-.112,1.018.027.283.123h.225l.321-.178,1.4-.151.7.2.7,1.086.886.1,1.062-.2.538.34,1.84.036.266-.213,1.876-.019,1.642-.927.425-.236.981-.047,2.773-.9-.376-.867v-.638l-.565-1.048v-.425l.773.321.425-.14,1.912.019,4.227.784,1.33-.925,1.075-.735.519-.367-.038-.48-.567-1.011.038-1.358.82-.82.85-.151.51-1.062.066-.5,1.6-1.991.444.019.622.093.595-.1.368-.425.027-.6.784-1.462,2.32-1.143.453.2,1.793-.019.321.213h.4l.348-.213.529-.038,1.275-.132.716-.735,1.075-1.972,3.283-3.2.077-1.245.727-.546.51-.049.85-1.6,1.1-1.062V1548.9l1.18-1.18.952-1.179.264-1.179-.123-.916-.546-1.434-.047-.538.189.058.283.085.637.057.312-.019.189-.019.178-.047.151-.066.142-.074.236-.1.245-.113.85-.189.225-.066.213-.027h.2l.213.019.282.066.213.1.162.178.1.212-.066.236-.132.244" transform="translate(-981.604 -1485.798)"  stroke="#fff" stroke-linecap="square" stroke-linejoin="bevel" stroke-width="0.5" fill-rule="evenodd"/>
      <path id="talId49" fill="#7DB8EC" title="Hatkanangale Taluka" d="M1141.484,1554.063l1.029,1.062.387.425.1.293.093.963.293.376.066.038.066.151.162.213.066.189v.98l-.066.482-.332,1-.14.963-.255,1.4v.637l.123.5.028.812-.293,1.237-.255.246-2.068.593-.6.622-.255.225-.754.774-.151.189-.121.293.027.1.263.425.65.637.5,1.424.047.085.142.585.019.387-.143.548-.066.17v.707l.085.529.151.31.123.123.4.123.255.019,3.612-.727,1.152.143.266.093-.019.386-.057.066-.274.123-.085.51.057,5.236-.367.444-.34.793-.669.895-.538.5-.189.274-.151.5v.529l.227.831.132.236.812.831.6.236.782.123.5.038.576.213.189.293.2.622.2,1.462v.378l-.161.925-.019.869-.212.971-.244.178-.708.3-1.67,1.018-.236.1-.943.546-.85.538-.5.1-.637.31h-.17l-.31-.066-.212.085-.085.264v.274l.189.425.038.51-.568,1.062-.274.774-.094.244.159,1.426,1.275,2.065,1.339,3.472-7.084,1.275-2.273,2.858-4.539.7-1.651,2-1.275-2.293-.161-.376-.066-.359v-1.062l.123-1.547-.161-.584-.113-.245-.085-.595-.077-.074-.548-.4-.935-.189-2.367.038-.584.142-.538.2-.99.055-.351-.1-.123-.143-.151-.48-.047-.047-1.062-.425-.546-.066-.151.066.028-.519.189-.529.246-.606.212-.332.614-.51.85-.463.159-.227.17-.461v-.85l-.4-.31-1.114-.34-.14-.17-.047-.225-.1-.718.321-.869.329-1.218v-.637l-.151-.568-.076-.529v-.48l.142-.754.212-.519.236-.963.538-1.443.359-.5.637-.329-.038-.085-.274-.245-.85-.49-.678-.765-.51-.255-.584-.425-.244-.735-.047-.793-.142-.529.038-.954-.085-.212-.482-.829-.332-.4-.357-.546-1.171-1.188-.425-.274-1.237-.085-.255.066-.266.212-.189.291-.291.17-.718.367h-.213l-1.084.839-3.719.774-1.406-.425-1.453-2.112-.028-.1-.085-.378-.019-.638-.17-.455-.038-.189-.019-.151.057-1.566-.227-.461-.019-2.125-.189-.7-.189-.425-.019-.189.076-.274.2-.179.472-.132,1.152-.142.359-.17.1-.425v-.34l-.213-.623-.1-1.086-.123-.51-.2-.455-.18-.236-.442-.331-.943-.425-.329-.17-.963-.274-.746-.34-.3-.312-.085-.162v-.34l.244-.6-.036-.085-.444-.774-.066-.65-.291-.482-.331-.189-1.02-.038-.51-.083-.293-.17-.291-.057-.453.213-.189.425-.425.236-.576.179h-.5l-.811-.227-.565.367-.5-.425-.793.244-.546-.274-.038-1.415.245-1.651.888-1.341,1.753-1.487.622-1.963-1.415-1.472.246-1.728.245-2.471-.9-2.17-1.6-2.858.112-1.19.159-1.1.293-.877.425-.442.782-.212.51.047.228.2.236.508.159.472.4.444.387.584-.028.982.1,1.009.085.519.34.472.586.453.236.057.348-.1.557-.123.831-.019.444-.066.376-.321.142-.529.386-.637.17-.637.212-1.048.123-.518.321-.37.332-.244.425-.266.368-.151.31-.047.425.093.461-.14.406-.425.584-.565.869-.482.489-.213h.444l.321.3.085.255-.075.7.48.924.584,1.407.567.905.7.669.518.2.546.123.614.319.34.019.425-.142.623-.131.425.047.463.34.189.2.425.189.3.247.444.554.425.812.283.482.442.212h.425l.5-.189.442-.425.359-.1.34.17.453.34.557.378.255.368.264.225.236.115,1.4.064.225.49-.1,1.124v.708l.293.425.661.5.264.51.074.225.189.085.178-.027.212-.132.236-.263.274-.293,1.094-1.237,1.387-1.33,1.084.027.518-.132.246-.2.1-.378.283-.527.971-.927.65-.527.5-.255h.2l.159.038.085.247-.132.212-.2.225.093.274.225.357.406.123.444-.178.425-.34.425-.17h.283l.123.019.113.038.085.066.077.057.047.066.019.058.03.047v.283l-.085.113-.036.074v.142l.019.093.093.6.038.293-.028.142-.027.132-.132.17-.093.132v.244l-.027.321-.189.213-.151.1-.213.093-.123.047-.113.094-.121.123-.227.425-.123.312-.1.34-.357.565-.142.264-.019.112v.085l.057.123.123.151.293.463.442.291.228.134.444.112.3.121.17.085.255.028.255.027.151.019h.737l.236-.019.213-.085.255-.085.491-.293.274-.236.085-.1.123-.057h.546l.17-.066.085-.066.161-.178.245-.247.246-.1.263-.047h.6l.351.038h.236l.3-.055.244-.085.263-.17.548-.18.312.019.227.085.213.1.159.055h.213l.236-.027.378-.213.255-.425" transform="translate(-986.337 -1485.73)"  stroke="#fff" stroke-linecap="square" stroke-linejoin="bevel" stroke-width="0.5" fill-rule="evenodd"/>
      <path id="talId55" fill="#7DB8EC" title="Shirol Taluka" d="M1143.735,1597.882l-.038-.51-.189-.425v-.274l.085-.263.213-.085.31.066h.17l.638-.312.5-.1.85-.538.943-.548.236-.1,1.67-1.02.708-.3.246-.179.212-.973.019-.867.162-.925v-.376l-.2-1.462-.2-.623-.189-.291-.576-.213-.5-.038-.784-.123-.6-.236-.812-.831-.132-.235-.227-.831v-.527l.151-.5.189-.274.538-.5.669-.9.34-.793.368-.444-.057-5.235.085-.51.274-.121.057-.066.019-.387-.266-.093-1.152-.142-3.612.729-.255-.019-.4-.123-.123-.121-.151-.312-.085-.529v-.708l.066-.17.143-.546-.019-.386-.142-.585-.047-.085-.5-1.424-.65-.638-.264-.425-.027-.1.121-.291.151-.189.754-.773.255-.227.6-.622,2.068-.6.255-.244.293-1.237-.03-.811-.123-.5v-.638l.255-1.4.142-.964.332-1,.066-.48v-.981l-.066-.19-.162-.212-.066-.151-.066-.038-.293-.379-.093-.963-.093-.293-.387-.425-1.029-1.063.368-.376.614-.68.178-.386v-.31l.1-.491.151-.321.213-.179.17-.085.2-.055.213-.03.387.093.321.1.321.113.472.123.519.321.17.162.093.093.066.085.189.368.113.283.151.123.142.1.178.019.17-.019.151-.019h.565l.3.189.244.178.123.159.159.6-.038.263-.066.275-.264.491-.112.291-.074.266.027.905.2.782.123.595.085.5.085.244.321.463.255.085h.225l.17-.055.093-.1.038-.121v-.151l.019-.2.027-.179.113-.142.293-.159.482-.228.425-.321.368-.244.348-.14.213-.115.123-.085.113-.094.019-.085.019-.17-.085-.142-.132-.283-.038-.264v-.2l-.038-.587-.019-.4v-.274l.132-.519.213-.5.274-.3.159-.038.17.038.066.1v.45l-.038.17-.03.181v.123l.066.1.076.1v.047l.179.027.142.058.142.055.17.074.2.123.093.124.076.112.359.464.2.227.142.076.244.075.159.047h.189l.34-.066.189-.027.142.019h.142l.225.132.546.622.567.5.387.472.212.331.529.85.3.4.461.4.368.3.368.3.244.212.189.236.367.954.132.538v.444l-.038.3.019.34.066.329.057.3.159.266.33.212.85.274,1.679.425,1.972.238.708-.1h.9l1.179.123.661.17.7.212.614.359.85.5.688.414.491.255.557.34,1.717.638.4.425.213.368.244.51.236.33,1.32,1.086.31.5.057.349.038,1.953.038.425-.019.538.274.716.548.331.442.142.6.123.867.123.368.077,1.171.264.614.1.576.255.952.348.9.491,1.063.31.867.264,1.311.622.538.359.225.359.1.37-.03.225-.444.8-.283.6-.782,1.028-.212.321.019.17-.189,5.973-1.7,1.487,1.782.85-4.915,2.337-3.077,6.351,1.912.924,5.1,2.244.444,2.238-2.811.529-3.02,1.028-3.491-1.961-1.774,1.925-.321,4.981-2.367-.935-1.424,2.975-4.736.85-.272,1.679-2.463-.622-.264.538.094.255-.077.4-.6-.1-.491-.038-.179-.212-.236-.623-.669-.442-.538-.638-.359.047h-.652v-1.84l2.057-2.048-1.094-2.367-3.3.038.142-8.584-10.671.916-.076-.093-2.915-3.3-1.133-.244-2.367-.349" transform="translate(-988.945 -1486.387)"  stroke="#fff" stroke-linecap="square" stroke-linejoin="bevel" stroke-width="0.5" fill-rule="evenodd"/>
      <path id="talId51" fill="#7DB8EC" title="Karvir Taluka" d="M1091.211,1566.071l.565-.367.812.228h.5l.576-.179.425-.235.189-.425.453-.213.293.055.293.17.508.085,1.02.038.329.189.293.483.066.652.444.773.038.085-.246.6v.34l.085.159.3.31.746.34.963.274.332.17.943.425.444.329.181.236.2.452.123.508.1,1.086.213.623v.34l-.1.425-.359.17-1.152.143-.472.132-.2.178-.074.274.019.189.189.425.189.7.019,2.125.227.463-.057,1.566.019.151.038.187.17.453.019.637.085.376.027.1,1.453,2.114,1.4.425,3.719-.774,1.084-.85h.212l.716-.368.293-.17.189-.293.264-.212.255-.066,1.237.085.425.274,1.169,1.188.359.548.331.4.48.831.085.213-.038.952.142.529.047.793.244.735.584.425.51.255.68.765.85.491.274.244.038.085-.638.329-.359.5-.538,1.445-.236.962-.213.519-.142.754v.48l.077.529.151.565v.638l-.329,1.218-.321.867.1.718.047.225.142.17,1.114.34.4.31v.85l-.17.463-.159.225-.85.463-.614.51-.212.329-.245.6-.189.529-.027.518-2.065-.017-.963-.312-1.793.387-.444-.765-3.094.179-2.068.614-3.3,3.066-2.586.17-2.471.518-.65,1.509-.31,2.407-.763,1.039-2.575-.246-.519.312-.274.688.519,1.753,1.443,1.275-.244,2.169.933,1.508v1l-2.1.17-.784,1.063-1,.212-.212-1.133-1.171-1.487-.425-1.689-.442-.546-.623-.077-1.821,1.209-3.612,1.821-1.2,1.621-1.9.85-.246,1.1-.784.557-.793.9-.831-.038-1.062-.34-1-.762-.3-.614-.178-3.094-.442-.831-.444-.038-.557.212-1.3.1-.661-.066-.963-2.235-.1-.754.349-.378.548-.142.31-.48v-.962l-.236-1.621.236-.34.038-.482-.425-.349-1.443-.1-.244-.212-.17-.661-.376-.3-.518.028-1.443.425-.65-.066-.274-.351-.557-.132-2.822.614h-1.755l-.274-.236-.312-1.171-.688-.312-.3.17-.585.9-.661.444h-1.3l-1.519-.34-.444-.444-.274-.793-.274-.379-.765-.555-.093-.312,1.747-.716.244-.688.962-.213.31-.274.038-.376-.387-.9-1.062-.727-.708-.669.637-.357.376-.584-.793-.963-.1-.829-.784-1.925.2-1.2,1-1.207,2-1.377.3-.34.831-2.066v-.348l2.235-1.237.17-.236.142-1.519.17-.311.963-.718,1.689-.425.546-.716.142-1,.31-.727-.038-.312-.963-.99-.557-.831.283-1.4.754-.935,1.487-1.062.444-.48.65-.31.584.212.727.963.963.765,1.1-.386,1.237-.1,1.377-.51,1.511,1.377H1074l.584-.246.548-.585.829-2.2.482-.755.754-.584.236-.519.1-1.063-.1-1.1-1.133-1,.038-.85.34-.444.48-.274,1.519-.348.17-.312.1-.754-.038-2.027.661-2.125v-.48l-.519-2.17.17-.31.17-.027,2.235.651.452.482.716.453.378,2.125.244.65.546.793.378,1.547,1.349,1.275.754.03.638-.057.212.368.312.9.48.038,1.133-.213.727-.518v-.48l-.236-.491-.019-.7-.212-.51.189-.688.51-1.062.754-1.651.293-.622v-.6l-.614-.716-.094-.538.68-.406" transform="translate(-984.195 -1487.143)"  stroke="#fff" stroke-linecap="square" stroke-linejoin="bevel" stroke-width="0.5" fill-rule="evenodd"/>
      <path id="talId50" fill="#7DB8EC" title="Kagal Taluka" d="M1113.88,1669.178l.727.971-1.7.189.179,1.113,1.7-.189,1.859,4.426-2.435.593-1.207.293-2.282-1.668-.181-.69.1-1.4-.17-.425-.793-.132-1.062.444-1.679,1.169-1.379.425-.213.444.313,1.037-.038.612-.622.312-1.857.236-.406,1-.9.727-.652.274-1.377-.212-.519-.716-.482-.181-1.1-.85-.444-1.029-2.125-.557-.9-2.405.1-.689.378-.48v-.378l-.425-.688-1.341-.235-.9.132-1.094.831-3.066,1.2-1.2-.212-1.311.1-.274-.236-.142-1.132.142-.584,1.755-.213.51-.212.491-.688.17-.85v-1.379l-.213-1.613,1.132-.932.077-.82-.387-1.488-1.821-.519-.793-.718-.584-1.037-.483-1.407-.132-1.311.132-.65.521-1.037.1-.85-.933-1.443-.2-1.062-2.208-.793-.51-.718-.178-.793.142-.754.963-2.207.17-.793-.066-.689-.274-.48-.519-.274h-.444l-1.832.793-.85.691-1.34,3.574-.483.756-.623.178-.612-.14-1.487.1-4.509.963-.132-1.1v-.614l.1-.348.272-.213.066-.406v-.831l-.038-.213-.548-.793-.038-.2.074-.386.612-.576.425-.247.688-.244.482-.406.14-.661-.038-1.925.066-.212.378-.34.584-.274h.623l.378.027.584.1.584.244.518.066h.378l.519-.17.406-.754.285-.453.442-.925.066-.348.038-1.406.1-.519.132-.066h.348l.521.236,1.651.453.716.31.482.406.661.283.886-.178.425-.213.141-.131.03-1.339.178-.348.406-.213.213-.274.14-.716.132-.142,1-.168.376-.425.038-.17-.142-.349-.1-.1-.1-.17-.688-.444-.2-.17-.213-.31v-.378l-.213-.31-.754-.038-.283-.132-.1-.351-.2-.338-.765-.283-.132-.132-.212-.482-.17-.244-.244-.406-.34-.31-2.414-1.245.244-1.094,1.9-.85,1.2-1.622,3.612-1.821,1.821-1.207.622.077.442.546.425,1.689,1.169,1.487.212,1.132,1-.213.784-1.062,2.1-.17v-1l-.933-1.509.246-2.17-1.443-1.275-.519-1.755.274-.688.519-.31,2.575.244.763-1.037.312-2.405.65-1.511,2.471-.519,2.586-.17,3.3-3.066,2.068-.614,3.094-.178.444.763,1.793-.387.962.312,2.066.019.151-.066.548.066,1.063.425.047.047.151.48.123.14.351.1.99-.055.535-.2.587-.14,2.369-.038.933.189.548.4.074.077.085.595.112.244.159.584-.123,1.547v1.063l.066.359.159.376,1.275,2.293v2.868l-1.415,6.727-5.019-2.622.565-3.085-.718-.877-1.7.869-1.813,1.264-.425-.047-.387.077-.244-.1-.274-.406-1.377-1.141-.321-.132h-.255l-.51.274-.774.236.142,1.426-.293,9.624-1.642-.019-1.141-5.916-2.51-.557v1.275l-.99.585-.178-3.341-2.125-1.547-1.84,1.566,1.358,3.7.159.425,1.011.329.3,3.209-5.65,1.369-.266.066,2.337,2.992.793,1.018,2.244-1.368,1.1-3.963,2.282-.266L1106,1636.7l.244,3.85,1.7-.37,3.491,2.238,2.433-.831.916.3.283,1.632-.65,1.972.765,1.426-1.426,2.029,1.783,3.812,5.433-.4-.612,2.359-1.426,2.6.453,2.888-1.972-.274-1.785-5.131-1.613.376-.444,2.792-1.434-.745,1.349,4.66-1.7.65,2.142,2.792-2.237.1,1.16,1.487-1.245,1.585.68.85,1.615-.2" transform="translate(-985.15 -1489.662)"  stroke="#fff" stroke-linecap="square" stroke-linejoin="bevel" stroke-width="0.5" fill-rule="evenodd"/>
      <path id="talId46" fill="#7DB8EC" title="Chandgad Taluka" d="M1101.707,1731.388l2.029,1.062.82.963.213.793-.028,1.141-.244,2.435.142.831.754,1.547v1.9l.31,2.125.1.236.924.378,1.69,1.275.962,1.519.376.028.587-.311.48-1.094,1.171-2.068,1.339-.793,1.415-.584.3-.546.312-2.029.425-.659,3.443-1.717.444-1.69,1.472-.491,2.235.661,3.925-2.029.765-1.311,5.038-1.774,2.622,1.528,1.4-.368.973,1.086h.905l.51.1.48,1.16-1.511,3.727-2.68,5.888-.027.113-2.359,8.774-7.9,9.33-.057.057-1.028,1.207,1.744,1.02.213,4-.482.34-.159.112.48.538.266.3.4.442,1.453,1.632.055,1.679-1.6.727-1.774-.669-1.16-1.226-.765-2.68-.085-.291-.019-.085-.055-.2-.047-.142-.038-.143-.17-.584-2.537-2.762-.669,4.075-4.632,4.067,1.3.867,2.293.112,5.112.247.332,1.991-3.51,2.463-.255.727.047,1.133v.622l.905,1.1.321,1.577-.614,3.168-4.038,4.133-1.585.6-3.34-1.67-.576,3.187-10.1.744-2.953,1.953-3.039-.189-1.783-1.953.8-6.407-1.991-.159-.332-.028-3.187,1.1-.236-.3-.123-.113-.236-.151-.236-.112-.244-.112-.746-.236-.255.123-.461.264-.491.521-1.275.754-.661.425-.387.134-.482.113-.6.055-.31.019-.453-.03-.057-.121-.82-.672-.406-.293-.491-.31-.425-.283-.905-.557-.321-.313-.274-.3-.055-.283-.057-.406-.123-.82.085-.606v-.359l.066-.442.1-.576.17-.595.047-.349.113-.236.074-.264.077-.255.189-.244.151-.31.113-1.566h-.085l-.461-.019-.368.028-.378.019-.425.036-1.009.134h-.406l-.17-.055-.161-.151-.1-.213.068-.285.179-.255.159-.321.189-.321.066-.189.047-.387-.782.329-.652.213-1.1.51-1.275.376-.453.1-.765.212-.982.143-.244.038-.3.057h-.6l-.2-.283-.047-.274-.066-.291-.159-.312-.142-.228-.132-.283-.151-.213-.17-.7.085-.782-.038-.474-.329.142-.4.123-1,.027-.716.038-.387.03-.387.113-.85.283-.406.227-.472.187-.831.321h-.264l-.264.142-.34.519-.17.246-.463.463-.17.121-.077.255.151.213.142.212.036.212-.085.37-.189.519.019.212.055.228.085.151.113.17-.027.066-.123.047-.213-.047h-.14l-.246.027-.212.1-.387.293-.756.425-.774.406-.472.283-.3.085h-.623l-.2.038-.266.453-.132.151-.453.123h-1.018l-.212-.027v-.263l-.038-.735-.057-.637-.321-.944-.066-.425-.31-.312v-1.037l.178-.661.263-1.169v-.187l-.047-.077-.113-.112-.038-.121.047-.123.047-.132.142-.066.212-.066.189-.055.244-.085.595-.085.31-.047.2-.027.123-.112-.028-.34.132-.123.2-.066.285-.055.718-.637.831-.688.839-.737.228-.234.244-.17.264-.132.349-.212.623-.586.123-.121.2-.123.189-.1.3-.055.2-.075.189-.142.274-.179.378-.17.782-.546.312-.264.151-.142.189-.151.168-.085h.085l.189.027.236-.047.151-.066.3-.1.425-.414.213.027.406-.085.121-.274-.17-.1-.7.038-.162-.028-.142-.075-.028-.2.113-.735.291-.529.076-.349.132-.387.113-.5.263-.652.047-.425-.047-.189-.123-.225-.057-.246-.028-.291.1-.179.245-.123.1-.212-.1-.17-.244-.274-.329-.4-.093-.245-.094-.312-.093-.263-.085-.51-.425-1.048-.321-.637-.244-.565-.038-.812-.019-.491-.17-.482-.2-.763-.142-.387-.151-.264-.244-.31-.264-.406-.48-.614-.142-.244-.085-.244-.057-.3-.057-.244-.093-.453-.491.077-.189.17-.151.178-.085.17-.132.159-.113.151-.189.151-.255.143-.274.151-.244.113-.076-.066-.142-.2-.151-.228-.17-.2-.244-.2-.368-.376-.359-.17-.244-.066-.348-.066-.332-.1-.244-.066-.066-.123v-.2l-.066-.31-.113-.213-.142-.178-.228-.244-.077-.34.03-.159.085-.18.1-.151.178-.178.189-.123.283-.142.236-.1.425-.228.453-.765.178-.357.075-.283v-.293l-.121-.189-.1-.047-.113-.113.085-.189.735-.99.444-.637.51-.661.255-.283.329-.3.321-.236.716-.68.225-.283.276-.2.213-.162.255-.225.212-.348.213-.387.321-.244.34-.178.213-.151.161-.1.274-.113.291-.038.213-.038.274-.076.14-.213.132-.212h.3l.444-.1.784-2.433,2.093-.038.793-.17.425-.65.17-1.341.453-.963.99-.625,1.585-.516.831-.066,1.651-.483,2.641.623,2.029-.245,1.793.1.65-.378,1.1-.14,1.062.688.518.9.425.236,1.133.077,1.887-.17,1.039-.387.34-.406.213-.933.212-.378.82-.924.387-.244,2.161-.236,1.349-.585,1.407-.348,2.55-.1.614-.131.348-.213,1.377-.142" transform="translate(-984.27 -1496.895)"  stroke="#fff" stroke-linecap="square" stroke-linejoin="bevel" stroke-width="0.5" fill-rule="evenodd"/>
      <path id="talId47" fill="#7DB8EC" title="Gadhinglaj Taluka" d="M1124.025,1732.686l-1.473.491-.444,1.7-3.442,1.719-.425.659-.31,2.029-.3.546-1.415.584-1.339.793-1.171,2.068-.48,1.094-.586.312-.376-.03-.963-1.519-1.689-1.275-.927-.378-.1-.236-.31-2.125v-1.9l-.756-1.547-.142-.831.244-2.435.027-1.141-.212-.792-.82-.963-2.029-1.062.754-1.171.65-.546,1.105-.444,3.187-.425,2.718-1.152.483-.367.425-1.133.236-1.462.019-.943.962-.452.212-.4.019-.669-.359-1.237.548-.425.066-1.275h.189l.606.529.688.189h1.037l.943-.773-.066-.461-.584-.425-2.312.038-.529-.17-.348-.5-.321-1.292.132-1.4-.321-1.936.066-.593.4-1.039-.017-1.632-.982-.255-2.218.085-1.018-1.377-.638-.48-.746-.085-.672.378-.406.546-.367.812-1.095,1.256-1.6-.189-.529-4.953-.213-.982-.425-1.132.212-.585.812-1.152.132-.472-.274-3.85-.255-1.339.047-.521.85.038.529.213.5.565.688.444.529-.121-.3-.756-.019-.463,1.029-2.3.019-.557-.329-.888.074-.587.888-.661,1.98-.6,1.415-.236.822.106,1.122,1.009.565.31.9-.293.255-.212-.019-.971.669-1.972,1.8-1.339,1.991-1.487-1.642-2.337.907.17,2.057.386,2.405-.924,1.511.6.954.387v.085l.019.453.057,1.19.047,1.179,1.47-.387,3.568-.935.952.491-.085,4.481,4.037.442.548,1.114,3.187.31.491,1.237,2.55.812,1.519-1.679,3.848,3.264,1.662,1.944-1.793,1.575.142.244.99,1.755,1.048.716-.085,2.7-3.039,1.4-.378,3.329-.246,2.161-1.574,2.265,1.132,2.935.971,3.727.038,2.208-.952.65-.688,2.348-1.772-.376-3.123-2.49-6.094-1.961-2.471,1.487-.746.565-.637,1.859-3.576,1.017v1.774l-3.763.519.074,2.17-2.208,2.613.529.313,2.246-.406.576.869-1.528,2.641" transform="translate(-986.995 -1493.835)"  stroke="#fff" stroke-linecap="square" stroke-linejoin="bevel" stroke-width="0.5" fill-rule="evenodd"/>
      <path id="talId44" fill="#7DB8EC" title="Ajra Taluka" d="M1101.278,1728.383l-1.377.14-.349.213-.614.131-2.55.1-1.406.348-1.349.585-2.161.236-.387.246-.82.925-.213.378-.212.932-.34.406-1.039.387-1.887.17-1.133-.077-.425-.236-.521-.9-1.062-.689-1.1.14-.65.378-1.793-.1-2.027.246-2.641-.622-1.651.483-.831.066-1.585.519-.99.622-.453.962-.17,1.341-.425.651-.793.17-2.095.038-.784,2.435-.5-.332-.2-.132-.151-.264v-.348l-.066-.255-.066-.472-.331-.293-.368-.093-.34-.1-.51-.187-.472-.131-.425-.16-.548-.321-.348-.4-.48-1.487-.189-.321-.255-.329-.236-.275-.236-.387-.236-.491-.113-.378-.093-.283-.1-.266-.189-.376-.4-.718-.123-.236-.162-.066-.212.027-.2.019-.113.113-.112.212-.085.151-.113.16-.076.189-.151.189-.142.066-.1.225-.093.113-.17.274-.038.348-.093.178.019.378-.038.293-.066.3.066.236.077.274-.085.189h-.637l-.255.093-.329.085-.178-.027-.213-.093-.274-.17-.2-.178-.2-.143-.189-.057-.151.1-.151.132-.159.123-.236.112-.213.019h-.321l-.538-.03h-.264l-.548-.055h-.4l-.17-.076-.142-.189-.17-.266-.132-.236-.225-.34-.31-.2-.4.093-.31.112-.213.019-.189.077-.212.019-.274.093-.293.093h-.266l-.293-.047-.244-.019-.312-.047-.255-.142-.236-.212-.255-.151-.066-.077-.019-.982v-.348l.113-.179.142-.212.066-.246.027-.48v-.51l-.178-.727-.212-.255-.151-.228-.085-.132-.178.075-.162.066-.066-.2.066-.132.189-.132.189-.074.181-.047.159.055.2.019.151-.047.236-.1.293-.074.236-.113.283-.161.212-.916-.283-.057-.159-.085.093-.066.14-.057.151-.1.057-.228.019-.189-.066-.178-.178-.14.047-.17.057-.245-.076-.376-.187-.348.4-4.675.132-.688h.688l.348.066,1.585.9h.688l.34-.142.425-.425.212-.274,1.029-.48.34-.066.348-.142h.274l1.028-.212h.348l.623-.272.34-.614.34-1.651.213-.348.142-.425.548-.68.213-.213.274-.142.274-.212.348-.132.548-.425.688-.274.212-.213.348-.212.2-.274.283-.212.34-.212.348-.141.274-.2.212-.213.274-.482.274-1.1.132-.274.491-.554.614-.406.557-.283.406-.066.754-.274.491-.212.68-.425.425-.546.48-1.171.212-.895.213-.482.212-.274.212-.414.425-.482.754-.483.612-.132.283-.142.34-.066.963-.557.483-.614.688-.688.274-.212.212-.274.274-.212h.894l.425.066h1.171l.754-.132,1.651-.425h.274l.348-.066.48-.213.614-.425.285-.689.886-.425,1.037-.406.274-.213.482-.622.274-.14.212-.274.274-.212.548-.2.831-.9v-1.037l.142-.686v-.68l-.213-.351-.963-.622-.076-.34v-.482l-.213-.425-.548-.548-.066-.348v-.34l.066-.348v-.406l.14-.348.274-.132.482-.425.48-.548h.34l.691.132h.554l.274-.132.34-.077.425-.414.425-.548.425-.612.132-.282.212-.213.623-.406.34-.143.754-.622.425-.406.066-.349.14-.34.274-1.169.213-.274.142-.348.274-.212,1.443-.1,2.125.557.444,1.028,1.1.85.482.178.518.718,1.377.212.652-.274.9-.727.406-1,1.859-.236.623-.312.038-.612-.312-1.037.212-.444,1.377-.425,1.679-1.171,1.062-.442.793.132.17.425-.1,1.4.178.689,2.282,1.67.2,2.18.159,1.632,1.774.212-.669,1.972.019.971-.255.212-.9.293-.565-.312-1.122-1.009-.82-.1-1.415.235-1.98.6-.886.661-.076.584.329.888-.019.557-1.028,2.3.019.463.3.754-.529.121-.688-.442-.5-.567-.527-.213-.85-.038-.047.518.255,1.341.274,3.85-.132.472-.812,1.152-.213.587.425,1.133.213.981.529,4.954,1.6.189,1.094-1.254.367-.812.406-.546.672-.376.746.085.638.48,1.018,1.377,2.216-.085.982.255.019,1.634-.4,1.037-.066.6.321,1.933-.132,1.407.321,1.292.348.5.529.17,2.312-.038.587.425.066.463-.943.774h-1.039l-.688-.189-.6-.529h-.189l-.066,1.275-.546.424.359,1.237-.019.669-.212.4-.963.453-.019.943-.236,1.462-.425,1.132-.482.368-2.718,1.152-3.187.414-1.105.444-.65.548-.754,1.171" transform="translate(-983.876 -1493.771)"  stroke="#fff" stroke-linecap="square" stroke-linejoin="bevel" stroke-width="0.5" fill-rule="evenodd"/>
      <path id="talId45" fill="#7DB8EC" title="Bhudargad Taluka" d="M1045.555,1722.238l-.6-.038-.378.049-.264.02-.442.112h-.472l-.623-.077-.17-.255.255-.3.406-.368.244-.425.244-.472.212-.387.038-.321-.264-.266-.472-.019-.546-.027-.444.019-.622-.066-.754.019h-.65l-.85-.038-.264-.2-.321-.028-.548-.027-.378-.264-.387.038-.348.266-.425-.178-.368-.3-.359-.283-.368-.189-.444-.189-.735.085-.31.246-.378.055-.34-.228-.529.1-.283.055-.244.131-.179.132-.225-.047-.227.017-.321.142-.274.093-.123-.142-.34-.255-.472-.055-.463-.038H1028.5l-.4-.077-.527-.113h-.754l-.905-.3-.332-.142-.367.038-.255.1-.293.331-.132.266-.1.48-.038.442v.293l-.077.4-.227.121-.348-.055-.472-.212-.34-.159-.425-.178-.565-.227-.661-.17-1.33-.17-.312-.123-.142-.264-.066-.151-.274-.038-.282.236-.189.244-.425.17-.321-.085-.189-.132-.142-.047-.245-.038-.113-.151.066-.3.17-.235.2-.264.212-.255.283-.212.312-.17.291-.213-.028-.331-.359-.1-.519-.028h-.782l-.367.049-.406.236-.159.236-.68.189-.293.077-.236.113-.057.244.028.274.112.274-.038.143-.425-.019h-.159l-.151.132-.1.274-.093.14-.159.1-.161.036h-.264l-.349.142v.3l-.151.669-.028.112-.019.17.019.161.055.093.094.189.1.123.2.123.31.189.425.272.085.019.2.038.077.057.1.047.151-.047.143-.066.112-.038h.151l.077.027.17.1.113.142.132.151.055.085.057.244v.159l-.019.213-.057.2v.225l.066.189.074.213.066.1.255.2.1.113.085.178-.057.055-.1-.093-.2-.178-.2-.132-.178-.244-.142-.4h-.076l-.283-.038-.212-.028-.123-.038-.17-.047-.213-.123-.212-.083-.113-.03-.1-.075-.094-.085-.1-.077-.17.115-.143-.047-.1-.03-.132-.047-.151-.038-.123-.066-.077-.1-.019-.066.019-.085.047-.093.066-.113.066-.151.019-.161.085-.1-.047-.338-.028-.17-.123-.235-.189-.228-.113-.1-.227-.1-.178-.131-.123-.1-.1-.085-.189-.132-.151-.057-.132-.066-.123-.178-.132-.142-.1-.17-.066-.255.142-.546.1-.255.113-.236.283-.359.529-.453.463-.378.236-.151.161-.227.159-.228.057-.17.047-.244v-.51l.085-.266.255-.329.378-.5.038-.1.019-.376-.066-.213-.1-.212-.16-.2-.212-.189-.085-.17.283-.425.159-.189.1-.212-.047-.213-.212-.189-.038-.212.121-.181.557-.34.225-.212.1-.244.066-.293-.178-.321-.142-.1-.14-.123-.057-.253-.019-.225-.028-.3-.066-.321-.178-.245-.181-.272-.212-.321-.142-.2-.189-.348.212-.112.212.132.236.212.293.321.178.283.34.34.368.332.5.359.85.51.264.159.212.1h.212l.17-.121-.038-.212-.038-.246v-.236l.019-.293.057-.3.151-.1.236.027.14.123.159.212.143.1.266.141.236.162h.178l.387-.03,1.062-.038.283-.055.312.028.274.112.264.2.085.112.283.491.159.038.312.075.329.019.453-.085h.321l.349.162.746.31.321.057.48.213.386-.179.614-.565.212-.123.212-.1.179-.178.178-.213.085-.235.028-.3-.132-.236-.2-.225-.151-.3.047-.225.123-.142.274-.038.321-.213.151-.463-.066-.178-.264-.038-.1-.143-.076-.263-.094-.151-.34-.123-.321-.055-.312-.2.142-.2.244-.3.746-.822.225-.329.094-.3.019-.212v-.244l.077-.228.142-.264.212-.159.368-.132h.34l.244.123.162.3.359.151.491.159h.68l.212-.2.213-.225.274-.236.213-.132.3-.038.376.028h.491l.453-.047.2-.2.123-.595-.019-.17v-.112l-.066-.283-.159-.255-.321-.181-.425-.143-.378-.142-.274-.236.1-.228.236-.093.213-.027.244-.047.113-.189-.057-.159-.17-.151-.085-.074.077-.189.189-.132,1.047-.718.6-.348.425-.213.491-.255.31-.212.113-.212-.066-.291-.181-.134-.094-.047-.16-.1v-.159l.213-.143.066-.212-.178-.213h-.3l-.387.038h-.372l-.472.123-.329.085-.264.085-.2.093-.227.123-.244-.03-.1-.225-.178-.34-.227-.1-.121.1-.132.189-.094.2-.142.213h-.357l-.425.027-.491.189-.638.453h-.274l-.274.027-.112-.057.236-.291.6-.565v-.066l-.066-.077-.113-.1-.028-.123.047-.085.132-.064.085-.057.1-.036.151-.066-.036-.14-.34-.348,6.151-4.152.688.141.548.34.212,1.247.48.48,2.482.066.963-.274,3.368-2.2,2.55-.212,1.3-.425.48-1.169,1.1-1.445,2.125-1.037.48-1.3v-2.337l1.859-2.068v-1.1l-.9-1.719-.132-2.125.82-1.925,1.245-.688.34-.546.622-3.17,1.925-2.471-.213-1.442.066-4.4,2-.483,1.651-1.311,1.859-.754,2.745-4.095,4.511-.963,1.487-.1.612.141.622-.179.482-.754,1.339-3.576.85-.689,1.829-.793h.444l.518.274.272.48.066.689-.17.793-.962,2.208-.142.754.181.793.51.718,2.208.793.2,1.063.933,1.443-.1.85-.519,1.039-.132.65.132,1.311.48,1.4.587,1.039.793.716,1.821.519.387,1.487-.076.82-1.132.935.213,1.613v1.377l-.168.85-.491.688-.51.212-1.755.212-.142.585.142,1.132.274.236,1.311-.1,1.2.213,3.066-1.2,1.094-.831.9-.132,1.339.236.425.688v.378l-.376.482-.1.688.9,2.405-1.445.1-.274.212-.14.348-.212.274-.274,1.169-.143.34-.066.348-.425.406-.754.622-.34.142-.622.406-.212.213-.132.283-.425.614-.425.546-.425.425-.34.075-.272.132h-.557l-.688-.132h-.34l-.48.548-.483.425-.274.131-.142.349v.406l-.066.348v.34l.066.348.546.548.213.425v.482l.074.34.962.62.213.351v.68l-.142.688v1.039l-.831.9-.546.2-.274.212-.212.274-.274.14-.482.623-.274.212-1.037.406-.886.425-.283.689-.614.425-.48.212-.348.066h-.274l-1.651.425-.754.132h-1.171l-.425-.066h-.9l-.274.212-.213.274-.274.212-.689.689-.482.614-.963.556-.34.066-.283.141-.612.132-.756.48-.414.483-.212.425-.213.274-.212.483-.213.9-.48,1.171-.425.548-.68.425-.491.213-.756.274-.4.066-.557.283-.612.406-.491.557-.132.274-.274,1.105-.272.483-.213.213-.274.2-.348.142-.34.212-.283.213-.2.274-.351.213-.212.212-.688.272-.548.425-.348.132-.274.212-.274.141-.213.212-.548.68-.142.425-.212.348-.34,1.651-.34.614-.623.274h-.348l-1.029.212h-.274l-.348.143-.34.066-1.029.48-.212.276-.414.414-.34.142h-.688l-1.585-.9-.348-.066h-.688l-.132.688-.4,4.675" transform="translate(-981.902 -1491.963)"  stroke="#fff" stroke-linecap="square" stroke-linejoin="bevel" stroke-width="0.5" fill-rule="evenodd"/>
      <path id="talId53" fill="#7DB8EC" title="Radhanagari Taluka" d="M1029.67,1692.071l-.293-.584-.17-.442-.283-.255.066-.4.321-.151.68-.178.463-.4.3-.17.331-.48.48-.614.178-.716,1.028-.85.661-.6-.028-.142-.094-.212-.161-.17-.255-.17-.274-.055-.236.142-.113.2-.213.112-.123-.03-.161-.132-.212-.178-.236.16-.282.142-.387.213-.34.123-.425.1-.264.019-.189.376-.085.213-.047.151-.094.189-.121.066-.151-.038-.321.038-.227.038-.227.047-.213.047-.227.123-.178.179-.213.283-.2.189-.066-.074-.132-.359-.1-.17-.113-.132-.189-.093h-.612l-.453.055-.189.1-.212.093h-.472l-.406-.055h-.5l-.244.074-.329.179-.274.189-.255.189-.212.076-.085-.057.066-.121.274-.285.3-.255.3-.159.213-.112.236-.132.529-.5.161-.019.472-.085.3-.077.213-.085.2-.093.8-.576.546-.2.247-.085.264-.131.189-.123.132-.142v-.141l-.113-.151-.212-.085-.31-.113-.264-.112-.472-.227-.227-.113-.212-.113-.236-.162-.055-.142.143-.168.151-.077.14-.085.077-.159-.17-.143-.332-.085-.425-.112-.212-.038-.332-.038-.368-.047h-.368l-.963.113-.3-.1-.14-.179.047-.17.14-.179.132-.1.225-.17.085-.18.057-.34-.2-.093-.066-.19-.113-.376-.34-.6-.637-.612-.16-.123-.359-.17-.027-.159-.066-.227-.212-.236-.245-.283-.263-.189-.236-.244-.03-.213.189-.17.2-.285.406-.212.264-.293.7-.944-.019-.17-.055-.16v-.212l.028-.161.094-.151.047-.189v-.425l-.019-.245v-.235l.047-.151.6-.529.264-.112.3-.1.34-.131.425-.17.359-.142.189-.236.143-.367.066-.348.085-.425.085-.812.027-.527.189-.565.057-.8v-.255l-.019-.234-.247-.266-.2-.085-.293-.142-.31-.121-.368.055-.491.178-.576.213-.189.255-.085.212-.151.33-.142.178-.161.066-.17.019-.159-.093-.1-.236.077-.2.085-.3.019-.236-.181-.179-.2.085-.17.178-.159.283-.123.212-.3.359-.331.444-.179.2-.332.213-.349.2-.236.266-.274.212-.34.142-.349.019-.329.132-.244.387-.236.351-.213.236-.17.178-.212.132-.142-.019-.151-.263-.143-.228-.255-.283-.225-.225-.17-.228-.2-.213h-.282l-.255.159-.228.274-.244.425-.085.2-.236.425-.142.406-.057.245-.085.321-.085.236-.132.283-.1.236-.189-.057-.047-.124.066-.236.151-.31.1-.4.282-.924-.057-.359-.094-.246-.131-.212-.228-.189-.244-.132-.321-.123h-.765l-.047-.1.076-.178.212-.151.3-.162.754-.272.293-.151.113-.1.2-.212-.038-.3-.085-.228-.123-.2-.085-.228-.132-.112-.2.038-.057-.143-.074-.212-.038-.213-.028-.255v-.255l-.406-.85-.406-.425-.212-.321-.244-.34-.179-.274-.236-.085h-.452l-.228-.093-.132-.134.076-.178h.264l.31-.074.321-.094.236-.142.028-.442-.019-.189.094-.213.132-.4h.266l.159-.028.121-.055.1-.151.038-.123.038-.123.161-.075.245.075.085.1.162.047.244.047.179.017.189-.075.244-.189.255-.212.123-.213.019-.3v-.132l.038-.132.057-.077.274.189.1.066.066-.038.038-.329-.1-.312.283-.047.066-.2.047-.1.151-.3.264-.247.2.066.228.057h.14l.151-.066-.047-.283v-.162l.159-.1.212-.159v-.2l-.047-.359-.329-.678-.178-.329-.181-.247-.142-.17-.283-.348-.142-.406v-.283l-.077-.212-.293-.228-.444-.283-1.105-.293-.406-.058-.359-.093-.132-.142-.142-.179-.162-.17-.244-.141-.282.055h-.244l-.227-.038-.019-.148-.047-.548v-.263l-.028-.3-.093-.283-.162-.2-.066-.17.1-.225.4-.406.869-.765.244-.159.274-.17.132-.293.151-.272.2-.123.283-.113.264-.112.178-.212-.057-.274-.132-.274v-.236l.689-.274.293-.17.332-.17.312-.189.283-.179.34-.1.212-.348.548-.378.212-.2.085-.351.038-.329v-.622l.038-.379.831-.716.178-.255.189-.028.142.189.291.247.2-.019.178-.066.236-.123.189-.189.189-.247.2-.121.178-.1.16-.151.181-.274.123-.3.1-.34.2-.236.2.085.255.077v-.746l.066-1.487v-.82l-.348-1.387-.34-.557,3.209-2.975-.038-.508v-1.417l.14-1,.213-.4.378-.521.1-.212.444-.272.077-.14.2-.17.213-.274.213-.313.17-.425.038-.212.244-.378.548-.586.754-.546.212-.1.65-.212.623-.312.236-.028.14-.074.793-.17h.482l.623.1.48.48.688.482.2.1.792.14.142.312.584.548.546.17h.142l.614.143.623.066.274.066h.378l.178.038.17.066.132.143.076.132.213.14.1.142.548.132.17-.027.066-.213.038-.348v-1.461l-.038-.31v-.652l-.027-.274-.584-2.065-.17-.379-.387-.65-.34-.376-.142-.246-.754-.793-.17-.274-.212-.17-.1-.181-.623-.782-.17-.285-.132-.131v-.689l1.473-2.652.178-.1.274-.236.274-.17.212-.31.425-.348.236-.425.519-.65.376-.312.142-.17.17-.312.132-.406.142-.142.212-.143.614-.34,1.1-.312.17-.1.212-.274.038-.34-.17-.425-.178-.1-.406-.519-.038-.212-.1-.274v-1.029l-.038-.17-.48-.425-.51-.351-.246-.34-.066-.17-.142-.178-.213-.17-.2-.236-.213-.142-.1-.483v-.17l.1-.142.236-.236.31-.246.244-.312.34-.212.17-.027.274-.17.1-.142.1-.168.038-.17-.244-.518-.027-.351.132-.686.178-.3.82-.565.34.51,1.585,1.632.688.244.483.425.378,1.717,1.063,2.125,2.586.584.376-.1,1.275-.708.708.669,1.062.727.387.894-.038.376-.31.274-.963.212-.244.689-1.747.718.094.311.765.556.274.379.274.793.444.442,1.519.34h1.3l.661-.444.584-.9.3-.17.688.312.312,1.169.274.236h1.755l2.82-.614.557.132.274.348.65.066,1.443-.425.519-.028.376.3.17.661.247.212,1.445.093.425.348-.038.483-.236.34.236,1.623v.963l-.31.48-.548.142-.348.376.1.754.963,2.237.661.066,1.3-.1.557-.212.444.038.442.831.178,3.094.3.614,1,.765,1.062.338.831.038.793-.9.784-.557,2.416,1.245.34.31.244.406.17.244.212.482.132.132.765.283.2.34.1.348.283.132.756.038.213.31v.379l.212.31.2.17.688.444.1.17.1.1.142.349-.038.17-.378.425-1,.168-.132.142-.14.718-.212.272-.406.213-.178.351-.028,1.339-.142.132-.425.212-.886.181-.661-.283-.482-.406-.716-.31-1.651-.453-.518-.236h-.348l-.132.066-.1.521-.038,1.4-.066.349-.444.926-.283.453-.406.754-.521.17h-.378l-.519-.066-.586-.246-.584-.1-.378-.027h-.623l-.584.274-.378.338-.066.213.038,1.925-.142.661-.48.406-.688.244-.425.246-.612.576-.077.387.038.2.546.793.038.212v.831l-.066.406-.272.213-.1.348v.612l.132,1.1-2.745,4.095-1.859.755-1.651,1.311-2,.48-.066,4.4.212,1.442-1.925,2.471-.623,3.17-.34.546-1.245.688-.82,1.925.132,2.125.9,1.717v1.1l-1.859,2.067v2.338l-.482,1.3-2.125,1.037-1.1,1.445-.482,1.169-1.3.425-2.55.213-3.368,2.2-.963.274-2.482-.066-.48-.48-.212-1.245-.546-.34-.688-.143-6.162,4.152" transform="translate(-981.552 -1489.341)"  stroke="#fff" stroke-linecap="square" stroke-linejoin="bevel" stroke-width="0.5" fill-rule="evenodd"/>
      <path id="talId48" fill="#7DB8EC" title="Gaganbawada Taluka" d="M1021.01,1636.414l-.074-.212-.027-.31-.425-.1-.264-.065h-.34l-.293.074-.293.212-.213.189-.368.132-.321.074h-.274l-.68-.159h-.283l-.34-.066-.085-.17-.066-.244-.123-.247-.189-.483-.293-.62-.65-.916-.225-.143-.3-.151-.321-.244-.1-.255-.066-.245-.1-.367-.028-.568-.4-.5-.2-.151-.264-.085-.329-.093-.047-.17-.1-.34-.1-.283-.274-.131-.321-.3-.066-.614-.057-.312.066-.3.085-.212.057-.3.057-.49.518-.066.179-.115.132-.4v-.7l-.057-.954-.047-.075-.283-.047-.236-.085-.213-.189-.085-.212-.189-.179-.321-.036-.359-.047-.263-.019-.425-.1-.331-.131-.132-.266-.1-.283-.2-.113-.387-.038-.244-.151-.123-.376-.669-.266-.453-.264-.425-.255-.31-.112-.213-.142.1-.406.038-.066V1621l-.028-.18.019-.1.227-.1.264-.074.3-.085.444-.066.425-.047.378.047.4.085.529.027-.055-.228-.085-.318-.057-.784.066-.255.142-.17.444-.565.113-.123.236-.093.283.038.2-.019.085-.178.066-.228.076-.348.6-.565.472-.283.225-.244.132-.321.151-.3.047-.266-.142-.274-.094-.236.028-.3-.019-.351-.113-.406-.2-.189-.255-.212-.178-.255-.066-.225.047-.255.5-.576.293-.236.349-.17.094-.246-.038-.283-.055-.31.4-.03.255-.047.17-.255.2-.519.2-.18.274-.093.321-.038.236-.123.151-.189.17-.351.376-.623.151-.669.1-.4v-.338l-.112-.386-.274-.521-.3-.359-.48-.5-.274-.212-.212-.266-.112-.34.019-.348.028-.425-.142-.386-.274-.623-.312-.735-.178-.442-.066-.425.066-.31.244-.17.482-.638.461-.151.637-1.661.4-1.19.359-.782.48-.784-.329-.291-.463-.112h-.905l-.971-.244,1.424-.944.348-.518,3.925.9.406.65.584.453,1.063-.213.85-.622.584.077.31.236.584.141,2.337-.425.963-.442.519-.765.14-.548.3-.245,1.755.038.349-.17.17-.688.585-.31,1.236.038.792.134.793-.886,2.1-.688,1.377-1.275.727-.378.718-.9.48-.348.491-1.275,2.471-.17,1.062.212.793-.338.82-.765h.661l1.3.556,1,.03.584.212.688.482.274.586.754.688.378.9-.066.34-.754.624-.453.963-.576.425-.763.066-1.171-.17-.546.142-.518.376-.1,1.377-.378,1.887-.274.483-.82.376-.244.521v.9l-.65.963-.557.442-.027,1.487-.274.274-.68.623-.48.03-.16.083-.094.2.1.6-.82.565-.178.3-.132.689.028.348.244.519-.038.17-.1.17-.1.142-.274.17-.17.027-.34.212-.244.313-.31.246-.236.236-.1.142v.17l.1.48.213.142.2.236.212.17.14.178.066.17.244.34.51.349.482.425.036.17v1.029l.1.274.038.213.406.518.178.1.17.425-.038.34-.213.274-.17.1-1.1.312-.614.34-.212.142-.142.141-.132.406-.17.31-.14.17-.378.31-.519.65-.236.425-.425.351-.212.311-.274.17-.274.236-.178.1-1.471,2.652v.688l.132.132.17.283.623.784.1.178.213.168.17.274.754.793.142.246.34.376.387.652.17.378.585,2.065.028.272v.652l.038.31v1.443l-.038.348-.066.212-.17.03-.548-.132-.1-.143-.213-.14-.074-.132-.132-.143-.17-.066-.181-.038h-.376l-.274-.066-.623-.066-.614-.142h-.142l-.546-.17-.584-.546-.142-.312-.793-.142-.2-.1-.688-.482-.48-.48-.623-.1h-.48l-.793.17-.14.075-.236.027-.623.31-.652.212-.213.1-.754.548-.548.584-.247.378-.038.212-.17.425-.213.31-.212.274-.2.17-.077.142-.444.274-.1.213-.378.519-.212.406-.142,1v1.415l.038.51-3.209,2.975" transform="translate(-981.328 -1488.291)"  stroke="#fff" stroke-linecap="square" stroke-linejoin="bevel" stroke-width="0.5" fill-rule="evenodd"/>
    </g>
    <text id="54" font-size="13" fill="#fff" font-family="OpenSans-Bold, Open Sans" font-weight="700" transform="translate(1769.012 1166.129)" ><tspan x="0" y="0"></tspan></text>
    <text id="52" font-size="13" fill="#fff" font-family="OpenSans-Bold, Open Sans" font-weight="700" transform="translate(1800.818 1188.805)" ><tspan x="0" y="0"></tspan></text>
    <text id="49" font-size="13" fill="#fff" font-family="OpenSans-Bold, Open Sans" font-weight="700" transform="translate(1862.315 1191.276)" ><tspan x="0" y="0"></tspan></text>
    <text id="55" font-size="13" fill="#fff" font-family="OpenSans-Bold, Open Sans" font-weight="700" transform="translate(1909.29 1201.605)" ><tspan x="0" y="0"></tspan></text>
    <text id="51" font-size="13" fill="#fff" font-family="OpenSans-Bold, Open Sans" font-weight="700" transform="translate(1832.236 1212.37)" ><tspan x="0" y="0"></tspan></text>
    <text id="50" font-size="13" fill="#fff" font-family="OpenSans-Bold, Open Sans" font-weight="700" transform="translate(1845.213 1262.896)" ><tspan x="0" y="0"></tspan></text>
    <text id="46" font-size="13" fill="#fff" font-family="OpenSans-Bold, Open Sans" font-weight="700" transform="translate(1838.001 1369.993)" ><tspan x="0" y="0"></tspan></text>
    <text id="47" font-size="13" fill="#fff" font-family="OpenSans-Bold, Open Sans" font-weight="700" transform="translate(1869.579 1310.967)" ><tspan x="0" y="0"></tspan></text>
    <text id="44" font-size="13" fill="#fff" font-family="OpenSans-Bold, Open Sans" font-weight="700" transform="translate(1832.272 1326.172)" ><tspan x="0" y="0"></tspan></text>
    <text id="45" font-size="13" fill="#fff" font-family="OpenSans-Bold, Open Sans" font-weight="700" transform="translate(1811 1299)" ><tspan x="0" y="0"></tspan></text>
    <text id="53" font-size="13" fill="#fff" font-family="OpenSans-Bold, Open Sans" font-weight="700" transform="translate(1784.879 1262.896)" ><tspan x="0" y="0"></tspan></text>
    <text id="48" font-size="13" fill="#fff" font-family="OpenSans-Bold, Open Sans" font-weight="700" transform="translate(1773 1224)" ><tspan x="0" y="0"></tspan></text>
  </g>
</svg>
