<svg xmlns="http://www.w3.org/2000/svg" width="322.326" height="301.273" viewBox="0 0 322.326 301.273">
  <g id="latur" transform="translate(-2205.831 -1640.559)">
    <g id="Group_11" data-name="Group 11" transform="translate(273.104 255.11)">
      <g id="_92_Ausa" data-name="92 Ausa" transform="translate(1954.897 1535.326)">
        <path id="talId92" fill="#7DB8EC" data-name="Ausa" d="M1655.172,1241.535l-.679.373-.387.568-.484.359-.457.153-.663.236-.4.11-.777.374-.414-.083-.07-.734-.29-.609-.124-.8-.139-.485-.235-.595-.015-.76-1.951-.54-.72-.276-.594.29-.928.139-1.01-.123-1.066-.32-.554-.1-1.383-.471-.816-.235-.512-.028-.32-.014-.47.208-.222.347-.913.346-2.92.138-1.288.181-.526.1-.276,1.024-.249.747-.179.582-.111.635.18,4.678-.4,1.024.027.638.3.651.594.358,1.509.249.942.332.941.333,1.619.014,1.148-.014,1.149.041.678-.056.43-.166.457-.595,2.837-.193.927-.153,1.093-.111.915.25.9.179.665.5.47.83.083.581-.333.637-.457,1.274-.124.483-.277.416-.512.18-.747-.027-1.121.04-.014,4.735-.706.442-.983.581-2.1,1.439-1.259.818-1.772.428-1.066.359-.678.332-.9.194-.816-.083-.872-.056h-.775l-.387.318-.346.25-.332-.306-.541-.318-.566.194-.263.512-.29.679-.638,1.744-.18.967.195,1.136-.083,1.314-.1.61,1.538,1.729,2.173.76,1.424.332,1.191.389.982.152,1.094.014,1.038.043.153.622.29.359,1.385-.276,1.259-.706.8-.236.6-.11.65-.25.333-.774.706-.831,1-1.426.291-1.66.276-.982.318-.694.941-.179,1.2.179.942.25.816.221.76.276.209.389-.209,1.037-.109.707-.042,1.134-.207.845-.36.845-.359,1.674-.3.815-.636,3.5-.125,1.259-.14.637-.151.636.111.637.553.9.181.472.208.388,1.024.082.706.1.913.512.664.318,2.478.332-.18,1.924v.678l-.166,1.523-.014.817.111,2.034-.083.706-.789-.057-.567-.525-.72-.359-1.439-.305-.83-.015h-.622l-.692-.428-.554-.235-.485-.207-.442-.125-.943-.221-.055,1.425-.027.609-.028.983v.817l-.277.552.014.276.291.319.25.25.014.444-.886.455-.734-.027-.955-.278-.663-.124-1.205-.4-.885-.041-3.24.1-.081.3,1.4,1.9,1.91,3.6,1.051,1.841-.194,2.3-.594,2.353-1.495.291-1.8-.222-.636-.221-.568-.4-.236-.346-.082-.76-.111-.568-.125-.6-.152-.638-.291-.081-.553.428-.387.608-.195.5-.235.775-.263.5-.47.637-.221.664-.194.4.041,2.464-.318.886-.194.622-.373.471-.968.263-.651.25-.666.041-.691-.208-.608-.236-2.784-.22-1.078-.334-.942-.055-.955-.1-.554-.027-.138,1.993-.027,4.346.429.139.6.139.512.4-.276.194-.471.248-.984.526-1.19.278-.636-.457-.622-.387-.623-.663-.471-.582-.83-.361-2.021.208-.844.416-1.121.027-.872-.374-.818-.248-.775.332-.4.595-.235,1.4-.8.927-.6.277-.692.276-.871.346-.652-.1-.276-.691-.069-.984-.373-.677-.969-.331-2.631-.29-1.3.194-.194.691.1,1.468-.14,1.868-1.218.138-1.2-.1-.359-.458-.235-.54-.513-.014-.831.207-.649.277-.624.209-.678-.305v-.651l-.014-.886.069-.955.111-.857.651-1.441.263-.912.042-.664-.513-.25-.858-.415-1.3-.123-1.273-.458-.512.567-.346,1.855-.221,1.385.042,1.465-.18,1.372-.277.844-.774.055-1.122-.082-1.024-.443-.623-.333-1.175.264-.8-.249-.609-.512-.858-.249-.927-.222-1.108-.249-.609.609-.469.4-.928-.1-1-.511-1.149-.735-3.514-.125-1.523-.249-1.3-.111-.914-.262-.872-.277-.373-.291-.332-.568-.318-.858-.554-.608-1.3-.388-1.094-.221-1.232-.678-.955-1.33-.47-.5-.61-.746-.359-1.383.138-.707.251-.789.082-.788-.527-.249-.969-.637-.553-1.01-.318-.9-1.023-.346-.444-.291-.553-.622-.235-.818-.277-.871-.567-.72-.969-.512-1.162-.055-1.01.416-1.744.706-2.52,1.645-.982.459-.651.138-.691.234-.623.029-.844-.043-.872.014-.679.319-.416.361-.787.262-.194-.374-.083-.94-.665-3.3-.111-1.523-.455-.028-2.173.112h-.8l-.748-.042-1.19-.07-.72-.1-.539-.291-.416-.442-1.522-.415-.485-.152-.318-.277.151-.374.208-.359.25-.415.1-.346.028-.333-.318-.166-.541-.041-.691-.139-.582-.083-.692-.152-.8-.222-.776-.083-1.189-.166.014-.886.165-.484.083-.457.181-.83.332-1.052.152-.8.5-.969-.387-.331-.208-.332-.069-.25-.278-.526-.263-.429-.29-.61-.36-.677-.236-.389-.25-.345-.138-.278.042-.32.333-.94.387-.5.415-.36.248-.414.222-.457.208-.8-.069-1.162.028-1.108.041-.83-.083-.693-.263-.719.041-1.536-.138-2.6.1-.388.235-.3.43-.43.415-1.148.5-.609.47-.485.443-.373.512-.36.236-.5.581-1.73.387-2.478.028-.567.208-.359.457-.18.276-.111.3-1.536.208-.637.263-.969.083-2.021-.138-.566-.567-.083h-1.232l-.747-.015-.692-.027-1.026-.083-.054-.208-.027-.457-.083-.485-.1-.483-.512-1.51-.056-.9-.027-1.356.207-.208.623-.331.3-.333.263-.4.4-.526.651-.858.54-.553.429-.209.526-.027.181-.138.388-.208.635-.028.983-.179.443-1.108.152-.485.235-.345.081-.319-.124-.318-.013-.416.291-.5.373-1.37.194-.359.263-.471,1.079-.289.028-1.164-.124-3.488.289-2.034.223-2.99.318-3.806-.042-1.481.817-.193,2.255-.333.816.665.318.705.36.306.733.069,1.163.262,1.052.235,1.356.264,1.758.443,1.011.208.831.137.427-.166.485-.4.3-1.134.638-.72.635-.5h.47l.582.056.47.636.913,1,.652.969.387.347.733.511,1.358.8.178.014.582-.11.61.138.9.388.581.291.735.414.691.04.512-.026.6-.373,1.9-.374.483-.166.54.249.886.291.623.041.623-.1.485.041.817.235.775.387.886.25,1.55.249.761.055.843.015,1.9.1,1.453.346.886-.029.679-.151.774-.263.431.027.414.1.471.166.5.167,1.025.084.886-.028.526-.208.346-.5.291-.29,1.841-.623,1.605-.055,1.161.111.693-.056.817-.428.83-.235,1.025.069,2.256-.319.733.291.319.055.54-.07.706-.345.817-.222.65-.126.4-.109.207-.167.1-.484.166-.415.512-.485.374-.179.872-.3,1.315-.6.29.029.457.166.734.234.72.235,1.024.36,1.023.069.554-.22.679-.375.816-.346,1.316-.346,1.314-.167,2.367-.595.871-.472,1.177-.386,1.868-.651.733-.235.927-.429.6-.264.25-.11.386-.429.138-.747.125-.582.484-.636.707-.193,1.287.1,1.6-.79.4-.444.471-.316.76-.319.457-.195.873-.289.677-.029.749-.18.679-.124.8.678,1.315.692.193-.179.332-.526.333-.3.484-.277.554.3.4.084.678.055.665-.249.692-.18.554.07.6.29.843.319,1.024.083,1.121-.457.291-.25.443.028.484.471.622.264.72.04.6-.1,1.2-.886.5-.5.415-.3.428.083-.082,1.191-.36,1.231.276.346.4.665-.457.607-.428.293-.291.858.193.664.471.623.083,1.066.18.844.444.208.609.262.429.693.706,1.55.484,1.356.36.6.567.11.761.4.72.194.291.54-.263,1.287-.39.539-.414.873.554,1.134.3.513.235.6.29.76.041.693-1.868.72" transform="translate(-1529.85 -1220.04)"  stroke="#fff" stroke-linecap="square" stroke-linejoin="bevel" stroke-width="1" fill-rule="evenodd"/>
      </g>
      <g id="_90_Latur" data-name="90 Latur" transform="translate(1933.434 1467.588)">
        <path id="talId90" fill="#7DB8EC" data-name="Latur" d="M1658.719,1194.325l-.388,1.065-.124.36.485.526.581.416.734.457.388.29.318.18.318.139.845.235.041,1.7-.208,1.288-.028.5-.291.526-.055.361.623.3.056.235.179,1.024.678.817,2.048,1.841.831.926-.014.707-.194.636-.623,1.577-.885,1.439-1.039,2.326-.595,2.892-.678,2.353-1,2.574-.346,1.481-.249,1.411-.43,2.145-.179,1.067.151.581,1.094.208.8.22,1.011.457.566.388.527.623.347.58.166.526.152.277.539.152.609.194.5.069,1.743.153-.208.8-.1.831-.041.525-.221,1.912.581.4h.872l1.2.124.8.414.9.374,1.04,1.093.9.719.609.278.65.18.276.319.014.608-.069.706-.166.388-.512.235-.456.027-.817.054-1.258.278-.693.192-.595.5-.982.332-.375.111-.621.181-.306.124-.264.5-.455.719-.347,2.769-.221.871.137.845.457.525.152.61.153.733,1.356,2.685-.055,1.315-.29,1-.526,2.021-.651.817-.457.429-.443.954-.4.734-.29.539-.665,1.191-.719-.346-.846-.485-.47-.3-.581-.317-.636-.678-.333-.292-.61-.748,1.869-.719-.042-.692-.29-.761-.235-.6-.3-.513-.555-1.134.417-.872.387-.54.264-1.288-.292-.54-.719-.193-.762-.4-.566-.111-.36-.6-.484-1.356-.706-1.551-.429-.692-.61-.263-.442-.208-.18-.844-.084-1.066-.469-.623-.193-.664.29-.858.428-.29.457-.609-.4-.665-.277-.346.359-1.231.084-1.191-.429-.083-.414.3-.5.5-1.2.886-.6.1-.72-.043-.622-.262-.485-.47-.443-.028-.291.25-1.121.457-1.024-.082-.844-.319-.594-.29-.554-.069-.691.18-.665.249-.678-.056-.4-.082-.554-.3-.485.277-.331.3-.333.526-.195.18-1.314-.691-.8-.679-.678.125-.749.18-.677.028-.872.291-.457.194-.761.317-.471.319-.4.443-1.605.789-1.287-.1-.706.194-.485.635-.125.582-.138.747-.388.428-.249.111-.6.262-.927.429-.733.236-1.869.649-1.176.388-.871.47-2.367.6-1.315.166-1.315.345-.817.347-.678.374-.554.222-1.024-.069-1.024-.36-.719-.236-.735-.235-.456-.165-.29-.028-1.316.594-.871.306-.374.179-.512.485-.166.416-.1.483-.208.167-.4.112-.65.123-.817.223-.705.346-.54.069-.319-.055-.733-.291-2.255.318-1.025-.069-.83.235-.817.428-.692.056-1.162-.11-1.606.054-1.84.623-.292.291-.345.5-.526.207-.886.028-1.023-.083-.5-.165-.47-.167-.413-.1-.431-.027-.774.262-.679.153-.887.027-1.453-.347-1.9-.1-.845-.014-.76-.055-1.55-.249-.887-.25-.776-.387-.815-.234-.485-.042-.623.1-.623-.041-.886-.29-.538-.249-.486.167-1.9.373-.6.373-.512.028-.692-.042-.734-.415-.582-.29-.9-.388-.61-.139-.581.111-.179-.014-1.357-.8-.733-.511-.387-.347-.651-.969-.913-1-.471-.636-.582-.056h-.471l-.636.5-.637.719-.3,1.135-.485.4-.428.165-.831-.138-1.01-.208-1.758-.443-1.356-.263-1.052-.236-1.164-.263-.733-.069-.359-.3-.319-.706-.817-.665-2.256.332-.816.2-1.107-.249-1.771-.8-1.966-.844-1.258-.624-2.008-.608-1.2-.235.1-1.344.262-2.8.139-2.5.277-1.62.306-1.95-.154-1.744.03-.942.192-.968.111-.677-.277-.18-.3-.015-1.12.817-1.287.637-1.287.789-1.412,1.162-1,1.121-.511.6-.332.594-.541.776-.665.484-.774.526-1.15-1.537-.815-.926-.527-.817-1.176-.666-1.5-.04-.981-.3-.555-.193-2.27-.333-.594.056-.984-.54-.634-.346-.416-.388-.79-.512-.54-.318-.733-.345-.457-.429-.79-.554-1.176-1.025.512-.443.429-.4.388-.5.609-.706,1.411-1.744.54-.747.264-.706.138-.471.346-.761.153-.941.165-.582.375-.484.346-.649-.1-1.274.235-.4.2-.4.386-.651.388-.346.567-.263.54-.193.831-.083.9.221.706.208.913.208,1.247.415,1.107.706.762.124,1.19.153.636.151.858.193.79.388.513.61.7.429.4.277-.291-3.156-.249-.693.083-1.619-.125-1.6-.206-1.231-.623-2.8-.375-1.508-.179-.858.084-.456.333-.138.47-.125.455-.124.721-.042.167-.263-.111-.541-.637-1.495-.9-.319-.97-.4-.648-.29-.347-.456-.068-.277-.029-.457-.775-.056-.222-.221.069-.4.208-.539.5-1.2.609-.664.305-.166.082-.347-.359-.166-1.067-.194-.166-.692.263-1.316.027-.774.1-.831-.071-.886-.235-.858-.47-1.619.18-.761.318-.153.789-.111.65-.042.664-.042.581-.11.651-.221.692-.18.291-.234.111-1.468-.125-2.671.36-1.453.235-.9.29-.539.525-.443.361-.761.221-2.451.221-2.228.028-.872.182-.705.124-.471.069-.249.181-.3.22-.068.472-.027.484-.014.305.068.388.179.249.056.443-.138.235-.332.318-.276.388-.167h.415l.276.041.277.222.429.553.291.264.29.166.278.18.4.513.5.333.236.124.511.125.774.151.416.152.595.263.582.152.181.153.484-.125.512-.29.389-.387.415-.249.567-.3.361-.208.4-.042.29.111.815,1.232.54.554.79.47.858.375.595.262.554.152.333.028.386-.469.319-.36.663-.582.431-.359.331-.138.748.471.318.333.291.235,1.036.608,1.439.526.111.347.166.318.18.333.194.331.166.291.36.111.264.125.1.235.153.623.152.416v.428l.179.622.333.693.512.223.47.013.458.111.484.1.443.082h.29l.568.042.455-.138.652-.3.457-.151.36.014.374.166.277.139.331.234.429.083.3-.083.2-.22.055-.277-.028-.3.427-.111.43-.22.65-.167.651-.153.788-.1.387.112.471.055.471-.166.526-.194.693-.235.733-.622.456-.346.484-.181.887-.18.913-.1.886.222.084.609.124.567.664.5.512.734.306.291.347.249.525.206.927.346.927,1.123.069.76.1.872v.871l.125.61.138.125.3.027h.6l.76.042.664-.013.97.166.262.747.192.815.056.4.138.817.221.747.222.776.346.5.361.193h.511l.525-.152.638-.193-.139.567-.347.235-.028.6-.138.568.387.331.389.014.429-.014.346.235-.042.693-.1.388-.152.456-.082.609.289.416.54.11.651-.11.553.027.817.291,1.189.844.665.333.3.6.18.636,1.481.221.222.041.941.236.443.166.512.429.388.36.858.72.636.069.638.276-.028.582-.014.983.443.3.111.512,1.19.361.568-.111.65-.36,1.246-.388.649-.055.818-.07,1.135.07.693.333.94.041.623.429.332.568.333.511.429.207.65-.027.831-.028.415.277.373-.18-.042-.594-.054-.762-.181-.416-.29-3.486.111-.832.277-1.079.193-.956v-2.063l.651-.165.6-.056.678.249.845.125,1.259.138.651.319.333.443.581.678h.623l.733.015,1.315.138.914-.125.815-.207.9-.111.983.138.941.374.845.3.581.236.79.29.927.513.139.72-.236.5-.317.678-.581,1.19.151,1.577-.179.969-.374.25-.221.3-.153.761-.208.706-.068.581.43.152.192.3-.166.527.069.4.817.375.9.29.65-.277.61-.581.885-.734,1.218-1.329.664-.235h.6l.748.319.58.083.8-.152.124-.665.1-.747.235-.6.221-1.411.568-.1.637-.041.512.18.511.207.651.055,1.066.07.678.221.36-.152.306-1.732.263-.76.525-.761.582-.055.983-.056.884.47,4.789-.082.305-.941.33-.941.167-.637,1.343-1.245.332-.609.442-.594.389-.457.484-.3,1.01-.111,1.4.1" transform="translate(-1514.27 -1171.06)"  stroke="#fff" stroke-linecap="square" stroke-linejoin="bevel" stroke-width="1" fill-rule="evenodd"/>
        <text id="talId90count" data-name="Latur" transform="translate(62.462 57.302)" fill="#fff" font-size="10"  font-family="OpenSans-Bold, Open Sans" font-weight="700"><tspan x="0" y="0"></tspan></text>
      </g>
      <g id="_170_Chakurr" data-name="170 Chakurr" transform="translate(2077.531 1437.515)">
        <path id="talId170" fill="#7DB8EC" data-name="Chakurr" d="M1687.443,1227.778l-.9.65-.913.36-1.261.4-.911.458-.956.58-.76.553-.471.527-.456.456-.982,1.079-.859.305-1.523.055-.83.027-.761.124-.705.25-.955.07-.636-.125-.721-1.689-1.133-.761-.582-.125-.417-.222-.316-1.993-1.745.554-.76.1h-.8l-.4-.166v-.54l.471-.857.18-.679-.61-.637-.4-.222-.929-.373-1.037.068-.762.1-1.011.055-.58.429.235,1.869-.125.831-.276.761-.4.526-1.315,1.9-1.26.345-.235.582-.3,1.12-.733,1.2-.472.983-.511.511-4.056-.456-3.585-.125-1.784-.055-1.01-.069-1.343.374-2.3-.25-.07-1.827-2.657-.139-1.841-.152-1.259-.138-.831-.249-.831.484-.567.707-.553,1.162-.623.776-.511,1.134-.624,1.163-.789,1.467-.525.428-3.06-.526-1.742-.152-.5-.069-.609-.193-.54-.153-.152-.276-.165-.526-.347-.582-.525-.624-.568-.387-1.011-.455-.8-.222-1.094-.208-.151-.582.18-1.064.43-2.146.248-1.413.346-1.48,1-2.573.677-2.353.6-2.893,1.038-2.326.886-1.438.623-1.578.192-.637.015-.706-.83-.927-2.048-1.84-.679-.816-.18-1.025-.055-.235-.624-.3.055-.359.292-.526.027-.5.208-1.288-.041-1.7-.844-.235-.319-.139-.318-.179-.387-.291-.735-.458-.58-.414-.485-.526.125-.36.388-1.066.084-.65.374-1.232.345-.553.193-2.548.18-1.051.055-.567.153-4.111.263-2.159.457-.664.25-.609.385-.317.638-.112h.387l.747-.165.678-.18.637.07.222.206.5.1.124-.5.181-.568.041-1.3-.028-.789.1-.512-.07-.789.375-.54.208-.566.151-.554-.706-.651-.524-.125-.375-.124-1.413-.222-.719-.11-.692-.11-.858-.1-.249-.471.249-.8.249-.609.043-1,.331-1.175-.069-.513.055-.388.318-.167.623.153.6.111.374-.276.22-1.053.43-1.038.568-3.377.028-.734.317-.483.332-.471.514-.608.65-.458,1.161-.359,1.884-1.357.511-.083h.693l.635-.151.72-.277,1.413.055,1.55-.636.291-.137.913-.07h.789l1.453-.055.553-.387-.056-.72.068-1.343-.123-.858.235-.885.609-.5.429-.055.43-.139.469-1.064.36-.776.262-.775.194-.512.678-1.37.469-.221.569-.083.748-.208.414-.18.5-.346-.208-.208-.111-.25-.013-.538.069-.526-.083-.485-.567-.594.208-1.164,2.006.041.5-.539.651-.195.719-.04h.622l.9.152.691.415.817.512.65.249.511.111.735.415-.277,1.979.277,2.7.277.885.278.844.47,1.538.249.692.166.761.026.83.084.568.042.416.111.429.608.153.458.055.539.22,1.358.817.483.582.124.428.028.6.152.457.513.222.636-.154.3-.138.374.278.775.069,1.079.1.9.345.292.54.139.526.22.47.36.789.124.414v.415l.361.3.762.027.607-.1.666-.277,1.577.166.927.3,1.37-.028.636-.014.36.166.47,1,.208.665.263.443.387.386.195.457.013.54.527,1.01.208.664.318.457.4.278,1.136-.153,1.369.166.844-.111.748-.152,1.245-.25.6-.375.124-.345.07-.566.152-.194.859-.43.316-.4.1-.665.085-.553.719.027.5.167.565.236.346.262.97.29.649.416.928.526.913.733.982.623-.3.706-.389.512-.263.359-.179.388-.222.443-.249.374-.36.539-.457.776-.3.789-.111.428-.041.277.18.457.332.677.417.913.124.61.082.388.582.069,1.038-.527.527-.317.566-.444.692-.359.333-.152,1.673-.928,1.385-.152.637-.153.387-.111.346-.22.111-.318.11-.567.166-.527,1.218.471,1-.041,1.164-.055.857.055.609.208.444.25.137.29-.055.429-.235.47v.969l.026,1.8-.123,1.786.123.871.306.693.125,1.106.4.028,1.037.125.928-.069,1.286-.014.928.139.36.636,1.7.11-.013.375-.055.58.11.955.221.18.583.028.595-.194.289-.429.111-.457.415-.29.526-.028.651.429.636-.028.609.388.25.526-.014,1.8.139.638.153.345-.153.347-.25.1-.5-.014-.248-.222-.43-.469-.455-.484-1.662-.443-.732-.332-.873-.139h-.815l-.969-.373-.775.18-.014,1.8.415,1.094.567.748.444.221.706.248.566.25.638.166,1.064.151.817.527.927.317.734.111,1.08.234.345,5.676-.207,1.286.346.954-.153.471-.208.553-.1.347-.443.18-.484.261-.693.554-.691.72-.1,1.8-.043.54.111.747.429.79-.138,1.231-.056.665-.194.774.18.636-.056.665-.415.319-.416.635-.4.416-.069-.4-.1-.775-.236-.567-.1-.568-.942.138-.36.138-.263-.138.069-.553-.111-.47-.622-.152-.761-.263-.8-.125-2.905.139-.54-.139-.594-.43-.789-.262-.858-.194-1.343-.1-.22,1.979-.1.582-.124.61-.028.884.152.623-.124.444-.332.61-.858,1.12-.623.568-.443.65-.4.941-.415,1.232-.928,1.992-.152.332-.194.291-.221.4-.194.236-.221.041-.457-.25-.387-.319h-1.855l-.443-.1-.427-.249-.458-.153-.664-.028-.416.208-.125.415-.042.18-.234.263-.513.125" transform="translate(-1618.27 -1149.25)"  stroke="#fff" stroke-linecap="square" stroke-linejoin="bevel" stroke-width="1" fill-rule="evenodd"/>
        <text id="talId170count" transform="translate(25.364 58.375)" fill="#fff" font-size="10"  font-family="OpenSans-Bold, Open Sans" font-weight="700"><tspan x="0" y="0"></tspan></text>
      </g>
      <g id="_91_Renapur" data-name="91 Renapur" transform="translate(1988.705 1429.429)">
        <path id="talId91" fill="#7DB8EC" data-name="Renapur" d="M1664.02,1162.234l-.234.885.125.858-.069,1.343.055.72-.554.388-1.453.055h-.79l-.914.069-.29.139-1.551.635-1.411-.056-.72.277-.636.153h-.692l-.512.083-1.884,1.355-1.162.36-.65.457-.512.609-.332.47-.318.485-.028.734-.567,3.377-.43,1.038-.221,1.051-.373.276-.6-.11-.623-.153-.318.166-.056.388.069.512-.332,1.176-.041,1-.249.61-.249.8.249.47.857.1.692.111.72.11,1.412.221.374.125.525.125.707.651-.152.553-.208.568-.376.539.07.789-.1.512.027.789-.04,1.3-.178.567-.126.5-.5-.1-.221-.207-.637-.07-.678.18-.749.166h-.388l-.635.111-.387.317-.25.61-.456.664-.263,2.159-.152,4.111-.055.566-.181,1.053-.192,2.546-.347.553-.373,1.232-.084.649-1.4-.1-1.011.11-.486.305-.385.457-.444.6-.332.609-1.343,1.246-.166.636-.333.942-.3.94-4.787.083-.886-.47-.983.055-.582.056-.526.761-.263.762-.3,1.73-.358.153-.678-.221-1.067-.069-.649-.056-.513-.208-.511-.181-.636.042-.569.1-.221,1.411-.235.6-.1.747-.125.665-.8.152-.581-.083-.748-.318h-.594l-.665.235-1.218,1.33-.886.733-.609.581-.649.277-.9-.292-.816-.373-.069-.4.166-.525-.193-.3-.43-.153.069-.581.208-.7.153-.762.22-.3.374-.25.18-.968-.152-1.578.582-1.19.318-.678.235-.5-.138-.72-.928-.512-.789-.29-.581-.235-.844-.3-.941-.374-.983-.138-.9.111-.817.207-.911.125-1.317-.139-.732-.014h-.624l-.581-.679-.332-.443-.651-.317-1.26-.138-.843-.125-.677-.249-.6.056-.651.166v2.062l-.194.955-.276,1.08-.11.83.29,3.488.18.415.055.762.043.595-.375.178-.415-.275-.829.028-.651.027-.429-.208-.333-.512-.332-.568-.623-.429-.942-.041-.691-.331-1.135-.07-.817.07-.65.054-1.245.387-.651.36-.567.112-1.191-.361-.11-.511-.443-.3.015-.982.028-.58-.637-.277-.636-.07-.859-.719-.387-.361-.511-.429-.444-.165-.941-.235-.221-.041-1.482-.221-.179-.638-.3-.594-.666-.332-1.19-.845-.816-.291-.554-.028-.65.111-.54-.111-.291-.415.085-.609.152-.457.1-.388.041-.691-.346-.235-.429.013-.388-.013-.386-.333.137-.568.028-.6.345-.234.139-.568-.636.194-.526.151h-.512l-.359-.194-.347-.5-.221-.776-.22-.746-.139-.818-.056-.4-.194-.816-.262-.747-.97-.167-.664.014-.761-.042h-.6l-.3-.028-.138-.124-.125-.608v-.873l-.1-.871-.069-.762-.928-1.122-.926-.345-.528-.207-.346-.25-.3-.29-.511-.735-.664-.5-.125-.567-.083-.61-.886-.221-.914.1-.886.18-.484.18-.457.346-.733.623-.693.235-.526.193-.47.166-.47-.055-.387-.111-.79.1-.652.153-.648.166-.43.221-.429.111-.112-2.228-.152-2.685-.222-1.992.167-.775.735-.831.178-.705v-1.066l.1-.955.388-1.246.247-1.384-.234-2.753.636-1.3,1.135-.885,1.591-.983,1.163-.788,1.688.124,1.5-.222,1.037-.332.83-.65.36-.486.691-.358.388.3.028.457.318.4,1.108-.416.8-.374,2.1-.538.927-.236,1.51-.388.705-.194.609-.72.554-.913.166-.623-.028-.677.209-1.551.069-.455,1.067-.513.525-.083.291.4.083.774.139.762.3.609.36.594.222.513.456,1.412.167.567.248.375.347.4.042.608.056.692.124.194.484.069.665-.124h2.338l.983-.181,1.4-.484.928-.111,1.009-.291,1.011-.442.83-.61.747-.568.5-.429.386-.3.222-.623.153-.554.651-.443.4-.29.289-.9.513-1.785.25-.844.47-1.509.1-.706.332-.372,1.412-.235,1.023-.291.679-.139.776-.069.427.665-.055.719.221.72.374.568.636.581.569.817.761.179.705-.789,1.135.056.429.4.374.679-.112.969-.082.719v.706l.069.416,1.135.928.8.719,1.162.678,1.026.5.8.4.706.414.167-1-.167-1.107-.137-.831-.111-.664-.125-1,.056-1,.292-1.162.207-.831.138-1.813.056-1.495.636.277.582.028.636.014.36-.166.4-.9.276-.941.056-.747-.125-.94-.193-.873-.055-.623-.513-1.107,1.328-1.052.623.014h1.564l1.246-.262,1.495-.319,1.55-.207,1.245.623.6.414.5.513.594.223.3-.638.069-.386.622-.153.969-.235.789-.083.484.235.083.678.028.526.208.276.524.416.4.29.263.512.028.485-.125.429-.9,2.1-.358.249-1.121.125-.859.07.181,2.684,1.522.069,1.411-.069,1,.111.94.139.651.222.442.871.651,1.371.665.443,1.038.3.955.249,1.288.3.665.167.981-.1.79-.111.844-.333.221-.968.069-1.025.1-.581.388-.719.042-.485-.249-.581-.83-.3-.887-.3-.609-.333-.9-.29-.526-.236-.734-.359-.178-.083-.25-.317.027-.361.1-.429.138-.3.177-.208.237-.333.428-.8.568-.831.609-1,.9-1.233.581-1.134.927-2.354.512-1.424.4-.789.526-.194.858-.028.816-.013.637.124.29.264.4.1.415-.029.61-.151.359-.208.872-.428.734-.388.552-.222.471-.235.513-.429.484-.415.373-.1.83.083.457.1.65.263.444.167,1.052.594.54.264h.29l-.166.443-.263.318-.041,1.025.137.678.181.47.055.706-.028.512-.055,1.328.041.153.5-.139.485-.263.36-.139.346-.014.47.028,1.661.027.429-.582.928.014.539.069.194.471.277.54.139.54.055.525.041.582.194.775.235.885.069.914-.18.539-.166.373-.041.319.3.4-.069.263-.152.25-.083.29v.581l.374.305-.207.291-.181.332v.416l.416.138.221.276.387.347.3.276.208.236.25.138,1.591.941.54.346.582.263.234.209" transform="translate(-1554.13 -1143.37)"  stroke="#fff" stroke-linecap="square" stroke-linejoin="bevel" stroke-width="1" fill-rule="evenodd"/>
        <text id="talId91count" transform="translate(37.19 48.461)" fill="#fff" font-size="10"  font-family="OpenSans-Bold, Open Sans" font-weight="700"><tspan x="0" y="0"></tspan></text>
      </g>
      <g id="_172_Shirur_Anantpal" data-name="172 Shirur Anantpal" transform="translate(2084.544 1514.491)">
        <path id="talId172" fill="#7DB8EC" data-name="Shirur Anantpal" d="M1625.811,1219.648l3.06.526.524-.429.79-1.468.623-1.162.511-1.135.624-.774.553-1.164.568-.7.831-.485.831.248,1.258.139,1.841.151,2.657.139.071,1.828,2.3.248,1.342-.373,1.01.07,1.786.055,3.585.125,4.054.455.511-.511.472-.984.734-1.2.305-1.123.234-.58,1.261-.347,1.314-1.9.4-.526.278-.762.124-.829-.235-1.869.582-.43,1.01-.055.76-.1,1.039-.069.927.374.4.22.61.637-.18.678-.47.859v.539l.4.166h.8l.762-.1,1.744-.553.317,1.994.417.22.58.125,1.135.762.72,1.688.638.125.954-.069.706-.25.76-.124.831-.028,1.523-.055.858-.3.982-1.08.456-.456.471-.525.761-.555.955-.581.912-.456,1.26-.4.914-.361.9-.65-.277,1.08-.124,5.55-.25.58-.182.541.859.871.3.706.153.845.193.554.428.5-.3.678-1.233,1.565-.732,1.163-1.537.914-1.563,1.287.1,1.328,1.453,4.333-.111,1.771-.455,1.162-.415,1.425-.112,1.15.236,1.3-.084.928.388,1.149.166.262.831.263.942.111.968.346,1.066.195.427.151.638.3.651.346.373.458.18.456.415.525.471.194.638.263.138,1.2-.181.594-.693.318-.955.553-1.092.166-1.758.5-.582.125-1.148.083-1.219.5-.788.554-.554.8-.263.9-.25,1.952-.538.526-.486.428-.485.166-.58-.013-.582-.3-.775-.194-.028.58-.276.569-.6.608-1.066,1.564-.221.651-.249.5-.6.3-.6.1-.58-.069-.457-.3-.636-.277-.679-.083-.194.415-.415,1.149-.11.719-.222.54-.1.622-.18.65-.111.624-.124.567-.582.125-.331.194-.415.636-.11.263-.14,1.813.015.8-.166.595-.733.457-.389.027-.9-.069-.333-.235-.456-.055-.567.11-.513.554-.582.013h-.72l-.8-.124-.678-.125-.815-.1.124-.678.151-.36.07-.484-.027-.637-1.079-.539-.79-.526-1.536-1.051-.5.691h-.331l-.555-.374-.513-.47-.276-.54-.318-.458.179-.457.042-.469-.249-1.08-.057-.568-.276-.83-2.074-.069-.5-.152-.442-.209-.6-.29-.47-.291-.1-.386.194-.4.221-.443v-.457l-.194-.6h-.83l-.332.179-.348.292-.5.248-.178-.04-.443-.125-.914-.139-.83-1.232-.262-.069-.748-.083-.538-.277-1.122-.056-2.573.111-.222-.013-.595.166-.389.194-.4.166-.3.262-.762.36-.263-.208-.222-.333-.291-.734.1-.277.25-.29.513-.068.082-.235.085-.527.053-.747-.138-.319-.138-.207-.291-.25-.415-.566-.622-.471-.68-.36-.387-.014-.484.166-.416.25-.318.567.056,1.064-.6.749-.5.014-.306-.014-.372.027-.223.249-.29.4-.374.65-.61.665-.7.47h-.387l-.443.069-.25.25-.179.36-.264.151-.247.221.014.472-.042.415-.222.443-.235.319-.221.111-.346.1-.359-.043-.153-.263.112-.262.109-.373.11-.68-.717-.29-.541-.084-.484-.29-.693-.594-1.149-1.164-.817-.65.665-1.19.29-.539.4-.735.444-.955.456-.428.65-.817.526-2.021.29-1,.056-1.315-1.356-2.684-.153-.734-.153-.609-.456-.526-.139-.845.223-.872.345-2.767.457-.72.262-.5.306-.123.623-.18.372-.11.984-.333.6-.5.691-.194,1.26-.278.816-.055.457-.028.513-.235.166-.388.068-.706-.014-.609-.278-.318-.65-.18-.61-.277-.9-.72-1.037-1.093-.9-.374-.8-.415-1.2-.126h-.873l-.581-.4.22-1.91.043-.525.1-.83.208-.8" transform="translate(-1623.43 -1204.66)"  stroke="#fff" stroke-linecap="square" stroke-linejoin="bevel" stroke-width="1" fill-rule="evenodd"/>
        <text id="talId172count" data-name="Shirur Anantpal" transform="translate(32.352 23.398)" fill="#fff" font-size="10"  font-family="OpenSans-Bold, Open Sans" font-weight="700"><tspan x="-14.303" y="0"></tspan><tspan x="-21.799" y="15"></tspan></text>
      </g>
      <g id="_169_Ahmadpur" data-name="169 Ahmadpur" transform="translate(2086.357 1386.223)">
        <path id="talId169" fill="#7DB8EC" data-name="Ahmadpur" d="M1625.857,1156.819l.25-.443.3-.471.5-.208.484-.207.264-.3.179-.554-.07-2.713-.221-1.854.027-1.786-.582-.54-.413-.386-.278-.291-.11-.291.1-.693v-1.314l-.237-.415-.317-.124-.346-.194-.152-.264-.055-.525-.237-1.038-.165-.774-.07-.485-.139-1.149,2.05-.221.372-.083.084-.263.014-.318.194-.263.346-.152.124-.512.042-.83.028-.332.346-.1.525-.014.25-.206.167-.486.151-.594.318-.789.373-1.425.18-.637.235-.776.319-.207.5.138.568.332.871.262.971.042.441-.07.568-.291.3-.1.5-.028.692.069.831-.069.774.014.747-.07.458-.206.913-.125.941.042.554-.11.083-1.039.179-.858.083-1.191-.111-.415-.138-.3-.166-.374.069-.457-.014-.83.11-.359.29-.139.595-.25.761-.193,1.383-.651.735-.056.511-.235.443-.18.527-.068.47-.055.608-.1.915-.263.664.249.54.206.4.042.388-.053.457-.194.138-.3.165-.429.554-.429,1.107-.844.511-.124.722-.083.276-.222.306-.526.608-.457.471.027.665-.055.968-.139h.721l.761.056.442.153.525.373.637.512.374.194.553-.1.526-.151.554-.126.263-.194.165-.4.028-.3-.138-.885.014-.706.262-.429h.554l.886-.234.236-.291.193-.319.36-.264.429.125.236.1.221-.208.608-.885.54-1.107.43-.762.318-.248.65.014,1.48-.263.374-.042.539-.124.431-.388.456-.235.815-.111.347.028.733.041,1.135-.332.873-.152,1.537-.07,1.257-.166.568.07,1.121.359,1.218.042.6.264,1.036.193,1.98.056,1.357.028.58.457,1.011.3.759-.014,1.083-.18.87-.124,1.468-.014.871.332.886.43,1,.387.913.195.982.1.61-.056.734-.152.718-.236.4-.124.512-.042.442.166,1.441.305,1.592.347.027.83.29,1.259.72,1.232.748,2.768.83,2.215.581,1.384,1.136,3.445.443,2.02.082,1.426.124.775.071.956.386.886.942.179,1.315-.014,1.468-.235,1.094-.4,1-.125,1.812-.359,2.435-.8,1.467-.5,1.564.554.485.486.374.732-.042,1.149-.069,1.786-.014.332-.486,1.716-.152,1.148-.138,1.578.194,1.979.318.72.3.72.071.705.179,1.274-.305,2.284-.484.428-.844.292-.97,1.3-1.4,3.017-.3,1.812.029,1,.317.761.085.8.207,1.48,1.508.18,3.113.263.8.028.664.027.388-.3v-.817l.289-.567,1.163-.359,3.059-.444,2.548-.194,2.27-.484,2.228-.469,1-.194,1.135-.138,1.577.11,1.245-.54,2.478-.595.706.055.386-.263.055-.664-.014-.871-.083-.705v-.844l.125-.887.347-.206,1.037-.181.955-.18.788.305v.76l.071.623.58.9.762,1.386.4.3.511.069.665-.082.913-.36.788-.4.956-.375,1.134-.235,1.289.014,1.9.609,1.05.581.443.94.746,1.51,1.136.5.124.484-.208.416-.6.414-1.674.789-1.066.678-.885.5-.762.083-1.454-.069-1.521-.014-1.716.111-.209.707-.138,1.149-.262,1.661-.319,3.224-.332,1.066-.125.761.085.97.247.373-1.163.609-1.9.665-.775.374-.678.511-.831.333-.553.166-1.011.513-.775,1.715-.552,1.356-.415,1.786-.36,1.052-.666.732-.373.984-.138.263.1,1,.844,1.73.249.706.359.969.055.4-.318.54-.526.6-1.134-.041h-.553l-1.107-.236-.637-.166-1.245-.263-1.329.083-.43,1.827-.234.762-.4.277-.845.138-.333.359-.29.748-.221.775-.844-.014-.914-.138-.469,1.065.1.914.138,2.062-.36,2.213-.152,2.1-.208,1.19-.968-.594-.278-.513-.346-.761-.359-.845-1.136.637-.706.318-1.59-.013-.9-.069-.594-.152-.54-.277-.387-.47-.221-.609-.084-.608.084-.915-.182-.9-.276-1.785-.47-.776-.236-.388-.083-.471-.041-.871-.028-1.011-.512-.414-.443-.056-.305-.582v-.873l-1.563-.843-1.079-.554-.734.4-.5.084-.512-.028-.748.166-.415.332-.042.36.208.886-.043.47-.4.663-.512.859-.512.872-.872,1-.705.082-.734-.041-.277-.208-.373-.595-.526-.705-.942-1.233-.456-.414-.5-.471-.678-.221-.235.151-.388,1.3.014.443.085.679.429.4v.374l-.388.373-.472.374-.3.014-.526-.443-.3.054-.209.707-.153.622-.373.651.069.208.3.333.2.124.4.249.069.3-.153.319-.166.069-.415-.319-.346.014-.124.5.11.443.249.291-.1.347-.7.3-.622-.083-.653-.1-.815-.248-.928.042-1.08.276h-1.107l-.028-1.8v-.969l.236-.471.055-.429-.137-.291-.443-.249-.61-.208-.858-.055-1.163.055-1,.041-1.217-.47-.166.526-.111.566-.111.319-.346.221-.387.111-.636.152-1.384.153-1.676.927-.332.152-.691.361-.568.443-.526.319-1.037.525-.582-.068-.083-.387-.125-.61-.414-.913-.332-.678-.18-.457.041-.276.111-.429.3-.789.456-.775.359-.539.251-.374.22-.443.181-.388.262-.36.388-.51.3-.706-.981-.624-.915-.734-.927-.526-.65-.415-.969-.291-.345-.263-.568-.235-.5-.166-.718-.028-.085.554-.1.665-.319.4-.858.429-.152.192-.07.568-.123.347-.6.374-1.245.25-.748.152-.845.11-1.369-.166-1.135.152-.4-.277-.319-.457-.208-.664-.526-1.01-.015-.54-.193-.457-.388-.387-.264-.442-.206-.666-.472-.995-.359-.167-.637.014-1.37.027-.927-.3-1.577-.166-.665.277-.609.1-.761-.027-.36-.305v-.416l-.124-.415-.361-.788-.222-.47-.139-.527-.29-.54-.9-.345-1.08-.1-.775-.069-.374-.276-.3.138-.636.153-.512-.221-.153-.457-.028-.6-.124-.427-.486-.583-1.355-.816-.54-.221-.457-.056-.609-.152-.11-.429-.041-.415-.083-.567-.029-.83-.166-.762-.249-.693-.47-1.535-.277-.844-.276-.886-.278-2.7.278-1.979-.735-.415-.511-.111-.65-.25-.817-.512-.692-.415-.9-.153h-.624l-.72.042-.649.193-.5.541-2.006-.042-.208,1.162.568.6.082.484-.068.527.012.538.112.25.207.208-.5.346-.415.18-.746.208-.569.083-.47.221-.679,1.37-.193.512-.263.774-.359.776-.472,1.066-.429.139-.427.055-.61.5-.235-.208-.582-.262-.539-.346-1.593-.941-.25-.139-.208-.234-.3-.278-.388-.347-.221-.277-.416-.138v-.415l.18-.332.207-.291-.373-.3v-.582l.083-.289.153-.25.069-.263-.3-.4.042-.319.166-.374.181-.539-.07-.914-.235-.885-.194-.775-.041-.581-.055-.526-.14-.54-.276-.54-.193-.471-.539-.07-.929-.013-.427.581-1.664-.027-.469-.028-.347.015-.36.137-.484.264-.5.139-.041-.152.055-1.328.027-.513-.056-.707-.179-.471-.139-.678.042-1.024.263-.318.165-.443" transform="translate(-1624.569 -1112.17)"  stroke="#fff" stroke-linecap="square" stroke-linejoin="bevel" stroke-width="1" fill-rule="evenodd"/>
        <text id="talId169count" transform="translate(58.539 52.667)" fill="#fff" font-size="10"  font-family="OpenSans-Bold, Open Sans" font-weight="700"><tspan x="-25.693" y="0"></tspan></text>
      </g>
      <text id="talId92count" transform="translate(2019.895 1592.89)" fill="#fff" font-size="10"  font-family="OpenSans-Bold, Open Sans" font-weight="700"><tspan x="-11.792" y="0"></tspan></text>
      <g id="_93_Nilanga" data-name="93 Nilanga" transform="translate(2050.855 1553.48)">
        <path id="talId93" fill="#7DB8EC" data-name="Nilanga" d="M1677.731,1250.109l.747-.014.568-.013,1.438-.028.9.014.582.221.664.166.319.25.1.429.082.263.2.18.165.1.194,3.777.485.553.306.3.109.4.07.5-.029.374-.166.3-.026.484-.015.36-.18.152-.623.015-.29.3-.415.525-.6.581-.084,1.068.056.8.43.665.5.429.484.291.083.263.86-.027.511-.359.554-.443.511-.249.762-.18,1.01.042.623.346.358.305.18.5-.248.444-.443.36-.194.513-.18.676-.069.721-.015,1.093.153.5.195.166.388.179h.207l.594-.028h.72l.513.083.913.152,1.73.3.222.18.165.4.139.582.029.54-.112,1.771.539,1.273.389.609,1.05.969.361.4.028.416-.914,1.619-.25,1.025-.706.733-.332.637-.166.693.292,1.12.884.914.636.788.278.6-.194.54-.568.249-1.771,1.149-.858.83-.319.5.043.582.276.609.511.484.831.4,2.422,1.206.4-.042.859-.554.609-.07,2.159.707,1.3.553.8.014.9.373.236,1.164.416.414,1.231.9.83.624.125.387-.263,1.688-.319.733-.693.568-1.176.319-1.606.609-1.273.276-.664.277-.221.471.651,2.7,1.3,2.879-.111,1.909-.4.61-.76.829-.817,1.315-.318.788.137.457,1.8.361.569.083.194.083.055.1.027.152v.138l.069.636-4.332,1.315-2.532-.083-3.724.235-.941,6.034-1.9,2.173.1,4.179,2.283.1-.553,7.238,2.324,9.551-.22,7.363-.859.913-4.5-.581-1.55,4.636-3.211,1.053-.167,1.064-1.12.1-2.326-1.287-6.143-.638-1.717.111-4,1.883-.124,2.782-6.519-.18-.54,4.955-9.563-2.546-.4-3.544-1.687-3.419-1.745.346-2.892.457-1.315-.056-.582-.235-.469-.083-.332-.013-.526.013-.843-.069-.361-.264-1.149-2.617-.208-.165-.719-.3-.817-.111-.649-.015-.569-.4-.124-.6-.167-.594-.706-.291-.719.028-.858.291-.762.151h-.774l-1.44-.151-1.813-.166-1.44-.249-1.245-.152-1.149-.111-1.923-.18h-1.607l-.138-.651.236-1.272.166-3.39.553-.707.679-1.453.386-.526-.208-.609-.539-.442-.512-.111-.693-.152h-.539l.193-.332.152-.485.262-.692-.138-.928-.62-1.189.262-1.4.469-.318.112-.387.166-.705.374.747.831-.222.539-.194.747-.069.707-.07.4-.346-.152-.526-.18-.664-.3-.817-.374-1.343-1.039-3.888-.788-.582-3.819-1.051-4.222-.07-4.04-.138-3.128-.3-1.675.027-1.717-.166-1.189-.776-1.135-.635-.913-.235.262-1.316,1.205-5.148.151-.955.18-1.315-.014-.733-.8.525-.512-.4-.595-.138-.43-.138.028-4.346.138-1.994.555.028.953.1.942.056,1.078.332,2.784.222.609.234.692.209.664-.041.651-.25.969-.262.373-.47.195-.624.317-.885-.039-2.464.193-.4.22-.665.47-.637.264-.5.235-.775.194-.5.387-.609.554-.429.29.082.153.638.125.594.111.568.083.763.235.345.567.4.637.223,1.8.221,1.5-.291.594-2.352.194-2.3-1.051-1.84-1.91-3.6-1.4-1.9.083-.3,3.239-.1.886.041,1.2.4.664.126.955.276.733.027.886-.457-.013-.442-.249-.25-.292-.319-.014-.277.278-.554v-.816l.028-.983.027-.607.056-1.427.942.221.441.125.485.208.553.236.691.429h.623l.83.013,1.44.3.72.359.568.527.788.056.083-.707-.112-2.034.014-.816.166-1.522v-.679l.181-1.923-2.478-.332-.665-.319-.913-.511-.706-.1-1.024-.083-.208-.388-.18-.47-.555-.9-.11-.637.153-.636.139-.637.124-1.26.637-3.5.3-.817.359-1.675.36-.844.206-.845.043-1.135.111-.706.207-1.038-.207-.387-.761-.278-.817-.221-.942-.25-1.2-.179-.942.179-.316.693-.278.982-.29,1.66-1,1.427-.705.83-.333.775-.65.249-.6.111-.8.235-1.259.705-1.385.276-.29-.359-.152-.622-1.038-.041-1.093-.014-.983-.152-1.191-.388-1.427-.332-2.172-.762-1.536-1.73.1-.609.084-1.315-.193-1.135.18-.969.638-1.743.29-.678.264-.513.566-.194.541.319.332.3.346-.249.387-.318h.775l.873.055.817.083.9-.194.677-.333,1.067-.36,1.771-.429,1.259-.816,2.1-1.439.982-.581.7-.443.014-4.733,1.122-.042.747.029.512-.18.277-.416.125-.484.456-1.273.333-.637-.084-.581-.47-.83-.664-.5-.9-.179-.914-.249-1.093.11-.927.152-2.837.195-.457.594-.429.167-.679.055-1.148-.042-1.149.013-1.62-.013-.94-.332-.942-.333-1.507-.249-.6-.36-.3-.65-.028-.637.4-1.025-.18-4.677.11-.636.181-.582.249-.747.276-1.024.527-.1,1.287-.18,2.92-.138.913-.346.223-.346.471-.207.318.014.512.027.817.235,1.384.472.554.1,1.066.318,1.011.125.927-.139.6-.29.72.276,1.95.54.015.761.235.595.139.485.124.8.289.609.07.733.416.083.775-.375.4-.11.666-.236.456-.151.484-.359.388-.569.678-.374.609.748.332.291.636.678.582.318.47.3.843.484.72.347.817.65,1.148,1.163.692.593.484.292.541.083.719.29-.111.679-.111.372-.111.263.153.263.358.042.348-.1.221-.112.235-.318.221-.442.042-.415-.014-.472.249-.221.263-.152.18-.36.249-.25.444-.069h.386l.707-.472.608-.664.373-.65.291-.4.221-.25.374-.027.3.013.5-.013.595-.748-.056-1.065.318-.568.415-.249.485-.166.388.014.678.359.624.471.415.568.29.249.137.206.139.32-.055.747-.084.526-.082.235-.511.069-.249.291-.1.277.291.734.222.332.261.208.761-.36.305-.263.4-.166.388-.194.594-.166.222.014,2.575-.111,1.121.055.539.277.749.083.261.069.83,1.231.914.138.442.125.181.041.5-.249.346-.291.333-.179h.83l.193.6v.456l-.221.444-.194.4.1.387.471.291.595.292.443.206.5.153,2.076.068.276.831.055.567.249,1.08-.041.469-.179.457.318.457.276.54.512.47.554.373h.332l.5-.692,1.535,1.053.79.525,1.079.54.027.636-.069.484-.152.361-.125.678.817.1.678.124.8.125h.72l.58-.014.512-.554.568-.111.456.056.331.235.9.069.387-.027.733-.456.167-.6-.014-.8.139-1.813.111-.263" transform="translate(-1599.16 -1232.99)"  stroke="#fff" stroke-linecap="square" stroke-linejoin="bevel" stroke-width="1" fill-rule="evenodd"/>
        <text id="talId93count" transform="translate(59.04 72.41)" fill="#fff" font-size="10"  font-family="OpenSans-Bold, Open Sans" font-weight="700"><tspan x="-18.726" y="0"></tspan></text>
      </g>
      <g id="_87_Deoni" data-name="87 Deoni" transform="translate(2129.4 1539.402)">
        <path id="talId87" fill="#7DB8EC" data-name="Deoni" d="M1733.489,1265.843l-1.313-.61-.9.25-1.233.5-.666.125-1.632.138-1.716.76-1.771,1.163-.665.264-.47.291-.07.595,2.893,3.764,1.881,2.408.6,1.094.235.677-.137.512-.112.762-.6.871v.679l-.055.664-.4.373-.458.277-.638.18h-.456l-.941-.858-.983-.042-1.066.207-1.619.5-.443.319-.4.554-.554.414-.926.194-3.293-.153-.928.013-1.12.194-.541-.249-.719-.594-.553-.914-1.218-.816-.472-.194.194-3.764-1.453-1.039-4.166-1.634-.5.485-.6,1.093-1.232.084-1.149-.1.4,1.523.511,3.184-.358.6-1.482-.029-5.038-.539-1.606-2.353-.719-2.118.139-1.411-.679-1.371-.055-1.812-1.965-.3-1.687-.43-.858,1.2-3.268-.5-3.874.3-.721,5.66-.36,1.274-.872.622-.443,1.854-.844.693-2.1-.983-.512.028-.32-.4-.026-.415-.361-.4-1.052-.968-.389-.609-.539-1.273.111-1.771-.027-.54-.139-.581-.166-.4-.221-.18-1.73-.3-.913-.153-.511-.083h-.721l-.6.028h-.208l-.386-.18-.194-.166-.153-.5.014-1.093.07-.72.18-.678.192-.511.443-.36.25-.444-.179-.5-.36-.3-.623-.346-1.011-.041-.76.179-.512.249-.554.443-.513.361-.856.027-.083-.263-.485-.291-.5-.427-.428-.666-.056-.8.083-1.065.593-.581.416-.526.291-.3.623-.014.18-.153.013-.36.027-.484.166-.3.028-.374-.068-.5-.112-.4-.3-.3-.485-.555-.194-3.777-.166-.1-.193-.18-.084-.262-.1-.428-.32-.25-.663-.166-.581-.221-.9-.014-1.44.028-.567.014-.748.014.416-.636.332-.195.581-.124.124-.567.112-.623.179-.651.1-.621.221-.54.111-.721.415-1.148.192-.415.679.082.636.277.458.3.579.069.595-.1.6-.3.249-.5.221-.65,1.067-1.565.6-.607.276-.568.028-.581.776.194.581.3.581.014.485-.167.484-.429.54-.526.25-1.95.262-.9.554-.8.79-.553,1.217-.5,1.149-.083.58-.125,1.758-.5,1.1-.167.952-.552.694-.318,1.4-.79,1.095-.677.539-.236.6-.083.527-.028.469-.11.595-.152.4-.153.4-.359.249-.4,1.8-.041.69.221,1.108.166.665.124.581.291.637.5h.456l.553-.221.638-.332.706-.209.788-.083.971-.069.663-.5.152-.442.068-1.274.333-1.481.151-1.882.388-2.686.678-1.813.264-.816.3-.249.6.318.553.389.416.193.248.1.72-.331h.512l.746.109.79.222.789.111.568.014.4-.208.526-.221.43.276.359.693.416.955.318.775.5.858.262.511.443.277.79-.056.58.221.043.388-.043.43-.345.457.137.872.927.36.818.138.456.056.512-.25.4-.5.581-.083h.387l1.412-.664,1.217-.111,1.677-.429,1.133.069.208.084-.124.664.082,1,.125.527.055.705.166.526.513.207.525-.111.595-.208.513-.125,2.145-.428,2.048-.79.872-.5.694-.4.635-.511.442-.208,1.1-.276.525.333.29.567v.623l-.111,1.674-.069.471-.11.457-.153.428.042.374.665.208,1.176.055.844.042.594.181.97.221.886.111,1.951.042.249.636.484.706.554.415.581.222.72.11,1.62.042.788-.291.788-.47.8-.983.8-.263.651-.124,1.149.235.235.567.417.734.29.457.414.581.209.345-.194,2.229.236,1.274.124,1-.553.665-.485,2.407-.055,2.616-.83,1.384-1.246.249-.4.568-.734.954-.858.54-.872,3.805-1.148.07-.207,1.869.124.968-.055,1.093.028,1.163.055,1.135.735.581-.5.209-2.186.221-.567,2.643-1.149-.1-1.192.706" transform="translate(-1655.931 -1222.8)"  stroke="#fff" stroke-linecap="square" stroke-linejoin="bevel" stroke-width="1" fill-rule="evenodd"/>
        <text id="talId87count" transform="translate(44.495 34.488)" fill="#fff" font-size="10"  font-family="OpenSans-Bold, Open Sans" font-weight="700"><tspan x="-14.4" y="0"></tspan></text>
      </g>
      <g id="_173_Udgir" data-name="173 Udgir" transform="translate(2142.332 1461.664)">
        <path id="talId173" fill="#7DB8EC" data-name="Udgir" d="M1715.368,1181.073l.041,1.052-.068.762v.358l.082.277.3.319.291.277.318.138.235.278.041.346.208.248.747.056.83.027.941-.262.513-.276.665.055.346.027.18-.207.125-.443.165-.485.249-.318.415-.276.291-.027.416-.1.4-.166.484-.264.664-.6.6-.374.5.042.554.221.111.291-.3.374-.249.332-.028.484.013.415.069.415.139.181.36-.152.221-.332.056-.347.194-.36.47-.068.427.014.431.109.415.222.43.416.332-.458.551-.152.473-.028.47.056.235.291-.193.332-.055.319.18.4.125.374.151.373.166.278.152.72.208.36.4.332.43.083.5.013.455-.11.264-.013.055,3.279-.442,1.066-.443.817-.194.885-.484,1.772.514.525.331.388.443.526-.154.513-.165.5v.444l-.056,1.08,1.509.151,1.01-.387,1.024-.415,1.522-.375,1.632-.3,1.053-.29.927-.249h.706l.125.429-.041.707.4.359.759.25.583.056,1.176-.083,3.24-.4,1.507.138,1.746.028,1.354-.028,1.177-.014.387-.748.1-.664.275-.318.859.18.72.332,1.26.332,1.467.207,1.993,1.053.747.386.5.126.513-.276.595-.347.166.637.262.8.373.346,1.108.443.527.041.635.055.624.139.5.166.29.417.235.705.428.484,3.432.817-1.343,1.232-.026,3.018-1.163,1.591-.1,1-.43-.07-.208.055-.388.015-.443-.015-.443-.028-.539-.041h-1.01l-.623.138-.277.4v.485l.111.387.664.582.443.345.844.941.278.124.43.083.345.153.138.388v.442l-.18.512.138.707.084.511.1.263.263.277.209.457.1.54-.069.456-.153.581-.125.609.25.609-1.425,2.962-2.505-.111-2.382.222-1.4,3-.817,1.772-.138,1.826-.457.968,2.021,3.225,2.491.581-.193.651-.264,1.065-4.289.222-.847.622-.676.333-.734.747-.361,2.561-.883,2.242,2.476.235-2.727,3.861-.913,2.92-1.591,1.772-.47,1.661-2.035-1.385-1.356-.055-.72,1.095.471.955.222,1.287,1.2,3.266.942,1.9.373,2.394-.318,1.246-1.216.693-1.344.1-1.218-.47-1.274-.638-3.058-.511-1.731.083-.124-1-.235-1.273.194-2.228-.208-.347-.417-.582-.29-.456-.414-.733-.237-.567-1.149-.236-.65.125-.8.262-.8.984-.789.47-.789.291-1.62-.041-.72-.111-.58-.222-.555-.414-.485-.707-.248-.637-1.951-.042-.886-.11-.969-.222-.594-.179-.845-.042-1.177-.055-.664-.208-.042-.373.153-.43.109-.457.07-.47.11-1.675v-.623l-.29-.567-.528-.332-1.092.278-.443.207-.637.513-.692.4-.873.5-2.047.789-2.147.429-.511.125-.595.206-.526.111-.511-.207-.167-.527-.056-.706-.123-.526-.083-1,.125-.664-.208-.083-1.136-.069-1.673.429-1.218.111-1.413.664h-.386l-.583.084-.4.5-.513.249-.455-.055-.817-.139-.928-.359-.138-.873.345-.456.043-.43-.043-.386-.58-.222-.79.056-.443-.277-.263-.512-.5-.858-.319-.775-.415-.956-.361-.691-.429-.276-.525.221-.4.208-.567-.014-.789-.11-.788-.222-.748-.11h-.511l-.72.333-.25-.1-.415-.193-.553-.388-.6-.318-.305.25-.263.816-.676,1.812-.389,2.685-.152,1.884-.332,1.481-.069,1.272-.153.444-.665.5-.968.069-.789.083-.705.206-.637.332-.554.223h-.455l-.639-.5-.581-.289-.663-.124-1.108-.167-.693-.222-1.8.042-.249.4-.4.358-.4.153-.6.153-.47.111-.525.027-.6.083-.54.235-1.093.678-1.4.788.18-.594-.137-1.2-.638-.264-.471-.194-.415-.526-.18-.456-.374-.458-.649-.345-.636-.3-.43-.152-1.065-.194-.97-.346-.94-.11-.832-.264-.166-.263-.387-1.148.084-.928-.235-1.3.11-1.149.416-1.425.456-1.162.112-1.772-1.453-4.332-.1-1.328,1.564-1.288,1.536-.913.733-1.164,1.232-1.564.3-.679-.429-.5-.194-.554-.151-.845-.305-.705-.858-.872.18-.54.249-.58.124-5.55.276-1.08.513-.124.234-.264.041-.179.125-.415.417-.207.664.027.457.152.428.249.444.1h1.853l.388.319.456.249.224-.042.192-.235.221-.4.193-.291.152-.333.929-1.993.415-1.232.4-.941.442-.651.623-.567.857-1.121.333-.609.125-.443-.153-.623.027-.886.125-.608.1-.582.221-1.979,1.342.1.859.194.789.263.6.429.538.138,2.906-.138.8.125.761.263.624.152.11.471-.069.553.263.139.36-.139.941-.138.1.567.235.567.1.775.069.4.4-.416.415-.636.417-.318.055-.665-.182-.637.2-.775.055-.664.137-1.231-.429-.788-.11-.748.041-.54.1-1.8.691-.719.693-.554.484-.263.443-.181.1-.346.208-.553.153-.47-.346-.956.208-1.286-.345-5.674-1.08-.236-.733-.11-.928-.319-.817-.525-1.065-.153-.638-.165-.567-.249-.7-.25-.443-.222-.568-.748-.415-1.094.015-1.8.774-.18.968.374h.817l.872.139.733.333,1.662.442.456.485.429.471.25.221.5.014.249-.1.153-.347-.153-.346-.139-.636.014-1.8-.249-.526-.61-.388-.636.029-.651-.429-.525.027-.416.292-.111.456-.29.429-.595.193-.58-.028-.222-.179-.111-.955.057-.581.012-.374-1.7-.109-.36-.637-.926-.138-1.288.014-.927.069-1.038-.125-.4-.027-.126-1.107-.3-.693-.125-.872.125-1.785h1.106l1.081-.277.926-.041.817.25.65.1.623.083.706-.3.1-.346-.25-.29-.111-.444.125-.5.345-.014.414.318.167-.069.153-.318-.07-.3-.4-.25-.194-.124-.3-.332-.069-.207.373-.651.154-.623.205-.706.306-.055.526.443.3-.013.471-.375.387-.373v-.375l-.429-.4-.082-.678-.014-.443.387-1.3.235-.152.678.221.5.47.458.415.94,1.233.525.706.375.595.276.208.734.041.706-.083.87-1,.513-.872.511-.858.4-.664.041-.471-.208-.886.041-.36.414-.332.748-.165.512.028.5-.083.733-.4,1.08.553,1.564.844v.872l.3.581.442.056.512.415.029,1.011.04.872.083.471.235.387.471.775.276,1.785.182.9-.084.914.084.609.22.608.388.472.54.277.595.151.9.069,1.592.013.706-.317,1.133-.636.36.842.345.762.278.512.969.594" transform="translate(-1665.17 -1166.68)"  stroke="#fff" stroke-linecap="square" stroke-linejoin="bevel" stroke-width="1" fill-rule="evenodd"/>
        <text id="talId173count" transform="translate(53.562 60.227)" fill="#fff" font-size="10"  font-family="OpenSans-Bold, Open Sans" font-weight="700"><tspan x="-13.5" y="0"></tspan></text>
      </g>
      <g id="_171_Jalkot" data-name="171 Jalkot" transform="translate(2192.754 1445.296)">
        <path id="talId171" fill="#7DB8EC" data-name="Jalkot" d="M1701.448,1185.585l.206-1.19.153-2.1.359-2.214-.139-2.062-.1-.913.472-1.066.914.138.845.014.221-.776.29-.746.332-.36.843-.139.4-.276.234-.761.43-1.827,1.328-.084,1.246.263.636.166,1.107.235h.552l1.136.042.525-.595.318-.54-.056-.4-.359-.968-.249-.707-.847-1.729-.1-1,.139-.264.374-.981.665-.735.359-1.051.415-1.786.553-1.356.775-1.716,1.01-.511.553-.167.83-.332.678-.512.776-.374,1.9-.663,1.161-.61.222.318.637.055,1.3-.207,4.706-.083,3.392.1,1.327.014h.9l.954,1.286,1.081.735.94.733.014.553-.042.458.167.276.317.1.375.055.346.138.124.677-.056,1.343-.11.58.567.222,1.26.181,1.274.263,1.564.3,2.034.4,1.426.442,1.134.181.969.262,1.495.25,1.66.4.694.166.857.263.831.4.678.429v.692l-.084,1.2-.248,1.786-.179,1.73.567,1.98.29.512.069.914-1.051.65-.373.3.013.568.056.443-.181,1.066-.235,1-.111.749.181.512.928.457,1.121.388,1.176.413.762.333.912.9,1.648,1.439.621.36.887.4.858.4.622.332.028.457-.388.43-.885.539-.83,1.094-.582,1.134.1,1.413-.983,2.159-.8,1.106-.871.485-.5.056-.72-.084-.83-.235-.928-.249-.4.443-.429.525-.6.622-.955.845-.983.94-.763,1.385-.773.775-.651.526-.4.554-.249.5.1.692.471,1.2-.6.347-.51.276-.5-.124-.747-.388-1.993-1.052-1.467-.207-1.26-.333-.72-.331-.857-.182-.277.318-.1.665-.386.747-1.177.015-1.357.027-1.744-.027-1.507-.138-3.239.4-1.177.083-.58-.056-.761-.248-.4-.36.042-.707-.125-.429h-.705l-.928.249-1.052.291-1.632.305-1.522.374-1.023.414-1.012.388-1.509-.152.057-1.079v-.443l.166-.5.152-.511-.443-.526-.333-.387-.512-.526.486-1.772.193-.885.443-.817.443-1.065-.056-3.281-.263.013-.456.111-.5-.014-.429-.082-.4-.332-.208-.36-.153-.719-.166-.278-.151-.374-.126-.373-.18-.4.055-.318.194-.332-.235-.292-.471-.054-.47.028-.554.152-.332.457-.428-.416-.416-.221-.429-.111-.428-.014-.472.07-.194.359-.055.347-.221.332-.359.152-.139-.181-.069-.414-.014-.416.027-.484.248-.331.305-.375-.111-.291-.553-.22-.5-.042-.6.374-.663.595-.486.262-.4.167-.415.1-.29.028-.415.277-.249.318-.166.485-.125.443-.181.207-.346-.028-.664-.055-.511.276-.942.263-.829-.028-.748-.056-.208-.25-.041-.345-.236-.277-.319-.139-.289-.277-.3-.318-.085-.277v-.36l.07-.76-.042-1.053" transform="translate(-1701.419 -1154.93)"  stroke="#fff" stroke-linecap="square" stroke-linejoin="bevel" stroke-width="1" fill-rule="evenodd"/>
        <text id="talId171count" transform="translate(31.141 29.595)" fill="#fff" font-size="10"  font-family="OpenSans-Bold, Open Sans" font-weight="700"><tspan x="-13.914" y="0"></tspan></text>
      </g>
    </g>
  </g>
</svg>
