<svg xmlns="http://www.w3.org/2000/svg" width="203.423" height="300.645" viewBox="0 0 203.423 300.645">
  <g id="MumbaiSuburbanDistrict" data-name="MumbaiSuburban District" transform="translate(-2310.31 -192.891)">
    <g id="BorivaliTaluka" data-name="Borivali Taluka" transform="translate(2310.81 193.391)">
      <path id="talId284" fill="#7DB8EC" title="Borivali Taluka" data-name="Borivali Taluka" d="M101.893,178.222h0a3.261,3.261,0,0,1,.949-1.882A3.355,3.355,0,0,0,101.893,178.222ZM7.868,151.108H6.739v-.284H6.462v-.333H6.178v-.908h.284V149.3H7.3v-.285h.567v-.577H7.581v-.331H6.462v-.286H5.9v-.569H5.612v-.335H5.9v-.568H7.581v-.621h.287v-.856h.276V139.78H7.868v-.572H7.581v-1.474H7.3v-1.808h.279v-.572h.287v-.618h.276v-.286h.285v-.286h.286v-.618h.264V128.5H8.715v-.286H8.429v-.285H8.144v-.624H7.868v-.9H7.581v-.284H7.3v-.286H7.024v-.285H6.739v-.336H6.462v-.286H5.9v-.282H5.347v-.286H4.488v-.332H4.217l-.008-.57H3.931v-.619h.278l.008-.858h.272v-.333H4.217l-.008-.571H3.931v-.284H3.369v-.335H1.123v-.572H1.4v-.615H1.69V118.7h.561v-.288H3.09v-.286h.566v-.333h.275v-2.377H3.656v-.286H3.1v-.287H2.527v-.285h-1.4v-.334H.848v-.857H.562v-.9H.285v-.906H0v-.285H.285v-.334H.562v-.854H.856v-.336h.267v-.285H1.4v-.286h.846v.286h1.68v.285h.558v.62h.284v.285h.288v.285H6.178v-.285h.551v-.569h.3v-.621H7.3v-.286h.279v-.57h.287v-.619h.276V107.7h1.964v-.285h.276v-.333h.287v-.857h.281v-.331H12.07v-.287h.285v-.284h1.966v-.287h.286v-.9h.276v-.62h.283v-.285h.284v-1.188h.277v-.573H16V99.088h.286v-.333h.278V95.8h-.278V94.9H16.01v-.285h.277V94L16,94.043v-.619h.286V92.236h.268V91.33h-.268V88.665H16v-.571h-.274v-.619H16V84.523h.286V84.19H16.01v-.285h.277V81.813h.278v-.858h.283v-.333h-.283v-3.57h.283v-.285h.279v-.285h-.279v-.287h.279v-.619h.287v-.284h.562v.284h.842v-.284H19.1v.284h1.4v-.284h.286v-.62h.277v-.285h.281V74.1h.286v-.618H21.9v-.57h.288v-.619h.56V69.626h.279V68.438H23.3v-.286h.287v-.284h.275V66.057h.285V65.77h.277v-.284h.282V65.2h.561v-.334h.286v-.284h.272V64.3h.284v-.336H26.4V63.68h.563v-.287H27.8v-.286h.267v-.333h.3v-.285h.842V62.2h.276v-.285h.289v-.285h.27V61.3h.286v-.288h.283v-.571h.273v-.618h.564V59.54h.284v-.623H31.45v-.284h-.286v-.287h.286v-.615h-.286V53.59h.286V52.4h.284v-.333l.277.048v-.619h.283V51.21h.284v-.62h.277v-.57h1.688v-.285h.844V49.4h.562v-.286h.275v-.287h.567V48.5h.274v-.283h.292v-.287h.273v-.284h.285v-.287h.276v-.332h.558v-.286h.284v-.288h.286v-.284h.277v-.332h.279V45.26h.285v-.332l.276.048v-.334h.286v-.284h.27v-.287h.287v-.618h.284v-.287h.286v-.571h.276v-.333H42.4v-.286h.282v-.569h.285v-.619h.275V39.311h.284v-.286H43.8v-.618h.286v-.284h.281v-.287h.276v-.617h.285v-.905H45.5v-.287h.275v-.57h.282V32.743l.275.046v-.9h.286v-.332l.284.045v-.9h.287v-.334H46.9v-.284h.277v-.573h.281v-.332h-.281v-.285h.281v-.572h.285V27.7h.277v-.571h.294v-.334h.263v-.571h.291v-.286l.32-.046-.039-.285h.286v-.289h.276v-.284h1.118v-.284h.846v-.334h.559v-.284h1.955v-.287h.3v-.286h1.68v-.331h.566v-.287h.553v-.285h.286v-.286h.567v-.334l.268.048v-.334h.294v-.285h.561V21.18h.559v-.287H60.1V19.085h.286v-.62l-.286.048V17.9h.286v-.619H60.1V16.7h-.283v-.9H59.53v-.286h-.276V15.23h-.285v-.335h-.276v-.282H58.13v-.572h-.287v-.62h-.279v-.571h-.276v-.333H57v-.287h-.547v-.285h-.123l-.082.429.665-3.521.2-.716.2-.568.113-.286.243-.429.054-.1.148-.285.162-.238.272-.381.314-.476.3-.427.216-.335.084-.094.191-.19.115-.095H59.6l.345-.284.376-.287.277-.143.3-.191.087-.047.3-.1.21-.047.219-.048.35-.143h.14l.825-.048L63.382,3l.42.1.908.142.513.095.911.143.553-.143.1-.047.453-.142.434-.1.567-.572,1.009-.763L70.5.856l.165-.094.467-.287.3-.188h.7L72.68.238h.238l.314.049h.1l.2-.049.234-.047h.2L74.122.1h.136L74.35.049h.105L74.55,0h.08l.362.049h.148l.249.094L75.5.191l.433.236.12.1.162.047.127.047.078.048h.243l.259-.048.105-.047.29-.1h.191l.018.049h.026l.009.047L77.6,1.663l.766-.046.847.286.216.144.484.095.757.475.075.046L81.089,3l.623.573.215.189.819-.1.513-.285.14-.811.4.1.055.478.666.523.549.191.236.38.134.191,1.551-.571.142.286L87,4.806l-.209.9-.054.19.135.191,1.026,1.571.045.1.362.332.642.667.51.618.234.286.032-.1-.052-.381.086-.428.172-.095h.27l.047.048.186.143.327.189-.019.143-.009.1-.022.046-.017.094-.065.05-.054.095.034.049.01.093-.049.048.1.143-.137.284.129.049h.037l.058-.049.039-.142.034-.189.127-.1.7-.141.3.046v.047l.37-.047.414-.095h.029l.263.049h.009l.106.046.2-.046.17.093.063.048.513.238.121.047.479.142.046.1.2-.047h.451l.372-.049.2-.046.148.046.139.049.4.192.148-.095.218.1.718.759.491.524.358.476.276.761.31.525.1.236.329.62.123.1.748.474.307.19.453.382.515.571.346.334.282.332.4.383.743.189h.086l.81.286.477.094.967.428.643.617.8.763,1.028.952,1.4,1.331,1.906.144,1.187.047.971.143.231.049.662.093,3.151.952,2.024.62,2.354,6.949,1.06,1.235,1.567,1.856,1.511,1.806,3.712,4.38.7,3.809.617.572.458,1.14.431,1.714-.2,1.472-.339,2.384-.084.665-.146,1.19-.11.761-.194,1.618-1.68,1.716-.8,6.852,2.746,3.092.957-.238.518-.048.619-.1.553-.094.517-.048.167-.189.657-.951.756-1.1.886-2.618.229-.62.371-1.046.39-1.286.5-.855.7-.19,1.476-.428.726-.192,2.23.572,3.912,3.093,1.417,1.95.881.143,1.622.237.957.1,1.659,3.666.342.762,1.336.9,1.239.807V70.1l.013,2.236.029,1.142-.073,1.666-.156,3.524.006,2.9,1.709,2.331,2.533,2.473.218.191.646.456c-1.206,1.084-2.551,2.314-4,3.657-2.829,2.622-3.986,8.4-4.458,12.789a69.185,69.185,0,0,0-.35,8.982,135.493,135.493,0,0,0-5.076,16.563c-1.7,7.214-2.8,7.993-3.2,7.993a.218.218,0,0,1-.142-.045c-.2.072-4.979,1.76-14.425,2.538-1,.082-2.011.124-3,.124a32.952,32.952,0,0,1-9.9-1.473c.068-.628-.027-1.032-.284-1.2a4.478,4.478,0,0,1-1.3-2.527c.008-.029.749-2.858-1.079-7.267-.645-1.554-1.593-2.343-2.82-2.343a4.968,4.968,0,0,0-2.757,1.118c-.024.028-2.628,2.991-4.712,5.756a4.511,4.511,0,0,1-3.731,1.8,6.076,6.076,0,0,1-1.845-.285c-.026-.017-2.552-1.683-2.482-3.2s-1.387-3.666-1.4-3.687a3.738,3.738,0,0,0-.6-.045,2.978,2.978,0,0,0-2.877,1.7c-.931,2.093-10.495,8.865-10.591,8.932a18.286,18.286,0,0,1-5.408.715c-.155,0-.325,0-.52-.006-3.007-.066-3.958-1.371-5.853-3.97l-.024-.033c-.385-.527-.82-1.124-1.315-1.766-2.865-3.718-5.652-3.869-5.769-3.874a36.981,36.981,0,0,1-8.773-1.659,9.077,9.077,0,0,0-2.973-.507,8.623,8.623,0,0,0-4.268,1.105,7.081,7.081,0,0,1-2.776.7,2.438,2.438,0,0,1-2.538-1.75c-.793-2.34-3.021-4.924-4.278-6.257h.323v-.618h.838V118.7h.285v-.288h.557v-.286h.277v-.333h.276v-.285h.294v-.57H39.6V116.6h.272v-.568h.561v-.287h.286v-.331h.558v-.286h.284v-.287h.278v-.285h.284v-.334H42.4v-.57h.567v-.287h.275v-.617H43.8v-.284h.286v-.286h.281v-.62H45.5v-.285h.832v.285h.847v.62h.566v.286h.834v-.286h.571v-.334h.562v-.286h.273v-.9h-.273v-.905h-.276v-.285h-.567v-.286h-.553v-.9h.267V107.7h.567v-.285h.286v-.333h.276v-.571h.273v-.9h.283v-.284h.286v-.9h.276v-.908h-.276v-1.76h-.283v-.617h.559v-.286h.285v-.572h.276V99.088h-.276v-.9h-.294V96.707h-.267V95.518h-.283V94H49.98v-.286h-.273v-.285h-.276v-.287h-.567v-.286h-.291l0-.333H48.3v.333h-.285v.858H48.3V94h.276v.9h.286v.619h.281V95.8h.275v1.188h.287v1.762h-.276v.615h-.286v.574h-.571v.332h-.263v.286h-.294v.286H47.74v.286l-.285.045v.286h-.27v.286H46.9v.287h-.284v.285h-.561v.333H45.77v.285h-.561v.285h-.278v.285h-.285v.333H44.09v.287H43.8v.287h-.277v.285h-.284v.332h-.275v.287h-.285v.284h-.569v-.284H40.435v.284h-.276v.287h-.564v.331h-.277v.286h-.286v.571h-.284v1.191H38.47v.618h-.557v.284h-.285v.286h-.273v.285h-.292v.336H36.79v.284h-.283v.285h-.284v.285h-.275v.619h-.286v.286h-.276v.62H35.1v.284H34.82v.285h-.277v.619h-.286v.284h-.275v.286H33.7v.334h-.281v.285h-.277v.573h-.283v.618h-.277v.568h-.284v.906h-.275v.618h-.285v.286h.277v.571h-.277v.618H31.45v.571h-.286v.621h-.278v.284H30.33v.286h-.286v.285h-.836v.333h-.566v.286h-.562v.285h-.562v.621h-.282v.285h-.561v.285H26.4v-.285h-.285v.285h-.279v.617h-.276v.286h-.286v.568h-.277v.621h-.284v1.188h-.282v.574h-.562l.01-.291h-.3v-.284H22.464v-.284H22.19V126.4h-.3v-.284h-.552v-.286h-.281v-.285h-.277v-.336H20.5v-.286h-.275v-.282H19.65v-.286h.286v-.332h-.281v-.285H19.38v-.57H19.1v-.621h-.277v-.285h-.286v-.286h-.286v.286h-.269v.572h.269v.9h.286v.285h.286v.332H19.1v.568h.284v.286h.276v.336h.567v.571h-.286v.284h.286v.334h.561v.568h.277v.291h.281v.333h.286v.285h.562v1.761h.275v2.377h.281v1.526h-.281v1.142h-.837v.332h-.567v.287h-.277v1.475H20.5v.618h-.275v.286h-.286v.284h-.281v.284H19.38v.333H19.1v.287H17.977v-.287H17.69v-.333H15.166v.333h-.283v.287h.285v.284h.842l-.009,3h.286v.571h.268v.285h.293v3h-.283v.568h-.278v.335H16v.284h-.274v.285H15.45v.617h-.284v.577h-.283v.285h-.276v.284H13.76v.333h-.283v.288H11.514v-.288h-.562v-.333H9.823v.333H9.547v.574H9.272v.333h-1.4v.283Z" transform="translate(0 0)"  stroke="#fff" stroke-linecap="square" stroke-linejoin="bevel" stroke-width="1"/>
      <text id="284" font-size="13" transform="translate(54.74 84.551)" fill="#fff" font-family="OpenSans-Bold, Open Sans" font-weight="700"><tspan x="0" y="0"></tspan></text>
    </g>
    <g id="AndheriTaluka" data-name="Andheri Taluka" transform="translate(2335.088 312.99)">
      <path id="talId283" fill="#7DB8EC" title="Andheri Taluka" data-name="Andheri Taluka" d="M20.51,129.261v-.331h-.286v-.287h-.277v-.287h-.3v-.571h-.265v-.617H19.1v-1.187H18.82v-1.19h-.286l.011-.571h-.276v-.332H17.7v.332h-.287v.285h-.557v.286H15.737v.285h-.3v.284H14.334v-.284h-.286v-.285h-.563v.285H13.21v-.285h-.287v-.571h-.279v-.332h.279V123.6h.287v-.568h.564v-.62h.559v-.856h.275v-.62h.282v-1.185h.277v.279h.275v-.279h.3v-.289h.277v-.282h.279v-.336h.285v-1.188h.276v-.572h.285v-.9H17.7v-.286h.284v-1.476h.278v-.9h.273v-.287h.286v-.617H19.1v-.9h.284v-.861h.837v-.284h.286v-.9h-.286v-.334l-.277.046v-.618h-.284v-.571h-.276v-.334H17.7v-.857h-.283v-2.379H17.7v-.285h.562v-.332h.273V102.8h.286v-1.193h-.275v-1.472h-.276V98.378h-.286v-.335H17.7v-1.19h.562V96.28H19.1V96h.284V94.8h-.281V93.615H18.82V92.142h-.286V88.523H17.7V86.477h.562v-.616h.559v-.287H19.1v-.285h.549V85h.858V84.67h.557v.619h.277v.285h.286v.615h1.128v-.327l.276.048V84.1h-.286V82.289h.286V81.43h-.286v-.617h-.276v-.571h-.281V78.15h.567v-.908l.276.049V75.77h.284v-.908H23.6V68.913l-.287.049V67.439h-.284V64.492h-.286v-.62h-.276V62.4h-.281V60.347h-.276v-.619H21.63v-.617h-.286V57.923h-.277v-.857H20.79V56.16H20.51V54.4h-.286V52.023h-.277V50.831h-.3v-.619h-.265v-.9h-.281l0-1.475H18.82v-.571h-.286l.011-.62h-.276V46.07h-.286v-.614H17.7v-.621h-.287v-.856H17.14v-.285h-.285v-3h.285v-.287h1.121V38.928H17.7v-.281h-.287V38.03H17.14v-.286h-.561v-.621h-.285v-.284h-.272v-.284h-.847v-.287h-.567v-.333h-.275v-.287h-.286v-.283H13.77v-.288h-.286v-.333H13.21v-.285h-.287v-.286h-.279v-.285h-.561v-.333h-.276v-.286h-.288V32.98H11.24v-.618l.278.047v-.333H11.24v-.568h-.563v-.284H10.4v.284h-.285v-.617H9.835v-.285H9.557V29.415H9.275v-.286H9v-.291H8.713v-.331H8.431v-.285H8.154v-.286H7.869v-.284H7.594v-.619H7.033v-.284H6.751v-.621H6.464v-.287H6.188v-.284H5.9v-.616H5.628v-.285H5.343v-.284H5.062v-.291H4.787v-.331h-.3v-.286H4.224V23.18H3.657v-.286H3.373v-.617H3.1v-.288H2.818V21.7H2.534v-.333H2.25v-.284H1.978V20.8H1.415v-.617H1.13v-.288H.572v-.284H.286v-.62L0,19.038v-.9H.286v-.618H.572V16.041H.849v-.618H1.13v-.287h.285v-.571h.563V14.28h.275v-.619h.281V10.377h.284V9.806H3.1V9.474h.561V8.9h.567V8.616H4.5V8.331h.286V8h.275V7.708h.282V7.423h.285V7.139H5.9V6.805h.284V6.521h.276V6.235h.286V5.614h.555V5.329h.278V4.76h.57V4.429h.559V4.143H9V3.858h.559V3.239h.278V2.667H10.4V2.381h.276V2.049h.286V1.476h.555V1.193h.288V.571h.561V.286h.276V0h.242C14,1.174,16.352,3.858,17.166,6.258c1.08,3.182,5.313,1.053,5.313,1.053a8.787,8.787,0,0,1,7.241-.6,36.624,36.624,0,0,0,8.773,1.659s2.845.08,5.769,3.874,3.557,5.689,7.192,5.768a18.6,18.6,0,0,0,5.928-.71s9.642-6.8,10.591-8.932S71.45,6.713,71.45,6.713s1.473,2.143,1.4,3.687,2.482,3.2,2.482,3.2,3.489,1.258,5.576-1.511,4.712-5.756,4.712-5.756,3.742-3.2,5.577,1.224,1.079,7.267,1.079,7.267a4.507,4.507,0,0,0,1.3,2.527c.971.648-.684,4.389-.684,4.389s-5.036,1.223-5.936,4.281-.144,6.423-.756,7.682-4.1,3.849-.971,7.014,3.019,4.545,3.019,4.545.919,4.5-2.623,6.876-6.229,4.5-6.229,4.5-1.5.832-1.186,4.506-2.45,4.051-2.45,4.051a9.62,9.62,0,0,0-1.343,4.029v7.43s.949,1.739-1.817,3.478-5.217,2.213-4.9,8.06a40.013,40.013,0,0,1-.835,9.634l-2.19-4.263-3.893-3.334-1.766.572-.8,1.383-.477,23.318-1.388,2.666-1.521.666-3.23-.284-6.464-.1-2.878.523-.462.524L35.113,127.5l-.294-.046v-2.663h-.269v-2.953h-.286v-.619h-.281v-.286h-.275v-.571h-.286v-2.376h-.277v-.62h-.269v-.285h-.3v-.286h-.561v-.333h-.276v-.285h-1.4v.285H29.5v.333h-.286v.286h-1.12v.905H27.53v.285h-.294v.57h-.267v.618h-.286v.289H26.4v.614h.286v.286H26.4v.285h-.549v.286h-.567v.334h-.562v.285h-.286v.287h-.277v.284h-.842v.286h-.284v.334h-.843v.283h-.276v.285H21.63v.291h-.563v.332H20.79v.285H20.51v1.763h.281v.616h.276v.571h.285v1.189h-.285v.618Z" transform="translate(0 0)"  stroke="#fff" stroke-linecap="square" stroke-linejoin="bevel" stroke-width="1"/>
      <text id="283" font-size="13" transform="translate(25.462 51.952)" fill="#fff" font-family="OpenSans-Bold, Open Sans" font-weight="700"><tspan x="0" y="0"></tspan></text>
    </g>
    <g id="KurlaTaluka" data-name="Kurla Taluka" transform="translate(2401.948 280.417)">
      <path id="talId285" fill="#7DB8EC" title="Kurla Taluka" data-name="Kurla Taluka" d="M36.2,212.619h-.285v-.285h-.275v-1.811h-.276v-.571h-.286v-.618H34.8v-2.667h-.288V206.1h-.274v-.619h-.275V205.2h-.285v-.287H29.466v.287H28.338v.285H27.219v.286h-.561V204h.561v.284h1.119V204h-.276V203.1h-.58v-.285H26.373v.285H26.1v-.568H21.042v-.288H20.48v.288H16.549v-4.473h-.281v-4.144h-.291l0-.619,3.527-5.282,3.194-1.474-4.161-2.522-4.373-4.9,3.316-8.093,1.739-10.947.82-5.759-8.686-6.472-4.984-1.758L7.452,142.8l6.811-9.569-.794-2.14-2.328-1.283-1.175-.719-2.515.478-3.763,2.478-.452,1-.876-.285-.377-.617L.7,131.759,0,130.4a39.661,39.661,0,0,0,.836-9.633c-.274-5.063,1.529-6.1,3.81-7.413.354-.2.719-.414,1.091-.647,2.738-1.721,1.827-3.46,1.817-3.478V101.8A9.666,9.666,0,0,1,8.9,97.773c.029,0,2.762-.43,2.45-4.051s1.171-4.5,1.186-4.506,2.73-2.16,6.229-4.5,2.632-6.83,2.623-6.876c0-.013.087-1.4-3.019-4.545-2.486-2.514-.8-4.656.312-6.074a6.137,6.137,0,0,0,.659-.94,7.527,7.527,0,0,0,.27-2.771,17.308,17.308,0,0,1,.485-4.911c.89-3.022,5.885-4.268,5.936-4.281A13.656,13.656,0,0,0,27,51.128,33.657,33.657,0,0,0,39.9,52.477c9.75-.8,14.425-2.538,14.425-2.538s1.2,1.134,3.339-7.948a135.64,135.64,0,0,1,5.076-16.563s-.668-16.7,4.808-21.772c1.612-1.495,2.936-2.7,4-3.656l.368.26.108.095.238.236.247.19.32.429.3.429.31-.333.638-.191.564.286.823-.428h.493L76.241.83h.918l.228.143.139.095.1-.048.118.048.224-.144L78.1.973l-.047.237.191.049.289.094.251-.189.178.095.2.094.2.094.021.05.148.046h.089l.206.1.161.047H80.1l.334.19.437.1.137.19.342.236-.057.477.019.238.028.046.039.048h.1l.076.048.291.285.443.286.048.05.056.045.077.1.085.095h.092l.89.189h.243l.234.1.6.048.148-.095.285-.1.15.047h.175l.142.049.224.047h.044l0-.43.058.05.371-.05h.1l.053.1.039.188.008.047.1.144.105.047.146.047.1.286.33.191.015.094.018.333-.194.237.094.286.645.334L87.8,6.4l.1.143.105.095h.686l.161.1.2-.049.324.095.148.429h.186l.049.142.057.095.2.287L89.9,8.4l.085.237.049.1.075-.047.067-.095.21.046.123.144.425.521.044.143-.211.38v.335l.358.094,0,.285.047.146h.376l.332-.194.282.194.1-.1.186.143.53-.668.084.048.067.048.08.236.045.193.3.334.4.284.037.19.039.143L94,11.729l-.034.333.086.094.741.762.409.19.049-.048.018-.095.1-.094.022-.049h.1l.2.049h.226l.095-.049h.162l.076-.046.5-.1.441-.089.082-.1.387-.193.082-.142h.04l.173-.047h.027l.241-.095.207-.285.709.142h.11l.249-.095-.068.38.095.284.031.148.029.046.044.189.056.143.018.048.131.285.044.095.028.05.058.237.023.095.17.142.134.047.312.095.179.049.349.094h.124l.465.095.7-.57.232-.572.315-.857.091-.236.319-1.1v-.046l.824.189.281.19-.281.571,0,.191.025.332.361.046.513.095-.1.192.086.191.091.142.105.19.142.193.348.474.038.047.483.716,1.133,1.617.07.141.057.047.137.144.121.142.063.047.175.239.053.048.4.525,1.219,1.617.633.855.977,1.334-.044.095-.561,2.188-.048.144-.118.38-.2.809-.4,1.1L109,28.908l-.524,1.9-.08.285-.466,2-.194.859.129.952-.044.522-.037.191-.129.763-.257,1.376-.025.095-.08.525-.076.429-.121.191-.21.141-.317.476-1.305,1.809-.175.238-.526.715-.1.19-.685,1.19-.388.713-.1.237-.905,1.618-.357.666-.237.476-.367.715-.65,1.142-.263.429-.962,1.854-1.053,1-1.369.715-.648.713-.519.571-.395.43-1.694,1.907-.231.236-.8.854-.127.142-.051.048-2.246,2.334.305.617.115.192.664,1.189L92.6,64.508l-.13.9-.032.188-.077.383-.006.047-.227,1.332-.349.621-.219.333h-.019l-.234.38-.579,1,0,.047-.224.336-.333.523-.415.665-.37.617-.273.478-1.346,2.048-.257.332-.029.1-.057.046-.114.19-.146.19h-.011l-.791,1.1-.44.617-.031.048-.132.476-.013.046-.092.43L85.3,79.214l-.186.762-.063.236-.314.573L84.1,81.88l-.066.1-.039.1-.876,1.478-.886-.1-.538-.093-.319-.05-.671-.141h-.066l-.31-.191-.548-.38-.381-.379-.395-.382-.686-.715L77.6,80.5l-.089-.053-.076-.044-.59-.524v-.047l-.254-.335-1.009-.143-.3-.1-.567.1-.133.048-.46-.048L76.606,84.6l.767,1.662.314,1.142.208.667.329,1,.186.57.115.333.441,1.193.045.8.06,2.144-.019.761-.013.142,0,1.1-.011.1.006.046-.006.1.021.716.017.475.03,1,.042,2.572v.238l.008,1.188v.478h-.008l.037.619.259.761.251.854.648,2.189h-.01l.041.24.019.332.063,1.665.039.572.089.762-.155,1.187.627,1.143.333.665,1.061,3.715,1.076,1.378.248.334.294.333.076.142.023.047.589,1.478.134.38.053.1v.049l.725,2.189.151.33-.025.861-.031,1.043-.027.81-.028.952L87.729,132l.021.046,0,.094v.095l-.036.379-.018.237.026.479.063.615-.105.237h.1l.684.241.167.1h.105l.181.094.085.049.092.094.341.288.259.237.343.287.808.713.522.76.074.191.113.287.066.191.025.142.036.38.14.713.08.521.034.716.015.571.015.38.023.1-.19,1.333-.486,3.186-.121,1.286-.067.666-.1.763-.142,1.093.105.191.087.142.018.146.089.617-.136.477-.286.9-.191.569-.367.954-.3.759-.2.477-.436.715-.3.476v.048l-.246.331-.669,1.049-.535.665-.934,1.049-.678.807-.8.951-.263.192,1.342.9-.9,1.235-.094.053h-.315l-.143.047-.177.142-.211.191-.168.237-.047.143,0,.475v.237l-.493,1.618-.781,2.62-.039.093-.407.38L79.329,171.4l-.767.286-.323.145-.411.188-1.7.715-2.552,1.33-.491.238-.59.142-.6.145-.287.046-.38.1-.327.143-.446.236-.477.285-.324.145h-.247l-1.11-1.808-.115.048-.37.092-.976.1-.4.093-.34.189-1.491.764-.232.189-.153.24-.317,1.618-.31.572-.377.57-.529.336-.624.327-4.1,5.571.11,1.093-3.954,5.379L52.505,193.1l-.937,1.332-.939,1.856-1.694,2.667-2.479,2.807-1.766,1.951-.1.237-.771.9-.621.482-.54.283-1.2.476-.425.191-.323.046-.581.094-1.311.05-.64.093-.639.285-.711.426-.819.528-.561.569.19.049v.616h.275v.906H36.2v.856h.281v.335h.561v.573h.276V212h-.551v.333H36.2v.284h0Z" transform="translate(0 0)"  stroke="#fff" stroke-linecap="square" stroke-linejoin="bevel" stroke-width="1"/>
      <text id="285"  font-size="13" transform="translate(20.602 125.524)" fill="#fff" font-family="OpenSans-Bold, Open Sans" font-weight="700"><tspan x="0" y="0"></tspan></text>
    </g>
  </g>
</svg>
