<svg xmlns="http://www.w3.org/2000/svg" width="155.364" height="299.311" viewBox="0 0 155.364 299.311">
  <g id="_397_Mumbai_City" data-name="397 Mumbai City" transform="translate(-308.5 -1508.523)">
    <g id="_397_Mumbai_City-2" data-name="Mumbai City" transform="translate(-646.477 875.736)">
      <path id="talId397" title="Mumbai City" data-name="397 Mumbai City" d="M861.081,1115.968l11.324-12.886,4.386-.8,9.849.147,4.912.442,2.32-1.01,2.108-4.051.717-35.492,1.222-2.108,2.7-.866,5.927,5.061,4.386,8.543,1.96.569.569.95.866.3.463.146.7-1.517,5.734-3.754,3.819-.719,1.793,1.1,3.544,1.941,1.2,3.27L921.224,1089.8l-1.645,5,7.593,2.678,13.223,9.848-1.244,8.775-2.108,12.905-.613,3.776-5.037,12.315,6.661,7.467,6.328,3.837-4.871,2.236-5.778,8.035v-1.308h-5.125v1.815H926.9v.507h-1.264v.443H924.35v.443h-7.257v.507h-1.707v.507H914.1v.443h-2.108v.441h-.421v.95h-.865v.443h-1.288v.443h-2.109v.443h-.843v-.443h-2.574v.443H902.6v.507h-.865v.441h-.4v.443H900.9v.423h-.972v.507h-.864v.421H898.2v1.815h-.419v1.817h-.443v.421h-.865v.443h-.443v.507h-.316v.443h-.443v1.308h-.421v.95h.421v.441h.443v.928h.4v.442h.441v.866h.443v.948h.423v.443h-1.707v2.678h-.443v.507h-.421v.443H893.14v.443h.423v.507h-.423v.507H892.7v.443h-2.108v.443h-.441v.948h.441v.866h.423v1.37h.443v.865h.421v.95h.423v1.37h.441v.865h.423v.95h.421v.865h.443v.95h.423v.865h.441v.95h.423v.927h.443v1.37h.421v1.815h.423v1.308h-.443v.507h-.447v.443h-.443v.443h-.421v.443h-.865v.443H893.6v.507h-.4v.441h-.423v.423h-.443v.95H891.9v.421h-.421v.423h-.423v-.423h-1.665v-.421H887.68v-.5h-1.707v-.443h-2.108v.95h.423v.421h1.707v.423h1.286v.442h1.266v1.878H888.1v.507h-.823v-.507h-1.707v-.424h-1.729v-.443h-2.108v.866h.865v.507h1.286v.442H886v.443H888.1v2.763h-.823v-.507h-1.707v-1.1h-3.438v.443h-.43v.507h.4v.507h2.108v.443H885.5v.442h-.443v.95h-.423v.866h-.441v.507h-1.707v-.507h-.865v-.443h-1.707v.95h.443v1.37h.421v.948h.443v2.258h.823v.443h.866v2.234h-1.288v.507H881.2v.443h-.443v.443h-.428v.443h-.443v.507h-.423v1.307h-.421v1.815H878.6v1.815h-.421v1.815h-.443v1.815h-.423v2.258h-.421v2.743h-.423v1.815h-.441v1.308h-.443v1.815h-.443v1.815h-.421v9.046H874.3v1.37h-.421v1.815h-.443v3.122h-.423v4.554h-.441v2.677h-.423v.95H871.7v3.122h-.423v.507h-.423v.441H870.4v.443H870v.642h-.423v.507h-.445v.865h.443v2.234H870v2.743h.424v3.625h.443v1.308H870.4v.95h-.844v.443h-1.266v-.443h-.423v-.443h-.421v-4.069H867v-1.37h-.421v-.447H865.3v3.122h-.423v.443h-.8v.95h-.421v.442h-.443v.443h-.843v.507h-.4v.443h-.421v.443h.421v.443h.443v.507h.843v-.507h1.707v.507h.421v.442h-.421v.866h-.423v.441h-.865v.509h-.423v.441h-.843v.443h-.441v.507h.443v.95h.421v.864h.423v.507h.421v.866h.443v.948h.443v.866h1.286v-.443h.423v-.443h.441v-.507h.426v-.443H868v-.441h.423v-.443h.441v-.95h.423v-.444h.865v-.95h.423v-.507h.441v-.443h.845v1.817h-.443v.865h-.423v.507h-.865v.443h-.421v.441h-.443v.443h-.423v.507h-.549v.866h-.423v.421h-.421v.507h-.443v.443h-.421v.865h-.4v.507h-.423v.443H864.9v.443h-1.286v.443h-1.266v-.443h-.865v-.443h-.443v-.443h-.843v-.507h-.865v-.443h-.443v-.421h-.4v-.443h-.421v-.507H857.2v-.421h-.866v.948h.423v.866h-.843v-.423h-.844v.423h-1.286v1.37h-.421v1.815h-.423v1.307H852.5v.95h-.443v.865h-.423v.507h-.421v.443h-.423v.443h-.443v.442h-.865v.507h.865v.423h.443v1.815h-.443v.443h-.421v.443h-.443v.441h-.4v-.441h-.866v1.37h-.421v.441h-.423v.443h-.441v.507h-.423v.443h-.443v.443h-.421v.443H845.2v.507h-.421v.441h-.443v1.816h-.422v1.368h-.421v.927h-.443v.441h-.421v.443h-.443v.507h-.425v.443h-.421v-.443h-.443v-.507h-.421v-.443h-.423v-.441h-.843v-.443h-.44v-.507h-.421v-.443H837.9v-.443h-.866v-.443h-.866v.443h-.421v.443h-.865v.443h-.336v.927h.443v.443h-.423v.95h-.421v.441h-.865v.423H832v.443h-.443v.507h-.423v4.935h-.424v1.37h-.423v1.815h-.421v.865h-.443v.95H829v.443h-.441v.948h-.423v.866h-.443v.442h-1.308v.95h-.272v1.308h-.44v.276h-.423v.443h-.421v.865h-.443v.509h-.423v.442h-.441v.866h-.443v.507h-.423v.441h-.441v.866h-1.266v1.37H820.5v.865h-.864V1355h-1.71v.423h-.864v.441h-1.286v1.37h-.423v.443h-.441v-.444h-.423v-1.37h.4v-1.37h.441v-1.308h.423v-1.37h-.423v-.442h-.441v-.443h-.4v-.507h-.443v-.866h-.421v-.441h-.444v-.507h-.421v-.443h-.423v-.848H811.9v-.507h-.441v-.865h-.423v-.443h-.443v-.95h-.421v-.865h-.443v-1.37H809.3v-1.392h-.421v-2.236h-.443v-2.233h-.443V1330.6h.423v-1.815h.443v-1.37h.421v-.446h.423v-.739h.441v-.507h.423v-.865h.443v-.95h.423v-.443h.423v-.865h.441v-.95h.423v-.443h.443v-.441h.421v-.95h.423v-.443h.443v-.443h.865v-.507h.421v.507h.423v.443h.443v.443h.421v.441h.443v.509h.421v.441h.443v.443h.843v.443h.423v.507h.443v.443h.441v.864h.443v.507h1.709v-.507h.843v-.443h.443v-.443h.421v-.441h.844v-.95h.421v-.443h.865v-2.258h.443v-.507h.422V1318h.421v-.423h.443v-1.37h-.443v-.443h-.421v-1.815h.441v-.865h.423v-.507h1.707v.507H831.2v.443H832.9v.441h2.108v.443h.444v.507h.421v.443h1.286v-.443h.423v-.507h.4v-.865h.443v-.443h.423v-.95h.443v-.441h.843v-.443h.421v-.443h1.286v-.95h-.865V1307.2h.443v-1.37h-1.284v.443H839.3v.421h-.866v-.865h-.443v-.443h-.843v-.507h-.865v-.441h-1.286V1304h-1.707v-.443h-.843v-.507H832v-.443h-.443v-.443h-.421v-1.37h.4v-1.368h.443v-.443h.423v-.444h.865v-.443h.421v-.95h.443v-.441h.423v-.866H835v-.95h.441v-.441h.423v-.95h.421v-.443h.378v-.865h.423v-.95h.441v-.886h.423v-1.37h.443v-1.37h.421V1285.8h.443v-8.561h-.487V1275h-.421v-1.37H837.9v-1.37h-.4v-1.307h-.424V1270h-.421v-.866h-.421v-.951h-.443v-.865h-.442v-.95h-.443v-.421h-.358V1265h-.421v-.443h-.443v-.443h-.423v-.864h-.441v-.507H832.4v-.443h-.443v-.443h-.443v-.442h-.865v-.507h-.421v-.866H829.8v-.441h-.865v-.509H828.5v-.442h-.843v-.443h-.843v-.443h-.443v-.507H825.5v-.443h-.423v-.443h-.421v-.423h-.443v-.443h-.866V1255h-.843v-.443h-.443v-.421h-.421v-.443h-2.995v-.507H815.23v.507h-.443v.443h-.423v.421h-.443V1255H813.5v.507h-.423v.865h-.865v.443h-1.286v.866h-.843v.865h-.443v.443h-.421v.507H808.8v.441h-.421v.866h-.866v.95h-.865v.442h-.421v.443H805.8v.507h-.776v.443h-.864v.443h-1.266v.443h-.865v.441h-1.266v.95h-.444v.423h-.441v.442h-.4v.509h-.443v1.815h-.338v.442h-.864v.443h-.421v.443h-.421v.507h-.4v.864h-.423v1.817h-.421v1.815H795.3v1.37h-.423v1.307h-.4v.507h-.443v.441h-.4v.443h-1.264v-.443h-.423v-.441h-.443v-.507h-.865v-.443h-.421v-1.37h.421v-.441h.421v-.865h.443v-.951h.443v-.864h.423v-1.817h-.443v-1.37h-.423v-1.37h-.443v-1.815h-.421v-.866h-.421v-.949h-.443v-.865h.443v-4.069h.843v-.95h.443v-.866h.421v-.948h.443v-.443h.421v-.443h.423v-.865h.443v-.507h.4v-.443h.423v-.424h.421v-.441h.421v-1.817h.441v-.507h.423v-.441h.421v-.443h.443v-.443h.423v-.507h.864v-.443h.443v-.443h.4v-.442h.864v-1.816h1.729v-.509h.423V1244.5h-.423v-1.37h.423v-.866h.443v-.507h.441v-.865h.443v-.443h.423v-.95h.421v-.441h.423v-.95h.441v-2.258h.87v-.443h.843v-4.492h-.843v-.507h-.443v-.443h-.639v-1.37h.423v-1.308h.441v-.951h.426v-.865h.421v-.927h.866v-.444h.419v-.443h.443v-.421h.443v-.51h.421v-.443h.423v-.95h.443v-.551h.421v-.865h.864v-.95h.423v-.862h-.443v-2.763h4.221v-.423h.421v-.421h.443v-.507h.423v.507h2.995v-.507h.443v-.443h.421v-.421h.423v-.443h.441v-.507h.423v-.95h.843v-.864h.865v-.95h.423V1207.6h.443v-3.628h-.443v-1.815h-.423v-.443h-.441v-.865h-.844v.441h-.865v-.441h-1.707v-.507h-.423v-1.817H819.1v-.865h.443v-.951h.423v-.865h.441v-.95h.443v-.926h.423v-1.815h.441v-1.813h-.441v-.95h-.846v-.507h.423V1186.2h-.423v-3.184h-.441v-2.234h-.443v-.866h.443V1175.7h.441v-1.815h.443v-.866h.423v-.95h.441v-.95h.423v-.926h.443v-.443h.421v-.865h.444v-.95h.443v-4.071h.421v-.442h.443V1163h.423v-.95h.421v-.865h.443v-.95h.421v-.443h.443v-.441h.423v-1.37h.421v-5.421h-.421v-1.812h-.423v-4.935h-.443v-5.419h-.368v-.95h-.442v-.864h-.423v-3.184h1.286v.443h.443v1.815h.423v.95h.421v.442h.443v.423h.421v.443h.443v.507h.423v.443h.441v.441h.423v.95h.421v.507h.423v.443h.443v2.741h.441v.866h.423v1.37h.421v1.308h.443v.507h.423v.442h.441v.443h3.821v-.443h3.438v-.442h.421v-.507h1.707v-.443h.443v-.443h.421v-.443h.443v-.507h.421v-.507h.844v-.443h.441v-.441h.844v-.443h.865v-.507h.423v-.443h.843v-.443h.443v-.443h.421v-.507h.444v-.443h.421v-.441h.423v-.507h.443v-.507h.419v-.423h.443v-.865h.421v-.507h.426v-.443h.443v-.423h.4v-.442h.443v-1.879h.421v-.443h.866v-.443h.421v-.862h.443v-.507h.33v-.867h.443v-.865h.423v-.925h.4v-1.37h.443v-.443h.443v-1.393h.441v-1.308h.423v-1.37h.4v-3.184h.443v-7.169h-.443" transform="translate(165.701 -426.081)" fill="#7DB8EC" stroke="#fff" stroke-linecap="square" stroke-linejoin="bevel" stroke-width="1" fill-rule="evenodd"/>
    </g>
    <text id="talId397count" data-name="Mumbai City" transform="translate(350 1617)" fill="#fff" font-size="10" font-family="OpenSans-Bold, Open Sans" font-weight="700"><tspan x="0" y="0"></tspan></text>
  </g>
</svg>
