<svg xmlns="http://www.w3.org/2000/svg" width="327.89" height="301.675" viewBox="0 0 327.89 301.675">
  <g id="Group_22" data-name="Group 22" transform="translate(-1979.24 -177.23)">
    <path id="talId263" fill="#7DB8EC" title="Akrani Taluka" data-name="Akrani Taluka" d="M1047.74,426.157l4.876-3.448,6.248-2.4,26.712-8.941,4.374,1.061,3.131,2.817,1.642,2.094,1.578,1.1,2.052.779,2.437.17,13.562-1.807,3.567-.491,4.041.117,1.4-.211,1.129-1.137.859-1.728.757-3.04.783-2.76,1.232-1.088.872-.566,1.809-1.119,6.467-.081,2.425-.457,1.577-.572,3.079-3.831,1.039-.965,1.707-1.182,1.564-1.7,1.617-3.017.411-1.292.693-.62.769-.477,1.925-.774,4.861-.445,4.8-1.479.718.582.641.344.347.279.269.29.219.19.294.108.192.053.295.123.091.146.026.149-.039.094-.1.05-.141.017-.154.006-.206.014-.23.012-.141.03-.09.085-.039.071-.012.1.128.176.115.126.191.167.386.222.269.231.167.2.1.1.076.243.014.185-.052.16-.116.153-.077.14-.013.176v.123l.051.193.052.192.128.2.193.094.257.055.295.067.282.178.167.169.116.334.038.193.077.088.154.03.166.037.155.071.154.1.09.119.038.169-.012.132-.064.14-.1.167-.346.4-.437.272-.411.2-.179.044-.205-.014-.257-.185-.155-.385-.127-.208-.206-.053-.205.012-.116.091-.41.268-.333.263-.192.2-.3.066-.411-.045-.539-.008-.282.1-.116.19-.039.208.014.153.128.131.192.027h.295l.307-.013h.129l.385.021.192.2.348.4.025.293-.065.263-.089.483.038.272.026.12.193.07.179.123.1.117-.013.158-.141.123-.166.108-.231.169-.077.185-.129.794-.025.4.038.236.026.243.1.587.013.338.013.163.077.2.09.149.217.047.642.05.269.005.218.114.039.245-.039.258-.052.666v.223l.167.2.256.14.206.082.255.654.27.524.141.263.282.288.347.222.205.117.551.128.462.018.359-.009.282.023.59.056.345-.077.129-.186.077-.171.025-.35.1-.252.167-.181.218-.006.282.071.283.052.383-.194.091-.11.218-.1.218.007.257.152.18.263.077.235v.275l-.09.187-.179.169-.27.21-.193.24v.281l.09.129.154-.041.667-.3.461.011.386.041.244.211.232.128.256.029.462-.011.244.011.3.128.09.2.039.251v.217l-.1.263-.065.169.065.151.269.024.436-.146.6-.205.359-.076.308.041.064.187.1.251.026.227.025.194.116.257.012.2-.077.217-.321.228-.269.146-.526.286-.167.217-.051.263.051.234.18.158.167.2.167.229.2.169.192.046.321-.186.154-.135.154-.164.206-.292.193-.21.347-.064.358.023.36.135.065.205v.514l.012.252.308.59.423.4.384.151.527.047.4-.018.489.146.435.2.282.228.18.21.359.333.309.474.116.334.077.35-.155.837-.064.368.1.4.025.3-.116.222-.281.194-.244.344.153.6.219.427.218.363.295.245.167.263.333.023.513-.215.334.158.154.268.193.159.23.151.269.187.23.087.308.077.308.087.1.181.012.27-.077.192.025.31-.025.6-.167.625-.205.334-.116.4.116.8-.013.252-.179.281-.462.386-1.13,1.111-.449.537-.2.257-.154,1.948.051,4.631.128,1.7-.628,6.241-.257,2.164-.359,1.719-.4,1.987-.41,1.662-.643.946-.8,1.146-.255.679v1.4l-.1,1.614-.039,1.637.333,1.45.4.809-.539.208-.333.059-.463.222-.2.082-.218-.117-.307-.21-.295-.375-.27-.672-.629-.526-.218-.317-.012-.368-.271-.579-.525-.567-1.732-.082-.5.363-.372.122-.552.013-.564-.029-.231-.246-.6.029-.423.117-.5.281-.269.45-.193.457-.013,1.093-.064.286-.244.4-.346.368-.193,1.123-.051.233-.155.3-.128.345.1.537.038.561.155.029.295-.012.128.3.36,1.052.256.632.257.268.23.152.41.163.514.059.41-.035.487-.187.231-.123.256.076.1.4-.256.485-.667.169-.449.053-.641.171-.334.526.116,4.444-.116,2.221-.4.059-.8.357-1.976-.023-2.335.035-1.077.217-.643.275-.358.116-.616.105-.514.158-1.643.141-1.141-.007-1,.07-2.053-.041-.551.281-.32.321-.373.094-.423-.082-.474-.14-.642-.286-.436-.258-.411-.187-1.257-.053-.462.322-.705-.023-.809.041-.372.328-.449.356-.423.5-.218,1.246.038.462-.244.5-.885.679-.013.526-.039.532-.115.386-.3.252-.295.437-.578.731-.5.6.2.286.1.105.051.245-.141.217-.32.211-.359.21-.474.128-.514.269-.564-.128-.449-.112-.372-.211-.936-.391-.526.257-.809.006-.526.046-.411.276-.616,0-2.13.059-.371.151-.295.217-.4-.029-.732-.2-.538-.258-.4-.217-.564-.041-.373.352-2.129-.007-.552-.462-.424-.485-.488-.725-.243-.281-1.167,1-.078.258v.368l-.064.567-.269.533-.666.339-.655.281-1.707.169-.475.176-.384.082-.6.023-.4-.286-1.193-.018-1.181-.012-.8.018-.667.028-.3-.028-.244-.1-.141-.169-.141-.368-.013-.352-.038-.234-.27-.181-.694-.409-.513-.539-.115-.332-.142-.55.078-1.573-1.977-.041h-1.129l-.6.164-.347.8-.269.485-.333.322-.565.14-.6.258-.59.11-.923-.017-.821.538-.372.322-.206.385-.039.345-.18.357-.358.112-.193-.03-.2-.193-.4.175-.411.088-.5.035-.193.3-.423.128-.321-.023-.077-.345-.859-.023-.321.135-.218.251-.257.4-.282.328-.308.291-.4.21-.411-.105-.462-.344-1.116-.025-.257.34-.064.292-.168.414-.244.071-.423.018-.281.023-.334-.094-.4-.175-.359-.147-.334.048-.526.28-.269.3-.771.1-.961.6-.681.456-.77.088-.539-.053-.256-.462-.732-.526-.436.123-.308.5-.976.052-.564.158-.18.194-.4.35-.821.041h-.628l-.59-.041-.219-.217-.59-.105-.667.4-.424.485-.5.363-.372.3-.282.315-.244.368-.206.608-.115.205-.193-.048-.385-.286-.244-.473-.488-.684-.116-.082-.4-.059-.552.018-.436-.07-.41-.163-.372-.246-.668-.316-.846-.608-.436-.444.051-.427-.025-.24-.128-.4-.206-.322-.219-.338-.538-.416-.308-.322-.321-.321-.167-.3-.155-.368-.141-.578-.411-.368.09-1.339-.141-.275-.23-.216-.206-.2-.23-.275-.206-.281-.115-.321-.039-.381-.23-.316-.347-.14-.615-.432-.013-2.819-.36-.6v-2.491l-.757-1.075-.218-.409-.141-.292v-.416l.051-.713-.243-.245-.192-.608-.423-.533-.218-.292-.4-.638-.154-.462-.193-.707-.089-.72-.026-.59-.373-.182-.154-.766-.257-.567-.513-.409-.192-.24.051-.293.3-.373-.27-.393-.422-.608.089-.234.18-.269.3-.233.115-.245-.192-.421-.321-.223-.2-.444.013-.421.513-.761-.551-.842-.192-.713-.039-.514-.052-.842-.154-.573-.463-.457-.667-.444-.474-.62-.295-.7-.167-.842-.269-1.287-.27-.971-.692-.853-.642-.526-.449-.573.039-.608.038-.679-.423-.327-.615-.163-.4-.363-.578-.386-.206-.444-.345-.948-.475-.935-.116-1.31-.564-.585-.308-.467-.525-.667-.193-.865-.282-.843-.526-.9-.4-.27-.821-.292-.513-.316-.923-.8-.539-.667-.642-.572-.563-.866-.539-.924-.282-1.041-.745-1.017-.834-.8-1.039-1.2-.809-.958-.462-.784-1.6.035-.347-.572-.026-2.448-.154-.789" transform="translate(1049.611 -210.861)"  stroke="#fff" stroke-linecap="square" stroke-linejoin="bevel" stroke-width="1" fill-rule="evenodd"/>
    <path id="talId262" fill="#7DB8EC"  title="Akkalkuwa Taluka" data-name="Akkalkuwa Taluka" d="M1061.339,417.888l.154.789.025,2.448.347.572,1.6-.035.462.784.808.959,1.039,1.2.834.8.744,1.017.282,1.041.539.924.566.866.64.572.539.667.924.8.513.315.821.293.4.269.526.9.283.843.192.865.526.667.307.467.565.585.116,1.31.474.935.346.948.205.444.578.386.4.363.615.163.424.327-.038.679-.039.608.448.573.642.526.693.853.269.971.27,1.287.167.842.295.7.475.62.667.444.462.456.154.573.051.842.039.514.192.714.552.842-.514.761-.013.421.206.444.321.223.192.421-.115.245-.3.234-.18.269-.09.233.423.608.269.393-.295.373-.051.292.193.24.512.409.257.567.153.766.373.182.025.59.089.72.193.707.154.462.4.638.218.293.423.532.193.608.243.245-.051.713v.416l.14.292.219.409.757,1.075v2.492l.359.6.013,2.819.615.432.346.14.231.316.039.381.116.321.205.281.231.275.205.2.231.217.142.274-.09,1.34.411.368.141.578.155.368.166.3.32.321.308.322.539.416.218.339.206.322.128.4.026.24-.052.427-1.053.391-.641.3-.36.233-.154.339-.321.976-.321.725-.116.369-.154.4-.192.311.166,1.029.423.462.257.24.256.3.038.339-.025.31.256.327.385.421.628.48-.038.917-.154.357-.09.036-.193.187.064.3.27.263.231.286.206.562.013.521.218.263v.451l.013.631.205.8.462.444.243.222.372.322-.089.631-.168.235-.192.211-.167.28-.333.141-.565.046-.706.012-.077,1-.116.333-.216.317-.155.251-1.411.04-.283.381-.089,1.877-.808.023.077-1.269-.217-.315-.154-.194-.026-1.971-1.821-.046-.578-.094-.321-.181-.359-.153-.59.024-.039.339.256.35.475.276.667.339.373.585.153.414-.038.75.063,1.122.334.439-.038.385-.193.311-.513.368-.295.105-.129-.087-.308-.386-.232-.457-.154-.4-.09-.317-.167-.5-.141-.432-.129-.4-.167-.38-.115-.409-.039-.736-.231-.445-.512-.771-.283-.532-.448-.649-.064-.3.577-.07.6.064.5.059.41-.006.539.07.013-.246-.244-.332-.064-.416.012-.462.206-.386.231-.416.449-.713.487-.245.359-.281.218-.35.1-.434.32-.661.077-.444.334-1.093.154-.491.039-.45-.283-.474-.206-.468-.166-.38-.077-.842-.1-.322-.565.023-.231-.012-.642-.211-.538-.064-.475-.035-.076-.79-.206-.467-.411-.491-.4-.421-.206-.269-.1-.233-.09-.434-.18-.041-.191.059-.334.169-.244.123-.346.233-.488.2-.321.047-.641-.018-1.347.035-.475.416-.525.2-.59.135-.5-.082-.526-.263-2.463.082-.526.45-.334.368-.14.34-.116.473-.282.684-.192,1.239-.232,1.17.18.4.128.4.078.327.09.345.231.2.347.251.5.375.025.585-.128.8.462.551-.115.888.334.492-.026.491-.193.3-.448.215-.347.094-.564.153-.668.187-.705.052-.219.035-.089.836-.205.28-.089.24-.141.4-1.079.053-.025.491.129.274.154.222.167.392-.013,3.053.41.636-.039.514.128.363.154.416.192.391.18.3.2.235.487.321.449-.087.514-.274,1.874-.105.435.467.308.457.423.719.411,1.755.435,1.731.565,1.333.552.094.616-.14.05.549.527.7.487.652-.013.18-.218.073-.3.036-.192-.039-.231-.073-.384-.035-.308.087-.333.208-.641.343-.09.076-.436.465-.424.377-.18.331.026,1.631.013.313-.371.19-.334.477-.475-.129-.115.608.1.439.192.468.115.578-.026.45-.217.281-.269.093-1.1.561-.32.117-.346-.549h-.45l-.23.363-.129.4-.282.411-.423-.024-.488-.14-.18-.631-.051-.363-.013-.5v-.421l-.578-.093-.4.339-.064.491-.385.363h-.462l-1.09-.386-.552-.258-.4-.129-.565-.175-.564-.093-.411.14-.655.151-1.013-.174-.5-.024-.359-.479-.526-.539-.437-.081-.308.572v.515l-.064.69-.244.445-.462.186-.205.269.116.457v.339l-.45.5-.423.222-.218-.023-.513-.327-.3-.329-.32-.373-.436-.036-.937.235-1.539.456-.206-.6-.411-.222-.923-.046-.424.174-.243.5v1.17l.18.585.231.49.59.784.488.375.436.935.27,1.211-1.206.172-.95-.45-1.1-.021h-.386l-.269.055-.115.134-.193.1-.141-.026-.18-.205-.1-.238-.1-.272-.166-.236-.141-.254-.308-.377-.077-.228-.129-.807-.051-.716-.115-.937-.065-.654-.012-.432-.038-.173-.449-.105-.346.018-.295.05-.206.046-.244.129-.115.178-.013.173.039.163.064.225.051.286.013.249-.1.327-.128.427.115.446.116.29.077.274-.039.661.013.416-.038.219-.192.585.052.3.1.251.09.233-.1.24-.385.281-.295.2-.077.178-.038.2-.026.448-.089.652-.154.123-.269-.018-.218-.041-.3-.144-.243-.19-.218-.231-.064-.119-.206-.208-.256-.011-.628.213-.373.181-.231.1-.205.122-.526.068-.166.213-.218.419-.334.107-.513-.107-.154-.225-.09-.238-.077-.233-.052-.185-.051-.131-.115-.211-.347-.617-.115-.288-.077-.231-.027-.293.065-.515-.026-.227-.257-.229-.256-.164-.27-.129-.45-.114-.474,0-.243.1-.1.151-.025.228-.013.289.013.55-.385.108-.18.076-.166.132-.116.1-.206.076-.307.018-.346-.14-.206-.173-.244-.149-.192-.123-.269-.167-.3-.14-.7-.254-.333-.135-.334-.082-.205.034-.064,2.375-.783.375-.859.332-.578.281-.6.322-.539.35-.449.164-.474.176-1.629.894-.873.432-.5.048-.064-.462-.09-.428-.038-.549-.09-.5-.2-.222-.321-.059-.205.146-.077.188-.333.029-.347.005-.4.03-.128-.046-.1-.4-.115-.257-.347-.018-.27.117-.23.205-.154.215v.386l.077.386.128.311.3.151.154.006.475.094.166.052.385.081.218.123-.039.327-.167.246-.308.245-.18.311-.167.215-.18.1-.141-.034-.128-.068-.128-.057-.154-.051-.257.021-.141.057-.141.094-.052.083-.076.288.063.228-.063.216-.141.007-.193-.076-.474-.123-.475-.012-.295.034h-.462l-.27.135-.231.176-.346.011-.27-.134-.308-.537-.449-1.053-.591-1.123-.436-.49-.334-.468-.551-.515-.513-.322-.372-.309-.231-.194-.141-.485-.167-.462-.6-.615.051-.789-.038-.631-.1-1.029-.2-.814-.077-.322-.141-.543-.09-.848-.679-1.334-.488-.865-.3-.2.141-.737-.064-.333-.129-.38.065-.7.128-.385-.32-.112-.333-.018-.36-.281-.218-.59-.205-.62.013-1.006-.257-.7-.27-.679-.294-.4.039-.872-.116-.749-.219-.648-.411-1.083-.051-1.315-.295-1.036-.141-.777-.09-.48v-.391l.179-.544-.179-.8-.18-.427-.487-.5-.514-.107-.577-.092-.949-.246-1.014-.064-.41-.023-.5-.129-.769-.539-1-1.269-.757-1.093-.821-.807-.488-.222h-.629l.257-.848.013-.339-.352-.714-.342-.508-.037-.407.219-.263.435-.117.4-.064.231-.109.077-.11.051-.24.3-.731.423-.256.654-.222.628-.146.423-.118.463-.14.448-.11.359-.054.667-.145.577-.281.449-.2.565-.169.564-.118.4-.092.269.028.322.007.256-.14.154-.2.052-.329-.039-.174.026-.205.18-.052.154.2.141.27.231.052.333.028.423-.35.307-.135.308.123.333.222.116.176.116.292.23.316.321.03.257-.077.269-.174.167-.118.192-.133.231-.206.154.048.128.234.051.269.077.327.089.3.1.018.4-.194.281-.152.192-.029.142.036.077.158v.175l-.039.134-.115.334-.115.263-.077.233.141.135.436.053.295.246.09-.007.257-.21.154-.176.23-.21.231-.105.385-.222.219-.217.218-.256.166-.222.3-.089.294.194.321.012.3-.176.269-.456.077-.4.026-.381-.013-.321-.026-.235.078-.245.27-.094.295.053.128.245.154.036.116.216.27-.129.218.233.256.171.193.17v.169l.115.158.463-.123.295-.257.539-.315.77-.27.372-.151.321-.134.4-.036,1.372-.62.963-.661.577-.45.385-.275.283-.117.436.018.808-.036.18-1.4.1-.631.1-.462.154-.35.1-.281.1-.322.256-.876.36-.5.141-.286.09-.386.013-.643.192-.615-.218-.245-.295-.293-.154-.228-.09-.368-.077-.24.051-.38.09-.3.051-.34-.077-.485-.128-.257.077-.45.1-.292-.141-.8-.295-.678-.076-.3-.039-.6-.321-.263-.231-.35-.333-.322-.3-.35-.218-.608-.1-.234.154-.4-.013-.4-.295-.473-.2-.421-.3-.853-.436-.357-.552-.317-.641-.186-.732-.164-.346-.076-.551-.064-.321-.059-.488-.263-.359-.193-.3-.445-.423-.468-.321-.192-.732-.7-.308-.457-.141-.537-.23-.433-.322-.539-.513-.5-.423-.31-.218-.256-.18-.071-.372-.041-.27.03-.307-.035-.179-.24-.346-.409-.462-.457-.411-.538-.513-.439-.719-.713-.423-.69-.206-.38-.115-.654-.231-.633-.231-.268-.282-.112-.975-.257-.564-.3-.475-.608-.154-.4-.064-.4v-.66l.475-.643.513-.62.514-.3.32-.187.27-.239.59-1.024.115-.469-.5-.169-.27-.046-.371-.2-.09-.128-.051-.281-.012-.281-.014-.848-.064-.3-.064-.7.078-.115.41-.136.45.046.525.015.308-.041.308-.094.218-.217.052-.213.026-.348-.129-.21-.18-.2-.282-.123-.513-.246-.347-.126-.36.007-.295.032-.244.067-.27.073-.115-.045-.077-.107-.065-.177-.089-.23-.09-.186-.026-.2-.026-.239.052-.149.051-.141.269-.326.193-.089.244-.068.487,0,.283-.095.115-.132.038-.184-.038-.334-.142-.171-.179-.08-.385-.129-.385-.172-.142-.373-.089-.3-.064-.494-.372-.593-.333-.192-.616-.108-.936.069-.783.138-.616.105-.68-.053-.423.006-.564-.315-.321-.491-.449-.544-.808-1.859-1.219-2.082,1.733-1.473,1.283-1.433,1.04-.673,2.334-.672,2.078-.31,1.848-.216,2.81-.07,2.36.123,1.553.467,1.924.345,1.27-.252,1.078-.784.808-.754,1-1.169.808-.86.513-.409,1.142-.433,1.412-.292,2.219-.071,1.463.035,1.873-.5,1.707-1.006,1.552-.6,1.462-.9.962-.288.6-.4,17.962-9.447" transform="translate(1036.085 -202.332)"  stroke="#fff" stroke-linecap="square" stroke-linejoin="bevel" stroke-width="1" fill-rule="evenodd"/>
    <text id="262" transform="translate(2071.326 278.774)" fill="#fff" font-size="13"  font-family="OpenSans-Bold, Open Sans" font-weight="700"><tspan x="0" y="0"></tspan></text>
    <g id="_267_Talode" data-name="267 Talode" transform="translate(2105.364 272.496)">
      <path id="talId267" fill="#7DB8EC" title="Talode Taluka" data-name="Talode Taluka" d="M1077.611,470.11l.436.443.847.608.667.316.372.246.411.163.436.071.553-.018.4.059.116.082.488.684.243.473.386.286.193.047.115-.205.205-.608.244-.368.282-.315.372-.3.5-.363.423-.485.667-.4.591.106.218.217.59.041h.628l.822-.041.4-.35.179-.194.565-.158.975-.053.308-.5.437-.123.73.526.256.462.54.053.771-.087.679-.457.962-.6.771-.105.269-.3.526-.28.335-.048.357.146.4.176.334.094.282-.023.423-.018.243-.071.166-.414.064-.292.257-.34,1.118.024.461.344.41.105.4-.211.308-.291.282-.328.256-.4.218-.251.321-.135.86.023.077.345.321.023.422-.128.193-.3.5-.035.41-.088.4-.175.205.193.193.029.36-.111.179-.357.039-.345.205-.385.372-.322.821-.538.925.017.59-.11.6-.258.563-.14.333-.322.269-.485.347-.8.6-.164h1.129l1.976.041-.076,1.573.141.55.115.333.514.539.692.409.27.181.038.234.013.352.141.368.142.169.243.1.3.028.666-.028.8-.018,1.181.012,1.194.018.4.286.6-.023.385-.082.475-.176,1.706-.169.654-.281.668-.338.27-.533.064-.567v-.368l.077-.258,1.167-1,.243.281.487.725.424.485.552.462,2.13.007.372-.352.563.041.4.217.54.258.731.2.4.03.3-.217.372-.151,2.131-.059-.039.249-.218.362-.333.363-.283.249-.283.327-.333.427.038.353.116.276.114.219.04.222v.5l-.166.368-.154.245-.064.357.064.474v.345l-.013.211-.129.194-.269.391.051,1.141v2.485l.27.357.077.485.14.421.09.422.1.567.065.5v.783l.345.3.462-.134.18-.217.23-.316.155-.169.436-.005-.039,4.4.129,1.818.257,1.3.128,1.006.347,1.456-.256,1.708.423.444.064.6.1.24.475.14.576.024.449.053-.026,3.572-.719.105-.358-.053-.283-.163-.334-.175-.5.222-.218.415-.167.3-.2.169-.385.046-.41.059-.411.14-.308.182-.193.1.013,3.491.359.965-.32.55.051,2.673-.448,1.18-.5.532-.347.567-.707.894-1.693.755-.268.036-.333.105-.514.128-.347.064-.372.158-.333.029-.27-.059-.513-.233-.385.006-.653-.018-1.451-.023-.615-.158-.461-.1-.423-.046-.526-.1.064-1.713.077-1.556-.256-.567-.6-.133-.257-.07-.089-.439-.18-.211-.309-.059-.319-.012-.27.117-.038.235-.219.293-1.667.174-.707.205-.437.146-.435.169-.629.357-.847.556-.1.386.167,1.338.065.381-.989.069-.642.135-.371.146-.334.311-.065.333-.243.807-.1,1.064-.18.556-.743.1-.244.334-.475.322-.6.082-1.372.035h-2.3l-.86.157-.4.041-.476.018-.5-.041-.552-.181.129-1.913-.116-.544-.116-.455-.462-.445-.358-.344-.232-.375-.4-.076-.295.227-.179.351-.065.421-.218.217-.372.216-.386.181-.384.194-.834.409-.668.679-.32.561-.346.357-.321.322-.86.485-.551.4-.309.07-.487-.076-.373.058-1.078.942-.141.256-.308.105-.449.059-.41-.064-.1-.357-.065-.514-.038-.293-.127-.316-.142-.205-.232-.327-.372-.192-.423-.141-.154-.192-.218-.217-.308-.146-.333.012-.437-.1-.244-.047-.256-.215-.089-.462-.154-.375-.27-.427-.193-.24-.257-.52-.384-.655-.335-.5-.23-.3-.052-.333.014-.327.026-.889.025-2.005-.1-.538-3.439-.047-1.039.063-.424.117-.321.205-.205.2-.179.37-.064,1.262-.116.427-.038.373-.154.427-.27.21-.822.152-1.487.017-.809.112-.487.129-.244.1-.064.293.064,1.157-.321.556-.129.263-.154-.1-.371-.252-.449-.31-.257-.158-.474-.251-.487-.105h-.565l-1.489-.046-.384-.077.037-.4.065-.311.012-.293-.141-.21-.3-.005-.385.158-.1.322-.129.251-.179.216.127.217.026.3-.128.245-.192.176-.181.117-.192.076-.168-.069-.206-.258-.09-.228-.076-.24-.231-.409-.167-.421-.115-.362-.32-.135-.513-.059-.424-.041-.565-.028-.577.005-.809.07-.231.3v.854l-.141.227-.512.03-.642-.023-.5-.012-.525.005-.334.007-.244-.228-.193-.392-.128-.286-.154-.182-.91.146-.5.105-.116.211.116.246.218.309.193.293.115.31-.167.252-.334.157-.526.1-1.078.024-.758-.153-.475-.432-.525-.158-.655-.03-.807.005-.424.029-.41-.222-.116-.2-.5-.919-.141-.263-.231-.327.333-.477.372-.19-.012-.313-.026-1.631.18-.331.423-.377.437-.464.089-.076.641-.342.334-.208.309-.087.385.034.23.073.192.039.3-.036.217-.073.014-.181-.488-.652-.526-.7-.051-.549-.617.14-.552-.094-.563-1.333-.437-1.731-.41-1.755-.423-.718-.307-.456-.436-.467-1.874.105-.513.274-.45.088-.487-.321-.205-.235-.18-.3-.193-.391-.153-.416-.129-.363.038-.515-.411-.636.014-3.053-.167-.391-.155-.222-.127-.274.025-.491,1.079-.053.141-.4.089-.24.205-.279.09-.837.217-.035.706-.053.668-.187.564-.152.347-.094.449-.215.192-.3.026-.491-.334-.491.116-.888-.462-.55.128-.8-.026-.585-.5-.375-.346-.251-.232-.2-.089-.345-.077-.327-.129-.4-.18-.4.231-1.17.193-1.239.282-.684.116-.474.141-.34.333-.368.526-.451,2.464-.082.525.263.5.082.589-.134.527-.2.475-.416,1.347-.035.641.018.321-.048.488-.2.347-.233.243-.124.334-.169.192-.059.18.041.09.434.1.233.206.27.4.421.409.491.206.467.077.79.475.035.54.064.64.21.231.012.565-.023.1.322.077.842.167.38.205.468.282.473-.039.451-.153.491-.333,1.093-.077.444-.32.661-.1.434-.219.35-.359.281-.487.245-.45.714-.23.416-.206.387-.013.462.065.416.243.332-.014.246-.539-.07-.41.007-.5-.059-.6-.064-.576.07.064.3.449.649.283.532.513.771.231.445.039.736.115.409.167.38.129.4.14.432.168.5.089.317.154.4.23.457.308.386.129.087.294-.105.514-.368.193-.311.039-.385-.335-.439-.065-1.123.039-.749-.154-.415-.372-.585-.667-.339-.475-.276-.256-.351.039-.339.59-.024.36.153.321.181.575.093,1.823.046.025,1.971.155.194.219.315-.077,1.269.809-.023.089-1.877.282-.381,1.412-.04.153-.251.219-.317.115-.332.077-1,.706-.011.565-.046.333-.141.167-.28.192-.21.167-.235.09-.631-.373-.322-.243-.222-.462-.444-.205-.8-.013-.631v-.45l-.219-.263-.013-.521-.205-.562-.232-.286-.269-.263-.064-.3.193-.187.089-.036.154-.357.039-.917-.629-.48-.385-.421-.257-.327.027-.31-.039-.339-.256-.3-.256-.24-.424-.462-.167-1.029.193-.31.153-.4.116-.37.321-.725.32-.976.155-.338.358-.234.642-.3,1.052-.391" transform="translate(-1054.03 -462.314)"  stroke="#fff" stroke-linecap="square" stroke-linejoin="bevel" stroke-width="1" fill-rule="evenodd"/>
      <text id="267" transform="translate(37.962 28.278)" fill="#fff" font-size="13"  font-family="OpenSans-Bold, Open Sans" font-weight="700"><tspan x="0" y="0"></tspan></text>
    </g>
    <text id="263" transform="translate(2146.326 256.774)" fill="#fff" font-size="13"  font-family="OpenSans-Bold, Open Sans" font-weight="700"><tspan x="0" y="0"></tspan></text>
    <g id="_266_Shahada" data-name="266 Shahada" transform="translate(2183.302 247.332)">
      <path id="talId266"  fill="#7DB8EC" title="Shahada Taluka" data-name="Shahada Taluka" d="M1114.813,523.11l-.1-1.068.039-1.632.244-.38.205-.269.153-.222.3-.375.064-.321.09-.473.333-.013.462-.023.346.041.372.011.1-.643-.064-.45-.257-.164h-.334l-.4-.064-.1-.11-.1-.357.128-.269.308-.153.321-.064.3-.029.231-.093.09-.281v-.187l-.141-.474-.115-1.193-.039-.322,1.693-.754.706-.894.346-.567.5-.532.449-1.181-.052-2.672.321-.551-.359-.965-.014-3.491.193-.1.308-.182.41-.14.411-.059.385-.046.205-.169.167-.3.219-.416.5-.222.335.176.282.163.36.052.717-.1.026-3.572-.448-.053-.578-.024-.475-.14-.1-.24-.064-.6-.422-.444.255-1.708-.346-1.456-.129-1.006-.256-1.3-.13-1.818.039-4.4-.437,0-.154.169-.231.316-.18.217-.461.134-.348-.3v-.783l-.064-.5-.1-.567-.09-.422-.141-.421-.077-.485-.269-.357v-2.485l-.052-1.141.269-.391.129-.194.013-.211v-.345l-.064-.473.064-.357.154-.245.167-.368v-.5l-.039-.222-.115-.219-.115-.276-.039-.353.334-.427.282-.327.282-.249.333-.363.218-.362.039-.249.616-.005.411-.276.526-.046.808-.006.526-.257.937.391.373.211.449.112.563.128.514-.269.475-.128.359-.21.32-.21.142-.217-.052-.245-.1-.105-.2-.286.5-.6.578-.731.295-.438.3-.251.116-.386.038-.533.013-.526.885-.679.244-.5-.038-.462.218-1.246.424-.5.449-.357.372-.327.808-.041.705.023.462-.322,1.256.053.411.187.437.258.642.286.474.14.424.082.372-.094.321-.321.551-.281,2.053.041,1-.071,1.142.007,1.642-.141.513-.158.616-.105.359-.117.642-.274,1.077-.217,2.335-.035,1.977.023.8-.357.4-.059.115-2.221-.115-4.445.333-.526.641-.171.45-.053.667-.169.256-.485-.1-.4-.257-.076-.231.123-.486.187-.411.035-.514-.059-.411-.163-.23-.153-.256-.268-.257-.632-.359-1.052-.128-.3-.3.011-.154-.03-.038-.561-.1-.537.129-.345.155-.3.052-.233.192-1.123.347-.368.243-.4.064-.286.013-1.093.192-.457.27-.45.5-.281.424-.117.6-.029.232.246.563.029.552-.013.372-.122.5-.363,1.732.082.525.567.27.579.013.368.219.317.629.526.27.672.295.374.308.21.218.117.2-.082.463-.222.333-.059.538-.208.116.244.526.608.975,1.2.859,1.193.769,1.228.025.283-.051.206-.114.2-.129.151-.154.191-.1.552-.038.345v.3l.129.237.154.2.052.2-.1.224-.129.228-.167.169-.231.176-.218.152-.167.178-.115.584v.349l.052.105.153.128.116.055.064.213.078.352.051.155.18.219.039.2-.051.15-.078.131-.077.2-.052.251.052.208.077.364-.039.231.013.244-.039.272-.077.081-.141.036-.089.082v.1l.1.126-.064.168-.038.144.012.033.09-.005.051-.039.026.012.013.068-.04.048-.025.054v.085l.013.153-.025.1-.026.051-.038.013-.039-.017-.025-.049-.039-.088-.025-.033-.077,0-.051.055-.013.075.051.1-.012.08-.039.072-.051.218-.051.071-.064.031-.038.014-.142.138-.026.064-.012.068.025.068.027.058.038.038.064.2.026.063-.013.074v.081l-.013.082-.089.065-.052.138v.164l-.09.009-.09.009-.089.065-.065.049-.1.022-.051.027-.065.1.026.12.205.162.474.366.372.281.321.332.179.251.1.223.141.195.372.249.423.087.577.032.923.045.565.043.538.017.437.111,1.012.108.822-.007.782-.062.693-.05.628-.155.669-.219.295-.09.192-.045.308-.032.243.006.115.076.476,1.017,1.821,3.427.411.071-.166.368-.283,1.532.077,1.088v.321l-.065.281-.052.205-.025.21.128.252.271.357-.039.4-.141.193-.193.1-.269.094-.193.233-.064.245v.357l.09.386,1.553.075.628-.069.038-.58.86-.105,2.373-.076,1.425.048.319.467.064.363.193.321.167.317.166.414.231,1.047-.025.567-.154.778-.205.363.039.942.693.017.666-.006.231.24.116.052h.693l1.629.24,2.194.222,1.526.234,1.5.129,2.309,1.227,2.887.176,2.219.48,1.142-.176,1.437.258,1.539.421,1.591.151.065.889-.065.585.347.083.385-.3.564.174.422.422.4.21.36-.141.295-.093.166-.081.462.339.064.108-.206,0-.128-.044-.18.114.129.236.193.068h.256l.167.151.206.141.115.119.09.2.128.1.09.1.2.082.167,0,.142,0,.115.03.065.181.026.117.141.094.09.055-.064.061-.052.032-.039.073.039.126.116.061.064.068.026.169.166.117.013.231.064.123.025.11.026.363-.051.078-.025.126.128.091.206.091.1.048.077.141.09.09.128.029.27-.014.205-.021.206-.076.141-.045.1-.049.167-.064.116-.039.116-.038.243.029.129.076.153.027.192.053.128.044.155.029.141.076.167.084.436.24.282.224.115.068.154.38-.064.19,1.4.176,1.758.38,2.976.749,2.451.59,6.542,1.134,3.08.327,2.116.2-.859,1.725-3.4,9.133-.167,3.461-.026,4.819.1.719-.179.36-.1.409.128.266.18.69.153.894-.59,1.223-.552.4-.269.789-.141.508.09.539.886.491-.09,1.5.244.459.295-.009.258-.1.167.4-.052.327-.18.4-.245.35-.153.293-.18.228-.154.094-.09.123v.321l-.064.386.154.3.09.31.089.375-.077.3-.1.35-.129.123-.257.251.167.316.244.281.141.251.077.217.013.17-.051.251-.09.041-.129-.064-.27-.059-.064.281.038.309-.064.363.115.234.206.333.013.258-.078.145-.18.141-.141.158v.217l.064.321-.052.451-.3.267-.319.619-.168.254-.052.339.039.4.051.15.206.125-.8.021-.718-.258-.705-.064-.873.023-1.205-.029-1.052.041-.256.036-.206.215.141.5.077.339.116.339.14.237.077.261-.179.078-.256-.041-.231-.087-.3-.158-.949-.8-.3-.2-.256-.043-.385-.03-.385.076-.821.372-.552.231-.59.073-.808.02-.5.233-.578.208-.345.222-.731.231-.514.269-.577.471-.077.476.051.38.114.187.488.656.424.272.09.441.025.437-.064.747-.257.417-.115.251-.026.37v.2l.1.091.244-.036.115.041.116.109-.077.113-.129.036-.089.037-.052.091.09.1.09.073.089.09.012.068-.012.135-.206.014-.141.082-.116.164-.115.158-.244.312-.307.1-.1.149-.039.176-.025.281-.193.394-.129.178-.128.073-.141.073-.064.126-.039.205-.077.252.025.082.116.067.192.117.027.181-.1.219-.115.137-.089.091-.116-.005-.051-.077-.078-.108-.115-.018-.1.077-.064.069-.051.088-.077.092-.295.082-.154.117-.025.08.038.059h.154l.076.06.025.094-.064.158-.128.082-.179.02-.154.03-.09.114.026.1.077.158v.129l-.077.1-.065.09-.038.146.012.1.256.105.538.169.064.064v.286l-.026.132.064.059.116-.1.167-.123.128-.111.064-.006.09.089.025.174-.012.112-.025.126-.1.064-.1.132.039.117.18.359.231.615.1.137-.141.062-.064.052-.026.137.115.146.052.137-.245.316-.154.135-.257.365-.167.254-.154.523-.052.19-.064.375-.089.286-.18.354-.333.259-.245.086-.295.064-.231.067-.205.08-.141.122-.077.112.013.252-.026.3-.153.263-.282.544-.719-.432-1.668-.4-1.257-.18-.963-.05h-1.643l-.513.052-1.385.155-.731.228-2.027.828-1.45.344-1.09.021-.872-.122-.411-.2-.539-.409-.487-.382-.988-.915-.474-.384-.667-.421-.911-.482-.822-.272-.68-.16-.885-.228-.577-.082-.436-.018-.668.093-.423-.011-.384-.064-.4-.032-.411-.023-.859.181-.719.311-.821.485-.654.6-.9.924-.526.679-.6.383-1.256.368-.526-.009-.642-.2-.666-.477-.629-.748-.334-.62-.653-.809-.911-.772-.834-.585-.5-.275-.808-.395-.807-.482-.911-.565-1.141-.675-.693-.233-.769-.278-.95-.192-.936-.143-1.271-.309-.564-.114-.95-.047-1.026.126-1.258.21-.9.276-1.244.307-.963.2-.974-.38-.463-.2-1.015-.329-1.038-.544-1.59-.929-1.732-.684-2.169-.667-2.3-1.228-1.4-.766-1.591-.7-.552.029-.975.1-.59.153-.757.368-1.244,1.064-1.309.731-.667.334-.486.175h-.655l-.783-.158-1.526-.672-1.5-.8-.642-.69-.834-.988-.564-1.058-.616-1.45-.474-1.2-.449-1.591-1.04-1.509-.628-.988-.963-.818-1.436-.836-.95-.356-.873-.416-.5-.3-.655-.825-1.065-1.765-.9-2.293-.911-1.431-.372-.615-.372-.521-.424-.4-.642-.263-1.013.077-.77.14-.538-.012-.539.012-.552-.007-.6-.1-.487-.328-.552-.6-.642-.766-.653-.4-.63-.055" transform="translate(-1114.71 -442.962)"  stroke="#fff" stroke-linecap="square" stroke-linejoin="bevel" stroke-width="1" fill-rule="evenodd"/>
      <text id="266" transform="translate(38.024 69.442)" fill="#fff" font-size="13"  font-family="OpenSans-Bold, Open Sans" font-weight="700"><tspan x="0" y="0"></tspan></text>
    </g>
    <g id="_264_Nandurbar" data-name="264 Nandurbar" transform="translate(2097.407 326.208)">
      <path id="talId264"  fill="#7DB8EC" title="Nandurbar Taluka" data-name="Nandurbar Taluka" d="M1052.37,535.017l.9.112,1.424-.011.924-.228.538-.041.271.164.41.046.347-.21.36-.058h.218l.359-.112.244-.135.141-.2.116-.257.1-.129.449-.233.089-.193-.1-.333v-.221l.141-.17.116-.176.051-.146-.013-.2-.128-.269-.129-.117-.089-.117-.064-.187-.064-.251-.077-.409.141-.233.09-.135-.012-.111-.09-.146.193-.321.1-.251.051-.141.116-.444.09-.258.039-.174-.116-.123-.077-.14-.038-.175.128-.217-.128-.052-.218.006-.1-.036-.09-.443-.244-.112-.167.047-.129-.1-.039-.257.091-.222.167-.077.1-.14-.013-.176-.025-.2.128-.133.141-.094.167-.164.077-.123.064-.286.051-.14.167-.146.116-.123.384-.416.308-.041.167.03.052-.187-.077-.245.154-.293.167-.187.167-.105.3-.269.243-.181.167-.128.359.188.218-.105.141-.194v-.274l.18-.135.205-.128.052-.286-.052-.147.192-.258.116-.181-.039-.176-.141-.14v-.228l.141-.281.039-.444.077-.491.038-.24.038-.3.153-.508h.193l.333.163.231.13.141.181.219.123.436.035.193.164.1.238.142.24.18.158.14.357.064.252.36.585.129.5.025.392-.039.345.051.256.051.211-.192.258-.487.421,1.219.164,1.205.181.527.111.333.052.616.005.591-.023.41-.047.525-.005.475.011.552.012.333.338.154.276.3.409.231.485.167.311.193.268.09.036.205-.176.3-.053,1.321.005.488-.239.256-.246.347-.181.412-.07.32-.088.372-.123.077-.229.051-.339.013-.38.025-.585.065-.649.064-.427.128-.269.41-.123.219-.076.141-.182.026-.227-.09-.31.808-.257.68-.258.565.012.629.087.474.1.4.192.154.146.167.445.372,1.368.051.544,1.1.082,1.065-.141.911-.158.244-.128.012-.865.116-.246.5-.163.538-.112.77-.082.308-.229.231-.444.191-.322.513-.433.706-.135.4-.046.422-.03.989.128.576.024.424.028.167.258.437.087.308-.229.243-.279.513-.048,1.1-.116.192.608.153.667.038.666v.281l.475.071.244.222.141.286.089.386.154.023.437-.256.666-.217.385-.1.488-.059.142.654.5-.064-.129-.684.707-.082.681-.088.871-.082.642-.1.334.023-.026-.375-.064-.526v-.363l.141-.5.039-.375.345-1.122.5-1.2.4-1.245,1.309-.059.77.082.231-.3,2.206-.076,1.116.053.141,1.683.231,1.433-.025.6v.368l.077.309,1.527-.116,1.205-.076.462-.094.732.053.653-.059.116-.046.153-.567.282-.549.052-.568.167-.689.167-.03,1.18-.075.91-.3,1.22-.181.9-.169.5-.123.513-.041.372.011.089-.713.859-.158.655-.187,1.3-.268,1.039-.287,1.77-.421,1.309-.35.308-.27.1-.217-.051-.467-.129-.884.052-1.409,1.719-.018,2.041.018.91-.059.052-.643-.193-.917.154-1.124.192-1.718.013-1.541.629.055.654.4.641.766.552.6.487.327.6.1.552.007.539-.012.538.012.77-.14,1.014-.077.642.263.423.4.373.521.372.614.911,1.432.9,2.293,1.064,1.765.654.825.5.3.872.416.95.357,1.437.837.962.818.629.988,1.04,1.509.448,1.591.475,1.2.616,1.45.563,1.058.835.988.641.691,1.5.8,1.527.672.783.158h.654l.488-.174.668-.334,1.308-.731,1.244-1.064.757-.368.59-.153.976-.1.551-.03,1.592.7,1.4.766,2.3,1.228,2.168.667,1.732.684,1.591.929,1.039.544,1.014.328.461.2.974.38.027.521.012.368.846.935.232.48.218.468.064.432-.116.853-.269.633-.1.888-.064.409-.039.468-.012.5-.078.574-.025.444-.436.509-.487.169-.359.14-.206.5-.039.327-.025.316.154.2.591-.216.6-.176.422-.176.334-.129.256-.071.3.059.18.2.589.293.5.386.167.409-.052.252-.193.386-.385.8-1.205.994-.668.709-1.1,1.152-.616.736-.257.3-.025,1.029-.1.953-.269.743.013,1.749-.077,1.231v.04l-.026.4-1.387.089h-1.424l-.73.087-.077.375.244.473.2.462-.051,2.176-.064,1.667.115.941.205.724.179,1.719.244.978.206,1.525.025.883-1,.434-.745.268-.269.21v2.451l.847.023h.564l.372-.082.475-.222.859-.129.321.041.9-.087.487.14.5.409.578.743.461.7.718,1.568.244.713.129.835-.027.281-.179.246-.1.24.077.286.231.392.013.363-.141.373-.474.907-.307.707-.258.445-.487.649-.282.38-.731.724-.565.562-.282.332-.077.345.347.071.373.035.115.141-.051.234-.282.205-.155.2-.179.795-.025.5.231.21.193.31.064.334-.052.35-.18.544-.372.258-.488.081-.769.018-.847.07-.833.165-.488.1-1.1.047-.872.07-1.09.258-2.823.373-2.245.077-1.141-.03-.834.264-.589.053-.283-.217-.192-.425-.193-.6-.1-.5-.116-.257-.065-.409.257-.146.359-.07.322-.146,1.089-.158.385-.251-.051-.485-.309-.474-.256-.467-.321-.333-.512-.286-.616-.13-.436-.105-.27-.216-.077-.637.039-.6-.461-.246-.835.117-1.052.176-.757.222-1.1.315-.643.164-.551.135-.462.116-.141-.181.038-.263.231-.329.243-.233.167-.176.1-.175.026-.649-.115-.422-.193-.2-.359-.018-.269.024-.5.162-.462.129-1.347.077-.564.275-.4.367-.257.311-.218.291-.308.2-1.18.438-.3.352-.166.268-.449.118-.642.028-.436.047-.462.228-1.155.046-1.116.275-.526.1-1.283.081-1.193.24-.988-.064-.333.041-.206.129-.012.334.064.222.141.146.346.368-.089,1.943-.23,2.858-.706.1-.667.216-1.078.2-.962.194-.86.005-.462.024-.218-.088-.18-.409-.333-.181-1.283-.093-.5-.093-.4-.165-2.617-.064-.525-.076.1-2.608.088-.842-.039-.784-.384.322-.334.2-.411.276-.449.275-.7.556-1.245.585-.757.128-.9.064-1.3.007-1.835-.194-1.257-.285-.6-.492-.269-.327-.538-.1-.4-.117-.308-.287-.8-1.011-.551-.27-1.1-.093-2.848.514-.885.112-.526.345-.436-.036-.372-.181-.3-.035-.6.268-.462.352-.552.451-1.027.765-.77.468-.385.163-.487.052-.8-.11-.988-.235-.642-.011-.488.076-.295.194-.141.286-.18.7-.461,1.626-.411,1.287-.308,1.42-.9-.012-.822.076-.487.141-.577.052-.474.046-.693.059-1.129.005-.667.013-.334-.029-.14.42-.18.345-.206-.094-.206-.439-.141-.134-.218-.005-.244.467-.692,1.216-.538,1.205-.8.116h-.577l-.474-.128-.758-.737-.589-.432-.4-.223-.436-.158-.463-.035-.333.018-.385-.1-.4-.567-.179-.387.076-.32.154-.224.321-.3.309-.533.077-.339-.18-.216-.385-.151-.179-.147-.27-.62-.309-.416-.333-.064-.2-.754-.308-.5-.18-.562-.141-1.075-.205-1.251-.436-2.235-.27-2.129-1.077-.958-.475-1.228-.385-1.228-.5-2.281-.347-2.14-.244-.526-.154-.526.09-.339.218-.339.359-.339.116-.386-.667-.551-1-1.064-.231-.07-.629-.058-.769.174-.154-.035-.244-.432-.386-.749-.18-.725.052-.444.051-.667-.064-.842-.334-1.018-.193-1.111-.795-.176-.6-.105-.386-.175-.257-.4-.076-.491-.295-.468-.424-.375-.681-.432-.782-1.076-.8-.3-.013-.49.154-.655-.077-.492-.244-.338-.589-.293.332-.444.372-.55.051-.841-.526-1.146-2.027-.374-.513.256-.732.164h-.718l-1.258.059h-1.231l-.758.257-1.014.222.077-.924.077-.7.488-1.614.064-2.081.089-.573.218-.69v-.6l-.68.268-.629.129-.539.293-.628.28h-.527l-1.051-.117-1.284-.047-.641.281-1.348.011-.282-.4-.4-1.216.244-.959.269-2.97.038-.386.347-.222.565-.13.32-.315.193-.6.026-.631.09-1.088-.72-.035-1,.047-.526.2-.577.246-.45.351-.55.41-.643.479-.706.562-.6.315-.616.164-.923-.211-.668.2-.706.4-.8.093-1.372.386-1.592.07-.6-1.567-.257-1.216-.025-.619.295-.468.616-.211.628-.245.591-.21.717-.258.591-.479.8-2.626.167-.743" transform="translate(-1047.97 -505.433)"  stroke="#fff" stroke-linecap="square" stroke-linejoin="bevel" stroke-width="1" fill-rule="evenodd"/>
      <text id="264" transform="translate(48.919 50.567)" fill="#fff" font-size="13"  font-family="OpenSans-Bold, Open Sans" font-weight="700"><tspan x="0" y="0"></tspan></text>
    </g>
    <g id="_265_Navapur" data-name="265 Navapur" transform="translate(1979.925 354.438)">
      <path id="talId265" fill="#7DB8EC" title="Navapur Taluka" data-name="Navapur Taluka" d="M1078.227,528.807l-.166.743-.8,2.626-.59.478-.719.258-.59.21-.629.245-.616.211-.3.468.026.62.257,1.216.6,1.567,1.591-.07,1.372-.387.8-.093.706-.4.668-.2.924.211.616-.163.6-.315.706-.562.642-.479.551-.41.449-.35.577-.246.526-.2,1-.047.718.034-.09,1.088-.026.631-.192.6-.321.315-.565.13-.346.222-.039.387-.269,2.97-.244.959.4,1.216.282.4,1.348-.012.641-.281,1.283.047,1.052.117h.525l.629-.281.539-.293.629-.128.68-.268v.595l-.218.69-.09.574-.064,2.081-.488,1.614-.077.7-.077.924,1.014-.222.757-.256h1.231l1.257-.059h.718l.731-.164.514-.257,2.027.374.527,1.146-.051.841-.373.55-.333.445.59.293.244.338.077.492-.154.655.013.49.8.3.782,1.077.68.432.423.375.3.468.077.491.256.4.385.175.6.105.8.176.193,1.111.333,1.018.064.841-.051.667-.052.444.18.725.384.749.244.432.155.035.769-.174.628.058.231.07,1,1.064.667.551-.115.386-.358.339-.218.339-.09.34.154.526.244.526.346,2.14.5,2.28.384,1.228.475,1.228,1.077.958.269,2.128.437,2.235.2,1.25.141,1.075.18.562.308.5.205.754-.18.309-.077.45-.026.487-.1.42-.283.094-.256-.048-.3-.128-.321-.053-.243.158-.154.293-.732.654-.449.187-.359.082-.154.117-.372.685.051.357.372.158.359.087.461.228.257.374.154.621-.129.362-.256.2-.372.176-.244.046-.5-.046-.514-.176-.436-.128-.218-.105-.269-.428-.436-.059-1.117-.2-2.515-.311-.756.047-.437.181-.949.649-1.526.883-.462.533-.244.386-.346.631-.743.725-.744.533-1.193.649-.668.322-1.038.146-.591.134-.345.252-.283.5-1.4,1.035-1.232,1.088-1.052.848-1.86,1.6-.513.556-.411.24-.385.21-.36.445-.231.3.1.309.282.293.372.369.513.614.731,1.052.462.813.294.32.527.3.782.807,1,1.122,1.167,1.2.911.876.1.491-.654.6-2.233,1.65-.564.549-.3.327-.41,1.017-4.542-.093-1.039-.117.155-.725.115-.772-.026-.515.205-.456.1-.421-.488-.387-.975-.468-1.809-1.134-.744-.456-1.193.351-.808.129-.628.082-1.091.071-.539.128-.256.245-.295.656-.09.713-.218.76-.359.633-.885.713-.475.338-.269.222.244.428.218.31.115.309v.643l-.038.633-.025.6.129.5.077.719.244.7.244.55.23.632.1.281.051.491.141.7-1.642.352-.384-.755-.18-.5-.218-.41-.308-.543-.244-.613-.4-.615-.2-.637-.141-.339v-.327l-.218-1.17-1.014.334-.654.123-1.321.479-1.4.433-1.386.578-1.129.334-.487.21-.09.228.154.38.1.4.064.375-.064.351-.167.25-.385.24-.9.713-.732.866-1.128.93-1.629,1.152-.552.38-.27.327-.346.626-.244.414-.257.247-.269.327-.128.35-.154.738-.026.426.1.416.244.526.488.158.526.187.308.24.154.555-.193.362-.166.358-.27.608-1.142,1.139-.513.48-.039.322.3.438.4.636.706.69.269.4.038.385-.038.4.141.285.244.556-.064,1.158.192.479.205.356.064.3-.141.263-.68.456-.5.592-.513.661-.731-.216-.783-.234-.782-.287-.757-.263-.975-.373-.6-.205-.629.112-.9.035-1.077.047-.809-.053-1.129.081-.681.065-.6-.048-.346-.66-.424-.642-.09.725-.141,1.193-.359.076-1.129-.035-1.732.14-.847.345-.808.368-.693.357-.436.192-.244.071-1.052-.023-.911-.076-.475-.077-.847.012-.8.141-1.6.076-.911-.123-.423-.134-.667-.234-.142.871-.012.649.077.3.2.2.077.235-.038.374-.115.509-.193.585.014,1.087-.27,1.111-.616,1.38-.231.666-.206.726-.359.981-.346.194-.6-.412-.385-.264-1.373-1.506-3.387-2.256-1.975-1.841-.436-.544-.949-.477-.347-.367-.642-.729-1.385-1.587-.179-.192-2.04-2.327-.732-.926,3.22-3.169.693-.633.269-.629-.039-1.242-.282-2.3-.064-1.982-.231-1.142-.231-.647-1.308,1.255-.847.868-.808.737-.475.812-.873.649-1.219.678-1.052.416-.539.275-.35.491-.193-.445-.69-.058-.836-.34-1.314-.291-.871-.34-1.117-.076-.561-.245-.614-.487-.427-.374-.767-.351-1.408-.707-1.4-.592-1.047-.409-.453-.187-.546-.21-1.123-.252-.393-.24.135-.648.036-.456.52-1.825.287-1.2.233-.842.485-.9.375-.614.584-.707.5-.766.327-.69.445-.5.064-.263-.346-.03-.351.439-.392.578-.443.415-.539.257-.321.364-.263.526-.795.6-.323.409-.269.644-.227.216-.912-.439-.633-.357-1.063-.537-.842-.363-.772-.3-1.591-.425-.683-.228-.234-.433-.141-.416.012-.415-.082-.426.087-.8-.03-.27-.309.029-.251.38-.27.416-.357.631-.427.491-.6.707-.772,1.088-.545.772-.263.414-.385-.064-.632-.485-1.841-1.215-.574-.223-.555-.1-.965-.018-3.246.217-2.088.088-.174-.591-.7-1.8-.4-1.122-.414-.522-.644-.151-.32-.03-1.52-.269-1.3-.041-.631.134-1.415.615-.976.4-.544.2-.171-.738-.343-1.145-.352-.684-.333-1.269-.362-1.117-.235-.625.141-.322.373-.322.479-.24.323-.186.139-.141.041-.223-.375-.169-.677-.059-.918-.023-.824-.169-.533-.117-.4-.392-.27-.373-.233-.345-.363-.626-.122-.461-.124-.421-.192-.468-.164-.351-.538.1-.9.263-1.941.644-1.472.385-.551.176-.151-.527-.158-.848-.1-.432.924-.544.667-.608-.562-.69-.492-.515-.4-.631-.246-.469.164-.326.386.07.515.082.549-.211.62-.292,1.111-.491.562-.292.888-.656.6-.97.315-.421.7-.141,1.021.386.546.193.369.088-.106.626-.052.286-.211.157-.111.286-.094,1.643.246.614.24.3.088.438-.035.586v.444l.035.309.357.228,1.122.6.545.158.661.035h.683l.34-.011.263.14.367.3,1.474-.053.368.281.066.6-.036.437-.211.732-.175.322-.181.3-.11.247-.094.28.478.17.532.211.38.211.3.181.329.076,1.2.252.971.146.339-.024.766-.357.79-.263.526-.233.578-.281.141-.146.485-.439,1.011-.258.784-.192.409-.018.316-.111-.076-.644-.111-.4-.034-.37V606.4l.7-.352.708-.146.451.018.613.128.6.515.608.135.579.187.31.087h.228l.479-.216.508-.076.421.035,2.456-.03.463-.222.321-.164h.415l.334.006-.036,1.427v.748l.526.206.4.122.422.1,1-.182.451.2.3.515.315.293.422.192.069.023.416-.046.368-.169,1.333.057.724-.03.545.007.333-.023.386-.03.368.011.222-.093.064-.11.041-.252.03-.409-.047-.252-.117-.357.006-.251.094-.2.129-.135.2-.141.193-.064.4-.075.193-.193-.117-.667-.03-.35-.287-.533-.086-.146-.368-.4-.475-.426-.5-.194-.473-.245-.11-.222-.029-.21.233-.521.105-.316.233-.293.37-.31,1.6-.83.322-.181.187.029.193.357.012.332.123.153,1.317-.087.953.053.923-.013.929.03.931.135.818.439.6.123.695.058.785-.058.679-.018.233-1.018.416-.093.492-.059.309-.081.352-.217.409-.181.4-.562.23-.707.205-1.07v-.539l.09-.544.129-.467.615.4.372.24.3.088.512.028.295.018.4.029.1.264.821.45,1.527.823.282.317.629.279.372.065.577.029.77.036.629-.047.334.018.217-.445.321-1.04.18-.976.27-.936.128-.334.578.023.307-.017.321-.082.218-.158.09-.409-.077-2.481-.026-.544-.5.13-.461.128-.5.053-.512.11-.386.054-.333.046-.257-1.532-.385-.848-.166-.293-.206-.093-.231-.162.026-.352.167-.537-.013-1.294-.013-1.532.013-1.431.128-1.779,2.527-1.3,1.951-1.164-.039-1.555.013-1.5-.27-.567-.487-1.017-.488-1.047-.256-.416.013-.655v-1.012l-.231-.439-.09-.2.077-.342.1-.2.167-.205.192-.067.257.014.129.091.051.137.065.222.064.3.116.227.154.061.218-.026.141-.036.167-.069.167-.077.243-.092.219-.089.756-.306.539-.281.937-.249.757-.175.859-.321.475-.17.307-.132.437-.1.295.014.27.178.18.109.2.137.206.088.115.032.527.068.333.124.205.13.347.1.167.035.167,0,.231-.126.141-.132.129-.107.141-.041.192.041.038.02.437.19.257.269.346.155.359.078.744.24.847.456.487.284.449.178.334,0,.372-.069.885-.334.923-.412.526-.257.667-.129.436-.146.424-.153.423-.236.487-.269.244-.187.205-.208.167-.277.18-.313.283-.275.371-.121.475-.1.334-.006.218-.023.564-.322.937-.658.6-.476.462-.342.347-.183.27-.185.333-.38.154-.269.115-.21.167-.178.09-.076.257-.009.41-.011.257-.26.154-.1.243,0,.192.087.45.185.295,0,.167-.047.321-.219.307-.162.231-.345.642-.558.385-.465.372-.205.192-.16.179-.137.231-.211.129-.176.18-.286.038-.287v-.637l.013-.93-.18-4.035.206-2.151.526-3.58.475-1.648.706-1.4v-.97l-.514-2.387-.243-1.356-.051-1.883-.385-2.245-.18-2.759.116-1.357-.206-1.158-.153-.725-.513-.492-.474-.548-.115-.284,1.912.085.859.967.193.391.167.48.128.421.154.565,2.052-.053.385-.316,1.719-.011.578-.082.769-.5.822-1.094.795-1.105.013-.509-.167-.479-.179-.346.063-.422.321.094.218.457.4.508.308.066.282-.077.411-.315.962-.725.924-.333.795-.082.488-.222.449-.3.475-.321.346-.345.706-.129.026-.391-.334-.164-.115-.264.411-.228.6-.256.551-.287.3.158.026.3.077.362.334.176.4-.228.346-.117.847.082.8.27.731.222.539.2" transform="translate(-956.591 -527.38)"  stroke="#fff" stroke-linecap="square" stroke-linejoin="bevel" stroke-width="1" fill-rule="evenodd"/>
      <text id="265" transform="translate(83.4 74.337)" fill="#fff" font-size="13"  font-family="OpenSans-Bold, Open Sans" font-weight="700"><tspan x="0" y="0"></tspan></text>
    </g>
  </g>
</svg>
