<svg xmlns="http://www.w3.org/2000/svg" width="245.878" height="300.99" viewBox="0 0 245.878 300.99">
  <g id="Group_12" data-name="Group 12" transform="translate(-313.411 -1652.612)">
    <g id="_179_Hadgaon" data-name="179 Hadgaon" transform="translate(391.911 1696.897)">
      <path id="talId179" fill="#7DB8EC"  title="Hadgaon" data-name="Hadgaon" d="M1819.919,992.1l-.619,1.231-.3.185-.4-.241-.539-.217-.635-.25-.684-.056-.636.169-.523.314-.515.33-.338.04-.506-.136-.475-.226-.53-.1-.435.073-1.158.869-.74.37-.411-.048-.394-.129-.426-.169-.435-.121-.6.121-.636.33-.474.1-.619.483-.547.177-.564-.008-.619-.064-.7.048-.555.209-.725.354-1.624.62h-1l-.9-.29-.764-.274-.627-.209-.516-.008-.458.113-.6.144-.829-.386-.418-.828-.49-.29-.555-.016-.652.1-.442-.088-.122-.419-.048-.274-.635-.507-.629.041-1.126-.153-1.344-.306-.836-.3-.451-.378-.539-.531-1.159-.41-.418-.233-.265-.306-.024-.716v-.37l-.265-.354-1.3-.177-1.167.33-.853.065-1.021.024-1.159.491-4.015,1.336-1.1.925-.676.547-.837-.442-1.143-.515-1.286-.322-.8-.861v-.941l.1-1.5-.378-.676-.9-.338-.756-.161-.675-.217.024-.982.016-.6-.5-.426-1.015-.557-.37-.116.064-.119.12-.355.105-.638.281-.843.265-.121.637-.074.3-.168.426-.29.917-.91.145-.153.4-.312.717-.294.443-.327.145-.212.121-.308.081-.334.241-.938.434-.056.419-.043.4-.023.33-.055.435-.044.369-.011.476-.03.571-.179.652-.322.209-.14.234-.113.338-.125.274-.153.073-.228.128-.715.008-.253-.129-.3-.2-.179-.145-.275-.169-.224-.088-.257-.1-.18-.21-.191-.241-.19-.354-.447-.225-.341-.1-.264-.12-.2.056-.205.177-.194.161-.364.25-.377.209-.294.458-.634.217-.44.121-.675.161-.634.113-.678.033-.3.12-.282.072-.344.089-.312.177,0,.313.014.853.022h.5l.378.022.514.073.274.088.258.04.29-.04.072-.634-.024-.282.055-.327.1-.355.21-.535.048-.275.121-.3.072-.242.081-.261.507-.216.354-.036.522-.037.329-.022.33-.014.049-.209.056-.711-.023-1.1-.04-.341-.073-.153-.113-.209-.024-.326.161-.738.137-.252.064-.238v-.2l-.048-.242-.1-.228-.033-.209.2-.147.153-.106.056-.187-.2-.121-.176-.136.04-.147.152-.095.008-.147-.1-.242-.153-.117-.168-.169.04-.455-.177.025-.129.066-.2.12-.218.222-.249.28-.21.165-.152.093-.443.083-.3.048-.081.035-.08.062-.145.091-.129-.156-.209-.631v-.638l-.137-.462-.08-.235.032-.4.1-.55-.057-.682.168-1.027.081-1.592-.306-.491-.354-.675-.218-.741-.072-1.474-.016-2.027.233-.866.04-.344-.072-.191-.161-.081-.417.059-.307.082-.363.062-.466.025-.346.085-.2-.044-.057-.686-.057-.774.209-.584.435-.634.579-.906.5-.69.982-.869,1.287-1.056.378-.294.305-.2.049-.279-1-.62-1.215-.784-.5-.378-.033-.337.041-.667v-.371l.1-.375.113-.7.193-.737.041-1.764-.008-.279-.016-.231-.186-.275-.209-.07-.217-.187-.113-.216.072-.638.049-.173.256-.466.089-.224.072-.334.193-.737-.015-.444-.041-.309-.137-.279-.482-.084-.017-.2.033-.374-.064-.253-.065-.132-.184-.092-.322-.1-.338-.081-.274-.092-.193-.1-.3-.106-.209-.055-.2-.088-.041-.172.049-.257.217-.019.241-.017h.161l.258-.037.233-.1.257-.319.032-.172-.064-.406.233.145.186.073.24.04.218,0,.152,0,.209-.026.233-.036.346-.1.25-.063.241-.065.265-.1.145-.039.169-.015.145-.015.112.015.145.054.1.084.089.117.016.068v.107l-.016.113-.008.1.024.1.032.1.049.057.145.1.282.153.177.053.1-.014.056-.04.056-.051.073-.069.072-.057.113-.033.225-.046.25-.033.185-.02.2-.01.281-.026h.177l.21-.012.313.023.305.014.273.022.177.043.113.046.032.083.081.214.023.064.089.253.064.168.113.2.121.057.144-.011.145-.046.289-.109.242-.048.25-.016.225.108.193.114.177.13.2.1.307.138.249.054.435.057.435.1.514.146.5.127.4.058.113,0,.289-.082.129-.138.185-.107.225-.073.169.037.089.1.04.169.008.222.024.341.033.314.1.419.089.143.1.1.1.026.1-.018.1-.042.129-.057.122-.035.144-.013.218-.02.491-.162.21-.071.144-.03.073.03.016.11-.192.193-.057.231.049.23.088.187.073.2.032.275.233.45.306.147.474.047.459.015.491.1.3.062h.387l.475-.033.338-.135.193-.1.274-.191.1-.186.2-.313.04-.3.064-.144.184-.1.186-.069.145.095.168.191.114.231.121.411.057.41.072.169.161.1.273-.015.4-.076.233-.162.29-.137.2-.042.161.018.186.03.273.156.129.246.081.208-.032.231-.017.086-.04.073-.072.092-.024.083v.15l.04.2.041.076.128.086.144.014.362-.042.193-.117.16-.116.154-.109.081-.135.145-.284.088-.195.1-.137.089-.035.153.017.088.055.04.1.008.147-.024.115-.089.18-.04.113-.024.115-.04.352.024.182.033.134.04.1.049.121.04.037.137.044.153.013.362-.008.2-.026.2-.015.129-.038.129.005.024.1-.016.184-.161.307-.1.206-.1.134-.129.156-.088.225.031.287.041.172.048.145.057.088.08.1.218.087.29.015.169-.007.176-.036.322-.057.242-.029.177.029.129.032.193.121.169.248.064.158.088.407.153.506.033.3.031.363-.056.357-.153.607-.04.338.064.282.073.174.088.076.129.029.128-.034.21-.061.2-.13.5-.393.378-.216.17-.048.144-.014.233.011.306.138.129.119.153.251.04.152.025.2-.025.163-.136.236-.1.085-.145.066-.418.218-.121.073-.048.038-.064.049-.025.06-.008.1.041.357-.016.389-.008.294.057.242.1.242.218.293.064.213.025.175.008.175.025.161.057.278.008.381.064.462.128.318.234.492.218.613.224.691.338,1.009.21.5.032.218-.032.118-.031.094-.073.1-.194.158-.113.075-.153.057-.12.035-.1.03-.146.1-.112.2v.116l.04.124.065.127.072.1.072.085.177.186.113-.023.258-.029.1-.065.13-.1.08-.085.072-.029.081,0,.105.043.111.127.146.144.209.121.145.066.458.187.274.066.692.2.29.1.274.227.322.257.177.137.5.275.379.14.249.091.387.052.2-.072.144-.056.274-.09.484-.059.273,0,.451-.018.153-.007.474-.016.193-.005.233.015.258.105.306.194.635.384.555.331.282.13.1.14.056.174.088.445.153.335.265.239.081.087.144.047.072-.011.114-.033.281-.013.266-.057.153-.052.161-.074.628-.463.217-.174.418-.3.274-.1.128-.058.153-.029.153-.02.153.041.242.157.145.1.282.126.233.17.347.184.322.2.313.152.411.114.16.055.137.134.145.207.241.409.2.271.072.183.064.195.089.3.04.169v.147l-.024.3-.088.344-.121.42-.088.255-.178.334-.088.148-.194.177-.394.258-.466.289-.628.2-.129.045-.112.041-.13.1-.08.142-.1.315-.1.274-.008.064v.118l.033.206.072.307.129.28.1.115.193.2.33.317.128.157.048.081v.111l-.048.151-.241.223-.169.212-.1.089-.1.074-.129.037-.185-.008-.482-.1-.1-.007-.258.033-.129.056-.185.148-.1.256-.089.274-.057.112-.088.1-.1.1-.241.094-.314.015-.08-.011-.258-.076-.281-.087-.306-.189-.073-.071-.032-.091-.1-.171-.129-.089-.073-.029-.105,0-.12.035-.112.054-.073.076-.049.134-.041.282v.5l.009.264v.159l-.137.3-.458.326-.4.3-.523.529-.579.416-.362.257-.226.3-.072.249-.016.209.1.341.209.27.065.17.008.164v.22l-.008.324-.032.3-.113.28-.017.253.032.171.137.1.266.1.458.209,1.119.285,1.038-.049.724.016.265-.006.136.041.073.042.185.119.684.2.491.04.812-.035.21-.064.209-.212.153-.181.113-.136.306-.111.523.056.041.027.088.093.05.1.04.128.016.194.017.277.129.25.089.055.241.213.16.042h.186l.249-.021.3-.051.531-.193.676-.345-.242.605-.1.454-.314.353-.684.293-.812.331-.781.483-.241.169-.516.66-.378.514.04.419.322.359.353.059.806.234.121,1.232-.032.572-.072,1.013-.4,1.011-.667-.191-.338-.542-.563-.652-.329-.5-.387-.279-.466.63-.419.6.209.366.249.66-.2.85-.185,1.343.2.462.257.4-.176.484-.33.771.1.777-.072.624-.757.4-1.182.888-.6,1.2-.041.641-.177.765-.057.724.258,1.013-.08.772-.138.587-.168.555-.024.62.217.587-.579,1.142-.025.226" transform="translate(-1765.65 -922.069)"  stroke="#fff" stroke-linecap="square" stroke-linejoin="bevel" stroke-width="1" fill-rule="evenodd"/>
      <text id="179" transform="translate(20.435 46.519)" fill="#fff" font-size="13"   font-family="OpenSans-Bold, Open Sans" font-weight="700"><tspan x="-12.171" y="0"></tspan></text>
    </g>
    <g id="_106_Himayatnagar" data-name="106 Himayatnagar" transform="translate(446.143 1724.132)">
      <path id="talId106" fill="#7DB8EC" title="Himayatnagar" data-name="Himayatnagar" d="M1860.431,997.437l-.354-.274-.6-.008-.507.113-.587.2-1.079.177-.691-.153-.589-.177h-.836l-.571.168-.7.185-1.007.129-.8.04-.86.041-.6.048-.539.169-.362.241-.434.33-1.6,1.489-1.232.008-1.094-.6-.789-.692-.982-.057-.892.032-.789.032-.748-.467-.595.128-.62.338-.587.169-1.2.072-.451.217-.289.1-1.9.161-.885-.274-.619-.185-.515-.064-.435-.37.024-.225.579-1.143-.217-.587.024-.62.169-.555.136-.587.08-.773-.257-1.013.056-.724.177-.765.04-.64.6-1.2,1.182-.887.757-.4.072-.624-.1-.777.329-.771.177-.484-.258-.4-.2-.463.186-1.342.2-.85-.25-.66-.209-.366.418-.595.466-.631.386.279.33.5.563.652.338.542.668.191.4-1.011.073-1.012.032-.572-.121-1.233-.8-.234-.354-.059-.322-.359-.039-.418.378-.514.515-.659.241-.169.781-.483.813-.331.683-.293.314-.353.105-.454.241-.6.057-.025.048-.016.474-.15.323-.22.451-.271.66-.287.289-.077.3-.081.418-.172.5-.373.386-.362.12-.147.152-.175.25-.287.112-.1.088-.074.226-.062.241-.007.2-.08.523.016.523.026.4-.016.113,0,.088-.072.016-.123-.008-.2v-.173l.023-.167.065-.181.056-.532.041-.226.032-.154.08-.107.089-.09.088-.088.225-.266.137-.088.145-.109.25.021.25.07.168.151.145.12.169.147.2.213.185.287.21.333.072.2.08.328.1.348.072.492.113.615.081.4.129.228.4.293.4.257.008.005.121.061.273.034.362.04.3-.029.346-.12.17-.075.209-.2.064-.09.088-.338.033-.292.04-.16.216-.245.114-.127.177-.237.081-.073.161-.066.274-.005.281-.039.145-.038.1-.056.144-.045.073-.03.088-.063.048-.1.024-.1.04-.265-.064-.294-.1-.234-.049-.184-.177-.226-.338-.253-.378-.245-.6-.348-.289-.238-.418-.393-.281-.39-.193-.44-.289-.46-.265-.4-.1-.176-.04-.175.008-.106.081-.118.225-.343.073-.12.12-.067.081-.032.265-.061.556-.056.482,0,.234.011.305-.181.193-.12.121-.133.209-.37.12-.29.072-.234.072-.421-.048-.446-.073-.511-.113-.591-.177-.739.032-.425.089-.185.177-.263.547-.613.458-.519.628-.617.434-.3.153-.083.193-.014.217,0,.242.061.217.113.49.478.4.309.25.139.216.023.29.007.273.031.363.025.378.076.1.094.048.15.041.229.024.29-.121.666-.032.448.024.173.1.136.105.12.208.128.274.091.273.008.089-.015.169-.034.209-.071.162-.146.1-.681.064-.3.073-.278.007-.229v-.546l-.007-.3.04-.222.024-.117.1-.143.129-.154.25-.21.153-.076.266-.108.385-.132.508-.192.12-.173.08-.185.081-.233.113-.357.1-.361.113-.2.315-.346.266-.09.185,0,.289.023.137.083.048.056.049.218.049.188.225.531.137.591.04.775.121.2.081.15.1.169.313.264.137.106.193.135.435.185.627.388.435.365.692.429.483.332.273.263.161.26.1.282.049.305.177.283.1.071.249-.02.154-.12.1-.136.692-.861.137-.192.225-.376.426-.509.233-.157.161-.109.242-.075.208-.042.266-.019.395,0,.225.106.612.21.588.071.441.06.186.079.185.264.032.447.065.523.145.711.177.549.362.742.611.824.644.669.443.472.185.3.1.384.04.287-.1.286-.274.4-.587.623-.064.323.056.323.266.469.636.568.578.243-.8.626-1.432.88-1.3.572-.949.455-.386.836-.337.851-.129.968.3.5-.056.88-.547.484-.6.322-.571,1.276.089,1.695.032.733.048.514-.153.652.257.513.33,1.078.025.66-.049.638-.217,1.034-.419,1.269-.362.858.089.77.2,1.261-.217,1.133-.619.042-.185.2-.161.386-.322-.056-.465.177-.186.2-.065.048-.458-.25-.693.2-.225.1-.651.37-.564.346-.82.209-.8.338-.8.322-.82.314-.708.273-.636.257-.579.218-.224.081-.283.37-.024.354-.016.2v.064l-.305.266-.33-.025-.226-.024-.241.04-.354.1-.056.016-.37.113-.193.217-.209.2-.371.282-.225.177-.443-.056-.193-.048-.957.137" transform="translate(-1833.099 -955.844)"  stroke="#fff" stroke-linecap="square" stroke-linejoin="bevel" stroke-width="1" fill-rule="evenodd"/>
      <text id="106" transform="translate(12.204 28.284)" fill="#fff" font-size="13"  font-family="OpenSans-Bold, Open Sans" font-weight="700"><tspan x="-15.435" y="0"></tspan></text>
    </g>
    <g id="_181_Kinwat" data-name="181 Kinwat" transform="translate(488.228 1653.315)">
      <path id="talId181" fill="#7DB8EC" title="Kinwat" data-name="Kinwat" d="M1885.411,974.023l.217-1.132-.2-1.261-.089-.77.363-.858.417-1.269.218-1.034.047-.638-.024-.66-.33-1.078-.257-.513.152-.653-.049-.513-.032-.734-.088-1.695.57-1.276.6-.322.547-.484.057-.88-.307-.5.129-.968.339-.851.385-.836.949-.455,1.3-.572,1.431-.88.8-.626.274.119.394.117.547.1.7.18.137-.006.153-.008.225-.051.185.041.145.1.1.064.128.006.169-.082.3-.091.225-.11.129-.121.152-.218.169-.471.032-.4.024-.406-.1-1.11v-.361l.016-.4-.1-.584-.024-.286.04-.335.048-.2.193-.632.129-.26.484-.455.2-.079.225-.053.346-.037.514.052.307.079.314.162.5.364.169.313.386.5.475.662.491.564.515.345.579.242.4.259.338.316.2.4.394.365.853.6.258.2.21.06.136.012.041,0,.145-.038.176-.094.218-.165.128-.188.185-.238.587-.5.266-.173.3-.218.33-.278.627-.516.37-.395.08-.072.411-.387.611-.633.362-.34.25-.155.2-.026.54.185.691.331.37.038.305-.016.483-.091.37-.223.04-.518.009-.182.2-.27.129-.222.346-.343.193-.146.1-.131.073-.254.048-.343.145-.958.216-.943.024-.251.032-.179.057-.156.088-.091.177-.186.347-.265.571-.3.274-.113.169-.163.137-.194.209-.212.168-.3.089-.383v-.226l-.008-.33v-.33l-.016-.278-.225-.3-.137-.237-.339-.314-.723-.521-.451-.355-.37-.423-.346-.531-.089-.335.033-.149.208-.448.073-.083.145-.149.233-.174.515-.129.16-.01.564.134.595.222.7.149.523.227.362.17.427.18.491-.01.338-.047.08-.02.362-.089.5-.144.733-.325.433-.334.226-.237.129-.159.282-.092.289.041.161.036.184.026.29-.17.161-.138.177-.04.322.013.338-.005.346.012.563-.094.266-.094.249-.139.2-.176.145-.19.121-.225.032-.4-.008-.375.008-.436-.032-.294-.169-.345-.474-.732-.113-.283.024-.232.024-.2.1-.165.144-.17.177-.171.185-.185.346-.613.137-.175.089-.118.024-.324-.089-.242-.128-.314-.1-.969.04-.339.057-.336.153-.247.177-.273.169-.35.113-.48.064-.226.1-.216.1-.222.048-.318.073-.448-.161-.479-.153-.2-.2-.263-.273-.355-.411-.608-.161-.7-.088-.294-.032-.273-.024-.217-.1-.237-.161-.263-.169-.319-.185-.294-.129-.169-.129-.263-.056-.17-.04-.279-.152-.268-.177-.3-.362-.366-.771-.072-.837-.1-.266-.129-.2-.191-.273-.215-.339-.14-.643-.186-.781-.226-.925-.222-1.054-.329-.54-.207-.506-.247-.515-.139-.491-.031-.209.088-.121.185-.056.3-.129.433-.128.618-.057.345-.136.247-.241.139-.33.128-.338-.031-.846-.422-.643-.309-.427-.2-.329-.067-.33.035-.29.242-.522.731-.25.139-.242.232-.16.268-.065.289.009.294.016.683-.153.311-.2.172-.418.049-.331.057-.531-.077-.362-.114-.427-.319-.482-.526-.073-.067-.153-.345-.04-.315-.049-.376-.233-.618-.273-.4-.426-.552-.37-.381-.314-.262-.361-.083-.226-.036-.491-.041-.6-.07-.1-.043-.265-.123-.225-.165-.113-.186-.008-.283.016-.3.242-.485.056-.17.041-.19-.016-.288-.121-.521-.234-.747-.24-.592-.4-.845-.555-.273-.491-.094-.362-.08-.7-.189-.6-.074-.845.139-.547.262-.6.451-.555.27-.692.422-.4.314-.371-.566-.434-.389-.129-.238-.016-.32.057-.517.41-1.118-.4-.653-.338-.624.113-.953.66-1.115.305-.749.451-.828-.072-1.034.66-.14,1.328.22,1.23.323,1.432.506.8.4.361.426.313.242.387-.14.305-.021.394.44.266.389.731-.323.636-.77.523-.287.443-.058.225.557.345.645.307.638.411.375.562.161.613.015.41-.176.321-.359.2-.557.193-.755.008-.733-.282-.682-.515-.286-.418-.257-.732-.367-1.07-.549-.032-.961.056-1.334-.21-.609-.362-.418-.973-1.152-.37-.594-.466-1.2.353-.183,1.03.322,1.288.411,1.481.586.965.367,2.559,1.342.418.264.088-1.137.169-1.356.08-.925-.2-.513-.266-.257-.555-.022-.6-.03-.917-.469-.8-.513-.113-.367.282-.52.426-.374.242-.4.1-.514-.136-1.255-.08-.931.145-.924.25-.91,2.5.557.933.455.563.564.411.228.354-.125.169-.55.217-.85.708-1.724.6-1.012.6-.711.121-.616.337-2.09.169-1.064.523-.763.426-.168.539.161.411.228.394-.1.82-.953.523-1.093.065-.932.225-1.3-.217-.616-.74-.535-1.11-.235-.74-.08-1.263-.1-1.087-.205-.474-.146-.435-.183.056-.089.4-.758.386-.681.314-.448.25-.3.346-.275.45-.058.483-.019.941.42.676.222.507.14,1.005.124.66.043.781.01.627.121.467.179.289.14.113.193.048.056.555.663.362.294.241.116.314.014.387-.043.667-.159.555-.179.756-.162.572-.175.305-.31.185-.27.788-.883.3-.2.105-.051.249-.117.482-.039.741.07.555.031.539-.134.394-.195.37-.334.362-.609.692-.778.563-.494.426-.2.306-.073.242.058.2.194.128.393.249.674.136,1.005.089.882-.016.51-.1.387-.249.487-.45.516-.427.444-.683.8-.531.631-.242.555v.354l.193.946.25.514.652.908.3.329.226.113.242.035.354-.036,1.351-.289,1.079-.4.732-.533.555-.585.6-1.067.137-.561.032-.516-.009-1.094.073-1,.088-.535.153-.29.347-.37.812-.445,1.649-.623,1.28-.352.023.145.017.028.016.038.017.089v.154l-.009.364-.08.28-.12.374-.025.073-.081.3-.145.589-.1.395-.049.206-.023.394-.009.224-.064.479-.008.115-.073.322-.016.069-.048.283-.032.222-.008.229-.194.4-.088.232-.04.284-.008.024v.022l-.081.813-.225.462-.016.034-.008.024-.153.372-.12.24-.064.127-.321.583-.154.238-.33.362-.37.363-.241.112-.065.036-.136.112-.072.14-.049.241-.008.3.08.544.1.623.1.014h.024l.427.059.538.3.692.415.274.157.29.178.28.06.419.117.4-.1.594-.139.025,0,.032-.013.258-.094.225-.059.017-.007.032-.005.2-.016h.056l.169.008.032,0,.025,0,.112-.014.1.03.033,0,.273-.007.708.077.33.023-.009.045.508.178.024.011.032.01.08.019.033.009.024.012.1.026.4.157h.04l.025,0,.024,0,.371.164.136,0,.265.023-.047.792-.154.69-.016.169-.04.2-.024.162-.023.181-.05.261-.055.61-.009.074.009.327-.017.217-.017.255-.08.38.032.007.4-.011.427.02.338.061.7.137.1.019.74.573.161.1.064.164.057.062.313.314.145.071.33.088.233.1.161.3.128.24.017.425.057.464.12.631.322.7.1.413.024.032.129.5.217,1.031-.121.056-.056.309-.08.032v.018l-.064.153-.162.372-.1.244-.129.3-.049.14-.113.29-.1.25-.1.261-.04.1-.057.118-.016.047-.056.066-.024.212-.025.128v.032l-.015.183-.016.043-.008.1-.008.105-.04.3-.072.6-.064.214-.1.315-.025.1-.032.058-.017.06-.1.344-.121.393-.122.392-.129.4-.12.392-.1.228-.072,0h-.12l-.266,0-.282-.016-.177-.017-.395.1-.274.155-.088.056-.072.03-.024.087-.032.015.016.049-.048.153.032.152.08.258.048.248.032.255.008.117-.008.251-.072.1-.153.063-.218.2-.016.222.112.418.04.164.186.463.12.3.04.166.114.361.048.191.016.082-.088.1-.178.212-.151.243-.146.006-.1.024-.113.03-.032,0-.088.007-.024,0-.024-.011-.057-.043-.023-.008-.1-.018-.025-.008-.064-.009-.024-.005-.129,0-.047,0-.009.009-.065,0h-.048l-.032,0-.089-.012-.025,0-.137.024-.024,0-.1.024-.017.016-.032.006-.17.063-.1.043-.088.021-.129.035-.152.052-.177.018h-.032l-.144.015-.032,0-.362.009-.032.022-.258.186-.071.051-.185.1-.016.018-.064.028-.049.023-.3.121-.072.061-.113.113-.024.015-.217.18-.025.109-.032.239-.008.1-.016.128-.016.153v.024l-.049.239-.015.153-.016.186-.033.256.049.433-.3.128-.5-.015-.193.037-.136,0-.144,0-.186-.022-.129-.009-.1,0-.041.026-.177.3-.04.069-.1.057-.178.032-.185.039-.346.1-.193.044-.2.041-.274.053-.2.037-.073-.034-.056-.023-.242-.175-.08-.052-.105-.063-.064-.046-.121-.033-.241-.071-.241-.085-.25-.07-.258-.093-.169-.044-.346-.087-.225-.059v.048l-.073.125-.04.124-.081.2-.049.124-.023.067-.137.361-.073.17-.015.041-.1.209-.056.129-.1.248-.081.206-.081.193-.081.193-.032.081-.088.208-.016.037-.073.177-.145.111-.04.023-.1.076-.073.057-.048.032-.113.073-.041.031-.088.092-.073.062-.169.135-.049.094-.04.114-.056.15-.113.326-.056.143-.04.1-.1.276h.258l.281.085.153.055.225.07.185.052.2.179.218.183-.009.281v.075l.025.169.185.034.37.068.072.025.266.066.225.043.177.068.081.328.12.531.024.108.1.32.218.094.241.062.2.062.12.241.081.167.056.092.112.043.185.108.233.124.1.187.177.267.112.163v.123l.032.205v.625l.017.233.008.142.017.089.008.1.024.239.016.236v.26l.049.266-.04.179.008.136.056.329.032.123.024.146.185.582.064.112.1.21.129.24.033.022.12.188.524.551.643.69.241.275.072.115-.049.593-.031.408-.081.581-.016.194-.008.236v.242l-.032.74-.032.176-.08.335.032.172-.2.236-.266.815.258,1.052-.1.85-1.062.252-.048.62-.474.92-2.511-.552-.716-.046-.08,1.356.04.62,1.472,1.746h1.577l.153,1.309-.305.9-.2.4.105.664.04.06.483.906.217.269.1.644-.112.009.321,1.413h0l.177.648.3.464.025.059.643,2.3.25,1.026,1.005,1.325-.136.851-.154.983-.144,1.047-.105.549-1.19.98-.7.606-2.228-1.024-1.529-.621-.917.247-1.641.475.41,1-.008.022.081.14.081.209.064.11.233.339-.113.106-.3.279-.032-.031-.249.211.329.581.5.372.032.212-.024-.007-.572-.03-.458-.044-.177-.018h-.113l-.458.295-.539.354-.563.345-.6.384-.547.363-.281-.645-1.159-.264-.8-.2-.636-.142-.442-.1-1.336-.3-.635-.146-.587-.139-.563-.132-.749-.18-1.03-.236-.1.5-.08.4-.121.574-.088.451-.1.513-.088.48-.105.57-.2,1.017-.048.237-.04.243-3.379,9.145-1.022-.153-.684-.091.539,1.03.379.719.265.482.4.719.185.013.185.5.338,1.005.128.314.25.6.789.081.732.08,1.022.112.209.016.483,1.867h0l.024.29-.128.732-.129.628-.435.933-.242.748-.176.6-.04.121-.048.185-.032.1-.016.081-.024.1-.016.056-.04.161-.056.193-.016.064-.032.121-.016.064-.041.121-.056.177-.048.113-.153.386-.1.306.048.04-.185.145-.233.1-.1.04-.065.016-.023.153-.049.2-.089.048-.184.145.015.056.065.346.088.362.024.145.009.048.016.089v.129l.009.362-.105-.016-.032.507-.088.3-.106.612.073.056-.121.032.338.58v.1l-.152.362-.017.266-.015.048.1.209.274.209.177.049.152.4-.025.008-.048.137.073.032.112.048-.048.129.048.04-.024.032-.113.1-.168.153-.016.056-.048-.032-.136.024-.122.016-.177-.057.009.217.008.048-.113.121.128.185.017.024.064.08-.064.129-.064.129-.064.121-.21.314-.1.161-1.545.394-.274.048-.137-.088-.491-.2-.265-.041-.878.226-.152.185-.282.314-.048.064-.185.209-.289.314-1.521-.016-.524-.394-1.255-.957-.442-.322-.233-.153-.844-.8-.322-.3-.258-.137-.073-.016-.5-.209-.025-.008-1.327-.209-1.047.587-.419.266-.45.072-.322.217-.129.137-.378.265-.194.161-.161-.129-.136-.088-.338-.137-.387-.136-.04-.057-.009-.233.017-.193.04-.306.009-.136-.041-.25-.177-.218-.032-.056-.089-.153-.064-.129-.224-.531-.508.418-.29.233-.369.274-.564.137-.241.056-.112.008-.331.024-.1.073-.258.321-.33.427-.177.225-.176.233-.129.169-.146.21-.1.145-.072.112-.073-.032-.8-.193-.4-.185-.257-.168-.37-.2-.1-.024-.169-.209-.338-.3-.643-.515-.073-.064-.016-.016-.024-.008-.161-.153-.089-.088-.024-.016.161-.66.234-.475.144-.217.218-.547.209-.4.064-.216.1-1.159-.089.04-.024-.008-.025-.016-.032-.016-.458-.153-.249-.081-.554-.354-.169-.064-.685-.193-.6-.249-.057-.016-.113-.048-.177-.056-.306-.08-.1-.032-.057-.016-.12-.016-.016-.008-.185-.041-.2-.032-.4-.08v-.209l.008-.193-.008-.024-.016-.032-.08-.137-.113-.282.016-.338.322-.338-.169-.957-.225-.282-.4-.2-.323-.129-.659-.475-.064.1-.484.04-.917-.467.056-.346-.555-.217-.731-.266-.4-.169-.2-.4-.523-.885-.474-.869-.354-.491-.2-.161-1.456-.764-.234-.137-.1-.137-.338-.426-.466-.587-.3-.37-.982-.346-.756-.279" transform="translate(-1885.338 -867.602)"  stroke="#fff" stroke-linecap="square" stroke-linejoin="bevel" stroke-width="1" fill-rule="evenodd"/>
      <text id="181" transform="translate(4.218 105.1)" fill="#fff" font-size="13"  font-family="OpenSans-Bold, Open Sans" font-weight="700"><tspan x="-7.396" y="0"></tspan></text>
    </g>
    <g id="_183_Mahur" data-name="183 Mahur" transform="translate(470.694 1653.357)">
      <path id="talId183" fill="#7DB8EC" title="Mahur" data-name="Mahur" d="M1892.021,911.586l-.764.886-1.408.921-.218.037-.3-.029-.387.018-.385-.1-.339-.253-.562-.21-.5-.246-.29-.166-.233-.29-.1-.25-.024-.277.009-.249.056-.287.12-.317.226-.471.016-.127-.008-.3-.1-.361-.258-.643-.056-.155-.169-.235-.2-.225-.153-.124-.225-.07-.547-.036-.16.02-.355-.118-.169-.106-.072-.013-.538-.16-.233-.089-.145-.2-.226-.361-.152-.285-.04-.177-.04-.155-.121-.279-.136-.264-.121-.222-.185-.337-.209-.354-.363-.483-.185-.314-.257-.363-.354-.444-.3-.3-.161-.139-.33-.159-.3-.136-.218-.09-.225-.157-.346-.252-.378-.277-.338-.129-.322-.12-.289-.058-.282.014-.282.011-.337.183-.339.341-.49.409-.475.369-.281.2-.2.119-.185.045-.893-.354-.371-.209-.353-.121-.282-.084-.386-.045-.362.068-.241.151-.129.179-.161.334-.169.37-.234.234-.184.066-.186.064-.241-.125-.668-.683-.378-.388-.612-.424-.12-.324-.169-.822-.1-.229-.089-.191-.25-.219-.306-.025-.434.225-.281.129-.613.1-.145.015-.281-.08-.387-.374-.337-.424-.1-.295-.056-.3-.032-.168.072-.628.152-.406.113-.434.386-.878.233-.588.034-.534-.041-.776-.1-.351-.12-.2-.145-.232-.306-.219-.394-.211-.749-.359-.169-.289-.273-.74-.145-.451-.274-1.079.008-.324.217-.444.853-.9,1.5-1.566.845-.7.29-.389.153-.239.016-.247-.064-.515-.024-.4.007-.409.17-.994.256-.656.153-.472.1-.38.306-.424.474-.365.2-.228.266-.346.322-.8.363-.756.474-.641.378-.494.474-.883.153-.231.621-.666.578-.4.636-.427.571-.2.9-.209.555-.129.37-.132.176-.122.1-.16.025-.192-.048-.279.305-.213.515-.177.386-.035.539.07.555.012.218-.029.274-.145.345-.255.225-.309.169-.247.194-.291.241-.589.129-.2.2-.3.449-.4.306-.257.274-.142.137-.036.176-.044.395.04.3.11.418.277.41.077.45.08.322,0,.257,0,.467-.089.6-.137.877-.347,1.287-.133,1.77-.379.13.023.49.09.724.243.523.221.009,0,.709.12.152,0,.684-.085.258-.1.248-.11.113-.112.113-.4.032-.092.12-.222.282-.378.539-.289.861-.374.539-.148.893-.208.926-.29.772-.187.274-.049.419.138.3.184.2.159.081.151.048.209-.112.24-.025.074-.024.2.08.232.137.635.257.413.362.515,1.143,1.1.491.575.338.26.322.268.12.048.427.173.965.106.564.034.37.023,1.045.3.548.12.717.035.386-.024.378-.068,1.022-.309.4-.116.491-.111.4-.023.547-.031.346-.024.184-.063.25-.164.1-.142.435.183.474.146,1.086.205,1.263.1.74.08,1.111.235.74.535.217.617-.225,1.3-.064.932-.523,1.092-.82.953-.394.1-.411-.228-.539-.161-.427.168-.523.763-.169,1.064-.338,2.09-.121.616-.6.711-.6,1.012-.708,1.723-.217.851-.168.55-.354.125-.411-.228-.562-.565-.933-.455-2.5-.557-.249.91-.145.924.081.932.137,1.254-.1.514-.242.4-.426.374-.282.521.112.367.8.514.917.469.6.03.554.022.266.257.2.513-.08.925-.17,1.357-.088,1.137-.419-.264-2.558-1.342-.965-.367-1.481-.586-1.288-.411-1.03-.322-.354.183.466,1.2.371.594.973,1.153.362.417.209.609-.057,1.335.033.961,1.07.549.733.367.418.256.515.287.282.682-.007.733-.193.756-.2.557-.321.359-.411.176-.612-.014-.563-.162-.41-.374-.305-.638-.346-.645-.225-.557-.443.058-.522.287-.637.769-.732.323-.266-.389-.394-.44-.305.021-.386.14-.314-.242-.361-.426-.8-.4-1.433-.506-1.23-.323-1.328-.22-.66.14.072,1.034-.45.829-.306.748-.66,1.115-.112.953.338.624.4.653-.411,1.118-.056.517.017.32.129.238.434.389.37.566" transform="translate(-1863.82 -867.707)"  stroke="#fff" stroke-linecap="square" stroke-linejoin="bevel" stroke-width="1" fill-rule="evenodd"/>
      <text id="183" transform="translate(10.652 22.058)" fill="#fff" font-size="13"  font-family="OpenSans-Bold, Open Sans" font-weight="700"><tspan x="-7.216" y="0"></tspan></text>
    </g>
    <g id="_175_Bhokar" data-name="175 Bhokar" transform="translate(413.866 1765.409)">
      <path id="talId175" fill="#7DB8EC" title="Bhokar" data-name="Bhokar" d="M1797.173,1009.8l.628-.041.635.507.049.273.121.419.442.088.652-.1.555.016.491.29.418.829.829.386.6-.145.458-.113.514.008.629.21.764.273.9.29h1l1.626-.619.724-.354.556-.209.7-.048.62.064.563.008.548-.177.618-.483.476-.1.635-.33.6-.121.433.121.427.168.395.129.41.048.741-.37,1.158-.869.434-.073.531.1.475.225.506.137.339-.04.515-.33.523-.314.635-.169.685.056.635.249.539.218.4.242.3-.185.619-1.231.435.37.515.065.62.185.885.273,1.9-.161.29-.1.451-.217,1.2-.072.586-.169.62-.338.595-.129.749.467.788-.032.894-.032.981.056.789.692,1.095.6,1.231-.008,1.6-1.488.435-.33.361-.242.539-.169.595-.048.862-.04.8-.041,1.006-.129.7-.185.572-.169h.836l.588.177.692.153,1.078-.177.588-.2.507-.113.595.008.354.273-.049.129-.008.274.089.362.032.193.081.209.073.153.072.137.128.266.049.089.088.145-.112.29-.048.233-.08.37.121.242v.2l-.064.2.153.177.1.072.137.057.273.072.233.072.04.008.2.04.4.04h.056l.2.056.184.081.025.016h.031l.194.032.257.1.048.016.193.024h.065l.177.024.186.048.032.008.032.008.112.024.064.024.033.008h.032l.1.016.088-.016h.057l.072-.008h.033l.025-.016h.16l.129.008.08-.008.121-.032.04-.008h.129l.25-.056.128-.024h.032l.025-.008.129-.008.073.081.145.048h.023l.1.048.121.056.032.008.04.008h.089l.1.024.128.016.137.016h.241l.145-.008.112.016.057-.008.04.177.048.137v.145l.024.08.048.226-.008.185.1.1.04.234.049.1.072.033.064.073.032.088.049.121.007.161-.032.233-.025.1-.04.089-.057.209-.057.1-.112.2-.009.016-.072.177-.088.209-.032.057-.1.257-.032.137-.04.081-.016.048-.056.185-.008.04-.2.008-.1-.008-.21-.024-.338-.088-.2-.072-.065-.049-.12-.032-.081-.024-.056-.048-.121-.056-.1-.04-.121-.024-.145-.048-.1-.024-.122-.008-.016-.241-.016.016-.225-.169-.048-.057-.041-.032-.145-.024-.153.008-.305.032-.073.04-.193.265-.933.8-.587.515-.434.395-.378.346-.08.161v.081l-.032-.009-.007.041-.049-.017.136.194.04.193.007.1-.024.056.017.1-.025.024.016.016-.049.024-.008.024.024.008-.017.032-.056.024-.024.04-.08.032.008.169-.064.032-.024.056.065.057-.008.056-.081.064-.056-.024-.056.048-.024-.016-.025.016-.032.04-.008.024-.024.04-.048.233.1.064-.008.065h-.024l-.016.04.072.1.064.008.057.153-.121.032.008.056-.016.016v.072l-.072.04.048.04v.04h.064l-.025.08-.008.024-.032-.016-.041.121-.056.008-.033.032-.023.113-.016.016-.057.145.041.177.008.065.024-.008.088.459.049-.008-.024.128-.008.064-.081.169-.031-.008-.016-.08-.032-.008.016.057-.065.008-.089.145-.1.048-.024.04.016.049-.064.12-.1.073-.049.089v.145l-.056.008-.128.1-.017.1-.1.1-.032.032.024.1-.064.032-.008.048.008.04-.049.064-.032.121-.031.032-.072.04-.049.1-.032.04-.056.04-.1.024-.008.048.025.032.113.064-.049.137.024.113-.193.145.016.193-.1.2.017.024.031.081-.031.08-.081.137-.1.113-.016.217-.12.177.057.475-.113.152-.064.041-.145.234-.16.169-.306.145-.089.1.008.29.024.072-.016.064-.017.024.008.121-.04.177-.113.161-.017.137.017.04-.161-.064.008-.065-.323-.161.04.1.082.048-.154.3-.225.329-.113-.08-.1.024.088.032.169.185.571.209.161.1.169-.056.161.04.185.088.056.04.1.056.442.443.209.209.346.49.016.137-.322.258-.266.008-.248.281-.017.41.049.121.176.322.032.153-.064.008.032.089-.217.025-.233.088-.081.217.073.057-.024.08-.008.024-.024.064-.056.113-.073.242v.144l-.008.064-.023.169-.1.6.016.338.008.04.057.306v.338l-.032.121-.1.153-.057.08-.161.306-.192.209-.081.08-.016.032-.088.169-.033.121-.386.306-.1.281-.072.233-.378.322-.2.209-.073.217-.144.032-.089.048-.185.081-.274.121h-.089l-.144-.081-.129.362-.114.322.178-.048.129.008.064.04.1.08.048.177.1.491-.024.193-.04.1.007.113.073.249.257.458.016.032.008.024.1.258.241.434.056.322.338.024.58.041.732.064.089.121.016.5.016.282.024.3-.1-.032-.265.081-.025.008-.249.008-.225.37-.049.089-.04.153-.064.233v.137l.032.056.024.282.008.136.056.1.073.129.048.1.049.1v.129l-.008.048v.073l.008.1.056.113.08.064.04.04.032.153.169.257.073.113.024.032.024.08-.065.032-.016.024.048.153-.041.257-.112.322-.073.112-.08.138-.129-.016-.226-.032-.354-.024-.322-.1-.023-.008-.033-.008-.032-.008-.33-.089-.346.032-.266.024-.032.008-.2.024-.025.121-.21.12-.072.04-.281.056-.129.04-.016.008v.016l-.048-.048-.121-.056-.1-.048-.024-.016-.024-.129-.024-.161v-.025l-.008-.233-.016-.025-.016-.04-.016-.016-.023-.007-.009-.009-.1-.073-.04-.121-.025-.073-.047-.16-.009-.024.009-.1v-.073l-.025-.032-.1-.12-.072-.081-.017-.024-.04-.073-.064-.12-.008-.024-.048-.008-.121-.032-.088-.024-.12-.1-.025-.016-.016-.024-.071-.12-.088-.169-.025-.072-.016-.04-.08-.089-.427-.45-.1-.113-.1-.105-.008-.008-.048-.04v-.016l-.032-.008-.065-.048-.313.04h-.049l-.089-.008h-.064l-.129-.008-.137-.008-.089.024-.129.04-.056.032-.073.048-.08.049-.829-.434-.378-.048-.958.153-3.081.861-.45.555-.6,1.488-.7.949-.733.1-1.584.04-1.176.032.041-.732-.29-.821-.281-1.407-.628-.386-3.4-.1-.748-.355.089-1.134.129-.893.056-1.142-1.593-.467-.555.024-.249.459-.314.5-.587.716-2.422,1.392-1.271.354-1.714-.128-1.03-.708-.958-.337-.5.136-.8.29-.436-.073-.37-.394-.177-.475-.217-.716-.339-.555-.6-.885-.538-.5-.531-.161-.539.282-.474.483-.677-.5.105-.676.056-.836.225-.628.25-.692.016-.507-.515-.033-.813.2-1.125.049-1.087.266-.257-.041-.531-.121-1.529-1.512-1.11-.821-.329-.692.032-1.014.017-.982-.459-1.464-1.343-.395-1.883-.048-2.784-.177-1.078-1.078-.29-.386-.3-.186-.426.1-.6.217-.338.008-.636.048-.459-.225-.031-.628-.282-.635-.241-.78-.113-.9-.361-.965.121-.249.265-.459.33-.45.217-.362.161-.612-.064-.756-.273-.757-.218-.338-.113-.434-.04-.523-.088-.748.056-.314.016-.1.845-1.368.66-.2.419-.08.3-.169.362-.354.515-.7.925-1.352.282-.515.176-.467-.015-.523-.185-.692-.145-.821-.072-.5" transform="translate(-1792.74 -1007.19)"  stroke="#fff" stroke-linecap="square" stroke-linejoin="bevel" stroke-width="1" fill-rule="evenodd"/>
      <text id="175" transform="translate(14.48 22.006)" fill="#fff" font-size="13"  font-family="OpenSans-Bold, Open Sans" font-weight="700"><tspan x="-7.697" y="0"></tspan></text>
    </g>
    <g id="_174_Ardhapur" data-name="174 Ardhapur" transform="translate(366.396 1755.971)">
      <path id="talId174"  fill="#7DB8EC" title="Ardhapur" data-name="Ardhapur" d="M1758.424,1026.277l-.532.515-.474.032-.411-.289-.209-.37-.057-.7-.185-.362-.337-.112-.806.482-.442.491-.483.073-.538-.145-.354-.322-.419-.217-.378-.1-.314-.032-.355.024-.369-.056-.306-.089-.387-.708-.289-.419-.531-.2-.579.024-.611.314-.587-.636-.161-.861-.587-.788-.442-.419-.507.048-.475.354-.587-.169-.241-.475-.194-.45.088-.41.282-.378.113-.394-.041-.193.218-1.633.064-.861-.1-.8.145-.676.249-.684.169-.4.056-.426-.081-.6-.732.032-1.078-.129-.652-.161-.386-.289-.064-.588.016-1.826-1.859.153-1.593.04-.507.313-.515.218-.4-.113-.45-.121-2.526-.032-.765-.048-.707-.089-.363.032.113-.234-.025-.933-.056-1.126-.023-1.014.12-.716.121-1.1.04-.636.1-.853.017-.4.088-.434.177-.733.089-.217.121-.169.3-.024.242.008.265.048.435.1.627.217.507.234.394.136.4.161.169.1.2.089.257.048.531.032,1.167-.056.353-.032.62-.016.185-.032.128-.708v-.209l.009-.241.008-.29.024-.217.185-.064.29-.008.941-.008.17-.145.289-.161.121-.048.265-.048.225-.008.25-.008.161-.145.5-.507.136-.024.338.04.475.129.345.1.153.025.121-.049.1-.225.049-.362.185-.434.048-1.177v-.473l-.016-.37-.032-.693.032-.8,1.2-.016.845-.165,1.343-.029.435.081.506.106.579.2.644.11.531.11.458.088.089.206.016.961.25.128.378.257.619.444.371.241.433.228,1.022.212,1.175-.014.925-.231.41-.084.177-.183.121-.222.37.116,1.014.558.5.426-.016.6-.024.981.676.217.756.161.9.338.378.676-.105,1.5v.942l.8.861,1.286.322,1.143.515.836.442.677-.548,1.1-.925,4.015-1.336,1.159-.491,1.023-.024.852-.065,1.166-.33,1.3.177.265.354v.37l.024.716.265.306.419.233,1.158.411.539.531.451.378.836.3,1.344.306,1.127.153.072.5.145.82.185.692.016.523-.177.466-.282.515-.926,1.352-.515.7-.362.354-.3.169-.418.081-.66.2-.844,1.368-.016.1-.3-.193-.893-.813-.62-.531-.25-.354-.113-1.183-.732-.072-1.392.024-1.609.225-1.569,1.77-.434.378-.314.225-.379-.008-.579-.1-.8-.29-1.095-.338-.877.024-.755.523-1.28,1.488-.66.885-.885,1.071,1.151,1.327.241.539.274.539v.789l-.1.78-.538.386-1.577.3-1.207.024-1.118-.08-1.006-.056-.821-.1-.756-.193-.717-.144-.338.161.226.394.386.386.853.152.474.258.04.241-.25.257-.482.048-.371.169-.684.442-.555.644-.764.877" transform="translate(-1733.859 -995.759)"  stroke="#fff" stroke-linecap="square" stroke-linejoin="bevel" stroke-width="1" fill-rule="evenodd"/>
      <text id="174" transform="translate(10.95 15.444)" fill="#fff" font-size="13"  font-family="OpenSans-Bold, Open Sans" font-weight="700"><tspan x="-10.394" y="0"></tspan></text>
    </g>
    <g id="_187_Nanded" data-name="187 Nanded" transform="translate(353.822 1770.556)">
      <path id="talId187" fill="#7DB8EC" title="Nanded" data-name="Nanded" d="M1759.916,1048.8l-.194.845-.2.892-.129.306-.241.289-.684-.081-.619-.41-.451-.056-.266.185-.225.354-.113.233-.379.024-.482-.088.008-.491.184-.571.017-.66-.217-.459-.484-.523-.418-.377-.628-.362-1.32.048-.78.314-.379.346-.37.168-2-.177-1.15-.385-.531-.266.184-.973-.209-.45-1.907-.121-.708.113-.266.362-.234.395-.233.257-.41.612-.137.949-.056.868.056.645-.08.491-.483-.033-.419-.209-.467-.08-.458.072-.5.008-.41-.047-.1-.692-.137-.788-.121-.547-.1-.281-.426-.073-.651-.2-.934-.025-.41.169-.411.3-.611.282-1.054.072-.8.073-.6.129-.652.177-.62.145-.322-.064-.208-.668-.016-.459-.032-.531-.25-.29-.435-.37-.724-.281-.419-.009-.562.145-.6.113-.724.056-1.537-.1-.8.121-.347.321-1.109.08-1.207.073-.708.161-.668.443-.458-.168-.185-.451-.04-1.5.121-.555-.363-.419-.378-.45-.25-.217-.152-.378-.3-.458-.828-.08-.314.185-.652.515-.427.233-.4.081-.009-.129-.08-.515-.04-.676-.008-.347.192-.5.105-.185.089-.161.185-.185.394-.289.1-.064.137-.008.16.008.161.032.307.136.121.1.184.241.242-.1.241-.378.209-.209.056-.282.081-.861.129-.04.161-.008.21.041.208.129.249.024.25-.008.266-.025.233-.088.1-.193.129-.764.145-.169.113-.185.12-.273.008-.434v-.6l-.008-.386-.225-.708.057-.965-.049-.652.008-.475-.185-.273-.853-.234-.249-.1-.386-.089-.362-.12-.274-.113-.057-.241.008-.25.072-.249.1-.225.048-.861.024-.33-.088-.362-.016-.273.169-.628.161-.571.321-.885-.088-.451-.089-.467-.242-.8-.193-.346-.2-.209-.145-.346-.1-.78.136-.741.273-.861.073-.193-.008-.443.169-.668.193-.3.442-.346.66-.217.475-.177.386-.137.089-.789-.031-.313v-.217l.055-.145.29-.032.17.015.41.025.378.032.362-.04.072-.692-.024-.467-.024-.338.008-.354.386-.3.693-.571.547-.813.466-.483.539-.821.29-.427.193-.29.837.008,1.127-.024.62.065.362-.032.708.089.765.048,2.526.032.45.121.4.112.515-.217.507-.314,1.593-.04,1.858-.153-.015,1.826.064.588.386.289.651.161,1.078.128.733-.032.08.6-.057.426-.169.4-.25.684-.144.676.1.8-.065.861-.218,1.633.04.194-.112.394-.281.378-.088.41.192.451.242.474.588.169.474-.354.508-.049.441.419.587.788.161.861.588.636.612-.314.579-.024.531.2.289.418.386.708.306.088.37.057.354-.024.313.032.378.1.418.217.354.321.538.145.483-.073.443-.49.8-.483.338.113.186.362.055.7.209.37.41.29.474-.032.531-.515.957.893.033.29.563.474,1.062.322.981.338.531.257.048.571-.016.765-.418,1.182.161.732.322.378.346.306.274.419-.122.5-.177.555-.089.579.032.564.217.491.113.474-.193.419-.321.523-.724.54-.893.949-.41.587-.274.524-.386.989-.427,1.336-.2.8.113.749.659.531,1.593.442.893.345.33.178" transform="translate(-1718.078 -1013.819)"  stroke="#fff" stroke-linecap="square" stroke-linejoin="bevel" stroke-width="1" fill-rule="evenodd"/>
      <text id="187" transform="translate(10.525 22.86)" fill="#fff" font-size="13"  font-family="OpenSans-Bold, Open Sans" font-weight="700"><tspan x="-8.809" y="0"></tspan></text>
    </g>
    <g id="_184_Mudkhed" data-name="184 Mudkhed" transform="translate(391.013 1772.7)">
      <path id="talId184" fill="#7DB8EC" title="Mudkhed" data-name="Mudkhed" d="M1764.389,1030.284l.764-.877.556-.644.683-.442.37-.169.482-.048.25-.257-.041-.242-.474-.257-.854-.153-.385-.386-.225-.394.338-.161.716.145.756.193.821.1,1.006.057,1.119.08,1.206-.024,1.577-.3.539-.386.1-.78v-.789l-.273-.539-.242-.539-1.15-1.327.884-1.07.66-.885,1.28-1.489.756-.523.877-.024,1.094.338.8.289.58.1.378.008.313-.225.435-.378,1.569-1.77,1.609-.225,1.391-.024.733.072.112,1.183.25.354.62.531.892.812.3.193-.057.314.089.749.04.523.112.435.217.337.274.757.064.756-.161.612-.217.362-.33.451-.266.458-.121.25.363.966.112.9.242.781.282.636.032.627.459.225.635-.048.338-.008.6-.217.426-.1.307.185.288.386,1.078,1.078,2.785.177,1.882.048,1.345.394.459,1.464-.016.982-.032,1.014.329.692,1.11.82,1.529,1.513.532.121-.379.515-.908,1.037-.877.991-.6.965-.25.788-.313.635-.337.306-.507-.12-.885-.515-.772-.386-.7-.2-.62.169-.652.338-1.222.339-.643.064-.539-.008-.724.032-.169.37-.025.548-.033.748.049.58-.224.386-.37.25-.748.611-.435.861-.12.853.056.644.145.354.305.492.949.973.451.394.145.435-.242.394-.361.257-.612.467-.185.3-.185.322-.056.579-.032.644v.563l-.081.522-.323.266-.362-.226-.41-.217-.37-.048-.41.121-.427.152-.346.386-.554.974-.379.837-.1.6-.089.788-.587,1.794-.266.668-1.07.1-.869-.025-.765-.145-.515-.137-.58-.145-.667-.724-.458-.957-.362-.7-.305-.628-.226-.4-.249-.385-.419-.339-1.03-.925-1.191-.78-.8-.451-.764-.37-1.151-.547-1.061-.491-.725-.354-.506-.314-.3-.386-.185-.579-.474-1.175-.467-.749-.587-.611-.258-.145-.33-.177-.893-.346-1.593-.442-.66-.532-.112-.748.2-.8.427-1.335.386-.99.274-.523.409-.587.894-.95.723-.538.323-.524.193-.418-.113-.475-.216-.491-.032-.563.088-.579.177-.555.121-.5-.274-.418-.346-.306-.322-.378-.161-.732.418-1.182.016-.765-.049-.571-.53-.258-.982-.338-1.062-.322-.562-.474-.033-.29-.957-.893" transform="translate(-1764.389 -1016.26)"  stroke="#fff" stroke-linecap="square" stroke-linejoin="bevel" stroke-width="1" fill-rule="evenodd"/>
      <text id="184" transform="translate(8.332 23.715)" fill="#fff" font-size="13"  font-family="OpenSans-Bold, Open Sans" font-weight="700"><tspan x="-10.569" y="0"></tspan></text>
    </g>
    <g id="_188_Umri" data-name="188 Umri" transform="translate(411.507 1793.928)">
      <path id="talId188" fill="#7DB8EC" title="Umri" data-name="Umri" d="M1789.939,1066.815l.266-.668.587-1.793.089-.789.1-.6.378-.836.555-.974.346-.386.427-.153.41-.121.37.048.411.217.363.226.321-.266.08-.523v-.562l.032-.644.057-.579.185-.322.186-.3.611-.466.363-.257.241-.394-.144-.434-.451-.395-.95-.974-.3-.491-.146-.354-.056-.644.121-.853.435-.861.748-.612.37-.249.225-.386-.047-.579.031-.749.025-.547.169-.37.724-.032.539.009.643-.064,1.224-.338.652-.337.619-.17.7.2.773.386.885.516.507.12.338-.306.314-.635.25-.788.6-.966.877-.989.909-1.038.378-.515.258.04,1.085-.266,1.127-.048.812-.2.515.032-.016.507-.25.692-.225.628-.057.836-.1.677.676.5.475-.482.539-.282.532.162.537.5.6.885.338.555.216.716.178.475.37.395.434.072.8-.29.5-.137.957.339,1.03.708,1.714.129,1.272-.354,2.422-1.392.587-.716.314-.5.249-.458.555-.024,1.593.467-.056,1.142-.129.893-.088,1.135.747.353,3.4.1.628.386.282,1.409.289.82-.041.732,1.175-.032,1.586-.039.732-.1.7-.95.6-1.487.451-.556,3.081-.861.957-.153.379.049.829.434-.064.049-.057.032-.081.048-.048.024-.111.057-.226.128-.081.056-.1.056-.024.024-.015.032-.04.065-.1.193-.008.032-.016.032-.057.153-.048.121-.008.057-.024.064.057.1.023.056.08.129-.016.145v.226l.007.1-.007.089.007.081v.064l-.016.081-.024.064-.048.161-.008.064-.008.032v.04l-.057.2-.016.032v.1l-.007.1.024.056.016.057v.04l-.008.064v.081l-.008.016.024.049-.007.161v.024l-.008.023-.04.129-.057.217-.016.024-.032.4v.041l-.048.209-.016.065-.032.016-.016.017-.024.128-.017.081-.1.185v.024l-.144.048-.146.056-.016.008-.395.064-.008.121-.024.145-.008.016-.016.057-.008.032-.048.113.048.056-.016.144-.008.032.064.161h.064l.048.081.017.032.008.032.024.016.015.008.121.12.008.008.008.024.128.185.017.024.04.008-.008.057-.007.024-.009.048-.008.048v.048l.008.024-.023.1-.017.072-.008.016-.016.056-.033.129.008.177-.041.121-.008.04.016.016v.073l.024.137.008.024-.008.04.017.016v.009l.016.024v.032l.048.209.016.073.024.056.009.04.064.266.008.1.008.064-.008.088-.008.17-.007.113v.354h-.016l-.194-.049-.04-.008-.032-.008-.234-.04-.041-.008-.024-.008-.1-.016-.088-.032-.137-.024-.032-.016-.032-.008-.241-.128-.1-.016-.145-.121-.081.024-.048-.016-.024-.008h-.024l-.121-.04-.121-.048-.088-.024h-.032l-.04-.016-.064-.025-.232-.032-.032-.016-.032-.008-.137-.048h-.234l-.08-.016-.088-.025h-.025l-.04-.016-.233-.081-.482.081-.507-.089-.024-.009-.025-.024-.224-.282-.3-.265-.113-.145-.032-.032-.025-.008-.33-.08-.023-.008-.024-.024-.282-.25-.265-.226-.023-.015v.024l-.056.274-.008.048-.041.282v.072l.008.257v.024l.008.024.016.129v.072l.025.145.008.032v.25l.007.032-.016.041-.065.217v.032l-.008.024-.056.306-.081.539.008.225.017.08v.153l.016.145-.041.145-.016.056-.033.056-.023.072-.081.258v.04l-.032.129.008.024-.145.539-.088.032-.024.017.008.04.007.129v.016l.009.032v.056l.008.024v.032l.015.153v.032h-.16l-1.514-.1-.595-.177-.757-.129-.483.129-.346.451-.474.491-.442-.081-.813-.41-1.159-.274-.523.265-1.3.258-1.473-.089-.217.515-.475.426-.418.313-.708.218-.523.056-.853-.08-.676-.322-.563-.081-.266.443-.13.772.009,1.456-.056,2.261-.233,1.779-.37,1.48-.154,1.384.049.732.82.33.6.25,1.111.386,1.151.595.129,2.068-.048,1.319-.064.29-.314.2-.411-.1-.755-.225-.757-.419-.773-.547-.482-.7-.387.153-.161,1.28-.1.644-.048.732.176.651.669.467,1.03.925.176.515-.008.539-.153.724-.3,1.078-.225,1.416-.466.1-.725-.153-.41-.37-.684-.66-1.995-1.311-.362-.089-.644-.1-.62-.08-.338-.194-.3-.395-.234-.45.032-.451.193-.378.4-.241.483-.056.217-.314-.016-.515-.435-.668-1.456-1.706-.748-.683-.813-.716-.627-.048-.434.225-.242.354-.466.491-.386-.072-.274.1-.281.3-.346.435-.3.628-.25.611-.289.29-.346-.451-.3-.6-.378-.732-.144-1.151-.169-2.389-.314-1.151-.8-1.207-1.561-1.866-1.135-.91-1.247-.788-1.006-.467-.37-.209-.675-.088-.636.1-.362.258-.491.306-.6.321-.659.016-.611-.346-.467-.507-1.142-1.336-.491-.78-.491-.451-.562-.209-1.039-.089-1.134.048" transform="translate(-1789.939 -1042.75)"  stroke="#fff" stroke-linecap="square" stroke-linejoin="bevel" stroke-width="1" fill-rule="evenodd"/>
      <text id="188" transform="translate(10.839 19.487)" fill="#fff" font-size="13"  font-family="OpenSans-Bold, Open Sans" font-weight="700"><tspan x="-5.345" y="0"></tspan></text>
    </g>
    <g id="_178_Dharmabad" data-name="178 Dharmabad" transform="translate(440.17 1814.042)">
      <path id="talId178" fill="#7DB8EC" title="Dharmabad" data-name="Dharmabad" d="M1830.542,1093.257l-.821-.8-.765-.056-.788.177-.893.281-.458-.354.225-1.416.3-1.078.152-.725.009-.539-.177-.515-1.03-.925-.668-.467-.177-.652.049-.732.1-.644.16-1.279.386-.152.483.7.772.547.757.418.757.225.41.1.314-.2.065-.29.049-1.32-.13-2.068-1.15-.6-1.111-.386-.595-.249-.821-.33-.048-.732.152-1.384.37-1.48.234-1.778.056-2.261-.007-1.456.129-.773.265-.442.563.08.676.322.853.08.524-.057.708-.217.418-.313.475-.427.217-.515,1.473.089,1.3-.257.524-.266,1.159.274.812.41.442.08.475-.49.345-.451.483-.129.756.129.6.177,1.513.1-.009.024-.024.2-.007.032h.04l.176-.016.041-.008h.024l.008.033.1.192.016.024.024.081.048.185.008.04.048.081.1.169.161.242.024.161.017.2v.064l.057.08.015.032.033.04.25.257.032-.008h.145l.129.032h.024l.031.016-.055.113-.017.233-.024.209.04.225.008.032.008.032.024.129v.032l.008.145.008.057.025.1v.032l.008.033.056.353.008.065.008.024v.024l.009.089-.009.249v.024l-.04-.016v.032l.016.073.033.032.007.024h-.032v.032l.008.25.008.209.009.185.007.024.024.008.064.032.024.016-.04.113-.008.032-.016.033-.024.015.04.016.048.016.024.016.008.016.049.081.072.112.057.056.1.113.04.1.024.065.023.024v.072l.009.048.008.073.008.032v.032l-.016.153v.024l-.057.169.016.081.008.04.007.048-.048.274.032.016v.1l-.008.04-.008.081-.008.185-.016.2-.008.016-.008.048-.032.089v.016l-.057.161-.025.137v.024l.008.024v.056l-.008.024-.008.065-.008.032-.048.265-.049.153-.008.032v.032l-.017.153-.007.024.056.04-.009.024-.047.153-.017.1-.016.064-.016.072-.008.024-.024.12-.008.032h.032l.371.145.088.032.4.169.024.016.04.024.12.081.017.016.031.016.322.153.049.024.185.1.145.024.032.008.049.024.184.089.041.015.032.008.217.1.025.008.307.12.04-.08.016-.033.033-.056.121.016.008-.024.073-.136.1-.169.015-.032.017-.041.064-.241.088-.411.008-.04.016-.056v-.039l.057-.21.04-.233.009-.04.031.009.089.024h.185l.04.008h.024l.3-.008.563.048h.04l.3.024.225.008h.032l.04.008.217.016.322.064.081.032.033.008.055.025.193.032.033.008.265.057h.024l.025.008.152.025.048.032.17.008.161.057.1.015.266.048.032.024.377.048h.032l.387.064.032.008.1.016.032.008.064.362-.12.386-.064.249v.25l-.009.314-.032.145-.016.1-.073.305-.056.177-.08.314-.023.153-.033.306-.048.177-.161.346-.031.081-.04.056-.041.1-.032.055.192.113.008.064.177.137.112.032.073.024.088.1-.008.024-.015.065-.05.113-.032.1-.031.121-.049.088-.088.186-.088.153-.057.113-.081.2-.072.161-.016.032.025.016.071.048.1.024.057.008h.1l.048.12.016.024.161.024.048.008.306.1.185.064.273.1-.008.024.024.008.048.016.121.041.024.008.024.009.088.048.025.007.024.008.1.04.105.032.1.065.055.04h.025l.048.008.2.048.121.024.185.04.008-.032.008-.015.016-.016.064-.112.049-.081.04-.072.056-.1.048-.113.041-.072.023-.04.033-.049.041-.081.016-.016.056-.073.032-.057.056-.072.017.009.064-.049.064-.057.016.016.266-.12.064-.031.169-.088.033-.008.217-.089.1-.016.161-.073.217-.007.185.024.089.016h.121l.031.008.17.024.241.024.193-.008h.37l.121.008h.177l.064.049h.024l.024.008.153.048.032.008.1.048.017-.008.023-.008.033-.008.144.024.024-.008.137.024.024.008-.032.128h-.007l-.048.177-.057.185-.073.282-.063.153-.056.177-.113.281-.073.193-.1.258-.089.242-.072.217-.065.209-.065.185-.064.233-.032.089-.04.226-.032.161-.04.112-.009.065-.016.1-.064.177-.033.194-.081.007-.087-.056-.089-.064-.073-.048-.128-.088-.025-.033-.016.04-.025.048-.04.121-.007.032v.032l-.025.073-.009.024-.007.024-.016.056-.04.137-.049.177-.073.257-.007.024-.008.024-.17.6-.016.064-.008.016-.016.065-.024.072-.008.025-.008.024-.057.225-.008.024-.024.1-.016.04-.033.1-.056.17-.048.129-.008.032-.008.024-.008.024-.016.08-.032.073.017.136-.008.225v.032l.032.008.072.041.144.064.121.073.129.08.161.072.1.048.016.008.025.008.08.048.032.016.08.064.209.153.024.033.113.1.1.089.033.032.031-.016.073-.04.048-.04.209.048.668.136.386.081.032.008.33.016.153-.024.16-.016.266-.121.169-.064.314-.08.307.04.144.024.216.08.081-.008.04-.1.2-.483.016-.049.008-.04v-.056l.016.016.177.04.6.145.547.185.579.177-.033.1-.04.129-.008.024-.1.676v.024l.016.008.233.2.025.008-.048.475-.008.024.024.008h.08l.033.008.008.024.008.04.024.089v.04l.048.266.177.185.064.129.016.016h.032l.024.008.041.016h.008l.008.1v.024l.008.024.088.3.008.024-.056.024v.008l.008.032.1.217.2.78.016.025.2.016.828.073h.032l.017-.008.363.032h.032l.016.008.5.049.025.008.088-.008-.008.153-.024.266v.024l-.017.048-.024.209-.023.265-.017.29-.007.025v.129l.007.16v.193l-.007.024-.008.177v.024l.024.129.016.088.033.193-.017.306.266.016h.023l.073.024.113.016.178.032.024-.008.306.024.651.041-.016.692,1.037.064.435.024.595.024-.016.025.217.072.121.072.04.024.29.1h.017l.121.056-.008.145-.017.177-.032.217v.024l-.008.016-.008.112-.008.121-.016.1v.032l.321.088h.033l.007.008.266.057.024.008.113.024.145.032.024.008h.024l.08.016.322.065.032.016-.057.129-.008.024-.1.218-.048.024-.064.1-.113.218.008.185v.313l.041.009.338.056h.024l.065.008.209.032h.016l.233.032-.008.04h.048l.564.081.225.016.1.016v.008l.2.04.144.024.145,1.417.016.3.024.274.008.177-.072.378-.274.346-.208.161-.113.081-.073.056-.1.08-.579.2-.5.12-.6.161-1.038.016-.619-.177-1.207-.451-1.119-.1-1.037.072-5.294,1.875-.587-.04-.563.667-.652.491-.6.306-.594.024-.37-.153-.234.041-.266-.877.129-.8-2.4-1.657-1.616-1.247-3.058-.105-.772-.313-.411-.362-.764-.185-.507.314.032.917-1.729.032-1.167.032-1.215-.161-1.272-.161-.506-.337-.056-1.038.417-2.905.024-.957.234-.9-1.4.193-1,.12-.708.145-.876.057h-.8l-.9-.241-.7-.411-1.159-.193-1.722-.362-.4-.322-.443-.491-.314-.539-.194-.628-.322-.764-.345-.781-.3-.627" transform="translate(-1825.449 -1067.84)"  stroke="#fff" stroke-linecap="square" stroke-linejoin="bevel" stroke-width="1" fill-rule="evenodd"/>
      <text id="178" transform="translate(7.176 23.374)" fill="#fff" font-size="13"  font-family="OpenSans-Bold, Open Sans" font-weight="700"><tspan x="-12.948" y="0"></tspan></text>
    </g>
    <g id="_176_Biloli" data-name="176 Biloli" transform="translate(416.225 1839.608)">
      <path id="talId176" fill="#7DB8EC" title="Biloli" data-name="Biloli" d="M1824.76,1099.43l.3.627.346.78.322.765.193.627.314.539.442.491.4.322,1.722.362,1.158.193.7.411.9.241h.8l.878-.056.707-.145,1-.12,1.4-.194-.234.9-.023.957-.418,2.9.056,1.037.507.338,1.271.161,1.215.16,1.167-.032,1.729-.032-.032-.917.507-.314.764.186.411.361.771.315,3.059.1,1.617,1.248,2.4,1.657-.128.8.266.877-.145.016-.435.306-1.167.137-.619.443-.032.628.048.683-.692.611-.322.6-.338,1.368-.8,1.954-2.277,5.294-1.577,2.816-.016,2.2-.3,1.062-.757.6-.193.659-.208.925-.331.1-.5.169-.089.844.129.443-.169.08-.322.724-.072.057-.016.1-1.087-.289-.563-.154-.152-.2-.411-.314-.281-.113.056-.3-.072-.113.154-1.182-.065-.169-.073-.587-.145-.257-.186-.137-.523-.337-.427-.161-.78-.145-.853.724-.555.459-.25,2.14-.531.957-2.229,1.376-.965,1.987-.386-.056-.371.032-.37.024-.322-.032-.442-.08-.5-.153-.82-.025-.837.33-.378.121-.218.089-.048.234.04.281.178.241.224.218.137.273-.032.371-.031.241-.161.306-.3.1-.249.032-.475.1-.419.234-.595.442-.185.073-.322.024-.274-.024-.168-.057-.129-.145-.1-.313-.137-.3-.161-.323-.12-.233-.193-.289-.266-.282-.233-.177-.33-.193-.475-.04-.314.056-.305.153-.161.193-.113.273.033.185.186.177.185.089.008.257-.225.419-.233.265-.394-.065-.29-.233-.788-.4-.25-.016-.314.121-.369.266-.29-.008-.249-.274-.371-.483-.169-.377-.208-.475-.379-.024-.282.274-.442.651-.241.338-.362.241-.426.153-.5.169-.4.418-.113.676.274.434-.258.363-.562-.048-.668-.17-1.126-1.038-.234-.306-.3-.362-.37-.2-.4-.025-.5-.048-.62-.064-.563-.2-1.014-.274-.451-.3-.539-.418-.8-.644-.6-.547-1.142-.692-.82-.853-1.312-1.569-.322-.362-.554-.531-.307-.411-.225-.676-.2-.676-.1-.7-.29-.749-.12-.748-.129-.531-.531-.411-.965-.185-.765-.531-.491-.032.25-.6.612-.644.546-1,.6-.86.345-.611.33-.58.434-.764.234-.322.3.217.394.619.378.339.531.2h.66l.6-.049.394-.281.169-.475-.065-.395-.032-.5.088-.539.2-.45.193-.346.137-.314.121-.917-.273-.7-.483-.289-.966-.234-.8.041-.483.3-.8.2-.684.017-.523-.073-.378-.113-.112-.474-.041-.612-.121-.514-.145-1.344.177-.7.756-.6.5-.49.433-.459.411-1.328.627-.917.3-.411.161-.667.016-.637-.024-1.005.137-.764.547-.322.894.209,1.013.225.942.29.82.249,1.369.652.909.137.58-.056.257-.37-.112-.474-.113-.443-.057-.716.064-.361.273-.339.467-.273,1.922-1.142.861-.378.62-.58.169-.354.024-.764.45-3.05.482-1.32.87-.957.8-.467.909.217,1.158.354.909.338.788.612,1.328.136,1.36-.209,1.247-1.054.869-.781,1.183-1.11" transform="translate(-1795.859 -1099.43)"  stroke="#fff" stroke-linecap="square" stroke-linejoin="bevel" stroke-width="1" fill-rule="evenodd"/>
      <text id="176" transform="translate(27.121 24.808)" fill="#fff" font-size="13"  font-family="OpenSans-Bold, Open Sans" font-weight="700"><tspan x="-5.32" y="0"></tspan></text>
    </g>
    <g id="_177_Deglur" data-name="177 Deglur" transform="translate(387.028 1879.563)">
      <path id="talId177" fill="#7DB8EC" title="Deglur" data-name="Deglur" d="M1795.088,1149.449l.821.852,1.142.692.595.547.806.644.539.418.451.3,1.013.274.562.2.62.064.5.049.4.024.37.2.3.362.234.306,1.126,1.038.669.169.563.048.257-.362-.274-.435.113-.676.4-.418.5-.17.427-.152.362-.242.241-.338.443-.651.281-.274.378.024.21.474.168.378.37.483.25.274.289.008.371-.266.314-.121.25.016.788.4.29.233.393.064.234-.266.226-.418-.008-.258-.186-.088-.185-.177-.031-.186.112-.273.162-.193.306-.153.313-.056.475.04.331.193.233.177.265.281.193.29.121.234.161.322.137.3.105.315.128.145.169.056.273.025.322-.025.186-.072.594-.443.419-.232.474-.1.249-.032.3-.1.16-.306.033-.242.032-.37-.137-.274-.224-.217-.178-.242-.04-.281.048-.233.218-.088.378-.121.837-.33.82.024.5.153.442.081.322.032.37-.024.37-.032.386.057.29,2.5.1,1.191.474.635.62,1,.515,1.159.1.209.4.306.186.442.121.322-.016.339.056.378.08.305-.056.515.1.829-.008.723.184.781.314,1.071.073.8-.491.58-.257.458-.17.435-.04.748-.073.186-.5.274-.146,1.352-.337.442-.032.58.161,1-.121.057h-.161l-.08.008-.129.049-.193.064-.345.129-.829.241-.024-.024-.1.08-.008-.064h-.072l-.128.032-.234.032-.024.016-.081-.008-.144.04h-.12v-.056l-.129.016-.081-.008-.668-.2-.41-.257-.161-.1-.379-.177.008-.016.009-.016.016-.024.1-.2.008-.032.016-.024.057-.137.008-.024.024-.024.055-.073.041-.168-.008-.177v-.04l-.016-.033-.009-.024-.031-.072-.153-.08-.024-.016h-.024l-.145-.048-.1-.04-.049-.024-.064-.024-.032-.016-.024-.016-.04-.008-.217-.04-.057.016-.048.025-.064.032-.1.04-.024.016-.024.024-.29.3-.016.008-.024.016-.04.04-.024.024-.443.49-.024.032-.024.024-.186.193-.007.041-.017.024-.023.016-.048.04-.177.1-.2.049h-.032l-.033.008-.168.04h-.032l-.1.024-.081.032-.129.025-.314-.025-.04.033-.089.113-.016.064-.016.064.008.032.024.129.025.081.055.112.218.29.12.169-.643.483-.378.233-.234.057-.29-.064-.427-.129-.281.072-.273.169-.242.113-.16.129-.547.458-.161.161-.121.04-.242.145-.016.032-.137.1-.241.121-.346.217-.378.346-.145.322-.145.145-.185.04-.218-.073h-.152l-.266.145-.274.1-.144-.024-.177-.056-.177-.089-.282-.217-.1-.113-.04-.081-.088-.2-.113-.282.161-.153.089-.088.04-.161.008-.25-.1-.056-.153.008h-.016v-.032l.041-.224.007-.024.009-.024.057-.169.016-.032.008-.024.1-.266.008-.024v-.008l.081-.234v-.008l.016-.04.1-.354v-.016l.009-.024.025-.169.007-.016v-.016l.032-.161-.008-.008-.459-.145-.016-.008-.137-.04-.1-.04-.008-.016-.016-.25v-.176h-.113l-.032-.008h-.033l-.393-.016-.121-.016-.032.008h-.048l-.073-.016h-.3l-.016.008-.008.016-.04.185h-.016l-.145-.008h-.024l-.008.024-.04.161v.016l-.008.016-.088.209-.008.024-.009.016-.04.136-.008.009-.009.024-.008.016-.025.056-.008.016-.008.024-.064.121-.1.265-.016.016-.008.016-.1.225-.016.032-.169.3-.016.024-.017.016-.016.024-.057.145-.008.032-.015.025-.008.04-.04.145-.145-.113-.168-.121-.1-.185-.16-.177-.226-.161.017-.144-.024-.161-.024-.29-.008-.169-.056-.145-.081-.04-.177-.048-.089.065-.257-.016-.588.128-.145.049-.4-.017-.467.017-.33.024-.418.145-.122.016-.04-.008-.088.024h-.186l-.041-.008-.04-.024-.08.008-.024-.008-.048-.008-.089-.016h-.057l-.112-.016-.193-.016-.033-.016-.04.016-.216-.016-.073.024h-.024l-.04.016-.242.041-.04-.008-.032.016h-.113l-.168.033-.113.016-.088.016-.025.009-.04.016-.177.04-.008.032-.049.475v.08l-.008.032-.033.08.009.121-.016.08v.033l-.009.1.009.169-.017.177v.072l.008.073-.031.113h.031l.041.008h.04l.016.024.008.033-.016.1-.008.072-.032.29-.049.177-.008.024h-.024l-.025-.008-.016.048-.072.04-.145.1-.169.1-.048.032-.008.041-.025.032-.015.016-.033.217-.056.065-.008.04.033.032-.049.129-.04.113h-.049l-.032.112-.355-.08-.112.522-.041.193.2.049.153.024h.1l.1.016.041-.112.418.024.025-.04.031-.209.153-.217h.024l.346.064.04.016.266.1.105.1.008.016v.032l-.008.065.008.032.007.136.033.418-.008.257.008.024-.008.032-.057.37v.024l-.024.008-.112.1-.209.209-.057.241-.12.258-.289-.12-.218.193-.177.153-.008.008-.008.024h-.015l-.337.016-.089-.024-.032.065-.024.048-.225-.016-.048.33v.008l-.04.193h-.04l-.176.161-.1.314v.016l-.048.33-.008.024-.072.209.313.193.282.169-.025.025.106.056.1.121.017.024.105.089-.009.024.009.024.024.145.088.024h.024l.016.024h.089l.033.048.128.072.1.017.169.024.008.009.032.008-.008.088v.1l.008.129-.016.145.281-.032.048-.024.024-.008.137-.032h.033l.032.008h.321l.073.024.129-.016h.089l.04-.024h.153l.016.009.169.032-.016.064-.105.177-.056.266v.281l.048.2.024.072.041.129.241.016.145.041.023.048-.016.145-.072.153-.129.523-.08.346-.009.032-.089.29-.048.233.016.041-.009.208.009.08.008.209-.193-.008-.017-.016-.265-.112-.049-.024-.113.032-.017.008-.128.032-.144.04-.049.016-.185.024-.025.008-.145-.048-.1-.024-.064.016-.073-.218-.049-.112-.152-.394-.105-.3-.007-.129.007-.306-.08.016-.209-.04h-.154l-.048.008-.185-.024-.121-.016-.024.008-.177-.04-.185-.032-.354-.129-.153.08-.258.1-.007-.048-.3-.129-.161-.081-.08-.041h-.2l-.12.548-.033.153-.008.129-.024.193-.073.515-.152.04-.049.177-.024.249-.072.3-.025.185.017.547h-.041l-.089.169h-.008l-.024-.016-.048-.024-.032-.008-.024-.024-.1-.065-.161-.024-.04-.008-.024-.008-.121-.008h-.065l-.362.016-.064.008-.04-.016h-.033l-.031-.008-.225-.032-.178-.024-.177-.024-.145-.008-.041.016-.049-.008-.031.137-.016.137-.009.024h-.016l-.233-.016h-.032l-.08-.016-.024-.008v.032l-.041.193-.016.057-.017-.024-.225-.017h-.041l-.04-.024-.081-.016-.217-.009-.185-.056-.064.008h-.057l-.088.008-.209-.024-.161-.016-.089.041-.048.024-.016.016-.016.009-.008.128.008.024-.017.024-.008.032-.008.032h.024l.216.1.081.217.008.2.081.209.016.024v.032l.016.041-.008.024-.048.153-.009.025h.041l.048.016.016.008.008-.024.04-.081.121.024.072-.056.153.016.249.089.121.024h.024l.04-.008.169-.048.065.015.345.072h.072l.064.008h.307l.257-.016.008.024.009.1v.032h.041l.2.016.033.008h.039l.233.031v.073l.145.008.032.008.024-.008.1.016h.072l.233.032.072.008.033.008h.032l.041.016h.024l.016.008.208.032.436.081.45.121.692.2v.008l.193.073v.112l.226.1-.024.089-.065.362-.048.153-.089.274.081.032.346.081h.1l.089.008.128-.008.049.008.338-.016.708-.032.305-.008.033-.008h.29l-.081.234-.048.08-.12.2-.225.411-.274.379-.08-.008-.208-.04-.209-.056-.049-.017h-.016l-.152-.04-.153-.032-.25-.1-.137-.056-.216-.032h-.057l-.1.04h-.032l-.136-.048-.362.032-.355.08-.345.273-.153.113-.909-.12-.218-.048-.023-.008-.065.322-.008.024-.048-.016-.225.257-.169.177-.04.1-.1.072-.113.025-.024.032-.081.088-.016-.088-.29.048-.145-.04-.242-.024-.192-.1-.193-.081-.008-.04-.016-.017-.233-.1-.233-.121-.1-.024-.225-.073-.065-.025.025-.144-.017-.016-.1-.04-.145-.032v-.016l-.016-.016-.137-.08-.023-.065-.1-.024-.024-.008-.1-.016-.024-.008h-.032l-.322-.04-.033-.009-.024-.016-.249-.105-.024-.016-.024-.008-.234-.081h-.023l-.129-.024-.225.016-.233.025-.016-.008h-.129l-.112.016-.016.008-.032.008-.065.016h-.193l-.137.008-.113.056-.153.081-.016.008-.024-.008-.12-.032-.145-.032-.1.274-.122-.024-.136-.032-.2-.057-.024-.008-.048.081-.016.016-.025.016-.047.032-.016.016-.049.121-.008.024-.089.088-.024.1.057.089.072.177.008.008.065.024.193.081.1.04.072.032-.024.129v.024l-.024.153-.008.032-.048.153-.024.064-.024.056-.008.024-.008.048-.032.169-.009.081.009.217-.009.064-.016.073-.007.064-.017.08-.024.21.008.024.025.008.1.025.258.064.025.008.024.008.209.048.016.016h.032l.25.064.024.007.024.009h.016l.024.008h.049l.128.032.033.016.032.009.29.129-.008.12-.016.209v.032l.024.008.1.048.049.025.032.016.113.064.048.016.153.056.1.048.023.016.017.008.2.065.025.008h.024l.128.055v.033l.065.008.137.032.256.008.025.008h.033l.185-.008.041-.064.153.008h.064l.137.032.023.008h.017l.032.008.2.04.024.008h.016l.177.04h.016l.032.04.032.008.113.04.057.008.088.04.04.04.154.024.023.008.025.008.024.016v.032l-.032.314-.057.073-.025.1-.015.1-.008.024h-.016l-.049.008-.008.16-.008.185.112.049v.1h-.04l-.008.041-.04.185-.017.032-.016.04-.072.185-.009.032-.015.032-.042.113-.016.129-.016.032v.032l-.041.145-.112.282-.009.024-.032.088-.048.185-.008.008-.008.049-.017.04-.024.217v.145l.008.153-.081.394-.007.113-.016.177-.008.057.025.224v.1l-.008.032.008.121v.032l-.113.121v.008l.072.137-.12.137-.008-.008-.065-.1-.362.241-.04.024-.136.1-.04.048-.057.064-.129.048-.088.08-.2.064-.088.049-.016.1-.073.008-.1.056-.1-.032-.08-.088-.088-.073-.033-.016-.1.1-.032.065-.024.032-.113.1v.024l-.081.072-.128.137-.064.072-.089.226.008.079-.072.105-.04.1-.1.193-.08.112-.017.065-.024.048-.016.024-.1.041-.056.048h-.113l-.016.008-.081.024-.033.008-.048.04-.12.113-.032.049-.024.016-.056.025v.024l-.016.024-.056.024-.057.072-.073.08-.016.025-.08.088-.025.04-.016.024-.016.016-.088.089-.08.056-.073.065-.073.065-.016.016-.129.072-.081.057-.024.017-.008.024-.064.226v.081l.008.024-.008.024-.031.121-.009.031v.186l-.007.04-.009.089-.008.048-.008.024-.008.024-.016.12-.04.186-.032.145v.073l-.008.032-.049.136-.1.225-.032.04-.031.065-.073.129-.04.064-.065.1-.032.056-.017.016-.023.049-.073.121-.024.04-.089.144-.024.032h-.025l-.233.016h-.033l.033.072.032.089.024.072.057.161.1.209.008.016.007.041v.136l.009.1.016.073-.025.136-.055.242.055.088.032.089.049.161.048.161.008.008.169.1.153.1.193.128.2.136.233.153.057.032.032.016.145.025.089.016.032.008v.016l.025.025.1.112.04.049.008.016.114.121.072.073.152.162.121.136v.386l-.008.209v.282l.008.088.274-.032.282-.032.322-.032.3-.032.225-.024.024-.048.169-.161.08-.064.161-.145.121-.129.821.6.185.137.242.177.112.1.354.048.644.073.257.031.024.008.274.137.081.177.016.057.041.225.04.273.008.025.081.386.008.024.008.016.089.121.056.089.233.515.265.249.186.161.016.016.289.274.016.016.016.04.024.153.017.016.129.121.007.016.2.113.056.1.233.113.009.064-.009.129v.016l-.007.024-.057.258-.016.048-.048.611v.1l.024.041.122.266.032.032-.016.032-.016.1h-.089l-.113.032-.209.016h-.032l-.048-.008-.073-.016h-.04l-.04-.008-.041-.008-.04-.008h-.032l-.04-.008-.089-.016-.04-.008-.032-.008h-.322l-.088-.008h-.024l-.041.008-.031-.016L1795,1216l-.088-.016-.073-.016-.145-.032-.033-.008-.024-.008-.194-.073-.048-.016h-.233l-.281-.048-.089-.032-.025-.008-.048.072-.072.129-.081.121-.008.033-.129.345v.016l-.017.032-.064.1-.033.064-.072.1-.072.089-.073.064-.056.049-.024.016-.016.016-.106.081-.031.048-.145.193-.065.193-.007.024-.154.12-.031.081-.009.024v.032l-.016.024-.056.2v.024l-.024.064-.91-.339-.692-.177-.781-.555-.49-.265-1.014-1.046-.306-.37-.4-.282-.289-.1-.813-.145-.515.008-.289.209-.194.3-.144.234.08.395.233.812.225.419.1,1.271-.137.925-.637.563-.506.564-.491.153-.667.057-.282.241-.249.249-.193.33-.282.507-.217.081-.4-.161-.346-.121-.329-.1-.4-.081-.37.041-.314.185-.458.765-.724.475-.958.169-.531-.1-.893-.467-.668-.153-.386-.178-.3-.185-.185-.193-.193-.282-.1-.225-.128-.33-.017-.362v-.25l-.057-.386-.04-.563-.394-.1-.314-.008-.355-.1-.313-1.223-.16-.668.04-.845.08-.675.024-.724v-.54l-.306-.177-.74-.225-.4-.032-.193.265-.186.322-.5.266-.612.057-.877.345-.443.378-.482.146-.523-.1-.475-.129-.4-.081-.5-.008-.667-.1-.837-.257-.587-.322-.523-.185-.523-.08-.531.008-1.062.121-.861-.008-.6-.394-.363-.474-.209-.257-.209-.4-.1-.305.057-.193.659-.354.419-.153.538-.225.371-.145.314-.289.417-.692.234-.41.467.056.354-.088.113-.483.04-.652.21-.5.33-.1.547-.048.483.016.418-.072.322-.362.2-.394.587-.113.169-.748-.064-.933-.218-.579-.281-.588-.169-.45-.1-.435.282-.282.6-.305.58-.338.6-.338.394-.378.289-.531.121-.266.281-1.07v-.732l-.072-.161.588-.29.3-.233.322-.709.572-.539,1-1.335.62-.354.556-.056.877.1.731-.1.355-.322v-.531l.056-.322.241-.458.233-.379.378-.411.322-.6-.072-1.819.692-.072.039-.467-.112-.563-.314-.41-.346-.483-.355-.571.033-.555.732-.941-.884-.571-.073-.37.049-.451-.161-.531-.579-.837.579-.66.772-.088.443-.362.265-.6.016-.62-.169-.45-.66-.29-.081-.547.161-2.655.161-1.32.088-1.086.08-1.014.08-.845.346-.1.411.1.4.41.45.451.515.177.427-.338.016-.628.233-.426.467-.234.643-.313.516-.161.659.177.225-.426-.048-.7.338-1.553.322-.531.442-.644.749-.338.8.145.515-.307.282-.635-1.1-2.084-.145-.411-.426-.555-.266.072-.338.354-.395.459-.353.185-.249-.177-.041-.483.25-.483.433-.442.355-.435.2-.571.08-.709.322-.949.16-1.408.106-.8.74-.378,2.494-.088,1.03.233.965.282.942-.032.57-.716.547-.314.587-.483.25-.853.04-1.005-.781-2.293-.893-.909v-.426l.176-.539.427-1.248.628-.6.571-.177.973-.41.893-.177,1.014-.177" transform="translate(-1759.59 -1149.449)"  stroke="#fff" stroke-linecap="square" stroke-linejoin="bevel" stroke-width="1" fill-rule="evenodd"/>
      <text id="177" transform="translate(32.318 15.853)" fill="#fff" font-size="13"  font-family="OpenSans-Bold, Open Sans" font-weight="700"><tspan x="-7.422" y="0"></tspan></text>
    </g>
    <g id="_182_Loha" data-name="182 Loha" transform="translate(314.318 1800.259)">
      <path id="talId182" fill="#7DB8EC" title="Loha" data-name="Loha" d="M1760.482,1064.627l-.41.467-1,1.095-.466.37-.193.547-.04.547.056,1.119-.354,2.422-.314,1.956-1.086.072-1.022.072-.643.1-.909.169-.273.314-.073.41.089,4.827-.411,1.1-.088.7.016.917.3,1.32.322.748.5.571.217.982-.611.442-.813.161-1.5-.241-.918-.185-.475-.065-.466-.04-.161-.145-.3-.443-.072-1.014.072-.716-.539.362-.466.547-.443.338-.515.072-2.2-.144-.37-.636-.5-.1-.587.25-.282.073-.144-.162-.25-.514-.321-.515-.629-.53-.635-.628-.5-.458-.169-1.078-.154-.926-.144-.78-.588-2.535-.627-1.424-.91-.644-.724-.064-1.11.338-.764.314-.555.337-.458-.385-.25-.861.089-.764.177-.708-.016-1.086-1.039-.128-.957.161-1.569,1.118-2.245,1.714.764,1.191-.893.933-.8.749-.435.394-.909.821-.1.8-.6,1.979-.5.354-.2.821-.177.6-.619.145-.556-.305-.426-1.062-.466-.427-.355-.579.411-.547.554-.443.088-.667-.642-.153-.821.176-.748.338-.789.3-1.578.289-1.231.54-1.054.369-.836.355-.645-.073-.659-.8-.443-.5-.676-.217-.861-.048-.547.193-.394.442v.427l.37.539.338.748.1.765-.273.531-.338.024-.482-.29-.515.217-.032.354.282.411.451.555.064.619-.323.837-.917-.443-.789-.378-.676-.153-.523.153-.459.506-.088.475.048.643.273.748-.128.612-.322.475-.37.482L1706,1089.8l-.693.812-.466.684-.153.531-.346.909-.226,1-.2.66-1.062.161-.5.282-.86,1.5-1.248-.073-.531.153-.322.041-.628-.716-.458-.547-.676-.3-.732.233-.363.411-.426.869-.5,1.36-.048.427.475.394,1.375.781,1.207,1.7.378.37.6-.121.6.491.355.5.5,1.98-.114,1.07.162.765.072.506.306.572.265.651-.048.572-.257.305-.652.105-.611-.209-.8-.25-.8.064-.781.218-.611.539-.032.691.048.781.321,1.392.2.571-.451.588-1.247.072-.8.3-.989.233-.917-.161-.692.073-.531.145-.523.234-1.135.442.04-1.038.025-.667-.217-.427-.282-.282-.91-.321-.852.29-1.416.466-1.054.209-.579.072-.636.234-.854.137-.764.008-.547-.1-.225-.515-.04-.555-.073-.45-.049-.828-.257-1.175-.66-2-.338-.8-.483-1.287-.434-1.608-.419-.717-.169-.733-.016-.483.362-.233.33-.329.467-.306.572-.466.732-.564.436-.451.876-.281.9.064.209-.161.04-.644-.04-.877-.129-.675-.072-1.126-.225-1.432-.137-.869-.217-.845-1.03-.08-.379-.032-.491-.25-.458-.1-.338.217-.346.233-.33.041-1.167-.289-1.979.257-.643.226-1.8.523-1.2.306-.435-.056-.217-.741.089-.716.072-.564.225-.579-.048-.684-1.022-.032-1.417-.136-.756-.081-.386-.506-.226-.4-.08-.393.531-.242.684-.25.692-.29.458-.185.307-.169.008-.306.114-1.231.08-1.2.152-.692.306-.411.475-.434.379-.33.587-.065.427.242.3.281.676.193.539.234.346.306.121.41-.057.507-.016.41.21.515.233.419.313.136.427.016.266-.064.305-.362.161-.531.305-.933.266-.836.2-.5.345-.676.6.483.828.378.942.032.8-.169.652-.241,1.5-.33.523-.354.418-.692.3-.636.249-.828,1.142-1.907.258-1.126.073-.829.458-.62,1.383-1.6,1.015-1.159.232-.692-.048-1.367-1.062-.5-.691-.2-.427-.25-.113-.434v-.547l-.2-1.408.081-1.183.152-.716.064-.772,1.247.152,1.248.129h.836l.291-.273.3-1.658-.056-1.143-.427-1.142-.225-1.183-.1-.772.216-1.158.5-1.022.539-.725.474-.386.644-.9.587-1.247.507-.813.289-1.167.258-.579,1.119.032.668.024.868.056.161.394.152.612.161.37.057.233.04.306-.08.306-.209.305-.29.185-.394.121-.491.088-.41.153-.338.137-.226.153-.233.289-.209.411-.129.451-.073.369-.072.6.016.6.1.435.274.37.241.241.225.193.233.081.177.048h.37l.411-.1.337-.121.355-.145.49-.346.338-.185.45-.241.467-.258.555-.3.451-.258.185-.064.25-.088.281-.064.258.008.209.048.177.073.209.161.322.217.241.29.12.177.13.17.273.233.627.137h.177l.129-.008.234-.049.282-.209.224-.161.089-.185.113-.129.242-.177.459-.249.289-.145.224-.1.339-.169.249-.314.2-.137.136-.1.121-.144.249-.491.073-.153.1-.218.088-.224.186-.443v-.186l.249-.523.056-.177.033-.314-.016-.619-.089-.427-.031-.41.4-.081.427-.233.652-.515.313-.185.829.081.3.458.153.378.25.217.377.451.362.418-.121.555.04,1.505.185.45.458.169.668-.443.708-.16,1.206-.073,1.11-.08.346-.323.8-.121,1.537.1.724-.056.6-.113.563-.145.419.008.724.282.435.371.25.289.032.531.017.458.208.668.322.064.62-.145.652-.177.6-.128.8-.073,1.054-.072.612-.281.41-.3.411-.169.934.024.652.2.426.073.1.281.12.547.137.788.1.692.411.049.5-.008.458-.072.467.081.419.209.483.032.08-.491-.056-.644.056-.869.138-.949.41-.611.233-.258.233-.395.266-.362.708-.113,1.907.12.208.451-.184.974.531.265,1.15.386,1.995.177.371-.168.379-.347.78-.313,1.319-.048.627.362.419.379.483.522.217.459-.016.659-.184.572-.008.49.482.088.378-.024.113-.234.224-.354.266-.185.451.056.619.411.685.081.241-.289.129-.306.2-.893.193-.844.258.144.587.612.467.748.474,1.175.185.58.3.386.508.314.724.354,1.062.491,1.151.547.764.37.8.45,1.191.781,1.03.925.418.338.25.386" transform="translate(-1668.969 -1050.78)"  stroke="#fff" stroke-linecap="square" stroke-linejoin="bevel" stroke-width="1" fill-rule="evenodd"/>
      <text id="182" transform="translate(30.028 20.157)" fill="#fff" font-size="13"  font-family="OpenSans-Bold, Open Sans" font-weight="700"><tspan x="-5.328" y="0"></tspan></text>
    </g>
    <g id="_180_Kandhar" data-name="180 Kandhar" transform="translate(333.432 1820.226)">
      <path id="talId180" fill="#7DB8EC" title="Kandhar" data-name="Kandhar" d="M1754.868,1119.856l-.361.708h-.765l-.675-.209-.893-.306-.692-.177-.7.321-.74.322-.733.088-.764.089-.5-.024-.66-.37-.684-.62-.652-.1-1.006-.016-.854-.016-.643.193-1.972.788-.362.475-.265.732-.531.555-.789.467-.66.322-.676.265-.854.225-.522.217-.982.145-.081.869-.8.306-1-.177-1.5-.056-1.448-.282-.909-.016-.813.25-.749.249-.274.161-.385.813-.33,3.91-.917.065-.773.321-.281.322-.806.282-.957-.081-.981.1-.072-1.037-.193-.66-1.376-.073-.7.1-.49.105-.289.6-.4,1.029-.354.362-.82.579-.073-.282-.66-.29-.434-.877-.257-.547-.611-.338-1.1-.354-.747-.008-.66.137-.555.217-.459.233-.53.209-.386.048-.3-.04-.233-.177-.442-.8-.338-.523-.041-.363v-.442l-.459-.177-.555.1-.6.1-.2.12-.072.515v.491l.048.41.008.507-.032.386-.226.152-.41-.032-1.44.346-.725.314-.917-.064-.659.08-.58.113-1.3.273-1.32.282-1.479.112-1.778.258-.676.21-.169.329v.475l-.226.176-.386-.016-.466-.016-1.811-.153-.877-.1-.12-.861-.049-.466-.185-.442-.015-.58.176-1.053.813-1.754.563-.756.491-.169.281-.249.177-1.328-.1-.74-.041-.41-.176-.419-.185-.418-.113-1.151.08-.917.089-.667.281-1,.008-.193,1.134-.443.523-.233.532-.145.691-.072.917.161.99-.234.806-.3,1.246-.072.451-.587-.2-.572-.321-1.392-.049-.781.033-.691.611-.54.78-.217.805-.064.8.25.612.21.651-.1.258-.306.049-.571-.265-.651-.306-.572-.073-.507-.16-.764.113-1.07-.5-1.979-.354-.5-.6-.491-.6.121-.379-.37-1.207-1.7-1.376-.78-.475-.394.048-.427.5-1.36.426-.869.363-.411.732-.234.676.306.458.548.628.716.322-.04.531-.153,1.247.073.861-1.505.5-.282,1.062-.16.2-.66.225-1,.346-.909.153-.531.466-.684.693-.813,1.609-1.214.37-.483.322-.474.129-.612-.274-.748-.049-.644.089-.474.459-.507.522-.153.676.153.789.379.917.442.322-.837-.064-.619-.451-.556-.281-.41.032-.354.515-.217.482.29.338-.024.274-.532-.1-.763-.339-.749-.369-.54v-.426l.394-.442.547-.193.861.048.676.218.443.5.66.8.643.072.836-.354,1.054-.37,1.231-.539,1.577-.29.789-.3.749-.338.82-.177.644.153-.089.667-.555.442-.41.547.354.58.466.426.427,1.062.555.305.619-.145.177-.6.2-.821.5-.353.6-1.98.1-.8.908-.821.435-.395.8-.748.893-.933-.765-1.191,2.245-1.714,1.569-1.118.958-.161,1.038.129.016,1.086-.178.709-.088.764.25.861.458.387.556-.338.764-.314,1.11-.337.724.064.909.644.628,1.424.587,2.535.144.78.153.925.169,1.078.5.459.636.627.627.531.322.515.25.515.145.161.281-.072.587-.25.5.1.369.635,2.2.145.514-.073.443-.338.467-.547.539-.363-.073.717.073,1.014.3.443.16.144.467.04.475.064.917.186,1.5.241-.008.981-.081,1.215-.234.571-.965-.072h-1.191l-1.264.032h-.66l-.66.361-.346.709-.121.861.378,2.309.169.6-.193.821-.072.474-.459.628-.234.41-.032.459.531.306.128.37v.483l.58.177.8-.016.378.161.1.378.056,1.424-.434.893-.121.588.161.515.338.6.531.595.161,1.062.161.773-.282,1.512-.426.467-.2.418.185.483.41.612.241.563.089.684-.563,1.6-.04.675-.1.572-.088.587.056.467.032.394-.128.62.361.628" transform="translate(-1692.74 -1075.62)"  stroke="#fff" stroke-linecap="square" stroke-linejoin="bevel" stroke-width="1" fill-rule="evenodd"/>
      <text id="180" transform="translate(36.915 30.189)" fill="#fff" font-size="13"  font-family="OpenSans-Bold, Open Sans" font-weight="700"><tspan x="-9.165" y="0"></tspan></text>
    </g>
    <g id="_185_Mukhed" data-name="185 Mukhed" transform="translate(352.274 1864.257)">
      <path id="talId185" fill="#7DB8EC" title="Mukhed" data-name="Mukhed" d="M1759.475,1130.526l.748.016.853.177.033.467.5.41.233.137.661-.226.145-.2L1763,1131l.7-.016.394.193.386.409.113.54.088.305.427.354.6.089.54-.29.49-.265.274-.089.619.273.362.282.266.089.781.1.716-.37.249-.5.193-.515.556-.329.587.329.458.458.434.323.644.145.676-.056.974-.057,1.256-.322.515-.177.732-.5.66-.016.458.128.378.411.386.563.611.483.475.395.346.426-.04.378-.378.234-.427.249-.137.531.1.588.145.893.177.563.233.306.289.041.491.032.765.531.965.185.531.411.129.531.121.748.289.748.1.7.2.676.225.676.307.411.555.531.321.361,1.312,1.569-1.014.177-.894.177-.973.409-.571.177-.627.6-.427,1.247-.177.54v.426l.893.909.781,2.293-.041,1.006-.248.853-.588.483-.547.314-.571.716-.942.032-.965-.281-1.03-.233-2.495.088-.74.379-.105.8-.16,1.408-.323.949-.08.708-.2.571-.354.435-.435.442-.249.483.04.483.249.177.354-.185.394-.458.338-.354.266-.073.426.556.144.41,1.1,2.084-.281.635-.515.306-.8-.145-.749.338-.442.644-.322.531-.337,1.553.047.7-.225.426-.659-.177-.516.161-.643.314-.467.233-.233.426-.017.628-.426.338-.515-.177-.451-.451-.4-.411-.409-.1-.347.1-.081.844-.08,1.015-.089,1.086-.161,1.32-.16,2.655.08.547.66.29.169.451-.016.619-.266.6-.443.362-.772.089-.58.66.58.836.161.531-.049.451.073.37.884.572-.731.941-.033.555.354.572.346.483.314.41.113.564-.04.466-.692.073.072,1.818-.322.6-.378.411-.233.378-.241.458-.057.323v.53l-.354.323-.732.1-.877-.1-.555.056-.62.354-1,1.335-.572.539-.321.708-.3.233-.587.29-.153-.33-.628-.515-.579-.217-.386-.161-.41-.314-.394-.048-.475.032-.33.144-.369.161-.354.113-.29.023-.321-.047-.386-.169-1.086-.057-.483-.145-.435-.313-.225-.983-.177-.482-.08-.395.145-.587-.266-.459-.37-.3-.105-.458.057-.371.032-.354-.273-.249-.177-.33-.016-.483-.339-.394.049-.45.306-.427.225-.345.2-.459.089-.8-.459-.4-.74.185-.684.29-.363.386-.241.314-.588,1.086-.08.41-.08.29-.306.177-.257-.064-.378-.329-.813-.861-.233-.539-.032-.812-.2-.379-.6-.209-.555.137-.177-.3.1-.643-.386-.411-.612-.016-.618.676-.072.5.039.62.064.66-.193.274-.467.322-1.939.691-1.069.66-1.264.3-.82.5-.539.233-.852.426-.627.467-.942.25-.145-.354.072-.354.089-.339.041-.265-.056-.314-.121-.265-.152-.161-.056-.153-.049-.3-.081-.41.1-.3v-.257l-.081-.225-.2-.089-.25-.048-.161-.073-.49-.547-.258-.2-.386-.338-.065-.225v-.281l.161-.233.361-.081h.587l.315.025.257.016.257.008.225-.008.121-.032,1,.6,1.183-.009.636-.538.29.04.788.145,1.215-.748-.088-.515.354-.5.595-.032-.169-2.261-1.721-.081-.636.5-1.666-.531-1.995-.475-.249-.281-.137-.411-.169-.241-.289-.1-.362-.081-.37-.033-.307-.024-.643-.257-.217-.2-.152-.466-.1-.371-.274-.7-.056-.4.145-.29.233-.321.378-.307.451-.45.443-.8.571-.547.555-.491.347-.361.249-.306.233-.257.539.145.483.137.418.049.291-.033.506-.281.467-.644.572-1.255-.057-.821.338-.661.483-.635.515-.314.226-.249-.016-.266-.363-.193-.5-.233-.516-.234-.361-.209-.958-.837-.53-.523-.443-.193-.684-.242-.652-.225-.539-.265-.1-.3.065-.435.136-.579.1-.619-.033-.258-.008-.329.217-.177.61-.379-.04-.531-.169-.3-.329-1.15.1-1.006.145-1.038.049-.7v-.4l-.393-.249-.484-.233-.5-.153-.4-.1-.965-.234-.87-.145-.563-.154-.659-.1-.83-.257-1.182-.234-.909-.177-.74-.153-.733-.105-.33-.129.064-.337.034-.781-.073-.394-.2-.081-.217-.032-.186-.056-.1-.161.024-.265-.008-.322-.547-.427-.628-.427-.555-.748h-.523l-.773-.008-1.971-.057-2.736.049-.756.121-.371-.032-.129-.185-.144-.217-.049-.562.072-.443.193-.619.186-1.875.152-.966.081-.667.121-.411,1-.065.884.008.844.04.443-.048.515-.29.62-.393.973-.459.346-.241.121-.241.82-.579.355-.362.394-1.029.29-.6.49-.105.7-.1,1.376.073.194.66.071,1.038.982-.1.957.081.8-.282.282-.323.772-.322.917-.064.33-3.91.386-.812.274-.161.748-.25.813-.249.908.015,1.449.283,1.5.056,1,.177.8-.305.08-.869.981-.145.523-.217.852-.225.676-.266.661-.321.788-.467.531-.555.265-.732.363-.474,1.971-.789.644-.193.853.016,1.006.016.652.1.684.62.659.37.5.024.765-.089.732-.089.74-.321.7-.323.693.177.893.306.676.209h.765l.362-.708" transform="translate(-1716.301 -1130.22)"  stroke="#fff" stroke-linecap="square" stroke-linejoin="bevel" stroke-width="1" fill-rule="evenodd"/>
      <text id="185" transform="translate(23.072 28.159)" fill="#fff" font-size="13"  font-family="OpenSans-Bold, Open Sans" font-weight="700"><tspan x="-9.097" y="0"></tspan></text>
    </g>
    <g id="_186_Naigaon_Khairgaon_" data-name="186 Naigaon (Khairgaon)" transform="translate(392.634 1814.191)">
      <path id="talId186" fill="#7DB8EC" title="Naigaon (Khairgaon)" data-name="Naigaon (Khairgaon)" d="M1790.088,1125.421l-.289-.04-.234-.306-.176-.563-.145-.893-.1-.587.136-.532.426-.249.38-.233.04-.378-.346-.427-.474-.394-.611-.483-.386-.563-.378-.411-.459-.129-.66.016-.732.5-.516.177-1.255.322-.974.056-.675.056-.644-.145-.435-.322-.458-.459-.588-.33-.555.33-.193.515-.25.5-.717.371-.781-.1-.265-.088-.363-.282-.619-.274-.274.088-.49.266-.539.29-.6-.088-.426-.355-.088-.306-.113-.539-.386-.41-.394-.193-.7.016-.354.306-.144.2-.66.226-.233-.137-.5-.41-.033-.467-.852-.177-.749-.016-.362-.628.128-.62-.032-.394-.055-.466.088-.588.105-.571.04-.677.563-1.6-.088-.684-.242-.563-.411-.612-.185-.482.2-.419.426-.467.282-1.512-.16-.772-.161-1.062-.531-.6-.337-.6-.161-.514.121-.588.435-.893-.057-1.424-.1-.378-.378-.161-.8.016-.58-.177v-.483l-.129-.37-.53-.306.032-.458.233-.411.458-.628.073-.474.194-.821-.17-.6-.378-2.309.121-.861.346-.709.66-.361h.66l1.263-.032h1.191l.965.073.233-.572.08-1.215.008-.981.813-.161.611-.441-.217-.982-.5-.571-.322-.748-.3-1.32-.016-.917.088-.7.41-1.1-.088-4.827.072-.41.273-.314.91-.169.643-.1,1.022-.072,1.086-.072.314-1.955.354-2.422-.057-1.119.041-.547.193-.547.468-.369,1-1.095.41-.467.225.4.306.628.363.7.458.958.668.724.579.145.515.136.764.145.869.024,1.07-.1,1.134-.048,1.038.088.563.209.49.451.491.78,1.142,1.336.467.507.612.345.659-.016.6-.322.49-.306.363-.258.636-.1.675.089.37.209,1.006.467,1.247.789,1.135.909,1.561,1.867.8,1.207.314,1.15.169,2.39.145,1.151.378.733.3.6.346.45.29-.29.25-.611.3-.628.346-.434.282-.3.274-.1.385.072.466-.491.242-.354.434-.225.628.048.812.716.748.684,1.456,1.706.435.667.016.516-.217.314-.482.056-.4.241-.193.378-.033.451.234.45.3.395.338.193.62.08.643.1.363.089,1.995,1.31.684.66.411.37.724.153.466-.1.459.354.893-.282.789-.176.765.056.82.8-1.182,1.11-.869.78-1.247,1.054-1.36.21L1813,1096.3l-.789-.611-.909-.338-1.159-.354-.909-.217-.8.467-.87.957-.483,1.32-.45,3.049-.025.764-.168.354-.621.579-.86.378-1.924,1.143-.467.273-.274.338-.064.362.057.716.113.443.113.475-.258.371-.578.056-.91-.136-1.368-.652-.82-.25-.942-.29-1.014-.225-.893-.21-.547.322-.136.765.024,1.006-.016.636-.161.668-.3.41-.627.917-.411,1.328-.434.459-.5.49-.757.6-.176.7.144,1.344.12.515.041.612.113.474.378.113.523.071.684-.015.8-.2.483-.3.8-.04.966.234.483.29.273.7-.121.917-.136.314-.193.346-.2.45-.089.54.032.5.064.394-.169.474-.394.283-.6.048h-.659l-.531-.2-.379-.338-.394-.62-.3-.217-.234.322-.433.764-.331.58-.346.611-.6.861-.547,1-.612.643-.25.6" transform="translate(-1766.33 -1067.99)"  stroke="#fff" stroke-linecap="square" stroke-linejoin="bevel" stroke-width="1" fill-rule="evenodd"/>
      <text id="186" data-name="Naigaon (Khairgaon)" transform="translate(10.712 24.225)" fill="#fff" font-size="13"  font-family="OpenSans-Bold, Open Sans" font-weight="700"><tspan x="-9.371" y="0"></tspan></text>
    </g>
  </g>
</svg>
