<svg xmlns="http://www.w3.org/2000/svg" width="372.022" height="301.134" viewBox="0 0 372.022 301.134">
  <g id="nashik" transform="translate(-2023.186 -174.693)">
    <g id="_280_Surgana" data-name="280 Surgana" transform="translate(2052.475 208.738)">
      <path id="talId280" fill="#7DB8EC" title="Surgana Taluka" data-name="Surgana Taluka" d="M1003.3,751.463l-.54,1.023-.8.18-.53.446-.332.151-.9.009-.73.028-.928-.028-.247.379-.455-.113-.578-.228-.938-.047-.93-.408-.483-.2-.74-.341-.435.256-.161.352-.274.4-.323.437-.255.246h-.626l-.369-.029-.342-.141-.435-.417-.341-.2-.568-.123-1.4-.285-1.129-.332-.189-.55-.417.19-.4.275-.417.057-.56.028-.454.048-.826.588-.521.454-.228.218-.076.227-.009.4-.274.341-.787.038-.654.009-.624.115-.38-.038-.625.009-.361.228-.029.276.209.265.417.161.447.322.057.265-.322.161-.693-.028-.255-.124-.322-.294-.55-.151-.787.066-.6.285-.408.133-.4.483-.966.114-.351.142-.331.151-.474-.028-.3-.209-.55-.113-.246.076-.322.37-.493.369-.484.341-.417.294-.512.141-.9.029-.947.313-.351.255-.133.389-.341.265-.569-.341-.274-.17-.417-.342-.389.124-.465.426-.284.35-.161.275-.3.293-.389.161-.5-.588-.635-.407-.265.057-.54.559-.209.482-.237.37-.54.113-.522.142-.645.085-.407.436-.265.19-.616-.152-.55-.37-.219.057-.947.294-.341.3-.295.332-.237.285-.389.417-.341-.3-.427-.227-.454.322-.124.048-.332-.171-.265-.4-.124-.417-.18-.274-.607-.408-.511-.209-.361.285-.417.114-.313.028-.247.19-.464.4-.294-.075-.3-.342-.445-.569-.151.835-.067.341-.208.313-.322.256-.446.484-.341-.181-.484-.493-.18-.4-.35-.257-.465-.132-.342.066-.161.379.095.218.228.36.067.352-.2.123-.36-.2-.255-.143-.521-.076-.323.076-.389.2-.285.322.038.18.578.522.38.142.653.284.057.274v.332l-.17.332-.427.218-.389-.151-.436-.475-1.071-1.136-.191-.513.343-.5.378-.474.076-.512-.265-.274-.493.076-.379.265-.293.426-.483.493-.588.294-.56.217-.852.143-1.271.265-.493.143-.445.237-.208.285-.057.332.066.123.683.124.151.065.294.332.17.427-.189.171-.437.066-.512-.066-.635-.19-.673-.3-.436-.246-.521-.246-.484.189-.2.341.228.551.029.369.009.37h-.171l-.207-.019-.417-.446-.143-.74-.18-.454-.313-.3-.474-.142-.521.2-.435.293-.654.322-.654.617-.038.407.294.7.19.977-.143.465-.256.189-.5-.228-.484-.625-.341-.921-.369-.625-.455-.341-.6-.332-.522.171-.321.283-.114.389.058.247.274.493.246.3.039.521-.182.417-.189.275-.378.294-.389.152-.38.085-1.763.228-1.137-.276-.569-.189-.6-.048-.541.351-.161.426.076.3.247.369.331.322.2.389v.852l-.151.294-.312.161-.728.369-.026-.2-.14-.851-.071-.235-.1-.343-.24-.536-.31-.495-.282-.761-.194-.3-.113-.26-.055-.325-.069-.505.01-.225.021-.429-.026-.531v-.12l-.015-.152-.043-.131-.095-.132-.141-.159-.111-.118-.222-.121-.312.047-.184.032-.23.107-.3.225-.3.3-.488.611-.389.335-.367.3-.541.682-.215.168-.205.159-.242.179-.275.095-.208.016-.221-.087-.14-.116-.139-.195-.147-.211-.071-.289-.1-.179-.091-.4-.09-.433,0-.321,0-.189-.009-.329.026-.283-.085-1.2.065-.25.043-.073-.031-.14-.045-.123-.059-.118-.064-.133.006-.135.058-.061.061-.041.126-.006.111,0,.1-.024.125-.05.152-.071.237-.168.061-.117.059-.08.085-.041.085-.024.147-.043.073-.069.091-.113.085-.059.154-.038.095.015.064.028.13.05.12.031.2-.011.165.028.094.047.154.176.1.083.116.074.144.054.2.026.157-.019.232-.111.111-.107.05-.13.012-.144-.016-.133-.076-.234.03-.093.033-.142.072-.215.179-.5.056-.149.065-.159.178-.219.127-.121.171-.019.135,0,.147.124.126.111.069.08.074.093.142.149.141.118.1.1.072.052.1,0,.074-.04.041-.107.039-.148-.115-.406-.078-.128-.076-.121-.079-.138-.059-.166-.018-.119.016-.143.061-.089.079-.053.108-.012.221.1.171.039.2.005.332-.078.176-.1.222-.076.128-.047.123-.209.081-.673.061-.209.124-.165h.18l.445.555.157.113.179.081.142.043.167-.052.037-.227-.071-.161-.18-.2-.067-.578.067-.171.118-.261.289-.255.143-.091.213-.137.089-.147.048-.213.043-.337.033-.436-.133-.137-.174-.115-.1-.161.01-.332.152-.5.17-.36.161-.432.208-.328.171-.194.2-.218.214-.312.345-.791.042-.265.052-.256.085-.181.1-.208.028-.331.209-.142.1-.251-.052-.228-.08-.222.062-.285.122-.208.233-.053.247-.042.493-.825.161-.355.217-.28.085-.28.578-1.167.237-.284.072-.195-.067-.2,0-.2.2-.366.129-.247.113-.227.2-.213.181-.1.327-.109.606-.052.441-.094.4-.152.374-.252.152-.275.189-.73-.076-.976.019-.417.21-.35.35-.513.663-.692.863-.407.247-.483.065-.351v-.246l-.037-.265.009-.285.18-.379-.047-.276-.076-.171-.124-.256.01-.4.19-.588.065-.493.276-.891.247-.5.35-.38.5-.5,1.479-1.223,2.066-1.289.427-.218.236-.445.039-.267-.161-.293-.512-.294-1.137-.19-.626-.113-.606-.038-.455-.047-.369-.172-.086-.293.076-.541-.057-.673.332-1.7.569-.606.009-.541-.18-.549-.1-.769-.1-.427-.321-.843-.3-1.109-.095-.332-.057-.473v-.464l-.274-.436-.352-.313-.436-.246-1.033-.389-1.071-.246-.606-.19-.578-.35-.6-.285-.541-.219-.463-.056-.7.01-.862.132-.559.086h-.531l-.454-.02-.437-.2-.275-.3-.209-.341v-.3l.124-.256.085-.095.048-.218-.161-.18-.19-.076-.3-.379-.048-.22,0-.235.1-.389-.017-.125-.092-.164-.116-.119-.152-.119-.114-.139-.033-.481-.037-.088-.09-.17-.241-.213-.1-.121-.041-.126.057-.119.074-.076.106-.13.055-.2-.128-.884-.073-.157-.126-.25-.327-.571-.1-.246-.083-.244-.093-.166-.249-.085-.275.043-.2.068-.1.055-.171.1-.17.083-.219.071-.251-.033-.249-.119-.18-.072-.1-.006-.185.054-.085.071-.146.147-.376.413.214-.939.133-.081.108-.4-.359-.706-.128-.445-.28-.441-.474-.294-.345-.189-.441-.219-.346-.165-.283-.109-.475-.057-.175-.132-.1-.251-.345-.678.023-.284.005-.289.289-.564.166-.148.393-.113.36-.113.507-.124.526-.208.143-.063.4-.146.266-.124.227-.232.407-.175.247-.427.256-.3.318-.318.36,0,.522.024.549.056.5.039.417-.143.608-.3.539-.246.418-.176.378-.213.313-.332.254-.747-.01-.346-.007-.184-.044-.19-.092-.2-.093-.182-.126-.246.024-.218.018-.135.1-.1.185-.121.237-.128.587-.2.413-.069.592-.206.2-.089.193-.12.087-.244.2-.623.351-.808.173-.5.08-.621-.035-.294-.135-.22-.192-.126-.422-.07-.087-.034-.166-.078-.2-.167-.161-.163-.149-.194-.066-.21.021-.348.074-.214.168-.341.269-.433.074-.166.019-.18.081-.2.063-.23.09-.235.13-.1.176-.137.133-.128.106-.139.22-.529.065-.191.032-.152,0-.173.076-.157h.119l.158.071.17.116.346.116.117-.013.171-.045.194-.03.174-.041.211.012.242.019.213-.012.381-.317.135-.085.108-.081.174-.2.289-.243.62-.417.768.165.346.033.308.119.2.08.242.171.095.767-.043,1.062.009.393.166.413.256.085.309.113.284.219.341.606.223.441.185.171.095.36.119.337.067.294-.062.393-.09.706.048.261.137.227.124.128.194.2.3.172.317.137.223.289.019.374-.057.417-.195.535-.1.787-.2.256-.161.141-.294.091-.251-.043-.232-.166-.161-.25-.094-.275-.167-.11-.189.142-.294.271-.189.246-.029.157.1.208.184.313.067.411.517.233.252.113.213.176.042.293.051.474.351.5.252.137.246.18.127.27-.019.374-.023.341.066.478.063.246.26.143.332.119.422.123.407.066.256-.744.28-.55.209-.171.355-.2.389-.564.072-.209.071-.332.119-.317.1-.322.1-.322.265-.091.4.185.536.574.279.132.332.042.435-.056.308-.109.228-.2.2-.26.089-.309.072-.354.034-.342.052-.421.043-.384.151-.27.25-.185.161.209.043.341.241.147.83.095.446.091.388.152.294.128.085.3.256.782.2.252.39.241.407.356.478.716.673,1,.72.786.194.493.228.512.393.285.606.346.669.275.341.156.095-.076.28-.45.142-.184.119-.152.2-.143.208-.042.213.037.228.185.223.124.246.024.148-.224.142-.2.27-.071.37.118.487.2.46.256.332.446.692.1.45.09.3.146.119.375.364.293.247.066.3.061.256.189.465.185.274.157.356.141.251.27.242.318.213.066.228-.033.284.005.246.142.328.293.4.233.156.217.091.285.166.161.232.152.293.246.233.256.2.1.186.067.137.237.042.143.071.189.109.143h.105l.208-.062.152-.057.028.165-.062.152-.067.246-.022.237.1.218.152.132.119.119.095.246.124.133.241.08.146.19.3.275.351.147.156.237-.019.289.034.384.337,1.029.193.53.185.688.261.715.113.294-.014.436-.142.521v1l.028.583.095.464.285.4.507.531.242.1.332.09.293.161.437.242.5.142.442.119.341.208.27.191.511.46.56.54.644.612.137.309.123.279.072.184.218.076.3.019.337.005.365.128.232.157.318.175.3.024.506-.019.929-.252.418-.161.449-.171.691-.469.636-.451.841-.687.458-.323.369-.3.963-.531.408-.189.36-.138.454.053.38.384.242.179.189.1.346,0,.5-.019.693-.052,1.024-.189.356-.053.573.038.464.061.645.171.512.256.445.142.418-.043.535-.062.592-.118.185.015.147.246.161.236.276.267.322.085.441.156.644.355.166.142.147.208.137.294.195.132.189-.2.257-.274.312-.327.541-.261.507-.066.322-.091.412-.193.645-.352.317-.2.252-.2.028-.07.625.4.275.4.521.511.465.635.578.91.124.474-.7.322-.635.01-.692-.057-1.08-.113-.483.615.294.228.217.17.2.294-.228.312-.161.085-.076.371.284.246.418.019.768-.029.663.047.9.124.947.2.778.332.519.37-.062.806-.315.825-.464.986-.143.871.578.749-.162,1.3-.123.578-.057,1.052.009.587.237.579.812.768-.031,2.578-.125,2.057-.1.91-.229.4-.485.351-.5.219-.189,1.365-.114.767.237.682.038.73-.3,1.688-.1,1.336,1.213.645" transform="translate(-914.583 -687.033)"  stroke="#fff" stroke-linecap="square" stroke-linejoin="bevel" stroke-width="1" fill-rule="evenodd"/>
      <text id="280" transform="translate(33.896 53.617)" fill="#fff" font-size="13"  font-family="OpenSans-SemiBold, Open Sans" font-weight="600"><tspan x="0" y="0"></tspan></text>
    </g>
    <g id="_273_kalwan" data-name="273 kalwan" transform="translate(2135.893 213.299)">
      <path id="talId273" fill="#7DB8EC" title="kalwan Taluka" data-name="kalwan Taluka" d="M1073.572,722.546l-.323.148-.27.1-.26.143-.187.237-.167.26-.187.18-.218.143-.239.109-.208.118-.218.337.416.241.177.147.094.308v.441l-.156.323-.25.237-.593.512-.26.493-.218.394-.208.308-.344.246-.54.412-.5.726-.239.645-.083.217-.759.02-.468.037-.437.024-.26.223.1.441-.083.384-.073.176-.385.374-.114.332-.073.217.094.3.187.265.01.336-.124.27-.1.18-.073.483-.27.749-.187.4-.561,2.848-.405.778-.229.454-.353.55-.4.531.364.54.062.645v.209l-.01.549,1.508-.028,1.445.237,1.435.047.552.124-.312,1.526-.125.579-.374,1,.208.36.832.426.542.37.738.578.635.474.375.5.26.625.063.437-.416,1.223-.956.8-1.238.74-.884-.028-.447.3.052.682-.427.958-1.072.8-1.153.636-.78.189-.9-.122-.551.019-.707.17-.687.682-.073.684-.166.322-.447.426-.541.35-.24.522-.062.739-.51.644-.654.19.155.549-.458.664-.562-.3-.53-.17-.521.275-.354.332-.259.228-.458.123-.561.038-.447-.057-.489.873-.374-.152-.509-.294-.51-.2-.291.35-.332.37-.76.161-.561-.257-.281-.137-.76-.284-.374-.2-.572-.208-.375-.062-.073.241.769.426.645.3.551.279.52.232.635.308.582.114.437.047,1.945,1.062,1.549.5.915.133.541.478-.031.629-.187-.055-.884.341-.894.341-1.445.322-1.55.417-.094.361.717.644-.624.967-.478.569-.489,1.365-.624.379-1.04-.247-1.29-.246-1.164-.379-.6-.018-.488.075-.634.172-.77.189-.593-.721-1.227-.663-.593-.246-.832-.095-.967-.17-.78-.133-.53-.3-.489-.322-.738-.228-.645-.17-.416-.076-.8-.223-.884-.209-.562-.161-.385-.228-.426-.1-.509-.009-.27.089-.156.361-.291.147-.229-.009-.468-.744-.458-.677-.208-.4-.218-.345-.478-.465-1.331-.005-.468.115-.457.194-.593.275-.478.569-.562.057-.4-.128-.115-.413-.093-.573.54-.346.135-.483.021-.5-.1-.285-.374-.53-.479-.678-.343-.165-.488-.1-.354-.052-.332-.09-.354-.109-.125-.137-.135-.437-.124-.312-.114-.331-.811-.768-.5-.294-.364-.157-.4-.055-.281.042-1.238.27-1.185-.2-.624-.256-.561-.246-.489-.219-1-.067-.916-.019-.655-.009-.821-.113-1.061-.6-.894-.473-.458-.285-.332-.35-.1-.351-.042-.588-.083-.587-.208-.4-.614-.151-1.029-.142-.748-.436-1.009.369-.8.209-1.05.208-.479.133-.791-.152-.415-.313-.458-.483-.156-.36-.083-.692-.375-.426-.072-1.5-.457-.541-.53-.777-.364-.313-.384.255-.229.161-.792.465-1.213-.645.1-1.336.3-1.687-.039-.73-.237-.682.115-.768.189-1.365.5-.218.484-.351.229-.4.1-.91.125-2.057.031-2.578-.812-.768-.237-.578-.009-.587.058-1.052.123-.578.161-1.3-.578-.749.142-.871.465-.986.314-.825.062-.805-.519-.37-.777-.332-.947-.2-.9-.124-.663-.047-.767.028-.418-.019-.284-.246.076-.37.16-.085.228-.312-.2-.294-.218-.171-.294-.228.483-.616,1.081.113.692.057.635-.009.7-.323-.124-.474-.578-.91-.465-.635-.521-.511-.274-.4-.626-.4.085-.2.024-.4.138-1.076.115-.573.065-.417.285-.014.459-.015.253-.378.463-.516.361-.588.26-.464.2-.55.189-.487.133-.166.236-.114.233.019.218-.01.256-.085.251-.128.753-.317.447-.166.364-.2.416-.171.344-.01.842.37.426.265.156.256.114.19.208-.057.229-.195.415-.337.478-.455.291-.389.375-.441.374-.071.353-.071.229-.181.4-.45.842-.512.343-.013.364.1.447.157.322.085.3-.091.458-.27.614-.5.187-.256.249-.417.365-.284.28-.1.395-.038.167-.081-.021-.289-.167-.417-.062-.933-.031-.37-.073-.374-.239-.5-.249-.668-.188-.669-.083-.487.021-.721v-.374l.031-.479.208-.417.177-.275.291-.346.3-.493.281-.5.072-.28.01-.355-.094-.265-.551-1.18-.593-.521-.177-.222-.3-.432-.052-.27.021-.28.041-.271-.062-.246-.218-.151-.291,0-.27.094-.749.137-.281-.032-.416.043-.541.2-.25-.038-.072-.308-.063-.839-.145-.356-.135-.375-.072-.332-.146-.559-.239-1.085-.052-.417-.021-.309.208-.184.249-.167.436-.3.8-.545.26-.289.322-.246.354-.137.385.019.344.095.291.057.4-.109.322-.137.395-.19.312-.076.3.005.177.347.114.289.25.122.249.005.437.01.416.176.572.4.426.138.281.128.354.175.343.28.323.222-.292.6-.146.138-.228.039-.124-.017-.458-.144-.114-.042-.208-.008-.125.041-.146.083-.083.113-.052.2.031.1.167.134.135.108.052.088-.062.2-.167.014-.093-.066-.094-.1-.207-.1-.177-.041-.135.037-.062.071v.182l.1.162.218.175.146.151.155.2.458.59.208.163.208.108.208-.042.156-.23.073-.174.114-.336.229-.112.093.247.062.291.021.217-.042.229-.062.2-.094.3-.052.193v.658l-.26.038-.135.046-.1.1-.052.192.083.17.446.008.4-.1.322-.058.219-.021.332-.041.281.013.229.083.27.092.707.525.094.188.011.137-.115.155-.176.029-.187,0-.156.042-.177.1-.041.17.208.568.281.187.332.1.125-.008.634-.533.167-.208.208-.309.156-.242.156-.233.28-.1v-.33l.084-.263,2.121-1.217.354-.9.447-.6.415-.35.936-.733.645-1.285.073-.9.853-.2.863.134.478.851.177,1.167.166.767.166,1.3.364,1.034.384.884.947.8.769.434,2.038,1.768,1.435,2.034,1.332,1.068.853.951,1,.383.634.2,1.383.151.769-.068.53-.017,1.03.317.925,1.217.031,1,.728.283.769-.1.665-.1.687.05.052,1.085.4.6.458.7.561.533.717-.05,2.215-.384.884.55.842.717.947.6,1.03.4.821.284,1.247.316.843.083.707-.083.707-.417.281-.233,1.289.417.884,1.034.208.6.156.568-.219.6.572.684,1,.349.832.1.665.084.769-.117.884-.083.686.317.759,1.284,1.653.417,1.217.333.956.417.926.267.717.234.884.5.229.517" transform="translate(-994.958 -691.599)"  stroke="#fff" stroke-linecap="square" stroke-linejoin="bevel" stroke-width="1" fill-rule="evenodd"/>
      <text id="273" transform="translate(23.478 46.055)" fill="#fff" font-size="13"  font-family="OpenSans-SemiBold, Open Sans" font-weight="600"><tspan x="0" y="0"></tspan></text>
    </g>
    <g id="_268_Baglan" data-name="268 Baglan" transform="translate(2154.563 175.355)">
      <path id="talId268" fill="#7DB8EC" title="Baglan Taluka" data-name="Baglan Taluka" d="M1015.869,695.355l.167-.578-.021-.332.135-.279-.052-.246-.031-.355.333-.062.177.085.156.043.3.038.031-.222-.021-.123-.084-.195-.083-.184.052-.161.323-.086.26-.095.1-.3.125-.271.093-.493.427-.322.187-.256.052-.432v-.4l.073-.554.259-.6.218-.209.208-.166.167-.242.135-.478.187-.858.042-.246.167-.1.312-.082.281-.057.3-.16.416-.228.489-.232.156-.056.354,0,.28.043.343.124.478.056.561.086.582.086.249.028.229.142.322.265.291.143.3.25.332.285.26.161.312-.02.208-.232.406.189.541.119.322.114.291.1.218.024.332-.067.24-.108.155-.209.073-.265.021-.28.073-.218.27-.095.406-.137.239-.1.313-.493.27-.228.208-.091.291-.076.3.01.135.161v.323l-.011.279.094.247.167-.033.3-.408.145-.213.166-.265.323-.431.634-.71.395-.285.312-.171.322-.274.156-.375-.031-.574-.115-.208-.27-.224-.323-.2-.239-.222.124-.232.188-.185.25-.232.021-.474.062-.294v-.682l-.041-.45-.322-.2-.791.1-.281-.033-.343-.067-.291-.048.093-.2.115-.356.062-.327.083-.265.114-.478.094-.554.062-.422-.011-.36v-.313l.032-.479-.083-1.113.052-.455-.26-.659.021-.762v-.289l-.135-.313.094-.285.208-.649.208-.611.135-.243.021-.26.042-.3-.021-.289-.187-.265-.27-.265-.239-.512.322-.73.842-.791,1.05-2,.177-.634-.582-1.167-.427-1.327.26-1.094,1.654.516.7-.162.457-.317.7-.241,1.02.108.333-.232.177-.323.25-.517.384-.506.25-.551.364-.118.791.057.468.137.51.161.551.313.6.108.489.223.416.217.5.176.437.152.3.174.344.252.686.417.572.479.395.531.1.426.084.209.322-.176.322-.095.3.024.4.108.291.119.437-.01.6-.228.2-.061.728.261.375.047.135-.066-.135-.678-.125-.45-.125-.493.052-1.152.344-.521.519-.422.49-.335.385-.152.238.08.468.36.176.365.2.336.115.228.333.763.385.938.551.578.406.237.437.058.8.033.343-.175.136-.336.394-.412.406-.284.8-.246.551-.318.25-.2.821-1.076.177-.156.52.1.489.166.457.042.385-.033.54-.071.53-.118.364-.076.489.161.592.4.416.228.51.228,1.165.308.883.322.614-.113.322-.195.374-.133.26-.109-.073-.365-.208-.658-.135-.4.031-.4.178-.341.27-.317.291-.128.365.038.769.18.468-.265.26-.432.219-.569.311-.345.188-.237.374-.072.343.133.208.082.4-.034.5-.2.624-.374.478.047.593.275.582.489.665.4.343.294.478.717.437.573.292.232.385.114.644-.029.635-.013.728-.072.406-.047.125-.138-.166-.474-.146-.578-.167-.559.145-.456.25-.274.354-.147.728.071,1.414.095,1.643.522.624.217.769.228,1.082.18.613.02.2.141.3.322.634.048.323-.18.312-.351.166-.293.4-.285.374.067.406.436.676.218.947-.028,1.31.047.687-.067h.717l.343.635.146.408.364.361.582.226.645.256.561-.1.718-.313.676.114.489-.322.26-.778.386-.558.363-.266.322-.332.406-.152.354.219.135.446.124.35.666.247.666.227.624.275.542.143,1.1-.038,1.1-.18.77-.048.873-.123.863-.246.54-.152.457-.028.521.293.728.437.489.578,1.581.473.811.626.489.256.8.018.437-.217.4-.341.27-.228.25-.4.541.247-.073.6.156.712.478.416.5.626.281.482.708.048.572-.152.135-.5-.021-.521.031-.778.052-.6.188-.749.987.436.853-.076.291-.388.083-.181.124-.644-.01-.844.645-.142.665.209.01.474-.124.474-.052.511.311.474.333.388.385.341.624.181.572.037.687.048.5.028.541.133.759.189.728.275.281.237.426-.066.551-.417.042-.445-.219-.417-.115-.37.041-.473.3-.361.2-.028.312.076.249-.313.042-.407-.031-.445.187-.18.521.2.26.019.374-.209.312-.293.062.284-.187.635.093.6.073.437.166.54.469.511.312.3.395.407.354.38-.021.351-.25.35-.364.133-.572-.218-.655-.208-.676-.133-.53-.076-.25.143-.094.228.041.435.25.3.4.217.583.314.519.4.135.739.791.626.094.132-.781.333-.551.025-.384-.091-.51-.126-.738.326-.25.434-.042.492-.124.425-.406.1-.894.059-.042,1.142.115,1.033.53,2.377-.177,2.218-.332.642-.478,2.218.021.408.03.917.863.975-.01,1.351-.457,1.426-.2,1.7-.343,1.635-.166.784-.156.575-.25.166-.28-.266-.186-.467-.032-.518-.208-.383-.312-.234-.166.217-.281.325-.416.008-.01-.333-.416-.284-.458.05-.167.483-.208.525-.259,1.251-.125.292-.084.742.375.284,1.144.383.52.166.4.517-.031.409-.26.3.135.225.489.134.469.191.208.575.187.135.52.158.624.025.592-.15.614-.033.343.383-.655.467-.031.374.219.068.3.3-.343.626-.3.125-.4.008-.7-.066-.427.108h-.426l-.582-.025-.582.734-.489-.551-.52-.133-.718.083-2.506,2.4.281.483-.084.3-.426.193-.842.4-.021,2.744.24.241.7.334,1.123.876.593.267.718.233,1.05.25,1.279.575.187,1.351-.1,3.694-.978.367-.812-.075-1.061-.108-1.362-.109-.738-.142-.915.193-.9.55-1.01.334-.437.2-.375.075-.5-.1-.675-.075-.79.1-.323,1.492-.136,1.268-.27.626-.042,1.776-.2.391-.385.267-.406.251-.5.225-.385.475.448.575.478.4.5.617.114.817.759.591,1.175.708.8.359,1.029.592.74.816.467.325.228.559-.02,1.026.083.851.635.833.125.467.1.451.1.258.405.343.375.033.343.033.52.3.676.733.655.251.5-.042,1.164.033.624.15.354.325.239.625.3.85.094,1.492.063.309.281.45.271.343.249.442.188.692v.434l-.323.167-.531.033-.581-.016-.728-.218-.343-.308-.4.059-.52.317-.79.366-.687.109-.218.117-.655.233-.26-.225-.448-.05-1.071-.058-1.81-.242-.718-.133-.613-.033-.354.3-.633.267-.489.359-.3.241-.5.1-.561.017-.635.291-.675.367-.676.284-.458-.184-.883-.5-.572-.033-.77-.033-.583-.017-.5-.158-1.093.291-.395.342-1.487-.125-1.737-.209-1.913-.149-.572-.133-.406-.259-.427-.217-.488-.167-.406-.058-.4.191-.489.334-.6.217-.583-.033-.54-.167-.437-.367-.822-.849-.343-.118-.6-.084-.3.117-.26.342-.873,1.342-.291.284-.967.208-.791.075-1.6.492-1.2.651-.592.225-.145-.008-.333-.191-.3-.292-.323-.291-.333-.226-.468-.016-.312.133-.417.209-.4.167-.645-.042-1.415-.892-1.632-1.509-.738-.483-.531-.55-.312-.459-.4-.509-.1-.275.1-.268.084-.342-.229-.542-.146-.65-.052-1.242.083-.8-.063-.4-.1-.308-.624-.442-.613-.242-.541-.133-.479-.126-.748-.091-.582-.116-.52.042-.53.3-.416-.017-.894-.417-.551-.475-.509-.634-.2-.365-.676-.143-.385.091-.676.16-.332.033-.51-.217-.228-.242-.23-.517-.884-.5-.717-.234-.925-.267-.957-.417-1.216-.333-1.654-.417-.758-1.284-.686-.317-.884.083-.77.117-.665-.085-.832-.1-1-.35-.571-.684.219-.6-.157-.568-.208-.6-.884-1.033-1.289-.417-.281.233-.706.417-.708.083-.842-.083-1.248-.316-.821-.284-1.029-.4-.947-.6-.842-.718-.885-.55-2.215.383-.717.05-.561-.534-.458-.7-.395-.6-.052-1.085-.686-.049-.666.1-.769.1-.728-.284-.031-1-.926-1.217-1.029-.317-.53.016-.769.068-1.383-.151-.634-.2-1-.384-.852-.95-1.332-1.068-1.435-2.034-2.038-1.768-.769-.434-.947-.8-.384-.884-.364-1.033-.167-1.3-.166-.767-.177-1.167-.478-.851-.863-.134-.853.2-.073.9-.645,1.284-.936.733-.416.351-.448.6-.353.9-2.121,1.216-.083.263v.329l-.281.1-.156.233-.156.242-.209.309-.167.208-.634.533-.125.008-.332-.1-.281-.187-.208-.568.042-.171.177-.1.156-.042.186,0,.177-.029.115-.155-.011-.137-.093-.188-.707-.525-.27-.092-.228-.083-.281-.012-.333.041-.219.021-.322.058-.4.1-.447-.009-.084-.171.052-.191.1-.1.135-.046.26-.038v-.658l.053-.193.093-.3.062-.2.042-.229-.021-.217-.062-.291-.094-.247-.229.112-.114.336-.073.175-.155.23-.208.042-.208-.108-.208-.164-.458-.589-.156-.2-.146-.151-.218-.174-.1-.163V696.8l.062-.071.135-.038.176.042.208.1.094.1.094.065.166-.014.062-.2-.052-.088-.135-.108-.166-.134-.031-.1.052-.2.083-.113.146-.084.125-.041.207.008.115.042.458.144.125.017.229-.04.146-.138.29-.6" transform="translate(-1013.28 -654.892)"  stroke="#fff" stroke-linecap="square" stroke-linejoin="bevel" stroke-width="1" fill-rule="evenodd"/>
      <text id="268" transform="translate(54.807 39)" fill="#fff" font-size="13"  font-family="OpenSans-SemiBold, Open Sans" font-weight="600"><tspan x="0" y="0"></tspan></text>
    </g>
    <g id="_274_Malegaon" data-name="274 Malegaon" transform="translate(2257.831 181.927)">
      <path id="talId274" fill="#7DB8EC" title="Malegaon Taluka" data-name="Malegaon Taluka" d="M1123.705,733.386l.79-.366.521-.317.395-.059.343.308.728.217.582.016.53-.033.322-.168v-.434l-.187-.692-.25-.442-.271-.342-.28-.45-.063-.309-.093-1.492-.3-.85-.24-.625-.353-.326-.624-.15-1.164-.033-.5.042-.655-.251-.676-.733-.52-.3-.343-.033-.373-.034-.406-.342-.1-.259-.1-.45-.125-.467-.635-.833-.082-.851.02-1.026-.229-.559-.468-.325-.738-.816-1.03-.593-.8-.359-1.175-.708-.759-.591-.115-.817-.5-.617-.478-.4-.448-.575.385-.475.5-.225.406-.251.385-.267.2-.391.042-1.776.27-.626.135-1.268.322-1.492.791-.1.676.075.5.1.374-.075.437-.2,1.01-.334.9-.55.915-.193.739.141,1.362.109,1.061.108.812.074.977-.367.1-3.694-.187-1.351-1.279-.575-1.05-.25-.718-.233-.593-.267-1.123-.876-.7-.334-.24-.241.021-2.743.842-.4.426-.193.083-.3-.281-.484,2.507-2.4.717-.083.52.133.488.551.582-.734.582.025h.427l.427-.108.7.067.394-.008.3-.125.344-.626-.3-.3-.219-.068.031-.374.656-.467-.343-.384-.614.033-.593.15-.624-.025-.52-.158-.187-.134-.208-.575-.469-.191-.488-.134-.135-.225.259-.3.031-.409-.395-.517-.52-.167-1.144-.384-.374-.284.083-.741.126-.292.259-1.251.208-.525.166-.484.457-.05.417.284.01.333.416-.009.28-.324.166-.217.313.234.208.383.03.518.188.467.281.265.248-.166.157-.575.166-.784.344-1.635.2-1.7.458-1.426.011-1.351-.864-.975-.031-.917-.021-.408.478-2.218.333-.642.176-2.218-.53-2.377-.114-1.034.041-1.142.894-.059.406-.1.125-.425.041-.492.25-.434.738-.326.51.126.385.091.551-.025.78-.333.477.673.844.91.862.844.707.635,2.4,1.412,1.039.56.614.388.625.237.737.1.333-.132.156-.456-.2-.559-.084-.483.032-.606.291-.626.634-.454.531-.218.572-.095.415.295.458.341.821.18.811-.645.831-.463.854-.323.53-.133.437-.237.229-.323.031-.758.146-.654.322-.635.769-.7.635.256.53.389-.032.511-.188.512.074.673.353.407.447.512.364.437.551.435.448-.228.322-.408.853-.047.624-.218.572-.037.062.464.25.578.322.578.2.6.187.483.717-.217.479-.341.634-.474.51-.4.6-.275.934-.493.3-.815.312-.919.165-.5.2-.644.25-.493.562-.522.675-.512.437.474.229.625.717.323.77.19,1.872.862.946.294.593.171.29-.076.719-.351.416-.483.675-.824.094.54.187.645.053,1.175.031.361.281.53.54.313,1.8.474,1.216.445.926.105.863.113.644.247.842.283,1.508.456,1.2.578.562.55.831.7.531.559.842,1,.218.872.135.825.2.511.738.351,1.123.256.675.2.885.284,1.622.541.664.152,1,.132-.145,1.375-.041.995-.115.663-.53.56-.208.076-.748.161-.271.161-.218.511-.052.37.01.511.271.18.114.019.458.247.073.19-.052.427-.145.332.27.8.2.284.239.18.083.484-.083.426-.114.418-.4.265-.322.37-.281.8-.166.673-.073.531.177.549.385.351.146.445.177.493-.1,1.269-.155.778-.052.512-.426,1.072-.209.654-.2.417-.364.513.458.056,2.714.18.947-.132.831-.056,2.278.465,2.1.587,2.891.825,1.123.644,1.135.767,1.175.635.457.427.874-.123.675-.076.406.53.239.569.187.445.2.541.426.7.166-.057.521-.142.457-.569.187-.255.479-.132.478.406.114.275.365.2.425-.141.312-.418.292.683.188.085.363-.275.384-.293.354.17v.427l.1.389.884.123.437.029.51-.446.041-.53.478.009v.332l.031.484.208.047.781-.464.374-.275.78.588.738.312.707.218.717.095.6.018.186.048,1.332.218.312.019-.1,1.554-.084,1.308-.166,1.611.01.379,1.487.048.353.236.749,1.328-.052.815-.23.682-.071.559.145.977.042,1.051-.01.92-.135,1.725-.26,2.474-.2.919-.333.332-.271.1-.54-.037-.676-.266-.364.549-.655,1.176-.2.274-.447.332-.3.55-.01.615.042.617.021,1.64.207.739.136,1.109-.094.673.073.246.364.124.634.161-.333,1.336-.239,1.137-.344.8h-1.278l-1.29.037-1.309.057-1.55.1-1.622-.133-.458.976-.093.654.364.617.583.654.915,2.17.427,1.389.031.157-.468-.076-.7-.318-.624-.428-.354.174-2.038,1.618-.78.738-1.143.8-.739.3-.415.4.093.476.364.611.343.175.656.278.758.65.863.921.469.634-.011.643-.1.476-.427.46-.541-.048-.769-.571-.562-.682-.593-.127-.447.222-.6.27-.572.151-.634.151-.635.095-1.081-.024-1.309-.523-.552-.341-.707-.048-.614.349-.717.389-.124.689-.146.341-.645-.1-.624-.151-.582-.11-.822-.135-.374.357-.738,1.119-.644,1.762-.4,1.9-.282,2.484-.135.491-.541.461-.437.349-.156.508.135.7.135.825-.083.317-.281.491-.27.246-.281.587.281.23.541,1.016-.021,1.6.26,1.3-.041.286-.26.373-.343.277-.281.381-.083.564-.155.643-.728,1.032-.333.016-.976-.151-2.4-.349-1.684-.135-2.4-.174-1.5-.207-.218.136-.125.372-.239.826-.8.389-.478-.286-1.881-.936-.75-.492-.821-.421-.9-.658-.686-.4-.146.444-.011.206-.228.762-.7,1.159-.863.722-.384.563.2,1.023,1.009,1.7.219.8.186.508,1.03.912.374.254.624.468.665.675.478.333-.031.492-.332.35-.3.1-.572.024-.55-.477-.229-.523-.406-.445-.531-.285h-1.394l-.375.024h-.373l-.531-.111-.457-.223-.406-.253-.437-.127-.249-.4v-.6l-1.123-.713-2.121-1.342-2.121-1.9-1.487-.636-1.05-.365-.707-.158-.6-.278-.821-.428-.52-.278-1.092.7-.322.4-.468.6-.458.9-.645.857-1.05.333-.946.714-.157.333-.156.358-.625.333-.166,1.659.156.611-.042.412-.342.643-.312.547-.281.651-.364.46-.655-.055-1.03-.547-.52-.056-.676.072-.167-.286-.468-.238-.406-.2-.489-.174-.7-.246-.291-.286-.1-.468-.145-.341-.281-.4-.312-.341-.541.269-.8.246-1.06-.413-.115-.413-.052-.174-.229-.08-.978.168-.665-.017-.27.4-2.475-.1-.219-.024-.332-.151-.5-.126-.625.143-.384.238-.239.278-.24.047-.218-.348-.822.134.073.762-.187.38-.385.635-.706.769-.282.048-.624-.015-1.247.031L1132,775.6l-.541-1-.082-.6-.656-1.976-.062-.261-.291-.533-.448-.619-.425-.523-.438-.509-.426-.317.041-.238.115-.563-.686-1.056-.426-1.11-.438-.642.281-.612.323-.079.447-.024.415.04.937.056.634-.135.6-.2.529-.317.541-.3.427-.326.406-.222.946-.222.884-1.032.052-.532.1-1.087.291-1.079.072-1.659-.041-.888.114-.651.031-.634.073-1.555.353-.874.291-.325.313-.341.239-.459.322-1.357-.208-.421.021-.277.26-.262.3-.571.218-2.214.28-.912.167-.825-.6-.04-.978.262-1.664,2.079-.529.967-.593.612-.79.166-.947-.269-.519-.064-.635-.063-.613-.159-.374-.317-.406-.246-1.7,1.23-.644.746-.417.246-.156-.786-.9-.158-.333.143-.365.492-.79.92-.468.54-.364-.127.083-.413.187-1.1.323-.968.373-.65.469-.507.2-.588-.157-.745-.364-.857-.395-1.237-.572-1.619.125-2.364.031-5.378.322-1.724" transform="translate(-1112.85 -661.204)"  stroke="#fff" stroke-linecap="square" stroke-linejoin="bevel" stroke-width="1" fill-rule="evenodd"/>
      <text id="274" transform="translate(34.54 63.428)" fill="#fff" font-size="13"  font-family="OpenSans-SemiBold, Open Sans" font-weight="600"><tspan x="0" y="0"></tspan></text>
    </g>
    <g id="_275_Nandgaon" data-name="275 Nandgaon" transform="translate(2278.457 258.394)">
      <path id="talId275" fill="#7DB8EC" title="Nandgaon Taluka" data-name="Nandgaon Taluka" d="M1247.375,818.934l-.551-.1-.4-.113-.52-.133-.415-.038-1.02.143-.623.056-.426.01-.156-.464-.084-.8.073-.749v-1.089h-.769l-.655-.048-.354-.256-.4-.465.01-1.336-.083-.35-.624-.285-.936-.067-1.039-.094-1.675.029-3.1.189-1.705.048-.1-.493.145-1.015-.032-.17.053-.1.062-.408.042-.6-.135-.693-.125-.645-.1-2.094-.447-.521-.031-.389-.01-.636v-.578l.02-.56V803.2l.146-1.2.208-.483-.052-.634-.717-.446-.822-.36-1.4.037-.177-.184-.5-.048-.375.022-.915-.033-.188-.02-.135-.061-.021-.159-.032-.324-.031-.843-.073-.716-.052-.358-.166-.118-.219-.1-.333-.021-.28.053-.052.02-.053.021-.062-.011-.115-.074-.082-.022-.063.062v.123l-.073.024-.052-.053-.042-.063-.073.021-.01.061-.073-.022-.073-.071-.052-.085-.052-.113-.052-.095-.031-.085-.073-.055-.1-.04-.052-.082-.022-.118-.01-.1-.115-.021-.166.041h-.1l-.114.017-.2-.011-.115.031-.084.14-.093.056-.084.035-.094.02-.072.017-.083.035-.01.106v.069l-.042.065-.125.087-.062.029-.072.011-.042-.037-.094,0-.031.076-.083.152-.114-.005-.1.06-.333.048-.156-.057-.031.062.042.109.094.054.063.128-.115.143-.083.022-.115.033-.135.026-.052.054.052.118.031.117-.062.139-.02.055-.084.123-.052.13-.114.114-.155,0-.094.107-.177.139-.135.105-.166.04-.208.031-.333-.05-.228-.057-.115.031-.062.166-.052.125-.125.063-.083-.024-.125-.078-.083-.117-.135-.073-.135.042-.51.329-.271.294-.25.178-.281.137-.365-.005-.561-.015-.063.37v.408l.052.45.177.133.322.128.312-.02.468-.047.676-.2.479-.217.489-.19.437-.379.281-.052v.26l-.292.355-.311.65-.562,1.057-.52,1.119-.5,1.071-.437.838-.437.455-.27.3-.332.171-.521.014-.468-.1-1-.109-.551-.076-.415.152-.427.147-.26.02-.509.065-.281.033-.26.19-.323.569-.364.393-.1.109-.186.217-.2.191-.114.375.25.506.248.36.145.36.083.285.125.436.01.393-.26.195-.675.124-.469-.043-.966-.191-.957-.111-.187-.121-.177-.074-.208-.1-.448-.109-.468-.091-.26-.061-.363-.067-.125-.113-.021-.1-.01-.173.041-.434v-.322l.042-.145.063-.1.041-.11.041-.1-.021-.118-.042-.074-.1-.08-.187-.087-.042.1-.01.137-.042.113-.239.42-.2.271-.177.173-.093.04-.125.035-.145.017-.24,0-.468-.017-.156-.021-.115-.017-.2-.126-.282-.195-.062-.041-.093-.042-.094-.023-.1.02-.115.061-.229.175-.073.183v.051l-.01.086.01.195.021.092.083.187.239.3.042.065.031.063.041.068-.011.093-.114.1-.125.053-.229.139-.145.065-.1.094-.187.246-.239.335-1.02-.435-.509-.208-.073-.379-.1-.673-.447-.208-.624-.246-.365-.408.261-.929.155-.464.146-.4v-.531l-.343-.351-.562-.274-.208-.276-.3-.435-.457-.664-.51-.882-.748.617-.957,1.213-.966.369-.416.048-.581-.152-.51-.18-.374-.2-.791-.293-.551.132-.562.446-.415.493.1.379.208.417-.177.371-.52.227-.915.028-1.414.028-1.393.56-.916.133-1.144.189-1.164.113-.468-.18-.448-.256-.655-.114-1.092.189-1.165.455-.7.275-.5.152-.146-.19.125-.35L1177,809l-.5-.294-.561.274-.385.3-.271-.152-.468-.36-.343.143-.291.4-.322.6-.625.579-.26.293-.353.55-.25.872-.811,1.147-.676-.228-.79-.2-.541.247-.676.332-1.944-.834-.5-.54-.561-.341-.624-.228-.5-.332-.758-.265-.583.217-.531.55-.374.332-.333-.341-1.081-.276-.5.152-.478.17h-.343l-.9-.019-.28.189.01.891-.2.285-.239-.143-.229-.379-.489-.455-.613-.37-.769-.388-1.009-.379-1.924.341-.686-.208-.655-.408-.853-.389-.968-.483-.115-.35.135-.408.26-.323.187-.37-.082-.388-.448-.228-.613-.17-1.008-.048-.281.209.052.6-.167.417-.468.095-1.029-.3-.4.124-.49-.053-.218-.312-.25-.441-.5-.882-.323-.057-.654.3-.271.18-.8.54-.6.616-.645.508-.489-.037-.166-.057-.386.019-.239.2-.177.213-.218.095-.458-.071-.572-.133-1.165-.73-1.184-.663-1.062-.326.125-.313.967-3.659-.343-.493-.9-.265-.686-.569-.281-.606-.27-1.953v-.815l-.468-2.483v-1.421l-.343-1.062,1.237-.872.946-.53.718-.4.81-.531.344-.341.926.189,1.331-.265,1.446-.323,1.154.095.738.115,2.235.095-.072-4.36,1.268-1.517.416-1.763.894-2.389.323-1.5.737-.455.021-4.057.437-1.308-.01-.43.676-.072.519.057,1.03.547.655.055.364-.46.281-.651.312-.547.342-.642.042-.412-.156-.611.166-1.659.624-.333.156-.357.157-.333.946-.715,1.049-.333.645-.857.458-.9.467-.6.323-.4,1.092-.7.52.278.821.428.6.278.708.158,1.05.365,1.487.635,2.121,1.9,2.121,1.341,1.123.713v.6l.249.4.438.126.4.254.458.223.531.111h.374l.374-.024h1.393l.531.285.406.445.229.523.55.476.573-.024.3-.1.332-.35.031-.492-.478-.333-.666-.675-.623-.468-.375-.254-1.03-.912-.187-.508-.218-.8-1.01-1.7-.2-1.023.384-.564.864-.722.7-1.158.228-.763.011-.206.146-.444.686.4.9.659.821.421.75.492,1.882.936.478.286.8-.389.239-.826.125-.372.219-.135,1.5.207,2.4.173,1.685.135,2.4.35.977.151.333-.016.728-1.032.156-.643.083-.563.281-.381.344-.277.26-.374.041-.286-.26-1.3.021-1.6-.541-1.015-.281-.23.281-.587.27-.245.281-.492.084-.317-.136-.826-.135-.7.156-.507.437-.35.541-.46.135-.492.281-2.483.4-1.9.644-1.762.739-1.119.374-.357.822.135.581.11.624.151.645.1.146-.341.125-.689.716-.389.615-.349.707.048.552.341,1.31.523,1.082.024.634-.095.635-.151.572-.151.6-.271.448-.221.593.127.561.682.77.571.541.048.426-.46.1-.476.01-.643-.468-.634-.863-.921-.759-.65-.656-.278-.343-.174-.364-.612-.093-.475.415-.4.739-.3,1.144-.8.78-.738,2.038-1.618.354-.175.623.429.7.317.468.076.083.407.207.061.291-.009.427-.033.291-.1.281-.156.259-.086.292.218.135.246.021.554.135.285.177.564.062.35-.042.92-.052.559-.136.512-.208.535-.623.5-.26.181-.3.35-.052.7-.25.872-.281.436-.27.37-.093.374.114.227.115.1.217.128.24.105.166.085.458-.224.509-.312.364-.17.239-.085.323-.109.727-.322.344-.261.946-.441.208.081.157.36.1.365.093.465.208.189.333.2.239.267v.227l-.1.455.051.673.188.787.125,1.6.156.862.177.63.125.294.271.37.27.19.291.18.6.228,1.133.517.364.16.208.423.115.541v.606l.052.4.072.312.271.11.166.038.3.01.343.067.417.137.229.194.291.3.749.683.239.232.218.237.218.161.271.232.312.228.229.347.25.786.135.417.062.313.031.271-.051.35-.114.167-.135.094-.333.09h-.323l-.343.005-.509-.033-.344-.015-.187.095-.187.376-.093.213-.093.317-.178.332-.217.426.021.213.457.176.333.284.343.129.759.4.447.223.323.149.364.126.27.213.146.119.25.3.156.391.073.313.124.282.135.182.125.114.083.033h.218l.167,0,.229-.021.208-.015.135.024.135.085.1.14.167.207.052.123.062.2.083.147v.13l.011.328.124.357.041.3.032.146-.042.285-.084.119-.27.141-.2.678.291.261.186.3.343.345.218.279.021.37-.135.35.063.341.281.38.031.2-.063.247-.083.241-.083.323-.032.559.062.721.177.412.084.351.2.545.333.706.041.507.145.4.124.195.219.128.26.057.4.123.031.578-.053.535-.1.8.218.474.146.389.01.558-.281,1.2-.291.156-.374.009-1.05.033-.073.369.031,1.682.292.565.01,1.664-.083.658-.25.393-.239.461-.135.536-.052.469.8.72,1.061.971.561.36.956.157.646.014.249.029.406.07.51.043.53.137.791.427.291.351.249.247.229-.01.593-.138.135-.052.4-.079.592-.057h.916l.728-.289,1.05-.009.635-.034.291-.067.177-.141.176-.328.219-.195.364-.028.719.17.352.113.281.18.2.29.312.417.571.1,1.02.118.728.009.27.105-.145,1.592-.094,2.465-.333.445-.478.228-.5.246-.769.133-.718.152-.955.141-.927.143-.686-.152h-.489l-.374.181-.021.312.135.464.125.578.354.721.021,3.649.042.663.437.105.519.009.541-.009.687.1,1.279.2.966.037.031,2.024.083,1.3.021,1.326-.1,1.062-.083.692-.031.863-.187.379-.073.455-.094.232-.374.071-.146.175-.063.118-.072.048-.136.043-.1.143.052.17.063.128.052.217-.063.124-.124.08-.115.161.073.285.135.076.2-.039.146.133.135.275.166.237.073.18-.177.28-.073.142.021.251-.062.342.1.35.073.208.115.176.156.237.177.152.188.27.1.194-.052.469-.177.682-.582.048" transform="translate(-1132.92 -734.56)"  stroke="#fff" stroke-linecap="square" stroke-linejoin="bevel" stroke-width="1" fill-rule="evenodd"/>
      <text id="275" transform="translate(40.914 53.96)" fill="#fff" font-size="13"  font-family="OpenSans-SemiBold, Open Sans" font-weight="600"><tspan x="0" y="0"></tspan></text>
    </g>
    <g id="_282_Yevla" data-name="282 Yevla" transform="translate(2247.574 328.189)">
      <path id="talId282" fill="#7DB8EC" title="Yevla Taluka" data-name="Yevla Taluka" d="M1103.583,815.685l2.445.17,1.954.171,1.269.246,1.747.265.021-4.549,2.288.511,1.882.284.582.323.271,1.156,1.081.19.676.265.759.4,1.06-.246.874-.721.53-.55h1.424l.7-.435.1-.512-.479-1.232-.135-1.176-.468-1.156-.135-2.6-.76-1.062.136-.8.738-.91.738-.4h1.913l1.31.171,1.747.341,1.112.19.624.473-.114.588-.229.549.5.455.946.077,1.56-.437,1.279.4.894.039.947-.152.8-.626.156-.445,1.061.326,1.186.663,1.164.73.572.133.458.071.218-.095.177-.213.239-.2.385-.019.166.057.489.037.645-.508.6-.616.8-.541.27-.18.655-.3.323.057.5.882.25.441.219.312.489.053.394-.124,1.03.3.467-.095.167-.417-.052-.6.281-.209,1.009.048.614.17.447.228.083.388-.187.37-.26.323-.135.408.115.351.966.483.853.389.655.408.687.208,1.924-.341,1.009.379.769.388.614.37.489.454.228.379.239.142.2-.285-.01-.891.281-.189.9.019h.344l.479-.171.5-.152,1.082.276.333.341.374-.332.531-.55.582-.217.759.265.5.331.623.228.562.341.5.54,1.944.834.676-.332.54-.246.791.2.675.228.812-1.147.249-.872.353-.55.261-.293.624-.578.322-.6.291-.4.343-.143.468.36.271.151.384-.3.562-.274.5.294-.031.454-.125.35.146.19.5-.151.7-.275,1.164-.455,1.092-.189.655.113.448.255.468.18,1.165-.113,1.144-.189.915-.133,1.393-.559,1.414-.028.916-.028.519-.228.177-.37-.208-.417-.1-.379.416-.493.562-.446.551-.132.791.293.374.2.509.18.583.152.416-.048.966-.369.957-1.213.749-.617.508.882.459.664.3.436.208.276.561.274.344.351v.531l-.146.4-.156.464-.26.93.364.407.624.246.447.208.1.673.073.379.51.208,1.019.436-.011.065-.01.02.01.068-.052.166-.031.042-.041.073-.083.155-.052.152v.117l-.021.082-.073.06-.073.029-.072.029h-.229l-.031.052-.042.076-.021.106v.02l.01.079.032.1.062.106.021.06.031.1-.021.057-.042.052-.021.03-.041.057-.084.093-.072.116-.032.057-.021.058.011.074.021.076.052.043.052.052.031.027v.069l-.021.041-.073.027-.062.025-.052.046-.042.065.062.126.354.423.322.359.353.389.208.465.073.284-.062.446-.208.663-.052,1.355-.021.365-.166.408-.115,1.081-.02.468-.01.733v.208l.01.161.083.124.187.165-.063.091-.02.18-.208.2-.093.068-.093.026-.135-.024-.115-.04-.114-.072-.031-.132.011-.118v-.109l-.063-.062-.125.04-.073.034-.115.044-.135-.009-.146.013-.083.043-.01.121.02.147.052.128.073.055.114.024.156.151.01.24.01.19.042.2.052.1-.021.08-.1.052-.135-.012-.146-.035-.124.023-.042.256-.052.228-.021.1-.073.054-.114.007-.125-.009-.062.069.021.12-.01.112-.041.088-.073.052.031.1.062.08.1.048.093.043.124,0,.146.055.1.1.083.053.146.073.125.084-.021.168-.218.056-.115-.047-.134-.009-.125.045-.1.144.031.161.052.21v.132l-.031.14-.083.13-.125.108-.125,0-.021-.086v-.289l-.167-.007-.1.036v.149l.052.034.094.115-.063.072-.062-.013-.1-.05-.094.037-.073.1-.021.095.083.175.239.161.2.086.25.042.448-.023.624-.115.582-.066.749-.076,1.008-.018.489-.024.5.029.457-.005.4.048.115.089-.135.152-.1.289.072.422.2.645.115.521.063.507.041.777.01.508.042.313.062.109.063.26.094.318.062.4.146.564.291.516-.022.782.042.626-.218.076-.822.08-.821.081-1.643.213-.572-.052-.354-.029-.571-.052-.562.014-.042.341.115.763.042.588.063.545.166.535.178.35.218.314.291.246.219.393.041.465.249.432.261.469.239.46-.1.261-1.061,1.3-.676.758-.624.427-.166.028-.27.143.031.246.146.336.125.247.134.232.084.266.083.445-.021.332.323.578.27.328.1.185.114.427.073.431-.1.5.114.161.208.156.2.09.27.1.156.175v.19l-.042.25-.219.252-.239.118-.343.137-.677.019-.873-.085-.447-.067-.51-.094-.477-.1-.708-.02-.219.1-.477.616-.271.484-.374.351-.218.4-.177.535-.124.474-.073.36-.281.616-.1.213.084.313.166.222.188.3.042.28-.177.351-.552.53-.592.436-.021.322.052.654.427.938.115.682-.022,1.114.136.906-.032.336-.145.142-.2.138-.291.142-.4.18-.374.052-.448-.052-.375.052-.363.271-.353.508-.011.5.031.313-.052.359-.166.522-.073.545-.031.521.052.864-1.238.151-2.173-.086-.8-.01-1.351-.246-2.35-.256-1.673-.408-.812-.065-1.217-.03-2.256.03-1.539.046-1.456-.417-.812-.076-1.955-.047-2.537-.322-1.217-1.006-.593-.8-.7-.721-.551-.341-.77-.218-.759-.293-1-.5-1.82-.825-.935-.265-.864-.142-.675-.009-.864.161-.187.37.031.625-.2.654-.916-.019-.769-.037-.437-.2-.281-.625-.54.161-.635.1-.426.161-.519.3-.437-.075-.779-.047-.073.444-.312,1-.1.256-.332-.047-.365-.109-.758-.061-1.134-.142-.187-.061-.1-.109-.083-.256-.031-.224V859.9l.1-.26.083-.294.177-.5.135-.18.073-.161v-.161l-.041-.213.1-.109.145-.118.135-.156.084-.138.021-.166-.083-.194-.031-.18v-.63l-.084-.113-.145-.17-.042-.19.115-.18.114-.152.094-.217-.01-.19.041-.484-.073-.217-.094-.3.166-.493-5.251-.1-.166.3-.229.569-.343,1.062-.489,1.147-.531.891-.666.6-.769.465-.7.18-.665.076-.977-.132-.853-.133-1-.38-2.9-.322-2.256-.275-1.477-.294-1.6-.19-1.455-.123.02.341-.166.378-.094.361-.634.417-.135.208-.208.284-.323-.123-.457-.123-.624-.189-.759-.285-.4.246-.2.578-.032.682-.218.891-.676-.123-.645-.133-.728-.161-.738-.047-.156-.484-.021-.446-.042-.521-.031-.456-.073-.568-.052-.684-.146-.749-.5-.085-.614.028-1.081-.047h-1.685l-1.029-.209h-.978l-.8.048-.759-.142-.4-.161-.3-.265-.146-.436-.021-.522.167-.578.208-.445.375-.18.508-.266-.062-1.032.032-.511-.032-.361.208-.426.187-.256.187-.739.291-1.289-4.929.1-.78-.123-1.03-.256-.644-.189-.51.151-.551.19-.177-.237-.207-.749-.573-.759.333-1.952.7-.086,1.02-.066,1.144.171,1.3.237,3.077.17.125-.237.021-.417v-.37l-.177-.408-.416-.369-.208-.578-.571-.285-.843.076-1.258.038-1.04-.095h-2.256l-.78-.143.375-.426.01-2.759,3.015-.132.468-.19.322-.152.281-.426-.176-.341-.354-.455-.052-.379.176-.379.927.048,2.505-.295,2.079.161,2.215-.161.031-3.478-.812.018-.831.038-.375-.228-1.726-.219-.405-.1-.156-.455-.115-.616-.114-.778-.1-.986-.094-.521-.634-.1-.729.019h-.593l-.988-.171-1.008-.048-.281-.208.073-.4.572-.483,1.425-1.792.478-.559.707-.834,1.425-.663-.541-.4-.551-.217-.666-.124-.25-.332-.125-2.265-4.336-.076-1.227-.01-.79-.256-.083-.521-.115-.456-.052-.417.219-.388.291-.3-.062-.37-.623-.236-.26.038-.354.313-.665.265-.115-.076-.062-.986.427-.663.446-.691" transform="translate(-1102.71 -801.855)"  stroke="#fff" stroke-linecap="square" stroke-linejoin="bevel" stroke-width="1" fill-rule="evenodd"/>
      <text id="282" transform="translate(44.796 33.166)" fill="#fff" font-size="13"  font-family="OpenSans-SemiBold, Open Sans" font-weight="600"><tspan x="0" y="0"></tspan></text>
    </g>
    <g id="_277_Niphad" data-name="277 Niphad" transform="translate(2166.527 321.758)">
      <path id="talId277" fill="#7DB8EC" title="Niphad Taluka" data-name="Niphad Taluka" d="M1102.043,861.559l-1.093-.075-.383-.18-.344-.456-.375-.487-.343-.18-.281-.009-.322.194-.915,1.043-.384.63-.167.213-.083.259.063.128.094.089.062.124-.01.117-.041.082-.157-.009-.083-.028-.135-.048-.1-.033-.187.026-.094.057-.1.051-.114.091-.084.08-.094.074-.156.135-.125.083-.041.175.011.178.01.152-.115.084-.1.024-.176-.012-.156-.026-.2.019-.229.05-.5.085-.4.088-.291.1-.208.082-.239-.028-.094-.059-.125-.043-.166.081-.146.214-.135.073-.135-.089-.083-.058-.135-.123-.156-.069-.2-.013V863.9l-.166-.293h-.53l-.624.015-.208-.057-.343-.166-.291-.108-.572-.054-1.2-.108-.655-.313-.665.047-.312.446-.271.36-.343.1-2.537-.01-2.308-.284-2.278.038-2.516-.019-.344-.55-.821-.341-1.206-.265-1.28-.389-1.694-.559-2.08-.673-1.539-.627-.478.389-.27.522-.551,1.9-1.4,4.009-.572,1.222-1.839-.218-1.9-.133-.479.673-.654.417-.979.3-1.008.218-1.134.378-.281.133-.946-.948-.686-.3-.842-.085-.812-.237-1.206-.7-.76-.578-1.528.029-1.258-.17-.738-.039h-.625l-.239-.474.26-.256.333-.18.447-.606.219-.617-.031-.237-.926-1.129-.623-.862-.541-.3-.572-.18-.4.113-.718.256-.354-.331-.686-1.082-.582-.615-.084-.455.1-.587h-.416l-.541.246-.665.189-.6.1-1.009-.17-.332-.162-.6-.266-.459-.161-2.245-.114-1.019-.143-.7-.691-.114-.617.083-.417.447-.067.624.076.343-.208.323-.806.083-.53-.5-.531-.114-.322v-.625l-.156-.494-.687-.218-.686-.113-.353-.219.332-1.3.01-1.394.437-1-.01-1.962.333-.465.779-.1.322-.236.583-2.124.259-1.431.083-.806,1.383-.351.291-.265.062-2.284-.2-1.251-.239-.6-.863-.274-.748-.18-.77-.057-1.019-.208-1.289.256-.936.473-.561.474-.384.086-.583-.142-.28-.189-.531-.019-.332.208-.27.124-.53-.037-.323-.181-.447.009-.094-.975v-.664h-.343l-.5.322-.458.124-.292-.285-.219-.8-.551-1.281-.3-.776.062-.389.322-.6.135-.645.177-.815.488-2.891.437-1.5.3-2.417.873-.825.884-.483.541-.37.77-.464.311-.323.864-2.2.353-1.184.146-1.147.405-1.119.375.124.728.682.665.465.779.085.5-.057.541-.01.592-.076.332-.976.157-1.194.208-.863.073-1.44.2-1.745-.01-4.038.219-.882,1.393-.833.291-1.811.208-.521,1.5.056.686-.028.323-.521.686-.1.531-.039.343-.057h.707l1.351.417.968.114.675-.114.312-.132.863-.152.458.19,1.04.209.915-.8,1.269-.815,1.362-.359.915.228,1.382.17,1.083.037.758-.019.9-.189.457-.152.624.076,2.673.645,1.653.189.738-.246.3-.587.25-1.082.811-1.933.458-.682,1.2-.19.926-.531.686-.588.187-.209,1.175.436.593.835.26.587-.021,1.062v.872l.3.532,1.009.474.509.322.968,1.024v.758l.155.228,1.019-.512.821-.19.832.246.832.437.666.208.7.266.52.095.582.019.416.152.041.682-.073.663,2.954-.114,5.875-.209.3,5.914,1.175.739,2.017-.53,1.227-.076.759-.076.6-.039.573-.15.114-.815,5.324.094.135,3.355-.094,1.042,1.591.246,1.82.266.894-.038,1.155.171.3-.038-.094,1.138-.447.691-.426.663.062.986.114.076.665-.265.354-.313.26-.037.624.236.062.37-.291.3-.218.388.052.417.114.456.084.521.79.256,1.227.01,4.336.076.125,2.265.25.331.666.124.551.218.541.4-1.425.663-.707.834-.478.559-1.425,1.792-.572.483-.073.4.281.208,1.008.048.988.17h.592l.728-.018.634.1.093.521.1.986.115.778.114.616.156.456.405.1,1.726.218.375.228.833-.038.81-.019-.032,3.478-2.215.161-2.08-.161-2.506.295-.926-.048-.177.379.052.379.354.455.177.342-.281.426-.323.152-.468.19-3.015.132-.01,2.758-.375.427.78.143h2.256l1.04.094,1.258-.038.842-.076.572.285.208.578.416.369.176.408v.37l-.021.417-.124.237-3.078-.17-1.3-.237-1.144-.171-1.019.067-.7.085-.333,1.952.573.759.208.749.177.238.551-.191.51-.151.644.189,1.03.256.779.123,4.929-.1-.291,1.289-.187.739-.188.256-.208.427.031.361-.031.511.062,1.033-.509.266-.374.18-.208.445-.167.578.021.522.146.435.3.266.4.161.759.143.031.484-.021.322-.1.427-.052.332-.146.218-.3.114-.427.028-.219.133-.249.426-.229.663-.28.683-.354.341-.613.1-.281-.18-.3-.389-.354-.5-.114-.37-.3-.342-.49-.246-.362-.331-.2-.313-.218-.568-.5-.653-.957-.911-.042.635.042,1.034.146,1.45-.167,1.119-.115.7-.26.871-.312.769-.489.549-.292-.18-.26-.256-.614-.465-.946-.313-1.789-.115-.5.024-.489-.01-.593.02-.426-.046-.426-.047-.386-.016-.446.026" transform="translate(-1024.46 -795.848)"  stroke="#fff" stroke-linecap="square" stroke-linejoin="bevel" stroke-width="1" fill-rule="evenodd"/>
      <text id="277" transform="translate(34.844 42.597)" fill="#fff" font-size="13"  font-family="OpenSans-SemiBold, Open Sans" font-weight="600"><tspan x="0" y="0"></tspan></text>
    </g>
    <g id="_279_Sinnar" data-name="279 Sinnar" transform="translate(2146.656 383.868)">
      <path id="talId279" fill="#7DB8EC" title="Sinnar Taluka" data-name="Sinnar Taluka" d="M1006.682,893.708l.738-.095.655-.322.7-.512.769-.483.582-.332.27-.227.2-.379-.094-.578-.259-.361-.125-.692.26-1.232.9-.778,1.363-.388.437-.569-.375-.617-.478-.388-.343-.6-.1-.417.447-.085.832-.076.728-.265.7-.237.572-.219,1.04-.881.7.047.676.143.79.265.468.067.79-.123.156-1.347-.208-.938-.207-.588-.021-.635-.25-.313.021-.445.156-.218.167-.266.031-1.971,1.341-.759.666.067.749.493,1.185.493.541.4.458.256.374.085.541-.038-.26-1.156-.291-1.024-.281-.691.354-.834.136-.086.977.047,2.485-.237,1.071.057.5.057.8-.048-.229-.853-.935-1.28-.271-.71-.291-1.782-.1-.73-.031-.645.468-.578.78-.3.676-.284,1.258-.958,1.155-.379.312.227.25.361.3.2.436-.407-.125-.634-.374-.437-.77-1.09.239-1.061.343-.284.437-.7.759-1,.052-1.507-.249-.862-.063-.626.094-.408v-.578l1.019.142,2.246.113.458.162.6.266.332.161,1.009.171.6-.1.666-.19.541-.246h.416l-.1.588.083.455.583.616.686,1.082.353.331.717-.257.406-.113.572.18.541.3.624.862.925,1.129.032.237-.218.617-.447.606-.333.18-.26.256.239.474h.624l.738.038,1.258.171,1.529-.029.758.578,1.207.7.811.237.842.085.686.3.947.948.281-.133,1.133-.379,1.009-.219.977-.3.655-.417.479-.673,1.9.133,1.84.218.573-1.222,1.4-4.009.55-1.9.27-.522.479-.388,1.539.626,2.079.672,1.695.56,1.279.389,1.207.265.822.341.344.55,2.516.019,2.276-.038,2.31.284,2.536.01.343-.1.271-.36.312-.446.665-.047.656.313,1.2.108.572.053.291.109.344.166.208.057.623-.015h.53l.166.293V862l.2.014.156.069.135.124.083.057.135.089.135-.072.146-.213.166-.081.124.043.094.06.239.028.208-.082.291-.1.395-.089.5-.085.229-.05.2-.018.156.025.177.013.1-.024.114-.083-.01-.152-.01-.178.041-.175.125-.083.156-.135.094-.074.083-.079.115-.091.1-.052.093-.058.187-.026.1.033.135.048.083.028.156.009.041-.082.011-.117-.063-.124-.093-.089-.062-.128.083-.258.167-.213.385-.63.915-1.043.323-.193.281.009.344.18.374.488.343.456.385.18,1.092.077v.422l-.052.729.26,2.119.042,2.166-.042,1.057.229.1.936.063,1.862-.133.894.091.583.061.791.1.249.873.291,1.63.229,1.2-.063,1.364-.218.939-.042.45.375.1.478.155.613.133.469.08,1.508.2-.042.313.062.388.032.422.125.156.4.167,1.268.132.582.01.521.208.633.308,1.145.536.509.213,1.175.285,1.456.241.447.185.52.256.884.067.561.237-.052,2.573.146.412.374.213.4.076.511.033.519.128.437.1.8.095,1.758-.115.978.052-.094,2.081-.083,3.441.041,1.156.032,1.5-.042.393.052.175.25.062.208-.01.3,0,.353-.038.416-.038v.4l-.052.6-.187.957-.177,1.617-.011,1.479.094.307.2.189.25.238.177.284.156.256.2.165.156.109.135.17-.02.228-.073.317-.155.233-.219-.029-.281-.241-.135-.238-.344-.307-.271.246-.062.161-.093.193-.218.148-.364-.091-.167.143-.311.18-.24.019-.177.28-.1.426-.208.3-.332-.066-.292-.161-.187.161-.155.256-.146.076-.208.063-.28-.005-.271-.152.01-.275-.166-.185-.312-.085-.727-.024-.916.024-.467.048-.375.037-.531.038-.312.08-.457.171-.655.18-.177.674-.436,1.7-.27.806-.073.563.177.536.083.232.125.3.125.3.1.265-.042.28-.271.35-.26.2-.218.2-.27.194-.562.337-.145.146-.239.213-.344.1-.385-.156-.509-.218-.281-.194L1116.4,905l-.54-.341-.7-.4-.645-.355-.208-.08-.915-.341-.79-.209-.863-.218-.6-.114-.416-.033-.375-.08-.7-.057-.531,0-.229.113-.229.541-.156.539-.374.953-.4,1.076-.166.484-.478.321-.27.413-.729.213-.582.19-.665.341-1.092.478-.541.295-.312.317-.125.725-.1.541-.217.214-.23.071-.363-.189-.977.024-.541.028-.562.3-1.508.261-.447.137-.124.327-.084.522-.031.323-.26.042-.489-.195-.488-.194-.594-.176-1.383-.08-.978.08-.728.019-.821-.056-.728-.09h-.592l-.54.071-.417.351-.9,1.032-.333.194-.395.085-.447-.042-.364.042-.479.133-1.061.138-.3.061-.229.133-.467.369-.1.285-.031.6.02.422-.062.536-.156.791-.343.967-.427.436-.332.341-.2.242-.084.445.063.422.021.454-.281.916-.406.947-.156.47-.062.435.031.626-.509.265-.344.132-.093-.3-.146-.228-.229-.218-.312-.194-.26-.217-.364-.209-.489-.247-.3-.275-.467.346-.24.171-.187.269-.1.323.187.128.489.436.114.36-.1.152-.177.236.031.289.157.189.155.233.375.369.624.9.094.294.052.326-.052.256-.167.185-.322.156-.323.052-.707-.071-.115.7-.239.119-.219-.009-.156.16-.135.526-.1.3-.363.537-.77.739-.167.118-.281.27-.134.332-.146.455-.115.5-.208.844-.271.413-.176.274-.281.432-.541-.371-.229-.256-.25-.095-.593.085h-.322l-.354.019-.385-.076-.561-.332-.239-.141-.229-.176-.312-.17-.167-.028-.083.3-.021.441.021.28-.021.283-.26.222-.312.124-.343.042-.77-.389-.186-.246-.25-.346-.2-.327-.218-.37-.374-.284-.323.014-.467.175-.312-.175-.468-.378-.312-.323-.167-.915-.01-.208-.26-.185-.333-.048-.521-.057-.259-.171-.218-.322-.5-.029-.646.005-.457.033-.6-.057-.583-.213-.655-.1-.635-.048-.468-.061-.229-.1-.239-.209-.3-.322-.344-.308h-.385l-.956-.053-.759-.033-.26-.038-.208-.318-.572-.293-.769-.139-.78-.061-.083-.237-.437-.365-.311-.08-.406.165-.312.085-.489.138-.426.375-.239-.015-.167-.057-.208-.132-.2-.223-.26.151-.208.289-.208.191-.249.184-.312.2-.207-.052-.292-.109-.666.294-.322.048-.416-.043-.478-.128-.489.01-.613.043-.895-.365-.53-.279-.281-.46-.353-.692-.24.057-.53.037-.323.067-.343.143-.187.189-.146.242-.156.246-.208.161-.26-.062-.259-.214-.25-.179-.468-.213-.354-.113-.353.1-.27.317-.364.536-.114.1-.177-.028-.261-.147-.363-.175-.229-.128-.312-.072-.259.072-.281.013-.3,0-.312.047-.343.038-.364.071-.322.061-.322-.014-.686-.1-.406.019-.322.005-.281-.157-.156-.2-.146-.284-.145-.01-.343.161-.281-.009-.509-.237-.551-.431-.322-.128-.3-.209-.364-.526-.406-.246-.343-.241-.406-.142-.27-.119-.375-.261-.208-.25-.385-.426-.021-.878-.031-.184-.167-.142-.177-.128-.063-.195.063-.175.062-.359.166-.062.1-.072.249-.08.156.033.146.152.177.118.249.127.281.128.229.095.114-.033-.011-.232-.072-.483-.354-.64-.083-.285-.052-.317-.094-.167-.187-.251-.3-.109h-.3l-.187.07-.135-.17-.177-.255-.083-.289-.385-.545-.177-.166-.323-.1-.312-.091-.343-.365-.229-.341-.25-.545.208-.995.135-.517.354-.669-.01-.35.073-1.2.1-.668.062-.535.1-.6.051-.943-.135-.208-.208-.19-.364-.1-.291.019-.54-.015-.333-.023-.27-.081-.208-.284-.083-.289-.094-.328-.177.243-.25.61-.1.754-.208.365-.135.137-.177.109-.239.034-.26.128-.146.275-.166.114-.239-.08-.385-.138-.374-.085-.2-.038-.333.028-.187.085-.25-.1-.25-.047-.405-.118-.344-.441-.156-.323-.093-.4-.177-.341-.375-.048-.572-.009-.405,0-.312-.033-.229.085-.073.327.083.156.1.256-.052.138-.249-.138-.365-.214-.561-.161-.468.464-.322.062-.437.01-.344.174-.478.214-.354.132-.458.049-.219-.234-.374-.388-.187-.674-.343-.578-.052-.408.093-.53.3-.493.25-.7-.552-1.639-.052-.418-.177-.341-.458-.351.1-.237.406-.379.427-.464.166-.541.208-.673.073-.587-.447-.313-.572-.161-.977-.162-.562-.389-.728-.455-.987-.4-.614-.389-.655-.483-.25-.644-.437-.313-.166-.322.062-.332.156-.238.208-.379-.478-.473-.229-.228.011-.256.229-.247.375-.1.343-.086.364-.208.1-.265-.052-.427-.021-.654" transform="translate(-1005.33 -856.42)"  stroke="#fff" stroke-linecap="square" stroke-linejoin="bevel" stroke-width="1" fill-rule="evenodd"/>
      <text id="279" transform="translate(46.715 41.487)" fill="#fff" font-size="13"  font-family="OpenSans-SemiBold, Open Sans" font-weight="600"><tspan x="0" y="0"></tspan></text>
    </g>
    <g id="_272_Lgatpuri" data-name="272 Lgatpuri" transform="translate(2075.812 403.106)">
      <path id="talId272" fill="#7DB8EC" title="Lgatpuri Taluka" data-name="Lgatpuri Taluka" d="M1009.4,892.977l.021.654.052.427-.1.265-.364.208-.343.085-.374.1-.229.247-.01.256.229.228.478.473-.208.379-.156.237-.062.332.166.322.437.313.249.644.655.483.614.389.987.4.728.454.562.389.977.161.573.161.447.313-.073.588-.208.673-.166.541-.427.464-.406.38-.1.237.458.35.177.341.052.418.551,1.639-.25.7-.3.493-.093.53.052.408.343.578.188.673.375.388.218.233-.312.289.291.507.281.513.083.929-.052.787-.093,1-.363.6-.77.777-1.123.5-1.019.085-.624.133-.406.246-.187.374-.218.5-.167.342-.5.786-.073.46-.021.379-.115.441-.1.293-.135.347.042.53-.01.266.021.3-.01.2-.073.113-.115.133-.2.277.041.3-.166.548-.177.246-.167.086-.239-.057-.291-.118-.156-.219-.167-.322-.052-.28-.166-.137-.333.185-.686-.128-.416-.033-.312-.033-.323-.113-.25.1-.135.228-.021.4.125.228.291.2.322.137.426.048.51.08.291.209.323.455.478.337.094.284-.1.2-.209.076-.28-.037-.4-.057-.436.01-.375.08-.405.2-.406.507-.27.36-.177.3-.321.649-.074.659-.176.53-.271.189-.468.361-.8.379-.322.569-.224.365-.052.47.246.986.362.5,1.456.034.458.09.239.151.1.218.01.265-.083.213-.24.129-.311.052-.323.085-.364.156-.333.152-.645-.005-.44-.061-.624-.061-.189.094.119.475.094,1.108-.1.251-.232.18-.171.194-.1.36.009.385-.161.3-.237-.142-.356-.3-.331-.4-.3-.252-.223-.289-.242-.208-.038.284.024.308-.138.279-.384.279h-.184l-.271-.141-.318-.09-.279.1-.346.237-.446.3-.407.3-.612.422-.536.4-.354-.019-.338-.128-.2-.219-.227.109-.346.256-.312.27-.432.393-.114.2-.28.147-.237.014-.45-.009-.413-.033-.237.028-.18.066-.162-.033-.1-.213-.142-.274-.143-.27-.356-.052-.573.142-.712.331-.569.3-.411.18-.535.2-.46.587-.3.261-.175.408-.072.559.143,1.323v.388l-.378.332-.707.782-.283.1-.649.119-.394.209-.393.261-.223-.014-.347-.029-.748-.048-.356-.019-.454-.029-.413.109-.152.365-.076.237-.155.323-.185.2-.241.086-.336-.024-.479.066-.441-.009-.146-.128-.2-.2-.142-.113-.312-.109-.328-.052-.365.018-.2.185-.147.269-.161.195-.228.276-.152.2-.2.146-.369.118-.265.095-.934-.517-.484-.152-.379-.123-.375-.057-.335-.138-.28-.142-.237.019-.2.057-.379-.024-.237-.119-.754-.25-.174-.176-.152-.217-.166-.27-.195-.237-.274-.152-.3-.122-.289-.01-.331.067-.313.137-.432.261-.7.426-.745.578-1.431.924.037-.4.015-.2-.015-.4-.17-.825-.08-.237-.138-.25-.146-.081-.327.033-.228.043-.337.048-.308.052-.241-.034-.267-.113-.213-.148-.573-.44-.555-.232-.308-.189-.341-.2-.255-.2-.219-.17-.279-.01-.3-.048-.388-.327-.257-.242-.464-.336-.2-.043-.285.085-.086.1-.174.241-.114.138-.332.269-.326.052-.233.038-.323.024-.208-.072.067-.171.3-.189.266-.27.578-.582.3-.295.185-.271.07-.3-.331-.341-.185-.132-.137-.094-.368-.148-.267-.109-.061-.128-.019-.151-.024-.252-.246-.113-.218-.053-.388-.056-.166-.081-.265-.119-.146.052-.048.067-.1.209-.142.17-.2.166-.077-.033-.252-.184-.208-.128-.427-.195-.327-.166.132-.3.11-.252.085-.289-.019-.218-.076-.427-.223-.82-.209-.744-.251-.73-.251-1.023-.061-.493-.137-.508-.1-.46-.233-.337-.4-.311-.426-.143-.228-.124-.284-.3-.246-.294-.171-.246-.1-.389-.493-.28-.389-.294-.308-.222-.119-.28.043-.753.024-.385,0-.393-.782-.886-1-.948-.469-.71-.364-1.271-.261-.54-.119-.408-.17-.489.024-.786-.072-.389-.019-.265.019-.271-.043-.242-.151.029-.3.09-.516.128-.346.005-.345-.015-.319-.1-.4-.133-.232-.048-.37-.037-.052-.076.1-.511.109-.171.033-.318.331-.592.156-.209.138-.123.075-.19-.26-.128-.209-.137-.231-.1-.285-.1-.573-.276-.446-.247-.375-.174-.464-.242-.322-.2-.256-.119-.464-.082-.327-.17-.555-.435-.28-.115-.236-.075-.237-.133-.218-.279-.218-.242-.369-.227-.36-.18-1-.654-.04-.224v-.2l.024-.226.171-.246.554-.181.361-.033.218-.014.591.076.271-.024.166-.109.095-.256.1-.171.148-.167.128-.089.174-.019.361.1.228.076.293.029.124-.171.018-.209-.038-.28-.132-.237-.219-.54.062-.119.024-.19-.037-.183-.18-.257.014-.313.218-.279.393-.276.124-.236v-.427l-.067-.417-.094-.36-.115-.465-.189-.644-.218-.606-.962-.648-.024-.016.427-.625.037-.226-.189-.778-.55-.493-.778-.322-.454-.606-.113-.493-.266-.834-.114-.644.265-.891.758-1.195.493-.777.683-1.213.056-.645.531-1.023.721-.4.739-.456.852-.454,1.366-.664.493-.095.36-.626-.7-.456.473-.417.4-.644.474-1.232.076-1.061.076-.986-.834-.266-.151-.569.3-.91.759-.53,1.024-.436.778-.1,1-.493.228-3.014.094-.948-1-1.062-.114-.682.588-.91.721-.133.758-.208.778.587.891.569.569-.322.625-.8.455-.511.834-.456.909-.511,1.081-.53,1.9.019.588.436.93.341,1.194-.038.91-.246,1.137.133,1.5.075.854-.36.549.17.379.7.266.4.493.36.663-.152.806.313.778.294.549.218.512.124.54-.115.474-.237.3-.321.312-.408.352-.359.53.038.806.151.6-.037.446-.134.351-.312.416-.427.4-.493.465-.521.615.332,1-.189.939-.171.539.066.436.588.646.55.493.17.711-.066,1.156-.227.532-.209.786-.218.2.113-.02.682.087.6.208.673.161.806.389,1.2.739,1.432.493,1.288.369.693.218.36.493.209.739-.038.38.029.332.89.332.607.17.843.066.73.142.568.17.219.617.284.71-.389.56-.312.587-.209.93-.133,1.592-.454.825-.6.834-.209.332.1-.038.407-.265.4-.057.492.095.654.095.54-.217.445-.133.588.3,3.148.208.985h.663l.417.321.4.37,1.545,1.422.693.417,1.014-.047.483-.323.475-.663.672-.692.572-.71.437-.341.541-.294.364-.36.509-.654.322-.484,1.144-.607.883.3.385.283.635.456.333.464.155.8.208.246" transform="translate(-937.07 -874.77)"  stroke="#fff" stroke-linecap="square" stroke-linejoin="bevel" stroke-width="1" fill-rule="evenodd"/>
      <text id="272" transform="translate(24.559 39.249)" fill="#fff" font-size="13"  font-family="OpenSans-SemiBold, Open Sans" font-weight="600"><tspan x="0" y="0"></tspan></text>
    </g>
    <g id="_276_Nashik" data-name="276 Nashik" transform="translate(2091.788 345.397)">
      <path id="talId276" fill="#7DB8EC" title="Nashik Taluka" data-name="Nashik Taluka" d="M966.8,879.254l.834-3.337-.739-1.042.133-.55.4-.531.758-.683.645-.758-.928-2.009.454-.873.228-.55.114-.947.057-.91.018-1.479.266-.948.624-.8,1.252-1.364.388-1.715-.037-.872.056-.549-.17-.5-.691-.35-.777-.351-1.338-.967-.483-.122-.455.085-.541.341-.871.095-.4-.427-.541-.493-.663-.312-.246-.6.322-1.413v-.568l.057-.949.246-.483.35-.521.162-.465-.285-.474-.427-.417-.511-.427-.55-.247-.284.085-.218.456.086.332.236.284.493.246-.256.417-1.129.285-.739.161-.587-.181-.331-.4-.711-.417-.493-.1-.881.161-.673-.227-.181-.531-.2-.938-.407-.7-.247-.521-.143-.569-.066-.758-.483-.531-.635-.824L955.428,844l.219-1.915.568-1.857.464-1.782-.143-1.033-.369-.228-.616-.2-.578-.227-.635-.417-.692-.541-.739-.711-.445-.616.042-.906.195-.483.146-.45.356-.479.45-.81.342-.516.279-.38,1.1-1.729.654-.953.285-.427.241-.355.179-.412.185-.526.228-.551.3-.047.749-.009.843.076.777-.114.246-.559.5-1.393.911-1.422,1.051-1.071.351-1.536.189-.587.919.057.541.01.616.076.683.691,1.289,1.071.957,1.091,1.032-.37.493-.161.664.076.417.437.418.464.673.361,1.119.644,1.242.218.91.465.493.237.635.066,1.469-.616.237-.664.151-.607.341-.682.522.018,1.611.513.389.976.359,1.365.039.938.256.483,1.251.976.265.3-.047.5-.237.607-.228.635-.322.4.038.436.435.171.484-.19.38-.217.464-.237.465-.19.53.02.693.265.578.095.426.01,1.451-.019.634-.417.5-.379.635-.616.569-.048,1.071.029.323.6.446.085.558.019.654.265.588.522.513.454.663.446.19.379-.01,1.3.247.417,1,.379,1.2.758.284-.2.455-.161.606.048.446-.133.4-.16.814-.161.161-.559.285-.228.682-.028.551-.133.8-.294.561-.114.031,1.451.084.558.249.7.405-.142.895-.549.769-.484.863-.029,1.029.085.676.1.489.408.228.625.78.749,1.466.892.791.067.9-.048,1.237-.1.77-.284-.011-.569.146-.587,1.165-.029.832.067.894-.1.77-.2.738.152,1.259.844,1.643,1.118,1.071.607,1.29.36.4.166.426.081.634.113.51.219.395.1.271-.133.249-.228.3-.269.353-.161.416-.053.666-.2.447-.009.322.181.53.037.27-.123.333-.208.531.019.28.19.582.143.385-.086.561-.474.936-.473,1.289-.256,1.02.208.769.057.748.18.864.274.239.6.2,1.251-.062,2.285-.292.265-1.383.351-.083.806-.26,1.43-.583,2.124-.322.237-.78.1-.332.465.01,1.962-.437.995-.01,1.393-.333,1.3.354.218.686.114.686.218.156.493v.625l.115.323.5.531-.083.531-.323.806-.343.208-.624-.076-.447.067-.083.417.114.617.7.691v.579l-.094.408.063.626.249.862-.052,1.508-.759,1-.437.7-.343.284-.24,1.062.769,1.089.375.437.125.634-.436.408-.3-.2-.249-.361-.312-.227-1.155.379-1.257.958-.676.284-.78.3-.468.578.031.645.1.73.291,1.782.271.71.936,1.28.229.853-.8.048-.5-.057-1.071-.057-2.485.237-.978-.047-.135.086-.354.834.281.691.291,1.024.261,1.156-.542.038-.374-.085-.457-.256-.541-.4-1.185-.493-.748-.493-.666-.066-1.341.759-.031,1.972-.166.265-.156.218-.021.445.249.313.021.636.207.587.208.938-.156,1.346-.791.123-.468-.066-.791-.266-.676-.143-.7-.047-1.041.881-.571.219-.7.237-.728.265-.832.076-.447.085.1.417.344.6.478.387.374.617-.436.569-1.362.388-.9.778-.26,1.232.125.691.26.361.093.578-.2.379-.27.227-.583.332-.769.484-.7.511-.655.322-.739.1-.208-.246-.156-.8-.333-.465-.635-.455-.385-.284-.884-.3-1.143.608-.323.484-.509.654-.364.359-.541.294-.437.341-.571.71-.672.693-.474.663-.483.323-1.014.047-.692-.417-1.545-1.422-.4-.37-.417-.321h-.663l-.208-.985-.3-3.148.133-.588.217-.445-.1-.541-.094-.654.058-.493.265-.4.038-.408-.332-.1-.834.209-.824.6-1.593.455-.93.133-.587.209-.56.312-.71.389-.616-.283-.171-.219-.142-.569-.066-.73-.17-.843-.331-.607-.332-.89-.379-.029-.739.038-.493-.209-.218-.36-.37-.693-.493-1.288-.74-1.432-.389-1.2-.161-.806-.208-.673-.086-.6.02-.682-.2-.113-.786.217-.531.209-1.156.228-.71.066-.493-.171-.645-.549-.437-.589L978,877l-.938.17-1.005.189-.616-.331-.465.521-.4.493-.417.427-.351.311-.446.133-.6.037-.806-.151-.531-.038-.352.36-.312.407-.3.323-.475.237-.539.114-.513-.123-.549-.217-.778-.294-.805-.313" transform="translate(-952.462 -818.837)"  stroke="#fff" stroke-linecap="square" stroke-linejoin="bevel" stroke-width="1" fill-rule="evenodd"/>
      <text id="276count-2" data-name="Nashik" transform="translate(34.583 42.958)" fill="#fff" font-size="13"  font-family="OpenSans-SemiBold, Open Sans" font-weight="600"><tspan x="0" y="0"></tspan></text>
    </g>
    <g id="_278_Peink" data-name="278 Peink" transform="translate(2058.402 282.383)">
      <path id="talId278" fill="#7DB8EC" title="Peint Taluka" data-name="Peint Taluka" d="M964.349,821.247l-.189.587-.351,1.536-1.052,1.071-.911,1.422-.5,1.394-.246.558-.777.114-.843-.076-.749.009-.3.047-.54-.227-.388-.285-.522-.464-.484-.456-.672-.408-.55-.113-.616-.029-.8.17-.427.1-1.687.265-1.374.076-.474.331-.654.351-.465.124-.634.123-.464.161-.313.237-.606.6-.644-.758-.55-.085-.228-.341-.047-.607-.057-.512-.2-.578-.5-1.014-1.146-.474-.417-.541-.559.246-.578.161-.6.048-.464-.151-.645-.692-1.28-.759-.824.285-.7.094-.845.189-.834.237-.663.057-.777-.009-.711-.1-.606-.6-.721-.312-.152-.437-.17-.474-.256-.236-.2-.209-.095-.3-.037-.8-.342-.352-.806-.322v-.72l.265-.4.39-.322.18-.512-.17-.427-.1-.663-.218-1.251-.767-1.223-.587-.7-.986-.17-1.3-.038-.531-.037h-.739l-.588.019-.228-.417-.758-.313-.465-.122-.018-.721.047-.56-.1-.389-.123-.341-.067-.53-.673-.1-.6-.1-.322-.122-.541-.124-.162-.028-.606-.18-.038-.332h.294l.3-.019.436-.123.389-.152.511-.161.38-.132.851-1.173.148-.292.019-.113-.023-.161-.024-.246-.061-.15-.092-.113-.052-.135.049-.122.1-.263-.042-.14-.1-.178-.137-.1-.176-.083-.206-.057-.343-.078-.088-.126.069-.111.143-.144.085-.213.043-.535.083-.526.052-.663-.052-.142-.091-.137-.187-.1-.225-.011-.24-.029-.1-.167-.085-.157-.026-.243-.036-.226.006-.2-.078-.353-.05-.149-.073-.128-.087-.213.052-.22.066-.109.095-.094.165-.159.159-.16.028-.074-.014-.107-.137-.111-.2-.1-.159-.1-.166-.114-.092-.083-.026-.13.113-.116.112-.037.159-.038.126-.073.165-.074.365-.26.161-.074.154-.076.1-.1-.008-.172-.1-.076-.272-.042-.384.042-.172-.133.047-.206.114-.192.069-.144.064-.213.144-.515-.042-.187-.064-.161-.091-.112-.137-.071-.419-.114-.078-.107-.037-.1,0-.1-.009-.121.026-.107.161-.247.076-.1.1-.078.106-.059.13-.091.19-.1.195-.133.016-.081-.057-.071-.071-.052-.107-.04-.156-.063-.048-.038-.018-.093.024-.061.066-.063.1-.063.095-.145.006-.1-.028-.074-.074-.114-.081-.068-.163-.105-.112-.1-.142-.163-.067-.163.013-.168.178-.078.208.011h.128l.114-.026.093-.056.092-.122.062-.163-.1-.185-.073-.056-.132-.058-.251-.035-.092-.05-.069-.108-.009-.141.047-.159.057-.222.179-.482.112-.146.148-.081.161.024.148.144.225.219.143.045.068-.089-.017-.074-.012-.18-.021-.118.063-.057.135-.032.143-.018.244.059.108.078.159.107h.1l.069-.085.021-.164.114-.154.134-.05.124-.039.13-.028.121-.055.092-.114.221-.168.2-.154.047-.266-.009-.322-.313-.284-.388-1.839-.115-.389-.246-.625-.247-.322-.217-.37-.076-.464,0-1.635-.082-.654-.063-.182-.115-.213-.095-.311-.138-.339-.047-.1-.081-.147-.093-.157-.333-.365-.095-.118-.076-.092.019-.14.088-.125.063-.275-.05-.137-.007-.117.017-.111.038-.133-.033-.49-.014-.133-.022-.09-.058-.05h-.186l-.168.007-.033-.076.029-.117.073-.1.081-.152.109-.133.421-.135.076-.069.072-.135.1-.263-.195-.775-.024-.119-.1-.261-.141-.083-.211-.028-.171-.061-.185-.315-.04-.144-.019-.141-.071-.182-.088-.415-.063-.167-.058-.132-.015-.183.05-.155.114-.13.076-.1.052-.115-.016-.113-.083-.128-.187-.14-.459-.291-.119-.147-.05-.1.01-.121.04-.081.1-.12.31-.195.176-.05.185-.054.112-.041.035-.1-.074-.176-.171-.061-.019-.15.107-.242.1-.146.085-.183.728-.369.313-.161.151-.294v-.853l-.2-.389-.331-.322-.247-.369-.076-.3.161-.427.541-.351.6.048.568.189,1.138.275,1.762-.228.38-.085.389-.152.378-.295.189-.274.181-.417-.039-.521-.246-.3-.275-.493-.057-.247.115-.389.321-.284.522-.171.6.332.456.341.369.625.342.92.484.625.5.227.256-.189.143-.465-.189-.976-.295-.7.039-.407.654-.616.655-.323.435-.293.521-.2.474.143.313.3.18.455.142.739.417.446.208.019h.17l-.01-.37-.028-.369-.228-.55.2-.341.484-.189.521.246.436.247.673.3.635.191.511.067.437-.067.189-.171-.171-.427-.294-.332-.151-.066-.683-.123-.067-.123.057-.332.21-.285.445-.237.493-.142,1.271-.265.852-.143.56-.218.588-.294.483-.493.293-.426.38-.266.493-.076.265.275-.076.511-.379.474-.342.5.19.512,1.071,1.136.436.475.389.152.426-.219.171-.332v-.332l-.057-.275-.653-.284-.379-.142-.578-.522-.038-.18.285-.322.389-.2.322-.076.521.076.256.143.36.2.2-.123-.067-.351-.227-.36-.095-.218.161-.378.341-.067.465.132.35.257.18.4.483.493.341.181.446-.483.323-.256.208-.313.067-.341.151-.836.445.569.3.342.295.075.463-.4.247-.19.313-.028.417-.113.361-.285.512.209.606.408.18.275.123.417.265.4.332.17.123-.048.455-.323.426.228.341.3.522.455.341.569.095.276-.228.265-.141.295.056.6.294.283.465.332.53,1.138-.644.853.237.493.2.445-.03.436.019.522.152.786.625,1.317.484,1.308.824,1.043,1.175,1.232,1.3,2.161.8.778.549,1.27.465,1.052-.1.739-.085.38.189.749.436.71-.086.474-.408.124-.426.067-.882.227-.645.588-.332.863.077,1.251.36.948.142.966.228.977.341.654.124.6-.426.369.473.588.36.161.417.237.682.6.331.607.115.682.255,1,.114,1.128-.237.929.588.976.635,1.422.256,1.943,1,3.157.4.947-.056,3.821.056,1.45-.056,1.337.085,1.431-.351,1.223-.038.692-.436.085-.589-.19-.426-.1h-.691l-.512.218-.72,1.583-.408,1.032-.161,1-.2.369-.494.569-.132.673.085.938.265,1.081.645.7" transform="translate(-920.293 -758.338)"  stroke="#fff" stroke-linecap="square" stroke-linejoin="bevel" stroke-width="1" fill-rule="evenodd"/>
      <text id="278" transform="translate(13.969 38.971)" fill="#fff" font-size="13"  font-family="OpenSans-SemiBold, Open Sans" font-weight="600"><tspan x="0" y="0"></tspan></text>
    </g>
    <g id="_271_Dindori" data-name="271 Dindori" transform="translate(2094.55 272.032)">
      <path id="talId271" fill="#7DB8EC" title="Dindori Taluka" data-name="Dindori Taluka" d="M1029.977,839.728l-.665.2-.417.053-.353.161-.3.269-.25.228-.27.133-.4-.1-.509-.218-.634-.113-.427-.081-.395-.166-1.29-.36-1.071-.607-1.643-1.118-1.258-.845-.738-.151-.769.2-.894.095-.832-.067-1.165.029-.146.587.01.569-.77.284-1.237.1-.9.048-.791-.066-1.466-.891-.779-.749-.229-.625-.489-.407-.676-.1-1.029-.085-.863.029-.769.484-.895.549-.405.142-.25-.7-.084-.558-.031-1.451-.562.113-.8.294-.551.134-.682.028-.285.228-.161.56-.814.161-.4.16-.446.133-.606-.048-.455.161-.284.2-1.2-.758-1-.379-.246-.417.009-1.3-.19-.378-.663-.446-.512-.454-.588-.522-.654-.265-.558-.019-.446-.085-.322-.6-1.071-.028-.568.048-.635.615-.5.379-.634.417-1.451.019-.426-.009-.578-.095-.693-.265-.531-.02-.464.19-.463.238-.38.217-.484.19-.435-.172-.038-.436.322-.4.228-.635.237-.607.047-.5-.265-.3-1.251-.977-.256-.483-.039-.938-.359-1.365-.389-.976-1.611-.513-.522-.018-.341.682-.152.607-.237.664-1.47.615-.634-.065-.493-.237-.91-.465-1.242-.218-1.119-.644-.673-.361-.417-.464-.417-.437-.664-.076-.493.161-1.032.37-.958-1.091-1.288-1.071-.683-.691-.616-.076-.541-.009-.919-.057-.644-.7-.265-1.08-.085-.939.132-.673.493-.569.2-.369.161-1,.407-1.033.721-1.583.512-.218h.691l.426.1.589.19.436-.085.037-.692.352-1.222-.085-1.431.056-1.338-.056-1.449.056-3.82-.4-.948-1-3.157-.255-1.943-.636-1.422-.587-.977.237-.929-.113-1.128-.256-1-.115-.682-.332-.607-.682-.6-.417-.237-.36-.161-.473-.587.427-.369-.124-.6-.342-.654-.227-.977-.142-.966-.361-.948-.076-1.251.332-.863.645-.587.882-.227.425-.067.408-.123.085-.474-.436-.71-.189-.749.085-.38.1-.739-.464-1.052-.55-1.269-.8-.778-1.3-2.16-1.175-1.233-.825-1.043-.484-1.308-.626-1.318-.152-.786-.019-.522.03-.435-.2-.446-.237-.492.645-.854-.531-1.137-.464-.332-.294-.284-.056-.6.142-.294.228-.265-.095-.276-.341-.569-.522-.454.389-.417.237-.285.295-.332.341-.3.948-.294.218-.057.55.37.616.152.265-.19.408-.436.644-.085.522-.143.539-.113.238-.37.209-.483.54-.559.265-.058.636.408.5.587.389-.161.3-.293.161-.276.284-.35.465-.427.389-.123.417.342.275.171.569.341.341-.265.133-.389.351-.256.947-.313.9-.029.513-.142.417-.294.484-.341.492-.369.323-.37.246-.076.55.113.3.209.474.028.332-.151.351-.143.967-.114.4-.482.408-.133.6-.285.787-.065.549.151.322.294.256.124.693.028.322-.161-.057-.265-.446-.322-.417-.161-.208-.265.028-.275.361-.228.625-.009.38.038.625-.115.653-.009.787-.037.274-.341.01-.4.076-.227.228-.218.521-.454.826-.588.454-.048.559-.028.417-.057.4-.274.417-.19.189.55,1.128.332,1.4.285.569.123.341.2.436.417.342.142.369.029h.625l.256-.246.323-.437.274-.4.161-.351.436-.256.739.341.483.2.93.407.938.047.578.228.456.113.246-.378.928.028.73-.028.9-.01.332-.151.53-.446.8-.18.54-1.022.792-.466.229-.161.384-.255.364.313.53.777.458.541.073,1.5.375.426.083.693.156.36.458.483.416.313.79.152.479-.133,1.05-.208.8-.21,1.009-.369.748.436,1.03.143.613.151.209.4.083.588.041.588.1.351.333.35.457.285.895.473,1.06.6.822.113.655.009.915.019,1,.066.489.219.561.247.624.255,1.185.2,1.238-.269.281-.042.394.056.365.157.5.293.811.769.114.331.125.312.135.437.125.137.354.109.333.09.354.052.489.1.343.165.478.678.374.531.1.285-.021.5-.135.484-.541.346.093.573.115.413.4.128.562-.057.478-.569.593-.274.458-.194.468-.114,1.331,0,.478.465.218.345.208.4.457.677.468.744.229.01.291-.147.156-.361.27-.089.51.009.426.1.385.228.561.161.884.209.8.223.01.929-.562,1-.8,1.119-.032.72.219.341.042.664-.416.3-.458,1.383.156.607.78.776.312.683.156.91.135.663.146.853-.239.531-.614.246-.717.113-.25.569v.569l.312,1.156-.1.929-.208.948-.218.664-.1.739-.26.758.249.265.759.114.655.208.3.513.312.682.583.037.363-.644.417-.36.78-.151.4.493.7.986.364.531.281.607.312.815.645,1.043,1.04.113h.6l.78.4.873.171.7-.038.593-.02.561-.548,1.05-.437.416.02.78,1.117.676.7.509.606.114.758-.332.589-.541.378-.717,1.213-.739.758-.135,1,.083.55.208.606-.5.419-.6.189-.738.058-.457.3-.416.55-.229.569-.146.645-.52,3.582h-.707l-.343.057-.53.039-.686.1-.323.521-.686.028-1.5-.056-.208.521-.291,1.811-1.393.834-.219.881.01,4.038-.2,1.745-.073,1.44-.208.863-.156,1.194-.333.977-.592.075-.541.01-.5.057-.779-.085-.666-.465-.728-.682-.374-.124-.406,1.12-.145,1.146-.354,1.185-.863,2.2-.312.322-.769.465-.541.369-.884.484-.874.824-.3,2.417-.437,1.5-.488,2.891-.177.815-.136.644-.322.6-.062.389.3.777.551,1.28.218.8.291.285.457-.124.5-.322h.343v.664l.094.975" transform="translate(-955.123 -748.147)"  stroke="#fff" stroke-linecap="square" stroke-linejoin="bevel" stroke-width="1" fill-rule="evenodd"/>
      <text id="271" transform="translate(30.821 50.322)" fill="#fff" font-size="13"  font-family="OpenSans-SemiBold, Open Sans" font-weight="600"><tspan x="0" y="0"></tspan></text>
    </g>
    <g id="_269_Chandvad" data-name="269 Chandvad" transform="translate(2175.315 284.43)">
      <path id="talId269" fill="#7DB8EC"  title="Chandvad Taluka" data-name="Chandvad Taluka" d="M1139.1,806.616l-.156.445-.8.626-.946.152-.895-.038-1.279-.4-1.56.437-.946-.076-.5-.456.229-.549.114-.589-.624-.473-1.113-.19-1.747-.341-1.31-.17h-1.913l-.738.4-.738.91-.135.8.759,1.062.135,2.6.469,1.156.135,1.176.478,1.232-.1.511-.7.436h-1.425l-.53.55-.874.72-1.06.247-.76-.4-.676-.265-1.082-.19-.27-1.157-.582-.322-1.882-.284-2.287-.511-.02,4.549-1.748-.265-1.268-.247-1.955-.17-2.444-.171.094-1.138-.3.037-1.154-.17-.895.038-1.82-.266-1.59-.247.093-1.042-.135-3.356-5.325-.095-.114.815-.572.151-.6.039-.759.076-1.227.076-2.017.53-1.174-.739-.3-5.915-5.875.209-2.953.113.073-.663-.042-.683-.416-.151-.582-.019-.519-.1-.7-.266-.665-.208-.833-.437-.831-.246-.822.19-1.019.512-.156-.228v-.758l-.967-1.024-.509-.321-1.009-.474-.3-.532V800.2l.021-1.061-.26-.588-.593-.835-1.176-.436-.187.209-.686.587-.925.53-1.2.191-.457.682-.812,1.933-.25,1.081-.3.587-.738.246-1.654-.189-2.672-.645-.624-.076-.457.152-.9.189-.758.019-1.082-.037-1.382-.171-.916-.228-1.362.36-1.269.815-.914.8-1.041-.209-.457-.189-.864.152-.312.132-.675.114-.967-.114-1.352-.417.52-3.582.145-.645.229-.569.417-.55.457-.3.738-.057.6-.189.5-.418-.207-.606-.083-.55.135-1,.738-.758.717-1.214.541-.378.333-.589-.114-.758-.51-.606-.676-.7-.78-1.118-.416-.02-1.05.437-.562.549-.592.02-.7.037-.873-.17-.78-.4h-.6l-1.041-.113-.644-1.043-.311-.815-.281-.606-.365-.531-.7-.986-.4-.493-.78.152-.416.36-.364.645-.582-.037-.312-.682-.3-.512-.655-.208-.76-.115-.25-.265.26-.758.1-.74.219-.663.208-.948.1-.928-.312-1.156v-.569l.249-.569.718-.113.613-.246.24-.531-.145-.853-.136-.663-.155-.909-.312-.684-.78-.776-.155-.608.456-1.383.417-.3-.042-.663-.219-.341.031-.72.8-1.119.562-1-.011-.928.416.076.645.171.738.227.489.322.53.3.78.133.967.17.832.095.592.247,1.227.664.593.72.77-.189.635-.172.488-.075.6.018,1.165.379,1.289.246,1.04.246.624-.378.489-1.365.479-.569.624-.967-.718-.644.094-.361,1.55-.417,1.445-.323.894-.341.885-.341.187.055.458.134.364.437.3.587.364.549.415.721.073-.588-.073-.474.468-.341.2.7.675.284.688-.587.166.511.988-.208.988-.124.645-.057.78-.047.821.019.78.209.385.265.593.313.873.265,1.279.512.811.152.759.17.6.133.54.028.937-.048.665-.142,1.29-.275.759.142.862.009.094-.73.291-.417.656-.493,1.706-.758.893,1.308,4.076.152.437-.341.052-1.156.541-1.043.53.8h.323l.717.3.811.341,1.175-.265.78-1.811.363-.616.364-.455.583-.133,1.622.02.478-.067.333-.265.239-.55.312-.435.5-.247.614-.038.7.37.406.047,1.112-.17,1.051.274.873.1.925.227.707.02,1.091-.17.708-.266.406-.493.218-.445.426-.076.374.218.167.569-.323.568,1.112.172.2.023.947.029.5.028.582.1.6.1.614-.032.561-.072.447-.137-.208.327-.644.2-.739.218-.53.459-.312.43-.01.645.748.65.332.227.333.01.458-.105.489-.089.5-.4.592-.009.729.753-.718.143.26.446.27.132.385.137.52.3-.312.545.115.108.79-.369.7-.407.926-.323.01.673-.426.759.26.512.489.265.811.1h.614l.727.048.583.426.188.389.291.879v.118l.416.348.375-.213.27-.017.114.069.074.166.831.119.322.023.344-.03.249-.206.218-.355.219-.252.114-.327-.01-.36.063-.232.115-.071.3-.178.1-.005-.135.366-.094.159-.072.229-.042.339.021.234.135.638-.083.713-.115.228-.156.23-.114.432.738.132-.062.7.052.12.114.022.125-.1.343-.932.229-.576.3-1.169.479-.04.863-.368.249-.173.406-.074-.031.176-.177.211-.271.325-.187.284.239.231.125.128-.021.1-.156.111-.333.156-.27.085-.322.346-.385.825-.3.626-.052.389.156.3.479.074.571-.042.739-.066.561.149.208.348v.927l.353.241.759.737.333,1.148.375.286.354.032.291-.165.2-.269.354-.294.333-.236.354-.231.571.02.291.013.5.094.27.162.322.261.291.132.406.091.25-.087.27-.161.488-.075.385-.012.593.037.655-.48.1-.129.291-.09.406-.038.364-.568L1134.8,775l-.156-.257-.291-.157-.188-.315-.041-.36-.01-.472.062-.381.208-.323.363-.257.562-.34,1.247-.031.624.016.281-.048.707-.769.385-.634.187-.381-.073-.762.821-.134.219.348.24-.047.239-.278.385-.238.623-.144.5.127.333.151.217.024,2.475.1.271-.4.665.017.977-.168.229.08.053.174.114.413,1.061.413.8-.246.541-.269.311.341.281.4.146.341.1.468.291.286.7.246.489.174.406.2.467.238.166.286.011.43-.436,1.308-.021,4.057-.739.455-.322,1.5-.894,2.389-.416,1.762-1.268,1.517.073,4.36-2.236-.095L1145.8,790l-1.155-.095-1.445.323-1.332.265-.925-.189-.343.341-.811.531-.717.4-.947.53-1.237.873.343,1.062v1.422l.467,2.483v.815l.271,1.953.28.607.687.568.9.265.343.493-.967,3.659-.124.313" transform="translate(-1033.18 -759.906)"  stroke="#fff" stroke-linecap="square" stroke-linejoin="bevel" stroke-width="1" fill-rule="evenodd"/>
      <text id="269" transform="translate(41.056 27.925)" fill="#fff" font-size="13"  font-family="OpenSans-SemiBold, Open Sans" font-weight="600"><tspan x="0" y="0"></tspan></text>
    </g>
    <g id="_270_Deola" data-name="270 Deola" transform="translate(2189.354 244.313)">
      <path id="talId270" fill="#7DB8EC"  title="Deola Taluka" data-name="Deola Taluka" d="M1071.512,721.36l.229.241.509.217.333-.033.677-.159.384-.092.677.142.2.366.509.634.552.475.893.417.417.017.53-.3.519-.042.583.116.75.092.477.126.541.132.614.243.624.441.1.308.063.4-.084.8.052,1.243.146.65.229.542-.083.342-.1.267.1.275.405.51.312.459.531.55.738.483,1.632,1.509,1.414.892.646.042.406-.167.415-.209.313-.133.468.017.333.225.322.291.3.292.333.192.146.008.592-.225,1.2-.651,1.6-.492.791-.075.967-.208.291-.284.874-1.342.259-.342.3-.116.6.083.342.117.821.85.437.367.54.168.584.033.6-.217.488-.334.4-.191.406.058.488.167.427.216.406.259.571.133,1.914.15,1.736.209,1.487.125.4-.342,1.092-.291.5.158.582.016.77.033.571.033.884.5.457.184.676-.284.675-.367.635-.291.562-.017.5-.1.3-.241.489-.359.634-.267.353-.3.614.033.717.133,1.81.242,1.07.058.447.05.26.225.655-.233.218-.117.687-.109-.323,1.724-.031,5.378-.125,2.365.572,1.619.394,1.238.365.857.156.745-.2.587-.469.507-.373.65-.323.968-.187,1.095-.084.413.365.127.468-.54.79-.92.364-.492.333-.142.9.158.156.786.417-.246.644-.746,1.695-1.231.406.247.374.317.615.159.634.063.519.064.947.27.791-.167.594-.612.53-.967,1.663-2.078.978-.262.6.04-.167.825-.281.912-.217,2.214-.3.571-.261.262-.021.278.208.42-.322,1.357-.24.46-.312.341-.29.326-.354.873-.073,1.555-.031.634-.114.651.042.888-.073,1.659-.292,1.08-.1,1.087-.052.531-.884,1.032-.946.223-.406.221-.427.326-.541.3-.53.317-.6.2-.634.136-.936-.056-.415-.04-.447.024-.323.079-.281.611.437.643.427,1.11.685,1.056-.114.563-.042.238.426.317.437.509.426.523.447.619.292.533.062.261.655,1.976.083.6.542,1,.135.468-.562.34-.363.257-.208.322-.062.382.01.472.042.361.186.315.291.157.156.257.031.361-.364.568-.406.038-.291.09-.1.129-.654.481-.594-.038-.385.012-.488.075-.271.161-.25.087-.406-.092-.292-.132-.321-.261-.271-.162-.5-.095-.292-.013-.572-.021-.354.232-.333.236-.354.294-.2.27-.291.165-.354-.032-.374-.286-.333-1.148-.759-.737-.354-.241v-.927l-.208-.348-.56-.149-.74.065-.571.042-.479-.074-.156-.3.053-.389.3-.626.385-.825.322-.346.27-.086.333-.156.155-.111.021-.1-.124-.128-.239-.231.188-.283.27-.325.177-.211.031-.175-.406.074-.249.172-.863.368-.478.039-.3,1.169-.229.576-.343.933-.124.1-.115-.022-.052-.121.063-.7-.739-.132.114-.432.156-.23.115-.228.083-.713-.135-.637-.021-.234.042-.339.073-.23.094-.159.135-.365-.1.005-.3.178-.115.071-.062.232.01.361-.115.327-.219.252-.218.356-.249.206-.344.03-.322-.023-.831-.118-.073-.167-.113-.069-.271.017-.375.213-.416-.348v-.119l-.291-.879-.186-.389-.583-.426-.728-.048h-.614l-.81-.1-.489-.265-.259-.511.426-.759-.01-.673-.925.322-.7.408-.79.369-.115-.108.312-.545-.519-.3-.385-.137-.271-.132-.26-.446.718-.142-.728-.753-.593.009-.5.4-.488.089-.457.105-.333-.01-.333-.227-.748-.65.011-.645.312-.43.53-.46.739-.218.644-.2.208-.328-.447.138-.562.072-.614.032-.6-.1-.583-.1-.5-.028-.947-.029-.2-.023-1.112-.172.322-.568-.166-.569-.374-.219-.427.076-.218.445-.405.493-.707.267-1.092.17-.706-.02-.926-.227-.873-.1-1.051-.275-1.113.17-.406-.047-.7-.37-.613.039-.5.247-.312.436-.239.55-.333.265-.479.067-1.621-.02-.583.133-.364.456-.365.616-.779,1.81-1.175.265-.812-.341-.717-.3h-.323l-.531-.8-.54,1.043-.052,1.157-.437.341-4.076-.152-.9-1.308-1.7.758-.655.493-.291.417-.094.73-.862-.009-.76-.143-1.289.276-.665.141-.936.048-.54-.028-.6-.133-.758-.171-.812-.152-1.279-.512-.873-.266-.592-.313-.385-.265-.78-.209-.822-.019-.779.046-.645.057-.987.124-.988.208-.166-.511-.687.587-.675-.284-.2-.7-.468.342.073.474-.073.588-.416-.721-.364-.549-.3-.588-.365-.437-.458-.134.031-.629-.54-.478-.915-.133-1.549-.5-1.944-1.062-.437-.047-.582-.114-.635-.308-.52-.232-.55-.279-.645-.3-.769-.426.073-.241.373.062.572.208.375.2.759.284.281.138.562.257.759-.161.333-.37.292-.35.509.2.509.294.375.152.489-.873.447.057.562-.038.457-.123.26-.228.354-.332.521-.274.529.171.562.3.457-.664-.156-.549.654-.19.51-.644.062-.739.24-.522.54-.351.447-.426.168-.322.073-.683.686-.682.707-.17.551-.019.9.122.78-.189,1.155-.635,1.07-.8.427-.958-.052-.682.446-.3.884.028,1.238-.739.956-.8.417-1.223-.063-.437-.26-.625-.375-.5-.634-.474-.738-.578-.541-.37-.832-.426-.207-.36.374-1,.125-.579.312-1.526-.551-.124-1.435-.046-1.446-.237-1.507.028.01-.549v-.209l-.062-.645-.363-.54.395-.531.354-.55.228-.454.406-.778.561-2.848.188-.4.27-.749.073-.483.1-.18.125-.27-.011-.336-.187-.265-.093-.3.073-.217.115-.332.384-.374.072-.176.084-.384-.1-.441.26-.223.437-.024.469-.038.758-.02.084-.217.239-.645.5-.726.54-.412.344-.246.208-.308.219-.394.26-.493.592-.512.25-.237.156-.322v-.441l-.093-.308-.177-.147-.416-.241.218-.337.209-.118.239-.109.218-.143.187-.18.166-.26.188-.237.26-.143.271-.1.322-.148" transform="translate(-1046.65 -721.36)"  stroke="#fff" stroke-linecap="square" stroke-linejoin="bevel" stroke-width="1" fill-rule="evenodd"/>
      <text id="270" transform="translate(46.017 32.042)" fill="#fff" font-size="13"  font-family="OpenSans-SemiBold, Open Sans" font-weight="600"><tspan x="0" y="0"></tspan></text>
    </g>
    <g id="_281_Trimbakeshwar" data-name="281 Trimbakeshwar" transform="translate(2023.87 328.21)">
      <path id="talId281" fill="#7DB8EC" title="Trimbakeshwar Taluka" data-name="Trimbakeshwar Taluka" d="M941.646,908.546l-.435-.1-.351-.114-.407-.009-.56.123-.483.265-.521.38-1.025.161-.985-.474-.379-.095-.626-.123-.692-.143-.483-.265-.5-.171-.617-.133-.919-.065-.948-.105-.673-.379-.264-.569-.418-.758-.341-1.081-.361-2.805.228-2.991.014-.393.009-.356-.275-.227-.318-.247v-.459l.133-.445.189-.654.095-.806-.019-.654-.01-.806-.009-.654-1.271-.73-.559-.388-.8-.37-.456-.113h-.331l-.654-.029-.247-.1-.237-.388-.189-.522-.247-.625-.113-.55-.048-.617-.313-.872.18-.2.161-.312-.076-.313-.445-.645-.332-.436-.113-.4.038-.416.095-.417.142-.427.228-.463.246-.266.455-.332.389-.3.323-.285.587-.208,1.071-.218,1.2-.308-.143-.446-.279-.5-.289-.478-.332-.621-.113-.925.043-.431.113-.374-.109-.331-.682-.716-.308-.508-.105-.331-.023-.318.066-.38.129-.278.113-.319-.209-.63-.247-.271-.289-.347-.293-.345-.171-.247-.133-.422-.061-.431.155-.454.219-.2.208-.147.364-.137.337-.143.416-.4.81-1,.285-.35.454-.535.674-1.356.19-.469.057-.624.284-.74,0-.355-.023-.4-.066-.241-.114-.422-.214-.871.057-.371.086-.232.313.123.317.067.3.014.45.028.521-.024.257-.132.487-.242.246-.3.4-.393-.213-.621-.247-.307-.26-.148-.38-.237-.152-.256-.185-.2,0-.27.119-.232.161-.46.123-.787-.08-.365.042-.351.11-.45.033-.4.065-.35-.089-.238-.3-.081-.3.109-.151.076-.261.213-.44.256-.64.128-1.446-.151-.626-.161-.474-.166-1.042-.862-.474-.6-.545-.986-.385-.943-.151-.455-.029-.38,0-.326-.057-.559-.308-.474-.161-.417-.033-.393.015-.465-.266-.223-1.109-.474-.186-.218-.155-.289-.161-.19-.375-.118-.426-.024-.583.034-.606.242-.432.1-.237.1-.294.147-.251.142-.417.109-.271-.089-.474-.237-.578-.365-.308-.218-.341-.271-.455-.265-.431-.18-.455-.138-.459-.033-.346.194-.478.227-.45-.023-.237-.085-.213-.191-.256-.174-.119-.209-.142-.555.033-.228.114-.445.076-.492-.066-.513-.217-.4-.361-.333-.634-.275-.181-.313-.123-.436-.531-.161-.417.048-.6.275-.4.493-.408.18-.986-.892-.691-.359-.7-.37-.549-.388-.418-.124-.236.465-.343.151-.113.038-.351-.313-.985-.427-.569-.228-.672-.312-.39-.275-.236-.474-.37-1-.541-.256.047-.71.01-4.142.493-.521.256-.352.18-.653.075-.541-.085-.673-.256-.55-.892-.53-.616-.267-1.288-.435-.976-.332-.535-.151-1.322.033-1.02.133-.753.066-.461.075-.521.109-.3.014-.45-.061-.124-.062-.047-.246-.052-.284-.034-.36.037-.726-.013-.512-.057-.209-.071-.241-.166-.222-.246-.233-.484-.193-.707-.033-.426-.058-.294.009-.388-.08-.45-.024-.237-.076-.312-.209-.167-.241-.232-.414-.212-.677-.119-.489-.161-.391.36-.523.541-.474.219-.237.037-.323-.018-.54.123-1.45.352-.048.691-.151.664-.123.645-.38.758-.474.654-.7,1.071-.7.511-.473.228-.559.095-.588.067-1,.209-1.3.152-.7-.038-.853-.162-.522-.189-.834.047-.928.237-1.109.085-1.811.313-1.1.374.091.294.018.19-.014.274-.1.191-.174.171-.4.569-.782.274-.384.228-.233.194-.189.271-.194.307-.2.389-.137.26.019.437.076.336.146.475.246.231.195.223.2.246.3.224.194.227.189.4.066.531-.165.27-.138.275-.085.45-.146.261-.119.223-.061.383.01.28.066.483.313.54.241.36.218.209.184.327.124.4.123.564-.019.4.085.166.066.355-.313.033-.227.066-.293.061-.37.043-.241.076-.308.119-.285.161-.218.256-.2.237-.124.541-.231.484-.137.321-.033.336-.02.223.006.4.175.213.3.176.241.061.422-.18.454-.189.181-.346.165-.365.1-.5.137-.189.194,0,.251.141.28.294.323.175.089.228.09.394.208.364.105.28.07.242.091.346.086h.326l.18-.2.03-.285-.048-.53-.071-.247-.067-.27-.019-.176.2-.256.228-.047.128-.024.228-.019.18.014.3.015.394.037.431-.223.047-.047.137-.237.157-.247.113-.285.1-.265.109-.2.436-.181.35-.042.3.024.4.185.265.365.034.606-.1.587-.085.322-.048.465-.018.219v.4l.123.388.085.247.162.389.256.094.351.057.228-.067.227-.085.105-.113.142-.247.124-.237.189-.161.446-.029h.436l.36.067.332.057.341.076.313.134.341.018.038.331.607.18.161.028.541.124.323.122.6.095.673.1.066.53.123.341.1.389-.048.559.019.721.465.123.759.313.228.417.588-.018h.739l.531.037,1.3.038.985.17.588.7.767,1.223.218,1.251.1.663.171.427-.18.511-.389.322-.265.4v.719l.805.323.341.351.037.8.095.3.2.209.256.236.17.474.152.437.721.312.606.6.711.1.777.009.663-.057.834-.237.844-.189.7-.095.824-.285,1.28.759.645.692.464.151.6-.048.578-.161.56-.247.417.541,1.146.475.5,1.014.2.578.057.512.047.607.228.341.55.085.645.758.606-.6.313-.237.465-.161.635-.123.464-.124.654-.351.474-.332,1.374-.076,1.687-.265.427-.1.8-.171.616.029.55.113.673.408.484.455.522.464.388.285.541.226-.228.55-.185.527-.181.413-.24.355-.286.427-.654.953-1.1,1.729-.28.38-.341.517-.45.81-.356.478-.147.45-.194.484-.043.906.445.616.739.711.693.541.634.417.578.227.617.2.369.228.142,1.033-.463,1.782-.569,1.857-.219,1.915.237,1.507.635.825.482.531.067.758.142.569.247.521.408.7.2.938.181.532.673.227.881-.161.493.1.711.417.331.4.588.181.74-.161,1.128-.285.256-.417-.493-.246-.237-.284-.085-.332.218-.455.284-.085.55.246.512.426.427.417.284.474-.161.465-.351.521-.246.484-.057.948v.568l-.323,1.413.247.6.663.313.541.493.4.426.871-.095.541-.341.454-.085.483.123,1.338.967.777.35.691.351.17.5-.056.549.038.872-.388,1.715-1.252,1.364-.626.8-.266.949-.019,1.479-.056.91-.115.947-.228.55-.454.872.928,2.009-.644.758-.759.683-.4.53-.132.55.739,1.042-.835,3.337-.664.152-.493-.36-.265-.4-.379-.7-.549-.171-.854.36-1.5-.075-1.138-.133-.91.247-1.194.037-.929-.341-.588-.435-1.9-.019-1.08.53-.91.511-.834.456-.456.511-.625.8-.569.322-.891-.569-.778-.587-.758.208-.72.134-.588.909.114.682,1,1.061-.094.949-.228,3.014-1,.493-.777.1-1.023.436-.759.531-.3.91.152.569.834.266-.076.986-.076,1.062-.474,1.232-.4.644-.472.417.7.456-.36.626-.493.1-1.365.663-.852.454-.74.456-.72.4L941.9,898.8l-.056.644-.683,1.214-.493.777-.758,1.2-.265.891.113.644.266.834.113.493.454.606.778.322.551.493.189.778-.037.227-.427.626" transform="translate(-887.022 -802.543)"  stroke="#fff" stroke-linecap="square" stroke-linejoin="bevel" stroke-width="1" fill-rule="evenodd"/>
      <text id="281" transform="translate(18.501 39.145)" fill="#fff" font-size="13"  font-family="OpenSans-SemiBold, Open Sans" font-weight="600"><tspan x="0" y="0"></tspan></text>
    </g>
  </g>
</svg>
