<svg xmlns="http://www.w3.org/2000/svg" width="407.896" height="300.867" viewBox="0 0 407.896 300.867">
  <g id="Group_15" data-name="Group 15" transform="translate(-306.177 -1087.172)">
    <g id="_193_Paranda" data-name="193 Paranda" transform="translate(307.003 1108.476)">
      <path id="talId193" fill="#7DB8EC" title="Paranda"  data-name="Paranda" d="M1379.522,1160.269l.05.558.037.673.279.191.534.2.533.064.14.026.076.558.025.279-.038.355-.381.242-.507.152-.343.164-.368.217-.407.634-.164.395-.026.317-.025.3-.216.127-.19-.076-.19-.127-.1-.254-.228-.356-.558-.038-.711.024v4.888l-.458.457-.3.241-.089.419.026.3.228.164.138.228-.039.242-.15.152-.14.139-.025,2.983-.28.47-.127.229v.749l1.6-.14.419.3,2.463.088.012,2.133-.328.775-.535,1.6-.457,2.564-.558,1.3-.6,1.815-.826,2.323-.786,3.389-.953,2.221-.2.711-.064,6-.557,1.549-.42.824-.787.266-1.167.242-.9.153-.342,1.891-.7,2.159-.762,3.681-.367,2.17,2.717-.1,1.4.418,1.067.127-.026.978-.191.532.191.559.508.737.812.558.75.458.658.393,3.074.837,1.205.114,4.722.241,1.028-.241.583.025,1.219.813,2.437,1.041.7.292.85-.229.14-.469.2-.825.99.126,1.193.357,4.278-.064,1.384.254,1.841.013.977-2.768.773-2.957.521-1.4.14-.6-.165-.432-.166-.634v-.6l.255-.165,1.18-.762.534-.393.455-.3,1.029.558.368.521h.572l4.049.063.534.7.926,1.27.394.621.292.3.9.267.85.138,2.425-.2.291-.507,1.423.2.634.063.229.356-.039.951.356.786.152.966.381,1.218.508,2.247.914,1.98.685.94,5.446-.166.8-.241,2.019.254.457.229-.622,1.155-.1.609,1.193,1.282.865.444.661-.025.621-.152.635.115.381.19.456.559.051.635-.012.736.089.736.483,1.283.063,1.6.484,1.4.127.33-.178.75-.279.749-1.053,1.13-1.041,1.32-.127,1.143-.1.953-.039.6-.406.623-.2.025-.47-.266-.762-.19-1.753-.013-.849.509-1.346,1.383-.381.609-.191.762-.418.177-1.066.09-1.6.317-.8-.863-.939-.115-1.1-.114-2.767-.5-2.082-.584-.635.1-.76.444-.635.509-.254.887-.685.889-.368.559-.153.863-.14,1.079-1.27.609-.686,1.5-.419.914-.977,1.333-.3,1.4-.457,1.385-.483.634-1.129,1.232-.686,1.435-.457.735-.127.534.152.621.228.127.419.076.635.127.621.19.712.28,1.32.572.051,3.8-.064,1.586-.19.775-.621.685-.331-.063-.521-.33-1.027-.418-.915-.165-1.5-.75-1.383-.761-1.409-.33-.863-.114-.749-.1-.888-.1-1.371-.266-.343.964-.317.725-.382.572-.8.875-1.091.762-.75.723-.9.115-.241.927-.648,2.336-.52.913-.395,1-.05,1.98-.139.458-.139.863-.241.876-.775.254-.723-.127-.838-.381-.609-.063-.115.583.178.369.012.457.127.5.394.495.342.508.394.609-.178.623-1.08,1.053-1.282,1.891-.279.787-.14,1.054-.063,1.194-.379,1.383.176,1.282.292.788.013.6-.14.8-.329.673-.521.735-.965.94-1.066,1.638-.279.673-.166.6-.241.113-.621.344-.254.279-.317-.039-.114-.153-.127-.33-.177-.444-.178-.228-.342-.3-.342-.152-.394-.14-.394-.178-.368-.19-.5-.483.583-.545.28-.2.139-.216.076-.241-.177-.179-.635-.5-1.129-.723-.724-.394-.52-.47-.7-.748-.457-.381-.456-.215-1.206-.141-.533.077-.165.127-.254.266-.115.418-.05.28-.051.241-.165.305-.344.279-.216.025-.291-.063-.342-.2-.242-.419-.088-.369-.026-.329.1-.432.279-.534.1-.267-.064-.329-.229-.444-.254-.458-.051-.545-.038-.317.064-.393.229-.483.14-.318-.013-.546-.255-.215-.33-.038-.623-.025-.938.038-.977.012-1.181.267-.457.076-.521.127-.457.178-.419.126-.2.229-.038.254.153.305.19.19.254.33.165.38.127.457-.114.534-.329.722-.471.115-.228-.025-.343-.228-.381-.508-.254-.368-.5-.254-.913-.331-.266-.177-.509-.659-.254-.394-.419-.407-.749-.571-1-.647-.484-.114-.457.012-.61.128-.546.189-.457.165-.509-.114-.532-.482-.343-.636-.266-.722-.115-.737.013-.2.215-.432.394-.71.355-.737.127-.495.026-.3.063-.5.063-.394.14-.254.279-.394.6-.469.736-.622.381-.355.076-.191-.039-.266-.266-.52-.52-.711-.762-.61-.254-.215-.571-.292-.343-.254-.114-.457-.165-.913-.152-.584-.458-.99-.038-.279v-.293l.088-.228.305-.228.216-.267.039-.254-.013-.228-.1-.369-.241-.47-.584-1.142-.42-.051-.139.127-.279.19-.2-.483.127-.266.28-.433.241-.329.3-.28.458-.265.483-.293.381-.254.089-.648.038-1.51.14-.952.292-1.028-1.434-.267-.875-.013-1.5-.177-1.13-.063-3.352-.012-1.168-.1-.1-5.218-.114-.342-.229-.178-.089-.229.013-.254.139-.394.293-.406.544-.506.458-.661.292-.649.19-.291v-.241l-.038-.292-.113-.177-.344-.319-.483-.266-.331-.216-.228-.253-.369-.546-.253-.47-.192-.431-.012-.152-.026-.152.026-.19.2-.305.279-.356.672-.712.483-.456.2-.1.47-.191.318-.2.114-.229-.177-.368-.292-.254-.216-.329-.178-.368v-.432l.2-.343.406-.2.317-.076.329-.114.115-.139v-.241l-.165-.279-.417-.254h-.407l-.394.178-.571.229-.495.228-.419.191-.344.126h-.5l-.3-.177-.291-.368-.457-.534-.254-.6-.279-1-.369-1.231.013-.558-.153-.572-.85-.735-.089-.1-.66-.356-.71-.165-.622-.368-.673-.685-1.117-1.055-.508-.558-.52-.647-.241-.356-.064-.369.14-.456-.064-.432-.418-.508-.47-.33-.482-.114-.941-.026-.406-.115-.292-.3-.19-.419-.127-.406-.329-.572-.458-.418-.6-.431-.761-.216-.61-.292-.267-.28-.153-.355-.026-.3.026-.355-.038-.483-.152-.368-.533-.19-.343.165-.242.5-.292.355-.495.166-.431-.153-.19-.229-.141-.266-.076-.648-.1-.4-.115-.445-.216-.42-.635-.2-.609-.126-.762-.166-.659-.026-.3.192-.241.329-.28.395-.343.47-.242.19-.6.075-.306-.19-.3-.241-.114-.253-.1-.445-.3-.748-.291-.572-.266-.355-.305-.318-.661-.038-.634-.025-.711-.127-.3-.115-.318-.241-.292-.24-.279-.317-.216-.483-.114-.99.482-.877.558-.964.7-1.283,1.916-1.5.61-1.092.405-1.7-1-1.587-.432-1.637.178-3.631.508-1.3.685-1.79.152-2.881-.279-1.067-.064-.952-.126-.394-.241-.3-.241-.178-.266-.3-.243-.355-.227-.216-.116-.19.051-.241.254-.381.229-.2.115-.254.115-.826.7-1.129.191-.446.253-.241.3-.05.915.038.469-.012.216-.229.673-3.25,2.171-1,1.1-.115.774.013.393-.19.013-.572.012-.711.076-.989.076-.977.445-1.22,1.345-1.383.28-.509.19-.544.115-.66.279-.915.128-.57.532-.775.368-.343.547-.012.521.076.9.444,1.078.838.9.3.724.19.711.191.419.241.444.253.621-.013.864-.037.876.215,1.422.724,2.8,1.18,1.117.33.674.229.775.494.57.419.458.5.9.989.621.483.559.33.559-.177.6-.534,1.054-1.295,2.323-2.78,1.117-1.092,1.371-2.983.483-2.514.608-2.159,1.4-2.171.418-.722.369-.381.394-.5.153-.495.038-.533.3-.229.469.077.609.228.114-.406.711-.9.228-.266-.063-.344.038-.431.152-.47.279-.2,1.536-.7.431-.444.915-.736.7-.394.762-.762.939-.443.686-.369v-.394l.063-.291.216-.357.2-.316.254-.406.329-.2.2.14.241.418.255.318.368.114.254-.2.165-.127.215.025.2.127.19.408.4.342.318-.064.228-.469.191-.178.685.063.585-.063.266-.165.268-.265" transform="translate(-1319.49 -1159.85)"  stroke="#fff" stroke-linecap="square" stroke-linejoin="bevel" stroke-width="1" fill-rule="evenodd"/>
      <text id="193" transform="translate(56.017 81.843)" fill="#fff" font-size="13"  font-family="OpenSans-Bold, Open Sans" font-weight="700"><tspan x="-15.996" y="0"></tspan></text>
    </g>
    <g id="_189_Bhum" data-name="189 Bhum" transform="translate(356.367 1087.928)">
      <path id="talId189" fill="#7DB8EC" title="Bhum"  data-name="Bhum" d="M1408.859,1158.178l.077.3-.141.291-.164.192-.077.228-.012.152-.1.559-.686.876-.216.355-.216.407-.063.8-.039.584v.47l-.152.381-.063.533.05.978.292.433-.152.545-.089.445-.052.736.038.723-.875.076-.584-.038-.343-.038-.774-.292-2.488-.165.305.913.254.458-.14,1.714-1.878.571-1,.558-.521.292-.153,1.142.267.418.026.355-.14.331-.559.051-.583.037-.418.192-.216.341-.419.356-.152.266.038.178.382.216.393.139.153.077.52.343.254.406.1.3-.089,2.717.228.394-.025.317.038.431.508-.266.7-.394.559-.3.368-.165.3-.686.647.229.648.229.9.14.343.2.89.215.14-.253-.255-.343-.012-.267.343-.216.267-.3.342-.495.152-.483.356-.177.418.115.344.165.57.241.47.2.051.864.076.331.165.178h.291l.407-.038.558-.28.406-.406.407.026.723-.039.191.166-.457.178-.317.051-.165.229-.025.255.2.165.077.1.127.089.685.482.584-.1.305-.419.76-.026,1.27.1.393.356-.051.761-.09.559-.215.507-.152,1.473.114.33.38-.012h.5l.242.114.393.914.025.38.177.063.266-.115.28-.164.215-.038.28-.178.165-.33.013-.6.1-.342.28-.419.558-.381.47-.33.8-.254.8-.191.914-.394.52-.013.407.344.381.33.355.317.331.2.266.026.3-.3.305-.623.419-.557.331-.42.938-.33.457-.1.254.432.343.394.381.495,1.13.673,2.119,1.283,1.028.761-.634.5-.774.177-.521.419-.331.382-.267.241-.265.229-.826.47-.5-.165-.33.152-.164.3-.165.406-.28.3-.457.216-.938.546-.294-.381-.317-.075-.293-.039-.242.141v.19l.153.279.2.228.09.318-.012.393.05.749.368.406.179.622.177.483.342,1.613-.127.407-.076.392-.241.241-.038.1-.915.724.737.887.38.572.191.253-.61.217-.546.532-.584.825-.19.584-.152.2-.3.342-.027.216-.037.433.292.546.166.292.468,1.129.165.584.14.406.127.406.9,1.562,1.028.127,1.078-.127.737-.178.775-.482,1.7-1.258,1.447.407,1.028-.051.927.026.635.089,1.485,1.485,1.066,1.283.876,1.207.1,1.039.077.584.063.369.572.038.368.33.038.482-.077.33-.342.458-.012.507.025.393.635.09.075.2-.318.013-.417.077-1.067.686-.6.456-.419.622.088.915-.177.977-.381.381-1.384.849-.926.3-.571.1-.711-.038-.52-.013-.978-.114-.787.063-1.066.343-.838.216-1.081.064-.29.748-.8,2.793-.762,2.209-1.751,2.767-.28.521-.457-.229-2.019-.254-.8.241-5.447.165-.684-.94-.915-1.979-.507-2.248-.38-1.219-.153-.964-.356-.787.038-.952-.229-.355-.634-.063-1.422-.2-.293.508-2.424.2-.851-.14-.9-.267-.293-.3-.394-.621-.925-1.271-.534-.7-4.05-.063h-.57l-.37-.521-1.028-.559-.457.3-.533.395-1.181.762-.254.163v.6l.165.635.165.432-.14.6-.521,1.4-.774,2.959-.977,2.767-1.841-.013-1.383-.254-4.278.063-1.194-.355-.991-.127-.2.825-.14.47-.85.229-.7-.292-2.436-1.041-1.22-.812-.583-.026-1.029.241-4.722-.241-1.206-.115-3.072-.837-.66-.394-.749-.458-.813-.558-.507-.736-.19-.559.19-.534.025-.976-1.067-.127-1.4-.42-2.717.1.369-2.172.762-3.681.7-2.158.343-1.891.9-.152,1.168-.242.787-.266.418-.826.559-1.549.063-6,.2-.712.952-2.221.788-3.389.826-2.323.6-1.815.559-1.3.458-2.564.532-1.6.33-.775-.013-2.132-2.462-.089-.42-.3-1.6.14v-.749l.127-.228.278-.47.025-2.984.139-.139.153-.153.038-.242-.14-.228-.228-.165-.025-.305.088-.418.3-.241.457-.458v-4.886l.712-.025.557.038.228.354.1.253.191.128.19.076.217-.127.025-.3.025-.317.165-.394.4-.634.368-.216.343-.166.508-.151.38-.241.039-.356-.025-.28-.077-.559-.139-.024-.534-.063-.533-.2-.28-.19-.038-.673-.05-.558.406-.482.559-.572.318-.178.368-.279.533-.508.774-.456.1-.534.013-.407.063-.394.647-.126.622-.089.318-.076.66-.216.7-.038.5.1.559.178.66.113h.52l.545-.176.177-.407.292-.444.788-.292.533-1.789-.013-1-.341-.788-.826-.088-.507-.077-.28-.558-.013-.634-.024-.648.074-.659.153-.636v-.673l-.038-.469.1-.368.166-.635.127-.622.2-.736.724-.444,2.386-.66,2.094-.33.7-.1,1.32-.178.928.076,1.142.229.648.051.42-.076.138-.915.3-1.688.076-1.193.458.165.191.013.153-.026h.216l.166.09.2.127.139.178.152.139.165.139.178.1.165.1.165.037.228.09.33.088.292.1.318.229.3.267.216.241.2.166.228.151.254.139.393.2.19.1.559.406.178.19.05.267.1.279.2.571.355.33.152.152.127.2.05.292.077.292.025.165.075.152.254.483.254.457.051.61.051.265.076.344.026.178.164.368.357.419.24.241.2.19.179.127.153.1.127.038.139.026.216.026.2-.013.431-.013.2.14.115.28.089.177.177.178.241.19.2.051.318.217.356.265.215.152.356.292.164.114.153.153.14.127.127.127.177.164.1.052.152-.013.191-.1.163-.115.14-.127.1-.1.1-.064.115-.012.177.038.1.088.026.089.051.254v.165l-.012.254-.038.178v.151l.076.115.2.114.152.1.583.241.178.051.152-.051.216-.012.2.139.164.1.153.076.19.077.14.051.152.038.115.013.113-.051.127-.076.2-.013.241.025.14.051.711.177.292-.012.177-.051" transform="translate(-1358.26 -1143.719)"  stroke="#fff" stroke-linecap="square" stroke-linejoin="bevel" stroke-width="1" fill-rule="evenodd"/>
      <text id="189" transform="translate(34.653 52.391)" fill="#fff" font-size="13"  font-family="OpenSans-Bold, Open Sans" font-weight="700"><tspan x="-10.266" y="0"></tspan></text>
    </g>
    <g id="_196_Washi" data-name="196 Washi" transform="translate(394.986 1089.56)">
      <path id="talId196" fill="#7DB8EC" title="Washi"  data-name="Washi" d="M1444.547,1234.462l-.735-.253-1-.141-1.257-.063-1.625.114-.939-.052-.686-.253-.318-.443-.114-.725-.038-.837-.508-.432-1.155-.355-.8-.723-1.093-.749-.152-.292.051-.623.051-.545-.026-.47-.242-.406-.494-.319-.749-.176-.8-.254-.634-1.359-.178-1.295-.063-.749-.3-.9-.419-1.129-.216-1.574v-1.168l-.076-1.231-1.967-.279.177-.977-.088-.914.419-.623.6-.456,1.066-.686.42-.076.318-.013-.076-.2-.636-.089-.026-.394.014-.507.343-.457.076-.331-.039-.482-.368-.33-.571-.038-.063-.369-.077-.584-.1-1.041-.877-1.207-1.066-1.281-1.485-1.485-.636-.09-.926-.024-1.029.051-1.446-.406-1.7,1.256-.775.482-.735.178-1.079.127-1.028-.127-.9-1.561-.127-.407-.138-.407-.167-.584-.47-1.13-.165-.291-.292-.548.038-.431.026-.216.3-.343.152-.2.19-.585.584-.825.546-.533.611-.216-.191-.254-.381-.572-.735-.888.914-.723.038-.1.241-.242.077-.393.127-.406-.343-1.611-.179-.482-.177-.623-.369-.407-.05-.748.012-.394-.089-.317-.2-.229-.152-.278v-.19l.24-.14.292.038.317.076.292.381.941-.546.456-.215.279-.3.165-.406.166-.305.329-.151.5.164.825-.47.268-.228.266-.242.329-.38.522-.42.774-.177.634-.5-1.029-.762-2.12-1.282-1.129-.673-.381-.494-.343-.394-.253-.432-.457.1-.94.331-.33.419-.42.558-.3.621-.3.305-.266-.025-.33-.2-.356-.318-.381-.33-.406-.342-.52.013-.914.394-.8.19-.8.254-.469.33-.559.381-.279.418-.1.344-.011.6-.165.331-.279.177-.216.038-.28.165-.267.113-.177-.063-.025-.379-.393-.915-.242-.115h-.495l-.38.012-.116-.33.153-1.472.216-.509.089-.557.051-.763-.393-.355-1.269-.1-.762.025-.3.419-.585.1-.685-.482-.126-.09-.077-.1-.2-.164.025-.254.165-.229.317-.051.458-.178-.191-.164-.725.038-.406-.025-.406.406-.559.28-.407.038h-.291l-.166-.177-.076-.331-.051-.864-.469-.2-.572-.241-.342-.165-.419-.115-.356.178-.152.482-.342.495-.267.3-.343.216.013.267.254.344-.139.253-.888-.216-.342-.2-.9-.14-.648-.229-.647-.229-.305.686-.368.165-.558.3-.7.394-.508.267-.038-.431.026-.317-.227-.394.087-2.718-.1-.3-.254-.405-.521-.342-.151-.077-.394-.14-.381-.216-.039-.177.152-.267.42-.355.216-.343.419-.19.583-.039.56-.05.14-.33-.025-.356-.268-.419.154-1.142.52-.292,1-.559,1.878-.57.139-1.714-.254-.457-.3-.915,2.487.165.775.292.343.038.583.038.876-.075-.039-.724.052-.736.089-.445.151-.546-.292-.431-.051-.979.065-.532.152-.381v-.47l.038-.583.064-.8.214-.406.216-.355.686-.876.1-.559.013-.152.076-.228.165-.192.14-.291-.076-.305.1-.076.165-.1.164.089.051.2.1.152.14.114.089-.012.253-.216.509-.356.432-.051.216-.1.138-.14.191-.19.293-.368.075-.368.013-.47-.178-.482-.139-.343-.089-.293-.026-.3-.026-.33-.088-.445-.141-.444v-.394l-.113-2.285.228-1.016.179-.977.418-1.943.293-1.357.394.051.748.215,1.029.064,4.2.114,1.383.178,1.663.318.939.838,1.4.824.826.419.775.419.609.229.6.3.572.343.774.254.24-.356.229-.355.267-.356.482-.164.762-.306,1.1-.152.7-.179.623-.292.52-.127.178.356.33.5.419.2.508.012.343.012.253.014.382-.268.533-.1.444.216.61.318.1.3.762.976.558.445.673.444.673.431.456.2.165-.685.039-.546.253-.2.636.229.216.215.176.419.47-.026-.024.508-.014.28-.051.343-.013.254.571.279.3.279.153.255.748,1.194.635.646.646.1.482.051.255-.063.241-.914.306-1.258.229-1.066.254-.724.392-1.1.622-.025.674.037.621.165.521.343.191.356.242.469.951.076,2.375.063.215.534.19.357.2.506.153.28.457.178.521.012.444-.267.3-.19.255.394.417.2.229.076.572.2.85.457,1.854.393.762.685.329-.089.419-.687.7-.43.458-.063.457.178-.153.557-.228.547-.1.432-.063.507-.038.394.064.38.28.14.747-.1.573-.152.762-.242.442-.317.216-.164.305-.126.939-.292.33.051-.076.887v.432l.14.267,1.106.2.621.153.482.152.471-.1.47-.254.3-.191.419-.024.432.152.432.14.85-.509,2.019-.178h1.079l.8.292.61.241-.381.851.025,1.067-.2.483-.559.151-.14.622-.3.889-.1,2.424-.114.368-.1.382.039.483-.572.189-.787.292-1.053.546-1.016.775-.432.444-.889.52-.711.407-.635.368-.8.052-.585.1-.063.3.292.317.254.635-.457.317-.559.178-1.066.317-.978.369-.1.483.241.635.533,1.205.85,2.412.407,1.485.38,1.726.965,1.917.547.723.444.242.851-.495-.064,4.278-.189.609-.077.52-.114.482-.28,1.08.33.1.787.241.889.3,3.236,1,.623.255.722.125,1.41.292,1.193.076.28.343-.012.609-.077.621-.076,1.917-.42,2.958-.621.178v1.217l-1.193,2.082-.839,2.462-.291.877-.025,4.455.57.673.33.623.838,1.091.609,1.193.508.876.089.394-.2.481-.343.622-.634.851-.445.863-.431.088-.52.026-.774-.052-.965-.254-2.158-.267-.622-.163-.813-.166-1.206-.09-1.23.039-.229,1.1-.113.546-.14.939-.115.673.128.521.394.748-.763,1.9.662.457.609.088,1-.1-.063.483-.191.584-.279,1.016-.837.762-2.222.316-.648.076-.786.344-.28-.051-1.017-.394-.9-.711-.7-.788-.876-.05-.99.305-.28.761-.723,1.461-1.294,1.828-1.181,1.092-1.131.013-.533,2.043-2.26,2.83" transform="translate(-1388.54 -1145.26)"  stroke="#fff" stroke-linecap="square" stroke-linejoin="bevel" stroke-width="1" fill-rule="evenodd"/>
      <text id="196" transform="translate(54.034 42.759)" fill="#fff" font-size="13"  font-family="OpenSans-Bold, Open Sans" font-weight="700"><tspan x="-11.863" y="0"></tspan></text>
    </g>
    <g id="_190_Kalamb" data-name="190 Kalamb" transform="translate(451.04 1101.877)">
      <path id="talId190" fill="#7DB8EC" title="Kalamb"  data-name="Kalamb" d="M1461.17,1253.389l-.152-1.536-.85-.989-2.018-2.627-.977-1.029-.978-.965L1456,1245.2l-.19-.888-.559-1.562-.47-1.739-.356-1.46-.482-1.295-.686-.914-.583-.57-.61-.357-.812-.343-.8-.47-1.067-.279-.761.025-1.1.153-1.028.2-.889.381-.888.394-1.142.366-1.536-.646-2.234-.381-1.942-.977-.977-.635-1.3-1.065-.913-1.093-.547-.279-1.473.089,2.26-2.831.533-2.045,1.13-.013,1.18-1.091,1.3-1.829.723-1.461.28-.761.99-.305.876.052.7.787.9.71,1.017.394.278.051.787-.343.649-.076,2.22-.318.838-.761.279-1.016.19-.583.063-.483-1,.1-.609-.089-.661-.457.761-1.9-.393-.749-.127-.521.115-.673.14-.939.115-.547.227-1.1,1.232-.039,1.205.089.813.165.621.164,2.158.267.965.255.774.049.521-.024.431-.089.445-.862.635-.852.343-.622.2-.481-.088-.394-.509-.876-.609-1.193-.838-1.092-.33-.623-.571-.673.026-4.455.292-.877.837-2.462,1.194-2.082v-1.219l.622-.179.419-2.957.076-1.917.076-.622.013-.61-.28-.343-1.193-.076-1.409-.292-.724-.126-.622-.254-3.238-1-.888-.305-.788-.24-.33-.1.279-1.081.114-.481.076-.521.192-.609.063-4.279-.851.5-.444-.242-.547-.723-.964-1.917-.381-1.727-.406-1.485-.851-2.411-.533-1.207-.241-.635.1-.483.976-.37,1.067-.316.559-.177.456-.318-.254-.634-.291-.318.064-.3.583-.1.8-.051.635-.368.711-.406.888-.52.432-.444,1.017-.775,1.052-.546.788-.292.57-.19-.038-.483.1-.381.114-.368.1-2.424.3-.889.141-.622.559-.152.2-.483-.025-1.066.381-.851.521-.038.571.127.281.305.341.315.737.585.241.191.482-.1.508-.1.432-.038.8-.038.482.342.635.254h.609l1.257.153.368.253.292.622.33.445.494.71v.749l.038.368.14.368.153.267.014.331-.191.317-.331.228-.279.267-.1.266-.077.457.114.558.126.75-.126,1.09v.394l.228.381.152.508.33.495.292.432.508.152h.444l.888.05.559.052.469-.09.355-.6.558-.52.534-.215.571-.254.775-.242.837-.3,1.041-.115,1.18-.241.419-.735.47-.432.583-.355.737-.152.533-.039.329.14.6.661.635.178.229.456.177.622.189.546-.164.774-.329.3-.217.177-.876.444-.824.686-.242.495-.19.418-.33.394-.292.317-.28.38-.215.369-.076.407.064.342.2.152.508.05.407.09.139.267.33.7.356.444.507.254.394.178.762.216.773.013.458-.089.623-.165.887-.457.521-.153.026-.483-.191-.609-.266-.9-.229-1.485-.039-.622.115-.6.165-.533.177-.305.331-.572.71-.037.711.165.761.242.851.216.635.2,1.714.558.673.367.406.229.177.229.266.495.14.875.165.661.089.139.063.154.418-.178.394-.128.305.014.368.076.343.153.217.163.279.382.063.266.166.6.075.406.039.458.139.52.344,1.27.457.7.6.38,1.131.319.583-.025.889-.178.584-.217,1.408-.431.646.024.7.127.724-.064.443-.114,1.651-1.231,1.092-.673.889-.47,1.016-.494.736-.483.724-.241.8-.026.366.267.5.457.469.229.508-.089.482-.216.609.09,1.7.127.865-.432,1.295-.255,1.51.153,1.193.19.686.292.825.318,3.021.495.152,1.079.064.585.216.875-.051,2.374.151,1.053.038.736.267.432.279.406.139.05.446.088.368-.432.229-.227.43-.038.622-.331.19-.2.305-.686-.254-.572-.329-.47-.331-.812-.1-.711.254-1.421.127-.775.445-1.981,1.446.09,1.3.355,1.283.025.647.114.99.291,1.358.532.431-.037.6-.28.407-.089v1.283l.076.242.686.063.482-.039.52-.05.622-.026.407.014.507.012.8.317.444.254.837.293.445-.1.863-.14,2.26-.114.889.28.456.229.381.139.292.152.267.1.406-.089.786-.178.393-.051.775-.241.977-.344.115.509.088.521.063.976-.012.827.09.253.379.192.394.138.559.166,2.3.648.647.227.419.128.458.14.406.089-.2,2.246-.331.7-.483.406-.267.5-.215.824-.33,1.333.115,2.45-.1,1.345-.267.216-.634.165-.6.2-.533.1-.609.037-.6.039-.724.1-.292.138-.165.7.432,1.486.216.787.063.813-.088.761-.026.711-.24,1.206.152.635.978.178.329.152-.076.316-.281.152-.557.609-.457,1.1-.191.5-.064.369.2.2.712.05.026.419.063.253.317.419.6.267.889.368.825.292.583,1.371.1.5-.152.24-.661.038-.418.114-.43.114-.305.127-.077.418.165.788.344,1.382.569,2.565.191,1.13.114,1.473-.076,1.485.228.635.268,2.894-.369-.254-.648-.393-.469-.559-.723-.356-.788-.177-.584-.14-1.091-.141-.7-.113-1.015-.647-1.143-.381-.838-.191-.647-.191-.825-.2-.761.077-.5.178-.521.241-.355.318-.354.6-.178.368-.216.37.089,1.167-.318.6-.343.444-.153.534-.14.863-.317.7-.126.432-.243.647-.5.686-1.294,1.6-.559.647-.355.456-.395.369-.468.407-.483-.622-1.777-1.358-.852-.254-1.1-.318-.838-.356-1.04-1.053-.433-.483-.114,2.4-.279.394-.432.33-.483.773-.584.814-.571,2.272-1.7-.2-1.473-.521-1.016-.291-.457-.445-1.231-.762-2.362-.1-3.834-.013-.7.342-.585.039-.7-.088-.468-.584-.331-.686-.6-1.167-1.205-.153-2.285-.051-.724-.115-1.84-.279-.991-.229-.978-.191-.419-.228-.749-2.132-.685-1.284-.343-.812-.1-.545-.343-.7-.329-.723-.406.025-.674.355-.546.292-.824.417-.864.382-1.586.165-2.273.14-1.294-.14-1.841-.382-1.04-.165-1.892-.252-.356-.051-.063,1.3-.076.874-.19,1.487-.444,1.092-.127.939-.051.178-.014,1.143-.43.914-1.105,1.217-.939.687-.431.583-.584.889-.229.851-.33.837-.14,3.06.368.418.457.064h.546l.508.546-.088.787-.23.735-.216.381-.356.458.547.419.241.266.368.266-.191.446-.088.5-.075.633-.75.522-.6-.344-2-.114-.572,1.079-1.764.076-2.9.114-1.408.3-.469.242-.534.127-.394-.141-.572-.379-.482-.3-.787-.458-.649-.368-.7-.2-.648.3-.813.369-.19.483.394.456.328.253.243.38.227.445.2.584-.178.636-.127,1.992-.077.382-.113.191-.33.19-1.042-.025-.481.1-.2.24-.316.623.013.292-.471.341-.635.559-1.116.952-.254.153-.407.407-.329.418-.115.52-.774.674-.915.684" transform="translate(-1432.659 -1154.92)"  stroke="#fff" stroke-linecap="square" stroke-linejoin="bevel" stroke-width="1" fill-rule="evenodd"/>
      <text id="190" transform="translate(59.98 46.442)" fill="#fff" font-size="13"  font-family="OpenSans-Bold, Open Sans" font-weight="700"><tspan x="-13.156" y="0"></tspan></text>
    </g>
    <g id="_192_Osmanabad" data-name="192 Osmanabad" transform="translate(480.105 1165.129)">
      <path id="talId192" fill="#7DB8EC" title="Osmanabad"  data-name="Osmanabad" d="M1474.288,1306.112l-.711.254-.508-.382-.229-.533-.2-.978-.05-2.6-.634-.825-.508-.369-1.218.026-1.753.229-1.573.063-1.969.2-1.46.063v-3.8l-1.192-.331-.584-.215-.559-.357-.241-.57.038-.584-.013-.762-.279-.723-.063-1.258-.267-.735-.076-.864-.3-.634-.482-.305-.293-.394.382-.292.43-.114.547-.3.088-.558.368-1.1.139-.19.571-.279.736-1.5.623-1.4.773-2.641.305-1.257v-1.371l-1-1.853-.624-.811-.963-.776-1-.61-.977-.583-.026-.623-.064-.748v-.572l-.278-.61-.5-.406-.393-.507.3-1.182.381-1.79.546-.43.355-.3.318-.432.305-.546.19-.685.355-.991-.254-1.829.254-.761.177-.572.152-.584-.1-1.562-.456-.926-.5-1.968-.229-.8-1.269-.964L1457,1253.1l-.394-.456-.164-.864-.215-1.269.051-.9.228-1.726.6-2.045.317-1.193v-.584l-.139-.558-.5-.724-.724-1.448-.94-1.307.915-.686.773-.673.114-.52.332-.419.406-.407.253-.151,1.118-.952.634-.558.469-.343-.013-.292.318-.622.2-.241.482-.1,1.041.026.329-.191.115-.19.077-.382.127-1.993.178-.634-.2-.584-.23-.444-.24-.38-.33-.254-.394-.457.19-.483.813-.368.647-.3.7.2.649.367.787.457.481.3.573.383.393.139.532-.126.47-.242,1.409-.305,2.9-.113,1.765-.076.57-1.079,2.006.115.6.342.749-.52.076-.635.088-.495.191-.444-.368-.267-.241-.267-.546-.419.357-.457.216-.38.228-.737.088-.787-.507-.545h-.546l-.457-.064-.367-.419.139-3.059.33-.838.228-.85.584-.889.433-.584.938-.685,1.1-1.22.432-.913.013-1.142.05-.177.127-.94.444-1.092.191-1.485.076-.876.063-1.294.356.051,1.891.254,1.041.165,1.841.381,1.294.139,2.272-.139,1.587-.164.864-.382.824-.419.546-.292.672-.356.407-.025.33.723.343.7.1.546.344.813.686,1.281.749,2.132.419.229.977.19.991.229,1.841.278.723.115,2.285.05,1.207.154.6,1.168.33.684.469.585.7.088.583-.038.7-.343,3.833.012,2.362.1,1.231.762.457.444,1.015.292,1.474.521,1.7.2.571-2.273.584-.813.482-.774.431-.33.28-.394.114-2.4.432.481,1.041,1.055.838.355,1.1.316.852.254,1.777,1.358.481.623,1.08.94.724.507.419.393.673.318.494.293.724.47.381.354.584.318.9.495.547-.051,2.081.3.508.178.9.278,1.371.039,1.079.609.482.749.748.851,1.054,1.409.711-.482.609-.445.5-.711.3-.546.47-.546.914-1.027,1.3-1.067,1.18-.723,1.18-.584,1.029-.749.279.012.252.166-.1.622-.178.888-.027.864.141,1.6-.28,1.79-.254,1.484-.127,2.3-.241,2.563-.089,1.232,1.1.216,1.841.558,1.155.572,1.8.775,1.625.735,1.015.228.038,1.358-.29,3.491-.2,2.742-.266,1.867.113,3.2-.025,1.065-.991.267-.242.431-.177.331-.343,1.256-.266.458.013.381.115.293-.076.291-.217.317-.14.445-.406,1.015-.9.165-.584.026-.356.19-.165.127-.482.025-.394.19-.495.509-.6.786-.367.482-.242.368-.279.3-.572.3-.19.19.025,1.245.05.825.471,1.383.087.445.077.445.025.419.051.19.94.076.634.026.687.012h1.129l.521.077.127.52-.077,1.853-.241.889-.192.584-.279,1.409-.255.1-.417.164-.191.331-.025.52-.356,2.273-.533,1.587-.217.456-.469.329-.406.343-.432.445-.457.559-.381,1.054-.392.393-.216.279-.089.355.127,2.387-.038,1.409.241.661.077.634-.039.762-.024,1.016.063,1.065-.191.737-.2.419-.227.381-.381.331-.356.456-.3.863-.038.293.125.253.229.318.216.355.33.622.267.559.241.393.254.484.064.226.19.305.354.305-.456.889-.139.735-.3.966-.166.76-.076.42-.152.444-.013.812,1.09.152.712.076.736.2.634.139.534.076.635.128.494.038.292.152-.026.3-.088.318-.229.38-.191.331-.138.343.292.254.445.14,1.4.381-.217.127-.368.2-.635.1-.61.5-.431.368-.317.165-.457-.038-.508-.28-.469.077-.355.317.012.621-.546.953-1.078.66-.711.521.051.9.355.076.736.279.483.66.1,1.194.457,1.168-.026,1.1.153,1.066.432.076,1.041.025-.077,5.13-.279,1.027-.1,2.844-.406.483-.583.139-.864.153-.849.368-.8-.026-1.333-.114-.406.317-.33.38-.292.686-.241.914-.266.965-.6.024h-.636l-.8.243h-.724l-.811-.369-5.319.012-.293-.267-.495-.356-.42-.266-.393-.458-.2-.354-.241-.559-.7-.66-.735.367-.267-.013-.534-.1-.863-.28-.71-.126-.7-.191-.763-.063-.775-.178-.8-.254-.877-.127-.7-.305-.418-1.307-.305-.9-.292-.915-2.22.026h-1.144l-.584-.089-.9-.255-.508-.241-1.067-.519-1.435-.673-.773-.369-.521-.025-.825-.038-.737-.115-.75-.177-.951-.457-.421-.978-1.205-.318-.393-.19-1.041-.077-1.028-.012-.62.418h-1.347l-.089-.165v-.57l-.115-.559-.152-.318-.316-.406-.242-.557-2.132-.115-.534-.216-.507-.381-.5-.431-.533-.355-.61-.014-.622.292-.406,1.131-.952.2-.864.14-.6-.457-.354-.648-.406-.812-.634-1.118.075-1.409.09-1.015-.114-1.436-.572-2.3-.532-1.574-3.111.3-2.424-.229-1.156.14-1.536.138-1.688-.1-2.171-.571-.9,1.13-1.258,1.511-1.573,1.688-1.422.952-1.663.977-.672.3-1.778,1.143-1.713.976" transform="translate(-1455.119 -1204.52)"  stroke="#fff" stroke-linecap="square" stroke-linejoin="bevel" stroke-width="1" fill-rule="evenodd"/>
      <text id="192" transform="translate(49.915 63.19)" fill="#fff" font-size="13"  font-family="OpenSans-Bold, Open Sans" font-weight="700"><tspan x="-21.234" y="0"></tspan></text>
    </g>
    <g id="_194_Tuljapur" data-name="194 Tuljapur" transform="translate(456.656 1258.202)">
      <path id="talId194" fill="#7DB8EC" title="Tuljapur"  data-name="Tuljapur" d="M1436.741,1325.06l-.1-3.733.266-3.833.786-1.485.508-.838.28-1.561.177-1.828-.215-.419-1.027-.051-.039-.5.584-.864.165-.66.229-1.142.724-1.067,1.332-2.958.42-.406.418-.254.572-.61.623-.291.633-.05,1.233.2,1.561.089,1.51,1.092.47.368.748.468h.6l.546-.063.394.241.495.215.292-.05.445-.344.292-.328.558.025.634.24.94.063,1.358.623.469.039.6.229.191.685-.037.165-.051.749-.115.673-.152,1.079.407,1.028.761,2.234.813.723,1.092.229.926.355,1.677.253,3.021-.862,2.488-.787.711-.127,1.307.406.888.381,1.283.636.71.621.712.064.837.013,1.4-.255.3-.481-.025-.826.431-2.373.127-2.424h.445l.673-.025,1.37-.1,1.194-.508.1-1.713.546-1.841.62-2.324.369-1,.381-1.5.114-1.675.75-.394.583-.47.419-.521.774-.685.812-.7.571-.508-.775-1.32-.165-.673-.355-.52-.47-.014-.724.127-.621.166-.28.026-.2-.127-.165-.407-.14-.5-.178-.634-.52-.026-.875.216-.877.482-.862.19-.343.166-.394.241-.761-.216-.217-.355.153-1.079.482-.978,1.1-.7.533-.686.228-.419.05-.392,1.714-.979,1.778-1.142.673-.3,1.663-.977,1.422-.952,1.574-1.688,1.258-1.51.9-1.13,2.171.572,1.688.1,1.536-.139,1.155-.14,2.424.228,3.111-.3.532,1.573.573,2.3.114,1.434-.089,1.017-.076,1.409.635,1.116.405.813.355.648.6.456.863-.14.952-.2.408-1.13.621-.292.609.013.534.355.494.433.508.38.533.216,2.133.114.241.558.317.407.153.318.114.557v.572l.089.166h1.345l.623-.42,1.027.013,1.042.076.393.191,1.206.317.42.978.951.457.75.178.736.114.826.038.52.026.774.369,1.435.673,1.066.52.508.241.9.254.585.089h1.141l2.221-.026.292.914.3.9.419,1.307.7.305.876.127.8.253.776.179.76.062.7.19.71.127.864.279.534.1.266.013.737-.369.7.661.242.558.2.355.394.458.419.267.5.355.292.267,5.319-.014.813.368h.723l.8-.24h.635l.6-.026.354,1.219.547.47-.114.583.558.724.47.672.6.6.877.839,1.739,1.307,1.079.673-.152,1.116.292.826.076.761.178.686.775.52.647.52.393.522.115.507.255,1.016.329.812.026.85.621.216.687.343.646.331.647.2.775.431.343.6-.026.748-.064.469,2.171.317.177.953-.177,2.2.432.661.61.38.482.343.52.367.2.318.368,1.828.166,2.259.583.534.863.736.266.647-.356,1.168.038.622.165.559.166.533.076.52.177.368.851.368.71.368.47.458.266.381.56.749.151,1.244.09.445.788.481.863.623,1.168.635,1.118,1.8-.026,4.759-.266,1.714-.559,1.535-.495,1.105-.2.622-.546.775.013.229,1.091.14.572-.013,1.091.381.216,4.431-.507.85-.063,3.084-.255.964-.012,4.012-.343.979-.078,1.46.078.456.672-.089h.863l.571.253.42.356.341.458.267.533.266.05,1.841.228,1.244.1.1.914.52,1.358.343.8.152,1.828-.229,1.078-.2.649-.229.506-1.179,1.016-2.133.761-1.854.813-2.628.787-.6.266-.28.228-.178.406.013,2.882-.355.7-.09.622-.28.635.839.343,1,.178.814.165.8.051.914-.153.609-.216.583-.482,2.679.292.939.47.05.61-.127.6-.2.509.012.571v.47l-.457.762.064.483.216.165.507-.255.419-.2.407.024.368.395.2.533.177.406.037.573.407.011.7.457.483.774.278.877.622,1.6.127,1.714.026,1.625-.065.964-.825-.253-1.333-.355-1.561-.242-.762-.126-1.015-.229h-.762l-.291-.356.1-.647-.063-2.45-.128-.482-.3-.635.114-.52.051-.585-.14-.837-.089-.99-.687.038-.621.1-.813.216-.762.012-.9-.228-.737-.229-.558-1.079-.444-.94-.5-.748-3.605.19-.583.38-.813.216-.6-.077-1.054-.113-.812-.115-.838-.165-.584-.113-.875-.446-.369-.431-.369-.545-.5-.928-.684-1.548.165-.711.152-.571-.012-.343-.267-.3-.724-.344-.648-.216-1.244-.394v-.672l-.254-.636-.382-.431-.7-.456-.686-.407-.939-.076-2.31.165-.622.292-.381.115-.432-.026-.5-.317-.838-.166-.749.039-1.18.178.012,1.091-.495.407-.826.381-.927.432-1.067.837-.367.635-.5.977-.063,1.32-.622.063-3.047-.482.153.571.216.635.026,1.053-.381.267-1.206-.139-1-.038-2.12-.166-.05,3.086-3.173-.1-1.231-.217-.8.026-1.092.242-1.383.8-1.689.7-4.126-2.144-.991-.521-.786-.064-.127-.406v-1.231l-1.371-.051-.953-.063-1.206-.014-.673.128-.545.113-.356-.127.012-.342.114-1.042-.178-.761-.114-.837v-.509l.077-.76.1-.394.407-.508.444-.368.368-.1.762.138,1.816.495,1.015.559.482.114.482-.026.5-.661,1.371-2.829.1-.61-.33-.521-.5-.354-.482-.229-.507-.012-.711-.064-.7.051-1.1-.178h-1.016l-1.015-.19-.952.013-.292-.344-.191-.786-.2-1.207-.025-.52-.115-.9-.013-1.167.267-1.524-1.409.393-.6-.393-.47-.013-.584-.126-.508-.419-.661-.3-.152-.381.038-.634.013-1.117-.52-.293-.687.025-.52.076-.14.2-.343.216-.355-.051-.559-.343-.659.039-.559.6-.888.165-.723.013-1.3-.078-.456-1.205-.228-.711-.216-.47-.279-.406-.47-.71-.888-.2-.813-.116-.812.153-.483.191-.9.229-1.231.166-.685.836-.508.293-.711.723-1.041.228-.419-.1h-.5l-.6-.266-.824.8-.394.584-.457.558-.977-.343-.636-.343-1.1-.127-4-.1-.5.025-.418.6-.293.393-.609.546-1.143.826-1,.812-1.091.623-1.156.444-.99.38-.216-.189-.139-.559-.089-.572.051-.889.369-2.2.127-1.968.3-3.11.166-.864.139-.089.685-.076.636-.114.2-.406-.064-.584-.2-.75-.521-1.027-.139-1.257.088-.381.47-.647.381-.673.508-.876.393-.623.356-.875-.152-1.473-.115-.571.483-.864.3-.635-.394-.2-.85-.127-.623-.013-.66-.076-.672-.114-.292-.5-.432-.52-.571-.469-1.155-.622-2.323-.991-1.1-.419-.928-.3-.887.178-.648.495-.115,1.816.1.888.165.431.381.5.1.483v1.751l-.266.215-.661.089-.94.191-.749.253-.507-.126-.075-.293-.344-1.167-.33-1.091-.33-1-.444-.5-.381-.38-.482-.381-.572-.38-.952-.571-.876-.711-.368-.7-.534.063-.482-.419-.126-.418-.128-.623-.063-.673-.431-.443h-.813l-1.1.115-.864.557-.254,1.3-.71,2.145-.446,1.219-.7.077-.825.013-.762-.09-1.193.09-.672-.292-.9-.3-1.219-.533-1.079-.824-3.225-1.195-1.079-.341-.952-.038-1,.177-.089-4.138-.419-.445-1.08-.749-2.309-1.18-.75-.229-.609-.609-.28-.953-.265-1.141-.876-1.436-1.257-1.98-.255-1.117-.164-1,.164-.952.292-.52.458-1.143.875-2.729.153-.838-.254-1.435-.711-1.281-.33-.394-.724-.216-.533-.026-.977-.266" transform="translate(-1436.64 -1277.709)"  stroke="#fff" stroke-linecap="square" stroke-linejoin="bevel" stroke-width="1" fill-rule="evenodd"/>
      <text id="194" transform="translate(76.364 67.117)" fill="#fff" font-size="13"  font-family="OpenSans-Bold, Open Sans" font-weight="700"><tspan x="-16.13" y="0"></tspan></text>
    </g>
    <g id="_191_Lohara" data-name="191 Lohara" transform="translate(572.69 1258.838)">
      <path id="talId191" fill="#7DB8EC" title="Lohara"  data-name="Lohara" d="M1537.865,1278.33l.381.407.5.267.659.089,1.092.063.686.038h.736l1.994-.1.419.025.1,1.4.609,3.02.076.863.177.344.724-.242.381-.33.622-.293.8-.013.774.038.571-.026.635-.216.6-.127.9-.418,2.309-1.511,1.6-.647.926-.381,1.066.051.889.469.521.659.254.8.215.749.508.572.407.267.939.317.292.825.507.926.889.583.482.228-.076.724-.229.723-.126.648.33,1.269.559.686.431.457.876,1.218,1.131.623,1,.2,1.194.356.508.558.292.787.306.52.342.267.8.255.839.24,1.193.1,1.4.228,3.224.115,1.054.672.914.47.851.09.431-.369.558-.559,1.016.229.85.2.788.229.558.47.736.228,1.079-.241.571.3.94.406,1.028.076.712-.05.253-.775.166-1.258-.038-1.345.2-1.269.318-1.7.47-.521,1.168.419,1.194.114.786.381.47.229-.038.608-.242.839-.6,1.32-.1.787-.064.876.012.813v.6l.621.278.572-.19.6-.255.761-.19.47.013.216.495.33.42,1.1.089,1.117-.127.128-1.714-.089-1.345.178-.635,1.193-.177,2.412.266.889.3.343.621.063.9.253.635.6.089.8-.317.633-.255.546-.253.737-.85.215-1.283.368-.545.711-.3.749.229.8.342,1.028-.026.267.368.2.533.025.813-.5,1.447-.089.825-.152.647-.3.991-1.117,2.106-.241.572-.622.025-1-.025-1.053-.05-.851.076-.8-.1-1.269-.509-.75-.1-.139.8-.268.762.013,1.651-.127,4.481-.444,2.386-.381,2.361-.178.762-.509.71-.672.013-1.587-.126-1.181-.1-1.065-.229-1.093-.076-.127.876.089.773-.343.535-1,.761-.685,1.118-.279,1.053-.407.851-3.262-.051-.61-.42-.838.077-.851.431-1.219.736-.279,1.4-1.308,1.257-.571,1.079-2.653-.039-.279.216-1.015.317-.775.268-.724.152-1.853.013-.584.33-.013.368-.089.533-.432.47-.481.7-.521.343-1.067.736-1.917,1.016-1.992,2.119-.381.776-.088.584.114.7.482,1.408.444.762.013.863-.063,1.105-1.117,2-.648,1.144-.355-.1-.343-.458-.52-.3-.559.368-1.016,1.32-.851,1.1-.215,1.231.406.559v1.548l-.064.483-.253.494-.367.623-.762.888.038.863-.394.329-.66.432-.419.825-.14.9.533,3.656.317.114.33.025.7.317.584.66.558,1.054.927,1.384.6,1.511-.125,1.04-.636,2.323-1.523,2.4-.483.761-.2.6.114.507.152.38.228.432.394.635.418.394.915.417,1.778.268.19.037.546.051.991.076.673.2.672.013.661-.229,1.13-.025,1.485-.14,1.169.128-.318.507.61.521v3.289l-.292.545-.978,1.067-.736.811-.1.369-.266.762-.6,1.141-.432.546-.545-.075-.382.241-.546.457-.99.811-.572.548-1.028.671-.229.572-.368.5-.381.381-.546.469-.355.61-.762.165-1.117.355-.584.356-.42.126-.71.2-.623.255-.584-.026-.94-.469-2.678-.292-.583.482-.609.214-.913.153-.8-.051-.813-.165-1-.178-.838-.342.279-.635.089-.622.356-.7-.013-2.882.177-.406.28-.227.6-.267,2.628-.787,1.854-.812,2.133-.762,1.18-1.016.229-.507.2-.648.228-1.078-.152-1.828-.343-.8-.52-1.359-.1-.913-1.244-.1-1.842-.229-.265-.05-.267-.534-.341-.458-.42-.354-.572-.255h-.862l-.674.089-.076-.457.076-1.46.344-.979.012-4.012.254-.964.064-3.085.506-.851-.215-4.43-1.091-.381-.573.013-1.09-.14-.013-.229.546-.775.2-.621.494-1.106.559-1.534.266-1.714.026-4.76-1.118-1.8-1.168-.634-.863-.622-.787-.482-.089-.445-.153-1.244-.559-.749-.266-.38-.47-.457-.71-.368-.85-.369-.177-.368-.076-.52-.166-.533-.165-.559-.038-.622.356-1.169-.267-.647-.864-.735-.583-.533-.165-2.261-.369-1.828-.2-.316-.52-.368-.482-.343-.61-.381-.432-.659.179-2.2-.179-.953L1540.8,1321l.064-.471.025-.748-.343-.6-.775-.431-.647-.2-.647-.33-.686-.342-.621-.216-.026-.85-.329-.812-.255-1.016-.115-.508-.393-.521-.648-.519-.774-.521-.178-.685-.076-.761-.292-.826.152-1.116-1.078-.673-1.739-1.307-.876-.839-.6-.6-.469-.672-.559-.723.115-.585-.546-.47-.354-1.218.265-.964.241-.914.292-.686.331-.382.407-.316,1.332.114.8.026.85-.369.863-.152.583-.139.406-.483.1-2.843.279-1.028.077-5.129-1.043-.026-.43-.076-.152-1.066.025-1.106-.458-1.167-.1-1.194-.483-.66-.735-.279-.356-.076-.051-.9.712-.52,1.079-.66.545-.952-.013-.622.355-.318.47-.075.509.279.458.039.316-.166.432-.368.61-.5.635-.1.367-.2.216-.127" transform="translate(-1528.13 -1278.33)"  stroke="#fff" stroke-linecap="square" stroke-linejoin="bevel" stroke-width="1" fill-rule="evenodd"/>
      <text id="191" transform="translate(35.33 42.481)" fill="#fff" font-size="13"  font-family="OpenSans-Bold, Open Sans" font-weight="700"><tspan x="-13.445" y="0"></tspan></text>
    </g>
    <g id="_195_Umarga" data-name="195 Umarga" transform="translate(604.925 1275.519)">
      <path id="talId195" fill="#7DB8EC" title="Umarga"  data-name="Umarga" d="M1554.2,1386.608l.585.025.622-.253.71-.2.42-.127.583-.356,1.117-.356.763-.165.354-.609.547-.469.381-.382.369-.5.228-.57,1.027-.673.572-.546.99-.812.546-.458.381-.241.545.076.433-.545.6-1.144.267-.76.1-.368.736-.814.977-1.065.292-.546v-3.287l-.609-.521.318-.507-1.167-.127-1.486.14-1.13.026-.66.226-.674-.012-.672-.2-.99-.076-.546-.052-.19-.037-1.777-.268-.915-.419-.418-.393-.393-.634-.228-.432-.153-.381-.114-.508.2-.6.481-.762,1.523-2.4.634-2.321.127-1.042-.6-1.51-.927-1.383-.559-1.055-.585-.66-.7-.317-.331-.026-.316-.114-.533-3.656.139-.9.419-.826.66-.431.394-.33-.038-.863.761-.889.369-.621.254-.5.063-.482v-1.549l-.406-.558.215-1.232.851-1.1,1.015-1.32.559-.369.52.3.343.457.354.1.649-1.143,1.118-2.005.063-1.1-.013-.863-.443-.762-.483-1.41-.114-.7.089-.585.381-.775,1.992-2.119,1.917-1.016,1.067-.736.52-.343.482-.7.432-.47.088-.532.012-.368.585-.33,1.853-.012.724-.152.775-.267,1.015-.317.279-.216,2.654.038.571-1.078,1.308-1.257.278-1.4,1.219-.737.85-.432.839-.076.609.419,3.263.051.406-.85.28-1.053.686-1.117,1-.762.344-.533-.09-.775.128-.876,1.091.077,1.066.228,1.181.1,1.587.127.674-.012.507-.71.179-.763.38-2.361.445-2.385.127-4.482-.013-1.649.268-.762.14-.8.748.1,1.271.507.8.1.851-.075,1.053.049,1,.025.622-.025.241-.571,1.117-2.108.3-.99.152-.647.088-.826.5-1.447-.026-.812-.2-.533-.268-.369.776-.381,1.853-.19.761.33.432.533.571.61.572.355.583.419,1.092-.254.9-.482.432-.229.253-.178.736-.482.013.673-.165,1.206-.139.877-1.105,4.721-.241,1.206.839.217,1.04.584,1.091.71,1.575.153,1.536-.025,2.869.279,3.706.127,3.872.064,3.5.965.724.533.952,3.567.343,1.232.279.748.165.61.139.482-.368.316-.648.064-.684.063-.5.178-.762.2-.342-.685-.152.647-.1.356-.433.292-.24,1.281.571,1.092.127.85-.241.635-.139.444-.178.305h.5l.634.14.47.1.5.406.19.559-.355.482-.622,1.333-.507.647-.152,3.109-.217,1.168.127.6h1.474l1.763.166,1.054.1,1.144.14,1.32.229,1.661.152,1.32.14h.712l.7-.14.787-.267.661-.025.646.266.153.546.115.545.521.369.6.012.748.1.661.279.19.152,1.054,2.4.329.24-.1,12.276,4.038-.394,3.427,1.891H1657l1.41,1.765.15,1.193,1.79,1.79,1.385.369.838,2.246-.737.749-1.4,1.282-.027,2.957-1.293,2.464-2.464-.013-.633,2.145-1.117,1.093-2.5-.076-.406.647-2.246.3.279,1.27-1.548-.038-4.8-2.285-1.752,2.082-.355,2.373,2.171.775-.522,4.989,1.613.342.52,3.592-7.235,2.781,1.23,1.409-1.332,4.277-2.043.484.254,3.02-.864,2.3.127,1.561-.191.318-.57.1-.382-.229-.253-.508-.254-.583-.343-.356-.292.052-.469-.077-.317-.318-.559-.483-.584-.3-1.055-.381-.951.623-.432.3-.495.1-.1-.3-.052-.749-.216-.723-.6-1.828-.013-.787-.342-1.244-.242-.964-.646-1.232-.774-1.473-.254-.621-1.307-.445-.763-.115-.875-.317-.686-.267-.813-.393-.608-.14-.305-.507-.192-1.359-.265-.711-.116-.407v-.736l-.139-.559-.165-.571-.064-.876.013-.443.115-.483.268-.368.14-.368-.178-.407-.888-.38-.776-.6-1.065-1.4-.483-.735-.216-.533-.534-.368-.7-.255-.42.153-.253.622-.6,1.37-.241.483-.127.686-.405.367-.141.673-.228.939-.406,1.6-.494,2.234-.42,2.247v.432l.255.521.012.318-.214.3-.243.191-.634.2-.787.775-.318.495-.622,1.13-.343,1.143-.266.609-.191.482-.343.127-.546.228-.964.2-1.713.115-.56.026-.19-.191-.139-.1-.014-.406-.089-.748-.076-1.079-.064-1.383-.227-2.3-.229-1.016.013-1.992-.1-1.562-.139-.9-.14-.431-.19-.318-.216-.229-.14-.3.063-.3.241-.482.75-.661.559-.279.215-.2.216-.306.025-.392-.127-.33-.266-.14-.267-.127-.38-.14-.407-.127-.342-.152-.508-.241-.673-.064h-.393l-.647.1-.533.165-.458.215-.406.165-.775.2-.241.114-.228.178-.33.025-.343-.051-.267-.127-.406-.089-.431.037-.419.153-.33.241-.622.2-.786.19-.394.077-.317.088-.2-.064-.253-.152-.344-.165-.444-.089-.38-.038-.191.242.1.622.089.8.013.381.063.8.394,1.447.33.851.139.787-.33,1.663v2.019l-.47,2.082-.267.736-.457.14-.888-.127-1.066-.253-2.183-.445-1.473.075-.7.127-.965.47-1.333.292-.851.431-.038.483v1l-.025,1.6-.305,1.613-.165,2.094-.279,1.625.062,2.233.267,1.219.293.99.292.952.216.545.2.66-.1.318-.355.317-.711.038-.559.025-.9-.025-1.269.013-3.44.012-1.27.317-.532.128-.509.177-.152.317.127.5.152.572-.14.291-.609.051-.357.026-.684.126-.61.026-.724.127-.012.317.076.369.14.329.166.381.176.482-.278.1-.28-.089-.254-.229-.75-.469-.609-.3-.3-.14-.673-.076-.458.037-.228.1-.292.229-.317.24-.939-.062-.407.025h-.265l-.8-.152-.75-.229-.533-.406-.9-.953-1.4-1.053.064-.965-.026-1.625-.127-1.713-.623-1.6-.279-.875-.481-.775-.7-.457-.406-.013-.037-.57-.179-.407-.2-.534-.368-.393-.406-.025-.42.2-.508.254-.215-.166-.064-.481.457-.762v-.47l-.013-.57.2-.508.127-.6-.051-.608" transform="translate(-1553.479 -1291.4)"  stroke="#fff" stroke-linecap="square" stroke-linejoin="bevel" stroke-width="1" fill-rule="evenodd"/>
      <text id="195" transform="translate(55.095 61.801)" fill="#fff" font-size="13"  font-family="OpenSans-Bold, Open Sans" font-weight="700"><tspan x="-15.761" y="0"></tspan></text>
    </g>
  </g>
</svg>
