<svg xmlns="http://www.w3.org/2000/svg" width="256.753" height="299.591" viewBox="0 0 256.753 299.591">
  <g id="PalgharDistrict" data-name="37 Palghar" transform="translate(-2390.998 -90.223)">
    <g id="_326_Talasari" data-name="326 Talasari" transform="translate(2416.791 90.918)">
      <path id="talId326" fill="#7DB8EC" title="Talasari Taluka" data-name="Talasari Taluka" d="M778.574,830.94l-.011-.112-.116-.028-.088-.033-.037-.03-.02-.029,1.435-.086,1.615-.272.4-.09,1.177-.1,1.2-.078,1.706.375.206-.039.491-.155.763-.078.258.091.672.284.956-.207.4-.22.258-.038.659.078.465.155.362.336.4.233.5.543.349.154.62.234,1.343.556.518.089.141-.167-.116-.685-.142-1.035-.129-.619-.246-.789-.763-.879-.73-.992-.019-.284-.045-.627-.013-.717.048-.174.111-.227.235-.236.22-.241.223-.185.437-.115.5-.08.686-.027.392-.076.426-.077.133-.068.055-.123.057-.146.115-.1.175-.059.169-.017.094.153-.024.208h.223l.049-.161.362-.49.3-.331.252-.179.4-.182.245-.1.142.209.061.242.246.113.229.139.207.145.427.265.242.268.116.253.182.23.223.32.226.25.216.24.362.361.25.181.331.072.318.08.288.167.248.1.222.048.285.086.167.081.25.045.261.013.042-.067,0-.153-.151-.261-.094-.352-.329-.724-.162-.45-.033-.6.02-.712-.007-.609-.152-.253-.235-.2-.275-.1-.232-.061-.165,0-.249.029-.31-.1-.177-.184-.013-.229.058-.449.142-.492.191-.351.331-.368.22-.162.113-.1.02-.212,0-.259.006-.4-.085-.4-.018-.707.071-.627-.129-.145-.259-.114-.164-.123.075-.193.2-.065.353-.033.129-.445-.033-.237-.016-.178-.017-.169-.042-.209-.13-.271-.273-.768-.139-.227-.156-.243-.148-.268.035-.217.09-.048.169-.074.184-.1.21-.132.374-.239.146-.074.068-.182.038-.227.1-.1.233-.068.21-.045.211.032.148.093.161.033.081-.022.1-.171.136-.1.369-.026.432.026h.447l.478-.026.6.04.412.1.421.052.142-.123-.129-.272-.285-.136-.251-.309-.323-.62-.285-.478-.452-.323-.045-.253.04-.349.084-.343.18-.5.394-.749.265-.194.278-.175.26-.194.122-.323.174-.523.207-.439.5-.342.917-.04,1.377.156.97.122,1.014.136,1.583.052.723-.014.117-.38v-.356l-.039-.659-.091-.924-.412-1.551-.091-.445-.091-.523.006-.278.078-.285.123-.1.47-.091.44-.026.621-.239.736-.233.633-.141.4-.208.258-.116.246.033.265.077.181.335.432.22.24-.1.354-.064.247.013.458.078.33.387.865.666.8.4.543.285.44-.04.323-.026.22-.465.245-.517.258-.4.349-.349.569-.169.621-.167.632-.053.323.388.194.283.324.22.426.065.62.232.543.22.724.013.943-.013,1.5.129,2.482,1.3,1.615.619.772.454.261.049.268,0,.253-.068.187-.088.394-.134.353-.219.918-.04.813.12.9.154.737.336.768.427,2.359,1.137.051.322-.3.7-.13.853-.277.9.116,1.344.129.595.232.724.083.672-.1,1.46.1.581.265.511.136.219.251.071.538-.064.51-.064.445-.007.563.131.917.25.614-.006.328.207.182.458-.182.4-.283.362-.434.73-.354,1.667-.025,1.5.329,1.19-.322,1-.627,1.306-.73,1.074-.5.813-.846,1.809-.361.7-.421.705-.277.664.1.814.382,1.015.2.279.239.451.11.316.324.407.238.124.53.2.369.318.109,1.026.136.873.361.814.568.278.479.155.556.22.38-.142.292-.29.362-.414,1.129-.038.846-.079.459-.071.621-.071.445.006.433-.323.111-.394.161-1.014.167-.834.227-1.105.194-1.363.071-.6-.129-.555-.116-.467.026-.407.174-.251.356-.35.154-.316.323-.342.375.122.316.22.8.343.109.251.038.376.381.561.174.245.317.285.361.167.594.065.523.032.208.155-.026,1.253-.084.136-.3.246-.633.413-1.24.615-.807.361-.363.227-.341.419-.323,1.041.168.556.155.44.284.884.142.478.271.2.323.109.679.111.62.419.535.576.5.69.395.672.311.75-.006.827.279.62-.414.31-.331.18-.321.2-.453.329-.323.569-.479.84-.775,1.13L857.277,846l-.465,1.169-.536.639-.465.291-.447.162-.511-.039-.3-.091-.51-.174-.51-.3-.344-.568-.129-.42-.2-.8-.078-.672-.988-.064-4.607-.187-.718.058-.557.246-.555.247-.485.323-.561.18.02-.478-.073-.49-.077-.44-.311-.439-1.273-.144-.581-.232-.53-.2-.465-.233-.575.039-.659-.174-.465-.743-.284.136-.336.238-.285-.038-.167-.284-.569-.045-.724-.123-.561-.213-.95-.6-.407-.251-.575.2-.7.142-.724.278-.775.149-.9.31-1.119.135-.374.22-.124.388-.046.925-.129.5-.439.639-.382.375-.49.29-.3-.174-.291-.258-.162-.316.006-.31V844.4l-.212-.271-.5.025-.168.4-2.052.336-.553-.044-.129-.383-.355.049-.348.35-.182.516-.42.083-.343-.083-.129-.3-.181-.311-.343-.155-.142.233-.38.116-.349-.3-.711-.677-.478-.7-.3-.48-.42-.342-.781-.439-.679-.369-.723-.389-.421-.058-.988.376-.834.109-.788.395-.051.653-.085.548-.407.427-.743.3-.885.458-.841.743-.535.369-.427.323-.71.846L807.9,847.77l-.614.485-.389.375-.5.368-.678.594-.24-.251-.3-.272-.233-.316-.207-.587-.362-.854-.736-.594-.278-.588-.174-.568.044-2.236-.122-.529-.258-.5-.04-.975-.245-.258-.5-.394-.427-.13-.9-.233-.516-.3-.609-.543-.743-.561-.814-.305-.717-.18-.633.013-.652.3-1.791-.013-.323.433-.3.027-.445-.033-.447-.065-.478-.207-.477-.3-.356-.284-.445-.459-.738-.675-.32-.06-.529-.007-.54.4-.132.447-.1.291-.142.187-.2.043-.394-.013-.122-.153-.046-.205-.07-.185-.116-.174-.26-.232-.044-.288L787.2,837l-.138-.142-.22-.136-.177-.061-.227-.068-.165-.1-.339-.045-.292.017-.232.142-.4.078-.32-.134-.033-.157-.125-.313-.035-.1-.027-.287-.005-.114.028-.209.035-.361-.058-.065-.3-.09-.252-.078-.252-.029-.136.12-.058.162-.142.187-.439.281-.625.155-.126-.014-.167-.06-.153-.063-.291-.135-.2-.127-.194-.209-.163-.225-.2-.277-.143-.252-.062-.257-.105-.317.01-.163.013-.208.059-.251.092-.183-.034-.091-.051-.095-.041-.107-.068-.137-.051-.145-.009-.088,0-.083-.019-.085-.082-.071-.082-.017-.112.017-.123.01-.125,0-.2-.036-.108-.061-.062-.159.01-.23-.019-.19-.137-.081-.191-.034-.113-.037-.077-.077-.072-.082-.092-.075-.089-.027-.1.01" transform="translate(-778.302 -799.066)"  stroke="#fff" stroke-linecap="square" stroke-linejoin="bevel" stroke-width="1" fill-rule="evenodd"/>
      <text id="326" transform="translate(31.153 29)" fill="#fff" font-size="13"  font-family="OpenSans-Bold, Open Sans" font-weight="700"><tspan x="0" y="0"></tspan></text>
    </g>
    <g id="_319_Dahanu" data-name="319 Dahanu" transform="translate(2394.726 120.539)">
      <path id="talId319" fill="#7DB8EC"  title="Dahanu Taluka" data-name="Dahanu Taluka" d="M897.541,838.9l.119.546.236,1.14.614.563.363.556.581.806.968,1.958.2.808.278.5-.039.97.161.587.1.472.123.523.109.368.317.369-.1.356-.328.277-.705.761-.414.466-.445.213-.517.129-.556.1-.367.154-.22.227-.078.349v.329l.337.272.02.258-.059.156-.317.768-.084.7-.065.439-.446,1.026-.51.692-.174.427-.046.49.42.543.013.265-.271.239-.331,1.331-.3.658-.465.215-.679-.149-.562-.162-.426-.135-.414-.22-.425-.245-.3.214-.053.38-.147.336-.174.265-.033.4.1.407.3.536-.324.6-.4.692-.18.453-.337,1.376-.659.975-.64.982-.29.523-.252.387-.505.11h-.542l-.653.038-.5.013-.891.427-.807-.013-.48.207-.308.3-.318.207-.491.162-.5.3-.091,4.071-.5.749-.75.31-.568.414-.582.343-.355.22-2.011,1.576-1.395.962-.362.329-.323.279-.452-.271-.742-.53-.937-.568-.581-.266-1.118-.109-3.651-.052-.866.647.323,2.928.273.379-.019.48.051.349.466.174.452-.007.425-.128.583-.266.445-.033.8-.018.614-.007.7-.251.5-.22.259-.459.66-.975.788-.3.47-.181.518-.1.265.046.091.51.045.879.013.62-.122,3.088-.058.466-.311.465-.471.6-1.241.814-.8.29-.621.226-1.175-.29-.543-.394-.465-.194-.381.032-.265.22-.394.633-.937.789-.477.232-.589-.02-.581-.212-.5-.305-.671-.529-.711-.013-3-.118-.672-.529-.439-.607-.3-.756-.117-1.906-.3-.363-.348-.258-.473-.026-.361.284-.195.492-.213.478-.382.316-.29.4-.142.53-.253.375-.361.323-.466.258-.291.3-.064,1.447h1.357l.647-.136.187-.045.213.316.246.53.04.446.282.433.854.8,1.189,1.234,1.272,1.1.73.239.363,1.092.162.789.328.336.265.31.039.46.169,1.473.2,1.131.562,1.564.246,1.7-.053,1.744-.594,1.183.2,1.7.2.587.213.46.02.414-.194.355-.174.3-.078,1.919-.589.788-.349.685-.543.543-.1.207-.1,2.506-.807-.781-.621-.692-.872-.348-1.034-.362-.827-.084-.478.026-.233-.013-.3-.368-.6.362-.672-.046-.22-.07-.29-.458-.033-.556-.019-.808-.239-.485-.465-.279-.84-.065-4.226-.084-.064-1.22-2.4-.007-1.68-.038-.563-.459-.536-.73-1.027-1.316-.343-.614-.569-.66-.853-.188-.465-.16-1.531.187-.841.349-.51.323-.374.387-.271.277-.452.162-.656-.118-.4-.779-.969-.3-.627-.051-.33.033-.22.232-.671.807-.272.388-.477.2-1.364-.013-.44-.265-.834-.109-.677.206-.24.162-.523.458-.3.447-1.182,1.46-1.188.587-.426.414-.259-.323-.425-.123-.485.018-.214.04-.006,1.137-.821.109-.414.278-.445.079-1.705-.11-.705-.3-.446-.272-.458-.122-1.616-.117-.336-1.131-.432-.75-.388-.477-.569-.394-.445-.1-.413.18-.149.246-.084.5-.078.381-1.021,1.848-.516.251-.879-.031-1.286-.065-.29-.543-.323-.64-.324-.828-.239-.477-.814.077-.264-.058-.382-.129-.323-.2-1.084-.685-.6-.187-4.761.013-.594-.44-.278.149-.109.285-.265.309-.26.046-1.738-.367-2.171-.045-.75.51-.594.557-.336.309-.24.2-.4-.007-.194-.142-.129-.374-.09-.518-.109-.206-.279-.323-.214-.238-.122-.37-.058-.995-.5-.02-.382.2-.457.278-1.124.3-.408.265-.574.233-.639.2-.834.137-.957.568-.723.2h-.363l-.316-.278-.311-.213-.471-.2-6.034-.091-.66-.323-.712-.453-.426-.323-.336-.336-.479-.142-.3.128-.356.705-.24.283-.206.04-1.453.149-.4.271-.413.091-.543.006-.976-.62-.82-.052-.834-.057-.84-.271-.582-.227.032-.834-.725-.645-.49.18-.2.427-.091.343-.253.148-.434-.117-.164-.059-.079-.051-.092-.128-.037-.159-.031-.3.038-.4.034-.2.019-.19.051-.259.093-.448.06-.279.063-.3.069-.415.046-.3.162-.81.126-.633.07-.072.1-.1.105-.153.007-.081-.04-.163-.021-.171.024-.173.052-.192-.052-.187-.006-.573.026-.387.06-.136.069-.1.029-.093-.032-.159-.037-.126-.093-.082-.091-.151-.024-.139.024-.171-.143-.191-.076-.19-.034-.132v-.145l-.03-.12-.044-.119-.065-.077-.109-.3-.052-.265-.024-.172,0-.08-.05-.126-.017-.138.014-.118.033-.061.045-.044.07-.036.037,0,.132-.115.157-.109.109-.176.118-.422.161-.238.068-.172.036-.164.01-.1-.04-.089-.086-.272.007-.252-.034.068-.024.11.011.116.014.059.1.3-.044.25-.074.118-.064.092-.068.078-.069.092-.055.125-.044.1-.1.168h-.135l-.334-.085-.162-.073-.242-.175-.166-.127-.081-.071-.129-.167-.133-.237-.148-.121-.075-.094-.035-.092-.033-.29,0-.513.069-.375.059-.211.031-.128.038-.251.048-.162.037-.068.047-.036.064-.04-.018-.146-.024-.289v-1.035l-.126-.646-.112-.294-.363-.708-.025-.18.029-.067.112-.108.014-.1-.028-.1-.015-.147-.094-.069-.082.012-.069-.027-.11-.108-.174-.226-.233-.2-.345-.3-.127-.132-.035-.1-.005-.1.014-.085-.081-.158-.051-.036-.165-.016-.178-.01-.326-.131-.359-.2-.174-.093-.156-.075-.131-.115-.089-.043-.07-.067-.035-.057-.107-.044-.07-.1-.055-.1-.043-.085-.028-.116-.023-.327.009-.225.069-.2.011-.1.078-.153.107-.07.1-.04.379-.05.229-.049.291-.141.407-.253.366-.292.227-.21.088-.086.136-.072.116-.042.259-.028.271-.115.189-.122.445-.262.2-.224.231-.11.311-.146.417-.314.22-.111.224-.176.285-.459.144-.262.2-.446.277-.511.148-.22.082-.083.075-.034.045.014.029-.016.03-.111v-.247l.04-.282.112-.36.082-.146.061-.131.136-.268.209-.47.134-.229.207-.2.157-.159.21-.112.1-.027.056.006.1.013.069-.042.165-.147.243-.135.19-.142.228-.17.087-.059.1-.034.113.01.107.006.213-.046.178.018.5-.132.417-.21.37-.234.238-.186.117-.118.135-.2.131-.223.238-.286.143-.149.2-.174.315-.231.191-.081.437-.087.391-.114.271-.111.306-.095.244-.027.123,0,.481.055.271-.789.234-.591.1-.409.161-.4.156-.324.094-.223.245-.635.1-.29.106-.295.082-.281.115-.365.164-.525.1-.4.185-.867.081-1.009-.081-1.215-.113-1.015-.085-.609-.04-.395-.024-.22-.034-.3-.041-.267-.094-.584-.154-.8-.069-.279-.082-.282-.129-.509-.1-.452-.081-.3-.083-.319-.088-.309-.05-.185-.058-.181-.129-.271-.207-.256-.23-.293L778,856.2l-.07-.064-.051-.109,0-.117-.016-.087-.034-.069-.115-.18-.037-.123,0-.071.059-.213.013-.052.032-.237.047-.124.18-.317-.1-.345-.047-.158-.041-.118-.013-.066-.014-.131.052-.217.052-.234.127-.914.017-.393-.007-.358-.021-.315-.065-.444-.048-.347-.006-.557-.042-.645-.058-.476-.028-.172-.2-.727-.091-.3-.335-1.11-.133-.349-.1-.262-.067-.2-.044-.159-.108-.524-.063-.272-.046-.223-.035-.151-.007-.282-.01-.5-.029-.38-.036-.363-.088-.381-.114-.36-.2-.61-.055-.2-.06-.208-.053-.148-.045-.084-.054-.11-.027-.091-.022-.077v-.091l.012-.068.042-.138.067-.145.065-.194.032-.206L776,839.5l.035-.123.078-.16.085-.281.058-.132.066-.162.041-.146.021-.11.015-.1.014-.106.026-.11.028-.074.109-.2.026-.038.06-.044.093-.1.158-.089.2-.115.151-.066.138-.04.145-.051.143-.057.22-.123.146-.043.142-.06.268-.072.123-.013.209.027.217.031h.129l.189-.033.37-.081.079,0,.079-.015.132-.028.219-.081.119-.022.123-.026.083-.015.063-.026.061-.01.139-.038h.04l.029.009.027,0,.031,0,.038-.02.04-.016.056-.021.085-.006.043-.008.1-.053.047-.04.064-.055.019-.02.008-.018.03-.1.043-.063.055-.062.037-.061.018-.041.009-.048.006-.064.023-.11.026-.1.029-.094.058-.169.139-.435.093-.267.106-.405.008-.071,0-.086.088-.415.091-.355.023-.172.021-.15.027-.119.04-.269.021-.075.03-.048.038-.056.049-.05.065-.036.053-.019.045-.009.048-.01.033-.01.031-.031.037-.082.018-.08.009-.063.007-.045.026-.124.036-.1.034-.1.053-.188.151-.44.047-.2.025-.1.074-.238.123-.3.058-.129.106-.255.062-.17.22-.64.179-.486.123-.367.179-.513.083-.309.113-.442.131-.6.072-.4.04-.37.031-.233.043-.389.021-.213.009-.22v-.258l-.01-.3-.084-1-.006-.2.012-.247.016-.149.017-.142.033-.141.071-.2.043-.1.028-.056.041-.07v-.123l.1-.009.089.027.092.075.072.082.076.077.113.037.192.034.136.081.02.19-.01.229.063.159.107.061.2.035.125,0,.122-.01.112-.018.082.018.082.07.02.085v.082l.009.088.051.146.068.137.041.106.051.1.034.091-.092.183-.06.251-.013.208-.01.163.1.316.063.258.143.252.2.276.163.224.195.21.2.127.291.135.153.063.167.059.126.013.625-.154.44-.281.142-.187.058-.162.136-.121.253.03.252.078.3.089.058.066-.036.362-.028.21.006.113.027.288.035.1.125.314.033.157.321.133.4-.078.233-.141.292-.017.339.045.165.1.227.068.177.06.22.136.139.142.042.194.044.288.259.233.116.174.071.185.045.206.122.153.393.013.2-.042.142-.188.1-.291.132-.446.54-.4.529.007.32.061.738.675.445.459.356.284.477.3.478.207.446.066.445.032.3-.027.324-.433,1.79.013.652-.3.633-.013.718.18.814.3.742.562.608.543.516.3.9.233.427.131.5.393.245.259.04.975.258.5.121.529-.044,2.236.174.568.278.589.735.594.362.853.207.589.233.316.3.272.24.251.677-.594.5-.369.388-.374.614-.485,1.034-1.008.71-.847.426-.322.536-.368.841-.743.884-.459.743-.3.407-.427.085-.549.051-.653.788-.393.834-.109.988-.376.42.058.724.389.679.368.781.44.42.341.3.48.478.7.711.678.349.3.381-.116.141-.232.344.155.18.31.129.3.342.083.42-.083.181-.516.348-.35.355-.049.129.383.552.044,2.053-.336.167-.4.5-.026.213.271v.376l-.006.31.161.317.291.258.3.174.49-.291.381-.374.439-.64.129-.5.046-.924.123-.388.374-.219,1.119-.134.9-.312.775-.148.724-.278.7-.142.576-.2.407.251.95.595.561.213.724.124.569.045.168.283.284.038.336-.237.283-.136.465.742.66.174.575-.038.465.233.53.2.581.233,1.273.144.311.439.076.44.072.491-.02.477.561-.18.485-.323.556-.247.556-.246.717-.058,4.607.187.988.065.078.671.2.8.13.419.344.569.51.3.511.174.3.091.511.038.446-.162.465-.291.536-.639.465-1.169,1.311-1.125.776-1.13.479-.84.323-.569.452-.329.322-.2.331-.179.413-.31.162.1.271.291.491.394.711.491.3.284.419.5.2.479.13.51.031.528.116.427.2.389.362.212.9.4.918.756,1.873,3.029.679.538.419.141.569.24.368.141.233-.006.175-.175.471-.116.311.407.251.078.174.045.35.22.264-.2.027-.272.058-1.182.045-.516.135-.775.052-1.435.084-1.028-.006-1.893-.026-.389-.155-.328-.052-.246.123-.232.271-.51.31-.615.169-.524.071-.517.233-.336.549-.245.937.051.64.065.724.225.375.3.361.226.556.156.549.117,1.144.051.71.3.659.33.407.355.5.317.523.187.42.116,1.048.136,1.047.033.459.167.375.15.258.07.323-.032.375-.1.454-.2.348-.008.349.046.432.167.245.472.208.439.156.517.006.478-.09.406-.013.523.084.505.156.167.3.394.348.421.349.213.388.136" transform="translate(-762.711 -821.543)"  stroke="#fff" stroke-linecap="square" stroke-linejoin="bevel" stroke-width="1" fill-rule="evenodd"/>
      <text id="319" transform="translate(43.217 57.38)" fill="#fff" font-size="13"  font-family="OpenSans-Bold, Open Sans" font-weight="700"><tspan x="0" y="0"></tspan></text>
    </g>
    <g id="_331_Vikramgad" data-name="331 Vikramgad" transform="translate(2484.615 174.336)">
      <path id="talId331" fill="#7DB8EC" title="Vikramgad Taluka" data-name="Vikramgad Taluka" d="M838.052,899.718l.1-2.507.1-.207.542-.543.349-.685.588-.788.078-1.919.175-.3.194-.354-.02-.414-.213-.46-.2-.587-.2-1.7.593-1.182.053-1.745-.245-1.7-.563-1.564-.2-1.131-.169-1.473-.038-.459-.266-.311-.329-.336-.162-.789-.363-1.092-.73-.238-1.272-1.1-1.189-1.235-.853-.8-.284-.433-.039-.446-.246-.531-.212-.315-.187.044-.647.136h-1.357l.064-1.447.291-.3.466-.258.362-.322.252-.375.142-.53.29-.4.381-.316.212-.478.195-.492.362-.283.472.025.349.258.3.363.116,1.905.3.756.439.608.672.528,3,.118.711.013.671.528.5.3.581.213.588.019.478-.233.937-.788.394-.634.265-.22.381-.032.465.194.542.393,1.176.291.621-.227.8-.29,1.24-.814.471-.6.311-.465.058-.465.123-3.089-.013-.62-.045-.879-.091-.51-.266-.045-.518.1-.47.181-.788.3-.659.975-.259.46-.5.22-.7.25-.615.008-.795.018-.445.032-.583.266-.425.129-.452.008-.467-.175-.051-.349.02-.479-.273-.38-.323-2.928.866-.646,3.651.053,1.118.109.581.265.936.569.743.53.452.271.323-.278.361-.328,1.4-.962,2.01-1.577.356-.22.581-.343.568-.415.75-.309.7,1.182.452.943.4.711.387.582.233.309-.323,1.021-.349.3-.711.195-.258.568-.195,2.8-.31,1.086-.013.956-.026.569.4.129.776-.116.556-.412.943-.466.374.284.788.323.8.232.737.31.84-.477.594-.1.839.878.3.492.361-.5.5-.517.413-.052.492.376.634.116.748.077,1.189-.956.557-.634.826-.569,1.9-.671.7-.337.389,1.177.4.581.595.427.556.594.632.685,1.035.826,1.68,1.5.44.838.672.634.594.452.4.428.427.207.026.665-.394.149-.3.091-.336.238-.627.912-.757,1.149-.271.634-.232.613-.169.62.271.161.549.4.517.7.284.083.434.111.245.627.685,1.369.182.692,1.24.44-.091,1.647-.285.258-.122.408.207.309.323.666.362.665.4.841.3.763.206.8.7,1.053.109.232.511.226.71-.064,1.39-.149.439-.181.421-.006.755.193.717.252.685.344.129.084,1.02-.007.168,2.094-.459.717.013,1.318-.013,1.655-.033.336-.284.341.063.33.175.233.355.167.452.154.665.356.692.369.24.149,1.187.69,1.364,1.094.582.341.672.589.322.4.22.44.362.412.5.361.381.654-.025.413-.394.331-.355.588-.162.678-.407.808-.8,1.028-.111.407-.058.375.169.323.368.052.451.072.337.187.1.42.156.421.374.271.336.561-.064.5-.782-.013-.3.167-.046.556-.058.51-.141.42-.31.277-.142.214-.549.7-.264.769-.24.672-.109.466-.181.458-.213.343-.129.168-.433.083-.594.045-.394.027-.1-1.048-.044-.485-.363-1-.349-.31-.3-.064-1.377.051-.853.382-.543.3-.4.367-.246.252-.085.2-.005.575.207.518.188.394.226.336.065.491-.187.464-.085.435-.064.328-.311.175h-.419l-.382.124-.22.149-.387.187-.208.012.284.427.368.141.518.013.3.213-.071.414-.207.31-.111.395.013.464.045.53-.1.3-.472.964-.265.316-.453.213-.438.44-.064.833-.394.29.064.9.1.155.195.433-.072.439-.148.478-.214.3-.439.227-.5-.013-.214.167-.18.273-.1.684.1.4.413.369.149.193-.175.329-.419.078-.169.123-.258.207-.278-.1-.272-.395-.323-.279-.387-.108-.246-.129-.439-.182-1-.032-1.078.1-.5.278-.458.245-.174.285-.137.278-1.718,1.465-.305.459.045.7-.341.563-.6.995-1.241,1.653-.412.427-.73.406-.363.24-.1.3.129.213.188.232.078.375-.245,1.622-.93.6-.479.141-1.8.065-.465.394-.407.2-.361.039-.355.013-.285.156-.479.361-.174.169-.62.245-.5.407-.381.407-.317.291-.439.142-.427.252-.24.188-.6,1.325-.3.735-.322.161-.531.071-.445-.258-.2-.349-.189-.419-.167-.4-.123-.556-.192-.348-.8-.349-.846.038-.586-.115-.363-.078-.271-.181-.464-.1-.621-.4-.374-.361-.188-.342-.032-.492.058-.562-.02-.343-.233-.369-.18-.382-.33-.581-.336-.284-.187-.5-.02-.33-.071-.348-.162-.414-.076-.367-.007-.5-.543-.608.033-.748-.033-.6.02-.556.064-.394-.717-.51-.594-.154-.49-.2-.362-.058-.317-.137-.155-.128-.717-.563-.97-.955-.238-.227-.084-.522-.3-.594.058-2.049-.007-.388-.775.13-1.344-.188-.963-.22-1.046-.031-.608.052-.66-.066-.064.583-.091.439-.27.5-.039.484-.122.627-.323.349-.5.182-.367.161-.518.374-.219.31-.227,1.021-.135.568-.343.233-.574.154-.5.278-.3.323-1.344.614-.336-.174-.1-.885.038-.369.188-.465.207-.394-.065-.614-.639-.414-.3-.226-.1-.162-.025-.207.3-.271.272-.285.128-.388.078-1.363-.239-.406-.174-.272.252-.466.213-.348.22-.414.078-.445-.472-.485-.348-.808.123-2.241-.563-.407.213-.529.247-.362.116-.633-.273-.569L838,923.683l-.31-.7-.232-.8-1.085-.544-1.293-.181-.155-.62.362-1.164-.491-.18-.284-.414-.078-.93-.776.051-1.37.465-.826.026-1.655.052-.232-.491-.49-1.033-.725-1.291-.336-1.035-.439-1.137-.568-1.24-.93-1.577-.157-1.008h.854l1.007.232.854.181,1.266.466.647-.232.671-.129,1.137.258.672,1.033,1.008.647.594,2.145-.1,1.422.1,1.266.594.6.724.2.44-.411.8.283.775.492,1.111.026.518-.492.309-.955.129-.8.053-.9.283-1.474.8-2.325.44-.725.619-.748.491-.647v-.853l-.387-1.344-.362-.336-.931-.7V903.5l-.645-.207-1.008-1.268-1.344-2.306" transform="translate(-825.93 -859.324)"  stroke="#fff" stroke-linecap="square" stroke-linejoin="bevel" stroke-width="1" fill-rule="evenodd"/>
      <text id="331" transform="translate(21.328 54.582)" fill="#fff" font-size="13"  font-family="OpenSans-Bold, Open Sans" font-weight="700"><tspan x="0" y="0"></tspan></text>
    </g>
    <g id="_324_Palghar" data-name="324 Palghar" transform="translate(2391.687 204.158)">
      <path id="talId324" fill="#7DB8EC" title="Palghar Taluka" data-name="Palghar Taluka" d="M865.474,890.957l1.344,2.307,1.008,1.267.646.207v2.61l.931.7.361.336.387,1.343v.853l-.491.647-.619.749-.439.724-.8,2.326-.284,1.474-.052.9-.129.8-.309.956-.517.491-1.112-.025-.775-.492-.8-.283-.439.413-.725-.206-.594-.6-.1-1.266.1-1.423-.594-2.144-1.008-.647-.672-1.033-1.137-.258-.672.129-.646.232-1.266-.466-.853-.18-1.008-.233h-.853l.156,1.008.93,1.577.568,1.241.44,1.137.335,1.035.725,1.291.49,1.034.233.491,1.654-.052.826-.026,1.369-.464.776-.051.078.93.285.414.49.18-.361,1.164.155.619,1.292.182,1.084.543.233.8.311.7.232,1.111.272.568-.116.634-.247.362-.212.53-.536.1-.666.336-.323.516-.251.375-.33.239-.943.008-.518.207-.206.367-.425.491-.253.362-.265.316-.161.349.013,1.111.232.441.447.459.278.543.27.549.271.659.428.685.471.084.478.071.581.3.305.273-.117.484-.157.174-.186.188-.033.291-.071,1.551-.427.38-.586.3-.9.182-1.157.038-.569-.182-.5-.471-.439-.284-.349-.354-.51-.44-1.241-.33-.75.182-.362.251-.478-.006-.29-.245-.369-.182-.24.246-.251.149-.395.046-.7.065.066.761-.116.492-.227.4-.375.246-.452.025-.291-.02-1.97.427-.646.356-.536.387-.414.374-.349.155-.374-.116-.305-.311-.485-.517-.71.227-.387.129-.143.24.073.368.283.561.1.555-.032.46-.142,1.621-.29.471-.169.291-.142.356-.02.291.439.439,1.487,1.021.478.982.49.387.227,1.009.265.691.128.471.1.775.116.4.427.478.619,1.118.2.666.82,1.8.725.853,1.182,1.111,1.253,1.208.594.634.608,1.111,1.486,1.292,1.569,1.907.537.665.536.484.336.31,1.389.4.44.343-.091.29-.245.433-.549.336-.744.214-.8.284-1.253.924-.452,1.306-.336.614-.1.485-.04.859.129,1.163.5.2.659.078.245.258.363.485.167.318.265,1.1.484.46.258.225.188.512.116.91.253.523.071.583.447,1.711.162.466.213.388.026,2.6.543.73-.033.394-.425.266-.841.748-.245.343-.478.02-.956.006-.634.019-.206.1-.576.53-.949,1.066-.9-.058-.632-.124-.543-.175-.465-.077-.33.109-.955.207-1.137-.065-1.441.11-.9-.006-2.45-.013-.058-1.286-.147-.711-.136-.427-.53-.982-.808-.982-.627-.743-.277-.3-.433-.219h-.407l-.613-.033-.362-.6-.375-.994-.3-.62-.369-.407-.452-.33-.33-.155-.464-.672-.122-.581-.065-.5-.091-.478-.846.212-.543.163-.444.226-.389.182-.543.206-.322.136-.452.2-.8.543-.206.587-.136.576-.194.478.161.5-.2.336.122.672.143.387-.305.937-.452.368-.387.271-.162.26.109.833.568,1.278.33,1.654v.574l.026.265,1.183.194.3-.064.13,1.815.329.538.271.716.459,1.474-.136.382-.2.38-.046.323-.006,2.34.632.671.182.414.013.458-.258.407-.439.44-.576.335-.4.22-.53.155-.743.278-2.048.776-.536-.026-.537-.227-.465-.548-.4-.4-.356-.33-.484-.31-.3-.24-.2-.535-1.311-.46-.866.472-1.028.361-1.549.1-1.235-.033-.717-.02-.956-.013-.369-.012-3.373.025-1.338.033-.4.174-.82.278-.995.788-1.2,1.538-1.281,1.188-.879.323-1.175.3-.9.214-.729.078-.555.025-.55.181-.375.1-1.583.187-1.215.258-1.182.227-.523.109-2.675.659-2.365,1.454-1.176,1.156-.42.239-.86.361-.807.251-.017-1.494-.072-2.345-.22.124-.228.046-.187-.081-.124-.079-.111-.066-.14-.1-.065-.033-.215-.1-.247-.1-.3-.1-.493-.2-.213-.087-.395-.14-.113-.045-.141-.079-.109-.062L791,995.6l-.2-.119-.22-.132-.1-.084-.127-.088-.115-.077-.292-.224-.277-.2-.225-.148-.225-.144-.256-.186-.252-.181-.153-.111-.207-.143-.351-.275-.2-.142-.213-.126-.307-.116-.13-.089-.158-.123-.094-.095-.153-.194-.1-.15-.21-.382-.112-.241-.013-.053-.027-.117-.055-.131-.073-.145-.079-.191-.052-.116-.084-.42-.02-.067-.065-.191,0-.059.014-.029.074-.078.034-.075.014-.14-.025-.141-.07-.217-.01-.087.01-.1.013-.154-.028-.034-.042-.029-.113-.044-.229-.022-.058,0h-.062l-.051.011-.04.024-.082.1-.1.059-.094.063-.02.01-.024,0-.081-.033-.081-.033-.052,0-.131.061-.136.078-.078.065-.1.092-.007.026,0,.038-.018.021-.017.006-.033-.015-.054-.061-.08-.075-.1-.07-.11-.094-.187-.2-.015-.05-.044-.131-.075-.083-.061-.026-.026-.017-.03-.087-.027-.284-.075-.458-.081-.255-.058-.092-.139-.167-.043-.1-.043-.079-.079-.163-.065-.051-.06-.025-.058.01-.146.092-.044.018-.021,0-.01-.02.017-.03.114-.13.015-.045.032-.126.009-.095-.012-.065-.04-.248-.024-.112-.058-.1-.177-.211-.128-.141-.3-.288-.206-.116-.159-.094-.05-.058-.019-.052-.025-.028-.017-.006-.075.035-.111.06-.134.088-.2.132-.1.056-.06.006-.207-.026-.085.013-.065.019-.068.046-.086-.006-.05-.061-.027-.091.007-.042.02-.042.237-.13.049,0,.116.026.058.008.146-.039.037-.013.162-.085.094-.1.051-.128.082-.255.013-.117.034-.074.118-.158.136-.285.035-.173v-.061l-.034-.076-.035-.048-.165-.073-.107-.023-.058,0-.052-.026-.039-.035-.041-.049-.023-.05v-.1l-.006-.026-.016-.043v-.015l.012-.02.089-.039.045-.055.036-.049.046-.074.028-.059v-.053l-.01-.068-.029-.092-.006-.556-.014-.167-.04-.259-.037-.218-.023-.114v-.08l-.018-.634-.041-.26-.026-.119-.077-.274-.038-.131-.081-.156-.138-.2-.054-.1-.06-.119-.049-.127-.041-.135-.014-.145.014-.306.041-.248.021-.629v-.194l-.041-.264-.112-.234-.144-.245-.1-.15-.191-.335-.163-.245-.112-.211-.131-.214-.032-.07-.032-.152-.06-.361-.024-.059-.02-.066-.057-.219,0-.088-.01-.19.016-.181.075-.266.029-.169.049-.238.032-.159.016-.115.039-.173.033-.1.056-.172.055-.17.051-.171.033-.13.013-.135,0-.212-.036-.345-.028-.2-.091-.321-.109-.418-.069-.234-.1-.194-.132-.207-.057-.152-.008-.107V970l.091-.276.018-.105v-.1l-.035-.422.006-.094.093-.162.076-.077.069-.024.143-.029.1.009.145.044.06.007.057-.013.169-.061.156-.066.105-.073.081-.034.076,0,.079.014.076.041.117.082.128.063.221.106.034.029.069.107.109.049.068,0,.462-.106.784-.2.16-.038.251-.075.24-.081.185-.18.187-.162.161-.169.174-.318.033-.227-.326-1.02-.081-.231-.043-.13-.032-.033-.015-.039-.033-.377v-.109l.026-.394.122-.641.018-.177.006-.4-.007-.452-.054-.5-.068-.364-.175-.655-.083-.205-.114-.333-.184-.444-.126-.278-.2-.38-.194-.275-.149-.23-.136-.174-.083-.173-.352-1-.262-.418-.336-.487-.341-.5-.582-1.155-.448-.864-.7-1.22-.1-.2-.139-.329-.076-.3-.23-.78-.132-.381-.063-.195-.056-.2-.156-.6-.273-1-.019-.093-.028-.331-.027-.186-.018-.21.012-.472.006-.13.009-.625-.006-.357-.021-.227-.037-.244-.047-.231.012-.239.047-.1.006-.116-.03-.115-.033-.059-.1-.087-.112-.163-.044-.167-.027-.072-.025-.044-.089-.178-.031-.023-.1-.02-.027-.013,0-.008h0l.011,0,.132.008.221.027.018-.006.017-.01.092-.151.01-.02.01,0,0,.007-.01.018-.006.024,0,.006h.01l.052,0h.007l.007-.02.012-.007.029,0,.093-.1v-.043l-.044-.189-.18-.239-.061-.1-.073-.117-.082-.207-.1-.271-.115-.3-.141-.28-.17-.241-.226-.3-.089-.147-.025-.094-.007-.052-.015-.265-.047-.181-.007-.1-.08-.807,0-.106.007-.086.011-.1-.019-.113,0-.17-.057-.243.024-.156.024-.106.006-.061.014-.128.028-.134.024-.137.155-.919.03-.055.2-.321.141-.3.106-.216.087-.116.091-.205.051-.064.067-.151.024-.062.034-.04.056-.044.081-.365-.026-.89.014-.113.038-.329.048-.536.005-.336,0-.162-.021-.14-.028-.237-.038-.251-.011-.072-.03-.2-.047-.207-.024-.124-.033-.137-.046-.219-.063-.229-.047-.2-.038-.146-.075-.243-.074-.188-.048-.141-.159-.465-.088-.175-.167-.31-.33-.6-.467-.74-.424-.637-.216-.272-.152-.2-.174-.187-.363-.409-.166-.194-.217-.224-.2-.246-.393-.383-.583-.674-.1-.133-.157-.3-.008-.2.022-.142.159-.172.107-.03.087-.608.126-.9-.439-.861-.111-.076-.081-.064-.069-.081-.049-.066-.063-.083-.058-.092-.171-.25-.079-.1-.044-.057-.06-.077-.047-.074-.046-.06-.106-.114-.1-.135-.052-.094-.047-.095-.02-.049-.017-.065-.028-.084-.045-.1-.029-.091-.025-.052-.014-.084-.031-.108-.04-.1-.025-.063-.016-.1-.014-.039-.036-.058-.047-.137-.021-.064,0-.086-.012-.036-.028-.045-.021-.052-.054-.082-.1-.109-.078-.105-.018-.058-.028-.1-.049-.071-.1-.11-.009-.057-.006-.2-.018-.195-.037-.179-.015-.045-.068-.118-.112-.277-.094-.3-.023-.245.011-.062.006-.136-.035-.173-.048-.191-.062-.21-.038-.291-.055-.414-.023-.134-.045-.227-.013-.154,0-.2.03-.1.058-.12.095-.215.091-.154.014-.068.131-.426.03-.083.142-.447.129-.515.127-.665.062-.4.028-.575.007-.471-.035-.3-.033-.245-.067-.313-.068-.287-.06-.332-.03-.321-.014-.223.008-.393.014-.483.069-.738.044-.387.041-.221.165-.876.073-.363.065-.225-.1-.743-.155-.114-.151-.219-.123-.122-.087-.182-.042-.131-.078-.262-.145-.445-.1-.42-.1-.321-.118-.394-.21-.588-.124-.352-.125-.285-.088-.2-.114-.185-.167-.291-.136-.237-.267-.371-.246-.319-.241-.356-.282-.331-.275-.3-.123-.157-.15-.118-.151-.135L767,897.4l-.053-.093,0-.134-.238-.414-.227-.129-.37-.245-.324-.123-.488-.132-.507-.2-.29-.116-.207-.126-.538-.305-.094-.182-.063-.187.124-.594-.1-.094-.284-.04-.4.023-.068.023-.144.376-.063-.015-.055-.036-.171-.164-.242-.161-.107-.055-.171-.087-.22-.3-.048-.048-.045-.01-.24.081-.134.059-.025-.043-.071-.121-.027-.045-.038-.131.111-.216.033-.064-.068-.12-.095-.081.027-.074.1-.181-.071-.235-.166-.277-.551-.2-.046-.046-.022-.04-.037-.06-.017-.034.005-.086.189-.613-.014-.127-.064-.2.023-.092.077-.017.073-.068.007-.118.058-.079.108-.055.128-.007.085.017.025-.01.129-.08.114-.093v-.339l-.071-.352-.079-.406.011-.1.06-.139.155-.495.055-.091.088-.1.085-.346-.027-.484.077-.288.149-.139.222-.119.343-.073.24-.078.159-.031.141,0,.105.022.318.14.095.063.111.072.089.066.222.011.523-.048.2-.045.294-.055.088.014.044-.024.148-.135.14-.121.141-.154.059-.061.074-.074.113-.076.206-.136.349-.184.166-.059.111-.054.115-.261-.024-.181-.058-.293.016-.3.12-.464.071-.184.142-.353.125-.244.1-.182.162-.289.132-.229.316-.327.212-.23.142-.169.168-.187.17-.168.17-.134.134-.1.041-.375.434.117.253-.149.091-.343.2-.427.49-.18.725.645-.033.833.58.227.841.271.834.058.821.052.976.62.543-.006.413-.091.4-.27,1.454-.149.207-.04.239-.283.356-.705.3-.128.479.142.337.337.425.323.712.452.659.323,6.035.091.471.2.31.213.316.279h.363l.723-.2.957-.568.834-.137.639-.2.575-.232.408-.265,1.124-.3.457-.278.382-.2.5.02.058.995.122.369.214.238.278.324.108.207.091.518.129.374.195.141.4.007.239-.2.337-.309.593-.557.75-.51,2.171.045,1.738.367.26-.045.264-.309.109-.285.279-.148.594.439,4.762-.013.6.187,1.085.685.323.2.381.129.265.058.814-.077.239.478.324.827.323.64.291.543,1.286.065.879.031.516-.25,1.021-1.849.078-.381.084-.5.149-.247.414-.18.445.1.569.394.388.478.433.75.335,1.131,1.617.117.458.122.446.272.7.3,1.706.109.445-.078.415-.279.821-.109.006-1.137.214-.04.484-.018.426.122.259.323.427-.414,1.189-.587,1.182-1.46.3-.446.524-.458.24-.162.677-.206.834.109.44.265,1.363.013.478-.2.272-.388.672-.806.22-.233.33-.033.627.052.97.3.4.779.656.119.452-.161.271-.278.375-.387.51-.323.84-.349,1.532-.187.465.16.853.189.569.659.343.615,1.027,1.316.535.731.563.459,1.68.039,2.4.006.065,1.221,4.226.083.84.065.465.278.24.485.018.807.033.557.29.457.22.071.672.045.6-.361.3.368.232.013.478-.025.828.084,1.034.362.871.349.622.692.807.781" transform="translate(-760.268 -880.303)"  stroke="#fff" stroke-linecap="square" stroke-linejoin="bevel" stroke-width="1" fill-rule="evenodd"/>
      <text id="324" transform="translate(37.256 56.76)" fill="#fff" font-size="13"  font-family="OpenSans-Bold, Open Sans" font-weight="700"><tspan x="0" y="0"></tspan></text>
    </g>
    <g id="_322_Mokhada" data-name="322 Mokhada" transform="translate(2515.003 117.102)">
      <path id="talId322" fill="#7DB8EC" title="Mokhada Taluka" data-name="Mokhada Taluka" d="M862.049,839.954l.381-.027.284-.155.258-.22.22-.05.246.083.18.079.278.083.336.051.226-.213.013-.31-.1-.407.1-.207.246-.1.517.194.581.1-.053-.672.22-.492.492-.349.166.013.648.31.335.078.311-.129.22-.492.258-.465.568-.271.375-.143.3.131.155.3-.13.568-.064.349-.04.467.169.412.232.247.3.038.412-.311.427-.31.182.479.207.9.516.452.4.427.555-.079.374-.464v-.7l.142-.322.5.129.311.1.606.308.169.3-.065.581-.167.427.051.737.245.44.26.671.2.516.169.646.93-.051.492.284.374.426.258.607.182.828.18.284.466.04.632-.04.232.492.363.555.5.232.982.013.762.013.013.387.051.712.194.051.517-.246.517-.335.646-.091.71-.051.609.025.632-.038.712-.44.026-.452-.232-.6-.491-.387-.7-.389-.258-.374-.038-.647.155-.852.066-1.227.192-1.293.156-.685.193-1.2.492-.141.478.323.75.182,1.059-.363,1.123-.412.557-.375.581-.5.6-.725.632-.905.505-1.059.032-3.9.076-.541.24-.634.045-1.718.02-.556.193-.5.363-.654-.181-.975-1.564-.61.943-.843.841-1.364.517-2.9.942-.283,1.177-.775.943,1.344-.583,4.248,2.564-1.174,2.874-.616,1.425,1.834.22.533.161.666.291.923.316.562.227.329.426.286.323.1.614.033.529.108.4-.012.581.078.963.046.659.263.336.318.226.3.1.329.078.285.018.7-.051.99.045.491.071.387.063.336.169.085.613.084.407-.02.71-.149.628-.1,1.027-.091,1.389-.182,1.8-.045.73.207,1.33.453,1.757.594.841.363,1.215.722.348.75.117.917-.1.737-.245.89-.349.479-.672.711-.014,5.647-.064.968.737.349.5,1.357.323.647.531.375.917.425.775.311,1.344.581.477.427.155-.05.466-.207.322-.634.57.169.749.529.957.5.943.491,1.344,1.215.555-.246.544-.672.814-.374.568-.065.724.22.167.594.247.427.865.374.492.454.3.541.091.7-.1.672-.154.606-.045.311.194.756.161.285.35.238.29.26.322.115.614.032.652-.309.473-.266.626.046.619.187.588.245.621.361.465.369.419.3.788.5.646.323.368.122.569-.148.342-.193.4-.2.323-.142.589-.142.826-.329.8-.046.581.033.511.162.22.258.212.394.253.3,1.511.646.363.3-.02.633.045.536.22.569.419.646.078.763.005.445.04.518.206.619.524,1.285.743,1.343.646.816,1.421,1.175.647.228.853.219,1.971.206.872-.175.6-.349.356-.29.206-.1.408-.149.407.11.122.323-.089.478-.045.543-.148.614-.059.478.109.5-.167,1.073-.22.627-.162.317.007.368.252.27.208.349.517.323.354.2.335.42.291.846-.549.536-.336.407-.664.331-.351.18-.71.033-.614-.039-.414-.02-.433-.091-.426-.167-.116.317-.078.5.291,1.188.155.576.091.329.033.55,0,.485-.386,1.008-.078.852-.258.639-.919,1.849-.619.729-.389.478-1.1,1.357-.568.543-.46.194-.5.188-.284.2-.3.272-.211.62.084.588.181.576.232.336.4.471.394.472.337.368.285.859-.154.434-.176.38-.089.517.032.433.143.452.419.693.93.975.149.452-.155.511-.058.588.154,1.26.453.847.393.652.382.685.194.608-1.642.42-1.461.3-.8.283-.44.389-.53.414-.619.453-.336.361-.311.632-.194.582-.129.569-.051.568.155.543.452.594.607.879.1.427-.22.425-.245.273.427,1.188.065.841.155.749.335.852.259.712.323.529.335.13.892.038h.452l.621.154,1.084.5.763.529,1.732,1,.013.892.013,1.1.025.892-.129,1.1-.258.892-.182.607v.627l.434.335.375.311-.013.485-.019.536-.311,4.077.492,3.824.465,1.475.568,1.034.361.775.917.516,1.293.143,1.254.09.841.181.684.233.659.361.943.195.853.169.516.128,1.344.647,1.4-.22.71-.517.659-.361.763-.168.556.013.478.156.594.14.032.023,1.311.883.3.827.258.879.156.634.129.49.091.568v.583l-.169.322-.537.376-.3.381-.018.427.245.349.051.25-.033.26-.084.161.3.736.18.323.053.381-.026.285-.169.233-.4-.04-.31-.1-.492-.135-.238.026-.174.122-.2.227-.134.233-.129.348-.227.149-.368.033-.806-.1-.3.02-.492.043-.755.247-.233.336-.033.309v.278l.055.3-.349.341h-.261l-.272-.04-.65-.258-.258-.253-.168-.487-.11-.509-.274-.634-.353-.251-.155-.037-.085.057-.016.1-.119.644-.073.836-.006.361.1.491-.03.345-.3.458-.273.165-.284.023-.43-.061-.518-.168-.325-.125-.226-.016-.289.082-.141.136-.089.215.028.295-.146.251-.3.152-.332.048-.292-.1-.359-.387-.261-.418-.307-.567-.276-.1-.15.023-.125.133-.036.226.018.465.07.67v.418l-.12.438-.217.285-.25.123-.188-.006-.375-.22-.445-.4-.272-.4-.374-.42-.3-.036-.18.041-.177.137-.23.2-.245.372-.145.561-.088.427-.3.356-.553.617-.352.545-.275.255-.4.017-.291-.23-.332-.356-.32-.255-.409.023-.293.126-.033.213.023.488-.01.62-.154.6-.291.406-.391.2-.336-.031-.194-.191-.32-.377-.459-.373-1.22-.606-.515-.061-.235.071-.159.217-.063.361-.058.239-.171.143-.2-.035-.225-.1-.22-.473-.225-.412-.325-.159-.238.07-.168.114-.013.326.168.685.285.513.252.569.053.569-.16.281-.319.048-.266-.026-.582-.239-1.351-.484-.529-.14-.346.027-.3.087-.243.177-.349.166-.271.1-.246-.116-.248-.172-.187-.139-.33,0-.147.1-.123.235-.278.549-.374.146-.243.01-.12-.01-.39.152-.287.226-.344.365-.556.336-.574-.194-.285-.413-.063-.456-.029-.307-.22-.285-.278-.029-.242.081-.1.2-.081.346-.005.362-.046.891.177,1.035-.162.247-.429.246-.556.136-.362.116-.478-.126-.479-.172-.526-.232-.4-.164-.334-.026-.157.091-.172.215-.038.372.18.828.414,1.146-.035.493-.069.382-.123.275-.681.3-.723.074-.491.269-.27.255-.27.4-.364.24-.237-.01-.245-.131-.8-.775-.161-.392-.026-.545.194-.5.378-.542.41-.643.135-.468-.495-.543-.772-.689-.678-.759-1.136-.529-1.341-.2-.313.142-.95-.666-.1-.5-.35-.491-.052-.413-.361-.582-.065-.335v-.55l.53-1.046.278-.647.258-.362.381-.445-.3-.79-.756-1.382-.75-1.544-1.241-1.821-.878-1.1-1.163-1.383-1.389-2.41-.247-.84.066-.427.181-.459,1.867-1.479.665-.563.265-.374.045-.414-.453-.342-.659-.26-.813-1.085.033-1.6-1.112-.284-1.014-.58-2.469-1.513-1.137-.582-.419-.33-.376-.425.143-.376.154-.329.149-.407.207-.55.25-3.269-.373-1.311-.078-.3-.264-.975-.2-.414-.232-.342-.478-.375-.627-.006-.477.155-.182-.232-.361-.53-.349-.5-.389-.607.149-.258.213-.439.563-.614.071-.885-.071-2.449.66-.73.555-.761.9-.614.485.367.388.467.322.187.511-.033.641-.025.671.148,1.466.627,1.066.676.963.486.964.451.175.569.4.323.381.124.491.064.537.2.233.483.212.336.214.627.336.278.412.181.608.316.427.6.18.375.013.536.265.432.368.085.8-.09.555-.02.822-.226.349-.188.4-.142.336-.142.309-.111.305-.026.219.181.193.278.317.064.251-.109.182-.278.149-.336.122-.278.2-.381-.143-.505-.2-.412-.09-.407-.09-.3-.176-.29.014-.439-.007-.523-1.247-1.111-1.317-1.279-.537-.666-.077-.412.116-.272.342-.284.156-.8.019-.233-.2-.445-.2-.156-.1-.369-.04-.42-.458-.362-.679-.575-.291-.336-.31-.543-.212-.872-.414-1.2-.084-.407-.315-.419.076-.387.3-.331-.033-1.407-.046-.454-.148-.413-.116-.5-.394-.685-1.2.245-.581.027-.523.22-1.091.594-1.273.328-.4.15-.419.194-.343.02-.425-.033-.369-.214-.156-.362.007-.517-.046-.322-.291-.291.013-1.466-.49-.038-.369.044-.5-.135-.258-.376.193-1.7-.031-.549-.31-.317-.524-.4-.542-.4-.343-.427.1-.386.484-1.125.188-.427.219-.3.272-.226.5-.032.42.052.472-.1.192-.238.394-.181.53.323.31.278.691-.1.156-1.331-.013-2.074.038-.608.64-1.221.484-.576.162-.5-.025-.419-.376-.44-.122-.659.013-.348.025-.388-.064-.38.077-.305.214-.438.226-1.015-.039-.419-.374-.414-.019-.821.063-2.2-.038-.389-.128-.31-.362-.271-.4-.285-.239-.464.1-.433.207-.336.161-.239.142-.3.021-.8.018-.49-.619-.381-.253-.253-.465-.265-.265-.291-.316-.44-.523-.387.084-.562-.148-.213-.374-.116-.422.058-.452.246-.349.258-.271.252-.406.329-.544.2-.116-.157.168-.381.149-.369.123-.387.283-.568.608-.73.323-.523.116-.323-.1-.427-.085-.3-.057-.265-.18-.394-.3-.7-.259-.258-.109-.349.046-.278.071-.3.1-.446.091-.381.051-.458-.051-.247-.123-.148-.427-.142-.478.387-.834.607-.31.355-.329.355-.265.421-.071.69-.169.421-.3.5-.568.4-.51.273-.878.813-.369.291-.42.117-.522.227-.208-.149-.3-.336-.308-.278-.435-.407-.212-.277-.639-.24-.762-.27-.169-.421-.005-.678-.278-.743.18-1.383-.2-.652-.194-.679-.192-.568-.214-.569.258-.4.621-.576.012-2,.084-.381.466-.278,1.253-1.1.42-.018.477-.033.26-.07.3-.2.381-.666.182-.337.038-.393-.013-.344-.316-.2-.143-.22-.13-.49-.026-.317.142-.375.336-.614-.109-.5-.117-.245-.207-.213-.382-.278-.285-.277-.1-.331.026-.271.007-.361.005-.5.033-.426-.012-.214-.129-.3-.161-.155-.375-.3-.3-.266-.238-.284-.227-.3-.128-.277.038-.272.123-.316.149-.278.245-.3.245-.685.007-.329.02-.33-.1-.4-.142-.247-.3-.22-.278-.205-.389-.265-.412-.434-.4.033-.426.471-.155.284-.808.783-.879.518-.826-.014-.581.259-.272.452-.414.813-.412.892h-.389l-.387-.374-.5.076-.645.582-.44.387-.452.116-.194-.672.207-2.041.038-.647.258-.439.273-.439.167-.387.065-.4.052-.44.335-.414.169-.322-.1-.194-.53-.207h-.5l-.464-.026-.208-.284-.285-.529-.361-.194-.258.27.064.518-.064.607-.44.311-.7.348-.232.349-.271.7-.141,1.046-.078.478-.245.271-.311-.143-.361-.323-.077-.413.052-.44v-.672l.025-.543-.4.091-.31.568-.336.544-.8.7-.4.4-.363.193-.3-.063-.258-.323-.195-.349-.078-.247-.477-.089-.453.2-.362.467-.53.439-.207.284-.621.272-.607.077-.7-.038-.957.439-.155.44.685.632.607.4-.271.594-.452.324-.065.62.427.309.452.427.246.568.155,1.448-.026.75.1.336.414.181.349.425-.646.311h-.478l-.207.361.259.3.3.375.143.53-.039.622-.556.49-.452.349-1,.232-.27.737-.556.491-.259-.412-.259-.324-.608.116-.451.129-.323-.025-.375-.272-.4-.219-.246.142-.169.3-.245.258-.5.142h-.763l-.531-.142-.465-.245-.3-.283-.5-.246-.026-.143.205-.336.285-.529.271-.427.052-.492-.725-.076-1.265-.31-.982-.44-.827.311-1.214.3-.518.324-1.485.711-.31.582-.31.813-.272.957-.283,1.317-.376,2-.348,1.46-.233.829-.323.515-.5.465-.66.505-.156.465.118.439.413.349.465.026h.583l.9.027,1.15.051,1.472-.465.917.065.867-.027.543-.349.348-.465.737-.038.943-.053.594-.076.388-.285.271-.621.323-.438.594-.479.595-.4.763-.013.931.154.53.518.155,1.769.22,2.043.439,1.112.129,6.5-.311,1.034-.942,2.2L886,886.538l-1.125,1.24-3.916-2.119-1.137-.517-.439-.259-.595-.245-.685.013-.426-.053-.581-.4-.53-.505-.983.944-.452,1.163-.013.957-.1.983-.091,1.809-.362.594-.555.594-.543.465-.44.351-.619.723-.621.853-.427-.206-.4-.427-.594-.453-.672-.633-.439-.84-1.68-1.5-1.035-.826-.632-.685-.555-.593-.6-.427-.4-.581-.389-1.176-.7.336-1.9.672-.827.569-.555.633-1.19.955-.748-.076-.635-.117-.491-.375-.413.052-.5.516-.361.505-.3-.492-.838-.877-.594.1-.841.477-.737-.31-.8-.233-.788-.323-.375-.283-.943.465-.555.413-.776.116-.4-.129.026-.569.013-.955.311-1.086.194-2.8.258-.568.712-.195.349-.3.323-1.021-.234-.309-.386-.582-.4-.71-.452-.943-.7-1.182.5-.75.09-4.071.5-.3.491-.163.318-.207.309-.3.478-.207.807.013.892-.427.5-.013.654-.038h.541l.505-.11.252-.387.29-.523.639-.982.66-.975.336-1.376.18-.452.4-.692.323-.6-.3-.536-.1-.407.033-.4.174-.266.148-.336.052-.379.3-.214.426.245.414.22.427.136.561.162.68.149.464-.214.3-.66.33-1.33.271-.239-.013-.264-.419-.544.045-.49.174-.427.51-.691.445-1.027.065-.44.084-.7.318-.768.058-.156-.02-.259-.336-.272v-.328l.078-.349.22-.227.367-.154.556-.1.518-.128.444-.213.414-.467.7-.761.329-.278.1-.356-.318-.368-.109-.369-.123-.523-.1-.472-.161-.586.039-.97-.278-.5-.2-.808-.968-1.957-.581-.807-.363-.556-.614-.563-.235-1.139-.119-.546" transform="translate(-847.698 -819.02)"  stroke="#fff" stroke-linecap="square" stroke-linejoin="bevel" stroke-width="1" fill-rule="evenodd"/>
      <text id="322" transform="translate(75.94 116.817)" fill="#fff" font-size="13"  font-family="OpenSans-Bold, Open Sans" font-weight="700"><tspan x="0" y="0"></tspan></text>
    </g>
    <g id="_320_Jawhar" data-name="320 Jawhar" transform="translate(2536 143.558)">
      <path id="talId320" fill="#7DB8EC" title="Jawhar Taluka" data-name="Jawhar Taluka" d="M865.59,885.34l.621-.853.619-.724.44-.349.543-.465.556-.593.361-.594.091-1.809.1-.982.013-.957.452-1.162.983-.944.529.5.581.4.427.052.684-.013.594.245.44.258,1.137.517,3.915,2.119,1.124-1.241,1.745-2.61.944-2.2.31-1.034-.129-6.5-.439-1.112-.22-2.042-.155-1.77-.53-.517-.93-.155-.763.013-.6.4-.593.478-.324.439-.271.62-.389.285-.594.077-.943.053-.737.038-.348.465-.543.349-.866.027-.917-.065-1.473.465-1.15-.051-.9-.027h-.583l-.465-.026-.413-.349-.118-.44.156-.465.659-.5.5-.465.324-.516.232-.828.348-1.46.377-2,.283-1.317.272-.957.309-.814.311-.582,1.486-.712.517-.323,1.216-.3.826-.31.983.439,1.266.311.724.077-.052.492-.271.426-.285.53-.205.335.025.143.5.246.3.284.465.244.531.144h.762l.5-.144.244-.257.169-.3.245-.142.4.22.375.272.324.026.452-.129.607-.116.259.323.258.413.556-.491.271-.737,1-.232.452-.349.556-.491.04-.621-.143-.53-.3-.374-.259-.3.207-.361h.479l.645-.31-.349-.426-.414-.181-.1-.336.026-.749-.156-1.447-.245-.569-.453-.427-.427-.309.065-.621.452-.323.271-.594-.607-.4-.685-.632.155-.44.957-.439.7.038.606-.076.621-.273.207-.284.53-.439.361-.467.452-.206.477.089.078.246.194.349.258.323.3.064.363-.193.4-.4.8-.7.336-.544.31-.568.4-.091-.026.543v.673l-.052.439.078.413.362.323.31.143.246-.272.078-.478.142-1.046.27-.7.232-.348.7-.349.439-.31.064-.607-.064-.517.258-.271.362.194.284.529.207.285.466.026h.5l.53.207.1.195-.168.321-.337.413-.051.44-.065.4-.167.387-.272.44-.258.439-.038.646-.207,2.041.195.673.452-.116.439-.387.645-.583.5-.077.387.374h.388l.413-.891.414-.814.272-.453.581-.259.826.014.879-.518.808-.782.154-.283.426-.472.4-.032.413.433.388.266.277.206.3.22.142.246.1.4-.019.331-.008.328-.244.685-.246.3-.149.278-.123.316-.039.273.129.278.227.3.238.284.305.265.374.3.162.155.129.3.013.213-.032.427-.006.5-.007.361-.025.271.1.331.285.277.382.278.208.213.115.246.109.5-.336.614-.141.376.025.317.129.49.144.22.315.2.013.343-.038.394-.181.335-.381.666-.3.2-.259.071-.478.032-.42.018-1.253,1.1-.466.277-.084.381-.013,2-.621.577-.258.4.215.569.193.568.193.679.2.652-.181,1.383.278.744.006.677.169.421.763.271.639.24.213.278.434.407.309.279.3.336.207.149.523-.227.42-.116.369-.291.879-.814.511-.273.569-.4.3-.5.169-.421.071-.691.266-.421.329-.354.31-.356.834-.607.478-.389.427.143.123.147.05.247-.05.458-.091.381-.1.447-.072.3-.045.278.109.349.258.257.3.705.18.393.058.265.085.3.1.427-.116.323-.323.522-.608.731-.284.568-.123.387-.149.368-.167.382.116.156.543-.2.407-.33.27-.252.349-.258.452-.245.421-.058.374.116.149.212-.084.562.523.387.317.439.265.291.465.265.252.252.619.38-.018.491-.02.8-.142.3-.162.239-.206.336-.1.433.24.464.394.286.362.271.129.31.038.389-.064,2.2.02.821.374.414.038.42-.226,1.015-.213.438-.077.3.064.381-.026.387-.013.349.122.659.375.439.026.421-.162.5-.485.576-.639,1.221-.037.607.012,2.074-.155,1.331-.691.1-.31-.278-.531-.323-.394.181-.193.238-.472.1-.419-.052-.505.033-.271.224-.219.3-.188.427-.484,1.124-.1.387.343.427.543.4.522.4.311.317.031.549-.193,1.706.258.376.5.135.369-.044.491.038L917,897.8l.29.292.046.322-.008.517.157.362.369.214.425.033.344-.02.419-.194.4-.149,1.273-.329,1.091-.594.524-.22.581-.027,1.2-.245.394.685.116.5.149.413.044.453.033,1.407-.3.331-.077.386.316.42.084.407.414,1.2.213.872.311.543.291.336.679.575.458.362.039.419.1.369.2.156.2.445-.019.232-.156.8-.342.283-.117.272.076.412.538.667,1.317,1.278,1.248,1.112.006.523-.014.439.176.291.09.3.091.407.2.413.144.5-.2.382-.122.278-.149.335-.181.279-.251.109-.317-.065-.192-.278-.22-.181-.305.026-.309.11-.337.142-.4.141-.349.189-.821.225-.555.02-.8.091-.369-.086-.266-.432-.012-.536-.18-.376-.427-.6-.608-.316-.413-.181-.336-.279-.215-.626-.212-.336-.233-.483-.536-.2-.491-.064-.382-.123-.4-.323-.175-.569-.964-.451-.962-.485-1.066-.677-1.466-.627-.672-.149-.641.026-.511.032-.321-.187-.389-.466-.485-.368-.9.614-.555.761-.659.73.07,2.45-.07.885-.564.613-.212.44-.149.258-.535.091-.408.239-.582.142-.458.195-.349.31-.124.265-.536,1.213-.7.293-.318.122-.121-.175-.053-.349-.355-.536-.31-.336-.258-.1-1.209-.04-.529.091-.421.214-.407.071-.42-.1-.368-.071-.37-.122-.568-.078-1.008-.065-.479.1-.38.187-.324.342-.18.408-.065.465-.2,1.37-.31.316-.511.1-.388.025-2.113-.174-1.092-.536-.9-.531-.614-.141-.3.335-.141.556-.233.586-.555,1.7-.111.323.142.369.11.529.007.472-.2,1.2-.207.381-.193.413-.124.4.124.581.4.323-.109.4-.194.22-.659-.148-.64-.265-.627-.155-.589-.277-.535-.227-.646-.3-.7-.367-.718-.614-.613-.434-.452-.271-.388-.3-.257-.329.064-.5-.336-.561-.374-.272-.157-.42-.1-.42-.336-.187-.453-.072-.367-.052-.169-.323.059-.374.111-.407.8-1.028.407-.808.162-.677.356-.588.395-.331.026-.413-.382-.654-.505-.361-.361-.413-.22-.439-.323-.4-.672-.589-.581-.342-1.364-1.093-1.188-.691-.239-.149-.692-.369-.664-.356-.453-.154-.356-.167-.174-.233-.064-.33.283-.342.033-.336.013-1.654-.013-1.319.459-.717-.169-2.094-1.02.006-.129-.083-.685-.344-.717-.252-.756-.193-.421.006-.44.182-1.389.148-.711.064-.51-.225-.109-.233-.7-1.053-.207-.8-.3-.763-.394-.841-.362-.665-.323-.665-.207-.309.123-.409.285-.257.091-1.647-1.241-.44-.182-.692-.684-1.369-.245-.627-.434-.111-.284-.083-.517-.7-.549-.4-.273-.162.169-.619.233-.614.27-.634.757-1.149.627-.911.335-.239.3-.091.393-.149-.025-.665" transform="translate(-862.533 -837.67)"  stroke="#fff" stroke-linecap="square" stroke-linejoin="bevel" stroke-width="1" fill-rule="evenodd"/>
      <text id="320" transform="translate(18.944 57.361)" fill="#fff" font-size="13"  font-family="OpenSans-Bold, Open Sans" font-weight="700"><tspan x="0" y="0"></tspan></text>
    </g>
    <g id="_329_Wada" data-name="329 Wada" transform="translate(2475.984 221.045)">
      <path id="talId329" fill="#7DB8EC" title="Wada Taluka" data-name="Wada Taluka" d="M831.719,974.557l.951-1.066.575-.531.206-.1.633-.02.957-.005.478-.02.245-.342.841-.749.425-.264.033-.394-.543-.73-.025-2.6-.213-.389-.162-.464-.446-1.711-.071-.583-.253-.523-.116-.91-.187-.512-.258-.225-.485-.46-.265-1.1-.168-.318-.362-.484-.245-.259-.659-.078-.5-.2-.129-1.161.04-.86.1-.485.337-.614.452-1.306,1.253-.924.8-.283.745-.215.549-.336.245-.433.091-.29-.439-.343-1.389-.4-.336-.31-.536-.485-.537-.664-1.569-1.907-1.485-1.291-.609-1.112-.595-.634-1.253-1.208-1.182-1.112-.725-.853-.821-1.8-.2-.666-.619-1.117-.427-.479-.116-.4-.1-.775-.129-.472-.266-.69-.227-1.01-.49-.387-.478-.982-1.487-1.021-.439-.439.02-.291.142-.356.169-.29.29-.471.142-1.622.033-.46-.1-.555-.283-.562-.072-.369.143-.239.386-.129.71-.227.485.518.3.31.374.116.349-.156.413-.374.536-.387.646-.356,1.97-.427.291.02.453-.025.374-.247.227-.4.117-.492-.066-.761.7-.066.394-.045.251-.149.239-.245.369.182.291.245.477.007.361-.252.75-.182,1.24.33.51.44.349.353.439.285.5.472.569.181,1.156-.038.9-.181.587-.3.427-.38.071-1.551.032-.292.187-.188.156-.174.116-.484-.3-.272-.581-.3-.479-.072-.472-.083-.427-.685-.27-.659-.271-.549-.278-.543-.446-.459-.233-.44-.012-1.111.161-.349.264-.316.253-.362.426-.492.206-.367.518-.207.942-.007.331-.24.25-.373.323-.516.666-.336.536-.1.563.407-.123,2.241.349.807.472.485-.078.445-.22.414-.212.349-.253.465.174.272.24.406-.078,1.363-.129.389-.273.284-.3.27.026.207.1.162.3.226.639.413.065.615-.207.393-.187.466-.04.368.1.885.337.174,1.344-.614.3-.323.505-.278.574-.154.343-.233.135-.569.227-1.021.22-.31.518-.374.366-.162.505-.182.323-.348.122-.627.04-.485.271-.5.091-.439.063-.582.659.064.608-.051,1.046.031.962.22,1.344.189.775-.13.007.389-.058,2.048.3.593.085.524.238.226.97.956.717.563.155.129.318.136.361.058.491.2.594.154.718.511-.064.394-.02.555.032.6-.032.749.543.608.007.5.077.367.161.414.071.349.02.331.187.5.336.284.331.581.18.381.232.369.02.342-.058.562.032.492.187.341.374.363.621.4.465.1.271.18.362.078.588.117.847-.038.8.349.193.349.124.555.167.4.188.419.2.349.445.258.529-.071.324-.162.3-.736.6-1.326.24-.186.426-.252.439-.142.316-.291.381-.407.5-.407.62-.245.174-.168.477-.361.285-.156.356-.013.36-.038.408-.2.465-.393,1.8-.065.479-.142.93-.6.245-1.622-.078-.374-.187-.232-.129-.214.1-.3.363-.24.73-.406.413-.427,1.241-1.653.595-1,.342-.563-.045-.7.3-.459,1.718-1.466.136-.278.174-.285.458-.246.5-.278,1.079-.1,1,.033.439.182.245.129.387.11.323.278.272.393.278.1.258-.207.169-.123.42-.079.174-.328-.149-.194-.414-.369-.1-.4.1-.685.18-.271.215-.168.5.013.44-.227.214-.3.147-.479.073-.438-.194-.433-.1-.155-.063-.9.393-.291.064-.833.439-.439.453-.213.265-.316.471-.964.1-.3-.046-.529-.012-.465.11-.394.208-.31.071-.415-.3-.213-.518-.013-.369-.141-.283-.427.207-.013.387-.187.219-.149.381-.123h.419l.311-.174.064-.329.085-.434.187-.464-.065-.491-.225-.336-.187-.394-.207-.517.005-.576.086-.2.245-.252.4-.367.543-.3.854-.38,1.377-.051.3.063.349.31.363,1,.044.484.1,1.048.394-.027.594-.045.433-.084.129-.168.213-.343.181-.458.109-.467.24-.671.265-.769.548-.7.142-.213.312-.278.141-.42.058-.51.045-.557.3-.166.782.013.258.328.387.3.453.271.614.434.717.614.705.366.646.3.536.227.588.277.626.154.639.266.66.149.195-.22.109-.4-.4-.324-.123-.581.123-.4.193-.413.207-.381.2-1.2-.006-.473-.111-.528-.141-.368.11-.324.556-1.7.233-.587.142-.556.3-.336.614.142.9.53,1.092.535,2.112.175.388-.026.511-.1.31-.316.2-1.369.065-.465.18-.409.323-.342.381-.187.479-.1,1.007.065.569.078.368.122.368.071.42.1.407-.071.421-.214.529-.09,1.209.039.258.1.31.336.355.536.052.348.121.174.318-.122.7-.292.536-1.214.124-.266.348-.31.458-.195.582-.141.406-.24.536-.09.388.607.349.5.361.53.181.233.478-.155.627.006.478.375.232.341.2.414.264.975.078.3.374,1.311-.251,3.269-.207.55-.149.407-.155.329-.144.376.376.425.419.33,1.137.581,2.468,1.513,1.015.581,1.112.283-.033,1.6.814,1.085.659.26.453.342-.045.413-.266.375-.664.563-1.867,1.479-.181.459-.066.427.247.839,1.389,2.41,1.162,1.384.879,1.1,1.241,1.822.75,1.544.756,1.382.3.79-.381.445-.258.362-.278.646-.53,1.046v.551l.065.336.361.581.052.414.35.491.1.5.95.665-.394.887.407,1.854-.323,1.1-.464.193-.647-.658-.432-.892-.227-1.165-.258-.763-.484-.1-.569.447.008.872-.117.826-.491.492-.742.232-1.3.516-.349.945.116.794-.124.633-.574.039-.725-.458-.982-.6-.595.033-.49.336-1.02.078-1.409-.627-.672.195-.738.341-.516.763-.75,1.059-1.7.24-.7.31-.55-.072-.433-.193-.084-.5.1-.473.084-.42-.129-.407-.3-.188-.283.059-.324.238-.071.452-.02.427v.917l-.051.75-.368.775L923,940.6l-.3.071-.4.03-.533-.243-.061.491-.174.55-.323,1.046-.078.853.621,1.085.478,1.086.426.879.387.866.621,1.564.917,1.8.4,1.008.362,1.11-.622.712-.465.22-.581.063-1.344-.735-.272-.078-1.783-.581-.943-.323-1.033-.1-1.293.22-1.744,1.692-.388,1.112-.556,1.512.169,1.317-2.521-.361-.684-.556-.1-.53-.44-.529-.568-.065-1.059.608-.3.865-.167,2.055-.259.684-.685-.012-.71-.286-1.473.711-2.611.246-.672.1-1.6.1-1.2.258-1.1.18-.089.634-.129.762.1.634.363.321.814.388.374.827.26.788.129,1,.31,1.215.387,1.486.22,1.254.283.865.609.827.71.62.232.634-.672.75-.387.515-.545.821-.407-.007-.305.073-.4.086-.43.146-.44.368-.084.517-.1.278-.352.356-.685.386-.666.255-.343.346-.523.973-.617.788-.536.507-.815.1-.446.1-.336.206-.212.538-.318.752-.53.765-.41.347-.142.29-.156.513-.215.369-.2.118-.52.3-.3.343-.314.389-.362.091-.281.032-.235.155-.452.444-.31.1-.369,0-.32.025-.474-.028-.645-.056-.8.09-1.24.084-.844.068-.558.139-.618.013-.425.005-.394.083-.4.368-.566.061-.746.226-.353.323-.8.9-.3.42-.017.209.007.237.058.164.184.223.23.382.074.4.119.563.273.477.07.334-.048.339-.31.307-.639.2-.922-.026-.581.187-.869.336-.743.416-.333.136-.268.059-.442.019-.549-.03-.3-.045-.378.025-.18.1-.272.192-.283.164-.313.123-.292.023-.276-.123-.444-.3-.274-.149-.282-.109-.384.038-.417.124-.334.288-.118.376-.256.327-.352.275-.11.212-.248.174-.46.159-.988.255-.573.1-.507.227-.33.3-.332.52-.291.247-.309.136-.459.072-.3.093-.293.465-.32.614-.349.146-.248.038-.227-.026-.433-.025-.4.106-.242.078-.306.076-.591-.019-.724-.058-1.056-.1-.381-.033-.414.017-.344.144-.272.055-.226.061-.23.045-.32-.068-.22-.1-.268-.23-.317-.374-.319-.485-.2-.662-.214-.381-.587-1.241-.078-.317-.114-.39-.1-.172-.159-.076-.352.011-.2.075-.33.074-.456-.145-.368-.219-.433-.359-.184-.414-.323-.194-.556-.109-.478.116-.472.471-.258.35-.26.445-.6.446-.155.09-.277.1-.258-.031-.188-.1-.1-.227-.084-.194-.154-.221-.382-.154-.24-.065-.24-.1-.232-.309-.213-.8-.3-.873-.336-1.033-.174-.581-.214-.285-.394-.264-.414-.065-.291.181-.29.5-.213.407-.614.376-.356.3-.323-.018-.22-.078-.187-.116-.342-.208-.472-.078-.2.046-.22.232-.5-.154-.258-.446.038-.388-.013-.517-.078-.956-.5-.788-.44-.581-.154-.621-.091-.75-.206-.748-.091-.646-.374-.75-.053-.672-1.1-.374-1.165.091-.659-.028-.71-1.459-.608-.7-.632-.866-.258-.736-.065-.75-.1-.634-.025-.865-.336-.865-.142-.814-.1-.982-.576-.672" transform="translate(-820.128 -892.681)"  stroke="#fff" stroke-linecap="square" stroke-linejoin="bevel" stroke-width="1" fill-rule="evenodd"/>
      <text id="329" transform="translate(41.959 62.873)" fill="#fff" font-size="13"  font-family="OpenSans-Bold, Open Sans" font-weight="700"><tspan x="0" y="0"></tspan></text>
    </g>
    <g id="_330_Vasai" data-name="330 Vasai" transform="translate(2419.211 292.145)">
      <path id="talId330" fill="#7DB8EC" title="Vasai Taluka" data-name="Vasai Taluka" d="M848.6,953.713l.576.672.1.982.142.814.336.866.026.865.1.634.065.75.259.735.632.867.608.7.71,1.46.659.027,1.164-.091,1.1.374.053.672.374.75.091.647.207.748.091.75.155.622.439.581.5.788.079.955.012.519-.038.386.257.447.505.155-.13.479-.149.574-.272.523-.309.453-.485.446-.531.387-.969.407-.736.381-.757.247h-.387l-.045.761.31.659.374.659.646,1.034-.026.659-.232.917-.556.97-.027.788.207.543.336.491.646.543.593.621.738,1.008,1.589,1.111,1.8,1.137.866.518.414.645.116.9-.273.841-.71.735-1.757,2.031-.284.644-.659,1.473-.182,1.227-.982.453-1.1.479-1.6.673-1.2,1.64-.492.57-.7-.014-.775-.18-.879.18-.594.426.051.518.027,1,.193,1.861.116.944-1.511-.181-1.164-.168-2.855-.233-.142,1.731.22,1.293.556.993-.065.919-.3.413-.336.271H842.8l-.879.091-.918.878-.763,1.409.038.8-.206,1.641-.051,3.464-.013,1.331-.362.762-.454.79-.386,1.68.051,1.376-.4,1.006.013.638.3.936.155,1.106.328,1.645-.032,1.275.3,1.035.446.552.692.539.684.851.892.964.931.864.368.511-.452.213-.6.141-1.233.312-.853.113-.549.2-.885.581-.466.765-.329.794-.3.609-.356.1-1.163-.029-.732-.17-.652-.242-.685-.071-1.584.1-1.448.184-1.943.014-.783.071-.51.426-1.163-.284-1.182-.482-.834-.694-1.674-1.474-1.414-1.332-2.1-1.475-1.654-1.318-2.016-1.248-1.493-1.105-1.428-.6-1.033-.1-.886-.142h-1.46l-1.382.4-.853.326-.976.355-1.5.85-1.437-6.067-.338.354-.287.255-.278.313-.215.184-.114.085-.025.071-.062.07-.128.128-.274.141-.06.071.033.1,0,.014-.129.071-.094.057-.018.057-.119.071-.172.057-.156.057-.1.042h-.3l-.26.015-.067.028-.008.043-.558-.015h-.744l-.169-.028-.24-.142-.214-.227-.189-.227-.077.043-.075-.142.058-.028-.088-.184-.086-.142-.129-.142-.128-.1-.126-.057-.074-.043-.072.1.1.056.163.071.1.114.033.113-.012.142-.069.1-.085.057H797.4l-.285-.057-.3-.042-.174-.113-.231-.156-.264-.241-.4-.412-.275-.3-.169-.3-.179-.4-.161-.34-.236-.382-.233-.284-.193-.258-.308-.158-.316-.2-.418-.263-.247-.206-.178-.237-.251-.34-.266-.322-.253-.272-.2-.17-.395-.295-.085-.092-.031-.124-.02-.077-.126-.121-.114-.029-.146-.041-.131-.083-.136-.187-.068-.112-.082-.139-.3-.411-.287-.261-.082-.074-.19-.042-.1.005-.119-.054-.173-.159-.239-.326-.2-.34-.058-.251-.027-.268.017-.124v-.119l-.013-.133,0-.105-.2-.213-.082-.1-.1-.146-.086-.121-.037-.065-.079-.125-.165-.278-.126-.232-.12-.193-.144-.237-.127-.18-.214-.317-.21-.278-.168-.174-.307-.373-.24-.265-.462-.444-.53-.388-.3-.221-.2-.223-.141-.192-.275-.311-.245-.311-.226-.28-.112-.222-.044-.292,0-.345-.033-.254-.032-.245.036-.23.041-.185.111-.3.053-.3.048-.21.143-.284.072-.191.082-.214.108-.368.063-.192.064-.18.047-.17.074-.248.068-.136.03-.127.068-.241.142-.2.159-.108.179-.047.148-.058.254.011.137-.075.181-.03.238,0,.163,0,.234-.126.081-.111.163-.108.282-.3-.176-.223-.114-.007-.107.023-.126.056-.119.079-.1.189-.072.1-.187.073-.043.046H786.1l-.292-.058-.144-.126-.1-.034-.182-.176-.171-.194-.116-.227-.089-.3-.04-.368-.017-.494-.007-.548.038-.474-.015-.723-.11-.627-.2-.63-.084-.494-.041-.273.012-.336.034-.405-.016-.492-.079-.281-.049-.381-.019-.173-.142-.225-.046-.165-.01-.034-.009-.034-.011-.043-.008-.032-.01-.034-.008-.033-.007-.027-.007-.026-.009-.033-.008-.03-.01-.04-.01-.035-.006-.024-.008-.028-.011-.04-.01-.037-.01-.036-.119-.43-.089-.356-.091-.286-.043-.136-.043-.136-.086-.3-.084-.281-.071-.235-.071-.238-.078-.276-.079-.275-.044-.141-.051-.16-.048-.177-.042-.141-.061-.215-.085-.2-.11-.33-.07-.182-.071-.182-.071-.22-.115-.357-.115-.356-.388-1.2-.1-.376-.771-2.179-.087-.216-.12-.3-.2-.387-.2-.422-.152-.224-.16-.264-.177-.387-.079-.157-.05-.114-.059-.3-.075-.521.04-.14.052-.459.071-.218.024-.236.059-.311.1-.2.1-.179.148-.211.179-.215.163-.174.362-.231.421-.24.217-.177.376-.426.2-.248.17-.216.266-.359.246-.383.354-.532.374-.469.238-.257.167-.13.172-.074.108-.006.087.021v.056l-.026.063-.072.092-.108.086-.039.076.013.041.084.032.38-.071.428-.106.253-.043.136-.008.256.065.32.03.248-.016.078-.082.088-.169-.051-4.346.806-.251.859-.362.42-.24,1.177-1.156,2.364-1.454,2.675-.659.524-.109,1.182-.227,1.215-.258,1.583-.188.375-.1.55-.181.555-.026.73-.077.9-.214,1.176-.3.879-.323,1.28-1.188,1.2-1.539,1-.788.82-.278.4-.174,1.338-.033,3.373-.025.368.012.955.013.718.02,1.234.034,1.55-.1,1.028-.362.866-.472,1.311.459.2.537.3.239.486.311.356.329.4.4.465.549.537.227.536.026,2.049-.776.743-.278.531-.155.4-.22.576-.336.44-.44.258-.408-.013-.457-.182-.414-.632-.672.005-2.34.045-.323.2-.379.136-.383-.459-1.474-.271-.715-.329-.538-.131-1.814-.3.064-1.182-.194-.025-.265V953.6l-.331-1.654-.568-1.279-.109-.833.161-.26.387-.27.452-.369.3-.936-.144-.387-.122-.672.2-.336-.161-.5.194-.478.135-.575.206-.588.8-.544.453-.2.321-.136.543-.206.389-.182.445-.227.543-.162.846-.213.091.478.066.5.121.582.465.672.331.155.452.331.368.406.3.621.375.994.362.6.614.033h.407l.433.22.278.3.626.743.808.982.53.982.137.427.147.711.058,1.285,2.45.013.9.007,1.442-.11,1.137.065.955-.207.331-.108.464.075.543.175.633.123.9.057" transform="translate(-779.715 -942.593)"  stroke="#fff" stroke-linecap="square" stroke-linejoin="bevel" stroke-width="1" fill-rule="evenodd"/>
      <text id="330" transform="translate(26.732 58.774)" fill="#fff" font-size="13"  font-family="OpenSans-Bold, Open Sans" font-weight="700"><tspan x="0" y="0"></tspan></text>
    </g>
  </g>
</svg>
