<svg xmlns="http://www.w3.org/2000/svg" width="240.018" height="301.072" viewBox="0 0 240.018 301.072">
  <g id="Parbhani" transform="translate(-2046.055 -393.561)">
    <g id="_18_Sailu" data-name="Sailu" transform="translate(2067.228 436.663)">
      <path id="talId18" fill="#7DB8EC" title="Sailu"  data-name="Sailu" d="M1573.771,1019.463l-1.024-.161-1.285-.3-.791-.222-.4-.359-.2-.443-.456-.33-1.026-.409-.42-.141-1.4-.283-1.149-.378-3.557-.958-1.3-.473-1-.251-.666-.283-.915-.487-.049-1.589.037-1.681.1-1.43-.075-.645-2.593.063-.94-.126-.383-.157-.246-.488-.866.22-.63.268-.7.141-.519.032-.606.33-.58.519-.667.392-1.087-.5-.68.22-.4.251-.024,2.2.247.818-.124,1.021-.222.928-.173,1.257-.16.865-.693,1.527-.766.111-.7-.333-.63-.346-.272-.708-.124-.472-.234-1.178-.334-.645-.444-.535-.533-.362-1.061-.031-1.247.016-2.176-.456-.939-.362-.468-.252.023-1.9-.011-1.6-.012-.643.444-.865.2-.708-.345-3.285-.693-.268-.976-.378-.58-.015-1.05-.033.024-.658-.036-.7-.58-.062-.927-.055v-.935l.222-1.951.261-1.255.357-1.195v-2.252l.469-.96.013-.746.049-.707.629-.068.668.148.579.177,1.126-.043.161-.566.42-1.46.309-.75.308-1.009.322-.923.383-1.126.443-1.238.569-1.255.272-.6.371-.333.4.2.741.7.543.732.322.671.357.142.545.012.469.11.753-.031.569.037.407.223.211.2.408.566.481-.338.445-.215.16-.3.21-.689.173-.578.136-1.133.161-.739.122-.966.074-.45,1.187.007,1.038.11.469.18,1.026.239.716.044.557-.025.37-.271.161-.738.272-1.034.161-.589.173-.807.482-1.053.345-.941.408-1.139.075-.966.024-.461.234-.708.445-.795.185-.363-.148-.3-.371-.294-.667-.185-.321-.123-.05-1.059.05-.848.2-.894-.012-1.2.458-1.4.259-.726.272-.7.347-.75.087-.055.2-.117.766.332.778.24.716.307,1.371.474.68.112.209-.659.1-.757.235-.953.79-.124.891.178.6.018.988.2.594.227.642-.037-.013.684.074.313.743.124.591.012,1.385-.086.172-.6.939-.3.8-.117.766.012.742-.331.209-.339.074-.425.407.179.359.2.371.025.26-.116.161-.4.246-.6.4-1.87.025-1.711-.013-1.391-.395-.535-.087-.369.2-.456.3-.332.11-1.594.4-.861.21-.512-.061-1.223-.123-.2-.606-.234-.642-.043-.593-.056-.593-.078-.506-.112-.186-.356.137-.29.172-.369.1-1.742.136-.473.148-.376-.581-.253-.469-.159-.371-.173-.1-.252.656-.9.629-1.034.359-.426.815-.751.729.037,1.544.019.334-.265.211-.578.111-1.729.111-1.151.433-1.016.358-.831.1-.59-.221-.529-.2-.547-.2-.3-.185-.068-.865.018-.9-.049-.668-.049-.124-.062.013-.516.259-.615.3-.56.2-.763.235-.984.309-1.5.283-.972.173-.437.321-.4.482-.234.346.123.494.172h.569l1.878-.012.37-1,.335-.923.161-.709.049-.308.063-.744.16-.265.531.013.482.246.815.1.2.684.6,1.061.42.692.32.314.273.472.024.339-.209.463-.779,1.43-.234.442-.124.47.186.229.21-.079.408-.054.184-.047.384-.252.32.322.334.054.7.111.518.527.284.314.261.252.21.456-.061.283-.223.283-.8.338-.506.487-.878.833-.371.353-.208.315.319.291.557.392.383.276.347.189.864.125.494.206.223.29-.246.928.073.652v.37l.074.314.222.44.321.622.012.243.408.08.84.173.617.2.89-.008.668-.009.654-.3.4-.141.47-.339.42-.227.568-.315.569-.15.284.418.123.4.013.409.172.243.309-.023-.111.259-.285.362-.333.306-.494.33-.21.2.186.692-.285.385-.407.338-.123.41v.259l.235.054.346.244.457.173.853.023.333.237.383.023.977.109.482-.344.347-.284.345-.055.432-.126.358-.306.37-.142.335-.087.531-.077.6-.04.347-.1-.037-2.152.3-.465.347-.456.345-.447.235-.229.78-.1.617.055.444.251.63.386.21.259-.185.4-.248.4-.444.787-.507.6-.259.44-.272.716-.161.99-.1.291.371.2.4.315.469.212.618.322.346.158.471-.032.468.2.506.22.63.26.284.072.457-.04v1.447l-.963.039-.395-.126-.643.282-.6.716-.594.88-.3.416-.124.314.012.715-.135.684-.223.479-.345,1.674-.1.527-.135.346-.124.369-.011.283.1.361.544.078.457.189.58.2,1.445.645.544.15.519.149.469.015.667.032.346-.166.235-.4.283-.182.395.409.185.276.161.306.174.346.1.166,1.136,1.085.532.282.543.2.259.22.531-.023.161.275.284.134.359-.126.234-.321.3-.314.409-.5.507.715.42.291.247.33.741.684-.111.55.457-.04.666-.055.383.024.508.2.2.283.172.11.717.213h.581l-.111.612-.148.52-.123.447-.075.377-1,.81-.765.942-.506.685-.321.432-.26.315-.124.3.124,1.839v.684h.432l.383-.063.469-.189.643-.11.6-.04h.63l.494.063.309.134.3.173.469.276.978.675.493.237.606-.055.358.212.432.361.222.331.186.424.135.661.012.879.037.669.025.369.172.252.372.11,1.247-.071.346-.1.47-.534.728-.213.928-.706.469-.173.321.2.568.542.2.448-.061.55-.334.394v.833l.186.472.444.589.135.566.013.566.049.849-.234,1.125-.31.321-.023.284-.038,1.265.061.652.087.345-.074.331-.593.158-1.248-.056-.469-.016-.616.182-.594.416-.1,1.5-.05,5.361-.543.527-.086.449-.136.55-.37,1.171-.162.543-.519,1.211-.173.447-.161.173-5.608.259-.358.22-3.2.032-.1-.1-.876-.407-.408-.409-.136-.417-.222-1.8-.062-.833-.073-.755-.074-.488-.223-.5-.359-.094-1,.07-2.557-.031-.656.015-.332.172-.062.456-.149.332-.073.383-.038.591-.025.613.025.613-.766.039-.433-.023-.383-.409-.58.087-.347-.063-.086.708-2.286-.322-.74.142-.52,1.65-.2,1.95-.087,1.587-.839-.723-1.15-.22-.606.283h-.531l-.593-.2-.531-.188-.345-.11-.631-.189-.407-.22-.136-.614.111-.582.222-.346.061-.644-.123-.865-2.186.314-1.063.9-.162.439.236.566-.013.613-.223.221-.11.519.11.2.125.661.012.88.025,1.572-.519,1.085-.223.189-1.7.031-1.163.174-.629.2-.482.361-.643.158-.74.015-1.027,1.871-.37.959-.32.409-.273,1.634-.074.614-.506-.142-1.05-.283-1.618-.44-1.025-.236-1.013-.173-.927-.157-.8-.016-.259.409-.012.755-.185.409-.618.534-1.285.9-.9-.142-.3.236-.136,1.022.012,2.688-.283,1.761-.174,1.3-.112.667" transform="translate(-1531.71 -923.165)"  stroke="#fff" stroke-linecap="square" stroke-linejoin="bevel" stroke-width="1" fill-rule="evenodd"/>
      <text id="talId18count" transform="translate(31.475 62.614)" fill="#fff" font-size="10"  font-family="OpenSans-Bold, Open Sans" font-weight="700"><tspan x="-9.406" y="0"></tspan></text>
    </g>
    <g id="_133_Jintur" data-name="Jintur" transform="translate(2112.372 394.278)">
      <path id="talId133" fill="#7DB8EC" title="Jintur"  data-name="Jintur" d="M1611.658,1010.265l-.074-.577-.013-.34-.209-.3-.346-.077-.506.212-.679.556-.433.226-.753.1-1.346.221-.482.041-.408-.015-.642-.093-.853-.139-.407-.319.012-.989.273-.186.272-.128.457-.216.444-.078.321-.145.2-.184.148-.376-.025-.385-.136-.412-.3-.232-.493-.293-.544-.042-.309-.031-.678-.015-.828.186-.606.381-.444.612-.123.192-.186.16-.321.221-.235.067-.37.037-.358-.113-.544-.2-.222.053-.273.164-.271.114-.308-.062-.173-.083-.148-.267-.062-.861-.086-.422-.185-.34-.173-.448-.05-.345-.135-.417-.174-.5-.259-.366-.568-.359.087-.708.345.063.58-.086.384.409.432.023.765-.039-.024-.613.024-.613.038-.591.074-.384.149-.331.062-.456.332-.173.656-.015,2.557.031,1-.07.358.094.223.5.072.488.075.755.062.832.223,1.8.135.418.408.41.876.407.1.095,3.2-.032.359-.22,5.608-.259.161-.173.173-.448.518-1.21.16-.543.371-1.172.137-.55.086-.448.543-.526.049-5.361.1-1.5.594-.416.618-.182.469.016,1.247.056.593-.158.073-.33-.086-.346-.062-.652.037-1.265.025-.285.309-.32.234-1.125-.05-.85-.012-.566-.135-.566-.444-.589-.185-.472v-.833l.333-.394.062-.55-.2-.448-.568-.542-.322-.2-.469.173-.926.707-.729.213-.47.535-.345.1-1.248.071-.37-.11-.173-.252-.024-.369-.037-.669-.013-.879-.136-.661-.186-.424-.223-.331-.432-.361-.358-.212-.606.054-.494-.235-.976-.676-.47-.276-.3-.173-.308-.133-.493-.063h-.63l-.606.039-.642.11-.47.189-.382.063h-.433v-.684l-.124-1.839.124-.3.259-.314.322-.433.508-.684.765-.943,1-.811.075-.377.124-.448.148-.519.11-.612h-.58l-.717-.213-.172-.11-.2-.283-.505-.2-.384-.024-.667.054-.456.039.112-.549-.742-.685-.247-.33-.42-.291-.507-.716-.408.5-.3.315-.234.321-.359.126-.283-.133-.161-.276-.532.024-.259-.22-.543-.2-.531-.283-1.138-1.084-.1-.166-.173-.345-.16-.307-.185-.276-.395-.408-.284.181-.235.4-.346.166-.666-.032-.47-.015-.519-.149-.543-.15-1.446-.645-.58-.2-.457-.189-.544-.078-.1-.362.013-.283.124-.369.136-.346.1-.528.347-1.674.221-.479.137-.684-.013-.715.124-.314.3-.417.594-.881.606-.715.642-.283.395.125.963-.039V954.86l-.457.039-.284-.071-.628-.259-.508-.22-.47-.2-.469.033-.346-.159-.618-.322-.47-.212-.4-.315-.369-.2.1-.291.16-.989.271-.716.259-.441.508-.6.445-.787.246-.4.186-.4-.211-.259-.629-.386-.445-.25-.618-.056-.778.1-.234.229-.346.448-.346.455-.3.465.036,2.153-.345.1-.606.04-.531.078-.332.087-.371.142-.359.306-.433.126-.345.054-.345.284-.482.345-.976-.109-.383-.024-.333-.236-.853-.024-.457-.173-.346-.244-.235-.054v-.259l.124-.41.407-.338.285-.385-.185-.692.21-.2.494-.33.334-.306.284-.362.111-.26-.309.024-.173-.243-.012-.409-.123-.4-.284-.418-.568.15-.569.315-.42.227-.469.338-.4.141-.654.3-.668.009-.889.008-.618-.2-.839-.174-.408-.079-.013-.244-.32-.621-.223-.44-.074-.315v-.37l-.074-.652.248-.928-.223-.29-.493-.205-.865-.125-.347-.189-.382-.275-.556-.393-.322-.291.21-.315.372-.353.877-.834.506-.487.8-.338.221-.283.062-.283-.21-.455-.258-.253-.284-.314-.519-.527-.7-.11-.333-.054-.32-.322-.384.252-.186.047-.407.054-.209.08-.185-.229.123-.471.234-.441.778-1.43.21-.463-.025-.338-.272-.472-.321-.313-.42-.692-.6-1.061-.2-.684.593.042.493-.043.471.123.432.172h.728l.013-1.348.049-3.28-.173-1.92-.259-.862-.086-1.575-.458-.6-.2-.807.111-1.994-1.4-.161-.889-.1-1.012-.277-.68-.122-.7-.173-.506-.06-.495-.049h-.309l-.258-.3v-1.009L1569,916.6l-.37-.805-.124-.752.346-.879.087-.438.05-.739,1.1-.147,1.791.085,2,.2,1.185.012.569-.174.544-1.748.32-.591.062-.553.025-1.562.148-.733,1.062.044.409.326.482.308.494-.438.655-.147.63.172.768.246.443.025.716.093.1-.783.173-.646.087-.885-.124-.376-.445-.283-.556-.049-1.223-.123-.568-.135-.778-.235-.605-.085-.4-.192-.519-.541-.8-.494-1-1.118-.481-.795-.174-.923v-.924l.1-.842.3-1.107.21-.382.52-.072.494.258.383.091.532-.029.493.048.161.222.346.049.495-.1.432-.333,1.482.043h1.667l.086-.732.459-.6.184-.653-.074-1.316-.074-.658-.21-.53-.211-.407-.283-.5-.025-.227.025-.53.358-.805.556.056.666.236.334.225.31.136.32.1.383.091h.433l.766-.191.975-.185.557-.124.369-.029.285.079.258.2.272.259.21.275.235.433.322.174.357-.016.445-.445.234-.22.606-.238.308-.117.6-.029.99.135.753.215.778.562.431.361.323.253.209.147.248.1.482-.169.2-.26.209-.934.235-1.144.185-.415.173-.22.8-.124,1.173.174.951.176.853-.125,1.248-.765.419-.231.421-.119.371-.051.469.225.246.433.223.648.271.862.544,1.25.7,1,.309.5.162.371-.038.467-.161.394-.9.743-.346.208-.308.237-.173.478-.013.378.136.405.149.32.383.248.481.3.766.377.717.293.567.248.2.264.074.372-.185.271-.408.254-.592.31-1.014.309-.89.136-.468.146-.384.174-.394.27-.173.209-.148.393.05.293.184.349.32.259.532.282.667.344,1.086.068.408-.113.569-.125,1.136-.8.593-.208.493-.209.495-.254.4-.1.629-.287.347-.14.309-.315.147-.418.111-.676.088-1.84-.025-.5.062-.4.073-.31.161-.343.21-.366.358-.258.42-.119.543.107.766.738.309.878.432,1.919.174,1.288.32,1.847.05.519.223.579.258.163.518.169.656.067,1.136-.061.419-.158.778-.282.346-.163.407-.141.384-.135.938.055,1.039.615.493.27.445.185.359.377.333.428.507.242.679.185.493.068.494.2.334.355-.024,1.132.024.817.087.456.272.27.457.176.679.022,1.112-.236.641-.356.544-.32,1.174-1.081.357-.248.384-.286.557-.445.554-.383.334-.057.4.011.543.107.493.112.26.4.482.674.3,1,.223.525.42,1.024.345.637.1.658.136.985.383,1.008.284.824.654.893.7.546.557.518.32.219.383.412.185.665-.26.759-.222.288-.247.3-.359.343-.32.591-.149.508-.026.286.026.63.1.259.173.174.247.176.345.055.359.057.358,0,.385.024.37.01.432.215.47.427.569.6.32.479.111.489.012.563.012.557.037.333.061.473.235.388.471.737.408.36.3.242.419.434.359.315.234.315.507.5.445.208.22-.017.359-.191.891-.868.555-.314.63-.889.21-.57.1-.546-.075-1.537-.186-.484-.371-.742-.222-.648-.2-.659-.383-.732-.074-.445v-.4l.174-.282.1-.209.432-.478.679-.536.63-.821.309-.469.246-.5.161-.237.272-.3.284-.2.4-.086.333.018.333.141.247.31.309.506.482.838.283.372.4.574.062.479-.148.388-.321.361-.173.288-.185.511-.26.479-.111.3-.308,1.149-.335,1.03-.024.6.062.445.1.546.086.332.234.625.26,1.087.136.428.111.332.05.3-.012.367-.26.822-.049.607-.074.49-.026.626.063.629.259.4.556.423.37.338.321.213h.21l.309-.062.284-.044.333-.085.322-.146.346-.3.755-.98.6-.873.4-.456.271-.265.2-.141.234-.073.259-.056.271.017.384.214.347.338.3.569.321.951.246.478.211.469.432.484.273.084.271,0,.235-.038.321-.247.383-.767.383-.922.049-.542.027-.568-.088-.479-.3-.815-.334-.743-.543-.754-.729-.833-.643-.687-.233-.231-.174-.288-.086-.269.112-.508.061-.192.283-.292.259-.371.655-.648.247-.078.407-.028.283.055.284.125.346.169.52.281.42.141,1.161.141,1.05.327.321.056.53.057.4-.1.37-.208.791-.788.606-.186.382-.012.21.136.26.55.222.8.087,1.11.271,1.267.211.579.617.874.494.7.407,1.132.3.467.432.682.185.626-.1.506-.222.236-.246.271-.383.315-.493.282-.532.3-.6.383-.569.372-.531.542-.012.708.136,1.374.025.811.024.551.086.44.174.439.333.3.457.214.642.215.865-.012,1.432-.405.532.022.617.2.582.438.42.259.395.427.2.53-.122.629-.321.507-.371.451-.532.619-.371.462-.32.63v.687l.271.574.667.394.816.09.741-.145.53-.181.717-.451.581-.618.58-.767.655-1,.519-.867.173-.552.458-1.171.9-.676.716-.281.532-.113.642.035.927.235.457.35.568.731.594,1.543-.136,1.047-.42.969-.408,1.429-.025.451.3.528.124.068.557.191.629.158.668.2.962.225.667.034.358.293.384.619.357.225.161.428-.358.407-.469.168-.346.158-.124.878-.037.574-.062,1.114-.246.462-.667.1h-.593l-.346-.147-.753-.045-.433.44-.729,1.137-.345.237-.58.247-.841.18-.074.225-.112.744-.148.371-.407.427-.507.17-.606.134-.741.2-.693.316-.1,4.661-.692,1.644-.494.642-.619.575-.728.855.345.406.285.608-.6,2.477.358.553.111.292-.3.564-.8-.057-1.3-.316-4.62-.349-.136.226-.32.878-.334,1.125-.211,1.453-.147.878-.26,1.273-.322.766-.037.777,1.323.428.012.878-.273,1.712.6-.046.47.417-.222.586-.285.472.7,1.419.347.7.222.653v.585l.174.518.467.338.606.507.2.946-.112,1.452,1.062.237.729.157,1.173.461,1.064.192,1.469.147-.246,1.633L1679.2,993l-.26.653-.16.034-.889.044-.049,1.183-.568.315h-.112l-.729.034-.246.315.024.519.333.145.495.023-.136.36-.47.046-.7-.012-.223.281-.259.462.1.744-1.014.243-.616.124-.271.364-.385,1.055-.555,1.509-.346,1.022-.543,1.282-.52,1.724-1.062.011-.618-.112-.765-.114-.655-.363-.864-.057-1.137.114-.987.318-1.916-.7-.815-.023-.074-.352.135-.42.173-.488.036-.475-.48-.307-1.274.022-.418-.159-.1-1.532-.4-.42-.507-.407-.839-.794-1.249.057-.148-.238.075-.524.408-1.021.086-1.18-.987-.466-.7-.26-.506-.035-.445-.272-.519-.385-.457-.363-.778-.58-.42-.465-.2-.567-.161-.545-.445-.794-2.52-.079-1.382.023-.186,1.316-.149.534-.951.987-.8.806.086,1.895-.875,1.827-1.15,2.463-.272.635-.395.6-.555.964-.284.851-.284,1.134-.409,1.226-.11,1.316-.667-.318-.507-.34-.606-.409-.691.17-1.063.217-.148-.387-.123-.737-.68-.057-.568.227-.285.636.013.51.21.34-.025.261-.2.261-.58.4-.68-.1-.865-.228-.84-.2-1.1-.273-.79.08-.8.033-.753.1-.865.238-.654.261-.63.045-1.012.1-1.3.18-.186-.2-.333-.4-.345-.387-.618-.158-.716.045-.432.023-.705.079-.678-.079-.964-.306-.507-.092-.209.375.174.262.123.25.123.783-.691.385-.778.477-1.062.238-.815.022-1.136.42-1.668.224-.4.1-.852-.088-.333-.139-.346-.16-.384-.292-.247-.2" transform="translate(-1568.51 -888.935)"  stroke="#fff" stroke-linecap="square" stroke-linejoin="bevel" stroke-width="1" fill-rule="evenodd"/>
      <text id="talId133" transform="translate(61.331 64.999)" fill="#fff" font-size="10"  font-family="OpenSans-Bold, Open Sans" font-weight="700"><tspan x="-9.67" y="0"></tspan></text>
    </g>
    <g id="_134_Parbhani" data-name="Parbhani" transform="translate(2150.129 496.844)">
      <path id="talId134" fill="#7DB8EC"  title="Parbhani"  data-name="Parbhani" d="M1651.173,1084.706l-.445.075-1.16.012-.742.21-.519.519-.309.507-.185.9-.012.927.012.988.038.618.036,1.2.05.741.222.754.184.556.111.828h-2.581l-1.149.136-.816.036-1.531-.444-.94-.174-.864-.37-.26-.655-.148-.864.038-1.359.062-1.223-.1-1.3-.308-2.372-.493-.086-.358-.692.037-.7.322-.728.259-.7-.322-1.693-1.655-.05-1.224-.482-.963-.087-.977.26-.789.284-.68.655-.63.643-1.063.1-1.235-.469-1.408-.68-2.83.334-1.16-.05-1.052.21-1.543.654-2.421,1.063-3.583.457-2.36.111-1.581-.123-2.817.136-.1-.457-.173-.581-.284-1.025-.334-1.137-.815-.877-1.063-.7-.544-.285h-.729l-.531.087-.7.2-.741.321v-.407l.011-.754-.37-.791-.42-.173-.135-.408.049-.457.012-1.05.333-.148.433-.173.309-.506.012-.964.235-.481.37-.334.482-.457.1-.655.1-.519.161-.4.334-.234.124-.371-.061-1.791.383-.68.087-.543-.075-.556-.185-.284-.149-.482-.469-.667-.445.247-.505.617-.458.754-1.136.68-1.335,1.05-.7.469-.63.383-.148-.531-.049-.791.3-1-.173-1.494-.285-1.025-.444-1.173.1-.569.557-.506,1.3-1.408.111-.383.642-.358.111-.184.05-1.186-.074-.729-.2-.778-.445-1.1.025-2.717,1.742-.075,1-.111.32-.247.259-.8.185-.729.1-.754.025-.754.308-1.2.383-1.125-.012-5.373-.642-.025-.766-.753h-.593l-.358-.124-.185-.358.185-.457.136-.47.248-.457.184-.766.038-2.3.222-.988.037-5.312.211-.667.493-.84,1.408-1.322.209-.482.1-.716-.185-1.383-.3-.618-.469-1.075-.594.012-1.3.21-1.817-.148-1.074.334-.556-1.445-.21-2.706,1.038-2.421.16-3.138.4-3.4-.433-3.75-.21-2.636.58-3.564-.358-.593.037-1.6.076-.81.135-.268.556-.479.42-.34.345-.169.358-.088.384-.221.383-.294-.013-1.334-.012-.432.025-.387.186-.473.185-.6.124-.572.246-.515.248.2.383.293.346.16.334.138.852.088.395-.1,1.668-.224,1.136-.42.815-.022,1.062-.238.779-.477.691-.385-.123-.783-.123-.25-.174-.261.21-.375.507.092.964.306.679.079.7-.079.433-.023.716-.045.618.158.346.387.334.4.184.2,1.3-.181,1.013-.1.63-.045.654-.261.865-.238.753-.1.8-.033.791-.081,1.1.272.84.2.865.227.679.1.58-.4.2-.261.025-.262-.21-.339-.013-.51.285-.636.568-.228.679.057.123.737.149.387,1.063-.216.691-.171.606.41.507.341.666.317.111-1.316.408-1.226.284-1.134.284-.851.556-.964.4-.6.272-.634,1.149-2.463.877-1.827-.087-1.895.8-.806.951-.987.149-.534.185-1.317,1.384-.023,2.519.08.445.794.161.545.2.568.421.464.777.58.457.363.519.385.443.273.507.034.7.261.988.466-.087,1.18-.408,1.021-.074.523.148.238,1.249-.057.84.794.507.408.4.42.1,1.532.42.159,1.273-.022.481.306-.037.476-.171.488-.136.42.073.351.815.023,1.915.7.988-.317,1.137-.114.864.057.654.363.766.114.619.112,1.063-.011.518-1.725.542-1.282.347-1.022.555-1.509.383-1.055.272-.364.617-.125,1.013-.243.791.145.789.191.865.3.889.451.853.8.3.169.518.169.581.113.667.112.729.08h.767l.431-.2.322-.609.284-.641.321-.812.123-.765.05-1.38.383,0,.395.062.717.191.791.256.408.053.915-.047.925-.02.742.168.123.074.186.385.1.124.16.123.259.224.21.368.111.276.037.359-.049.447-.111.381-.222.357-.173.4-.062.5-.1.26-.124.172-.234.163-.335.2-.433.245-.172.147-.087.133-.061.194.011.136.1.2.223.175.284.351.111.287.074.476-.087.337-.32.4-.557.375-.529.121-.236.054-.26.163-.3.278-.2.3-.087.363-.074.744-.063.663-.085.493-.754.425-.235.246-.247.419-.236.759-.27,1-.186.563-.284.709-.358.673-.248.225-.346.063-.185.058-.456.178-.26.205-.247.178-.112.3-.012.766-.049.237v.768l.234,1.131.173.687-.037.563-.222.9-.162.392-.358.469-.419.594-.2.507.013.46.246.7.333.577.631.74.531.658.643.625.481.5.235.268.123.33-.2.605-.05.383.074.506.086.839.1.791.037.568-.062.309-.247.4-.3.382-.284.359-.42.543-.383.346-.384.494-.26.457-.234.6.025.247-.025.222.124.21.246.124.272.112.321.148.382.161.223.283.321.432.445.754.334.469.53.408,1.273.123,2.792-.2.7-.074.778-.136.05-.519,1.112.186.7.3.124.482-.606.47-.051.889.359.285.21.506-.247.531-.272.729-.469,1.445-.544,2.174-.976,1.939-.259.779-.236.939.532.345.456.951.42.815,1.174,1.186,1.05,1.038.568.432.729.26,1.16.494,1.1.507.346.6-.247.741-.507,1.717-.371.754-.371.494-1.111.927-.186,1.408-.581,1.557-.506.828-.482.371-.26-.05-.555-.531-.927.457-.457.877-.47,1.421-.679.037-1.223.087-1.223-.124-.618-.074-.433.568-.693,1.519.051,1.482-.371,2.472-.542.852-.458.963.1.865.89.395-.111.593-1.434,1.063-.827.173-2.014-.087-1.038.778-.271,1.853-.927.025-.852-.025-.766-.061-1.458-.4-1.235-.42-.148.345-.581.964-7.079-.235-.148,1.841v.865l-.3.716-.741.605-.3,1.347.2,1.779-.483,3.335-1.557-.2-1.21.717-.358.544.407.914.161,1.433-.025,1.013-.421.84-1.148.7.049,1.26-.3.617-.505.285-.408-.038-.927-.358-.84-.037-1.383.111-.1,1.322.3.2.531.174.58.235.506.3.309.481.013,1.211.049,1.013-.013,1.569" transform="translate(-1598.97 -971.958)"  stroke="#fff" stroke-linecap="square" stroke-linejoin="bevel" stroke-width="1" fill-rule="evenodd"/>
      <text id="talId134count" transform="translate(20.574 63.434)" fill="#fff" font-size="10"  font-family="OpenSans-Bold, Open Sans" font-weight="700"><tspan x="-15.412" y="0"></tspan></text>
    </g>
    <g id="_11_Manwath" data-name="Manwath" transform="translate(2109.23 508.521)">
      <path id="talId11" fill="#7DB8EC" title="Manwath"  data-name="Manwath" d="M1597.708,981.7l.569.359.26.365.173.5.135.416.05.346.173.447.186.34.086.423.062.861.149.267.173.083.309.062.272-.114.272-.164.222-.052.543.2.358.114.371-.037.235-.067.321-.221.186-.159.122-.191.444-.613.606-.381.828-.185.68.015.309.031.544.042.494.292.3.233.136.411.025.387-.148.376-.2.185-.322.145-.444.078-.457.216-.272.128-.271.186-.012.989.407.32.852.138.643.093.408.015.482-.041,1.346-.22.753-.1.433-.226.68-.556.507-.211.345.076.209.3.013.34.074.576-.247.516-.124.571-.185.6-.184.473-.025.387.013.432.013,1.334-.383.294-.383.221-.359.087-.346.17-.42.339-.556.48-.136.268-.074.809-.037,1.6.358.593-.581,3.564.211,2.636.432,3.75-.395,3.4-.161,3.138-1.038,2.42.211,2.705.556,1.446,1.075-.333,1.817.147,1.3-.21.593-.013.469,1.075.3.617.186,1.384-.1.717-.209.482-1.408,1.322-.495.84-.21.667-.037,5.311-.221.989-.037,2.3-.186.766-.247.457-.135.469-.185.458.185.358.359.124h.592l.766.753.643.025.012,5.374-.383,1.124-.309,1.2-.025.753-.1.754-.186.729-.259.8-.322.246-1,.112-1.742.074-.025,2.718.445,1.1.2.778.075.729-.048,1.186-.112.185-.642.358-.112.383-1.3,1.408-.555.506-.1.568.445,1.174.284,1.025.173,1.494-.3,1,.05.791.148.532.63-.383.7-.47,1.333-1.05,1.138-.68.456-.753.507-.618.445-.246.469.667.148.481.184.284.075.556-.087.543-.382.68.062,1.791-.123.371-.334.234-.16.395-.1.52-.1.654-.482.457-.37.334-.234.482-.012.963-.31.507-.433.173-.333.148-.013,1.05-.048.457.135.408.42.174.371.79-.012.754v.408l-.433.408-.84.271-.58-.161-.408-.185-.495-.371-.308-.506-.371-.951-.221-.655-.248-.506-.259-.482-1.42-1.284-1.445-1.384-1.15-1.111-.618-.927-.827-.741-.63-.729-.569-.148-.717.062-.518.308-.68,1.359-.408.507-.543.42-.581.135-.828-.16-.913-.235-1.471-.765-.927-.42-.531-.222-.4-.309-.346-.346-.532-.161-.543.037-.506.259-.247.458-.247.506-.926,1.273-.779.469-.654.21-.791-.037-.532-.136-.517-.124-.68-.3-.9-.135-.777-.038-.483.211-.309.321-.345.506-.186.433-.483.556-.284-.458-.062-.309-.161-.259.223-.234.087-.4-.111-.444-.322-.334.185-3.323-.358-.593-.271-.507-.309-.037-.507.05-.1-.3-.111-.494-.247-.605-.125-.593-.357-.16h-.569l-.085-2.372.246-.037,1.359-.469.148-.062.087-.173.223-.506.172-.791.333-1.3.173-.593.211-1.049.284-1,.395-1.52.235-.481.137-.507.111-.469.149-.4.1-.543-.729-.037h-.482l-.889.037-1.31-.223-.728-.334-.421-.3-.655-.543-.791-.976-.852-.84-.581-1.1.161-2.088.382-2.816.964-.284.235-.074.457-.26.272-.247.445-.494.482-.519.74-.309.593-.186-.383-.445-.2-.383-.235-1.359.792-.754.7-.544.087-.63.024-.692.026-1.173-.273-1.013.037-2.73-.568-.309-.89-.185-.84-.556-.692-1.458-.556-.939-.828-1.063-.42-.717-.469-.728-1.014-.63-1.383-.235-1.507-.4-1.211-1.432.038-.531-.136-1.852.111-.408.209-.457.186-.495.26-.729.247-1.074.062-1.05.47-2.57.284-.729.3-.555.371-.667.173-.42.248-.4.024-.308-.234-.26-.594-.371-.444-.247-.494-.173-.469.086-.543.309-.408.247-.545.049-.222-.1-.554-.309-.359-.161-.556.037-.432.2-.655.036-.049-.284.087-1.655.111-.667.173-1.3.284-1.762-.013-2.688.136-1.021.3-.235.9.141,1.284-.9.618-.534.185-.409.013-.754.259-.409.8.016.926.157,1.014.173,1.025.237,1.618.44,1.051.282.5.142.074-.614.273-1.634.32-.409.372-.959,1.025-1.872.741-.015.642-.158.482-.36.63-.205,1.161-.173,1.7-.031.223-.188.519-1.084-.025-1.573-.011-.879-.124-.661-.111-.2.111-.518.223-.221.012-.613-.235-.565.16-.44,1.062-.9,2.187-.313.124.865-.062.643-.222.346-.111.581.136.615.408.22.63.189.345.11.531.188.594.2h.531l.605-.282,1.149.22.841.722.086-1.587.2-1.949.519-1.65.741-.143,2.285.323" transform="translate(-1565.689 -981.378)"  stroke="#fff" stroke-linecap="square" stroke-linejoin="bevel" stroke-width="1" fill-rule="evenodd"/>
      <text id="talId11count" transform="translate(12.473 27.757)" fill="#fff" font-size="10"  font-family="OpenSans-Bold, Open Sans" font-weight="700"><tspan x="-12.327" y="0"></tspan></text>
    </g>
    <g id="_17_Pathri" data-name="Pathri" transform="translate(2046.934 516.644)">
      <path id="talId17" fill="#7DB8EC"  title="Pathri"  data-name="Pathri" d="M1551.865,1069.2l-1.086.123-1.409-.136L1548,1068.9l-1.087-.791-.964-.68-.542-.691-.408-.53-.309-.668-.05-.692.26-.655.6-.333.63-.271.482-.334.309-.322.2-.383.024-.766.137-1.161.3-.7.457-.778.284-.482.766-.482.667-.408.642-.3,1.743-.58.764-.407.891-.495.543-.556.642-1.211.433-.976.123-.667-.123-.444-.358-.457-.557-.407-.53-.507-.2-.544.111-1.3.433-1.063.147-.358.149-.816-.062-.531-.494-.976-.507-.9-.346-.717-.1-.592.049-.531.334-.482.618-.543.543-.667.556-.939.334-.988.211-.976.369-.753.149-.791.025-1.075-.075-.8.075-.754.185-.988-.062-.753-.1-.457-.469-.68-.679-.556-1.816-1.409-1.013-.8-1.568-1.026-.582-.161-.964.061-.877.062-.828.025-.729-.309-1.088-.457-.691-.407-1.187-1.162-.914-.963-.692-.469-.814-.012-.964.271-.555.284h-1.211l-.74-.2-.717-.26-.506-.321-.643-.148-.581.025-1.173.358-.791.494-.729.506-.495.457-.8.457-.852.186-.816.309-.58.334-.347.432-.4.766-.383.84-.147.692-.333.483-.4.469-.482.223-.815.111-.716-.4-.408-.457-.309-.334-.84-.284-.865.123-.9.185-.741.21-.481.259-.915-.062-.482-.259-.16-.334.074-.68.444-.766.692-.741-.062-.878-.581-.666-.322-.3-1.272-.136-.69-.062-.3-.062-.185-.308-.124-.321v-.347l.173-.8-.063-.581-.3-.58-.26-.4-.729-.7.988-1.359,1-1.68.469-.667.21-.334v-.42l-.149-.285-.309-.246-.382-.271-.4-.4-.408-.457-.593.013-.666-.05.049-1.68.049-1.285.161-.543-.013-.445.111-.481.149-.667.284-.556.26-.148.555.087.3.136.32.161,1.3.42.518.185.519.111.605.075.31.26.369.012.346-.124.248-.8.062-.4.606.025.345-.025.149-.321.012-.581-.026-.592-.012-.642.074-.951.148-.89.309-.63.42-.519.408-.135.728.172.606.174.433.223.592.062.458.321.95.21.569-.012.7-.124.4-.05.369.222.2-.061.1-.494.211-.42.693-.519.666-.465.569-.486.618-.714.074-.59-.2-.277-.3-.2-.815-.389-.778-.331-.568-.26-.557-.227-.593-.419-.2-.2-.409-.425-.172-.32.074-.566.284-.758.259-.639.124-.351.222-.541,1.21.092.827.222.309.049.7.1,2.557-.141.16-1.692.223-1.009.3-.542.432-.873.358-.929.333-1.711.012-.4,1.051.034.58.014.977.378.691.267.346,3.286-.2.707-.445.865.013.644.012,1.6-.025,1.9.469.251.939.362,2.175.456,1.247-.017,1.061.031.532.363.445.535.334.645.234,1.178.123.472.272.707.631.346.7.333.766-.111.692-1.528.159-.864.174-1.258.223-.928.123-1.022-.247-.818.025-2.2.4-.252.679-.219,1.087.5.668-.393.58-.519.606-.33.518-.032.7-.141.63-.268.865-.22.247.488.384.157.939.126,2.593-.063.075.645-.1,1.43-.037,1.682.05,1.588.915.487.666.283,1,.252,1.3.472,3.558.958,1.148.378,1.4.283.42.141,1.027.409.456.33.2.443.4.359.792.222,1.284.3,1.025.161-.087,1.655.049.284.656-.037.432-.2.556-.037.359.161.555.309.223.1.544-.049.408-.248.543-.308.47-.087.493.173.445.248.594.371.235.259-.025.309-.247.395-.174.42-.37.667-.3.556-.284.729-.468,2.569-.062,1.05-.246,1.074-.26.729-.186.494-.21.457-.112.408.136,1.853-.037.531,1.211,1.433,1.508.395,1.384.235,1.011.63.471.729.42.716.827,1.062.556.939.693,1.458.839.555.89.185.568.309-.037,2.73.272,1.013-.025,1.173-.025.692-.086.629-.7.544-.791.754.234,1.358.2.383.383.445-.593.185-.742.309-.48.518-.445.495-.272.247-.457.26-.234.074-.963.285-.383,2.816-.161,2.088.582,1.1.851.841.791.976.655.543.419.3.73.333,1.31.222.889-.036h.481l.73.036-.1.544-.148.4-.111.47-.136.507-.235.481-.395,1.52-.284,1-.21,1.049-.173.594-.334,1.3-.173.79-.223.507-.085.172-.148.062-1.359.47-.246.037.085,2.372h.569l.358.16.124.593.247.606.112.493.1.3.505-.049.309.037.272.506.358.594-.185,3.323.322.333.11.446-.086.395-.222.235.16.259.062.309.284.457-.531.556-.568.42-.3.248-.679.433-.815.284-.543.123-.593-.111-.519.111-.333.222-.173.285-.049.481.272,1.273.074.481-.185.457-.161.445-.444.248-.335.148-.592.259-.543.518-.506.482-.247.358-.3.593-1.162,2-.791.951-.728.679-.63.248-.619.185-.444.173-.927-.148-.519-.26-.9-.7-.852-.89-.8-.876-.656-1.384-.591-1.075-.409-.89.112-1.025.58-1.038.445-1.124.062-.964.013-.9-.581-1.124-.444-.543-.669-.544-.9-.149-.617.125-.508.3-.333.494-.308.555-.494.544-.692.235-.777.024-.581-.074-.766-.407-.679-.939-.792-1.3-.951-1.359-.84-.766-.815-1-.444-.853-.31-.852-.135-.729-.259-1.248-.519-.431-.79-.445-.79-.457-.519-.235-.975-.074-.729.371-.718.605-.876.753-.827.889-.593,1.347-.556,1.927-.31.667-.3.531-.531.519-.4.271-.89.7-.9.321" transform="translate(-1515.4 -987.932)"  stroke="#fff" stroke-linecap="square" stroke-linejoin="bevel" stroke-width="1" fill-rule="evenodd"/>
      <text id="talId17count" transform="translate(22.77 30.634)" fill="#fff" font-size="10"  font-family="OpenSans-Bold, Open Sans" font-weight="700"><tspan x="-7.588" y="0"></tspan></text>
    </g>
    <g id="_13_Purna" data-name="Purna" transform="translate(2200.001 536.486)">
      <path id="talId13" fill="#7DB8EC" title="Purna"  data-name="Purna" d="M1641.661,1077.192l.012-1.568-.048-1.013-.012-1.211-.309-.482-.506-.3-.58-.234-.531-.173-.3-.2.1-1.321,1.383-.111.839.037.927.358.409.037.506-.285.3-.617-.05-1.26,1.149-.7.42-.84.025-1.013-.161-1.432-.407-.914.356-.544,1.212-.716,1.556.2.483-3.335-.2-1.779.3-1.346.741-.606.3-.716v-.865l.148-1.84,7.079.235.581-.964.147-.346,1.235.421,1.458.4.765.061.853.025.927-.025.272-1.853,1.039-.779,2.013.087.828-.173,1.432-1.062.111-.593-.888-.4-.1-.864.457-.964.543-.852.371-2.471-.05-1.482.692-1.519.432-.568.618.074,1.223.124,1.224-.086.678-.038.471-1.42.458-.877.925-.457.556.531.259.05.481-.371.506-.828.582-1.556.185-1.409,1.112-.926.371-.494.372-.754.505-1.716.246-.742-.346-.6-1.1-.507-1.161-.494-.729-.259-.569-.433-1.049-1.037-1.174-1.186-.42-.816-.457-.951-.531-.345.234-.939.26-.778.976-1.94.542-2.174.47-1.446.272-.728.248-.532-.211-.506-.359-.285.05-.889.606-.469-.124-.482-.7-.3-1.111-.186.075-.741.011-.853.149-.8,1.643.087.974.036.273.024.309-.123.234-.3.161-.358.222-.531.259-.235.333-.235.84-.309,1.038-.173.457-.272.3-.247.617-.321.617-.26,1.569-.037.753.025,1.012.036,1.841.322.446.062.246.3-.432,1.112-.791.593.172.123.643.3.346.062.7.124.532.358.655.495-.173.493-.284.26-.234.433-.012.642.061.63.247.865.248.544.322.482.012.975.408.1.494.1.2.37-.074,1.162.3.012,1.347-.111.9-.123,1.038-.124h.889l1.569-.222.741-.149L1699,1014l.543-.149.531-.025.137.346-.076.728-.135.445-.161.346-.272.259-.357.148-.84.259-.446.21-.9.469-.136.606.123.8-.012,1.26.148,1.47-.062,1.742.8.148,1.248.383.655.384.655.407.469.223.617.185.865.185,1.1.074.556-.012.457-.062.432-.1.729-.3.494-.284.333-.21.408-.037.087.358-.05.68-.024,1.47.024.58h1.137l.1.284-.111.519-.531.889-.446,1.075-.309.729-.74.791-1.174.876-.11.383-.384.889-.4,1.2v1.025l-.16,1.125.222.186.705.209.431.136.606.223.778.223.653.247.445.16.445.186.629.235.605.087.681.358.876.223.4-.038.507-.012.8.012,1.26.507.26.605.32.062.334.137.148.333-.061.433-.148.37.074.31.567.172.89.309.061.494-.024.371.012.58h.272l.235.012.185.222.025.334.172.149.989.3.384.024.74.05.644.025.049.284.025.469-.1.79-.259,1.371-.309.531-.457.778.618.148.791.037.852-.037.8-.061.715.012.741.086.235.234.42.606.16.222.26.173.345.111.483.136.111.284-.185.284-.346.038h-.506l-.494.234-.519.1-.927.148-.964.407-.716.087-.914.26-.507.123-.395.346-.371.445-.3.407-.135.445.135.4.174.012.346.012.345.173.209.248.162.345.024.359.273.148.345.161.185.185-.383.2-.619.123-.629.173-.667.236-.73.321-1.52.877-1.531.223-2.607-.148-1.211.433-.062,2,.3.667.408.457.68.926.148.519.211,1.026.148.939-.445.939-.409.4-.765.247-.717.222-1.271-.062-1.631-.407-2-1.174-1.037-1.568-.335-.532-.8-1.013-1.025-.358-1.062-.012-.075-.519-.074-1.26-.185-.334-.754-.111-1.087-.061-.717-.458-2.062.037-.816-.136-.9-.531-.334-.16-.445-.3-.656.235-.6,1.9-.333.729-.038,1.47-.544.16-.864.186-.581.679-.457.7-.729,1.013.05,1.988.173.679.3.841-.568.8-1.519.408-1.2.321-3.138,1.779-1.408.939-2.471,1.408-.777.7-2.3,1.407-.765.4-1.125,1.125-.926.988-.853.482-1.012.05-1.409-1.112-.766-1.421-.767-1.4-.925-.889-.853-.271-.876.012-.8.63-1.087,1.432-.569.458-.493.136-.532-.148-.407-.284-.457-.556-.53-1.1-.705-1.125-.421-.309-.6-.061-.642.136-.741.568-1,.915-.6.21-1.779-.309-1.1-.346-.544-.123-.691.185-.7.556-.544,1.643-.012.519.086.977.211,1.2-.124.691-.124.444-.282.458-.89.074-.667-.136-.977-.333-.913-.445-.729-.617-.618-.519-.394-.26-.99-.753-.876-.815-.618-.222-.853-.248" transform="translate(-1639.39 -1003.89)"  stroke="#fff" stroke-linecap="square" stroke-linejoin="bevel" stroke-width="1" fill-rule="evenodd"/>
      <text id="talId13count" transform="translate(34.702 49.792)" fill="#fff" font-size="10"  font-family="OpenSans-Bold, Open Sans" font-weight="700"><tspan x="-7.645" y="0"></tspan></text>
    </g>
    <g id="_16_Sonpeth" data-name="Sonpeth" transform="translate(2107.792 594.266)">
      <path id="talId16" fill="#7DB8EC" title="Sonpeth"  data-name="Sonpeth" d="M1617.464,1064.752l.147.321.149.4.087.259.222.877.112.667.136.7.1.94-.123.4-.025.678-.371.89-.557.827-.433.555-1.643,1.248-1.012.334-.891.593-.234.432-.061.594.087,1.235.555.618.581.371,1.408.766,1.173.778,1.15.852,1.211,1.013.519.322.641.246,1.174.271.642.272.656.482.853.581.987.4.988-.038-.555.581-.074.729-.012.358.049.766h.271l.332-.173.372-.185.382-.111.372.161.073,1.1.076.9.247.618.012.889.025.94.394.678-.049,1.433-.283.383-.556.135-.248.076-.495.185-.248.161-.049,1.964.087,1.446.235.4.061.555.261,1.878-.372,2.261-.58,3.941-.061,1.482-1.655-.371-2.557-.421-2.57-.53-.8-.148-1.013-.259.1-1.643.271-1.149.148-.556.284-.753-.062-.272-.358-.345-.667-.47-.112-.568-.914-.037h-.926l-.656.05-.433.123-.493.222-.4.309-.37.345-.247.4.247,2.112.2.458-.062.827.074.47.4.235.753.408.544.247.544.346.407.333,1.594,1.4.16.716-.209.667-.321.766-.347.445-.667.914-.063,1.359-.32.481.172.383.26.37.11.52.137.506-.137.519-.1.654-.8,1.211-.036,3.273.1,2.348-.766.729-.47-.58-.283-.606-.322-.507-.358-.678-.049-.47-.148-.383-.123-.8-.025-.309.1-.543.086-.4-.123-.173-.383-.012-.543-.037-.877-.1-.469-.111h-.63l-.605.025-.666.123-.272.148-.63.062-.963-.062-.89-.012-.95.049-.853.1-.161-.123-.236-.247-.394-.482-.444-.606-.334-.543-.285-.568.074-.68.2-.851.185-.68.308-.543.31-.717-.012-1.1.025-1.088-.038-.864.259-.359.147-.383-.049-.3-.124-.234-.209-.407v-.754l-.049-.864-.013-1.421v-.988l-.013-.717-.012-.481-.272-.68.1-.877v-.878l.123-.531.21-.494.148-.482.013-.593-.271-.432-.519-.321-.853-.272-.95-.223-1.224-.222-1.026-.259-.838-.173-.767.012-1.247.05-1.507-.124-1.224-.234-.839.074-.989-.049-.481-.012-.123.556-.012.631-.421,1.9-.086,1.123-.346,1.458-.074,1.7.074.668.074.481v.345l-.938.074-2-.21h-1.148l-.841-.32-.47-.742-.716-1.161-.593-1.581-.507-1.285-.148-1.359-.061-1.049-.2-.717-.643-.544-1.272-.419-1.815-.074-1.73-.3-.766-.012-.47-.26-.333-.42-.136-.617-.643-1.062-.1-.482.05-.432.3-1.162.334-.642.16-.556.173-.482-.321-.086-.8-.062-.531-.135-.506-.062-.136-.68.062-.655.05-.444.235-.618.16-.408.272-.21.593-.272.531-.234.407-.729.161-.729.1-.542.038-.779-.025-.531-.877-.209-1.063-.112-.531-.309-.667-.346-.84-.358-.667-.334-.346-.3-.21-.47-.384.049-.369-.062-.248-.309.013-.63-.049-.666-.161-.47-.148-.767-.173-.53-.123-.433-.358-.062-.382.013-.408-.136-.223-.408.1-.753-.086-.458.247-.42.062-.382-.211-.4-.408-.308-.444-.1-.408-.161-.543-.765-.37-.506-.2-.544-.024-.371.062-.617.037-.482.531-.1.4-.012.506-.012.482-.185.383-.21.211-.161.42-.271.518.259.927.148.443-.173.619-.186.63-.246.728-.68.791-.95,1.162-2,.3-.593.247-.358.506-.483.543-.517.593-.259.334-.149.445-.247.16-.445.185-.457-.074-.482-.271-1.272.049-.481.172-.285.334-.222.519-.112.593.112.544-.124.815-.284.679-.432.3-.248.568-.42.531-.556.481-.555.186-.432.346-.507.308-.321.482-.21.778.037.9.135.679.3.518.124.532.136.79.037.655-.21.778-.469.927-1.274.247-.505.247-.457.506-.259.543-.038.531.161.347.347.394.308.533.222.926.421,1.47.766.913.235.828.159.58-.135.544-.42.408-.507.678-1.358.519-.309.717-.062.568.149.63.729.828.74.617.927,1.149,1.112,1.446,1.383,1.421,1.284.259.482.247.507.222.655.371.951.309.506.494.37.408.185.579.161.841-.272.432-.407.741-.322.7-.2.531-.087h.729l.544.284,1.061.7.816.877.332,1.136.285,1.027.173.58.1.457" transform="translate(-1564.42 -1050.83)"  stroke="#fff" stroke-linecap="square" stroke-linejoin="bevel" stroke-width="1" fill-rule="evenodd"/>
      <text id="talId16count" transform="translate(12.911 28.012)" fill="#fff" font-size="10"  font-family="OpenSans-Bold, Open Sans" font-weight="700"><tspan x="-11.096" y="0"></tspan></text>
    </g>
    <g id="Group_16" data-name="16" transform="translate(2155.17 604.332)">
      <path id="talId15"  fill="#7DB8EC" title="Gangakhed"  data-name="Gangakhed" d="M1650.253,1064.178l.853.247.618.223.876.815.989.753.394.26-.184.58-.235.766v.679l-.024.667-.421,1-.4,1.433.013.827,1.569-.012.679.111.753.3.507.223.445.742.544.086.147.234-.147.4-.013.581.173.519.283.333.656.223.617.42.9.16,1.223-.05,2.631.235,2.323.383.518.222-.049,4.805.124,1.94-.334.765-.32.68-.346.815-.272.594-.074,2.693-.321,1.26-.593,1.927-.445,2-.383.049-.481-.209-.458-.16-.383.111-.136,1.149-.037.766.322.494-.012.457-.223.4-.061.556-.432,2.063-.544,2.174-.79,3.559-.47,1.371,9.3.074.024,1.113.741.3.557.989.469.877.211.766-.062.68-.333.839-.05,4.979-.234.877.42.79v1.482l.136.346.865-.074.594.1.494.4.2.531.111.95-.111.68.085.765-.307-.024-.729.1-.408.211-.383.346-.481.111-.334.037-1.321.235-.581-.012-.285.222-.383.679-.481.989-.545.79-.2.186-.211-.087-.382-.111-.32.235-.173.285-.211.259-.791.211h-.493l-.235.382-.012.631.124.79-.024.271-.149.359-.235.172-.495.112-.469.136-.493.087-.334-.174-.569-.457-.469-.332-.395-.136-.68-.05h-.642l-.865.123-.593.05-.419-.025-.545.407-.271.47-.248.2-.642.074-.457.112-.989.753-.494.382-.148.384-.125.271-.407.173-.346.05-.359-.037-.481-.186-.594-.222-.815.234-.543.087-.422.049-.469.063-.395.16-.457.209-.655.05-1.235.581-.679.173-.531.223-.26.124-.1.321.011.74-.062.409.149.333.124.272.1.37-.075,1.063-.161.765-.075.927-.493.1-.839-.036-.816.111-.407.186-.667.062-.692-.012-.742.062-.616-.062-.445.024-.273.087-.506.258-.394.061-.865-.036-.778-.234-.506-.3-.445-.124-.285.185-.21.692-.16.568-.335,1.273-.284.7-.136.532-.148.431-.222.186-.47.012-.308.086-.025.3-.036.741-.112.456-.309.136-.174.235-.011.285-.074.234-.334.074-1.828.2-.519-.161-.482-.148-.668-.284-.777-.248-.494-.26-.519-.333-.741-.308-.444-.247-.544-.272-.481-.087h-.432l-.334.087-.211.16-.2.26-.4.679-.185.223-.369.025-.248-.149-.333-.111-1.038-.358-.3-.075-.271-.073-.631-.186-.766-.37-.382-.359-.433-.382-.407-.618-.531-.507-.259-.247.247-.47.421-.431.616-.754.433-.618.407-.431.37-.407.335-.3.1-.21-.05-.223-.222-.457-.383-.383-.283-.432-.322-.359-.643-.457-.285-.42-.085-.222.024-.4.136-.371-.013-.493-.037-.322-.061-.284-.283-.408-.384-.667-.271-.432-.1-.371-.26-.643-.259-.321-.234-.222-.136-.161.062-.3.2-.272.123-.161.545-.568.1-.3-.036-.235-.149-.173-.308-.111-.506-.3-.272-.2-.271-.21-.124-.235-.074-.419v-.31l-.248.1-.457.123-.592-.061-.754.061-.494-.1-.346-.248-.407-.2-.334-.1-.173.321-.3.21-.26.161-.283.024-.161-.012-.223-.037.075-.84.1-.655.111-.63V1127l-.21-.555-.359-.7-.432-.531-.409-.432-.209-.346-.05-.346.075-.8.184-.468.1-.345v-.149l-.234.061-.557.136-.346.111-.407.2-.505.013-.4-.235-.371-.259-.729-.533.766-.727-.1-2.348.037-3.273.8-1.21.1-.656.136-.519-.136-.505-.11-.519-.26-.371-.173-.384.321-.481.063-1.359.666-.913.347-.445.321-.766.21-.666-.161-.717-1.593-1.4-.408-.334-.543-.346-.542-.246-.754-.408-.4-.234-.075-.469.062-.828-.2-.457-.247-2.113.247-.4.371-.346.4-.309.493-.222.433-.125.654-.049h.928l.913.037.112.569.666.468.358.345.061.273-.284.754-.148.555-.272,1.149-.1,1.643,1.013.259.8.148,2.569.531,2.557.42,1.656.37.063-1.482.581-3.941.369-2.26-.259-1.878-.062-.557-.234-.394-.087-1.445.05-1.964.247-.161.493-.185.247-.074.558-.136.283-.383.049-1.433-.4-.68-.025-.939-.012-.89-.246-.617-.075-.9-.074-1.1-.371-.161-.383.111-.369.186-.334.173h-.271l-.05-.767.013-.358.073-.729.557-.58-.989.036-.987-.4-.854-.581-.654-.481-.643-.272-1.174-.273-.642-.247-.519-.32-1.211-1.014-1.148-.852-1.175-.778-1.408-.765-.58-.371-.556-.618-.086-1.234.062-.594.235-.432.889-.593,1.014-.334,1.643-1.247.431-.557.557-.827.37-.89.025-.679.123-.395-.1-.94-.137-.7-.11-.667-.222-.877-.087-.26-.149-.395-.148-.321,2.817-.135,1.581.123,2.361-.111,3.58-.457,2.421-1.062,1.545-.655,1.05-.21,1.162.049,2.828-.333,1.409.68,1.235.469,1.062-.1.631-.642.68-.656.79-.284.976-.259.964.086,1.223.482,1.655.049.321,1.693-.259.7-.322.729-.037.7.359.692.493.087.31,2.372.1,1.3-.062,1.222-.037,1.359.148.865.26.656.864.37.939.173,1.532.445.814-.037,1.15-.136h2.581l-.11-.828-.185-.556-.223-.753-.049-.741-.037-1.2-.038-.617-.013-.988.013-.927.185-.9.309-.506.519-.519.741-.21,1.162-.012.444-.074" transform="translate(-1602.88 -1059.2)"  stroke="#fff" stroke-linecap="square" stroke-linejoin="bevel" stroke-width="1" fill-rule="evenodd"/>
      <text id="talId15count" transform="translate(12.533 58)" fill="#fff" font-size="10"  font-family="OpenSans-Bold, Open Sans" font-weight="700"><tspan x="-15.1" y="0"></tspan></text>
    </g>
    <g id="_14_Palam" data-name="Palam" transform="translate(2204.735 589.098)">
      <path id="talId14"  fill="#7DB8EC"  title="Palam"  data-name="Palam" d="M1644.49,1069.462l.618.519.728.617.915.446.975.333.668.136.889-.074.285-.458.123-.445.124-.691-.21-1.2-.086-.976.012-.519.543-1.643.705-.557.691-.184.543.123,1.1.346,1.78.309.606-.209,1-.914.741-.568.643-.136.605.062.42.309.7,1.124.53,1.1.458.556.408.284.53.149.495-.136.569-.457,1.087-1.432.8-.63.876-.012.853.271.927.89.765,1.4.766,1.42,1.409,1.113,1.012-.049.854-.482.926-.988,1.124-1.125.766-.4,2.3-1.408.779-.7,2.47-1.408,1.408-.939,3.137-1.778,1.2-.321,1.519-.408.568-.8-.3-.84-.173-.679-.049-1.988.729-1.013.457-.7.581-.679.865-.186.543-.16.038-1.47.332-.729.606-1.9.654-.235.445.3.333.16.9.531.815.136,2.063-.038.717.458,1.087.062.753.112.186.333.074,1.259.074.52,1.061.013,1.025.357.8,1.014.334.531,1.037,1.568,2,1.173,1.63.408,1.272.062.717-.223.765-.247.407-.4.445-.938-.148-.939-.21-1.025-.148-.52-.679-.925-.408-.457-.3-.668.061-2,1.211-.433,2.608.148,1.532-.223,1.518-.877.729-.321.667-.234.63-.173.618-.124.383-.2.111.383.185.84.074.358.494.494.445.853.038.321.012.2-.075.209-.26.395-.432.8-.124.21-.1.334-.086.445-.087.481-1.333-.087-1.024-.037-1.717-.049-.4.89-.445,1.791-.777,1.247-.9,1.915-.988,1.384-.729.593-.828,1.111-.766,1.569-.334,1.779.148,1.186.346,1.816.656,1.754.086,1.755-.457,2.544-.445.421h-1.285l-1.914-.2-1.916-.234-.1,1.186-.234,1.1-.124,1.815.309,2.163v.839l.173.668.654.383,1.062.308,1.63.766.074,2.1-.358,1.062-1.556,1.779-2.125,2.458-.7.951-.112,1.273-.4,1.73-1.753,2.927-.383,1.272-.457.976-.642,1.062-.8.544-2.3.506-1,.371-1.235.259-1.446-.05-1.272-.58-.927-.741-.531,1.038-.308.766-.407,1.285-.47,1.433-.247.816-.469.554-.407.1-.655-.025-.482-.209-.358-.642-.321-.791.025-.629.086-.779-.185-.629-.531-.469-.829-.358-1.038-.3-.469-.433-.654-.37-.9.1-.582.506-.728.667-.469.63-.234,1.062-.123,1.841-.173,1.889-.013.47-.468.259-.705.284-1.062.445-1.05.383-.815.371.123.6.346.605.593.778,1.16.124,2.174.21,1.569.049.075,1.05-.346.889-.111.865-.136,1.1.333,1.136.667.087,1.841-.47,2.766-.8.988-.346,3.039-.4,1.791.445.508-.062.531-.359.518-.333.705.148.752.383.581.05,1.58.124.334,1.3.21,1.334.346,2.2.111,1.729.2,1.038.061,1.346-.061.989-.321.246-1.385-.1-1.347.432-.666.693-1.125.864-.877.717-.716.47-.506.506-.557.358-1.42-.308-1.286-.273-.4-.147-.457.037-.358.11-.643.211-.654.136-.544.049-.877-.087-.816-.172-.889-.346-.79-.383-.78-.3-1.308.012-.779.111-.964.161-.678.012-.9-.273-.519-.408-1.211-.024-1.766-.049-.926-.172-.531-.235L1670.2,1128l-1-.321-.507-.062-1.123.148-1.371.062-.779.135-1.013.3-.655-.037-.086-.765.111-.68-.111-.951-.2-.531-.492-.4-.593-.1-.866.074-.135-.346v-1.482l-.42-.791.236-.877.049-4.979.332-.838.063-.68-.21-.766-.47-.876-.556-.989-.741-.3-.023-1.112-9.3-.074.47-1.371.79-3.558.544-2.174.433-2.062.063-.556.22-.4.013-.457-.322-.493.038-.766.136-1.148.382-.112.457.161.482.21.383-.049.444-2,.594-1.926.321-1.26.075-2.693.271-.594.346-.814.321-.68.334-.766-.124-1.939.049-4.805-.519-.222-2.322-.383-2.632-.235-1.222.05-.9-.161-.618-.421-.655-.222-.284-.334-.173-.519.012-.581.148-.395-.148-.234-.543-.087-.445-.741-.506-.223-.753-.3-.68-.111-1.569.012-.012-.827.4-1.433.42-1,.024-.666v-.68l.236-.766.185-.58" transform="translate(-1643.229 -1046.51)"  stroke="#fff" stroke-linecap="square" stroke-linejoin="bevel" stroke-width="1" fill-rule="evenodd"/>
      <text id="talId14count" transform="translate(20.968 42.18)" fill="#fff" font-size="10"  font-family="OpenSans-Bold, Open Sans" font-weight="700"><tspan x="-7.941" y="0"></tspan></text>
    </g>
  </g>
</svg>
