<svg xmlns="http://www.w3.org/2000/svg" width="349.885" height="301.087" viewBox="0 0 349.885 301.087">
  <g id="PuneDistrict" data-name="Pune District" transform="translate(-1398.285 -1162.962)">
    <g id="JunnarTaluka" data-name="Junnar Taluka" transform="translate(1458.683 1163.692)">
      <path id="talId3" fill="#7DB8EC" title="Junnar Taluka" data-name="Junnar Taluka"  d="M968.368,1025.181l.335-.466.176-.332.127-.349.1-.268.266-.386.474-.3.952-.591.24-.305.694-1.4,1.119-1.362.322-.439.294-.376.372-.269h.446l.894.089.734-.036.657.036.895-.323.409-.054.285-.116.225-.126.118-.179.16-.216.228-.17.069-.242.138-.34.589-.574.412-.323.11-.4-.045-.376-.061-.287-.274-.313-.1-.35-.168-.7-.163-.645-.487-.663-.257-.287-.328-.178-.276-.045-.323-.054-.127-.2-.139-.582-.184-.206-.323-.358-.354-.609-.234-.6-.233-.269-.306-.278-.285-.179-.233-.206-.114-.233.008-.34.249-.654.551-.815.115-.161.425-.126h.527l.441-.063.291-.152.081-.762.106-.314.363-.376.829-.233.764-.135.408-.295.678-.494.546-.5.4-.618.31-.286.364-.242.869-.215,1.347-.215.841-.206.813-.323.862-.3,1.192-.529.74-.206.506.054.36-.054.217.1-.058.332-.216.538-.224.448-.253.439-.209.323.025.161.17.1.254.017.336-.035.624-.17.677-.529.422-.286.354-.108.466-.072.789-.054.812-.259.355-.135.27-.054.139-.143.042-.171.008-.412-.066-.4-.017-.355.082-.212.224-.04.388.38.584.541.29.242.189.161.17.1.116-.035.117-.135.206-.251.152-.188.322-.117h.574l.071.179.009.287.054.3.161.2.224.152.2.028.179-.126.063-.34.126-.556.116-.648-.018-.252-.152-.319-.206-.208-.188-.307-.179-.314-.152-.294-.081-.592.207-.763.035-.351.09-.437-.135-.339-.26-.208-.278-.173-.179-.268-.332-.831-.51-1.288-.269-.617-.268-.663-.437-1.319.464-.04.305-.1.878-.515.206-.168.26-.089.259-.013.43-.016.707-.184.224-.152.322-.216.583-.241.259.069.305.151.17.135.3.176.233.118.134.274.359.535.206.159.215.057.278-.024.287-.089.484-.017.286.2.134.351.43.563.3.237.9.388.565.151.376.216.358.2.2.286.278.453.215.686.179.551.215.347,1.067.972.412.445.278.184.421.172.224-.1.206-.032.287.016.215.032.242.037.189.11.51.025.269-.062.277-.122.278-.131.4-.213.34-.151.225-.187.233-.266.144-.281.242-.625.493-.919.43-.449.3-.332.3-.077.52.1.5.11.35.123.206.134.511.474.833.792.4.442.3.155.555.048.493-.028.493-.017.341.34.341.523.277.486.108.453.009.527.35.613.439.454.269.365.152.278.207.326.3.235.081,0,.125,0,.09.018.1.019.135-.013.1-.057.116-.082.072-.065.09-.074.116.007.108.022.09.059.062.081.063.094.044.094.081.11.108.053.081,0,.18-.062.187-.157.027-.138-.018-.056-.054-.079-.035-.061-.054-.078-.018-.07.009-.071.026-.073.036-.053.053-.019.125.019.117.043.143.063.089.043.081,0,.179-.011.054-.041.054-.114.036-.107.081-.118.036-.039.1.035.009.1.009.19.009.146-.019.223-.045.141.009.083.063.071.08.017.09-.022.152-.109.054-.2.054-.166.054-.124.1-.085.107,0,.2.073.1.2.035.167.1.172.135-.037.116-.086.162-.134.116-.07.189-.02.152.036.144.045.143.021.072-.058.036-.188-.063-.2-.09-.225-.045-.257.332-.437.242-.085.278-.049.259-.034.2-.032.188-.126.4-.168.26-.278.1-.208.152-.171.3.024.152.213.071.286.1.393.224.077.287,0,.269-.115.233-.074.43.05,1.282-.148.277-.1.3-.123.143-.1.116-.086.188-.037.332-.073.269-.078.215-.126.152-.388.045-.213.045-.2.3-.283.224-.036.188.118.224.256.072.373.01,1.478.009.972.143.514.252.094.241.11.242.11.313.1.224.23.269.323.17.251.018.439-.027.914.081.394.116.018.188.036.2.045.108.143.134.126.162.179.188.2.152.144-.018.152-.107.268-.081.206-.054.314.027.206.072.108.161.054.117.018.233.027.277.026.162.251.188.018.17-.018.17.179-.062.376-.153.153-.178.036-.242.018-.224-.009-.036.17.179-.009.313.1.144.672.143.367.135.314.036.367-.054.269-.117.161-.152.009h-.162l-.1-.125-.162.143-.161.179-.116.126-.26.1-.17-.054-.242-.108-.287-.161-.25-.188-.224-.036-.207.34.036.574.107.26.188.179.179.027.305-.053.153.08.045.439-.045.367-.009.278.125.242.089.143.135.152.161.1.144-.188.089-.189.152-.251.179-.2.179-.206.188.026.126.224.107.18.368.17.161.2.243.242.215.4.107.314-.053.25-.072.35-.215.17-.216.036-.161.018-.179.072-.089.188.054.25.126.278-.081.251-.2.125-.125.009-.116.206-.332.43.278.027.224.054.188.153.215.179.277.341.529.762.107.34.08.323v.457l-.134.475.125.063.206-.063.206-.268.394-.484.224-.206.171-.17.2-.242.171-.206.205-.251.2-.215.144-.125.17.035.116.215.028.269.009.313.206.439.189.43.215.422.125.341-.081.349v.332l.161.358.117.161.385.144.6-.018.162-.063.161-.116.224-.126.135-.116h.17l.206.17.242.134.188.2.188.242.582.484.3.287.269.313.214.143h.17l.323-.107.287-.018.457.089.269.1.287.134.359.26.206.224.26.216.287.251.412.26.152.089.251.027.027-.126-.153-.2-.206-.224-.3-.2-.377-.071-.143-.126-.063-.224-.035-.125-.063-.26-.179-.368.018-.215.152-.107.206.045.269.089.189.117.2.242.242.215.2.09.224.063.287.108.3.224.144.161.206.045.287-.125.161-.1.153.135-.036.206.045.144.179.116.322.09.207-.054.206-.017.305.1.224.188.493.3.3.081.215-.081.09-.242.152-.161.268-.036.126.242.144.269.206.125.313.144.4.224.439.331.475.116.233.009.394-.054.4-.081.287-.071.3-.09.251-.08.313-.269.413.036.286.026.278.036.34.027.314-.027.43-.153.529-.08.018.242.036.251.063.241.125.207.179.072.143.116-.143.269-.116.233-.08.277.045.421.116.4.153.385.053.636.027.529.1.162.43.17.269-.152.412-.188.3-.161.3-.224.1-.242-.062-.2-.09-.26-.054-.313.072-.511.152-.215.125-.322.108-.332.108-.259.063-.368.081-.376.259.063.448.242.448.152.233.135.358.153.225.17.2.188.332.314.546.511.484.376.251.233.233.206.278.072.537-.036.52.072.4.018.375.063.386.134.26.125.251.1.287.081.332.143.475.1.152.1.116.054.224.09.278.063.143.018.233.018.224.008.126.063.081.09.1-.027.063-.1.081-.063.108.027.072.036h.135l.026-.09.045-.116.072-.072.143.036.108.1.125-.054.188.045.09.036.126.036.116-.018.162-.143.152-.081.179-.062.215-.161.2-.161.054-.153-.108-.126-.044-.152.116-.161.125-.072.108-.044.116-.018.144.018.125-.037.125-.035.144-.036.144-.063.116-.116.152-.054.134-.027.206-.063.162-.1.126-.08.089-.045.081-.054.054-.125.054-.161.09-.117.1-.107.134-.054.143-.018.09-.063-.045-.134-.027-.045.027-.134.143-.063.206-.045.161-.035.2-.018.134-.108.144-.143.188-.054.3.027.5.072.126-.09.188-.117.143-.143.153-.188.2-.4.233-.116.287.107.242.116.412.251.4.349.449.18.34.09.385.134.376.089.484.063.672.081.735.045.412.036.359.018.394.116.358.135.385.179.394.3.708.359.341.152.313.081.4.08.359.045.3.063.26.081.3.152.17.26.027.188-.242.207-.179.1-.17.09-.188.027-.215.044-.188.179-.054.286-.018.269v.25l-.269.2-.233.171-.313.3-.376.493-.036.25-.018.251-.09.1-.116-.053-.224.081-.036.242-.349.179-.278-.018-.206-.072-.259-.027-.153.126-.009.385-.009.242-1.183-.125h-1.128l-1.04.063-.815.17-.941.761-.287.26-.108.188v.287l.17.538.026.26-.456.824-.054.242.108.286.179.224.269.609-.26.376-.278.206-.278.152-.385.179-.42.162-.117.394-.126.215-.116.3-.081.206-.465.287-.493.662-.206.43-.17.072-.233-.009-.232-.009-.367.081-.117.135-.018.206-.1.359-.117.332-.475.349-.833,1.577-.179.824-.117.332-.117.2-.242.2-.4.09-.34-.072-.242-.2-.224-.394-.108-.206-.1-.314-.206-.116-.412-.018-.52.026-.233-.017-.224-.08-.134-.108-.269.027-.3.09-.3.072-.161.1-.018.242-.053.224-.153.322-.268.431-.161.412-.332.941-.242.376-.135.3-.475.332-.045.143-.027.269-.072.332-.1.4-.251.511-.081.287.036.224.116.25.108.233.161.286.179.313v.4l-.044.162.018.116.2.152.143.152-.072.125-.1.108-.287.153-.529.4-.287.162-.143.206-.3.3-.036.09-.036.2.009.188-.009.116-.2.045h-.134l-.08.386-.045.251.089.654-.018.1-.009.161-.009.179-.009.117.018.135.081.116.054.2-.1.368.018.09.053.152.054.17-.009.206-.072.376-.045.1-.108.054h-.08l-.117-.009-.089-.036-.1-.018-.081.072-.1.215-.134.17.017.358-.036.126-.072.063-.17.053-.143.063-.2.081-.108.089-.125.233-.063.054-.062.089-.009.134-.018.036-.1.063-.089.045-.09.063-.081.179.009.2v.018l-.036.135-.09.089-.1.063-.108.036-.134-.009-.116-.018-.054.125-.018.081.036.116-.036.134-.144.224-.233.134-.35.3.028.332.027.268.1.4.26.206.1.27-.1.188-.215.332.322.224.359.385.323.412.26.053h.233l.242.036.251.036.242.063.233.09.224.125.251.358-.036.314-.036.286.018.3.054.2.108.125-.394.583-.5.681-.35.475-.483.358-.744-.144-.645-.044-.771.26-.456-.332-.341-.52-.735-.69-.43-.555-.8-.664-.87-.636-.852-.869-.9-.117-.17-.062-.887-.313-.752-.851-4.7-3.8-.537-.413-.377-.77-.242-.761-.95-.735-1.012-.215-.914-.233-1.227-.359-1.156-.143-.753.242-.583.26-1.021.3-1.022.591-.968.081-5.143.1-.475.3-.617.519-1.049.789-.9.779-.528-.1-.385-.3-.457-.439-.932.161-.546-.537-.063-.555.018-.834-.062-.68-.161-.556-.018-.9-.215-.9-.636-.4-1.308-.171-.655,1.344-.161-.493-.8-.949-1.757-1.479-1.12-.09-.949.152-.654-.618-.359-.645-.573-.833-.573-.52-1.057-.2-.807.135-.456-.538h-.422l-1.765.125-2.338-.224-2.742.4-1.192-.143-.833-.161-.753-.233-1.236-.377-1.012-.4-.672-.511-.735-.117-.789.35-1.156-.511-2.32-1.712-1.093-.3-1.227-.3-1.29-.224-1.192-.573-1.882-1.031-.824-1.308-.26-.493-.52-.349-1.254-.036-.389-.153-.433-.3-.433-.5.114-.412.237-.394-.009-.439-.342-.143-.891.036-.515-.152-.555-.116-.376.188-.629.143-.1-.332-.172-.448-.359.2-.367.529-.4-.117-.31-.286-.4-.753-.139-.466-.262-.376-.449-.34-.735-.17-.679-.062-.409.394-.27.278-.75.412-.474.018-.53.036-.229-.332-.383.044-.375.422-.54.519-.482.583-.262.923-.294.806-.424-.1-.392-.573-.081-.6-.54-.511-.212-.313-.286-.385-.147-.493.082-.233.139-.188.171-.242-.277-.574.016-.4.409-.332.391-.233.4-.529-.278-.708-.057-.323-.123-.341-.375-.421-.4-.34-.816-.332-.507-.053-.49.206-.531.314-.621.368-.654-.233-.416-.484-.507-.305-.343.081h-.53l-.58-.134-.507-.081-.677.054-.393.09-.6.161-.277-.063-.172-.17-.171-.322-.163-.188-.368-.188-.531-.269-.246-.475-1-.592-.388-.278-.825-.376-.773-.4" transform="translate(-968.368 -987.095)" stroke="#fff" stroke-linecap="square" stroke-linejoin="bevel" stroke-width="1" fill-rule="evenodd"/>
      <text id="Junnar" transform="translate(41.317 43.309)" fill="#fff" font-size="10"  font-family="OpenSans-Bold, Open Sans" font-weight="700"><tspan x="0" y="0"></tspan></text>
    </g>
    <g id="AmbegaonTaluka" data-name="Ambegaon Taluka" transform="translate(1435.834 1200.012)">
      <path id="talId6" fill="#7DB8EC"  title="Ambegaon Taluka" data-name="Ambegaon Taluka"  d="M965.707,1029.384l.772.4.824.376.388.278,1,.591.246.475.53.269.368.188.163.188.171.323.172.171.278.062.6-.161.393-.09.677-.054.508.081.579.134h.531l.343-.081.506.3.417.483.654.234.621-.368.531-.313.49-.206.506.053.816.331.4.341.376.421.122.341.057.322.278.708-.4.528-.392.233-.408.331-.016.4.277.574-.171.241-.139.188-.082.233.147.493.286.385.212.314.539.51.082.6.392.573.425.1.294-.806.262-.923.482-.582.539-.52.376-.421.383-.046.229.332.531-.035.474-.018.751-.412.27-.278.409-.394.679.063.734.171.449.341.262.376.139.465.4.753.31.287.4.116.367-.529.36-.2.171.448.1.332.629-.143.376-.188.555.116.514.153.891-.035.342.143.009.439-.237.394-.114.412.432.5.433.3.389.153,1.254.035.52.349.259.493.825,1.309,1.881,1.03,1.192.574,1.29.224,1.227.3,1.093.3,2.32,1.712,1.156.511.789-.349.734.115.672.511,1.013.4,1.237.376.752.233.833.161,1.192.143,2.742-.4,2.338.225,1.766-.126h.421l.457.538.806-.135,1.058.2.573.52.573.834.359.645.654.618.949-.152,1.12.09,1.756,1.478.8.949.161.494.654-1.345,1.308.17.636.4.215.9.018.906.161.555.063.681-.018.833.063.555.546.538.932-.161.457.438.385.3.529.1.9-.78,1.048-.787.618-.522.475-.295,5.144-.1.967-.08,1.022-.591,1.021-.3.583-.26.753-.242,1.155.144,1.228.358.914.234,1.012.215.95.734.242.761.377.771.537.412,4.7,3.8.753.851.887.313-.323.637-.421.116-1.882.422-1.317.062-1.093.116-.367.413.367.483-.654.61.1.654-.018,1.416v.61l-.072.814-.224.538-.242.591.144.637.313.376.242.537.672.522.663-.243,1.164.215.771-.215.7-.341.636-.511.063-.672.035-.636.161-.339h.61l.52.313.2.762.8.626.3,1.309.144,2.133.268.628.224.385.431.269.5-.072.421-.3.573-.26.493.412.036.718-.251.8-.421.887-.457.752-.986.941-1.058,1.022-1.944,1.595.26,1.621-.9.359h-.394l-.734-.1-.9-.2-.815-.1-.708.2-.538.6-.26.726-.26,1.613.618,1.505-1.146,1.908-.179.789.169.259.484.225.654.17.573.421.788.573.368.4v.726l.377.34.833.26.018.457-.215.734-.5.511-.591.466-.9.573-.4.412-.833.717-.923.134-1.012.08-.636-.376-2.527-1.98-.475-.242-.438-.215-.448-.341-.457-.511-.2-.161h-.815l-.4-.215-.627-.5-.565-.473-.591-.754-.475-.6-2.348-1.013.044-.771-.223-.449-.394-.214-.385-.206-.367-.207-.654-.242-.646-.152-.134-.313v-1.3l.045-.8.143-.367.134-.386-.224-.322-.368-.35-.6-.466-.483-.7-1.783-.86-.672-.162-.564-.152-.394-.269-.869-.206-.825-.009-.717-.071-.824.053-1.192.44-.547.17-.17.162.108.555.2.278.269.412.17.546.081,1.04-.09,1.227-.278.654-.394,1.093-.439.878-1.03.4-3.065-.77-.752-.054-.879-.036-.51-.134-.26-.224-.161-.474-.179-1.255-.511-.413-.17-.529-.117-.3-.323-.179-.645-.206-1.335-.1-.618-.341-1-.349-.735-.018-.654-.036-.815.036-.8.107-.386-.1-.053-.411-.089-.529-.439-1.972-.027-.466.054-.716.188-.574.009-.394-.125-.4-.233-.377-.3-.233-.2.242-.331.529-.278.1.072-.395-.1-.413-.511.009-.52.52-.395.207-.179-1.308-.179-.431-.251-.457-.376-.43-.592-.2-.528.143-1.487-.862-.484-.429-.555-.565-.753-.707-.278-.287-.538-.188-.52-.287-.054-.286v-.413l-.027-.6-.233-.636-1.067-.466-.887-.277-.824-1.014-.224-.358-.233-.358-.6-.341-.511-.412-.627.018-.448.242-.466.377-.448.35-.332.241-.3-.233.062-.386.323-.331.2-.367-.071-.376-.359-.278-.672.035-.681.234-.547.287-.331.447-.17.179-.332-.269-.017-.77.072-.636.161-.448.072-.458-.224-.314-.565-.2-.457-.3-.51-.161-.332.144-.286.081-.126-.179-.076-.359-.131-.34-.464.062-.451.2-.563.053-.319-1.236-.073-.807-.212-.566-.335-.438-.334-.3-.588-.386-.989-.376-.98-.51-.8-.512-.474-.224-.629-.026-.776.063-1.119.125-.841-.206-1.438-1.227-.776-.179-.637-.233-.759-.036-.556-.01-.809-.179-.808-.323-1.324-.743-.188-.655-.122-.672-1.2-1.308-.548-.305-.522-.251-.6-.187-.6-.278-.45-.063-.53.09-.475.251-.367.241-.278-.009-.294-.3-.6.206-.351.439-.171.377-.163.77-.23.278-.392.125-.792.045-.76.367-.383-.277-.327-.233-.523-.35-.4-.287-.368-.224L965,1056.7l.082-.5.058-.394-.31-.27-1,.072-.613-.072-.588-.071-1.365-.1-1.756.036-.433-.188-.564-.341-.62-.1-.809.17-1.07.557-.735,1.209-.172.529.139.214.107.189.09.251.066.349-.09.394-.221.286-.4.1-.638.045-.8-.018-.932-.134-1.642-.4-.359-.08-.351-.161-.245-.3-.212-.135-.376-.017-.287-.2-.2-.341-.139-.4-.27-.358-.327-.377-.391-.2-.5.026-.6.054-.417-.528-.734-1.228.11-.09.176-.108.065-.152-.062-.171-.412-.126-.38.18-.359.045-.18.054-.339.089-.163.027-.208.018-.241-.018-.135-.152-.045-.2-.069-.224-.045-.241-.086-.448-.078-.241-.065-.225-.04-.224-.041-.25.066-.171.2-.08.4-.233.273-.178.119-.054.159-.089-.037-.18-.09-.179-.065-.268,0-.224.057-.3.122-.385.225-.582.105-.5.074-.591.057-.1.192-.116.135-.152.081-.2,0-.251-.125-.313-.054-.152.106-.269.172-.349.486-1.057.306.215.189.009.38.089.244.027.359.089.621.422.179.242.266.358.315.368.184.34-.029-.286-.008-.368,0-.233,0-.278.008-.269.032-.332.062-.358.122-.823.058-.431.164-.6.2-.349-.008-.242-.224-.3-.278-.241-.246-.2-.339-.08-.228-.234-.238-.25-.314.063-.127.26-.147.063-.114-.117-.065-.242-.36-.995-.106-.386-.013-.313.065-.25.626-.359.175-.117.24-.108.267-.035.31.062.236-.045.062-.251-.314-.591-.11-.188-.143-.277-.131-.323-.147-.492-.163-.629-.078-.4,0-.269.086-.116.2.116.151.116.192.036.2.026.246-.009.269.044.221-.044.143-.214.123-.342-.127-.4-.167-.232.09-.323.139-.215.437-.018.486.261.4.278.489.161.392-.322.18-.116.184-.135.279-.152.265.09.29.09.172.08.176.072.105-.063.029-.215-.058-.3.009-.305.216-.124.368-.046.551-.224.412-.108.3-.117.344-.116.249.027.237.125.229.081.5.3.192.018.281-.063.229-.143.233-.18.257-.072.291.054.4.09.434-.323.167-.17.155-.125.232-.045.225.108.233.279.143-.172.138-.07.25-.082.24.054.307.3.1-.644.477.232.033-.179.142-.42.136-.941.134-.564.057-.582.192-.843.412-.134.393-.053.445-.01.249-.062.278-.126.208-.4.2-.036.148.349.313.529.062.341.008.359.094.242.131.161.237.081.232.071h.18l.241-.278" transform="translate(-942.772 -1027.53)" stroke="#fff" stroke-linecap="square" stroke-linejoin="bevel" stroke-width="1" fill-rule="evenodd"/>
      <text id="Ambegaon" transform="translate(39.166 33.987)" fill="#fff" font-size="10"  font-family="OpenSans-Bold, Open Sans" font-weight="700"><tspan x="0" y="0"></tspan></text>
    </g>
    <g id="KhedTaluka" data-name="Khed Taluka" transform="translate(1436.478 1225.812)">
      <path id="talId84" fill="#7DB8EC" title="Khed Taluka" data-name="Khed Taluka"  d="M991.494,1126.553l.074-1.1-.008-.439.074-.457.122-.483.482-1.1-.041-.547-.156-.367-.693-.511.268-.411-.066-.368-.105-.359-.613-.323-1.078-.474-.359-.09-.661-.054-.442.1-1,.645-.343.385-.31.331-.278.3-.286-.018-.269-.269-.286-.521-.4-.491-.637-.736-.114-.349.408-.771.245-.493.228-.6.818-1.515.171-.9.277-.413.082-.394-.147-.466-.792-.717-2.173-.277-.563-.161-.573-.27-.415-.322-.212-.432-.27-.572-.335-.61-.229-.537-.441-.52-.956-.1-.85-.018-1.544-.089-.409-.17-.392-.224-.448-.089-.629-.018-.6.08-.44.143-.3.054-.384-.206-.433-.484-1.3-2.006-.285-.484-.385-.448-.326-.3-.433-.2-.654-.27-.767-.259-.6-.386-.425-.474-.327-.538.008-.3.065-.539v-.538l-.155-.412-.318-.484-.434-.591-.22-.511-.654-.152-2.05-.681-.53-.305-.409-.179-.825-.358-.179-.5-.2-.806-1.528-.779-.947-.709-1.054-1.522-.939-2.1-.466-.841-.327-.5-.489-.591-.507-.448-.743-.08-.3-.036-.327-.35-.221-.421-.375-.4-.319-.421-.6-.645-.425-.476-.555-.268-.572-.062-.646-.305-.359-.547-1.249-1.443-.58-.456-.3-.251-.1-.233.147-.385-.31-.412-.3-.52-1.1-1.568-.1-.215-.13-.243-.221-.233-.282-.287-.221-.377-.322-.438.118-.233.159-.305.278-.3.22-.09.291-.008.456-.153.221-.17.147-.152.172-.2.065-.251v-.878l.037-.1.081-.09.123-.036.26.054.217.053.2-.008.31-.027.107-.108.286-.457.163-.215.139-.268.225-.153.677-.69.24-.152.171-.125.192-.189.131-.17.131-.2.1-.224.021-.134-.127-.081-.249.01-.184.044-.192.081-.221.08H949.6l-.257-.152-.217-.206-.228-.144-.294-.332-.265-.152-.078-.143,0-.143.114-.152.2-.26.16-.394.077-.278-.089-.215-.212-.376-.76-.565-.306-.26-.184-.107-.151-.214-.065-.206v-.278l.105-.3.217-.421.359-.968.159-.286.269-.341.134-.189.061-.233-.179-.072-.372.036-.771.054-.724.232-.38-.053-.36-.1-.375-.026-.359-.045-.27-.009-.246.116-.162.161-.266.135-.262.036-.13-.062,0-.153.118-.2.105-.233.156-.394.074-.242.024-.072-.013-.4-.016-.251.021-.2.142-.081.225.179.184.116.327.125.249.072.257-.009.09-.134-.186-.3-.2-.313-.163-.9-.192-.745-.082-.949-.028-.556.118-.519.351-.78.253-.3.135-.107.735,1.227.417.529.6-.054.5-.027.392.2.327.377.27.359.138.4.2.341.286.2.376.018.212.134.245.3.352.162.359.08,1.642.394.931.134.8.019.638-.045.4-.1.221-.286.09-.393-.066-.349-.09-.252-.107-.187-.139-.215.173-.529.735-1.209,1.07-.556.809-.171.62.1.563.341.432.188,1.757-.035,1.365.1.588.072.613.073,1-.073.31.269-.057.394-.081.5.179.529.368.224.4.286.523.351.327.232.384.277.759-.367.793-.044.391-.126.23-.277.163-.771.171-.376.351-.439.6-.206.294.305.278.009.367-.242.474-.251.531-.089.45.061.6.278.6.188.523.252.548.3,1.2,1.309.122.672.188.653,1.323.744.808.323.809.18.555.009.759.036.638.233.775.179,1.438,1.228.84.205,1.119-.125.775-.063.63.027.474.224.8.511.98.511.988.376.588.386.335.3.335.439.212.566.074.806.318,1.236.564-.054.449-.2.465-.063.131.34.076.36.125.179.287-.081.332-.143.51.161.457.3.565.2.224.314-.072.457-.161.448-.072.636.018.771.331.269.171-.18.331-.447.547-.286.68-.234.672-.036.358.278.071.376-.2.368-.322.331-.063.386.3.232.331-.241.448-.349.466-.377.448-.242.627-.017.511.412.6.341.233.358.224.359.824,1.013.887.277,1.067.466.232.637.027.6v.412l.054.287.52.286.537.188.278.287.753.708.555.565.484.429,1.487.861.529-.143.591.2.377.429.25.457.179.431.179,1.308.394-.206.519-.52.511-.008.1.412-.072.394.278-.1.332-.529.2-.242.3.233.232.376.126.4-.009.395-.188.574-.054.717.027.466.439,1.971.089.529.054.411.385.1.8-.107.815-.036.654.036.735.018,1,.35.618.34,1.335.1.645.206.323.178.116.305.17.529.511.412.179,1.254.161.475.26.225.511.134.878.036.752.053,3.065.771,1.03-.4.439-.879.394-1.093.278-.655.09-1.227-.081-1.038-.17-.547-.269-.413-.2-.278-.108-.554.171-.161.546-.171,1.192-.439.824-.054.717.073.824.008.869.206.394.27.565.152.672.161,1.783.86.484.7.6.466.368.349.223.322-.134.385-.144.367-.045.8v1.3l.134.314.645.153.655.243.367.206.385.206.395.215.223.448-.044.771-.081.985-.162,1.424-.671.646-.834,1.738-.816,1.012-.188.134-.385.162-.689-.071-.314.223-.287.672-.125,1,.179.126.493.089.636.107.655.126.547.34.2.556.135,1.488-.26,1.47-.081,2.133-1.854-.081-.457.215-.331.3-.655.9-.3.108-.457.028h-.484l-.573-.054-.681-.27-.52.081-.457.359-.3.5.2.385.35.26.323.448-.26,1.192.367.61.4.3.466.547.359.878.376.9-.054.814.251.485.376.179.681.242.6.287.735.591-.027.708.393.528.377.476.34.349.753.484.636.251-.09.3-.215.358-.223.987.188,1.1-.2,1.846-.582,2.374-.726,2.993-1.066,1.38-.538.323-.744-.072-.582-.107-.744-.287-.573-.143-.627.242-.645.538.036.439.385.69.475.636-.018.556-.655.528-.385.565-.52-.547-.135-.295-.206-.413-.17-.143-.457-.189-.528.154-.475.4-.027.555.125.394.188.251.439.4.251.628.144.484-.243.331-.3.233-.413.126-.528.143-.287.3-.349.663-.054.475.161.3.349.214.493.323.179.458.018,1.209-.036.77-.089.52-.331.6-.377.627-.762.663-.95.69-.717.42-.457.072-.332-.223-.188-.358.09-.4.314-.457.26-.412.475-.556.018-.663-.09-.144-.242-.3-.618-.3-.529-.178-.654-.215-.4-.242-.771-.34-.68-.116-.511-.314-.717-1.012-.1-.815.009-.6.018-.475-.045-.368-.2-.233-.609-.027-.332.476-.5.554-.421.35-.762.4-.358.134-.512.035-.411-.17-.511-.367-.431-.359-.34-.179h-.672l-.681-.744-.6-.752-.394-.547-.3-.654-.259-.682-.44-.457-.574-.2-1.138-.171-.323-.044-.331-.341-.233-.411-.476-.485-.752-.413-.654-.242-.376.054-.429.286-.458.421-.287.359-.457.393-.681-.125-.349-.654-.394-.628-1.738-.035-.529.044-.529-.089-.753-.2-.789-.053-.869.125-.52.223-.466.225-.6.063-.215-.376-.215-1.416-.027-.447-.081-.584-.108-.546-.179-.189-.556-.144-.457.2-.492.215-.3.08-.529-.134-.421-.385-1.191-1.693-.394-.538-.394-.422-.135-.536-.3-.96-.358-.707-.649-.636-.491-.34-.514-.475-.948-.511-.531.09.016.583-.18.6.008,1.147-.253.959-.1.331-.326.378-.409.188-.383-.116-.368-.351-.326-.294-.473-.045-.483.681-.293.53-.294.483-.351.592-.049.6-.18.663-.294.341-.6-.036-.834-.251-.433-.323-.449-.349-.319-.17-.6.089-.2-.027-.147-.322.025-.358.09-.332.36-.636.5-.062.449.107.53-.144.025-1.64.179-.206.3-.322.114-.358.155-.5-.008-.573.008-.547.123-.609.212-.367.572-.053.482.107.563.134.556.207.409.089.465.107.613.054,1.609.027" transform="translate(-943.492 -1057.38)" stroke="#fff" stroke-linecap="square" stroke-linejoin="bevel" stroke-width="1" fill-rule="evenodd"/>
      <text id="Khed" transform="translate(37.522 49.188)" fill="#fff" font-size="10"  font-family="OpenSans-Bold, Open Sans" font-weight="700"><tspan x="0" y="0"></tspan></text>
    </g>
    <g id="ShirurTaluka" data-name="Shirur Taluka" transform="translate(1528.402 1237.853)">
      <path id="talId1" fill="#7DB8EC" title="Shirur Taluka" data-name="Shirur Taluka"  d="M1054.82,1098.486l2.349,1.012.474.6.592.753.564.475.627.5.4.215h.816l.2.161.456.51.448.341.439.215.475.243,2.526,1.979.637.378,1.012-.081.924-.135.833-.717.4-.412.9-.573.591-.466.5-.511.215-.734-.017-.457-.834-.26-.376-.34v-.726l-.367-.4-.789-.574-.573-.421-.654-.171-.484-.224-.17-.26.179-.789,1.147-1.909-.619-1.506.26-1.612.26-.726.538-.6.708-.2.815.1.9.2.734.1h.394l.9-.358-.26-1.622,1.944-1.6,1.057-1.021.985-.941.458-.753.42-.887.25-.8-.035-.716-.493-.414-.573.26-.422.3-.5.072-.43-.269-.224-.384-.268-.627-.144-2.132-.3-1.308-.8-.628-.2-.762-.519-.313h-.61l-.161.341-.036.636-.063.673-.637.51-.7.34-.771.216-1.165-.216-.662.243-.672-.52-.241-.538-.314-.377-.143-.636.242-.591.224-.538.072-.815v-.61l.017-1.415-.1-.655.654-.608-.367-.485.367-.412,1.093-.117,1.317-.062,1.882-.421.421-.116.323-.636.17.062.9.117.851.869.87.637.8.663.43.556.734.689.34.521.457.332.77-.26.646.045.744.143.484-.359.349-.475.5-.682.395-.581.313.052.3-.026.3.026.511.143.268.144.278.368v.224l-.125.278-.152.277.036.27.134.341.188.072.314.027.261-.054.2-.081.161-.09.278-.152.556-.3.153-.044.223.008.153.09.062.179-.045.188-.009.234.063.152.188.259.135.305-.018.206-.117.153-.116.126-.251.206-.143.134-.08.25.01.332.2.179.2.108.089.054.251.072.2-.018.162-.062.178-.144.161-.116.117-.107.17-.054.188.027.179.188.072.314.268.609.233.546.107.439-.018.278-.161.179-.393.386-.162.215-.206.429.018.422.009.278.063.261.143.205.107.135.126.09.2.1.349.089.431.072.215.152.206.152.223.027.26-.027.18-.081.215-.089.27.018.089.081.073.171.017.214-.072.25-.224.414-.054.376.116.089h.107l.18.027.125.152.062.179.028.18-.073.188-.071.135-.117.153-.143.125-.054.179.1.233.224.1.2-.027.224-.017.5-.053.358.026h.179l.224-.044.09-.117.2-.18.144.036.125.17.117.34.09.511.142.6.054.216.126.314.43.492.617.4.305.234.277.269.162.5.116.492.17.225.233.412.395.546.43.583.125.412.135.313.34.251.4.314.242.152.279.046.322-.081.269.1.152.5.08.412.1.286.206.313.618.556.2.1.206.063.224-.017.314-.018.277.036.224.071.2.1.1.233-.036.4-.08.17-.216.3-.009.2.063.224.152.377-.026.34-.054.189.018.341.206.609.654.555.206.188.207.287.107.349.036.511-.018.259-.009.341.053.224.063.179.206.268.429.215.341.179.1.144.027.26-.018.179-.134.153-.224.152-.1.17.036.3.1.323.071.179v.359l-.01.33.054.3.743.663.619.494,1.1.985.287.511.206.251.421.331.466.269,1.424.269.628-.035.313-.054.252-.188.215-.233.125-.269.081-.242.349-.421.224-.215.385-.1.3.036.358.081.269.125.332.2.179.171.233.206.295.171.61.144.6.142.286.1.636.565.519.269.745.259.644.3.906.071.439-.179.233-.062.287.035.089.019.376.08.224.082.332.178.744,1,.089.394-.018.251-.34.286-.529.242-.188.349-.206.412-.223.627-.269.574-.368.188-.269.179-.215.251-.143.564.268.986.161.6.26.7.17.61v.375l-.009.188.054.269.09.242.17.3.645.582.242.162.4.161.259.09.349.233.018.2-.135.34-.17.2-.233.233-.233.215-.385.5.054.494.232,1.917.243,1.156.213,1.255.135.323.368-.036.3.008.4.028h.358l.6-.036.726-.261.224-.3.251-.224.25-.144.439-.152.458-.117.439-.152.411-.054.341.224.475.466.483.565.663.69.707.483.313.422.134.394v.626l-.062.744v.484l.107.368.824.224.86-.054.861-.269,1.577-.546.779.125.691.323.779.672.448.465.251.977.17,1.039.045.913-.215.627-.528.69-.5.735-.045.3.009.422.135.546.653.618.744.914.555.35.323.188.216.018.269-.08.323-.153.2-.144.243-.152.25-.089.377-.036.286.018.314.054.323.072.3.152.26.171.269.34.153.474.26.431.1.35.01.439-.189.485-.635.573-.789.412-.233.251-.384.179-.43.116-.466.09-.475.081-.125.241-.153.2-.2.385-.071.269-.072.287-.054.206-.189.179-.17.063-.268-.018-.233-.1-.368-.18-.4-.143-.492-.071-.475.1-.152.152-.152.251-.063.3-.035.34.062.4.206.4.377.555.538.582.439.439.43.3.233.134.287.125.215.081.78.152.609.17,1.013.377.545.107.34.064.448.178.179.367.026.717.072.4.162.368.206.2.314.089.054-.008.519-.081.286.027.43.028.34-.054.529-.17.637-.125.645-.215.242-.107.367-.161.224-.089.251-.063.286-.009.3.026.411.144.556.323.44.215.385.153.26.116.286.234.287.437.143.314.009.251-.152.223-.52.278-.243.152-.366.358-.206.287-.161.43.017.573.107.609-.287.878-.216.439-.1.627.188.394.171.3.431.259.645.233.519.287.394.4.126.42.233.367.278.449.233.206.484.215.394.591.386.806.277.565.3.188.439.179.655.224.3.161.322.17.251.287.045.17-.036.314-.028.269-.089.224-.243.152-.241-.026-.18-.09-.268-.17-.278-.072-.161.036-.126.215-.008.233.044.2.09.134.215.242.027.43-.053.35-.117.582-.152.377-.413.841-.394.655-.421.207-.233.143-.09.313-.1.278-.2.35-.358.205-.484.153-.448.215-.457.26-.466.582-.35.591-.295-.421-.3-.2-.547-.171-.977.108-.591.635-.833,1.086-.707.573-1.282.968-.448.287-.582.1-.52-.144-.467-.3-.689-.7-.018-.278-.027-1.506-.028-1.165-.044-.958-.529-1.094-.259-1.487-.062-.43-.179-.492-.341-.448-1.021-.592-1.039-.6-.834-.242-.456.081-.825.439-.3.878.071.421.206.3.116.332-.026.467-.134.446-.188.4-.385.26-.449.152-.672-.071-.9-.332-1.685-1.442-.645-.305-.4-.09-.86-.314-.6-.3-.251-.376-.152-.653-.2-1.129-.161-1.344-1.165-1.182-1.111-.7-1.209-.619-1.3-.644-.494-.278-.877-.368-.565-.018-.609.072-.69.52-1.156.179-1.316.179-.78.091-1.872.7-.771.5-.582.447-.681.349-.744.036-.484-.207-.52-.332-.187-.941-.224-.52-.412-.421-.6-.187-.825-.126-1.452-.5-.6-.582-.367-1.908-.681-1.246-.69-1.693-.349-3.629-.017-.555.1-.5-.349-.349-.788-.466-1.452-1.343-.493-.26-.377.115-.466.421-.538.619-.341.385-.492.654-.341.3-.573.2-.672-.009-1.272-.493-.3-.3-.2-.43-.027-.512.439-1.343.484-.306.555-.447.538-.475.583-.521.358-.788-.017-1.138.044-.5.036-.626v-.512l-.215-.69-.206-.493-.447-.206-.485.143-.744.8-.5.385-.394.133-.375.109-.556-.036-.5-.17-.34-.287-.288.27-.493.582-.43.153-.224-.2-.493.027-.645.483-.583,1.336-.743.663-.475.125-.663.054-.9.1-.359.484-.089.411.269.753.179.332.2.493-.062.6-.565.626-.3.145-.682.294-.5.261-.431.879-.206.429-.457.547-.565.269-.744.125-.564.089-.672-.116-.717-.152-.349-.2-.735-.026-1.111.017-.833-.314-.78-.314-.914.152-1.111,1.041-.61.475-.564.815-.645,1.164-.761.116-.654-.375-.9-.556-.968-.61-.949-.914-.833-.672-1.291-.457-.474-.422-.763-.456-1.048-.736-2.043-.8-1.335.063-.609.734-.851.736-.735.1-.555-.242-.143-.43-.26-.851-.314-.306-.816-.609-1.173-1.013-.753-.994-.655-.914-.395-.538-.4-.458-.708-.529-.762-.224-1.424-.376-1.425-.179-1.8-.153-.789-.027-.735-.1-.681-.233-1.031-.627-.493-.843.386-.564.655-.528.018-.555-.475-.636-.385-.691-.036-.439.646-.538.627-.241.574.143.743.287.583.108.743.072.538-.323,1.066-1.38.725-2.992.583-2.375.2-1.845-.187-1.1.224-.987.215-.358.09-.3-.637-.251-.752-.484-.341-.349-.377-.475-.393-.529.026-.708-.735-.592-.6-.286-.682-.242-.376-.18-.25-.483.054-.817-.376-.9-.359-.878-.466-.547-.4-.294-.368-.61.26-1.191-.322-.449-.35-.259-.2-.385.3-.5.457-.358.52-.081.681.269.574.054h.484l.457-.027.305-.108.654-.9.332-.3.456-.215,1.856.08.08-2.132.26-1.47-.135-1.488-.2-.554-.547-.341-.654-.126-.637-.108-.492-.089-.179-.125.125-1,.287-.672.313-.224.69.073.386-.162.187-.135.816-1.012.833-1.739.673-.644.161-1.426.08-.985" transform="translate(-1045.69 -1069.75)" fill-rule="evenodd"/>
      <text id="Shirur" transform="translate(27.598 58.147)" fill="#fff" font-size="10"  font-family="OpenSans-Bold, Open Sans" font-weight="700"><tspan x="0" y="0"></tspan></text>
    </g>
    <g id="MavalTaluka" data-name="Maval Taluka" transform="translate(1401.805 1245.189)">
      <path id="talId59" fill="#7DB8EC" title="Maval Taluka" data-name="Maval Taluka"  d="M940.83,1079.79l.323.438.22.376.282.287.22.234.131.242.1.214,1.1,1.568.3.521.31.411-.147.386.1.233.3.251.58.457,1.249,1.443.359.547.646.305.572.062.556.269.424.476.6.644.319.422.375.4.221.421.327.349.3.036.743.081.508.448.489.592.327.5.466.843.939,2.1,1.054,1.522.947.708,1.528.78.2.807.179.5.826.359.409.179.53.3,2.05.682.653.152.221.51.434.592.318.484.155.412v.538l-.065.537-.008.305.328.538.424.475.6.385.768.259.654.269.432.206.326.3.384.448.286.484,1.3,2.007.432.484.384.205.3-.054.44-.143.605-.08.629.018.449.09.392.224.409.17,1.544.09.85.019.956.1.44.521.229.537.335.608.269.574.212.43.416.323.572.269.562.161,2.173.278.792.717.147.466-.082.394-.278.412-.171.9-.817,1.514-.229.6-.245.492-.409.771.115.35.637.735.4.493.286.52.27.268.286.018.277-.3.31-.332.343-.386,1-.645.441-.1.662.054.359.09,1.079.475.613.323.105.359.066.367-.269.412.693.511.156.367.041.546-.482,1.1-.121.484-.074.456.008.44-.073,1.1-1.609-.026-.613-.054-.465-.108-.409-.089-.556-.205-.563-.134-.482-.108-.572.054-.212.366-.122.61-.008.547.008.573-.155.5-.114.357-.3.322-.179.207-.025,1.64-.531.144-.449-.109-.5.063-.36.636-.09.331-.024.359.147.323-.719.3-.188.718-.106.511-.172.448-.04.358-.4,1.631-.606-.1-.26.108v1.872l-.229,1.371.122,2.643,1.046.555.04.17.042.171-.213.609-.343.843-.376.51-1,.144-.7.071-1.061.009-1.177.152-.784.215-.473.161-.539.045-.409-.242-.816.116-.343.161-.49.591-.328.4-.816.914.2,1.013-.049.95-.31.931-.148.681-.048.708.114,1.138-.049,1.183-1.046.179-.589.144-.685-.161-.491-.216-.343-.305-.556-.411-.686-.224-.948-.1-.6.108-1-.009-.228-.69-.409-.753-.7-.574-1.388-.474-.948-.242-1.372-.259-1.112-.233-1.077-.385-.751-.269-.98-.107-.866-.072-1.078.053h-.669l-1.356-.475-1.357-.492-.751-.385-1.193-.771-1.242-.493-1.093-.277-.833-.018-.506-.009-.539,1.056-.539.655-.6.412-.669.358-.49.538-.849,1.407-.605,1.29-.391.859-.377.851-.441.816-.375.492-.262.224-1.111-.107-.9-.117-1.242-.1-.8-.036-1.159-.26-1.111-.654-1.1-.537-.832-1.326-.23-.933-.571-.483-.638-.349-.49-.225-.278-.232.049-.941.163-.77-.065-.7-.277-.215-.654-.259-.441-.216-.522-.26.024-1.245-.482-1.345-.31-.761-.008-.942.057-.771-.041-.86.393-.475.441-.161.417-.224-.033-.511-.286-.152L922.2,1142l-.693-.045-.695-.144-.825-.126-.572-.044-.7-.01-.89-.179-1.381-.25-1.5-.045-.013-.2-.172-.269-.1-.672.057-.439.09-.574.123-.439-.082-.636-.539-.252-.319-.358-.032-.475-.049-.368-.326-.358-.286-.17-.18-.277-.163-.43-.3-.439-.276.223-.212.422-.188.367-.359.233-.76.313-.359.028-.54.053-.056-.126.016-.43.163-.592.139-.484-.188-.376-.179.233-.367.314-.368-.188-.368.063-.154.475-.123.511-.629,1.04-.213.188-.163-.134-.359.188-.294.385-.041-.107-.082-.358-.359-.126-.433.323-.18.205-.326.126-.393-.206-.286-.376-.066-.43.3-.341.547-.269.654-.429.923-.87.065-.063.188-.215.057-.214-.073-.171-.159-.2-.086-.242.078-.4.437-.315.359-.2.376-.125.274-.09.179-.179.045-.26-.021-.251-.061-.349.135-1.326.143-.224.106-.214.057-.422.045-1.039.1-.413.073-.4.128-.491.138-.628-.069-.349-.1-.3-.22-.161h-.283l-.5.027-.31-.117-.09-.287.581-.644.559-.394.212-.583.417-.51.13-.207.134-.384.4-.672.041-.242.122-.449.074-.393.057-.359.176-.609.257-1.021.045-.278.123-.314.224-.144.331.44.2.394.072.179.235.162.042-.054.066-.081.082-.009.075-.009.057-.035.085-.073.1-.125.174-.233.241-.224.094-.126,0-.036-.023-.054-.037-.071-.037-.081-.022-.062.011-.027.026-.054.034-.089.047-.225.033-.233,0-.072.039-.071.085-.072.169-.188.111-.162.051-.089.028-.081.031-.188v-.394l-.037-.251v-.179l.023-.179-.008-.072-.038-.08-.076-.045-.1-.027-.1-.063-.088-.134-.016-.162.042-.179.057-.153.057-.43-.024-.233-.212-.2-.107-.377.18-.206.727-.171-.016-.412-.041-.8.212-1.1.125-.689.43-2.357.2-1.264.441-.062.466.107.212.171.417.25.22.43.286.386.514.6.147-.161.359-.664.253-.439.448-.583.818-1.129.547-.332.817-.269.841-.214.375-.394.319-.394.351-.574.939-1.523.425-.618.179-.447-.008-.493.008-.6.049-.663-.449-1.846.391-.071.319-.009.31-.108.016-.349-.032-.493-.245-.277-.449-.206-.368-.206-.457-.376-.221-.4-.278-.636.36-.189.375.081.637-.457.27-.457.261-.323.09-.457.016-.34.2-.457.342-.045.343.314.131.314.367.2.555-.2.948-.305.278-.26.253-.27-.045-2.311-.065-.493-.241-.17-.04-.26.212-.905.163-1.1.09-1.057.135-.4.135-.4.171-.3.331-.278.286-.135.747-.008.792.026h1.065l.091-1.093.008-.358.077-.3.128-.26.15-.349.253-.179.4.044.367.116.413.207.531.645.527.556.936.762.538.152.413.134.425.108.473.063h.356l.433-.188.265-.5.131-.332-.008-.216-.016-.223.135-.134.18-.26.257-.323.2-.242.143-.108.249.028.27-.082.151-.663" transform="translate(-904.651 -1079.79)" stroke="#fff" stroke-linecap="square" stroke-linejoin="bevel" stroke-width="1" fill-rule="evenodd"/>
      <text id="Maval" transform="translate(24.195 51.811)" fill="#fff" font-size="10"  font-family="OpenSans-Bold, Open Sans" font-weight="700"><tspan x="0" y="0"></tspan></text>
    </g>
    <g id="MulshiTaluka" data-name="Mulshi Taluka" transform="translate(1399.009 1306.517)">
      <path id="talId60" fill="#7DB8EC" title="Mulshi Taluka" data-name="Mulshi Taluka"  d="M963.376,1202.239l-1.012-.179-1.013-.063-.883-.035-.081.457.081.789.131.752-.114.851-.2.718-.556.393-.523.126-.391-.537.245-1.389.408-.9.294-1.084-.278-.9-.278-.556-.36-.42-.49-.539-.881-.278-.784-.277-.653-.233-.736-.277-.457-.26-.571-.26-.817.34-.424.215-.457.242-.442.331-.588.225-1.7.1-1.683.834-1.192.241-1.079.35-.538.242-.083.7.1.574.2.395.391.223h.555l.653.332.605.412.326.385.368.6-.017.556-.065.4-.082.34.3.125.507.072.375.126.474.206.376.3.115.287.057.349.008.421-.27.537-.408.377-.695.438-2.189.942-2.311.949-1.936.619-.735.582-1.013.349-1.021.376-.808.484-.613.054-.654-.1-.76-.09-1.151.216-1.192-.2-.563-.161-.409-.421-.465-.306-.449-.206-.67-.062-.768-.135-.514-.537-.319-.583-.384-.277-.539.241-.53.4-.564.438-.548.332-.409.306-.286.134-.465-.116-1.911-.511-.025-.206-.188-.278.082-.126-.433-.484-.425-.331-.384-.269-.367-.268-.449-.279-.507-.34-.3-.34-.18-.556.016-.484.041-.483.1-.941-.049-.439-.106-.8-.181-.475-.187-.717-.237-.457-.254-.421-.277-.269-.335-.224-.335-.214-.433.036-.244.367-.139.277-.148.395-.179.358h-.155l-.2-.116-.155-.233-.3-.08-.212.223-.367.206-.155-.269-.073-.385.131-1.164-.049-.816-.041-.618-.065-.627-.057-.717-.727-2.2-.172-.717-.147-.556.016-.52.18-.384.343-.225.5-.17.523-.116.122-.922-.115-.475-.04-.377-.041-.421-.074-.475-.04-.412.179-.233.359-.233.057-.313-.319-.762-.163-.555-.171-.323v-.331l.343-.081.269.063.49.2.368-.187-.074-.395-.155-.287-.261-.314-.212-.277-.148-.323.009-.341.032-.341.107-.331.1-.323.163-.395.131-.393.115-.34.105-.484.123-.341-.171-.1-.327-.1-.441-.089-.253.117-.228.5-.246.3-.277.359-.311.474-.213.332-.286.009-.286-.179-.294-.144-.375.045-.13.386.089.43.163.644-.229.341-.155.268-.22-.017-.262-.134-.27-.234-.139.188-.212.351-.131.16-.016.215.327.3.252.179.057.242-.2.26-.244-.143-.229-.233-.246-.3-.318-.251-.065.089-.066.394-.016.287-.1.386-.065.449-.032.206-.107.34-.089-.018-.155-.17-.18.081.074.323v.286l-.13.153-.221-.089-.367-.188-.3-.188-.522-.3-.417-.448-.048-.125-.329-.86-.066-.494-.024-.376-.073-.331.057-.368.2-.188.252.027.3.036.172.17.237.323.172.214.285.179.245-.116.311-.081.383.036.58-.045.359-.143-.113-.51-.107-.4-.147-.268-.212-.225-.31-.287-.074-.259.089-.323.262.053.2.413.2.036.571-.125.2-.305.432-.358.27-.611.311-.232.417-.234.326-.143.375-.062.4-.1.221-.278v-.358l-.31.027-.49.2-.31.054-.523.1-.294.01-.36-.216-.458-.313-1.371-1.192-.8-.681-.768-1.013-1.242-1.578-.391-.51-.393-.332-.31-.2-.3-.107-.434.045-.367.072-.457.2-.408.09-.286-.233-.089-.269-.066-.43-.089-.448.057-.295.531-.5.3-.242.082-.393-.041-.521.352-.233.326-.314.866-.87.792-.626-.7.2-.482.3-.572.251-1.053.126-.392.053-.473.243-.4.134-.31.081-.393-.045-.391-.125-.532-.3-.416-.35-.506-.368-.2-1.29.025-.448.074-.592.04-.635.4-.583.417-.52.326-.448.27-.5.049-.484-.008-.52-.1-.537-.122-.529.2-.3.319-.242.3-.3.016-.358-.138-.466-.075-.305.041-.34.033-.368.138-.511.229.116.252.323.254.234.22.34.474.045.081-.323.082-.556.074-.484.1-.323.27-.26.238-.036.237.162.269-.574.711-.995.563-1.755.213-.421.286-.359.367-.519.54-.314.465-.359.572-.725.261-.269.433-.206.548-.054.04-.2.139-.287.2-.287.474-.34.294-.252.335-.286.344-.242.693-.044.057-.252.115-.877-.016-.6-.278-.77-.393-.44.017-.439.212-.635-.044-.663,1.5.045,1.381.251.89.179.7.009.571.046.825.125.694.144.694.046.408.017.286.152.033.511-.417.224-.441.161-.393.475.042.861-.058.77.008.942.309.761.482,1.344-.024,1.245.523.26.441.215.654.26.276.215.066.7-.163.77-.049.941.278.233.49.225.637.349.572.484.23.932.832,1.327,1.095.538,1.111.654,1.159.26.8.036,1.242.1.9.116,1.111.108.261-.224.375-.493.441-.816.377-.851.391-.861.605-1.29.849-1.406.49-.538.67-.358.6-.412.538-.654.54-1.058.507.009.833.017,1.094.278,1.242.493,1.193.771.751.385,1.356.493,1.356.475h.669l1.078-.055.866.073.981.108.751.268,1.078.385,1.111.234,1.372.259.948.242,1.387.475.7.574.409.753.229.689,1,.01.6-.108.946.1.687.224.556.412.343.3.49.216.685.161.589-.143,1.046-.179.048-1.183-.114-1.138.048-.708.147-.681.311-.932.049-.951-.2-1.012.816-.914.327-.4.49-.591.343-.161.816-.117.408.242.54-.044.473-.162.785-.216,1.176-.151,1.062-.01.7-.071,1-.144.375-.51.344-.843.212-.609-.041-.171.646.171.457.332.2.663.409.412,1.176.851.457.179.261-.34.458-.448.376.429.441.386.457.2.506-.063.8-.062.474.438v.735l.016.573.311.636.734.3.817.3.751.206.882-.144.522-.376.523-.152.2.645.978,1.335.26.342-.1.654-.188.394-.376.421-.346.349-.523.932.562.959.152.233-.012.376.007.581-.191.4-.172.439-.285.394-.12-.117-.367-.206-.44.081-.8-.027-1.193-.3-.115.519.111.9.037,1.577.131.78.277.815.148,1.371-.294.726.1.762.474.493.294.538-.587,1.066-.49.422-.637.456-1.111.439-.7.592.246.573.522.2h.653l1.645.206.857.071,1.33.136.916.582.314.789.788,1.021-.34.654-.457,1.389-.739,1.784-.216.68-.731.646-.506.161-.621.457-.507.215-.425.144h-.392l-.637-.233-.62-.341-.768-.6-.637.52-.246.295-.326.045-.343-.339-.833-.314-.1.546-.279,1.022-1.028.573.131.887-.344.161-.752.116-1.274,1.22-.342.134-.654-.34-.767-.17-1.013-.161-1.176-.1-.867.234-1.078,1.192-1.029,1.486-.539.027h-.768l-1.258.134-.914.036-1.077-.135-.637.161-.948.332-1,.475-1.111.618-.719.573-.311.681.246.511.31.636.505.2.556.224h.311l.114.395v.52l.065.475.212.161h.556l.425.1.2.267.523.6.376.359.719.25.506-.232.555-.556.785-.6.6-.431.833-.458,1.177-.125.1.5-.408.637-1.617,1.227-.7.582-.441.3-.132.51.164.5.294.448.164.305-.114.376-.442.313-.554-.1-.491-.018-1.144-.135-1.159-.4-1.683-.887" transform="translate(-902.6 -1148.28)" stroke="#fff" stroke-linecap="square" stroke-linejoin="bevel" stroke-width="1" fill-rule="evenodd"/>
      <text id="Mulshi" transform="translate(23.991 35.483)" fill="#fff" font-size="10"  font-family="OpenSans-Bold, Open Sans" font-weight="700"><tspan x="0" y="0"></tspan></text>
    </g>
    <g id="VelheTaluka" data-name="Velhe Taluka" transform="translate(1417.011 1356.098)">
      <path id="talId62" fill="#7DB8EC" title="Velhe Taluka" data-name="Velhe Taluka"  d="M995.052,1225.945l.888.591.654,1.111.493.734-.054.736-.225.618-.448.672-.26.376-.044.691.242.555.242.359.43,1.371.26,2.329-.179.87-.341.394-.018.492,1.057.386.932.789-.1.913-.161.574-.242.537-.35.34-.179.377-.143.395-1.075-.1-.69-.036-.869.116-.734-.134-.78-.323-.986-.377-.715-.242-.947-.276-.621-.117-.654-.144-.228-.071-.293-.44-.344.045-.392.2-.638.017-.621.018-.277.045-.343.089-1.993.619h-.9l-.718-.161-.981.287-1.307.089-.67.179-1.111.108-.587.071-.6.1-.62.125.032.591v.538l-.327.538-.294.331-.31-.179-.392-.277-.457.287-.278.277-.458.054-.326-.233-.506.476-.23.313-.342-.528-.18-.52-.278-.493-.523.4-.506.555-.377.4-.621.3-.816-.25-.441-.279-.311-.52-.179-.555-.065-.654.049-.681-.212-.708-.442-.3-1.013-.314-.719-.161-1.585-.556-.473.637-.164,1.174-.228.8-.147.905-.212.484-.49.985-.424.421-.834,1.228-.26.9.359.475.114.573-.114.671-.131.377-.016.359v.358l-.245,1.595-.932,1.129-.323.574-.182-.117-1.176-.753-.5-.232-.417-.072-.628-.089-.221.161-.13.438-.083.888-.048.3-.22.268-.385.233-.285.036-.58-.116-.416.019-.629-.072-.474-.367-.269-.349-.164-.332-.367-.188-.637-.153-.474-.179-.6-.286-.1-.654-.083-.574-.187-.707-.172-.43-.2-.493-.212-.4-.18-.394-.139-.376-.042-.367-.122-.5-.254-.286-.131.242.139.537.073.439-.008.241-.081.17-.236.215-.2.43.016.483.107.583-.295.027-.212-.243-.278-.367-.669-.6-.441-.306-.311-.152-.579-.287-.278-.169-.1.4-.123.655-.016.323-.016.457-.074.394-.13.465-.188.484-.245.314-.319.224-.336.009-.49.134-.294.08-.473.116-.416.179h-.359l-.107-.277.041-.35.09-.376.335-.663.253-.35.221-.3.319-.2.31-.188.474-.475.442-.807.081-.259-.04-.234-.123-.3-.163-.206-.294-.09-.49.142-.311.073-.408.108-.237.009-.457-.027-.164-.224.122-.152.335-.153.31-.152.351-.206.385-.234.179-.421.3-.556.2-.2h.49l.172-.108.041-.26.106-.519-.342-.189-.319-.135-.392-.223-.376-.171-.327-.134-.335-.152-.2-.045.018-.26.057-.233.252-.117.189.188.155.125.327.125.2-.214-.057-.331.066-.682.3-.268.36-.295.2-.216.122-.4-.04-.251-.22-.252-.343-.25-.294.045-.294.26-.188-.063-.139-.323-.319-.179-.148.348-.481.4-.424-.009h-.3l-.4.009-.254-.027.033-.3.065-.35v-.25l-.032-.341-.123-.206-.155-.153-.27-.008-.4.063-.319.072-.073-.162-.032-.493-.164-.019-.457.144-.131.009-.049-.081-.139-.314.017-.457.187-.179.311-.178.236-.162.433-.251.147-.278.18-.332.228-.286.171-.171.115-.259v-.3l-.155-.091-.425.026-.352.036h-.384l-.31.036-.31-.089-.181-.27.016-.358-.04-.3-.065-.413-.049-.26-.229-.252-.254-.089-.278.116-.294.2-.326.277-.221.3-.294.215-.334.091-.474-.019-.424.081-.32.261-.53.447-.44.377-.327.385-.032-.376-.172-.743-.1-.341-.091-.384-.081-.386-.147-.358-.016-.349.041-.412.024-.278-.065-.609.008-.34.114-.305.09-.3v-.242l.1-.438.041-.5-.873-.153H932.8l-.408.019-.2.143-.449.251-.393.036-.49.143-.391.009-.335.063-.49.08-.416-.08-.262-.261-.122-.359-.123-.358-.2-.421-.212-.449-.3-.188h-.67l-.368-.044-.3-.028-.293.036-.4.207-.27.269-.187.206-.27.225-.254.269-.179.3-.188.054-.188-.2-.261-.259-.22-.153-.369-.081-.26-.081-.172-.26-.114-.26-.107-.332-.171-.3.3-.269.171-.134.311-.144.236-.142.221-.306.106-.348-.246-.171-.286-.1-.3-.171-.065-.215.115-.394.253-1.209.016-.376.107-.18.278-.143.326-.18.164-.26.188-.384.368-1.273.269-.556.237-.421.286-.591.907-1.219.269-.467.074-.339,1.911.51.465.115.286-.133.408-.3.548-.331.564-.44.53-.4.54-.241.383.278.319.583.514.537.768.134.669.062.45.207.465.305.408.421.563.161,1.193.2,1.151-.215.76.09.653.1.613-.053.808-.484,1.022-.377,1.013-.35.735-.582,1.937-.619,2.311-.949,2.189-.941.694-.44.409-.377.27-.537-.009-.422-.057-.349-.115-.286-.375-.3-.475-.207-.375-.126-.506-.071-.3-.126.082-.34.065-.4.017-.555-.368-.6-.326-.386-.6-.411-.654-.331h-.555l-.392-.225-.2-.393-.1-.574.083-.7.539-.243,1.079-.349,1.192-.242,1.683-.833,1.7-.1.588-.224.442-.332.457-.243.425-.215.817-.34.572.259.457.26.736.278.654.233.784.278.882.278.49.538.359.421.278.555.277.9-.294,1.085-.409.9-.244,1.389.392.537.523-.126.556-.393.2-.718.115-.85-.131-.753-.082-.79.082-.456.882.036,1.013.062,1.013.18-.391.734-.115.556.294.789.261,1.075-.016.833.539.314.311.019.718-.135.425.055.572.538.572.16.49.044.44-.179.115.771.049.619.13.906.049.484.359.968.523.215.408-.655.343-.949.18-.493.326-.44.491-.439.425-.493.147-.672-.195-.422v-.573l.375-.278.718-.018.507.215.424.081.556.062.228.609-.228,1.013-.18,1.048-.082.8-.179.931.229.771.506.323.833-.036.2-.752.326-.583.246-.081,1.209.224-.1.708-.474,1.353.555.834.294.717-.081,2.124.278,1.21v.8l-.246.87-.049,1.621.147.385.473.933.294,1.165-.081.734-.131.976-.147.555-.686.637.278.735.408.25.589.368.669.395.587.233,1.029.027.294-.5.065-1.031.392-1.271.9-.439.474-.2.278-.771-.294-.537-.262-.69-.31-.735-.033-.717.752-.914.2-.393.408-.476.458-.34.588.035.621.439.637.52.571.528.735.664.376,1.03.407.655.1.672-.016.995.147.1.849.117.2-.574.032-.313.735-.108.327-.278.392-.394.735-.475.609-.52.816-1.165.663-.573" transform="translate(-922.764 -1203.93)" stroke="#fff" stroke-linecap="square" stroke-linejoin="bevel" stroke-width="1" fill-rule="evenodd"/>
      <text id="Velhe" transform="translate(17.989 27.902)" fill="#fff" font-size="10"  font-family="OpenSans-Bold, Open Sans" font-weight="700"><tspan x="0" y="0"></tspan></text>
    </g>
    <g id="BhorTaluka" data-name="Bhor Taluka" transform="translate(1450.348 1361.237)">
      <path id="talId56" fill="#7DB8EC" title="Bhor Taluka" data-name="Bhor Taluka"  d="M1014.526,1216.864l.134,1.1.107,1.129.063.628-.009.447-.045.422.188.761.251.206-.036.368-.126.27.054.25.537.323.771.726.26.475.5.153.573-.018.386.161.323.4.421.368.511.242.448.206.09.036.269-.215.394-.26.4-.08.448.1.367.089.779.287.484.323.233.385-.054.484.027.332.377.3.546.224.323.215.171.268.233.341.52.628.063.527-.233.3-.367.3-.179.277-.009.306.027.26-.135.26-.779,1.1-.753,1.443-1.03,1.335-.663,1.639-.43,1.281,1.29.583,1.29.735.762.43.331.332-.116.6-.188.573-.027.431-.519.5-.556.744.206.3.905.466.806.009,1.183-.09.583-.609.349-.807.394-.493.475-.546.537-.556.546-.421.466-.224.717-.153.413.153.116.456.027.439.117.484.394.484.555.421.484.323.457.287.725.877.027.6.054.341.824.43.3.216.8.268.833.592.278.475.51.537,1.631.3.86.717.7.322.009.323.09.393.646-.07.4.17.349.313.233.261.824.725.358.663.564.627.349.394,1.282,1.38.448.788.152.538.2.34.3.314.618,1.093-.376.349-.233.376-.43.412-.529.959-.008.655.063.43.188.3.2.349.224.3.009.448.1.967.2.547-.144.062-.456.3-.35.3-.52.224-.547.171-.4.126-.609.053-.582-.053-.484-.215-.448-.215-.52-.439-.8-.967-.171-.16-.448-.234-.448-.161-.349-.2-.3-.341-.233-.339-.135-.52-.036-.448-.09-.349-.09-.313-.116-.233-.225-.161h-.233l-.313.152-.439.475-.609.357-.457.18-.448.1-.224.036-.395-.054-.484-.071-.6-.242-.923-.475-.6-.134-.376-.153-.412-.26-.376-.429-.645-.709-.69-.6-.457-.529-.555-.51-.94-.626-.35-.225-.242-.215-.268-.207-.278-.116-.35.017-.286.144-.251.332-.278.619-.161.151-.26.2-.5.09-.949.116-.565-.028-.421.091-.3.143-.331.26-.789.5-.735.494-.143.08-.367.161-.251.143-.189.206-.116.269-.17.161-.2.063-.268-.045-.243-.394-.134-.251-.063-.3-.071-.25-.018-.377-.2-.538-.152-.546-.089-.358-.135-.377-.036-.206-.062-.367-.027-.224-.072-.2-.126-.134-.3-.071-.242.071-.242.161-.331.3-.448.771-.332.269-.232.2-.108.108-.206.072-.125.019-.179-.036-.2-.063-.26-.152-.143-.125-.134-.089-.189-.108-.277-.019-.18.046-.072.134-.062.286v.494l.054.269-.045.25-.018.134.054.26.036.126.063.072.08.044.1.019.143.009h.143l.171.027.17.089.09.107.116.179.242.367.313.313.4.278.412.278.376.411.215.592.027.35.116.358.2.448.637.843.17.332.152.17.3.162.241.117.35.16.08.252-.009.358-.036.367-.009.779-.081.2-.116.107-.233.134-.286.135-.314.09-.439.135-.52.931-.143.224-.152.233-.134.2-.26.089-.368.063-.493.063-.824-.117-.2-.089-.26-.107-.34-.135-.332-.08-.349-.072-.286-.026-.3-.081-.313-.1-.394-.089-.421.027.009.2.143.448.332.744.116.26.161.278.269.413.26.573.331.609.3.314.358.5.216.735.3.913.35.306.242.223.09.2-.081.17-.2.313-1.147,1.022-.215.17-.215.268-.135.341-.1.394.027.412.313.269.153.233.027.27-.044.259-.135.277-.035.4.053.716.126.34.008.234-.027.323-.143.3-.251.745-.134.188-.286.09-.215.107-.072.439-.071.492-.466.833-.251.332-.2.206-.108.18-.251.259-.242.215-.269.09-.259-.036-.395-.26-.17-.08-.089-.144-.09-.224-.206-.188-.2-.161-.108-.126-.072-.143-.09-.18-.152-.116-.206.046-.117.277-.054.422-.144.384-.269.233-.224.17-.224.1-.233-.036-.143-.126-.207-.017-.224.072-.089.08-.215.1-.4-.215-.286.3-.153.126-.313.089-.242.018-.269-.071-.161-.135-.125-.286-.224-.376-.286-.08-.431.027-.654-.17-.125-.143-.251-.2-.206.053-.331.4-.269.187-.457.144-.359.134-.4.636-.17.259-.134.322-.09.153-.2.125-.242.028-.17-.081-.278-.109-.278-.169-.117.107-.09.412-.071.4-.2.133-.574-.053-.42-.035-.252-.269-.224-.224-.17-.224-.314-.243-.336.367-.127.126-.2.018-.138-.062-.155-.144-.11-.223-.115-.3-.257.028-.236.115-.257.171-.339.216-.31.2-.31.162-.584-.306-.458-.331-.286-.3-.38-.384-.228-.233v-.35l.118-.3.106-.278.049-.215-.029-.2-.359-.117-1.05.055-.436-.01-.479.063-.637.027-.9.01-.723-.062-.388-.072-.326-.135-.266-.143-.309-.18-.213-.278-.563-.4-.314-.073-.2-.027-.45.009-.58.072-.575.1-.082-.018-.286-.072-.158-.1-.193-.152-.232-.179-.257-.126-.29.089-.532.377-.852.34-.3.162-.442.171-.339.1-.3.125-.5.253-.519.439-.535.377-.319.286-.3.143-.265.134-.356.189-.273.18-.307.216-.244.214-.36.3-.368.252-.191.036-1.217-1.04-.032-.574-.327-.287-.246-.2-.342-.179-.311-.027-.425.1-.27-.125-.016-.144.409-.5-.245-.162-.425-.259-.564-.2-.269-.089-.393-.224-.236-.333-.458-.142h-.588l-.719.206-.278-.037-.171-.143-.172-.393-.081-.287-.3-.251-.3-.207-.383-.1-.31-.082-.352-.187-.13-.323-.221-.645-.359.026-.2-.054-.163-.206-.033-.322.041-.206.138-.314.139-.359.024-.322.188-.457.817-.644.319-.287-.034-.269-.122-.26-.352-.225-.318-.125-.637-.188-.76-.125-.343-.18-.457-.17-.327.134-.155-.071-.115-.269-.074-.278.165-.215.286-.233.278-.232.286-.368.392-.448.212-.682-.122-.4-.295-.286-.515-.3-.555-.279-.416-.34-.408-.376-.655-.413-.121-.286.212-.394.4-.457.678-.207.621-1.506.081-.305.367-.68.254-.618.2-.484.041-.377-.081-.456-.082-.333-.1-.376.089-.4.311.161.114.573.147.78-.2.663-.139.52-.155.359-.22.457-.27.555-.246.4.221.2.482-.144.286-.205.262-.342.375-.358.458-.179.6.358.278.027.384-.044.367-.028.441.037.351-.09.032-.162-.1-.2-.286-.17-.457-.08-.246-.045-.262-.135.009-.17.987-.905.36-.277.082-.225.024-.25V1263l.066-.475.2-.207.163-.072.393-.063.163-.285.049-.234-.007-.25.089-.243.343-.008.3.054.188.206.171.314.188.4.1.188.237.036.327-.17.367-1.147.246-.5.228-.359.2-.519-.025-.268-.115-.314v-.322l.286-.161.367-.018.229-.009.278.188.22.277.295.278.164.117.62.152.4.1.245-.206.212-.359.025-.3v-.286l-.114-.251-.214-.169-.171-.045-.229-.269.008-.233-.278-.484-.237-.323-.393-.394-.335-.188L971.7,1256l-.407-.152-.605-.072-.5-.036-.571-.125-.842-.286-.6-.055-.409-.3-.115.233-.114.3-.212-.036-.327-.107-.417-.161-.441-.224-.441-.233-.482-.233-.613-.259-.545-.34.324-.574.931-1.129.246-1.595v-.358l.016-.359.131-.376.115-.672-.115-.574-.359-.474.261-.9.833-1.228.425-.421.49-.986.212-.483.147-.906.229-.8.164-1.175.473-.635,1.585.555.719.161,1.012.314.441.3.213.707-.049.682.065.654.18.556.311.519.441.278.816.251.621-.3.377-.395.506-.555.523-.394.278.492.18.52.342.529.23-.314.506-.474.326.233.458-.054.278-.278.456-.286.393.278.311.179.293-.331.327-.538v-.538l-.032-.589.621-.127.6-.1.588-.071,1.111-.108.669-.18,1.307-.09.98-.286.719.162h.9l1.993-.619.343-.089.276-.046.621-.017.637-.018.393-.2.343-.045.294.439.229.072.653.143.621.116.947.278.715.242.986.376.78.323.735.134.869-.117.69.036,1.075.1.143-.394.179-.377.349-.339.242-.539.162-.574.1-.914-.932-.788-1.057-.385.018-.493.341-.394.179-.869-.259-2.329-.43-1.371-.242-.358-.242-.556.045-.69.26-.377.448-.673.224-.617.054-.734-.493-.736-.654-1.11-.886-.592-.028-.582-.018-.493,1.254-1.434,1.425-.448.259-.377-.036-.6v-.412l-.009-.458-.116-.554-.161-.378.107-.466.215-.17.457.116.735.1.456-.161.081-.529-.026-.762.179-.25.681.51.278.44.17.357.52.636-.143,1.165.287.636.492.323.771.431.439.555.224.3.117.457.018.44.144.77.456.6.493-.08.153-.161.206-.726.3-.439.431-.377.52-.484.52-.591.493-.654-.278-.6-.816-1.066-.735-2.814-.313-.717-.7-.752-1.165-.879-1.406-1.55-.4-.932-.1-.914.036-.816,2.563-.85.932-1.147.385.833.645.215.3-.413.26-.376.493.152.511.6.537-.045.341-.529.51-.027.385.5-.107.609-.117.3-.377.493-.717.51-.789.421-.2.422-.1.833-.278,1.165-.1.833.493-.251.672-.4.52.341.986.375,1.371.538" transform="translate(-960.11 -1209.76)" stroke="#fff" stroke-linecap="square" stroke-linejoin="bevel" stroke-width="1" fill-rule="evenodd"/>
      <text id="Bhor" transform="translate(17.652 55.763)" fill="#fff" font-size="10"  font-family="OpenSans-Bold, Open Sans" font-weight="700"><tspan x="0" y="0"></tspan></text>
    </g>
    <g id="PurandarTaluka" data-name="Purandar Taluka" transform="translate(1504.565 1352.563)">
      <path id="talId4" fill="#7DB8EC" title="Purandar Taluka" data-name="Purandar Taluka"  d="M1071.072,1205.349l1.595-.709,1.165-.859.484-.3,1-.537.8-.368,1.047.251,1.012.7.5.3,2.5-.376.18-.456,1.424-.063,1.764-.018,1.677-.234.9-.107.878-.088.673-.01.555-.071.376-.421.834.134.832.089.717.234-.062.519.6-.86.475.762.313.268.735-.557.143-.492.278-.7.618-.744.591-.206.34.4.135.135.421-.537.251.2.206.816.358.761.493.448.654.045.7-.081.315.395.492.216.654.026.752.654-.116.7-.412.745-.484,1.55-.932,1.308-.332,1.039.394.752.9.341.278.707.51.574.52.439.242.5.152.476.045.707v1.3l.627,3.011-.09,1.613-.089.9-.653,1.415-.986.251-.932.009-.851.1-.815.019-1.487.538-.466.752-.234,1.7-.278.879-.1.753-.279.985-.3.521-.879.26-.161,3.432-.2,1.568-.314,2.025-.671,1.389-1.453,1.63-.779,1.129-.393.574v.4l.393.313.26.475v.557l-.349,1.416-.044.626.411.655.143.42-.035.476-.162.6-.439,2.5.242.852.179.672.53.672-.824,1.416.475.833.251.887v1.766l-.671.9-.1.735-.036.931-1.093.994-.86,1.246-.824.242-.637.5-.358.331-.762.394-.644-.1-.565-.171-.511-.045-.421.018-.072.358.269.279.618.081.4-.144.314.027.313.314.179.456-.054.771-.554,1.577-.243,1.523.036,1.146-.089,1.846-.135.01-.26-.036-.3-.054-.475-.044-.456-.036-.162-.2-.133-.2-.153-.223-.125-.224-.144-.143-.206-.134-.322-.1-.26-.08h-.232l-.224-.01-.556-.233-.341-.234-.143-.187-.162-.225-.313-.332-.242-.17-.368-.189-.51-.116-.511.188-.869.4-.466.027-.431.1-.268.108-.5.188-.207.054-.268.071-.17-.008-.242-.117-.242-.107-.269-.143-.35-.215-.3-.26-.332-.44-.68-1.066-.224-.34-.278-.189-.3-.09-.537.063-.349.108-.278.162-.314.295-.278.216h-.529l-.287-.26-.179-.26-.411-.421-.171-.206-.377-.458-.68-.653-.269-.323-.3-.3-.332-.17-.412-.027-.412.1-.608.332-.762.77-.653.4-.655.34-.6.081-1.057.018-.672-.054-1.111-.045-.637.045-.42.036-.529-.062-.045-.224-.036-.377-.1-.3-.243-.3-.331-.3-.367-.457-.332-.448-.9-.413-.869-.34-.574-.08-.842-.045-.484.187-.2-.546-.1-.967-.008-.448-.224-.3-.2-.349-.188-.3-.063-.43.008-.654.53-.959.43-.412.233-.376.376-.349-.619-1.094-.3-.314-.2-.34-.153-.538-.448-.788-1.281-1.38-.35-.394-.564-.627-.359-.663-.824-.726-.233-.26-.35-.314-.4-.17-.645.072-.091-.394-.008-.322-.7-.323-.86-.716-1.631-.306-.511-.538-.278-.474-.833-.592-.8-.268-.3-.215-.825-.43-.054-.341-.027-.6-.725-.878-.457-.287-.483-.321-.557-.422-.394-.484-.116-.483-.028-.439-.116-.457-.413-.152-.716.152-.466.224-.547.422-.538.555-.474.547-.395.493-.349.806-.583.61-1.183.089-.806-.009-.906-.466-.206-.306.556-.743.52-.5.027-.43.188-.573.116-.6-.331-.331-.762-.43-1.29-.735-1.291-.582.43-1.282.663-1.64,1.031-1.335.752-1.442.781-1.1.133-.26-.026-.26.009-.3.179-.278.368-.3.233-.3-.063-.529-.52-.627-.233-.341-.17-.268-.323-.215-.547-.224-.377-.3-.027-.332.054-.484-.232-.385-.485-.322-.779-.288-.368-.089-.448-.1-.4.081-.394.26-.269.215-.089-.036-.448-.207-.511-.242-.421-.368-.323-.4-.385-.162-.573.019-.5-.153-.26-.476-.77-.725-.537-.323-.054-.251.125-.269.036-.367-.251-.206-.188-.761.045-.421.009-.448-.062-.627-.108-1.129-.134-1.1.941-.852.152-.635.2-.458.3-.7.108-.9.071-.672.09-.789-.439-.959-.225-.869,1.237-1.783.475-.286.511-.017,1.076.322.9.152.753.108.9-.027.709-.359.959-.636,2.93.026.762-.143,1.227.062.95.278.914.968,2.4.457,1.864-.87.672-.143,1.057-.036,1.389-.1.555-.52.557-1.084.8-1.156.69-.412.914-.52.242-.16.331.214.305.286.628.269.653.207.7.161.617.117.529.591.1.717.367.43.807.269,1.21.251,1.191.1,1.47.143.671-.161.466-.493,1.487-.519.789-.2.555-.1.717.26.412.349.681.367.9.1.682-.107.61-.215,1.057.063,1.253.036.61-.081.734-.394.879-.519.87-.251.717.072.609.2" transform="translate(-1020.84 -1200.43)" stroke="#fff" stroke-linecap="square" stroke-linejoin="bevel" stroke-width="1" fill-rule="evenodd"/>
      <text id="Purandar" transform="translate(14.435 31.437)" fill="#fff" font-size="10"  font-family="OpenSans-Bold, Open Sans" font-weight="700"><tspan x="0" y="0"></tspan></text>
    </g>
    <g id="BaramatiTaluka" data-name="Baramati Taluka" transform="translate(1566.422 1363.399)">
      <path id="talId5" fill="#7DB8EC" title="Baramati Taluka" data-name="Baramati Taluka"  d="M1092.432,1271.459l.09-1.846-.036-1.146.241-1.524.556-1.578.053-.77-.179-.458-.313-.314-.314-.027-.4.144-.619-.081-.269-.278.072-.359.421-.018.511.045.564.171.646.1.761-.394.358-.332.637-.5.824-.242.86-1.246,1.093-.994.036-.931.1-.735.672-.9v-1.765l-.251-.888-.475-.833.824-1.416-.529-.672-.18-.672-.242-.851.439-2.5.161-.6.036-.475-.143-.421-.412-.654.045-.628.349-1.416v-.555l-.259-.475-.394-.313v-.4l.394-.574.779-1.129,1.451-1.631.673-1.389.313-2.025.2-1.567.161-3.432.878-.26.3-.52.278-.986.1-.752.278-.878.232-1.7.467-.753,1.488-.538.815-.018.851-.1.931-.009.985-.251.655-1.416.09-.9.089-1.613-.627-3.01v-1.3l.743.134.476.161.663-.215.6-.142.833.062.511-.1.448-.179.636-.277.985-.717.279-.26.609.082.367.07.4-.367.34-.484.493-.537.421-.117h.448l.645.017.547.619.519.717.126.314.116.34-.017.341.1.152.233-.027.3.09.171.17.08.331-.054.476-.25.627.179.438.188.305-.01.385-.045.277.045.206.475.53.269.331.071.3.09.412.869-.1,1.2.52.663-.286.6-.26.582-.278.51-.018.35-.268.394-.35.519.027.17.242.3.072.376-.26.3-.313,1.112.081.618-.342.494-.313.446.161.35.546.376.4.277.286.457.09.977-.046.5-.358.5-.045.036.421.053.781v.341l-.036.618h1.021l.583.116.277.395.1.788.252.3.465.054.87.107.555.1.52.089.556.108.43.493-.09.689.036.609.744.036.806.054.716.225.691.295.653.251.35.188.583.126.322-.314,1.04-.26,1.165-.089.708.1.645.214.637.323.484.233.3.018.743-.6.27-.467,1.433-.824,1.442-.474.619-.144.9-.1.7-.234,1.281-.761.823-.412.87-.538.448-.3.3-.393.1-.252.547-.09.313-.188.573-.3.322-.592.978.153.672.25,1.47.69,1.567.861.887.815.313.035.457.018.35.314-.206.331-.2.3.009.251.7,1,.43.887.089,1.72.045,2.456,1.335-.753,1.46-.368,1.551-.17,1.585-.009.726.268.823.278.682.117.834.152,3.7-.565,1.55.108.8.188.8.241.986.412-.18,1.4.062,2.931-.2,1.934-.985.027-.717-.1-.4-.134-.493-.117-.565-.053-.466.018-.662.108-.583.1-1.236.107-.637.17-.421.1-.493.2-.117.439.127.545-.162.566-.313.314-.377.215-.3.232-.493.843-.241,1.264-.287.859-.179,1.345-.269,1.863-.314,3.369.027,2.222,1.12,1.012.457.466.538.538-.028.439-.349.574-.537,1.263-.135,2.2-.019.672.305,1.541,1.183,1.783.6,1.72,1.03.906.206.411-.125,2.214.905,1.1.018,1.246-.089,1.245-.494.86-.592,1.129-.546.672-.439,1.022-.78,1.792-.34.556.17.51.071.313-.1.367-.242.421-.072-.09-.215-.1-.233-.035-.439.035-.278.036-.627.117-.484.216-.152.2-.027.259.054.332.036.493-.135.6-.278.421-.224.466-.215.385-.287.188-.277.126-.2.134-.188.207-.125.357-.18.26-.25.278-.314.055-.144-.009-.259-.117-.108-.1-.09-.143-.062-.215-.018-.3-.009-.215-.062-.252-.135-.215-.17-.207-.18-.206-.188-.179-.393-.3-.251-.09-.332.045-.2.161-.144.3-.125.376-.474.483-.476.261-.465.08-.466.108-.332.08-.287.08-.421.072-.3-.01-.422-.143-.259-.179-.458-.475-.386-.224-.359-.243-.268-.223-.368-.2-.241-.1-.448-.063-.3.081-.358.234-.2.285-.108.225-.044.278.018.269-.063.3-.117.152-.124.045-.207.009-.179-.036-.143-.08-.108-.062-.17-.152-.035-.116v-.5l-.046-.224-.1-.206-.447-.232-.3-.027-.377.027-.3-.01-.331-.134-.224-.206-.278-.574-.287-.779-.26-.421-.331-.511-.439-.323-.7-.179-.43.044-.86.152-.431.118-.206.178-.224.4-.2.359-.3.421-.564.3-.789.313-.4.152-.4.072-.286-.044-.753-.17-.905-.26-.511-.134-.439-.036-.323.044-.349.108-.376.152-.386.054-.583-.278h-.331l-.627.063-.377.1-.331.224-.341.206-.3.089-.269.009h-.295l-.4.036-.3.116-.788.43-.457.3-.34.288-.609.394-.7.2-.967.224-.485.135-.412.017-.457-.035-.286-.1-.287-.152-.287-.26-.144-.215-.117-.332-.179-.224-.17-.2-.358-.24-.394-.162-.368-.125-.313-.2-.161-.277-.17-.242-.331-.34-.717-.566-1.685-.321-.914-.162-.465-.08-.691-.323-.8-.368-.627.009-.4.062-.484.135-.511-.081-1.164-.511-.135-.036-.189-.063-.223.009-.4.063-.323.152-.385.242-.242.269-.126.036h-.331l-.224-.045-.3-.09-.538-.314-.4-.278-.143-.125-.206-.234-.34-.654-.332-.554-.178-.448-.081-.126-.09-.116-.152-.089-.108-.054-.216-.09-.277-.08-.331-.089-.1-.054-.054-.081-.036-.09-.053-.241-.144-.565-.054-.3-.162-.243-.268-.223-.179-.153-.269-.125-.565-.055-.359.153-.653.4-.628.279-.493.286-.206.18-.377.25-.34.108-.466.017-.306.018-.429.162-.484.3-.305.26-.251.412-.332.707-.5.96-.26.385-.2.1-.36-.027-.4-.028-.377.028-.3.054-.287.153-.6.565-.358.161-.224.036h-.278l-.233-.046-.3-.179-.161-.2-.117-.286-.107-.26-.241-.277-.458-.126-.618-.072-.492-.081-.43-.036-.475.126-.448-.036-.637-.179-.779-.333-.44-.133-.367-.144-.744-.188-.52-.314-.68-.673-.861-.356-.205-.153-.431-.394-.277-.233-.162-.161-.17-.295-.2-.377-.43-.5-.564-.287-.672-.17-.5-.152-.259-.036-.583.117-1.182.161-.377.2-.216.135-.457.063-.331.009" transform="translate(-1091.24 -1212.07)" stroke="#fff" stroke-linecap="square" stroke-linejoin="bevel" stroke-width="1" fill-rule="evenodd"/>
      <text id="Baramati" transform="translate(19.578 41.601)" fill="#fff" font-size="10"  font-family="OpenSans-Bold, Open Sans" font-weight="700"><tspan x="0" y="0"></tspan></text>
    </g>
    <g id="IndapurTaluka" data-name="Indapur Taluka" transform="translate(1651.569 1376.588)">
      <path id="talId58" fill="#7DB8EC" title="Indapur Taluka" data-name="Indapur Taluka"  d="M1196.906,1230.775l1.111-.009,1.075.035,1.344-.026,1.236.134,1.3.2.448.072.072-.5.17-.475.2-.565.466-.9.672-.815.331-.735.162-.573.116-.521.654-.116.672.116.717.072.735.045.906.152,1.174.2.788.046.609.08.752.1.4.08.368.1.331.125.153.2.178,2.409-.08,1.326v.852l-.385.081-.573.34-.511,1-.054.941.17.69.484.806.653.753,2.115,2.079,1.29,1.4,1.7,1.935,1.112.959.6.368.77-.045.879-.1,1.066-.2,1.174-.224.842-.117,1.174.045.87-.089.878-.126.385-.339.457-.449,1.99-1,.627-.17.816-.26.949-.117,1.057.009,1.918.342.717-.081.77-.378.717-.231,1.37-.252,1.291-.332.815.027.448.538.243.465.331.61.861.869,1.568.9,1.945.986,1.317.573.627.233.61-.018.932-.224.879-.671,2.24-.95,1.809-.887.574-.377,1.121-.609.654-.385.636-.359.573-.061.6.591-.09.663-.483,1.093-2.232,1.622-1.971,2.581-1.264,2.437-.6,1.022-.064.914.386.95.975,1.792.529.609.617.179.521-.081.7-.394.43-.314,1-.286.8-.116.726-.144,1.112-.189,1.7-.384.949-.565,1.29-1.11.592-.662.608-.744.52-.431.816-.269,1.872-.24,1.308-.063,1.237.251.5,1.611.09,2.474-.636,2.795-.96,3.379-1.075,2.258-.618.68-.394.986-.3,1.5.3,2.5.314.8.269.51.241.117.8.072.949.143,1.066.107,1.425-.026,1.757.017,1.245-.422.662-.161.94-.143,1.175-.027,1.209.268.7.573.35.332.234.475.134.6-.125.627-.691.923-.994.742-.735.082-.825.188-.5.358-.735.331-.843,1.031-.206.483-.125.6-.2,1.281-.25.4-.278.313-.485.126-.43.071-.681-.107-1.03-.045-1.174.144-1.407.306-.539.224-.806.34-.852,1-.448.655-.583.886-.089.736-.071.878-.224,1.048-.341.619-.465.6-.932.529-2.105.923-.771.341-.744.385-.664.573-.439.878-.332.87-.2.5-.636.924-.565.878-.547.761-.95,1.049-.654.779-.269.465-.26.646-.4,1.362-.491,1.317-.153.627-.017.26.044.349.127.242.242.225.313.215.386.206.493.314.609.5.394.358.269.394.3.377.287.188.4.1h.457l.645-.07.779-.2,1.165-.466.3-.376.2-.269.188-.277.25-.476.189-.448.277-.466.116-.421.125-.493.188-.843.091-.429.116-.323.377-.349,1.075-.4.322-.071.368-.036.565.062.5.144.663.314,1.138.582.26.1.385.116.323.027.287-.063.279-.161.215-.16.215-.359.151-.412.108-.645.224-1.308.1-.385.1-.386.089-.3.126-.287.278-.323.278-.242.278-.081h.556l.994.3.368.215.25.27.277.528.279.923.179.743.233,1.416.277.654.189.26.278.269.349.206-.009.215-.34.125-.305.089-.349-.044-.914-.421-.475-.171-.4-.045-.322.054-.314.153-.223.349-.153.358.045.205.125.172.152.2.3.242.349.135.439.152.34.071.331.1.341.2.152.287.117.4-.1.447-.153.323-.493.475-.771.277-.331.144-.645.439-.386.851-.2.52-.215.322-.233.179h-.645l-.367-.134-.251-.332-.5-.645-.232-.233-.287-.179-.43-.09-.636.054-.725.341-.8.314-.394.143-.368.134-.26.242-.072.644.341.682.313.3.286.233.287.2.269.27-.018.313-.26.448-.243.215-.411.323-.529.161-.189.044-.3.162-.277.206-.251.162-.268.153-.3.071-.215-.036-.439-.152-.215-.2-.233-.25-.726-.717-.385-.3-.386-.323-.258-.179-.466-.018-.476.09-.232.142-.349.2-.252.206-.358.448-.117.431.072.43.108.341.26.286.377.395.214.188.314.376.2.323.125.332v.375l-.215.3-.216.046h-.358l-.52-.135-.762-.269-.421-.124-.349-.027-.672.509-.395.35-.385.4-.3.448-.279.313-.377.161-.421.036-.43-.1-.17-.126-.116-.161-.17-.726.116-.448-.009-.467-.063-.313-.044-.322-.287-.125-.358-.081-.349.009-.287.01-.359-.108-.332-.152-.457-.171-.412-.17-.385-.107-.681-.026-.68-.179-.646-.225-.529-.224-.421-.162-.824-.126-.386-.017-.466.008-.448.009-.519.046-.467.044-.359.063-.493.062-.779-.277-.457-.2-.413-.331-.331-.243-.4-.215-.645-.152-.842-.072-.367-.044-.3-.117-.135-.188-.008-.224.062-.242.082-.287.116-.367.053-.564-.027-.35-.054-.251-.134-.206-.135-.134-.278-.225-.224-.188-.26-.17-.34.027-.34.072-.395.089-.384-.009-.664-.161-.583-.215-.439-.215-.3-.161-.4-.125-.34-.045-.672.027-.645.072-.717.144-.269.3-.457.332-.394.358-.251.216-.268.224-.287.089-.242-.107-.3-.206-.412-.216-.268-.259-.628-.368-.484-.08-.367-.071-.412-.027-.429-.045-.341-.143-.134-.3-.179-.5-.323-.565-.089-.054-.179-.08-.377-.054-.466-.027-.5.135-.43.276-.557.547-.654.224-.34.072-.422-.026-.456-.109-.349-.089-.179-.171-.118-.25.01-.215.009-.287.117-.448.341-.6.421-.726.9-1,.439-.341.439-.233.171-.214.143-.4.071-.86.027-.394.153-.762.385-1.174.1-.339.026-.243-.108-.269-.142-.214-.3-.207-.323-.108-.394-.071-.367-.055-.421-.044-.645-.215-.484-.135-.359.035-.421.189-.449.295-.331.215-.395.153-.349.008-.251-.08-.332-.116-.3-.278-.081-.466-.179-.726-.511-1.361-.529-.762-.171-.188-.295-.242-.17-.206-.17-.08-.3.009-.26.044-.278.2-.242.215-.2.3-.134.367.008.341.117.412.116.421.036.412-.393.376-.26.133-.269.109-.26.081-.313.089h-.627l-.341-.107-.206-.161-.188-.2-.171-.215-.161-.322-.349-.52-.422-.537-.367-.269-.233-.116-.358-.09-.439-.036-.314-.018-.349-.036-.332-.153-.3-.268-.681-.958-.313-.351-.278-.312-.233-.26-.25-.206-.35-.189-.421-.045-.582.117-.493.27-.313.178-.34.225-.322.278-.368.242-.242.188-.2.072-.187-.036-.259-.08-.253-.134-.153-.278-.053-.314-.027-.3-.027-.242-.045-.214-.1-.243-.206-.17-.286-.1h-.663l-.537.009-.465-.134-.779-.386-.521-.242-.179-.053h-.215l-.269.036-.26.1-.493.3-.636.17-.368-.125-.34-.153-.385-.224-.349-.144-.2-.269-.278-.591-.053-.1-.1-.2-.207-.18-.169-.071-.3-.064-.351.108-.161.063-.3.063-.466-.009-.43-.188-.2-.268-.188-.467-.205-.529-.243-.752-.144-.824v-.475l-.126-.5-.259-.367-.189-.152-.277-.063-.484-.036-.225-.054-.259-.108-.3-.161-.287-.18-.287-.188-.349-.269-.366-.368-.332-.368.242-.421.1-.368-.071-.313-.171-.51.34-.556.78-1.793.437-1.021.548-.672.591-1.13.493-.86.089-1.245-.017-1.245-.905-1.1.126-2.213-.207-.412-1.03-.906-.6-1.721-1.183-1.783-.3-1.541.018-.672.135-2.195.538-1.264.349-.573.027-.439-.538-.538-.457-.465-1.12-1.013-.027-2.222.314-3.368.269-1.865.179-1.344.286-.859.242-1.264.493-.841.3-.234.376-.215.314-.315.161-.564-.125-.547.117-.439.492-.2.421-.1.637-.17,1.236-.107.583-.1.663-.108.466-.018.565.053.492.116.4.135.717.1.986-.027.2-1.936-.062-2.929.18-1.4" transform="translate(-1186.01 -1225.98)" stroke="#fff" stroke-linecap="square" stroke-linejoin="bevel" stroke-width="1" fill-rule="evenodd"/>
      <text id="Indapur" transform="translate(23.431 45.412)" fill="#fff" font-size="10"  font-family="OpenSans-Bold, Open Sans" font-weight="700"><tspan x="0" y="0"></tspan></text>
    </g>
    <g id="HaveliTaluka" data-name="Haveli Taluka" transform="translate(1458.161 1294.081)">
      <path id="talId57" fill="#7DB8EC" title="Haveli Taluka" data-name="Haveli Taluka"  d="M996.071,1165.026l.286-.4.171-.439.191-.4-.007-.583.012-.377-.152-.231-.562-.96.523-.932.346-.349.377-.421.188-.395.1-.653-.261-.341-.978-1.336-.2-.645-.523.153-.522.377-.882.143-.751-.206-.817-.3-.734-.3-.311-.637-.016-.574v-.735l-.474-.438-.8.062-.506.064-.457-.2-.441-.385-.376-.43-.457.448-.26.339-.459-.178-1.175-.851-.409-.412-.2-.663-.458-.332-.646-.169-.041-.17-1.045-.556-.122-2.644.229-1.371v-1.872l.261-.107.6.1.4-1.631.04-.359.172-.447.105-.511.188-.717.719-.3.2.028.6-.09.319.171.449.349.433.323.833.251.605.036.294-.341.18-.662.049-.6.351-.591.294-.484.294-.529.482-.68.474.045.326.3.368.349.384.117.408-.187.326-.377.1-.332.252-.959-.008-1.146.18-.6-.016-.583.53-.089.949.51.514.475.49.341.65.635.358.709.3.959.135.537.393.421.395.538,1.192,1.694.421.385.529.134.3-.08.493-.215.457-.2.556.143.179.188.108.547.081.582.027.448.215,1.417.215.376.6-.063.466-.224.52-.224.869-.125.788.054.753.2.529.09.529-.045,1.738.037.394.626.349.655.681.125.457-.395.286-.358.457-.422.43-.287.377-.053.654.242.753.413.475.483.233.413.332.339.322.045,1.138.171.573.2.439.457.26.681.3.655.394.546.6.753.681.743h.672l.341.179.43.359.51.368.412.17.511-.036.359-.135.762-.4.421-.349.5-.556.332-.474.61.027.2.232.045.368-.018.475-.009.6.1.815.716,1.013.511.314.681.116.771.34.4.242.654.215.529.179.619.3.242.3.089.143-.018.664-.474.554-.26.414-.314.457-.09.4.189.359.331.224.457-.072.717-.421.95-.69.762-.663.376-.626.332-.6.09-.519.036-.771-.018-1.21-.18-.457-.493-.323-.349-.215-.162-.3.054-.475.349-.663.287-.3.528-.143.413-.126.3-.233.242-.331-.144-.485-.251-.627-.439-.4-.188-.251-.126-.394.027-.556.475-.4.528-.152.457.188.17.143.206.412.135.3.52.547.492.843,1.03.627.681.233.735.1.789.026,1.8.152,1.424.179,1.425.376.762.224.707.529.4.457.394.538.654.914.753.994,1.173,1.012.815.609.314.306.26.851.143.43.556.243.735-.1.851-.736.609-.734,1.335-.063,2.043.8,1.048.736.762.456.474.421,1.291.458.833.672.95.914.967.609.9.556.655.375.762-.116.645-1.165.565-.815.609-.476,1.111-1.039.914-.152.78.313.833.314,1.111-.018.735.027.349.2.717.152-.036,1-.116,1.228-.144,1.012-.2.583-.305.547-.69.78-.932.637-.421.341-.412.214-.958.332-.869.878.358,1.962.018,1.747-.116,1.335.161,2.7v.538l.717.529.788.42.538.377.26.734-.224.618-.34.752-.234.395.036.314.107.78-.34,2.061-.161,1.174-.08.492-.619.261-.493-.135-.833-.161-1.112-.117-.689-.009-.8.341-.08.619.063,1.272-.2.538-.242,1.03-.2.807-.215.474-.655.143-.717-.053v1.845l.439,1.479-.027,1.756-.08,4.891-.609-.2-.717-.072-.869.251-.878.519-.735.394-.609.081-1.255-.036-1.057-.063-.609.215-.68.108-.905-.1-.681-.368-.412-.35-.717-.26-.556.1-.788.2-1.488.52-.466.492-.672.162-1.47-.143-1.192-.1-1.209-.25-.806-.27-.367-.43-.1-.717-.528-.592-.618-.116-.7-.161-.654-.206-.627-.27-.3-.286-.331-.215-.242.161-.913.521-.691.412-.8,1.156-.555,1.084-.556.52-1.389.1-1.057.035-.672.143-1.863.87-2.4-.457-.914-.968-.95-.278-1.228-.061-.761.143-2.93-.026-.958.635-.708.359-.9.027-.753-.107-.9-.153-1.076-.324-.51.019-.475.286-1.236,1.784.224.869.439.959-.09.788-.072.672-.108.9-.3.7-.2.457-.153.637-.941.85-1.371-.538-.986-.376-.52-.34-.672.4-.493.25.1-.834.277-1.165.1-.833.2-.422.789-.42.717-.512.376-.493.117-.3.108-.609-.386-.5-.511.027-.34.529-.538.045-.511-.6-.493-.152-.26.376-.3.412-.646-.215-.385-.833-.932,1.146-2.562.851-.036.816.1.914.4.932,1.407,1.55,1.165.878.7.753.313.716.734,2.813.816,1.066.278.6-.493.653-.52.592-.52.484-.429.376-.3.439-.206.725-.153.161-.492.081-.458-.6-.143-.771-.018-.439-.117-.456-.224-.3-.439-.556-.77-.429-.493-.323-.287-.637.143-1.164-.52-.636-.171-.358-.278-.439-.681-.51-.179.251.027.761-.081.529-.457.161-.735-.1-.457-.116-.215.169-.108.467.162.376.116.555.009.458v.411l.036.6-.26.376-1.424.448-1.255,1.433.018.493.027.583-.664.573-.816,1.165-.609.52-.735.475-.392.394-.327.278-.735.109-.033.313-.2.573-.849-.117-.147-.1.016-.994-.1-.672-.407-.655-.377-1.03-.735-.664-.572-.527-.637-.52-.621-.438-.588-.037-.458.341-.408.475-.2.395-.751.914.033.717.31.735.262.689.294.538-.278.771-.474.2-.9.439-.392,1.273-.065,1.029-.294.5-1.03-.026-.588-.234-.669-.395-.589-.367-.408-.25-.278-.735.685-.636.147-.556.13-.976.081-.735-.293-1.165-.473-.932-.148-.385.049-1.622.245-.869v-.8l-.277-1.209.082-2.124-.294-.717-.556-.833.474-1.353.1-.708-1.209-.224-.246.081-.326.582-.2.753-.834.036-.506-.322-.228-.771.18-.932.082-.8.18-1.049.228-1.012-.228-.609-.556-.063-.425-.081-.506-.216-.719.019-.375.278v.572l.195.423-.146.671-.425.493-.491.439-.326.439-.18.492-.343.949-.408.654-.523-.215-.359-.967-.05-.485-.13-.9-.049-.619-.115-.769-.44.179-.49-.044-.572-.162-.572-.538-.424-.054-.719.134-.311-.018-.539-.313.016-.833-.262-1.076-.294-.788.115-.556.392-.734,1.683.887,1.159.4,1.145.135.491.017.554.1.442-.313.114-.376-.163-.3-.294-.448-.164-.5.132-.512.441-.294.7-.584,1.617-1.227.409-.636-.1-.5-1.177.125-.834.457-.6.429-.784.6-.555.555-.507.234-.718-.252-.376-.357-.523-.6-.2-.268-.425-.1h-.555l-.212-.161-.065-.476v-.519l-.114-.395h-.311l-.556-.224-.506-.2-.31-.637-.245-.51.311-.68.719-.574,1.111-.618,1-.475.946-.332.638-.161,1.078.135.915-.036,1.258-.135h.768l.539-.026,1.029-1.488,1.078-1.192.867-.233,1.176.1,1.013.161.767.171.655.34.342-.135,1.274-1.218.752-.116.343-.162-.131-.886,1.029-.574.278-1.021.1-.547.833.313.343.341.326-.044.246-.3.637-.518.768.6.62.341.637.233h.392l.425-.143.506-.215.621-.457.585.3.252.439.057.994,1.487.063.493.117.932.143.179.251.332.349-.385.412-.475.377-.646.412v.116l.153-.036.179-.134.421-.107.359-.152.116.018.09.125.376.116.448.036.242.852.108.8.215.422.08.448-.672.26-.528.941.214.717,1.085.1.9-.036.026.511.054.233.412-.242.153-.484,1.774.027-.538-1.918-.734-.34.026-.18,1.3-.187.914-.422.179.251-.009.412.25.143.735-.375.726-.556.3-.377.609.044.134.306.323-.009.027.313h.672l-.1.278-.4.492-.556.8,1.308.412-.17.179-.537.449-.206.17.071.161-.018.215.108.161.116.179v.188l.045.251.143.144.537.17.278-.3.171.054.152.224.152-.027.1.268.179.323.161.134.072.367.2.3.645.045.287-.386.583.234.242.385.386-.108.573-1.119.2-.125.341.3.439.009.331-.331.206.395.108.386.188.923.126.242.143-.592.063-.393.162-.744.815-.519.878-.027-.027-.861.188.108.43.018.412,1.094.86-.188-.412-.87-.242-1.093.143-.9.493-.206.538-.3.474-.385.78.134,1.622-.618h.26l.412.161.243.009.16.3.206.179.206-.044.268-.457.224-.4.287-.126,1.344-.251.689-.063.359-.617.224-.448.089-.42.081-1.676.43-1.031.34-.807.126-.411.206-.511,1.066.134.269-2.025-1.111-.251-.564.251-1.031.26.206-.663.215-.395-.017-.564-1.12-.09-1.291-.108.081-.78.027-.707.036-.5.376-.528,1.389-.17.108-.2.905.5,1.236.062.3-2.276.4-.51.5-.923.242-.3.242-.107.036-.224,1.263.323.34.188.422.51.269-1.595.036-.932-.1-1.138-.25-.994.224-1.362.582-.026.063-.314.555.081.018.16,1,.028,1.38.34.95-.062.018-.26.968.027.4-1.9.394-.824,1.5-1.111.788-.645-.036-.358-.215-.349-.072-.762-.448-.547-.341-.063-.376-.573-.932-.843-.744-.635-.914.564-1.012.628-.735.134-.627.269-.242.089-.654.431-.367.179-.7.09h-.8l-.483-.529-.6-.573-.807.054-.063,1.209-.027.645-.412-.008-.107.457-.009.045-.3,1.218-.027.243-.17,1.308.035.331-.394,1.325-.242.189-.081.071-.779.52-.421.43-.322-.224.4-.287-.055-.152-.412-.162-.215-.608.34-.144-.035-.439-.565-.08.045-.682.484.107-.144-.6-.107-.887.08-1-2.491-.654-.591.062-.359-.367-.788-.081-.771-.009-1.684.009-.08-.537v-.43l-.072-.511-.206-1.031-.251-1.657-3.1-.646-.654,1.766-.673,3.279-2.563-.95-.574.986-.4,1.729-.789.045.117.617-.143.019-.591.188-.431.233-.278.707-.224.565-.332.3-.35.134-.475.054-.591-.179-.556-.286-.3-.018-.206.009-.117.01-.278.125-.4.224-.224.528-.349.422-.376.036-.484-.116-.69-.072-.941.089-.6.152-.618.036-.081-.063-.976-.2-.413-.027-.286.036-.466.18-.287.233-.537.555-.207.126-.26-.018-.268-.071-.26-.233-.018-.242.107-.269.206-.242-.009-.314-.053-.279-.224-.133-.807-.6-.564-.483-.23-.547-.187-.807-.266-.51" transform="translate(-968.86 -1134.48)" stroke="#fff" stroke-linecap="square" stroke-linejoin="bevel" stroke-width="1" fill-rule="evenodd"/>
      <text id="Haveli" transform="translate(66.839 46.92)" fill="#fff" font-size="10"  font-family="OpenSans-Bold, Open Sans" font-weight="700"><tspan x="0" y="0"></tspan></text>
    </g>
    <g id="DaundTaluka" data-name="Daund Taluka" transform="translate(1554.216 1309.004)">
      <path id="talId2" fill="#7DB8EC" title="Daund Taluka" data-name="Daund Taluka"  d="M1086.906,1160.581l.672.116.565-.089.744-.126.564-.269.457-.547.206-.429.43-.879.5-.26.681-.295.3-.144.565-.628.063-.6-.2-.492-.18-.332-.268-.753.089-.411.359-.485.9-.1.662-.054.475-.126.743-.663.583-1.335.645-.484.493-.027.224.2.43-.153.492-.582.286-.268.341.285.5.171.555.036.376-.108.395-.135.5-.384.744-.8.484-.144.449.206.207.493.215.69v.511l-.036.627-.045.5.018,1.138-.359.789-.583.519-.537.475-.556.448-.484.305-.439,1.344.027.51.2.43.3.3,1.273.494.672.009.573-.2.341-.3.494-.654.34-.386.537-.618.466-.421.376-.116.493.26,1.452,1.345.788.466.349.349-.1.5.018.556.35,3.628.69,1.695.68,1.245.367,1.907.6.583,1.452.5.824.126.6.188.411.422.224.52.189.941.52.332.484.205.743-.035.681-.35.582-.448.771-.5,1.872-.7.78-.089,1.318-.18,1.156-.179.69-.52.609-.072.565.018.878.368.493.277,1.3.645,1.21.617,1.111.7,1.164,1.182.162,1.344.2,1.128.151.655.251.377.6.3.86.314.4.09.644.3,1.684,1.442.9.332.672.072.447-.153.386-.26.188-.394.135-.448.027-.466-.117-.331-.206-.3-.072-.421.3-.878.824-.439.457-.081.833.242,1.04.6,1.022.592.34.448.179.492.063.43.26,1.488.529,1.093.044.959.027,1.165.026,1.505.019.278.69.7.465.3.52.144.583-.1.448-.287,1.282-.968.708-.574.832-1.084.592-.636.977-.108.546.17.3.2.3.42.313.458.645.976.672,1.066.95.825.671.466,1.031.555.556.574.789.968.2.3.421.691.521.269.653.251.726-.009h.771l1.361.33h.9l1.058.081.9.189.564.251.44.619.653.734.717.726.726.547.654.393.877.305.672.108h.636l.726-.242.591-.69.78-.476.529-.206.681-.134.466.009.466-.035.412-.126.3-.215.287-.412.072-.51-.161-.385-.288-.27-.457-.161h-.564l-.529.081-.644-.341-.807-.761-.134-.3-.009-.4.054-.484.151-.726.171-.583.583-.913.233-.107.493-.278.816-.26.94.081,1.048-.331.887-.367.547-.377.529-.377.484-.456.654-.332.816-.315.34.028.663.152.537.288.421.5.466.564.86.744.252.314.77.977.43.456.521.466.062.5-.233.921-.171,1.193-.126,1.075-.269,1.273-.017,1.917-.107,1.075-.278.717-.672.986-.215,1.227v.592l.107.689.314.547.368.367.466.4.7.734.152.843.09.752.153.618.528.475.556.233.672.207.771.143,1.3.054.592-.09.448-.126.474-.341.592-.537.958-.744,1.111-.448.779-.278.646-.072.8.547.977.52,1.11.519.637.932.26.6.251.573.4.341.833.573.547.529-.07.761-.682,1.29-.851,1.568-.985,1.174-.17.457-.116.321v.386l.179.341.563.466.358.34.422.448.779.376.565.287.681.288.868.17,1,.09.725.17.682.323.439.6-.072.51-.206,1.166,1.291,1.684.645.771.376.333.619.537.233.592.008.671-.6.86-.628.646-.636.349-.484.206-1.191-.17-.806-.234-1-.376-.689-.332-.824-.269-1.076-.3-.341.071v-.851l.08-1.326-.179-2.411-.151-.2-.332-.126-.366-.1-.4-.08-.752-.1-.609-.082-.789-.045-1.174-.2-.9-.152-.736-.046-.716-.07-.673-.117-.654.117-.116.519-.162.574-.332.735-.671.815-.466.9-.2.564-.169.475-.073.5-.448-.071-1.3-.2-1.237-.135-1.344.027-1.075-.036-1.111.008-.986-.412-.8-.242-.8-.188-1.55-.108-3.7.565-.833-.152-.682-.117-.823-.278-.726-.269-1.586.009-1.551.17-1.46.368-1.335.753-.045-2.455-.089-1.721-.43-.886-.7-1-.008-.251.2-.3.206-.331-.349-.314-.457-.018-.313-.036-.888-.815-1.567-.859-1.47-.69-.671-.251-.977-.152-.323.591-.573.305-.313.188-.547.089-.1.251-.3.395-.448.3-.869.536-.825.412-1.281.763-.7.231-.9.1-.619.144-1.442.475-1.434.824-.269.465-.744.6-.3-.018-.484-.233-.637-.322-.644-.215-.708-.1-1.166.089-1.039.261-.323.312-.581-.125-.35-.187-.654-.252-.69-.3-.716-.224-.807-.054-.743-.036-.036-.61.09-.689-.43-.493-.555-.107-.52-.089-.556-.1-.869-.108-.466-.054-.251-.3-.1-.788-.278-.394-.583-.117h-1.021l.036-.618v-.341l-.053-.779-.036-.421-.5.044-.5.359-.977.045-.457-.09-.278-.287-.376-.4-.349-.545-.448-.162-.493.313-.619.34-1.111-.08-.3.313-.376.26-.3-.071-.17-.242-.521-.028-.393.35-.35.269-.51.018-.582.278-.6.259-.662.287-1.2-.52-.87.1-.09-.411-.071-.305-.269-.331-.475-.529-.045-.206.045-.278.009-.386-.188-.3-.179-.439.252-.628.053-.475-.08-.332-.17-.17-.3-.09-.233.027-.1-.152.017-.34-.117-.341-.126-.313-.519-.717-.547-.619-.645-.017h-.448l-.42.116-.493.538-.34.483-.4.367-.367-.071-.609-.081-.278.26-.986.717-.635.277-.448.18-.511.1-.833-.063-.6.144-.663.214-.475-.161-.744-.135-.045-.708-.152-.474-.242-.5-.52-.439-.511-.574-.278-.707-.9-.341-.395-.753.332-1.039.932-1.308.484-1.549.412-.744.117-.7-.753-.655-.655-.026-.492-.215-.313-.394-.7.081-.654-.045-.493-.448-.358-.762-.206-.815-.251-.2-.421.538-.134-.135-.341-.4-.592.206-.617.744-.278.7-.144.493-.735.555-.313-.268-.475-.761-.6.859.063-.52-.717-.233-.833-.09-.833-.134-.376.422-.556.072-.671.008-.879.09-.9.107-1.676.232-1.765.02-1.425.062-.179.457-2.5.376-.5-.3-1.015-.7-1.047-.251-.8.367-1,.538-.484.3-1.164.86-1.6.708.08-4.893.027-1.756-.439-1.478v-1.846l.717.054.654-.144.215-.474.2-.807.242-1.03.2-.537-.063-1.272.081-.619.8-.341.69.008,1.112.118.833.161.493.135.619-.26.081-.492.161-1.174.34-2.061-.108-.78-.036-.314.233-.395.34-.752.224-.617-.26-.736-.538-.376-.789-.42-.716-.529v-.537l-.162-2.7.117-1.335-.018-1.748-.359-1.962.87-.878.959-.332.412-.215.421-.34.932-.636.69-.78.3-.547.2-.582.143-1.013.116-1.227.036-.995" transform="translate(-1076.53 -1149.29)" stroke="#fff" stroke-linecap="square" stroke-linejoin="bevel" stroke-width="1" fill-rule="evenodd"/>
      <text id="Daund" transform="translate(35.784 48.996)" fill="#fff" font-size="10"  font-family="OpenSans-Bold, Open Sans" font-weight="700"><tspan x="0" y="0"></tspan></text>
    </g>
    <g id="Pune_CityTaluka" data-name="Pune_City Taluka" transform="translate(1480 1318.108)">
      <path id="talId61" fill="#7DB8EC" title="Pune_City Taluka" data-name="Pune City Taluka" d="M997.606,1187.566l.506-.161.732-.644.216-.681.739-1.784.457-1.389.34-.654-.789-1.022-.313-.788-.917-.582-1.33-.135-.857-.071-1.645-.207h-.654l-.522-.2-.246-.573.7-.591,1.112-.439.637-.457.49-.421.588-1.066-.293-.538-.474-.492-.1-.762.294-.725-.147-1.371-.278-.815-.131-.78-.037-1.577-.111-.9.115-.52,1.193.3.8.027.441-.081.367.207.119.116.265.511.188.806.229.547.565.484.806.6.224.135.054.277.009.313-.207.242-.107.269.018.242.26.233.269.072.26.017.206-.126.537-.555.286-.233.466-.18.287-.036.412.027.977.2.081.063.618-.036.6-.152.941-.09.689.072.484.116.376-.035.349-.421.225-.529.4-.224.278-.126.116-.008.206-.009.3.018.556.287.592.18.475-.054.35-.135.331-.3.225-.564.278-.708.43-.234.591-.189.144-.017-.117-.618.788-.045.4-1.729.573-.985,2.563.949.672-3.279.654-1.765,3.1.646.251,1.657.206,1.031.072.51v.43l.081.538,1.684-.008.771.008.789.08.359.367.591-.062,2.491.654-.08,1,.107.887.143.6-.484-.108-.045.681.564.081.036.439-.341.144.215.609.412.161.053.153-.4.286.322.224.421-.431.78-.52.081-.071.242-.187.394-1.327-.036-.331.171-1.309.026-.242.3-1.218.009-.045.108-.457.412.008.027-.645.063-1.21.806-.053.6.574.483.527h.8l.7-.089.367-.179.655-.431.242-.089.627-.269.735-.134,1.012-.628.914-.565.744.637.932.843.377.573.34.063.448.546.071.761.216.35.035.359-.788.645-1.5,1.111-.394.824-.4,1.9-.968-.027-.018.26-.949.063-1.38-.34-1-.028-.018-.161-.556-.08-.063.313-.582.027-.224,1.362.251.995.1,1.138-.036.932-.268,1.594-.421-.511-.341-.188-1.263-.323-.036.224-.242.107-.242.305-.5.922-.4.511-.3,2.277-1.237-.064-.9-.5-.107.2-1.389.171-.376.529-.036.5-.027.708-.08.779,1.291.108,1.12.09.017.564-.215.395-.206.663,1.031-.26.564-.251,1.112.251-.269,2.025-1.067-.135-.206.511-.126.411-.34.806-.43,1.031-.081,1.675-.089.422-.224.447-.358.619-.69.063-1.344.25-.287.125-.224.4-.269.458-.206.044-.206-.18-.161-.3-.243-.009-.411-.162h-.26l-1.622.619-.78-.135-.475.385-.537.3-.492.207-.144.905.242,1.092.412.87-.86.188-.412-1.093-.43-.017-.188-.108.027.859-.878.027-.816.52-.161.743-.063.4-.143.591-.125-.242-.188-.923-.107-.385-.206-.394-.332.331-.439-.009-.34-.3-.2.125-.574,1.12-.386.108-.242-.385-.583-.233-.287.385-.645-.045-.2-.3-.072-.368-.162-.134-.179-.322-.1-.268-.152.027-.153-.224-.17-.054-.278.3-.538-.17-.143-.144-.045-.251v-.188l-.116-.18-.108-.161.018-.215-.072-.162.206-.17.537-.448.17-.179-1.308-.412.555-.8.4-.493.1-.278h-.672l-.027-.313-.322.009-.135-.3-.609-.045-.3.376-.725.556-.734.377-.251-.144.009-.412-.179-.251-.914.422-1.3.188-.027.18.734.339.538,1.918-1.774-.026-.152.483-.413.242-.053-.233-.027-.511-.9.036-1.084-.1-.215-.716.528-.941.672-.26-.08-.448-.215-.422-.108-.8-.242-.851-.448-.036-.376-.118-.089-.125-.116-.018-.359.152-.421.108-.179.134-.152.035v-.116l.645-.411.475-.377.385-.412-.332-.349-.179-.25-.932-.144-.493-.116-1.486-.063-.057-.995-.254-.44-.584-.3" transform="translate(-993.326 -1161.07)" stroke="#fff" stroke-linecap="square" stroke-linejoin="bevel" stroke-width="1" fill-rule="evenodd"/>
      <text id="Pune City" data-name="Pune City" transform="translate(14 15.892)" fill="#fff" font-size="10" font-family="OpenSans-SemiBold, Open Sans" font-weight="600"><tspan x="0" y="0"></tspan><tspan x="0" y="12"></tspan></text>
    </g>
  </g>
</svg>
