<svg xmlns="http://www.w3.org/2000/svg" width="180.442" height="300.849" viewBox="0 0 180.442 300.849">
  <g id="RaigadDistrict" data-name="32 Raigad" transform="translate(-2390.641 -206.426)">
    <g id="_293_Panvel" data-name="293 Panvel" transform="translate(2412.601 209.274)">
      <path id="talId293" fill="#7DB8EC" title="Panvel Taluka" data-name="Panvel Taluka" d="M841.422,1076.735l2.19-1.221.194.063.244-.063.255-.292.183-.585.282-.7.116-.929.22-.949.032-.793.24-.375-.047-.553-.01-.428.027-.521.164-.585-.067-.51-.025-.522,0-.761-.3-.939-.927-1.492.513-.512.255-.709-.541-.782-.251-1.283.228-2,.489-5.019.28-.48,2.234-1.012,1.284-1.491.828.042.976-.386,2.756-.6.908-.167.924.251.627.448.281.961.99.188,1.193-.606.627-.313.573.385,1.109.188,1.017-.261,1.07.146.815-.156,2.276-3.318.764-.417.8.573.28,1.22,1.147,1.262,5.014.939.362-.4.7-1.575,1.42-1.127.748-.459.735-.2.749.062.988.73.654,2.3,1.107,1.565.546,1.272.521.71,2.778,2,.867,1.564.731,1.878.841,1.033,1.723,1.221.763-.24.24-.25,1.524.272,1.444-.344,1.245,1.784.67,1.606.453,1.419.158,1.44.709.552.334.981-.629,1.179.413,1.011.137.845-.315,1.315-.375.886.139.647-.533-.052-.158.428-.177.48-.493.564-.591.552-.373.417-.69.219-.375-.188.119-.574-.453.271-.266.323-.069.95-.375.292-.4.084-.373-.48-.453-.417-.561-.261-.69-.042-.482-.083-.246-.324-.2-.583-.178-.4-.442-.3-.158.334.127.376.434.355.127.385-.255.522-.275.365-.138.449-.03.552.01.47-.542.657-.7.115-.3.2-.472,1.022-.433.376-.4.073-.217-.271-.344-.271-.482-.417-.1.813.069.532-.029.521-.168.438-.245.448-.031.386.5-.062.531.02.089.511.166,2.129,1.024.031.522.1.236.365-.059.449v.584l.089.7-.581,2.233-.63.907-.374.637-.325.448-.532.167-.442.083H882.7l.031.563-.217.387-.207.312-.315.25-.2.219-.1.449-.3,1.012-.039.532.029.355-.039.4-.286.261-.719-.041-.453-.031-.384-.083-.226-.376-.364.073-.433.365-.315.282-.464.073-.354-.4-.217-.573-.275-.689-.02-.709.109-.825.009-.657-.246-.4-.266-.24.246-.417.2-.209.06-.531-.374-.187-.935.177-.61.073-.532.312-.324.376-.237.543-.3.5-.236.574-.2.459-.069.345-.255,1.94-.188.689-.3.428-.394.4-.138.595-.187.626-.109.584.178.648.639.886.02.751.03.6.059.688.138.427.335.5.374.448.433.626.895,1.784.65.824.394.615.276.626.423.865.57,1.252.246.835.2.552-.031.585-.118.48-.069.594.148.605-.01.657.088.26.541.2.63.6.227.312.452.23.355.219.353.272.2.094-.355.428-.265.4-1.143.533-.521.458-.6.261-.511.24-1.054.679-.109-.135-.325-.323-.226-.678-.168-.668-.315-.6-.433-1.012-.315-.48-.473-.406-.373-.386-.552-.146-.788-.031-.522.094-.492.188-1.053.532-.344-.063-.612-.4-1.181-.73-.757-.417-1.025.23-.708.312-.571.24-.728-.052-.955-.125-.621-.219-.295-.155-.187-.689-.206-.741-.187-.626-.158-1.106-1.152-.073-.847-.063-.492-.135-.611-.22-.521-.251-.5-.094-1,.627-.433.386-1.506.782-.364.354.01.366.147.678-.009.773-.768,1.356-.552.344-.473.3-.276.083-.118-.771-.571.073-.434.312-.334.094-.532-.292-.2-.438-.461-.074-.3.219-.334.283-.621-.293-.137-.23-.078-.532-.206-.208-.5-.136-.236.02-.247.272.187.386.188.209.158.375-.138.312-.276.094-.374-.1-.424-.552-.69-.3-.531-.157-.217-.646-.177-.271-.384-.208-.147-.261-.118-.407-.059-.615v-.574l.384-.751.788-.083.492-.271.542-.365.285-.355.04-.6.354-.366.571-.01.256-.073.443-.042.561-.1.335-.24.521-.448.3-.418.148-.4.64-1.053.079-.867.3-.489.5-.721.757-.938,1.014-.949.739-.741.462-.605.63-.656.492-.481.946-.49.865-1.012.779-.824.354-.919-.335-.949-.7-.907-.483-.366-.935-.23-.877-.125-1.092-.292-1.5-.8-1.663-.584-.729-.709-.5-1.074-1.684-1.826-.8-.439-1.161-.021-.867.042-1.2.115-1.122-.157-.049-2.389-.935-.386-.394-.418-.177-.594v-.375l-.472-.063-.482.178-.324.188-.257.479-.049.615-.236.533-.236.657-.267.637-.58,2.17-1.309,1.721-.827.449-.483.042-.669-.209-.275-.386.029-.667.2-.375.345-.877.246-.573.118-.438-.108-.449-.393-.469-.286-.48-.059-.459v-.229l.157-.813-.384-.115-.62.2-.424.407-.61.615-.7.48-.443.177-.621.042-.737-.084-.493-.4-.384-.563-.61-.481-1.349-.959-.837-.491-1.624-.251-.571-.167-.368-.292,0-.052.017-.354v-.344l.022-.2.027-.136,0-.01.011-.011h.019l.02.011.011.01-.039.178-.007.052v.1l.363-.125.036-.042.043-.021.092-.031.073-.042.093-.082.047-.074,0-.177.021-.146.008-.188.006-.083-.014-.031-.021-.021-.063-.063-.083-.073-.069-.073-.054-.083-.046-.084-.021-.052-.015-.052-.026-.062-.014-.032-.01-.01-.016-.021-.011-.01.02-.031.027-.032.025-.052.028-.042.023-.031.02-.031.051-.084.041-.074.054-.083.044-.062.032-.031.028-.031.027-.032.275-.136.027.063.016.021.023.042.023.021.053.01.036-.01.037-.011.031-.02.023-.01h.025l.041.03.041.032.062.063.072.042h.11l.034-.021.014-.011,0-.031-.048-.074-.008-.02.016-.021h.022l.029.032.036.042.047.073.063.094.105.156.041.084.039-.021.186.271-.032.031.151.23.1.2.135.094.131.1.169.125.1.073.242.022,0-.042.26-.094h.026l0-.01.022-.01.007.01.021-.01.026-.031.01-.021.012-.021h.02l.005.011v.01l-.016.021,0,.052.2.115.057.1h.063l.107.031.174.094.168.188.061.084.123.219.123.021.333-.053.682.063.557-.209.76-.7.086-.073.21-.375.008-.22,0-.177,0-.074.027-.072.034-.031.041.02.263.532.319.1.367.167h.192l.825-.052.267-.053.32-.1.584-.229.7-.47.1-.418-.074-.2.027-.042.259-.073.032-.042,0-.042.209-.167.108-.021.319-.052.269-.011.335-.052.264-.094.271-.156.324-.272.363-.312.109-.1.134-.209.133-.209-.028-.323-.021-.031-.011-.146.014-.063-.017-.178.054-.073.086-.083.048-.052h.055l.131.02.058-.041.185-.166.2-.293.045-.042-.017-.041.042-.167.036-.063.053-.062.058-.042.08-.042.129-.01.08.073.038-.01.064-.136.051-.01h.036l.035.021.151.208.207.146.193.167.418.094.1-.115.038-.021.039-.146-.013-.094-.015-.094.011-.23.055-.115.074-.073.222-.146.146-.229-.087-.125.02-.084.02-.021.034-.011.259.115.032-.01,0-.031-.292-.156-.008-.032.013-.021.029-.01.075-.137.065-.01.116.01,0-.052-.149-.01.011-.062.024-.1-.2-.052.012-.052.171.042.011-.136.041-.157.025-.021.072.063.05-.073-.084-.083.013-.011-.041-.031.017-.062-.029-.251-.241-.344" transform="translate(-823.801 -1047.67)"  stroke="#fff" stroke-linecap="square" stroke-linejoin="bevel" stroke-width="1" fill-rule="evenodd"/>
      <text id="293" transform="translate(29.59 30.008)" fill="#fff" font-size="13"  font-family="OpenSans-Bold, Open Sans" font-weight="700"><tspan x="0" y="0"></tspan></text>
    </g>
    <g id="_287_Karjat" data-name="287 Karjat" transform="translate(2479.739 207.158)">
      <path id="talId287" fill="#7DB8EC" title="Karjat Taluka" data-name="Karjat Taluka" d="M888.419,1079.2l.4-.084.375-.292.069-.949.266-.323.453-.272-.119.574.374.188.69-.219.373-.417.591-.553.492-.564.178-.479.158-.428.532.052-.138-.647.374-.887.315-1.315-.137-.844-.413-1.012.63-1.178-.334-.981-.71-.553-.157-1.44-.453-1.419-.669-1.606-1.244-1.784,1.715-2.879,1.6-1.4.479.228,1.35-.48.8.042.816.573h.667l.427.188-.364,1.231.454.46.577-.022.456-1.513.737-.115.854.188,1.03-.188.367-2.734-1.719-2.712.053-.5,1.366-.626,1.42-1.649.87-.605,1.166-.333,3.866-1.795,1.995-.24,2.966.178.723.374,2.021-1.022,1.151-.136.706.052,1.993-.6,2.379,1.063,4.237.626,1.968-.406,1.032-.814,2.018.187,1.014.346,2.933-1.054,2.283,1.106.811,1.272,1.863-.834,2.621-.167,1.739-.387,2.471.241-.566,1.231-.2.407-.124.312.062.177.147.365.005.293-.095.229-.158.177-.223.136-.067.114-.086.689-.123.584-.262.678-.143.449-.066.345-.005.26.076.313.1.209.043.208-.185.1-.138.062-.318.209-.47.271-.228.094-.076.2.048.293.047.26.076.261.091.282.1.521.053.282.08.261.052.23.157.178.281.021.242-.021.19-.032.4-.1.208-.063.419-.052.442-.208.48.146.072.2-.076.178-.2.125-.128.1-.158.125-.294.344-.409.907-.138.6.033.647.1,1.106.223.865.19,1.044.234.364.218.355-.1.156-.3.01-.29-.084-.381-.145-.214-.135-.262-.209-.166.094-.024.23.018.291.015.47-.028.084-.085.28-.182.46-.123.272-.138.23-.005.177.153.073.3-.041.309-.157.19-.188.286-.135.314.01.419.052.437.031.418.115.443.062.842-.271.9-.063.433-.042.208.084-.071.271-.156.219-.314.4-.186.334-.418,1.127-.253.49-.122.345v.324l.076.239.175.251.215.125.356.3.885.657.247.439.1.25-.09.323-.186.459-.228.3-.133.177,0,.167.09.167.309.177.342.386.266.167.253.239.3.177h.275l.257-.094.225-.094.213-.052.291-.01.147.093-.023.156-.119.262-.153.229-.151.2-.224.22-.2.146-.281.178-.789.8-.261.177-.162.312-.19.25-.333.532-.124.125-.361.032-.229.01-.253-.062-.3-.062-.143.041-.095.1-.043.116v1.022l-.076.292-.2.23-.171.177-.257.2-.532.177-.338.011-.257.1-.323.344-.186.356-.138.271-.175.772-.314.093-.29-.031-.168.125-.232.282-.3.376-.209.3-.157.156.019.261.009.25-.152.386-.309.585-.5.219h-.414l-.551-.073-.494-.125-.481-.157-.627-.178-1.089-.886-.614-.647-.617-.751-.48-.24-.428-.137-.461-.052-.3.209-.175.406-.148.3-.09.344-.009.417-.105,1.272h-1.24l-.923-.031-.87.011-.333.156-.386.324-.2.355-.156.469-.157.469-.1,1.232-.19,1.283-.247,1.054.047.3.281.2.076.574.053,2.691-.294.314-.323.3-1.1.355-.646.229-.428-.229-.152-.365-.4-.366-.4.052-.229.533-.018.4-.106.532-.3.375-.315.532-.741.532-.437-.094-.42.219.323.741.258.47.532.439.428.239.524.24.284.324.037.574-.019.406-.361.125-.372.011-.456.083.523,2.15-.057.771-.01.7.01.574-.209.521-.494.72-1.093,1.774-.409.667-.371.46-.438.457-.979.251-.952.313-.636.386-.952,1.316-.522.677-.3.511-.419.772-.171.188-.6-.7-.333-.449-.256-.5-.485-.293-.247-.2-.543-.125-.513.073-.229,1.472-.5,2.743-.146.8-.247,1.282.048.929.019.48-.847.2-.209.239.124.439.247.23.028.271-.066.5-.066.177-.048.208.018.188.1.156.114.073.116.031.089.053.045.094.009.083-.026.209,0,.208.043.291v.46l-.037.219-.032.094-.059.1-.13.187-.2.219-.1.084-.045.084,0,.083-.039.271-.054.261-.041.1-.03.063-.013.031.027.073.043.094.042.084.026.062,0,.042-.11.145-.281.262-.2.27-.116.146-.1.084-.067.042-.088.01-.095.01-.076.094-.051.062-.273-.188-.083-.209-.229-.459-.385-.511.526-1.45.352-.951-.3-.374-.448-.575-.282-.448-.018-.386.238-.689.017-.772-.07-1.388-.14-.562-.325-.648-.518-.427-.809-1.524-.667-2.348-.281-.552-.632-.6-1.141-.846-2.012-.845-.623.01-.465-.26-.588-.125-.378.146-.263.532-.247.375-.509.385-.579.313-.826.24-.737.063-.721-.407-1.124-.5-.949-.836-.28-.49-.219-.626.008-.615-.062-1.085.193-1.4-.412-.927-.3-.523-.544-.459-.352-.313-.034-.417.034-.637-.438-.595-.624-.8.053-1.763.307-.511.607-.313,1.264-.417.947-.292.668-.157.386-.344-.483-.856-.412-.677-.3-.637-.334-1.022-.545-2.848.211-.866.044-.9-.219-1.545-.658-1.169-.149-.449-.581-1.669-.491-1.242-.456-1.44-.15-.459.071-.479v-.47l-.044-.491-.185-.552-.711-.428-.087-.324.29-.574-.422-.041-.93-.835-.44-.084-.307.4-.544,1.148-.263,1.293-.132.658-.017.512v.468l.1.376.21.575-.148.938.223,1.628.176.355.053.228,0,.22-.119.188-.4.052-.32.052-.207-.01-.254.188-.157.167-.217.125-.284.085-.356-.042-.123-.2-.127-.386-.14-.635.118-.261.162-.24.117-.271-.087-.355-.32-.261.053-2.066-.04-.115-.444-.094-.119-.188.137-1.137.14-.251.215-.188.119-.3-.246-.375-.3-.177-.14.031-.251.209-.232.228-.356.22-.083-.094.079-.3.043-.564" transform="translate(-888.297 -1045.68)"  stroke="#fff" stroke-linecap="square" stroke-linejoin="bevel" stroke-width="1" fill-rule="evenodd"/>
      <text id="287" transform="translate(21.451 29.124)" fill="#fff" font-size="13"  font-family="OpenSans-Bold, Open Sans" font-weight="700"><tspan x="0" y="0"></tspan></text>
    </g>
    <g id="_288_Khalapur" data-name="288 Khalapur" transform="translate(2460.266 237.855)">
      <path id="talId288" fill="#7DB8EC" title="Khalapur Taluka" data-name="Khalapur Taluka" d="M889.229,1077.931l-.043.563-.079.3.084.094.355-.219.232-.229.251-.209.14-.031.3.177.246.376-.119.3-.214.187-.14.25-.137,1.137.119.188.443.094.04.114-.053,2.066.32.26.087.356-.117.271-.163.24-.118.261.14.637.127.385.123.2.355.042.285-.083.216-.125.158-.166.255-.188.206.01.321-.052.4-.052.119-.188,0-.219-.052-.23-.176-.355-.223-1.627.149-.939-.21-.574-.1-.375v-.47l.018-.511.131-.657.264-1.293.543-1.148.308-.4.439.083.931.834.421.042-.29.574.088.324.711.427.185.553.044.49v.469l-.071.48.149.459.457,1.44.491,1.242.58,1.669.15.448.658,1.17.219,1.543-.043.9-.211.865.544,2.848.334,1.023.3.636.412.678.483.855-.386.344-.668.156-.947.292-1.264.417-.606.313-.307.511-.053,1.763.624.8.438.595-.034.635.034.417.351.313.545.459.3.522.412.929-.193,1.4.062,1.085-.009.615.219.626.281.49.948.835,1.124.5.721.407.736-.062.826-.24.579-.313.509-.385.246-.376.263-.532.378-.146.588.125.466.261.623-.011,2.011.845,1.142.845.632.6.281.553.667,2.348.809,1.523.518.428.325.646.14.564.07,1.387-.017.772-.238.688.017.386.282.449.448.573.3.376-.352.949-.526,1.45-.261.167-.143.365-.052.324-.3,1.19-.2.709-.067.417-.085.459-.143.521-.048.282-.471.783-.157.448-.152.24-.485.6-.247.678-.651.459-.677.752.106.333.361.135.58-.031h.329l.256.188.114.344.081.408-.162.73-.148.573-.085.469-.119.48-.052,1.21-.067.491-.123.251-.167.26-.156,1.544.071.406.024.292-.052.3-.209.209-.319.1-.437.147-.418.228-.509.365-.091.47.1.282.186.229.086.2-.067.25-.218.251-.076.073-1.074,1.012-.762.5-.636.313-.353.4-.523-.511-.567-.167-.49-.23-.746-.292-.542.052-.712,1.117-.4.365-.626.585-.86.939-.532.522-.6.365-.523-.052-.043-.46-.035-.606-1.4-.4-.568-.187-.97-.25-.508-.438-.095-.531-.343-2.484.138-.375.274-.343.2-.543-.207-.366-.274.074-.507.282-.438-.115-.481-.115-1.151-.041-1.375-.146-.275-.323-.446-.115-.292.282-.112.7-.008.616.2.469.215.4.412.271-.008.563-.266.344-.568.345-.515.261-.463.084-.541-.386-.223-.355-.13-.364-.308-.344-.5-.083-.292-.272-.163-.49.216-1.158-.07-.428-.542-.2-.5.167-.069-.218-.086-.449v-.553l-.248-.615-.344-.491-.585-.522-.686-.448-.464.48-.215.386-.224-.386-.4-.458-.42-.491-.379-.553-.653-.8-.472-.47v-1.991l-.172-.71-.4-.511-.2-.626-.4-.615-.121-.688-.438-.4-.36.6-1.031.218-.5.115-.568-.073-.471-.458-.138-.638-.224-.646.025-.657.225-.709-.018-2.494-.061-.98.344-.4.327-.417.361-.542.421-.648.232-.625.576-.543.292-.491.258-.678.258-.752-.12-.729-.726-.459-.2-.094-.354-.271-.355-.219-.453-.229-.227-.313-.63-.595-.541-.2-.089-.26.01-.657-.148-.6.069-.595.119-.481.03-.583-.2-.553L875,1112.1l-.57-1.252-.424-.865-.275-.626-.394-.616-.65-.824-.9-1.783-.433-.626-.374-.448-.335-.5-.138-.428-.06-.688-.029-.595-.02-.752-.64-.887-.177-.647.108-.583.187-.627.138-.595.394-.4.3-.428.188-.688.255-1.941.068-.344.2-.459.236-.573.3-.5.237-.543.325-.375.532-.314.61-.073.935-.177.374.188-.059.532-.2.208-.246.418.266.24.246.4-.01.657-.109.825.02.709.276.689.217.573.354.4.463-.073.315-.282.433-.364.364-.073.226.375.384.083.453.031.719.042.286-.261.038-.4-.029-.354.039-.533.3-1.011.1-.449.2-.219.315-.25.206-.313.217-.386-.03-.563h.552l.442-.083.532-.168.325-.448.374-.637.63-.908.581-2.232-.089-.7v-.585l.058-.448-.236-.365-.521-.1-1.025-.031-.167-2.129-.089-.511-.531-.021-.5.063.03-.386.245-.449.168-.437.029-.522-.069-.532.1-.813.482.418.344.271.217.271.4-.073.433-.375.473-1.023.3-.2.7-.114.542-.657-.011-.47.031-.552.138-.449.275-.365.255-.521-.127-.385-.434-.355-.127-.375.158-.334.442.3.177.4.2.585.246.322.483.083.689.042.561.261.453.417.374.481" transform="translate(-869.589 -1075.041)"  stroke="#fff" stroke-linecap="square" stroke-linejoin="bevel" stroke-width="1" fill-rule="evenodd"/>
      <text id="288" transform="translate(10.924 45.428)" fill="#fff" font-size="13"  font-family="OpenSans-Bold, Open Sans" font-weight="700"><tspan x="0" y="0"></tspan></text>
    </g>
    <g id="_294_Pen" data-name="294 Pen" transform="translate(2419.005 274.634)">
      <path id="talId294" fill="#7DB8EC" title="Pen Taluka" data-name="Pen Taluka" d="M890.084,1143.358l-.4.218-.376.115-.169.146-.459.929-.148.887-.082.365-.2.427-.222.219.025.188.189.209.207.365-.091.313-.148.281-.05.376-.246.282-.7-.115-.388-.126-.419-.156-.454-.188-.576-.2-.338-.2-.205-.3-.025-.438-.446-.177-.634.219-.543.115h-.329l-.412-.021-.446.146.05.3.082.188-.124.281-.2.24-.322.272-.8.021-.791-.25-.495.3-.206.574.123.719-.181.574-.486.469-.511.459-.7.689-.5-.073-.387-.241h-.5l-.115.626-.338.657-.354.48-.19.365.017,1.419-.288.5-.593.25-.964.1-.4-.011-.337.313-.033.3.412.626.3,1,.132.908.033,1.67-.148.855-.042,1.011-.008.616.486,1.5.058.615-.107.7-.568.01-.412.439-.091.616-.428.668-.609.136-.717-.063-.626-.26-.372-.334-.453-.2-.469.1-.478.334-.478.375-2.051,1.637-.577.334-.906-.062-.668-.136-.922-.292-.956-.062-.495.114-.569.231-1.318.5-.725-.052-.427.261-.363.407-.322.928.387.595.38.4.189.594.322.584.214.574.1.449-1.1,1.377-.066.741-.19.98-.609.5-1.063.1-.947.167-1.309.25-2.817.5-1.393.261-.584.052.593-1.565-.165-.668-.05-.479-.56-.313-.742-.355-.206-.543-.156-.5-.289-1.1.149-2.359v-1.1l.527-.313.271-.375.108-.573.173-.626.14-.678.124-1.93.3-.97.329-.72.272-.615.6-.867-.684-1.637-1-1.606-.922-1.533-.471-.98-.576-.554-.848-.521-.619-.48-.7-.251-.882-.323-.486-.365-.313-.5-.015-.647.4-.459.427-.355.239-.282.091-.49-.148-.532-.429-.553-.387-.334-.757-.469-.535-1.272.2-.867.207-.417.074-.261-.5-1.1-1.013-.584-.363-.511-.032-.3.058-.531-.066-.553-.132-.637-.321-.574-.784-1.168-.971-.657-1.252-.605-1.178-.4-.684-.5-1.368-1.283-1.193-1.491-.651-1.4-.519-1.482-.123-.751-.183-.751.282-.323.584-1.3.915-1.826.483-2.336-.3-2.014-.585-1.189-.685-1.575-1.831-1.2.852-1.836,1.1.616.5.167.775.208.331.157.412.135.471-.365.56-.688,1.074-.855,1.049-.281,1.244-.24,1.907.1,1.391.458.438.062.572.063.452.094.5.1.438.021.388-.042.489-.094.438-.157.508-.219.419-.281-.095-.47.091-.98.276-.094.137-.313-.157-.376-.187-.209-.187-.385.246-.271.236-.021.5.135.207.209.079.532.137.229.621.293.335-.282.3-.219.462.073.2.438.532.293.334-.095.434-.313.571-.073.118.773.275-.083.473-.3.552-.344.768-1.356.009-.773-.148-.677-.01-.366.364-.355,1.507-.782.433-.386,1.005-.625.5.093.521.25.611.219.492.136.847.062,1.151.073.157,1.106.187.626.207.741.187.688.3.157.621.219.954.125.729.052.572-.24.708-.314,1.025-.229.757.418,1.181.73.611.4.344.063,1.052-.533.493-.187.522-.093.787.031.552.145.374.387.473.406.315.481.433,1.011.315.6.168.668.227.679.324.323.109.136,1.053-.678.512-.24.6-.261.522-.46,1.142-.531.265-.4.354-.428.726.459.12.73-.257.751-.258.679-.292.49-.576.543-.232.625-.42.647-.361.543-.327.418-.344.4.061.98.017,2.494-.224.709-.025.657.223.647.138.636.471.46.568.073.5-.114,1.031-.219.359-.6.438.4.121.688.4.616.2.626.395.511.172.71v1.992l.472.47.653.8.379.553.42.49.4.46.223.385.215-.385.464-.481.687.449.584.521.344.49.248.616v.553l.086.448.069.219.5-.167.542.2.069.428-.215,1.158.163.49.292.271.5.084.309.344.13.365" transform="translate(-829.951 -1110.61)"  stroke="#fff" stroke-linecap="square" stroke-linejoin="bevel" stroke-width="1" fill-rule="evenodd"/>
      <text id="294" transform="translate(21.186 31.647)" fill="#fff" font-size="13"  font-family="OpenSans-Bold, Open Sans" font-weight="700"><tspan x="0" y="0"></tspan></text>
    </g>
    <g id="_298_Sudhagad" data-name="298 Sudhagad" transform="translate(2460.553 303.859)">
      <path id="talId298" fill="#7DB8EC" title="Sudhagad Taluka" data-name="Sudhagad Taluka" d="M871.848,1165.069l.107-.7-.058-.616-.486-1.5.008-.615.042-1.011.148-.856-.033-1.669-.132-.908-.3-1-.413-.626.034-.3.337-.313.4.01.964-.1.594-.249.288-.5-.016-1.419.189-.366.354-.48.338-.657.115-.626h.5l.387.24.495.073.7-.688.512-.459.486-.47.18-.573-.123-.72.206-.574.494-.3.791.249.8-.021.321-.27.2-.24.124-.282-.082-.187-.05-.3.446-.147.412.022h.329l.543-.115.633-.219.446.177.025.439.206.3.338.2.575.2.454.187.419.157.387.124.7.115.246-.28.051-.376.148-.282.091-.313-.207-.365-.189-.209-.025-.187.222-.219.2-.428.082-.366.148-.886.459-.929.169-.146.377-.115.4-.219.223.355.541.386.464-.083.516-.261.567-.345.266-.344.009-.562-.413-.271-.215-.4-.2-.47.009-.615.111-.7.292-.282.447.115.276.323,1.374.146,1.151.042.481.115.439.114.507-.282.274-.073.206.365-.2.542-.274.345-.138.375.344,2.483.095.533.507.438.971.25.568.188,1.4.4.034.606.043.458.523.052.6-.365.532-.522.86-.938.627-.585.395-.366.712-1.116.542-.052.747.293.49.229.568.167.523.511.076.5.333.438.457.239.38-.146.209-.239.5-.376.419.146.095.417.048.124.342-.448.419-.218.19.156.247-.219.733-1.21.143-.595.181-.553.427-.073.429.219.428-.365.208-.271.219.438-.161.563-.19.689-.019.5.066.146.628-.062.419-.031.884-.365.419-.271.219-.428.247-.491.323-.26.352.511.19.5.21.323.333.2.38.416.057.428.038.553.371.417.627.293.1.74-.143.511-.1.668-.066.511.113.783.2.313.015.229.051.772-.247.741-.018.511.457.511.323.9.019.7-.133,1.022-.067.293-.807.052-.4.281-.39.333-.343.292-.552.4-.238.334-.161.334-.047.229-.638.062-.5.24-.3.314-.666.845-.542.417-.628.366-.428.6-.333.417-.248.49-.656,2.045-.828,1.158-.313.667-.276-.188-.276.042-.314.3-.114.375-.086.563-.095.647-.095.376-.552-.052-.257-.4-.3-.271-.294-.375-.267-.136-.16.595-.039.427-.048.4.086.354.16.543-.018.418-.352.356-.371.281-.227.354.142.616.115.626.009.606-.057.563-.314.585-.379.521-.485.6-.466.678-.047.74-.086.689-.029.522.229,1.5.589.427.485.408.619.354.456.146.457.052.361-.094.466-.156.551-.281.457-.063,1.226-.146.666-.292.562-.344.818-.229-.922.73-1.009,1.012-.38.365-.409.271.047.605-.1.458-.351.282-.618.584-.066.345.1.521.076.5.1.314.333.271.476-.1.532-.229.428-.084.5-.052.352.125.361.229.457.385.456.6,1.446,1.836.894,1.179.932.792,1.6,1.388.534.366.418.25.343-.01.609-.115.361-.063.571-.23.361-.031v.417l-.257.324-.466.115-.437.073-.38.167-.485.271-.362.272-.314.71-.5.417-.237.354-.666.146-.238-.042-.237-.48-.3-.062-.1.376.086.3.36.334.248.261.171.312.124.459.133.6-.418.167-.675.052-.447-.042-.362.094-.285.135-.332-.208-.2-.25-.275-.376-.2-.2-.351-.042-.294-.031-.228.219-.067.428.086.386.028.438.077.575.382,1-.641.375-.322.2-.267.406.02.877-.428.574-.545.355-.14.636.161.563.1.438-.075.428-.46.188-.643.156-.749-.125-.386-.574-.621-.751-.9.626-.5,1.272-1.305.418-.75.574-.513-.522-.278-.313-.6-.376-.717-.3-.288.146-.342.407-.2.292-.343.323-.4.094-.482.042-.546.146-.354.271-.342.365-.61.365-.7.031-.407-.187-.513-.992-.386-.626-.288-.417-.31-.313-.664-.1-.064-.25.2-.835.289-.292.236-.386-.289-.6-.257-.636-.375-.564-.386-.7-.138-.793-.3-.761-1.1.188-.118-.344-.108-.637-.16-.782-.128-.751-.375-.646-.086-.887-.631-.157-.921-.021-1.006.053-.642.354-1.146.512-1.68.709-.653.073-.984.021-.621.115-.547.407-.235.761-.664,1.106-.225.375-.781-.01-.45-.2-.792-.042-.642-.208-.086-2.264.322-2.086-1.166-1.346-.59-.219-.566-.25-.161-.564-.075-1.419-.15-.667-.161-.375-.418-.47-.191-.428.117-.688-.117-.511-.247-.011-.75.063-.685.125-.781.188-.449.293-.621.615-.515.355-.085-1.189-.128-.6-.256-.656-.279-.909-.15-.583-.363-.908-1.039-2.317.386-.281.471-.428.653-.521.814-.522.663-.271.343-1.116.225-1.993.213-.813.161-.627.246-.751.257-.792.4-1.491-.4-.721-.407-.229-.268-.052-.4-.324-.043-.312.065-.4.352-.47.375-.366.386-.625-.172-.449-1-.251-1.345-.271" transform="translate(-869.863 -1138.56)"  stroke="#fff" stroke-linecap="square" stroke-linejoin="bevel" stroke-width="1" fill-rule="evenodd"/>
      <text id="298" transform="translate(4.637 22.423)" fill="#fff" font-size="13"  font-family="OpenSans-Bold, Open Sans" font-weight="700"><tspan x="0" y="0"></tspan></text>
    </g>
    <g id="_296_Roha" data-name="296 Roha" transform="translate(2414.23 330.587)">
      <path id="talId296"  fill="#7DB8EC" title="Roha Taluka" data-name="Roha Taluka" d="M906.436,1202.362l-.442.647-.439.731-.131,1.2.23,1.242.525.563.6.49.427.512.438.521.317.647.351.584.12.636-1.541.981-.788.668-.361.616-.307.448-.285.261-.514.449-.688.657.022.606.065.709.01.459-.163.605-.372.657-.635.9-.58.594-.328.511-.383.167-.318-.167-.208-.469-.076-.563-.493-.449-.58-.313-.744-.125-2.385,1.951-.349.679-.569.417-1.17.23-.832.188-.81.25-.613.261h-.525l-.471-.522-.361-.407-.688-.49-2.594-.251-1.115-.251-.7-.2-.449-.6-.1-.25-.788-.449-1.466.062-1.051.063-.447.053-.79.135-.25.052-.973-.417-.568-.324-.329-.406-.087-.522-.164-.574-.109-.532-2.932.2-1.684.407-1.412.157-1.532.563-1.1,1.492-.645.646-.187.543-.372.74-1.028,1.023-1.651,1.638-2.6,1.534-.285.343-1.323,1.806-1.017.459-.11.552-.064.731-.448.647-1.467-.031-1.115-.313-.843-.24-1.534,1.116-1.446.8-.684,1.408-.875,1.9-1.218,1.524-.988.376-1.179.083-1.065-.114-1.37-.459-1.064-.042-1.256.8-.19.834.152.907.418.877-2.207.647-.361.042-.494-.4-.067-.385-.134-.428-.113-.553-.171-.679.047-.677-.19-1.013.219-.96.047-.417.143-1.023.067-.907,1-1.658.039-.7-.029-.824-.113-1.533-.029-.97-.142-.742-.124-.98-.076-1.691-.656-1.992-.562-.667-.989-.543-.475-.668-.827-2.222-.695-1.022-.446-.7-.609-.6-.523-.344-.485-.5-.37-.668-.837-.96-.372-.365-.571-.094-.779-.01-.466-.261-.276-.47-.552-.709-.618-.553-1.274-.011-.543.314-.913.157-.409-1.6-.313-.428-.4-.344-.542-.376-.4-.532-.333-.595.152-.313.534-.093.418-.491.389-.616.589-.7.582-.438.912-.271,1.53-.334.533-.219.523-.031.229-.188.123-.584-.19-.375-.19-.272v-.281l.171-.177.437-.115.286-.282.256-.355.37-.49-.143-.407-.076-.439.2-.469.285-.344-.066-.7-.238-1.043-.324-.741-.219-1.314.043-1.189.566-.115.618-.344.67-.291.576-.167.66-.116.451-.406.576-.439.586-.667.168-.867-.158-.333-.262-.4.21-.783.156-2.67.588-.292.46-.2.734-.125.744-.094.492-.4.146-.626.168-.291.45.239.346.261.6.208.4-.24.5.032.221.605.345.334.189.448.22.46.566.4.723.4.638.658.544.5.985.021,3.216-2.609-.241-.511-.409-.584-.135-.584-.126-.72v-.668l.043-.521-.158-.751-.241-.741-.013-1.784.584-.052,1.393-.26,2.817-.5,1.309-.251.947-.167,1.063-.1.609-.5.19-.981.066-.741,1.1-1.377-.1-.448-.214-.575-.321-.584-.189-.594-.38-.4-.387-.595.321-.929.363-.407.428-.259.725.052,1.318-.5.568-.229.495-.115.956.063.922.293.667.136.905.062.577-.334,2.051-1.638.478-.375.478-.334.469-.105.453.2.372.333.626.261.717.063.609-.136.428-.667.091-.616.412-.438.569-.011,1.345.271,1,.251.172.449-.386.626-.374.365-.353.47-.065.4.043.313.4.323.267.052.407.23.4.719-.4,1.492-.256.793-.246.751-.161.626-.214.814-.225,1.993-.342,1.116-.664.272-.814.521-.653.521-.47.428-.386.282,1.039,2.315.362.909.151.583.278.908.257.657.128.595.085,1.189.514-.354.621-.615.45-.292.781-.188.684-.125.75-.063.246.01.117.511-.117.688.192.428.418.47.161.375.15.667.076,1.419.161.564.566.25.589.219,1.166,1.346-.321,2.087.086,2.265.643.208.792.041.449.2.782.01.226-.375.663-1.107.235-.76.546-.408.621-.114.985-.021.653-.073,1.679-.709,1.146-.511.643-.355,1.005-.052.922.021.631.157.086.887.374.647.128.751.161.782.107.636.118.344,1.1-.187.3.761.139.793.386.7.375.563.257.636.289.605-.236.387-.289.291-.2.835.065.25.664.1.31.312.289.418.386.626.513.991.407.188.7-.032.61-.365.343-.365.353-.271.546-.146.482-.042.4-.094.343-.324.2-.293.342-.407.289-.147.717.3.6.375.279.313.513.521" transform="translate(-825.365 -1163.97)"  stroke="#fff" stroke-linecap="square" stroke-linejoin="bevel" stroke-width="1" fill-rule="evenodd"/>
      <text id="296" transform="translate(22.961 41.694)" fill="#fff" font-size="13"  font-family="OpenSans-Bold, Open Sans" font-weight="700"><tspan x="0" y="0"></tspan></text>
    </g>
    <g id="_299_Tala" data-name="299 Tala" transform="translate(2432.544 382.111)">
      <path id="talId299" fill="#7DB8EC"  title="Tala Taluka" data-name="Tala Taluka" d="M843.529,1236.251l-.419-.877-.152-.907.19-.834,1.256-.8,1.064.042,1.37.459,1.065.115,1.179-.083.989-.376,1.217-1.523.876-1.9.684-1.408,1.446-.8,1.535-1.116.843.24,1.115.313,1.467.031.448-.645.065-.732.109-.553,1.017-.459,1.324-1.8.284-.344,2.6-1.534,1.651-1.638,1.029-1.022.372-.74.186-.543.645-.647,1.1-1.492,1.531-.563,1.412-.157,1.685-.407,2.932-.2.109.532.164.574.087.522.329.406.569.324.973.417.25-.052.081.845-.037.3-.115.616-.456.355-.171.459-.095.438-.286.814-.247.761-.076.939.685.814,1.141,1.012.1,1.231-.191.741-.551.5-1.237-.385-.115.875.818,1.983.115.553-.438.449-.57-.031-1.369-.292-.286.386-.513.814-.323,1.126-.095,2.4.912,1.973-.418.25-.3.3.057.532.59.157.818-.083.97-.229.912-.4,1.218-.459.627.6.191.531.38.835.723.626.209.648-.3.595-.286.97-.056,1.064-.381.3-.723.282-1.121.2-.78.417-1.084.417-.571.145-.875-.281-.855-.167-.228.835-.437.854-.285,2.077.267.886-.172.417-.057.939.171.47.495.042.609.021.1.47.151.876.076.667-.76.782-.552.324-.722.375-.875.741-2.1,2.483-.662.814-.7.3-.067.375-.047.4-.182.449-.427.334-.209-.167-.742-.668-.647-.605-.495-.688-1.1-.907-.646.145-1.027.313-.684.533-.19.719-.02,1.326-.266.386-1.122.345-1.369-.188-.686-.219-.931-.354-1.027-.595-.457-.094-.532.689-.495.146-.4-.761-.381-.981-.475-.156-1.2.489-2.188,1.107-.989.094-.19-.887.286-1.105.076-1.064.133-.95.476-.97,1.6-.5-.242-.991-.661-.481-.8-.208-.342-.417.085-.71-.031-.156.054-.417-.032-.157.007-.178-.031-.135-.029-.063-.054-.021-.073-.042-.074-.011h-.134l-.021-.01-.015-.115-.032-.063.02-.1-.03-.386-.222-.521-.25-.115-.054-.042-.176-.209-.25-.021-.035-.011-.032-.062-.034-.011-.025-.031-.011-.032,0-.031-.029-.031-.039-.01-.031-.021-.042-.063-.037.011-.026-.021-.014-.041-.254-.011-.188-.052-.071.021-.051-.021-.115-.063-.179-.239-.038-.115.014-.136,0-.115-.028-.032-.039-.01h-.159l-.04-.052-.06-.073-.1-.282-.059-.052-.032-.021-.04-.01-.027-.032-.025-.031-.022-.032-.032-.021-.05-.052-.03-.031-.03-.042-.088-.052-.048-.031-.052-.032-.021-.031-.031-.032-.035-.052-.058-.084-.02-.031-.028-.031h-.036l-.034-.011-.056-.052-.007-.01-.033-.032-.037-.021-.076-.094-.03-.083-.015-.1.035-.271,0-.1-.017-.073.028-.1.035-.062.028-.125v-.115l-.036-.115-.025-.25.069-.177.015-.073.047-.031h.09l.031-.021.039-.083,0-.052.011-.042.047-.052.043-.083.025-.021.069-.041.153-.2.12-.094.06-.063.094-.136.062-.073.009-.031.2-.376.293-.521.194.073.082-.073.041-.073.035-.1-.007-.084-.02-.062-.105-.021-.112-.281-.237-.5-.128-.23-.148-.313-1.508.157-1.484.156-.259-1.053-.646-.95-.532-1.033-.494-1.1" transform="translate(-842.958 -1213.34)"  stroke="#fff" stroke-linecap="square" stroke-linejoin="bevel" stroke-width="1" fill-rule="evenodd"/>
      <text id="299" transform="translate(12.646 28.171)" fill="#fff" font-size="13"  font-family="OpenSans-Bold, Open Sans" font-weight="700"><tspan x="0" y="0"></tspan></text>
    </g>
    <g id="_292_Murud" data-name="292 Murud" transform="translate(2399.914 345.176)">
      <path id="talId292" fill="#7DB8EC"  title="Murud Taluka" data-name="Murud Taluka" d="M833.078,1191.893l-.043,1.19.219,1.314.323.741.238,1.043.066.7-.285.344-.2.469.076.438.143.407-.37.49-.256.355-.286.282-.437.115-.171.177v.282l.19.271.19.376-.123.584-.228.188-.523.031-.533.219-1.53.333-.913.272-.581.438-.59.7-.389.615-.418.49-.533.095-.152.313.333.6.4.532.542.376.4.344.313.428.409,1.6.913-.157.543-.313,1.274.01.619.553.551.709.276.47.466.261.779.01.571.093.372.366.837.96.37.667.485.5.523.345.609.6.446.7.695,1.021.827,2.223.475.667.989.543.561.667.656,1.993.076,1.69.124.981.142.741.029.97.114,1.533.029.823-.039.7-1,1.659-.067.907-.142,1.023-.047.417-.219.961.19,1.012-.047.678.171.678.113.553.134.428.067.386.494.4.362-.042,2.206-.647.494,1.106.533,1.033.647.949.258,1.053-.056.25-.069.126-.093.146-.126.115-.141.083-.114.032-.29.063-.265.041-.179.032-.6.062-.078-.021-.056-.011-.052.021-.028.031-.02.125-.026.073-.056.042-.085.084-.114.063-.183.083-.2.156-.064-.011-.215-.094-.211.021-.151-.032-.129.022-.2.052h-.1l-.1-.074h-.043l-.027-.02-.015-.031-.094-.072-.152-.094-.084-.073-.04-.1-.007-.053-.185-.094-.432.2-.044.094.011.136,0,.094-.137.042-.062.063-.048.083-.122.021-.072-.031-.045-.063-.011-.052,0-.2-.112-.344-.064-.073-.091-.062-.1-.053-.022-.052-.019-.031.014-.032-.047-.1-.1-.062-.121-.032-.08.052-.022.073-.043.094-.036.011-.069-.053h-.067l-.028-.021-.031-.042-.073-.031-.093-.011-.095-.063-.058.032-.061.01-.1-.063-.044-.114-.015-.094-.062-.115v-.125l.021-.073.057-.042.063-.02.163-.011.206.011.148-.084.1-.23.015-.125-.02-.293-.038-.157-.005-.083.039-.094-.01-.146-.057-.1-.078-.125-.027-.125-.085-.135-.106-.219-.1-.115-.157-.2-.026-.042h-.005l-.095.1-.01.011-.011-.011-.07-.073-.016-.022-.014.011-.061.063-.015.01h-.008l-.2-.177h-.013l-.027.031-.091-.031-.06-.042-.115-.115-.267-.177H838.6l-.017.094-.013.01h-.011l-.252-.042-.008-.01-.005-.031.008-.094,0-.021-.017-.011-.18-.042-.451-.083h-.022l-.01.021,0,.031-.011.011-.272-.021-.231-.062-.114-.01-.246.02-.5-.031-.2.011-.469.062-.209.042-.341.094-.27.125-.28.1-.01.032.014.021.055.052.028.073-.024.251-.136.3-.132.3-.061.249-.116.3-.061.074-.143.124-.124.094-.057.074-.022.114-.007.084v.031l-.019.115-.018.011h-.085l-.1-.042-.059-.073-.031-.136-.036-.219-.016-.261-.007-.229-.026-.042-.017-.042v-.041l0-.052-.007-.209.006-.125-.024-.062L833.2,1240l-.023-.032-.021-.041-.016-.031h0l.021-.01,0-.01,0-.042.028-.021,0-.021-.047-.156-.017-.011-.022.011.009.052,0,.032-.027.01-.017-.01-.012-.021-.133.093-.025.021-.009.01-.018.011-.02-.011-.83.511H832l-.448-.71-.009-.02-.252-.4-.071-.125-.012-.042.026-.042.169-.094.137-.083.273-.167.288-.188.147-.084,0-.031-.008-.021-.034-.073-.028-.063-.054-.073-.026-.042-.025-.062-.088-.178-.072-.136-.017-.011-.151.074-.035.01-.017-.01-.04-.219,0-.125,0-.146-.008-.052-.067-.124,0-.022.087-.062,0-.01-.019-.021-.087-.021-.061-.115-.023-.094-.051-.157-.068-.125-.042-.085-.08-.24-.054-.208-.1-.219-.05-.084-.14-.177-.08-.083-.113-.1-.141-.125h-.04l-.064.031-.043.053-.049.135-.077.136-.089.052h-.054l-.022-.01-.049-.032-.066-.021-.177-.094-.058-.031-.045-.021-.044-.021h-.034l-.022-.021-.036-.042-.056-.062-.022-.052-.009-.021-.161-.115-.079-.041-.171-.053-.145-.01-.067.01-.164.053-.026.052,0,.052.013.084.007.021.016.011.044.031.008.021v.01l-.052.083-.02.011h-.011l-.018-.031v-.042l.011-.041,0-.042-.024-.125H828.6l-.021.01h-.008l-.006.021.022.042h.013l.024.01.005.01v.011l-.016.041-.008.01,0,.042-.015.021,0,.01.018.031v.01h-.156l-.014-.02.007-.052-.024-.042-.179-.2-.077-.136-.033-.094-.04-.4-.029-.1-.057-.073-.006-.042.014-.042-.019-.083-.014-.074-.018-.083.017-.125.037-.084.046-.271-.039-.271-.014-.073-.07-.095-.073-.093-.08-.084-.062-.063-.063-.1-.08-.074-.039-.031-.08-.063-.115-.052-.039-.042-.023-.073-.04-.094-.023-.042-.061-.042-.076-.031-.068-.021-.066-.021-.038.021-.133.084-.122.083-.052.042-.028.052-.036.021-.049.021-.066.042-.073.073-.044.042-.076.052-.072.021-.155-.021-.083-.052-.06-.053-.05-.083-.049-.125-.063-.094-.05-.1-.026-.052-.058-.063-.053-.052-.065-.1-.078-.094-.055-.021-.077-.094-.021-.083.006-.1.083-.177.06-.053.078-.031.173-.062.083-.031.029-.01.076-.136.048-.095.06-.135.118-.261-.1-.114-.079-.1-.11-.125-.209-.229-.112-.2-.128-.24-.15-.344-.247-.646-.12-.344-.132-.261-.015-.114.007-.042.052-.1.021-.062.009-.073-.005-.042-.025-.062-.039-.084-.045-.052-.079-.042h-.067l-.023-.021-.022-.041-.076-.146-.135-.146-.142-.146-.074-.1-.15-.177-.079-.042-.112-.01-.3-.073-.128-.031-.119-.084-.071-.052-.035-.041-.005-.032,0-.188.039-.2-.021-.083-.067-.062-.041-.01-.133.031-.033-.01-.044-.032-.087-.114-.111-.063-.085-.073-.212-.115-.152-.094-.146-.053h-.18l-.315.136-.086.01-.122-.031-.15-.042-.162.031-.1.083-.106.083-.044.011-.089-.053-.074-.052-.041-.053,0-.01.011-.032.037-.021.014-.042-.017-.052-.061-.053v-.062l.039-.042.266-.083.063-.032.066-.063.077-.4.022-.177.027-.095-.015-.052-.044-.073-.112-.063-.151-.146-.112-.115-.134-.083-.172-.042h-.162l-.058.011-.034.073-.066.115-.075.136-.047.021-.148-.093-.151-.042-.127.021-.3.146-.087.01-.08-.01-.255-.136-.117-.094-.085-.021-.1-.01-.048.031-.041.106-.026.093-.025.042-.146.094-.072.011-.072-.021-.047-.01-.044.042-.008.084.017.134,0,.167-.031.042-.128.031-.141.031-.168-.021-.1-.052-.208-.115-.19-.072-.075-.083-.022-.115v-.052l.038-.084.011-.094-.049-.2-.082-.251-.064-.167-.111-.219-.071-.084-.185-.073-.125-.073-.028-.051v-.073l.032-.136.08-.156.038-.125-.006-.282-.017-.188-.031-.061-.211-.167-.036-.042,0-.126-.024-.062-.07-.041-.183-.052-.04-.062-.017-.116-.032-.23v-.063l.006-.114-.009-.135-.052-.136-.068-.157,0-.063.011-.041.043-.114.032-.219.026-.125.063-.125.045-.062.095-.073.131-.188.118-.115.069-.1.038-.116.036-.02.05.011.17.094.084-.011.053-.021.154-.3.041-.01h.03l.014.042-.008.063.032.052.152.094.068.009.249-.009.077-.031.357-.241.047-.042.07-.042.073-.063.071-.02.033.01.1.031.284-.26-.033-.052v-.042l.027-.115.085-.292.064-.209.153-.522.067-.239.058-.345-.014-.188.009-.24-.01-.2-.022-.292-.059-.271-.085-.282-.084-.24-.068-.167-.075-.115-.062-.094-.127-.094-.088-.062-.076-.074-.053-.062-.171-.167-.069-.063-.05-.031-.081-.031-.122.01-.273.042-.083-.021-.112-.042-.088-.011-.109-.021-.073.021-.129.063-.027.01H816.5l-.091-.042-.128-.094-.072-.042-.081-.01-.242.052h-.025l-.08-.01-.053-.053-.045-.052-.058-.2-.014-.052-.035-.053v-.031l0-.01.034-.032.006-.01.011-.042.023-.021.013-.042,0-.042.047-.083.01-.01v-.062l-.025-.074-.022-.042-.086-.115-.117-.083-.1-.042-.026-.021-.008-.021-.026-.042-.034-.02h-.044l-.037-.041-.045-.011h-.054l-.017.011-.059.1-.022.01-.087-.01-.062-.031-.048-.041-.02-.052-.027-.074-.05-.115-.01-.062,0-.042.017-.032.027-.01.041-.031.012-.021.011-.031.019-.021.05-.042.047-.021.09-.052.038-.042v-.042l-.023-.062-.074-.074-.067-.03-.063-.011-.058.022-.037.01-.026.031-.044.021h-.052l-.054.021-.077-.01-.07-.042-.106-.063-.035-.052v-.042l.015-.031h.074l.007-.021,0-.021V1211l.016-.021h.016l.021.053.019.01.042-.01.057-.042.034-.032.024-.042.027-.021.06.021.056.021h.054l.059-.052.015-.063-.02-.041-.047-.031-.07-.021-.079-.072-.028-.022-.022-.03-.022-.021h-.033l-.035-.031v-.021l.045-.031h.038l.017-.042.007-.063.02-.083,0-.021h-.022l-.027.031-.026.021-.026-.01-.021-.032,0-.062.019-.042.057-.094.016-.02h.082l.036-.022.026-.052v-.053l-.014-.052-.041-.041-.02-.094-.008-.125,0-.063-.011-.041-.051-.073-.032-.022-.048-.01H814.5l-.039.021h-.038l-.045-.021-.057-.011-.034.011-.054.01-.028-.021-.008-.042,0-.02.005-.032.02-.031.042.01.034.01.09-.01.055-.042.028-.01.028-.031.039-.062.03-.084.02-.052.007-.052v-.062l-.024-.021v-.021l.007-.031,0-.01v-.021l0-.031,0-.053v-.062l.027-.094.022-.073.006-.063,0-.062-.009-.032-.015-.051-.023-.073-.033-.052-.033-.042-.061-.032-.021-.01-.034-.011-.107-.021-.021-.01-.039-.052-.017-.021.005-.021.013-.01.019-.01.008-.01h.022l.02.01h.043l.039-.01.052-.021.076-.052.111-.116.054-.062.04-.052.028-.063.019-.052.024-.136.012-.073.02-.073.006-.115,0-.272-.009-.1-.006-.053-.026-.083-.008-.031-.017-.084-.027-.125-.034-.042-.052-.042-.178-.145-.1-.073-.026-.062-.052-.313-.013-.042-.023-.052-.027-.053-.016-.021-.027-.032-.036-.052-.045-.021-.043-.01-.115-.063-.047-.041-.014-.032-.012-.041v-.042l.021-.073.014-.073.02-.062.018-.063.024-.041.034-.042.048-.053.019-.03.019-.011h.015l.009.011,0,.03v.032l.065.073.029.042.013.021.034.011h.057l.011-.021,0-.011v-.021l-.023-.031-.052-.011-.024-.01-.017-.042v-.021l.011-.031.02-.021.024-.031.01-.042,0-.021-.009-.042.006-.021.075-.178.043-.115.008-.115-.017-.156-.014-.167-.044-.293-.047-.156-.028-.1-.034-.1-.023-.083-.015-.073-.036-.114-.06-.23-.029-.094-.025-.083-.07-.272-.283-.74-.1-.24-.04-.1-.039-.115-.03-.084-.07-.188-.036-.146-.043-.126-.018-.052-.039-.1-.019-.041-.041-.115-.039-.125-.054-.156-.07-.209-.072-.156-.144-.293-.166-.281-.035-.063-.253-.323-.037-.031-.036-.042-.047-.042-.026-.01-.052-.031-.047-.021h-.055l-.056-.01-.045.01-.017.01-.016.031-.021.031-.02.042-.017.052-.014.031-.023.021-.031.011-.052.01h-.055l-.035-.021-.029-.042-.007-.01v-.011l-.005-.021-.01-.021v-.031l.006-.021,0-.01-.008-.011v-.01l.006-.021.013-.01.009-.021,0-.031v-.021l0-.011.015-.01h.016l.012-.011h.006l.009-.031-.008-.021h-.019l0-.011.013-.01.014-.011h.022l.007-.021-.009-.031-.019-.021v-.032l.005-.021.021-.042.052-.1.012-.032-.006-.01-.044-.021-.021-.011-.008-.021.019-.042.057-.094v-.021l-.039-.105-.014-.072,0-.074.018-.145-.013-.073-.025-.053-.011-.041.006-.031.025-.052.035-.031.038-.032.036-.042.034-.084.023-.052.026-.063.015-.052.014-.052.017-.094-.026-.1-.019-.062-.019-.052,0-.042.009-.042.023-.052.05-.073.033-.052.027-.052.016-.042.008-.074,0-.062-.016-.094-.007-.272v-.1l-.009-.084-.017-.073-.023-.052-.027-.063-.011-.021.009-.031.024-.031.048-.021h.056l.052.01.032.052.023.031.029.032.036.021.041.032.035.01.032.011h.052l.12-.083.074-.052.063-.042.075-.073.145-.167.026-.01.04-.021.028-.021.055-.063.042-.042.048-.125v-.02l-.045-.042v-.021l0-.01.045-.062.1-.125.018-.041.018-.073.008-.073.02-.2.01-.135v-.084l-.013-.073-.011-.052-.012-.042v-.031l.007-.042.023-.042.021-.031.018-.032.012-.042-.014-.052-.016-.094-.006-.073-.022-.042-.022-.011-.029-.01-.009-.01.006-.03.02-.053-.013-.094-.017-.042v-.031l.011-.032-.006-.01h-.015l-.005-.021.005-.03-.008-.011-.014-.011-.025-.01-.011-.021.011-.021.026-.083h-.024l0-.011,0-.01.024-.01.023-.032.026-.073.008-.042-.006-.052,0-.031.037-.053,0-.041-.02-.052-.048-.031-.015-.042-.024-.052v-.073l0-.052-.016-.042-.016-.021.005-.042-.008-.063h-.024l-.055.042-.023.01h-.023l-.027-.021-.008-.052.026-.073,0-.021-.008-.062-.021-.062v-.041l.01-.073-.019-.1.01-.031.019-.011h.062l.007-.01,0-.032.012-.041.023-.01h.024l.025-.011.01-.01.016-.052v-.021l0-.041-.015-.031-.021-.031-.013-.021-.024-.011-.011-.01-.007-.032,0-.042v-.021l.01-.031.013-.021.021-.011.008-.02,0-.021-.016-.022-.018-.02-.014-.022v-.02l0-.021.019-.032.022-.021.012-.01,0-.032,0-.021,0-.019,0-.032.011-.011h.07l0-.021v-.031l.013-.011h.02l.013.011.008.021.019.01.024.011h.111l.017-.011.018-.01.021-.021.017-.021.01-.02.015-.021,0-.011,0-.02h.006l.018-.022.01-.02.007-.042.054-.063.037-.052.018-.01.023-.021.016-.042.007-.031,0-.031v-.032l0-.01.015-.01.011-.032.01-.031,0-.032-.005-.01-.005-.021-.007-.021,0-.021-.005-.041,0-.031v-.085l.005-.021.006-.041,0-.052v-.021l0-.021.008-.031,0-.032-.012-.063-.008-.062-.006-.053-.006-.084.064-.407.013-.114.032-.063.014-.062.018-.052.006-.052.047-.083.078-.115.028-.021.089-.083.029-.021.049-.031.086-.031.043-.01h.032l.029-.022.034-.03.017-.021.01-.01h.008l.134-.021.186-.031h0l0-.011.246-.011.038-.021.022-.011.063-.094.067-.1.046-.095.056-.135.027-.073.031-.135.011-.1.008-.115,0-.073-.011-.146-.026-.2-.015-.115-.027-.094-.037-.084-.04-.083-.006-.021.018-.062.008-.042v-.042l-.013-.062-.025-.052-.028-.095v-.063l0-.072.009-.062.021-.136.008-.084v-.094l.015-.02.013-.022.034-.062.022-.083.008-.053.012-.115.012-.2,0-.156v-.1l-.011-.095-.011-.083-.058-.291-.012-.053-.035-.084.005-.03.014-.032v-.052l-.008-.052-.049-.2-.006-.031.008-.063.01-.083-.008-.032-.015-.052v-.042l0-.052v-.062l0-.063.007-.063,0-.1,0-.031-.077-.208-.018-.062-.012-.073-.013-.062-.026-.062-.04-.095-.139-.448-.1-.188-.023-.125-.04-.084-.027-.041-.037-.021-.021-.031,0-.052-.017-.073-.025-.042-.035-.073-.094-.229-.01-.063-.016-.114,0-.042-.013-.063-.024-.062-.036-.115-.047-.083-.03-.032-.036-.042-.035-.021-.032-.021-.094-.031-.026-.011-.04-.093-.02-.136.022-.157.017-.062.109-.147.06-.073,0-.052v-.022l0-.01h-.037l-.028-.032v-.031l.014-.031.03-.042.009-.011.016-.01.028-.01.021-.022.059-.042.038-.021h.013l.013.021.011.022.009.052.007.031.031.021.045.011h.03l.1-.063h.012l.024.031v.011l-.066.042-.032.01h-.017l-.014.031v.032l.008.073.013.042.031.041.048.083.048.084.029.041.018.052.011.042.013.052.025.052.055.053.052.052.044.052.021.052.014.063.02.011.026.01.011.021,0,.032-.013.021.006.052.008.041.007.042.02.052.023.063.007.063.019.052.043.063.022.042.01.052.012.063,0,.031-.028.1-.016.063-.012.041,0,.042v.042l0,.031-.019.042-.016.052,0,.021,0,.052,0,.042-.01.052-.008.041,0,.042.013.032.022.031.076.063.072.052.045.031.078.042.062.011h.1l.062.01.076.021.057.011H816l.035.031.028.031.031.032.072.03.064.032.068.01.058.011.066-.011.146-.062.258-.135.024-.032.014-.031.083-.052.056-.031.1-.063.1-.052.083-.011h.217l.1-.021.126-.031.052-.021.042-.041.177-.1.073-.063.018-.02-.029-.083.025-.041.034-.011.07.011h.069l.083-.021.03-.011.06-.041.379-.324.038-.062.055-.1.018-.052.022-.125-.015-.063-.022-.062v-.01l.014-.011.021.021.028.011.052-.011.1-.031.124-.032h.082l.086-.021-.029-.574-.039-.584,1.3.1.586-.3,1.247-.438,1.152-.146,1.026.031.764.146.6.251.744.427.744.532,1.1,1.8.167.929.137,1.283.072,1.659.734,1.93,1.11,1.106,1.76,2.577.48,1.147" transform="translate(-811.612 -1178.07)"  stroke="#fff" stroke-linecap="square" stroke-linejoin="bevel" stroke-width="1" fill-rule="evenodd"/>
      <text id="292" transform="translate(10.275 40.105)" fill="#fff" font-size="13" font-family="OpenSans-SemiBold, Open Sans" font-weight="600"><tspan x="0" y="0"></tspan></text>
    </g>
    <g id="_290_Mangaon" data-name="290 Mangaon" transform="translate(2457.918 355.382)">
      <path id="talId290" fill="#7DB8EC" title="Mangaon Taluka" data-name="Mangaon Taluka" d="M868.283,1260.025l.428-.334.182-.448.046-.4.067-.375.7-.3.662-.814,2.1-2.483.876-.741.722-.376.552-.324.761-.782-.076-.669-.151-.876-.1-.469-.608-.02-.494-.042-.171-.468.057-.939.171-.418-.267-.886.285-2.077.437-.855.229-.834.856.167.875.282.571-.146,1.084-.417.78-.418,1.122-.2.723-.282.381-.3.056-1.064.286-.969.3-.595-.208-.647-.723-.626-.38-.835-.191-.532-.627-.595-1.218.459-.913.4-.97.23-.818.084-.589-.157-.057-.532.3-.3.418-.25-.912-1.972.095-2.4.323-1.126.513-.814.286-.386,1.369.292.57.031.438-.449-.115-.553-.818-1.982.115-.876,1.236.386.551-.5.191-.74-.1-1.231-1.14-1.012-.685-.814.076-.939L878,1221l.286-.813.095-.438.172-.459.455-.354.115-.616.038-.3-.081-.845.789-.135.448-.052,1.051-.063,1.466-.063.787.449.1.25.449.6.7.2,1.115.251,2.594.25.688.49.361.407.471.522h.525l.613-.261.809-.25.831-.188,1.171-.23.568-.417.35-.679,2.384-1.95.744.125.58.314.493.448.076.564.208.469.318.168.383-.168.328-.511.58-.594.634-.9.373-.656.164-.606-.01-.458-.066-.71-.022-.606.688-.656.514-.449.285-.261.306-.448.362-.616.787-.667,1.542-.981-.12-.636-.351-.585-.317-.647-.437-.521-.427-.511-.6-.49-.525-.564-.231-1.241.132-1.2.438-.73.443-.648.75-.573,1.306-.418.5-1.272.9-.626.621.751.386.574.749.124.642-.156.461-.188.075-.427-.1-.438-.161-.563.14-.636.545-.354.428-.574-.021-.877.267-.406.321-.2.641-.376.056.147.485.521.608.355.352.219.427.219.258.1.152-.178v-.334l-.086-.376.21-.093.18.2.1.021.124-.4.038-.24.076-.522.115-.449.019-.334.077-.459.076-.1.37.292.286.345.266.27.285.167.238-.3-.067-.282-.294-.209-.38-.355.018-.25.152-.189.247-.406.162-.219.314.271.3.157.257.021.18-.313.266-.4-.19-.75-.1-.5.153-.448.437-.053.342.167.333.209.332-.01.247-.387.362-.552.322-.417.286-.356.266-.583.3-.136.513.1.381.114.2.115-.142.4-.123.563-.134.4-.152.459-.19.46-.114.376-.124.385-.038.4-.01.4.172.376.247.322.3.366.181.334.086.459-.428.219-.571-.229-.313-.073-.4.094v.385l.2.376.19.647.372.886-.067.365-.419.272-.208.27.047.481.085.553.048.49.047.439.134.553-.143,1.073-.608.136-.58.2-.4.26-.21.448-.019.606.171.646.2.835.846,2.566.067.835.077.73.047.72.057.949-.152,1.356.085.449.181.313.428-.24.247-.261.343.094.181.272.238.135h.18l.209-.417.172-.459.162-.324.284-.428.5-.041.389.25.391.261.322.313.3.49.276.531.219.835.21.552.123.929.057.511-.115,1.1-.047.563-.019.563.209.647.351.4.59.4.523.324.428.314.447.312.495.386.5.564-.095.146.218.323.03.241-.087.4-.313.542-1.056,1.42-.333.688-.277.49-.313.646-.428,1.481-.218.449-.191.3-.38.209-.324.167-.124.209-.019.438-.294,1.408-.133.459.076.251-.248.25-.342.146-.362-.125-.456.208-.381.219-.275-.1-.552-.448-.561-.062-.266,1.784-.265.521-.5.407-.874.678-.637.584-.038.606-.486.573-1.1.991-.562.25-.789.281-.95.313-.247.439.019,1.335-.009.47-.114.427.132.449.666.522,1.037,1.283.817,1.617.428,1.054.522,1.116-.085,1-.324.637-.474.9-.942,1.169-1.883.981-.693.324-.371.355-.1.656-.086,1.294-.047.761-.257,1.127.219,1.4.589.97.58.721.742.469,1.1.823.028,1.148.153,2.087v2.148l-.552,1.764.1,1.565-.285.647-.4.761-.257.542-.39.167-.352-.146-.513-.387-.581-.386-.827-.25-1.236.773-.885.084-.931.094-.609.334-.476.615-.941.3-.913,1.4-.543,1.837-.494,1.471-.294.25-.557.229-.475.074-.344.167-.37.208-.014.835.091.271.3.25.18.241.114.324-.128.094-.324.083-.26.1-.191.1-.242.1-.332.083-.223.022-.329.146-.28.491,0,.553-.11.354-.219.376-.3.647-.476.876-.2.094-.338-.021-.413-.177-.375-.209-.452-.042-.31.031-.185.177-.242.23-.428-.031-.3-.187-.181-.3-.347-.146-.609-.167-1.612.115-.209-.365-.647-.073-1.845-.095-1.522-.8-.951-.49-.3-.459.285-.855-.551-.49-.685-.271-.19-.375.19-.646-.056-.689-.323-.344-.59-.627-.838-.469-1.464-.157.152-.323.741-.626.323-.917-1.483-1.617-.685-.72-.913-.573-.855.386-.628.469-.742.532-.513.271-.8.6-.818.9-.856.814-1.028.917-1.56-1.137-2.206-2.117-.628-1-.666-1.221-1.007-1.2-1.009-2.191-1.426-2.034-.742-2.264-.323.062-.456.261-.342.136-.152-.49.171-.615.38-.835.4-.9" transform="translate(-867.333 -1187.78)"  stroke="#fff" stroke-linecap="square" stroke-linejoin="bevel" stroke-width="1" fill-rule="evenodd"/>
      <text id="290" transform="translate(12.271 61.899)" fill="#fff" font-size="13"  font-family="OpenSans-Bold, Open Sans" font-weight="700"><tspan x="0" y="0"></tspan></text>
    </g>
    <g id="_289_Mahad" data-name="289 Mahad" transform="translate(2486.115 398.226)">
      <path id="talId289"  fill="#7DB8EC" title="Mahad Taluka" data-name="Mahad Taluka" d="M926.1,1324.2l-.166.532-.5.866-.208.563-.052.574-.467.49-.468.344-.758.147-.416.146-.667.459-.152.1-.509.375.063.428-.073.429-.415.176-.572.032-.446-.032-.426.136-.706.469-.488.1-.633.011h-.518l-.385-.25-.549.125-.706-.209-1.371-.97-.675-.1-.281-.126-.281-.875-.208-.678-.082-.6.03-.564-.135-.782.031-.574.155-.532.727-.208.56-.334.332-1.054-.084-1.126-.155-.741-.332-.72-.779-.918.021-.564-.488-.23-.591-.219-.447-.2-.167-.239-.239-.647-.072-.616-.011-.489-.406-.814.146-.678.271-.407.114-.563-.2-.427-.82-.24-.509-.062-.623-.188-.614-.543-.186-.563-.521-1.012-.279-.491-.457-.282-.2-.271.124-.689.114-.575.427-1.178.487-1.19.478-.626.6-.209.539.042.333-.271.541-1.2.146-1.345.218-.667-.187-.606-.365-.542-.207-.4-.3-.46-.717-.438-.406-.323-.539-.553-.218-.866-.239-.479-.53.938-.1.793-.416.626-.6.469-.541.282-.352.084-.363-.2-.2-.554-.2-.647-.136-.584-.166-.522-.425-.458-.592.031-.956-.052-.374-.042-.3-.668-.643.053-.26.365-.581.542-.633.25-.706-.1-.572-.24-.612-.406-.425-.626-.3-.407-.353-.187-.551-.354-.208-.334.084-.824.061-3.088.561-.825.2-.824-.25-.647-.664-1.262-.52-1.179-.479-.783-.095-.8.076-.532.1-.813-.152-.761-.285-.584.056-1.22,1.613-.115.608.168.348.145.18.3.3.188.427.032.243-.23.185-.178.31-.031.452.041.376.209.412.177.339.02.2-.093.476-.876.3-.647.219-.376.109-.354,0-.553.281-.491.329-.145.223-.023.332-.082.242-.1.191-.1.261-.1.323-.083.128-.094-.113-.324-.181-.24-.3-.25-.091-.271.015-.835.37-.208.343-.167.475-.074.557-.229.294-.25.494-1.472.543-1.835.913-1.4.941-.3.476-.615.609-.335.932-.094.885-.082,1.236-.773.827.25.58.387.513.387.351.145.391-.168.256-.542.4-.761.285-.647-.095-1.564.552-1.764v-2.149l-.152-2.086-.028-1.148-1.1-.823-.742-.47-.58-.721-.59-.97-.219-1.4.258-1.127.047-.762.085-1.294.1-.657.372-.354.694-.324,1.883-.981.942-1.169.475-.9.323-.637.086-1-.523-1.116-.427-1.053-.818-1.617-1.037-1.283-.666-.522-.133-.449.114-.427.009-.47-.019-1.335.248-.438.95-.313.79-.282.561-.25,1.1-.992.485-.573.039-.605.636-.584.875-.678.495-.407.266-.521.266-1.784.561.063.552.449.275.1.381-.219.456-.208.362.125.342-.146.247-.25.352.2.332.114.286.2-.125.406-.257.356-.275.166-.362.168-.2.156-.352.312.2.355.124.386.132.3.2.3.3.095.428.094.257.177.3.3.219.229.219-.062.208-.354.3-.314.314-.26.218-.24.314-.313.466-.24.343-.042.352.031.428.052h.781l.351.219.247.522.238.49.143.417.142.418.3.3.485.093.571-.093.39-.073.456-.011.571-.167.457-.042.523-.291.228-.167.476-.021h.333l1.017.177-.048.583-.113.512v.281l-.1.346-.134.354-.009.4.076.71-.028.323-.048.48.019.407.171.418.095.448.105.449.114.4.2.866.037.438.381-.448.513-.439.618-.521.371-.3.495-.094.552.021.389-.1.342-.251.257-.344.38-.323.342-.23.324-.136.3.1.266.293.057.3.076.479.047.354-.019.418.21.312.361.1.361-.042h.448l.409-.042.495-.031.18.1v.355l-.133.3-.2.2-.266.334-.209.385-.171.324-.5.292-.275.188-.361.208-.218.208-.02.532.162.365.057.094.152-.01.533-.168.191.022.037.574.086.188.372-.084.464-.073.315.011.181.177.142.24.038.4v.292l-.077.406-.038.345.3.03.466-.01h.353l.494.01.561-.458.171-.407.371.209.162.375.219.073.342-.3.342-.052.4.291.257.293.047.293-.142.469-.228.25-.419.344-.351.313-.076.793.065.386-.237.25-.381-.147-.181-.145-.219-.218-.294.135-.067.272-.02.3.228.052.39.177.381.156.437.2.456.26.372.156.4.22-.124.6-.047.3-.2.125h-.57l-.238.229-.352.647-.208.491-.448.27-.409.24-.362.178-.39.177-.143.177.19.261.532.032.277-.011.474-.125.362-.085.571-.166.342.1.19.24.143.354.047.272-.1.3-.513.939-.552.554-.361.219-.371.23-.256.355-.294.406-.391.773-.1.438-.047.408.124.323h.419l.485-.209.551-.136.342-.094.571-.156.39-.01.372-.26.285-.366.219-.564.152-.541.086-.46.019-.533.018-.375.143-.761.114-.471.323.2.675.334.362.177.513.355.779.7.324.428.248.282.342-.031-.124-.678-.018-.563.238-.5.276-.25.1-.2.009-.281-.086-.511-.162-.626.152-.282.3.334.142.585.048.427.162.438.21.459.247.459.228.574.2.5.218.824.1.668.114.76.7.335.552.208.742.178.428.219.19.386.314.407.551.428.733.084.485-.021.675.136.333-.042.448-.271.256-.313.057-.355.1-1.032.151-.512.258-.187.731.1.485.083.58.272,1.369.876.213.135.634.4.713.3.561.271.513.272.513.26.485.188.381.125.248.042.132-.344.133-.271.476.343.694.063.98.334.665.147.58.041.7.084.475.178.409.208.39.219.457.459.275.376.324.563-.01.272.265.312.2.052.248.2.132.291v.335l-.028.344-.247.417-.286.24-.465-.115-.723-.177-.19-.136-.343-.324L976.6,1266l-.323-.219-.266.01-.428.021-.332.188v.375l.133.365.029.313-.238.606-.266.417-.286.585-.428,1.335-.38.2-.275-.043-.114-.219-.219-.47-.2-.365-.219-.24-.352-.062-.4.01-.1.281.009.292-.057.271-.191.334-.456.073-.19.084-.237.24-.077.553v.3l-.028.292-.095.261-.419.323-1.15,1.054-.01.2.305.157.285.052.532.093.332.2.114.23-.038.188-.408.1-.514-.042-.427.031-.448.052-.323-.032-.7-.417-.533.208-.437.418-.3.4-.333.24-.561.167-.257-.229.286-.469.314-.647.256-.531.181-.418.161-.605.229-.772-.171-.908-.133-.667-.362-.188-.1.47.115.438.095.386.095.532-.048.437-.227.564-.3.721-.428.793-.1.354-.723,1.754-.789.238-.466.532-.247.46.141.334.762.48.474.438.485.4.647.323.6.345.343.335.141.469-.247.792-.456.523-.333.427-.324.271-.333.271-.19.251.085.323.134.313.18.083.381-.156.532.2.4.209.885.146.741.219.371.146.409.261.143.3.039.313-.372.334-.95.751-.219.532-.028.376-.162.417-.162.364-.048.24.038.376.189.24-.418.469-.342.333-1.056,1.055-.238.343-.513.345-.438.178-.636.156h-.486l-.714-.2-.8.1-.389.146-.371.334-.571-.02-.522-.48-.266.6-.029,1.471-.238-.418-.522-1.472-.162-.751-.361-.469-1.265-.125-1.112.146-1.2.282-1.036.3-.589.876-.343-.04-.37.375-.732.865-.562.5-.523.354-.543.313-.58.48-.723.46-.532-.021-.618-.272-.542-.647-.523-1.9-.172-.856-.2-.615-.418-.375-1.285-1.335-.275-.292-.143-.48.152-.667.143-.5.067-.574-.4-.605-1.569-1.282-.761-.533-.467-.49-.457-.366-.883-.427-.7-.282-.609-.5-.476-.187-.608.344-.381.334.1.44.162.626-.01.491-.3.406-.419.407-.285.354-.095.532.162.428.218.741.466.9.333.313.161.365-.256.636-.2,1.451-.066.479-.019.543-.141.49-1.684-.062-1.179-.052-1.093.114-.952.271-.541.846-.78,1.116-.324.354-.094.584-.219.512-.409.386-.751.542-.96,1.294-.343.667-.161.491.132.365.19.491.429.771.951,1.148.485.3.351.605-.132.584-.323.5-.457,1.032.009,1.179-.427.657-.228,2.441-.248,1.106.085.4.856.47,1.274.782.058.512-.342.5.133.386.058.49.009.657-.608,1.117-1.245,1.325-.543.479-.428.4-.332.49-.21.741.019,1.763-.692,1.22-.1.219-.16.417,0,.407.261.313" transform="translate(-894.424 -1228.71)"  stroke="#fff" stroke-linecap="square" stroke-linejoin="bevel" stroke-width="1" fill-rule="evenodd"/>
      <text id="289" transform="translate(26.074 48.056)" fill="#fff" font-size="13"  font-family="OpenSans-Bold, Open Sans" font-weight="700"><tspan x="0" y="0"></tspan></text>
    </g>
    <g id="_295_Poladpur" data-name="295 Poladpur" transform="translate(2517.458 451.887)">
      <path id="talId295" fill="#7DB8EC"  title="Poladpur Taluka" data-name="Poladpur Taluka" d="M924.795,1321.965l-.261-.313,0-.407.16-.417.1-.219.693-1.22-.02-1.763.21-.741.333-.49.427-.4.542-.48,1.246-1.324.608-1.117-.009-.657-.057-.49-.133-.386.342-.5-.057-.51-1.274-.784-.856-.469-.086-.4.247-1.105.229-2.442.427-.657-.009-1.18.456-1.033.324-.5.133-.583-.352-.606-.485-.3-.95-1.147-.429-.772-.19-.491-.132-.365.161-.49.343-.668.96-1.293.751-.543.409-.385.219-.512.095-.584.324-.355.78-1.117.541-.845.952-.271,1.094-.115,1.179.052,1.684.063.141-.491.02-.543.065-.479.2-1.45.257-.635-.162-.366-.333-.312-.466-.9-.218-.741-.162-.429.095-.531.285-.355.418-.407.3-.406.01-.491-.162-.626-.1-.437.381-.334.608-.344.476.188.609.5.695.281.883.428.457.365.466.489.761.533,1.569,1.282.4.605-.067.574-.142.5-.153.667.143.479.275.293,1.284,1.335.419.375.2.616.172.855.523,1.9.541.646.618.272.532.021.723-.459.58-.479.542-.314.523-.355.561-.5.732-.867.37-.376.343.042.59-.876,1.036-.3,1.2-.282,1.112-.146,1.266.125.361.47.162.752.522,1.471.238.417.029-1.471.266-.594.523.479.57.021.372-.333.389-.146.8-.1.714.2h.485l.637-.156.438-.178.513-.344.238-.345,1.055-1.053.342-.334.419-.47.228.063.418-.031.257.751.152.377.41.219.36.093.447.115.353.24.352.291.095.335.2.459.2.167.323.041.836-.239h.685l.533.166.275.387.457.26.313.1.655.23.5.3.286.187-.476.585.019.167.313.146.495-.115.362.031.4.209.286.23.381.333.037.668-.51.908-.386.272-.379.125-.251.084-.289.031-.137.063-.015.156.065.157.116.167.236.208.464.24.187.261.127.188.1.261.08.208-.067.636-.239.344-.28.386-1.376,1.347-.68.5-.265.342-.323.376-.358.814.042.407-.1.178-.161-.084-.244-.229-.535-.063-.478.209-.212.24-.151.229-.125.188-.27.177-.27.219-.036.208-.037.24.094.3.265.147.427.2.706.313.363.229.161.25.121.313.088.365.031.344-.182,1.179-.446.427-.556.429-.524.271-1.153.846-.68.47-.515.364-.576.314-.229.218-.094.4-.489.836-.357.385-.712.469-.769.532-.633.178-.239.375-.083.323-.28.156-.43.271-.39.156-.576.022h-.244l-.426.031-.239-.178L960.3,1314l-.328-.375-.254-.333-.218-.23-.249.178-.176.167-.275.031-.4-.01-.281.072-.285.157-.146.354-.036.323.042.438.228.573.078.365.021.366-.021.418-.451.427-.862.615-.732.782-.717.71-.5,1.137-.458.491-1,.865-.645.46-.384.177-.311.062-.457-.062-.6.469-.586.282-.4.25-.5.344-.3.241-.135.125-.222.188-.173.292.006.49.151.595.082.3.223.156.375.126.218.042.337-.011.245-.053.285-.145.2-.209.291-.114.68-.032.882.053.549-.115.8-.292.8.271-.005.365.094.48.15.657.9,1.054.493.887.144.136-.57.48-.477.532-1.185.793-.342.3-.094.271-.28.4-.244.219-.415.073-.291-.02-.452-.093-.4-.189-.748-.375-1.242-1.054-.835-1.012-.276-.7-.27-.354-.358.24-.379.25-.416.208-.421.209-.627.417-.5,1.012-.15.449.01.229.306.25.11.324-.026.135-.244.272-.405.355-.612.678-.53.678-.446.491-.3.344-.4.219-1.168.24-.571.053-.488-.053-.276-.156-.27-.439-.321-.7-.451-.98-.38-.762-.581-.408-.628-.042-.619.021-.95.24-.514.02-.624-.062-.913-.2-.4-.042-1.377.085-.373.062-.192.344-.094.439-.218.468-.2.324-.462.344-.825.24-.281.2-.057.4.089.283.078.2.047.209-.245.188-.233.052-.524-.093-.39-.47-.576-.657-.3-.376-.239-.4-.047-.438-.253-.834.758-.647.269-1.21-.025-1.106-.9-.146v-.813l-.031-.554-.093-.876-.218-2.285.072-.741-.041-.616-.354-.417-.674-.312-.312-.157-.395-.292-.395-.188" transform="translate(-924.532 -1280.36)"  stroke="#fff" stroke-linecap="square" stroke-linejoin="bevel" stroke-width="1" fill-rule="evenodd"/>
      <text id="295" transform="translate(8.732 27.395)" fill="#fff" font-size="13"  font-family="OpenSans-Bold, Open Sans" font-weight="700"><tspan x="0" y="0"></tspan></text>
    </g>
    <g id="_291_Mhasla" data-name="291 Mhasla" transform="translate(2422.788 414.692)">
      <path id="talId291" fill="#7DB8EC" title="Mhasla Taluka" data-name="Mhasla Taluka" d="M834.224,1244.6l.084-.011.071.02.086.053.013.041-.005.042,0,.021.027.073.024.074.038.1.077.115.117.167.056.042.079.011.065-.011.064-.042.023-.01.056.052.044.02h.254l.25-.01h.077l.036-.011.034-.021.026-.022h.064l.109.022h.121l.038.01.146.063.144.063.092.052.024.011.092.114.04.115.036.146.02.02.026.01.051-.01.082-.02.042.02.056.041.032.063.055.021.025-.011.049-.063.03-.092.01-.032-.015-.052-.021-.042-.056-.021-.011-.01.008-.156.015-.011.04-.01.259-.062.128-.021.062-.021.051-.052.027-.042.018-.083.014-.021h.016l.06.021h.013l.045-.063.041-.094.007-.052V1245l-.021-.042-.005-.032.005-.042.028-.052,0-.021-.013-.053,0-.083,0-.01-.043-.053,0-.02.035-.052.013-.01h.031l0-.021.011-.01h.014l.055.021h.006v.031h.032l.03.011.047.073.011.177-.038.282-.078.208-.058.209,0,.052.015.084.091.178.125.207.058.063.145.094.072.073.033.01.032-.01.042-.02.065-.053.056-.011.259.116.092.156.08-.01.115-.011h.535l.625.095.427.209.125.114.041.063-.019.126-.039.1-.03.094.063-.062.069-.116.07-.052.056-.01.132.01.087.052.584.23.177.145.076.135-.033.083-.2.167-.293.251.347-.115.235-.094.267-.1.223-.114.133-.021.145.01.242.042.644.188.9.354.195.147.01.136-.059.208-.107.229.24-.26.078-.1.095-.083.107-.062.122-.021.424.094.6.208.408.229.576.292.566.334.654.511,3.119-1.033.031.156-.085.71.342.418.8.208.661.48.242.991-1.6.5-.476.969-.133.95-.075,1.064-.286,1.105.19.888.989-.094,2.187-1.105,1.2-.49.476.156.381.98.4.762.494-.146.533-.69.457.095,1.027.595.931.354.686.219,1.369.187,1.122-.344.266-.385.02-1.325.19-.721.684-.531,1.027-.312.646-.147,1.1.907.494.689.647.605.741.667.209.167-.4.9-.38.833-.171.616.152.491.342-.136.456-.261.323-.063.742,2.264,1.426,2.035,1.009,2.192,1.008,1.2.665,1.22.628,1,2.205,2.119,1.56,1.137,1.028-.918.856-.814.818-.9.8-.606.514-.271.741-.531.628-.47.855-.386.913.574.685.72,1.483,1.616-.322.919-.742.626-.152.324,1.463.156.838.47.59.626.323.344.056.688-.19.647.19.376.686.271.551.49-.285.856.3.459.95.49,1.522.8,1.844.094.647.074.209.364-.056,1.222.286.583.152.763-.095.813-.076.533.1.8.478.782-.954.459-.655.355-.633.282h-.622l-.644-.209-.426-.261-.478-.3-.281-.114-.769-.021-.706.2-.394.386-.156.386-.353.522-.623.417-1.038.021-.758.011-.665.208-.851.334-.582.208-.612.178-.478.187-.7.146-.6.072-.779-.125-.581-.208-.873-.365-.789-.449-.281-.928-.29-.532-.685-.292-.738.031-.706.23-.374.459-.3.667-.281.481-.4.417-.52.157-.851.031-.436-.177-.622-.47-.53-.1-.52.125-.311.146-.52.377-.934,1.366-1.143,1.085-1.142,1.282-.686,1.2-.924,1.023-.394.928.093.647v.469l-.2.584-.4.355-.644.291-.644.188-.893.136-.727.208-.281.47-.955,1.649-1.038,2.42-.893,1.941-.322.98-.415.741-.55.4-.148-.928-.132-1.325-.609-1.408-1.045-3.161-.173-.97.438-.647,1.369-1.043.419-.438.628-.7.685-.8.247-1.1.02-.564.209-.428.609-.323.19-.564.058-.875-.42-.919-.836-.188-.99-.553-.4-1.2-.151-.7-.8-1.241-.7-.355-2-1.043-2.567-1.7.457-1.6-.191-.647-.456-1.117-.247-.386-.589-.323-.515.073-.912.042-.723-.281.247-1.336-.666-.323-.685-.324-.361-.625.114-.689-.761-.605-.628-.834-.133-.689.133-.741.247-.99-.229-.888-.342-.875-1.274-1.013-1.427-.855-.685-.855-.019-.8-.4-.646-.3-.334.343-.459.095-.48v-.678l-.3-.8-.3-.646-.666-.417-.571-.251-.761-.49-1.122-.574-.152-.491.133-1.043.38-2.056-.723-.083-.855-.167-.857-.094-.836-.135-.76-.9.113-1.8.324-.532.609-.512.475-.688.533-.7.475-.365.418-.3.209-.573-.152-.449-.7-.417-.609-.386-.551-.23-1.312-.146-.913.095-.494.532-.723,1.158-.134-.376.353-1.805.009-.406-.057-.375-.052-.481.047-.438.262-.188.091-.866.056-.762-.071-.772" transform="translate(-833.587 -1244.5)"  stroke="#fff" stroke-linecap="square" stroke-linejoin="bevel" stroke-width="1" fill-rule="evenodd"/>
      <text id="291" transform="translate(21.402 33.59)" fill="#fff" font-size="13"  font-family="OpenSans-Bold, Open Sans" font-weight="700"><tspan x="0" y="0"></tspan></text>
    </g>
    <g id="_297_Shrivardhan" data-name="297 Shrivardhan" transform="translate(2408.133 406.238)">
      <path id="talId297" fill="#7DB8EC" title="Shrivardhan Taluka" data-name="Shrivardhan Taluka" d="M842.41,1306.609l-1.56-1.492-.047.032-.081.031-.128.052-.151.042-.136-.011-.054-.01-.12-.031-.121-.063-.17-.052-.063-.011-.035-.01h-.06l-.049-.011-.109-.02h-.082l-.128-.01-.15-.01-.052.021-.047-.01-.029-.052-.017-.062-.027-.053-.029-.02-.137-.01-.112-.063-.034-.063-.009-.062.024-.074.027-.052.071-.031.082-.041.033-.021h.071v-.01h.05l0-.021h.07v.021l0,.01h.006l.162.021.03-.01.046-.1.019-.072-.027-.093-.1-.261-.091-.177-.031-.094-.1-.261-.1-.261-.115-.345-.122-.4-.08-.22-.072-.208-.1-.282-.08-.187-.083-.228-.1-.229-.093-.147-.081-.125-.118-.156-.057-.053-.1-.073-.106-.083-.126-.094-.134-.063-.164-.1-.122-.041-.077.01-.069.042-.119.042-.084.063-.077.021-.079-.042-.091-.115-.056-.031-.008-.042.017-.083-.069-.136-.071-.093-.062-.031-.124-.157-.048-.125-.006-.209-.033-.219-.04-.146-.068-.1-.024-.042-.031-.01-.04.021-.028-.01-.019-.01,0-.042.082-.052.02-.073v-.052l-.048-.187-.1-.084-.113-.093-.095-.074-.065-.042-.049-.02-.028-.01-.083.062-.067.01-.036-.021-.011-.031,0-.042v-.083l.019-.042.059-.021h.114l.077.042h.052l.067-.042h.1l.113-.021.026.01.027.031.052.011.047-.011.08-.042.1-.052.05-.01h.038l.067.021.091.01.078-.02.052-.1.033-.126.068-.1.066-.073.032-.031h.027l.113-.011.043-.02.052-.053.034-.042.1-.042.229-.02.082-.021.047-.031.017.01.024.01h.023l.031-.01.027-.073.02-.021.052-.01.046.01.071.042h.061l.07-.042.086-.073.082-.072.085-.021.069.011.013.021,0,.052.017.01.028-.01.133-.052.042-.01h.016l.037.02h.141l.028-.042.017-.041.054-.053h.048l-.082-.773-.048-.021-.288-.208-.138-.1-.1-.219-.119-.136-.159-.2-.119-.24-.23-.554-.216-.573-.359-1.023-.357-.971-.3-.542-.175-.2-.383-.365-.274-.166-.245-.126-.073-.031-.1-.042-.1.01-.081.052-.081.074-.036.083-.075.168v.083l-.028.063-.02.01.006.073v.011h-.019l.007.031h-.016l-.008-.031-.022-.115-.008-.01H834.5l-.008.01-.056.126-.084.125-.117.094-.222.073-.254.01-.044-.01-.087-.062-.09-.011h-.075l-.068-.031-.023-.032-.025-.093-.008-.073.022-.115-.008-.052-.058-.053-.125-.1-.141-.1-.067-.084-.045-.094-.1-.083-.053-.1-.111-.136-.042-.1-.077-.083-.013-.032.034-.167,0-.052-.009-.031.012-.041.04-.083.02-.157.048-.094.017-.052.019-.052.05-.177.049-.1.032-.157.053-.114.053-.073.058-.053.059-.062.08-.094.087-.125.047-.114,0-.094.017-.1.039-.136.041-.094.046-.1.09-.084.08-.1.088-.136.043-.052.076-.052.059-.042h.041l.007.031.034.052.045.031.032.01.053-.01.055-.011.067-.042.025-.041.067-.084.146-.23.029-.27,0-.261.005-.345,0-.094,0-.052.016-.031h.028l.023.021.03.073.058.062.1-.145-.015-.073-.006-.1-.024-.053-.121-.052-.085-.052-.086-.1-.1-.229-.1-.271-.126-.365-.192-.637-.061-.229-.214-.636-.11-.386-.183-.605-.054-.218-.05-.22-.094-.366-.061-.208-.132-.281-.163-.324-.054-.1-.148-.292-.138-.22-.1-.156-.214-.323-.162-.167-.042-.042-.045-.02-.051.02-.042.011h-.034l-.161-.073-.119-.011-.12-.073-.137-.032-.08-.063-.06-.115-.1-.365-.062-.1-.094-.042-.145.032-.046-.011-.016-.021-.048-.115-.063-.1-.1-.042-.064-.032-.051-.073-.031-.052-.029-.324-.024-.24-.026-.292v-.052l0-.166-.013-.125-.1-.209-.055-.072-.043-.011-.118.011-.065-.031-.032-.074-.026-.24.075-.063-.009-.063v-.094l-.015-.1-.066-.282-.011-.136-.021-.062-.033-.094-.055-.1-.058-.1-.022-.062-.02-.115-.008-.052-.052-.052-.032-.115-.065-.105-.083-.094-.1-.073-.079-.052-.09-.021-.113-.052-.052-.042-.057-.125-.041-.114-.01-.032-.009-.041,0-.053,0-.073-.028-.1-.025-.125-.019-.094-.036-.031-.052-.032-.02-.041.016-.052.037-.052.044-.042.036-.083-.021-.1-.052-.115-.074-.26-.115-.178-.107-.062-.045-.011-.126.063-.034.021-.054-.011-.023-.01,0-.021.075-.042.229-.156.1-.074.058-.021.029.011.082.073.054.052h.016l.01.01.076-.021.065-.041.017-.01.083-.094.036-.135.064-.167.023-.021h.041l.1.021.146.031.054-.031.076-.094.063-.031.192-.031h.092l.164.052h.048l.044-.01.12-.146.1-.1.059-.041.237-.052.139-.094.038-.031.027-.073,0-.042-.013-.021-.015-.073.007-.031.042-.115,0-.021-.023-.042-.025-.021v-.031l.034-.073.016-.062,0-.03.022-.157.069-.188.111-.135.071-.042.066-.042.063-.031.047-.02.04-.042.008-.1.012-.146.021-.1.006-.105v-.1l.029-.209.014-.051.076-.084.069-.083.077-.125.005-.032-.01-.074-.009-.031-.021-.01-.024.021-.021.01h-.014l0-.02.011-.031v-.031l-.033-.021-.06-.021,0-.042.017-.031.066-.052.078-.042h.017l.049.042.048.01h.119l.072-.052.012-.083-.026-.052-.145-.052-.02-.031.013-.052.029-.042v-.042l-.034-.031-.052-.011-.008-.021.01-.042.025-.052,0-.063.028-.3-.008-.041-.033-.021-.1-.021-.041-.011-.024-.031.008-.011.06-.01.044-.053.03-.114.025-.147.009-.136.013-.041.051-.052.027-.083.025-.094.045-.1.158-.167h.042l.022.021.015.073.014.01.036-.02.025-.021.029-.041.027-.052.018-.073.026-.114v-.1l-.01-.073-.025-.031-.089-.115L832,1265.3l-.014-.031-.017-.094-.318-1.409-.386-1.585-.623-1.826-.395-1.231-.257-1.053-.057-.24.043-.261.026-.25.048-.052.046-.011.09.136.166-.1.166-.156-.084-.042-.129-.094-.052-.041-.048-.052-.027-.031-.07-.156-.077-.146-.105-.136-.1-.062-.119-.063-.033-.031-.032-.062-.028-.073-.062-.073-.083-.073-.072-.042-.1-.031-.134-.021-.117.01-.041-.02-.04-.042-.037-.084-.153-.23-.141-.156-.106-.093-.048-.021-.142-.042-.094-.084-.08-.167-.039-.063-.048-.063-.06-.041-.067-.043-.067-.01-.092.032h-.023l-.019-.022-.02-.031,0-.063,0-.021-.022-.021-.131-.083-.09-.083-.009-.011-.007-.042-.011-.114-.028-.084-.037-.073-.1-.2-.125-.26-.024-.063-.037-.042-.09-.073-.026-.042-.038-.062-.049-.073-.032-.02-.045-.011-.091-.052-.066-.062-.074-.042-.078-.031-.03-.011H826.4l-.069-.011-.056-.052-.033-.032-.03-.146-.012-.083-.029-.052-.038-.042-.054-.053-.078-.042-.075-.053-.028-.031-.034-.063-.059-.1-.069-.147-.08-.083-.166-.116-.02-.01-.064-.115-.026-.021-.036-.021-.015-.021-.017-.01h-.058l-.006-.021-.005-.021-.025-.031-.046-.021-.182-.094-.231-.094-.277-.052-.122.031-.118.031-.012.011-.012.042-.006.01-.061.042h-.011l-.086-.052h-.037l-.017-.011-.055-.073-.037-.073-.064-.052-.083-.083-.244-.177-.17-.1-.173-.1-.23-.1-.144-.063-.055-.021-.062-.01-.085-.01-.089-.011-.038.011-.039.01-.061.042-.031.032.02.063-.011.031-.016.021-.033.02-.141.011-.09.031-.087.052-.019.042-.029.031-.011.02.01.032.079.073.024.031,0,.031-.025.073-.048.073-.035.022-.071-.011-.076-.021-.041-.01h-.034l-.068.031-.094.053-.112.073-.08.042-.184.063-.086.052-.05.073v.01l.1.125,0,.011,0,.01,0,.021,0,.011.006.021.033.032.013.02,0,.022-.032.052-.07.031-.066.021-.207-.084-.046-.01-.055.01-.143.021h-.032l-.054-.031-.095-.094-.087-.042-.094-.042-.065-.021h-.1l-.051-.01-.034-.011-.087-.063-.144-.177-.077-.084-.072-.083-.023-.063,0-.146.045-.136.036-.052v-.042l-.028-.042-.051-.053-.029-.072-.006-.053-.005-.083.023-.052.057-.042.123-.021.122.01h.1l.077-.032.036-.041.018-.032v-.021l-.047-.052,0-.042,0-.01.012-.01.031-.042.005-.042-.005-.073-.023-.052-.011-.053,0-.031.023-.031.106-.052.032-.032.018-.1,0-.188.017-.156.018-.052.023-.021.1-.01.018-.01.022-.021.018-.094.009-.01.116-.094.04-.021h.035v-.01l-.006-.021h0l.017-.021h.043l.015-.01.1.02.025-.02.029-.021.04-.073.012-.032,0-.041v-.011l.036-.062.015-.031.007-.042-.005-.021v-.011l.009-.011.028-.02h0l-.014-.021-.025-.021-.009-.032,0-.01.009-.031-.009-.021,0-.02.01-.031.023-.02h.03l.143-.011.1.011.188.031.058-.01.049-.052.017-.042v-.094l.06-.1.056-.031.074-.031.1-.042.006-.021-.007-.021-.069-.083-.013-.042,0-.062.034-.115.009-.073-.016-.115.011-.23v-.031l0-.052-.041-.135-.024-.1-.049-.021-.128-.062-.065-.084,0-.031.012-.021.025-.021,0-.021-.017-.032-.034-.01-.03-.032-.009-.021-.015-.146.011-.032.046-.042h.006l-.008-.01-.03-.011-.018-.03,0-.032.026-.021.005-.01,0-.219.018-.031.082-.042.017-.011.117-.282-.006-.031-.026-.042v-.042l.066-.1.029-.02.068-.011h.05l.038-.031.134-.209.015-.094-.017-.136-.039-.176-.02-.063-.094-.167-.029-.073-.007-.042.006-.031.057-.156.008-.063,0-.073,0-.021.025-.032.01-.042-.011-.021-.02-.031,0-.021-.01-.031-.063-.1-.021-.052-.011-.042-.028-.073-.007-.052v-.063l-.008-.2-.059-.219-.1-.146-.025-.031-.009-.053-.06-.25-.045-.1-.141-.188-.02-.042-.064-.282.008-.1.066-.178.014-.072-.013-.208-.009-.094v-.167l-.013-.094-.016-.051-.082-.115-.116-.147h0l.005-.021v-.021l-.016-.01-.06-.031-.077-.105-.07-.083-.016-.031,0-.011.011-.031.007-.052,0-.01,0-.01.023-.021h0v-.073l.032-.042,0-.02-.011-.032.009-.021.087-.041.014-.021.007-.031,0-.042-.057-.094-.018-.031-.068-.062-.1-.135-.05-.053-.1-.146-.065-.094-.05-.042-.058-.042-.079-.022-.09-.052-.01-.021-.029-.094v-.021l.015-.041.038-.011h.016l.026-.032.061-.093.014-.041,0-.021-.006-.01h-.022l-.063.01h-.012v-.01l.005-.01.063-.042.059-.042.05-.052.031-.02.031-.021.052-.01.009-.011,0-.021.01-.01.019-.011.04.011.029.01h.044l.033-.01.044-.032.008-.021.011-.031.005-.074.009-.115,0-.042-.01-.052-.044-.052-.053-.031-.024.01-.048.031-.019-.011-.029-.021-.013-.031-.005-.095-.012-.031-.026-.052,0-.032.032-.062.015-.042.021-.042.017-.01.009-.011.01-.083-.008-.073-.014-.021-.031-.011-.044-.021-.1-.042h-.006l.009-.031v-.011l-.013-.01h-.025l-.011-.01-.035-.041-.03-.063v-.031l0-.01.029-.021v-.031l-.011-.115.009-.063.007-.032.038-.041.07-.031.064-.062.086-.146.072-.074.051-.073.034-.031.024-.063.053-.084.07-.041.032-.011.043-.031.1-.011.1.021.064.063.026.042.016.052.032.021h.027l.054-.021.037-.115.06-.115.041-.052v-.021l.02-.021.026-.01.018-.052.018-.01h.014l.009.021.006-.011.007-.01h.011l.007-.011.042.042h.027l.053.052.043.031.018.01h.016l.04-.052.019-.01h.025l.036.01.078-.01.029-.011.025-.021.024-.01h.092l.028.01.124.115.047.063.056.011.033-.011.029-.052.029-.031.071-.031.159-.042.11-.021.122.01.108.032.149.073.119.011.066-.011.121.021.239.095.038.011h.09l.022.02.037.021.034.01.031.011.022.01.072.042.137.115.024.032.014.01.078.01.067.042.074.021h.016l.027-.021h.007l0,.011-.014.032,0,.01h.013l.046-.021.036-.011h.044l.128.042.075-.01.092-.01.081-.011.035.011.19.041.082.011.081.011.143.031.044.01.031.021.065.052.061.021h.084l.041.01.032.021.068.052.041.021h.042l.032-.01h.117l.161.052.206.062.082.043.081.072.065.063h.026l.035.011.016.01.089.073.014.021.006.031v.032h0l.1.063.148.052.133.084.1.072.016.01h.015l.033-.021h.01l.006.01.5.783.125.188.1.167v.01l0,.01-.108.073-.1.094-.041.063-.05.073-.026.01-.042.011h-.01l0,.021.044.083.015.052.025.219,0,.095-.043.083-.023.042-.044.053-.041.031h-.018l-.05-.01-.046-.053-.009-.01-.072-.021-.034.031-.04.084,0,.063.024.094.01.01.126.053.113.083.034.052.013.072-.009.177,0,.042-.036.084-.009.042-.01.063-.022.083v.021l.041.052.022.032h.023l.045.01.047.022.19.093.27.094h.016l.016-.042,0-.01h.03l.1.021.076.031h0l-.016.031.009.011.018.042.008.021,0,.021-.008.042-.023.084-.055.052-.236.147-.286.229-.117.093-.043.063-.016.083.018.053.021.083.054.188-.023.041-.061.032-.039.052-.037.146.005.094.045.1.135.073.031.073.021.229.041.229.091.293.022.188.1.271.1.313,0,.1.026.052.05.073v.019l-.012.021-.064.073-.014.073.013.042.033.094-.008.021-.042.042-.006.021,0,.02.04.22.031.063.048.094.023.031.052.042.139-.042.114-.031.293-.1.29-.031h.022l.025.02.017.042.013.031h.093l.092.021.013.031-.018.052-.08.042-.016.031.014.032.056.094.117.073.071.042.108.156.187.125.144.041.184-.009.022-.01.05-.063.1-.083.044-.021.053-.011.112-.031.02-.021.047-.083.027-.021.022-.01h.023l.291.063.224.021.178-.032.093-.074.18-.073.173-.115.047-.021.251.031.049-.031.061-.062.1-.074.017-.052-.022-.052-.031-.052.01-.042.05-.1.043-.02.035.01.1.1.195.052h.056l.031-.01.03-.063.033-.01.124.042.185.094.159.125.1.041h.122l.143-.01.05-.073.012-.063-.05-.156-.027-.156-.008-.125.008-.073.055-.115.026-.031.078-.062.074-.084.037-.031.015-.011.045.073.041.052.068.031.136.019.071.773-.056.761-.091.866-.262.188-.047.437.052.481.057.376-.01.407-.353,1.8.134.376.723-1.158.495-.532.913-.094,1.312.146.551.23.609.386.7.418.152.447-.208.575-.418.3-.476.364-.533.7-.474.688-.609.511-.324.533-.114,1.8.76.9.837.136.856.094.856.167.723.083-.381,2.054-.133,1.044.151.49,1.123.574.76.49.571.25.666.418.3.647.3.8v.679l-.094.479-.344.46.305.334.4.647.019.8.685.855,1.427.856,1.274,1.012.342.876.229.887-.247.991-.132.741.132.688.628.834.761.606-.114.689.361.625.685.324.665.323-.247,1.335.722.282.913-.042.514-.072.59.323.247.385.456,1.117.191.647-.457,1.6,2.568,1.7,2,1.043.7.355.8,1.242.151.7.4,1.2.989.553.837.188.419.918-.057.876-.19.563-.609.323-.209.428-.02.564-.248,1.106-.684.8-.628.7-.419.438-1.368,1.043-.438.647.172.971,1.045,3.161.609,1.408.132,1.325.149.929-.209.146-.57.156-1.07-.469-.675-.532-.779-.511-.675-.386-.593-.333-1.308-.272-1.745-.042-1.485-.146-1.485.229-.8.219-.841.209-.851.229-2.679.97-.582.084-1.282-.3" transform="translate(-819.509 -1236.23)"  stroke="#fff" stroke-linecap="square" stroke-linejoin="bevel" stroke-width="1" fill-rule="evenodd"/>
      <text id="297" transform="translate(18.057 54.044)" fill="#fff" font-size="13"  font-family="OpenSans-SemiBold, Open Sans" font-weight="600"><tspan x="0" y="0"></tspan></text>
    </g>
    <g id="_286_Alibag" data-name="286 Alibag" transform="translate(2391.34 278.825)">
      <path id="talId286" fill="#7DB8EC" title="Alibag Taluka" data-name="Alibag Taluka" d="M833.434,1194.647l-.481-1.147-1.76-2.578-1.11-1.106-.734-1.93-.073-1.659-.137-1.283-.167-.929-1.1-1.8-.744-.532-.744-.427-.6-.251-.765-.146-1.026-.031-1.152.146-1.247.44-.586.3-1.3-.1-.141.031-.334.011-.08-.011-.111-.062-.068-.095-.051-.114-.1-.167-.11-.355-.164-.543-.016-.073.006-.051-.044-.24-.059-.365-.107-.4-.223-.647-.037-.114-.061-.115-.08-.167-.206-.4-.2-.344-.2-.364-.3-.48-.093-.178-.438-.9-.13-.292-.079-.24-.21-.511-.063-.135-.045-.125-.041-.063-.085-.135-.135-.272-.128-.209-.045-.2.033-.1-.006-.011-.006-.01-.08-.166-.011-.021-.017-.021-.007-.01-.063-.1-.169-.291-.359-.909-.241-.552-.154-.376-.133-.261-.145-.282-.2-.438-.25-.647-.437-.928-.611-1.356-.108-.22-.569-1.242-.241-.313-.547-.939-.431-.615-.418-.564-.315-.48-.043-.093-.21-.679-.252-.907-.052-.438-.008-.334v-.313l.01-.167-.338-.208-.136-.042-.051-.011h-.1l-.11-.02h-.063l-.078-.021-.083-.011-.091-.021-.065-.01-.071.01-.059-.01-.094-.052-.05-.021-.156-.052-.317-.073h-.172l-.216-.01-.042-.02-.1-.042-.132-.031-.083.021-.06.021-.033-.011-.062-.052-.048-.115-.013-.062v-.052l0-.032-.011-.021-.053-.1-.017-.042-.02-.062-.013-.074v-.073l.005-.1v-.042l-.053-.134-.052-.156-.031-.053-.146-.209-.072-.073-.083-.209-.058-.094-.1-.073-.078-.1-.056-.135-.06-.073-.037-.1-.012-.093-.034-.125-.022-.1-.051-.167-.057-.177,0-.073-.018-.031-.01-.063-.016-.251-.021-.072-.138-.46-.025-.145-.04-.177-.03-.2-.025-.135-.038-.177-.025-.136-.035-.187-.029-.219-.009-.145.015-.428.015-.209-.028-.24-.067-.261-.017-.115-.006-.052.247-.073-.009-.062-.039-.072-.055-.073,0-.011-.012-.031.02-.073.026-.073v-.177l-.053-.241-.147-.542-.05-.146-.11-.249-.07-.188-.052-.157-.053-.219-.034-.167-.006-.491-.042-.25-.013-.1-.033-.292-.043-.293-.034-.188-.005-.052.009-.157-.006-.26,0-.156-.016-.125-.115-.344-.1-.24-.109-.177-.074-.136-.057-.094-.114-.136-.087-.114-.064-.083-.091-.125-.049-.1-.047-.125-.107-.23-.022-.073,0-.041.046-.084.027-.062.011-.209,0-.083-.009-.053-.044-.063,0-.042.005-.03.089-.261.029-.021h.025l.19.052.109-.021.052-.072.024-.084,0-.041-.018-.095,0-.021.01-.021.076-.042.064-.042.111-.156.113-.209.115-.3.06-.229.049-.188.046-.24.043-.1.037-.115.012-.063,0-.115.039-.251.028-.26.056-.229.063-.167.061-.2.1-.24.109-.3.111-.406.021-.1.073-.533.009-.052.017-.24.005-.365,0-.344.009-.1.018-.355v-.25l0-.083-.009-.116-.011-.02-.027-.043-.009-.125-.011-.031,0-.052,0-.052-.025-.333-.018-.282-.01-.2,0-.083-.052-.1-.051-.146,0-.031,0-.261v-.166l-.014-.095-.064-.251-.064-.25-.02-.2,0-.157.015-.209.028-.375.052-.219.034-.1.095-.24.042-.115.039-.1.05-.167.065-.2.077-.3.065-.469.027-.261.037-.323.055-.24.028-.156.044-.063.043-.011.035-.01.034-.116.028-.082-.028-.043-.059-.062-.061-.073-.08-.125-.085-.157-.077-.282-.057-.25-.054-.25-.037-.167-.033-.814-.048-.459-.045-.166-.05-.095-.021-.1-.022-.146-.013-.188.006-.084.056-.3.016-.062.016-.24-.013-.2v-.292l.019-.334.015-.469.008-.292-.028-.345.014-.261.011-.4,0-.292.012-.3.021-.25.018-.157,0-.125-.029-.167.008-.053.03-.125.056-.2.054-.231.018-.124.014-.146.068-.125.042-.063.065-.041h.039l.033.021.021.01h.043l.044.01.053-.031.069-.052.064-.052.059-.073.023-.052.026-.094.024-.116.029-.219,0-.167.006-.1.01-.042v-.072l0-.021.019-.031.041-.083.026-.052,0-.052.015-.083.008-.021.047-.052.017-.063-.008-.042.005-.042.011-.042.029-.042.022-.032.018-.021.067-.021.069-.041.013-.022.022-.01.045-.011h.041l.051.011.051.042.02.031.012.042-.017.115.009.042.041.073.1.1.085.052.126.063.128.041.113.021h.13l.128.011h.13l.123-.011.161-.021.245-.041.134-.01.033-.021.037-.021.07-.083.105-.084.039-.062.032-.042.122-.1.134-.115.089-.084.071-.052.08-.052.026-.052.016-.053.03-.125.01-.031.029-.021h.007l.035.01.023.022.016.021.006.021-.028.135-.006.052.03.042,0,.021-.035.1.006.073.038.052.08.042.1.031.2.032h.227l.133.042.136.021.113.073h.061l.044.021.01.01,0,.021-.049.031-.038.042-.013.021-.008.021-.008.063-.031.042-.013.063-.021.1-.029.042-.011.052,0,.063-.022.041-.02.1.025.083.041.083.01.052,0,.042.087.01.036-.02.036-.021.04-.02.054-.022.343-.021.3-.021.185-.031.2-.042.144-.042.363-.1.146-.052.063-.031.053-.031.039-.031.038-.031.008-.021,0-.031-.017-.031-.02-.031-.028-.031-.046-.094.05-.021.013.031.05-.021.034.084.043.073.049.021h.052l.072-.032.106-.062.1-.084.041-.052-.006-.094.02-.094.05-.073.023-.042.03-.042.056-.032.017-.042.015-.01.056.021.06.062.124.146.09.115.028.042.033.01.051.021.105.073.154.052.184.073.032.042.018.051.121.115.132.083.057.011.014.021-.008.052-.011.042.006.083.013.178-.007.178-.008.177-.036.052-.038.021-.01.25.034.094,0,.113.023.053.024.041.035.031.207.136.027.042.017.042.049.073.095.073.053.031h.046l.05.01.029.011.021.031,0,.073.1.094.075.073.1.01.242.021.132.011h.094l.108-.011.156-.042.22-.052.227-.042.024.01.01.021.061-.021v-.031l.008-.042.013-.021.022-.021.066-.032.28-.156.219-.136.18-.125.137-.115.141-.125.143-.115.116-.115.095-.1.067-.074.142-.136.122-.156.121-.167,0-.053.024-.083.1-.167.056-.063.18-.218.066-.021.117-.177.1-.2.126-.25.07-.116.058-.073.047-.083.043-.073.106-.219.065-.146.154-.375.132-.354.212-.542.107-.2.137-.333.045-.083.046-.052.073-.073.08-.021.034-.021.05-.052v-.073l.1-.3.192-.375.207-.438.2-.459.078-.1.067-.072.129-.188.269-.584.164-.209.183-.157.134-.052.149.021.125.041.1.094.065.063.017.136-.014.094v.084l.065.26.2.449.212.324.073.115.159.062-.045.23.023.031.1.042.147.125.182.188.2.324.143.282.432,1.064.474,1.075.346.647.041.135.079.126.139.2.109.209.148.229.251.386.256.324.4.4.115.126h.041l.035.052.049.072.156.125.272.24.578.407.56.511.762.126.762.458.916.459.762.25,1.118.636.05,1.044-.076.73-.279,1.555-.66,1.241-.763.992-1.169.208-.661.334.178.908.255.177,1.067-.051.864-.125.3-.355.182.751.123.751.52,1.482.65,1.4,1.193,1.491,1.368,1.284.685.5,1.178.4,1.252.6.971.658.784,1.168.321.574.132.637.066.553-.058.532.033.3.363.512,1.013.584.5,1.1-.074.26-.207.418-.2.865.535,1.274.757.469.387.334.429.553.148.532-.09.491-.239.282-.428.355-.4.459.016.647.313.5.486.364.881.323.7.251.619.48.848.521.576.553.47.981.922,1.533,1,1.606.684,1.639-.6.865-.271.615-.33.72-.3.971-.124,1.93-.14.677-.173.626-.107.573-.271.376-.527.313V1172l-.148,2.357.289,1.1.156.5.206.543.742.354.56.314.049.479.165.668-.593,1.565.012,1.784.241.74.158.752-.043.521v.667l.126.72.135.584.409.584.241.511-3.215,2.608-.985-.021-.545-.5-.638-.657-.723-.4-.565-.4-.22-.459-.189-.45-.345-.334-.221-.6-.5-.031-.4.24-.6-.209-.346-.261-.45-.24-.168.292-.146.626-.492.4-.744.094-.733.125-.46.2-.587.292-.156,2.671-.21.783.262.4.157.334-.168.865-.586.668-.576.438-.451.407-.661.115-.575.167-.67.292-.617.345-.567.114" transform="translate(-803.371 -1114.39)"  stroke="#fff" stroke-linecap="square" stroke-linejoin="bevel" stroke-width="1" fill-rule="evenodd"/>
      <text id="286" transform="translate(12.85 43.457)" fill="#fff" font-size="13"  font-family="OpenSans-Bold, Open Sans" font-weight="700"><tspan x="0" y="0"></tspan></text>
    </g>
    <g id="_300_Uran" data-name="300 Uran" transform="translate(2402.737 248.208)">
      <path id="talId300" fill="#7DB8EC" title="Uran Taluka" data-name="Uran Taluka" d="M830.018,1121.311l.424-.721.241-.8-.049-.1-.046-.094-.088-.439-.037-.219-.07-.26-.034-.417-.013-.459.1-.625.12-.376.131-.26.022-.094.022-.042.121-.011.051-.073-.113-.042,0-.094.032-.135.062-.1.13-.115.133-.031,0-.053-.093-.062-.08-.114-.082-.095-.047-.083-.024-.063.016-.156.048-.209.092-.313.072-.084-.028-.094-.076-.084-.066-.073-.014-.073.023-.041.059-.042-.017-.042-.1-.031-.106-.073-.1-.115-.116-.167-.087-.292-.015-.345-.034-.2.011-.761.012-.157.016-.187-.012-.636.008-.272.053-.5.129-.209.185-.146.1-.125.448-.417.085-.115.029-.062.138-.261.127-.251.113-.167.077-.219.114-.281.1-.282.088-.219.034-.084.036-.083v-.062l.051-.136.03-.156-.247-.147-.178-.094-.138.135-.067.063-.1.1-.059.032-.042.021-.252.063-.337.167-.114.115-.36.02-.339.095-.025-.042-.064.01,0,.032-.1.1-.154.115-.1.094-.128.094-.2.115-.408.292-.213.2-.255.156-.542.407-.072.011-.044-.021-.031-.073.022-.1.1-.146-.005-.084-.125.021-.124.135-.071.063-.027.031v.031l.012.031.076.115.008.021-.005.031-.029.021-.256.146-.312.2-.209.084-.143-.021-.155.042-.093.062-.025.083-.135.084-.038.177-.189.115-.061.042-.123.031-.063.011-.124.052-.022.01-.206.095-.133.052-.127.042.03.083-.1.042-.017-.031-.034.01-.02-.031-.078.031-.035.032-.061.02.008.042-.055.01-.018-.021-.056-.021-.1-.01-.062.01-.027.011-.014.052-.208.083-.085.064-.074.072-.125.053-.206.1-.047.031-.02.062-.02.083.012.073.047.083-.043.021-.056-.083-.192-.031-.113.011-.177.031-.107-.01-.146.01-.057.01-.037.01-.018.052.005.084-.014.011-.028.01-.03.01-.016-.072-.176.062-.169.063-.121-.011-.118-.031-.135-.115-.132-.094-.132-.1-.118-.145-.054-.062-.039-.062-.082-.105-.1-.1-.079-.031-.079-.01-.072-.063-.058-.01h-.037l-.047.01-.095-.01-.134.02-.126.021-.1.032h-.044l-.042-.021-.046-.032-.051-.02h-.175l-.175.02-.055-.01-.044-.031-.09-.083-.1-.052-.153-.073-.13-.125-.1-.073-.2-.052h-.079l-.108.094-.085.062-.074.032h-.047l-.039-.022-.092-.083-.173-.094-.048-.031-.04-.021-.029-.031-.014-.042.01-.126-.047-.052-.076-.115-.11-.145-.037-.042-.057-.042-.119-.063-.045-.042-.024-.041-.025-.094-.008-.042,0-.052.016-.084.036-.093.021-.095.01-.094,0-.084.016-.1.03-.094.047-.083.027-.292-.013-.313-.056-.553-.087-.229-.078-.177-.077-.126-.112-.239-.124-.251-.265-.344-.318-.407-.158-.2-.124-.261-.141-.376-.138-.188-.254-.4-.143-.324-.176-.281-.143-.24-.18-.219-.1-.042-.107-.021-.14-.041-.069-.031-.045-.083-.019-.2-.009-.083-.015-.074-.035-.062-.049-.052-.035-.031-.037-.021-.168.052-.145-.021-.071-.042-.037-.114.154-.71-.036-.469v-.385l.05-.616.055-.354-.026-.1-.13-.073-.076-.052-.045-.062.017-.355.015-.208.057-.178.167-.271.2-.188.11-.084.052-.146.062-.01.184.073.205.073.353.146.124.011.475-.261.286-.5.079-.187-.165-.606-.053-.156,0-.032.006-.02.021-.021h.01l.034.01.307.251.259-.23.121-.1.1-.021.1-.01.017-.083.033-.095.129-.1.221.094.224.125.074.01-.007.052.07.01.055.053.011-.1,0-.052.049.011.009-.084.164.021.055-.021.146.021.016.021,0,.031v.083l.194-.02v.083l.037.011h.066l.03-.011v-.031l.011-.011h.009l.021-.01h.029l.013.093h.051l.006.052.007.032h.028l.034.011.024.01-.006.021.064.01.01-.021.043.011-.007.021.033.021.029.02.01.042h.016l.033.24.024.1-.025.01.026.1.024.042.016.063.048-.01.009.031.006.073.056.01.111.063.118.084.153.146.073.2.07.021h.087l.552.521.152.189-.008.218.06.053.152-.115.218.2.086.167.2.239.183-.041.242-.041.014-.22.067-.156.058-.084.043-.093-.012-.021-.053-.011-.008-.031-.047-.115-.047-.25,0-.084.087-.3-.052-.166-.036-.146-.053-.084-.044-.031-.011-.042.038-.136.041-.073.005-.052-.009-.063.021-.083.041-.115.041-.01.048.01.164.073h.039l.015-.01.192-.178.015-.156.049-.105.051-.041.069-.041h.058l.05.031.033.063.042.03.231-.062.132-.052h.209l.107.031.131.115.078.011.261.23.138.021.22-.032h.163l.093-.031.1-.011.1.011.117.031.111.053.162-.053.052-.063-.179-.167-.1-.094-.03-.062.052-.032.066-.021.123-.011.028-.092.064-.157.055-.031.1-.021.03-.072.026-.1.077-.094.023-.187.094-.209.031-.209.024-.094.13-.177.006-.083-.106-.136-.022-.157.041-.073.06-.031.085-.042-.016-.052-.117-.1-.124-.147-.2-.209-.021-.166-.109-.251-.212-.073-.265-.229-.009-.167-.236-.146-.181-.1-.122-.125-.105-.136-.1-.094-.173-.177-.539-.668-.225-.324-.379-.417-.3-.292-.389-.4H822.3l-.2.229-.041.011-.037-.011H822l-.308.343-.245.293-.487.553-.012-.01-.028-.011-.069-.052-.078-.063-.083-.1-.025.011-.062.031-.056.011-.039.01-.043-.01-.053-.031-.092-.094-.19-.177-.01-.031.01-.042.075-.094.02-.031.136-.157.322-.364.314-.366.175-.156.049-.021.06-.063.074-.1.252-.282.083-.073.108-.094h.059l.2.2.168.2.589.626.1.084.043-.491-.177-.324-.061-.125-.089-.063-.059-.041-.036-.043-.034-.135-.043-.135-.117-.094-.063-.052-.137.031h-.009l0-.02-.015-.022-.032.011h-.028l-.038-.031-.044-.032-.028-.021-.012-.021,0-.01v-.011l0-.01.006-.01h.01l.05.032h.014v-.021l.013-.01.017-.021,0-.01.1.063.051-.021.008-.01.028-.042.3-.438.068-.1.08-.125.072-.094.073-.083,0-.011,0-.01.014-.021.4-.887h.017l.152.063v-.02l.008-.031.051-.167,0-.011-.012-.021-.073-.031,0-.01v-.01l.02-.031.019-.021.024-.031.776-1.722.368.293.571.167,1.624.25.836.49,1.349.961.61.48.384.563.492.4.738.083.62-.041.443-.178.7-.48.61-.615.423-.407.621-.2.384.114-.157.814v.229l.058.46.286.48.393.469.108.449-.118.438-.246.573-.344.877-.2.376-.029.667.276.386.67.209.482-.042.827-.449,1.309-1.722.58-2.17.266-.636.237-.656.236-.532.049-.616.256-.479.324-.188.482-.177.473.063v.375l.177.595.394.418.935.386.049,2.388,1.123.156,1.2-.115.867-.042,1.161.021.8.438,1.684,1.825.5,1.076.729.709,1.663.585,1.5.8,1.093.292.877.125.935.23.483.365.7.907.335.949-.355.919-.778.824-.866,1.012-.945.49-.492.48-.63.656-.462.606-.738.74-1.014.95-.757.939-.5.72-.3.49-.079.866-.64,1.053-.148.4-.3.417-.521.448-.334.24-.562.1-.443.042-.255.073-.571.01-.355.366-.039.6-.285.355-.542.364-.493.272-.787.083-.384.751v.574l.06.615.118.406.147.261.384.209.177.272.217.646.531.156.689.3.424.553.374.1-.091.982.1.469-.42.282-.508.219-.438.156-.489.094-.388.042-.438-.021-.5-.1-.451-.094-.572-.063-.438-.062-1.391-.459-1.907-.1-1.244.24-1.048.282-1.075.856-.559.688-.471.365-.412-.136-.331-.156-.775-.209-.5-.168-1.1-.615-.852,1.835,1.831,1.2.685,1.576.586,1.188.3,2.014-.483,2.337-.915,1.826-.584,1.3-.283.323-.3.354-.864.126-1.068.052-.254-.177-.178-.907.66-.334,1.169-.209.762-.991.66-1.242.28-1.555.077-.73-.05-1.043-1.118-.637-.763-.25-.916-.459-.762-.459-.762-.125-.561-.511.925-.928.874-1.315-.112-.333-.008-.281.08-.177.09-.073.1-.052h.116l.121.022.05.01" transform="translate(-814.323 -1084.89)"  stroke="#fff" stroke-linecap="square" stroke-linejoin="bevel" stroke-width="1" fill-rule="evenodd"/>
      <text id="300" transform="translate(13.453 18.073)" fill="#fff" font-size="13"  font-family="OpenSans-Bold, Open Sans" font-weight="700"><tspan x="0" y="0"></tspan></text>
    </g>
  </g>
</svg>
