<svg xmlns="http://www.w3.org/2000/svg" width="164.176" height="300.863" viewBox="0 0 164.176 300.863">
  <g id="ratnagiri_1" transform="translate(1823.482 -15566.662)">
    <path id="talId307" fill="#7DB8EC" title="Rajapur Taluka" data-name="Rajapur" d="M909.6,1578.441l.7.35.647.027.5-.092.756-.037.378.148.411.323.294.387.311.432.353.2.276.028,1.159-.24,1.662-.285.923-.672.546-.571.655-1.013.445-.617.236-1.032.235-.451.579-.35.6.084.621.128.806.138.705.433.823.037.739-.525.722-.35.8-.1.563.139.495.349.269.534.252.313,1.352.581,1.26-.018,1.2-.157.445-.083.772-.525.5-.35,1.065-.783.84-.184.579-.239.251-.452.319-.47.588-.525.612-.728,2.511-1.455.8.267.47.461.412.377.948.406.857-.295.931-.156.571.027.377.194.261.4.243.341.378.175.478-.083.4-.194,1.612-.848.545.314.059.645.4.543.545.313.6.009.4-.368-.008-.552.4-.387.5.056.487.1.469.1.563.579,1.193.12.747.157.663.322.478.369,1.671,1.124.714.663.4.506.42.313.612.119.512-.027.587-.074.52-.064,1.285-1.53.47-.727.512-.138.294.267.429.359.319.092.395.019.538-.139.587-.24.663-.074,1.552,1.262.345.6.269.414.033.331.043.406.445.294.319.111.437-.083.277-.23.512-.221.37-.221.5-.294.495-.535,1.057-1.714.9-.616.882-.212.831.018.361.277.277.221,1.822,1.234,1.066-.534.906-.543.328-.295.7-.589.437-1,.395-.6.4-.276,1.3-.331,1.419-.323.193.415.185.331.353.451.268.369.285.561.32.24.461-.092.412-.221.486-.368.353-.451.529-.442.529-.1.5-.018.591.027.35.24.221.414.12.516.166.507.193.71.424.6.378.175.469.147.323.046.442-.037.442-.257.368-.277.4-.3.525-.258.736-.129.81.074.82.607.175.405.276.433.424.377.516.627.377.249.166.276.166,1.013.681,1.354.23.139.258.3.469.543-.571.645-.285.451-.442.544-.386.451-.12.9-.387,1.114-.239.388-.5.193-.488-.093-.626-.147-.783.746-.12.259-.027.258.138.137.378-.018h.285l.295.054.295.4.515.784.387.459.369.241.35.229.323.166.5.221.663.2,1.492.212,1.731,1.381.755.636.636.635-.341.506-1.391.921.949.239.884.009.451.111.323.285-.47.765-.35.764-.387,1.16-.617,1.62-.451.148-.2-.2-.4.037-.148-.11-.414.055-.433-.083-.387-.22-.5-.139h-.552l-.48.065-.736.4-.258-.046-.377-.128-.451-.221-.386-.378-.231-.323-.442-.147-.359.027-.414.156-.488.084-.681-.24-2.11-1.077-.644-.221-.507-.083-.267.461-.424.019-.423.046-.341.009-.322-.009-.47-.221-.231-.221-.143-.23-.235-.175-.36.194-.227-.019-.336-.247-.344-.166-.126.331-.05.221-.2.046h-.26l-.143.111.016.239.16.193.008.231-.1.323-.05.35-.009.3-.126.544-.125.395-.311.443-.369.562-.537.165-.168-.037-1.008-.064-.016.406.235.672.235.312.336.388.268.258.185.47.453.681.453.277.571.58.151.46-.218.452-.42.349-.134.442.05.664.084.929.152.6-.353.525-.487.1-.991.027-.957.019-1.074-.019h-1.074l-.571-.064-.52-.47-.891-.636-.822.405-1.646-.672-.319.4-.487.175H978.7l-.319.064-.353.166-.521-.083-.084-.607-.319-.7-.286-.736-.134-.525-.235-.792-.52-.635-.739-.13-.857.084-.52.228-.42,1.042-.588.774-.537.489-.673.553-.168.654-.726,2.081-.1.452-.3.718-.126.313-.055.212.021.24.075.239.013.12-.193.055-.126-.165-.218-.267-.184-.285-.244-.212-.4-.12-.353.036-.193.139.021.24.122.239.2.2.256.138.236.212.138.258.084.314-.038.092-.084.12-.2.119-.2.092-.264.1-.391.184-.328.258-.579.313h-.146l-.18-.027-.232-.083-.218-.056-.318-.037-.169.065-.1.148,0,.267.055.146.1.249.1.268.1.267.059.212-.009.166-.1.211-.164.267-.324.322-.474.277-.189.073-.252.028-.209-.019-.223-.064-.235-.121-.261-.147-.323-.037-.21-.746-.076-.294-.033-.388-.126-.369-.167-.368-.185-.443-.251-.387-.453-.286-.463-.018-.37-.1-.62-.295-.387.138-.319.681-.2.35-.327.524-.16.774-.108,1.022.021.6-.1.23-.114.461-.31.443-.646.625-.377.443-.471.626-.44.553-.131.092-.171.129-.58.212-.479.239-.192.074-.294.028-.315-.082-.2-.129-.315-.267-.688-.323-.5-.1h-.219l-.24.046-.121.156-.147.2-.381.543-.521.525-.788.608-.328.479-.52.746-.252.267-1.049.286-.647.359-.55.387-.356.275-.3.388-.512.534-.307.322-.369.093-.394.027-.475-.083-.26-.138-.336-.211-.223-.166-.239-.286-.609-.469-.218-.221-.529-.175-.353-.157-.6-.047-.28.028-.114.148-.115.323-.084.3-.1.378-.143.351-.127.249-.176.229-.207.111-.294.091-.314-.211-.3-.489-.344-.2-.378-.194-.613-.221-.47-.11-.538.073-.621.406-.646.589-.765.59-.831.645-.361.478-.31.536-.236.478-.167.378-.167.295-.446.331-.4.221-.453.295-.7.111-.847-.028-.8.019-.94-.065-1.184-.644-.587-.23-.621-.349-.655-.369-.722-.433-.84-.535-1.141-.893-.378-.221-.68-.314-.537-.166-.681-.009-.57.138-.379.277-.445.24-.486.073-.848.1-.63-.083-.806-.184-.839-.23-2.451-.479-3.307-1.686-1.725-3.269-1.407-3.767-.424-1.373.8-.515.006-.11.012-.074.031-.064.056-.083.047-.1.086-.1.157-.2.093-.129-.008-.111-.021-.12-.018-.083-.049-.212-.023-.11,0-.047.026-.055.009-.065.019-.083.008-.027-.039-.037-.047-.056-.048-.073-.061-.092-.164-.231-.213-.194-.2-.128-.13-.046-.051-.009h-.1l-.04.028-.062.018h-.077l-.065-.009-.074-.027-.154.037-.076.046-.045.028-.019.054-.044.065-.045.036-.117.046-.083.01-.049.009.008.028.1.129-.076.111-.116.065-.429-.056-.209-.028-.13-.1-.092-.12-.068-.111-.143-.083-.117-.063-.058-.046-.078-.1-.05-.1-.169-.073-.095-.028-.1-.009-.064-.027-.07-.046-.079-.028-.048-.036-.049-.1-.041-.083-.136-.12-.038-.139.044-.313.061-.211-.034-.175-.027-.157-.029-.221-.071-.2-.061-.139-.13-.092-.189-.1-.156-.109-.062-.157v-.046l.027-.046.048-.037,0-.046-.048-.065-.073-.018-.071-.1.056-.258.061-.156.141-.082.034-.047-.027-.083-.072-.065-.058-.082.01-.1-.1-.046-.22-.046-.069-.092v-.194l.1-.12.135-.083.1-.073.108-.13.016-.24.107-.138.042-.267.057-.046.181-.009.156.046.131.111.052.1.05.1.127.037.122-.027.11-.129.085-.138.124-.194.086-.037.273.019.095-.028.08-.054.073-.046.12-.019h.114l.71.322.069.092.01.12.148.074.221-.018.145-.01.132.037.315.359.04.129-.034.1-.254.091-.054.056.065.027.233.046.088-.019.13.037.052.083.051.092.07.018.165-.038.126.055.1.075.074.175.087.009.08-.027.082-.028.08.037.14.11-.021.129-.033.165-.031.065.017.046.057.083,0,.276.03.073.151-.184.059-.092.109-.093.128.009.215.093.189.1.169.175.088.055.032-.129.009-.332.081-.147-.014-.073-.1-.028-.128.092-.082.037-.225-.221-.036-.34-.09-.34v-.019l0-.285.008-.009h.047l.014-.009,0-.027-.01-.009h-.035l-.073-.028-.056-.074-.022-.046-.05-.055-.079-.065-.021.074-.017.175-.068.139-.031.129.021.037,0,.037-.056.028h-.072l-.174-.074-.034-.074-.015-.073-.092-.157-.185-.184-.014-.111-.044-.037-.116-.009-.14-.037-.319-.083-.076-.091,0-.092.014-.018.04-.019.016-.018.045-.13.105-.092.078-.046.118-.1,0-.13.045-.073.1-.055.157-.111.089-.064.046-.1.147-.175.18-.129.231-.064.12.028.128.138.057.064.107.091.059-.009.048-.147.089-.221.05-.249.013-.322.04-.2-.073-.635-.041-.469,0-.221.02-.368-.1.074-.128.182-.235.194-.1.056-.076.11-.065.019-.077.046-.082.009-.124.046-.3.092-.189.019-.067-.037-.113.009-.092-.017-.088-.028-.082.018-.151-.036-.055-.065-.03-.064-.02-.056.011-.055-.075-.046-.09-.156-.059-.046-.154-.038-.143-.009-.078.028-.088.054-.06.12-.011.009-.13.092-.025.046,0,.056.037.091.014.13-.065.11-.092.1-.086.092-.195-.018-.178-.037-.17-.046-.152-.065-.082-.092-.051-.12.025-.074.053-.083.131-.093.077-.074.052-.082.051-.13.046-.064.1-.128.1-.12.084-.065.057-.1.062-.083.091-.055.126-.009.091.018.09-.018.042-.074.073-.064.1-.018.13.009.134.073.182.176h.065l.056-.028.095-.111.15-.221.118-.1.026-.064-.012-.028-.082-.009-.077-.037-.117-.157-.056-.11-.062-.083-.115-.119-.053-.12-.006-.065.059-.138.034-.074.055-.055-.094-.212-.161-.23-.09-.1-.075-.092-.075-.082-.078-.083-.075-.083-.065-.055-.059-.055-.116-.083-.14-.111-.128-.083-.222-.129-.245-.082-.217-.038-.155-.009h-.064l-.033-.037,0-.036-.027-.009-.047.019-.075.083-.031.083,0,.009-.021.1-.014.129.045.047.059.027.059.083.012.074-.025.046-.179.083-.167.111-.173.092-.17.046-.177.074-.2.037-.024-.018-.015-.036.01-.047.037-.082.053-.11,0-.056-.027-.065-.054-.046-.05-.027-.091-.037-.02-.046-.008-.064-.026-.277-.1-.424-.018-.147-.008-.193.016-.046.036-.027.181-.055.059-.037.03-.038.045-.092.021-.239.028-.111.037-.066.034-.027h.044l.069.037.04.009.087-.019h.067l.037.019.054.037.164.276.046.028.053.009.062-.019.174-.065.077-.046.045-.027.064-.056.08-.064.068-.074.073-.12.077-.138.078-.175.034-.082.045-.194.06-.3.031-.369,0-.359-.093-.6-.051-.378-.157-.883-.047-.351-.109-.534-.042-.184-.079-.5-.2-1.049-.009-.388-.023-.506-.07-.681-.016-.25.019-.037,0-.064-.03-.027-.041-.046-.011-.027.019-.018-.014-.064-.031-.037-.1-.194-.066-.073-.1-.046-.1-.01-.07-.009-.06-.018-.044-.037-.007-.028-.038-.028-.112-.064-.02-.037-.1-.056-.019-.018.008-.046-.008-.018-.022-.009-.06-.019,0-.027,0-.028-.012-.027-.066-.018-.033-.028-.019-.036-.018-.036-.006-.029-.014-.027-.058-.009-.011-.018-.03-.037L902.1,1589l-.053-.009-.03-.028-.014-.056-.01-.018-.038-.019-.018-.046v-.037l-.05-.018-.21-.147-.134-.111,0-.027.007-.046-.037-.027-.057-.083-.006-.028-.114-.184-.047-.222.006-.286.012-.055.06-.1.054-.12.052-.037.039-.018.039-.037.056-.046.029-.092v-.175l-.032-.074-.056-.083-.018-.073.017-.056.057-.073v-.037l-.044-.019-.105-.046-.017-.018.017-.064-.019-.074-.157-.11-.082-.175-.075-.285-.019-.1-.017-.065.007-.138.008-.073-.031-.037-.054-.027-.05-.028-.022-.037,0-.037.007-.037,0-.037,0-.028-.019-.018-.034-.019-.042-.027-.039-.019h-.04l-.024.028-.036.018h-.038l-.026-.018,0-.018,0-.027h-.028l-.014.009-.028.008-.035-.017-.012-.029-.006-.027-.012-.009-.014.009h-.029l-.022-.028-.04-.064-.013-.018-.018-.018-.028-.027-.023-.009h-.016l-.023.017-.016.01-.02-.018-.075-.065-.026-.018-.03-.046-.016-.019-.041-.018-.009-.009.007-.047-.015-.018,0-.027,0-.009.077.083h.013l.012-.009-.012-.028v-.028l-.03-.018-.049-.064-.016-.037-.009-.046.012-.092.035-.037.031-.028v-.036l-.007-.046.007-.037v-.184l.017-.1.021-.055.012-.019.015-.009.015-.018.006-.028.011-.037.017-.009.022.009.012-.009.008-.018,0-.018-.017-.019-.045-.018-.029-.019.051-.194.026-.046-.009-.046-.045-.046-.077.083-.033.009-.052-.046-.079-.055-.095-.1-.042-.055.012-.064.009-.056.029-.046.028-.046.035-.037-.021-.064-.018-.037-.034-.009-.023-.01-.057-.1,0-.028.008-.073.011-.037.009-.018-.017-.037-.028-.028-.018.018-.036.028-.007-.009.017-.047.005-.047-.014-.036-.023-.037-.047-.009-.049-.009-.039-.009h-.079l-.04.018-.02.046-.021.036-.026.028-.04-.009-.038-.009-.015-.046-.013-.046-.024-.065-.037-.018-.005-.047.008-.01,0-.018-.033-.028-.014-.009-.029-.073v-.019l.006-.036.007-.028,0-.009-.015-.01-.008.01-.007.018-.013.036-.02.018-.035-.009-.016-.018-.075-.12-.015-.074,0-.073.032-.083.076-.11.06-.082.058-.046.051-.018.006-.009-.006-.009-.022-.009h-.023l-.018-.028.011-.157.027-.046,0-.028-.029-.054,0-.056-.033-.083-.069-.139-.023-.073,0-.027.007-.018,0-.046-.008-.027h-.028l-.024-.019-.01-.1.009-.092.014-.073.005-.046-.008-.1.015-.055.029-.046.044-.037.01-.009,0-.009-.051-.046-.023-.037.006-.055L899,1579.5l.015-.231.042-.221,0-.037-.048-.13-.013-.055.025-.359.027-.064.07-.147.139-.12.039-.046.016-.056-.008-.055-.016-.1-.027-.092-.041-.064-.041-.065-.079-.055-.119-.1-.09-.129.005-.1.015-.056.019-.064.021-.11,0-.1-.018-.056-.06-.092-.015-.083-.034-.083-.01-.046.026-.073.012-.047.007-.138.029-.083.031-.065.024-.074-.011-.074-.014-.23v-.138l.014-.092,0-.055.01-.055-.005-.11-.021-.259-.024-.046-.03-.036-.016-.046-.015-.241v-.221l-.02-.074,0-.083.011-.11.047-.121.1-.285.044-.065.068-.11.1-.211.04-.056.806.405.587.157.622.3.873.874.453.755.319,1.023.336.57.6.322.554-.12.067-.653.1-.793.1-.662.352-.645.454-.332.822.146.6.443.722.516.738.755,1.26,2" transform="translate(-2667.634 14237.576)"  stroke="#fff" stroke-linecap="square" stroke-linejoin="bevel" stroke-width="1" fill-rule="evenodd"/>
    <path id="talId305" fill="#7DB8EC" title="Lanja Taluka" data-name="Lanja" d="M910.522,1575.149l.52-.285.537-.451.538-.451.284-.645.017-.58.336-1.1.269-.267.52-.589.5-.553.151-.617-.184-.691-.4-.369-.856.064-.672-.386-.184-2.285-.118-.976.739-.414.554-.443.251-.865-.1-.727-.336-.884-.3-.83.369-.386.218-.433-.084-.525-.52-.967.319-.589,1.141-1.078,2.788-1.86.419-.258.3-.653.1-.986.2-1.124.117-.856.353-.609.52-.137,1.024-.248.822-.2,1.058-.691.386-.23.6-.635-.1-.728-.353-.5-.285-.746-.335-.718-1.192-2.238-.755-.681-.134-.323.1-.35.3-.184.2-.12.32-.35.469-.708.32-.635.453.064.973.488.722.488.94.553.873.34.6.184,1.243.193,1.914-.571.553-.617.672-.266.94-.3.3-.609.151-1.556-.017-.608-.236-.884L930.1,1536l-.437-.46-.638-.756-.688-.5-.085-.507.4-.488,1.343-1.455.621-.387.571-.322.488-.332.922-.092.453.2.756.138.621-.424.4-.414.571-.507.453-.433.52-.137.689.34.856.516.386.424.068.783-.018.672.387.424h.52l.555-.185.436-.441.688-.267.89-.065.722.047.84.359.5.4.755.387.469-.185.865-.672.982.958.588.653.453.507-.134.488-.419.451-.336.341-.118.47.134.579.386.443.437-.489.285-.469.135-.221.588-.3.42.544.252.183.57-.138.32-.369.385-.414.655-.442.655-.3.638-.166.806-.414.706.6.755-.046.52-.461.218-.128.185.488.084.534.386.286,1.058-.432.94-.018.839.3.975.47.5.59.7.58.52.34.689-.571.47-.589.352-.571.32-.607.184-.968-.05-1.041-.016-.847-.1-.571-.3-.332.016-.617.588.194.386.3.79-.406.806-.765.47,1.658.318.839.622.728.688.7.789.323,1.108-.019.805-.3.605-.451.486-.517.3-.276.823.037.688.322.907-.018.957-.083.89-.626,1.344.359.822.581.554,1.114.352.838,1.058,2.118.386.985.3.71.42.349.5.139.857.128.235.535.286.46.738.774-.143.358.026.35.2.286.244.488-.085.294-.192.323-.126.331.034.415.117.377.336.018.386-.24.337-.313.445-.267.436.019.244.406.008.275-.117.571-.059.709-.043.986-.049.912.788.912,1.68,1.151.713.681.411.341.227.5-.135.516-.184.257-.285.258-.143.314.243.313.328.783-.076.4-.244.581-.646.875-1.049,1.344-.159.11-.445.369-.412.063-.412-.027-.453-.221-.428-.368-.395-.35-.285-.377-.378-.285-.52.018-.3.212-.244.45-.512.655-.127.221-.243.239-.554.129-.2-.314-.235-.441-.37-.212-.234.193-1.436.875-.553.414-.285.387.059.34.276.313.26.258.47.083.5.045.781.111.6.294.436.1.227.092v.332l-.092.286-.168.276.361.3.243.157h.327l.37-.23.142-.488.2-.507.277-.074.436.129.563.433.747.709.537.461.4.35.2.571-.126.387.009.479.907.046.461.009.328.155.218.332.034.461-.059.322-.377.442-.109.3-.025.755-.092.562-.277.221-.361.351-.092.359.134.414-1.419.323-1.3.331-.4.276-.4.6-.437,1-.7.59-.328.294-.906.544-1.067.534-1.822-1.234-.277-.221-.361-.277-.831-.018-.881.212-.9.616-1.057,1.713-.5.534-.5.295-.369.221-.512.222-.278.23-.437.083-.319-.111-.445-.295-.042-.406-.033-.331-.269-.415-.345-.6L969,1571.318l-.663.073-.587.24-.538.138-.394-.018-.32-.093-.428-.359-.294-.267-.512.137-.47.728-1.285,1.528-.52.065-.588.074-.512.028-.613-.119-.42-.314-.4-.507-.713-.662-1.671-1.123-.478-.368-.663-.323-.747-.156-1.192-.12-.563-.58-.469-.1-.487-.1-.5-.055-.4.387.008.552-.4.369-.6-.009-.545-.313-.4-.543-.059-.645-.545-.313-1.612.848-.4.194-.478.082-.377-.175-.244-.341-.26-.4-.378-.193-.571-.028-.931.158-.856.294-.949-.405-.411-.378-.469-.46-.8-.268-2.51,1.455-.612.728-.588.525-.319.47-.251.45-.579.24-.84.185-1.066.782-.5.35-.773.525-.445.083-1.2.156-1.26.019-1.351-.581-.252-.313-.269-.534-.494-.35-.563-.138-.8.1-.722.35-.739.525-.822-.037-.705-.432-.806-.139-.621-.129-.6-.082-.579.35-.235.451-.236,1.031-.444.617-.655,1.013-.545.572-.923.672-1.663.286-1.158.24-.277-.028-.353-.2-.311-.432-.294-.387-.411-.322-.378-.148-.756.037-.5.092-.647-.027-.7-.351" transform="translate(-2668.584 14252.149)"  stroke="#fff" stroke-linecap="square" stroke-linejoin="bevel" stroke-width="1" fill-rule="evenodd"/>
    <path id="talId309" fill="#7DB8EC" title="Sangameshwar Taluka" data-name="Sangameshwar" d="M946.746,1525.367l.9-1.024.134-.331.05-.654-.117-.773-.269-.47-.84-.488-.89-.322-.554-.286.05-.433.134-.387.353-.442.184-.737.186-.672-.135-.535-.2-.525-.3-.581-.286-.589-.033-.59.437-.332.822-.1.471-.258.117-.7-.167-.441-.722-.655-1.059-.405-.788-.349-.823-.129-.923.249-1.041.285-1.343.12-1.108-.59-.522-.341-.687-.4-1.226-.644-1.36-.47-1.276-.313-.872-.488-.6-.774-.352-.819-.018-1.547-.218-.506-.621-.414-1.326-.323-.437-.488-.487-.893-.269-1.041-.251-1.1.251-.986.974-.645,1.292-1.557-1.141-1.372-.966-2.717-.218-.478-.084-.415.018-.5.2-.294.328-.332.5-.415.5-.478.16-.728-.277-.58-.563-.636-1.318-1.372-.361-.184-.5-.065-.814-.138-.52.083-.277.617-.3.829-.059.627-.192.746-.236.451-.419.351-.37.376-.5.563-.478.147-.479.3-.529.2-.3-.312-.008-.544-.084-.727-.369-.958-.109-.515.084-.507.579-1.28.3-.535.42-.479.738-.608-.327-1.022-.235-.313-.428-.166-.311-.276.075-.673.328-.166.369-.175.2-.312.025-.618-.176-.359-.412-.35-.4-.525.184-.433.286-.313.739-.737-.076-.617-.2-.526-.3-.065-.411.2-.285-.064-.21-.267-.328-.57-.2-.544-.176-.479-.235-.377-.244-.24-.47-.544.281-.782.067-.193.121-.388.172-.469.189-.377.294.221,1.117.009,1.359-.728.6-.838.545-.838.084-1.16.664-.313.184-.939-.025-.885-.043-.718.059-.746.067-.608,1.418-2.155.588-.635.41-.4.151-.358.034-.359-.445-.4-.285-.156-.663-.847-.169-1.225-.286-.517-1.226-.432-.763-.405-.587-.277-.253-.378-.1-.322-.068-.562-1.267-1.022.276-.507.622-.359.377-.294.1-.387-.185-.544-.1-.423.394-.562.638-.147.9.12,2.267.129.554.58.588.782.63.442.621.331.471.212.588-.46.092-.534.051-.847.033-.663.253-.23.671-.018.437-.258.773-.977.495-.469.487.23.361.524.924.783.663.332.386.147.806-1.1.689-1,.9.194.5.275.546-.11.772-.414.344-.148.814.81.638.369.286.239.738-.212.445-.3.68-.6.177-.424.31-.387.344-.166.294.047.393.469.051.249.487-.313.327-.3.521-.166.454-.239.537-.082.562.055.571.083,1.477.073.21.553-.219.405-.083.386.219.1.427-.423.336-.442.378-.092.554.286.671.3.563.258.453.267v.6l.277.423.639.167.428.137.8.691.637.644,1.091,1.381.805.627.757.322.6.378.445.525.328.423.3.848.671.184.714-.239.579-.368.378-.645.126-.562.067-.6-.269-.7-.042-.405.546-.359,1.536-1.115.705-.571.688-.35.613.046.47.378.3.506.243.294.613-.46.689-.506,1.755-2.164.839-.488.252-.018.155.064.331.074.307.184.294.2.135.129.193.267.133.506.03.35-.084.341-.075.451-.117,1.483-.341.755-.508.866-.226.276-.064.2.085.294.151.24.138.258.206.111.416-.01.189-.019.4.35.1.239.02.193-.058.24-.085.193-.033.147.1.22.222.175.344.386.067.425.13.414.043.369-.046.332-.151.69.042.341.147.249.138.286.164.211.164.194.265.295-.072,1.907-.134.773-.352.792-.1,1,.051.654.185.736.284.543.437.415.521.2.688.166.369.238.168.488.118.47.436.423.369.3.487.626.3.488.269.414.017.792-.471.718-.52,1.216-1.007,1.253-.285.553-.37.478-.655.434-.47.405.47.515.437.368.588.488.419.469.328.3-.244.838-.889.406-.571.322-.68.212-.84.4-.763.488.025,2.312.143.893.185.423.5.405.6.028.932-.175.369-.147.63-.258.713-.258.538-.018.361.359.327.894.269.414.445.488.536.589.95.756.529.185.7.4.622.175h.52l.336-.1.176-.351.2-.469.269-.35.3-.212.537.055,1.276.737.781.589,1.326,1.611.68.857.286.184.336.055.528-.037.47-.055h.462l.369.276.135.526.027.442.3.737.156.423.221.388.341.295.332.111.635-.213.3-.1.211.055.276.212.3.3.857.81.672.433.268.386-.028.5-.156.544.009.6-.147.949-.073.682-.111.708.1.609.3.12.3-.092.451-.157.571-.175.856.037,1.391.617.543.156.295.157.377.2.286.415.147.313-.129.571-.258.368-.378.47-.607.672-.331.249-.332.387-.166.644.194.332.589.543.7.59.341.378.359.773-.037.819-.295.471-.239.424-.073.451.055.682.267.415.3.4.157.5v.488l-.138,1.207-.1.552-.028.525-.295.213-.773.119-.461-.055-.682-.055-.939.055-.654.193-.442-.1-.5-.192-.6-.24-.405-.111-.423-.119-.525-.129-.645-.138-.7-.019-.663.055-.276.341-.249.727-.064.258-.221.461-.276.608-.4.82-.8.773-.529.148-.294.137-.394.287-.236.312-.327.489-.319.672.058.616.134.175.42.147.311.221.252.35.294.47.881.985.353.323.3.212.433.25.294.2.387.314.35.432.286.535.24.276.193.46.074.221.2.405.2.175.221.277.111.424-.046.442-.092.341-.276.184-.461.212.018.3.2.341.092.359.065.47-.461.58-.111.4-.22.415-.3.212h-.378l-.276-.156-.248-.295-.925-.267-.294.046-.319.239-.185.148-.294.148-.277.037-.369-.138-.3-.156-.3-.249-.42.156-.118.507-.092.405-.184.267-.488.129-.336-.148-.352-.221-.219-.377-.3-.12-.2.184-.361.2-.378.019-.336-.175-.26-.442-.193-.368-.16-.46-.084-.516-.251-.332-.471.046-.227.323-.738-.774-.285-.46-.235-.534-.857-.129-.5-.138-.42-.349-.3-.709-.386-.985-1.058-2.119-.353-.838-.553-1.114-.823-.581-1.343-.359-.89.626-.956.083-.907.018-.688-.323-.824-.036-.3.276-.486.516-.6.452-.806.3-1.107.018-.789-.321-.688-.7-.622-.727-.319-.838-.47-1.658-.806.764-.789.405-.386-.3-.588-.194-.016.618.3.331.1.571.016.847.051,1.041-.184.968-.319.607-.353.571-.47.589-.689.572-.52-.341-.7-.58-.5-.59-.974-.47-.839-.3-.941.018-1.058.433-.386-.286-.083-.535-.185-.488-.219.13-.52.46-.755.046-.706-.6-.806.415-.639.166-.654.3-.655.442-.386.415-.32.368-.57.139-.253-.185-.42-.543-.588.3-.134.221-.286.469-.436.488-.386-.442-.134-.58.118-.47.336-.341.419-.45.134-.489-.453-.506-.588-.654-.983-.957" transform="translate(-2669.361 14260.713)"  stroke="#fff" stroke-linecap="square" stroke-linejoin="bevel" stroke-width="1" fill-rule="evenodd"/>
    <path id="talId308" fill="#7DB8EC" title="Ratnagiri Taluka" data-name="Ratnagiri" d="M917.313,1474.258l-.189.377-.172.47-.122.386-.067.194-.281.783.47.543.244.239.235.378.175.478.2.544.328.571.211.267.285.065.411-.2.3.065.2.525.076.617-.739.736-.286.313-.184.432.4.525.412.35.176.358-.024.618-.2.314-.37.174-.327.166-.076.672.311.277.428.165.235.313.327,1.023-.738.608-.421.478-.3.535-.579,1.279-.084.507.109.516.369.958.084.727.008.544.3.314.529-.2.479-.3.478-.148.5-.562.37-.378.419-.351.236-.45.193-.746.059-.626.3-.829.277-.617.52-.083.814.138.5.065.361.184,1.318,1.372.563.636.277.58-.159.728-.5.479-.5.414-.328.332-.2.3-.018.5.084.414.218.48.966,2.716,1.141,1.372-1.292,1.556-.975.645-.251.985.251,1.106.269,1.04.487.894.437.488,1.326.322.621.415.218.506.018,1.547.353.82.6.773.873.488,1.276.313,1.36.47,1.226.645.688.4.521.34,1.108.59,1.343-.12,1.041-.285.923-.249.824.129.788.351,1.058.4.722.654.168.442-.117.7-.471.258-.823.1-.436.331.033.589.286.59.3.58.2.525.135.534-.186.673-.184.736-.353.443-.134.387-.05.432.553.286.89.322.84.489.269.47.118.774-.05.653-.134.332-.9,1.022-.865.672-.469.184-.755-.386-.5-.4-.84-.359-.723-.046-.889.064-.688.267-.437.442-.554.184h-.52l-.386-.424.018-.673-.067-.782-.387-.424-.855-.515-.689-.341-.521.139-.453.433-.571.506-.4.414-.62.423-.757-.138-.453-.2-.922.092-.488.331-.571.323-.622.387-1.342,1.455-.4.487.084.507.688.5.638.755.436.461,1.275.958.236.884.017.608-.151,1.556-.3.608-.94.3-.672.268-.553.616-1.914.572-1.243-.193-.6-.184-.873-.341-.94-.553-.722-.488-.973-.488-.453-.064-.32.635-.47.71-.32.349-.2.12-.3.184-.1.35.135.323.755.681,1.192,2.238.336.719.285.745.353.5.1.727-.6.636-.386.23-1.058.69-.823.2-1.024.249-.52.139-.353.607-.118.857-.2,1.123-.1.986-.3.654-.42.258-2.787,1.86L910.026,1552l-.318.589.52.967.084.525-.219.433-.369.387.3.829.336.884.1.728-.251.865-.554.442-.739.415.118.975.184,2.284.672.387.856-.064.4.369.184.691-.15.618-.5.552-.521.59-.268.266-.335,1.1-.018.58-.284.645-.538.451-.537.452-.52.285-1.26-2-.739-.755-.722-.516-.6-.442-.823-.147-.454.331-.351.645-.1.663-.1.793-.067.654-.554.12-.6-.322-.336-.571-.319-1.022-.453-.756-.873-.874-.622-.3-.587-.156-.806-.4.074-.129.011-.037,0-.129-.009-.046.032-.1.006-.083-.027-.074-.046-.083-.047-.027-.014-.046,0-.028.02-.185.039-.147.062-.11.03-.1.032-.276.044-.277.067-.239.05-.065.053-.093.045-.073.035-.091.006-.083.007-.221.035-.1.07-.1.052-.074.06-.12.115-.175.02-.119.036-.065.054-.045.224-.111.033-.018.026-.028.12-.229.114-.268.089-.147.093-.065.053-.046.1-.193.032-.065.149-.092.018-.018v-.027l-.051-.157-.038-.083-.046-.138-.009-.111-.016-.083-.042-.231.014-.073.028-.083-.013-.166.008-.194,0-.129-.018-.11-.016-.175-.048-.295.012-.12.061-.083.3-.2-.086-.129-.126-.176-.128.157-.1.046-.063.009-.061.009-.11-.092-.049-.027-.056-.01-.133-.009-.059.018-.117.064-.081.018h-.048l-.037-.027-.053-.055-.074-.092-.069-.091-.085-.064-.134-.065-.04-.018-.1-.028-.07-.009-.067.019-.053.028-.182-.009-.134-.018-.116-.019-.071.009-.042-.009-.018-.027H896.8l-.044-.019-.018.009-.052.009-.076-.009-.059-.009-.062-.056-.073-.046-.044-.046-.058-.046-.048-.037h-.022l-.048.009-.02-.009-.1-.074-.013-.018,0-.028v-.019l0-.009h-.008l-.036.027H896l-.005-.019.007-.036-.009-.01-.033-.036-.034.009h-.033l-.031-.074-.014-.064-.018-.037-.035-.018h-.029l-.042.028-.03-.018-.046-.074-.005-.046.024-.036.014-.019.009-.037-.038-.064h-.023l-.047.018-.022-.009-.166-.12-.029-.082-.049-.055-.041-.027-.1-.019-.078-.12-.047-.111-.007-.156.035-.147.032-.074-.008-.065-.03-.046-.038-.028-.021-.055,0-.193-.031-.129.006-.055.078-.111.1-.128.146-.194.023-.065,0-.073-.014-.111-.02-.065-.031-.073-.022-.092-.013-.157-.026-.175-.047-.24-.028-.11-.065-.129-.062-.093-.04-.055-.052-.12-.064-.211.014-.129.024-.1.011-.074-.008-.064-.048-.1-.04-.064-.052-.046-.049-.028-.03-.028-.02-.046-.037-.037-.047-.037-.028-.046-.025-.139.011-.092.036-.1.061-.175.018-.018.043-.009.009-.018.009-.055,0-.111-.024-.12-.052-.156-.024-.027-.051-.055-.067-.092-.146-.193-.06-.111-.105-.138-.061-.038h-.085l-.258.046-.055-.009-.091-.092-.021-.083.023-.074.044-.073.087-.092.1-.074.068-.028.168-.1.179-.119.111-.1.165-.212.033-.055.022-.138,0-.083-.053-.213-.039-.082-.049-.046-.066-.027h-.046l-.045.027-.03.046-.1.028-.086-.009-.052-.037-.065-.083v-.037l.023-.028.077-.064.094-.055.052-.009h.047l.066.028h.045l.037-.019.05-.046.034-.082.017-.093,0-.147-.034-.1-.03-.074-.043-.083-.022-.018-.046-.009-.154-.009-.18-.037-.021-.019-.012-.018-.02-.028-.019-.027-.034-.009h-.051l-.045-.01-.131.019-.053-.028-.021-.092.021-.139.017-.037.035-.036.074-.038.141-.073.155-.065.122-.045.111-.028.12-.036.194-.055.029-.01.051-.037.006-.073.022-.176.023-.11.022-.148,0-.23,0-.184-.023-.147-.044-.156-.041-.166-.027-.138-.032-.129-.053-.156-.033-.111-.05-.11-.039-.074-.046-.073-.054-.055-.066-.037-.035.028-.07.055-.025.028H894l-.024-.046.013-.064-.016-.083-.008-.082-.012-.019-.082-.083-.042-.065-.061-.055-.064-.027-.134-.019-.1-.009h-.052l-.027-.027-.074-.009-.052-.018-.031-.028-.018-.046.013-.129.007-.092,0-.092.01-.018.061-.083.07-.064.055-.074.024-.056.006-.065v-.046l-.021-.083-.054-.083-.054-.055-.009-.019,0-.027.019-.056,0-.018-.011-.019-.027-.036-.063-.065-.045-.055-.007-.037,0-.036.021-.037.036-.028.025-.01.018-.009.012-.018.01-.055.02-.028.041-.028.038-.027.07-.1.03-.036.046-.018h.041l.131-.037.112-.046.082-.009h.054l.052-.019.059-.064.06-.047.086-.065.114-.073.094-.018.037-.019.06-.064.076-.073.031-.028.084-.193.031-.1.026-.054.036-.047.17-.174.18-.139.177-.129.224-.092.264-.028.071-.212.082-.248-.056-.092-.008-.046-.008-.065-.012-.055-.033-.047-.053-.082-.134-.157-.092-.1-.163-.129-.173-.138-.413-.221-.205-.083-.2.019-.177.028-.068.054-.121.138-.258.065-.234-.028-.133.037-.05.1.008.092.062.083.027.055-.025.082-.057.24-.125.091-.049.01-.046-.055-.091-.009-.117-.009-.175-.01-.07.01-.069.046-.089.064-.058.055-.177.092-.087-.01h-.027l-.046-.027-.013-.019,0-.027-.022-.028h-.046l-.082.028-.065.046-.052.046-.048.027-.106.027-.039-.009-.01-.018v-.027h-.015l-.01.008-.008.029,0,.018h-.011l-.007-.009h-.014l-.012.018-.014.01-.017.009h-.022l-.008-.018-.021-.018-.033-.009-.044-.037-.02-.037.007-.055.016-.028.019-.064.018-.029.025-.018.016-.018.009-.028-.021-.027-.016-.028v-.047l.015-.027.1-.138.07-.11.056-.065.066-.1.083-.037.032-.009.024-.028,0-.028v-.046l.015-.046.08-.074.069-.119-.011-.037-.064-.065-.033-.037-.014-.064.006-.064.018-.1-.01-.055-.065-.092-.019-.11.029-.083.052-.046.051-.037.008-.037-.029-.028-.035-.055-.045-.028-.034-.046-.006-.065-.008-.083-.039-.055v-.083l.022-.045.044-.027.055-.01.064-.018.02-.028.014-.028.036-.046h.057l.035-.018.03-.037.023-.046.036-.055.146-.12.034-.037.046-.037.132-.083.157-.1.042-.037.021-.065.016-.184-.015-.12.012-.12.024-.129.044-.2.022-.028.029-.018.055.009.057-.027.067-.046.042-.055.024-.055-.02-.056-.036-.046-.078-.045-.055-.129-.054-.027,0-.056.021-.036.154-.148.028-.092.031-.184.014-.285-.013-.277-.038-.129-.193-.212-.09-.092-.014-.1-.036-.092-.042-.037-.083-.046-.013-.027.02-.064.017-.046-.006-.037-.023-.018-.072.046h-.031l-.029-.027-.011-.064.023-.038.019-.055,0-.037-.028-.037-.021-.046,0-.092.02-.12.007-.055-.037-.046-.036-.027-.077-.065-.018-.083.007-.175.039-.083.039-.129-.015-.017,0-.018.013-.037.066-.249.014-.027.026-.009.042.018.072.018h.039l.073-.018.061-.028h.05l.092.009.107-.046.089-.1.039-.074.07-.147.081-.359.007-.111-.051-.11-.074-.11-.044-.1-.061-.185.014-.065-.017-.11-.021-.083-.06-.12-.067-.129-.027-.009-.03-.009-.038-.065-.009-.037.011-.064-.037-.055-.043-.074v-.055l0-.073,0-.037,0-.008H892.9l-.017.046-.012.036-.016.009-.051-.027-.011-.018,0-.056.025-.046.048-.037.051-.111.012-.1-.012-.037-.043-.028-.069-.11-.088-.129-.007-.055.011-.065-.006-.064-.031-.065-.057-.027-.071-.046-.061-.073-.025-.046.007-.056-.024-.092-.013-.091-.016-.277.029-.129.063-.083.068-.073.066-.129.1-.185.026-.018h.034l.056.009.239.175.029.047.042.091.072.028h.1l.195-.047.052-.027.044-.046.166-.3.106-.156.056-.046.121-.046.079-.064.079-.129.08-.194.1-.285.006-.1-.037-.193.031-.2.013-.147-.075-.312.014-.056.053-.082.084-.13.029-.027.1-.046.04-.037.01-.046-.013-.046,0-.037.019-.037.028-.028.014-.028,0-.036.007-.037.016-.028.061-.055.015-.028-.052-.294-.05-.378-.055-.452-.008-.257-.015-.387v-.119l0-.083.01-.139,0-.073,0-.093,0-.092,0-.147.035-.221-.01-.174,0-.1.025-.129.028-.055.041-.064.051-.24.063-.258-.088-.092-.1-.12-.062-.055-.1-.11-.143-.11-.1-.083-.121-.1-.122-.083-.168-.055-.214-.037-.141.009-.191.009-.159-.018h-.128l-.129.028-.017.009-.114-.028-.115-.064-.111-.064-.1-.12-.187-.11-.15-.1-.2-.129-.151-.064-.161-.029-.141.038-.032.046-.009.046-.035.028-.038.018-.041.028-.052.046-.008.027-.017.074-.09.093-.162.23-.094.083-.017.074-.021.368-.013.046-.092.092-.05.046h-.112l-.124-.009-.062-.065-.061-.111-.026-.018-.048-.01-.055-.119-.039-.156-.056-.074-.022-.065-.016-.156-.039-.083-.079-.047-.048-.036-.046-.019-.1.019-.041-.009-.019-.037-.017-.092,0-.185.06-.12.087-.248.025-.064-.04-.055-.041-.074-.058-.157.021-.083.084-.156.066-.129.046-.073.019-.018.047-.037.061-.01.119.065.106.009.108.009.027-.009.011-.018.012-.2.012-.027.024-.01.008.018v.027l0,.065v.093l0,.092,0,.064.014.028.036.028.083-.019.068-.055.041-.12.04-.009.074-.009.293.055.031-.009.018-.055.026-.129.027-.064.112-.11.058-.037.019-.11.041-.258h.041l.095.027.019.01-.005.036-.023.111,0,.064.093.092.124.092.014.009.082-.009h.063l.016-.009.059-.009.087-.009.009-.055.018-.11-.014-.046-.041-.046-.03-.018-.03-.028-.021-.018-.03-.046-.033-.065,0-.027.055-.018.168-.083.09-.092.109-.156.044-.148.009-.027.145-.166.129-.3.036-.35-.006-.184-.043-.249-.1-.295-.1-.2-.112-.212-.093-.193-.07-.111-.121-.276-.2-.378-.154-.276-.11-.138-.069-.082-.058-.093-.075-.073-.057-.083-.074-.093-.152-.129-.144-.083-.173-.037h-.169l-.079.018-.074.065-.006.064-.008.083-.043.065-.071.018-.058-.046-.023-.11.012-.074,0-.065-.04-.065-.112-.055-.135-.037-.123-.036-.119-.019-.14-.047-.176-.028-.068.019-.091.1-.06.074-.012.092,0,.055-.026.111-.048.138-.053.12-.077.1-.1.064-.105.019-.1-.019-.172-.027-.121-.037-.139-.028-.112.028-.095.074-.072.037-.063.046-.114.119-.072.037-.066.027-.066-.027-.03-.074-.021-.11-.021-.046-.064-.037-.094-.139-.033-.092,0-.1-.029-.12-.015-.12-.011-.341-.026-.054-.075-.074-.059-.046-.077-.055-.026-.092v-.092l.007-.046.054-.046.061-.046.045-.147.066-.11.07-.083.039-.055.051-.092,0-.055-.037-.037-.021-.055.017-.055.032-.018h.074l.031-.037.044-.064.026-.074.023-.267-.01-.286-.013-.193-.034-.193-.034-.074-.013-.377-.041-.147-.042-.074-.035-.064-.041-.074-.027-.092-.012-.056-.053-.156-.033-.028-.032-.165.008-.176.017-.046.028-.073.078-.12-.008-.092.018-.083-.019-.019-.023-.018-.01-.036.01-.129.045-.11.1-.065.1-.055.136-.028.067.009h.122l.17.019.073.018.14.074.043.01.049-.01.18-.092.028-.01.1.027.24.093.12.092.113.1.077.083.039.037.082.074.09.074.2.138.037.028.051.082.054.139.036.129.091.157.019.092-.019.093-.026.018-.039.028-.188.055-.009.009.005.046.007.01.02.009.133-.019.014.019v.027l.007.01.1-.01h.013l.011.065-.029.037v.055l.006.083.063.037.119.055.1.01.082.009h.084l.055-.065.072-.018.063-.019.03.019.037.037.149.111v.045l-.031.092,0,.028.044.046.106.046.077.018.043.046.159.24.109.119.125.12.125-.267.155-.341-.008-.093.021-.074.034-.119.016-.093-.044-.064-.017-.093.005-.074.024-.092.039-.073.046-.047.045-.056.048-.055.084-.083.056-.074.11-.138.073-.083.109-.156.135-.212.06-.092.11-.175.1-.138.068-.111.094-.193.08-.2.053-.12.067-.1.056-.119.051-.111.072-.175.146-.488.063-.258.023-.184.054-.442.024-.691-.011-.6v-.3l.011-.654.012-.4-.01-.36.014-.221.056-.093.059-.055.148-.147.119-.1-.042-.083-.044-.092-.146.019-.3-.037-.374-.055-.274-.055-.105-.065-.057-.083-.02-.11.008-.065.04-.064.21-.194.172-.184.014-.054.028-.111,0-.166-.05-.525-.059-.506-.025-.156-.014-.064-.022-.092-.1-.534-.034-.378.018-.147.023-.129.02-.239.006-.12-.01-.037-.018-.028-.04-.028-.049-.028-.031-.028-.018-.046-.081-.212-.074-.11-.184-.5-.223-.571-.227-.561-.116-.213-.156-.34-.137-.222-.086-.083-.061-.019-.34.019-.227.01-.162.019-.144.064-.394.019-.139-.009-.1.065-.2.083-.145.009-.126-.046-.043-.028-.007-.055.053-.092.159-.11.066-.074.019-.129.094-.183.06-.12.051-.082.128-.167.08-.092.113-.065.094-.036.073-.074.036-.073.024-.111v-.24l-.039-.22-.087-.286-.029-.12-.017-.12-.007-.064-.036-.2-.064-.341-.042-.249-.039-.147-.044-.074-.075-.055-.078-.111-.063-.12-.1-.267-.023-.267-.028-.35-.023-.313-.064-.259-.092-.378-.061-.284-.074-.258-.051-.194-.033-.138-.035-.148-.134-.515-.074-.267-.042-.194-.112-.443-.051-.295-.023-.156-.037-.147-.107-.415-.053-.2-.047-.139-.032-.082-.021-.046-.046-.11-.038-.073-.05-.093-.034-.055-.031-.065-.061-.221-.038-.083-.084-.184-.019-.083-.017-.166-.033-.147-.052-.258-.016-.092-.04-.175-.085-.443-.039-.166-.054-.175-.059-.2-.069-.221-.058-.184-.128-.35-.206-.525-.02-.083-.035-.111-.084-.23-.094-.24-.067-.194-.067-.194-.036-.147-.044-.174-.042-.175-.085-.267-.161-.313-.144-.212-.1-.111-.106-.12-.145-.1-.125-.064-.042-.01-.04.01-.053.027-.046.028-.053.073-.121.082-.045.037-.012.01.013.064h-.019l-.008-.018-.03-.01-.126-.009H885l-.083-.009-.095-.037-.086-.036-.054-.046-.051-.037-.063-.064-.033-.046-.057-.092-.089-.1-.246-.148-.144-.064-.085-.019-.148.009-.2.036-.175.037H883.3l-.054-.018-.024-.028-.006-.073.007-.092-.056-.129-.022-.028H883.1l-.04-.018-.029-.037-.049-.018-.062-.055-.058-.028-.087-.065-.076-.018-.07-.083-.035-.074-.058-.083-.033-.064-.037-.064-.043-.046-.037-.073-.005-.037.016-.036.046-.056.022-.073.047-.055.078-.074.132-.12.059-.037h.065l.241.046.216.046.241.074.214.037.055.037.063.009.032.009.055.046.061.009.042.018.048.028.014.046.013.055,0,.028.014.037,0,.018.018.019.03.009.062.046.175.037.1.01.106-.037.148-.065-.005-.046.009-.092.033-.092.063-.12.07-.12.052-.12.052-.046.037-.046.051-.074.046-.073.059-.185-.017-.092.052-.22.048-.3.015-.286.01-.368-.013-.221-.057-.369-.033-.23-.021-.165-.05-.3-.095-.368-.048-.184-.039-.157-.107-.369-.09-.341-.069-.193-.126-.276-.072-.12-.061-.083-.083-.083-.068-.073-.133-.111-.048-.028-.074-.019-.054.019-.051.028-.033.046-.044.055-.115.028-.23.037-.133.019-.087-.028-.07-.046-.078-.12-.04-.157-.034-.1-.009-.083,0-.027-.026-.018-.04-.02-.026-.046L883,1470.1l-.014-.083-.056-.092-.08-.11-.052-.065-.064-.074-.029-.138-.046-.074,0-.092-.013-.074-.007-.064.035-.092.041-.065.068-.11.026-.065.014-.11.008-.11-.016-.156-.037-.175-.053-.156-.115-.249-.057-.12-.068-.294-.031-.156-.038-.2-.06-.175-.054-.083-.069-.055-.057-.046-.064-.009-.072.009-.086-.009-.071.009h-.061l-.071-.009-.061-.018-.255-.093-.1-.009-.075-.009-.105.028-.1-.009-.064-.028-.079-.092-.026-.065.009-.055.037-.064.067-.065.071-.027.141-.046.1-.037.156-.046.09-.009.06-.037.066-.083.036-.056.016-.074.009-.055,0-.1-.013-.1-.039-.193-.029-.047-.065-.092-.027-.046-.022-.046-.017-.092-.066-.111-.055-.065-.084-.064-.066-.009-.075.009-.074.037-.253.092h-.083l-.056-.028-.046-.055-.023-.092.029-.11.009-.082.039-.111,0-.037-.016-.037-.033-.028-.061-.027-.031-.028-.005-.027-.013-.083-.1-.138-.045-.175v-.055l.045-.11.093-.129.106-.119.072-.093.018-.074-.013-.147-.043-.184-.062-.157-.1-.166-.056-.12-.056-.1-.111-.184-.122-.183-.063-.047-.051-.018-.059-.009h-.17l-.106-.028-.065-.046-.021-.037-.022-.083v-.065l-.014-.073-.056-.083-.06-.083-.069-.073-.093-.092-.056-.055-.2-.129-.092-.037-.094-.027-.136-.019-.13-.009-.043.009-.049.019-.023.027-.059.175-.046.074-.053.111-.072.138-.036.166-.067.1-.058.037-.1.056-.074.028h-.035l-.187.11-.073.037-.034.009h-.109l-.039.018-.047.019h-.067l-.081-.028-.084-.074-.023-.073-.027-.046-.041-.037-.014-.064-.022-.065-.027-.065-.065-.083-.04-.12,0-.037.017-.046-.01-.129-.015-.1-.016-.157-.063-.146v-.065l-.009-.12.021-.092-.034-.12-.055-.165-.058-.139-.133-.23-.013-.037,0-.046,0-.156-.019-.1-.041-.11-.014-.11.013-.084.014-.064.012-.064.017-.056.053-.12.037-.046.041-.009h.026l.03.028.033-.009.026-.01.031-.028.034-.065.024-.119.009-.065-.007-.083-.036-.166-.023-.073-.055-.119-.039-.037-.055-.037-.075-.027-.1-.037-.055-.037-.029-.018h-.063l-.084-.037-.06-.065-.08-.064-.029-.01-.064-.009-.071-.064-.045-.036-.028-.074.005-.046.011-.1-.007-.037-.014-.036,0-.018.006-.028.032-.028.017-.074-.01-.046-.066-.055-.059-.018-.113-.093-.09-.046-.042-.037-.085-.019-.049-.027-.032-.009-.006-.028,0-.027V1457l-.027-.046-.031-.037-.012-.037,0-.028.008-.046-.027-.055-.048-.037-.023-.037-.009-.046-.025-.046-.012-.028,0-.047-.015-.018-.023.009-.166.092-.054.009-.033-.009-.068-.092-.155-.074h-.09l-.174-.12-.065-.019-.035-.091,0-.129.031-.092.061-.046.151-.046.113-.064.143-.092.025-.018.007-.073-.009-.047h-.025l-.03.01-.047.009-.022-.009-.017-.037-.026-.083.013-.036.014-.047-.064-.055-.015-.037,0-.037-.025-.046-.006-.047.049-.092.1-.129.077-.028.094.018.076.01.088-.028.074-.046.056-.009.087.046.033.027.03-.018.011-.055.052-.065.06-.073-.033-.074-.009-.074,0-.036,0-.028.022-.027.07-.027.086-.028h.042l.03.028.038.036.008.037.035.092.014.019.036.037.128.073.049.019h.028l.058-.065.046-.074.005-.019.008-.018.015.009.184.111.281.175.037-.037-.036-.027.033-.047.456.285.276.184.233.148.067.046.022-.019.293-.332.027-.037.314-.35-.035-.037-.032-.027.082-.092.462.424-.035.046-.031.046-.011.138.02.01.03.009.013.036,0,.065h.048l.009-.009-.007-.018,0-.018.018-.019.052.019.062.027.076-.01.033.018.032.028.047.009h.007l.031-.018.047.009.04.018.058.037.01.019h.054l.023-.019h.061l.023.027h.026l.059-.018.078-.056.029-.046.041-.01h.116l.041.01.048.009.053.019.122.037.11.009.137-.019.061-.009.078-.018h.054l.031.018.017.019.063.018.04.056.037.055.05.046.057.036h.018l.007.01v.019l.029.028.007.009h.013l0,.009h0v.009l.016.018h.019l0,.009h0v.009l.011.009h.028v.028h.011l0,.009-.006.009h-.012v.036h.006l0,.009h0l-.006.018v.009l0,.027h.012v.009l-.007.01.007.037.006.01h0v.009h-.008l0,.046.009.01h0l0,.009-.007.009v.037l.008.009,0,.009,0,.009-.007.009h-.028l0-.018v-.009l-.006-.009-.019.009h-.016l-.032.037-.016.037v.028l-.027.175-.013.018h-.009l-.019-.009h-.03l-.02.009-.023.046.01.074-.024.083-.031.083-.079.157-.043.037-.026.019-.035.009v.046l.008.047h.035l0,.019h.007l.014.018.076.083.084.073.057.055,0,.019.039.046.058.1.03.037,0,.018.01.056-.014.009.006.046.011.055.023.083.015.046.014.018.005.009.008.166-.017.046,0,.046.024.065.011.092,0,.074-.014.083,0,.137-.007.064.013.056.071.258.033.046.021.028,0,.046-.011.056-.04.065-.006.036v.065l.046.093.074.073.09.138.042.019.042-.01.255-.166.173-.111.278-.166.292-.184.059-.018.053-.028.033-.018.112-.046.107-.046.06-.028h.306l.07.009.016-.506-.022-.746,3.795-.046.613-.12,1.284-.009,1.049.165.453.5,1.067.7.445-.221.614-.321.621-.157h1.183l.455,1.3v1.114l.066.866.26.442.345.359.537.313,1.058.257,1.679.286.865-.009.714-.083,1.208-.028,1.024.839.5.478.168.48-.041.93-.084,1.8-.151,1.6v.479l.125.442.253.286.571.432.739.157,1.075-.2.8-.81.311-.314.546-.451.529-.258.411.129.579.709.277.966.285.857-.043.534-.058.424.227.534.2.377.379.645.319.157.562-.369,1.788-.4.991-.029.612-.074.588.046.521.212.562.268.6.267.637.368" transform="translate(-2665.649 14258.911)"  stroke="#fff" stroke-linecap="square" stroke-linejoin="bevel" stroke-width="1" fill-rule="evenodd"/>
    <path id="talId301" fill="#7DB8EC" title="Chiplun Taluka" data-name="Chiplun" d="M907.21,1394.948l1.167.193,1.62.111.6.01.764-.1.437-.194.529-.341,1.418-.791,1.185-.718.822-.507.84-.276.981-.277.69-.055,1.158.12,1.789.331,1.183.139,3.157.23,1.234.12,1.369.194,1.208.3,1.562.5.915.553.889.579.672.525.965.8.52.58.722.285.789.019.537-.22.328-.313.218-.571.176-.967.227-.332.319-.543-.034-.866-.084-.506,1.326-.13.991.019.235.6.151.811.361.608.32.617.6.709.47.626.471.525,1.318.23.746-.515.655-.922.689-.533.747-.433.554.286.21.359.477.1.521-.137.377-.267.621-.866.588-.4.6-.314.579-.074.227.388.177.46.26.267.445-.129.487-.34.3-.194,1.461.019.672.423-.16.737-.033.58.2.461.378.212.781-.2.545-.369.614-.046,2.258-.193,1.72-.1,1.142-.175.361-.461-.135-.644-.067-.525.151-.516.353-.451.319-.433,1.973-2.422.982-1.511,1.663-1.787,1.183-1.326,2.066-2.266.99-.295,1.016-.267.412-.166.038.138.213.276.428.239.445.074h.315l.428-.046.869-.093.768-.055.474.073.768.368.478.184.256.166.239.248.412.571.025.277-.243.562-.349.368-.256.221-.239.212-.169.2-.155.175-.08.091.064.221.108.046.252.1.172.258.311.452.4.285.319.341.252.276.123.212.029.249.038.349.076.323.058.3.126.451-.016.148-.32.147-.256.148-.276.194-.239.231-.269.515-.432.848-.235.644-.009.451.113.213.412.23.5.3,1.049.563.676.368.466.285.935.313.853.516.478.341.352.469-.084.368-.084.277-.075.267-.34.986-.274,1.05-.213.295-.046.267.05.258.185.295.08.267-.067.277-.236.276-.839.7-.9.506-.28.285-.312.13-.151-.092-.327-.111-.265-.11-.206-.046-.189.028-.134.148-.088.341-.018.212.113.368.08.156-.121.166h-.282l-.227.009-.234.009-.281.129-.425.314-.835.912-.495.442-.587.93-.089.212.13.165.226.194.193.221.286.258.34.266.054.359-.2.322-.189.534-.163.221-.265.267-.462.166-.49.139-.378.11-.294.175-.185.165-.1.129-.018.2.131.221.1.184.071.249-.247.672-.105.332.161.184.238.083.344.009.248.074.2.147.277.34.13.249.235.553.147.451.113.295.041.249.013.239-.024.25-.076.257-.156.23-.424.544-.185.35-.034.553.063.184.151.157.218.2.206.193.093.2.075.295-.034.148.113.147.113.175.067.156-.041.239-.177.3-.076.184-.256.259.017.193.273.2.227.414.281.3.025.3-.172.193-.172.248-.193.351-.26.6-.307.46-.206.313-.227.119-.348.019-.374-.019-.335-.073-.256-.055-.29-.1-.294-.009-.192.11-.11.157-.067-.009-.248.433-.4.626-.273.451-.772.847-.231.3-.323.139-.336.2-.449.451-.328.479-.209.322.079.525v.212l-.4.645-.21.24-.1.082-.252.01-.273-.11-.307-.175-.159-.055-.229-.037-.234-.018-.192.028-.235.286-.167.276-.156.212-.239.212-.125.148-.361-.138-.047-.1-.37-.7-.184-.489-.239-.166-.4.092-.278.249-.18.239-.273.442-.038.221-.033.313.135.57.109.286.323.193.32.055.36-.157.265-.064.259-.037.265.129.19.248.213.516.185.34.365.221.189.046.2-.148.151-.258.1-.2.289-.046.194.147.281.258.353.359.247.313.613.746.265.332.315.239.357.083.222.064.2.129.273.976.146.654.185.516.29.535.306.562.186.534.151.543.071.378.026.351-.135.414-.185.479-.365.553-.248.359-.13.295-.021.323-.1.5-.072.276-.18.036-.184.194-.017.193-.252.018-.839.488-1.754,2.164-.689.507-.612.46-.244-.3-.3-.506-.469-.377-.614-.046-.688.35-.705.57-1.536,1.115-.547.358.043.406.269.7-.067.6-.126.562-.378.644-.579.369-.714.24-.671-.185-.3-.848-.328-.423-.445-.525-.6-.378-.756-.322-.806-.627-1.091-1.381-.637-.644-.8-.691-.429-.138-.638-.165-.277-.424v-.6l-.453-.267-.563-.257-.671-.3-.554-.286-.378.092-.337.442-.427.423-.218-.1.084-.386.218-.406-.21-.553-1.478-.073-.571-.082-.562-.056-.537.084-.454.239-.521.166-.327.3-.487.313-.051-.249-.394-.47-.293-.046-.344.166-.31.387-.177.424-.68.6-.445.3-.739.212-.286-.24-.638-.368-.814-.81-.344.148-.772.414-.546.11-.5-.275-.9-.193-.689,1-.806,1.105-.385-.148-.663-.331-.924-.783-.361-.525-.487-.23-.495.47-.772.976-.437.258-.671.018-.252.231-.033.663-.051.848-.092.534-.587.46-.47-.211-.621-.331-.63-.442-.588-.783-.554-.581-2.266-.129-.9-.119-.638.147-.394.562.1.423.185.543-.1.387-.377.294-.622.36-.277.506,1.267,1.022.067.562.1.322.252.378.588.276.764.405,1.226.433.285.516.169,1.224.663.847.286.157.445.4-.034.359-.151.359-.411.4-.589.635-1.419,2.155-.067.608-.059.746.043.718.025.884-.184.94-.664.314-1.359-1.29-.63-.764-.655-.755-.243.046-.949-.055-.093-.377.059-1.225-1.184-.995-1.04-.884-.8-1.345.067-1.068-1.646-1.612-.369-.359-.512-.156-.588-.065-.345-.294-.394-.434-.008-.635-.277-.35-.42-.35-.412-.386-.453-.525-1.024-1.059-.3-.811.05-1,.32-.266.386-.249.8-.212,1.075-.617.092-.451-.335-.4-.193-.433.059-.506-.008-1.124-.294-.47-.236-.414-.235-1.768-.167-.7-.453-.69-.538-.571.051-.654.377-.452.622-.561.528-.35.529-.507.6-1.078.395-.783.025-1.059-.143-.524-.335-.369-.344-.359-.52-.212-.605-.1-.941-.174v-.378l-.167-.488-.688-.286-.236-.525-.192-1.179.134-.47.453-1.068-.738-1.806-.344-2.541.033-2.247-.117-.3-.352-.322-.563-.285-.362-.82-.125-.4-.26-.6v-.571l.755-.746.7-.5.856-.662.3-.562-.226-.414-.126-.544.194-.543.151-.885-.067-.921-.311-1.953v-.81l-.218-.332-.487-.423-.5-.433-.487-.755-.143-.664-.57-.8-.907.166-.5-.369-.461-.4-.4-.534-.159-.627.05-.645-.092-.571-.37-.58-.923-.82-.294-.617-.311-.663-.637-.4v-.616l.26-.138.361-.8-.243-.377L902,1397.8l-.025-.589.437-.332.747-.1.34-.111.21-.119.1-.314-.008-.349.168-.387.184-.185.222-.212.222-.313.24-.432.571.34.655.129,1.142.12" transform="translate(-2667.875 14269.446)"  stroke="#fff" stroke-linecap="square" stroke-linejoin="bevel" stroke-width="1" fill-rule="evenodd"/>
    <path id="talId303" fill="#7DB8EC" title="Guhagar Taluka" data-name="Guhagar" d="M869.491,1392.625l1.184.156.957-.11,1.259-.138,1.125-.184.672-.249,1.041-.571,1.528-.12,1.326.387,1.057.35,1.36,1.65.436.57.638.719.487.322.588-.138,1.158-.6.722-.81.605-.737.353-.856.453-.793.353-.552.771-.7.605-.773.99-.258,1.041.037,1.528-.589,1.8-.267.739.267.4.571.353.82.285,1.077.033,1.077.47,1.271.554.092.756-.138.739-.222,1.075-.368.94.322.655.433.772.691.5.553-.239.433-.222.312-.223.212-.184.184-.169.387.009.35-.1.313-.211.12-.339.11-.747.1-.437.332.025.589.135.406.243.378-.361.8-.26.138v.617l.637.4.312.664.294.617.923.82.37.58.092.571-.051.644.159.626.4.534.462.4.5.369.907-.166.57.8.143.663.488.755.495.433.487.423.219.332v.81l.31,1.952.067.921-.151.885-.193.543.126.544.227.415-.3.561-.857.664-.7.5-.755.746v.571l.261.6.125.405.361.82.562.286.353.322.116.3-.033,2.247.345,2.542.738,1.8-.453,1.068-.134.47.192,1.179.236.525.688.285.168.489v.378l.94.175.605.1.52.211.344.36.335.368.142.525-.025,1.06-.395.782-.6,1.078-.529.507-.529.35-.622.561-.378.452-.05.653.537.572.454.69.167.7.235,1.767.236.415.293.47.008,1.123-.059.507.193.432.335.4-.092.452-1.075.616-.8.212-.386.249-.32.267-.049,1,.3.81,1.024,1.059.453.525.412.386.42.35.277.35.008.636.395.432.344.295.588.064.512.157.369.359,1.645,1.612-.067,1.068.8,1.345,1.041.884,1.183.995-.059,1.225.093.378.948.056.243-.047.655.755.63.765,1.359,1.29-.084,1.16-.545.838-.605.839-1.359.727-1.117-.009-.294-.221-.637-.368-.605-.267-.562-.267-.521-.212-.588-.046-.612.074-.991.027-1.788.4-.562.367-.318-.156-.379-.645-.2-.378-.227-.534.059-.424.042-.534-.285-.856-.277-.967-.579-.709-.411-.129-.529.258-.545.452-.311.313-.8.81-1.075.2-.739-.156-.571-.433-.252-.285-.125-.442v-.479l.151-1.6.083-1.805.042-.93-.168-.479-.5-.479-1.024-.838-1.208.028-.714.083-.865.009-1.679-.286-1.058-.258-.537-.312-.345-.359-.26-.442-.066-.865V1454l-.454-1.3h-1.183l-.62.157-.613.322-.445.222-1.066-.7-.453-.5-1.049-.166-1.284.009-.613.12-3.794.046-.126.019-.056.009-.081.018-.067-.018-.03-.019-.018-.047-.01-.037.03-.073.061-.083.113-.129.142-.156.085-.092.107-.12.089-.12.113-.139.152-.239.1-.167.111-.2.036-.064.066-.12.052-.1.036-.074.03-.092-.006-.028-.021-.056-.013-.027,0-.046.013-.055-.008-.047-.02-.064-.01-.082.026-.047.05-.064.042-.065.056-.12.067-.1.071-.055.055-.018.04-.083,0-.12.016-.165.023-.285.039-.277.011-.119v-.129l-.007-.028-.013-.037-.039-.065-.015-.046,0-.046-.015-.037-.023-.046-.008-.046.013-.055.027-.063.036-.056.023-.028.028-.083.007-.157,0-.129-.008-.055-.006-.028-.012-.055-.023-.065-.038-.046-.07-.037-.081.064-.159.083-.114.027-.087-.018-.08-.055-.064-.046-.02-.036-.035-.065-.007-.027-.032-.028-.029-.009-.045-.01-.053.01h-.094l-.041-.01-.045-.009h-.042l-.04.019-.021.027h-.037l-.037-.009-.019-.01-.028-.018h-.022l-.013.018-.007.01-.025.009-.016-.019-.008-.027-.034-.064-.03-.028-.033-.018h-.1l-.054.009-.053.018-.086.037-.137.037-.114.018-.084-.009-.074-.028h-.045l-.1-.046-.191-.156-.083-.1-.043-.055-.031-.037-.07-.065-.168-.267-.063-.092-.081-.074-.158-.147-.042-.056-.029-.018-.1-.046-.2-.111-.212-.147-.159-.129-.011-.019.007-.027-.009-.009-.04.009-.022-.009-.139-.065-.039-.073-.022-.037-.052-.046-.013-.037,0-.018.013-.055.008-.056-.028-.037-.075-.027-.07-.055-.033-.1.029-.12.043-.1.053-.156.087-.138.073-.064.079-.046.145-.065.077-.019.115-.018h.172l.3.018h.083l.078-.2-.057-.11-.063-.424-.026-.129-.02-.046-.069-.065-.134-.027-.159-.064-.1-.065-.052-.055-.068-.074-.061-.064-.124-.092-.063-.055-.084-.073-.1-.1-.066-.166-.058-.11-.052-.047-.062-.046-.219-.065-.108-.074-.117-.12-.133-.119-.051-.047-.036-.11-.023-.046-.019-.065-.013-.018-.024-.045v-.138l0-.083.022-.129.015-.064.117-.166.063-.065.183-.11.22-.129.135-.11.1-.083.1-.074.056-.137.018-.212-.01-.111-.006-.082-.1-.442-.038-.046-.047-.018-.316-.055-.02-.009v-.037l-.011-.009h-.044l-.075-.037-.066-.018-.028-.037,0-.083.01-.083.005-.045-.031-.092,0-.009v-.027l-.015-.019h-.03l-.038-.009-.045-.073-.04-.073-.058-.056-.008-.027,0-.028.01-.037v-.018l-.029-.009-.024-.01-.028-.027-.039-.074-.071-.3v-.046l.016-.036.043-.055.085-.11.081-.12.069-.137.091-.231.06-.1.077-.148.041-.12,0-.11-.009-.055-.02-.046-.019-.037-.03-.046-.077-.074h-.068l-.114.009-.117.009-.1.037h-.043l-.065-.009-.073.009-.184-.074-.086.009-.144.047-.075-.019h-.083l-.076-.046-.1-.037h-.048l-.031-.027-.014-.047v-.056l.032-.082.044-.074.045-.046.05-.027.045-.056.057-.092.018-.065,0-.046-.008-.019-.029-.009H877.4l-.015-.018.052-.185.02-.037.019-.037.016-.092-.006-.1-.037-.138-.127-.267-.047-.1-.092-.24-.164-.4-.08-.175-.125-.23-.139-.128-.061-.037-.067-.027-.044-.01-.069.018-.041.037-.042.064-.013.056-.026.027h-.045l-.023-.018v-.019l-.011-.046-.024-.008-.048-.009h-.073l-.126-.036-.092-.028-.059.009-.037-.009-.024-.019.011-.037.022-.028,0-.027-.044-.028-.03-.037-.011-.129-.014-.074-.021-.046-.122-.064-.1-.047-.157-.028H875.2l-.089.028-.054.047-.05.055-.012.055,0,.037.01.083-.018.046-.044.056-.038.018h-.042l-.01-.046.006-.037.016-.037-.013-.018h-.029l-.016.018H874.8l-.031-.009h-.028l-.026.018-.013-.009,0-.037.007-.027,0-.009-.014-.009-.052.009h-.015l0-.028-.006-.018-.018-.018-.048.009h-.026l-.007-.046-.03-.046-.056-.065-.073-.073-.1-.046-.1-.037-.13-.037-.106.009-.13.028-.1.046-.062.045-.055.065-.035.046-.01.055.006.046.033.1.007.009.06.073.007.046,0,.047.021.037,0,.037-.029.019-.01.018-.006.037-.009.018-.019.008-.036-.008-.044-.009-.108-.028-.049-.009-.065-.046-.031-.037-.071-.027-.04-.009-.016-.037-.036-.019h-.03l-.015.037,0,.046-.016.046-.05.027-.038.01-.028-.028-.022-.018-.049-.009-.091.009-.059.065-.053.037-.074.008-.068.01-.081-.036-.1-.047-.1-.092-.151-.11-.137-.1-.081-.056-.034-.018-.043-.009-.194-.028-.051-.018-.022-.019-.015-.009-.031.009h-.022l-.091-.018-.019-.01-.021-.027-.045-.047-.017-.009-.011.009-.025.037-.041.064-.015.009-.021-.009-.111-.074-.049-.036-.046-.065-.094-.193-.03-.074-.019-.037-.022-.037-.009-.046v-.046l0-.01h-.01l-.014.01-.01.027-.007.037-.016.009-.012-.009-.01-.028-.044-.046-.074-.119-.019-.091-.088-.222.013-.092.022-.037v-.037l-.038-.138-.059-.12-.052-.166.006-.028-.01-.037-.023-.056-.033-.018-.084-.055-.12-.129-.065-.074-.113-.12-.033-.064-.07-.074-.021-.093.011-.027.034-.018.039-.028-.016-.037-.043-.046-.1-.129-.128-.184-.126-.165-.1-.222-.069-.184-.026-.055-.027-.038-.018-.046-.026-.083-.009-.047.008-.083,0-.074.032-.083.023-.055.029-.047.053-.064.079-.046.056-.028.061-.009.085.019.073.037.08.037.051.028.066.009.062.01.079.046.05.018.042-.009.069.009.082.018h.152l.061-.036.06-.083.058-.065.025-.028.026-.027h.028l.019.009.006.018-.011.046,0,.064.006.027.032.037.051.028.053.009h.088l.064-.018.067-.028.108-.074.092-.046.052-.056.01-.074-.006-.037.005-.046.012-.037.029-.037,0-.028-.012-.037-.013-.055v-.111l.009-.073.018-.027.016-.009h.012l.015.036h.008l0-.009,0-.055,0-.009.023-.019.06-.037.057-.018.048.009.063.056h.046l.037.009.038-.019.028-.046.011-.046.026-.046.029-.056.04-.027.037-.037.063-.028h.059l.066.009.054.027.067.019.071-.028.029-.046.026-.064v-.064l.017-.037.024-.037.068-.055.048-.047.047-.027.06-.028.077-.009.089-.009.046-.019.053-.055.091-.074.019-.028v-.037l-.032-.055-.088-.1-.081-.092-.116-.055-.026-.045-.02-.074,0-.11.023-.074.054-.1.011-.018.068-.028.023-.018,0-.028-.007-.028,0-.037-.009-.073.009-.018.018-.009.056-.019v-.027l-.025-.055-.059-.111-.034-.11-.015-.185,0-.065-.039-.11-.02-.092v-.009h.035l.055.036.091.065.043.036.023.009.073-.018.015-.018,0-.018-.006-.046-.029-.147-.03-.12-.019-.092-.024-.22,0-.037,0-.351.036-.23.046-.147.03-.074.044-.073.152-.1.119-.055.172-.092.224-.074.165-.027.043-.01.016.01,0,.009.033.046.049.027h.037l.033-.019.04-.064.03-.064.06-.129.03-.065,0-.047-.007-.083.012-.009.025-.009h.039l.05-.056.113-.165.12-.11.144-.166.088-.065.041-.1,0-.083-.033-.175-.068-.157-.11-.184-.115-.185-.077-.082-.094-.073-.217-.092-.119-.027-.124.018-.116.138-.1.055-.19.028-.087.018h-.124l-.082-.018-.211-.046-.178-.037-.024-.019-.021-.055-.031-.1-.012-.055,0-.129.008-.046.048-.175.016-.055,0-.036-.02-.139-.012-.175,0-.036.018-.1-.015-.083-.027-.073.006-.028,0-.018-.024-.018,0-.037,0-.018.023-.083.007-.037-.009-.056,0-.009.03-.036,0-.037,0-.047-.012-.11.014-.129.025-.037.009-.028.013-.046-.01-.046-.031-.018h-.09l-.016-.028-.025-.064-.055-.037-.087-.056-.051-.027-.03-.037-.013-.064.008-.027.049-.065,0-.009-.005-.009-.037-.055-.036-.073-.01-.037v-.046l.039-.073.063-.083.032-.019.065-.074.017-.037-.005-.046,0-.036.045-.047.026-.018h.028l.025-.018.106-.12.126-.092.164-.129.138-.12.151-.1.089-.083.079-.064.109-.091.1-.148.114-.175.036-.156.069-.285.01-.2v-.129l0-.073-.113-.423-.017-.065-.054-.11-.07-.083-.027-.056-.085-.258-.19-.525-.1-.175-.054-.11-.016-.083-.007-.119-.039-.166-.057-.157-.075-.451-.089-.322-.08-.212-.073-.156-.154-.268-.158-.312-.088-.129-.066-.175-.017-.074-.006-.092.014-.111-.02-.267-.06-.23-.066-.267-.045-.221-.03-.092-.188-.516-.2-.608-.214-.719-.157-.469-.067-.212-.178-.451-.159-.461-.083-.248-.029-.083-.05-.2-.054-.193-.01-.046-.008-.037-.019-.036-.076-.12-.069-.129-.083-.12-.149-.129-.086-.073-.1-.056h-.064l-.076.019-.151.054-.081-.009-.061-.036-.065-.055-.049-.037-.027-.009-.028-.009-.029-.028-.048-.083-.083-.092-.062-.084-.014-.037-.012-.064-.022-.037-.05-.047-.045-.073-.021-.055-.011-.13.019-.111.008-.055-.009-.028-.029-.018-.05-.019-.055-.019-.038-.019-.111-.174-.151-.239-.116-.1-.143-.083-.055-.046-.04-.046-.03-.046-.129-.093-.049-.046-.058-.018-.029-.019-.013-.028-.011-.12v-.1l-.008-.056-.03-.037-.07-.019-.09.019-.033-.019-.064-.055-.037-.027-.019-.009-.033.009-.022.019-.041.073-.1.129-.045.056-.015.036-.007.037-.017.028-.036.009h-.027l-.021-.009-.027-.028h-.038l-.021.009-.017.037-.064.083h-.024l-.142-.028h-.048l-.1.019-.035-.009-.043-.01-.09-.036-.064-.037-.12-.083-.016-.018-.008-.056-.024-.1-.01-.055-.009-.056,0-.055v-.028l-.013-.027-.016-.028-.005-.027.027-.065v-.019l-.013-.009h-.038l-.026-.018-.021-.037-.012-.083.011-.074.03-.092v-.018h-.008l-.018-.009-.007-.009,0-.009.008-.019v-.027l-.015-.028-.017-.129,0-.018h-.016l-.06.036-.091.064-.02.009h-.036l-.031-.037,0-.009.005-.01.17-.11.007-.019,0-.01,0-.055-.007-.185-.016-.082-.084-.2-.05-.138-.041-.082-.092-.074-.151-.037-.068-.009h-.283l-.072-.027-.074-.046-.062-.083-.016-.064-.028-.046-.121-.073-.1-.064-.018-.029-.009-.027,0-.019.016-.064,0-.027-.016-.028h-.022l-.025.018-.027.037-.013.009-.017-.018-.147-.129-.137-.129-.063-.018-.038-.046-.026-.064-.019-.064-.036-.01-.055.01-.027.009-.035-.028-.016-.037-.039-.1-.046-.074-.054-.037-.014-.092.009-.055.03-.111-.011-.138-.033-.148-.087-.156-.1-.1-.1-.083-.072-.073-.041-.064-.093-.111-.023-.055-.017-.046-.017-.111-.016-.184-.009-.092.005-.065.019-.073.012-.083,0-.055-.017-.028-.034-.018-.044.009-.033.009-.012-.009-.008-.018,0-.018-.009-.018-.042-.037-.107-.129-.024-.056-.006-.055.035-.1.028-.028.051-.046.008-.018-.008-.018-.048-.028v-.018l0-.009.042-.046.039-.111.022-.212.011-.092.06-.138.02-.092.054-.157.012-.027.087-.1.076-.129.019-.184-.035-.221.007-.065.071-.074.054-.028.061-.009.15.019.009-.009-.005-.018-.053-.037-.07-.018-.053-.009-.118-.01-.056-.027-.028-.019-.005-.018.008-.083.016-.027.015-.037.048-.046.04-.009h.181l.015-.018-.006-.028,0-.018.017-.019.136-.055h.027l.022.009.029.009h.02l.069-.046.03-.046.069-.11.017-.073.052-.064.071-.074.069-.019h.181l.068-.018.1-.074.168-.12.166-.055.165-.1.115-.083.082-.056.063-.036.148-.037.191-.028.063.01.038.028.076.064.029.019.046.009.031.019.024.027.008.037v.028l.043.055.04.1.022.055.017.074.015.036.059.065.017.018.006.037.014.028.02.018.014.009.016.01.017.027.021.046.057.129.013.028v.027l-.019.065-.04.037-.005.019.006.037.016.019h.031l.15.046.062.009.051.009.264-.018.055-.009.212-.074.129-.074.065-.028.072-.037.067-.046.037-.027.048-.046.065-.064.082-.119.007-.028-.013-.029-.045-.046-.025-.028-.076-.12-.006-.028.01-.11.022-.212.057-.258.026-.083.017-.037.047-.055.065-.055.009-.009.027-.083.013-.037.008-.009.025-.018.072-.046h.01l.012.018h0l.064-.027h.01l.01.009v.009l-.018.009,0,.009.015.055.012.009h.015l.054-.027.084-.073.06-.055.148-.019.322-.01.134-.553.122-.69" transform="translate(-2664.756 14268.772)"  stroke="#fff" stroke-linecap="square" stroke-linejoin="bevel" stroke-width="1" fill-rule="evenodd"/>
    <path id="talId304" fill="#7DB8EC" title="Khed Taluka" data-name="Khed" d="M911.674,1324.606l.6.091,1.21.857.624.184.485-.111.34.222h.458l.559-.01.431-.092.623-.414.376-.119.394.027.5-.027.367-.157.065-.377-.055-.378.449-.331.134-.092.589-.405.367-.13.67-.129.412-.3.413-.432.046-.507.183-.5.44-.764.147-.47.348.166.348.258.276.138.6.277.312.367.036.543-.063.655.193,2.017.082.773.028.488v.718l.8.129.023.977-.238,1.068-.669.571.224.737.041.387.211.35.261.332.509.581.344.414.463.083.206-.046.216-.166-.041-.184-.068-.174-.079-.249.051-.35.248-.176.728-.212.408-.3.179-.285.193-.415.083-.387.169-.3.33-.056,1.215-.073.353.037.806.175.551.055.453-.019.839-.212.546-.018.555.037.513.358.335.672.4.866.284.617.239.387.243.138.431.047.5-.047,1.032-.211.353-.193.266-.3.395-.433.467-.6.541-.6.357-.313.216-.239.022-.12-.1-.285-.27-.221-.009-.2.133-.4.445-.894.554-.369.371-.183.367-.184.334-.221.316-.211.238.313.243.617.738.894,1.1.93.66.332.353.166.4.082.257.019.367-.065.215-.193.247-.35.083-.24.3-.268,1.045-.7.422-.47.5-.423,1.324.294.21.129.025.682-.277.81-.085.655.059.442.5.331.2.111.47.285.52.608.445.765.2.322.344.092.487.157.377.129.521.037-.251.47-.177.295-.193.193-.377.2-.629.323-.311.185-.31.432-.067.359.1.322.083.249.109.249-.067.285-.21.212-.143.138-.025.249.193.258.327.258.244.349.16.258.243.341.286.295.4.184.313.387-.029.369-.105.314.042,2.246.063.443.344.368.4.36.3.286.245.221.138.229-.13.259-.177.212-.286.332-.34.119-.349-.055-.218.092-.156.166-.121.221-.172.037-.3-.137-.239-.092-.324-.056-.332-.028-.226-.01-.256-.119-.256.036-.18.111.026.5.009.3.02.184.3.093.319.092.446.231.252.128.356.424.227.414.085.267-.051.331-.05.415-.324,1.16-.44,1.1-.811,1.52-.461.673-.277.367-.059.5-.071.341-.093.358-.1.277-.172.175-.24.231-.453.34-.184.737-.009.349.118.378.092.276,0,.248-.248.377-.272.3-.253.285-.079.175.088.248.2.185.335.12.189.11,1.344,1.141.218.268.067.221-.005.22-.058.212-.071.12-.072.12-.13.2.482.156.509.184.3.139.248.266.076.24.151.194.327.138.353.027.147.01.268.046.4-.194.621-.23.559-.092.344-.212.268-.313.151-.184.466-.544.412-.406.407-.221.155-.018.21.047.609.312.407.387,1.1.866.962.636.739.479.021.266.1.1.341-.157.34-.285.251-.156.516-.287,1-.506.423-.488.3.018.184.267.109.221.029.185.428,1.04.563.248.461.157.349.083.206.249.365.295.18.183.1.037.668.359.466.212.735.12.709-.055.44.12.7.405.348.138-.21.286-.3.138-.206.129-.344.184-.1.184-.062.6.076.3.213.12.433.193.458.138.419.165.311.276.114.349-.009.314v.249l.125.239.2.055.226.074.256.239.079.221,0,.331-.054.12.042.12.386.174.18.147.126.249.034.212-.009.249-.141.534-.156.23-.156.185-.172.2-.037.185.269.249.2.414.1.258.08.415-.088.285-.114.332-.138.221-.3.3-.785.857-.4.691-.092.331-.412.166-1.015.267-.99.295-2.066,2.265-1.183,1.326-1.662,1.787-.982,1.511-1.973,2.422-.319.432-.353.451-.151.516.068.524.134.645-.361.46-1.142.175-1.72.1-2.258.193-.614.046-.546.369-.78.2-.378-.212-.2-.461.033-.579.16-.737-.673-.424-1.46-.018-.3.193-.487.341-.445.129-.26-.268-.176-.46-.227-.387-.579.074-.6.313-.588.405-.621.866-.378.266-.52.139-.478-.1-.21-.358-.555-.286-.747.433-.689.534-.654.921-.747.516-1.318-.231-.47-.524-.47-.627-.6-.709-.32-.617-.361-.608-.151-.811-.235-.6-.991-.019-1.326.129.084.506.034.865-.32.544-.226.332-.176.966-.219.572-.327.313-.538.221-.789-.018-.722-.286-.52-.58-.965-.8-.672-.526-.89-.581-.914-.552-1.562-.5-1.208-.3-1.368-.193-1.234-.12-3.157-.23-1.183-.138-1.789-.332-1.158-.12-.689.055-.982.277-.84.276-.822.506-1.185.719-1.418.792-.529.341-.436.194-.765.1-.6-.009-1.62-.111-1.167-.193.268-1.022.151-.59.538-1.224.638-1.041.788-1.667.588-.469-.235-1.639-.856-1.668-.235-.856-.386-.452-.487-.47-.5-.635.168-.663.05-.939-.251-.332-.151-.349-.286-.692-.185-.589-.151-.608.118-.5.52-.257.453-.581.84-1.519-.034-.784-.6-.451-.555-.506-.3-.939-.251-.451-.336-.378-.94-.368-.907-.285-.94-.1-1.36.036-.553-.267-.085-.571.168-.525-.285-.764-1.7-1.317-.587-.267h-.956l-.672-.267.571-1.427.135-.553.151-.773-.236-.654-.219-.635-.637-1.316.033-.655.353-.534.6-.71.051-2.284.587-.48.37-.285.252-.691-.017-.406-.268-.894-.588-.553-1.041-.9-.873-.387-.571-1.187.218-2.091.218-.5.3-.607.7-.416.672-.257,1.007-.028,1.091-.093,1.411-.211.99-1.042.436-.4.522-.37.5-.054.5.221.386-.387.235-.414.083-.626-.3-.221-.554-.4.067-.524.588-.35.773.046.822.139.739-.064.37-.526.251-.57.235-.774-.218-.7-.638-1.787-.268-.764-.32-.59-.167-.626.051-.535.218-.267.436-.34.453-.212.285-.442v-.552l.722-.286.369-.414.453-.543.773-.572.655-.534.386-.589-.017-1.04-.042-.774.369-1.04" transform="translate(-2667.4 14277.783)"  stroke="#fff" stroke-linecap="square" stroke-linejoin="bevel" stroke-width="1" fill-rule="evenodd"/>
    <path id="talId302" fill="#7DB8EC" title="Dapoli Taluka" data-name="Dapoli" d="M900.351,1388.808l-.5-.553-.771-.691-.655-.433-.941-.322-1.075.368-.739.221-.756.139-.553-.093-.471-1.27-.033-1.078-.286-1.078-.352-.819-.4-.571-.738-.267-1.8.267-1.528.589-1.041-.036-.991.258-.6.775-.771.7-.353.552-.453.791-.352.857-.605.737-.722.81-1.158.6-.588.139-.486-.323-.639-.719-.437-.57-1.36-1.648-1.057-.35-1.326-.386-1.528.12-1.041.571-.672.248-1.125.184-1.259.138-.957.111-1.183-.157-.161-.1-.115-.074-.089-.074-.112-.175-.022-.12-.017-.11-.127-.267-.154-.248-.036-.056-.043-.027-.139-.028-.064-.009h-.1l-.069-.056-.1-.12-.064-.082-.08-.074-.026-.037-.041-.028-.1-.073-.09-.028-.057-.026-.061-.065-.027-.009h-.155l-.121.028-.112.009-.183-.009-.173-.055-.181-.093h-.032l-.016-.008-.007-.046,0-.13,0-.055-.017-.056-.016-.018-.031-.009-.1-.009h-.066l-.086.027-.06-.01-.031-.009-.026-.036-.019-.036-.018-.047,0-.055.032-.139.079-.147.048-.175v-.074l-.013-.074-.022-.064-.034-.055-.085-.064-.031-.009-.057.009-.118.037-.182.129-.029.018h-.076l-.046-.008-.188-.056-.115-.055-.071-.064-.031-.056-.011-.073-.023-.055-.025-.028-.132-.055-.139-.083-.161-.074-.077-.073-.032-.083,0-.074.018-.083v-.027l-.013-.027-.07-.056-.1-.092-.045-.073-.088-.084-.109-.128-.015-.037v-.083l-.012-.028-.028-.028-.058-.046-.083-.028-.033-.028-.064-.138-.113-.184-.189-.3-.2-.249-.068-.13-.06-.128-.109-.314-.028-.063-.069-.083-.055-.12-.026-.056-.011-.055v-.056l.007-.156-.007-.027-.049-.083-.031-.083-.023-.1-.007-.11-.009-.056-.037-.194,0-.128,0-.083-.018-.074-.039-.056-.04-.055-.048-.194,0-.055.016-.138-.007-.092-.057-.22-.01-.028-.024-.028-.021-.036,0-.093.014-.055v-.1l-.009-.056-.034-.083-.025-.047-.01-.046,0-.056.012-.018v-.028l-.1-.165-.175-.258-.1-.092-.019-.037-.005-.036.022-.194,0-.064-.024-.138,0-.027-.016-.027-.022-.046-.037-.065-.016-.019-.021-.009-.036-.018-.017-.01,0-.018.021-.028.012-.028,0-.027-.051-.074-.048-.056-.132-.111-.068-.055-.122-.12-.044-.027h-.1l-.033-.01-.017-.027-.013-.028-.026-.138-.017-.055-.039-.084.006-.018.023-.018.064-.037.054-.11.04-.1.006-.175.022-.074.118-.165.1-.111.138-.129.07-.055.041-.037.145-.1.112-.046.053-.019.021-.009.036-.065.012-.009h.011l.029.018.064.056h.1l.081-.009.114-.074.033-.092v-.055l-.056-.285-.021-.111-.06-.249-.052-.2-.049-.156-.138-.386-.049-.157-.1-.185-.143-.3-.042-.1-.009-.028-.008-.046-.027-.055-.087-.1-.117-.139-.17-.174-.031-.019-.148-.019-.149-.027-.128-.074-.045-.056-.014-.083v-.119l.045-.129,0-.055-.052-.175-.04-.055-.04-.027-.051-.028-.036-.009-.053-.074-.014-.046,0-.083-.008-.056-.035-.073-.024-.019-.047-.018-.125-.054-.152-.083-.064-.046h-.022l-.03.009h-.041l-.046-.009-.051-.046-.024-.018-.011-.028-.006-.018.008-.056-.021-.11-.008-.055-.016-.064-.048-.037-.012-.028-.017-.074-.022-.074,0-.018.012-.009.024-.027.041-.064.019-.065,0-.027-.008-.019-.025-.064-.025-.046-.041-.111-.094-.146-.022-.019-.091-.046-.107-.046-.027-.018-.075-.066-.061-.11-.026-.046-.031-.129-.007-.028.006-.064v-.019l-.013-.092-.022-.111-.04-.12-.009-.036v-.139l.012-.128-.013-.018-.018-.055,0-.047.007-.046-.005-.018-.013-.01-.007-.018v-.027l0-.082-.005-.019-.009-.01h-.022l-.128-.009-.094-.037-.053-.065-.025-.092-.044-.083-.033-.12,0-.157.008-.019,0-.027-.015-.027-.044-.1-.014-.064-.018-.129-.015-.037-.052-.147-.056-.175v-.11l.041-.129.059-.13,0-.027-.031-.055-.049-.119-.031-.148-.028-.064-.04-.083-.007-.046.013-.193.038-.129.058-.2.016-.12.013-.092-.016-.066-.009-.008-.039-.028-.031-.083,0-.036.009-.065.065-.147.052-.074.2-.211.028-.028.131-.111.044-.055.026-.037.024-.065.026-.028.037-.018.25-.092.091-.019.142-.008h.095l.078-.038.209-.194.055-.018h.094l.189.046.106.009.065-.019.053-.073.032-.082.025-.074,0-.083,0-.037.014-.028.036-.018.27-.074.045-.018.09-.083.016-.027.008-.065v-.1l.005-.037.012-.036.07-.1.178-.221.1-.074.094-.055.027-.009.061.018h.025l.06-.037.02-.01.076-.009h.022l.018.027.035.037.112.037.043.009.071-.009.054-.018.1-.092.13-.22.055-.1.046-.1.023-.184.013-.184.006-.184v-.083l-.04-.175-.043-.24-.066-.34,0-.037v-.026l0-.424-.015-.065-.1-.369-.163-.562-.139-.571-.09-.368-.052-.266-.021-.084-.035-.082-.042-.056-.057-.073-.064-.1-.044-.037-.041-.019h-.052l-.028-.009h-.029l-.028-.018-.025-.037-.015-.027-.021-.111-.031-.064-.032-.074-.03-.074-.019-.065-.027-.193-.014-.184-.036-.2-.021-.047-.061-.092-.045-.2-.13-.452-.1-.267-.045-.111-.027-.037-.029-.018-.046-.037-.028-.055-.022-.083-.088-.175-.114-.221-.09-.258-.03-.129-.21-1.023-.1-.5-.061-.156-.089-.2-.185-.433-.057-.165-.1-.2-.1-.294-.159-.415-.094-.313-.133-.5-.031-.064-.2-.535-.243-.617-.237-.617-.312-.773-.4-.949-.16-.4-.319-.765-.057-.12-.132-.359-.061-.11-.245-.488-.1-.212-.186-.378-.138-.377-.017-.046-.521-1.105-.183-.285-.069-.083-.158-.082-.152-.065-.051-.009-.146.009h-.016l-.016-.018,0-.055.007-.083.025-.028.073-.037.014-.018.021-.055-.013-.047-.165-.194-.122-.092-.4-.147-.225-.046-.176-.009-.078.018-.051.036-.024.01-.043-.028-.022-.027-.058-.1-.005-.018v-.019l.007-.027.038-.037.013-.009h.044l.01-.009.017-.027.02-.009.011.009.008.027,0,.037.006.009.023.009.059-.009.072-.056.028-.073.016-.083,0-.073-.019-.056-.07-.1-.06-.064h-.027l-.053.018-.026-.01-.01-.018-.008-.065.027-.056.026-.055h.031l.012-.009,0-.009.007-.009h.012l.014.009h.006l.042-.009.012-.009,0-.019h.013l0,.009h.022l.034-.018.106-.082.119-.166.1-.166.1-.2.077-.231.087-.286.042-.258.018-.294-.022-.2-.029-.239-.073-.12-.079-.111-.033-.064-.028-.092-.03-.073-.086-.157-.033-.092-.005-.054,0-.037.012-.037-.008-.064-.028-.065-.039-.028-.011-.009-.019-.046,0-.046,0-.055-.009-.047-.022-.037-.014-.008,0-.009-.008-.055-.018-.028-.023-.028-.039-.027h-.019l-.02.01h-.011l-.009-.01-.012-.028-.1-.12-.052-.073h-.038l-.1.036h-.022l-.007-.018.008-.028v-.036l-.016-.055-.013-.047.01-.027.045-.027.031-.046.014-.046-.01-.019-.009-.018h-.086l-.065-.046-.046-.036,0-.055.013-.037.012-.019.035-.009v-.037l-.012-.018-.034-.009-.089.009-.025-.009-.038-.056-.052-.074,0-.009,0-.009.028-.009.007-.009,0-.009-.019-.009-.018-.018,0-.009.018-.019.023-.008.079-.01.068-.028.078-.092,0-.027-.01-.018-.027-.018-.014-.028v-.026l.059-.1.1-.157.069-.018.207-.055h.088l.164.018.018-.185,0-.092-.136-.11-.142-.1-.116-.119-.137-.148-.081-.092-.1-.212-.07-.1-.065-.129-.067-.138-.09-.211-.066-.12-.153-.258-.041-.1-.019-.046-.035-.175-.022-.128-.066-.212-.049-.194-.033-.174-.044-.157-.122-.35-.044-.1-.021-.037-.039-.037-.155-.019-.081-.074-.11-.082-.027-.065-.031-.138-.041-.12-.017-.073.006-.111,0-.027.068-.147.029-.1-.011-.148,0-.055,0-.028-.04-.092-.137-.249-.216-.6-.025-.065-.035-.073-.054-.073-.066-.065-.013-.028-.032-.055-.054-.065-.114-.064-.075-.074-.034-.064-.021-.083-.057-.11-.117-.185-.078-.111-.029-.063-.006-.066,0-.091.072-.3-.011-.028-.007-.036,0-.056-.023-.074-.034-.166-.072-.212-.049-.165-.051-.184-.031-.111-.059-.139-.058-.092-.121-.294-.1-.258-.089-.175-.1-.165-.073-.111-.047-.147-.017-.129,0-.074.039-.074-.126-.166-.039-.055-.04-.018-.061.018-.218.139-.088.046-.08.01-.152-.01-.058-.009-.07.019-.084.037-.077.009-.053-.009-.062-.028-.038-.018h-.072l-.029-.018-.023-.009-.052-.065-.086-.082-.028-.018-.073-.028-.032-.018-.093-.074-.035-.037-.038-.073-.033-.056-.04-.064-.058-.064-.034-.064-.054-.037-.083-.037-.019-.008-.025-.056-.026-.037-.077-.064-.023-.019-.01-.018-.014-.037-.051-.064-.049-.074-.078-.074-.045-.028-.025-.009-.011-.028.006-.027,0-.027-.017-.027-.036-.046-.049-.019-.041-.027-.031-.018-.024-.028-.054-.093-.059-.055-.042-.018-.041-.018-.031-.046-.04-.083-.036-.027-.023-.018-.006-.018.008-.027-.006-.019-.018-.018-.024-.065,0-.018.022-.046.016-.047v-.037l-.027-.046-.017-.037-.039-.028-.008-.009,0-.018.023-.037,0-.047-.012-.027-.065-.074-.1-.12-.04-.046-.036-.009-.061-.009-.021-.009-.027-.056-.04-.074-.025-.055-.014-.037-.03-.046-.033-.046-.015-.009-.007-.046v-.046l-.008-.009-.037-.037-.056-.065-.047-.027v-.018l.008-.009.084-.038.1-.018.08-.091.051-.1.066-.138.094-.249.049-.12.011-.055.011-.175.018-.165.006-.313.007-.148.011-.129-.007-.424-.018-.212-.075-.432-.073-.331-.075-.258-.078-.212-.078-.23-.047-.221-.013-.1-.012-.166.03-.166.046-.082.028-.037.944-.009.293.027.4.009.437-.037.521-.065.411-.193.562-.249.747-.284.739-.728.831-.469.613-.277.5-.119.529.1.479.351.319.506.386.672.579.239.881-.037.463-.156.168-.369.21-.451.345-.285.125-.341.009-.4.109-.433.327-.138.638.35,1.015.12.328.147.361.065.428-.055.546.036.755.286.579.727.169,1,.2.47.3.332.453.23.5.22.47.074,1.142.1,1.552-.11.387.175.394.433.37.286.546-.018.713-.038.412.065.453.3.638.221.8.194.269.46.294.351.134.238.336.083.377-.34.194-.341.269-.258.319-.111.336.01.445.147-.025.405-.042.58.025.5.034.525.151.442.345.074.2-.166.546-.57.369-.092.5-.083.428.019.655.046.52.129.353.4.184.387.6.313.5.552.017.479v.535l.152.488.335.257.361.13.4.028.318.064.319.24.244.349.26.277.387.212.394-.074.277-.341.361-.607.7-.793.563-.22.4-.212.655-.553.578-.478.6-.525.638-.378.621-.12.487.268.361.479.192.995.294.313.488.129.437-.1.269-.165.21-.36v-.414l.009-.4.134-.286.244-.129.571-.028.218-.341.269-.4.763-.166.764.148.672-.111.63-.277.494-.166.689-.268.528-.267.571-.229.646-.221.629-.111.512.378.32.534.344.535.454.322.579.147.647.276.806.359.638.911.47.8.193.386.319.323.277.193.437.323.4.47.571.424.889.58.714-.267.043.773.017,1.041-.386.59-.655.534-.773.571-.453.544-.37.414-.722.286v.553l-.285.442-.453.212-.437.341-.218.267-.051.534.168.627.319.589.268.764.638,1.786.218.7-.235.773-.252.572-.37.525-.739.064-.822-.138-.773-.046-.587.349-.067.526.554.4.3.22-.084.626-.235.414-.386.386-.5-.22-.5.055-.521.369-.436.4-.991,1.041-1.411.211-1.091.093-1.007.028-.673.257-.7.414-.3.608-.219.5-.218,2.09.571,1.188.873.387,1.042.9.587.553.268.893.017.406-.252.691-.37.285-.587.479-.05,2.284-.6.709-.352.534-.033.654.637,1.317.218.636.235.653-.151.774-.134.552-.571,1.427.671.269h.957l.588.267,1.7,1.316.285.765-.169.525.085.57.553.268,1.36-.037.94.1.906.286.94.369.336.377.251.452.3.938.555.507.6.452.034.782-.84,1.521-.453.579-.52.258-.118.5.151.608.185.59.285.69.151.351.251.331-.05.939-.168.663.5.635.487.47.386.451.235.857.856,1.666.235,1.64-.588.471-.788,1.667-.638,1.041-.538,1.224-.151.589-.268,1.023-1.142-.12-.654-.129-.571-.341" transform="translate(-2663.269 14278.626)"  stroke="#fff" stroke-linecap="square" stroke-linejoin="bevel" stroke-width="1" fill-rule="evenodd"/>
    <path id="talId306" fill="#7DB8EC" title="Mandangad Taluka" data-name="Mandangad" d="M907.263,1321.74l-.369,1.041-.714.267-.889-.58-.571-.424-.4-.47-.436-.323-.277-.193-.319-.323-.193-.386-.47-.8-.638-.912-.806-.358-.646-.276-.579-.148-.454-.323-.344-.534-.32-.534-.512-.378-.629.111-.647.221-.571.23-.529.266-.689.268-.494.166-.63.276-.672.111-.764-.148-.764.166-.269.405-.218.341-.571.027-.243.129-.135.285-.008.4v.414l-.21.36-.269.166-.437.1-.487-.129-.294-.314-.193-.994-.361-.479-.488-.268-.621.12-.638.378-.605.525-.578.478-.655.553-.395.212-.563.221-.7.792-.361.608-.277.34-.394.074-.387-.212-.26-.275-.244-.351-.319-.24-.318-.064-.4-.027-.361-.129-.335-.258-.152-.488v-.535l-.017-.479-.5-.552-.6-.314-.184-.387-.353-.405-.52-.129-.655-.046-.428-.019-.5.083-.369.092-.546.571-.2.166-.345-.074-.15-.441-.034-.525-.025-.5.042-.58.025-.406-.445-.147-.336-.01-.319.11-.269.258-.193.341-.377.34-.336-.082-.135-.239-.294-.35-.269-.461-.8-.193-.638-.22-.453-.3-.412-.065-.713.036-.546.019-.369-.286-.394-.433-.387-.175-1.552.109-1.142-.1-.469-.074-.5-.221-.453-.23-.3-.331-.2-.469-.168-1-.579-.727-.755-.286-.545-.037-.429.055-.361-.064-.328-.148-1.016-.12-.638-.349-.327.138-.11.433-.008.406-.125.34-.344.285-.21.452-.168.369-.462.157-.881.037-.579-.24-.386-.672-.318-.506-.479-.35-.529-.1-.5.12-.613.276-.831.469-.739.728-.747.286-.563.248-.411.193-.52.064-.436.037-.4-.01-.293-.027-.943.009-.022-.185.016-.285-.022-.01-.022-.018-.064-.037-.061-.018-.046-.009-.038-.009-.038-.019-.055-.027-.178-.046-.076-.009-.173.018-.128-.027-.05-.009-.067.009h-.023l-.016-.028-.019-.046-.05-.046-.054-.037-.119-.111-.051-.037-.061-.036-.105.009-.036.009-.037.055-.035.028-.119.083-.15.074h-.122l-.216-.037-.088-.018-.187-.093-.019-.018-.059-.092-.067-.046-.129-.037-.052-.027-.047-.046-.017-.056-.006-.129-.011-.018-.012-.01-.041-.009-.009-.018.008-.028,0-.055-.017-.038-.013-.018-.086-.074-.077-.1-.027-.046-.03-.037-.006-.019.011-.018v-.019l-.019-.055-.033-.037-.024-.028-.021-.056,0-.018.013-.019.01-.018-.007-.009-.019-.009-.026.009-.019-.009-.018-.028-.029-.028-.077-.028h-.026v.038l-.006.036-.029.019-.04.028h-.02l-.006-.009h0v-.018l.012-.037.041-.065.02-.027,0-.019h-.02l-.031.009-.044.046-.04.028-.03-.009-.011-.019,0-.111-.008-.028h-.032l-.021.01-.015.018-.009.009h-.017l-.041-.009h-.071l-.018-.028-.016-.047-.011-.073-.022-.073-.029-.037-.039-.019-.032-.018-.023-.028,0-.018,0-.046-.014-.12.012-.138-.016-.046-.022-.01h-.022l-.018.019-.019.018-.016.01h-.014l-.025-.01-.046-.063-.047-.074-.042-.065,0-.2.007-.147-.008-.1-.046-.111-.026-.064-.009-.055-.024-.092-.019-.073,0-.055,0-.074-.006-.111.015-.156,0-.083,0-.009.011-.037.018-.11-.006-.1,0-.046-.022-.092-.006-.037.013-.037.05-.073.02-.047,0-.157-.025-.221-.021-.129-.043-.3-.046-.184-.039-.184-.027-.1-.016-.11v-.359l.033-.229.022-.129,0-.12,0-.2.012-.055.037-.1.042-.046.074-.083.057-.046.046-.047.051-.055.121-.119.12-.1.034-.064.036-.036.043-.037.064-.073.041-.046.13-.129.021-.009.028-.01.069-.036.081-.046.112-.092.072-.073.053-.037.042-.028.039-.036.182-.139.039-.037.08-.036.084-.055.048-.056.021-.046.012-.055.087-.221.027-.064.063-.1.011-.028.005-.036.01-.028.014-.037.037-.055.05-.019.028-.01.015-.017v-.028l-.012-.074,0-.009.016-.009-1.055-1.041,1.132.267.514-.073,2.365-.857.752-.2.742-.184.706-.193,1.311-.2,1.311.129,1.54.037,1.155.239.523.295.6.341.687.452.6.469.945.415.5-.138.184-.129.485-.35.366-.654.285-.865.789-1.714.916-2.136.844-1.455.248-.415.642-.184.788-.12.568-.166.569-.257.357-.314.174-.515v-.415l-.082-.571.348-.819.816-.9.6-1.059,1.009-1.133,1.009-.958.825-1.207.458-.332.274-.129.459-.111.468.092.55.415.385.157.752-.028.458-.138.357-.368.248-.424.266-.589.329-.406.624-.2.651-.027.605.258.256.47.248.819.7.4.77.321.513.185.688.111.532-.065.614-.129.422-.166.541-.156.513-.184.752-.3.586-.185.67-.009.916-.018.55-.369.312-.46.137-.341.349-.341.623-.175.679.019.248.1.422.267.375.231.568.184h.55l.559-.249.578-.313.843-.4.458,1.04.587,1.115.22.57-.174.728-.5.727-.055,2.726-.073.729.183.294.486.313.312.166.266.359.376.552.541.36.5.212.623.092.559-.221.513-.479.229-.322.568-.046.266.589.329.037.844.046.523-.028.376.406.146.461.119.515.175.571.174.489.32.175.312-.074.477-.248.531-.414.367-.553.092-.7.468-.829.211.424.193.764.476.488.359.285.633.388.265.4.183.35.322.479.165.533-.192.59-.128,1.188-.477,1.059-.294.24-.476-.037-.532.184-.422.552-.43,1.051-.377,1.041-.1.506-.109.608.173.24.4.248.246.432.459.894.164.5.542.479.55.166.449.055.724.211.174.378-.1.5-.239.359-.129.6.358.719.009.432.064.544.211.57.147.212.394.175.522.193.431.2-.019.5.688.811.293.636.137.654.073.995-.294.93-.495.3-.642.184-.137.47-.027.506.119.691-.027.5.073.534.184.6.247.774.248.111" transform="translate(-2662.874 14283.434)"  stroke="#fff" stroke-linecap="square" stroke-linejoin="bevel" stroke-width="1" fill-rule="evenodd"/>
    <text id="talId304count" transform="translate(-1750 15644.962)" font-size="10" fill="#fff" font-family="OpenSans-Bold, Open Sans" font-weight="700"><tspan x="0" y="0"></tspan></text>
    <text id="talId301count" transform="translate(-1742 15697.933)" font-size="10" fill="#fff" font-family="OpenSans-Bold, Open Sans" font-weight="700"><tspan x="0" y="0"></tspan></text>
    <text id="talId309count" transform="translate(-1734 15754.901)" font-size="10" fill="#fff" font-family="OpenSans-Bold, Open Sans" font-weight="700"><tspan x="0" y="0"></tspan></text>
    <text id="talId305count" transform="translate(-1731 15807.872)" font-size="10" fill="#fff" font-family="OpenSans-Bold, Open Sans" font-weight="700"><tspan x="0" y="0"></tspan></text>
    <text id="talId307count" transform="translate(-1744 15843.841)" font-size="10" fill="#fff" font-family="OpenSans-Bold, Open Sans" font-weight="700"><tspan x="0" y="0"></tspan></text>
    <text id="talId308count" transform="translate(-1772 15776.89)" font-size="10" fill="#fff" font-family="OpenSans-Bold, Open Sans" font-weight="700"><tspan x="0" y="0"></tspan></text>
    <text id="talId303count" transform="translate(-1790 15696.934)" font-size="10" fill="#fff" font-family="OpenSans-Bold, Open Sans" font-weight="700"><tspan x="0" y="0"></tspan></text>
    <text id="talId302count" transform="translate(-1799 15639.965)" font-size="10" fill="#fff" font-family="OpenSans-Bold, Open Sans" font-weight="700"><tspan x="0" y="0"></tspan></text>
    <text id="talId306count" transform="translate(-1811 15591)" font-size="10" fill="#fff" font-family="OpenSans-Bold, Open Sans" font-weight="700"><tspan x="0" y="0"></tspan></text>
  </g>
</svg>
