<svg xmlns="http://www.w3.org/2000/svg" width="393.302" height="186.79" viewBox="0 0 393.302 186.79">
  <g id="_2_Sangli" data-name="2 Sangli" transform="translate(-6913.718 -869.56)">
    <path id="talId67" data-name="67 Tasgaon" title="Tasgaon Taluka" d="M1201.735,1518.453l-.325.028-.381-.009-.5-.01-.446.13-.4.186-.511.194-.854.112-1.124-.056-1.031-.084-.949.019-.891.148-1.524.492-.64.214-.7.222-.538.01-.464.036-.456.484-.047.79.288,1.766-.075.575-.538.343-1.924,1.105-.382.344-.1.353-.009.53.093.52.055.576.223.567.074.559.223.985.111.818.149.594.093.678.195.632.027.455-.11.548-.214.733-.772.093-2.619-.019-.352-.084-.047-.148-.009-.279-.047-.372.084-.687.037-.456-.124-.307-.362-.1-.288.343-.242.344-.2.248-.39.418-.062-.2-.1-.372-.14-.325-.111-.456-.279-.083-.445.056-.688-.019-.074-.248-.492-1.681-.195-.446-.168-.446-.111-.5-.186-.446-.418-.52-.363-.325-.427-.13-.269.223-.343.186-.559-.083-.52-.056-.26.13-.019.353-.047.353-.047.372-.2.158h-.931l-.631.009-.632.019-.613-.009-.6.14-.408.093-2.416-.056-.009-.231v-.232l-.037-.54-.148-.325-.009-2.7-.14-.214-.26-.241-.093-.363.056-.408-.3-.232-.473-.037-.567.093-.381.195-.482.1-.307-.037-.762.062-.64.233-.372-.009-.4.062-.4-.186-.195-.158-.111-.2.009-.621.111-.223.13-.14.167-.093.242-.186.232-.167.112-.14.027-.2v-.242l-.223-.306-.334-.158-.435-.038h-.669l-1.31-.11-.362-.1-.435.028-.483.176-.418.029-.269-.343-.149-.456-.074-.325-.13-.418-.093-.454-.248-.919-.037-.269-.074-.353-.242-.316.037-.2.214-.269.139-.242.13-.408-.018-.335-.195-.2-.307-.362-.214-.288-.223-.335-.176.075-.062.259.056.3-.038.26-.213.26-.307.045-.539-.045-.594.018-.688.037-.186-.26-.287-.093-.492-.009-.874.019-1.366-.055-.482-.1-.248-.214-.306-.232-.2-.233-.166-.212-.4-.186-.325-.13.028-.846-.325-.231-.372-.344-.391-.241-.456-.2-.454-.289-.047-.306.065-.232.111-.334.111-.391.112-.39.056-.559-.009-1.078.018-.511.13-2.368.009-.53.474-.351,1.152-.112.715-.01.724.062.559-.027.66-.093.641-.084.409-.093.474-.176.195-.408.232-.687.261-.621.13-1.263-.149-.381-.224-.4-.241-.483-.167-.373-.027-.39-.047-.474-.121-.334-.139-.408-.084-.484-.112-.13-.242.01-.287-.353-.056-.168.019-.232.093-.2.248-.177.2-.111.241-.343.121-.343.093-.241.2-.344.248-.167.3-.2.12-.194-.13-.176-.139-.056-.259-.167-.345-.168-.344-.148-.427-.1-.147-.168-.14-.24-.062-.242-.084-.3-.12-.306-.1-.316-.363-.019-.381.065-.464.074-.242-.131-.307-.4-.362-.482-.836-.428.112-.78.158-.919.248-.334.214-.325.148-.435.062-.26.2-.567.335-.417.381-.891.14-.124.482-.148.362-.362.112-.409.139-.317.062-.343-.009-.381-.028-.335.019-.316.2-.287.343-.473.289-.14.335-.354.325-.222.529-.062.363-.176.074-.269.427-.13.278.26,6.9.055.409.056.325.166.213.4.214.223.13.585.344.269.176.483.019.248.13.4.352.278.3-.13.353-.194.474-.409.446.241.186.124,1.338-.428.52-.13.836-.214.325-.083.947.055,1.319-.009.214-.631-.094-.474-.2-.241-.381-.335-.037-.362-.259-.631-.1-.53.1-.854-.047-.538.062-.614.195-.475.062-.454.009-.621.279-.055.288.288.214.047.26-.242.241-.381.177-.446.13-.428.13-.268.233-.27.3-.343.149-.493.408-.559.6-.585.434-.186.585.065.335.269.316-.084.3.062.056.345.019.223.214.248.251-.074.129-.186.335-.325.335.232.381-.073.381-.159.26-.1.5-.168.362-.055.807.027.112-.575-.176-1.709.046-.269.214-.373.13-.186.158-.324.223-.2.223-.3-.074-.26-.232-.27.037-.277.325-.279.4-.112h.483l.12-.075.2-.194.139-.2.222-.177.595-.186.195-.029.426.047.345-.056.195-.074.13-.3.167-.279.242-.056.343.186.186.484.148.379.062.391-.047.363-.028.668.214.056.13-.233.047-.3.062-.455.13-.26.259-.084.248.13.124.186-.037.167-.13.288.111.231.168.13.167-.124.093-.222.214-.261.214-.046.037.2-.167.334-.047.248.315.14.186-.2.344-.259.279.176-.047.307-.344.176-.2.065.083.372.14.062h.307l.334-.046.3.139-.213.177-.372.1-.248.288.075.139.131.261.248.279.214.306.363.381.124,1.987-.066,1.82.855.2.761.39.288.26.269.13.26.093.074.307.037.446.148.13h.325l.6-.13.344-.019-.13.248.019.343.186.2v.4l.176.15-.027.242-.14.248-.046.279.2.3.26-.093.13-.3.13-.278.269-.223.065-.446-.019-.363.261-.3.576-.1.715-.037,1.207.111h.539l.512-.019h.621l.688-.037.621-.124.632-.223.576-.12.807-.028,1.04-.074.827.112.687-.01.613.037.483.112.39.12.4.047.585.124.373.12.446-.047.391-.241.373.38.408.139.892.279.678.248.492.306.325.38.464-.659.112-.317.177-.343.223-.362.268-.316.409-.223.224-.2.232-.26.446-.325.418-.3.474-.167.547-.2.66-.139.446.093.269.131.659.046.641-.028,1.04-.038,1.118-.055-.641.446-.315.4-.176.222-.186.3-.047.641-.046.186-.1.51-.1.734.418.957.1,2.489-.307.642-.214.353-.456.334-.009.464-.149.919-.075.186-.343.473-.344.26-.511.3-.093.985-.056.39-.111.5.019.5.232.621.492.947,1.087.548.529.139.585.083.474.456.13.576v.52l-.248,1-.093,1.375-.13.65-.13.3-.232.418.009.3.2.248.232.343.056.434.248.148.2-.232.362.046.019.3-.344.966-.248.39-.288.214-.242.269.093.818.056.232.074.344-.2.38-.372.176-.446.093-.493.124-.817.381-.65.176v.242l.047.559.307.419-.279.575-.074.288-.269.248-.435-.019-.92.027-.538-.1-.4-.214-.435.046-.39.214-.53.343-1.041.575-.389.248-.474.279-.559.316-.455.083-.641-.046-1.476-.093-1.839-.1.037,3.492-.307.381-1.552.055-.595.1-.892.492-.762.435-.874.325-.464.093-.214.269.149.232.325.288.232.363.047.343-.167.446-.538.576-.248.084-.26.12-.288.343.1.121.2.288-.074.278-.13.224.028.389.176.447.065.621-.186.075-.4.231-.075.248.149.434.213.4-.037.38" transform="translate(5921.34 -520.902)" fill="#7DB8EC" stroke="#fff" stroke-linecap="square" stroke-linejoin="bevel" stroke-width="1" fill-rule="evenodd"/>
    <text id="67" transform="translate(7091.325 982.241)" fill="#fff" font-size="13"  font-family="OpenSans-Bold, Open Sans" font-weight="700">
      <tspan x="0" y="0"></tspan>
    </text>
    <path id="talId26" data-name="26 Kavathe-Mahankal" title="Kavathe-Mahankal Taluka" d="M1205.518,1519.165l.037-.381-.214-.4-.149-.434.075-.248.4-.232.186-.075-.066-.621-.176-.446-.029-.39.13-.223.074-.279-.2-.287-.1-.121.288-.343.26-.124.248-.084.539-.576.168-.446-.047-.343-.233-.363-.325-.287-.148-.233.214-.269.464-.093.873-.326.762-.435.891-.492.594-.1,1.552-.055.307-.382-.037-3.491,1.839.1,1.477.093.641.046.455-.084.559-.316.474-.279.39-.248,1.041-.575.53-.344.389-.214.435-.046.4.214.538.1.919-.028.435.019.269-.251.075-.288.279-.575-.307-.418-.047-.559v-.241l.651-.176.817-.381.493-.12.444-.093.373-.176.2-.381-.074-.343-.056-.232-.094-.818.242-.27.288-.214.248-.391.344-.965-.019-.3-.363-.046-.2.232-.248-.149-.056-.435-.233-.344-.2-.248-.009-.3.232-.418.13-.3.13-.65.093-1.375.248-1v-.52l-.129-.575-.474-.455-.586-.084-.528-.14-1.087-.547-.492-.947-.233-.621-.018-.5.112-.5.055-.391.093-.984.511-.3.343-.26.344-.474.075-.186.148-.92.009-.465.456-.334.213-.353.307-.641-.1-2.49-.418-.957.1-.733.1-.512.047-.186.047-.641.288-.168.344-.325.307-.157.213-.029.195-.194.1-.112.381-.435.167.046.13.055-.111.335-.224.391-.12.279-.062.242v.195l.2-.028.248-.241.223-.248.166-.408.093-.2.288-.26.307.019h.139l-.083.195-.139.167-.124.139-.1.148.13.13.148.037.176-.213.15.027-.112.2.056.176.2.14.213-.248.019-.343.065-.251.2-.056.149.186.241.231-.149.39v.3l-.1.287-.5.261-.38.538-.242.316.075.12.408-.018.315-.075.233-.1.279-.084.1.1-.019.2-.027.223v.248l.12.381.112.248.242-.158.232-.427.186-.1.232.062.158.279.158.585.056.248.158.186.287-.232.233-.334.223-.223.3-.335.223-.316.325-.176.52.062.2.083.408-.019.269.037.065.223v.242l-.14.167-.278.037-.326.075-.335.13-.176.195-.055.214.148.176.248.166.223.158.427.139v.316l-.083.241-.186.213-.288.056-.4.158.037.084.269.028h.418l.158.149.1.186.093.138.084-.027.222-.124.186-.148.158-.317.14-.389.056-.233.176-.149.074.038.027.214-.047.248-.037.157.093.391.166.2.233.2.316.062.279.009.14.14.056.195.139.139.278.112.567.232.233.177.389-.047.316-.074.325-.084.316.019.111.158.074.232v.233l.028.584.547.009.521-.1.51-.2.511-.055.91-.083.548-.083.4-.074.362-.176.511-.307.78-.418.027-.372-.148-.39-.056-.279-.046-.464-.047-.559.278-.241.343-.12.233-.14.112-.186.027-.594-.1-.307-.632-.028-.288.046-.455.047-.325.027-.195-.139-.074-.315-.019-.362.186-.586.595-.009.287.009.325-.13.158-.241.233-.344.269-.13.316.055.139.242.062.287.177.112.372-.047.224-.1.39-.062.826.621.409.3.4.13.248.056.242.186.2.121.826.148.418-.111.3-.242.325-.408.186-.613.223-.427.316-.232.482-.2.484-.139.5-.1.65-.121,1.123-.26.559-.084.827-.213.214,1.681-.288.446-.473.464-.028.306.269.055.454-.062.391-.223.2-.062.307.334.483.334.418.26.279.427.445.093.381-.353.325-.232.3.047.277.381.214.324.325.828.288.64.167.427.248.186.5-.186.4-.176.53.093.435.223.435.418.177.417.073.353.093.248.124.214.334.186.79-.12.5-.335.669.13.613.372.52.427.177.418-.029.559.056.315.2.465.074.594.223.687.056.492.112,1.746.111.381.093.373-.325.446-.232.428-.242.5-.678.77-1.486,1.876-.9.771-.595.511-.408.381-.409.362-.483.317-.307.084-.669.027-.614-.019-.538.037-.418.13-.307.186-.1.427-.111.325-1.746-.019-.567.445-.715.4-.464.354-.474.39-.391.2-.993.14-.362-.037-.53.027-.474.158-.446.149-.27.148-.473.373-.248,1.523-.009.408.381.344.046.483.149,1.17.139.435.093.354.66.148.325.334.4.316.214.242.214.641.139.613-.062.408.062.391.167.5.474.679.186.864.316.567.325.455.669.38.465.074.678.093.269.2.745.52.047.752.261.307,1.049.158.585-.074.687-.261.911-.019.538.083.019.669-.093.595-.037.538v.6l-.176.484-.307.232-.483.112-.26.186-.807,1.031-.6.4-.4.279.037.733-.2,1.71-.083,1.048-.186,1.133-.248.66-.325.53-.157.352-.037.307.268.845.428.855.428,1.189.046.613.084.7.062.771-4.532-.492-1.664-1.226-2.87.074-2.607.232-.391.52.2,1.282-1.078.26-.259,1.309,1.142,1.068-.009.186-.149.26-1.281-.139-1.133-.856-.706-.435-.093-.688-.278-.4-1.013-.194-.641-.567-.576-.372-.789.028-.307.585-1.078.4-.335.316-.093,1.3-.2.621,4.151,3.678,2.323.177.112,1.142-4.728-.13-6.046.269-1.969.576-1-.111-.669.306-.6.2-.539.372-.529.2-.363.075-.54-.047-.621-.093-.567-.158-.594-.214-1.765-.3.167-.8-.111-.409-.166-.212-.391.092-.464.084-.716-.047-.613-.065-.4.177-.435.186-.455.018-.427-.176-.335-.3-.121-.279-.373-.093-1.041-.1-.455-.344-.372-.344-.6-.539-.13-.288-.056-.446.019-.287-.195-.427-.121-.14-.046-.372.027-.417.009-.363h-.334l-.307.232-.168.139-.248.124-.242.222-.112.248-.248.121-.3-.121-.194-.176-.39-.028-.26.559-.651-.019-.427-.224-.53-.248-.585-.288-.306-.222-.39-.084-.075.279-.381-.01-.287-.167-.511.019-.613.3-.567.093-.474-.019-.484-.037-.343-.066-.408-.333-.445-.046-.363.062-.363.1-.344.084-.148-.029-1.059-.148-.148-.149.158-.539.232-.434.325-.688.307-.492.176-.65.334-.586.2-.669.232-.965.093-.391.248-.279.455-.2.316-.13.248-.176-.01-.315-.223-.335-.195-.78-.621-.39-.418-.456-.232-.39-.261-.455-.2-.362-.214-.248-.613-.168-1.022-.157-.669-.112-.576-.028-.688-.062-.213-.26-.248-1.013.242-.464.325-.261.307-.307.435-.4.334.037.288.062.567.047.373.13.269-.1-.009-.883.343-.687.186-.427" transform="translate(5917.765 -521.954)" fill="#7DB8EC" stroke="#fff" stroke-linecap="square" stroke-linejoin="bevel" stroke-width="1" fill-rule="evenodd"/>
    <text id="26" data-name="Kavathe- Mahankal" transform="translate(7137.266 991.553)" fill="#fff" font-size="13"  font-family="OpenSans-Bold, Open Sans" font-weight="700">
      <tspan x="0" y="0"></tspan>
      <tspan x="0" y="8"></tspan>
    </text>
    <path id="talId27" data-name="27 Jat" title="Jat Taluka" d="M-7076.955-11427.905h0l-6.426-.362,1.552-6.157-3.834,1.468-3.215-.445-3.629-1.311-.5-4.346-1.1-.64-1.05-.612-.837-2.165-2.275-.047-1.605-.036-.028-.062-.373-.873-.993-2.33.214-2.722-.287-1.755-1.208-.371-1.18.621-.854-.241-2.256,1.671-2.768-.047-1.28.121-.486,1-.8.762-1.3.27-.9.92.177-2.163.336-1.014-.038-.231-.066-.771-.082-.7-.048-.613-.427-1.187-.426-.855-.27-.845.038-.307.158-.352.325-.529.248-.66.186-1.133.085-1.049.194-1.709-.038-.734.4-.277.6-.4.807-1.031.259-.187.482-.112.306-.23.176-.483v-.6l.04-.541.091-.592-.018-.67-.539-.084-.908.019-.688.262-.586.072-1.047-.156-.261-.306-.047-.754-.745-.52-.268-.193-.68-.094-.464-.074-.67-.381-.323-.456-.316-.565-.186-.865-.475-.677-.167-.5-.062-.391.063-.408-.141-.611-.212-.643-.215-.24-.4-.316-.327-.334-.658-.148-.093-.354-.139-.434-.148-1.17-.047-.484-.381-.343.009-.409.252-1.522.474-.372.268-.149.446-.147.475-.158.528-.028.362.038.994-.141.39-.2.475-.392.464-.353.715-.4.566-.445,1.746.018.111-.325.1-.426.311-.187.416-.129.539-.038.612.019.669-.027.311-.082.481-.316.409-.363.408-.381.595-.51.9-.771,1.485-1.876.678-.771.242-.5.232-.427.325-.446-.094-.371-.111-.383-.111-1.745-.056-.492-.223-.687-.073-.595-.205-.465-.056-.315.026-.559-.177-.418-.519-.426-.612-.373-.669-.131-.5.334-.79.125-.334-.187-.121-.214-.093-.249-.074-.354-.176-.416-.435-.419-.435-.224-.53-.093-.4.178-.5.187-.251-.187-.165-.427-.29-.643-.323-.826-.214-.323-.278-.383-.3-.046-.325.232-.382.353-.445-.092-.278-.427-.416-.262-.483-.334-.308-.334-.205.066-.388.221-.457.066-.269-.057.028-.306.473-.466.289-.443-.214-1.682.39-.65.223-.613.39-1.031.187-.584.038-.334.223-.178.408.029.392.037.324.036,2.154.14.687.019h.435l.27-.278.158-.149,1.727.085,1.589.037.706.258.909.039.79-.027,1.17.268.334.084.231-.223.063-.482-.1-.56-.193-.5-.131-.938.12-.763.187-.416.361-1.031.315-.223.492-.047h.316l.287-.111.186-.149.215-.36.688-.01.306.074.205.251.223.1.187-.073.2.073.121.111.12.111-.036.187-.093.194-.047.149.1.158.3.138.39.057.278-.057.243-.061.26.073.2.056.38.113h.419l.241.036.39.065.315-.057.613-.121.642-.158.435-.119.5.073.352.2.344.213.311.038.361-.058.482-.129.4-.158.466-.1h.287l.845-.009.864.2.362.056.631.062.492.168.733.12h.677l.651.149.826.213.4.018.261.158.194.13.124.111.278-.054.167-.2.139-.566.279-.311.223-.231.435-.595.606-.807.146-.408.093-.418.168-.465.129-.518.084-.493.063-.513.082-.287.029-.287.026-.252.279-.148.326-.147.361-.12.771-.074.373-.027.148.147-.062.232-.019.325v.268l.1.225.281.231.231.073.352.076.382.082.893.223.221.168.157.242.2.2.223.141.287.093.373.11.574.289.223.12.456-.047.408-.073.52-.1h.668l1.172-.343.473-.047.27.084.085.268-.021.205-.111.232-.092.222-.066.167-.343.621-.27.648-.382.511-.27.466.094.762-.076.677.076.79-.019.594-.011.311.028.287.168.2.02.392-.058.361-.082.233-.111.277-.4.548-.361.214-.454.2-.539.121-.4-.062-.492.094-.157.156-.205.13-.379.187-.621.52-.353.566-.278.334-.085.26-.193.409-.021.241.085.334.223.372.539.716.26.428.063.343.216.4.186.3.288.141.3.111.392.119.416.125,1.161.306.874.073.882.047.771-.187.7-.167.661-.223.38-.094.614-.037.834-.074.383-.035.177.072.009.3-.062.436.158.139.167.112.1.187.047.5-.047,1-.062.932.062.855.036,1.133.056.881.058.484-.011.231.129.066.345-.02.483-.027h1.067l.686.11.808.223.492.166.647.012.475-.205.353-.512.315-.745.205-.956v-1.012l.3-.855.362-.379.091-.289-.062-.353-.279-.466-.3-.454-.334-.539-.289-.4-.229-.251-.251-.249-.249-.269-.445-.335-.733-.559-.372-.455-.232-.261-.27-.39-.287-.891.251-1.207.231-1.1.5-.931.362-.429.928-.278.706-.047.7-.056.475-.073.918-.232,1.5-.324.844-.057.475.141.408.062.454.062.28-.02.279-.072.3-.271.141-.559.108-.745.085-.956.149-.782.14-.416.139-.13.483.045,1.245.261,1.141-.062.909.026.946.074.642.076.52.055.214.3.334.762.2.559.261,1.515.009,1.105.363.612v.528l-.141.354-.39.539.027,2-.01.678.028.408.112.093.3-.085.308-.129.325-.093.566.019.669.141.966.112-.088.091a2.127,2.127,0,0,1-.62.912,4.175,4.175,0,0,1-2.911.912,2.341,2.341,0,0,0-1.862.754,4.2,4.2,0,0,0-.659,2.893l-.007.012c-.138.236-.841,1.438-1.12,1.891-.3.5-1.693,2.311-1.707,2.328a1.115,1.115,0,0,0-.334,1.02c.2.578,1.14.953,2.794,1.114a1.4,1.4,0,0,1,1.006.5,3.19,3.19,0,0,1,.1,2.274,4.572,4.572,0,0,0-.073,1.932c.459,1.481,4.307,5.342,4.346,5.381l4.551,5.484h.006a25.076,25.076,0,0,0,4.91,2.221c.7.107.94.832,1.022,1.422a5.513,5.513,0,0,1,.013,1.269,1.024,1.024,0,0,0,.066.911c.358.565,1.309.852,2.823.852.089,0,.186,0,.317,0h.187c.807,0,1.241.145,1.29.431.085.521-1.11,1.349-1.83,1.8a17.27,17.27,0,0,1-3.167,1.551c-1.122.373-1.428,2.143-1.489,3.557a18.828,18.828,0,0,0,.143,3.014,2.689,2.689,0,0,0,.485,1.321l-.407.264-6.741-2.721-4.818,1.9-1.56,1.811-3.229,1.246-1.255.045-3.446.12-7.085.251-.817,4.7.993,4.407,1.226,1.747-1.141,4.595-3.429,3.678-5.551-.864-2.016,5Z" transform="translate(14291.968 12457.413)" fill="#7DB8EC" stroke="#fff" stroke-linecap="square" stroke-linejoin="bevel" stroke-width="1"/>
    <text id="27" transform="translate(7208.66 985.587)" fill="#fff" font-size="13" font-family="OpenSans-Bold, Open Sans" font-weight="700">
      <tspan x="0" y="0"></tspan>
    </text>
    <path id="talId8" data-name="8 Miraj" title="Miraj Taluka" d="M1162.823,1527.4l.112.2.194.158.4.186.4-.062.372.009.64-.233.762-.062.306.037.483-.1.381-.194.567-.093.474.037.3.231-.056.409.093.363.259.242.139.212.01,2.7.149.325.037.54v.232l.009.232,2.415.056.408-.093.6-.138.613.009.632-.019.631-.009h.931l.2-.158.047-.373.046-.353.019-.353.261-.129.52.056.559.083.344-.186.269-.223.427.13.363.325.418.52.186.446.111.5.168.446.194.446.493,1.681.074.248.687.019.446-.055.279.083.112.456.139.325.1.373.062.194.389-.418.2-.248.242-.343.288-.344.362.1.121.307-.037.455-.084.688.047.372.01.277.046.149.354.084,2.619.019.772-.093.213-.733.111-.548-.028-.456-.2-.631-.092-.678-.149-.595-.111-.817-.224-.985-.074-.559-.223-.567-.056-.575-.093-.52.009-.529.1-.353.381-.344,1.925-1.105.539-.343.075-.577-.289-1.765.047-.789.456-.483.464-.037.539-.009.7-.223.641-.214,1.524-.492.892-.148.947-.019,1.031.083,1.124.056.854-.112.511-.195.4-.186.446-.13.5.01.381.009.325-.027-.186.427-.343.687.009.883-.269.1-.373-.13-.566-.047-.288-.062-.335-.037-.434.4-.306.307-.325.26-.241.465.248,1.013.214.26.687.065.576.028.669.111,1.022.158.613.167.214.248.2.362.26.456.232.389.418.455.621.391.2.78.223.335.009.316-.248.176-.315.13-.456.195-.248.279-.093.391-.233.967-.2.668-.333.585-.176.65-.307.492-.325.688-.232.434-.158.539.149.148,1.055.15.149.028.343-.084.363-.1.363-.062.446.046.409.333.343.065.484.037.473.019.567-.093.613-.3.511-.018.288.167.381.01.074-.279.39.083.307.224.585.287.53.248.428.223.649.019.261-.559.39.029.195.176.3.121.248-.121.112-.248.242-.222.251-.124.167-.14.306-.232h.335l-.009.363-.028.418.047.372.12.139.2.428-.019.287.056.447.13.287.6.54.372.343.456.344,1.041.1.372.093.12.279.335.3.428.176.455-.019.434-.186.4-.177.613.062.716.046.464-.083.39-.093.167.214.111.409-.167.8,1.766.3.594.214.566.158.621.093.539.047.362-.074.529-.2.539-.373.6-.2.67-.307,1,.111,1.97-.576,6.046-.269,4.729.13.752.037.214-.631.372-.52.2.5-.01,1.31-.037,4.616-4.839.269-.53,1.477-6.437,1.756,1.338,6.873.343,6.223.093,2.182,2.024,3.465-14.183-.056-1,2.173-8.945,1.589-5.044.641-7.7,6.771-8.665.223-.019-.168.2-.316.771-1.012.279-.595.435-.79.029-.224-.1-.362-.223-.353-.53-.353-1.291-.613-.854-.26-1.04-.307-.883-.484-.938-.343-.566-.248-.6-.093-1.152-.26-.362-.074-.854-.12-.595-.124-.434-.139-.539-.325-.269-.705.018-.53-.037-.427-.037-1.925-.056-.344-.306-.492-1.3-1.068-.232-.326-.242-.5-.2-.361-.39-.41-1.691-.621-.548-.334-.484-.251-.678-.408-.836-.492-.6-.353-.687-.2-.651-.168-1.16-.12-.883.009-.7.1-1.941-.232-1.653-.409-.828-.269-.324-.2-.158-.26-.056-.3-.062-.325-.019-.333.037-.3.009-.434-.13-.529-.363-.938-.186-.232-.241-.213-.362-.3-.363-.3-.456-.391-.3-.39-.521-.836-.2-.324-.381-.464-.559-.492-.539-.613-.222-.13h-.139l-.139-.019-.186.028-.335.062h-.186l-.158-.046-.241-.074-.14-.074-.195-.223-.353-.455-.074-.111-.093-.121-.195-.121-.168-.074-.139-.056-.139-.056-.177-.027v-.047l-.074-.1-.062-.1.009-.12.028-.177.037-.167v-.112l-.01-.177-.009-.158-.066-.1-.167-.037-.158.037-.269.3-.214.492-.13.511.009.269.019.39.037.576.01.195.036.261.13.279.083.139-.017.168-.019.083-.111.093-.12.083-.2.112-.344.14-.363.242-.417.315-.474.223-.289.158-.111.14-.029.177-.018.194-.009.149-.037.124-.093.1-.166.056-.224.009-.248-.084-.317-.455-.083-.242-.084-.5-.12-.584-.195-.771-.027-.892.073-.26.112-.287.261-.483.062-.269.037-.26-.158-.594-.12-.159-.242-.176-.3-.186-.559.009-.149.019-.167.018-.176-.018-.138-.1-.149-.124-.112-.278-.186-.362-.065-.083-.093-.093-.167-.158-.51-.316-.464-.121-.316-.112-.316-.093-.381-.093-.214.029-.195.056-.167.083-.2.176-.148.316-.1.484v.306l-.176.38-.6.669-.363.372-.248.409-.373.2-.233.028-.214.009-.158-.055-.214-.1-.222-.084-.307-.019-.54.176-.259.167-.242.084-.3.055-.233.01-.344-.037-.352-.01h-.242l-.261.047-.241.1-.242.241-.158.176-.083.062-.168.065-.176-.009-.186-.009-.177.009-.12.055-.084.1-.269.233-.482.287-.251.084-.2.083-.233.019-.4-.009-.326-.01-.148-.018-.248-.029-.248-.027-.167-.084-.3-.12-.435-.112-.223-.13-.435-.288-.288-.455-.124-.148-.056-.124v-.083l.019-.112.14-.26.352-.559.1-.334.12-.307.223-.428.12-.12.112-.093.12-.047.214-.093.149-.1.186-.214.028-.316.01-.242.093-.13.129-.167.029-.129.027-.14-.037-.288-.093-.594-.019-.093.01-.075.009-.062.037-.074.084-.112.009-.046.009-.093-.009-.084-.009-.056-.028-.047-.019-.056-.047-.062-.074-.056-.083-.065-.11-.037-.124-.019-.279.009-.418.168-.418.334-.434.177-.4-.124-.223-.353-.093-.27.195-.223.13-.2-.084-.242-.158-.037.056-.248.093-.214.2-.566-.2-.233.028-.269.1-1.607v-.408l.028-.39-.112-.483-.158-.919.53.056.492.112.621.018.668-.074,1.264-.075,1.207-.124.965-.223,1.208.047,1.086-.037,1.97.13.677-.047,1.152-.055-.028-.762.056-1.171.046-.882.325-.576-.12-1.117.195-.539.724-.492,1.118-.372h1.021l.845.121.957.019,1.458.124.5.111.51.093.641.27.483.326.242.176.418.111.093-.2-.009-.269.112-.242.14-.195.093-.168.167-.223.083-.177.084-.248.056-.223.111-.261.1-.214.158-.223.287-.4.26-.223.233-.177.287-.047h.248l.27.019.158.062.269.214.13.037.186-.046.177-.121.111-.2.121-.166.14-.233.046-.176-.009-.2-.084-.248-.037-.2.009-.26.075-.186.248-.435.009-.316-.084-.278.233-.4.325-.306.373-.148.335.027.248.112.248.074.213-.009.251-.12.278-.084.651-.288.771-.53.52-.389.575-.372.195-.158.14-.2.092-.241" transform="translate(5922.523 -525.288)" fill="#7DB8EC" stroke="#fff" stroke-linecap="square" stroke-linejoin="bevel" stroke-width="1" fill-rule="evenodd"/>
    <text id="8" transform="translate(7106.225 1031.286)" fill="#fff" font-size="13"  font-family="OpenSans-Bold, Open Sans" font-weight="700">
      <tspan x="0" y="0"></tspan>
    </text>
    <path id="talId65" data-name="65 Khanapur-Vita" title="Khanapur-Vita Taluka" d="M1221.375,1471.965l-1.117.055-1.04.037-.641.028-.659-.047-.27-.131-.446-.093-.659.14-.547.2-.474.167-.418.3-.446.325-.232.261-.223.2-.408.223-.27.315-.222.363-.177.344-.112.317-.464.659-.325-.381-.492-.306-.679-.248-.891-.279-.409-.14-.372-.38-.39.242-.447.046-.372-.124-.585-.12-.4-.047-.39-.12-.483-.112-.614-.036-.687.009-.826-.112-1.041.074-.807.028-.576.121-.632.222-.621.12-.687.037h-.621l-.51.019h-.54l-1.208-.112-.715.037-.576.1-.261.3.019.363-.065.444-.27.224-.13.279-.13.3-.26.093-.195-.3.046-.278.14-.248.028-.242-.176-.148v-.4l-.186-.2-.019-.343.13-.248-.344.019-.6.129h-.325l-.148-.129-.037-.446-.074-.307-.26-.093-.269-.13-.288-.261-.762-.389-.855-.2.066-1.821-.124-1.987-.363-.381-.214-.307-.248-.277-.13-.26-.074-.14.248-.288.372-.1.214-.177-.3-.139-.334.046h-.307l-.139-.062-.084-.373.2-.062.344-.176.047-.307-.279-.177-.343.26-.186.2-.316-.14.047-.248.166-.335-.037-.2-.213.047-.214.259-.093.223-.167.121-.168-.13-.111-.233.13-.287.037-.168-.12-.186-.248-.13-.26.084-.129.26-.065.455-.047.3-.13.232-.214-.055.029-.669.046-.362-.065-.391-.148-.381-.186-.482-.344-.186-.24.056-.167.279-.13.3-.2.075-.343.055-.427-.046-.195.027-.595.186-.223.176-.14.2-.194.2-.121.075h-.484l-.4.112-.325.277-.037.279.233.269.073.26-.223.3-.223.194-.158.325-.13.186-.214.372-.047.269.176,1.708-.111.576-.807-.028-.363.056-.5.167-.259.1-.381.158-.381.074-.334-.232-.335.325-.13.186-.248.075-.214-.248-.019-.224-.056-.343-.3-.065-.316.084-.335-.269-.586-.066-.435.186-.6.585-.409.559-.148.493-.3.343-.233.269-.13.269-.13.427-.177.446-.242.381-.259.241-.214-.047-.289-.288-.278.056-.009.621-.062.455-.195.474-.065.612.047.539-.1.855.1.53.26.631.037.363.381.334.2.241.093.473-.214.632-1.319.009-.947-.056-.325.084-.836.214-.52.13-1.337.427-.186-.12-.446-.241-.474.408-.353.2-.3.13-.353-.279-.13-.4-.018-.248-.177-.484-.344-.269-.13-.585-.214-.223-.214-.4-.325-.167-.408-.056-6.9-.056-.279-.26-.427.129-.075.269-.363.176-.53.065-.324.223-.334.353-.288.14-.344.473-.194.288-.019.316.028.334.009.381-.062.344-.139.316-.112.408-.362.363-.483.148-.14.121-.38.891-.335.418-.2.566-.065.261-.148.435-.213.325-.248.333-.158.92-.112.78-.474-.018-.269-.029-.176-.009-.2-.158-.055-.158.009-.242.01-.233-.047-.325-.093-.248-.214-.335-.139-.287-.148-.335-.149-.4-.176-.233-.279-.2-.353-.214-.353-.233-.733-.484-.492-.195-.454.661-.148,1.328-.446,1.161-.931,1.077-1.124.186-1.012.409-.807-.186-1.439-.891-1.366-.846-1.783-.641-.288-.148-.864-.214-.454-.14-.651-.353-.223-.409.446-.873.391-.168.463-.129.549-.084h.464l.464-.055.427-.065.3-.13.213-.26.26-.391.317-.427.38-.372.631-.408.79-.567.641-.678-.214-.093-.223-.1-.223-.01-.194.037-.409.047-.13-.074-.2-.149-.084-.148-.074-.13-.111-.214-.12-.2-.177-.224-.037-.435-.019-1.2-.019-.435v-.353l.074-.807-.111-.381.1-.511.223-.78v-.585l.009-.353-.046-.418-.121-.335-.269-.547-.075-.836-.223-.435-.2-.39-.13-.344-.186-.248-.214-.317-.124-.315.093-.745.52-.248.4-.158,1.533-.651.835-.52.492-.129.715-.176.483-.27.26-.446.418-.77,1.254-1.57.427-.12.464-.009.78-.363,1.309-.9.6-.483.641-.408.641-.474.669-.455.4-.6.372-1-2.091.009-.214-.279-.017-.391-.009-.455-.233-.279-.334-.409-.585-.446-1.049-.576-1.895-.919-.492-.232-.613-.279-.52-.269-.493-.353-.288-.435-.148-.957.2-.464.373-.335.446-.353.669-.5.381-.418.548-.391.4-.158.269-.157.511-.856.483-1.031.093-.307.047-.2.316-.186.345-.176.214-.344.213-.52.334-.492.288-.428.316-.585.047-.966.065-.2.138-.4-.009-.325-.047-.353-.158-.373-.139-.4-.186-.446-.168-.41-.248-.621-.335-.715-.315-1.468-.084-.186-.093-.168-.14-.248.019-.6.111-.434.074-.2.215.084.538.363,1.942.408,1.792.435.5.065.434-.325.7-.911.176-.52.706-.372.427-.548.836-.576.538-.659.419-.344.362-.176.288-.139.074-.427-.037-.632-.009-.307.53-.427.362-.27.373-.669.688-.4,1.5-.056,1.133-.056.594.241.939.176.4.158h.9l.9-.009.91.11.279.2.53.353.278.066.53.195.6.242.51.046.232-.111-.083-.39-.111-.492-.01-.724-.047-.781.065-.51.232-.576.307-.826.307-.418.306-.465.065-.372.158-.976-.019-.391.613-.4.79.062.585.149.993.372.158.771.176.576.248.343.39.335.474.456.3.473.51,1.106.242.745.427.446.427.491.248.883.288,1.17.1.818.028.679,1.242-.168.483.427.464.3.409-.028.8-.613,1.263.177,1.1.248.435.195,1.162.418.6.566.585.492.492.474.362-.2.585-.177,1.143-.362.483-.186.232-.139.326.167.186.112.222.158.14.112-.158.149.074.1.186.065.019.111-.232.047-.13.046-.112.112-.009.037.083.1.1.017.186.037.112-.083.084-.027h.372l.111.056.195-.01.111-.019h.13l.223-.027.056-.074.074.055.112.065.176.019.075-.037.1-.083.066-.124.083-.027.094.075-.046.13-.037.13-.019.093-.009.074.028.056.139.12.176.047.047.111-.037.111-.074.056-.13-.019-.093-.074-.1-.047-.1-.009-.056-.037-.037-.112-.055-.074-.084-.047-.111-.018-.074.062-.01.112-.195-.065-.2-.056-.111.037-.019.074.01.093.055.083.028.093-.018.214-.065.111-.12.062h-.093l-.065-.019-.046-.028-.062-.083-.047-.019-.056.093-.019.093-.028.046-.093-.01-.248-.037-.13-.062-.158-.009.047.074.074.046.062.065.168.073.065.057.083.093.158.028.037.018.2.01.13.055-.093.093-.112.066-.13.083-.129.062-.261.056-.074.028.046.055.074.047.112.01.149.018.083.037.074.075-.047.177.009.062.1-.019.124-.028.1-.037.074-.084.062-.083.214-.028.158-.112.083-.062.148-.028.056.1.056.084.093.01.083-.084.066-.066.158-.12.176-.065.111.037.009.083-.028.094-.037.046-.01.093-.009.335-.029.1-.083.047-.065-.093-.111-.111-.223-.037h-.158l-.26-.009-.334.018-.075.074-.083.093-.037.083.062.056.148-.084.037.028-.075.111-.037.074.029.056.158-.037.093-.065-.3.261-.287.009-.224.019-.075.214.158.121.1.018.2.112.062.139-.037.149-.242.062-.269.018-.167.084-.1.111-.083.112.112.176.4.149.417.13.2.062.056.158-.047.111-.019.12.269.029.248-.038.112.093.056.13.223.037.2.075.055.1-.037.1-.186.029-.149.1-.139-.029-.13-.12-.158-.112-.2-.019-.084.1.112.12.168.335.055.176.084.158.055.14.055.12.047.1.083.055.158.2.278.139.1.028-.019.12v.2l.066.167.139.062-.046.121-.029.1.14.112.111.1.009.083-.111.048-.074.055.009.1-.037.158.046.093.168-.018.149.047.019.074.214-.166.214.037.222-.158.075-.248.1-.037.186.056.074.2.12.269-.062.2-.148.13-.251.111-.194.009-.029.139.062.065.186.009.13.037-.037.13-.167.037-.12.028-.093.074.074.084.167.009.13.075-.019.167-.12.074-.1.046.036.1-.009.2-.111.055-.062-.009-.046.046.093.056.027.13.093-.028.075-.223.139-.027.083.111.14.037-.074-.148-.047-.037-.019-.083.074-.176.112-.13.1-.046.1.121.084.13.056.129.056.139.056.1.149.139.009-.13-.111-.2-.062-.2-.029-.13v-.177l-.027-.093-.047-.084.019-.062v-.056l-.019-.075.056-.168.1-.232h.074l.1.074.158.046.176.224.029.176.037.186.12.177.093-.167-.046-.261-.056-.269-.029-.186v-.166l.056-.149.093-.074.074.112v.166l.062.139.111.093.029.2.027.186.074.075.074.084.12.325.13.148.029-.195-.074-.27-.028-.214-.13-.26.009-.213.083-.062.084.2.056.1.213.232.037-.176.047-.13.121-.018.176.158.047.037.074-.009v-.112l-.009-.158.027-.158-.027-.195.074-.093.121.093.148.062.065.066.056-.158-.037-.093-.037-.13.083-.084.121-.018.037-.093-.307-.083-.111-.149-.065-.075.084-.112.176-.01.2-.027.139-.019.176-.062.037-.138-.083-.12-.084-.046-.074-.074-.037-.056-.009-.112.037-.168.074.111.083.14.1.055.186.019.139.037.353.12.047-.214-.158-.046.009-.13.037-.062-.009-.139.037-.149.065-.158-.065-.112-.13-.009-.2-.009-.233-.047-.074-.111.093-.083.139-.028.093-.084-.019-.139-.065-.14-.027-.158-.084-.158-.149-.066-.121-.056.019-.214.093-.056.047.1.074.149.111.093.186.037.1.056.056.149.065.2.037.121.1-.01.13.093.056.1.027.158.037.11.047.3.1.195.111.149.062.083.047.124-.037.167-.074.093-.222-.111-.177.093-.093.129-.046.186-.214.093-.1.1-.084.12-.13.124-.149.083-.176.345.037.158-.1.12.009.037h.083l.186-.083h.084v.1l-.037.148-.074.1-.037.112.112.028.186-.1.149-.084.149-.062.139-.047.168-.056.13-.027h.074v.2l-.148.029-.124.12.084.046.074.046-.074.037-.13-.01-.111-.055-.139-.056-.1.084-.083.062-.009.1.019.075-.14.1-.177.12-.148.056-.194.062V1446h.3l.248-.046.248-.084.214-.084.13.037-.037.1v.14l.046.074.112-.009.084.074-.186.046-.084.038-.167.055-.112-.084-.124.019-.055.149-.062.12-.124.1-.062.028-.1.056-.149.046-.129.056-.019.037.036.028h.158l.186-.056.168-.037.124-.028.13-.046-.056.092-.158.075-.124.167-.056.074-.056.093.233-.074.186-.093.12-.074.13-.12.139-.075.214-.1.018.062-.062.093-.083.065.056.055.092.056.2.1-.084.12-.157.158-.084.112-.121.009-.139-.019-.028.083.074.1-.139.084-.112.074-.074.057-.1.037-.093.009-.019.074.12.046.269-.111.158-.093.1-.037.124-.056-.037.121-.019.093-.037.093h.047l.2-.075.176-.214.325-.093.074.2.288-.326.037-.2.065-.139.139-.2.214.056.056.14.046.083v.186l.019.186.018.12.14.047.139-.056.056-.093.093-.352.112-.176.062-.158.112-.13.074-.093.056-.009.093.047.028.176-.046.13-.019.148-.01.084.047.195-.047.158-.074.12-.062.186.056.177-.037.1-.12.186-.019.139.01.138.056.124.028.062.1-.194.084-.2.13-.168.073-.112.111-.148.233-.1-.056.223-.062.26-.074.167v.084l.186-.037.1-.047.12.12.047.112.018.12-.055.148.074.084.177-.13.046-.124-.01-.158.094-.2.027-.055.1-.242.1-.056.084.186-.046.186-.028.129.028.1.083.056.176-.176.168-.01.13.1.12-.074-.074-.157.019-.084.055.075.084.075.121-.062.1-.214.093-.176.037-.223.046-.186.075.131-.037.214-.019.214-.037.139v.1l.14-.046.056.083.062.047h.129l.13.074.009.046.13.1-.168.112-.2-.009-.148.062-.093.074-.14.056-.111.028-.084.062v.158l-.13-.062-.149-.009-.124.093.009.056.056.084-.074.13-.112-.027-.047-.028-.056.13.056.074.112.037.325.074.093.073.177.009.176.01.186.037.018.1-.009.1-.12.046-.223-.065-.084.094-.111-.009-.112-.074-.083-.009-.019.112.028.094-.084.027-.139-.037-.13-.1-.177-.094-.111-.018-.074-.01-.074.019-.056.037-.158.084v.074l-.092.124-.019.093.14.062.186.075.1.062.112.037.045.056-.019.093.047.074.214.062.1.075.065.13-.112.047-.2-.047-.213-.084-.259-.055-.113.083-.214-.055-.168-.056-.148-.037-.353-.074-.186.036-.1.066-.056.074h.248l.176.035.1.047-.083.121-.148.047-.111.092-.047.093.074.056.3-.056.13-.019.2-.017.317.062.177.1-.124.13-.084.112.037.1.149-.027.083.1v.121l-.083.056-.167-.028-.124-.01-.149.019-.222.056-.047.074.2.1.315.009.2.037.13-.027.242-.019.232.056-.139.149-.306-.009-.139.009-.177.047-.195.037-.093.12-.2.037-.11.01-.27-.047-.121.062.13.065.111.027.037.1-.139.062.037.046.148-.083.14-.074.062.019.062.1.065.057.158-.075.139-.075.112.056.224-.037.13-.019.176.047.047.13-.213.195-.056.13-.168.13-.158.074-.307.074-.083.055.062.074.176.019.037.112-.019.093-.037.062-.065.047-.062.056-.028.075-.121.307v.13l.139.074.112-.13.094-.177.074-.074.093-.1.029-.084v-.148l.177-.186.124-.055.417-.242.176-.277.13-.224.121-.139.176-.214.112.186-.038.186.093.065.362.027.362.074.168.047.381-.019.334-.13.149.027-.111.13-.13.047-.1.037-.168.084-.093.12-.373.083-.3.047-.158.037-.248.009-.065.066v.325l-.093.037-.307.019-.167.028-.158.037-.055.1.083.124.019.1-.075.074-.13.248.149-.019.177-.12.158-.093.167.037.124.065.009.073-.139.084-.084.083-.037.074.112.062.084-.019.269-.062.018.112-.111.158-.13.158.037.065.176-.028.148-.093.1-.14.074-.26.084-.084.269-.186.2-.065.344-.084.158-.111.083.1-.092.186-.047.195.037.139-.139.233-.186.055-.14.028-.019.121-.028.112.057.214.009.1-.112.062-.353.047-.223.166-.157.158-.223.158-.139.047-.418.009-.112-.112-.158-.074-.2.009-.12.1-.062.12.055.094-.037.194-.047.1.435.223.028.166-.084.1-.062.084.093.121.315-.047.139.047.056.13.065.083.093.01.176.093.242.131.11.157.124.111.158.177.2-.074.093.093-.112.083-.074.056.062.074.121.074.028.112v.074l-.261.083-.242.12-.139.1-.158.062-.13.046-.093.047-.124.062-.139.056v.112l.055.062.112.2.233.14.213.074.158.009.047-.13-.074-.12-.019-.111.062.056.1.1.094-.093-.065-.158v-.1l.149.1.037.13.065.148.148.1.112.083-.028.158.093.056.13.065.13-.121.1-.009.01.075-.019.149h.176l.214.009.037.149-.046.158-.065.176-.019.124.158.046h.13l.13.074.037.111-.074.084-.111.093-.186.037-.214.028-.056.093.14.074h.12l.084.124.037.084.029.1-.029.062-.073.028-.084.046v.112l-.046.148-.037.083-.019.093.149.26.176.074.224-.158.083-.047.093-.027.019.139v.112l-.028.372-.177.669h.139l.279.121.12.093.062.158.047-.112-.028-.093-.019-.158.074-.056.046-.037v-.056l-.028-.046-.028-.055v-.093l.065-.075.046-.019.084-.083.124.009.13-.018.037-.075.037-.148.037-.093.084-.056.047-.055.093-.12.056-.065h.066l.073.047.056.037.093-.065.028-.112-.019-.112.029-.148.028-.139-.037-.084-.062.047v-.121l.029-.084h-.065l-.019-.093.019-.056-.019-.158.112.047.046.066.019.055.037.075.1.093v.056h.056l.083-.018.056-.019.074.075.084.1-.047.092.12.12.149.028.084.074.084-.037.083-.028.112-.074.149-.055.157-.055.056-.1.009-.1-.027-.093-.074-.009-.083-.037-.056-.037-.084-.1-.019-.084.062-.056.121.019.074-.009.046-.066-.009-.168-.186-.084.062-.084.056-.018.028-.047-.009-.1h-.1l-.093-.019-.1-.027-.074.018.009-.186-.037-.093-.148.028-.139-.009-.037-.028.1-.1.111-.009.1-.037.248.019.037.13.084.1.12.047.083.017h.047l.111-.083.124-.037.083.075.056.037.056.074-.009.093.009.158-.062.1h.1l.075-.047.055-.056.056.056.083.019.01.084.062.037.056-.018.018-.121.029-.112-.019-.13.047-.11.037.11.018.066.139-.047.062.074.028.1-.019.083-.019.148.074.029h.093l-.01.168-.037.13.028.13.056.074.062.047.139.074v.13l.009.167-.018.112-.074.074-.093.046-.186.14-.139.036-.062.029-.01.093.019.047v.047l.065.009h.12l.232-.046.12.027.047.074-.01.075-.037.083-.037.084.01.056.1.056.037.037.019.084-.019.062-.027.036.093.158.019.074.1.019.093.037.046.01.12-.084.056-.074.075-.13.037-.084.01-.157.093-.13.111-.074.062-.01.074.056.062.074.009.074v.066l-.009.075h.062l-.019.062-.028.055.009.074.1.019.093-.01.055.019.074-.084.028-.062.1.037.047.056v.074l-.056.307.009.148.2-.028.037-.1.139.074.047.186.056.13.046-.14-.009-.158.036-.26.062-.121.148-.01.14.065.056.14.037.149.1.139.093.047.177.111.019.055.062-.241-.046-.149-.084-.2-.167-.408-.232-.158-.279-.158-.248-.13-.158-.093-.093-.112.046-.158-.009-.13-.186-.121-.018-.13.111-.056.242.047.139.14.083.158.093.214.14.093.12-.112.056-.158.093-.055.083.195.047.12.084.057.148-.14.093-.093.167.019.009.139-.019.112.047.084.093-.01.056.13v.168l.092-.009.12-.2.056-.177.065-.158.167-.066.12.149.1.075.167.066.13.055.028.176.009.168-.037.129.037.121.12.047.176-.112.13-.062.093.009.148.195-.1.195-.037.186.065.241-.176.307-.2-.009.019.26-.242.124-.158.167-.009.157.233.066.362-.056.195-.019.167-.093.084-.158.037-.158.112-.074.288-.333.248-.307.176-.1.2-.093.139-.167.124-.214.167-.222.3-.344.214-.019-.074.223-.362.408-.195.223-.112.2-.12.2.027.223.084.214-.062.176.112.315-.028.2-.2.418-.222.12-.679.2-.167.158-.084.13.065.111.288-.093.166-.074.177.019.1.056.028.139.018.13.075.242.056.13.186-.074.037-.223-.028-.242-.009-.195.186-.168.148-.062.177-.13.353-.279.2-.13.186-.093.344-.3-.01.15-.046.186-.084.13-.112.1-.1.084-.084.083-.084.13.056.074.2-.062.13.009.062.083.093.149.055.149.037.056.093-.232.019-.149.12-.148.149-.139.186-.056.12-.065.112-.214.13-.093.13.056v.112l-.1.575-.084.139v.186l.037.148-.01.121-.13.261.009.195-.018.177.009.165.148.056.261-.037.166.1-.009.288.2-.046.148-.223.14-.214.009-.2.019-.195.074-.372-.055-.335.062-.2.13-.139.167-.1.075-.047.12-.056.083.1-.028.13-.037.148.019.12.075.1-.075.176.056.093.158-.018.149.084.149-.223v-.168l.084-.214.037-.074.056-.24.009-.242.11-.019.168-.158.047-.2-.019-.13-.056-.14.2-.009.13.018.084-.027.158-.168.1-.186.093.019.028.139.062.186.176.241.334-.046.177-.009.1.093.139.083.139-.027.121-.186.14-.158.158-.019.213.075.093.083.1.124.186.046.158.028h.158l.093-.186-.093-.124-.083-.121.083-.1.186.054.12-.092.084-.14.074-.195.055-.158.269-.269-.056-.248-.158-.093-.316-.111-.055-.177-.027-.287.062-.062.2.009.194.055.186-.047.084-.074.1-.074.177.019.009.223.027.306.084.2.083.176.168.13.2.056.2-.047.037-.029.186-.139.14.248.1.2.112.168.062.093-.047.13-.018.093.176.1.167.074.12.019.158-.1.13-.1.167-.019.1.129.279.028.129.037.124.009.408.056-.009.149.13.248-.029.344-.112.2-.213.062-.353-.062-.465-.139-.26.084-.26.158-.14.621-.148.919.1.734-.037.418-.093.26-.53.576-.232-.176-.186-.27-.335-.2-.3-.046-.13.2-.046.381-.065.353-.062.261.166.259.047.409-.269.047-.3-.167-.158-.224-.316-.26-.307-.168-.51-.12-.428-.009-.6.083-.529.124-.363.212-.353.335-.3.326" transform="translate(5922.401 -515.698)" fill="#7DB8EC" stroke="#fff" stroke-linecap="square" stroke-linejoin="bevel" stroke-width="1" fill-rule="evenodd"/>
    <text id="65" transform="translate(7066.983 937.533)" fill="#fff" font-size="13"  font-family="OpenSans-Bold, Open Sans" font-weight="700">
      <tspan x="0" y="0"></tspan>
    </text>
    <path id="talId64" data-name="64 Kadegaon" title="Kadegaon Taluka" d="M1143.468,1435.4l-.074.2-.111.434-.019.6.14.248.093.167.084.186.315,1.467.335.716.248.621.167.409.186.446.14.4.158.372.047.353.009.325-.139.4-.066.2-.047.966-.315.585-.288.428-.334.492-.214.52-.214.344-.343.176-.315.186-.047.2-.093.307-.484,1.031-.51.855-.27.157-.4.158-.548.39-.381.418-.669.5-.446.353-.373.335-.2.464.149.957.288.435.492.354.52.269.614.279.491.233,1.9.919,1.049.576.586.446.334.409.232.279.01.454.019.391.214.279,2.09-.009-.373,1-.4.6-.669.455-.64.474-.641.409-.6.482-1.309.9-.78.363-.464.009-.428.124-1.254,1.569-.418.771-.26.446-.483.269-.716.177-.492.13-.836.52-1.533.651-.4.158-.52.248-.093.745.12.317.214.315.186.248.13.344.195.391.223.434.074.836.269.548.124.334.046.418-.01.353v.586l-.222.779-.1.512.111.381-.074.807v.353l.018.435.019,1.2.037.435.177.223.12.195.112.214.075.13.083.148.2.148.13.074.408-.047.195-.037.224.009.223.1.214.093-.641.679-.789.566-.631.408-.381.372-.316.427-.26.391-.214.261-.3.13-.427.065-.465.056h-.465l-.547.083-.464.13-.39.166-.446.874.223.408.649.353.455.139.864.214.288.149-.27,1.614-.734,1.458-.446.474-1.4.2-1.514.307-1.022-.391-2.127-1.217-1.941-.65-.725-.092-1.5-.362-.214-.1-.2-.186-.5-.428-.493-.855-.112-.547-.158-.408-.158-.223-.167-.307-.434-.112-.1.446-.381-.074-1.142-.084-.595-.26-.028-.381.214-.1.223.037.121-.1.037-.13-.037-.214-.4-.214.047-.248-.3-.057-.287-.148-.362-.195-.344.062-.78.046-.65-.5-.687-.549-.418-.2-.474-.353-.427-.167-.706.195-.715-.4-.224.065-1.338.167-.269-.2-.224-.484-.389-.166-.307-.186-.409-.539-.492-.435-.5-.538-1.049-.01.093-.781.056-.3.2-.325.1-.112.345-.307.121-.446.037-.966-.056-.9-.176-.474-.335-.335-.418-.3-.391-.248-.391-.27-.381-.186-.381-.195-.372-.093-.343-.084-.112-.056-.232-.715-.168-.854.242-.521.363-.446.333-.306.559-.13.435-.093.372-.214.3-.325.409-.242.325-.009.446-.214.149-.248-.047-.632-.084-.464.112-.363.233-.3.13-.279-.26-.343-.6-.018-.361.037-.54-.13-.3-.167-.315-.344-1.07-.668-.64-.233-.5-.242-.261-.539v-.879l.037-.816-.585-.717-.511-.372-.018-.446.195-.26.093-.261-.074-.435-.326-.789-.148-.428.435-.408.248-.167.232-.242-.715-.529-.381-.223-.149-.26.121-.586.231-.353.233-.315.242-.261.456-.669.139-.547.362-.195.67-.009.78-.009,2.09-.381,1.412-.38.334-.251.167-.26.074-.4-.224-.492-.613-1.18.009-1.106-.4-.51-.474-.3-.4-.224-.232-.176-.062-.5.1-.4.12-.493.845-1.356.4-.724.1-.343-.074-.854-.325-.372-.52.009-.455.075-.577.148-.659.168-.807.279-1.16.343-1.012.13-.52-.037-.288-.408-.12-.585.242-.363.287-.1.194-.213-.148-1.245.14-.818.362-.381.335-.3.1-.363-.148-.353-.158-.373-.158-.352,1.134-.772.353-.559.482-.753.836-1.754,1.031-2,.456-1.142.427-.53.492.019.5-.492.669-.651.492-.288.6.158.752.241,1.031.186,1.774.233,1.242.248.836.112.762-.027.585-.084,1.7-.046.687.037.4.149-.1.417-.195.344-.195.391-.261.408-.121.373,1,.019,1.086.046,3.771.195,2.016-.027,1.689.2,1.458.177,1.5.5.873.269.966.373,1,.845.956.716.464.353.381.288.864.047,2.173-.056,2.239.233,1.6-.6,1,.269.176.325" transform="translate(5924.52 -516.177)" fill="#7DB8EC" stroke="#fff" stroke-linecap="square" stroke-linejoin="bevel" stroke-width="1" fill-rule="evenodd"/>
    <text id="64" transform="translate(7030.355 944.493)" fill="#fff" font-size="13"  font-family="OpenSans-Bold, Open Sans" font-weight="700">
      <tspan x="0" y="0"></tspan>
    </text>
    <path id="talId66" data-name="66 Shirala" title="Shirala Taluka" d="M1074.157,1539.273h-.13l-.306.2-.124.232-.492.855-.381.435-.613.483-.668.315-.484.428-.353.129-.434-.381-.248-.232-.363-.167-.807-.056-.278-.306-.465-.631-.372-.874-.678-.863-.659-.511-.232-.474-.037-.621.13-.241.062-.232-.093-.214-.158-.177-.214-.1-.279-.062-.2-.019-.195.009-.2.027-.223.065-.826.186-.242.112-.232.1-.139.074-.149.062-.177.047-.186.017-.307.019-.631-.056-.279-.084-.186-.056-.2-.248-.084-.2-.214-.26-.167-.158-.13-.148-.1-.148-.084-.139-.093-.158-.241-.13-.242.027-.093.066-.093.074-.093.121-.062.112-.12.148-.158.242-.1.186-.409.6-.214.232-.223.158-.13.112-.306.195-.242.074-.278.037-.177.027-.14.074-.121.093-.12.1-.427.373-.2.093-.176.065-.2.018-.214-.009-.167.037-.177.056-.186.037-.1-.009-.148-.084-.093-.129-.055-.14-.019-.075.028-.139.062-.124.047-.084.056-.2.055-.288.047-.334-.1-.121-.121-.056-.167-.037-.214-.056H1054l-.176-.009-.149-.01-.12-.046-.223-.1-.409-.269-.214-.158-.214-.055-.149-.037-.093-.037-.062-.046-.065-.075-.111-.2-.261-.363-.093-.12-.028-.1v-.214l-.009-.062-.062-.112-.093-.062-.112-.065-.177-.092-.176-.056-.223-.062-.307.047-.195.074-.121.055h-.112l-.111-.027-.121-.036-.1-.062-.093-.029-.111-.056-.074-.056-.037-.149v-.1l.1-.176.093-.288-.028-.167-.083-.12-.14-.158-.124-.112-.158-.307-.037-.176.046-.168.065-.2.037-.149.074-.6-.047-.166-.139-.093-.168-.14-.566-.315-.186-.139-.186-.028-.112.037-.1.074-.148.074-.083.055-.139.028-.214-.037-.261-.075-.186.018-.112.01-.13.009-.062-.019-.062-.1-.028-.13.009-.139.028-.1.074-.14.112-.168.028-.074.474-.381.176-.361.124-.353.028-.325v-.233l-.056-.12-.139-.084-.13-.055-.149-.037-.139-.027-.158-.046-.363-.233-.083-.1-.093-.14-.074-.121-.111-.139-.062-.074-.056-.094-.027-.139.019-.124.028-.1.112-.2.13-.055.149.019.167.047.111.018.195.029.1-.029.111-.037.075-.074.062-.3.093-.214.019-.112-.056-.112-.149-.056-.176-.009-.214.027-.177-.019-.1-.056-.214-.372-.056-.353.019-.279.062-.176.242-.38.056-.214v-.168l-.028-.13-.056-.13v-.233l.037-.242.037-.111.074-.13.062-.111.046-.084.047-.074.1-.176.047-.139-.056-.195-.112-.178-.26-.148-.195-.121-.232-.12-.158-.056-.2-.009-.248-.01-.224-.009-.2-.009-.158-.028-.242-.037-.241-.037-.168-.047-.325-.12-.112-.084-.1-.065-.093-.112-.056-.093-.074-.074-.037-.065-.124-.148-.037-.112-.148-.062-.195.018-.149.028-.315.1-.353.084-.074.01-.1-.029-.194-.112-.093-.186-.056-.269-.083-.14-.12-.093-.2-.062-.176-.046-.158-.065-.13-.062-.158-.056-.112-.062-.074-.074-.112-.019-.1.038-.062.056-.047.062-.056.074-.046.1-.037.1-.019.056v.111l.009.1.047.167v.093l-.028.111-.028.14-.028.27-.029.121-.055.062-.093.074-.083.047-.148.055-.14.084-.362.224-.112.047-.186.028-.269.018-.158-.046-.13-.1-.2-.083-.148-.047-.13-.019h-.121l-.1.037h-.074l-.074-.019-.1-.028-.12-.062-.111-.158-.233-.288-.13-.455-.062-.279-.019-.306v-.269l.139-.362.028-.287.037-.248-.046-.149-.12-.13-.195-.248-.112-.149-.124-.232v-.242l.056-.148.047-.093.111-.112.176-.009.278.037.223.074.2.056.158.028.214-.019.168-.083.075-.1.084-.186.158-.8-.019-.957.11-.511-.018-.483-.019-.279.019-.8-.056-.474.047-.352-.009-.251-.062-.167-.055-.139-.084-.15-.176-.148-.176.009-.12.066-.124.027-.176.01-.1-.01-.148-.056-.093-.112-.316-.575-.621-.9-.353-.326-.373-.474-.158-.139-.2-.14-.2-.112-.176-.129-.083-.062-.056-.084-.009-.4-.074-.3-.074-.232-.093-.14-.12-.12-.363-.214-.279-.062h-.139l-.12.056-.121.046-.083.037-.111.028-.084.01-.111-.019-.083-.019-.093-.009-.112-.027-.1-.037-.13-.057-.074-.062-.046-.074-.01-.1.01-.112.028-.074.056-.062.074-.065.028-.074-.019-.111-.057-.093-.046-.056-.279-.111-.158-.055-.2-.009-.233-.019h-.2l-.167-.037-.093-.019-.13-.056-.093-.029-.13-.028-.093-.027-.066-.028-.062-.055-.062-.093-.028-.084-.056-.074-.062-.13-.019-.112.019-.055.047-.074.055-.094.056-.093.009-.065-.062-.11-.306-.232-.214-.085-.2-.018-.157-.056-.1-.062-.1-.074-.047-.056-.028-.111-.056-.1-.055-.1-.062-.062-.13-.093-.139-.093-.2-.062-.269-.056-.316.019-.223.037-.167.028-.158.019h-.279l-.13.01h-.1l-.14.019-.083.047-.1.065-.084.074-.062.112-.056.093-.093.074-.139.112-.065.093-.084.083-.055.056-.1.047-.093-.028-.065-.027-.028-.074v-.074l.028-.112.047-.112.047-.12.028-.13.018-.158-.046-.148-.047-.1-.084-.084-.062-.037-.2-.111-.65-.214-.223-.158-.176-.177-.139-.149-.2-.186-.13-.213-.2-.435-.12-.381-.037-.214.009-.13v-.1l-.019-.2-.1-.177-.065-.176v-.158l-.009-.139.028-.121-.028-.1-.084-.139-.028-.062.083-.1.047-.062.13-.307-.018-.1-.1-.1-.13-.121-.248-.344-.233-.381-.046-.093-.124-.057-.111-.027-.112-.037-.037-.029-.168-.242-.12-.129-.13-.047-.186-.062-.139-.009-.12.009-.13-.009-.084-.01-.129-.009-.279-.009-.168-.047-.1-.027-.111-.056-.062-.093-.2-.157-.232-.26-.242-.139-.195-.1-.083-.047-.121-.074-.062-.065-.1-.112-.062-.13-.223-.3-.232-.213-.12-.1-.168-.093-.093-.056-.1-.056-.111-.074-.084-.028-.062.028-.075.028h-.1l-.075-.047-.062-.124-.158-.353-.093-.195-.028-.084-.019-.062-.027-.084-.009-.124-.046-.075-.075-.074-.019-.112.074-.2.139-.14.13-.066.223-.027.2-.037.158-.036.1-.075.037-.1v-.062l-.027-.1-.075-.158-.167-.093-.26-.149-.26-.124-.242-.1-.12-.1-.056-.112-.037-.195-.315-.047-.79-.176-.325-.194-.149-.176-.559-.316-.5-.232-.353-.317-.028-.269-.019-.939-.214-.361-.9-.948-.613-.418-.52-.325-.455-.279-.418-.279-.446-.248-.947-.724-1.077-.677-.7-.4-.7-.345-.483-.13-.539-.056h-.762l-.752-.084-.446.056-.548.028-.745-.242-.391-.63-.409-.409-.223-.112-1.117-.38-.567-.177-.52-.195-.544-.124-.44-.074-.364.2.025.52-.212.232-.372.1-.415.084-.356.084-.124.39.124.464.271.41.067.493-.016.6-.026.334.526.4.458,1.021.31.233.084.26-.076.39-.2.288-.474.2-.433.06-.381-.2-.27-.3-.364-.186-.44-.094-.415-.009-.484-.093-.466-.093-.5-.018-.262.121-.6.062-.33-.045-.5-.363-.279-.427-.228-.363-.034-.5.194-.223.144-.363.026-.241-.119-.241-.169-.892.025-.706-.144-.428-.372.01-.407.316-.382.372-.279.194-.5.158-.847.176-.77.062-.669-.1-.993-.6-.508-.037-.372.168-.677.212-.331-.3-.423-.474-.594-.492-.441-.373-.474-.52.474-.408.661-.435.372-.483.286-.559,1.017-1.263.525-1.226.475-.724-.017-.8-.271-.418-.3-.493-.492-.631-.372-.3-.44-.428-.119-.473-.169-.492-.372-.241-.694-.168-.526-.2-.44-.417-.287-.549-.186-.745-.051-.66.1-1.012.356-.8.135-.781.072-1.925.97-.111.237-.233.137-.186.212.028.235.1.474.576.508.12.567-.094.372-.027.237.092.449.093h.3l.34-.13.2-.305.22-.363.449-.418.31-.492.322-.428.821-.613.609-.362.289-.248.407-.083.262.186.407-.029.237-.168.31-.158.272.074.2.251.381.39.3.353.248.248.847,1-.052.53.1.418.338.585.22.4.2.288.364.222.3.037.3.084.127.474.127.307.3.056,1.428.361,1.18.493,1.124.214.631.084,1.18.248.705-.009.214.306.529.985.641.566.241.363.381.074.566-.1.52-.083.492.019.213.12.307.186,1.412.6,1.106.316.52.641.548.854.873,1.067.539.734.585,2.08.2.381.474.472.882.271.66.232.873.14.576.177.65.344.223.752.13,1.077.232.632.418.417.409.428.372.4.3.417.084.614.037.456.248,1.225.2.8.559.186h.752l.631-.186.362-.214.306-.214.343-.194.325-.009.232.241.771.353,1.552,1.422,1.18.919,1.207.985,1.022.51,1.895.92.975-.158.993-.083,1.068-.019,1.161.176,1.217.306.6.028.836.056.269.018.5-.037.14.418.214.3.511.241.269.12.093.484.111.4-.074.4-.083.334.046.456,1.106.278.854.186.836.315,1.357.335,1.189.789.985,1.134,1.738,1.143.621.372.241.621.186.093.5-.315.529-.3.241-.241,1.468-.864.547.343.307-.019.13-.428.111-.482.177-.464.52.055,1.857.484,1.226.594.3.186.483.167.223-.139.511-.53.455-.13h.53l1.523.334.771-.248.621-.373.248-.27.2-.539-.14-.315.12-.409.2-.288-.037-.408-.093-.269.242-.54.669-.139.353-.223.325-.372.195-.353.325-.456.715.446.687.3.762.195.233.335.353.335.39.325.5.168.232-.019.3-.2.12.056.111.482.084.807.678.464.669.39.233.435-.093.807.381.474.521.056.232.009.456-.093.1.538-.084.567-.167.873-.269.745-.315,1.124.027.65.055.418.52.335-.223.372-.121.52-.112,1.263.8-.3.111.614.975.353-.306,1.012-.093.649-.074.595-.248.548-.176.559-.028.53.01.307.062.381.009.559.2.409.3.074.435.242h.669l.65.223.428.112.427.084-.062.362-.083.373v.287l-.242,1.078.047.435.52.434.492.242.158.492.093.464.1.492.084.224-.111.408.278.512.214.353.056.288-.427.2-.3.4.046.473-.12.613-.362.307.037.539-.148.771-.186.864-.214.576-.121.435.195.465.549.372.278.213-.019.484.093.4.427.566.232.559.232.454.13.279-.381.363-.539.705-.195.177-.176.39-.093.483-.427.352-.074.6.14.789.112.566-.065.456-.121.3-.056.465-.084.241-.093.279-.084,1.068.037.64-.4.248-.148.548.027.5-.3.3-.232.307.019.435.195.129.084.511.009.241.129-.148.075-.047.037.047-.084.111-.028.121.168.009" transform="translate(5933.29 -521.226)" fill="#7DB8EC" stroke="#fff" stroke-linecap="square" stroke-linejoin="bevel" stroke-width="1" fill-rule="evenodd"/>
    <text id="66" transform="translate(6986.473 995.313)" fill="#fff" font-size="13"  font-family="OpenSans-Bold, Open Sans" font-weight="700">
      <tspan x="0" y="0"></tspan>
    </text>
    <path id="talId7" data-name="7 Palus" title="Palus Taluka" d="M1148.734,1492.095l.836.427.363.483.306.4.242.13.464-.074.38-.062.362.018.1.316.12.307.083.3.065.242.14.241.149.168.427.1.343.149.345.167.26.167.139.055.13.176-.121.2-.3.194-.248.168-.2.344-.093.242-.12.344-.241.343-.2.112-.248.176-.093.194-.019.233.056.167.288.353.242-.01.11.13.084.482.139.41.121.335.046.474.028.389.168.373.242.484.223.4.148.381-.13,1.263-.26.621-.232.687-.195.41-.473.175-.409.094-.641.083-.659.093-.559.027-.724-.062-.716.009-1.152.112-.474.353-.009.53-.13,2.368-.019.511.009,1.077-.056.559-.111.391-.112.391-.111.333-.062.233.047.306.455.288.455.2.39.242.372.344.325.232-.027.845.324.13.4.186.167.213.195.232.306.233.248.213.484.1,1.366.056.873-.019.492.01.288.093.186.26.687-.037.595-.019.538.047.307-.047.214-.259.037-.261-.056-.3.062-.26.177-.075.222.335.214.287.307.363.195.2.019.334-.13.408-.139.241-.214.27-.038.2.242.316.075.353.036.27.248.919.093.455.13.418.074.325.148.455.27.343.418-.028.483-.176.434-.028.363.1,1.309.111h.669l.435.037.335.158.223.307v.24l-.028.2-.111.139-.233.167-.241.186-.168.093-.13.139-.112.223-.009.621-.092.241-.14.2-.194.158-.577.372-.519.391-.772.53-.65.287-.279.084-.248.12-.214.009-.251-.074-.248-.111-.335-.029-.372.149-.326.307-.232.4.084.279-.009.315-.248.435-.074.186-.009.26.037.2.084.248.009.195-.046.177-.14.233-.124.167-.112.2-.176.12-.186.047-.13-.037-.269-.214-.158-.062-.269-.019h-.248l-.288.046-.232.176-.26.222-.288.4-.158.223-.1.214-.111.261-.056.222-.083.248-.084.176-.167.224-.092.167-.14.2-.112.24.009.269-.093.2-.418-.112-.242-.176-.482-.324-.641-.27-.51-.093-.5-.111-1.459-.121-.956-.019-.186-.354-.559-.659-.343-.91-.418-.864-.381-.613-.391-.511-.539-.26-.745-.158-.559-.2-.464-.417-.65-.911-.621-.864-.335-.567-.232-.418-.231-.511-.121-.77-.124-.985v-.511l-.344-.047-1.738-.417-.985-.232-1.068-.248-.559-.168-1.255-.306.074-.26.062-.456-.659-.027-.418.027-1,.047h-.381l-1.5.129-.985.112-.149-.947-.148-1.114-.124-.873-.037-.772-.037-.565.363.009.269-.111.2-.186.186-.362.019-.288-.149-.566-.093-.511.009-.39.075-.353.083-.288.13-.27.12-.214.343-.4.248-.26.047-.046.056-.062-.01-.3-.111-.2-.233-.009-1.17-.009-.307-.062-.084-.2-.186-.139-.111-.12-.186-.158-.334-.148-.289-.14-.352-.1-.511-.1-.6-.139-.166-.056-.307-.2-.261-.186-.3-.325-.279-.307-.631-.733-.307-.456-.3-.362-.176-.455-.029-.214v-.373l.2-.584.428-.975.325-1.088.325-1.281.084-.465.027-.566.047-.734-.1-.733-.168-.465-.158-.53-.455-.77-.621-.762-.66-.559-.6-.6-.195-.13-.214-.223-.251-.353-.129-.3.009-.083.316-.335.139.062.1-.062v-.124l-.019-.167.195-.1.084-.177.408-.435.223-.307.224-.27.12-.093.269-.14.056-.111.176-.2.167-.157.075-.084.12-.084.084-.111.083-.13.288-.6.724.093,1.941.651,2.127,1.216,1.022.39,1.514-.307,1.4-.195.446-.474.733-1.458.269-1.614,1.784.64,1.366.846,1.44.892.807.186,1.012-.41,1.124-.186.931-1.077.445-1.161.149-1.328.456-.661.492.195.734.483.353.232.353.213.279.2.176.232.149.4.149.334.14.287.214.335.093.248.046.325-.01.232-.009.242.056.158.2.158.176.01.27.028.473.019" transform="translate(5923.127 -522.666)" fill="#7DB8EC" stroke="#fff" stroke-linecap="square" stroke-linejoin="bevel" stroke-width="1" fill-rule="evenodd"/>
    <text id="7" transform="translate(7051.064 982.159)" fill="#fff" font-size="13"  font-family="OpenSans-Bold, Open Sans" font-weight="700">
      <tspan x="0" y="0"></tspan>
    </text>
    <path id="talId391" data-name="391 Ashta" title="Ashta Taluka" d="M-7060.583-11445.82l-.076-.223-.259-.5-.649-.492-.289-.408-.009-.7.1-1.105-.224-.482-1.374-.066-.231-.109-.259-.224-.251-.362-.549-.373-.444-.332-.335-.167-.354.1-.435.428-.491.187-.418-.011-.435-.205-.279-.473-.416-.8-.147-.187v-.423s5.173-3.672.879-3.932-6.052-1.189-6.052-1.189a6.8,6.8,0,0,0-.259-2.846c-.466-.931-.828-.672-1.656-1.035a2.793,2.793,0,0,1-1.189-.932l-2.588-5.018s3.155-2.018,6.364-.568,2.9-.207,4.915-.932,1.345-2.225,1.345-2.225-.1-.672-3.725,0-2.794-.881-2.794-.881c8.639-2.225,8.173-5.742,8.536-8.793.248-2.107,2.223-2.021,3.814-1.937a4.624,4.624,0,0,0,1.722-.081,16.426,16.426,0,0,0,3.053-2.173l.612-.192.281.125.186.158.112.124.186.138.083.205.308.063,1.171.009.23.011.111.2.012.3-.058.062-.045.047-.248.261-.346.4-.12.213-.131.27-.083.287-.073.354-.011.39.093.511.149.567-.018.287-.187.361-.205.187-.271.111-.361-.009.038.568.036.77.124.873.147,1.115.149.947.984-.112,1.5-.131h.381l1-.047.416-.026.661.026-.066.456-.074.261,1.255.306.559.166,1.069.252.982.232,1.738.416.344.047v.511l.124.985.121.771.231.511.233.417.333.566.62.863.65.909.464.419.559.205.745.158.541.26.389.51.38.613.419.863.344.91.559.66.186.353-.846-.12h-1.021l-1.117.371-.723.49-.2.541.12,1.114-.325.575-.047.883-.056,1.169.028.763-1.151.055-.678.045-1.969-.127-1.087.035-1.206-.047-.967.223-1.207.121-1.264.075-.667.074-.62-.019-.493-.111-.529-.056.158.921.11.48-.026.391v.409l-.1,1.606-.028.27.2.231-.2.566-.091.214-.057.251-.2.009-.492.249-.639.521-.958.91-.278.521-.1.372-.241.2-.51.129-1.069-.025-1.366,1.309-1.078,1.215-.27.289-.231.262-.205.129-.177.026Z" transform="translate(14106.5 12472.705)" fill="#5e99da" stroke="#fff" stroke-linecap="square" stroke-linejoin="bevel" stroke-width="1"/>
    <text id="391" transform="translate(7041.659 1008.315)" fill="#fff" font-size="13"  font-family="OpenSans-Bold, Open Sans" font-weight="700">
      <tspan x="0" y="0"></tspan>
    </text>
    <path id="talId63" data-name="63 Atpadi" title="Atpadi Taluka" d="M1239.048,1384.963l-.062.3-.124.186-.213.279-.139.13-.176.307-.084.232-.037.2v.373l-.325.446-.1.483-.038.269-.223.53.019.195.124.186.1.213.027.214-.009.148-.056.158-.148.2-.057.2-.083.985.019.761.037.493.316.445.224.214.269.343.26.176.288-.062.2-.047.456-.248.826-.447.512-.492.956-.494.548-.269.64-.428.428-.288h.287l.408.158.353.176.241.027.279-.062.307-.12.269-.149.492-.223.325-.13.214.074.092.2.037.261.029.659.009.408.009.176.2.075.13.093.047.242-.037.242-.124.186-.167.186-.028.1-.2.79-.047.427-.093.4-.018.269.194.585.409.7.427.344.559.548.566.577.5.538.278.288.559.335.613.232.5.446.223.408.009.158-.26.789-.409.456-.324.224-.8.538-.892.435-.52.409-.482.362-.409.334-.26.2-.473.41-.2.139-.4.029-.353-.02-.287.047-.194.315-.316.084-.669-.019-.343-.124-.232-.194-.373-.027-.269.139-.195.242-.12.223-.158.521-.269.668-.084.373-.084.269-.009.279.521.2.314.12.233.167.148.2.027.435.056.259.1.2.149.214.186.2.307.26.434.214.167.083.446.2.248.093.687.435.26.2.12.158.186.585.176.325.381.372.12.2.214.435.075.418.1.195.1.232.112.13.213.166.084.13.009.158-.062.177-.13.195-.055.307.12.242.148.157.167.2.121.176.083.148.214.167.223.084.261.046.213.037.279.037.158.009.261.1.093.037.631-.762,1.022-1.18,1.448-.8,1.393-.734,1.117-.344.734-.483.873-.483.975-.679.687-.631.613-.223.715-.037.428.149.408.382.242.288.157.372.214.363.1.446.148.53.13.381.1.939.157.677.074.464-.01.464-.186.465-.3,1.366-.186.669-.381.483-.2.344-.176.362-.158.539-.233.418v.65l.084.651v.474l.112,1.421.12.456.167.683-.046,1.179-.062.4-.408.343-.466.279-.417.288-.381.26-.343.288-.214.354-.2.3-.269-.158-.576-.148-.354-.074-.324-.047-.26-.047-.474-.158-.381-.093-.139-.037-.139-.093-.3-.084-.131-.287-.242.315-.1.511.009.39-.434.084h-.435l-.344.111-.112.473-.046.511-.062.559-.13.3.028.539-.121.445-.176.1.559.111.39.2.446.446.316.464.158.409.53,1.514.288,1.774-.158.3-.993.559-1.44.9-2.4,1.272-1.077.949-.38.324-.482.121-.456.381-.307,1.161-.056.288-.112.52-.009.363.062.5.224.455.334.66-.083.39-.233.669-.3.706-.334.807-.465.965-.372,1.032-.342,1.031-.3.947-.186.334-.381.223-.7.213-1.653.66-.621.344-.576.223-.158.138-.112.52-.009.585-.038.752-.956-.084-.919-.027-1.041-.01-1.633.028-.54.019-.344.288-.3.427-.614.762-.381.5-.381.548-.13.26.12.807-.1.931-.2,1.282-.224.372.019.343.148.242-.062.475-.158.167-.53.019-.408-.056-.121-.009-.13-.037-.279-.028-.1-.129-.166.018-.131.1-.157.1-.124-.019-.167-.074-.177-.1.019-.093.046-.13-.065-.093-.111-.167-.1-.2-.139-.248-.186.14-.038.027-.2.047-.2-.055-.167-.13-.083-.176-.084-.2-.028-.306-.009-.224-.177-.019-.1.075-.084.074-.186.047-.195-.055-.2-.009-.065.062.028.288.056.176.315.112.158.093.056.248-.269.27-.057.158-.073.2-.084.139-.12.093-.186-.055-.084.1.084.12.092.124-.092.186h-.158l-.158-.029-.186-.046-.1-.12-.093-.084-.212-.074-.158.019-.139.157-.124.186-.139.028-.14-.083-.1-.094-.177.01-.334.047-.176-.242-.065-.186-.028-.139-.093-.018-.1.186-.158.167-.084.028-.13-.019-.2.009.056.14.019.129-.047.2-.168.158-.111.018-.008.242-.056.242-.037.074-.084.214v.168l-.149.223-.148-.083-.158.019-.055-.093.074-.176-.074-.1-.019-.12.037-.148.028-.13-.084-.1-.121.056-.074.046-.168.1-.13.138-.062.2.056.334-.074.373-.019.2-.009.2-.139.214-.15.223-.194.047.009-.289-.167-.1-.26.037-.15-.056-.009-.166.018-.177-.009-.2.13-.26.009-.124-.037-.148v-.186l.084-.139.1-.575v-.112l-.131-.056-.129.093-.112.214-.124.062-.186.055-.148.14-.121.148-.019.149-.093.232-.037-.055-.055-.149-.093-.148-.062-.084-.13-.009-.2.062-.056-.074.084-.13.084-.084.1-.083.112-.1.084-.13.046-.186.009-.148-.344.3-.186.093-.2.13-.354.279-.176.13-.148.062-.186.168.009.195.029.242-.037.223-.186.074-.056-.129-.074-.242-.019-.13-.027-.14-.1-.056-.176-.019-.167.075-.288.093-.065-.111.084-.13.167-.158.678-.2.223-.124.2-.418.028-.2-.112-.315.062-.176-.083-.214-.029-.224.124-.2.111-.2.195-.222.363-.409.074-.224-.214.019-.3.344-.167.223-.12.214-.14.167-.2.093-.176.1-.248.307-.287.335-.112.075-.038.157-.084.158-.167.093-.2.019-.363.056-.233-.065.01-.158.158-.167.242-.121-.018-.26.2.009.176-.307-.062-.242.037-.186.1-.195-.149-.2-.093-.009-.13.065-.176.111-.121-.047-.037-.124.037-.129-.009-.168-.028-.176-.13-.055-.168-.062-.1-.075-.124-.148-.167.062-.062.158-.056.176-.121.2-.093.009v-.167l-.055-.13-.093.009-.046-.084.019-.111-.01-.139-.167-.019-.093.093-.149.14-.083-.056-.047-.12-.084-.2-.093.056-.056.158-.121.111-.139-.093-.093-.214-.083-.158-.14-.139-.241-.047-.112.055.019.13.186.12.01.13-.047.158.093.111.158.093.248.13.279.158.232.158.168.408.083.2.047.148-.065.242-.019-.056-.176-.111-.093-.047-.1-.14-.037-.148-.056-.14-.14-.066-.148.01-.065.12-.037.26.009.158-.046.14-.056-.13-.047-.186-.139-.074-.037.1-.2.027-.009-.148.056-.307v-.074l-.047-.056-.1-.036-.029.062-.074.083-.056-.018-.093.009-.1-.019-.01-.074.029-.056.019-.062h-.066l.009-.074v-.062l-.009-.074-.062-.075-.074-.055-.066.009-.111.075-.093.13-.009.158-.037.083-.074.13-.056.074-.121.083-.046-.009-.093-.037-.1-.019-.019-.075-.093-.158.029-.037.019-.062-.019-.083-.037-.037-.1-.056-.009-.055.037-.084.037-.084.009-.074-.047-.074-.121-.028-.233.047h-.12l-.062-.009v-.046l-.019-.046.009-.093.062-.028.14-.037.186-.14.093-.047.074-.074.019-.112-.009-.167v-.13l-.14-.074-.065-.047-.056-.074-.027-.13.037-.13.009-.167h-.093l-.075-.029.019-.148.017-.083-.027-.1-.065-.074-.139.047-.018-.062-.037-.111-.047.111.019.13-.028.111-.019.121-.055.018-.065-.037-.009-.084-.084-.018-.055-.056-.057.056-.074.047h-.1l.062-.1-.009-.158.009-.093-.055-.073-.056-.038-.083-.074-.121.037-.112.084h-.046l-.084-.019-.12-.046-.083-.1-.038-.13-.248-.018-.1.036-.111.01-.1.1.037.028.139.009.148-.027.038.093-.009.186.074-.018.1.028.093.019h.1l.009.1-.027.046-.057.019-.062.084.186.083.009.168-.046.062-.074.01-.12-.019-.066.056.019.084.084.1.055.036.083.037.074.01.027.093-.009.1-.055.1-.158.055-.148.056-.112.075-.084.028-.084.037-.084-.074-.148-.028-.124-.12.046-.093-.083-.1-.074-.075-.055.019-.084.019h-.056v-.056l-.1-.093-.037-.074-.019-.055-.046-.062-.112-.047.019.157-.019.056.019.093h.062l-.029.084v.12l.065-.047.037.084-.028.139-.028.148.019.111-.028.112-.093.062-.056-.037-.074-.046h-.062l-.056.062-.093.124-.047.055-.083.056-.037.093-.038.149-.037.074-.131.019-.12-.009-.083.083-.047.019-.062.075v.093l.028.055.028.047v.055l-.046.037-.075.056.019.158.028.093-.047.111-.062-.158-.12-.093-.279-.124h-.139l.177-.669.027-.373v-.112l-.017-.139-.094.028-.084.047-.222.158-.177-.074-.148-.26.019-.093.037-.083.046-.149v-.112l.083-.046.075-.028.029-.062-.029-.1-.037-.084-.084-.12h-.12l-.14-.075.055-.093.214-.027.186-.037.112-.094.074-.084-.037-.111-.13-.074h-.13l-.158-.045.019-.124.062-.176.047-.158-.038-.149-.214-.009h-.176l.019-.149-.01-.074-.1.009-.131.124-.13-.066-.093-.056.029-.158-.112-.084-.149-.1-.062-.148-.037-.129-.149-.1v.1l.066.158-.094.092-.1-.1-.062-.055.017.11.074.124-.047.13-.158-.009-.213-.074-.232-.14-.111-.2-.056-.062v-.112l.14-.056.121-.062.093-.047.131-.046.157-.065.14-.1.241-.124.26-.083v-.074l-.027-.112-.124-.074-.062-.074.074-.056.112-.084-.093-.093-.2.074-.158-.176-.121-.112-.111-.158-.241-.13-.177-.093-.093-.01-.062-.084-.056-.13-.14-.047-.316.047-.093-.12.062-.084.084-.1-.028-.166-.434-.224.047-.1.037-.195-.055-.093.062-.12.12-.1.2-.009.157.074.112.112.418-.009.139-.047.224-.158.157-.158.222-.166.353-.047.111-.065-.009-.1-.055-.214.028-.112.019-.12.139-.028.186-.055.139-.233-.038-.139.047-.195.093-.186-.083-.1-.157.112-.344.084-.2.065-.27.186-.084.084-.074.26-.1.14-.148.093-.177.028-.037-.062.13-.158.111-.158-.018-.11-.27.062-.083.019-.112-.066.037-.074.084-.084.14-.083-.009-.073-.121-.065-.168-.037-.158.093-.177.12-.148.019.13-.248.074-.075-.019-.1-.084-.12.055-.1.158-.037.167-.028.307-.019.093-.037v-.325l.066-.062.248-.009.158-.037.3-.047.373-.083.093-.12.168-.084.1-.037.129-.047.112-.13-.148-.028-.334.13-.381.019-.168-.047-.361-.074-.362-.028-.093-.065.037-.186-.112-.186-.177.214-.12.139-.131.224-.176.278-.417.241-.12.055-.177.186v.149l-.028.084-.093.1-.074.074-.093.177-.112.13-.139-.074v-.13l.12-.306.028-.074.065-.056.062-.046.037-.062.019-.093-.038-.112-.176-.019-.062-.074.083-.056.307-.074.158-.074.167-.13.056-.13.213-.195-.046-.13-.177-.047-.13.019-.223.037-.112-.056-.139.074-.158.074-.065-.056-.065-.1-.066-.019-.138.074-.148.083-.037-.046.139-.066-.037-.1-.111-.028-.13-.065.121-.062.269.047.111-.009.2-.037.093-.124.2-.037.176-.046.139-.01.307.01.14-.148-.233-.056-.241.019-.13.027-.195-.036-.316-.01-.2-.1.046-.075.223-.055.148-.019.12.01.167.028.083-.056v-.121l-.083-.1-.148.028-.038-.1.084-.111.12-.13-.176-.1-.315-.062-.2.018-.13.019-.3.056-.074-.056.047-.093.112-.093.148-.046.084-.124-.1-.047-.176-.036h-.248l.056-.075.1-.062.186-.037.353.075.149.037.167.056.214.055.112-.083.261.055.213.084.2.046.112-.046-.066-.13-.1-.074-.214-.065-.047-.074.019-.093-.046-.056-.111-.037-.1-.065-.186-.074-.14-.065.019-.093.093-.12v-.074l.158-.083.057-.037.074-.019.074.009.111.019.176.093.13.1.14.037.083-.027-.028-.094.019-.112.084.01.112.075.111.009.084-.093.224.062.121-.046.008-.1-.019-.1-.186-.037-.177-.009-.176-.01-.093-.073-.326-.074-.112-.037-.056-.074.056-.13.047.029.112.027.074-.13-.056-.084-.009-.055.124-.093.148.009.13.065v-.158l.083-.062.111-.028.14-.056.093-.074.148-.062.2.009.167-.112-.13-.1-.01-.047-.13-.073h-.13l-.062-.047-.055-.083-.14.047v-.1l.037-.14.019-.214.038-.214-.074-.13-.046.186-.037.223-.093.177-.1.214-.121.062-.084-.074-.055-.074-.018.084.074.156-.12.075-.13-.1-.167.01-.177.176-.083-.055-.028-.1.028-.129.046-.186-.083-.186-.1.056-.1.242-.029.055-.093.2.01.158-.047.12-.176.13-.074-.084.056-.148-.019-.124-.047-.112-.12-.12-.1.047-.186.037v-.083l.074-.168.065-.26.056-.223-.233.1-.111.149-.074.112-.13.167-.084.2-.1.194-.027-.062-.055-.121-.01-.139.019-.139.121-.186.037-.1-.056-.176.065-.186.074-.12.046-.158-.046-.194.009-.084.019-.149.046-.13-.028-.176-.093-.046-.056.009-.076.093-.11.13-.065.158-.111.176-.093.353-.056.093-.139.056-.14-.047-.019-.12-.019-.186v-.186l-.046-.083-.056-.14-.214-.055-.139.195-.062.14-.038.2-.287.326-.075-.2-.325.093-.176.215-.2.073h-.046l.037-.093.019-.093.037-.12-.124.055-.1.037-.158.093-.27.112-.124-.047.018-.074.093-.009.1-.037.074-.056.112-.074.138-.084-.074-.1.029-.084.14.019.12-.009.083-.111.158-.158.084-.12-.2-.1-.092-.056-.055-.056.083-.062.062-.093-.019-.066-.214.1-.138.075-.131.12-.121.074-.186.093-.232.074.055-.093.055-.075.121-.167.159-.074.055-.094-.13.047-.124.028-.167.037-.186.055h-.157l-.037-.027.018-.037.13-.057.149-.047.1-.055.062-.027.121-.1.066-.12.055-.148.121-.019.111.084.168-.056.084-.037.186-.046-.083-.074-.111.009-.047-.074v-.14l.037-.1-.13-.037-.214.084-.248.083-.251.046h-.3v-.074l.2-.062.148-.056.176-.124.139-.1-.018-.074.01-.1.083-.066.1-.084.14.056.112.055.131.009.074-.037-.074-.047-.084-.046.124-.124.148-.028v-.2h-.074l-.13.028-.167.057-.14.046-.149.066-.148.083-.186.1-.111-.028.038-.112.074-.1.038-.149v-.1h-.084l-.186.083h-.084l-.009-.037.1-.121-.037-.158.177-.344.148-.084.131-.121.083-.12.1-.1.213-.093.047-.186.093-.13.176-.093.223.112.074-.093.037-.168-.046-.124-.065-.083-.111-.149-.1-.2-.046-.3-.038-.111-.027-.158-.056-.1-.13-.093-.1.009-.037-.121-.065-.2-.056-.148-.1-.056-.186-.037-.112-.093-.074-.149-.047-.1-.093.056-.019.214.121.056.148.062.084.158.027.158.065.14.019.14-.094.084-.14.027-.093.084.074.111.232.046.2.009.13.01.062.112-.062.158-.037.149.009.139-.037.062-.009.13.158.046-.046.214-.353-.12-.14-.037-.186-.019-.1-.055-.084-.14-.074-.112-.036.167.009.113.037.055.074.075.084.046.084.124-.038.138-.176.062-.139.019-.2.028-.177.01-.083.111.062.075.112.149.307.083-.037.093-.124.019-.083.084.037.13.037.093-.055.159-.065-.065-.148-.062-.121-.093-.074.093.028.195-.028.157.009.158v.111l-.074.01-.046-.037-.177-.158-.121.019-.046.13-.038.176-.214-.232-.056-.1-.083-.2-.083.062-.01.213.13.259.029.214.074.269-.028.2-.13-.149-.12-.325-.074-.084-.074-.074-.028-.186-.029-.2-.111-.093-.062-.138v-.167l-.074-.112-.093.074-.055.148v.167l.028.186.057.269.046.261-.093.167-.12-.176-.038-.186-.029-.177-.176-.223-.157-.047-.1-.073h-.075l-.1.231-.055.168.017.074v.056l-.017.066.046.083.027.093v.176l.029.13.062.2.112.2-.009.13-.15-.14-.055-.1-.056-.139-.056-.13-.083-.13-.1-.12-.1.046-.112.13-.074.176.019.084.047.037.074.148-.138-.037-.084-.111-.139.027-.074.223-.092.028-.029-.13-.093-.057.047-.046.062.009.111-.055.01-.2-.038-.1.1-.046.12-.075.019-.166-.129-.074-.167-.01-.075-.083.093-.074.12-.029.167-.037.038-.13-.13-.037-.186-.009-.062-.062.027-.14.195-.01.248-.11.148-.13.066-.2-.121-.269-.075-.195-.186-.056-.1.037-.074.251-.222.158-.214-.037-.214.167-.019-.074-.148-.047-.168.018-.047-.093.038-.158-.009-.1.075-.055.112-.047-.01-.084-.112-.1-.139-.111.029-.1.047-.121-.14-.062-.062-.168v-.195l.019-.121-.1-.028-.278-.139-.158-.2-.084-.056-.046-.1-.056-.12-.056-.139-.084-.158-.056-.176-.167-.335-.111-.12.083-.1.2.019.158.11.13.124.14.028.149-.1.186-.028.037-.1-.056-.1-.194-.075-.222-.036-.056-.13-.112-.093-.248.037-.27-.029.018-.12.047-.112-.056-.158-.2-.062-.417-.13-.4-.149-.112-.176.083-.112.1-.111.168-.084.27-.017.242-.062.036-.149-.062-.139-.2-.112-.1-.019-.158-.121.074-.214.223-.019.287-.009.3-.26-.093.066-.158.036-.029-.056.038-.074.074-.112-.037-.029-.148.083-.062-.055.037-.083.083-.093.074-.075.335-.017.26.009h.158l.223.037.111.111.065.093.083-.046.027-.1.01-.335.009-.093.036-.046.028-.093-.009-.083-.112-.037-.176.062-.158.12-.062.066-.084.083-.093-.009-.056-.083-.056-.1-.148.028-.083.062-.158.112-.214.028-.062.084-.074.083-.1.037-.124.027-.1.019-.009-.062.047-.177-.075-.074-.083-.037-.149-.018-.112-.009-.074-.047-.046-.055.073-.027.261-.056.13-.062.13-.084.112-.062.093-.094-.129-.055-.2-.009-.037-.019-.158-.028-.084-.093-.062-.056-.167-.074-.062-.062-.074-.046-.046-.075.158.009.13.062.248.037.093.01.028-.047.019-.093.055-.093.047.019.062.083.047.027.065.019h.093l.12-.065.065-.111.018-.214-.027-.093-.056-.084-.009-.093.019-.074.112-.037.2.056.2.062.009-.111.074-.066.111.019.084.047.056.074.037.111.055.037.1.009.1.047.093.074.13.019.074-.056.037-.112-.046-.111-.177-.047-.138-.121-.029-.056.01-.075.019-.093.037-.13.046-.129-.093-.075-.083.028-.065.12-.1.084-.074.037-.177-.018-.112-.065-.074-.056-.056.075-.223.028h-.13l-.111.019-.195.009-.112-.056h-.372l-.083.028-.112.083-.186-.037-.1-.018-.084-.1.009-.037.111-.112.13-.047.233-.047-.019-.112-.186-.062-.074-.1.158-.149-.14-.111-.223-.158-.186-.112-.325-.167.112-.26.307-.864.12-.455.084-.6-.186-.434-.223-.325-.093-.315.047-.344.1-.325-.038-.222-.594-.762-.279-.559-.075-.446.354-.335.745-.52.677-.335.327-.195.167-.2.074-.344-.093-.248-.046-.772.334-.289.195-.248.062-.315-.019-.27-.1-.334-.1-1.524.009-1.142v-1.942l.038-.745-.232-.464.12-.4.121-.26-.084-.594-.232-.289-.353-.242-.325-.2-.373-.223-.417-.39-.047-.4.176-.167.445-.084.772-.055.539.009.559.195.307.084,1.375.186,1.189.084.873.195.484.2.315.324.2.288.111.177.14.194.641.066,1.635.2,1.366.074,2.573.315,1.366.621.827.566,1.4.957,1.134.6.919.456,1,.343,1.134.214.891.381,1.356.409.613-.13.456-.4.372-.752.288-.669.242-.559.093-.344.334-.027.3.195.26.084.139-.074.148-.269.124-.307.4-1.077.4-.456.315-.8.474-.807.214-.325.687-.417.688-.233.51-.353.8-.911.177-.288.083-.434.186-.418.176-.214.864-.613.79-.641.482-.6.038-.428.074-.65.038-1.078.028-.631.009-.307.223-.2.158-.361-.093-.939-.194-.745-.186-.567-.222-.678-.391-1.1.038-.6-.093-1.18.047-.679.993-.13,1.04-.446.539-.434.353-.372.492-.621.547-.53.186-.435.418-.632.065-.427.055-.577.019-.733-.148-.427-.038-.373.055-.148.149-.14-.176-.306-.094-.325-.027-.214.055-.288.038-.214-.1-.724.01-.427.12-.288.324-.269.381-.223.149-.124.39-.559.389-.408.465-1.189.427-.474.7-.521.679-.528.372-.428.734-.4.435.3-.074.465.074.325.093.148.287.363.037.075.373-.13.354.009.343.1.521.232.075.232.176.094.232-.009.287-.1.248-.121.1.232" transform="translate(5918.462 -512.775)" fill="#7DB8EC" stroke="#fff" stroke-linecap="square" stroke-linejoin="bevel" stroke-width="1" fill-rule="evenodd"/>
    <text id="63" transform="translate(7131.678 921.401)" fill="#fff" font-size="13"  font-family="OpenSans-Bold, Open Sans" font-weight="700">
      <tspan x="0" y="0"></tspan>
    </text>
    <path id="talId28" data-name="28 Walwa-Islampur" title="Walwa-Islampur Taluka" d="M-7084.612-11469.914h0l-.29-.363-.295-.241-.43-.187-.186-.2-.455-.333-.418-.046-.613.129-.409.141-.332-.021-.6-.313-.539-.121-.51-.2-.688-.66-.559-.891-.576-1.383-.473-.909.073-.688-.082-.252-.316-.3h-.435l-.481.214-.854.473-.575.559-.4.41-.455.139-.408-.094-.307.049-.363.146-.408.262-.325.241-.314.361-.12.511-.207,1.031-.165.621-.381.62-.141.521-.372.316-.435.063-.818.018-.548.125-.343.1-.233-.055-.575-.445-.335-.465-.082-.51-.1-.994.026-.965-.38-.574-.39-.436-.159-.465-.231-.5-.223-.193-.5-.047-.771.205-.41.436-.287.864-.158,1.087-.111,1.17-.12.148-.288.156-.362.057-.276-.092-1.078-.243-.762.038-.566.1-.771.056-.521-.214-.353-.241-.492-.51-.417-.316-.68-.205-.49-.24-.271-.029-1.187.334-1,.539-.167-.01.026-.119.085-.111-.038-.047-.074.047-.131.146-.008-.24-.084-.51-.2-.131-.018-.436.232-.311.3-.3-.028-.5.149-.547.4-.252-.037-.641.084-1.067.092-.278.084-.242.056-.465.121-.3.062-.453-.111-.567-.139-.789.074-.6.428-.352.093-.483.176-.39.194-.179.539-.7.382-.363-.13-.277-.233-.455-.231-.559-.426-.568-.093-.4.018-.482-.279-.215-.548-.372-.2-.464.124-.437.215-.576.186-.863.149-.77-.038-.539.361-.311.125-.611-.047-.474.3-.4.428-.205-.056-.287-.214-.354-.279-.51.111-.41-.082-.223-.1-.492-.094-.464-.158-.492-.492-.241-.519-.434-.047-.436.241-1.078v-.287l.084-.373.063-.361-.426-.084-.429-.111-.649-.223h-.668l-.436-.241-.3-.075-.193-.408-.01-.559-.062-.381-.01-.308.026-.528.177-.559.251-.548.074-.595.093-.648.306-1.014-.974-.353-.111-.614-.8.3.111-1.264.12-.52.224-.372-.52-.334-.056-.419-.028-.648.315-1.125.27-.744.167-.874.083-.567-.1-.537-.455.092-.231-.01-.52-.055-.381-.473.094-.807-.233-.436-.669-.39-.677-.464-.085-.807-.111-.484-.12-.055.279-.511.39-.12.567.055.576-.148.53-.231.463-.252.53-.2.869-.269.521-.242.2-.148.092-.187.167-.334.038-.325.176-.323.187-.205.222-.187.539-.6.4-.465.225-.306.147-.177.539.057.659-.012.205-.176.259-.352.113-.346.056-.574.026-.307.259-.055h.539l.559-.094.965.094.65-.1.882.027.612-.12,1.242.6,1.134.559.808.418.891.483.539.194.9-.047,1.133-.166.8-.168.864-.148.583.047.2.027.092-.641v-.658l.157-.746-.139-.311-.325-.061-.41.018-.559-.018h-.343l-.241.035h-.205l-.241-.018-.2-.074-.12-.2.038-.232.221-.092.336.019.2-.075.132-.213.035-.475.316-.124.482.02.455-.009.214-.011.287-.019.131-.407.063-.417.009-.957.426-.168.261.038.287-.046.12-.316-.062-.335-.261-.407-.483-.428-.205-.252-.129-.278.026-.343.114-.242.278-.065.261-.036.631-.249.343-.177.168-.045.873.11.539-.193.445-.1.548.148.306.168.4-.038.242-.038.52-.018-.056.3-.019.371.009.547.121.148.31-.084.159-.342.193-.43.177-.277,1.049.01.5.538.492.435.406.539.311.186.39.168.223.482.27.205,1.337-.167.223-.062.717.4.7-.2.428.167.473.353.418.205.686.548.652.5.78-.045.343-.066.361.2.29.148.3.057-.046.249.4.214.038.215-.038.129-.12.1-.223-.037-.214.1.028.38.593.262,1.143.082.381.074.1-.443.435.11.167.306.157.223.158.41.109.547.5.854.5.427.2.187.214.1,1.5.362-.288.6-.082.131-.085.111-.12.082-.074.086-.167.157-.176.2-.056.112-.27.138-.125.094-.223.268-.223.311-.408.436-.082.176-.2.1.018.168v.119l-.1.063-.139-.062-.316.336-.009.084.129.3.252.354.214.221.2.131.6.6.66.559.621.763.456.771.158.529.167.465.1.732-.045.732-.028.566-.085.465-.323,1.281-.325,1.088-.428.974-.205.586v.372l.029.215.176.454.3.362.308.455.631.734.278.306.3.325.261.187.306.205.167.056.6.139.51.1.354.1.287.14.053.022-.612.192a16.445,16.445,0,0,1-3.051,2.173,2.207,2.207,0,0,1-.839.117c-.248,0-.517-.014-.8-.029h-.016l-.066,0c-.344-.018-.655-.033-.97-.033-1.215,0-2.638.225-2.845,1.969-.031.266-.057.537-.081.8a7.487,7.487,0,0,1-1.366,4.3c-1.241,1.574-3.558,2.782-7.087,3.691a.7.7,0,0,0,0,.63c.166.277.589.418,1.254.418a8.707,8.707,0,0,0,1.543-.169,15.027,15.027,0,0,1,2.575-.3c1.078,0,1.148.287,1.15.3a1.565,1.565,0,0,1-.007,1.143,2.131,2.131,0,0,1-1.339,1.082,4.574,4.574,0,0,0-1.416.852,2.181,2.181,0,0,1-1.47.656,5.214,5.214,0,0,1-2.028-.576,5.954,5.954,0,0,0-2.475-.521,7.985,7.985,0,0,0-3.89,1.092l2.586,5.018a2.834,2.834,0,0,0,1.19.931,3.861,3.861,0,0,0,.638.208,1.258,1.258,0,0,1,1.018.828,6.806,6.806,0,0,1,.258,2.844,16.739,16.739,0,0,0,6.054,1.191c.993.062,1.556.311,1.676.738.32,1.117-2.439,3.107-2.557,3.192v.425Z" transform="translate(14122.7 12490.341)" fill="#7DB8EC" stroke="#fff" stroke-linecap="square" stroke-linejoin="bevel" stroke-width="1"/>
    <text id="28" transform="translate(7020.12 990.036)" fill="#fff" font-size="13"  font-family="OpenSans-Bold, Open Sans" font-weight="700">
      <tspan x="0" y="0"></tspan>
    </text>
    <path id="talId392" data-name="392 Sankh" title="Sankh Taluka" d="M-6980.148-11457.809l-1.5-2.406-2.329-.631-1-.574.24-1.337-4.829,1.188-2.228,2.526-.551.357a2.668,2.668,0,0,1-.486-1.32s-.827-5.847,1.346-6.571,7.605-3.879,3.518-3.776-3.208-1.759-3.208-1.759.311-2.483-1.034-2.69-4.916-2.225-4.916-2.225l-4.551-5.482s-3.881-3.881-4.347-5.382,1.346-4.4-1.034-4.708c-4.242-.414-2.458-2.133-2.458-2.133s1.4-1.823,1.707-2.329,1.127-1.9,1.127-1.9-.53-3.647,2.521-3.647,3.532-1.823,3.532-1.823l.087-.091.474.055.6.121.407.27.483.24.539.223.92.141.341-.02.131-.528.01-.493.454-.066.021-.639-.261-.754-.214-.51-.381-.975-.147-.56-.028-1.021.417-1.348.615-1.4.334-1.1-.111-.744-.038-.865.187-.835.3-.745.75-1.856.938-1.819.938-.457.855-.061.789.222.324.271,1.1,1.291.466.455.575.186.466.121,1.075.391,1.469.205.854-.02.112.631.055.465.2.4.426.241.4.094.548-.019.669.009.909.167,2.146.214,1.3.177,1.318-.019h2.063l.344-.633.223-.565.056-.745.483-.752.435-.5,1.5-.883.018-1.056,1.1-1.236.854-1.04.752-.492,1.849-.287.677-.771,1.18-.7,2.462-.826,1.216-1.154,1.849-1.365.854-.1,1.245-.334,4.169,2.573,1.5,4.512,4.93.28.53,1.93.435,10.958-4.215,2.86.344,1.29-2.822-.232-.316,5.479,3.055,2.86,1.134,3.762-.1,3.213,5.209.287.8,9.537.085.957-3.085.186-2.822,1.292-1.161,2.144-.287,1.328.492.484.725.725,4.319-1.1-.632,11.645.6.875,1.412,1.771-.836,1.227-3.585.092-1.365,1.793-1.441-.5-.61-1.9-.541-1.2-5.3-.205.012-7.02-5.683-.7-2.062-.1-.205,8.794-6.621.242-.679-.874-3.861,3.929-4.077,1.329Z" transform="translate(14249.459 12461.926)" fill="#2a5484" stroke="#fff" stroke-linecap="square" stroke-linejoin="bevel" stroke-width="1"/>
    <text id="392" transform="translate(7265.154 974.791)" fill="#fff" font-size="13"  font-family="OpenSans-Bold, Open Sans" font-weight="700">
      <tspan x="0" y="0"></tspan>
    </text>
  </g>
</svg>
