<svg xmlns="http://www.w3.org/2000/svg" width="361.163" height="301.878" viewBox="0 0 361.163 301.878">
  <g id="SataraDistrict" data-name="Satara District" transform="translate(-1658.448 -240.976)">
    <g id="JaoliTaluka"  data-name="Jaoli Taluka" transform="translate(1668.461 312.267)">
      <path id="talId68" fill="#7DB8EC" title="Jaoli Taluka"  data-name="Jaoli Taluka" d="M1021.259,1414.126l-.371.5-.569.371-.508.221h-.8l-.532.075-.37.148-.928.9-1.5,2.091-.544.743-.273.557-.21.668-.049.471.247.766.05.657-.161.854-.519.667-.409.383-.483.335-.3.284-.582.841-.433.706-.3.483-.285.457h-.383l-.359-.334-.163-.519-.114-.57-.124-.729-.225-.606-.17-.421-.247-.569-.17-.384.135-.546.158-.568.113-.692.158-.472.124-.963-.316-.348-.282-.347-.136-.222-.124-.458-.688-1.324-.53.074-.835.335-.553.074-.642-.026-2.132.286-1.3.062-.958.012-.474.494-.474-.63-.642-.457-1.146-.694-1.257-.421-.626-.384-.907-.494-1.41-.754-.665-.409-.553-.309-.152-.285.012-.607.315-.865.581-1.138.361-.693.322-.309.371-.261.344-.2.43-.2.022-.2-.17-.607-.077-.408-.1-.433-.051-.469-.04-.335-.165-.285-.337-.371-.429-.458-.536-.383-.418-.607-.232-.347-.337-.136-.147-.061-.085-.3.108-.124.208-.234.227-.273.32-.284.344-.3.469-.494.327-.755-.033-.37-.553-.768-.322-.334-.344-.223-.642-.247-1.032-.5-.637-.1-1.032.074-1.168.124-.575.061h-.423l-.6-.1-.576-.32-.287-.372-.051-.186.124-.445.535-.928,1.054-1.151.408-.408.185-.3.152-.446.118-.383-.108-.557-.14-.346-.266-.557-.361-.333.051-.249.231-.272.209-.248.209-.308.19-.719.013-.334-.046-.283-.169-.334-.243-.2-.518-.236-.056-.161.073-.161.005-.446-.107-.3-.344-.322-.3-.1-.266-.075-.168-.321v-.335l.011-.42-.152-.471-.418-.371-.563-.224-.615-.184-.583-.261-.287-.16-.1-.409.084-.8.13-.247.463-.248.276-.173.406-.185.282-.384-.468-.185-.937-.545-.591-.161-.953.074-.987-.161-.626-.284-.9-.482-.128-.05-.242-.248-.492-.4-.276-.334-.469-.111-.619-.21-.756-.334-.575-1.4-.039-.247-.147-.3-.247-.36-.4-.024-.57.656-1.342.68-.694.385-.338.21-.457.384-.457.21-.135-.135-.028-.359-.993-.644-1.292-.853-1.477-1.164-.547-.519-.818-.421-.282-.063-.208.026-.547.3-.553.546-.626.729-.2.249-.361.421-.462.285-.751.123-.834.309-.542.26-.36-.062-.2-.012-.474-.038-.439-.185-.2-.259-.1-.322-.333-.359-.406-.186-.683-.246-.649-.212.175-.272.1-.159.1-.161.079-.284.006-.3-.091-.3-.293-.359-1.805-1.534-.254-.149-.451-.161-.265-.246-.118-.335.107-.235.339-.383.366-.409.333-.506.006-.334-.124-.372-.158-.506.012-.47.247-.99.609-.458.322-.308.231-.236.134-.371.125-.483.1-.458.079-.667.373-.495.62-.9,1.088-2.041.592-1.472.434-1.56.068-.556.068-.446-.113-.359-.3-.556-.478-.57-.338-.173-.6-.309-.427-.124-.4-.124-.027-.248-.011-.394-.035-.669.243-.149.344-.049.344.161.3.012.445.037.435.074.322.124.406.185.232-.049.163-.3.21-.223.293-.124.468.075.456-.161.384-.444.238-.284.174-.348-.186-.309-.328-.3-.406-.384-.535-.482-.463-.494-.084-.594-.057-3.019.141-.421.039-.494-.419-.519-.533-.249-.384-.4-.327-.458-.214-.346-.328-.469-.44-.347-.259-.347.034-.333.191-.185.282-.286.091-.383-.146-.334-.113-.335-.135-.432.089-.482.417-.583.418-.248.845-.433.507-.271.26-.26.619.285.136.124.293.148.384.123.384-.148.337.125.057.457.192.247.563.012.666-.05.485.026.564-.162.158-.383.181-.223.7-.062.36-.321.756.89.339-.47h.4l.472.47.463.384.35.2.732.061.824.025,1-.025.282.272.17.618.587-.135.2-.3.157-.5.485-.211.135.136-.191.607-.045.731.2.557.148.5.3.384.733.655.564.335.35.2.406.446.056.284-.09.508.2.333.631-.235.147-.408.406-.273.283-.395.394-.818,1.432-1.349.509-.235.293-.161.405-.273.3-.482.247-.507.317-.36.417-.024.259-.161.575-.42.4.035.012.248-.024.47.012.482.26.433.1.569.237.26.089.977.136.719.236.333.362.409.427.456.215-.272.349-.184.44.2.519.322.586.3.53.57.125.433v.655l-.012.581.113.484.451-.063.282-.173.3.112.26.246-.011.384-.1.47.033.4.158.2.463.136.066-.136-.044-.384-.328-.557.023-.224.09-.309.158-.247.035-.26-.148-.334-.191-.248-.293-.5-.362-.384-.157-.3.023-.346-.26-.3-.621-.025-.721-.952-.271-.52-.158-.5-.338-.519-.35-.507-.44-.285-.542-.223-.3-.544-.4-.543-.226-1.682,2.5.16.914-.073h.834l.6-.049.214-.2-.022-.422-.485-.594-.214-.346-.282-.594-.214-.445-.484-.384-.418-.569-1.173-.978-.722-.965-2.154-1.72-1.253-.754-.472-.519-.531-.47-.529-.57-.361-.741-.395-.36-.936-.049-.293-.359-.281-.668.146-.754.225-.792.159-.31.08-.544-.1-.432-.124-.385-.147-.322-.09-.4.057-.432.316-.273.351-.248.337-.247.418-.569.168-.384.632-.26.305-.334.225-.149.474-.049.5-.3-.046-.569-.214-.383-.045-.434.552.532.6.261.474.507.226.273.642.3.643.273.677.347.608.358.316.718.62,1.028.328.6-.022.334-.181.422-.564-.075-.609.211-.226.408-.044.507.124.383.125.5.4.4.316.507.564.433.406-.359.5-.161.688.074h.868l.462.124v.878l.1.273.417.234.406.3.011.669.249.26.53.136.5.074.97.037.88.013-.011.333-.282.421-.236.347-.2.285.045.37.473.111.237.087-.033.384-.068.433-.215.333-.508.3-.632.382-.384.434-.27.545.282.21.485.15.529-.222.992-.62.97-.853.192-.583-.033-.556-.531-.9-.214-.2-.134-.458.067-.2.2-.322-.011-.458.271-.185.5-.111.259-.334.191-.371-.3-.681-.27-.4-.35-.371-.3-.384-.068-.359.113-.3.2-.358.067-.286-.586-.05-.338-.172-.608-.1-.542-.05-.338-.248.045-.271.271-.259.361-.186.395-.285.474-.334.191-.557-1.409-.767-.53-.26-.723-.458-.6-.347-.688-.445-.721-.495-.531-.458-.755-.594-.587-.409-.462-.383-.655-.458-.529-.457-.451-.4-.327-.384.056-.409.53.174.475.384,1.127.309.339.112.506-.273.158-.458.079-.483.214-.222.407-.087.44.3.282.408.146.347.237.3.565.174.485.236h.518l.835-.038,1.185.111.361-.085.609.221.5.2.643.211.5.309.789.112.971.359.868.075.3.433-.091.4-.3.26-.507-.024-.261-.026v.545l.17.161.2.333-.1.334-.169.383-.473.223-.226-.1-.294-.433-.157-.285-.305.136-.034.594.113.322.281.21.34.186.484.136.349.125.507.284.4.519.553.4.315.346.847.074.778-.272.452-.532v-.52l.044-.47.192-.358h.565l1.4-.149.633.21.316.495.517.8.214.261.329.235.439.124.485.061.609.1.677-.111.374-.273.4-.074.619.087.569-.175.31-.284.507.038.173-.335-.433.013-.767-.978-.222-.384-.421-.445-.062-.42-.273-.333-.42-.063-.607.26-.453.2-.372-.308-.565-.086-.349-.212-.316-.408-.485-.285-.259-.272-.564-.333-.7-.557-.135-.507.755-.422-.044-.667.112-.4.249-.507.789-.026.53.235.225.446h.181l.5-.025.643.247.293-.062.452.471.222-.025.47.086.52.284.557-.013.618-.124.705.236.309.52.136.074.185-.334.409.272.111.409.569.939.445-.234.371-.247.582.049.594-.013.532-.1.7-.162.445.149.087.444-.012.533-.186.459-.532.371-.37.644.234.173.272.384-.421.285.186.3.346.581-.124.78.235.544.161.037.247-.346.235-.123.31.371.346.073.383-.235.421-.346.669-.3.222-.3.409-.421.445-.444.284-.2.26.407.346.73.26.595.2.1.581-.3.346-.446.186-.062.495.087.594.3.532.372.358.285.532.222.557.012.494-.012.594.248.482.272.31.384.383.137,1.263.061.668-.061.47.124.3.211.421.049h.569l.508.383.457.507.434.4,1.385,1.25,1,.533.495.334,1,.469.582.285.445.309.323.149.68-.149.433-.3.409-.223.458-.05,1.249-.506,1.262-.334.841-.2.978-.024,1-.124.631-.148.656.1.3.173,1.089,1.188.1.841.2.606.309.4.507.285.024.433-.482.434-.186.2.545,1.14-.038.581.211.569.086.557.174.52.21.654-.049.583-.111.408-.5.124-.074.4.013.361.124,1.285.322.458.557.3.446.433.124.482-.149.482-.247.285-.544.013-.334.26-.519.234-.545-.025-.173-.2-.161-.408h-.482l-.211.186-.037.395.087.4-.334,1.572-.061.779.012.978v.654l.124.347.445.074.5.186.284-.063.558-.445.408-.458.495-.3h.458l4.219-.013.68.569,1.5.112,1.3-.025.582-.063.68-.259.507.062.582-.222.2.383.322.5.025.4-.025.384-.05.383-.012.4-.049.421-.507.149-.309.124-.385,1.175.037.755-.11.432-.2.482-.123.4-.335.62-.136.321-.705.074-.594.5-.668.433-.384.347-.445.1-.545.086-.878.383-.445.025-.557.309-.408.3-.371.458-.149.285-.544.7-.73.063-.594.234-.644.049-.532.124-.445.173-.4.088-2.2.2-1.262.136-.508.173-.3.271-.062.5.284.47.272.458.05.372.173.26-.223.112-.247-.247-.371-.174h-.495l-.421.012-.173-.16-.135-.333-.174-.26-.1-.273-.074-.322-.112-1.2-.458-.334-.47.086-.47.2-.705.259-.42.26-1.089.767-.556.249-.309.2-.235.482-.174.322-.3.817-.321.309-.248.247-.681.618-.049.372.235.21.186.309-.037.63-.062.706-.173.408-.124.345-.309.075-.4-.247-.421-.223-.4-.185-.409-.149-.482-.334-.26-.1-.322-.236-.136-.123-1.015-.248-.879.062-.532.136-.433.186-.384.062-1.2-.062-.458.1-.359.174-.346.135-.309-.161-.2-.112-.322-.074-.557.074-.521.409-.519.421-.371.382-1.435,1.584-.247.482-.149.532-.049.31-.346.63-.829.124-.408.273-.47.235-.4.2-.272.2-.371.248-.074,5.493.4.531.321.471.471.483.668.47.853.668.236.657-.025.383.322.383v.422l-.26.26-.285-.309-.4-.4-.432-.445-.421-.285-.482-.335-.471-.284-.582-.668-.507-.507-.322-.458-.359-.557-.309-.556-.223-.668-.235-.52-.421-.187-.557.124-.4.112-.4.111-1.361-.1-.619.1-.21.768-.124.891-.037.619v.853l-.112.519-.149.582-.272.63-.148.322.185.434.186.4.432,1.448.161.742-.062.668.149.8.668.767.706.953,1.262,1.435.557,1.67v.57l-.173.741-.273.334-.828,1.089-.4.755-.26.669.037.767.346.743.383.531.459.595.333.545-.012.952-.644.8v5.63l.792,1.187.792,1.2-.137.9-.036,1.448,1.076.656.136.853.322.854-.161,1.212" transform="translate(-955.092 -1316.22)"  stroke="#fff" stroke-linecap="square" stroke-linejoin="bevel" stroke-width="1" fill-rule="evenodd"/>
      <text id="talId68count" transform="translate(41.082 48.51)" fill="#fff" font-size="10"  font-family="OpenSans-Bold, Open Sans" font-weight="700"><tspan x="0" y="0"></tspan></text>
    </g>
    <g id="SataraTaluka"  data-name="Satara Taluka" transform="translate(1728.865 337.415)">
      <path id="talId76" fill="#7DB8EC" title="Satara Taluka"  data-name="Satara Taluka" d="M1072.154,1337.594l.471.248.507.309.346.285.346.3.347.223.211.235.074.21.086,2.413.2.371.112.311-.05.308-.21.223-.346.545-.174.247-.1.581-.223.346-.2.372-.087.223.222.359.421.21.471.223.5.308.507.384.779.521v.716l-.086.718-.161.334-.124.335-.136,1.213.074.4.779.494.2.161.1.186-.125.173-.222.149-.025.173.3.3.2,1.027.222.235-.024.557.149.384.42.2.371.049.433.186.174.372.31,1.3.124.929.209.742.062,1.595-.271.223.221.21.594.05.3.222.285.248.26.234.221.248.162.26.866,1.027.2.581.012.372-.247.321-.286.483-.161.309.012,2.289-.4.459-.136.482-.087.73.31.432-.1.682.087.9-.382.322-.186.211-.173.495-.037.507.186.445.358.793.323.321.557.643-.012.594.062.457-.161.284-.186.4-.062,2.2.594.544v1.349l-.137.753-.074.3-.1,3.724-.31.569.5.248.927-.013.633.013.421-.087.247-.335.149-.371.086-.4.062-.21,1.089.049.3.7.395.26.52.1.433.236.521.075.345.049,1.189,1.014.828.743.384.3.049.322-.074.334-.348,1.2-.223.718-.284.606-.037.212.259.209.433-.013.458.024.248.137.16.174.359.1.224-.013.668-.2.73-.174.358-.271.643-.347.372.2.309.334.606.83.8.049.865-.037h.668l.47.446-.037.853-.272.458-.062.508-.037.409.173.729.829.706.433.444.074.359-.185.545-.285.3-.631.05-1.089.049-.7.556-.309,1-.124.779-.074.916.2.284.482.187.284.222.1.247-.036.284-.137.323-.482,1.484-.1.372-.495.89-.013.3.148.669.124.371.05.359-.112.322-.149.285-.2.842.037.383.26.384.359.223.408.2.3.187.372.234.668.705.211.569.049.445-.062.693-.544.656-.1.322-.222.372-.026.457.074.47.049.446.087,1.336-.111.569-.26.346-.457.47-.2.061-.285.235-.1.223v.259l-.209.706-.248.382-.161.373-.161.3.037.334.285.878-.185.52-.186.31-.605.853-.31,1.053-.3.779-.433.9-.284.209-.569.211-.595.272-.321.2h-.2l-.185-.136-.236-.124-.371-.359-.433-.259-.445-.1-.334-.049-.272.111-.284.2-.173.248-.186.222-.124.248-.334.594-.186.335-.258.234-.186.3.3.346.545.124.347.185.149.113.087.235-.111.284-.1.222-.049.57.3.47.149.346.185.458.112.5.37.9-.025.345v.273l.123.421-.37.074-.767-.062-.532.286-.518.049-.372.26-.174.3-.148.358-.384.347-.247.445-.062.3-.3.1-.643.026-.73-.038-.285.062-.358.2-.508.284-.47.174-.495-.049-.495-.284-.42-.136-.026.482.05.632-.26.852-.878.447-.335.247-.334.285-.52.049-.259-.087-.532-.433-.309-.4-.285-.383-.446-.482-.458-.619-.222-.483-.322-.606-.421-.495-.717-.792.024-.669-.1-.928-.185-.569.024-.841-.086-.495-.285-.358-.73-.669-.47-.235-.606-.074-.273-.173-.2-.347-.111-.433-.322-.26-.384-.036h-.581l-.223-.187-.519-.433.048-1.558-.024-.435-.148-.444-.223-.334-.433-.483-.322-.174-.792-.321-.469-.283-.012-.433-.186-.594-.533-.608-.989-1.088-.3-.333-.335-.569-.408-.631-.31-.4-.458-.47-.47-.32h-1.126l-.569-.1-.47-.346-.458-.458-.42-.236-.434.113.05.544.322.31.025.161v.445l-.025.7-.012.533-.149.47-.185.334.148.161.173.458.112,1.237.371.408.149.26.372.656.05.445-.136.309-.174.483-.247.4.061.582-.3.544-.928-.061-.631.359-.507-.124-.359-.037-.284-.185-.36-.347.112-.247.186-.285-.2-.543v-.359l-.582-1.46-.247-.272-.433-.619-.3-.519.013-.533.26-.458-.024-.828-.322-.917-.421-1.077-1.25-.891-.89-.383-.829-.457-.792-.272-.581.359-4.664-.087-.223-.21-2.611-1.98-2.165-2.116-.3-.273-.507-.1h-.469l-.532-.1-.322-.159-.161-.384-.309-.421-.358-.273-.52-.346-.9-.359-.9-.234h-.483l-.594.049-.322-.149-.248-.3-.434-.433-.185-.495-.285-.642-.371-.62-.507-.557-.507-.395-.5.024-.272-.061-.074-.309-.285-.322-.532.049.037,1v.322l-.1.3-.149.347-.606.717-.037.507-.26.978-.779.878-.186.371-.05.284.124.508.136.223.124.42-.222.595-.124.309.086.186.186.309.074.346-.037.311-.21.321-.234.433-.31.506-.222.409-.433.284-.532.014-.495-.112-.432-.211-.322-.347-.248-.519-.074-.891-.025-.57.074-.506.136-.508.025-.321-.321-.323-1.052-.135-.384.074-.68.223-.223.111-.445.1-.433-.125-.42-.421-.483-.358-.68-.421-1.571-.694-.544-.2-.235-.1-.36-.222-.42-.3-.5-.1-.915.458-.52.16-.618.248-.73.272-.545.236-.693.259-.656.112-.755-.013-.284-.284-.161-.558-.173-.606-.594-.891-.643-.606-.668-.284.161-1.213-.322-.853-.136-.854-1.077-.654.038-1.449.136-.9-.792-1.2-.792-1.188v-5.629l.644-.8.013-.953-.335-.545-.457-.594-.384-.532-.347-.742-.037-.768.26-.668.4-.755.829-1.088.272-.334.174-.743v-.568l-.557-1.67-1.262-1.436-.7-.952-.668-.768-.149-.8.062-.669-.161-.742-.433-1.448-.185-.4-.186-.434.149-.322.273-.63.148-.582.112-.519v-.854l.037-.618.124-.891.211-.768.618-.1,1.361.1.4-.111.4-.112.557-.123.421.186.235.52.223.667.309.557.359.557.321.457.507.508.582.668.47.285.482.333.421.285.432.446.4.4.285.309.26-.26v-.421l-.322-.385.025-.382-.235-.656-.854-.668-.668-.47-.471-.482-.322-.471-.4-.532.074-5.494.372-.246.272-.2.4-.2.47-.235.408-.273.829-.123.347-.63.049-.309.148-.533.247-.482,1.436-1.584.371-.384.52-.42.52-.409.556-.074.322.074.2.111.309.162.346-.136.359-.174.458-.1,1.2.061.384-.061.433-.186.532-.136.878-.061,1.014.247.136.124.321.235.26.1.482.335.409.148.4.185.421.223.4.247.309-.074.124-.347.173-.407.061-.707.037-.63-.185-.309-.235-.21.048-.372.681-.619.248-.248.322-.308.3-.818.173-.322.235-.483.31-.2.556-.248,1.089-.767.421-.26.705-.26.47-.2.471-.086.458.332.111,1.2.075.322.1.272.173.259.135.335.174.16.421-.012h.495l.371.173.247.248.223-.111-.174-.261-.049-.371-.272-.458-.285-.469.062-.5.3-.272.507-.174,1.262-.136,2.2-.2.4-.087.445-.172.532-.124.643-.05.594-.234.73-.062.544-.706.148-.284.371-.457.409-.3.556-.309.447-.025.878-.384.544-.087.445-.1.384-.345.667-.433.594-.5.705-.075.136-.321.334-.619.124-.4.2-.482.112-.433-.038-.755.384-1.175.309-.124.507-.149.05-.42.012-.4.05-.385.025-.383-.025-.4-.322-.5-.2-.384-.446-.544-.705-.457v-.706l-.149-.729.1-.756.334-.705.013-.953.148-1.274.234-.384,1.2-.074.3.247.1.853.21.472.3.644.606.531.384.086,1.6.31,2.141.482,1.609.409,1.027.185,1.088-.148.768-.458.309-.508.309-.532.358-.2.57.446.458.656.273.569.618.482.705.322.569.285.569.16.5-.123.433-.2.409-.087.841-.1,1-.569,1.015-1.5.52-.866.482-.792" transform="translate(-1003.72 -1336.53)"  stroke="#fff" stroke-linecap="square" stroke-linejoin="bevel" stroke-width="1" fill-rule="evenodd"/>
      <text id="talId76count" transform="translate(34.678 49.361)" fill="#fff" font-size="10"  font-family="OpenSans-Bold, Open Sans" font-weight="700"><tspan x="0" y="0"></tspan></text>
    </g>
    <g id="PatanTaluka"  data-name="Patan Taluka" transform="translate(1687.825 407.964)">
      <path id="talId74" fill="#7DB8EC" title="Patan Taluka"  data-name="Patan Taluka" d="M1058.054,1517.156l-1.114-.074-.8-.038-1.621-.407-1.547-.236-1.423.026-1.324.111-1.3.21-2.524-1.225-1.361-.679-1.608-1.313-1.572-1.224-2.066-1.894-1.026-.471-.31-.322-.434.012-.457.26-.408.284-.483.285-.841.247h-1l-.742-.247-.273-1.063-.334-1.633-.05-.607-.111-.816-.4-.557-.495-.532-.545-.57-.556-.556-.31-.842-.173-1.434-.3-1-.866-.458-.767-.236-1.163-.185-.878-.309-1.176-.359-.63-.63-.26-.508-.78-2.77-.717-.978-1.163-1.423-.73-1.138-.693-.854-1.472-.42-1.88-.8-.409-.248-.284-.162-.656-.023-.692.111-.755.136-.507-.1-.321-.483-.854-.754-.705-1.312-.285-.409-.94.013-1.572-.334-.841-.111-1.5-.286-1.574-.655-1.905-.483-.406-.074-.17-.408-.17-.631-.405-.112-.406-.049-.485-.3-.26-.384-.294-.532-.45-.778-.137-.557.068-.706-1.129-1.336-.326-.334-.406-.47-.507-.52-.271-.334-.362-.1-.418.21-.315.223-.542.038-.349-.248-.541.112-.384.334-.811.482-1.094.817-.43.568-.417.656-.6.558-.293.483-.271.408-.452.173h-.395l-.6-.124-.315-.122-.5.036-.756.123-.677-.16-.631-.768-.313-.136-.282-.038-.183.249-.315.31-1.292.148-.355-.4-.221-.26-.221-.285-.185-.384-.2-.333-.056-.458.2-.929.063-.444-.057-.495-.175-.558-.091-.568-.462-.52-.3-.234-.13-.3.044-.2.114-.26.078-.32-.027-.26-.136-.323-.541-.469-.253.024-.56.013-.276-.149-.185-.346-.2-.321-.114-.4.086-.272.3-.371.681-1.163.459-1.014.156-1.992.1-.606.113-.458-.04-.471-.179-.679-.26-.359-.181-.173-.4-.273-.412-.248-.446-.1-.208-.086.023-.26.247-.259.243-.05.1-.372.13-.668.028-.433.174-.4.333-.483.49-.741.248-.644.18-.557-.035-.47-.1-.507-.2-.73-.248-.718-.412-.755-.388-.717-.249-.693-.2-.879-.366-1.311-.266-.174-.3-.086-.478-.112-.423-.321-.355-.445-.824-1-.333-.42-.474-.482-.377-.348-.26-.2-.388.062-.137.273-.2.346-.265.2-.253-.061-.49-.3-.249-.459-.287-.692-.255-.335-.355-.173-.348.05-.355.087-.484.21-.43-.074-.434-.26-.147-.383-.181-.768.044-.42.051-.3.367-.6.242-.322.372-.332.541-.124.322.222.247.656.5.942.064.136.485.184.168-.2.322-.284.208-.285.225-.372.315-.383.258-.037.315.024.307.05.214.074.412.235.367.149.339-.012.129-.111.282-.322.541-.865v-.286l-.107-.7.28-.433.441-.643.6-.607.45-.272.435-.185.31-.408,1.037-1.14.367-.606.541-.841.333-.58.09.011.147-.21.259-.148.395.012.39.136.343.074.451.1.5.026.468-.026.3-.161.278-.421.412-.619.348-.8.26-.47.231-.334.23-.26-.033-.395-.378-.409-.3-.557-.367-.272-.023-.26.344-.346.1-.247.238-.409.055-.322-.09-.21-.153-.235-.152-.2.046-.2-.1-.4-.125-.273-.276-.26-.294-.272-.2-.211-.084-.247.045-.742.249-.471.568-.73.21-.308.1-.347.033-.334-.017-.322-.056-.334-.152-.4-.2-.607-.315-.741-.174-.335-.373-.457-.271-.2-.333-.1-.463-.013-.32-.112-.216-.247.141-.445.334-.9-.1-.334-.141-.247-.176-.3.024-.272.135-.173.249-.222.394-.235.507-.149.659-.186.62-.222.357-.36.219-.3.253-.716.271-.433-.073-.483-.456-.359-.383-.346-.26-.3-.3-.259-.175-.224.119-.284.789-1.25.664-.594,1.123-1.224.571-.421.377-.174.315-.013.3-.012h.379l.163-.222-.107-.21-.152-.495.024-.284.117-.458.181-.2.254-.037.277.062.354.148.44.149.2.123.418-.173.378-.383,1.212-.681,1.128-.941.317-.372.09-.37-.107-.358-.249-.4-.067-.347.061-.36.288-.4.367-1.41.456-1.325.1-.357.113-.373.112-.494.474-.5.959-.012,1.3-.062,2.132-.285.642.024.554-.074.835-.334.529-.074.688,1.324.124.458.136.222.282.346.315.348-.124.964-.158.469-.113.693-.159.569-.135.544.17.384.247.569.169.421.225.607.124.73.114.568.162.521.358.334h.384l.284-.458.3-.482.433-.7.581-.842.3-.285.482-.333.408-.385.52-.668.161-.852-.049-.657-.247-.768.049-.469.21-.669.273-.557.544-.742,1.5-2.091.928-.9.372-.149.532-.073h.8l.508-.224.569-.371.371-.494.669.284.643.606.594.891.173.606.161.557.285.283.754.013.656-.11.692-.26.545-.236.729-.272.62-.247.519-.162.916-.458.5.1.42.3.359.223.236.1.544.2,1.571.693.681.42.483.359.42.422.433.124.445-.1.223-.111.68-.223.383-.074,1.052.136.322.322-.025.321-.136.507-.075.508.025.569.074.89.247.52.322.347.434.211.495.111.532-.012.433-.285.223-.408.309-.507.235-.433.21-.322.037-.309-.075-.347-.185-.309-.087-.186.123-.309.223-.595-.124-.421-.136-.223-.124-.507.049-.284.186-.372.78-.878.26-.978.037-.507.606-.717.149-.347.1-.3v-.322l-.036-1,.532-.049.284.321.075.309.272.061.5-.025.507.4.508.557.371.618.284.644.187.5.433.433.247.3.322.149.594-.049h.482l.9.236.9.359.52.347.359.273.309.419.161.384.322.161.532.1h.47l.508.1.3.273,2.165,2.116,2.611,1.979.224.21,4.664.087.582-.359.792.272.829.458.891.384,1.25.89.42,1.077.322.915.025.83-.26.458-.012.532.3.52.433.619.247.272.581,1.46v.359l.2.543-.186.285-.111.248.359.347.284.186.359.036.507.123-.062.818.172.384.137.322-.05.519-.322.42-.358.261-.445.049-.768.409-.952.679-.408.4-.186.383.136.446.062.383.112.507.062.755-.1.544-.31.581-.594.458-.717.459-.644.631-.607.779-.915.495-.495.607-.5.222-.817.965-.4.532-.347.434-.136.469.148.495.545.383.842.656.508.445,1.3,1.288.842.469.668.223.4.16.693-.209.482-.136.421-.1.618-.149.829-.185.544.123.5.371.619.619,1.039.866,1.311,1.077.779.434.371.618-.062.507.049.359.668.4.483.221.718.409,1.014.681.767.567.9,1.474.247.482.408.3.519.36.5.556.31.52.445.457.371.372.037.371-1.015,2.956-.717,2.091-.408.607-.273.334-.247.4-.112.433.149,5.122,1.125-.061.421.036.409-.333.3-.371.656-.11.532.086.507.086-.074,2.957.532.767.371.644.136.6.012.768-.037.645.16.679.2,1.189.024.531-.012.371.569.372.075.211-.161.384-.606.147-.483.248-.594.211-.755.111-.718.061-.4-.11-.668-.211-.594-.384-.433-.26-.495-.358-.471-.038-.2.162-.2.234-.47-.049-.408-.049-.136.074-.223,2.065-.173.359-.074.433.656.482.358.606.247.272.211.41-.012.395-.124.36-.4.32-.594-.087.136.347.259.284.112.36-.087.16-.4.149.211.543.235.347.112.4.186.21.247.346.123.3.421,1.955-.371.446-.408.136-.236.222-.284.322-.284.161.235.569.185.161.323.2.086.284.422.793-.074.618-.347.346.285.422.137.431.049.483v.446l-.42.52-.4.52-.21.309-.3.037-.1.458-.025.334-.347.124-.384.025-.371.013-.594.05.2,1.733-.1.567-.21.508-.186.545-.285.581-.384.359-.223.36-.222.433-.088.445-.346.322.037,2.017.075,1.733.544,1.348-.111,1.943.372,1.214.1,1.138-.359.828v1.251l-1.546.048-.755.062-.433.236-.581.062-.421-.062-.223.2-.408.309-.841,1.448-.5.507-.458.111-.42.037-.692.309-.52.31-.371.235-.47.148-.446.075-.557.16-.9,1.264-.334.828-.222.359-.223.3-.284.309.16.4.136.594.718,1.25.322.644.408.408-.582.5-.532.086-.681.149-.606.223-.42.322-.149.582-.1.619-.211.433-.148.569-.1.829" transform="translate(-970.483 -1393.281)"  stroke="#fff" stroke-linecap="square" stroke-linejoin="bevel" stroke-width="1" fill-rule="evenodd"/>
      <text id="talId74count" transform="translate(52.718 60.813)" fill="#fff" font-size="10"  font-family="OpenSans-Bold, Open Sans" font-weight="700"><tspan x="0" y="0"></tspan></text>
    </g>
    <g id="KaradTaluka"  data-name="Karad Taluka" transform="translate(1775.217 419.581)">
      <path id="talId9" fill="#7DB8EC"  title="Karad Taluka"  data-name="Karad Taluka" d="M1050.947,1412.709l.632-.359.927.062.3-.544-.061-.582.247-.395.173-.484.137-.309-.049-.445-.371-.656-.149-.261-.371-.408-.112-1.237-.172-.457-.149-.162.185-.334.147-.469.014-.533.024-.705v-.445l-.024-.161-.321-.309-.05-.545.433-.112.421.236.458.458.47.346.569.1h1.126l.469.32.458.471.309.4.408.63.334.569.3.335.991,1.088.532.607.185.594.012.433.471.285.792.321.32.174.433.482.223.334.148.445.026.433-.05,1.559.52.433.223.185h.582l.383.038.321.26.112.433.2.346.272.173.606.075.471.235.729.668.285.359.086.495-.025.842.187.568.1.93-.025.667.718.792.42.494.321.606.223.484.458.619.446.482.285.383.309.4.532.433.259.087.521-.05.333-.285.334-.247.879-.446.261-.853-.051-.631.025-.482.42.135.495.286.5.049.469-.173.507-.285.359-.2.285-.063.729.037.645-.025.3-.1.062-.3.247-.447.383-.346.149-.359.173-.3.372-.259.52-.049.532-.285.767.062.372-.073.557-.112.543-.383.644-.384.915.037,3.923.013.668.544.409.347.321.1.482-.309.644-.447.618-.37.817-.545.581-.42,1.262-.731.408-.717.322-.482,1.014-.348.644-.234.792-.285,1.373.049.606.024,1.126.978,1.2.632.408.2.631.185.583.013.68.161.469.112.866.136.47.236,1.25,1.125.111.607.582.409.546.346.4.346.21.47.211.445.2.4.261.483.111.643-.149.446-.792.569-.458.2-.322.062-.656-.334-.3.062.074.285.185.285.088.272.049.409-.037.383v.222l.235-.136.223-.358h.57l.494.062.26.062.446.346-.013.434-.062.408-.223.235-.174.336-.123.246-.16.371-.026.4-.359.582.4.012.247-.557.161-.173.4-.149.259-.557-.012-.532-.062-.669v-.482l.16-.718.15-.409.26-.519.482.123.483.347.557.606.248.63.259.533.321.816.272.569.3.607.26.706.655,1.3.063.334-.322.322-.172.273.036.556.333.446.4.4.4.348.372-.125.433-.185.284-.086.421-.235.26-.062,2.387.049.767.866.409.495.483.408.581.161.433.346.5.421.433.3.42,1.064-.569.705-.607,1.523-1.372,2.661-1.115,2.338-.643,1-.47.741-1.51,1.028.211.469.21.5.2.47-.136.483-.445.4-.483.507-.186,1.089.2,1.657-.26.286-.383.135-.321.483.16.781.383.543.693.05,1.349-.174,1.546-.457,1.078-.371.877-.223.768-.2.606-.1.692-.013.435.495.1,1.138-.136.458-.532.965-1.126,1.807-.162.656-.135.532.086.668.311.235.53.3.631.4.533.68-.013,1.472.817,1.572.3.654-.1.533-.224.346-.445.334-1.881.507-2.784.508-1.039.012-.891.014-.483.259-.185.73-.606.891-.322.348-.309.419-.31.472-.16.779.2.347.507.3.953.7-.31.323-.334.223-.581.543.2.57.433,1.051.1.583-.123.347-.261.347.025.593.68.5.78.953-.05,1.089v1.187l.346.718.668.323.854.308,1.424.891.42.458.4.223.719.173.481-.049.8.024.347.458-.173.371-.309.4-.15.483.112.618.061.842-.2.334-.595.285-.432.012-.545.323-.4.433-.495.285-.582.124-.743.173-.444.408-.482.595-.322.693.222,1.139.31.952.147.074.458.112.495.124.507.26.507.248.519.359.52.334.557.4.445.445.235.631.075,1.2-.05,1.286-.161.594-.457.409-.136.149-.26.433-.075.4-.123,1.039-.235.37-.26.57-.211.458-.407.112-.161-.2-.012-.73.025-.494.075-.4-.693.025-.322.05-.532.049-.408-.223-.73-.2-.594.136-.718.26-1.163-.148-.223.061-.458.236-.842.333-.345.05-.372.086-.148.322-.037.458.174.371.272.334.644.569.346.544.086.446-.161.419-.383.062-.345-.05-.57.224-.013,1.274-.086.557-.173.544-.384.025-.285.012-.606.012-.644-.024-.42.161-.05.63-.174.285-.271.1-.446-.024-.3.123-.05.31.161.26.26.1.322.023h.272l.322-.05h.457l.743.027.544-.027.433.088.186.408-.21.99v.878l-.124.855-.26-.037-.778-.061-1.152.2-1.064.224-1.509.223-1.2.061-.718-.26-1.187-.643-1.076-.558-1.51-.742-1.658-.8-.817.161-1.175-.038-.865.137-1.287-.124-.743.124h-.718l-.347.073-.036.409-.074.766-.149.458-.346.471-.272.235-.878.012-.717-.073-.2.234-.3.408-.532.618-.717.8-.3.249-.248.271-.235.433-.049.434-.224.445-.124.247-.271.2-.693.323-1.163.358-.706.272-.619.334-.7.309-.768.2-.754-.074-.521.161-.371.68-.4.261-.308.024-.668-.223-.52-.433-.469-.445-.309-.445-1.016-.26-.915-.4-.953-.594-.433.607-.26.469-.433.494-.471.3-.89.187-.322.718.124.359.049.544-.26.384-.161.545.186.418-.272.719-.334.359-.829.495-1.027.334-2.029-.445h-.705l-.607.173-.68.7-.3.186-.644-.223-.4-.247-1.634-.792-2.475-.643-.693-.075-.236.619-.147.642-.173.569-.408.026-.731-.458-1.954,1.151-.322.323-.7.394-.669.421-.247-.125-.321-.827-.83-.5-2.313-1.522-1.311-1.509-1.584-1.052-1.806-.446-1.113-.42-1.14-.248-1.472-.371-.062-.607.111-.444.1-.532-.149-.533-.124-.642-.359-.161-.681-.321-.284-.4-.185-.557-.668.049-.359-.025.1-.828.149-.57.209-.432.1-.619.149-.582.421-.323.607-.222.68-.148.533-.087.581-.495-.409-.408-.321-.644-.718-1.249-.135-.594-.162-.4.284-.31.223-.3.223-.36.334-.828.9-1.262.555-.161.446-.075.47-.148.371-.235.52-.31.693-.309.421-.038.458-.111.494-.507.844-1.448.406-.309.224-.2.421.061.582-.061.432-.236.755-.061,1.546-.05v-1.25l.36-.829-.1-1.138-.371-1.214.111-1.942-.545-1.349-.074-1.732-.037-2.017.347-.322.087-.445.222-.433.223-.359.384-.358.285-.581.185-.545.211-.507.1-.569-.2-1.732.594-.049.371-.012.385-.025.346-.124.024-.334.1-.458.3-.038.21-.309.4-.519.422-.52v-.446l-.05-.482-.135-.434-.285-.42.347-.347.074-.618-.421-.793-.086-.284-.323-.2-.186-.161-.234-.568.284-.162.284-.322.236-.223.408-.137.37-.445-.42-1.954-.124-.3-.248-.346-.185-.21-.111-.4-.234-.346-.211-.544.4-.148.087-.161-.111-.36-.26-.284-.136-.346.594.087.4-.322.124-.359.012-.4-.211-.41-.247-.271-.358-.607-.656-.482.074-.433.174-.359.222-2.065.137-.074.408.049.471.049.2-.234.2-.162.47.039.5.357.434.26.593.384.668.209.4.112.716-.063.755-.111.6-.209.482-.247.606-.148.16-.385-.074-.209-.569-.372.011-.372-.024-.53-.2-1.189-.161-.68.037-.645-.013-.766-.136-.607-.37-.644-.532-.766.074-2.958-.507-.086-.531-.087-.656.11-.3.372-.409.334-.42-.038-1.126.061-.149-5.121.112-.434.248-.4.272-.333.409-.606.717-2.091,1.015-2.956-.037-.373-.372-.37-.445-.457-.311-.52-.494-.557-.52-.36-.409-.3-.247-.482-.9-1.473-.768-.57-1.014-.681-.717-.408-.484-.222-.667-.4-.049-.359.062-.508-.371-.617-.779-.433-1.312-1.076-1.038-.866-.62-.619-.5-.371-.543-.124-.829.186-.619.149-.42.1-.483.136-.693.21-.4-.161-.668-.222-.841-.471-1.3-1.286-.507-.445-.841-.657-.545-.384-.147-.493.135-.471.347-.434.4-.531.818-.965.494-.223.5-.606.915-.494.607-.78.644-.63.717-.459.595-.457.31-.583.1-.543-.062-.756-.111-.507-.062-.383-.136-.446.186-.385.408-.4.953-.68.767-.408.444-.05.36-.26.321-.421.05-.518-.136-.322-.173-.383.061-.816" transform="translate(-1041.26 -1402.859)"  stroke="#fff" stroke-linecap="square" stroke-linejoin="bevel" stroke-width="1" fill-rule="evenodd"/>
      <text id="talId9count" transform="translate(36.326 77.196)" fill="#fff" font-size="10"  font-family="OpenSans-Bold, Open Sans" font-weight="700"><tspan x="0" y="0"></tspan></text>
    </g>
    <g id="KhatavTaluka"  data-name="Khatav Taluka" transform="translate(1840.414 322.404)">
      <path id="talId70" fill="#7DB8EC" title="Khatav Taluka"  data-name="Khatav Taluka" d="M1159.247,1462.409l-.235-.434-1.337-.358-2.127.8-2.983-.31-2.9.075-1.15-.063-.508-.382-.618-.471-1.274-.953-1.336-1.126-1.286-.5-1.164-.358-1.992-.669-1.942-.234-2.252-.273-2.686.037-5.023-.26-1.448-.062-1.337-.025.162-.494.345-.544.261-.52.259-.458.136-.556-.533-.2-.915-.049-2.264.062-.779.112-1.015.037-1.113-.149-1.658-.334-2.363-.31-1.374-.248-1-.321-.8-.21-.656.384-.89.866-.668.656-.656-.024-.422-1.065-.433-.3-.5-.42-.433-.347-.582-.161-.482-.408-.409-.5-.767-.866-2.388-.049-.26.062-.42.236-.285.087-.433.185-.371.124-.4-.348-.4-.4-.334-.445-.038-.556.174-.273.322-.322-.062-.334-.656-1.3-.259-.705-.3-.605-.272-.571-.321-.817-.26-.531-.248-.631-.557-.608-.482-.345-.482-.124-.26.519-.149.408-.162.719v.482l.062.668.012.532-.259.556-.4.149-.16.173-.248.557-.4-.012.359-.582.024-.4.161-.371.123-.248.174-.334.223-.235.062-.408.013-.433-.446-.347-.259-.061-.5-.063h-.569l-.223.36-.235.135v-.223l.038-.384-.05-.408-.087-.273-.184-.283-.075-.285.3-.061.655.333.322-.061.458-.2.791-.569.148-.446-.11-.643-.261-.482-.2-.4-.21-.446-.211-.47-.4-.346-.545-.347-.581-.407-.111-.606.383.173.469.26.422.21.359.074.3.012.333.161.1.211.124.359.062.272.2.469.173.322.137.309.384.569.37.248.445.1.3.173.149.235.123.347.322.247.333.087h.433l.4.036h.706l.32.273.557.062.583-.249.409-.036.333-.459.087-.421.2-.431.321-.422.384-.222.755.073.631.274.718.37.568.21.507.1.805.211.345-.556v-1.151l.05-.953-.308-.718-.4-.483-.285-.655-.446-.966-.371-.853-.137-.545.05-.828.111-.532.211-.421.359-.123.21-.137.174-1.224-.013-.743-.594-.569-1.039-.507-.854-.483-.569-.581-.953-.9-.421-.532-.161-.879.533-.309h.52l.5-.037.568-.7.606-.186,1.176-.051,1.275-.1.952-1.312.693-.172.272-.287-.012-.37-.309-.236-.136-.309.16-1.633.346-1.052.247-.99.112-.779-.433-.681.223-.606.037-.7-.31-.408-.544-.94.9-.3.434-.507,1.484-1.324.446-.224.5-.222.284-.211.062-.557-.47-.58-.606-.3-.73-.322-.383-.148-.2-.185-.26-.358.3-.607-.111-.285h-.458l-.346-.111-.655-.346-.149-.1-.162-.508-.247-.284-.6-.074-.568.026-.482-.026-.273-.135-.433-.36-.408-.173-.347-.013-.272.05-.2-.062-.235-.371.569-.21.284-.112.656-.1.309-.173.385-.173.357-.3-.357-.358-.3-.346-.112-.433.26-.594.359-.3.422-.221.481-.2.236-.273.05-.842-.891-.852-.656-.422-.841-.519-.9-.594-.3-.124.012-.8.038-.841-.1-.333-.409-.137-.667-.186-.3-.124-.569-.372-.223-.359.471.038.358.037.384-.05.581-.816.879-1.547,1.36-2.128-.4-.619-.988-1.211-.632-.817-.284-.532-.173-.458-.013-.47.283-.4.088-.52-.333-1.3-.3-.891-.074-.853.16-.5.211-.52-.371-1.534-.322-1.336-.074-.966-.495-.89.272-.768.285-.359.767-.52-.693-.842-.223-.4.372-.681.36-.643.4-1.274-.458-.73-.223-.271-.954-.68.582-.447.433-.036.458-.185.2-.507.087-.4.5-.743.557-.469.345-.509-.085-.457-.223-.434-.322-.568-.42-.347-.4-.272-.915-.978-.186-.421.074-.458.346-.173.42-.148.16-.322.2-.63.422.025.062-.631-.062-.347-.545-.457-.668-.161-.668-.21-.285-.038-.062-.248-.148-.631-.432-.124-.285.149-.248-.026-.4-.494-.235.309-.42.2-.273-.037-.371-.2.1-.383.446-1.078.259-.7-.2-.421-.174-.484-.012-.421.42-.865-.246-.533-.618-.642-.508-.086-.532-.1-.68-.111-.259-.137.024-.693.3-.655.545-.991v-.643l-.248-.5-.359-.619-.631-.52-.556-.061-.484.073-.779.013-.235-.038.111-.309.273-.173.123-.384-.148-1.225-.284-.693.222-.73.161-.309-.148-.52-.544-.161-.532-.26-.4-.445.063-.519.421-.234.434-.26.419.036.694.26.8.086.384.211.4.2.285-.012.346-.149.025-.42-.271-.273-.149-.668.1-.173,1.807-1.065.519-.557,1.164-.383.853.05.371-.013.186-.235.012-.507-.05-.878.087-.52.235-.372v-.2l-.285.024.061-.358.062-.359v-.322l-.049-.334-.124.285-.074.235-.013.2-.074.234-.148-.037-.174-.172-.086-.235-.037-.186-.136-.161-.038-.309-.073-.161-.049.21v.248l.074.2.086.162.049.2.062.122-.037.063-.012.284.062.211-.062.148-.259-.125-.148-.222-.224-.024.013.173.037.148.111.185.075.15-.087.471-.112-.087-.185-.137-.16-.012-.087.012-.235.05-.161-.024.111-.112.124-.124.025-.111-.062-.026-.05-.161.074-.074.062-.161.062-.173.024-.2-.222.063-.05-.1.087-.088.124-.109.074-.087-.05-.062-.012-.235-.05-.185-.063-.1v-.212l-.1-.1-.111.085-.68-.1-.123-.037-.248-.137-.148-.271.024-.21.1-.185.42-.21.187-.149.012-.223.085-.136.087-.025h.111l.087-.025.284-.223.062-.3.124-.249.123-.209.248-.038.173.21.087.236.333.26.087.247-.037.162-.172.173.074.05.062.036.111-.013.2-.112.075-.16.012-.111.174-.075.025-.074.024-.174.086-.024h.2l.173.024.111-.074-.1-.161-.136-.161-.087-.135-.074-.149.148.038.272.185.273.235.234.211.111-.062.15-.123.247.061.161-.012.1-.123v-.149l-.21-.16-.186-.111-.149-.124-.086-.2-.112-.025-.148.012-.149-.148.149-.112.161-.112.012-.061-.383-.062-.223.012-.271-.211-.261-.383-.036-.284-.248-.2-.272-.174.075-.359-.026-.334-.209-.049-.557.012-.247.1-.224.1-.235.223-.36.136-.086.123-.111.186-.025.21-.026.111-.049.135v.2l-.024.124-.135.012-.137-.025-.1-.2-.025-.124.062-.2-.073-.061-.1-.013-.124-.136-.024-.185.185-.112.124-.074-.012-.162-.113-.148-.086-.187.075-.135.086-.025.235-.037.075-.136.062-.173.148.012.075.285.246-.038.1-.247.31.173.309.037.161.087.2-.074.4-.186.013-.1-.112-.05-.111-.037-.1-.025.087-.075.111.05.1.012h.2l.087-.049.037-.1.087-.037h.049l.211-.037-.013-.149-.05-.087-.767.013-.1-.087.185-.112.482.025.161-.038.421-.247.174-.285-.161-.483-.086-.135-.161-.05-.458-.037-.346-.1-.445-.137-.818-.3-.481.186-.088.273-.173.371-.062.272-.285.261-.346.023-.21-.1-.136-.533.223-.16.161-.285.111-.31.286-.184.086-.224-.124-.149-.124-.236-.285-.087.768-.32.321.173.309.222.149.038.495-.162.162.037.223.248.136.21.223-.037.271.012.124.309.606.087.334.173.259.186.137.249.185.42.161.26.173-.024-.1-.372-.161-.506-.074-.235-.16-.4.025-.26.667-.024.273.433.272.271.446.471.37.186.1-.061.024-.223.272-.26.174.273.111.284.2.272.1.2.223.124.26-.21.085-.186.211-.271h.322l.4.1.767-.2.284.222-.334.346-.21.335-.038.285.458.173.556.148.57.471-.358.346-.013.322.223.174-.383.185-.05.322-.05.272.062.123.4.186.111.321-.086.087-.557.061-.347.273-.234.346-.012.161.049.135.692.458.978.284.568-.63.768-.285.261.631.1.693.383.681.607.791.409.557.3.3.506-.135.309-.719.223-.384.694-.1.235.272.2.446-.186.42-.272.186.062.235.371-.148.557.209.532.273.531.235.5.495.507.347.508.075.742-.359.966.619.729.457.4.223.322.359.248.384.333.223h.619l.4-.087.631.421.271.3-.346.544.754.94.371.594.42.581.631.174.558-.3.26-.173.409.483v.518l.111.495.445.422.632.3.42.11.051.47.31.607-.087.259-.062.3-.086.433-.05.347.395.284.78.2.247.334.222.383v.284l-.358.557-.272.409.791.235.5.224.569.457.545.321.606.087.3.272.2.47-.013.259-.148.458.038.471-.285,1.62-.136.248-.334-.309-.42-.434-.322-.531-.643-.52-.668-.136-.928.1-.42.1-.2.247.235.532.247.248.049.432-.222.223-.334.545.087.124.358.16h1.077l.272.41-.012.382-.569.657-.83.333-.185.421.333.347.569.2.558.149.05.421-.037.383.519.2.309-.147.322-.186.4-.037.632.025.977.05-.124.743-.024.2.891.037.346.445-.088.37-.432.087-.322.248-.755.99-.359.284-.074.433.3.458.359.111.371-.173.52-.148.284.036.582.273.186.446.26.507.309.718.235.4,1.175.111.57-.111.457-.223.644-.062.632.087.345.36.346.655.187.333.594-.1.321-.2.718.025.408.235.978.373.693.507.42.569.384.4.247.322.285.483-.074.531-.53,1.36-.149.57.025.916-.273.779-.952,1.782-.483,2.586-.631,1.955.124,1.572-.124,1.41.148.174.2-.224.234-.1.173.149.148.346-.062.47.124.668.111.323.372.061.742-.384.383-.148.049.569.792.074.186.668-.471.235-.667.05-.446.26-.619.124.024,1.113.222.693,1.435.025.433.037,1.4-.568.4-.408.557-.372.865-.26.595.408.372.174.506-.038.408-.172.372-.347.347-.383,1.188-.767.927-.05.458.321-.086.532-.15.582.174.681,1.065.135.766.408.768.063.631-.321.432-.211,1.571-.012,1.5.2,1.559.433.99.3.841.593.718.211.681.247.643.236,1.1.8.6.433,1.474.05,1.176-.013.877-.148.88-.063.593.621.31.568.271.63-.012.594-.1.681.05.643.235.446.656.321.532.5.7.73.347.854.359.779.4.828.247.52.384.928.421.26.63.087.471.135.582.371.446.594,1.039-.012,1.261.049.62.222.668.644.495.606.185,1.125.173.718.086.78-.174.568-.174,1.263.149.716.334.817.123.754.087.594.434.4.8.434.482.382,2.129.471.841-.3.693.47.964.583.965.667.557.508.408.471,1.374.53.57-.271.581-.235.544-.074.644.211.3.531v.829l.21.645.112.495-.434.755-.508,1.076-.754.247-.285.025-.5-.21-.1-.2-.31.47-.568.371-.211-.285-.062-.42-.483-.112-.371.335-.421.025-.322-.544-.557.445-.384.173-.061.408-.037.953.136.063.532-.322.321-.309.4-.111.495.036.347.272.136.458.112.372.161.321-.025.335-.223.383.235.123.4-.321.135-.1.248-.012.26.161.248.284.3.26.445.371.16.421.013.322-.2.322-.173.185-.408.385.384.025.2-.137h.693l.582.236.742.446.568.335.137.333-.05.333-.3.669-.581.569-.632.259-.321.223-.088.583.161.359.372-.137.271-.248.408-.086.334.31.074.37-.025.383-.012.385.26.036.4-.26.631.012.3.3.261.533.1.421.482.11.384.113.543.086.471-.062.47-.246.421-.458.432-1.028.4-.025.595.161.47.334.321.371.829.335.42-.187.445-.21.558.012.594.421.383.4.26.767.173.533.273,1,.495.508.556.3.8.333.681.273.457.222,1.078.767.532.545-.235.223.062.532.557.519.495.3.433.26.47.321.309.384.111.794-.161.345-.161.532.31.619-.049.989v2.587l-.013,1.521.137,2.029.136.445.025.361-.088.42-.26.334-.445.384.061,1.027.124.334-.1.458-.222.271-.434.261-.9.445-.99.693-.471.446.1.594.371.743.791,1.013.05.3-.135.433-.063.457.124.422.3.433.247.58-.111.805-.161.607-.408,1.15-.148.347-.309.186-.645.248-1.521.482-.78.235-.482.273-.656-.632-.779-.655-.805-.755-1.546-.556-.582-.26-1.46-.334-1.682-.234-1.064.815-.545.038-.619-.4-.643-.57-1.659.223-.036-.9-.136-1.088-.383-1.559-.335-1.175-.57-.657-.568-.594-.322-.989-.681-1.473-.4-.63-.632-.608-.52-.444-.335-.458-.234-.767-.211-1.026-1.324-.5-.779-.2-1.052-.086-.817.532.025.521-.212,1.3-.086.495-.409.618-.407.558-.409,1.1-.31.768-.087.681.063,1.039.012.966.148.656.112.519-.31.148-.681-.062-.8-.323-.705-.26-.372-.086-.7-.47-.372-.259-1.212-.149-1.2.012h-1.2l-.532-.211-1.25-.234-.792-.322-1.51.074-2,.074-.917.532-.495.891-.482.358-.705.57.012.407.049.842-.1.568-.383.186-.482.235-.557.457-.718.879-1.113.767-.569.73-.94.495-.235.692-.929,1.213-.581.434-.668-.087-2.388-.581-2.586-.544-.718-.483-.284-.111" transform="translate(-1093.98 -1324.49)"  stroke="#fff" stroke-linecap="square" stroke-linejoin="bevel" stroke-width="1" fill-rule="evenodd"/>
      <text id="talId70count" transform="translate(38.129 94.373)" fill="#fff" font-size="10"  font-family="OpenSans-Bold, Open Sans" font-weight="700"><tspan x="0" y="0"></tspan></text>
    </g>
    <g id="MaanTaluka"  data-name="Maan Taluka" transform="translate(1877.045 318.28)">
      <path id="talId72" fill="#7DB8EC" title="Maan Taluka"  data-name="Maan Taluka" d="M1162.964,1327.279l.05.284.124.2.26.1.458-.2.149-.149.334-.321.024-.211-.086-.123-.186-.05-.186-.037-.161-.074-.1-.074-.124-.346-.136-.173-.1-.123-.112-.137-.037-.148.359-.088.161-.285.247.063.161.013.063.271.135.186.062.1.3.222.11.136.05.11.074.149.173.161.075.148.137.111.074.049.012-.2-.049-.173.061-.086-.012-.086-.049-.075.024-.123.111-.408.05-.224-.136-.148-.049-.124-.037-.174.122-.173.075-.136.123-.235-.185.037h-.248l-.161-.1.112-.125.111-.024.075-.1-.062-.136-.063-.137.013-.1.161.063.2.025.2.037.545.124.16-.124.148-.148-.049-.137-.2-.185-.347-.384-.4-.124-.185-.112-.26-.283.075-.187.062-.173-.038-.148-.024-.125.185.136.185.111.149.1.371.4.248-.075.085-.074.074-.186.111-.111.137.012.26.123.309-.049.347.012.149-.112.124-.16-.026-.15-.024-.148.062-.062.037-.173-.173-.1-.2-.048-.234.048-.124.013-.087-.173.1-.1.112-.2.149-.026.16.111.2.037.457-.037.248.123.05.261.025.21.148.074.2.05h.161l.347-.025.012.16-.136.026-.148.061-.236-.012-.2.05-.062.1-.013.2-.037.149-.062.1-.173.074-.285-.074-.2.061-.086.173-.111.124v.161l.135.074h.21l.136.037.086.062.2.025.21.05.1.074-.075.136-.037.062-.223.086-.062.075.062.049.1.024.383-.024.409-.113.248-.025.222.038.148.012.024.211.025.173.013.185-.05.2-.074.1-.137.038h-.148l-.186-.075-.5-.061-.284.061-.186.075-.284.024.038.1.087.1.321.52.186.174.161.16.049.186.235.173-.012.4-.371-.174-.334-.135-.458.074-.26.285-.1.446.347.433.532.26.581.285.371.074.236-.135.321.111.421-.111.371.32-.025.285.162.247.483-.234.407-.3.26-.148.458.024.322.335-.074.21-.161.2-.075.21.372.322.26.346-.148.3-.285.085-.433-.012-.607.483-.112.284.483.111.941-.061.407.186-.074.408-.321.259-.309.248-.2.582.384.322.445.074.532-.21.272-.309.594-.334.062.545.087.4.247.394.26.273.47.075.087.247.074.358.681.36.37.222.818.172.655.064h.371l.335.4.173.222.123-.186.124-.285.211-.446.383-.073h.4l.223-.149.062-.533-.1-.322-.7-.1-.458.037-.383-.037.037-.594.308-.173.5-.223.445.26.557.284.706.248.469.061h.334l.4-.136.112-.507.965-.136.446.347-.124.63-.446.273-.334.186-.123.421-.074.582.21.333.618-.347.124.3.173-.124.223-.3.434-.272.271.062.137.52.384.174.434.037.656.075.406-.1.174-.286-.05-.358-.2-.272-.012-.482.272-.285.124-.025.63-.148.248.731.2,1.014-.978,1.372-.174.644.433.259.792-.111.656-.011.384-.075.42-.074.531.074.248.211-.495.124-.148.173.271.3-.271.507-.618.221-.323.484.705.012.038.248-.594.32-.471.52.137.149.322-.235.421-.248.174.259-.372.3.037.4.347-.087.26-.234.209-.31.149-.322.57-.321.371-.061.248.259-.174.482.235.409.161-.161.209.271-.037.4.148-.063.037-.618-.1-.174.136-.222.137-.124.47.235.112-.31-.335-.247-.211-.755-.494-.26-.037-.37.185-.049.185.284.248-.062.26.025.074.222.186.546.235.272.174-.1.135-.321.284-.062.025.322.049.36.161.395.26.248.359.42-.124.26.012.273.446-.161.482-.062-.147-.407.4.2v-.334l-.519-.31-.471-.36-.2-.431.3-.2.754.223.025-.321.185-.1.581.445.161-.321-.05-.273.507.1.359.124.2-.149-.247-.247-.519-.2-.483-.049-.581-.025-.891-.161.037-.234.89.146.792-.246.484.026.741-.049.3-.311.173-.123.434.074-.05-.3-.408-.086-.4.086-.47-.073-.309-.173-.5-.2v-.359l.31-.234.58-.323h.458l.186-.024-.147-.607-.434-.928,1.076-.271.2-.138.37-.2.062-.754.087-.681.656-.26.52.21.284.247.556.124.508.136.321-.594.273.222.209,1.25.434.26.966.075.445.605.334.284.421.5.2.161.259.3.174.692-.013.582v.594l.149.505.073.423-.209.458-.1.359.543.321.285.209.186.707.372.507.655.049.656.2-.037.186-.582.16-.543.162-.421.371.161.234.717.224.495.135.52.2.173.346-.3.409-.359.149-.617-.174-.52.113-.273.37.111.384.484.285.543-.026.669.236-1.064.445-.421.383-.123.261.21.469.3.322.247.148.482-.21.335.1.111.421-.136.322-.161.421.223.3.507.049.372-.222.333-.507.038-.4-.013-.681.1-.507.4-.767.409.21-.174.707-.2.494-.037.408.248.4.346-.52.211.174.21-.087.384-.593.285.333-.125.359-.21.383-.322.285-.2.2-.149.594.026.531.357.087.533.161-.124.445-.766-.036-.5-.049-.532.112-.285.507.4.494.433.1.483.285.258-.346.545-.447.21.235.681-.408.271.087-.3.383-.544.323-.458.161-.372.261-.222.444.606.3.359.025.247-.248.149.372.273-.013.729-.185.409-.767.074-.408.607-.323.222.062-.408.755.124.371.137.309.4.42.235-.21.557-.359.211-.2.185-.136h.495l.309.433.346-.136.049-.544.211-.174-.1-.47.495.211.383-.73.421-.246-.086.79.3.124.569-.11.581-.051.581.211.434-.334.495-.4.123-.37-.087-.261.272-.025.644-.248.595-.458-.248.446-.545.384-.371.148-.123.333-.247.6-.7.742.161.371.618.21.334.049.422-.061.223-.125.21-.123h.47l1.076.236.582.26.617,1.138.657,1.312-.223,1.6-.706.049-.432-.445-.248-.4-.247-.284-.112-1.015-.21-.606-.4-.124-.927.173.582.273.184.445.05.4-.408.384.68.358.321.4.186.309.05.582-.359.123-.445-.272-.321-.408-.581-.211-.409.384-.111.619.223.606.508-.148.173.482.569-.259.347.457.16.075.643-.346.346-.383.4-.075.037.445-.124.694-.186.332-.05.186-.4.026-.272.322.038.3.556-.049.3.371.272.285.5-.161-.136-.718-.074-.767.26-.818.569-.186-.049,1.04-.1.346.321.026.285-.421.309.136-.1.979-.162.32.359.076.409-.631.2-.607.482-.965.768-.309.706-.521.655-.629.8-.41.9.224.5.878.347.742.494,1.113,1.436.471,1.422.495,1.645.828,1.757.843.706.384,1.423,1.125,1.064.608.383,1.038.384.855.668.9,1.881,1.894.8.655.593-.408.854-.47.545-.161.58.273.187.879.495.432.853-.606,1.177-.545.692.049.991.2,1.114.384.767.594-.024.742-.657.83-.272.631-.112.9-.308,1.041-.136.582-.322,2.956.223.767.37.433.78.471.866.68.013,1.1.247.569.545.358h.409l1.2-.321.334.481.99,1.757.223.928.21.58.038.866.433.237.161.8.136.62.322.211-.05.618.087.557.506.322.607.384.335.729.024.792.075.644-.161.519-.087.372.173.335.421.322.223.346.246,1.3.3.284.2.359.2.4-.977.532-.495.57-.9.7-.927.693-.57.63-.619,1.584-.519.544-.52.743-.2.161-.507.3-.433.359-.161.385-.012.569.136.965-.05.284-.074.385.038.284.124.433.234.409-.2.185-.075.2.05.5.2.568-.025.979-.074.766-.087.57-.556.842-.248.58-.731.705-.656.83-.471.5-.717.581-1.386.594-1.324.173-.063.9.124,1.571-.05.8.52,1.46.3.9.247.755.26.991.124,1.249-.211.482-.3.26-.012.409-.037.841-.049,1.435-.1.867-.048.569-.644.8-1.051.854-1.151.816-.236.284-.247.557-.111.581-.235.384-1.065,1.213-.68.469-.916.31-.915.557-.285.432-.631,1.078-.421,1.065-.531.605-.533,1.435-.161.409-.2.359-.185.1-.346-.113-.4-.258-.446.037-.124.457-.322.742-.383.891-.495,1-.607.532-.816.173-1.806-.544-1.188-.507-1.51-.285-1.336-.457-1.225-.606-1.51-.806-1.867-1.273-1.1-.755-1.819-.828-3.427-.422-1.819-.1-2.178-.259-.853-.087-.186-.26-.149-.236-.271-.383-.421-.434-.643-.259-1.162-.259-1.585-.112-1.832-.247-.408-.112-.743-.258-.717-.013-1.028.075-.594.111-.532-.544-1.077-.768-.457-.222-.681-.272-.8-.333-.556-.3-.495-.507-.273-1-.172-.531-.26-.767-.383-.4-.594-.421-.557-.012-.445.211-.42.186-.829-.335-.321-.37-.471-.334-.593-.162-.4.024-.433,1.027-.422.458-.469.247-.47.063-.544-.086-.383-.111-.483-.112-.1-.42-.26-.532-.3-.3-.631-.013-.4.26-.259-.036.012-.384.024-.383-.074-.372-.333-.309-.408.087-.272.248-.371.136-.163-.36.088-.581.321-.222.632-.259.581-.57.3-.667.05-.334-.136-.335-.569-.334-.742-.445-.582-.236h-.692l-.2.137-.383-.024.408-.385.173-.186.2-.322-.012-.322-.16-.421-.446-.37-.3-.26-.248-.285-.26-.161-.247.012-.136.1-.4.323-.236-.125.223-.384.025-.334-.16-.321-.112-.372-.136-.458-.346-.272-.5-.037-.395.111-.323.31-.532.321-.135-.062.036-.953.063-.407.384-.173.557-.446.32.545.422-.025.372-.334.482.112.062.42.211.284.569-.37.309-.471.1.2.495.21.285-.024.755-.247.507-1.078.433-.753-.111-.5-.21-.644v-.83l-.3-.532-.644-.21-.544.074-.582.235-.57.273-1.372-.534-.409-.469-.555-.507-.966-.669-.966-.58-.693-.471-.84.3-2.128-.471-.482-.383-.8-.434-.433-.4-.087-.594-.124-.754-.334-.816-.148-.718.173-1.262.173-.568-.087-.78-.173-.718-.186-1.125-.494-.607-.668-.642-.619-.223-1.262-.049-1.039.012-.445-.594-.582-.372-.471-.136-.63-.087-.421-.26-.384-.928-.247-.52-.4-.828-.359-.781-.346-.852-.706-.731-.532-.495-.656-.321-.235-.446-.05-.644.1-.678.013-.6-.272-.631-.309-.568-.595-.619-.879.062-.878.148-1.175.012-1.473-.05-.605-.433-1.1-.8-.643-.236-.68-.247-.718-.211-.841-.593-.99-.3-1.56-.433-1.5-.2-1.571.012-.433.211-.63.322-.768-.062-.766-.409-1.065-.136-.173-.681.149-.581.085-.531-.458-.323-.927.05-1.187.767-.347.383-.371.346-.408.173-.507.038-.372-.173-.594-.409-.865.26-.557.372-.4.408-1.4.569-.433-.037-1.435-.024-.223-.693-.024-1.114.618-.123.446-.259.667-.05.471-.234-.187-.669-.792-.073-.049-.569-.383.148-.743.384-.372-.063-.111-.32-.124-.668.063-.471-.148-.347-.173-.148-.235.1-.2.223-.148-.173.124-1.411-.124-1.57.631-1.956.483-2.585.953-1.781.272-.78-.025-.916.149-.569.531-1.36.075-.533-.286-.482-.246-.321-.384-.4-.421-.569-.693-.508-.977-.37-.408-.235-.717-.026-.322.2-.594.1-.185-.334-.347-.656-.345-.359-.631-.087-.644.061-.457.223-.57.111-1.175-.111-.235-.4-.309-.718-.261-.507-.185-.446-.582-.271-.283-.037-.521.147-.371.174-.359-.112-.3-.457.073-.433.359-.285.755-.989.321-.247.434-.087.086-.371-.345-.446-.891-.036.024-.2.124-.742-.977-.05-.632-.024-.4.037-.321.186-.31.149-.519-.2.037-.384-.05-.421-.556-.15-.57-.2-.333-.347.185-.42.829-.335.569-.655.012-.384-.272-.408h-1.077l-.358-.162-.087-.124.335-.545.221-.222-.05-.433-.246-.248-.235-.532.2-.247.421-.1.928-.1.667.136.644.521.323.532.42.432.333.309.137-.247.284-1.621-.037-.47.149-.458.012-.26-.2-.47-.3-.271-.606-.087-.545-.322-.57-.458-.494-.223-.792-.235.273-.407.359-.557v-.285l-.224-.384-.247-.334-.779-.2-.4-.285.05-.346.087-.433.062-.3.088-.259-.31-.606-.05-.471.89-.036.434-.05.531-.136.519-.148.508-.038.3-.024,1.274-.038.446-.223.149.632-.025.3-.224.322-.2.248-.087.333.323.3.4-.149.173-.112.359-.122.346-.074.248-.211.086-.248-.024-.643.024-.4.074-.408.261-.248.285-.285.136-.209-.136-.4-.346-.248-.174-.222.285-.124.384.172.235.236.829.1.543-.025.433-.076.16-.123.062-.209-.037-.483-.173-.359-.457-.334-.4.124-.013-.4-.482-.321.123-.2.5.111.285.075.433-.186.4-.247.495-.26.271-.062.385.248.221-.149-.061-.569.086-.458.594-.457,1.065.013,1.386-.087.642-.259.458-.422.261-.482.235-.445.025-.632-.211-.544.062-.446.347.137.346.494.234.235.36.223.582-.074.57.049.383.185.062.471.273.087.359-.185.247-.433.422-.792.642-.4.57.15.173.3.062.371-.2.222-.334.173-.063.174.038.284.21.322.062.3.05.185.2.062.371-.235.221-.345.323-.136.285-.025.222.025.334-.2.248-.285.148-.272.086-.383.285-.309,2.215-.1.693-.482.532-.161.607-.223.915-.21.446-.187.606-.172.594.036.148.236-.222.187-.409.135-.173.273-.037.334.322.3.359.209.395.261.669.78.4.186.347-.1.432-.334.4-.173.4-.013.284-.086.223-.185.061-.323.21-1.286-.4-.371-.47-.557-.755.051-.062-.3.161-.2.285-.025.2-.211.086-.334.161-.458.371-.185.321-.185.173-.286.087-.186.21.336.124.333.012.334.05.458h.458l.384-.248.172-.247.025-.224.173-.717.446-.668.285-.507.074-.273.05-.458.087-.606-.21-.185-.285-.136-.248-.111-.273-.21-.457-.123-.161-.262-.112-.308-.409-.434-.185-.148-.1-.3.112-.186.3-.025.186.37.222.235.124.211.112.073.148-.086.1-.3.013-.124.123-.085.223-.162.013-.135.012-.173.322-.014.111-.136.3-.16.074.223-.123.359-.235.395-.185.237-.137.223-.1.2-.025.134.025.173.038.113.062.087.186.161.161-.1.087-.124.124-.138.123-.123.063-.112.136-.2.087.063-.05.185.013.135-.025.261.087.012.162-.086.333-.173.161.1.049.149-.013.161.038.185-.012.161.05.187.124.049.211-.062.074-.063.074-.111.125-.382-.075-.223-.111-.236-.086-.173-.075-.148-.037-.211.248.037.136.16.1.162.124-.012.062-.186.161-.075.074.1.184.185" transform="translate(-1123.73 -1321.13)"  stroke="#fff" stroke-linecap="square" stroke-linejoin="bevel" stroke-width="1" fill-rule="evenodd"/>
      <text id="talId72count" transform="translate(66.498 63.497)" fill="#fff" font-size="10"  font-family="OpenSans-Bold, Open Sans" font-weight="700"><tspan x="0" y="0"></tspan></text>
    </g>
    <g id="PhaltanTaluka"  data-name="Phaltan Taluka" transform="translate(1822.125 264.375)">
      <path id="talId75" fill="#7DB8EC" title="Phaltan Taluka"  data-name="Phaltan Taluka" d="M1199.245,1344.292l-.633.149-.123.025-.273.284.012.483.2.273.049.359-.174.284-.408.1-.655-.075-.433-.037-.385-.173-.135-.52-.273-.062-.432.273-.224.3-.173.123-.124-.3-.619.347-.21-.334.074-.582.123-.422.334-.185.446-.272.124-.631-.445-.346-.965.136-.111.507-.4.136h-.334l-.469-.061-.705-.248-.557-.285-.445-.261-.495.224-.309.174-.037.593.383.038.458-.038.705.1.1.322-.062.53-.222.149h-.4l-.382.074-.211.446-.123.284-.124.187-.174-.223-.334-.4h-.372l-.656-.062-.817-.173-.371-.223-.681-.36-.075-.357-.086-.249-.47-.073-.261-.272-.247-.4-.086-.4-.062-.544-.593.333-.273.309-.532.211-.444-.074-.384-.322.2-.58.308-.248.322-.26.075-.409-.409-.185-.94.063-.483-.112.11-.283.607-.483.434.012.283-.086.149-.3-.26-.346-.37-.323.074-.209.161-.2.074-.21-.321-.335-.458-.025-.26.149-.409.3-.482.235-.161-.247.025-.285-.371-.322-.421.111-.322-.111-.236.136-.371-.074-.581-.285-.533-.26-.346-.432.1-.447.261-.284.458-.074.334.136.371.172.014-.4-.236-.173-.05-.185-.161-.161-.184-.173-.323-.52-.086-.1-.037-.1.285-.025.184-.074.285-.062.5.062.185.074h.149l.136-.037.074-.1.049-.2-.012-.185-.024-.173-.026-.211-.148-.013-.222-.036-.247.024-.409.112-.384.024-.1-.024-.062-.05.062-.074.223-.086.037-.062.075-.136-.1-.074-.21-.049-.2-.026-.086-.061-.137-.037h-.21l-.135-.074v-.161l.11-.124.087-.173.2-.063.284.075.173-.075.062-.1.037-.148.012-.2.062-.1.2-.05.236.012.148-.062.136-.025-.012-.16-.347.023h-.161l-.2-.049-.148-.074-.025-.211-.05-.26-.246-.124-.459.036-.2-.036-.161-.112-.149.025-.112.2-.1.1.087.174.123-.012.236-.05.2.05.173.1-.037.173-.062.061.025.148.025.148-.124.161-.148.111-.346-.012-.31.05-.26-.124-.135-.013-.112.111-.075.186-.086.074-.248.074-.37-.4-.149-.1-.186-.111-.186-.136.026.124.036.149-.061.173-.074.187.26.284.186.111.4.124.347.384.2.185.05.136-.149.148-.161.124-.545-.124-.2-.037-.2-.025-.161-.061-.013.1.063.136.061.136-.074.1-.111.025-.111.123.161.1h.247l.186-.038-.125.235-.074.136-.123.174.037.173.049.124.136.148-.049.223-.111.408-.025.124.049.074.013.087-.062.086.049.173-.013.2-.074-.049-.136-.111-.075-.148-.174-.161-.074-.149-.049-.112-.113-.136-.3-.222-.061-.1-.136-.186-.062-.272-.161-.012-.247-.062-.16.284-.36.086.038.148.112.136.1.124.136.173.123.347.1.075.161.074.187.037.185.05.085.123-.024.211-.333.321-.149.149-.458.2-.26-.1-.123-.2-.05-.284-.186-.185-.074-.1-.162.074-.061.186-.124.012-.1-.16-.136-.161-.248-.038.038.21.075.149.087.173.11.235.075.223-.123.384-.075.111-.073.062-.211.061-.124-.049-.049-.186.012-.161-.037-.186.012-.161-.049-.148-.161-.1-.334.173-.162.087-.086-.013.025-.26-.012-.135.051-.185-.087-.062-.136.2-.062.11-.123.123-.124.137-.087.124-.161.1-.186-.16-.061-.087-.037-.112-.025-.172.025-.136.1-.2.136-.223.185-.234.236-.4.123-.359-.075-.223-.3.162-.111.136-.321.012-.012.174-.013.137-.222.16-.124.087-.013.123-.1.3-.149.087-.11-.074-.124-.21-.222-.235-.187-.372-.3.026-.111.185.1.3.186.148.408.434.112.308.16.261.458.123.272.211.248.112.285.136.21.186-.087.606-.05.458-.074.272-.285.508-.446.668-.174.717-.025.223-.172.247-.383.248h-.458l-.05-.459-.013-.334-.123-.334-.21-.335-.087.186-.174.285-.322.186-.37.186-.161.458-.087.333-.2.211-.285.025-.16.2.061.3.755-.049.469.556.4.372-.211,1.287-.061.322-.223.186-.284.086-.4.012-.4.173-.434.334-.345.1-.4-.185-.669-.779-.4-.26-.358-.211-.322-.3.036-.334.173-.272.407-.136.224-.186-.148-.235-.594-.038-.607.173-.445.186-.917.209-.606.223-.531.161-.692.482-2.216.1-.285.31-.086.384-.149.271-.247.284-.335.2-.222-.025-.285.025-.321.137-.224.346-.371.235-.2-.061-.05-.186-.062-.3-.211-.322-.035-.285.061-.173.334-.172.2-.223-.062-.371-.172-.3-.569-.148-.644.4-.42.792-.248.433-.359.186-.272-.087-.062-.47-.383-.185-.569-.05-.581.074-.361-.222-.235-.235-.345-.5-.346-.136-.062.445.21.545-.025.63-.235.446-.259.483-.458.419-.643.26-1.386.087-1.063-.011-.595.458-.087.458.062.568-.223.149-.383-.248-.273.063-.495.259-.4.248-.432.186-.285-.074-.5-.112-.123.2.484.322.012.4.395-.125.458.335.173.358.037.482-.062.211-.161.123-.432.075-.545.025-.829-.1-.235-.234-.383-.174-.285.124.172.223.347.247.135.4-.135.209-.284.284-.259.248-.075.409-.025.4.025.643-.087.248-.248.21-.346.074-.359.123-.173.112-.4.149-.321-.3.086-.335.2-.248.224-.321.025-.3-.149-.631-.446.224-1.274.037-.3.025-.508.037-.519.149-.532.135-.434.05-.89.037-.42-.112-.632-.3-.446-.422-.112-.494v-.519l-.407-.483-.261.173-.556.3-.631-.173-.421-.582-.37-.594-.755-.94.346-.545-.273-.3-.63-.42-.4.086h-.619l-.334-.222-.248-.385-.321-.358-.4-.222-.731-.458-.965-.619-.743.359-.506-.074-.507-.346-.5-.5-.532-.235-.532-.272-.558-.209-.371.148-.063-.235.274-.186.185-.421-.2-.444-.235-.273-.692.1-.223.384-.31.718-.507.136-.295-.3-.41-.557-.607-.792-.383-.68-.1-.693-.259-.63-.768.284-.569.631-.978-.285-.693-.457-.049-.136.011-.161.236-.347.346-.273.557-.061.087-.087-.111-.322-.4-.186-.062-.122.049-.274.049-.32.384-.186-.222-.174.012-.321.359-.346-.569-.47-.557-.149-.458-.173.037-.285.211-.334.334-.346-.285-.223-.765.2-.4-.1h-.323l-.21.272-.087.185-.26.21-.222-.123-.1-.2-.2-.272-.112-.284-.173-.272-.273.26-.025.224-.1.061-.372-.186-.444-.47-.272-.273-.273-.433-.669.025-.025.26.162.4.074.235.161.508.1.371-.174.023-.161-.259-.187-.42-.136-.248-.258-.185-.334-.174-.607-.088-.124-.309-.272-.013-.224.037-.135-.21-.223-.248-.161-.036-.5.159-.147-.036-.311-.223-.321-.173-.569-.173-.668-.286-.544-.26-.311-.174-.333-.149-.459-.049-.816-.4-.235.061-.21.322-.261.445-.643.545-.519.444-.5.557-.186.148-.469-.037-.62.656-.607.593-.408.259-.272-.223-.2-.321-.21-.321-.385-.359-.594-.136-.617-.013-.4-.31-.3-.334-.657-.137-.431.087-.694.025-.581-.038-.47.21-.656-.444-.631-.136-.692-.384-.545-.309-.284-.346-.5-.482-.915-.049-.941.036-.692-.074-.718-.335-.433-.222-.283-.4-.187-.532-.111-.681-.161-.568-.136-.5.037-2.524-.383-.718-.482-.8-.495-.371-.854-.545-.322.2-.482.086-.273-.235.05-.482.272-.581.309-.656.383-.718.322-1.238.372-.988.185-.9-.024-.594.321-.681.125-1.212.394-.656.025-.619.087-.68-.248-1.25-.184-2.339.4-.582.074-.816-.543-.531.3-1.163-.247-1.374.4-.755.172-.656-.382-.89.048-1.287.137-.607.718-.5.73-.408.593-.3.508-.26.347-.21.024-.718-.483-.421.532-.829.68-.21.669-.113.52-.123.89-.434,1.139-.853.47-.595,1.323-1.719.26-1.361.161-.9.556-.953.273-.669.309-.605.482-.483.259-.359.557-1.324.543-.606.112-.383-.2-.545-.26-.371v-.471l.779-1.088-.1-.533-.347-.161-.3-.543.307-.78.335-.729.186-.692.222-.608.26-.309.569-.271.123-.223-.234-.161-.012-.458.258-.174.124-.272-.136-1.423.458-.012.631-.087.3-.185.519-.272,1.633-.222.8-.161.359.05.692.211.93.234.778.4.594.693.273.519.236.409.222.223.383.322.595.545.285.211,1.188.493.941.929.717.432,1.028.26.507.2.606.186,1.078.458.877.247.619.05.655-.174.594.05.681.111.854.1.631.173.334.382.147.359.162.4.222.272.409.248.321.062h.384l.309-.05.5-.223.829-.779.4-.21.422-.075.519-.037.557.037.494.037.272-.136.359-.531.694-1.325.458-.977.346-.57.42-.359.669-.408.593-.223.421-.024.644-.025.469-.149.52-.347.285-.247.68-.4.867-.383.9-.556.495-.211.781.074.371.173.246.211.372.309.222.334.074.408.2.78.073.334.049.124.074.111.136.075.458.123.385.111.3.123.149.074.21.124.124.161.111.174.247.618.457.767.47.9.285.322.2.172.557.384.743.433.421.124.309.062h.457l.173-.049.333-.371.532-.334.445-.21.557-.087.31-.013.259.087.187.048,1.608.706.7.111.668-.186.557-.086.865-.012,1.1.508.953.446.643.11,1.261.223,2.327.445.99.78.458.47.235.334.223.383.432.273.508.173.545.223.5.333.234.272.248.309.16.458.2.3.4.358.4.209.4.137.631.049.57-.025.667-.186,1.337-.309.965-.272.841-.544.47-.4.631-.409,1.088-.593.408-.161.558-.05h.408l.37-.012.421-.124.471-.284.458-.31.519-.136.867-.087h.458l.8.384.534-.075.519-.21.483-.149.445-.061.606.049.706.186,1.25.359,1.04.236.4.061.557-.1.556-.21,1.089-.433.78-.421.409-.582.271-.495.311-.557.284-.247.594-.161,1.188-.21.594-.062.965.247.607.446.458.7.358.582.4,1.076.383.792.31.285.458.187.42.012.52-.037.409.037.618.321.135.286.062.309v.693l.049.161.234.209.148.088.2.111.248.05.285-.013.174-.062.16-.211.088-.42-.026-.371.062-.385.149-.309.272-.4.5-.321.408-.112.618.087.335.137.507.271.372.31.495.333.532.311.631.656.358.246.581.2.422.013.582-.1.4-.112.458-.11.644-.148.643-.112.656-.358.656-.669.173-.52.2-.407.274-.223.457-.062.346.124.544.408.261.246.247.286.235.284.187.3.086.347.013.3.024.408.087.3.123.2.149.136.359.161.2.012.433-.074.345-.384.248-.359.174-.494.26-.284.272-.186.383-.173.4-.261.3-.532.311-.643.383-.582.185-.828-.049-.681-.075-.457.037-.36.211-.271.668-.3.865-.16.384-.05.606-.05.322.05.3.136.1.123.458.507.508.508.481.371.4.26.4.247.421.222.359.147.309.074.668.05.385.086.26.211.358.508.173.692v.655l.2,1.139.334,1.039.284.73.26.643.272.37.593.26.643.012.422-.086.222-.087.483-.149.408.087.235.1.286.247.135.273.074.135.383.817.272.372.483.2.533.31.469.209.508.174-.829-.1-.322.174-.36.1-.235-.013-.2-.074-.136-.024h-.112l-.148.037-.137.1-.049.025-.445.346-.273.025-.26-.012-.21.037-.211.062-.149.086-.32.285-.458.236-.309-.074-.261-.063-.1.063-.2.123-.038.21-.136.236-.209.123-.322.161-.334.025-.235-.148-.186.012-.123.186-.322.359-.135.161-.162.173-.246.124-.446.161-.272.221-.433.335-.383.507-.383.359-.446.186-.433.259-.223.223-.4.334-.8.259-.4.273-.136.1-.358.1-.272-.025-.012.52.012.421-.049.681.4.52.518.63.322.731.222.63.062,3.119-.42,2.251-.52,1.67-.308,1.461-.521,3.018-.582,2.054-.679,1.2-.112.854-.112,1.312-.186,1.126-.928,1.434-.532.681-.681.087-.606.458-.235.358-.272.644-.235.916-.05.9-.754.965-.705.421-.408.619-.248.852-.161,1.028.273,1.856.272.729.162.718.21.631.161.94-.779.693-.965.309-1.535,1.374-.89.334-.644.223-.878.037-1.063.445-.272.594" transform="translate(-1079.24 -1277.59)"  stroke="#fff" stroke-linecap="square" stroke-linejoin="bevel" stroke-width="1" fill-rule="evenodd"/>
      <text id="talId75count" transform="translate(52.418 43.401)" fill="#fff" font-size="10"  font-family="OpenSans-Bold, Open Sans" font-weight="700"><tspan x="0" y="0"></tspan></text>
    </g>
    <g id="KhandalaTaluka"  data-name="Khandala Taluka" transform="translate(1744.937 241.776)">
      <path id="talId69" fill="#7DB8EC" title="Khandala Taluka"  data-name="Khandala Taluka" d="M1095.87,1324.13l-.545.124-.655-.038-.471-.185-.494-.247-.458-.211-.359-.074-.42-.086-.174.111-.259.037-.235-.111-.5-.1-.136-.013-.62-.1-1.014-.532-.829-.136-.384-.062-.4-.26-.5-.383-1.064-1.151-.9-.7-.556.012-.347-.087-.186-.161-.532-.383-.531.247-.433.148-.731-.594-.482-.359-.483-.42-.52-.322-.655-.124-.569-.025-.618-.087-.508-.161-.457-.161-.507-.2-.21-.2-.087-.68-.049-.4-.112-.333-.693-.334-.655-.371-.136-.78-.223-.768-.482-.717-.792-.68-.767-.273-.483-.037h-.309l-.694-.531-.654-.557-.669-.2-.446-.285-.421-.309.124-.47.519-.223.608-.2.518-.21.323.037.272.47.433.062.5-.222.209-.211.074-.348-.124-.457-.321-.606-.358-.408-.941-.037-.519.074-.273-.012-.631-.185-.3-.3-.644-.012-.619.3-.4.3-.506.174-1.064.011-1.113-.037-2.1-.049-.816-.21-.26-.421-.2-.358-.074-.458.049-.532.088-.5-.534.569-.309.409-.26.4-.2.234-.247.185-1.015-.271-.866.049-1.1-.309-.977-.161-.569-.187-.557-.445-.755-.52-.532-.222-.569-.123-.508-.136-.594-.087-1.039.024-1.361-.557-.706-.334-.557-.334-.419-.334-.384-.234-.52-.062-.458-.037-.248-.1-.308-.346-.2-.384-.248-.272-.533.2-.285.272-.544.3-.421.149-1.064.384-.916-.52-.47-.446-.594-.284-.606-.049h-.643l-.384-.087-.569-.185-.47-.187-.186-.309-.012-.506-.086-.546-.186.087-.235.531-.372.149-.507.223-.657.248-.569.284-1.1.952-.779.087-.582-.037-.619-.186-.421-.358-.322-.4.075-.471.049-.606-.408.024-.31.607-.408.408-.47.494-.383.173-.619-.2-.9-.284-.78-.495-.037-.644.013-.506.172-.371.322-.173.21-.322.025-.458-.285-.124-.408.224-.358.284-.4.346-.569.42-.444.247-.36.038-.544-.161-.619-.482-.544-.31-.507-.668-.061-.421.42-.544.173-.346-.05-.57-.544-.617-.569-.4-.26-.643-.754.136-.557-.581-.3-.483-.531-.556-.075-.372-.049-.742-.173-.8.272-.458.111-.431-.1-.47-.211-.607-.235-.432-.52-.137.3-.371.3-.235,1.584-1.411.272-.434.111-.234-.123-.273-.334-.309-.482-.42-.409-1.262-.3-1.015-.5-.693-.408-.432-.458-.843-.359-.791-.372-.569-.222-.384-.161-.359-.458-1.027-.2-.619-.012-.273.581-.036.545.124.433.135.421.113.4.036.482.1.457.111.471.186.359.149.272.123,1.138.161.68-.086.507-.087.359-.124.185-.272.211-.322.2-.31.718-1.285.606-.186.433-.123.4-.187.322-.185.161-.148.111-.272.013-1.077.049-.507.013-.495-.111-.347-.483-.223-.334-.161-.408-.222-.211-.235-.235-.458-.878-1.162-.273-.62-.161-.5-.037-.482-.3-.817-.519-.569-.57-.384-.557-.382-.433-.434-.334-.507-.161-.248-.123-.149-.235-.123-.235-.037h-.2l-.2-.012-.136-.026-.111-.062-.087-.1-.049-.173-.075-.359.025-.186.062-.347-.074-.371v-.68l.086-.4.1-.185.248-.061.383.025.26.147.185.125.2.173.359.21.272.087.247.049.173-.024.285-.1.148-.148.322-.273.458-.37.618-1.065.458-.422.333-.222.334-.1.408.1.173.187.1.272.037.309.087.508.049.283.186.52.123.5.211.754.272.743.025.519.1.346.087.409.186.347.334.544.372.062.272-.086.235-.223.161-.371.26-.285.346-.2.507-.222.2-.11,1.014-.682,1.089-.693.458-.358.42-.2.582-.124.78.036,1.311-.161.693-.124.359-.272.223-.211.383-.853.346-.458.4-.2.483-.024.383.16.372.285.333.3.483.308,1.3.868.767.7.631.73.953.829.891.976.52.595.568.359.52.209.829.186,1.274.656.829.334.668.1.544.075.31-.049.618-.136.63-.248.841-.495.606-.656.433-.21h.322l.309.223.161.322.124.433.124.483.049.618.185.718.321.47.409.469.483.271.617.223.619.322.235.224,1.1,1.335.717.608.62.3.667.3.8.074.841-.074.557-.172.754-.235.718-.309.483-.421.631-.409.2-.086.668-.259,1.163.062.792.111,1.2.47,1.249.569.458.619.508.631.458.421.333.408.137.42.049.52.062.309.731.087.582-.051.877-.061,1.535.061.928.075,1.46-.025.828-.112.9-.47.9-.556,1.052-1.063.84-.459.57-.135.569.037.458.234.409.408.371.447.94.9.52.631.236.285.568.581.247.359.4.359h.73l.384-.3.433-.407.383-.223.483-.149.742-.086.421.124.384.26.31.469.94,1.473.458.606.409.359.482.3.371.2.335.149.334.16.236.012.371-.1.283-.073.693-.26.372-.148.593-.137.644-.036,1.2-.557.705-.26.7.161.507.26.334.235.434.459.223.309.2.259.469.322.768.321.309.013h.322l.357.111.446.137.285.185.2.2.173.309.21.309.185.272.222.273.632.05.656.062.42.074.359.05.186-.013.136,1.423-.124.273-.26.173.013.458.235.161-.124.223-.569.272-.259.309-.224.607-.185.693-.335.73-.309.779.3.544.347.161.1.533-.779,1.088v.471l.26.371.2.544-.111.384-.544.606-.556,1.323-.26.359-.483.482-.309.607-.272.668-.557.952-.161.9-.26,1.36-1.324,1.72-.47.595-1.138.852-.891.434-.52.124-.667.112-.682.21-.531.829.482.42-.026.718-.346.209-.507.26-.593.3-.73.408-.718.5-.136.605-.05,1.287.384.891-.173.656-.4.754.248,1.373-.3,1.164.544.531-.074.817-.4.582.185,2.338.247,1.25-.086.679-.025.62-.4.655-.124,1.214-.321.679" transform="translate(-1017.03 -1259.21)"  stroke="#fff" stroke-linecap="square" stroke-linejoin="bevel" stroke-width="1" fill-rule="evenodd"/>
      <text id="talId69count" transform="translate(31.606 36)" fill="#fff" font-size="10"  font-family="OpenSans-Bold, Open Sans" font-weight="700"><tspan x="0" y="0"></tspan></text>
    </g>
    <g id="WaiTaluka"  data-name="Wai Taluka" transform="translate(1683.751 271.153)">
      <path id="talId77" fill="#7DB8EC" title="Wai Taluka"  data-name="Wai Taluka" d="M975.493,1295.725l1.68,1.436.265-.05.509-.347.5-.408.338-.3.423-.3.377-.247.491-.26.366-.186.417-.2.441-.4.739-.52.716-.606.687-.347.418-.173.468-.136.61-.235.417-.223,1.178-.469.734-.52.4-.124.354.173.321.247.265.211.219.136.395.1.114.025.794-.136.8-.1.621-.012.276.038.434.1.779.556.293.384.428.247.367.2.45.186.536.1,1,.088,1.246-.013.88-.036.661-.088.6.013,1.45-.074.5.161.04.273-.068.3-.147.384-.163.409v.482l.316.322.524.532.395.409.632.458.807.421.427-.223.428-.272.469-.3.355-.235.327-.161.355-.038.158.409.152.309.214.2.192.086.281-.025.175-.173.464-.508.432.334.236.309.309.309.346.371.582.05.792.073.272-.185.1-.557.124-.569.161-.148.384.234.383.149.236.112.334-.037.273-.175.123-.21.186-.446.235-.359.557-.878.495-.186.631-.2.372-.26.458-.557.284-.074.347.272.173.2.9.236.594-.037.4.111.31.521.173.4.223.187.371.1.334-.025.433-.123.211-.173.4-.409.544.3.3-.136.124-.111.309-.1.285.024.2.174.322.05.309-.136.309-.236.371-.321.2-.533.074-.581.161-.383.284-.062.21.161.124.247.1.2.149.174.271.221.285.261.124.309.123.2.236.111.544.359.359.049.371-.123.334-.3.346-.359.149-.248.272-.285.347-.457.643-1.152.1-.68.1-.606.3-.149.4-.124.186-.261.346-1.026.2-.421.037-.445-.013-.322-.173-.471-.074-.989.049-.545.186-.383.062-.36-.037-.371-.21-.321-.432-.371-.037-.57.135-.543.186-.47.52.136.235.432.211.607.1.47-.112.433-.271.458.173.8.05.742.074.372.532.557.3.484.557.581.755-.136.259.643.569.4.544.617.049.57-.173.346-.421.546.062.42.507.668.544.309.619.483.544.16.359-.038.445-.246.569-.421.4-.346.359-.286.408-.222.285.124-.025.458-.211.322-.321.173-.174.371-.012.507.037.643.779.495.9.285.619.2.384-.173.47-.494.408-.409.309-.607.409-.025-.049.607-.074.47.321.4.42.359.619.187.582.036.779-.086,1.1-.953.569-.284.656-.248.507-.223.371-.148.235-.531.186-.087.087.545.012.507.186.309.47.186.569.185.383.087h.644l.606.05.594.283.47.446.915.52,1.064-.384.42-.149.544-.3.285-.272.532-.2.248.272.2.383.309.347.248.1.458.037.52.063.383.235.421.333.557.335.705.333,1.361.557,1.04-.025.593.087.507.136.569.124.532.223.754.519.557.445.569.186.977.161,1.1.31.865-.05,1.015.271.1.929-.16.482-.421.78-.161,1.077-.457,1.175-.409.335-.507.457-.384.482-.235.73.582.433,1.038,1.125.31.791-.124.769-.606.9-1.188,1.769-.21.247-.582.68-.16.607.136.543.284.507-.149,1.584-.953,1.658-.321.557-.31.779-.235.384-.421.123-.47-.111-.619-.149.087.346.309.31.4.284v.434l.136.531.371-.371.457.57.2-.014.408-.186.471-.148.569.161.408.111.544.322.433.421.532.408.272.483-.21.335-.594.308-.42.273-.433.285-.247.346-.173.557.248-.025.432-.532.47-.223.656-.049.568.185.124.631.173,1.7.606,1.25.261.408.618.458.792.557.73.3,1.287.533.532.037.1.582-.446.668-.074,3.787.186.334.483.136.631.148.631.273.47.186.421.605.544.483.31.335v.494l-.235.359-.47.483-.632.781-.705,1.409-.235.594-.235.544-.272.718-.148.667-.087.533-.358.409-.173.446.2.135.507-.37.124-.284.42.012.248.408.334.791.234.223.5.186.4.285.235.63.2.3.285.458.408.446.458.469-.483.792-.52.865-1.014,1.5-1,.569-.842.1-.408.087-.433.2-.494.124-.569-.161-.57-.285-.706-.322-.618-.482-.272-.569-.458-.656-.569-.444-.359.2-.308.531-.31.508-.767.457-1.09.149-1.027-.185-1.608-.409-2.141-.483-1.6-.309-.383-.086-.607-.531-.3-.644-.21-.469-.1-.854-.3-.247-1.2.074-.236.384-.149,1.274-.012.953-.333.705-.1.754.149.73v.705l.705.458.445.544-.582.224-.507-.062-.681.259-.581.062-1.3.025-1.5-.111-.68-.57-4.22.013h-.458l-.495.3-.408.458-.556.446-.285.062-.495-.186-.446-.074-.124-.347v-.656l-.012-.978.062-.78.334-1.571-.086-.4.037-.4.211-.187h.483l.161.409.173.2.544.025.52-.235.334-.26.545-.013.247-.284.149-.484-.124-.482-.445-.433-.556-.3-.322-.457-.124-1.287-.012-.358.074-.4.495-.125.111-.407.05-.581-.211-.657-.172-.518-.087-.557-.211-.569.038-.581-.544-1.139.185-.2.483-.432-.025-.434-.507-.284-.309-.4-.2-.605-.1-.843-1.089-1.187-.3-.173-.656-.1-.631.149-1,.123-.977.025-.842.2-1.262.333-1.25.508-.458.05-.408.223-.433.3-.681.149-.321-.149-.446-.309-.581-.285-1-.471-.495-.333-1-.532-1.385-1.25-.434-.4-.458-.508-.507-.384h-.569l-.421-.05-.3-.209-.47-.122-.668.061-1.262-.061-.384-.137-.31-.383-.482-.273-.594-.247-.5.012-.557-.012-.532-.223-.359-.285-.532-.371-.594-.3-.5-.087-.185.063-.346.445-.581.3-.2-.1-.26-.593-.346-.73.693-.075.3-.322.73-.272.569-.321.322-.334.371-.743.273-.469.4-.941.31-.5.247-.643-.247-.111-.606.124-.445.247-.532.26-.557.173-.408-.3-.421-.148-.569-.2-.347.507-.481.185-.483-.655-.037-.309-.1-.482-.656-.074-.433-.136-.582-.21-.3-.309.05-.248.532-.174.483-.173.532-.161.668-.087.718-.024.878.024.669-.1.508-.26.508-.26.036-.346-.507-.2-.693-.062-.26-.112-.384-.21-.458-.334-.223-.532-.111-.482.062-.557.086-.532.149-.569.136-.4.384-.47.049-.459-.433.174-.235.446-.223.619-.148.334-.309.359-.322.111-.334.21-.359.372-.507.136-.4.025-1.3.235-.482.013-.52-.1-.124-.359v-.371l-.174-.421-.235-.271-.259-.371-.025-.421.2-.3.111-.3-.074-.321-.173-.495-.3-.074-.173.433-.235.42-.074.347-.124.457-.161.384-.223.409-.383.358-.4.26.037.4.223.235.1.508-.211.717-.8.94-.334.124-.383-.038-.458-.086-.507-.025-.5.26-.2.334-.26.285-.408-.087-.26-.334-.4-.333-.359-.038-.444.272-.418.272-.44-.012-.541-.482-.35-.742.271-.409.112-.421.068-.7.033-.619.011-.521-.168.434-.339.161-.429-.049-.226-.21-.293-.235-.406.583-.349.271-.419-.433-.472.062-.52.4-.507.074-.316.421-.676.346-.525.421-.553.557-1.426.371-.507.322-.609.186-.576-.2-.891-.556-.552-.223-.643.334-.428-.136-1.026.185-.384-.221-.531-.273-.591.112-.44-.086-.3.235-.282-.211h-.361l-.372.038-.159-.26-.259-.458-.621-.308-.079-.186-.024-.569-.046-.161-.195-.309-.106-.211.073-.247.024-.2.039-.173.105-.113-.028-.061-.124.061-.164.124-.194.174-.268.136-.322.135-.648.075-.542-.088-.428-.05-.441-.123-.219-.135-.333-.111-.186.111-.243.013-.124-.087-.389-.371-.36-.408-.328-.322-.461-.309-.329-.284-.231-.532-.124-.583-.18-.2-.209-.223-.241-.2-.4-.384-.588.011-.578.013-.663-.062-.285-.4-.151-.384-.16-.322-.166-.345-.446.025-.393-.2-.337-.247-.265-.273-.162-.358-.1-.322.142-.507.124-.223.141-.272.028-.334-.146-.173-.274-.049-.56-.136-.166-.235-.269.235-.313.2-.194-.024-.474-.334-.412.185-.545.173-.615.161-.668.174-.943.383h-.28l-.232-.05-.184-.185,0-.385.014-.284-.028-.259-.285-.223.09-.248.166-.173.081-.26.033-.285-.023-.408-.09-.495-.583-.073-.8.023-.191-.3-.43-.272-.838-.371-.5-.236-.314-.171-.111-.359.043-.285.043-.248.321-.26.32-.21.148-.223.178-.272.253-.284.566-.249.635.074.289.273.191.1.124-.211-.049-.482.424-.964.382-.446.314-.408.807-.594,1.632-1.6.332-.457.283-.409.08-.755-.1-.247-.114-.308-.15-.223-.222-.31-.552-.285-.28-.247-.138-.2-.077-.186.018-.187.162-.073.343-.037.3-.1.449-.148.457-.323.6-1.077" transform="translate(-967.473 -1282.92)"  stroke="#fff" stroke-linecap="square" stroke-linejoin="bevel" stroke-width="1" fill-rule="evenodd"/>
      <text id="talId77count" transform="translate(64.793 35.624)" fill="#fff" font-size="10"  font-family="OpenSans-Bold, Open Sans" font-weight="700"><tspan x="0" y="0"></tspan></text>
    </g>
    <g id="KoregaonTaluka"  data-name="Koregaon Taluka" transform="translate(1781.935 287.593)">
      <path id="talId71" fill="#7DB8EC" title="Koregaon Taluka"  data-name="Koregaon Taluka" d="M1061.956,1347.188l-.458-.471-.409-.445-.285-.457-.2-.3-.234-.632-.4-.284-.494-.186-.236-.223-.333-.792-.249-.407-.42-.013-.124.284-.507.372-.2-.135.173-.446.359-.409.087-.531.149-.668.272-.717.235-.544.235-.594.705-1.411.631-.78.469-.481.236-.359v-.5l-.31-.333-.544-.482-.421-.607-.47-.186-.631-.272-.631-.149-.483-.136-.186-.334.074-3.786.446-.668-.1-.581-.532-.037-1.287-.531-.73-.3-.792-.557-.617-.457-.26-.408-.607-1.25-.173-1.695-.124-.631-.569-.186-.656.05-.47.223-.434.531-.246.025.173-.556.248-.347.433-.285.42-.272.593-.309.211-.334-.272-.482-.532-.409-.433-.421-.545-.322-.408-.111-.569-.161-.47.148-.408.186-.2.012-.457-.569-.372.371-.136-.532v-.433l-.4-.284-.309-.31-.087-.346.618.148.47.111.421-.122.235-.384.309-.78.322-.557.954-1.657.147-1.584-.285-.506-.135-.545.16-.607.581-.679.21-.247,1.189-1.77.606-.9.124-.767-.31-.792-1.039-1.125-.581-.434.235-.729.383-.483.507-.458.409-.334.458-1.175.161-1.076.42-.78.162-.483-.1-.928.247-.185.2-.235.26-.4.309-.408.533-.569-.087.495-.049.531.074.459.2.359.261.421.816.21,2.1.05,1.112.038,1.065-.013.506-.174.4-.3.619-.3.644.011.3.3.631.186.272.012.52-.074.941.036.359.408.322.607.123.458-.073.346-.211.21-.495.224-.434-.063-.272-.469-.321-.037-.52.209-.607.2-.519.223-.124.471.42.309.446.285.669.2.655.558.693.532h.31l.483.037.767.272.792.68.482.718.222.767.137.78.656.371.692.334.111.335.05.4.087.681.21.2.508.2.458.16.506.161.619.086.569.026.655.123.521.322.482.422.483.358.73.595.432-.149.532-.246.532.383.185.161.347.086.557-.013.9.706,1.064,1.151.494.383.4.26.385.062.828.136,1.015.531.618.1.136.012.495.1.236.111.26-.037.172-.111.421.087.359.074.458.21.495.248.47.186.656.037.545-.124.026.594-.186.9-.372.989-.322,1.239-.383.717-.31.655-.271.582-.049.482.27.235.484-.086.322-.2.854.545.495.371.482.8.384.719-.038,2.523.136.495.161.57.112.68.185.532.285.4.433.222.719.334.692.075.941-.037.915.049.495.482.285.347.544.309.693.384.631.136.656.445.47-.21.581.038.693-.025.433-.086.656.136.3.334.4.309.619.012.594.135.382.36.21.321.2.322.273.223.408-.26.606-.594.619-.656.47.037.186-.149.494-.557.52-.445.643-.545.26-.446.211-.321.235-.062.817.395.458.05.334.149.309.173.544.26.668.285.569.173-.766.322.285.086.122.235.124.148-.086.223-.285.186-.111.309-.16.285-.223.161.136.532.212.1.346-.024.285-.26.062-.272.173-.372.087-.272.482-.186.817.3.445.136.346.1.459.037.16.049.086.136.16.482-.172.285-.421.248-.16.037-.484-.024-.185.111.1.086.768-.012.049.087.012.148-.21.037h-.049l-.088.038-.037.1-.086.049h-.2l-.1-.013-.112-.049-.086.075.1.024.112.038.111.049-.012.1-.4.186-.2.074-.16-.086-.31-.037-.309-.174-.1.247-.247.036-.074-.284-.148-.012-.062.173-.075.135-.235.037-.086.025-.073.136.085.187.112.148.013.161-.125.074-.185.112.025.185.124.137.1.012.074.062-.062.2.025.124.1.2.135.024.137-.012.024-.122v-.2l.05-.136.025-.111.025-.211.111-.185.086-.125.36-.136.236-.223.223-.1.246-.1.557-.012.211.049.024.334-.075.359.273.173.247.2.038.285.259.383.272.21.222-.012.385.062-.014.062-.16.111-.149.112.149.149.148-.012.112.024.087.2.149.124.185.112.212.161v.149l-.1.123-.161.013-.247-.061-.149.122-.111.062-.235-.21-.271-.235-.273-.186-.148-.037.074.149.085.136.137.161.1.16-.111.074-.172-.024h-.2l-.087.024-.024.174-.025.074-.173.075-.013.112-.074.161-.2.112-.111.012-.062-.037-.075-.05.174-.173.037-.161-.087-.247-.334-.259-.086-.235-.173-.211-.247.037-.124.211-.124.246-.062.3-.285.222-.086.025h-.112l-.086.024-.087.137-.012.223-.185.148-.42.211-.1.186-.026.211.148.271.247.136.124.038.682.1.111-.088.1.1v.211l.063.1.049.185.013.236.049.061-.074.086-.124.112-.086.086.049.1.222-.062-.024.2-.062.173-.062.161-.074.073.049.161.062.025-.025.111-.123.124-.111.112.161.026.236-.05.087-.012.16.012.186.136.112.088.086-.471-.074-.149-.112-.186-.037-.149-.013-.174.223.025.149.222.26.125.063-.149-.063-.21.012-.285.037-.061-.062-.124-.048-.2-.087-.16-.074-.2v-.247l.05-.211.073.161.037.31.136.161.036.185.087.236.173.173.149.037.073-.236.014-.2.074-.235.124-.285.05.334v.322l-.063.359-.061.359.284-.026v.2l-.234.372-.087.52.05.878-.013.508-.186.235-.371.012-.854-.049-1.162.384-.521.556-1.806,1.066-.1.172.148.668.272.271-.025.421-.347.149-.284.012-.4-.2-.383-.21-.8-.086-.692-.261-.421-.036-.434.26-.419.234-.062.521.395.444.533.26.544.161.149.52-.161.309-.222.73.283.693.149,1.225-.124.384-.273.172-.111.31.236.038.779-.012.483-.075.557.063.631.519.358.618.248.495v.644l-.546.99-.3.656-.025.693.26.137.68.11.533.1.507.086.618.643.248.532-.421.867.013.42.173.482.2.422-.26.7-.445,1.077-.1.384.372.2.272.037.421-.2.235-.309.395.494.248.025.285-.148.433.123.149.632.061.247.285.038.667.21.669.161.544.458.061.346-.061.631-.422-.025-.2.631-.161.322-.421.148-.348.174-.074.458.186.421.916.976.4.272.42.347.321.569.224.433.086.457-.345.507-.557.469-.5.743-.086.4-.2.507-.458.186-.432.036-.582.445.951.681.223.273.458.73-.4,1.273-.359.645-.371.68.223.4.694.842-.768.52-.285.358-.272.768.495.891.073.965.323,1.336.371,1.535-.21.519-.161.5.074.852.3.891.334,1.3-.086.52-.284.4.011.469.173.458.285.532.63.816.991,1.214.4.618-1.362,2.128-.878,1.547-.582.817-.385.049-.358-.037-.469-.036.222.358.569.371.3.124.668.186.408.136.1.334-.037.841-.011.8.3.124.9.593.843.521.654.421.891.853-.049.842-.236.272-.483.2-.421.223-.357.3-.26.595.111.433.3.347.36.359-.36.3-.382.173-.311.174-.656.1-.285.111-.568.212.236.371.2.062.272-.049.347.013.408.172.433.359.272.136.482.024.57-.024.594.074.247.285.161.507.148.1.656.346.346.112h.458l.11.284-.3.608.26.359.2.186.383.149.73.321.607.3.469.582-.062.556-.285.21-.5.223-.444.222-1.485,1.323-.434.508-.9.3.544.94.309.409-.037.705-.224.606.434.68-.112.78-.247.989-.348,1.052-.16,1.634.136.309.31.236.011.372-.272.284-.692.172-.954,1.313-1.273.1-1.177.05-.606.185-.57.706-.494.036h-.52l-.532.31.16.878.421.531.953.9.569.58.853.484,1.04.508.594.569.012.743-.175,1.224-.209.136-.358.124-.21.421-.112.531-.049.829.136.544.371.854.445.965.284.655.4.482.309.718-.049.952v1.151l-.347.556-.8-.209-.508-.1-.57-.21-.717-.372-.631-.273-.755-.073-.383.223-.322.421-.2.432-.087.42-.334.458-.409.037-.581.247-.556-.062-.323-.271h-.7l-.4-.038h-.433l-.334-.086-.321-.247-.123-.346-.149-.234-.3-.173-.446-.1-.371-.247-.384-.57-.134-.309-.175-.321-.2-.471-.062-.272-.124-.36-.1-.21-.334-.16-.3-.013-.359-.074-.42-.209-.471-.261-.383-.173-1.25-1.126-.471-.235-.866-.136-.469-.112-.681-.161-.581-.012-.632-.186-.408-.2-1.2-.632-1.125-.977-.606-.026-1.374-.049-.792.285-.643.235-1.015.345-.322.483-.408.718-1.262.729-.582.421-.817.544-.619.371-.642.446-.484.309-.321-.1-.408-.346-.667-.543-3.924-.013-.914-.037-.644.384-.545.383-.557.112-.124-.419v-.273l.026-.347-.372-.9-.111-.494-.186-.458-.149-.347-.3-.469.05-.569.1-.223.111-.284-.086-.236-.15-.111-.347-.185-.543-.124-.3-.345.186-.3.26-.236.186-.334.333-.6.124-.246.187-.222.173-.248.284-.2.273-.112.334.048.445.1.433.26.37.359.235.123.186.134h.2l.321-.2.593-.271.571-.211.284-.21.433-.9.3-.779.309-1.051.607-.854.184-.31.187-.519-.284-.879-.037-.334.16-.3.161-.37.248-.383.21-.706v-.261l.1-.222.286-.235.2-.062.458-.471.259-.346.111-.569-.086-1.336-.049-.446-.075-.471.025-.457.224-.372.1-.321.545-.656.062-.693-.05-.446-.21-.569-.668-.7-.371-.236-.3-.186-.408-.2-.359-.222-.261-.383-.037-.384.2-.842.149-.284.111-.321-.049-.359-.124-.372-.148-.667.012-.3.5-.891.1-.372.483-1.484.136-.322.038-.284-.1-.247-.284-.223-.483-.186-.2-.284.075-.916.124-.78.308-1,.707-.557,1.089-.049.632-.05.283-.3.186-.544-.075-.359-.431-.445-.83-.707-.172-.729.036-.408.063-.507.273-.458.037-.853-.471-.447h-.667l-.867.038-.8-.05-.606-.829-.31-.334-.371-.2-.643.347-.359.271-.731.173-.667.2-.224.012-.359-.1-.161-.173-.248-.136-.457-.026-.433.013-.26-.21.037-.211.285-.606.222-.718.346-1.2.075-.334-.05-.321-.382-.3-.83-.743-1.187-1.015-.347-.049-.52-.075-.433-.235-.519-.1-.4-.26-.3-.7-1.088-.05-.062.211-.087.4-.148.371-.248.334-.421.087-.631-.013-.928.013-.5-.248.309-.568.1-3.724.074-.3.136-.755v-1.349l-.595-.544.062-2.2.187-.4.161-.284-.062-.458.012-.594-.557-.644-.322-.322-.359-.791-.185-.446.037-.507.173-.5.186-.21.383-.321-.086-.9.1-.68-.31-.433.087-.729.136-.482.4-.458-.013-2.29.16-.31.286-.482.247-.323-.012-.371-.2-.581-.866-1.027-.161-.26-.223-.248-.26-.235-.285-.247-.3-.222-.594-.049-.222-.211.272-.222-.061-1.6-.21-.743-.125-.928-.308-1.3-.173-.371-.434-.186-.371-.049-.42-.2-.149-.382.025-.557-.223-.235-.2-1.028-.3-.3.025-.174.223-.148.123-.173-.1-.185-.2-.161-.778-.495-.074-.4.135-1.213.124-.334.161-.334.086-.718v-.718l-.779-.52-.508-.382-.494-.309-.47-.223-.42-.21-.223-.359.086-.223.2-.37.224-.347.1-.582.173-.248.345-.544.211-.222.049-.309-.112-.311-.2-.37-.085-2.413-.074-.21-.21-.235-.347-.222-.346-.3-.347-.285-.507-.308-.469-.247" transform="translate(-1046.7 -1296.1)"  stroke="#fff" stroke-linecap="square" stroke-linejoin="bevel" stroke-width="1" fill-rule="evenodd"/>
      <text id="talId71count" transform="translate(30.608 77.185)" fill="#fff" font-size="10"  font-family="OpenSans-Bold, Open Sans" font-weight="700"><tspan x="0" y="0"></tspan></text>
    </g>
    <g id="MahabaleshwarTaluka"  data-name="Mahabaleshwar Taluka" transform="translate(1659.185 297.338)">
      <path id="talId73" fill="#7DB8EC" title="Mahabaleshwar Taluka"  data-name="Mahabaleshwar Taluka" d="M974.583,1304.235l.8-.025.583.074.09.5.024.409-.034.284-.08.259-.166.173-.091.249.285.224.029.259-.014.285-.005.383.185.186.233.049h.279l.943-.384.668-.172.615-.161.546-.174.412-.186.474.334.194.025.313-.2.27-.235.166.235.559.136.275.05.146.173-.028.333-.141.272-.123.224-.142.507.1.322.161.358.265.272.337.248.394.2.445-.024.166.346.16.323.151.382.284.4.663.062.578-.013.587-.012.4.384.241.2.209.223.181.2.124.58.231.532.328.286.461.309.328.321.36.409.39.371.124.088.243-.013.187-.111.333.111.219.136.441.123.428.05.542.087.648-.074.322-.136.267-.136.194-.174.165-.123.124-.062.028.062-.1.111-.04.173-.025.2-.073.247.106.211.194.309.045.161.025.569.079.186.622.309.258.457.158.26.373-.036h.36l.282.21.305-.235.44.087.592-.112.531.272.384.223,1.025-.186.43.136.643-.333.553.222.891.557.575.2.609-.185.507-.322,1.426-.371.553-.556.525-.422.677-.346.316-.421.507-.075.52-.4.473-.062.418.433.349-.272.406-.581.294.235.226.21.428.049.339-.161.168-.433-.011.519-.034.618-.068.706-.113.421-.27.408.349.743.541.483.44.013.417-.274.444-.272.359.037.4.334.26.335.408.085.26-.284.2-.333.495-.261.508.025.457.087.384.037.334-.124.8-.94.211-.718-.1-.508-.223-.235-.036-.4.4-.26.383-.359.222-.408.161-.384.124-.458.074-.346.235-.421.173-.433.3.075.174.5.074.322-.111.3-.2.3.025.422.26.371.236.272.173.421v.37l.124.359.521.1.482-.012,1.3-.236.4-.024.507-.137.359-.37.335-.211.321-.111.309-.359.149-.334.223-.618.234-.446.433-.174-.049.459-.384.469-.135.4-.149.57-.087.531-.061.556.112.483.223.532.457.334.384.21.26.112.693.062.507.2-.037.347-.506.26-.508.261-.668.1-.878-.024-.718.024-.668.086-.532.161-.482.174-.532.173-.05.247.3.31.581.21.434.136.656.074.1.482.037.309.483.656.482-.187.346-.506.57.2.421.148.409.3.556-.173.532-.26.445-.247.606-.123.247.111-.247.644-.309.5-.4.94-.272.47-.371.742-.322.334-.569.322-.73.273-.3.321-.693.075-.26-.41-.284.2-.446.445-.408.421-.222.3-.669.3-.421.347-.383.236-.346-.074-.31-.371-.235.123-.247.347-.162-.037-.235-.545.123-.78-.347-.581-.186-.3.421-.285-.272-.384-.235-.173.37-.643.532-.371.186-.458.012-.532-.086-.445-.446-.148-.705.161-.532.1-.594.012-.582-.05-.371.247-.445.234-.569-.941-.111-.407-.409-.273-.185.334-.136-.074-.309-.52-.7-.235-.619.125-.557.012-.52-.285-.47-.086-.222.024-.451-.47-.293.061-.643-.247-.5.024h-.18l-.226-.445-.53-.235-.789.025-.249.507-.113.4.044.669-.755.42.135.508.7.557.564.334.26.271.485.285.315.408.349.211.564.087.372.309.452-.2.607-.26.421.062.272.334.062.42.421.446.223.383.766.977.433-.013-.174.334-.507-.037-.31.285-.569.174-.618-.086-.4.073-.373.273-.677.111-.609-.1-.485-.061-.44-.124-.328-.236-.214-.26-.518-.8-.315-.495-.633-.21-1.4.149h-.564l-.191.358-.045.47v.52l-.452.532-.778.272-.847-.074-.315-.346-.554-.4-.394-.519-.508-.285-.348-.123-.485-.136-.338-.186-.282-.212-.113-.321.034-.593.306-.136.156.283.294.433.227.1.473-.222.169-.382.1-.335-.2-.334-.17-.161v-.544l.26.025.508.024.3-.259.09-.4-.3-.434-.868-.073-.97-.36-.79-.111-.5-.309-.642-.21-.5-.2-.608-.224-.361.087-1.185-.112-.834.037h-.519l-.484-.236-.565-.173-.237-.3-.146-.347-.283-.408-.439-.3-.407.087-.214.223-.079.482-.157.458-.507.272-.339-.111-1.127-.308-.475-.384-.53-.173-.056.408.327.384.451.4.53.458.654.458.463.383.587.409.755.593.53.459.722.5.688.445.6.346.723.458.53.26,1.409.767-.191.557-.473.334-.4.285-.361.186-.271.26-.044.273.338.246.541.049.609.1.339.175.586.049-.067.284-.2.36-.113.3.068.358.3.384.35.371.271.4.3.679-.192.371-.26.334-.5.112-.271.185.01.458-.2.321-.067.2.135.458.215.2.531.9.033.557-.192.582-.97.853-.992.619-.529.223-.485-.149-.281-.21.269-.545.384-.433.632-.383.508-.3.215-.335.068-.433.033-.383-.236-.087-.475-.111-.044-.372.2-.284.236-.346.282-.422.011-.333-.88-.012-.97-.038-.5-.073-.529-.137-.25-.26-.011-.668-.406-.3-.416-.235-.1-.273v-.879l-.462-.123h-.869l-.687-.074-.5.161-.406.359-.564-.433-.315-.507-.395-.4-.125-.495-.124-.384.045-.507.227-.408.609-.211.565.074.181-.421.022-.334-.328-.606-.62-1.027-.315-.718-.609-.358-.677-.347-.643-.272-.643-.3-.226-.271-.474-.509-.6-.259-.551-.532.045.434.214.384.045.569-.5.3-.474.049-.225.149-.305.334-.632.26-.169.384-.417.569-.337.247-.351.248-.315.272-.057.434.09.4.147.321.124.384.1.434-.079.544-.159.308-.225.792-.146.754.281.669.293.359.936.049.4.359.36.742.53.569.53.471.472.518,1.253.755,2.153,1.72.723.965,1.173.978.417.569.485.382.214.446.282.594.213.347.486.593.022.421-.214.2-.6.05h-.834l-.914.075-2.5-.161.225,1.681.4.545.3.544.542.223.439.284.35.508.338.52.158.495.27.52.721.952.621.024.26.3-.023.346.157.3.361.385.293.495.191.247.147.334-.035.26-.157.248-.09.307-.023.224.328.557.044.384-.066.136-.463-.136-.159-.2-.034-.4.1-.47.011-.384-.26-.246-.3-.112-.282.173-.451.061-.112-.483.012-.582v-.654l-.126-.434-.529-.57-.586-.3-.519-.321-.44-.2-.349.186-.216.271-.427-.457-.362-.409-.236-.334-.136-.717-.089-.978-.238-.26-.1-.569-.259-.433-.012-.482.024-.471-.012-.248-.4-.037-.575.421-.259.161-.417.025-.316.359-.248.507-.3.482-.406.274-.293.16-.508.235-1.432,1.349-.395.817-.283.4-.405.272-.147.408-.631.235-.2-.334.089-.506-.056-.286-.406-.445-.35-.2-.564-.334-.733-.655-.3-.384-.147-.5-.2-.557.046-.73.192-.605-.136-.137-.486.211-.157.5-.2.3-.587.137-.169-.619-.282-.272-1,.025-.824-.025-.732-.062-.35-.2-.463-.384-.473-.47H970.7l-.339.47-.756-.89-.36.322-.7.063-.181.222-.158.382-.565.162-.484-.025-.666.05-.563-.013-.192-.247-.057-.458-.338-.122-.383.147-.384-.123-.294-.148-.136-.124-.619-.286.237-.4.338-.63-.7-.049-.508-.174-.654-.21-.462-.124-.272-.433-.6-1.026-.7-.817-.631-.383-.271-.148-.666-.446-.079-.594.114-.878.371-1.089-.033-.915-.282-.173-1.779-.4-.17-.161-.586-1.052-1.071-1.249-.178-.779-.112-.57.007-.432-.948-.322-.943.347-.652.136-1.047-.061-.806.036-.346.136-.24.248-.339.173-.289.061-.4.013-.259-.049-.445-.149-.265-.186-.1-.358-.18-.705-.006-.581.2-.348.265-.221.16-.149.357-.285.6-.408.469-.3.7-.334.708-.556.542.074.369-.074.456-.211.765-.544,1.181-1.028.543-.58.591-1.349.85-.842.869-.927,1.022-.731.535-.506.025-.5-.025-.433-.092-.433-.271-.68-.049-.521.043-.383.172-.422.338-.185.333-.087.474.013.326-.038.21-.2.295-.21.259.272.3.4.388.444.549.892.283.21.5-.037h.289l.683-.025.463-.186.51-.322.332-.186.1-.384.284-.445.751-.21.912-.632.843-.557.424-.457.579-.991.111-.47.271-.259.682-.372.611-.433.806-.558,1.367-1,.621-.321.66-.508.528-.507.216-1.4-.037-.408-.1-.433-.142-.372" transform="translate(-947.579 -1304.21)"  stroke="#fff" stroke-linecap="square" stroke-linejoin="bevel" stroke-width="1" fill-rule="evenodd"/>
      <text id="talId73count" transform="translate(9.358 23.438)" fill="#fff" font-size="10"  font-family="OpenSans-Bold, Open Sans" font-weight="700"><tspan x="0" y="0"></tspan></text>
    </g>
  </g>
</svg>
