<svg xmlns="http://www.w3.org/2000/svg" width="245.191" height="300.503" viewBox="0 0 245.191 300.503">
  <g id="_34_Sindhudurg" data-name="34 Sindhudurg" transform="translate(-2017.52 -228.247)">
    <g id="_310_Devgad" data-name="310 Devgad" transform="translate(2018.212 256.889)">
      <path id="talId310" fill="#7DB8EC"  title="Devgad Taluka" data-name="Devgad Taluka" d="M983.123,1701.977l-.755.425-.795.436-.72.347-.533.3-.5.27-.391.27-.338.116-.657-.231-.292-.4-.152-.321-.082-.283.052-2.722.093-.926.328-.782-.27-.451-.362-.372-.234-.348.034-2.106-.591-.59-.825-.54-.485-.3-.462-.385-.622-.489-.34-.282-.409.271-.316.5-.282.565-.427.463-.328.281-.5.387-.393.333-.28.1-.439.078-.808.154-.621.359-.586.424-.417.3-.315.346-.269.41-.165.22-.205-.039-.456-.155-.89-.18-1.037.077-1.241.013-.666.051-.439.245-.352.025-.4-.089-.234-.129-.579-.617-.4-.307-.556-.077h-.673l-.62.064-.182.231.071.307.322.09.275.154.193.336-.117.384-.357.154-.373.078-.329.257-.069,1.476.263.269.211.347,0,.59-.023.63-.1.232-.83.461-.785.527-.5.193-.357-.012-.316-.065-.053-.283-.24-.347-.227-.09-.329.077-.286.207-.363.217-.362.219-.334.359-.522.387-.667,1.039-.72.052-.755.3-.328.372-.375.565-.158.81-1.51,1.143-.719.347-.083,1.116-.222.5-.082.41-.012,2.453-.14.424-.351.244h-.441l-.117-.09-.222-.232-.457-.1-.579-.013-.362.039-.451.192-.593.129-1.392.45-1.084.013-1.843.32-1.218-.051-.468.283-.328.538-.269.759-.516,2.542-1,1.438-.643,1.194-.188.348-.989,1.412-.293-.14-.232-.142-.184.153-.169.129-.088.065-.332.077-.159-.077-.124-.194-.09-.076-.116-.089-.067-.052-.051-.256,0-.1-.021-.038-.058-.025-.1-.09-.047-.052-.055-.142-.005-.128.006-.039.016-.038.01-.1-.008-.027-.013-.038-.011-.038-.027-.052-.033-.064.017-.167.042-.129.074-.09.023-.064.065-.4.037-.206,0-.154-.022-.052-.029-.051-.085-.218-.105-.116,0-.089.022-.1.019-.129-.03-.129-.027-.089-.014-.142,0-.155-.037-.256-.135-.294-.1-.118-.031-.088-.033-.142-.025-.05-.032-.013-.055-.039-.071-.077-.024-.1v-.1l.069-.372.032-.282.007-.077-.036-.206-.024-.078-.028-.075-.056-.309-.047-.245-.134-.643-.052-.294-.046-.168-.072-.244-.171-.681-.085-.386-.157-.565-.133-.578-.067-.206-.057-.193-.259-1-.057-.231-.066-.206-.079-.231-.041-.18-.031-.025-.1-.026-.17-.077-.123-.168-.1-.4-.094-.245-.011-.154,0-.218-.031-.385-.032-.116-.047-.117-.02-.012-.063-.193-.085-.281-.016-.142-.036-.1-.077-.206-.023-.141-.04-.178-.028-.193-.1-.372-.026-.181-.142-.385-.121-.244-.037-.091-.024-.2-.024-.231-.07-.218-.093-.323-.148-.679-.048-.193-.034-.347-.082-.334-.1-.282-.062-.193-.029-.18.058-.282.068-.232.032-.167-.089-.129-.008-.013-.033-.026-.022-.026-.032-.037-.015-.052-.017-.128-.006-.09-.036-.1-.05-.166-.021-.167-.032-.168-.058-.256-.053-.18-.038-.257-.064-.283-.048-.154-.072-.205-.077-.321-.069-.281-.054-.18-.067-.258-.1-.359-.069-.308-.091-.322-.094-.307-.109-.36-.057-.18-.038-.1-.1-.372-.121-.4-.03-.128-.047-.141-.065-.141-.094-.167-.074-.1-.086-.1-.112-.064-.1-.013h-.061l-.052.013h-.062l-.1-.026-.087.039h-.09l-.133-.064h-.053l-.057-.09.009-.092.013-.1-.034-.039-.073-.039-.054-.064-.058-.167,0-.129-.008-.18-.077-.269-.039-.115,0-.129-.028-.089-.043-.038-.067-.3,0-.18-.032-.141-.025-.167-.08-.218-.323-.334-.155-.167-.058-.038-.053-.089-.157-.373-.126-.244-.069-.091-.12-.526-.026-.386.029-.142.082-.115.155-.064.072-.013.077-.256.031-.348-.007-.322-.074-.4-.11-.385-.071-.206-.128-.642-.088-.282-.119-.372-.1-.475-.2-.526-.1-.207-.07-.077-.22-.116-.277-.116-.392-.2-.159-.039-.334-.334-.046.013-.225.026-.006-.166.071-.129.114-.089.231-.347.114-.695.119-.655.085-.14.1-.245.158-.219.1-.115.05-.116.043-.244-.105-.243-.071-.194-.1-.333-.046-.166-.212-.54-.1-.347-.081-.167-.192-.513-.208-.335-.357-.244-.281-.179-.137-.052-.029-.039-.016-.078-.071-.205-.129-.155-.324-.219-.208-.1-.145.038-.233-.026-.16-.077-.211-.064-.041-.013-.05.013-.052.013-.046.038-.047.257-.078.09-.211.206-.094.077h-.5l-.206-.09-.078-.077-.18-.115-.11-.026-.123-.065-.105-.091-.115-.1-.216-.14-.142-.155-.084-.076-.047-.232.011-.076.035-.052.088-.077,0-.052,0-.063.024-.092.112-.217.2-.386.072-.065.18-.41.082-.155.065-.193.038-.128.04-.078.013-.1-.009-.128-.016-.13-.041-.128-.078-.218-.125-.245-.153-.244-.068-.012-.254-.014-.2-.038-.1-.051-.127-.154v-.091l-.055-.089-.066-.052-.032-.1.012-.245.025-.154.126-.167.112-.115.151.013.142.065.036.064h.062l.044-.026.027-.051v-.09l0-.089-.056-.065.01-.269.082-.527.019-.283.121-.309.093-.193-.076-.18.011-.116.113-.141.125-.128.027-.129,0-.258-.288-.835-.325-1.027-.173-.064-.141-.064-.1-.09-.1-.051-.156-.077-.127-.09-.1-.09-.044-.153.063-.116.215-.128.05-.128.044-.078.195-.142.025-.2-.014-.09-.212-.1-.172-.153-.077-.245.014-.115-.014-.116-.076-.154-.041-.127.014-.078-.009-.077-.055-.052-.047-.1.032-.155.081-.256.015-.219-.175-.924-.108-.437-.161-.771-.1-.373-.091-.089-.2-.116-.052-.077-.138-.475-.1-.294-.112-.3-.047-.231-.154-.258-.153-.129-.143-.024-.213.088-.062-.012-.06-.052-.014-.166.042-.206.063-.116,0-.153-.013-.1.053-.09.127-.141.044-.218-.018-.5-.053-.167-.082-.45-.159-.744-.2-.809-.049-.257-.059-.309-.028-.2-.153-.578-.222-.36-.071-.116-.087-.077-.1-.064-.068-.051-.167-.039-.108.014-.05.115H911.5l-.04-.012-.034-.077-.06-.064-.1-.077-.07-.026-.1-.013-.064-.012-.016-.064-.026-.038-.081-.1-.059-.09-.035-.1-.042-.077-.049-.077-.085-.065-.055-.089-.057-.154v-.129l0-.077.006-.078-.052-.115-.052-.091-.206-.321-.105-.231-.032-.154-.019-.167-.057-.412v-.153l-.019-.167-.056-.18-.077-.232-.047-.218-.067-.231-.037-.166-.038-.13-.058-.191-.047-.155-.108-.141-.131-.167-.181-.385-.03-.116-.009-.077-.042-.077-.139-.153-.056-.129-.035-.141-.032-.064-.056-.09-.038-.065-.035-.32.006-.051.017-.027.036-.037-.006-.091-.062-.09h-.066l-.023-.013-.017-.051,0-.167v-.142l-.062-.127-.015-.065.021-.114.064-.18.024-.089v-.1l-.023-.386-.093-.412-.187-.692-.11-.194-.252-.3-.084-.012-.284-.04-.237-.166-.134-.154-.195-.5-.028-.09.014-.051.061-.064-.023-.025-.059-.014-.031-.012,0-.052-.048-.037-.09-.026-.085-.037-.077-.051-.25-.347-.194-.373-.052-.141-.093-.206-.16-.294-.109-.323.007-.178.024-.168-.017-.14-.041-.154-.062-.078-.05-.09-.064-.09-.055-.077-.077-.128-.064-.1-.026-.116-.01-.038-.006-.167.012-.1.006-.051-.025-.077-.045-.153-.042-.1-.016-.154-.015-.141-.018-.1-.015-.064-.024-.115-.034-.155-.059-.219-.036-.051-.027-.038.005-.078,0-.142.01-.064-.008-.064-.078-.282-.127-.513-.168-.54-.147-.386-.081-.218-.03-.129-.083-.178-.106-.218-.086-.245-.256-.488-.162-.256-.214-.258-.161-.128-.161-.077-.275-.063h-.161l-.139.025-.242.089-.246.129-.119.1-.1.115-.087.129-.159.232-.088.064-.015.026-.026-.013.031-.129.106-.257.076-.205.032-.141.023-.142.14-.282.091-.116.1-.18.137-.231.016-.091-.048-.141-.117-.155-.056-.128-.021-.1.013-.1.019-.052,0-.077-.026-.039-.035-.064-.017-.1-.023-.065-.055-.076-.07-.064-.073-.038-.064.012-.032-.038-.011-.077.034-.181.016-.1,0-.14.015-.181,0-.089-.016-.051-.07-.1-.079-.129-.021-.077.005-.052v-.4l-.077-.643-.076-.282-.147-.244-.13-.129-.069-.116-.065-.09-.2-.167-.129-.166-.032-.089,0-.1.056-.077.089-.026.051-.026.016-.051-.008-.038-.052-.038-.026-.1.032-.078.051-.013.071-.025.034-.039.027-.039.036-.064-.024-.064-.047-.09-.079-.1-.07-.1-.07-.026h-.09l-.122-.064-.126-.116-.129-.154-.039-.1.023-.039.046-.039.147-.025.057-.026h.044l0,.039-.026.051,0,.051.057.052.052.026.049.013.083.012.05-.012.122-.039.1-.052.1-.077.059-.088.024-.079-.028-.128-.065-.051-.008-.013.012-.013.075-.064.055-.051.025-.039,0-.013-.033-.064-.06-.1-.046-.1,0-.039.049-.064h.044l.191.166.046.014.026-.026.011-.051-.007-.026-.077-.09-.026-.064,0-.039.03-.089.026-.065.106-.1.111-.142.074-.051.087-.1.077-.1.083-.089.066-.089.125-.231.115-.218.094-.219.067-.244,0-.077-.016-.052-.1-.128-.048-.128-.018-.244-.1-.218-.073-.1-.026-.051-.025-.09-.046-.128,0-.038.02-.028.048-.037h.017l.036-.039.033-.051.049-.026h.086l.115.013.162.077.052.052.034.064,0,.142-.007.064-.031.064,0,.037.026.065.054.05h.042l.083-.012h.029l.059.025.06.064.037.078-.008.051-.017.065-.012.129v.05l-.008.1v.038l.016.026.036.026.049.026h.1l.261-.091.476-.2.131-.129-.041-.116.015-.064.033-.154.041-.115.1-.1.088-.051.042-.013.025-.065-.011-.064-.024-.052-.006-.23.016-.064.042-.052.063-.039.06-.025h.076l.17.077.094.077.055.013.085-.026h.066l.064.013.116.09.008.026-.028.051,0,.026.019.039.037.013h.032l.163-.013h.14l.052.025.03.013.035.014.054-.014.089-.024.122-.1.131-.129.087-.129.071-.115.047-.116.035-.091.032-.1,0-.039-.022-.052-.008-.038.009-.039,0-.013,0-.014-.022-.037-.02-.026h-.022l-.011-.013v-.013l-.107-.051h-.029l0-.013-.1-.052-.018.014-.005.012h-.015l-.023-.012-.006-.026.019-.026,0-.013-.041-.038-.034-.039-.03-.077-.009-.025,0-.026-.015-.064-.017-.026-.01-.064,0-.038.012-.026.068-.026h.132l.009-.013h.07l.028-.013.022-.013.019-.012,1.5-.758.591,1.913,1.962,5.254,2.406,4.56,4.613,2.35,3.418.668,1.17.321,1.124.258.878.115,1.183-.141.678-.1.621-.333.527-.386.8-.193.949.013.749.231.948.438.527.308,1.592,1.245,1.171.747,1.007.6.914.513.865.489.819.32,1.651.9,1.312.09,1.112-.026,1.181.039.973-.155.631-.41.563-.309.62-.462.234-.411.234-.526.329-.669.433-.745.5-.668,1.158-.9,1.067-.822.9-.822.866-.566.75-.1.655.155.856.307.527.271.479.282.423.68.438.3.41-.13.287-.153.246-.323.176-.346.2-.488.14-.526.116-.424.159-.449.158-.206.392-.039.842.064.492.219.737.244.305.308.849.655.334.4.311.231.468.294.364.194.661.115.549-.039.516-.128.427-.449.714-.745.416-.54.5-.385.768-.539.9-.5,1.462-.4.352-.372.726-1.04.457-.668,1.1-.849.727-.732.532-.758.2-.282.17-.219.334-.064h.3l.691.141.96.45.439.372.281.179.439.116.41-.039.268-.1.668-.333.808-.3.239-.18.256.27.33.577.281.5.416,1.055.287.526.357.424.416.4.4.27.362.155.222-.026.27-.1.462.461.5.334.574.436.527.426.35.475,1.154.256.142,1.194v1.027l-.071.849-.21.744-.515.823-.984,2.478-.023.655.163.475.727.63.445.771.726.99.421.6.515.488.844.566.373.539.071.566-.7.86-.865.937.116,3.07-.8.539.046.939-.468.963-.445.436-.023.616.421.283.5.4v.579l-.234,2.08-.07,1-.035.783.234.5.269.271.843-.245.562-.295.351-.167.586-.012.527.077.235.334-.423.386-.689.513-.646.553-.549.32-.293.258-.047.976.013,2.349-.329.591.082.617.27.564.094.592-.011.706-.013,1.888v1.593l-.105.68-.246.81-.327.54-.328,1.837-.024,1.143-.2.565-.339.373-.293.142-.55.014-.446.255-.094.244.071.412.387.54.1,1.451.176.681.527.6.7.758.421.578.538.488.55.5.164.988-.3.439-.584,2.209-.563.642-.082.86-.023.526.1.822-.375.488-.632.449-.151,1.3-.481.5-.3.372-.293.374-.082.244-.012.591v.385l-.725.09-.446.334-.478.4-.375.385-.339.4-.435.436-.057.757.785.745.351.579.352.667.234.5.328.566.234.526-.035.359-.164.27-.3.411" transform="translate(-900.147 -1619.21)"  stroke="#fff" stroke-linecap="square" stroke-linejoin="bevel" stroke-width="1" fill-rule="evenodd"/>
      <text id="talId310count"  transform="translate(39.667 50.629)" fill="#fff" font-size="10"  font-family="OpenSans-Bold, Open Sans" font-weight="700"><tspan x="0" y="0"></tspan></text>
    </g>
    <g id="_316_Vaibhavwadi" data-name="316 Vaibhavwadi" transform="translate(2112.813 229.096)">
      <path id="talId316" fill="#7DB8EC" title="Vaibhavwadi Taluka" data-name="Vaibhavwadi Taluka" d="M974.166,1621.866l.544-.258.369-.141.274-.13.276-.167.117-.166.052-.129-.117-.436-.192-.36-.329-.3-.357-.193-.274-.283-.17-.334-.029-.333.27-.193.492-.052.562.168.34.3.257.4.3.372.176.232.27-.078-.018-.167-.105-.334-.03-.334.076-.3.176-.436.416-1,.134-.628,1.014-2.9.234-.912.938-.771.749-.681.82-1.079.586-1.451.725-.322,1.194-.115,1.029.18.727.886.327,1.1.188.733.4,1.027.445.976.118.848.726.115.492-.231.445-.089h.351l.68-.244.444-.552,2.3.937,1.147-.566,1.242.887.726.655.8.09h1.5l1.5.026,1.334-.026,1.382-.039.68-.14.491-.733-.212-.834-.117-1.3-.069-.925.186-.617.586-.488.3-.629-.21-.642-.8-.809-.632-.387-.632-.951-.258-.655-.374-.359-.469-.541-.328-.435-.328-.939.023-.565,1.405.089.233.052.749-.232.515-.782.434-.617.175-.553.176-.757.012-.423.07-.49.139-.449-.011-.32-.222-.27-.023-.334.2-.154h.362l.282-.065.07-.308.176-.463.479.231.469.347.315.026.5-.27.327.244.2.322.322.308.655.309.449.014.476-.014.59-.065.591-.024.372-.644.706.117.9.308,2.941,1.5.951.335.68-.116.579-.219.5-.037.616.205.321.45.54.526.629.308.526.18.36.064,1.028-.553.668-.09h.771l.694.193.539.309.6.115.578-.075.206.154.552-.052.282.281-.655.874-.334.232-.09.424.09.579.243.6.424,1,.372.847.193.527-.039.591-.026.475.154.463.283.359.373.3.655.681.411.488.373.707.153.526v.462l-.127.54-.206.911-.514.848-.231.476-.206.256-.321.167-.437.051-.373.13-.269.244-.27.705-.231.347-.347.065-.54.039.077.425.052.384-.128.334-.475.231-.4.321-.681.783-.064.347.09.309.244.347.347.3.27.257.154.551.026.476-.039.412.129.321.193.372-.065.36-.205.411-.18.437-.308.334-.643.385-.809.771-.1.475-.09.309-.115.244-.27.026-.385-.052-.321.129-.154.167-.6.77-.192.232-.09.346.077,1.066.116.438.077.307-.72-.039-.539-.114-.514-.064-.591.064-.6.09-.411.116-.359.1-.308.129-.026.141.038.244-.012.218-.051.09-.141.553.282.191.424.154.566.347.616.361.912.359.167.515.334.2.527.052.27.154.141.386.18.36.45.18.591.141.359.027.488.063.437.052.257.244.115.282.283.258.321.115.385.065.064.1.077,1.3-.013.95-.18.54-.244.153-.707.09-.077.668-.077.411-.115.283-.089.41.077.424.09.836.437.411.372.178.141.387.141.462.064.231.45.129.36.115.27.206.54.68.039.771.141.5.09.334.141.347.437.334.411.206.308.193.886,1.245.4.848.257.655.167.334.09.334.116.231.462.091.385.012.925.219.373.013.436-.1.5-.18.3-.258.4-.282.4-.1.462-.012.36.089.578.13.039.424.1.282.463.758.475,1.888v1.118l-.09,2.015.013,1.016-.347-.1-.269-.116-.27.322-.142.462-.167.411-.244.372-.219.205-.244.128-.269.168-.257.334-.258.256-.321.166-.243.09-.27.026-.4-.334-.193-.257-.257.039-.244.346-1.13.976-.052.514v.847l-.051.45-.115.475-.3.271-.745.513-.295.475-.463.129-.385.243-.424.258-.449.231-.4.229-.938.374-.282-.591-.27-.333-.861-.207-2.428-.18-.719.476-.154-.129-.218-.257-.527-.45-.655-.411-.526-.257-.72-.23-.423-.129-1.336-.179-.822.115-.783-.025-.668-.23-1.375-.155-.449.025-.45.052-.269.27-.141.616-.719.566-.1.153-.231.475-.129.527-.372.2-.206.091-.283.025-.3.026-.295.1-.463.462-.141.3-.012.374.154.115.026.321-.051.269-.18.27-.193.3-.218.231-.348.077-.885.448-.112.386-.105.373-.059.231-.164.128-.21.154-.147.116-.188.193-.315.359-.334.064L1005,1672l-.252.051-.3.116-.357.155-.288.076-.392-.116-.158-.039-.181.181-.112.179-.234.09-.241-.064-.38-.091-.13-.077-.134-.244-.112-.167-.222-.255-.153-.22-.082-.1-.14-.052-.3-.026-.123-.077-.135-.218-.188-.258-.222-.129-.328.014-.3-.039-.3-.078-.134-.1-.171-.244-.216-.347-.368.064-.217.1-.5.026-.1-.269.158-.309.082-.3-.03-.256-.192-.193-.37.077-.3-.013-.315-.1-.3-.013-.38.013-.112-.3-.21-.219-.346-.026-.376.1-.151.3.018.219-.006.193-.053.154-.087.012-.188-.1-.081-.155-.083-.245-.094-.244-.316-.192-.316-.026-.27.078-.245.089-.129-.217-.382-.232-.316-.064-.279-.166-.318-.116-.35-.013-.258.064-.234-.051-.251-.116-.264-.115-.117-.27-.034-1.489.158-.309.409-.411.362-.065,1.107-.191.516-.193.666-.436.293.449.691-.617.346-.23.357-.335.229-.333.087-.462-.041-.361-.293-.707-.667-1.362.005-.4.018-.476-.117-.487-.3-.462-.463-.142h-.549l-.651-.153-.5-.386-.936-1.091-.9-.566-1.035-.474-1.364-.822-.954-.553-.311-.155-.362-.245-.316.026-.322.155-.638.32-.615.283-.825.3-1.359.347-.644.411-.7.642-.949.5-.321-.052-.346-.347-.386-.256-.421-.3-.322-.437-.169-.373-.135-.5-.029-.475-.175-.5-.258-.476-.281-.488-.3-.578-.281-.435-.082-.374.128-.219.608-.988.4-1.594.386-1.221.229-.487.5-1.259.58-1.348.555-.823.293-.539.246-.823.24-1.014.387-.642.264-.707.158-.642.1-.347-.169-.218-.094-.193.06-.412.474-.359.369-.1.451-.129.357-.025.346-.168.3-.18.351-.205.415-.193.451-.155.334-.2.1-.463.714-.743.35-.078.323-.013.165-.166-.029-.218-.194-.18-.34-.244-.363-.269-.374-.142-.38-.078-.13-.256-.251-.256-.275-.193-.4-.206-.382-.347-.357-.551-.3-.579.018-.437-.041-.513-.872-.809-.352-.256-.375-.245-.351-.269-.339-.4-.668-.321-.842.09-.368.051-.352-.013-.551-.077-.176-.129-.258-.372-.293-.539-.117-.706-.479-1.029-.638-1.091-.195-.591-.291-.565-.5-.4-.345-.359" transform="translate(-974.166 -1597.05)"  stroke="#fff" stroke-linecap="square" stroke-linejoin="bevel" stroke-width="1" fill-rule="evenodd"/>
      <text id="talId316count"  transform="translate(10.065 49.422)" fill="#fff" font-size="10"  font-family="OpenSans-Bold, Open Sans" font-weight="700"><tspan x="0" y="0"></tspan></text>
    </g>
    <g id="_312_Kankavli" data-name="312 Kankavli" transform="translate(2096.924 252.519)">
      <path id="talId312" fill="#7DB8EC" title="Kankavli Taluka" data-name="Kankavli Taluka" d="M961.531,1626.106l.182-.129.615-.771.656-.873.526-.616.9-.874.432-.617.158-.644.142-.32-.03-.835.151-1.424.223-1.08.456-.732.281-.488.444-.951.54-.193.865.411.516.141.645.026.632.4.351.539.258.616.234.515.176.513.046.54.105.41.292,1.042.451.051.363.205.328.168.311.088.291.026.352-.039.264-.1.661-.385.451-.45.228-.372.136-.3.011-.231-.082-.294-.141-.372-.14-.373-.141-.347-.076-.206,0-.372.139-.205.235-.09.444.051.3.079.323.115.251.038h.2l.808-.437.458-.36.346.36.5.4.292.564.194.591.638,1.092.479,1.029.117.706.293.539.258.373.176.128.55.078.352.012.368-.051.843-.09.668.322.339.4.351.269.375.245.352.257.872.81.041.514-.018.436.3.578.357.552.381.346.4.207.275.193.251.257.13.256.38.077.374.143.363.269.339.243.194.181.03.218-.165.167-.322.013-.35.077-.715.745-.105.462-.334.205-.451.155-.416.193-.351.2-.3.18-.345.168-.357.026-.451.129-.369.1-.473.359-.06.411.094.193.169.218-.1.347-.158.642-.263.707-.386.643-.24,1.013-.246.822-.293.54-.556.823-.58,1.348-.5,1.259-.229.488-.386,1.221-.4,1.593-.608.988-.129.22.082.372.28.437.3.577.281.488.258.475.176.5.029.475.135.5.17.372.322.436.421.3.387.258.346.347.32.052.95-.5.7-.642.645-.412,1.359-.347.824-.3.616-.283.638-.32.323-.154.316-.025.362.244.311.153.954.552,1.364.823,1.035.475.9.566.936,1.092.5.385.65.153h.55l.462.142.3.462.117.488-.018.475-.005.4.667,1.361.293.706.041.36-.087.462-.229.333-.358.334-.345.231-.691.618-.293-.45-.667.436-.515.194-1.106.191-.363.064-.409.412-.158.309.035,1.489.117.271.263.116.252.115.234.052.258-.064.35.012.318.116.28.168.316.063.382.232.128.218.245-.09.27-.077.317.026.316.191.093.245.082.245.082.154.188.1.088-.014.052-.154.008-.193-.018-.219.151-.295.376-.1.346.025.21.217.112.3.38-.014.3.014.316.1.3.013.37-.077.193.193.03.256-.082.3-.157.307.1.271.5-.027.217-.1.369-.065.216.348.171.244.134.1.3.077.3.039.328-.014.221.129.188.257.135.218.123.077.3.026.14.051.082.1.153.218.222.258.112.165.134.245.129.076.381.09.24.064.234-.089.111-.18.182-.18.157.039.393.116.287-.078.357-.154.3-.114.251-.052.241.052.334-.064.315-.36.188-.193.147-.116.211-.153.164-.129.059-.232.1-.373.112-.385.887-.45.347-.078.219-.231.192-.3.18-.271.052-.269-.026-.321-.154-.115.013-.372.141-.3.463-.463.294-.1.3-.025.283-.026.206-.09.372-.2.128-.526.232-.475.1-.153.719-.565.141-.616.269-.271.45-.051.449-.026,1.375.155.667.231.784.026.822-.116,1.336.18.424.129.719.231.527.255.655.412.527.45.219.256.154.129.719-.475,2.428.18.861.206.27.333.282.592-.013.32.18.372.077.374-.244.3-.36.152-.385.155-.27.167-.205.373-.18.4-.373.23-.333.219-1.182,1.04-.539.553-.141.308.089.23.218.269.128.387.038.411v.359l.065.744.025.206.308.051.333-.012.386-.078.334.193.218.232.193.244.18.193.488.129.553.078,1.5.4.6.386.4.308.1.283-.013.385.193.552.385.476.193.231.244.335.245.448.449.925.064.488v.27l-.3.218-.218.141-.013.218.064.386-.205.09-.193-.013-.309-.077-.269-.09-.36.334-.206.412-.064.141-.09.269-.385.064.141.424-.051.449-.09.052-.141-.089-.372-.258-.077.1-.051.18.013.18-.026.411-.167.3-.347.295-.334.258-.256.1-.244-.026-.334-.065-.219-.064-.116-.142-.333-.1-.219.1-.051.168-.052.167-.128.206-.167.076-.218.039h-.245l-.116.013-.179.54-.129.281.026.257-.038.6-.321.193-.437.128-.424.1h-.36l-.1.245.18.18.309.127h.616l.322.116.244.373.334.463.283.436.552.591.552,1.155-.013.348.038.346.052.3.1.283.077.193.269-.05.18.153.115.309.167.27.116.308.052.411-.27.3-.154.129-.4.2-1.028.373-.411.219-.283.2-.1.245.064.141.321-.014.4-.012.32.012.438.167.333.18.308.256.18.283.128.334.078.487-.386,1.26-.141.539-.205.424-.089.321.064.167.257.077.141-.321.18-.385.116-.321.116-.436.077-.333.193-.554.321-.578.116-.269.334-.565.308-.373.347-.218.385-.014.269.3.231.307.308.308.347.385.192.308.206.359.193.026.283-.18.231-.245.283-.321.32-.474.334-.527.449-.18.475-.026.463-.193.372-.283.322-.359.474-.27.45-.3.244-.269.45-.6.411-.486.167-.3.219-.387.231-.244.269-.115.245.244-.026.322-.115.411-.1.27.142.32.218.129.231-.026.219-.089.192-.245.206-.449.115-.283.257-.347.784-.282.668-.245.5-.077.424.167.4.193.27.116.334.359.026.322v.346l-.078,1.091-.257.772-.038.719-.115,1.1-.116.578-.09.474-.193.5-.257.32-.488.192-.565.231-.462.18-.411.128-.359.155-.809.719-.065.207v.32l.026.335v.579l-.065.256-.128.206-.038.216.013.3.077.218.026.232-.951,1.283-.36.4-.552.3-.27.385-.257.232.039.281.321.334.359.258.334.385.3.321.09.309.039.218.487.232.219.167.861.835.462.822.154.513.09.257.27.13-.077.462-.115.243-.309.231-.179.142-.193.244-.064.232.193.244.411.141,1.31-.154.5-.013.5.064.449.051.283.052.565.155.449.115.231.194-.1.217-.193.115-.205.1-.193.232.077.192.321.219.283.155.307.153.643.308.359.154.424.153.3.116.154.205-.013.193-.18.193-.257.168-.36.178-.334.116-.744.271-1.093.782-.269.129-.283.116-.41.1-.643.115-.218.025-.72.681-.321.18-.3.155-.411.218-.411.347-.372.386-.091.167.116.078.282-.1.347-.257.373-.257.449-.244.334-.1h.681l.553.077.372.013h.269l.283-.128.256-.142.616-.077h.386l.449.013.257.128.154.18.141.231.18.488.09.1.27-.257.282-.385.244-.245.308-.167.283-.064.308-.065.308-.051.436-.051.206.051.167-.09.129-.257.064-.206.115-.282.256-.514.36-.026.578-.14.463-.167.526-.282.386-.192.321-.219.3.244.219.18.167.039.283-.154.154-.269.321-.193.373.077.346.231.219.232.128.294.039.194-.9.809-1.4,1.169-.244.977-.655.834-.45.656-.411.232-.63.538-.925.244-.437.206-.09.54.386.347.231.6.4.8.462.475.052.193-.206.091-.141.05-.116.077-.179.09-.064.116.038.167.154.14.089.1v.091l-.822.771-.32.4.154.077.372-.038.373-.013.861-.616.668-.257.591-.039.488.012.192-.294.129-.271.18-.257.167-.129.309.129.243.463.141.309.334.039.309-.167.269-.129.36-.116.449-.115.643-.167h.642l.527-.052h.411l.244.282-.091.284-.3.191-.013.218.218.13.129.064.244.179.09.4-.154.3-.423.282-.668.347-.579.283-.809.475-1.425.975-.257.18-.1.257.115.1.233.2.077.219-.154.256-.334.064-.282.038-.321.128-.141.309.373.321.513.193.578.193.437.243.218.347.09.386.013.155-1.143-.052-.425.013-.449.089-.553-.049-.385.011-1.079-.346-.5-.231-.424-.256-.59-.232-.451-.179-.719-.321-.475-.231-.693-.3-.732-.4-1.079-.552-.436-.231-.579-.372-.359-.218-.886-.527-.385-.334-.206-.231-.616-.231-.668.039-.116-.372-.23-.167-.334-.116-.642-.244-.6.09-.565.245-.783.052-.758-.142-.912-.09-1.079-.012-1.219-.205-.411.178-.334.052-.424.065-.771.154-.269-.13-.63-.256-.334-.193-.167-.27-.372-.359-.231-.065-.552-.127-.462.166-.4-.142-.359-.32-.167-.387-.783-.14-.6.077-.36-.077-.385-.142-.655-.27-.205-.333.051-.412.115-.462-.256-.411-.309-.335-.616-.141-.334-.321-.527-.309-.4-.333-.193-.386-.283-.642-.514-.256-.6-.039-.476.1-.411.5-.5.834-.8,1.568-.142.552-.192.937-.153.887.308.667.052,1.092.231.128.514.282.565.321.18.346-.077.656-.386.667-.321.861-.848.205-.552.283-.463.013h-.321l-.488.051-.655.129-.72.23-.616.194-.668.307-.565.617h-3.377l-.293-.116-.211-.321-.153-.308-.421-.372-.667-.064-.819-.051-.363-.116-.234-.387-.235-.449-.4-.552-.657-.385-.48-.449.011-1.272-.538-.527-.761-.642-.738-.487-.737-.566-.5-.823-.27-.564-.222-.707-1.053.822-.409.732-.282.178-.455.258-.469.527-.481.539-.456.1-.457.026-.678.025-.34.245-1.381.784-.481.488-.433.386-.153,1.27-.386.411-.422.45-.608.334-.375.528-.316.282-.362.064-.352.18-.1.424-.117.553-.549.282-1.055.193-.82-.436-.233.089-.446.59-.374.578-.363-.206-.245.154-.117.386.117.513v.423l-.27.245-.4.025-.211-.205-.211-.269-.339-.347-.281-.27-.492.18-.293.205-.351.179-.5.117-.41-.077-.363-.412-.481-.334-.293-.308-.515-.821-2.914-.18-.188-3.776-.116-.5-.211-.322.187-.462.223-.229.468-.3.48-.026.3-.282.153-.565-.13-.372-.128-.231.094-.295.643-.167,1.1-.707,2.986-1.888,1.369-.694.972-.667.328-.565.035-.732-.48-.347-.55-.436-.737-.733-.726-.629-.855-.694-1.041-.565-1.8-1.234-.34-.23-.737-.436-1.336-.4-.655-.3-.855-.528-.445-.539.059-.488.186-.5.107-.54-.059-.666-.6-.154-.456.281-.329.669-.28.281-.5.271-.4.153-1.043.541-.737-.18-.96-.411-.914-.566.222-.667.188-.282.151-.463-.176-.45-.246-.527-.245-.59-.409-.566-.318-.333-.444-.424-.444-.089-.3.141-.657.178-.5-.025-.561.05-.609-.23-.282-.758-1.172-1.168.3-.411.164-.27.035-.36-.234-.526-.328-.565-.233-.5-.352-.667-.351-.578-.784-.745.057-.758.435-.437.338-.4.376-.384.479-.4.446-.333.725-.09v-.385l.012-.591.082-.244.293-.372.3-.374.481-.5.152-1.3.632-.449.375-.488-.106-.822.023-.527.083-.86.562-.644.585-2.209.3-.436-.163-.988-.551-.5-.538-.49-.421-.577-.7-.758-.526-.6-.176-.68-.106-1.451-.386-.541-.07-.41.094-.244.445-.257.55-.013.292-.141.339-.372.2-.566.024-1.143.328-1.837.327-.539.245-.81.105-.68V1670.2l.013-1.888.012-.707-.095-.591-.27-.565-.082-.616.329-.591-.013-2.35.047-.977.293-.256.55-.322.645-.552.689-.514.423-.385-.235-.334-.527-.077-.586.014-.35.166-.563.3-.843.244-.27-.269-.234-.5.035-.784.07-1,.234-2.079v-.578l-.5-.4-.421-.283.023-.617.445-.436.468-.963-.046-.937.8-.541-.117-3.069.865-.939.7-.859-.071-.566-.374-.539-.844-.565-.515-.488-.421-.6-.726-.989-.444-.772-.727-.628-.163-.475.023-.655.984-2.478.515-.823.21-.745.071-.848v-1.027l-.141-1.2-1.154-.258-.35-.475-.527-.423-.574-.437-.5-.334-.462-.462-.27.1-.222.025-.362-.154-.4-.27-.416-.4-.358-.424-.286-.528-.416-1.052-.281-.5-.33-.578-.256-.269" transform="translate(-961.531 -1615.56)"  stroke="#fff" stroke-linecap="square" stroke-linejoin="bevel" stroke-width="1" fill-rule="evenodd"/>
      <text id="talId312count"  transform="translate(27.955 77.999)" fill="#fff" font-size="10"  font-family="OpenSans-Bold, Open Sans" font-weight="700"><tspan x="0" y="0"></tspan></text>
    </g>
    <g id="_314_Malwan" data-name="314 Malwan" transform="translate(2051.941 330.479)">
      <path id="talId314" fill="#7DB8EC" title="Malwan Taluka" data-name="Malwan Taluka" d="M942.657,1769.48l-.176-.218-.485-.642-.177-.32-.185-.412-.134-.3-.073-.206-.1-.257-.052-.154-.047-.2-.038-.49-.008-.089,0-.464-.018-1,.011-.591.021-.3.037-.385.033-.538.093-.862.1-1.181,0-.591-.032-.36-.18-.9-.112-.322-.148-.463-.5-1.361-.19-.553-.184-.59-.145-.5-.3-1.4-.12-.425-.155-.359-.129-.271-.328-.539-.243-.32-.181-.167-.371-.361-.416-.308-.282-.166-.4-.206-.727-.269-.374-.115-.389-.064-.167-.013-.005-.026.139-.205.1-.321,0-.309-.082-.284-.079-.281-.084-.232-.086-.14-.094-.142-.25-.232-.12-.077-.147-.077-.143-.039h-.04l-.014.077h-.014l-.175-.09-.381-.115-.279-.051-.158-.038h-.193l-.208.051-.1.051-.073.065-.023.037,0,.039.012.026.016.052h.007l.034-.014.014.014.036.051,0,.013-.028.025h0l0,.014.023.1-.013.065-.037.051-.1.064-.086.039-.105-.052-.132.012-.035-.026-.034-.089,0-.039.011-.026.032-.014.018-.012.016-.026-.012-.051-.044-.039-.06-.013-.052.038-.009.014-.022.012-.022.012h-.047l-.054-.012-.1-.154-.023-.065-.012-.051-.037-.09-.012-.039,0-.038h.037l.036.013.048.012.028.026.049.064.026.09.019.014h.065l.078-.038.055-.051,0-.091-.013-.052-.027-.089v-.065l.044-.051.061-.051.032-.078,0-.064-.024-.039-.066-.051-.1-.026-.025-.039-.1-.167-.069-.154v-.089l.069-.013.032-.013.03-.027.017-.09-.07-.179-.014-.039.034-.1-.009-.026-.047-.013-.1.013-.06-.013-.034-.052,0-.051.021-.051-.023-.064-.1-.18.012-.038.064-.09.094-.078.115-.052.189.066.22.064.052-.014.073-.012.054.026.05.115h.053l.161.026h.11l.121-.039.176-.076.211-.129.178-.167.108-.129.117-.14.18-.307.184-.515.029-.153,0-.129-.014-.078-.076-.09-.111-.051-.177.014-.078-.078,0-.025.066-.064.162-.1.156-.064.071-.09.18-.129.069-.025.093-.116-.046-.295-.035-.18-.03-.193-.008-.078-.021-.269-.022-.218-.046-.193-.16-.335-.121-.2-.07-.051-.081-.038-.06-.014h-.093l-.038-.024v-.039l.035-.026.018-.064-.02-.077-.058-.078-.045-.012-.089-.013-.087.013-.086.051-.079.013-.064-.026-.081-.077-.135-.065-.075.012-.252.065-.1.064-.135-.064-.125-.013-.032-.025-.016-.065.016-.116-.051-.09.009-.051.086-.089.082-.1.029-.064.01-.076.031-.039.075-.012.06-.052.048-.077.092-.077.01-.063v-.065l-.009-.039-.036-.027-.067-.025-.018-.014.018-.026.072-.089-.009-.037-.08-.039-.061-.025-.082-.013-.032-.038-.018-.052-.014-.039-.044-.038.035-.039.085-.039h.082l.04.039.051.064.094.04.2.077.1.025h.068l.1-.038.044-.025.068-.052.038-.026.061-.025.068-.013.07-.014.094-.025-.087-.359-.073-.347-.079-.038-.026-.013-.029-.026-.039-.064-.032-.127v-.309l-.018-.6-.044-.309-.028-.1-.045-.155-.015-.09-.019-.232-.129-.462-.053-.14-.088-.206-.061-.154-.045-.155-.081-.154-.088-.218-.1-.309-.051-.167-.083-.258-.073-.217-.02-.115-.012-.181-.01-.167.011-.359.068-.5.023-.18.04-.4.014-.257-.038-.8-.008-.27-.049-.371-.067-.4-.086-.449-.067-.27-.035-.129-.031-.037-.01-.052-.043-.205-.061-.218-.12-.347-.023-.18-.029-.1-.048-.064-.037-.052-.033-.038-.1-.348-.024-.051-.034-.037-.117-.322-.084-.308-.048-.155-.083-.205-.068-.321-.069-.322-.065-.41-.045-.334-.054-.346-.091-.373-.03-.359-.061-.515.005-.154-.026-.153-.014-.155-.051-.192-.022-.064-.064-.219-.018-.051-.057-.1-.018-.039-.052-.321-.136-.527-.023-.078-.043-.152-.039-.271-.054-.231-.047-.206-.052-.282-.043-.218-.036-.193-.092-.359-.072-.193-.078-.18-.065-.181-.073-.2-.078-.192-.044-.206-.061-.334-.05-.245-.042-.179-.03-.141-.033-.18-.038-.372-.022-.269-.011-.09-.031-.129-.035-.129-.053-.219-.07-.359-.045-.283-.059-.231-.072-.205-.1-.232-.046-.141-.114-.245-.119-.283-.069-.23-.138-.464-.084-.256-.055-.309-.079-.308-.074-.359-.027-.655-.065-.475-.066-.374-.136-.41-.177-.462-.023-.142-.064-.243-.188-.593-.087-.4-.08-.18-.314-.475-.22-.3-.027-.052-.017-.1-.035-.1-.028-.051-.108-.231.989-1.413.187-.348.644-1.193.994-1.438.515-2.544.27-.756.327-.54.469-.283,1.217.05,1.843-.32,1.085-.013,1.392-.449.592-.129.451-.192.362-.039.579.013.457.1.223.23.117.091h.439l.352-.243.14-.426.011-2.453.082-.411.223-.5.082-1.119.719-.348,1.511-1.143.158-.809.375-.565.328-.372.755-.3.721-.051.667-1.04.522-.386.334-.359.362-.218.363-.219.286-.2.329-.077.228.09.24.346.052.282.316.064.357.012.5-.193.784-.526.831-.463.1-.231.023-.631,0-.59-.211-.346-.263-.27.069-1.477.328-.257.373-.078.358-.154.117-.385-.193-.335-.275-.154-.323-.089-.071-.308.183-.231.621-.065h.673l.555.077.4.31.579.615.234.129.4.09.352-.026.438-.244.667-.051,1.241-.012,1.037-.078.89.18.457.154.205.039.164-.219.269-.41.316-.346.416-.3.586-.424.62-.36.808-.154.439-.077.28-.1.393-.334.5-.387.328-.282.428-.463.281-.565.316-.5.41-.271.339.283.622.488.462.385.485.3.826.539.592.592-.035,2.105.234.347.362.372.27.45-.327.782-.093.926-.053,2.722.082.283.152.322.293.4.656.231.34-.115.391-.27.5-.271.532-.3.721-.347.8-.437.755-.423,1.172,1.168.281.758.609.231.562-.051.5.026.656-.181.3-.141.444.089.444.425.318.333.409.565.245.591.246.528.176.448-.152.463-.188.282-.222.668.914.564.96.412.737.181,1.044-.54.4-.155.5-.269.28-.282.329-.669.456-.282.6.155.059.668-.106.539-.186.5-.059.489.444.54.856.526.655.295,1.336.4.737.437.34.23,1.8,1.234,1.041.565.856.694.725.629.738.732.55.437.48.346-.035.733-.327.565-.973.668-1.37.692-2.986,1.888-1.1.708-.643.166-.094.3.129.231.13.372-.153.565-.3.283-.481.026-.467.3-.224.23-.187.463.211.32.117.5.187,3.776,2.914.18.516.821.292.308-.515.528-.005.386-.053.461-.117.412-.211.269-.451.014-.417-.117-.345-.36-.275.091-.123.32-.176.245-.245.27-.229.3.006,1.052.2.438.281.552.328.667.235.488.175.412v.4l-.234.309-.275.245-1.049.783-.4.244-.318.437-.292.476-.24.41-.165.27-.193.295-.235.321-.2.245-.352.167-3.523.013-.206.552-.093.5-.218.488-.291.706-.4.925.147.526.3.463.409.6.3.513.334.513.613,1.042.855,1.374.316.642.264.4.785.012.966.064.539-.822.233-.655.276-.63.433-.988.363-.45.275-.115.351-.1.229-.116.258-.27.339.437.492.424.731.347.277.284.117.32.339.321.322.18.492,1.272.643.822.726.373.128,3.879-.632.68-.117.527.059.463.609.667.35.539.153.681-.258.6-.316.41-1.334.258-.446.1-.843.309-.469.4-.585.513-.551.616-.667.861-.329.5-.422-.526.059-.616.094-.682-.047-.68-.257-.463-.421.026-.527.451-.352.217-.5.142-.387.18-.41.36-.187.346-.175.963-.105.514-.059,1.04-.375.5-.585.411-.456.232-.5.129h-.409l-.327-.155-.387-.412-.55-.232-.528-.013-.609.682-.245,1.386-.258.463-.246.347-.643.372-.879.476-.83.23-.4.167-.4.5.655,1.348.142.8.093.746-.035,1.231L977.4,1759l-.773.6-.516.373-2.131.553-1.417-.668-.959-.758-.785-.655-.574-.527-.527-.384-.537-.463-.54-.219-.456-.1h-.89l-.8.334-.456.629-.316.5-1.452,1.222-1.265.14-.679.026-.491-.128-.433-.191-2.693-.026-1.31-.321-1.383.064-1.078-.115-.772-.064-.609-.052-2.143.091-1.253.307-.527.425-.913.385-.879.283-.737.245-.632.218-.563.206-1.8.589-.8,1.029-.528.757-.128.6-.023,1.029.094.744.55,1.245.819,1.183.574.911.281.8.375,1.168.012.669.414.705-.335.193-.42.206-.031.014-.031-.014-.26-.206-.138-.127-.244-.27-.114-.218-.106-.206-.146-.256-.139-.245-.23-.385-.285-.462-.159-.244-.1-.155-.181-.244-.178-.258" transform="translate(-926.451 -1676.36)"  stroke="#fff" stroke-linecap="square" stroke-linejoin="bevel" stroke-width="1" fill-rule="evenodd"/>
      <text id="talId314count"  transform="translate(20.938 45.039)" fill="#fff" font-size="10"  font-family="OpenSans-Bold, Open Sans" font-weight="700"><tspan x="0" y="0"></tspan></text>
    </g>
    <g id="_313_Kudal" data-name="313 Kudal" transform="translate(2068.1 353.986)">
      <path id="talId313" fill="#7DB8EC" title="Kudal Taluka" data-name="Kudal Taluka" d="M949.92,1775.826l-.113.064.048.116.04.1.021.051-.019.039-.034.051-.031.077-.013.065-.016.077-.034.052-.084.051-.041.064-.019.039-.008.1-.014.153-.046.116-.055.038-.156.064-.211.052h-.083l-.068-.026-.118.012-.177-.077-.135-.116-.052-.051-.048-.013h-.048l-.088.026-.061-.026-.045-.077-.036-.038-.058-.026-.122-.026-.115-.038-.059-.026-.056-.013-.022-.039-.016-.09-.01-.09-.058-.038-.168-.091-.084-.037-.072-.014-.119-.1-.027-.037-.038-.039-.067-.09-.021-.025-.027-.026-.044-.025-.041-.039-.1-.052-.035-.025-.042-.039-.033-.013-.023-.025h-.03l-.076-.026-.013-.014-.02-.025-.013-.014-.016.014h-.005l-.008.013-.009.012-.013.027-.014.013-.019.025h-.081l-.018-.038h-.01l0-.027,0-.051v-.038l-.014-.078-.007-.024-.014-.026-.019-.013-.028.013-.064.1h-.017l-.029.012-.027.013h-.02l-.034.014h-.045l-.034-.014-.065-.039-.032-.013H945.9l-.01-.014,0-.025h-.036l0-.026h-.019l-.007.051-.011.014-.011-.014h-.006l-.009-.025h-.04l-.006.025.029.052.02.064.008.065-.008.013h-.021l-.009-.013-.025-.013-.028.013h-.01l-.023-.013h-.042l-.006-.014,0-.051,0-.038.015-.065,0-.051h.017l.035.014h.028l.017-.014h.007l.006-.013,0-.026v-.013l.009-.025v-.051l0-.039.015-.039.027-.037.026-.027.033-.011.059-.013.028.013.022.011.018.027.022.012h.009l0-.012-.008-.013,0-.015,0-.011.01-.013h.032v-.014l-.011-.013-.035-.013h-.04l-.033-.012-.011-.013,0-.026.008-.039-.009-.012-.023-.013-.018.013-.031.025h-.072l-.014-.013,0-.025-.007-.012-.024.012-.058.064-.019.064-.011.039,0,.011.007.015h.022l-.02.025-.08.025-.089.013-.11.014-.042.039-.01.025,0,.013h.009l.015.013.016.013.093-.039.13-.012.077.012.046.013v.026l-.017.013h-.057l-.154.012-.108.039,0,.064-.011.026,0,.052.01.024-.007.026v.039l0,.013-.023.025-.007.026,0,.026-.011.051-.01.026h-.044l-.018.013h-.035v-.026l.006-.038-.006-.013-.015-.013,0-.013,0-.026.019-.038.013-.027.01-.039.012-.051-.066-.039-.059-.026-.072-.025-.168-.065-.172-.013h-.265l-.108.142-.032.051-.01.013,0,.013-.006.026-.015.012-.013.014-.054.026-.038.012-.052.052-.079.064-.028.026.012.064v.026l0,.013-.012.012-.031.026-.029.025-.011.026-.011.039-.01.025h-.074l-.034.013-.017.012h-.018l-.011-.012-.013-.013-.048-.038-.038-.052h-.035l-.037.012h-.018l-.032-.012-.015-.013-.018.013-.012.012,0,.026-.03.026-.008-.026h-.014l0-.09h.034l.012-.012.007-.013,0-.026-.023-.052h-.018l-.036.014h-.02l-.007-.026.005-.013v-.026l-.022-.013v-.025l.017-.052-.029-.038-.042-.091v-.051l.087-.142-.025-.141-.044-.1-.135-.244-.166-.243-.14-.258-.087-.154-.211-.372-.1-.167-.086-.168-.134-.166-.065-.128v-.064l-.005-.063-.005-.052-.02-.078-.023-.051-.1-.218-.124-.205-.117-.142-.142-.155-.081-.141-.086-.232-.087-.244-.1-.192-.061-.166-.087-.322-.067-.206-.014-.039v-.037l.017-.053.045-.024.22.024.082.026h.048l.055-.026.054-.064.1-.128.069-.141.057-.129.076-.18.042-.206.021-.179.024-.206.064-.218.089-.193.022-.039.076-.141.1-.322.03-.167-.016-.3-.029-.141-.076-.243-.035-.052-.009-.012.006-.039.014-.039v-.077l-.008-.063-.035-.142-.027-.051-.01-.039-.416-.707-.011-.668-.376-1.169-.281-.8-.575-.912-.82-1.182-.549-1.246-.094-.745.023-1.028.129-.6.528-.758.8-1.027,1.8-.593.563-.2.632-.218.738-.245.878-.282.913-.385.527-.423,1.253-.308,2.143-.09.609.052.772.064,1.078.115,1.382-.064,1.309.321,2.694.027.433.192.492.13.68-.026,1.263-.142,1.453-1.22.316-.5.456-.63.8-.334h.89l.456.1.54.219.538.462.527.386.574.526.785.656.959.756,1.417.669,2.13-.553.516-.371.773-.605,1.076-1.129.036-1.234-.094-.745-.141-.8-.655-1.348.4-.5.4-.168.831-.229.878-.475.644-.374.246-.347.258-.463.245-1.386.608-.681.528.013.549.231.387.411.327.155h.41l.5-.128.457-.231.584-.411.375-.5.059-1.041.105-.514.175-.963.187-.348.41-.358.387-.179.5-.142.35-.218.528-.449.422-.026.256.463.048.681-.094.68-.059.617.421.527.329-.5.666-.861.551-.616.584-.514.469-.4.843-.308.445-.1,1.334-.256.316-.41.258-.6-.153-.681-.351-.541-.608-.667-.059-.463.116-.526.632-.681-.129-3.88-.726-.372-.643-.822-.492-1.272-.322-.179-.339-.32-.117-.322-.275-.282-.731-.346-.492-.426-.339-.435-.258.269-.229.115-.35.1-.275.116-.363.45-.433.99-.276.628-.234.656-.539.822-.966-.066-.786-.012-.262-.4-.316-.643-.856-1.375-.614-1.041-.334-.513-.3-.514-.41-.6-.3-.462-.146-.527.4-.924.292-.707.217-.488.094-.5.206-.551,3.523-.013.352-.167.2-.244.235-.322.193-.3.165-.269.24-.412.291-.474.317-.438.4-.243,1.048-.782.275-.245.234-.309v-.4l-.175-.412-.236-.488-.326-.668-.282-.552-.2-.437-.006-1.053.229-.295.246-.269.175-.245.124-.321.274-.09.346.361.416.114.451-.012.21-.271.117-.41.053-.463,0-.385.516-.526.48.332.364.412.409.077.5-.116.351-.18.293-.206.492-.178.281.268.339.348.211.269.21.206.4-.026.27-.245v-.423l-.117-.513.117-.387.245-.154.363.206.374-.579.445-.591.234-.089.819.436,1.055-.193.55-.283.117-.552.105-.424.352-.18.362-.064.317-.283.374-.526.61-.335.42-.449.387-.411.154-1.272.432-.386.48-.488,1.381-.783.34-.244.678-.027.456-.025.456-.1.48-.54.469-.527.455-.255.282-.181.41-.733,1.054-.821.222.706.27.565.5.822.737.566.739.487.76.643.538.526-.011,1.273.481.45.656.384.4.553.235.449.234.385.363.116.82.051.667.065.421.373.153.307.21.323.293.115h3.377l.566-.616.668-.309.616-.193.72-.232.655-.127.488-.052h.321l.462-.013.553-.283.848-.206.32-.861.386-.667.077-.655-.18-.346-.566-.323-.513-.281-.231-.129-.052-1.093-.308-.666.154-.888.192-.937.142-.552.8-1.567.5-.835.411-.5.475-.1.6.039.514.256.283.642.192.386.4.334.527.308.334.321.616.142.309.334.257.41-.116.462-.051.411.206.335.655.269.385.143.36.076.6-.076.784.14.166.387.36.318.4.142.462-.167.552.128.231.065.373.36.167.269.334.192.63.258.269.129.77-.155.424-.064.334-.053.411-.18,1.22.206,1.079.013.912.089.758.142.784-.052.565-.245.6-.089.642.244.333.116.231.167.116.372.668-.039.616.232.206.231.385.335.886.526.361.219.577.371.437.231,1.079.554.732.4.694.3.474.231.72.321.449.18.591.232.424.257.5.231,1.079.347.385-.013.552.051.45-.09.424-.011,1.143.051.025.231-.167.809-.27.269-.616.065-.668.013-.514-.038-.41.051-.3.181-.372.32-.3.308-.283.269-.924.013-.668-.218-.488-.206-.218-.41-.334-.167h-.462l-.5.181-.283.218-.192.359-.1.308-.013.334-.025.3-.129.412-.308.448-1.015,1.118-.334.411-.192.269.424.27.437.077.462.167.128.2.1.361.141.193.36.05.09.244-.206.629-.437.283-.372.051-.167.193-.065.308.206.41.269.309.18.321-.038.41-.116.322-.243.3-.244.243-.283.142-.295.167-.835.771-.527.245-.655-.3-.437-.077-1.015-.423-.475-.221-.436.014-.616.115-.45-.025-.424-.1-.218-.051-.386-.667-.115-.155-.36-.269-.373-.154-.424-.039-.385.077-1.452.052-.526.037h-.245l-.321-.218-.359-.193-.193-.142-.219-.3-.193-.166-.321-.038-.206.128-.077.412-.025.4-.013.322.051.333.051.282-.231.167h-.282l-.283-.142-.359-.217-1.169-.694-.681-.489-.5-.45-.463-.462-.244-.385-.4-.437-.321-.283-.3-.179-.3.154.257.475.193.27.282.436.244.372.244.335.09.436.039.411.026.309.077.346.193.167.193.142.244.437-.09.4-.141.334-.308.3-.757.462-.168.244.052.282.283.258.064.3-.141.3-.218.256-.385.579.115.23.282.258.219.27.141.282.09.3-.025.514-.052.128-.514.681-.347.45-.115.359-.013.347-.013.347-.064.335-.077.23-.218.309-.218.309-.321.2-.63.515-.72.617-.385.488-.154.321-.141.347-.193.744.09.348.141.23.18.193.167.244.18.091.2.077.257.18.141.116.167.14.244.18.308.128.155.142.257.308.167.322.039.231.064.463-.115.141-.026.219-.09.205-.091.154-.064.129-.026.114.026.091.1.141.167.091.2.05.18.065.142.038.193.064.231-.154.141.1.129.116.128.1.154.038.282.115.282.167.232.064.168.051.282.039.385.052.1-.013.193.539.244.334.27.181.271.244.14.129.077-.078-.115-.244-.141-.155-.347-.269-.09-.142-.1-.281-.09-.258v-.308l.077-.269.025-.283V1736l-.077-.335-.077-.115-.18-.206-.154-.193-.231-.141-.1-.037-.206.011-.154.052-.193.091-.206.064-.141-.064-.1-.078-.27-.052-.115-.025-.565-.373-.424-.256-.27-.167-.141-.168-.128-.256-.077-.129-.025-.218.025-.231.039-.153.206-.912.013-.411.475-.193.36-.013.217-.051.219-.142.129-.192.141-.372.2-.18.218.014.566.026.052-.193-.155-.373-.038-.373.077-.333.322-.155.4-.1.925-.258.219-.321.552-.321.5-.065.655-.013.411-.013.707.039.488.14.038.451-.4.3-.424.232-.385.295-.3.346-.27.359-.232.321-.09.411.154.206.334.052.193.063.256.18.437.115.578-.232.257-.333.385-.321.372.052.09.2.193.36.424.167,1.81.231.9.231.771.309.591.244.462.219.643.282.475.077.308-.167.1-.539.013-.4.051-.6.128-.655.18-.359.4-.449.347-.142.5-.052.449.194,1.233.41,1.027-.012.72.154.54.1h1.695l.629.052.642.077.463.348.167.193.372-.128.437-.192.308-.026.309.064.244-.18.334-.181.385-.077.719-.141.463.309.514-.077.424-.334,1-.116.6.257.5.256.489.385.5.41.565.245.475-.361.526-.051.514.36.745.038.437.038.359.27,1.143.051h.887l1.028-.026.848.091.6-.026.746.039.642.025.359.361-.051.436-.3.526-.334.643-.334.578-.553.5-.346.41.231.347.847.1.642-.013.6-.154.36-.027.513-.062.823.051.257.475.1.513-.077.335-.064.231.245.193.09.244-.026.257-.077.308-.206.141-.193.077-.129.09.218.116.385.077-.3,1.247-.386.217-.322.154-.4.1-.322.129-.205.064-.269-.027-.219-.075-.244.064-.256.1-.257.179-.09.18.09.269-.732.63-1.233.643-.758.77-.27.308-1.1.154-2.351-.013-.9.025-.565.4-.8.63-.616.5-.308.258-.091.423v.385l.025.308.167.386.051,1.129-1.412,1.593-.835,1.014-.874.437-1.374.476-1.054.14h-.8l-.9-.243-1.168.359-2.03.8-.783.141-.771.425-.463.3-.706.5-.732-.039-.54-.282-.86.193-.4.128-.411-.347-.462-.245-.553-.051-.424.335-.4.564-.578.41-.643.488-.616.54-1.221,1.156-1.67,1.22-1.079.257-.861.579-.256.231-.1.513-.308.475-1.079.861-.655.436-.578.231-.591.09-.566-.064-.68-.052-.372.052-.912.18-.822.063-1.324.566-.834.565-.424.129-.437.269-.359.232-.951,1.386-.372,1.028-.462.526-1.31,1.349-1.387,1.208-.835.1-.681.193-1.464,1.335-.629.591-.475.333-.373.309-.552,1.027-.116.925-.141.719-.141.552-.475.49-.835.513.013.565-.655.565-.36.205.077.63.078.526-.192.681-.488.515-.656.23-.873.166-.761.233-.961.025-.737-.128-.632-.231-.446-.216-.327-.284-.3-.205-.387-.231-.621-.269-3.477-.412-.714.732-.575.681-.585.449-.386.3-.656.052-.21-.643-.351-.705-.246-.462-.269-.462-.187-.269.069-.745.025-.759-.025-.757-.092-.54-.235-.437-.176-.231-.269.089-.316.244-.48-.115-.6-.194-.539.117-.445.153-.994.655-.481.322-.48.154-.4.1-1.37-.128-.668-.386-.48-.488-.129-.5.035-.473v-.283l-1.124.064-2.529-.1-1.918-.038-1.524.231-1.533.4-.609.744-.584.514-.621.27-.68.232-.738.269-.422.346-.257.541-.62,1.156-.387.667-.363.655-.6.231-.491.051-.774-.077-.643-.2-1.055-.36-2.037.425-1.335.525-.913.668-.655.527-1.615,1.194-.458.694-.362.475-.363.411-.643.642-.563.322-.246-.374.058-.77-.35-.528-.575-.743-.492-.553-.481-.424-.561-.655-.433.4-.457.462-.328.36-.176.154-1.3.874-.094-.116-.178-.18-.013-.026-.019-.026-.021-.014-.027-.013h-.052l-.068.026-.065.012h-.053l-.033-.012-.046-.052-.032-.012h-.1l-.1-.013h-.036l-.029-.026-.013-.013-.025-.013-.166.026-.036.013-.025.026-.023.025h-.067l-.023-.013h-.033l-.136.013-.035.013-.054.013-.047.014-.035-.026-.016-.026-.016-.025H962.8l-.18.013h-.066l-.075-.026-.041-.026-.032-.025-.034-.013h-.04l-.065.013h-.03l-.016-.026-.022-.026,0-.025-.018-.027-.045-.024-.061-.064-.052-.065-.025-.026-.028-.038-.049-.04-.08-.038-.058-.025-.034-.026-.05.013h-.077l-.084.051h-.046l-.043-.026h-.041l-.033.012-.037.014-.024-.014-.043-.025-.036-.012-.028-.026-.024-.013-.024-.013-.032.013h-.04l-.031-.026h-.02l-.026.013-.015.013-.033.013h-.025l-.059-.013-.022-.013-.023-.013-.048-.013-.084.013-.041.013-.058.013-.062.026-.118.013H960.3l-.036.025h-.043l-.025-.013-.053-.012-.088.012h-.127l-.041-.026-.037-.026-.064-.039-.047-.037-.045-.026-.055-.025-.128-.065-.042-.025-.042-.052-.032-.064-.047-.078-.053-.128-.025-.181-.041-.051-.07-.051-.111-.256-.042-.115-.019-.245.029-.141-.02-.076-.047-.078-.078-.154-.169-.166-.186-.155-.043-.012-.039-.013-.049.013h-.036l-.031-.013-.052-.052-.051-.026-.079-.025-.163-.091-.063-.027-.048-.024-.076-.026-.066-.038-.051-.013-.055-.026-.052-.013-.048-.039,0-.012-.015-.05h-.067l-.122-.077-.025-.026-.054-.026-.028.013h-.015l-.016-.013-.009-.013-.035-.026-.037-.039-.038-.012-.061-.039-.031-.038-.064-.053h-.037l-.014-.013-.075-.051-.03-.065-.027-.064-.013-.026-.018-.037-.052-.039-.143-.09-.149-.077-.023-.014h-.075l-.115-.038-.079-.013L956,1779.6l-.172-.1-.107-.088-.026-.053-.018-.05-.121-.1-.117-.065-.089-.051-.064-.039-.08-.025-.073-.013h-.2l-.058-.026-.027-.037-.063-.027-.082-.012-.14-.027-.181-.025-.111-.013-.084-.026-.018-.025-.114-.065-.067-.063-.074-.064-.063-.064-.1-.142-.044-.039-.081-.038-.126-.052-.127-.077-.072-.077-.048-.064-.079-.09-.166-.115-.147-.116-.046-.051-.054-.065-.166-.193-.134-.154-.2-.193-.173-.155-.141-.128-.157-.167-.046-.065-.127-.1-.221-.155-.3-.142-.138-.051-.157-.052-.151-.039-.155-.025-.164-.026-.2-.025-.1-.052-.117-.064" transform="translate(-939.053 -1694.689)"  stroke="#fff" stroke-linecap="square" stroke-linejoin="bevel" stroke-width="1" fill-rule="evenodd"/>
      <text id="talId313count"  transform="translate(58.779 52.532)" fill="#fff" font-size="10"  font-family="OpenSans-Bold, Open Sans" font-weight="700"><tspan x="0" y="0"></tspan></text>
    </g>
    <g id="_315_Sawantwadi" data-name="315 Sawantwadi" transform="translate(2121.154 400.532)">
      <path id="talId315" fill="#7DB8EC" title="Sawantwadi Taluka" data-name="Sawantwadi Taluka" d="M1039.977,1819.216l-.128.411-.334.2-.693.038-.771.089-.269.219-.6-.384-.039-.167-.244-.066h-.385l-.346-.321h-.437l-.771-.192-.822-.219-.656.039-1.053.18-.629-.155-.617-.437-.27-.347-.18-.423-.218-.438-.09-.526.012-.425.193-.475.321-.437.514-.565.129-.32-.064-.256-.244-.1-.167-.09-.077-.193.27-.155.372-.038.732-1.426.026-.307-.231-.026-.2-.1-.308-.064-.347-.2-.3-.412-.232-.065-.822-1.027-.1-.4-.257-.284-.154-.077-.579-.153-.218-.219-.013-.486-.167-.618-.026-.579.219-.744.359-.924-1.053-.539-.8-.026-.784-.412-.167-.064h-.18l-.141.052-.18.167-.6.654-.077.115-.128.5-.334,1.155-.142.45-.218.386-.68.45-.116.14.013.206.193.18.578.385.488.385.129.219v.154l-.09.166-.154.1-.257.025-.257-.064-.745-.257-.488-.089-.27.013-.18.167-.128.18-.321.6-.27.6-.206.475-.116.436-.064.436-.065.539-.129.451-.231.231-.347.142-.436.063-.937.114-.283.156-.166.23-.026.258.347.911.1.488.026.463-.09,1.078-.154.4-.462.6-.437.72-.219.642-.089.5-.128.167-.874.6-.475.089-.449.091-.334-.039-.694-.385-.719-.385-.476-.154-.346.064-.154.27-.18.449-.218.438-.411.3-.886.347-.848.436-.333.1-.3-.142-.347-.256-.4-.1-.45.077-.411.129-.411.205-.256.193-.051.191.1.322.09.41-.437,1.016-.3.294-.27.168-.437-.142-.9-.45-2.713-.629-2.391-1.193-3.544-.424-1.351-.039-1.021.374-1.3.782-.821.977-1.169,1.67-.189.386-.58-.012-.6-.245-.456-.528-2.03-.449-1.98.039-2.8.771-.306-.245,1.078-.809.41-.193.351-.167.515-.257.422-.411.081-.513-.279-.451-.458-.255-.469-.259-.667-.4-.562-.424.223-.372.551-.385.327-.951.364-1.4.62-.822-.117-.59-.691-.36-.446-.991-1.346-.179-.351-2.747-.316-.348-.5-.142-.153-.4-.211-.526-.117-.552.046-.463.235-.643-.2-1.246.293-.269.479-.436.492-.4.293-.487.316-.578.21-.707.41-1.246,1.124-2.107.574-.527.925-1.014.386-.642.14-.707-.117-.423-.3-.438-.339-.411-.165-.448.27-.245.643-.13.574.348.175.539.585.206,1.265.411.644.384.375.4.516.128.432.09.516-.026,1.019-.243,1.171-.36.761-.114,1.453-.078.865-.089.551-.27.246-.553.117-.834.13-.911.291-2.171.129-.6.281-.438.6-.449.364-.708.165-.8.046-.809-.128-.693-.387-.451-.562-.629-1.076-.1-.609.269-.715.3-1.241.166-2.746-.616-.6-.013-.435-.3-.193-.86-.011-.167-.059-.308-.222-.27-.463-.193-.117-.218.188-.128.321-.116.5-.09.392-.091.034-.347-.046-.552.417-.475.211-.243.175-.3-.023-.258-.252-.206-.1-.283.328-.333.42-.321.259-.655-.048-.591.094-.487-.211-.425-.233-.629-.094-.425.14-.423.281-.6.3-.4.913-.232.632-.4-.27-.77.224-.321.2-.463v-.4l-.036-.5-.316-.449-.083-1.593-.186-.4-.118-.246-.11-.359-.124-.359-.158-.23.006-.232.269-.4.106-.322.656-.051.387-.295.584-.45.575-.68.714-.732,3.477.41.62.27.386.232.3.205.328.282.445.219.633.231.737.128.961-.025.76-.23.873-.167.655-.232.488-.514.193-.681-.077-.525-.077-.63.359-.206.655-.565-.013-.565.835-.514.475-.489.141-.552.142-.719.115-.925.552-1.028.373-.308.475-.334.63-.59,1.464-1.335.68-.192.835-.1,1.387-1.208,1.31-1.349.462-.526.373-1.027.95-1.388.359-.231.437-.27.424-.128.835-.566,1.324-.564.822-.064.912-.179.372-.052.681.052.565.064.59-.09.579-.232.655-.436,1.079-.86.308-.475.1-.514.257-.232.86-.577,1.079-.257,1.67-1.22,1.22-1.156.616-.54.642-.486.578-.412.4-.565.424-.334.553.051.463.244.411.348.4-.129.86-.193.54.282.732.039.706-.5.462-.3.771-.424.783-.142,2.029-.8,1.17-.359.9.245h.8l1.053-.142,1.375-.474.873-.437.835-1.016,1.412-1.592-.052-1.13-.167-.386-.026-.308v-.385l.089-.423.309-.258.616-.5.8-.629.565-.4.9-.026,2.35.014,1.1-.154.27-.309.758-.771,1.233-.642.732-.629.219-.09.243-.1.116.18.206.308.283.347.244.989.013.694-.038.654-.09.333-.193.3-.154.245v.476l.026,1.335.09.1.347.206.322.3.347.192.423.064.334.025.4.064.36-.013.4-.127.372-.13.282-.024.258-.1.282-.028.425-.154.539-.127.423.27.309.462.18.321.232.359.193.258.231.1.54-.014.745.079.36-.014.732.038.436.014.3-.025.321-.155.218-.166.206-.181.206-.14.256.077.269.194.27.244.372.231.3.129.244.039.45-.116.346-.128h.592l.282-.014.115-.256-.1-.374-.09-.321.09-.409.052-.4-.026-.514.128-.245.052-.475.231-.372.128-.154.141-.309.192-.089.206-.258.1-.256.154-.219.116-.2.154-.282.154-.155.27-.024.282-.04.218.09.166.321.539.976.257.513.141.36.129.384.154.514.321.669.321.525.321.372.347.451.257.437.655,2.016.475.539.745.436.578.219.642.179.693.258.463.141.5.129.45.4.09.642.09.348.013.475.205.36.27.18.68.449-.6.13-.412-.014-.18.283-.193.3-.373.1-.3.051-.4.05-.372.153-.219.142-.282.206-.463.243-.436.335-.283.526-.3.475-.347.309-.282.219-.373.269-.308.385-.977.925-.437.321-.449.412-.347.385-.694.9-.6.874-1,1.349-.115.257.154.153.129.065.167.256v.4l-.1.387-.245.488-.617,1.04-.591.309-.321.141-.384.193-.257.167-.244.244-.128.205-.116.244-.039.218.1.463.307.334.193.244.155.283.09.423.013.269.09.168.333.089.45.142.474.09.334.09.488.231.5.513.334.271.232.269.205.309.193.27.1.09.334-.154.372-.206.347-.193.257-.205.154-.206.18-.218.116-.231.205-.245.257-.231.667-.1.129.616.077.333.077.412.116.334.193.333.655.836.36.552.333.424.206.359.193.526.27,1.041.231.655.026.668.051,1.1.334.771.437.86.59,1.426.116.693.129.36.128.424.128.334.451.538.333.374.129.231-.141.282-.333.167-.142.245.039.4.077.335.167.309.065.258-.065.59-.36.886-.154.68-.18.526-.1.475-.4.72-.154,1,.039.27.193.1.218.039.95-.051.231.129-.167.372-.552.116-.283-.039-.565.565-.411.128-.2.09-.322.064-.257-.039h-.116l-.231.115-.256.206-.206.193-.423.359-1.066.745-.514.231-.372.245-.257.193-.27.1-.411.078-.257.129-.27.166-.167.168-.989.013h-.617l-.63.052-1.322.128-4.855.155v-.475l.321-.566.321-.4.193-.538-.5-.334-.758-.322h-.6l-.372.244-.6.168-.681-.694-.591-.091-2.453-.257-.771.052-.5.372-.4.655v.193l.141.552.347.451-.257.256-.463.052-.449.064-.822.385-.166-.077-.745-.424-.245.116-.488.374-.822.46-.681.437-1.015.463-1.862-.065-.167-.013-.539-.181-.667-.115-.617.218-.694.078-.449-.385-.449-.591-.386-.617-.436-.8-.3.719-.116.54-.192.821-.4,1.193-.526,1.068-.333.834-.219.5-.514.449-.578.244-1.1.3-1.3.475-1.631,1.363-.372,1.4.18.411.5.384.629.348.847.514.616.616.476.834.231.668.206.822.025.693-.385.387-2.016.745-.578.269-.759-.013-.745-.077-.745-.153-.758-.385-.9-.348-.707.014-.9.256-1.028.449-.924.554-.565.4-.257.718-.09,1.2.09,1.388v.771l.167.2.257.4-.013.643-.141,1.31-.18,1.209-.257.538-.116.5-.09.656-.1.564-.309.681-.385.4-.3.488.231.347.3.629.026.938.231.322.167.294-.038.361" transform="translate(-980.428 -1730.99)"  stroke="#fff" stroke-linecap="square" stroke-linejoin="bevel" stroke-width="1" fill-rule="evenodd"/>
      <text id="talId315count"  transform="translate(46.725 43.986)" fill="#fff" font-size="10"  font-family="OpenSans-Bold, Open Sans" font-weight="700"><tspan x="0" y="0"></tspan></text>
    </g>
    <g id="_395_Vengurla" data-name="395 Vengurla" transform="translate(2093.559 433.561)">
      <path id="talId395" fill="#7DB8EC" title="Vengurla Taluka" data-name="Vengurla Taluka" d="M988.293,1819.108l-.362-.206-.187-.576-.714-.425-.428-.334-.522-.18-.625.026-.668.037-.362.155-.428.064-.462-.1-.217-.025-.1.372-.359.18-.007-.024-.007-.039-.009-.064-.063-.077-.078-.065-.139-.128-.193-.194-.127-.167-.1-.1-.141-.09-.147-.167,0-.052-.042-.1-.089-.064-.073-.051-.079-.026-.1.026-.112.025-.058.039-.033.051-.029.038H981l-.136-.1-.075-.026-.055-.064-.073-.1-.119-.243-.064-.257.03-.091,0-.026-.024-.077-.062-.115-.2-.194-.092-.167-.1-.193-.116-.192-.193-.206-.127-.09-.178-.064-.119-.013-.079.039-.028.064-.02.076-.021.027-.036.013h-.022l-.015-.026-.042-.129-.022-.051-.035-.051-.035-.026-.082-.026-.088-.039-.176-.064-.091-.052-.063-.025-.113-.167-.07-.089-.106-.117-.114-.064h-.044l-.049-.026-.045-.013h-.044l-.154.116-.041.025-.044.027h-.021l-.019-.027-.034-.025-.007-.014.026-.05.06-.064.009-.026-.039-.077-.066-.052-.039-.038-.03-.026-.117-.026h-.1l-.072.013-.1-.051-.128-.116-.065-.1-.035-.038-.012-.039.01-.026,0-.039v-.013l0-.088-.127-.039v-.09h.028l.105.039h.012l.082-.039.01-.013.006-.039-.032-.012,0-.013.016-.064.01-.014.015.014.009-.039-.035-.064,0-.012.008-.013v-.039l-.022-.038-.013-.026-.03-.039-.008-.038h.012l.088-.065.011-.011.028-.092v-.05l-.013-.039.014-.115.005-.052.027-.025h.047l.016-.012.013-.026.033-.013h.01v-.064h.031l0,.051h.01l.042.013.1.013h.01l.023-.039h.005l.021.014,0,.013-.014.025v.015l.036.012.016.012,0,.013-.028.077h.009l.392.141h.128l.035.052.028.013h.032l.207-.167.1-.129.176-.245.01-.037-.005-.038.019-.027h.02l.021-.064.008-.025.029-.014.07-.037.03-.077.02-.064.016-.052.021-.039.021-.012h.022l.035-.012.038-.038.08-.141.048-.116.026-.051.044-.078.111-.307.148-.387.1-.386.03-.269.036-.243.039-.322-.014-.463-.047-.322-.046-.359-.02-.142-.055-.217-.047-.193-.031-.193-.1-.3-.078-.257-.067-.256-.09-.31-.132-.384-.14-.424-.079-.257-.148-.489-.166-.5-.214-.617-.107-.333-.1-.284-.118-.257-.108-.333-.066-.232-.087-.257-.087-.194-.132-.372-.157-.371-.078-.271-.053-.294-.036-.128-.057-.206-.017-.129.03-.089.025-.039.032-.154.042-.243-.037-.026-.136-.129-.1-.142-.11-.18-.1-.128-.131-.129-.049-.3-.077-.231-.146-.424-.105-.257-.07-.218-.126-.565-.049-.179-.035-.039-.063-.025-.063-.013h-.083l-.069-.064-.009-.026-.041-.051-.081-.013-.068.026h-.033l-.1-.026h-.058l-.018-.012-.046-.025-.025-.027-.02-.025-.022-.014-.013.014-.029-.014-.036-.013h-.024l-.034.026-.026-.014-.037-.013-.05-.039-.026-.013-.024-.012-.009-.013-.018-.039h-.017l-.056-.051-.03-.052-.019-.013-.032-.012-.008-.014-.01-.064-.022-.038-.009-.064.008-.013.011-.026,0-.013-.021-.013h-.011v-.013l.01-.013h.047l.008-.012-.006-.013-.016-.014-.019-.013-.011-.013,0-.024.009-.066,0-.039.037-.077.015-.013,0-.025-.011-.013-.007-.026-.006-.038-.007-.013.014-.026.007-.013-.009-.012-.021-.012-.006-.012,0-.026.019-.026.021-.011.008-.026.019-.052.009-.026v-.025l-.022-.014-.028-.012-.029-.013.007-.052-.007-.012-.03-.026-.026-.026-.009-.025v-.026l-.007-.026-.024-.064.007-.026.015-.014-.006-.025-.014-.025-.027-.014h-.016l-.021-.013-.013-.026v-.051l-.01-.025-.034-.026h-.027l-.04-.013,0-.013-.045-.025-.032-.026h-.1l-.145.026h-.052l-.03.051-.01.013-.055.025-.014.026-.011.026-.022.012-.016-.012-.013-.026h-.026l-.02.013-.025.013h-.022l-.027-.026-.014-.026h-.03l-.02-.012-.06-.026h-.045l0-.026,0-.013-.011-.025-.013-.013-.017-.026-.021-.025-.01-.013-.007-.026h.015l.028.014.034.013.044.013h.025l0-.026-.014-.014-.068-.012L973.2,1794l-.017-.026,0-.012.039.012.048.013h.035l-.022-.052-.012-.037-.01-.014-.011-.024-.03-.013-.028-.015-.019-.024h-.02l-.019-.026,0-.013.015-.025.022-.013.022-.013.041-.026,0-.026-.011-.025-.053-.038-.15-.013-.075-.025-.029-.026-.006-.026-.086-.064-.068-.012-.133-.052-.129-.079-.042-.037-.022-.039v-.024l.027-.014.025.014.02-.014-.012-.013-.032-.075v-.013h.053l-.014-.026-.1-.012-.107-.025-.019-.014-.028-.051v-.051l.01-.013.053.013v-.026l-.026-.013-.105-.037-.052-.039-.031-.039-.005-.051.095-.141.084-.076.087-.052h.261l.085.025.079.013.064-.013.071-.1.044-.168.017-.244-.03-.3-.11-.321-.134-.3-.053-.153-.134-.322-.135-.359-.183-.5-.118-.319-.107-.271-.1-.256-.146-.387-.073-.23-.113-.3-.129-.333-.074-.153-.073-.181-.078-.218-.091-.244-.211-.475-.143-.31-.081-.2-.055-.181-.105-.282-.2-.45-.088-.167-.089-.283-.135-.411-.091-.192-.117-.218-.1-.179-.1-.257-.079-.167-.152-.257-.143-.218-.116-.167-.112-.142-.159-.153-.252-.219-.086-.1-.21-.167-.223-.115-.2-.09-.178-.116-.1-.064-.045-.077-.049-.078-.085-.038-.158.026-.1.064-.084.078-.072.154-.027.1-.049.064-.063.116-.02.128-.057.09-.03.129.016.064.031.1.017.038.009.012h.023l.005.013,0,.025-.058-.013-.028.013-.11.039-.063.038h-.053l-.027-.013-.028-.038,0-.026v-.025l.006-.013v-.025l-.017-.026-.02-.013H966.4l-.039-.026-.017-.013-.034-.013-.046-.013-.074-.013h-.018l-.019-.013H966.1l-.074-.051-.011-.052-.027-.011-.034.026-.015-.015-.01-.064-.055-.064-.028-.064-.026-.039-.014-.038,0-.026.019-.078.005-.012.007-.039-.014-.039-.027-.038-.011-.015h-.03l-.006-.024h.01l.007-.026,0-.025-.021-.039-.018-.051-.054-.09-.058-.142L965.6,1781l-.027-.013-.024-.037,0-.014,0-.013,0-.013h0l-.019.013h-.007l-.013-.026,0-.012,0-.026-.03-.025-.027-.013h-.034l-.018-.013-.014-.038v-.014l.041-.013,0-.012-.007-.026-.031-.026-.022-.011,0-.026.023-.013.009-.026.01-.1.005-.09,0-.153-.039-.141-.013-.064-.017-.013V1780l0-.051.015-.039,0-.1-.016-.026-.047-.064-.04-.1-.013-.013-.012-.026-.026-.025-.033-.012-.027-.052-.064-.141-.067-.168-.026-.155-.019-.064.014-.064.046-.051.137-.053.02-.05,0-.052-.005-.026-.121-.179-.088-.115-.045-.09-.061-.129-.029-.064-.045-.129-.037-.09-.036-.077-.132-.231-.128-.257-.091-.232-.042-.115-.042-.09-.084-.179-.087-.166-.149-.348-.132-.334-.09-.179-.1-.193-.172-.412-.126-.319-.077-.168-.084-.193-.145-.283-.153-.3-.139-.257-.14-.257-.125-.243-.036-.066-.033-.064-.048-.025-.1-.013-.14.013h-.041l-.03-.026-.038-.026-.052-.064-.02-.013-.013-.025,0-.027.01-.025-.014-.026-.017-.052,0-.025.005-.039h.012l.057-.09.083-.179.006-.051-.074-.246-.064-.128-.05-.077-.041-.026-.1-.077-.132-.09-.141-.129-.045-.064-.039-.116.007-.089.02-.14.042-.13,0-.09-.077-.141-.05-.181-.11-.23-.175-.3-.207-.347-.114-.179-.1-.128-.085-.116-.032-.064-.017-.014-.023-.013-.048-.013-.075-.038-.11-.064-.069-.039-.056-.051-.028-.026-.04-.013-.007-.013.012-.012.036-.039,0-.039-.017-.038h-.036l-.027.013h-.088l-.042-.013-.016-.026-.011-.077-.011-.064.008-.09.021-.026.026-.064-.01-.025-.015-.013-.031-.026,0-.013.016-.038,0-.051-.044-.116-.025-.013h-.062l0-.025.01-.013h.023l.019-.013.005-.026-.028-.089-.076-.219-.017-.038-.1-.166-.044-.078-.075-.128-.005-.013-.057-.115-.047-.064-.05-.079-.08-.141-.031-.052-.062-.09-.084-.09-.065-.1-.049-.038,1.3-.873.176-.155.328-.359.457-.462.433-.4.561.656.481.425.491.551.574.746.351.527-.058.77.245.372.563-.32.643-.642.364-.411.362-.475.457-.692,1.616-1.2.656-.526.913-.668,1.334-.526,2.036-.424,1.055.359.643.206.773.078.491-.052.6-.232.363-.654.386-.667.621-1.157.257-.538.422-.348.737-.268.679-.232.621-.271.584-.513.608-.746,1.534-.4,1.523-.231,1.919.038,2.529.1,1.124-.063v.282l-.035.475.129.5.48.488.668.385,1.37.128.4-.1.48-.153.481-.322.993-.653.446-.155.538-.116.6.194.48.115.316-.243.268-.09.176.231.235.437.092.539.025.758-.025.759-.07.743.188.271.268.463.247.462.351.707.211.642-.107.321-.268.4-.006.231.158.231.123.359.11.359.117.244.187.4.082,1.593.316.451.037.5v.4l-.2.462-.224.321.27.771-.632.4-.913.232-.305.4-.281.6-.14.423.094.424.234.63.211.422-.094.49.047.59-.258.655-.421.322-.328.334.1.281.252.207.023.256-.174.3-.211.244-.417.475.047.553-.035.346-.391.09-.5.09-.32.115-.188.129.117.218.462.194.222.269.059.307.011.167.193.861.434.3.6.011,2.747.617,1.24-.167.715-.3.609-.27,1.076.1.562.629.388.449.127.694-.045.809-.165.8-.364.707-.6.449-.28.437-.13.6-.291,2.17-.13.912-.117.835-.246.552-.55.269-.867.091-1.453.077-.76.115-1.171.36-1.019.243-.515.026-.432-.09-.516-.128-.374-.4-.644-.386-1.264-.41-.585-.206-.175-.539-.574-.347-.643.13-.271.243.165.449.339.412.3.438.117.424-.14.705-.386.642-.924,1.015-.575.526-1.124,2.107-.409,1.246-.21.706-.316.578-.293.488-.492.4-.479.436-.293.271.2,1.245-.235.643-.047.462.117.553.211.528.153.4.5.142.316.346.351,2.75,1.345.178.446.989.691.359.117.592-.621.822-.363,1.4-.328.951-.551.387-.222.371.563.424.667.4.468.256.458.258.28.449-.081.512-.422.411-.515.258-.351.168-.41.191-1.077.808" transform="translate(-958.906 -1756.75)"  stroke="#fff" stroke-linecap="square" stroke-linejoin="bevel" stroke-width="1" fill-rule="evenodd"/>
      <text id="talId395count"  transform="translate(10.32 20.957)" fill="#fff" font-size="10"  font-family="OpenSans-Bold, Open Sans" font-weight="700"><tspan x="0" y="0"></tspan></text>
    </g>
    <g id="_311_Dodamarg" data-name="311 Dodamarg" transform="translate(2179.383 454.6)">
      <path id="talId311" fill="#7DB8EC" title="Dodamarg Taluka" data-name="Dodamarg Taluka" d="M1026.991,1807.155l.039-.36-.167-.3-.231-.321-.026-.937-.295-.629-.231-.348.3-.486.384-.4.309-.681.1-.565.09-.655.116-.5.257-.538.18-1.208.142-1.31.013-.642-.256-.4-.167-.2v-.773l-.09-1.386.09-1.2.256-.718.564-.4.925-.553,1.027-.449.9-.256.706-.013.9.346.758.385.745.155.745.077.758.013.578-.27,2.016-.745.386-.384-.026-.695-.205-.821-.232-.669-.475-.834-.615-.617-.849-.514-.629-.348-.5-.384-.18-.411.373-1.4,1.631-1.362,1.3-.474,1.1-.3.579-.245.513-.45.219-.5.334-.834.526-1.067.4-1.193.192-.823.116-.539.295-.72.436.8.385.616.45.591.45.385.693-.077.617-.218.668.115.539.18.167.013,1.863.065,1.015-.464.68-.437.822-.461.489-.372.243-.116.746.423.167.077.821-.384.451-.065.462-.051.257-.258-.347-.45-.141-.551v-.193l.4-.655.5-.373.771-.051,2.453.257.592.09.68.695.6-.167.372-.244h.6l.758.321.5.334-.193.538-.321.4-.322.565v.476l4.857-.154,1.324-.129.628-.051h.617l.987-.013-.847.8-.475.284-.36.178-.333.231-.309.322-1.144,1-1.13.938-.976.859-.386.078-.269.09-.18.167.038.463-.166.153-.271.039-.423.064-.809.116-.334.115-.257.075-.282.09-.193.089-.065.181-.063.167.05.167.154.154.064.1.013.167v.09l-.359,1.593-.244.9v1.414l.423.423.09.578.437,1.284.077.874.051,1v.359l.3.039h.348l.333-.012.333-.012h.374l.616-.168.181-.205.36-.615.268-.052h.848l.412-.116.642-.384,1.054-.554,1.027-.564.528-.4.283-.128.333-.039h.193l.3.064.167-.064.037-.09-.154-.232-.115-.205-.077-.309-.026-.294.257-.707.115-.5-.05-.3-.193-.294-.207-.3.1-.346.232-.167.63-.629.231-.334.463-.707.359-.193.36.013,1.131-.436.641-.258.552-.307,1.143-.385.528-.155.527-.039.976-.051,1.361-.039.54-.166.449-.193.051.644-.116,1.065.232.952.205.295.181.385.191.309.218.424.089.4.065.371.27.387.821-.014.411-.077.333-.051,1.336-.193,1.041-.294.616-.142,1.734-.514,1.5-.693.886-.3,1.067-.449-.065.526-.089.258-.258.438-.218.436-.245.346-.089.385.14.3.219.2.232.077.552-.013,1.374-.18.565-.05.513-.026.5-.039.63.027h.116l-.154,2.131-.205.424-.257.335-.1.347-.1.359-.154.321-.065.475-.231.81-.141.783-.09.6-.012.486-.115.823.166,1.117.078.552.077.386.372.411.437.424,1.233.759.592.385.668.425.551.4,1.118.913.078.167.615.038.425-.026.81-.077.655-.154.527-.18.9-.579,1.746-1.027.668-.707.63-.359.348-.167,1.014.322.334.154.321.155.32.2.167.154.322.412-.244,1.322-.154.874-.192.848-.129.771-.565,1.683-.245.615-.463.5-.386.257-.654.115-.552.322-.591.347-.578.359-.654.141-.9-.013-.668-.037h-.937l-.977.051-.847-.077-.99-.064-.733-.027-.5.065-.963.27-.925.565-.566.488-.513.642-.231,1.259-.18.539-.218.5-.361.346-.487.232-.412.167-.526.065-.566.012-.4.115-.45.231-1.361,1.1-.244.616-.232.554-.487.282h-.372l-.514-.025-.488.077-.359.217-.232.347.039.372.166.192.475.245.129.026.1,2.544.386.538.411.193.616.566-.024.629-.219.347-.18.423v.476l.218.475.154.385.038.539-.154.565-.732,1.349-.411.912-.167.539-.616.475-.668.346-.784.438-2.556,1.052-.835.1-.577.129-.488.09-1.58-.451-1.117-.038-.758.243-.154.193-.412.386.155.513.346.4,2.286,2,.54.412.616.154.746.025.873.065.437.052.705.589.554.528.668.745-.488.668-.476.115-.243.694-.142.039-.693-.3-1.593.515-.552.731-.528.36-.513.217-.951-.333-.54.361-.551.334-1.222.592-.731.462v.424l-.668.321-.769.6-.232-.154-.437.13-1.117.526-.45.18-.064-.27-.27-.038-.423.012-.553.18-.487.244-.617-.012-.334.167-.307.258-2.506.653-1.3.065-.937.012-1.04.077-1.464.335-.386-.013-.54,1.17-.359.448-.386,2-.538.1-.655.835-.245.116-1.567-.526-1.991-.643-1.284-.462-.874.283-.9.025-1.669-.256-.244-.655-.5-.758-.629-.772-.886-.951-.5-.5-.436-.616-.4-.065-1.093-.167-.77-.013-.232-.424-.579-.41-.218-.565.1-.385-.052-.322-1.643-1.913-.154-1,.051-.334.142-.386.334-1.078.784-1.22.4-.565.1-.4.039-.321-.141-.449-.117-.642-.128-.706-.051-.809-.282-.36-.412-.129-.038-.822.025-.18.052-.359v-1.414l.18-1.542-.026-1.181-.128-.489-.052-.065-.167-.024-.141.037-.051-.1.013-.116-.09-.141-.1-.167-.142-.1h-.077l-.052-.051.026-.076v-.18l-.077-.142-.141-.129-.129-.179.026-.089.078-.065.026-.155-.026-.089-.038-.078-.128-.038-.167.153h-.089l-.052-.076-.026-.179-.194-.04h-.179l-.065.142-.129.063-.142-.051-.18.026-.192-.038-.27-.027-.038.142-.078.128-.1.181v.192l-.232-.013-.051-.1-.077-.091-.078-.025-.205.012-.207-.077-.256-.1-.257-.066-.154.1-.1.117-.14.037-.129-.116-.27-.128.474-.243.3-.195.205-.23.256-.244.154-.412.142-1,.025-.411-.064-.012-.205-.026-.154-.065-.1-.064-.065-.128.1-.077.231-.064.232-.1-.013-.142-.027-.141.129-.065.218-.09.154-.27.154-.219-.09-.217.053-.321-.039-.232-.052-.064-.18-.026-.18-.011-.051-.156-.064-.1-.039-.038h-.167l-.142-.166-.116-.31-.193-.205-.2.025-.078-.154-.142-.075-.076-.1-.026-.192-.1-.259-.1-.256-.128-.129.064-.167-.078-.09-.231-.167-.205-.577-.194-.167-.129-.244.039-.283-.051-.307.064-.4-.141-.4-.142-1.376-.385-.589-.089-.334-.077-.3-.9-.257-.733-.116-.834-.051-1.361.012-.822-.025-1.053-.141-.629.18-1.028-.617-.579-.437-.578-.078" transform="translate(-1026.08 -1773.4)"  stroke="#fff" stroke-linecap="square" stroke-linejoin="bevel" stroke-width="1" fill-rule="evenodd"/>
      <text id="talId311count"  transform="translate(24.496 39.917)" fill="#fff" font-size="10"  font-family="OpenSans-Bold, Open Sans" font-weight="700"><tspan x="0" y="0"></tspan></text>
    </g>
  </g>
</svg>
