<svg xmlns="http://www.w3.org/2000/svg" width="370.076" height="300.484" viewBox="0 0 370.076 300.484">
  <g id="SolapurDistrict" transform="translate(-1763.186 -161.887)">
    <g id="SolapurDistrict-1" data-name="Solapur District" transform="translate(1763.963 162.672)">
      <path id="talId25" fill="#7DB8EC" title="Akkalkot Taluka" data-name="Akkalkot" d="M1499.665,1364.741l.086.63.134.573-.086.782-.009.258.267.1.41-.086.506-.1.906.009.716.048,1.031.038v.926l.1.306.591.047.745.392,3.1,1.612,1.269-.525,1.041-.6.82-.181.6-.02.926.162,2.387.077.039-2.32,1.594.123.754.029.908.1.286-.2-.02-.794-.162-.476-.115-.43,2.291.363.468-.048.048-.993.371-.735.278-.477.8-.63.7-.324.621-.286.371-.3-.01-.822.888-.134.564-.029.63.124.372.239.325.019.286-.086.468-.219,1.737-.125.707.057.515.306.525.344.286.325.191.477v.506l.936.3.487.162.543.257.2.23.01.257-.115.43-.124.535.516,1.163.373.7.277.41.276.325.659.334.439.086.629.123.611.087.792.086.449.057.61-.162.44-.287,2.711-.143.372.564.333.706.42.811.554.172.678.172.573-.01.61-.162.468-.076.515-.028.067.744.1.631-.038.439-.085.391.228.478.1.362.047,1.843-.075.487.219.266h.573l.763.172.573.1,1.174.182,1,.267.621.192,1.049.791.678.717.4.3.563.172.6.115h.2l.305-.02.706.048-.029.64-.115,1.1.028.878-.657,1.89-.411,1.652-.324.639-.162.745-.21.868-.6.009-1.012.039-2.53-.057-.888.115-.467.306-.44.1-.42-.039-.477-.1-.7-.067-.925.554-.659.268-.687.22-.687.181-.754.153-1.632-.029-.9.077-.563-.01-.582-.048-.611-.209-.744-.191-.611-.077-.917.172.057.487.01,1.213.134,2.081.047,1,.267.725.219,1.365.353.878.488.88.333,1.537.114.8.153.564.305.343.821.248.526.191.8.01,1.27.344.62.172.239.314.134.535.1.715.181,1.2.1,1.27-.334.487-.478.115-.744.1-.888.125-.917.047-.63.143-.554.629-.134,1.28-.01.7.029.535.239.792.62.153,1.394-.191.544-.038.859-.172.879-.057.7-.057,1.012-.068.039.774v.362l-.153.372-.3.421-.678.61-1.613.888-1.251.715-.8.45-.793.3-.868.181-.783.123-1,.1-.6.382-.153.793.057,2.052.258.228.219.21.087.381.028,1.452.028,1.614.125.812.192.1.353.009.6-.047.667-.2.564-.2.487-.163.773-.038,1.241.029,1.184.066.792.105.63.009-.115,1.471-.191,2.358.143,1.289-.372,1.623-.229.983-.238,1.116-.287,1.279-.22,1.394-.048.869.716.162,1.013.191,1.976.381,2.33.077,1.527.229,1.69.544-.039.582.24,1.022.143,1.269.181,1.137-.707.085-1.345.173-1.174.64-.869,1.938-.487,1.288-.773,1.585-.344.745-.085.6-.172.42-.268.191-.8.124-.716.058-1-.048-1.241.028-.334-.086h-.516l-.468.143h-.239l-.038-.2-.048-.86-.009-.544-.1-.65-.3-1.021-.307-.859-.286-.946-.268-.506-.229-.706-.381-.859.1-.706-.029-.372-.124-.286-.22-.134-.257-.086-.306.028-.744.125-.83.316-.726.428-1.3.316-1.155.019-.277.134-.144.172-.19.153-.144.077-.229.1-.124.077-.028.247.1.191.21.144.325.258.239.239.171.249.162.458v.124l-.114.411-.153.286-.267.143-.324.009-.448-.057-.659-.1h-1.565l-1.318-.144-1.517-.067-1.47.067-.468.009-.134-.152-.029-.191-.067-.334-.057-.448-.182-1.1-.133-1.222-.286-1.26-.02-.362-.133-.382-.43-.278-.525-.514-.946.353-.677.2-.974.048-.324-.067-.334-.067-.22-.143-.038-.277-.192-1.031v-.325l-.028-.239-.143-.057-.287.009-.276-.057-.086-.229v-1.078l-.048-.335-1.126.106-1.032.439-1,.276-.067.468.125,1.25-.01.3-.162.239-.335.038-.458.029-.8.095-1.365.248h-.62l-.774-.039-.954-.125-1.05.048-.783.133-.993.334-1.27.535-.505.182-.687.372-.725.468-.334.4.1,1.012.182,1.517.191.984.3,1.117.372,1.346.421.955.144.1.3.057.22.009.171.24.058.3-.038.439-.219.259-.1.324-.144.592-.458.763-.239.516-.324.191h-.324l-.487-.1-.43-.1-.411-.1-.333-.1-.22-.114-.047-.248-.021-.572.058-1.135-.029-1.624-.172-1.24.057-1.357-.095-1.4-.029-.507-.105-.4-.276-.3-.974-.5-.945-.344-.936-.3-.935-.515-1.069-.515-.621-.448-.917-.811-.792-.678-.668-.564-.268-.258-.572-.381-.344-.066-.5.209-.916.411-.765.334-.916.21-.458.182-.4.382-.927,1.165-.3.3-.249.391.029.315.153.172.124.372.134.172-.123.468-.1.258-.229.3-.382.42-.1.622.028.353-.028.171-.143.134-.42.123-.277.1-.439.411-.191.134-.267.114h-.152l-.125-.01-.124-.058-.134-.124-.134-.143-.2-.162-.44.133-.057-.191-.391-.726-1.337-2.73-.334-.535-.706-.344-.64-.029-.964.115-2.034.782-1.412.22-1.69-.01-.563-.143-1.06-.314-.611-.1-.668.191-.421.333-1.03,1.442-.688.869-.983.611-2.052.268-1.165-.048-1.67.038-1.194.143-2.578.926-3.3,1.747-.992.219-.764-.315-.773-.583-1.089-1.526-1.737-2.493-.554-.41-1.527-.305-.763-.382-1-1.183-.115-1.385.964-2.758-.018-1.423,1.116-.076.411-.01.659-.028.811-.182,1.041-.457.314-.564.191-.658-.3-.745-1.3-.859-.707-.315-.534-.277-.191-.457.153-.765.077-.181.257-.381.4-.354.573-.544.438-.916-.391-.7-.181-.553-.172-.822.2-.64.411-.458.6-.945.162-1.976.105-.229.219-.439.4-.526.305-.439.974-.3.917-.258,1.241-.391.468-.143.677-.162h1.833l.268-.229.142-2.978,1.146-.115.907.067,1.012-.086.716-.382,3.465.019,1.366.057,1.508,1.336.7.7.917.381.773.4.86.344.811-.258,1-.085,3.073.066,1.461.239.381.009.8.077.678-.019.849-.144.458-.5-.028-.629-.2-.488-.21-.648-.22-1.651.22-.793.391-1.937.116-1.135.3-.507.171-.61.24-.659-.249-1.127.038-.525.1-.84.038-1.622.744-.9.506-.363.592-.554.707-1.155.429-1.3.44-1.871.562-.726.364-.44,1.937-.067.535-.047.563.047.448-.142.335-.774.6-.821,1.517-2.931.411-.583.191-.582-.115-.678.086-.639.191-2.7.362-.3.583-.2.678-.115.524-.144.717-.239.21-.362.1-1.193-.191-1.317-.01-.947-1.584-.658-.592-.171-.667-.305-.708-.259-1.221-.3-.965-.306-.209-.487-.287-1.5.106-.353.22-.592.248-.716.191-1.079.162-1.823.219-.869v-2.673l.019-.42-.142-.458-.363-.583.124-1,.114-.363.362-.278,1.595-.381.964-.459,1.756-.267.669-.123.753-.029.745-.019" transform="translate(-1187.754 -1184.306)"  stroke="#fff" stroke-linecap="square" stroke-linejoin="bevel" stroke-width="1" fill-rule="evenodd"/>
      <path id="talId23" fill="#7DB8EC" title="South Solapur Taluka" data-name="South Solapur" d="M1497.11,1363.567l-.745.019-.755.028-.667.124-1.757.268-.964.458-1.595.381-.362.277-.115.364-.124,1,.363.583.142.458-.018.42v2.673l-.22.868-.162,1.824-.19,1.079-.249.716-.22.591-.1.354.286,1.5.21.487.964.3,1.222.3.707.258.668.306.592.172,1.584.658.009.945.191,1.318-.1,1.193-.21.362-.716.239-.525.143-.677.114-.583.2-.362.3-.191,2.7-.086.64.114.678-.19.582-.411.583-1.518,2.931-.6.821-.334.773-.449.143-.562-.048-.535.048-1.937.067-.363.438-.564.725-.438,1.872-.43,1.3-.706,1.156-.592.554-.506.362-.744.9-.037,1.623-.1.84-.039.525.249,1.126-.239.659-.172.612-.3.505-.114,1.136-.391,1.938-.22.792.22,1.651.209.65.2.487.029.629-.458.5-.85.143-.678.019-.8-.077-.381-.009-1.46-.238-3.074-.067-1,.086-.812.257-.859-.344-.773-.4-.916-.383-.7-.7-1.509-1.337-1.365-.057-3.466-.019-.716.382-1.012.086-.907-.067-1.146.115-.143,2.978-.267.229h-1.832l-.678.162-.467.144-1.241.391-.917.258-.973.3-.306.439-.4.526-.219.438-.1.23-.163,1.976-.6.945-.41.458-.2.64.171.821.181.553.392.7-.44.917-.572.544-.4.353-.258.382-.076.182-.152.763.191.458.535.278.706.315,1.3.859.3.744-.191.659-.314.563-1.041.458-.811.182-.659.029-.411.009-1.116.076-.048-2.883-.134-1.556-.41-.907-1.547-2.434-.687-.067-.612.124-.447.381-.316.754.268,3.046-.268.362-1.966,2.052-.544.335-.535.085-.554-.324-.5-4.249-.7-.8-.638-.544-2.444-1.384-1.166-.554h-.725l-.631.105-.7.5-.239.63-.048,2.32-.84,1.89-.038,1.642.247,2.663-.544,1.117-.545.439-.535.192-2.243-.153-2.071-.784-1.222-.887-2.044-3.047-.447-2.711-.258-.334-.392-.2-2.462-.229-.639-.3-1.938-1.556-.621-.582-.735-.382-.6.019-.525.286-1.366,1.538-.639.552-.563.249-1.308.172-1.584-.02-1.634-.277-1.117-.7-.735-1.06-1.1-3.561.018-3.426-.086-.917-.5-.639-1.031-.316-.439.077-.659.219-.811-.048-.679-.4-.677-.9-.41-.821-1.518-1.146-1.948-.763-.287-.21-.4-.23-.629-1.1-.573-1.011.172-.831.515-.5.526-.411.448-.325.325-.439.41-1.46.259-.554.611-.773.887-.765,1.241-.906,1.049-1.824-.009-.43-.124-.935-.049-.363-.152-.324-.267-.382.248-.506.056-.343-.123-.564-.239-.181-.392-.087-.114-.039.048-.409.315-.287.373-.124.315.019.372-.086.277-.1.429-.105,1.126-.315,1.06-.2,2.233-.228h1.671l.611.01.935-.287.611-.287.64-1.05,1.269-.9,1.327.039.677.162.563.039.258-.162.354-.419.124-.354.1-1.05,1.021-1.4.773-2.624.583-1.365.811-1.146.764-.449,1.317-1.174.2-.964.3-.419.9.095.784.086h.449l.715-.038.631.859.487.458.219.362.143.477.019.535.057.782.316,1.317.582.478.984.372.667.21,1.28.258.706.134.793.048.63.048.773.086.057.725.038.611.019.583.114.372.5.678.6.2.793.058.572.352.688.392.5.191.993.181.3.153.765,1.146.457.658.44.324.611.01.668-.086.526-.172.39-.077.4.057.4.191.354.133.323.038.326-.066.219-.411.229-.6.229-.449.1-.534-.315-.42-.239-.239.086-.678.105-1.784.792-.363.65.048,5.04-.1.516.287.687.1,1.929.077,3.035.219,2.282.143.524-1.174.315-1.27.048-.649.1-.868.153-1.232.057-1.394.506-1.756.133-1.223.182-2.042.038-2.854.544-1.6.534-1.8.631-4.325-.077-2.988.534-1.585.211-1.155-.325-.993-.678-.506-.61-.248-.5-.21-.316-.382v-.63l.583-2.253-.211-1.309-.686-1.068-1.108-.937-.9-.438-.468-.563-.41-.658-.334-1.032-.047-.573.133-.564.42-1.928.62-3.437.163-1.155,1.537-.267.782-.143.305-.543-.257-.545-.059-.754v-.783l.306-.306.641-.067.591-.076.363-.019.954-.019.057.219.382.1.563-.191.707-.143.5-.066.2-.162v-1.318l-.077-.363-.286-.372-.124-.325-.076-.668.086-1.365.487-.372.668-.134.7.229.831.316,1.747.745.869.468.429.354.324.39.219.373.506.086.5.057.468.009.64.1.295.152-.229.478-.362.649.086.429.114,1.108-.268.659-.3.468-.382.659-.285.506-.354.487-.067.287.1.944.391.774.153.563.048.44-.153.3-.477.086-.516.057-.105.067-.124.65-.229,2.338-.095,1.48-.278,1.651-.038.668.067.431.1.42.162.143.744-.286.869-.334.821-.468.753-.611.859-.621.458-.41.219-.3.315-.449.372-.019,3.007.076.83.1.477.258.735.258.344-.42.3-.44.621-.6.449.2h.372l.315.076.783-.172.534-.544.383-.22.515-.63.926-.124.677-.172.363-.143.611-.114.611.086.668.152.353.536.21.3.164.354.171.535.344.906.974.057.544-.009.668-.124.42-.449.5-.028.421.257.267.038.258-.162.105-.153.391-.057.515-.019.392.219-.01.84-.029.477.115.286.5.229.382.316.44.095.352.01.449.3,1.059-.3-.2,1.145.009.878.087.677.019.391.153.907.143.592.22.258.715-.009.765.143h.764l.83.134.525-.039.535.047.382.01.362.172.373.268.248.391-.076.458-1.031,2.129-.372.5-.363.019-.363-.085-.765-.421-1.365-.372-.572-.1-.277.076-.335.276-.305.382-.076.3-.057.572v.382" transform="translate(-1185.387 -1183.199)"  stroke="#fff" stroke-linecap="square" stroke-linejoin="bevel" stroke-width="1" fill-rule="evenodd"/>
      <path id="talId83" fill="#7DB8EC" title="Solapur North Taluka" data-name="Solapur North" d="M1422.313,1380.5l-.411-1.231-.382-.964-.229-.573.315-1.957.516-.344.449-.258.3-.3.077-.41.115-1.794-.22-.726-.534-.429-.468-.622-.592-.858-.22-1.395.4-.868.449-.678.316-.546-.115-1.584-.306-.649-.3-.63-.229-.487.219-2.463.631-.821.191-.573-.219-.983-.382-.229-.458.077-.5.153-.268-.153-.152-.774-.077-1.375.364-.619.582-.143.6-.01.487-.01.639-.305.554-.248,1.346-.887-.009.782.086.593.63-.039.63-.458.658-.353,1.394-.238.822-.124.763-.277.621-.239,1.021-1.222,1.078-2.157-.229-1.1-.6-.573-.267-.429-.181-.516-.191-.62-.457-.363-1.49.018-1.193.191-.755.1-1.011.1-.382.315-.221.525-.362.573-.325.382-1.8-.429-1.279-.363-1.355-.267-1.069-.228-.4-.087-.563-.229-.3-.238-.239-.249.42-1.069.21-2.3-.019-1.384.3-2.11.859-.115.792-.372.411-.325.191-.392.352-.974-.161-.773-.287-.486-.324-.888-.21-1.041-.22-.6-.525-.343-.305-.192-.067-.859.219-.516.306-.219.3-.23.316-2.243.229-1.088-.162-1.5-1.078-.152-.793-.162-1.174-1.05-.363-.564-.372-.763.382-.44.639-.066.478-.115.505-.3.966-.688.887-1.652.305-1.107.124-1.021-.621-.869-.964-.467-.916-1.279-.229-.9-.163-1.441-.515-.525-.859-.018-.983.114-.677.039-.659-.068,1.03-1.623.621-.907.6-1.059.439-.353.83-.153.592-.153.486-.133.391-.431v-.314l-.42-.669-1.279-.6-.659-.41-.544-.43-.448-.516,1.156-.048,1.222.01.8.048,2.166-.162.592-.477.506-.773.382-.5.315-.64.286-.7.6-.373.688.115,1.136.383.9.267.764.125.936-.057.888.153.65.381.209.468.057.734-.057.631-.554,1.011-.219.536-.363,2.061-.219.726.277.534.43.411.4.887.249,2,.325,1.642.543.582.668.038.916-.354.926-.257.831-.048,1.021-.305.267.009.735.2.4.019.544.162.249.3.534.964.191,1.078-.115.63-.659,2.053-.343.859-.219.392-.125.714.125.756.191.839.945,1.489.658,1.079.2.86.21.714.458.459.563.172,1.738.887.811.564.315.333.067,3.113.754-.134.716.028.811.258,2.425.9.811.621.917.4.678.229.505.219.9-.067.573.067.62-.01.525-.057.335-.917.534-1.614.191-.973.65-.421.829-.085h.611l.324.334.048.506.1.467.095.315.363.315.4-.047.276.525.659.534.716.43.43.286.363.285.286.287.334.373.248.754.248.821.258.878-.955.019-.362.02-.591.076-.64.067-.306.306v.781l.057.755.258.544-.306.544-.783.143-1.538.267-.161,1.155-.621,3.437-.42,1.928-.134.563.047.573.335,1.031.411.659.469.563.9.44,1.107.935.688,1.069.21,1.308-.582,2.254v.629l.315.381.5.21.611.248.678.506.324.994-.21,1.155-.534,1.585.077,2.987-.631,4.325-.534,1.8-.545,1.6-.038,2.855-.182,2.042-.133,1.222-.506,1.757-.057,1.393-.153,1.231-.1.868-.047.65-.315,1.269-.526,1.174-2.281-.143-3.036-.219-1.928-.077-.687-.1-.515-.286-5.041.1-.649-.048-.792.362-.1,1.786-.086.677.238.239.315.421-.1.534-.23.449-.229.6-.219.411-.324.065-.325-.038-.354-.132-.4-.191-.4-.057-.392.076-.525.173-.668.085-.611-.009-.44-.324-.459-.659-.763-1.145-.306-.153-.992-.181-.5-.191-.687-.391-.573-.354-.792-.057-.6-.2-.5-.678-.113-.373-.019-.582-.038-.611-.058-.726-.774-.086-.629-.047-.793-.048-.706-.134-1.279-.257-.669-.211-.983-.371-.582-.477-.315-1.317-.057-.783-.019-.534-.144-.478-.219-.363-.488-.457-.629-.86" transform="translate(-1186.496 -1181.998)"  stroke="#fff" stroke-linecap="square" stroke-linejoin="bevel" stroke-width="1" fill-rule="evenodd"/>
      <path id="talId81" fill="#7DB8EC" title="Mangalvedhe Taluka" data-name="Mangalvedhe" d="M1372.543,1389.19l.381.173.134.143.048.21-.076.353-.077.344-.029.344-.525,1.7-.143,1.241-.019.983.238.488.268.4.277.372.449.306.429.1.431-.038.5-.191.391-.878.42-.267.353.1.429.382.258.43.258.477.716,1.451.276,1.021.21.44.983.8.62-.029.392-.211.21-.305.21-.305.239-.411.363-.887.363-.42.391-.115.381.048.277.086.63.668.612.487.668.678.62.219,1.108.5.5.219.239.239.438.9-.181.488-.085.324v.64l.067.372.391.63.563.057.573-.162.363-.2.42-.238.782-.573,1.031-.8.573-.477.3-.172.734-.191.344.01.621.191.342.182.268.382.153.325.048.363.125.936.009.429-1.05,1.823-1.241.906-.888.764-.61.773-.258.554-.411,1.46-.324.439-.449.324-.525.411-.515.5-.173.831.573,1.011.631,1.1.4.229-.247.535-.191.591-.258.535-.2.409-.067.24-.01.171-.114.6-.267.229-.325.208-.305.125-.229.173-.077.239-.056.324-.21.993-.115.381-.133.381-.143.411-.106.257-.238.659-.2.554-.048.363-.018.4-.105.438-.239.382-.057.335.019.429-.048.477-.038.258-.353.067-.391.067-.191.085-.182.343.039.488-.01.411.172.409.449,1.117.258.84.076.706.142.582.153,1.4-.305.144-.573-.086-.505-.067-.612.105-.43.277-.344.3-.39.208-.43.153-.325.181-1.116.268-.9.258-.888.21-.572.039-.373.19-.133.2.067.372.382,1.26.4,1.861.076.544.076.907.114.754.2.86.325.238.267.172.458.135.487.143,1.594.63,1.078.191.955-.048.4-.01.154.162.028.335-.039.382v.3l.172.258.163.181.2.1.086,1.193.038,1.155-.229.583-.267.182-.134.277-.077.324-.1.287-.219.344-.105.354-.259,1.3-.189.353-.353.325-1.28.344-.878.1-1.9,1.4-1.25,1.184-2.53.849-1.212.717-.7.792-1.9.3-.773.505-.878,1.069-1.126,1.27-.019,1.088-1.547.906-.449.516-.5.773-.058.764-.229.582-.353.649h-2.119l-1.355.02-1.336-.182-2.205-.219-.935-.173-.687-.009-.563.019-.41-.1-.44-.248-.2-.411-.057-.477-.115-.649-.878.019-1.509-.21-1.107-.4-.478-.125-.591-.191-.478-.467-1.136-1.327-.334-.277-.811-.229-.878.066-.965.468-.965,1.87-.773,1.909-.305.763-.192.86.039.888.114.764-.344,1.126-.629,1.441-.43,1.385.028,1.05.153.573.391,1,.22.524.267.774-.019.658-.469.067-.009.506-.133.544-.354.019-.945-.142-.553-.229-.5-.249-.419-.277-.612-.125-1.48-.172-.687-.143-.582-.019-.335.1-.314.134-.305.086-.115-.1-.028-.419.009-.7-.028-2.062.4-.553.143-.364v-.543l-.372-.63-.009-1.136-.268-1.556-.2-.573-.344-.783-.22-.306-.535-.057-.659-.076-.973-.076-.935-.029-1.174.066-1.279-.267-.5-.048-.144.134.182-1.365.153-.936.229-.821-.038-1.213-1.126-2.51-.869-1.289.048-.707.229-1.031.21-1.165-.171-1.882.276-2.07.763-1.527.277-4.945-.621-1.861-1.03-.573-.764-.716-.888-.649-.974-.4-.8-.028h-.716l-.659-.229-.677-.85-.211-.8.154-.716.19-1.355.459-2.625.611-3.274.171-1.031-.191-1.862-.437-1.442-.975-.974-.544-.3-.41-.459.048-.324v-.555l-.277-.5-.524-.429-.678-.439-.811-.516-.668-.783-.067-.944.085-4.8-.047-.839.115-.5.477-.316,1.547-1.031.849-.362.459-.975-.248-1.116-.4-2.206.257-1.518.793-.315,1.967-1.929.468-.353.534-.449.353.316.488.591.419.326.765.372.611.115.955-.173.382-.535.334-.754.191-.974,1.68-1.4.5-.353.535-.315.525.335.429-.277.822-.4,1.307-.334,1.689.315,1.184.143.43-.163,1.222-.993.239-.534.439-.783.382-.277h.849l.754-.124.888-.4.849-.63,1.222-1.289.6-.4.4-.343.611-.171.8-.277.125-.162.381-.612.315-.553.3-.469.572-.057.765.191.8-.047.43-.354.525-.5.678.3.649.163,1.288.382.917.19H1357l.429-.8.277-1.309,1.1-.553.63-.553.535-.211.563-.352.573-.745-.085-.84-.067-.783.467-.506.907.373.677.745,1.8,1.584.84.277.955.353.849.21,1.012-.019,1.2-.057.993-.086,1.1.02.782.362" transform="translate(-1182.058 -1185.725)"  stroke="#fff" stroke-linecap="square" stroke-linejoin="bevel" stroke-width="1" fill-rule="evenodd"/>
      <path id="talId82" fill="#7DB8EC" title="Sangole Taluka" data-name="Sangole" d="M1317.245,1405.445l-.258,1.519.4,2.205.248,1.117-.459.974-.849.362-1.547,1.031-.478.315-.115.5.048.841-.086,4.8.067.945.668.783.812.516.678.439.525.43.277.5v.553l-.047.325.411.458.544.3.973.974.438,1.441.191,1.861-.171,1.031-.611,3.275-.458,2.625-.191,1.355-.153.716.21.8.678.849.659.229h.716l.8.028.974.4.888.648.763.717,1.032.572.62,1.861-.276,4.946-.763,1.527-.277,2.072.171,1.88-.21,1.164-.229,1.032-.048.705.869,1.289,1.127,2.511.039,1.213-.23.821-.152.935-.182,1.365-.144.43-.153.8-.085.983-.115.764-.143.573-.306.277-.286.076-.287.019-.467-.067-.421-.066-.487-.143-.868.057-1.547.334-.944.239-.487.076-.716.058-.726.047-.954.287-.373.439-.516.955-.239,1.126-.258,1.241.3.916.277.4.238.268.383.467.754.573.458.344.258.277.258.257.239.258.3.411.344.553.305.468.286.479.067.361-.1.3-.371.392-.307.878v1.041l-.21.983-.324.763-.364.525-.486.21-.668-.009-.507-.173-.83-.229-.707-.114h-1.1l-.5.028-.354.019-.133-.067.01-.239-.058-.5-.058-.908-.038-1.164-.066-.878.066-.954.048-1.032-.048-.515-.105-.191-.171-.115-.163-.143.067-.449-.01-.3-.182-.077-.391.038-.859.076-.631.039-.392.1-.677.229-.726.172-.793.191-.906-.048-.9-.077-1.194-.315-.429-.124-.4-.123-.305-.114-.3-.143-.191-.315-.22-.411-.067-.353-.267-.44-.553-.735-.229-.381-.086-.344.02-.248.2-.421.086-.267.287-.344.361-.583.641-.534.392-.192.209-.134.162-.163.506-.1.411.068.554-.125.467-.2.372-.22.41-.563.114-.287.086-.238.057-.373-.019-.4-.171-.2-.029-.3.01-.315.02-.611-.077-.811.077-.7-.1-.783.276-.478.392-.525.277-.668.353-.64.067-.171.095-.229.115-.239.02-.209-.086-.277-.277-.086-.486.047-1.2.354h-.687l-.534.106-.42.076-.468.047-.23-.123-.592-.3-.382-.114-.3-.1-.229-.143-.2-.211-.163-.247-.229-.172-.916-.23-.392-.085-.363-.077-.238-.076-.286-.238-.105-.23v-.277l.02-.334.067-.239-.153-.153-.382.028-.792.077-.373.125-.334.152-.287.153-.028.258-.029.3-.086.3-.066.526-.085.505-.134.535-.172.477-.1.429-.153.421-.621.83-.448.611-.229.24-.287.314-.143.582-.172.2-.286.057-.125-.114-.2-.134-.267-.162-.411-.02-.849-.22-.669-.153h-.7l-.754-.123-.505-.172-.65-.067-.372-.057-.888-.2-.868.009h-.3l-.477.106-.411.162-.5.133-.372.057-.315-.038-.353-.22-.363-.2-.515-.076-.449.124-.659.162-.63.125-.325.056-.4-.066-.248-.038h-.429l-.392-.115-.21-.057-.267-.077-.249.068-.286.057-.4-.057-.306-.143-.1-.163.047-.153.1-.2.038-.191-.125-.114-.123-.115-.21-.077-.191.077-.229-.105-.21-.258-.316-.076-.706.01-.22.372-.191.153-.3.114h-.324l-.506.047-.326.229-.371,1.06-.191.43-.125.783.134.964.2.516.105.573-.067.5-.238.229-.345-.086-1.2-.277-.812.029-.935-.038-.725-.267-1.633-.038-1.775-.086-.163.153-.276.287h-.449l-.707-.02-2.214-.143-.334-.039-.4-.038-.42-.029-.229.182-.039.344-.191.6-.4,1.06-.228.63-.4.668-.85.219-.573.087-1.155.267-.669.124-.515.1-.5.143-.5.21-.324.238-.23.441-.19.63-.334.42-.307.248-.429.115-.851-.153-.209-.125-.249-.191-.258-.057-.41-.133-.419-.305-.85-.64-.4.067-.229.1-.382.048-.182-.115-.066-.3-.143-.248-.325-.057-.276.134-.24.353-.162.248-.335.134-.3-.01-.61.01-.191.6.019.373.076.325.2.143.335-.028.467-.049.3-.047.649.029.1.315-.029.611-.114.191-.239.143-.354.124-.286.249.048.572.048.477.057.287.153.4-.029.382-.8.43-.525.315-.372.182-.41.075-.563.087-.934.085-.526.057-.525.21-.534.105-.564-.009-.029-.6v-.24l-.076-.238-.115-.162-.324-.019-.334.087-.326.076-.4.048-.238-.183-.583-.238-.287-.115-.144-.143-.057-.2-.144-.143-.286-.01-.324-.067-.239-.2-.172-.211-.1-.4.038-.162.048-.257-.028-.22-.077-.038-.181.153-.057.238-.143.4-.162.324-.191.153-.229.124-.086.028-.1-.143-.105-.191-.162-.153h-.429l-.277-.029-.039-.086.411-.162.3-.057.191-.221.085-.247v-.325l-.439-.143-.228-.162-.258-.172-.153-.181.057-.219.182-.2.343-.135.334-.076.287-.039.144-.171v-.249l-.067-.229-.278-.039-.42.02-.209-.086-.536-.067-.335.181-.228.325-.305.343-.23.23-.239.343-.3.239-.163-.19-.057-.258-.162-.6-.162-.286-.239-.067-.192.105-.238.44-.249.162-.115-.259-.124-.391v-.258l.029-.228.019-.209-.105-.106-.286.086-.239.105-.325.076-.42.019-.076-.125.247-.324.392-.554.516-.267.105-.3v-.306l.153-.4-.248-.238-.153-.191-.2.057-.067.257-.02.353-.219.258-.21-.143-.057-.182.115-.209-.153-.03-.181.22-.153-.038-.133-.134.1-.153.124-.143.143-.172.085-.2h-.143l-.315-.019-.3.267-.1.21-.171.42-.229.258-.257.248-.211.029v-.2l.067-.248.124-.287.228-.4.115-.344-.133-.057-.172-.048-.392.449-.1.114-.2.2-.22.028-.315.163-.353.334-.3.172.191-.306.182-.229.323-.41.659-.459.306-.335.362-.344.372-.218.545-.124.62-.086.44.009.525.124.314.171.325.268.163.229.3.172.277-.048-.048-.42-.172-.267.066-.267.067-.364.048-.391.133-.209.306.047.344.2.19.277.24.182.543-.592.1-.268.037-.429-.1-.755.153-.945.143-.639.267-.162.267-.086.477.143.363.068.22-.068.115-.21.028-.353-.134-.257.009-.154.545-.018.162-.171.068-.487-.153-.248-.019-.354.229-.381.21-1.318.1-.955-.123-.83.133-.267.391-.562.391-.516.63-.784.306-.438.352-.3.554-.018,1.681-.029,1.069.009.944.029.985.086.037-.773.01-.6.114-.534.162-.144.592-.228.64-.353,1.7-.678.716-.219.391-.229.192-.344.306-.973.353-1.06.382-1.06.476-.992.345-.831.3-.726.239-.688.085-.4-.343-.678-.229-.468-.067-.515.01-.373.114-.534.057-.3.314-1.193.468-.391.5-.124.392-.334,1.108-.974,2.462-1.308,1.48-.925,1.021-.573.162-.3-.3-1.824-.544-1.556-.162-.421-.324-.477-.459-.458-.4-.21-.573-.115.181-.1.125-.458-.028-.553.133-.307.067-.572.048-.525.115-.487.353-.114h.449l.448-.086-.009-.4.1-.525.248-.324.134.295.306.086.143.1.143.038.392.1.486.162.268.047.334.048.362.076.593.153.276.162.2-.305.219-.363.353-.3.391-.267.43-.3.476-.287.42-.354.068-.41.048-1.213-.172-.706-.125-.469-.114-1.46v-.487l-.086-.668v-.668l.239-.43.163-.554.181-.372.21-.354.391-.5.191-.688.306-1.4.19-.477.01-.477-.076-.477-.163-.7-.106-.964-.133-.392-.153-.543-.105-.459-.219-.372-.162-.381-.248-.3-.42-.391-.439-.153-.736.039-.63.229-.706.65-1,.7-.9.5-.754.5-1.146.353-1.432.755-1.489.821-1.05,1.213-.649.783-.1-.037-.267-.105-.162-.01-.287-.037-.22-.039-.267-.048-.229-.086-.219-.171-.086-.153-.124-.182-.172-.21-.153-.161-.125-.248.057-.315.134-.2.067-.182-.01-.162-.086-.134-.22-.171-.114-.134-.105-.24-.1-.2-.077-.43-.219-.448-.125-.21-.391-.382-.182-.333-.191-.6-.124-.163-.267-.21-.706-.449-.258-.095-.458-.21-.172-.086-.449-.22-.315-.268-.191-.21-.153-.22-.1-.21-.058-.267-.028-.449-.153-.21-.238-.172-.325-.124-.534-.209.01-.286.085-.277.086-.382.278-.687.162-.534.124-.229.2-.249.277-.142.382.028.239.2.354.124.686.018.326-.086.2-.324.3-.048.363.019.411-.029.21-.144.486-.42.267-.21.421-.343.5-.372.533-.42.917-.449.821-.554.334-.228.42-.469.267-.811-.009-.162-.228-.421-.516-.457-.631-.24-.573-.343-.286-.3-.516-.553-.582-.593-.573-.562-.439-.354-.42-.717-.2-.6.019-.277.1-.411.048-.439.21-.812.028-.1.172-.19.124-.191.039-.248-.047-.249-.134-.095-.211-.077-.009-.182-.009-.419-.028-.679-.038-.267-.1-.211-.22-.076-.334.134-.506.229-.277.153-.315.125-.287.067-.248-.028-.363-.182-.42-.162h-.3l-.439.3-.659.44-.563.276-.984.506-.526.505-.849.459-.468.257-.21.048-.3.067-.268-.181-.277-.354-.228-.219-.325-.459-.038-.507-.02-.782.087-1.011.056-.2.154-.21.057-.162.009-.154-.028-.219-.105-.219-.124-.191-.019-.2.229-.545.038-.276.105-.5.334-.459v-.382l.037-.209.087-.238.181-.315.143-.134.22-.286.124-.191.066-.3.659.143.439.114.629.134,1.031.411,1.614,1.308.745.526,1.041.734,1.327.926.764.974.458.754.325.095.6.211.429.114.287-.468.554-.172.744.1h.716l1.241.01,1.146-.249,1.222-.247.82-.124.726-.087.41-.381.888-.793.315-1.527,1.012-.4.572-.134.611-.1.526-.3,1.288-.707,1.165-.191.306-.277.467-.448.459-.315.81-.383.822-.391,1.384-.773.5-.077.343-.1.44-.306.219-.477.563-1.7.287-1.891.41-.314.371-.259.459-.353v-.449l-.353-1.508.277-.611.076-.383.077-.657.467-.125.439.029.526-.248.725-.468.563-.382.983.457.7.125.973.153,1,.258,1.556.354,1.528.553.926.8-.057.944-.3,1.614.3.993.373,1.059-.354.4-.572.229-.067.505-.038.832.257.42.507.439.754.344.515.468.105.659.21.944.7.067,1.737-.219,3.714-.316.3,2.472.057,1.776.047.916-.047.659-.543.878-.191.41-.382.381.316.3,1.327.287.9-.124.889.087.992.3.821-.086,1.059-.057,1.537.144.974.993,3.6.047.906.039.611.438.535.85.44.364,1.164.228.143,1.547.793.249.992.679.754.486.888.4.974.382.887.257.888.229,1.1.229.887.067.382.344.363.82.191,1.136.143,1.422.2,1.479" transform="translate(-1177.839 -1185.254)"  stroke="#fff" stroke-linecap="square" stroke-linejoin="bevel" stroke-width="1" fill-rule="evenodd"/>
      <path id="talId24" fill="#7DB8EC" title="Mohol Taluka" data-name="Mohol" d="M1418.7,1380.3l-.716.039h-.448l-.784-.086-.9-.1-.305.42-.2.963-1.318,1.174-.763.449-.812,1.146-.582,1.365-.773,2.625-1.022,1.4-.095,1.05-.125.353-.353.42-.257.162-.563-.039-.677-.162-1.327-.038-1.269.9-.64,1.05-.611.286-.936.286-.61-.009h-1.671l-2.234.23-1.06.2-1.126.314-.43.106-.276.1-.373.085-.314-.019-.373.124-.314.286-.048.41.114.039.392.086.239.182.124.563-.057.344-.249.505-.344-.182-.62-.191-.344-.009-.735.191-.3.172-.573.478-1.031.8-.783.573-.42.238-.363.2-.573.162-.564-.058-.392-.629-.067-.373v-.639l.086-.325.182-.488-.438-.9-.239-.239-.5-.219-1.107-.5-.622-.219-.668-.678-.611-.486-.629-.669-.277-.087-.381-.047-.392.115-.363.42-.363.887-.238.411-.21.306-.21.3-.391.211-.621.028-.983-.8-.21-.44-.277-1.021-.716-1.451-.259-.477-.257-.429-.429-.381-.354-.106-.419.268-.391.878-.5.192-.43.038-.429-.1-.449-.306-.277-.372-.268-.4-.238-.488.018-.983.144-1.241.526-1.7.028-.344.077-.343.076-.354-.048-.21-.133-.143-.382-.172.678-.172.553-.534.268-.754.277-3.389.3-.287.3-.133.879.066.382-.363,1.212-4.266.248-1.109-.554-.372-1.642-.382-.449-.344-.21-1.221-.057-.955-.22-.611-.268-.7-.554-1.232-.048-.926.325-.544.267-.659-.124-.659-1.412-.143-1.127-.087-1.622-.191-2.6-.134-.192-.592-.43-1.775-.209-1.165-.354-.926-2.921-.506-.907-.1-.621-.42.028-.868.02-.955.085-1.356.087-1.566.018-1.289-.744-.42h-.907l-1.231.1-1.853-.229-.467-1.909-.086-1.135-.21-.993-.363-.993-.992-1.126-.611-.765-1.108.916-.591.8-.506.544-.992.707-.945.124-1.079-1.022.21-2.749-.086-1.384-.676-1.843L1348,1339.97l-1.2-.038-1.165-.134-1.5-.248-1.48-.22-1.395-.267-1.393-1.337-1.594-2.319-1.537-2.4-.936-.507-.563-.84-.468-1.107.334-2.138.258-1.766.62-1.737,1.394.2,1.308.086,1.145.066.9.134.926.182h.659l.477-.22.478-.134.544.114.573.048.449.057.735-.439.162-.84.123-.782.086-.726.029-.668.229-.707.344-1.928.115-2.854.143-1.117.983-.239,1.27.095,1.824-.1,1.774-.125,1.041-.029.841.125.439.162,1.823.9.659.228.563-.334.994-.5,1.212-.783,1.795-.916,1.079-.469.505.23.487.258.535.134.448-.268.43-.134.344.486.334.525,1.795,1.833,1.26-.067,1,.038.821-.3,1.937-.191,1.366-.219,1.155-.3,2.282-.439,1.651-.182.621-.505.573-.706,1.146-.029,1.728.2.887.23.868-.287.63-.2-.258-.754-.249-.115-.219-.248.086-.305.43-.058.411.029h.438l.63-.277.564-.151,1.7-.239,1.1-.936,1.633-1.566,1.2-.945.382.152.573.3.792.047.707-.1.438-.019.22.487.01.563-.038.421.191.419.258.267,1,.983.295-.076.125-.784-.066-1.25.095-.993.182-.811.992-1.949.525-.9.506-.249.5.077.324.124.382-.143.506-.144.268-.353.1-.515.162-1.2,1.022-.563.41-1.345.716-1.728.124-.869.8-.057.927-.076.84-.162.487-.039.133.238.229.517.229.419.411.353.191.325.085.611-.276.4-.573.335-.2.524.028.889.058.534.459.324.649-.076.811-.316.592-.171.611.038.535.076.181.277-.267,1.461-.01.545.41.381.45.516.544.43.658.41,1.279.6.42.668v.315l-.393.43-.485.134-.592.152-.831.152-.439.353-.6,1.059-.62.909-1.031,1.622.659.068.678-.038.983-.114.859.019.516.524.162,1.442.229.9.916,1.279.965.467.62.869-.124,1.021-.306,1.107-.887,1.652-.965.687-.506.306-.477.114-.64.066-.382.44.373.763.362.564,1.174,1.05.792.162,1.079.152.162,1.5-.229,1.089-.315,2.244-.3.229-.306.22-.219.514.067.86.3.192.525.343.22.6.21,1.04.324.887.287.488.162.773-.353.974-.19.392-.411.324-.791.373-.861.115-.3,2.109.019,1.385-.21,2.3-.421,1.069.239.249.306.238.563.229.4.087,1.069.229,1.355.267,1.279.364,1.8.429.325-.38.362-.574.22-.525.382-.314,1.012-.105.754-.1,1.193-.192,1.489-.018.458.363.191.62.182.516.268.43.6.572.229,1.1-1.078,2.157-1.022,1.222-.621.239-.763.276-.821.123-1.394.239-.658.354-.63.459-.629.038-.087-.593.01-.781-1.347.887-.554.249-.639.305-.487.009-.6.01-.583.143-.363.621.077,1.374.153.773.267.153.5-.153.458-.077.382.23.219.983-.191.573-.63.821-.22,2.464.23.486.3.63.306.648.114,1.586-.315.544-.448.677-.4.869.219,1.394.593.859.469.621.533.428.22.726-.115,1.794-.076.411-.3.3-.45.258-.515.343-.315,1.957.229.573.383.964.411,1.232" transform="translate(-1183.04 -1181.62)"  stroke="#fff" stroke-linecap="square" stroke-linejoin="bevel" stroke-width="1" fill-rule="evenodd"/>
      <path id="talId22" fill="#7DB8EC" title="Pandharpur Taluka" data-name="Pandharpur" d="M1319.625,1402.83l-.2-1.479-.143-1.423-.191-1.136-.363-.821-.381-.343-.888-.068-1.1-.229-.888-.229-.888-.258-.974-.382-.888-.4-.754-.487-.993-.678-.792-.248-.144-1.547-1.165-.229-.439-.363-.535-.849-.61-.439-.908-.038-3.6-.047-.974-.993-1.536-.143-1.06.057-.821.086-.993-.3-.887-.086-.9.124-1.328-.286-.314-.3.381-.382.191-.411.544-.878.047-.659-.047-.917-.057-1.776-.306-2.471-3.713.315-1.738.22-.7-.068-.21-.944-.1-.658-.516-.469-.754-.344-.506-.439-.258-.42.039-.831.066-.506.573-.229.353-.4-.373-1.059-.3-.994.3-1.614.057-.945-.926-.8-1.527-.554-1.557-.354-1-.257-.974-.153-.7-.124-.983-.459-.172-1.48,1.059-1.547.5-.916.687-.754.01-1.938-.039-4.41.1-.5.412-.324.161-.516.334-.868,1.47-1.222,1.3-.506.974-.43,1.212-.363,1.06.057,1.184-.123.458-.765.477-.5.324-.687.392-.935.829-2.015.076-.438.344-.43.505-.219.459-.182.277-.391-.077-.344-.573-.191-.505-.487.124-2.08.85-2.816.792-1.3.851-1.46,1.594-2.272,1.032-.784.935-.343,1.288-.3.973-.249.889-.3.6-.364.477-.448.182-.716-.64-1.813-.344-.889-.344-.916-.2-.859-.622-1.117-1.021-.945-.592-.229-.716-.144-.888.029-.993.153-1.488.4-1.566.888-1.385.678-1.221.563-.535.219-.763.144h-1.146l-.64-.028-1.126-.249-.765-.7-.114-.467-.067-.515-.143-1.346.3-.974.248-.258.506-.544,1.365-1.4.4-.362.82-.383,1.09-.429,1.975-.946,1.623-1.318.9-1.1.62-.906.478-.649.659-.429,1.078-.677,1.126-.687.162.153.4.859.629.363.582.21.343.142.65.048.429-.1.5-.018.048.21-.287,3.026.593.9.859.334,1.46.287.64.171,1.575-.152,1.5-.191,1.041-.134,1.213-.306,1.441-.362,2.825-.745,1.746-1.146.88-.153.505.4.487.583.4.563.782,1.757.746,1.317.906.4,1.2.19,1.011.039,2.34-.438.916-.087h1.213l.954.211.344.457.277.554.134.658.153.4.572.077.725.162.974.334.621.039-.621,1.737-.258,1.766-.334,2.138.468,1.108.563.84.936.507,1.537,2.4,1.594,2.32,1.393,1.337,1.393.267,1.48.22,1.5.248,1.165.133,1.2.039,1.461,2.243.677,1.843.086,1.384-.211,2.75,1.079,1.021.946-.125.993-.706.506-.544.591-.8,1.108-.916.611.763.993,1.127.363.993.21.994.086,1.135.467,1.909,1.852.229,1.231-.105h.907l.745.42-.019,1.289-.086,1.565-.086,1.356-.019.955-.029.868.621.421.906.1,2.922.506.353.926.21,1.165.43,1.775.191.592,2.6.134,1.623.191,1.127.086,1.413.144.124.658-.268.659-.324.544.048.926.553,1.231.268.7.219.611.057.954.21,1.222.449.344,1.641.383.553.371-.248,1.108-1.212,4.267-.382.364-.878-.067-.305.134-.3.287-.276,3.389-.268.754-.554.534-.677.172-.783-.363-1.1-.02-.993.086-1.2.057-1.012.02-.85-.21-.955-.353-.839-.277-1.805-1.584-.677-.745-.907-.372-.468.506.066.782.086.84-.572.745-.563.353-.535.21-.63.554-1.1.554-.277,1.309-.43.8h-1.241l-.916-.191-1.289-.382-.649-.162-.677-.305-.525.5-.43.353-.8.047-.764-.191-.573.058-.3.468-.315.553-.381.611-.124.163-.8.277-.611.172-.4.344-.6.4-1.222,1.288-.85.63-.887.4-.754.125h-.85l-.381.276-.44.782-.239.536-1.222.992-.429.163-1.184-.144-1.691-.314-1.307.334-.821.4-.43.276-.525-.334-.535.315-.5.353-1.68,1.4-.191.973-.334.754-.382.535-.955.172-.611-.115-.764-.372-.421-.325-.486-.591-.353-.316-.535.449-.467.353-1.967,1.928-.791.315" transform="translate(-1180.37 -1182.451)"  stroke="#fff" stroke-linecap="square" stroke-linejoin="bevel" stroke-width="1" fill-rule="evenodd"/>
      <path id="talId78" fill="#7DB8EC" title="Barshi Taluka" data-name="Barshi" d="M1406.838,1293.454l.029-.715-.067-.8-.535-.277-.668-.086-1.021-.125-.974-.152-.582-.086-.468-.1-.392-.115-.314-.219v-2.864l-.1-.993-.354-.592-.573-.354-.8-.182-.4.125-.534.7-.259.333-.5.23-.353.1-1.432-.029-.44.248-.239.372-.782.1-.564.286-.734.305-.793.315-.668.335-.506.3-.353.287-.572.659-.7.114-.515.029-.335-.267-.047-.84-.219-.812-.392-.821-.1-.935.066-1.737.726-1.632.945-.526.639-.306.449-.229.124-.85-.371-.782-.21-.517.143-.41.5-.105.507-.153.573-.411.63-.763.792-.745.832-.382.458-.382.238-.449-.019-1.145-.076-1.021-.086-.438.315-.43.5-.305.668-1.032-.238-.458-1.014-.239-.849-.124-1.126-.086-.936.144-.745.21-.716.162-.669.181-1.05-.209-1.518-.364-1.174-.21-.764-.038h-1.575l-.468.526-.248.849-.21.564-.306.362-.745-.2-.8-.267-.621-.362-.267-.21-.209-.668.057-.478.134-.6-.011-.485-.18-.764-.134-.878.1-2.615-.257-.582-.9-.468-1.451-.1-1.756-.22-.754-.21-.6-.229-.936-.5.249-.507.105-.6-.01-.449-.219-.592-.134-.965.287-1.04.047-.9.106-.791.21-.592.964-1.423.812-.792.133-.468-.3-.458-.257-.382-.3-.372-.1-.373-.009-.343-.134-.277.086-.439.459.047.629.287.545.1.582-.191.181-.659.105-.649.1-.344.039-1.489.3-.754.391-.688.486-1.756.182-.7.678-.086.563-.544.821-.574.6-.657.287-.431.239-.543.258-.725,1.031.2.668.076.563.076.649.086,1.06.248,1.041.573,1.125.563.688.124.773.315.391.248.249.048.468-.516.143-.582.047-1.193-.038-2.855-.993-.43-.535-.21-.467-.143-.478-.1-.315-.057-.172-.095-.114-.468.1-.4.344-.553.516-1.079.849-.925.363-.478.344-1.04.228-1.051.735-1,.316-.688.515-1.126.955-.458.106-.811.114-.65.276-.42.517-.668.19-.667.477-.383.573-.334.477-.076,1.565.439,2.081.372.83.086.707.086.6.649,1.2-.239.8-.067.315-.134.143-.572.286-.458,1.012-1.04.641-.382,1.317.01.573.143.353.2.153-.019.305-.468.028-.447.077-.717.1-.859.783-.992.792-.85.21-.562.133-.563-.094-.249-.363-1.049-.048-1.2-.363-.964-.066-.554.009-.554-.038-.477-.344-.42-.286-.143-.478-.086-.468.115-.5.019-.65-.334-.9-.964.077-.458.467-.868.21-.392,1.318-2.081.573-1.661.6-2.1.219-.564.811-.047.631-.162.8-.258.591-.047.736.086.391.009.535.029.43-.077.7-.228,1.041-.641.286-.287,1.48.21.058.926v.879l.162,1.183.315.85.229.677.048.563.134.974.477,1.022.6.191.563.133.373.239.182.305.018.353-.038.411-.038.467.114.219.821.564.6.544.868.267.382.325.03.63.086.544.237.334.516.191.706.038,1.222-.086.945.048.754.106.554.189,1.108-.066.41.209.686.822.974.8.735.478,1.461.735,1.68.286,1.155.487.859-.277.669-.3.667-.286.774-.153.83-.115.573-.019.8.209.6.354.611.258.458.267.439.428.515.688.363.974.267,1.1.353,1.308.42,1.174.143.668.144.783.734.725.735.773,1.518,1.977.639.744.115,1.156.707.983.543,1.088.373.545.105.419v.439l-.239.9-.449,1.537-.171,1.3-.038.678.161.955.125.649.3.343,1.375.907.954.725.173.6.372,1.48.344.7.077,1.174-.115.44-.134.43-.192.573.192,1.374-.268.745-.143.515-.229.41-.239.324-.268.229-.411.325-.285,1.347-.229.887.3.381.372.306.21.459v.429l.048.563.02.469.735.438.755.458.725.583.468.611.755,1.394v1.031l-.229.946-.583,1.985-.468,1.05-.553,1.128-.43.209-.1.143-.277.831-.066.419-.411.229-.324.087-.287.219.221.3.362.229.228.477.058.65.2.554.047.946.21.543.009.573-.028.439.181.429.42.268.439.163.9.247v2.854l1.1-.048,1.48-.153,1.184-.048,1.317-.171.916-.02.383.278.477.62.038,1.957.153.736.171.4.383.286.535-.19-.037.3-.173.314-.4.516-.83.526-.364.734-.115.812.163.266.572.162.3-.181.257-.124.65-.143.659-.363.659-.162.391.019.134.477.1.373.124.305.153.1.211-.019.467-.125.544-.1.354.01.268.391.123.506.583.992-.43.382-.611.525-.582.515-.316.391-.438.354-.564.3-.086,1.26-.286,1.126-.277.755-.468,1.746-.41,1.385-.077,1.288-.9.383-1.031.076-.506.018h-.334l-.1,1.824-.325,1.785.019.62-.228.363-1.051.191-.63-.009-.534-.048-.534-.467-.965-.478-.668-.286-.983-.305-.535.1-1.87.591-2.272.649-1.261-.191-.7-.267-.821-.172-.61-.543-.573-1.682-.306-.773.115-.811.086-.506.038-.562.028-.124-.143-.516-.448-.172-.354-.029-1.021-.468-.708-.047-.476-.182-.421-.019-.219.248-.335.258-.218.038-.372-.162-.3-.182-.411.047h-.447l-.564-.353-.353-.277-1.136-.821-1.174-.067-.926-.152-.478.038-.468.22-.43.458-.315.191-.315.305-1,2.224-.545.8-.171.859-.124.5-.439.649.03.373.772.038.162.315-.133,1.375-.21,1.174-.382.63-.592,1.117-.2,2.883.076,2.806-.268-.009-1.02.305-.831.048-.926.258-.917.353-.668-.038-.544-.583-.325-1.642-.248-1.994-.4-.889-.43-.411-.277-.535.22-.724.363-2.063.219-.533.553-1.013.058-.63-.058-.735-.209-.468-.649-.382-.889-.153-.935.057-.764-.124-.9-.267-1.136-.382-.687-.114-.6.372-.287.7-.314.64-.382.5-.506.773-.592.477-2.168.163-.8-.048-1.222-.01-1.155.047-.411-.382.01-.544.267-1.461-.181-.277-.535-.075-.611-.039-.592.171-.812.316-.649.076-.458-.324-.057-.535-.028-.887.2-.525.573-.334.277-.4-.086-.611-.191-.324-.41-.353-.229-.42-.229-.516-.135-.238-.486.037-.84.162-.926.076-.8.057" transform="translate(-1185.009 -1177.208)"  stroke="#fff" stroke-linecap="square" stroke-linejoin="bevel" stroke-width="1" fill-rule="evenodd"/>
      <path id="talId29" fill="#7DB8EC" title="Madha Taluka" data-name="Madha" d="M1401.813,1295.248l-.124.869-.717,1.728-.41,1.347-1.022.562-.162,1.2-.1.517-.267.353-.507.143-.381.144-.325-.125-.5-.076-.506.248-.525.9-.992,1.947-.182.812-.1.993.067,1.25-.124.782-.3.077-1-.983-.258-.267-.191-.42.038-.42-.01-.564-.219-.487-.439.019-.706.1-.793-.048-.573-.3-.381-.153-1.2.945-1.632,1.565-1.1.936-1.7.239-.564.153-.63.277h-.439l-.411-.028-.429.057-.086.305.219.248.248.115.258.755-.63.2-.868.286-.888-.229-1.729-.2-1.145.028-.573.707-.62.505-1.652.182-2.281.439-1.156.3-1.365.221-1.938.19-.821.3-1-.038-1.26.067-1.795-1.833-.334-.525-.344-.487-.431.135-.448.266-.534-.133-.487-.258-.506-.229-1.078.468-1.8.916-1.212.782-.993.5-.563.334-.659-.229-1.823-.9-.44-.163-.839-.124-1.041.029-1.776.124-1.824.1-1.27-.1-.983.238-.143,1.117-.115,2.854-.344,1.928-.229.706-.029.668-.085.726-.124.783-.163.839-.736.44-.448-.058-.573-.047-.543-.114-.478.133-.478.22h-.658l-.927-.182-.9-.134-1.146-.066-1.307-.087-1.394-.2-.621-.037-.973-.335-.725-.162-.573-.076-.153-.4-.134-.658-.277-.554-.343-.458-.955-.209h-1.212l-.917.085-2.338.439-1.013-.038-1.2-.191-.907-.4-.745-1.317-.782-1.757-.4-.564-.487-.582-.506-.4-.878.153-1.747,1.145-2.826.745-1.442.362-1.212.305-1.04.134-1.5.191-1.576.153-.638-.172-1.461-.287-.86-.334-.591-.9.287-3.026-.047-.21-.5.019-.429.1-.649-.048-.344-.143-.582-.21-.63-.363-.4-.859-.162-.153.344-.343.229-.306.23-.344.239-.429.18-.487.1-.516-.086-.3-.343-.372-.554-.162-.63.01-.716.143-1.728.44-.84.066-.878-.209-.831-.411-.648-.7-.354-1.316.038-.984-.057-1.547-.545-1.021-.324-.19-.707-.23-1.737.373-1.365.563-.372.114-.363.076-.373-.219-.3-.287-.2-.276-.3-.7-.247-1.509-.192-.792-.3-.984-.3-.563-.268-.286-.391-.23-1.06-.324h-.592l-.3.086-.3.257-.3.344-.134.305-.1.324-.105.41-.1.411-.239,1.393-.114.688-.162.439-.229.381-.23.171-.3.173-.3.067-.344-.029-.411-.124-.277-.1-1.213-.621-.706-.334-.535-.153-.6-.066-.391.037-.344.077-1.146.43-.4.371-.123.345-.1.458-.2.9-.133.526-.124.448-.3.5-.2.478-.267.506-.2.295-.209.287-.325.4-1.241.5-.831.21-.687.077h-.487l-.43-.105-.3-.2-.316-.4-.286-.42-.42-.383-.649-.534-.525-.334-.409-.219-.335-.23-.257-.239-.134-.257-.048-.373.019-.277.163-.669.525-1.4.429-1.45.277-.688.287-.5.7-.83,1.012-1.117.582-.812.6-.935.677-.984.211-.534.353-.925.467-.936.707-.611.793-.41.82-.363,2.244-.985.992-.562.5-.64.364-.658.238-1.118.077-.936.1-.783.621-.945.477-.7.906-1.07.859-.362.573-.24,1.5-.323,1.251-.153,1.1.048.727.115.458-.076.515-.135.3-.333.267-.43.21-1.366.134-.639.22-.517.9-1.1.784-.353.534-.381.879-.2.782-.086,1.06-.793.735-.983.134-.668.506.123.1.335-.02.353.058.544.085,1.47.307.353.362.134.678-.047.249-.01,2-.02,2.2.144,1.059-.029.736.057.572.421.335.438.411.6.333.257.458-.324.735-.6.143-.545-.2-.449-.1-.553.152-.716.229-.9.392-1.06.229-1.337.572-1.117.764-.133,1.078-.048.668-.029.591.038.449-.333.315-.668.525-1.031,1.5-1.431.916-.754,1.26.151,1.041.143.544.01,1.164.755.593.572.668.344.687.239.716-.095.572-.5.688-.668,1.527-1.967.917-1.861.429-1.354-.228-1.375-.286-.612-.477-.429-.182-.486.382-.85.229-.439.4-1.623.113-1.021.134-.888,2.625-1.375.01-.926-.353-1.241-.009-1.585.84-.582.792-.353.793-.353.839-.449,3.3-1.231,1.26-.5.649-.267.439-.3.219-.515.325-.955.859-1.566.784-.467,1.1-.43.887-.228.429-.182.831.011.878.076,2.519.01.85.048,1.126.134.659.009,1.078.2-.219.774-.106.715-.028,1.136-.067.488-.287.19-.362.22-.344.2-.229.21-.182.249-.21.324-.1.2.153.362.21-.144.105-.094.315.038.44.86.181.352.076.278.01.171-.028.192-.162.2-.229.172-.067.172v.218l.029.21.343.745.115.439.124.687.085.345.258.19.43.22.191.162.573.459.391.535.2.391.03.2-.058.143-.286.267-.554.467-.448.354-.21.3-.105.191-.047.3-.048.372-.019.229-.1.372-.267.554-.3.535-.162.325-.01.153.085.554.2.544.258.478.4.362.383.087.343-.125.411-.143.458-.1.343-.009.363.085.755.487.562.43.315.306.192.3.382.5.2.133.688.248.371.191.191.276.287.382.258.173.172.019.353-.086.249-.545.085-.4-.094-.344-.125-.287-.191-.249-.143-.143-.115-.228.029-.191.153-.172.315-.1.344-.133.392-.1.344-.057.888-.2.734-.01.707-.028.467.019.248.029.191.162.009.411-.1.239-.171.361-.048.3.029.239.038.411.19.343.172.335.047.248-.075.2-.21.4-.077.323.019.248.068.277.18.316.259.153.219.048.162-.019.258-.211.125-.229.038-.182.038-.21.086-.315.19-.2.124-.1.4-.058.906.105.344.163.344.285.525.563.391.354.544.3.851.544.478.372.133.133-.057.181-.105.163-.21.152-.439.411.373.363.276.143.3.133.295.105.258.115.258.229.133.172.134.335.1.248.086.115.238.027.191-.209.467-.258.182-.086.124-.449.21-.506.8-1.231.725-.707.392-.554.936.5.6.23.754.21,1.756.22,1.451.094.9.468.258.583-.1,2.616.133.878.182.764.009.487-.133.6-.058.476.21.669.268.21.62.364.8.266.744.2.306-.363.211-.562.248-.851.467-.524h1.576l.763.037,1.174.21,1.519.362,1.05.21.668-.182.716-.161.745-.21.935-.143,1.127.086.849.124,1.012.238.239.458-.669,1.031-.5.305-.315.431.086.438.077,1.022.019,1.145-.239.449-.458.381-.831.383-.792.744-.63.765-.573.41-.506.153-.5.105-.143.411.211.515.371.782-.124.851-.448.229-.639.305-.945.525-.726,1.633-.067,1.737.1.935.392.821.219.811.047.84.335.268.515-.029.7-.114.573-.659.353-.287.506-.3.668-.334.792-.316.735-.305.563-.287.783-.1.239-.371.44-.249,1.431.029.354-.1.5-.229.258-.335.534-.7.4-.124.8.181.573.354.353.592.1.993v2.863l.314.22.392.114.469.1.581.086.975.152,1.02.125.669.086.534.277.067.8-.028.716" transform="translate(-1179.62 -1179.162)"  stroke="#fff" stroke-linecap="square" stroke-linejoin="bevel" stroke-width="1" fill-rule="evenodd"/>
      <path id="talId80" fill="#7DB8EC" title="Malshiras Taluka" data-name="Malshiras" d="M1282.55,1305.625l.363-.077.372-.114,1.365-.564,1.738-.372.706.229.325.19.544,1.022.057,1.547-.038.983.353,1.318.65.7.83.411.879.21.839-.067,1.728-.44.716-.143.63-.01.553.162.344.373.086.3-.1.515-.181.488-.239.428-.229.344-.229.306-.344.344-1.126.687-1.078.679-.66.429-.477.65-.621.906-.9,1.1-1.623,1.318-1.976.945-1.088.43-.821.382-.4.363-1.365,1.4-.506.544-.248.257-.3.975.143,1.345.067.515.113.469.765.7,1.127.248.639.029h1.146l.764-.143.535-.22,1.222-.562,1.384-.679,1.565-.887,1.49-.4.992-.153.888-.028.717.143.591.229,1.022.945.62,1.118.2.859.344.917.343.887.64,1.814-.181.717-.478.449-.6.362-.887.3-.974.249-1.289.3-.935.343-1.031.784-1.595,2.271-.85,1.461-.792,1.3-.85,2.816-.124,2.08.506.487.573.192.075.343-.277.391-.459.182-.5.219-.344.43-.077.439-.83,2.014-.392.936-.324.687-.477.5-.458.764-1.183.125-1.059-.057-1.213.363-.974.429-1.3.506-1.471,1.221-.333.87-.163.515-.411.325-.095.5.037,4.411-.009,1.938-.687.754-.5.916-1.059,1.546.171,1.48-.563.382-.726.468-.524.247-.44-.028-.468.124-.076.659-.077.382-.277.611.354,1.509v.449l-.459.353-.372.258-.411.315-.286,1.891-.564,1.7-.22.478-.438.306-.344.105-.5.076-1.384.773-.82.391-.813.382-.458.315-.468.449-.306.277-1.165.191-1.289.706-.525.305-.611.1-.573.134-1.012.4-.315,1.527-.888.793-.411.381-.725.086-.821.124-1.222.249-1.146.248-1.24-.01h-.716l-.744-.1-.554.172-.287.466-.429-.114-.6-.21-.324-.1-.459-.755-.764-.973-1.326-.926-1.041-.736-.745-.525-1.614-1.307-1.03-.411-.63-.133-.439-.115-.659-.143-.105-.239-.257.124-.3.1-.239.01-.182-.1-.076-.239-.535-.238-.353-.105-.364-.01-.382.134-.038-.077-.295-.373-.1-.153-.076-.334.076-.477-.449-.306-.152-.305-.154-.277-.229-.219-.191-1-.171-.267-.325-.247-.133-.258.067-.287.124-.4-.057-.5-.018-.611-.259-.563-.467-.3-.392-.248-.067-.429.038-.477-.249-.163-.1-.477-.124-.621-.334-.181-.029-.668-.162-.45-.171-.715-.765-1.356-.258-.372-.926.248h-.315l-.419-.277-.192-.439-.009-.849-.669-.526-.6-.363-.287-.334-.171-.592.248-2.282.105-.448.238-.8.086-.7.21-.487.506-.639.019-.573-.592-.459-.859-.3-.764-.152-.535-.038-.906.42-.659.468-.382-.334-.143-.678-.449-.21-.42.124-.658.363-.458.314-.621-.506-1.451-1.46-.516-.7-.3-.659-.3-.8-.82-.468-1.1-.869-.545-.3-1.355-.649-1.27-.64-1.1-.381-1.107-.363-.382-.859-.267-.573-.382-.678-.7-.172-.621.314-.506.487-.545.4-.591.239-.372.744-.152.469-.316.486-.277-.058.124-.248.076-.754-.239-.1-.219.324-.248-.019.075-.267.038-.8-.439.143-.2.63.058.592.1.553-.381.124-.21-.22-.229-.286-.43.038-.029-.23.211-.248.3-.019.039-.143.143-.258.094-.534-.028-.344-.3.056-.267.3-.5.267-.124-.057-.267-.354-.439.2-.134-.372-.391.114-.172-.467.086-.477.316-.3.449.162.248.315.344.21.277-.1-.038-.447-.143-.239-.248-.306-.525-.276.315-.3-.038-.3-.143-.344-.449-.21.717-.134.3.1.163.468.086.782.191.219.19.306.335.344.544-.038.172-1.231-.506-1.012-.477-.878-.449-.2-.83-.182h-.364l-.162.1-.172.1-.325.047-.258-.037-.477-.162-.124-.287.545-.573.191-.458.1-.258.286-.115.42-.3.191-.344-.458.353-.5.191-.21.018.068.2-.1.286-.382.305-.335.258-.447-.162-.449.038-.439.086-.229-.1.066-.611-.324.191-.3.564-.382-.162.077.363-.162.132-.038.421-.268.105-.238-.334h-.382l-.143.1-.162.153-.43.277-.181.162-.305-.325-.105-.238-.1-.286.316-.582-.172-.048-.468.248-.057.315-.316.592-.562.144-.21.01-.115-.287-.191.191-.277-.019-.467-.229.172-.344.286-.2.353-.125.42-.248.23-.3-.21-.068-.525.315-.162-.181-.42.343-.2.268-.373-.219-.334-.077-.306-.381.219-.392.411-.086.382.039.591.029.1-.344-.41-.124-.277-.068-.019-.41.115-.458.152-.152.248-.22.162-.3.1-.277-.22-.257-.3.458-.162.067-.163-.134-.267.4-.191-.305.029-.315.153-.382.134-.544-.316-.163-.305.593-.077.391.01.525-.029.306-.258.391-.286.172-.392-.039-.172-.23.124-.324.106-.249-.086-.324-.258-.076-.372.161-.191-.114-.229-.248-.163-.363.1-.2.325-.3.821-.344-.515-.181-.42.019-.372-.22-.086-.295.21-.287.4-.086.477.134.277-.115.229-.315-.133-.267-.4-.153-.381-.1-.555-.172-.124-.181.324-.287.42-.124.448-.125.029-.143-.505-.153-.507-.038-.286-.391-.143-.545-.219-.162-.421-.249.077-.276.162-.353-.057-.324-.115-.392v-.458l.01-.449-.134-.534-.2-.229-.153-.124-.324-.382-.258-.221-.344-.466-.745-.058-.333-.2-.162-.965-.21-.171-.249.458-.391-.105-.429-.1-.22-.19-.4-.162-.506.2-.067.525-.048.583-.286.153-.153.1-.831.21.335.716.114.467-.143.02h-.352l-.449.248-.239.182v.276l.383.153.238.134.363.057.306-.068.315.068.038.229-.334-.056-.134.094-.229.239-.572.038-.373-.019-.61.191-.688-.115-.029.182.688.124.448.019.372.038.4.153.191.191-.154.115-.276-.1-.392-.076.038.21-.124.247-.448-.343-.143.076-.019.248-.583-.171-.229.151.153.335.363.276.4.239v.257l-.306-.152.115.315-.372.047-.344.125-.01-.21.1-.2-.277-.324-.2-.191-.124-.3-.039-.277-.019-.248-.219.048-.106.247-.134.077-.182-.209-.143-.421-.057-.172-.2-.019-.19.047-.144-.219-.144.039.029.286.381.2.162.582.258.191-.086.239-.363-.182-.1.1-.1.172.077.134-.029.477-.114.048.029-.3-.162-.211-.124.125-.181-.315.134-.373-.191-.2-.287.048-.439.248-.115.248-.163.239-.2.181-.267.068-.029-.306.286-.229-.134-.2-.325.191-.248.182-.1-.115.362-.4.458-.248-.029-.19-.544-.01.248-.373.478-.172.21-.392-.21-.229.115-.133.381-.1-.19-.162-.411-.057-.325.057-.3.057-.505.009-.611.086-.334-.2.134-.5.754-1.06-.152-.783-.192-.563.211-.459.821-.342.677-.028.5-.172.688-.259,1.184-1.059.744-.239.6-.534-.124-.726-.162-.487-.125-.554-.21-.563-.209-1.432.124-.792.19-.659.315-.477.544-.324.581-.745.038-.7.182-.707.21-.5.182-.277.468-.353.525-.067.411-.525.715-1.107.144-.868.086-1.012.086-.659.526-.926.448-1.584.4-2.33.238-1.126.4-1.288.324-1.738-.047-2.4-.171-.488-.249-.563-.4-.487-.305-.4.039-.526-.01-.324.01-.4.21.018.277-.075.1-.077.306-.21.621-.2.306-.258.172-.172.333-.2.344-.144.3-.277.3-.391.334-.257.21-.171.344-.124.19-.1.125-.134.1-.124.248-.277.1-.144.143-.009.181.115.258-.02.248-.125.163-.1.1-.181.029-.162.152-.1.076-.048.2.048.239.057.353-.181.248-.219.115-.068.162-.048.162-.029.2.01.21-.019.344-.268.039-.019.1-.077.115-.028h.086l.1.019.152.057.182.01.277-.077.249-.133.64.075.677-.18.525-.325.277-.1.286-.039h.229l.191.058.553.258.831.41.5.143.572-.009h.706l.306.106.219.181.105.258.047.229.029.258.029.314.058.336.162.3.268.143.276.086.2.038.209-.077.259-.2.391-.258.343-.3.363-.238.334-.191.526-.286.62-.124.449.048.372.2.267.219.249.277.3.334.335.372.725,1.021.325.286.353.163.372.038.334.019.469.038.381.1.249.125.392.286.449.573.372.553.171.344.181.229.2.211.22.172.363.114h.667l.335-.1.277-.085.286-.115.277-.144.42-.4-.038-.439-.125-.449-.125-.439-.009-.362.143-.392.21-.325.258-.229.3-.21.277-.048.315-.009.182.086.181.22.314.258.182.2.564.812.544,1.451.19.774.087.5.315.3.354.124.267.086.372-.01.421-.162.353-.23.477-.315.449-.2.382-.038.515.142.687.229.449.048.391.058.42.075.344.115.315.22.151.229.115.288-.028.256-.105.363-.41,1.251-.163.811-.029.42-.076.917-.153.419-.182.229-.467.249-.468.363-.955,1.069-.449.772-.363.64-.125.478-.01.3-.01.23.125.267.191.182.373.094.486.115.448.03.363-.076.7-.239.593-.582.458-.3.535-.143.5.028.4.058.192.086.095.057.344.6.191.535.143.315.362.153.459.048.439.029.391.077.515.085.669.391.285.277.439.229.315.219.258.115.306-.1.287-.239.267-.229.421-.382.486-.353.286-.315.764-.153.687-.075.717-.029.362.047.429.134.324.172.468.229.621.229.706.173.41.009.42-.1.363-.076.362-.029.277.182.24.2.3.239.143.144.143.219.057.268.029.372-.058.6-.123.391-.086.306-.067.258.01.238.143.2.324.124.391.048.9.077.687.161.421.229.353.259.439.352.488.21.83.3.526-.067.381-.066.5-.048.554-.048.477-.01.5-.01.411.019.878.134.45.172.562.239.688.239.726.191.726.028.41.115.439.181.487.182.353.162.382.114.305-.009.372-.01.382.086.306.133.047.343.067.335.01.5-.124.478.181.773.124.172.182.134.458.1.449-.037.4-.173.295-.334.325-.477.411-.429.421-.373.716-.544.372.029.449.133.811.286.554.144h.382l.229-.048.229-.316v-.4l-.133-.353-.211-.344-.334-.4-.228-.2-.4-.42-.277-.306-.115-.362-.076-.458.124-.459.382-.478.268-.219.372-.21.248-.153.507-.1.5.019.277.192.411.343.411.315.773.764.249.266.229.211.467.162.229.038.315-.076.287-.162.267-.173.3-.218.315-.172.2-.049.564-.171.439-.344.258-.229.277-.477.018-.334-.286-.286-.306-.21-.306-.248-.333-.315-.363-.726.076-.687.277-.259.391-.144.421-.152.849-.334.774-.363.678-.057.458.1.306.19.249.248.534.688.267.353.392.144h.687l.249-.191.229-.344.21-.554.41-.906.688-.468.354-.153.821-.295.525-.507.162-.344.1-.478-.124-.429-.162-.306-.363-.209-.354-.106-.362-.077-.468-.161-.372-.143-.315-.258-.163-.21-.133-.182-.047-.219.162-.382.239-.372.334-.162.344-.057.429.048.506.182.974.448.373.048.324-.095.363-.134.009-.228" transform="translate(-1175.66 -1181.576)"  stroke="#fff" stroke-linecap="square" stroke-linejoin="bevel" stroke-width="1" fill-rule="evenodd"/>
      <path id="talId79" fill="#7DB8EC" title="Karmala Taluka" data-name="Karmala" d="M1290.085,1270.5l-.143-.639-.248-.506-.373-.353-.744-.612-1.288-.286-1.251.029-1,.153-.706.171-1.327.449-1.871-.019-1.517.029-1.137-.115-1.011-.153-.85-.077-.258-.124-.287-.543-.335-.851-.324-2.663.314-1.593.421-1.051.659-.725,1.145-2.406,1.021-3.6.678-2.978-.1-2.635-.535-1.718-1.317-.267-1.394.067-2,.257-.868.287-.554.458-.649.793-.63.706-1.375,1.183-1.012.6-1.813.41-1.185.2-.773.153-.849.125-1.07.306-.457.334-.745.42-.554.087-.659-.192-.563-.648-1.041-1.909-.41-1.012.067-.974.639-1.088,1.345-2.6,2.1-2.75,2.377-1.727.515-1.165.1-.707-.64-.629-.611.066-.677.382-.7.411-1.194.649-.61.4-1.929.944-2.386,1.013-.935.716-.993.239-.649.02-.668-.249-1.4-.611-2.072-1.051-1.671-.955-.916-.925-.353-.65-.258-.5-.477-.573-.87-.028-1.375.353-1.46.267-.764.248-.822.4-.763.086-2.044-.362-1.125-.01-1.012.125-.868.277-.668.182-2.119,1.069-.487.478-.41.363-.936.133-.926.1-1.25-.048-.9.125-1.25.239-1.136.21-.935.105-.822.047-.639-.392-1.184-1.021-1.813-2.063-1.375-1.489-2.252-2.215-.7-.8-.515-.86-.182-.735.057-1,.544-1.07.611-.362.411-.086.362-.076,1.146.325.877.285.735.353,1.07.4.859.248,1.27.181.516-.22.677-.371.668-.688.639-.916-.009-.716-.248-.631-.658-.572-.4-.353-.686-.822-1.375-1.794.218-1.242.077-.544,1.25.277.3.048h.449l.5.162.41.1.315.305.344.21.162-.047.238-.058.4-.219.287-.162-.162-.172.2-.315.62.162.382-.029.363-.1.344-.229.009-.43.03-.42.086-.6.029-.668.448-1.308.191-.21.516-.268.544-.229.945-.22,1.06-.2,2.281-.009,1.786-.067,1.05-.029.124-1.413.038-.429.162-.506.181-.592.792-1.584.774.1.878-.1,1.489-.963.849-.373,1.6-.449,2.081-.391,1.451-.029.592.211.516.334.572.029.765-.668.066-.4.086-.669.258-.314.63-.535.553-.449,1.422-.333.784-.086,1.1-.22.668-.1h.927l.42-.191.2-1.136.134-.554.239-.715.8-2.5.21-.678.268-.648.182-.545.516-.2,1.794.477.659.134.849.257,1.251.3,1.107.143.736.353.744.525.563.745.41.677.153.124.668-.076.715-.171.612-.143.42-.115.753-.191.736-.163.372-.229.211-.591.764-.479.667-.239.354-.143.143-.162.076-.391.019-.41-.124-.449-.163-.487.4-2.51.564-1.871.821-2.1.362-1.6,1.118-2.416.343-.21.411-.048.4-.058.419-.076.506-.133.411-.009.372.018.372-.114.163-.5.067-.553.143-.784.43-1.1.324-.945.239-.382.229-.4.134-.534.1-.688.125-.487.314-.7.573-.019,1,.42.974.363h.573l.248-.009.649.019.392.208.667.316.9-.125.8-.286.554-.19.783-.287.659-.248.821-.554.458-.477.507-.258.6-.028.717-.086.61-.086.458.029.5.038.543-.019.45-.773.267-.478.315-.525.276-.716.363-.85.4-.878.228-.534.258.047.43.257.5.267.209.21.239.277.162.362.2.449.144.172.486.392.582.333.229-.019.114-.057.21-.124.134-.087.248-.162.42.086.487.286.41.2.192.219.1.21-.019.287-.238.639.019.162.047.22.087.182.142.239.1.153.1.315.1.277.392.334.352.21.2.315.449.42.373.382.438.593.115.3.143.2.143.219.134.24.315.344.144.276.362.057.411.048h.334l.21-.048.258-.134.115-.257.153-.229.228-.2.192-.238.411-.239.82-.163.668-.18.572-.2.306-.258.964-.382.411-.038.439-.1.285-.182.239-.123.364-.182.238.02.439.153.458.152.66.019,1.432.267-.506,2.444-.162.172-.354.009-.687-.029-.229.039-.191.181-.143.335-.525.849-.086.621-.085.192-.172.153-.192.286-.038.182.086.143.172.163.182.267.2.229.181.134.182.229.1.3.048.716.21.8-.114,2.166-.515,1.347-.382.974-.133,2.73.325,1.232.754,1.194-.306,1.279-.458.82-1.441,1.127-.526.964-.42.725-.362.659.085.744.162.363.21.239.219.181.239.181.229.085.534.1.478.019.5.029.229.239.2.267.219.43.229.563.076.334.087.191.23.182.228.142.449-.057.181-.143.258-.354.21-.3.182-.248.229-.143.5.019.573.124.458.095.478.153.162.316.086.334.076.306.059.486.1.2.143.172.325.114.372-.124.22-.267.182-.373.258-.123.4.143.114.276.028.363-.019.268.019.229.115.266.2.211.457.219.573.163.449.324.344.315.248.429.095.306.143.315.22.229.305.086.706.019.363.086.353.249.315.382.047.324-.1.343.048.278.18.267.392.487.382.419.84.793.506.515.467.277.535.124.5.267.066.077.639.553.114.43-.009.421.277.925.21.754.191.449.343.4.219.276.23.134h.373l.258-.1.314-.143.373-.172.43-.172.3-.133h.3l.316.191.124.21v.181l-.086.105-.248.086-.239.057-.305.152-.153.258v.325l.134.277.162.248.219.19.134.277-.087.172-.239.153-.353.144-.153.076-.363.344-.505.534-.21.268-.153.229-.019.143.019.115.01.114.143.324.191.353.276.411.172.191.248.162.363.2.258.238.085.134.029.219v.181l-.143.22-.22.486-.344.5-.411.382-.22.3-.1.3-.01.19.067.173.171.133.085.258.077,3.923-.831-.009-.43.181-.887.229-1.1.43-.783.468-.859,1.566-.325.954-.22.517-.439.3-.65.267-1.26.5-3.3,1.231-.84.45-.792.353-.793.353-.84.583.01,1.585.353,1.241-.009.927-2.625,1.374-.134.888-.114,1.021-.4,1.623-.23.44-.382.849.181.487.478.43.287.611.229,1.375-.43,1.355-.916,1.862-1.528,1.967-.687.668-.573.5-.716.1-.687-.238-.669-.344-.592-.573-1.165-.754-.544-.01-1.039-.143-1.261-.153-.917.753-1.5,1.432-.525,1.032-.315.667-.449.335-.591-.038-.669.029-1.079.048-.763.134-.574,1.117-.229,1.336-.391,1.06-.229.9-.153.716.1.554.2.448-.143.544-.736.6-.458.325-.333-.258-.411-.6-.334-.44-.572-.42-.736-.058-1.06.029-2.2-.142-2,.019-.249.01-.678.047-.362-.133-.306-.353-.086-1.471-.057-.544.019-.353-.1-.334-.505-.125" transform="translate(-1177.326 -1176.1)"  stroke="#fff" stroke-linecap="square" stroke-linejoin="bevel" stroke-width="1" fill-rule="evenodd"/>
      <text id="79" transform="translate(97.984 57)" fill="#fff" font-size="13"  font-family="OpenSans-Bold, Open Sans" font-weight="700"><tspan x="0" y="0"></tspan></text>
      <text id="29" transform="translate(146.984 118)" fill="#fff" font-size="13"  font-family="OpenSans-Bold, Open Sans" font-weight="700"><tspan x="0" y="0"></tspan></text>
      <text id="83" transform="translate(224.984 90)" fill="#fff" font-size="13"  font-family="OpenSans-Bold, Open Sans" font-weight="700"><tspan x="0" y="0"></tspan></text>
      <text id="81" transform="translate(50.984 164)" fill="#fff" font-size="13"  font-family="OpenSans-Bold, Open Sans" font-weight="700"><tspan x="0" y="0"></tspan></text>
      <text id="82" transform="translate(120.984 181)" fill="#fff" font-size="13"  font-family="OpenSans-Bold, Open Sans" font-weight="700"><tspan x="0" y="0"></tspan></text>
      <text id="24" transform="translate(94.984 246)" fill="#fff" font-size="13"  font-family="OpenSans-Bold, Open Sans" font-weight="700"><tspan x="0" y="0"></tspan></text>
      <text id="22" transform="translate(146.984 233)" fill="#fff" font-size="13"  font-family="OpenSans-Bold, Open Sans" font-weight="700"><tspan x="0" y="0"></tspan></text>
      <text id="78" transform="translate(193.984 169)" fill="#fff" font-size="13"  font-family="OpenSans-Bold, Open Sans" font-weight="700"><tspan x="0" y="0"></tspan></text>
      <text id="25" transform="translate(303.984 234)" fill="#fff" font-size="13"  font-family="OpenSans-Bold, Open Sans" font-weight="700"><tspan x="0" y="0"></tspan></text>
      <text id="80" transform="translate(241.984 181)" fill="#fff" font-size="13"  font-family="OpenSans-Bold, Open Sans" font-weight="700"><tspan x="0" y="0"></tspan></text>
      <text id="23" transform="translate(224.984 220)" fill="#fff" font-size="13"  font-family="OpenSans-Bold, Open Sans" font-weight="700"><tspan x="0" y="0"></tspan></text>
    </g>
  </g>
</svg>
