<svg xmlns="http://www.w3.org/2000/svg" width="415.226" height="301.4" viewBox="0 0 415.226 301.4">
  <g id="Group_96" data-name="Group 96" transform="translate(-1553.378 -865.19)">
    <g id="_325_Shahapur" data-name="325 Shahapur" transform="translate(1730.484 865.904)">
      <path id="talId325" fill="#7DB8EC" title="Shahapur Taluka" data-name="Shahapur" d="M896.854,1049.319l.336-.368.064-.3.008-.506.122-.572.638-1.169.358-.695.326-.62.214-.434.09-.514-.09-.4-.4-.311-.009-2.7.131-.376.326-.377.163-.564-.221-.507-.457-.227-.94-.41-.09-.8-.089-1.6-.051-.473-.185-.548-.042-.588-.015-.694-.2-.4-.923-.294-.508-.162-.563-.474-.613-.785-.433-1-.342-1.006-.326-.553-.214-.63-.54-.261-1.086-.083-.064-.514.407-.859.222-.367.824-.9-.025-2.124.057-.458.646-.825.13-.611-.025-.623-.865-.556-.515-.268-1.127-.866-1.266-.858-1.487-.892-2.419-1.256-.767.081-.449-.2-.514-.424-.106-.409.048-.587-.032-.761-.179-.506-.556-.76-.833-1.055-.922-.988-.459-.195-.636-.025-.408.025-.572-.172-.8-.229-.955-.106-.824-.115-1.274-.335-.572.016-.4-.244-.652-.466-.45-.556-.563-1.226-.376-1.291-.214-.392-.269-.62-.073-.671-.073-.668-.026-.6.074-.565.4-.767-.38-.854-.087-.449-.571-2.121v-.725l-.1-.631-.406-.43-.232-1.454.254-.149.273-.466.2-.649.18-.368.517-.438.671-.967.4-.953.269-.679.426-.26.563-.122,1.031-.122.677-.642.78-1,.662-1.229L877.9,986l.84-.322.868-.489.445-.45.127-.352.106-.654.555-.464.542-.184.508-.109.384-.092.515.009.69-1.037.489-.653.849-.949-.294-.8-.9-.783-.769-1.048-.359-1.094-.278-1.586-.49-1.879-.393-1.537-.163-1.259-.329-1-.472-1.045-1.029-.491-.459-.407-.13-.8.164-.965.113-.8,1.389-.227,1.52-.327,2.026-.131.849-.131,3.3-.312,1.863-.9.9.361.867.016.327-.866.211-2.6.376-1.093,1.339-.769.718.083.557.669.13.669.866.7,3.188.456-.214-1.665.7-1.913.491-1.405,2.205-2.14,1.634-.278,1.308.131,1.192.409,2.254.734.344.1,1.7.93.734-.081.588-.278.785-.9-.457-1.4-.506-1.274-1.16-2.271-.786-1.977-.489-1.095-.539-1.111-.6-1.373-.785-1.371.1-1.079.41-1.323.22-.7.076-.62.675.306.511-.038.38-.09.441-.293.466-.982.064-.948v-1.16l.025-.539.09-.572.409-.3.359-.072.385.235.162.515-.1.531-.131.6.105.63.547.246.7.088.889-.392,2.149-.3.948-1.339.653-.965.932-.432.851-.245,1.782.792,1.291-.1.62-.424.751-.042,1.241.753.916.579.727-.048.156-.8-.148-1,.441-1.193,1.643-.653.938-.294.623-.623.147-1.044-.009-1.1.719-.565.614.122.326.965.286,1.471.548,1.128.816.831.589-.243.408-1.39-.514-2.345.5-1.12.4-.179,1.7.249,1.437.67.857.96.977.871.626.686-.172.592-.519.814-.477.685-.246.638.033.69.2.5,1.005.98.31.166.3.013.462-.3.343-.51.34-.322.619-.339.915-.094.863-.38.155-.348.086-.481.045-.625-.522-1.449-.228-1.047.048-.469.217-.272.2-.115.42.033.511.207.666.294.606.217.6.16.457-.148.7-.172.544-.31.2-.313-.224-1.309.058-1.127.007-.458.1-.437.131-.256.306-.1.351.036.279.36.037.388.081.578.361.521.726.245.7-.425.433-.46.364-.287.493-.193.153.014.306-.014.474-.183.352-.693.156-.3.186-.127.419,0,.237.175.313.216.313.148.342-.123.441-.21.307-.224.377-.11.437-.034.668.175,1.708.615.735.3.335.032.407-.06.2-.355-.068-.719-.319-.721-.36-.649-.212-.865.016-.412.213-.143.3-.089.414.2.282.522.278.6.285.127.25.044.216-.18.073-.3.081-.457.2-.274.3-.09.65.077,1.543.768.581.471.4.477.245.243.424.039.5-.257.368-.515.2-.757.012-.783-.028-.618.041-.268.372-.16.516-.028.4.322.421.45.368.29.5-.021.349-.322.445-.691.7-.779.38-.451.111-.539.182-.711.31-.469.292-.253.223-.174.228-.052.373.047.473.53.344.5.563.5.476.278.237.008.314-.156.275-.361.153-.554v-.529l-.089-.849-.023-.587.047-.285.157-.169.19-.029.351.132.387.717.329.529.454.49.369.126.42-.06.374-.193.184-.317-.035-.373.113-.272.179-.173.367-.1.285.022.411.158.655.214.545.076.359-.027.346-.21.375-.579.037-.436-.128-.622.007-.456.093-1.057.151-.815.019-.121.108-.072.195.047.447.317.345.8.141.643.212.617.326.32.823.326.343.05h.329l.444-.432,1.72,1.127.62.312.636.391.377.416.377.482.409.23.407.128.483.2.957.752.563.293.8.14.441.2.556.343.8.419.647.3.767.425.988.475.492.178.4.18.36.236.448.22-.129.328-.238.213-.269.359-.571,1.021-.058.547-.188.295-.179.882.09.131.638.063.4.084.694.23.548.169.595.026.6-.009.891-.22.523-.155.26-.05.072.417-.032.466.032.457.124.67-.041,1.355.294.844.2.7.45.93.628,2.192.809,1.223,1.724,1.635,1.348,1.528.008.677-.042.663-.073,1.3.2.483.531.383.67.508.849.482.172.67.295.425.425.505.489.514.393.214.734.245.688.538.4.581.179.792.237.874.106.85.434,1.763.432,1.259.36,1.284.384,1.413.13.734.032.377-.146.5-.189.433-.228.521.564.287.736.336.358.221.434.318.131.056.352-.285.243-.294.172-.361.083-.115.253-.09.457.2.287.14.669.1.377.092.424.2.041.433.032.261.106.22.459.189.636.254.237.163.319.228.572.589-.122.523-.32.466-.513.508-1,1-.459.465-.522.326-.115.294.358.124.557-.041.4-.067.563-.09.572-.465.2-.237.3-.416.148-.163.49-.147.351.073.8.58.442.416.668.564.514.083.484.016.376.293.44.351.588.352.531.326.957.4.988.758.367.254.459.195.416.058.531-.089.58-.083.394-.072.562-.058.253.14.238.432.138.408.294,1.421.026.687-.026.343-.064.694.105.508v.687l-.057.735-.1.522-.2.792.172-.147.4-.531.107-.4.22-.556.343-.343.393.237.415.612.2.352.368.473.359.426.27.335.531.613.728.449.179.727.157.467.064.463-.253.409-.367.482-.057.818.105,1.16.188.916.122,1.061.025.973-.246.711-.268.547-.385.376-.612.383-.58.466.547.916-.048.742.057.923.115.14.262.057.5.122.595.04.565.228.572.018.473.351.246.163.187.295.155.5-.112,1.032.007.5.14.368.278.187.62-.072.343-.761.228-.242.189-.335.2-.386.261-.384.253-.326.366-.066.352.057.769.189.424.178.409.2.278.065h.285l.3-.237.377-.245.693.181,1.029.22,1.03.245.662.149.025.317-.017.539.05.483.18.7.352.367.318.621-.008.531-.057,1.241.449.516.556,1.183.373,1.031.131.872.009.646.09.638.3.156.426-.131.751-.221.466-.041.62.187.393.286.432.36.351.392.335.123.255-.246.367-.367.358-.147.319-.343.179-.392v-.434l.074-.263.106-.546v-.451l.14-.383.351.082.376.457.26.572.508.335.6.188.442.3.147.456-.048.541.023.514.334.5.531.4.4.434.146.513-.065.3-.326.416-.376.415-.286.785.3.4.622.239.335.17.6.172.482.1.6.058.588.024H1071l.467-.057.693.074,1.03.147.7.156.441.335.342.359.2.312-.18,1,.579,1.569.974,1,.327.467-.172.228-.531-.064-.645-.108-.686.14-.09.415-.2.81-.31.776-.368.148-.613.016-.531.008-.614.017-.645.065-.555-.13-.49.325-.066.531-.089.817-.336,1.546-.2.352-.7.586-.548.286-1.314.35-1.226.255-1.218.758-.848.424-.907.474-.939.467.7,1.25.735-.049.319-.057.505.09.524.105.432.361.392.538.214,1.12.2.784-.328,1.782.034.425.122.089-.342.335-.451.048-.842.245-.31.172-1.224,1.077-.623,1.211-.466.776-2.866,1.7-2.076.8-.949.285-.946.237-.409.123-1.054.621-1.291.2-.564-.22-.343-.448-.45-.59-.556-.653-.939-1.2-.4-.58-.336-.614-.769-1.119-1.649-1.167-.4-.024-.62-.377-.237-.359-.508-.1-.221.334-.521.106-.319-.228-.711-.147-1.005-.106-.016-.392.212-.589.237-.473.36-.738.115-1.477.089-.884-.392-.122-.376-.074-.393-.293-.71-.179-1.4.448-1.169.588-.433.278-.073.664.181.815.032,1.309-2.427,1.217.067,2.345-.2.327-.482.3-.915.113-.965.082-.147.417-.105,1.006.351.915.483.62.547.31.785.508.024,1.371.622.687-.335.874-.833,1.521-1.878,1.575-.1.271-.042.751.09.638.5.686-.481.44-.415.246-.671.131-.652-.016-.352.619.637,1.113,1.07.564.572,1.085-.719.189-1.4.179-.932-.041-.589-.416-.989-.147-.448.341.146,1.914-.114.447-.694.335-.433.106-.587-.017-.368-.285-.384-.53-.7.456v.541l.3.472.155.425.26.883.515.309-.171.434-.46.335-.571.082-.946-.017-1-.106-.817.131-.352.661.319.515.506.309.949.329.393.149,1.044.236.808.253.957.508.106.489-.22.671-.613.466-1.5.6-1.16.424-.532.342-.22.728.277.531.565.408.661.188.482-.156.6-.032.85.335.882-.009.6.449.016,1.848-.359.619-.695.532-1.479.26-1.265-.26-.457-.385-.99-.677-1.071-.639-.693-.154-.5.212-.156.777-.351.482-.089.565.97.636.965,1.069.744.735.31.6.22.955.564.156.7-.188.164-.442.227-.955.156-.6.377-.483.563.083.472.5.3.489.3.53.033.313.448.417.221.6-.327.375-.891.9-.833.98-.432,1-.516,1.721.245.717.294.43.147.61-.2.645-.3.376-.473.4-.278.089-.49-.34-.343-.789-.221-1.38-.147-.646-.4-.806-.572-.664-.686-.538-1.047-.143-.8,1.094-.328.645-.18.771-.227.609-.2.933-.121.7-.213.395-.483.126-.6.018-.623-.43-.613-.376-.463-.52-.606-1.183-.351-.627-.662-.609-.489-.34-1.144-.2-.734-.448-.8-.86-.629-.574-.565-.268-.645.107-.5.268-.5-.161-.367-.376-.483-.771-.456-.456-.712.14-.6.686.057,2.051-.638.968-.686.143-1.348.322-1.029.287-.31.143-.671.431-.3-.144-1.543-.879-.8-.574-1.363-.161-1.707.251-.573.3-.916.376-.6.036-1.013.035h-.679l-.506.61-.67,1.057-1.086.877-1.512.305-.4-.717-.464-.645-.385-.484-.448-.323-1.111.089-.7-.161-.343-.413.017-.483.374-.7.2-.626.058-1.345-.523-.2-.752-.018-.6.09-.719.054-1.1-.288-1.381-.71-1.47.262-1.879,1.345-.652.556-.482.323-.32-.161-.621-.376h-1.25l-.294.484.147,1.094-.115,1.04-.572.233-1.1.376-.932.359-.621-.3-1.127-1.363-1.715-1.577-1.5-1.542-.5-.435-.467-.562-.268-.607-.482-.62-1.374-.515-.808.131-.345.539-.147.537.041.572.254.887.024,4.034.41.358.366.448-.042.627-.7.788-1.144.4-1.258.143-2.384.108-1.063.161-.834.215-1.119.269-.744.162-.393.377-.2.608v.646l.2.538.14,2.044.178.788.5.556v.555l-.163.556-.8.52-.49.108-.932-.144-.751-.233-.491-.573-.594-.951-.443-.538-.678-.7-.76-.664-.93-.609-.483-.376-.808-.252-.614-.268-.775-.4-.508-.448-.489-.467-.425-.645-.328-.789-.129-.573.212-.592.54-.823.278-.771-.106-.61-.351-.645-.613-.448-.866-.412-.989-.072-1.317-.036-.432-.089-.58-.234-.547-.376-.956-.646-.2-.484.759-.7.474-.753.254-.505.253-.8-.49-.556-.418-.31-.588-.285-1.191.147-1.055.521-.769.572-.924,1.7-.906,1.188-1.061,1.363-.777,1.757-.571.556-.54.2-.676.233-1.023.377-.971.43-.941.753h-1.469l-1.022-.09-1.381-.018-.6.233-.725.77-.492.807-.931.519-.874.412-.556-.017h-1.339l-.776.323-1.006.143-.3-.357-.139-.627-.237-1.04.074-1.632.105-.716.556-.843.228-.215.76-.251.621.054.7.359.237.214.555-.017.409-.287.294-.466.236-.645.343-.377.451-.359.252-.682-.187-.591-.785-.25-.972-.053-.22-.729-.793-2.761-.261-.818-.2-.766-.09-.484.269-.513.606-.565.873-.71,1.537-.989.923-.106.58-.2.539-.433.3-.573-.376-1.012-.62-1-.285-.825-.271-1.878-.474-1.274-.211-1.652-.369-1.545-.368-.505-.2-.31-.5-.238-.613.009-.573-.009-.653-.221-.474-.594-.539-.842-.589-1-.645-1.217-.246-1.308-.262-.506-.627-.475-.648-.08-.873.45-.629.595-.6.508-.613.327-.809.214-.629.023-.636.31-.288.712.01,1.349-.2.792-.246.622-.2.873-.269.955-1.12.123-.75-.025-.509-.18-.725-.344-.827-.44-1.183-1.25-.875-.939" transform="translate(-870.567 -911.213)"  stroke="#fff" stroke-linecap="square" stroke-linejoin="bevel" stroke-width="1" fill-rule="evenodd"/>
      <text id="talId325count" data-name=" Shahapur" transform="translate(70.894 100.245)" fill="#fff" font-size="10"  font-family="OpenSans-Regular, Open Sans"><tspan x="0" y="0" xml:space="preserve"> </tspan></text>
    </g>
    <g id="_318_Bhiwandi" data-name="318 Bhiwandi" transform="translate(1642.151 949.309)">
      <path id="talId318" fill="#7DB8EC" title="Bhiwandi Taluka" data-name="Bhiwandi" d="M867.592,1087.923l-3.824,1.577-6.143-.107-2.123.179-1.308-.377-.49-.232-1.144-1.525-1.168-2.724-.735-1-2.967-3.334-1.961-2.868-.684-3.37-.262-6-1.862-3.442-1.44-1.47-.554-2.976-.262-1.989-.785-1.668-1.339-1.345-1.438-1.827-1.9-.843-3.464-2.527-2.06-.932h-1.355l-.759-.449-.466-.645-1.176-1.093-1.127-1.219-.866-1.076-.875-.681-.565-.7-.374-1.309.039-1.613-.415-2.079-.2-1.4-.376-1.184-.017-.805.505-1.274-.065-1.739.49-2.124.574-1,.457-.962.017-1.684.064-4.379.262-2.076-.048-1.013.964-1.781,1.16-1.11,1.11-.115h.8l.425-.344.376-.521.082-1.162-.7-1.257-.278-1.635.18-2.188,3.61.294,1.471.211,1.911.23-.148-1.194-.244-2.352-.034-1.259-.064-.654.75-.54,1.112-.228.981.228.883.018.621-.721,1.518-2.074,2.028-.85,1.387-.607,1.242-.571.23-1.552.834-1.863.358-.815,2.223-2.567.9-.931.343-1.064-.146-1.143-.525-.816-1.094-.653-2.271-1.437-2.009-1.406-.933-1.274-.751-.786-.818-.686-.424-.62-.262-.687.034-1,.7-1.227.294-1.16.032-.834-.817-1.307-.473-.833-.393-.834.057-.963h.489l.958-.312.93-.483,1.226-.514.67-.489.614-.565.39-.571.344-.661.188-.726.164-.606.277-.294.253-.058.6.1.431.261.237.148.277.1.409.025.45-.376.776-.474.268-.516.368-.635.367-.229.523.082.5.334.271.359.22.736.424,1.306.384,1.105.269,1,.294.393.3.122.3.083.482.194.2.278.105.246.124.288.236.131.327.039.351-.131.2-.113.759-.564.328-.564.326-.443.6-.6.6-.146.7.137.409.247.232.522.547.455.466.277.575.183.418-.094.25-.094.444-.013.2.095.125.217.143.493.1.4.742,1.568.271.483.253.838.4.612.4.474.338.29.279.122.4.087.29-.058.285-.077.345-.07.436-.183.524-.021.482.042,1.336.127.916.074.748.023.387-.1.306-.1.511-.134.547.033.287.032.313-.049.441-.184.405-.777.371-.587.376-.118.581-.09.39-.172.369-.314.419-.657.418-.384.64-.287.724-.131,1.249-.323.581-.2.314-.221.141-.269.443-.348.323-.411.151-.477.422-.365.526-.156.487-.047.356.138.346.188.561.38.349.155.37-.028.4-.156.359-.209.344-.241.228-.132.479-.031.374.057.7.037.559-.025.339-.073.421-.174.94-.527,1.1-.425.735-.236,1.166.031.807-.255.394-.389.06-.428-.09-.42-.344-.6-.151-.712-.093-.5-.29-.483-.233-.281-.074-.208-.009-.3.022-.265.379-.53,1.017-1.14.446-.409.943-.285.715-.077.512-.467.5-.105.538,0,.782-.017.7-.176,1.067-.086,1.569-.106,1.009-.114.815.069.6.036.4-.032.466.005.393-.131.571-.561.3-.2.355-.041.458-.114.4-.494.381-.434.657-.382.23,1.456.406.43.1.629v.725l.571,2.121.086.45.379.853-.4.767-.074.564.025.6.074.668.074.671.269.62.214.392.375,1.29.564,1.226.45.555.652.466.4.244.572-.016,1.274.335.825.115.955.106.8.229.571.171.409-.025.636.025.46.2.923.987.833,1.055.556.76.179.508.033.759-.049.589.106.408.515.424.45.2.767-.081,2.419,1.257,1.488.891,1.265.858,1.128.867.514.269.866.555.025.623-.131.611-.645.826-.059.457.026,2.125-.825.9-.222.367-.408.858.065.515,1.087.082.539.261.214.63.325.553.342,1.005.434,1,.613.784.564.473.506.164.924.294.2.4.016.693.042.589.187.549.05.473.09,1.6.09.8.939.41.457.228.221.506-.164.564-.327.377-.131.376.009,2.7.4.31.089.4-.089.514-.214.434-.327.62-.358.7-.638,1.169-.122.572-.009.5-.064.3-.334.368-.566.025-.269.147-.09.317-.017.514-.066,3.382-.556.5-1.5-.032-1.038-.131h-.6l-.856.106-.237.115-.2.383-.059.2.148.35.491,1.1.048.786.221.49.367.874.156.9-.466.556-.36.229-.572.024-.719-.187-.538-.229-.712-.426-.678-.367-.948-.735-.572-.066h-.565l-.515.057-.153,1.323.211.6.639.622.629.333v.753l-.27.448-.547.549-.253.384-1.178,1.438-.815.973-.482.244-.524.1-.72.261-1.185,1.038-.49.5-.254.31-.489.147-.8-.016-.71,1.61-.173.982.026.592.2,1.2.574.646.406.573.1.5-.278.592-.122.394-.334,1.219-.263.646-.342.59-.483.4-.638.035-.5.09-.409.161-.254.287-.237.681-.408,3.244-.7,1.417-.636.843-1.111.967-.6.95-.521,1.273.007.574.228.447.745.538.767,1.291.5.592.114.61.042.5-.188.608-.515.736-2.2,1.612-1.258.341-1.332.089-2.165.377-.474.108-2.795,2.671-2.712-.161-1.373-.467-1.208-.645-.687-2.564-1.406-2.312-1.079-.592-2.712.2-1.863,1.04-1.861.95-1.537.86-.948.95-.652,1.326-.2,1.183-.131,1.38.882,1.327,2.42,2.33.913,1.327.751,1.451.263,1.757-.359,1.793-.948,1.577-1.7.914-2.974.323-1.83-1-.914-1.022-1.21-1.6-1.96-.717-1.863.127-1.8.913-1.6,1.022-.817.735-.687,1.021-.456,1.434.1,1.668.2,1.271.162,1.631-.1,1.847-.719,1.488-.687.986-.621.878-.62.914" transform="translate(-821.154 -957.662)"  stroke="#fff" stroke-linecap="square" stroke-linejoin="bevel" stroke-width="1" fill-rule="evenodd"/>
      <text id="talId318count" transform="translate(32.227 61.84)" fill="#fff" font-size="10"  font-family="OpenSans-Regular, Open Sans"><tspan x="0" y="0"></tspan></text>
    </g>
    <g id="_394_Mira_Bhayander" data-name="394 Mira Bhayander" transform="translate(1518.39 1030.404)">
      <path id="talId394"  fill="#7DB8EC" title="Mira Taluka" data-name="Mira Bhayander" d="M49.762,38.729l.1-.731.076-.551-.162-.639-.17-.426-.231-.213-.259-1.422-1.385-1.634-.564-.675-.586-.693-.394-.461-.879-2.593-.755-.231L43.38,28.1l-.247-.035-.087-.018L42.685,28l-.444-.018-.712-.054-.523-.5-.383-.356-.3-.284-.24-.23-.361-.16-.178-.035-.3-.107h-.031l-.277-.07-.152-.143-.1-.124-.13-.124-.192-.214-.169-.141-.115-.071-.279-.178-.046-.036-.122-.231-.037-.089-.115-.2-.1-.283-.134-.178-.183-.2-.268-.283-.082-.036-.055.036-.151-.071-.051-.018-.055-.018-.077.018-.139.018h-.168l-.073.017-.017-.035-.181-.054-.044-.018-.192-.089-.023-.018-.063-.035-.076.018L35.3,23.4h0l-.1-.018h-.011l-.155.036-.139.018v-.018l-.11-.018-.262.053-.048.036-.013.07-.013.054-.022.018h-.014l-.048-.018.051-.107-.038-.053.018-.018,0-.035-.012-.018.02-.036.024-.017.006-.036.009-.018,0-.036.008-.054-.122-.07-.07-.053-.017-.018h-.1l-.063.035-.032.16.02.142-.012.036-.087-.107-.191-.232-.239-.248L33.4,22.7l-.016-.036L33,22.08l-.05-.071.02-.071.078-.337.05-.249-.053-.107-.579.213-.049-.07-.089-.143-.2-.07-.249-.2-.02-.178-.149-.035-.051.3-.192.108-.305.036-.08-.071-.233-.214-.128-.124-.029-.017-.282-.178-.18-.036-.08-.053-.317-.107-.287.018-.014-.408,0-.019h-.01l-.007-.018h-.071l-.108.037-.039.017-.1.018H29.1l-.028-.018-.048-.017L28.963,20l-.045-.036-.162-.089-.043-.017-.092-.035h-.056l-.135-.018H28.4l-.036.018h-.039l-.034.018H28.24l-.058.034h-.073l-.088.018-.076.018h-.038l-.116-.018H27.7l-.2.018h-.262l-.113.071-.174.107-.063.035-.47.32-.377.283-.211.213-.162.035-.169.054-.035.018-.206.053-.341-.053-.191-.036-.339-.054-.156-.035-.134-.035-.306.018h-.052l-.132.053-.082.018L23.449,21l-.112.036-.032.018-.114.071-.1.054-.141.106-.129.107H22.8l-.042.035-.071.07-.032.036-.08.124-.115.159-.117.178-.1.142-.061.09-.055.106-.02.035-.09.16-.043.107-.076.212-.075.267-.249,1.314.1.942.05.48.249.338.669.87-.116.142-.2.159-.427.32-.26.195-.274.142-.1.054-.214.088-.416.179-.51.177-.208.071-.073.035-.191.072-.094.035-.143.089-.118.071-.219.107L19,29.044l-.05.054-.046.035-.112.142-.21.3-.075.106-.087.107-.088.089-.088-.018-.118-.018-.292-.017-.475-.107-.167-.036-.249-.071-.151-.054-.135-.035-.17-.053H16.4l-.384-.054-.16-.034-.332-.072-.277-.054H15.2l-.256-.053-.322-.106-.261-.088-.063-.018-.1-.071-.091-.054L14,28.778l-.148-.106-.185-.141-.327-.285-.228-.213-.238-.212-.134-.124-.1-.124-.174-.231-.081-.107-.089-.089-.092-.107-.151-.142-.2-.177-.154-.16-.107-.106-.181-.2-.107-.106-.117-.125-.149-.141-.144-.142-.119-.107-.091-.072-.092-.071-.118-.089-.173-.125-.1-.07-.276-.213L9.819,24.9l-.076-.071L9.679,24.8,9.6,24.746l-.095-.07-.1-.09-.073-.053-.076-.072-.116-.07-.087-.035-.07-.036-.285-.07-.237.07-.086.036.019-.214,0-.089-.116-.178-.037-.034L8.2,23.716l.02-.072.183-.2-.013-.035-.107-.054-.133-.231-.117-.035H8.009l-.045-.124-.122.018H6.6l-.4.054-.146.035-.088.018-.683.071H5.278l-.041.017H5.2l-.023-.017-.019.017-.009-.017-.075.035H5.021l-.228.072-.469.018-.056.018-.026-.018L3.658,22.6,3.187,22.4l-.177-.089-.788-.337-.058-.018-.24-.018.063-.053.042-.018.1-.018.061.018h.088l.053-.035.066-.019.076-.017.077-.018.037-.071v-.088l-.012-.142-.009-.071-.044-.089-.061-.035H2.4l-.054.035-.076.036H2.178l-.061-.107,0-.088-.045-.107-.08-.178L1.924,20.7l-.041-.16-.035-.143-.05-.106-.052-.07H1.693l-.054.053-.1.035-.076-.018H1.389l-.036-.036-.037-.07-.081-.018-.056-.089L1.115,20l-.045-.053L1.029,19.9.965,19.86l-.055-.018L.9,19.754l.023-.089.061-.071.053-.054H1.1l0-.035V19.4l.007-.072.013-.035-.029-.036h-.06L1.01,19.22l.016-.018-.013-.035-.041-.053-.088-.143-.04-.141-.029-.124L.836,18.6l-.03-.124-.037-.089-.035-.035H.668l-.089.035-.041-.035.05-.089L.7,18.243l.085-.035.009-.036L.775,18.1.763,18.03l-.024-.108-.052-.23-.038-.177L.6,17.409.543,17.3.49,17.231l-.035-.072-.037-.053-.053-.035-.026-.035L.345,17l0-.071-.032.036L.28,17l-.028-.035-.009-.036.015-.053.033-.035L.276,16.8l-.043.037,0-.054.009-.07.007-.055.012-.052-.032-.071,0-.071-.039-.036-.041-.018L.082,16.4l-.018.034-.041.018L0,16.431l.035-.07.05-.053.066-.018.023-.053L.211,16.2l.029-.053.016-.055.058-.017.044-.018.035.018.041.017.037-.053.06-.035.032.035L.6,16.023l.048.053.029-.018.037-.035.045.053.048.035.037.072H.983l.059.018.082-.018.056-.053.048-.037.007.071.025.018.045.036.08.07.08.089.053-.018.035-.053.029-.036-.02-.053.064-.089.082-.125.089-.159.24-.462.007-.2L2.02,15.1l-.01-.284.026-.569-.007-.356-.016-.248-.047-.5.1-.391.039-.212.06-.426.05-.374.029-.532-.009-.587,0-.692L2.207,9.2l.036-.977L2.285,7.6,2.22,7.479l.019-.2-.027-.143.069-.16L2.4,6.856l.017-.23.108-.284.1-.053.13-.018.072-.106L2.863,6,2.844,5.9l-.032-.159.1-.373.075-.072.178-.124.2-.319.148-.018.046-.088.226-.267L3.9,4.423l.152-.036.1-.106.1-.054.123-.088.146-.018.08-.018h.141l.14-.124.162-.054.181-.035.2.124.21.088.048.124.031.018.021-.036.068.036.011.017h0l-.08.143L5.7,4.565l.093.178.086.159.242.409.176.142.2-.106.343.106.127.072.066.124.16.053h.2l1.559.639.08.106H9.2l.174-.124,1.6.178.31.214.04.106.236.036.01-.07.04-.054h.1l.056.054.063.23.208-.052.05-.284.032-.036.116.036.475.089.691-.053h.32l.175.071.1-.054,0-.124-.083-.249-.016-.07.015-.018h.033l.038.018.08.141.137.053.139-.036.238-.354.259-.231.3-.107L15.72,5.4l.733-.48.66-.462.532-.516.57-.5.347-.23.57-.249.124-.054-.023-.124-.586-.372,1.875-1.067L21.745.905,22.814.5,24.546,0h1.83l1.11.176,1.3.125,1.787.746,1.872,1.385L34.967,4l2.073,1.652L39.671,7.5l1.773,1.67,2.1,1.848,1.044.87,1.482.6,1.457.355.639-.533.98-.088L51.58,12.2l1.815-.231,1.343-.085.127.092a14.036,14.036,0,0,1,.784,1.628c.06.3,1.266,1.327,1.266,1.327a19.363,19.363,0,0,1,.784,2.5c0,.392.814,1.357.814,1.357v.844l.422,3.226.723,1.839a1.355,1.355,0,0,1-.3.753c-.3.392-1.3.271-1.3.271L57.7,26l.211.452-.392.844-5.576,9.182-1.981,2.411Z" transform="translate(64.185 2.919)"  stroke="#fff" stroke-linecap="square" stroke-linejoin="bevel" stroke-width="1"/>
      <text id="talId394count" data-name="Mira Bhayander" transform="translate(34.988 22.745)" fill="#fff" font-size="10"  font-family="OpenSans-Regular, Open Sans"><tspan x="0" y="0"></tspan></text>
    </g>
    <g id="_327_Thane" data-name="327 Thane">
      <path id="talId327" fill="#7DB8EC" title="Thane Taluka" data-name="Thane" d="M20.43,125.081,0,122.416H.03l.055-.036.21-.213.3-.2.267-.159.238-.107.238-.035.49-.017.216-.035.121-.018.159-.071.447-.178.2-.107.231-.178.289-.338.035-.088.66-.728.924-1.048.633-.995.35-.694.351-.5,2.079-2.822-.04-.41,1.529-2.079.233-.125.2-.123.141-.214.115-.213.12-.605.056-.089.087-.071.556-.284.127-.072.151-.035.363-.036.139-.036.042-.018.414.676h.092l.121-.054.178-.107.165-.089.124-.054.142-.035.107-.018.223-.053.222-.054.183-.089.952-.5.634-.265.153-.071.12-.053.286-.107,1.148-.728.154-.143.013-.036.292-.977.184-.6v-.267l.018-.054.062-.089.08-.071.066-.053.053-.019h.118l.036-.017.336-.463-.5-.337.1-.07.3-.356.252-.3.348-.389.2-.249.25-.391.091-.124v-.018l.113-.178.163-.267.075-.177.11-.284.137-.355.07-.213.106-.338.052-.177-.034-.231-.006-.053-.032-.053-.039-.071.053-.409.037-.285.025-.25.046-.48.181-1.189.071-.5-.008-.035-.006-.143-.005-.213-.013-.267-.03-.195-.052-.266-.014-.142L21.052,96l-.025-.07-.042-.107-.028-.072-.195-.284-.3-.266-.127-.107-.1-.09-.128-.107-.034-.035-.033-.018-.067-.035h-.039l-.062-.036-.256-.089H19.58l.039-.089-.023-.23-.009-.177.005-.089.015-.143v-.035l0-.036-.007-.019-.758-1.439.011-.355.009-.3.013-.391.009-.32-.057-.125-.271-.817V90.1l-.02-.035-.05-.143-.22-.55-.009-.018-.029-.053-.11-.124-.092-.124-.4-.516-.4-1.385L17.1,86.9l-.234-.426.059-.445-.034-.284-.013-.213-.024-.623-.006-.125-.016-.089h0l-.243-.816-.094-.321-.1-.283-.014-.232h0v-.178l0-.444v-.088l-.017-.96-.01-.373-.007-.177-.007-.266v-.054l0-.035,0-.408.006-.054.005-.284-.021-.8-.016-.3-.165-.445-.043-.123-.069-.213-.123-.374-.078-.249-.118-.425-.285-.622-.928-1.955.173.018.05-.018.211-.035.111.035.377.054.1.123v.018l.219.2.029.018.033.017.27.231.256.267.149.142h0l.143.142.2.142.115.071h.024l.25.053.118.017.2.035.33.036.327-.55.015-.036.024-.036.238-.409.117-.213.021-.088h0l.069-.283.137-.463.034-.159.006-.018.049-.178.011-.017.165-.232.295-.408h0l.055-.071.042-.07.022-.018.01-.036.1-.125.5-.764.1-.177.139-.231.152-.249h0l.124-.2.084-.124,0-.018.216-.373.087-.142h.007l.081-.124.13-.23.086-.5,0-.019.029-.142.012-.07.048-.337L21,67.95l-.247-.444-.043-.071L20.6,67.2l.839-.871.02-.017.047-.053.3-.319.087-.09.632-.71.148-.16.193-.213.242-.266.512-.265.393-.374.358-.693.1-.16.243-.426.137-.266.088-.178.134-.249.337-.6.038-.089.143-.267.256-.443.037-.072.2-.266.066-.088.487-.676.119-.178.078-.054.045-.07.028-.16.03-.2.008-.036.1-.515.048-.283.014-.072.017-.2-.048-.356.073-.32.174-.745.031-.106.2-.711.358-1.031.151-.407.075-.3.045-.143.018-.053.209-.817.016-.035-.364-.5-.236-.32-.455-.6-.151-.195-.02-.019-.065-.089-.023-.018-.044-.053L27,50.753l-.021-.017-.028-.054-.422-.6-.18-.266-.014-.018-.129-.178-.053-.072-.04-.071-.033-.053-.032-.071.037-.071-.192-.035-.134-.019-.009-.123v-.071l.1-.214-.1-.069-.308-.072v.018l-.119.409-.033.088-.117.319-.087.214-.261.214-.174-.036H24.6l-.129-.036-.068-.017-.116-.036-.05-.018-.065-.053-.009-.036-.021-.088-.011-.018-.016-.035-.05-.107-.005-.018-.021-.053-.017-.071-.01-.017L24,49.244l-.035-.107.024-.142-.092.036h-.041l-.265-.054-.076.107-.091.035h-.01l-.065.018h-.016l-.03.054-.143.071-.03.036-.165.035-.185.036-.028.017h-.061l-.035.017h-.084l-.077-.017H22.46l-.008.017-.038.036-.007.035-.018.018-.153-.071-.277-.285-.032-.034.013-.125.012-.071-.015-.052-.014-.072-.149-.107-.112-.124-.016-.072-.03-.088-.025-.019-.032-.017-.2.249-.069-.053-.038.035-.105-.071-.124.071h-.14l-.019-.053v-.108l-.133-.035v-.125l.078-.143-.016-.053-.157-.2-.046-.053-.078-.018-.025.036-.029.017-.018-.034-.032-.089.045-.248-.076-.107-.022-.036-.018-.053H20.27l-.056-.16-.121-.036-.075.018-.06-.035H19.7l-.038-.035-.039-.055-.012-.035-.239-.124-.036-.107.073-.088-.007-.124-.005-.035-.123-.071-.039-.107-.056-.018-.039-.017-.035-.054,0-.018-.014-.071-.021-.036h-.037l-.138.018-.021-.018,0,.16h-.015l-.085-.018-.053-.018h-.066l-.055-.018-.107.035-.055.036-.224-.018-.086-.035h-.091l-.332-.071h-.033l-.032-.036-.029-.034-.02-.018-.018-.018-.165-.106-.108-.107-.028-.017H17.23l-.015-.018-.011-.018-.007-.089.022-.177-.128-.089-.052-.071-.163-.034-.125-.072h-.041l-.06-.018-.077-.036h-.034l-.054-.018-.008-.018L16.4,45.1l-.076-.035-.067-.036-.093.071-.108-.035-.072-.018L16,44.963l-.049-.018L15.871,45l-.045-.018L15.789,45l-.051-.036-.085-.054H15.31l-.106.054h-.184l-.308.159-.212-.107-.238.072-.115.124-.11-.16-.119-.16-.092-.072-.089-.088L13.7,44.7l-.379-.266-.081-.071-.945-.924-.638-.87V41.481l.058-1.316.028-.621-.011-.427-.005-.835v-.32l-.462-.3-.5-.338-.127-.284-.619-1.368-.357-.034-.605-.091-.329-.053-.53-.727L6.733,33.611,5.9,33.4l-.272.071-.55.159-.264.071-.186.32-.146.479-.139.391-.085.23L3.93,36.1l-.283.408-.245.356-.062.071-.193.018-.206.035-.232.036-.193.018-.357.089L1.133,35.974l.3-2.559.627-.64.073-.6.041-.285.053-.445L2.26,31.2l.022-.158.2.159,1.98-2.411L10.037,19.6l.392-.844-.211-.452.362-.271a3.15,3.15,0,0,0,.34.018,1.271,1.271,0,0,0,.957-.289,1.369,1.369,0,0,0,.3-.753l-.723-1.839-.422-3.226V11.1c-.034-.04-.814-.978-.814-1.357a19.459,19.459,0,0,0-.784-2.5C9.385,7.2,8.227,6.209,8.168,5.917a13.923,13.923,0,0,0-.784-1.628L7.258,4.2l.641-.04.858.09.817.3.918.214,1.455.035.445-.124.381-.764.412-.995.582-.959,1.11-.729.688-.248,1.07-.143L18.181.443l.746-.176L19.493,0l.754.443H21.59l2.041.925,3.432,2.5,1.88.835,1.424,1.812,1.327,1.333L32.473,9.5l.259,1.971.549,2.949,1.426,1.457,1.846,3.411.259,5.951.679,3.34,1.943,2.843,2.941,3.3.728,1,1.159,2.7,1.133,1.51.486.231,1.3.373,2.106-.178,6.087.107L59.158,38.9l.219.923.244.657L59.8,41l.363.374.535.053.63-.036.715.036.2.709.584,1.334.365.461.477.178.533.265.551.48.519.445.339.585-.475.231-1.314.052-1.894.071-.17.96-.01,2.113-.023.853.282.622.64.3.341.426-.3.924.072.781.268.462.4.674.341.907.041,1.119-.01,1.012.121,1,.366.977.242,1.137.17.835.233.728.139.924,1.181.533.51.089.753.16.567.036h.882l.729-.018.956-.035.849.124L72,63.97l.633-.088.558-.3.607-.373.737-.442.664-.445,1-.32.616,1.066v1.795l-.389.87-.162.977.226,1.1.163,1.653-.034,2.752-.161,1.742-.084,2.131-2.03,1.03L72.652,76.8l-.477-1.636L71.107,74.4l-1.574-.426-1.545.285-4.694,1.03-1.661.657-1.41-.071-2.188,2.54-3.8,1.724-.478.816L52.923,89.5l-.388,3.41.429,2.186.922,1.333-.436,1.207-.873.871,1.576,2.54.5,1.6-.006,1.3.043.888.114.87-.278,1-.045.889.015.728.08.941-.406.64-.056,1.35-.374,1.616-.2,1.581-.482,1.191-.311.995-.435.5-.415.107-.331-.107L47.844,119.2l-1.823,1.032-1.065,1.031-3.383,1.527-1.643,1.03-3.947,1.191-7.545-.677-6.484.516Z" transform="translate(1630.055 1041.014)"  stroke="#fff" stroke-linecap="square" stroke-linejoin="bevel" stroke-width="1"/>
      <text id="talId327count" transform="translate(1657.378 1111.148)" fill="#fff" font-size="10"  font-family="OpenSans-Regular, Open Sans"><tspan x="0" y="0"></tspan></text>
    </g>
    <g id="_321_Kalyan" data-name="321 Kalyan" transform="translate(1688.457 999.262)">
      <path id="talId321" fill="#7DB8EC" title="Kalyan Taluka" data-name="Kalyan" d="M882.027,1058.947l-2.549.322-.654.036-1.208-.233-.981-.251-1.013-.556-.392-.43-.589.986-.228.914.686.717.751.753.686,1.111.162.681-.259.879-.786.108-1.176.035-.458.68-.946,2.385,1.5.323,1.734.466.294,1.237-.849,1.38-.784,2.742-.458,2.384-.457,2.384.521,2.223-1.763,1.434-.817.681-.882.43-1.242,1.058-1.145,1.721-.718.717-1.177.071-1.21-.359-.555-.233-1.046,1.865.228,1.434-1,.323-.67.448-.745.448-.612.376-.563.3-.639.09-.5-.09-.857-.125-.965.036-.734.018h-.891l-.572-.037-.759-.16-.515-.089-1.191-.538-.14-.932-.237-.736-.172-.842-.244-1.148-.369-.985-.123-1,.009-1.022-.041-1.129-.344-.914-.406-.682-.271-.466-.073-.789.3-.931-.344-.431-.645-.3-.285-.627.023-.861.009-2.132.172-.969,1.91-.072,1.325-.054.481-.232-.343-.593-.525-.448-.555-.484-.538-.27-.483-.178-.367-.466-.59-1.344-.2-.718-.721-.036-.636.036-.539-.053-.368-.377-.179-.52-.245-.663-.22-.932.619-.914.622-.878.686-.986.72-1.488.1-1.846-.164-1.63-.2-1.274-.1-1.666.458-1.434.686-1.021.818-.736,1.6-1.022,1.8-.914,1.862-.126,1.961.717,1.21,1.595.915,1.022,1.83,1,2.973-.323,1.7-.914.949-1.577.358-1.794-.262-1.755-.751-1.453-.914-1.326-2.421-2.33-.881-1.327.131-1.38.2-1.182.652-1.327.949-.95,1.536-.859,1.863-.95,1.862-1.04,2.712-.2,1.08.591,1.4,2.312.687,2.563,1.209.646,1.372.466,2.712.161,2.794-2.671.474-.107,2.165-.376,1.331-.09,1.258-.34,2.2-1.614.514-.734.189-.61-.042-.5-.115-.61-.5-.591-.767-1.291-.744-.537-.229-.449-.008-.573.522-1.273.6-.95,1.111-.968.636-.842.7-1.416.409-3.245.237-.682.253-.286.409-.161.506-.09.638-.036.482-.394.342-.591.262-.646.336-1.22.121-.394.278-.59-.1-.5-.406-.573-.573-.646-.2-1.2-.025-.59.172-.983.71-1.61.8.017.489-.146.255-.31.489-.505,1.186-1.038.719-.262.524-.1.482-.244.816-.973,1.178-1.438.253-.383.547-.55.271-.447v-.753l-.63-.333-.638-.622-.211-.6.154-1.322.514-.057h.566l.572.066.948.735.677.368.712.424.538.229.72.187.571-.024.36-.23.466-.555-.156-.9-.368-.875-.22-.489-.048-.786-.491-1.094-.147-.352.057-.2.2-.384.238-.114.856-.106h.6l1.038.131,1.5.033.557-.5.066-3.381.017-.514.089-.318.268-.146.566-.026.873.94,1.183,1.249.826.441.726.344.508.18.751.025,1.119-.124.269-.955.2-.873.246-.622.2-.792-.009-1.348.286-.712.637-.31.629-.024.809-.212.614-.327.6-.508.629-.595.873-.449.646.08.629.476.26.505.246,1.308.646,1.217.587,1,.54.844.472.594.655.221.571.009.614-.009.5.238.195.311.368.5.37,1.546.211,1.65.473,1.275.271,1.878.286.826.622,1,.375,1.013-.3.572-.539.433-.581.2-.923.106-1.536.99-.873.71-.606.564-.268.515.089.482.2.767.261.817.793,2.761.221.729.971.053.785.25.186.591-.253.682-.449.358-.343.377-.237.645-.294.466-.409.288-.556.018-.236-.215-.7-.359-.622-.053-.76.251-.229.214-.555.843-.105.717-.074,1.63.237,1.04.138.627.3.359,1.005-.143.776-.323h1.339l.555.017.875-.413.93-.52.089,1.13.124.842-.025.628-.482,2.114-.074.771-.016.718v.681l-.138.771-.148.43-.091.466.051,1.147.131.807.22.556.432.395.745.036.619-.126.467-.125.645-.234.53-.036,2.124-.072,1.635-.036,1.192-.017.377-.054.693-.305.671-.071,1.911.071-.181.879-.415.7-.416.537-.328.5-.393.807-.768,1.218-.211,1.292-.172.77-.318.592-.269.591-.163,1.129.391,1.291v.986l-.391.877-.572,1-.539.825-.687.609-.54.322-.2.628.163.377.131.771-.327.753-.587.161-.425.25-.359.269-.294.358-.114.825-.033.717.343,1.542.719,1.685,1.047,2.044.537,1.075.328.861.26.735-1.192,1.648-1.6,1.183-1.063,1.327-1.339-.2-.964-.483-1.112.214-1.274.34-.409.2-.505.663-.687.555-.7-.108-.31-1.021-.572-.466-.605.035-.62.306-.164.627-1.961.072.263-2.1-.491-.717-1.144-.125-1.012.251-.687,1.021-.1,1.883-.884,2.007-1.536,1.362-1.959.95-1.667.718-1.242.429-8.5,1.829-.694-3.8-.057-1.542.04-.43-.368-.519-.726-.629-1.691-2.563-.972-1.828-1.185-1.918-.661-.824-.834-.611-1.357-1.433-.963-1.148-.76-.7-.973-.681-.85-.376-1.5,1.631-.6.807-.36.537-.409.52-.481.269-.589-.323-.456-.34-.45-.395-.1-.43.212-.394.14-.538-.246-.376-.367-.342-.368.395-.826.162-.081-.251.007-2.1.074-.95-.016-.556.214-.377.294-.412.254-.43.1-.627-.115-.609h-.319l-1.438.376-.645-.019-.393-.357-.359-.521-.4-.43-.636-.071-.613.393-.581.646-.62,1.577-.22,1.6-.171.467-.54.376-1.3.627-1.97,1.4-.285.807-.336.843-.082.681.393.9.286.538.873.592.744.573.384.627-.105,1.4" transform="translate(-847.06 -985.65)"  stroke="#fff" stroke-linecap="square" stroke-linejoin="bevel" stroke-width="1" fill-rule="evenodd"/>
      <text id="talId321count" transform="translate(49.921 54.887)" fill="#fff" font-size="10"  font-family="OpenSans-Regular, Open Sans"><tspan x="0" y="0"></tspan></text>
    </g>
    <g id="_328_Ulhasnagar" data-name="328 Ulhasnagar" transform="translate(1684.332 1058.549)">
      <path id="talId328" fill="#7DB8EC" title="Ulhasnagar Taluka" data-name="Ulhasnagar" d="M867.7,1032.746l.106-1.4-.384-.628-.744-.573-.873-.592-.287-.537-.392-.9.082-.68.335-.844.285-.806,1.971-1.4,1.3-.626.539-.377.172-.466.221-1.594.619-1.578.582-.645.612-.394.637.072.4.429.358.521.393.358.645.019,1.438-.377h.319l.114.609-.1.627-.254.43-.293.412-.213.376.016.556-.073.951-.008,2.1.081.251.827-.161.367-.4.367.34.246.377-.14.538-.211.394.1.431.451.394.457.341.587.323.483-.269.409-.52.36-.538.6-.806,1.5-1.632.849.377.973.681.761.7.963,1.148,1.356,1.434.834.609.661.824,1.185,1.919.971,1.828,1.692,2.563.727.628.367.52-.039.429.058,1.542.692,3.8-.163,3.047-1.242,2.079-1.242.466-1.4.359-.556,1.147.034.932.719,1.218.425.949.49,1.2-.523,1.38-.523.807-.948,1.542-.883,1.416-.719,1.47-.066,2.313-.946,1.936-1.242.52-.294-.591.032-1.47.492-1.632.26-1.54v-2.186l-.132-1.184-1.144-1.721-.981-.789-2.874-3.334-.032-1.793-1.013-1.613-.786-.053-.981,1.308-1.208.681-1.242.717-1.242-.269-1.078-.771-.818-2.294-.588-1.4-.36-1.452-.457-1.272-1.21-5.055-.62-1.542-.719-1.2-.262-1.255v-2.186" transform="translate(-828.695 -1018.71)"  stroke="#fff" stroke-linecap="square" stroke-linejoin="bevel" stroke-width="1" fill-rule="evenodd"/>
      <text id="talId328count" transform="translate(18.047 22.599)" fill="#fff" font-size="10"  font-family="OpenSans-Regular, Open Sans"><tspan x="0" y="0"></tspan></text>
    </g>
    <g id="_317_Ambarnath" data-name="317 Ambarnath" transform="translate(1705.374 1072.134)">
      <path id="talId317" fill="#7DB8EC" title="Ambarnath Taluka" data-name="Ambarnath" d="M934.609,1025.82l.686.3.818-.142,1.064.214.946.5.769.52.8.43,2.19.339,3.2,1.273,2.386.61.98.734.832,1.255.361.79.409,1.235.016,1.221-.424,1.182-.278.807.1.807.46.914.017,1.13-.1.894.048.789.507.789.441.913.587.969,1.651,2.1.915,1.238.556.624.916.593,1.553.27,1.355.143,1.242.054,1.275,1.2.587,1.47.458,1.165.8,1.792.654,2.582.555,1.253.521,1.221.115.788v.7l.206.968-1.978.233-3.474,1.756-1.243-.644-5.1-.306-3.427.412L942.922,1067l-2,.574-1.5,1.039-2.44,2.832-2.347,1.077-.091.86,2.953,4.66-.63,4.7-1.77.323-1.467-.323-1.266.2-.783,2.6-.99.036-.782-.789.627-2.115-.736-.324h-1.146l-1.4-.986-1.379-.071-2.321.824-.822-.394-2.741,2.4-2.947,4.949-2.481.592-2.619-.466-.414.43-1.31.413-2.959-2.1-1.445-1.774-1.257-3.226-1.49-2.69L898.2,1076.8l-.894-1.219-.94-2.186-1.9-2.689-1.123-3.944-1.7-1.256-1.287-.106-1.263.341-1.286.787-2.44,1.937-1.195,2.705-.622.682-8.615-1.613-1.972-2.169-.48-2.1-1.377-.985-1.311.717-3.911,5.7-1.4.269-1.84-.251-1.746.448-1.907-.323-.984-.662-1.077.537.084-2.151.162-1.757.034-2.778-.165-1.667-.228-1.112.163-.986.392-.878v-1.811l-.621-1.076-.228-1.433,1.045-1.864.556.233,1.21.357,1.176-.071.718-.717,1.144-1.721,1.243-1.059.882-.429.818-.681,1.764-1.435-.522-2.224.458-2.383.457-2.384.786-2.743.849-1.38-.294-1.237-1.733-.467-1.5-.323.947-2.383.458-.682,1.176-.035.786-.108.259-.879-.162-.681-.687-1.111-.752-.753-.687-.718.23-.913.588-.987.392.43,1.012.556.981.252,1.208.233.654-.036,2.549-.322v2.187l.262,1.253.718,1.2.621,1.541,1.21,5.055.456,1.274.36,1.451.588,1.4.818,2.294,1.077.772,1.242.269,1.242-.718,1.208-.681.98-1.309.785.054,1.013,1.613.032,1.793,2.875,3.334.98.789,1.144,1.721.131,1.182v2.188l-.26,1.542-.492,1.629-.032,1.471.294.59,1.242-.519.947-1.936.066-2.312.719-1.469.882-1.417.948-1.541.523-.807.523-1.381-.491-1.2-.425-.95-.719-1.22-.034-.931.556-1.148,1.4-.357,1.243-.468,1.242-2.078.163-3.048,8.5-1.828,1.242-.43,1.666-.717,1.96-.949,1.536-1.364.884-2.006.1-1.882.686-1.022,1.014-.25,1.143.124.492.718-.261,2.1,1.961-.072.163-.627.62-.305.606-.035.572.465.31,1.021.7.109.687-.556.506-.663.407-.2,1.275-.342,1.111-.214.966.484,1.338.2,1.064-1.327,1.6-1.182,1.192-1.65" transform="translate(-856.522 -1025.82)"  stroke="#fff" stroke-linecap="square" stroke-linejoin="bevel" stroke-width="1" fill-rule="evenodd"/>
      <text id="talId317count" transform="translate(58.004 34.015)" fill="#fff" font-size="10"  font-family="OpenSans-Regular, Open Sans"><tspan x="0" y="0"></tspan></text>
    </g>
    <g id="_325_Shahapur-3" data-name="325 Shahapur" transform="translate(1775.605 977.294)">
      <path id="talId323" fill="#7DB8EC" title="Murbad Taluka" data-name="Murbad" d="M896.569,1029.126l.491-.807.726-.77.6-.234,1.38.019,1.021.089h1.471l.94-.753.971-.43,1.023-.376.677-.233.54-.2.571-.555.777-1.757,1.061-1.363.907-1.187.923-1.7.77-.571,1.054-.521,1.192-.147.588.285.418.311.488.555-.252.8-.254.505-.473.752-.761.7.2.484.956.646.546.376.581.233.432.089,1.316.035.99.073.866.412.612.448.352.646.106.61-.279.771-.54.824-.211.592.128.574.328.788.425.645.489.467.507.447.776.4.614.269.808.25.481.376.931.61.761.663.677.7.443.537.6.95.491.573.751.233.933.144.489-.108.8-.52.161-.556v-.556l-.5-.555-.18-.79-.139-2.043-.2-.538v-.645l.2-.609.392-.377.743-.161,1.119-.27.833-.215,1.063-.162,2.385-.107,1.258-.143,1.144-.394.7-.79.041-.627-.368-.448-.409-.359L939,1021.4l-.253-.888-.042-.571.147-.538.345-.539.807-.13,1.373.514.482.621.269.606.465.563.5.435,1.495,1.542,1.715,1.577,1.128,1.363.62.305.932-.359,1.1-.377.573-.233.114-1.04-.148-1.094.3-.483h1.249l.622.376.319.161.483-.323.652-.556,1.879-1.344,1.472-.263,1.38.71,1.1.287.719-.054.6-.089.752.017.523.2-.058,1.344-.2.627-.375.7-.015.484.341.411.7.162,1.111-.09.448.322.386.484.464.645.4.717,1.511-.3,1.086-.877.671-1.059.5-.608h.681l1.012-.037.6-.035.916-.377.571-.3,1.708-.25,1.364.16.8.574,1.542.878.3.144.669-.431.31-.143,1.029-.287,1.348-.323.686-.143.638-.967-.057-2.051.6-.686.712-.14.457.457.482.771.368.376.505.161.5-.269.646-.107.564.269.629.575.8.86.735.448,1.144.2.489.34.662.61.35.628.606,1.183.465.52.613.376.622.43.595-.018.483-.126.213-.394.121-.7.2-.932.228-.61.179-.771.327-.646.8-1.093,1.046.143.687.537.571.663.4.807.147.646.22,1.381.344.788.49.34.278-.089.473-.393.3-.378.195-.645-.147-.61-.295-.43-.245-.717.516-1.722.432-1,.834-.979.89-.9.327-.374-.221-.6-.45-.417-.032-.311-.3-.531-.3-.489-.473-.5-.563-.083-.377.483-.156.6-.227.956-.164.441-.7.188-.564-.156-.221-.955-.31-.6-.744-.734-.964-1.071-.972-.637.089-.564.352-.483.157-.776.5-.211.695.153,1.069.638.99.678.457.383,1.266.262,1.478-.262.7-.529.359-.621-.016-1.846-.6-.45-.882.009-.85-.335-.6.032-.482.156-.661-.188-.565-.407-.278-.532.221-.728.532-.342,1.159-.426,1.495-.6.614-.466.22-.67-.106-.489-.958-.508-.808-.252-1.046-.237-.393-.147-.948-.329-.505-.31-.319-.514.352-.661.818-.131,1,.106.947.017.572-.081.459-.335.17-.434-.515-.31-.262-.883-.154-.425-.3-.472v-.539l.7-.458.382.53.367.285.589.017.434-.107.694-.335.114-.448-.147-1.913.448-.342.99.147.588.416.932.042,1.4-.18.72-.189-.572-1.085-1.069-.565-.637-1.112.351-.619.653.016.67-.131.416-.245.482-.441-.5-.685-.091-.638.042-.751.1-.271,1.879-1.576.834-1.521.334-.874-.621-.686-.024-1.372-.786-.507-.546-.31-.482-.62-.352-.916.107-1.005.146-.415.965-.083.915-.114.482-.3.2-.326-.066-2.345,2.428-1.216-.032-1.309-.181-.815.073-.664.433-.277,1.169-.588,1.4-.448.71.179.393.294.377.075.392.121-.09.883-.115,1.477-.361.737-.236.473-.211.589.017.392,1,.106.711.148.319.229.521-.106.221-.335.508.1.236.361.619.376.4.023,1.649,1.169.768,1.119.336.613.4.581.94,1.2.555.653.45.589.343.449.565.22,1.29-.2,1.054-.62.409-.124.946-.237.948-.284,2.076-.8,2.867-1.7.466-.776.622-1.21,1.224-1.077.311-.172.841-.246.45-.049.342-.334.384.277.981.843.277.317-.057.294-.2.352.776.637.262.458.481.629.3.425.294.383.188-.007.4-.239.62-.04.623-.016.5.114.661.2.581.245.36.246.358.629.531.458.328-.032.39-.115.6-.122.639-.278,1.029-.139.514-.041.671.146.873-.024.556.024.637.066,1.087-.082.719-.049.7.041.515.049.065.343-.073.571-.237.76-.565,1.66-.31,1.061-.252.531-.115.533.163.294.335.048.76.056.482.489.295.573.483.564.393.147.613.262.589.252.692.278.319.114.687.1.85.114.815.328.67.2.99.334.669.37.066.514.08,1.167-.138,1.088.295.759.2.441.27.212.514.279.761.384.766.081,1.4.016.521.048,1-.007.865.252.5.369.128.409.165.587-.074.752-.073.581.179.514.449-.042.663-.2,1.323-.269.62.064.874,2.64.538,1.324.537,1.233,1.023,2.578.663,1.662.359.535.555.348.52.417.27.677-.18.874-.072.7-.412,1.528.162,1.185.305.588.358.63.377.613.412.416.305.638.036.506-.233,1.294-.251,1.112-.126.681-.358.25-.394-.053-.448-.3-.324-.395-.107-.592-.017-.573-.143-.358h-1.148l-.646.233-.3.377-.411.5-.234.268-.233.072-.341-.2-.379-.323-.58-.483-1.169-1.084-.776-.759-.448.08-.165.425.034.709.131.807-.017.824-.082.341-.278.287-.54.107-.709.269-1.627.52-1.577.108-.933.143-.709.216-.842.574-1.355,1.056-1.25.342-.67.072-.507-.037-.342-.2-.051-.323.418-.645.508-.878.449-.9.433-1.076.114-.661-.433-.2-.719.107-1.013-.107-1.479.412-2.386,1.058-1.724.609-1.625.645-1.684.412-2.7.43-1.739.431-.727.484-.621.573-.794,1.237-1.093,1-1.357.986-.818.592-1.528.269-1.657.466-.728.754-.212.626-.163,1.525-.58.3-.882.126h-1.054l-.85.25-.229.323-1.1,1.631-.5,1.309-.017.68.229.467.465.413.573.357.613.556.467.538.466,1.2.71,1.219.646.717.367.413.277,1.165.255.394.645.107.554.09.655.359.514.574.974,1.326.326,1.29.336,1.4.194.7.548.627.122.574.089.753-.221.807-.823.646-1.178,1.146-.278.682-.137.483-.457.341-.319.43-.237.359-.449.251-.572.233-.817.107-1.79.645-1.316-.072-1.47.072-1.788-.179h-.892l-.743.538-.589.754-.645.877-2.239,2.725-1.389,2.8-.48.61-1.9,1.182-.949.592-.53.771-.2.537-.253.7-.352.662-.67.933-.483.555h-.358l-.467-.143-.472-.161-.262-.324-.187-.484-.016-.718-.124-.68-.628-1.058-.3-.7-.4.072-.416.806-.555.252-.5.125-.891.018-.786.107-.823.269-.385,1.685-.115,1.165-.267,1.129-.271,1.883-.285.842-.066.359-.955-.467-.2,1.291-.613-.59-.481-.109-.5.162-.279.143-.284.34-.466-.556-.451-.214-.463.089-.311.252-.334.34-.868.645-.8-.179-.58-.108-.515.144-.465.358-.458.287-.562.125-.386-.036-1-.592-.459-.161-.473-.252-.5-.054-.687.234-.6.232-.825.216-1.1.447-.735.091-.432.25-.017.61.115.591-.058.431-.211.126-.352-.144-.343-.161-.58-.18-.53-.18-.556.306-.368.269-.359.234-.784.645-.981-.323-.8-.556-.971-.52-.874.036-.279.431-.179.644.335.466.253.806-.246.682-.285.431-.443.089-.538-.089-.49.017-.409-.054-.384-.071-.3-.234-.406-.232-.173.232.007.538.156.806.327,1.255.293.986.262.645.287.555.22.378.629,1.183-.124.5-.473.09-.62-.125-.532.071-.481.216-.352.234-1.251.715-.131.5.025.627.212.771.721,1.99.129.484.229.232.295-.125.253-.52.629-.127.475.5.457.467.677.161.491.394.555.484.448.591.017.484-.407.7-.327,1.2-.115.86-.243,1.65-.124.717-.065.663-.016.538-.009.556-.008.465.017.735.057.574-.368-.681-.629-.736-.533-.716-.359-.484-1.242-.843-.719-.18-.489-.054-.76-.179-.377-.018-.612-.43-4.245-.412-2.989.662-4.5.288-3.2,1.434-1.393-2.187-3.924-1.9-5.04,1.81-1.742-.592-3.468-.322-1.773,1.4-3.38.7-7.28-1.075-4.088-1.829-3.426,1.04-1.213-.09-.207-.967v-.7l-.114-.789-.522-1.22-.555-1.254-.655-2.581-.8-1.793-.458-1.165-.587-1.47-1.275-1.2-1.242-.053-1.355-.144-1.552-.269-.917-.592-.555-.627-.914-1.237-1.651-2.1-.589-.968-.44-.914-.508-.788-.048-.789.1-.9-.016-1.13-.459-.913-.1-.807.277-.807.426-1.183-.017-1.219-.409-1.237-.36-.789-.834-1.255-.98-.734-2.385-.61-3.2-1.272-2.19-.341-.8-.429-.769-.52-.946-.5-1.063-.215-.818.143-.687-.3-.26-.734-.329-.861-.537-1.076-1.047-2.043-.719-1.686-.342-1.542.033-.716.115-.824.294-.358.359-.269.425-.251.587-.161.328-.753-.132-.771-.162-.377.2-.628.54-.322.686-.61.539-.824.572-1,.391-.877v-.987l-.391-1.29.162-1.13.269-.592.32-.592.171-.77.212-1.291.767-1.219.393-.807.328-.5.416-.538.415-.7.182-.879-1.912-.072-.672.072-.693.306-.377.054-1.192.018-1.635.035-2.123.072-.531.036-.645.233-.467.126-.619.124-.744-.035-.432-.394-.22-.555-.131-.807-.05-1.147.089-.466.149-.431.138-.77v-.681l.016-.719.074-.769.482-2.116.026-.627-.125-.842-.089-1.13" transform="translate(-895.809 -973.112)"  stroke="#fff" stroke-linecap="square" stroke-linejoin="bevel" stroke-width="1" fill-rule="evenodd"/>
      <text id="talId323count" data-name="Murbad" transform="translate(55.773 87.854)" fill="#fff" font-size="10"  font-family="OpenSans-Regular, Open Sans"><tspan x="0" y="0" xml:space="preserve"> </tspan></text>
    </g>
  </g>
</svg>
