<svg xmlns="http://www.w3.org/2000/svg" width="308.82" height="301.005" viewBox="0 0 308.82 301.005">
  <g id="Wardha" transform="translate(-1908.343 -185.963)">
    <g id="_333_Ashti_" data-name="333 Ashti" transform="translate(1909.312 186.596)">
      <path id="talId333" fill="#7DB8EC" title="Ashti Taluka" data-name="Ashti" d="M1933.019,622.618v-.424l-.025-.345-.236-.44-.336-1.075-.137-.458-.1-.714L1932.1,618l-.136-.81-.237-.491-.236-.425.037-.385.2-.723-.049-.358-.088-.294-.184-.265-.423-.277-.807.157-.285.035h-.335l-.633-.029-.285-.1-.3-.21-.2-.221-.321-.424-.236-.469-.261-.99-.037-.543.087-.34.124-.35.149-.294.261-.356.235-.243.484-.306.535-.674.061-.57.075-.916.012-.363.049-.187.05-.254.249-.322.285-.3.36-.181.248-.146.4-.356.3-.373.012-.374-.112-.21-.174-.186-.2-.181-.435-.248-.373-.232-.434-.34-.67-.7-.187-.249-.222-.237-.4-.142-.384-.09-.485-.148-.2-.186-.322-.521-.483-.577-.311-.2-.3-.124-.335-.108-.422-.124-.359-.134-.2-.2-.112-.278-.125-.328-.3-.385-.558-.526-.831-.719-.384-.175-.5-.255-.5-.357-.422-.616-1.339-1.5-.349-.232-.409-.248-.324-.137-.335-.276-.161-.374-.013-.339.087-.34.646-.531.521-.289.211-.219.172-.391.137-.8-.037-.362-.1-.578-.3-1.351-.063-.329-.161-.259-.335-.34-.546-.633-.943-1.245-.683-.69-.745-.809-.744-.516-.447-.243-.471-.18-.509-.159-.522-.328-.534-.605-.235-.362-.174-.288-.074-.385v-.265l.087-.509.2-.368.285-.237.223-.142.175-.159.074-.294-.038-.254-.124-.277-.212-.583-.32-.717-.236-.227-.3-.232-.669-.124-.435-.022-.4.1-.484.2-.472.045-.36-.113-.222-.237-.162-.509.025-.47-.011-.281-.026-.278-.111-.339-.41-.708-.3-.837-.05-.14-.087-.3-.111-.317-.075-.442.112-.407.583-.916.236-.413.175-.221.2-.193.174-.193.023-.2-.1-.429-.012-.723.21-1.008.137-.48.31-.537.448-.418.509-.17.583-.006.88.062.385.362.2.482.222.129.424-.04.583-.463.446-.645.472-.39.149-.962-.025-.814-.5-1.255-.208-.447-.646-.419-.845-.5-.57-.418-.5-.345-.533-.4-.112-.458.359-.678.4-.838,1.227-1.719.534-1.109.062-.491.175-.6.423-1.171.086-.615.086-.459.013-.531-.038-.718.013-1.086-.234-.735-.373-1.143-.235-1.052-.274-.47-.186-.327-.2-.352.037-.407.162-.351.383-.345.5-.322,1.279-.429.706-.153.446-.046.807.119.646.374.608.544.236.146.373.159.384.067.619-.243.485-.255.795-.1.285.186.285.289.373.259.546.436.906.265.992.2.993.4,1.588.673.732.188,1.477.305,1.092.26.622.152.867.187.634.113.26.187.435.361.125.391.1.5.05.356.087.464.311.356.62.2.758.137,1.339-.037.534-.091.782-.065.954.1.473.009.483-.04.906-.181.509-.065.609,0,1.167-.016.4.034.51.088.359.093.571.158.508.126.125.027.37-.022.274-.062.522-.2,1.042-.193.472-.042.322-.064.424-.093.531.038,1.316.232.906.427,1.167.4,1.539.435.385.08.222.035.324,0,.335-.059.434-.16.757-.382.309-.054.25.014.285.051.248.045.508.071.309-.07.547-.323.347.846.112.3.371.52.2.037.161-.1.137-.221.2-.476.062-.356.125-.229.26-.056.175.084.26.124.248.2.173.2.125.223.174.248.483.512.312.343.432.3.435.3.285.365.261.278-.012.486v.282l.111.3.3.343.385.206.447.307.285.236.224.427.1.259.124.287.224.387.359.294.373.155.3.08.882.3.371.312.237.336.173.356.149.308.348.407.3.4.359.357.7.413.521.1.4-.076.521-.079.721-.144.656-.161.472-.06.373-.048.4-.029.261.051.161.15.036.212.038.27-.038.268-.42.647-.386.529-.261.489-.371.238-.546.874-.3.471-.087.253-.844-.145-.682.034-.683.08-.732.238-.285.509.137.577.112,1.2.11.679.3.791-.087,1.584.1.712.273.283.435.283.62.407.335.894-.248.792-.309.792-.111.7-.175.6.038.487.3.068.509-.351.485-.261.633.374.892.486.41.057.818-.046.472-.146h.734l.509.248.271.791.162,1.019.037,1.652-.087.87-.4,1.313-.125,1.075-.683.69-.757,1.052-1.216-.1-.657-.1-.458-.17-.6-.316-.807-.261-.844-.057-.72-.124-.31-.486-.137-.657-.224-.372-.558-.294-.855.271-.349.611.037.531-.223.373-.237.135-.509.124-.223-.214-.5-.136-.112.408-.149.678-.757.927.26,1.505-.285.5-.4.214-.534.046-.745.034-.125.362-.075,1.254-.408.091-.633.057h-.856l-.309.532.831.984.559.475.979.475.82.2.322.442-.073.621-.374.962v1.855l-.137.781-.248.61-.546.328-.732.1-.683-.078-.324-.442-.011-.486-.4-.16-.683-.089-1.055-.091-.633-.136-.98-.157-.932-.125-.918-.135-.9-.148-.523.013.076.463.248.351.359.226.386.283.2.181-.223.418-.51.226-.26.566,1.055.532.608.022.534-.26.559.271.274.634.271.623,3.314.022.559.237.223.373.273.657.062.657.137.666.657.306.6.553.113.973.039,1.006-.274,1.29.26.441.3.588.459.328.483.17.447.294.05.5.286.442h.471l.125-.566.409-.215.62.5.5.871.063.622v.509l-.274.555-.533.4-.745.34-.781-.068-.769-.407-.633-.159-.421.566.124.758-.224.565v.34l.162.294.261.091.335-.34.273-.135.384.339.061.5.175.34.385.181.534.022.67.045.509.306-.795.7-.421.385-.472.36-.286.352.1.758.349.2.5-.148.41-.588.409-.452.484-.453.348-.668.484-.1.211.554-.049.542.074.679.346.181.473-.407.359.35.111.588-.446.793-.472.588-.247.814-.162.633.547.928.968.339.025.74.123.6-.038.549-.248.351-.831.39-1.24.611-.6.378-.46.34-.248.429-.074.493-.013.356-.309.272-.336.107-.4-.1-.433-.2-.474-.329-.793-.153-.311-.056-.4.089-.161.165-.323.106-.384-.112-.421-.2-.584-.266-.521-.221-.459-.254-.112-.48.037-.5.36-1.2.323-.758.1-.61.373-.769.1-.549.484-1.663-.6-.548-.4-.2-.248-.323-.074-.412.049-.42.186-.621.5-.667.186-.458.1-.3.161-.39-.125-.311-.3-.118-.433.106-.533.25-.411-.057-.347-.107-.311-.046-.347.181-.36.351-.36.339-.509.057-.508-.068-.447-.029-.137-.079.112-.356.173-.43.124-.4-.062-.78-.223-.589.025-.328.21-.487.471-1.232.311-.533.285-.837.087-.356-.05-.577-.05-.187-.247-.316-.347-.265-.335-.3-.347-.3-.447-.091-.3.153-.272.232-.311.4-.26.644-.422.939-.361.5-.212.413-.458.391-.956.407-.621.186-.881-.017-1.079.035-.571.181-.237.48-.236.48-.459.882.088,1.041.062.453.286.5.2.453.261.628.174.571.173.5.311.221.234.181.087.254-.012.39-.161.369-.26.243-.446.164-.423.192-.572.243-.556.124-.758.119-.82-.079-.918.062-.621.011-.434-.146-.162-.227-.087-.43-.073-.486-.149-.266h-.609l-.844.723-.31.367-.223.357-.523.339-.371.068-.881-.006-.831-.2-1.154-.073-.434-.039-.695-.057-.5-.186-.533-.1-.485.685-.261.5-.4.142-.93.045-1.129-.047-.534-.088" transform="translate(-1907.22 -542.165)"  stroke="#fff" stroke-linecap="square" stroke-linejoin="bevel" stroke-width="1" fill-rule="evenodd"/>
      <text id="333" transform="translate(20.111 38)" fill="#fff" font-size="13"  font-family="OpenSans-Bold, Open Sans" font-weight="700"><tspan x="-9.818" y="0"></tspan></text>
    </g>
    <g id="_336_Karanja" data-name="336 Karanja" transform="translate(1956.749 208.949)">
      <path id="talId336" fill="#7DB8EC" title="Karanja Taluka" data-name="Karanja" d="M1961.475,619.124l-.968-.339-.545-.929.161-.632.249-.814.469-.589.448-.793-.111-.588-.36-.35-.471.407-.348-.181-.074-.679.05-.542-.212-.555-.483.1-.348.668-.484.453-.409.451-.411.589-.5.147-.347-.2-.1-.758.286-.351.471-.362.421-.384.795-.7-.51-.307-.67-.044-.533-.023-.386-.181-.173-.339-.062-.5-.384-.339-.274.135-.335.34-.26-.091-.162-.294v-.34l.224-.565-.124-.759.422-.565.632.159.77.406.781.069.745-.34.533-.4.273-.554v-.51l-.063-.621-.5-.871-.621-.5-.409.214-.124.566h-.472l-.285-.442-.048-.5-.448-.294-.485-.17-.459-.328-.3-.589-.26-.44.274-1.291-.038-1.007-.111-.973-.6-.554-.658-.307-.136-.666-.062-.657-.273-.656-.223-.374-.559-.237-3.313-.022-.274-.623-.273-.633-.558-.272-.534.261-.608-.022-1.053-.532.26-.566.508-.226.223-.418-.2-.182-.384-.283-.359-.226-.249-.351-.075-.463.523-.013.9.148.918.135.931.126.98.157.633.137,1.055.09.681.09.4.158.012.487.323.442.682.078.732-.1.546-.328.249-.611.137-.78v-1.856l.372-.961.074-.622-.323-.441-.819-.2-.98-.475-.558-.476-.832-.984.311-.531h.856l.633-.057.409-.091.074-1.255.125-.362.745-.033.533-.046.4-.214.286-.5-.261-1.506.757-.927.147-.679.112-.407.5.135.223.214.509-.124.236-.135.223-.373-.038-.531.347-.612.857-.27.558.294.224.373.136.656.311.487.72.124.843.057.806.261.6.317.459.169.659.1,1.215.1.758-1.053.682-.69.125-1.075.4-1.312.087-.87-.036-1.652-.162-1.019-.274-.792-.509-.248h-.731l-.473.146-.818.046-.41-.057-.894-.487-.632-.373-.485.261-.509.351-.3-.069-.038-.486.174-.6.111-.7.31-.792.248-.792-.335-.894-.62-.406-.434-.284-.273-.283-.1-.712.086-1.583-.3-.792-.111-.679-.112-1.2-.136-.577.285-.51.733-.238.681-.079.683-.033.842.145-.049.126-.024.368.173.48.448.851.458.442.845.75.284.158.6-.175.4-.343.634-.431.633-.373.335-.145.335.029.557.518.373.347.21.447-.036.319-.212.313-.31.411-.111.387-.026.693-.037.756.086.531.1.459.174.254.461.354.422.322.533.275.447.051.509-.016.521-.046.434-.1.4-.238.509-.228.359-.031.434.056.509.124,1.724.02.992-.073.3.045.472.373.546.436.546.277.558.277.857.527.793.531.46.278.309.1.336.017.3-.1.41-.107.894.052,1.576.128,1.575.3.708.161,1.986.441.744-.005.918.028.41.159.1.668.036.617.2.6.547.56.457.351.434.2.87.1.67.084.732.108.4.055.2-.017.619-.418.5-.515.634-.508.881-.746.36-.3.583-.254.409-.108.273.17.236.5.261.583.311.5.544.4.994,1.019.31.118.545.023.571.3.583.537.794.792.67.249.57.492.434.051.274-.124.174-.276.148-.2.2-.305.36-.158.186.056.1.374v.261l.112.237.113.272.123.317.224.311.236.294.793.458.3.056.248.7.262.446.447.108.557.158.26.164.087.266-.037.226-.112.249-.037.231.1.345.162.227.384.418.942.684.373.329.36.48.211.254.4.283.224.243.012.379.161.56.3.142h.322l.336-.04.371-.108.248-.04.175.057v.283l-.038.3.025.176.112.248.087.159.856,1.006.249.2.422.39.4.311.311.283.162.288.049.453.012.441-.2,1.006-.086.639-.087.413.2.657.36.407.186.288.187.25.036.17.025.181.037.231.062.137.137.073.074.062.05.232-.026.159-.172.169.038.154.147.074.373.056.212.039.285.056.113.1.05.187.012.138-.012.108-.037.106-.063.1-.049.133v.184l.161.1.125.116.073.075.074.073v.075l.026.146-.075.1-.049.1v.105l.024.068.037.062.037.021.163.389.049.388.037.172.1.306.135.163.249.005.236.057.769.257.7.227.781.381.559.541.5.486.223.5.558,1.052.335.13.31.164.236.515.112.621.111.418.547.714.285.407.546.113.67.108.683.136.508.051,1.317-.006.893.034.609.04.669-.086.373-.146.31-.126.447-.22.336-.04.5.283.324.107.261.243.173.282.2.374.236.322.482.3.82.267.508.011.41.124.111.22.049.283-.074.153-.224.1-.247.108-.236.367.012,1.155-.1.469-.049.391.175.153.334.112.186.243.025.306-.062.135-.149.306-.025.889.706-.018.957.051,1.327.113.335.142-.087,1.369.038.815-.1.4-.273.4-.248.566-.05.56-.075.5.037.362.162.175.471.017.508.074.287.164.16.362.274.768.111.148.446-.108.347-.2.359-.289.324-.1.6-.016.893-.011.211.474.272.6.423,1.109.223.356.968-.044.931.113,1.452-.1.2.413.21.436.312.265.26.25.633.1.149.446.211,1.3-.125.922-.2,1.419-.1.774-.744.04-1.352.148-.422.18-.336.42-.421.633-.236.769-.571.747-.844.984-.285.531-.211.792-.061.849-.126.735-.123.577-.386.079-.794-.226-.844-.634-.906-.577-1.935-1.278-.895-.237-1.166-.34-.758-.022-.806-.317-.732-.294-.892-.441-.683-.124-.6.124-.571.475-.472.736-.286.8-.507.747-.956,1.289-.36.531-.52.6-.411.464-.533.441-.162.452.322.305.857.962.272.566.509.4.435.192.471.283.323.578.111.836-.05,1.143-.78.735-.2.419-.247.666v.373l.2.407.262.385.285.442.087.769-.124.542-.633.318-.6.327-.769.86-.82.361-.249.125-.434.44-.323.635-.012.621-.384.531-.757.261-.783.261-.893.091-.855.259-.757-.056.31-.657-.086-.6-.508-.634-.336-.475-.521-.565-.72-.5-.1-1.143.023-.146.3-.521-.074-.407-.459-.43-.484-.408-.547-.509-.656-.973-.385-.757-.571-.272-1.291-.215-.6.011-.744-.249-.223-.577.161-.553.359-.623.211-.429.037-.555-.432-.78-.386-.215-.832.215-.459.318-.547.18-.509.09-1.166.838-.781.6-.819.646-.262.622.149,1.086-.645,1.934-.929.746-.7.181-.645.057-.892.034-.943-.056-.645.045-.484.452-.633.361-.967-.044-1.079-.046-.845-.768-.646-.555-.818-.226-1.725-.137h-1.091l-1.093.227-.323.633-.075,1.38-.136.838-.334.474-.633.373-.6.215-.508.793-.534,1.278-.311.893.769.814.26.577.311.261.756.361.386.554.074.464.148,1.334-.061.508-.584.217-.348-.239.038-.429-.83-.283-.2-.113-.535-.181-.632-.17-1.215-.044-.162.384h-.347l-.36-.215-.261-.463-.26-.351-.471-.226-.769.293-.336.068-.385-.318-1.08-.69-.868-.836-.559-.668-.384-.668-.174-.542.2-.8.2-1.006.322-.758.039-.35-.7-.214-.448-.046-.185-.6-.149-.882-.2-2.048.012-.316-.236-.871-.47-.261-.895-.407-.943-.294-.82-.135-1.066-.305-.584-.453-.3-.735-.175-.872-.272-3.484-.161-.4-.485-.374-.472-.044-.842-.046-.051-.723v-.9l.064-.917.432-.984-.025-1.074.571-.135.51.023.26.181.372.7.248.011.745-.373.186-.668.051-.656.036-1.075.05-.622.1-.838.222-.464,1.031-.5.646-.034.471.294.137.577.347.5.756.215.522-.226.224-.418,1.017.8.049.181.113.984.334.77.621.509,1.49.7.472.35.88.51.6.226.509-.193.137-.588.4-.113.509-.057.658-.146.558-.193-.025-.532-.038-.5.261-.475.609-.09.793-.373.447-.476.485-.532.111-.35.074-.532.224-.339.558-.159.3-.113.111-.271-.26-.43-.881-.406-.534-.226-.7-.656.075-.34.534-.633.745-.148.285-.418-.235-.429-.72-.239-.571-.406-.5-.679-.559-.577.048-.4.423-.339.633-.283.547-.429v-.6l-2.631-2.783-1.5-.283-1.017-.35-1.141-.216-.57.272-.436-.124-.3-.339-.223.259-.422.657-.3.316-.609.509-.569.714-.348.417-.521.578-.572.327-1.067.033-1.091-.045-1.3.069-1.054-.329-.2-.712-.509-.566-1.974.238-.582-.057-.67-.181-.149-.44-.075-.566-.062-.566-.137-1.278-.087-1.606-.21-.521-.806-.113h-.721l-.881.068-.831.045-.832.239-.745-.159-1.775-.8-.42-.187-.4-.193-.781-.148-.608-.028-.609-.067-.274.2.05.408.409.646.111.439.187.572-.038.594-.211.419-.5.294-.708.243-.433.034-.285.074-.261.118-.272-.011-.212-.226-.087-.39-.038-.379-.259-.08-.373.024-.46.011-.422-.04-.136-.26-.163-.531-.111-.385.026-.351.285-.272.087-.249-.4.029-.42-.09-.3-.22-.372-.1-.621.078-.273.652-.1.638-.061.412.125.254.372.289-.063.86-.049.762-.111.532-.075.305-.062.334-.161.17-.448.023" transform="translate(-1945.43 -560.214)"  stroke="#fff" stroke-linecap="square" stroke-linejoin="bevel" stroke-width="1" fill-rule="evenodd"/>
      <text id="336" transform="translate(23.675 40.647)" fill="#fff" font-size="13"  font-family="OpenSans-Bold, Open Sans" font-weight="700"><tspan x="-14.896" y="0"></tspan></text>
    </g>
    <g id="_332_Arvi" data-name="332 Arvi" transform="translate(1931.131 253.095)">
      <path id="talId332" fill="#7DB8EC" title="Arvi Taluka" data-name="Arvi" d="M1966.236,692.641l.2-1.109.385-1.561.187-.854-.026-.876-.21-.635-.21-.5.371-.553.347-.431.225-.5.087-.3-.05-.283-.223-.368-.125-.2.012-.379.472-.493.186-.067.312-.04.408.04.348.056.485.068.483.051.459-.04.721-.283,1.279-1.04.186-.294.173-.577-.025-.373-.173-.531-.459-.543-.422-.515-.061-.2-.038-.228.038-.226.086-.225.062-.34-.012-.248-.149-.26-.632-.4-.36-.181-.546-.046-.534.187-.409.582-.137.175-.4.447-.224.318-.371.373-.335.232-.349.176-.347.027-.4-.168-.36-.29-.25-.361-.036-.436.162-.6.2-.379.1-.374.1-.44.039-.425-.248-.555-.36-.2-.5-.057-.386.069-.409.119-.311.124-.371-.057-.535-.186-.3-.26-.349-.542-.185-.356-.447-1.415-.3-1.007v-.94l.075-.82-.038-.247-.211-.306-.335-.232-.459-.4-.6-.69-.534-.526-.608-.39-.386-.261-.372-.283-.223-.271-.175-.475-.173-.537-.272-.583-.138-.259-.1-.294-.05-.305.05-.357.037-.322-.037-.334-.149-.192-.422-.113-.422-.09-.383-.086-.411-.1-.36-.25-.571-.734-.471-.345-.422-.181-.633-.2-.757-.192-.633-.187-.806-.175-.323-.186-.346-.278-.3-.209-.273-.142-.546-.13-.571-.119-.757-.339-.657-.787-.422-.418-.324-.323-.285-.254-.273-.3-.272-.181-.373.142-.273.537.136.288-.061.481-.075.408-.7.412-.384.079-.6.249-.485.011-.768-.046-1.267-.368-.719-.107-.485-.045-.433-.085-.373-.09-.422-.148-.4-.2-.385-.239-.421-.31-.261-.906-.11-.412-.137-.29-.175-.18-.36-.237-.4-.237-.372-.3-.012-.531.508-1.534.038-.379-.038-.3-.272-.436-.719-.639-.4-.436-.36-.322-.224-.458.1-.419.1-.339.2-.61-.038-.475-.149-.4-.41-.593-.334-.362-.36-.283-.434-.255-.609-.108-1.229-.158-1.228-.617-.758-.338-.694-.283-.62-.305-.373-.3-.174-.39.025-.43.658-.809.473-.486.271-.361.149-.283.186-.634-.062-1.165-.185-1.221-.063-2.143.063-1.347.1-.656-.259-.707-.5-.549-.187-.164-.683-.412-.26-.159-.608-.316-.36-.294-.262-.459-.311-1.051.014-.487-.037-.94.149-.69.334-.785.41-.5.632-.73.633-.787.3-.5.137-.447-.062-.661-.074-.944-.248-.429-.26-.261-.422-.334-.359-.276-.435-.385-.285-.373-.1-.419.273-.662.261-.118.471.033.36.04.36-.017.385-.164.323-.237.272-.425.372-.6.286-.481.212-.537-.05-.763-.149-.357-.372-.464-.237-.283-.371-.955.334-.69.4-.679.111-.277.088-.758v-.712l.261-.934v-.362l.533.088,1.13.047.93-.044.4-.142.261-.5.483-.685.535.1.495.186.7.057.434.04,1.153.073.833.2.881.006.371-.068.522-.339.224-.357.31-.367.844-.724h.606l.15.265.074.486.087.43.161.227.435.146.621-.011.918-.062.82.079.756-.119.558-.124.571-.244.422-.191.448-.164.26-.243.161-.369.013-.389-.087-.255-.235-.181-.312-.22-.174-.5-.175-.571-.26-.628-.2-.454-.285-.5-.062-.453-.087-1.041.46-.882.235-.48.236-.481.572-.181,1.079-.034.881.017.62-.187.956-.407.46-.39.21-.414.359-.5.422-.94.261-.644.311-.4.272-.232.3-.152.445.09.349.3.335.3.349.265.246.316.05.187.05.577-.087.357-.284.836-.31.532-.473,1.232-.21.486-.025.328.224.588.061.781-.124.4-.173.429-.112.356.135.079.448.029.509.068.508-.057.359-.339.361-.351.347-.182.311.046.346.107.409.057.534-.249.435-.107.3.118.124.311-.161.389-.1.3-.187.457-.495.668-.187.621-.05.42.076.412.248.322.4.2.594.549-.483,1.663-.1.548-.372.769-.1.611-.324.758-.359,1.2-.038.5.111.48.459.254.523.221.582.265.422.2.385.113.323-.107.161-.165.4-.089.311.056.793.152.472.328.434.2.4.1.336-.107.31-.272.012-.356.074-.492.248-.429.46-.34.6-.378,1.24-.611.833-.391.249-.35.036-.55-.123-.6-.027-.741.446-.022.162-.17.063-.334.073-.305.112-.531.05-.763.062-.86-.372-.289-.124-.255.062-.412.1-.639.273-.651.621-.078.372.1.3.221.422.09.4-.029-.087.248-.285.272-.025.351.111.385.161.531.137.26.423.04.457-.011.373-.023.26.079.038.38.087.389.212.226.272.011.261-.118.285-.073.435-.035.707-.243.5-.294.211-.418.037-.594-.186-.57-.111-.441-.409-.645-.05-.407.274-.2.608.067.608.028.782.148.4.193.423.186,1.775.8.744.159.832-.239.831-.045.88-.068h.72l.806.113.211.521.087,1.606.137,1.278.062.565.074.566.15.44.668.182.584.057,1.973-.239.509.567.2.712,1.053.329,1.3-.068,1.093.044,1.066-.033.571-.328.521-.577.348-.418.571-.713.608-.509.3-.317.422-.656.224-.259.3.338.435.124.57-.271,1.142.215,1.017.35,1.5.283,2.631,2.784v.6l-.547.429-.632.283-.422.339-.05.4.558.577.5.679.571.407.72.238.235.43-.285.417-.745.148-.534.633-.075.34.7.657.533.226.883.406.259.43-.111.272-.3.112-.558.159-.224.339-.073.532-.112.35-.483.532-.448.475-.793.374-.608.089-.261.475.038.5.025.532-.56.192-.656.147-.51.057-.4.114-.137.587-.508.193-.6-.226-.881-.51-.471-.35-1.489-.7-.621-.508-.335-.769-.112-.984-.049-.181-1.017-.8-.225.418-.521.226-.755-.215-.347-.5-.137-.577-.473-.294-.645.034-1.029.5-.224.464-.1.837-.049.622-.038,1.075-.05.656-.187.668-.743.373-.247-.011-.373-.7-.262-.181-.508-.022-.571.135.025,1.075-.435.984-.063.917v.9l.05.724.845.046.471.044.484.374.161.4.275,3.485.173.871.3.735.584.453,1.066.3.818.135.945.294.893.407.471.261.235.871-.011.316.2,2.048.149.883.187.6.445.046.7.215-.037.35-.323.758-.2,1.006-.2.8.173.542.386.667.559.668.868.837,1.081.69.384.318.335-.068.77-.295.471.226.26.351.261.463.36.216h.348l.161-.385,1.216.045.633.17.533.181.2.113.833.283-.037.43.348.238.583-.216.061-.509-.148-1.334-.075-.464-.384-.555-.758-.361-.31-.261-.261-.577-.768-.814.31-.893.533-1.278.51-.793.6-.214.632-.374.334-.474.137-.837.075-1.381.322-.633,1.092-.227h1.093l1.724.137.819.226.644.555.844.768,1.08.046.968.045.632-.361.483-.453.646-.045.943.056.894-.033.645-.057.7-.181.932-.746.644-1.934-.148-1.086.26-.622.819-.645.781-.6,1.167-.837.508-.091.547-.18.458-.318.831-.214.385.214.434.78-.036.555-.211.429-.36.623-.162.553.223.577.745.25.6-.011,1.29.215.57.272.386.757.658.973.547.508.483.408.459.43.075.407-.3.521-.025.146.1,1.143.721.5.521.565.334.475.509.634.087.6-.31.657.757.056.856-.259.895-.091.78-.26.758-.26.384-.532.013-.621.322-.634.435-.441.248-.126.82-.361.768-.86.6-.327.373.367,1,.486.744.6.347.357.832,1,.4.487.531.577.137.453v.7l-.172.543-.162.656-.111.646-.286.52-.831,1.03-1.439,1.243-.384.272-.473-.339-.868-.657-.919-.52-.967-.464-.721-.159-.806.1-.819.487-1.252.8-.905-.067-.572.157-.224.566-.173.713.149.656.919.261.4.124.744.475.645.509.609.621.657.126.98.045.5-.011.77.226.322.486-.124.351-.223.577-.335.463-.509.714.012,3.472-.21.758-.36.566-.558.328-.6.159-.793-.318-1.031-.531-.609-.464-.37-.1-.149.351-.075.44-.2.487-.324.464-.532.1-.274-.124-.05-.555-.458-.294-.559-.068-1.166-.214-.745-.045-.3.373-.447.4-.708-.385-.683-.452-.359-.5-.31-.577-.347-.159-.522.125-.41.124-.682.69-.7.192-.793.147-.795.192-1.253.34-.733.373-.446.339-.869,1.572.074.679.459.4.224.329.149.656-.074.61-.782,1.222-.446,1.221v1.3l-.149,2.454-.88.758-.683.419-.633-.057-.584-.2-.707-.023-.224.069-.955.305-.794-.079-.384-.113-.708-.328-.571.192-.433.363-.509.25-.672.621-.47.091-.422-.239-.7-.588-.743-.146-.5.159.161.463.359.567.3.668-.026.689.113,1.539.6,1.075.274,1.47-.956,1.73-.682.555-.895.69-.607.52-1.514.294-1.577-.1-.657-.305-.806-.272-1.34.035-1.3-.126-.894-.011-1.153.7-.8.2-.435.227-.086.361.422.544.621.656.384.4.137.385-.037.621-.287.407-.868.634-.868.7-.882,1.584-.049.86-.135,3.721-1.094.056-.731-.181-.571-.452-.646-.113-.843,1.855-.323.69.012.77v.69l.012.429.063.555.571.927-.77.226-.894.283-.769.057-.5-.148-.682-.237-.694.045-.336.1-1.017.181-.893-.508-1.08-.9-.882-.769-.694-.385-.806-.091-1.377-.011-1.652-.09-.571.238-.533.418-.644.124-.77-.1-.8-.135-1.044-.215-1.377-.328-.423.05-.21-.666-.359-1.119-.633-.712-.981-.77-.719-.413-.446-.305-.384-.367-.149-.515-.187-1.147" transform="translate(-1924.84 -595.86)"  stroke="#fff" stroke-linecap="square" stroke-linejoin="bevel" stroke-width="1" fill-rule="evenodd"/>
      <text id="332" transform="translate(43.292 70.501)" fill="#fff" font-size="13"  font-family="OpenSans-Bold, Open Sans" font-weight="700"><tspan x="-7.625" y="0"></tspan></text>
    </g>
    <g id="_339_Wardha" data-name="339 Wardha" transform="translate(1995.073 316.886)">
      <path id="talId339" fill="#7DB8EC" title="Wardha Taluka" data-name="Wardha" d="M2085.344,705.627l.41.34.4.079.4-.26.634-.238.656-.022.474.328.285.373.484.43.657.476.521.1.621.022h.521l.46.316.323.611.05.679.3,1.074.509.137.373.124.435.622.359.951.508,1.278.163.679-.6,1.018-2.011.816-.247.418-.361.8-.423.827-.122,1.176-1.031-.126-1.2-.429-.608-.225-.806-.205-.759-.317-.62-.52-.831-.69-1.2-.475-.708-.08-.943-.011-.769.079-.707.135-.781.294-.373.565.05.555-.323.407-.62.294-1.031.328-1.015.283-.224.544.062.949.113.736.2.611.769.566.1,1.335-.247.485.025.588.2.544-.062.645-.447.136-.683.135-1.427-.271-.732-.283h-.844l-.694.621-.037,1.177.21,1.99-.087.261-.2.351-.335.305-.509.022-.434-.135-.721-.228-.608-.135-.929-.09-.385.17-.434.475-.373.712-.2.566-.26.768-.384.8-.088.4.435.147.311.2-.062.657-.311,1.074-.608,1.707-.211.645-.384.363-.41-.069-.6-.226-.67-.329-.658-.259-.832-.305-.534-.137-.16.283-.249.136-.459.136-.509.147-.657.238-.833-.2-1.452-.838-.545-.079-.446.057-.448-.113-.3-.407-.186-.544-.074-.588-.361.033-.335.465-.271.418-.336.566-.312.431-.606.575-.608-.022-.6-.429-.5-.487-.385-.192-.843-.226-.77-.409-1.005-.407-1.564-.825-.074-.815-.211-.565-.087-.486-.2-.714-.347-.474-.521-.126-.957.035-1.787.407-1.365.248-1.24.147-1.154-.034-.756-.329-.323-.679-1.029-.124-.694-.113-.212.9-.385.792-.634-.192-.644-.509-.67-.646-.98-.882-.632-.407-.9-.169-1.078-.307-1.193-.4-.88-.385-1.031-.509-1.015-.305-.734-.068-1.178-.339-.671-.622-2.184-1.335-1.005-.734-1.252-.612-.585-.35.05-.42.211-.576-.049-1.278.223-.714.1-.5-.386-.283-.719-.338-.844-.305-.77-.2-.919-.1-.584-.271-.012-.374.012-.668-.1-.611-.21-.011-.708.045-.845-.078-.569-.34-.422-.747-1.724-.192-1.278.057-1.229-.068-.1-.6-.137-2.183-.061-1.538-.323-1-.471-.453-1.031-.191-.992-.079-1.328-.126-1.415-.35-.844-.294-.93-.341-.857-.542-.583-.622-.534-.5-.806-.419-.918-.226-.349-.4.459-.61.522-.464,1.166-.792.658-.419.546-.486.732-.079.658-.373.012-1.052.1-1.651-.123-.826-.026-.464-.271-.35-.682-.34-.894-1.119-.857-.023-.731.012-.757.011-.584.169-.633.623-.21.949.049,1.008-.3.78-.4.893-.521.452-.669.08h-1.775l-1.154-1.04-2.122-1.313-.31-.407-.322-.836-.149-.668.012-.668.149-.894-.061-.508-.907-.17-1.352-.431-.77-.1-.968-.079-.931-.046-.782-.181-.658-.146-.843-.181L1980,694.2l-.535-.4-.236-.714.076-.226.3-.588.037-.408-.012-.418-.2-.374-.3-.475-.584-.724-.694-.735-.769-.69-.57-.927-.062-.555-.012-.429v-.69l-.013-.769.322-.69.844-1.855.646.113.57.452.732.181,1.091-.055.137-3.722.05-.86.883-1.583.868-.7.87-.635.284-.407.037-.621-.136-.385-.384-.4-.621-.657-.423-.543.087-.362.434-.227.795-.2,1.154-.7.892.011,1.3.125,1.34-.035.806.272.658.305,1.576.1,1.513-.294.609-.52.894-.69.682-.555.956-1.73-.273-1.47-.6-1.075-.111-1.539.023-.69-.3-.668-.36-.566-.16-.463.5-.158.746.146.694.588.422.238.472-.09.67-.622.508-.249.435-.363.571-.193.707.329.386.113.795.08.955-.306.222-.068.708.022.583.2.633.057.681-.42.883-.757.149-2.455v-1.3l.447-1.221.78-1.223.075-.61-.148-.656-.224-.328-.459-.4-.074-.679.868-1.572.448-.339.732-.373,1.253-.34.794-.192.8-.147.693-.192.683-.69.41-.124.521-.125.346.159.312.577.36.5.683.453.708.385-.237.5-.025.226.236.429.186.091.149.192-.062.316-.273.216-.409.146-.41.124-.111.385.186.125.807.543.223.475.2.678.173.226.436.137.4-.724.186-.464.148-.69.224-.384.4-.192.249-.25.47-.351.757-.022.67.182.633.316.287.475v.69l-.1,1.448.434,1.323.6.838.545.668-.112,1.13.684,2.49.086.814.224.418.471.091h.582l.521.125-.024.531-.074,1.075.15,1.053.583.475-.026.35-.273.4-.459.25-.683-.373-.569.362-.609,2.364.149.893.371.464.533.916,2.024.022.223,1.459h.324l.507-.033.67-.148.56.113.72.216.47.666.459.679.894.293,1.266.011.681-.328.571.147.4.543.633.339.844.089.211-.8.708-.023.956.045.508.318.446.44.659.747.681-.148.77-.452.484-.475.124-.385-.434-.351-.571-.317-.757-.215-.819-.011-.459-.475-.074-.453v-.7l1.949-.135,1.177-.215.943-.1.783-.951.223-.611.459-.159.421.486.261.509.3.227.385-.249.52-.237.535.157.471.374.36.633v.623l.037.781.272.169.262-.011.458-.158-.025.655.335.543.82,1.086.484.894.421-.045.361-.227.272-.44.21-.465.547-.338.36.361.51.329.595-.091-.087-1.946.162-.984.162-.1.52.011.906-.068.373,1.244-.049.25-.548.305-.42.181-.063.532-.049.781.185.848.434.339.385.453.248.666.224.046.41-.17.336-.622.458-.508.582-.283.881.113.224.644.3,1.2-.186.509-.125,1.064.646.973-.073.407-.287.338-.534.068-.595.2-.186.239v.712l.285.35.671.769,1.266,1.686.494.894.088.757v1.516l.335.067.447.035.583-.385.657-.17.671.363,1.129.633.857.261.583.237.732.464.657.476.485.26.706-.034.286.566-.161.871-.223.554-.249.554-.6.623-.087.588.125,2.013.522,1.583.248.125.235-.441.3-.509.272-.565.25-.328.4-.137.534.216.668.463.633.623.608,1.606,1.514,2.386.447.849.421.622.335.384.149.374.05.747.312.328.781.033.882-.327.4-.317.446-.181.795-.124.894.055.708.159.656.362.67.407.46.248.856.227,1.042.022,1.2-.091.981.328" transform="translate(-1976.43 -647.339)"  stroke="#fff" stroke-linecap="square" stroke-linejoin="bevel" stroke-width="1" fill-rule="evenodd"/>
      <text id="339" data-name="Wardha" transform="translate(20.35 42.71)" fill="#fff" font-size="13"  font-family="OpenSans-Bold, Open Sans" font-weight="700"><tspan x="-15.18" y="0"></tspan></text>
    </g>
    <g id="_338_Seloo" data-name="338 Seloo" transform="translate(2033.637 277.686)">
      <path id="talId338" fill="#7DB8EC" title="Seloo Taluka" data-name="Seloo" d="M2020.387,635.691l.632-.318.125-.542-.087-.769-.285-.442-.261-.384-.2-.408v-.374l.249-.666.2-.42.781-.734.049-1.143-.112-.837-.322-.577-.471-.283-.434-.193-.509-.4-.272-.566-.856-.962-.323-.3.162-.452.533-.442.408-.464.523-.6.359-.531.956-1.289.51-.747.285-.8.472-.735.571-.476.6-.124.683.124.892.442.733.294.807.317.757.022,1.166.34.895.237,1.935,1.279.907.577.843.634.795.226.384-.079.126-.577.124-.734.061-.849.211-.792.285-.531.845-.984.571-.747.235-.769.421-.633.336-.42.422-.18,1.352-.147.746-.04.123.283.857.294.72.192.521.029,1.092-.261.584-.073.459.062.93.255.409-.062.236-.045.285-.307.262-.045.149-.265.21-.187.274.006.135.186.037.238-.037.294.037.147.112.057.484-.175.212.033.075.2-.161.153-.137.238-.1.221.174.091.5.044.656.294.213.509.359.82.385.605.447.476.472.288.608.254.385.175,1.886.594.681.232.5.152.5.124.347,0,.372.062.2.5.1.436.014.356.173.328.162.2.782.678.434-.051.285-.158.311-.141.273-.09.248.221.112.317.185.247.26.091.249-.073.361.011.074.249.061.367.05.4.112.442.41.656.086.424.062.35-.074.254-.3.238-.409.209-.348.38-.248.678.037.424.223.413.063.305-.149.5-.262.617.138.323.111.476.249.373-.1.48-.087.464-.074.334-.112.356.074.367.36.559.347.571.6.249.2.424.237.515.124.633.075.758-.05.836.012.679.137.391.261.316.842.447.547.243.608.017.508-.034.657-.084.41.124-.111.215-.274.216-.273.118-.271.188-.348.2-.285.272-.025.3.062.254.236.458.247.531.6.555.6.276.3.4.222.593.472.973.248.476.533.442.546.226.919.141.7-.057.508.068.521.3.286.42.3.469.124.82.286.232.4.051,1.253-.159.484.079.672.2.309.17v.135l-.174.046-.483.011-.484.084-.372.188-.259.254-.249.345-.149.447.012.611.373.65,1.041,1.183,1.079,1.115.919.893.967.288,1.08.249.944.175.818.17.694.131.683.3,1.614.989.831.323.184.035.6-.334.41-.945.36-.775.409-.825.448-.611.571-.254.694-.113.485.034.719.216.981.288.644.378.659.544.347.3.459.261.422.146.806.1.05.322-.063.463-.135.3-.248.34-.21.323-.062.429.111.312.248.153.571-.018.956.011.72.509.372.318.236.6-.013.447-.111.306-.224.288-.1.44.062,2.964.3,1.177.037.458-.1.5.161,1.765.347.282.521-.022.384.106.361.38.05.65.075.973.285.317.323.248.558.256,1.154.226.421-.04.4-.186.174-.38.347-.6.422-.951.111-.548.136-.475.236-.6,1.006.272.644.113.559.034.535.068.409.13.819.18,1.923.516.6.26.458.254.272.2.236.424.05.316.025.509-.038,1.121.038.854-.025.758-.013.487.112.2.2.142.347.017.421,0,.123.255-.159,1.019-.237.633-.222.294-.149.329-.212.26-.111.278.162.332.348.38,1.179.5.36.318.434.2.373.233.136.3.087.367.062.248.448.137-.088.723-.087.34-.1.372-.286.408-.546-.057-.521-.159-.819-.35-.881-.17-.234.928-1.042,1.424-.51-.044-.943-.079h-1.08l-.892-.022-.845.067-.471.374-.05.916-.235,1.177-2.1.735-.683.124-.842.577-.908.272-1.812.069-1.5.35-1.3.939-.956.169-.335.419-.111.735-.2,1.426.571.61.732.544.013.5-.423.894-.459,1-.669.091-.708.044-.967.011-1.031-.113-.532.34-.162.814.594,1.652.211.622-.136.238-.36.044-.483.023-.534.2.212.532.719.871.087.52-.087.973-.992,1.64-.447.305-.582-.011-.684-.057-.708-.1-1.017-.349-.658-.057-1.029-.294-.559-.226-.731-.555-.584-.091-.758.476-.248.86-.247.723-.4.294-.249.407-.136,1.008-.061.384-.224.307-.346-.035-.435-.294-.583-.091-.359.42-.076.8-.236.553.037.725.634.8-.05.712-.98-.328-1.2.091-1.042-.022-.857-.228-.458-.247-.67-.407-.659-.362-.706-.159-.893-.056-.795.124-.446.181-.4.316-.881.327-.781-.033-.311-.328-.05-.747-.147-.374-.336-.384-.421-.622-.447-.849-1.514-2.387-.608-1.606-.633-.623-.671-.463-.534-.215-.4.136-.249.328-.274.566-.3.509-.235.441-.249-.125-.52-1.583-.123-2.012.085-.589.6-.623.249-.553.224-.555.161-.871-.284-.565-.708.034-.485-.261-.656-.475-.733-.465-.583-.237-.856-.261-1.129-.633-.67-.362-.658.17-.584.385-.446-.035-.334-.067v-1.516l-.087-.757-.5-.894-1.266-1.685-.671-.77-.285-.35v-.712l.185-.239.6-.2.533-.069.286-.338.073-.408-.645-.973.125-1.063.185-.509-.3-1.2-.224-.644-.882-.113-.583.283-.459.509-.335.622-.41.17-.224-.046-.246-.667-.385-.453-.435-.339-.186-.849.05-.78.063-.531.422-.181.546-.305.05-.249-.371-1.245-.907.068-.521-.011-.161.1-.162.984.087,1.946-.6.09-.509-.329-.36-.361-.545.339-.21.464-.273.441-.362.227-.42.045-.485-.893-.819-1.086-.334-.544.024-.655-.459.158-.26.011-.274-.169-.037-.781v-.623l-.361-.633-.471-.373-.533-.158-.521.237-.384.249-.3-.227-.26-.509-.422-.486-.459.159-.224.611-.78.951-.945.1-1.178.215-1.948.135v.7l.075.453.459.476.818.011.758.214.569.317.435.351-.125.385-.482.475-.771.452-.683.148-.658-.747-.445-.441-.509-.317-.955-.045-.708.023-.211.8-.843-.089-.633-.341-.4-.542-.57-.148-.684.328-1.266-.011-.894-.294-.459-.679-.472-.667-.719-.216-.558-.113-.671.148-.509.034h-.323l-.223-1.46-2.022-.022-.535-.916-.372-.464-.149-.893.609-2.364.572-.363.681.374.459-.249.273-.4.026-.35-.584-.476-.149-1.052.073-1.075.025-.531-.521-.125h-.583l-.472-.091-.224-.418-.087-.814-.681-2.489.111-1.131-.547-.667-.6-.838-.434-1.323.1-1.448v-.69l-.285-.475-.633-.316-.67-.181-.757.022-.471.351-.248.25-.4.193-.222.383-.149.69-.186.464-.4.725-.434-.136-.175-.226-.2-.679-.222-.476-.808-.542-.185-.125.112-.385.409-.124.41-.146.272-.216.062-.317-.149-.192-.184-.091-.236-.429.024-.226.236-.5.446-.4.3-.373.744.045,1.167.214.559.069.459.294.049.555.274.124.533-.1.323-.464.2-.487.075-.44.149-.351.371.1.608.465,1.03.531.795.318.595-.159.558-.328.361-.565.211-.758-.013-3.472.51-.714.335-.463.222-.577.125-.351-.323-.486-.769-.226-.5.011-.98-.044-.658-.126-.608-.622-.646-.509-.744-.475-.4-.124-.918-.261-.149-.656.174-.712.224-.566.571-.157.9.067,1.254-.8.819-.487.807-.1.719.159.967.464.919.52.868.657.472.339.385-.272,1.44-1.244.832-1.029.285-.52.111-.645.162-.656.172-.543v-.7l-.135-.453-.533-.577-.4-.486-.832-1-.347-.358-.744-.6-1-.486-.373-.367" transform="translate(-2007.42 -615.59)"  stroke="#fff" stroke-linecap="square" stroke-linejoin="bevel" stroke-width="1" fill-rule="evenodd"/>
      <text id="338" transform="translate(25.786 52.91)" fill="#fff" font-size="13"  font-family="OpenSans-Bold, Open Sans" font-weight="700"><tspan x="-10.506" y="0"></tspan></text>
    </g>
    <g id="_334_Deoli" data-name="334 Deoli" transform="translate(1961.222 355.724)">
      <path id="talId334" fill="#7DB8EC" title="Deoli Taluka" data-name="Deoli" d="M1983.69,680.911l.77.69.694.736.585.723.3.476.2.373.012.419-.037.407-.3.588-.074.226.236.713.533.4,1.079.124.844.182.659.146.781.181.931.046.968.078.769.1,1.353.431.905.17.063.508-.149.893-.013.667.149.668.321.837.31.406,2.123,1.314,1.154,1.039h1.773l.67-.079.522-.452.4-.893.3-.78-.05-1.008.212-.949.633-.623.584-.169.756-.012.734-.012.856.024.893,1.12.682.34.273.35.024.465.125.825-.1,1.652-.013,1.052-.657.374-.732.079-.547.484-.656.42-1.168.792-.521.464-.458.61.347.4.917.226.807.418.534.5.583.622.856.542.931.34.844.294,1.414.35,1.327.126.993.079,1.03.191.472.453.322,1,.062,1.538.135,2.182.1.6,1.229.068,1.277-.057,1.725.192.423.748.57.339.844.079.707-.045.211.011.1.611-.014.668.014.373.584.272.917.1.77.2.843.305.72.339.385.283-.1.5-.225.714.052,1.278-.212.575-.05.42.584.35,1.252.612,1.007.735,2.184,1.335.67.622,1.179.338.732.068,1.017.305,1.031.508.881.385,1.191.4,1.081.307.892.169.633.406.98.882.671.646.646.508.632.193.384-.792.212-.9.694.113,1.03.123.322.68.756.328,1.156.034,1.24-.148,1.365-.247,1.787-.407.956-.035.521.125.348.474.2.714.087.486.211.564.073.816-.758.758-.049,1.018.1.758.286.644.348.792.807.906-.125.509-.322.43-.025.464.31.43.98.305.41.419.2.361.795.917.347.113.285.26.249.248.137.429.124.577.086.667-1.142.148-1.613,1.922-.906.634-.682.418-.732-.237-1.154-.136-.708.022-.556-.091-.324-.317-.7-.045-.433.215-.845.146-.31-.034-.384-.226-.72-.091-.384.057-.782.5-1.414.2-1.03-.261-.907-.226-.471-.238-.646-.373-.509.565-.471.588-.3.566-.546.453-.669.305-.223.374-.186,2.7-.074,1.074-.3.611-.6.4-.931.079-1.563-.6-1.6-.136-1.156-.305-1.785-.543-1.5-.17-.745-.181-.732-.158-.484.113-.36.25-.422.779-.123,1.946-.062.521-.558.124-.831-.09-1.553-.045-.719-.2-.249.294-.484.453-.633-.044-.5-.012-1.092.03-.111-.573-.187-.707-.236-.407-.509-.266-.633-.385-.421-.464-.137-.559-.026-.549.038-.333-.162-.606-.434-.175h-.386l-.843.323-.62.208-.522,0-.719-.1-.521-.1-.36-.164-.782-.537-.657-.453-.385-.225-.534-.108-.682-.1-1.439.056-.882.221-.52.186-.422.329-.521.752-.558.532-.584.51-.67.564-.88.459-1.056.672-.644.273-1.018-.018-.656-.215-.374-.244-.657-.616-.4-.425-.646-.294-.72.018-.57.119-.558.31-.2.17-1.452.741-.67.243-.844.232-1.192.17-1.13-.136-.694-.192-.732-.4-.981-.6-.906-.424-.657-.164-.782-.057-.633-.029-.546-.2-.272-.4-.149-.316-.224-.831-.222-.639-.51-.492-.657-.288-.807-.276-1.329-.471-.582-.225-.371-.04-.336.079-.236.146-.21.3-.2.4-.16.239-.162.2h-.124l-.446.2h-.372l-.435-.106-.447-.215-.422-.25-.731-.639-.509-.86-.224-.6-.322-.38-.409-.3-.533-.294-.807-.482-.993-.447-.77-.192-.881-.226-.67-.186-.6-.25-.782-.345-.472-.214-.434-.057-.708-.073-1.19-.113-.571-.294-.3-.3-.658-.458-.744-.146-.7-.21-.175-.071-.21-.082-.285-.367-.187-.419-.273-.48-.708-.21-.768.29-.857.2-.633.006-.558-.051-.4-.148-.285-.2-.224-.288-.558-.712-.137-.357-.074-.673-.137-.577-.136-.328-.285-.2-.535-.255-.694-.639-.485-.261-.534-.277-.26-.248-.062-.385.05-.758.012-.865-.136-.549-.584-1.08-.235-.544-.411-.537-.259-.306-.05-.221.037-.283.124-.158.247-.181.213-.6-.2-.656-.347-.984-1.154-1.391-.186-1.1-.05-.871.05-1.528.124-1.26.062-1.415-.062-.7-.149-.758-.273-.429-.3-.673-.149-.362-.036-.465.136-.349.309-.318.7-.548,1.115-.825,1.354-1.324.583-.684,1.141-1.578.187-.871v-.385l-.311-.378-.422-.933-.174-.713-.049-.537.061-.418.373-.26.83-.792,1.005-.685.448-.48.234-.571.125-.606-.149-.429-.037-.42-.16-.424.05-.254.085-.283.186-.168.4.01h.311l.334.056.36-.056.274-.2.7-.533.335-.118.336,0,.309.079.273.232.174.328.175.4.173.272.211.1.261-.028.3-.1.2-.261.285-.254.212-.363.073-.321.113-1.505-.286-.672v-.447l.024-.379.113-.509.62-.695.571-.4.185-.249.137-.463.237-.736.632-1.017.162-.508.087-.442.049-.339.075-.464.384-.672.1-.368v-.215l-.274-.334-.781-.389-.459-.322-.249-.475.038-.475v-.577l.187-.825.2-.544.26-.339.149-.5-.014-.706-.1-.29.422-.05,1.378.328,1.042.216.806.135.77.1.646-.124.533-.418.569-.239,1.652.091,1.377.011.806.09.694.385.881.769,1.081.9.892.509,1.018-.182.335-.1.7-.045.684.237.5.147.77-.056.892-.283.77-.226" transform="translate(-1949.021 -678.66)"  stroke="#fff" stroke-linecap="square" stroke-linejoin="bevel" stroke-width="1" fill-rule="evenodd"/>
      <text id="334" transform="translate(20.201 44.872)" fill="#fff" font-size="13"  font-family="OpenSans-Bold, Open Sans" font-weight="700"><tspan x="-9.914" y="0"></tspan></text>
    </g>
    <g id="_335_Hinganghat" data-name="335 Hinganghat" transform="translate(2031.67 385.15)">
      <path id="talId335" fill="#7DB8EC" title="Hinganghat Taluka" data-name="Hinganghat" d="M2040.688,721.312l1.564.825,1.005.407.768.408.846.226.384.192.5.487.6.429.608.022.608-.576.31-.431.336-.565.273-.418.335-.464.359-.033.075.588.187.544.3.407.446.113.448-.057.546.079,1.451.838.831.2.658-.238.508-.146.459-.136.249-.135.162-.283.533.136.831.305.659.259.67.329.6.226.409.069.384-.363.212-.645.608-1.707.309-1.074.062-.656-.309-.2-.435-.146.087-.4.385-.8.26-.768.2-.566.372-.712.433-.475.386-.17.931.091.607.135.72.227.434.135.509-.022.335-.305.2-.352.087-.26-.212-1.99.038-1.177.7-.621h.843l.733.283,1.427.27.683-.135.446-.135.062-.646-.2-.544-.025-.588.249-.486-.1-1.335-.768-.566-.2-.61-.112-.736-.061-.949.223-.543,1.017-.283,1.031-.328.619-.294.323-.407-.05-.555.372-.566.782-.294.707-.136.77-.079.943.011.707.079,1.2.475.831.69.62.52.758.316.806.2.608.226,1.2.43,1.031.125.286.814-.348,1.425-.247.5-.683.09-1.354-.316.163,1.7-.075,1.019-.011.9.148,1.267.187.769.83.746,1.042.612.708.633.421.159,1.365-.747.31-.43.484-.362,1.043-.894-.521-.226-.609-.4-.161-.282.248-.272.533-.011.347.022.012-.464.061-2,2.123-.079,1.377-.045.6-.057,1.179.214.236.475.235.25.993-.1.806.227.447.282.558.476.384.35.037.635-.161.588-.224.542-.235.8.05.8,1.042.135,1.76-.022,1.663-.046,1.4.079,1.08.4-.323.5-.435.351-.31.407-.088.543.323.6.448.385.681-.261.833-.4.769-.079,1.005.034.36.215.012.294.174.984.2,2,.26,1.03v.848l.074.679.273.543.931.157.694.046.808.44.174,1.981.062,1.628.694,2.094.471,1.073.435.532.2.441-.224.441-.273.5-.075.464v.611l.4.305.781-.011.46.158.509,1.832.247.939.421.451.534-.1.46-.294.656-.011,2.059.035,1.156.509,1.028.792,1.416.951.234.6.052,3.891.011.668.658.2.37.024.186.588-.731,1.221-.372,1.8-.459.487-1.142,1.176-.359,1.256-.732,2.149-.968,3.8-.025,1.3-.211,2.263.148,1.008.1,1.447.248.6.348.734-.235.071-.348.3-.324.086-.272.016-.856-.226-.769-.012-.906-.181-.658-.232-.707-.051-.371.017-.349.04-.421-.075-.534-.164-.471-.08-.572,0-.6.062-.395.006-.51.051-.707-.17-.6-.244-.446-.238-.546-.447-.423-.4-.868-.086-.472.182-.421.26-.335.374-.473.5-.956.476-.818.412-.361.216-.706.226-.448.136-.658.209-.509.159-.77.14-.707.148-.582.045-.447.148-.274.209-1.079.463-.347.153-.286.035-.273-.108-.273-.084-.162-.2-.11-.232-.05-.3.024-.368v-.192l-.174-.17-.409-.091-.3-.2-.387-.414-.26-.4-.223-.356-.21-.186-.373-.238-.51-.119-.348.119-.284.18-.162.249-.087.369-.05.4-.112.318-.224.141-.235.067-.349.012-.162.017-.311.147-.123.231.186.351.26.215,1.241.424.273.312.21.283.211.26.149.3.4.107.484.13.471.21.608.259.038.278-.1.259-.187.294-.236.594-.608.465-.509.462-1.352.527-1.081.119-.806-.051-.646-.006-.583.176-.434.045h-.459l-.448.039-.347.226-.359.667-.3-.113-.261.142-.163.323-.073.435-.05,1.329-.012.86.472,1.815.26,1.639-.05.736.113.967.2,1.052.248.389.5.493.36.3.173.44-.013.559-.248.493-.335.69-.843,1.25-.1.588.075.458.409.453.471.712.782,1.046.607.548.422.561.224.526.137,1.022.123,1.437-.074.357-.124.452-.236.52-.533.566-.695.339-.819.307-1.662.447-1.862.9-1.092.781-.621.674-.336.6-.408,1.069-.236.549h-.906l-.236-.033-.259.03-.621.239-.423.187-.446.084-.359-.028-.522-.113-.521-.175-.646-.266-.72-.176-.694.034-.409.186-.533.389-.683.561-.558.186-.483.13-.448.1-.435.068-.422-.045-.558-.136-.632-.209-.895-.3-.868-.329-.62.029-.446.221-.322.17-.248.215-.362.3-.358.239-.534.1-.409-.068-.609-.356-.311-.849-.186-.8-.21-.849-.3-.321-.434-.17-.521-.181-.857-.255-.571-.175-1-.548-.7-.209-.608-.085-.583.113h-.25l-.383-.119-.273-.288-.36-.612.16-.7.175-.441.283-.577.262-1.1-.174-.735-.112-.82-.16-.656.137-.588.285-.339.236-.193.124-.3.075-.6-.025-.464-.2-1.108-.112-.515-.174-.707-.322-.679-.584-.458-.546-.243-.484-.146-1.054-.249-.932-.209-.769-.47-.435-.429-.1-.4-.024-.724.2-1.131.037-.672-.175-.446-.335-.431-1.2-.967-.447-.882-.508-.962-.758-.736-1.538-.894-.856-.8-.867-.955-.485-.787-.261-.871-.3-1.526-.087-1.1-.2-.667-.485-.526-.806-.486-1.289-.559-.558-.255-.311-.352-.249-.378-.21-.294-.087-.374.062-.214.26-.38.509-1,.111-.639-.012-.464-.123-.31-.36-.243-.384-.164-.571-.147-1.229-.029-.868.079-1.068.187-.841.18-1.317.04-.558-.045-.3-.13-.384-.1-.335-.238-.236-.374-.074-.469-.013-.5-.136-.61-.384-.221-.372.023-.3.118-.286.216-.235.684-.149.581.3.708.136.661-.235.322-.334.232-.31.135-.709.006-1.588-.21-1.477-.186-1.315-.148-.756.029-.633.1-.422-.073-.583-.221-.522-.215-1.676-.889-1.563-.69-.485-.385-.359-.707-.5-1.024-.683-.65-.608-.639-.434-.13-1.427-.385-.557-.627-.6-.86-.446-.368-.806-.877-.511-.719-.26-.514-.074-.414.063-.972.322-1.058-.012-.849-.149-.413-.633-.6-.72-.277-.559-.442-.818-.9-.571-.565-.212-.452-.075-.436.05-.572-.013-1.046-.173-.452-.583-.707-.124-.592,1.092-.03.5.011.633.045.483-.453.249-.294.721.2,1.55.045.832.09.558-.124.062-.521.125-1.946.422-.779.359-.25.483-.113.734.157.745.181,1.5.17,1.787.544,1.154.305,1.6.135,1.564.6.93-.079.6-.4.3-.611.075-1.075.187-2.7.223-.373.67-.306.547-.453.3-.566.471-.588.508-.566.646.373.471.238.907.226,1.03.26,1.414-.2.782-.5.384-.057.72.09.385.226.31.034.844-.147.434-.214.694.044.322.317.558.09.708-.022,1.155.136.731.237.682-.418.906-.634,1.614-1.922,1.142-.148-.087-.667-.125-.577-.136-.43-.249-.248-.285-.26-.347-.113-.8-.917-.2-.362-.41-.419-.978-.305-.311-.429.025-.465.323-.429.124-.509-.806-.906-.348-.792-.286-.644-.1-.758.05-1.018.756-.758" transform="translate(-2006.08 -702.433)"  stroke="#fff" stroke-linecap="square" stroke-linejoin="bevel" stroke-width="1" fill-rule="evenodd"/>
      <text id="335" transform="translate(49.753 49.445)" fill="#fff" font-size="13"  font-family="OpenSans-Bold, Open Sans" font-weight="700"><tspan x="-19.599" y="0"></tspan></text>
    </g>
    <g id="_337_Samudrapur" data-name="337 Samudrapur" transform="translate(2103.118 344.69)">
      <path id="talId337" fill="#7DB8EC" title="Samudrapur Taluka" data-name="Samudrapur" d="M2070.089,713.354l.124-1.177.424-.826.36-.8.248-.418,2.007-.815.6-1.018-.162-.679-.509-1.278-.36-.951-.436-.622-.37-.124-.508-.136-.3-1.075-.05-.679-.323-.61-.459-.317h-.522l-.621-.022-.52-.1-.658-.475-.483-.431-.285-.372-.472-.328-.658.022-.634.239-.4.261-.4-.08-.411-.34.05-.712-.634-.8-.037-.725.236-.554.075-.8.36-.419.583.09.433.294.347.035.223-.307.062-.383.138-1.008.248-.407.4-.294.248-.723.247-.86.758-.476.583.091.732.555.559.226,1.03.294.658.057,1.017.349.708.1.682.057.584.011.446-.3.99-1.641.087-.973-.087-.52-.718-.871-.212-.532.535-.2.481-.023.36-.044.138-.238-.21-.622-.6-1.652.162-.814.533-.34,1.03.113.968-.011.708-.045.668-.09.461-1,.421-.893-.011-.5-.732-.544-.572-.611.2-1.425.109-.735.337-.42.955-.169,1.3-.94,1.5-.35,1.813-.068.9-.271.845-.577.683-.124,2.1-.736.236-1.177.049-.916.471-.373.846-.067.894.022h1.077l.945.079.509.044,1.042-1.424.236-.928.88.17.82.35.52.158.547.057.285-.408.1-.373.086-.34.088-.724,1.873.334.682.153.523.13.408.219.362.137.432.091.5.147.235.373-.013.283-.074,2.036-.05.31-.2.125-.434.078-.309.193-.05,1.826.026,1.16.05.458.062.272.606.051.4-.006,1.539-.164.558.226.3.328.358.379.36.367.67,1.256.4.17.844.068.584.305.484.276.469.135.523.153.633.136.883.294,1.028-.006.732.091.559.051.5-.029.558-.135.422-.146.36-.192.3-.227.3-.13.137.294-.012.318.012.4.025.442.074.73.137.859.322.17.448-.164.509-.057.558-.051.522-.027.67-.312.556-.057.248.006.088.288.1.278.237.2.287.2.062.577v.379l.236.334.844.124,1.414.073,1.291.152,1.527-.106.384-.55.112-.244.36.126.173.135.175.226.3.357.35.2.521.051.5.006.783-.023.332.08.025.5.024.429.062.385.2.8.335.458.509-.006.633.108.943.091,1.55.141.658.141.758.056.234.267.088.582.026.559.137.475.36.2.879.311.931.339.684.1,1.215.68.2.379.222.248.559-.113.509-.21.461-.193.992-.372.447-.2.358.312.124.729.448,1,.235.542.373.86.086.4-.086.368-.186.571-.261,1.114-.074.441-.113.747-.085.6.421.153.4-.17.6-.034.374.226.161.453.484.334.757.294.583.169.67.034.459.018.7.406.546.306,1.189.339,1.416.062,1.092.075.087.367.073.52.036.431.163.938.148.9-.05.685.1.486.511.4.111.132.149.191-.049.333-.062.453.074.8.1.645.572.18.5.035.683.131.42.056,1.043.356.508.182.6.328.483.176.46.192.348.244.136.215.06.271-.084.311-.051.4.086.893.1.5-.087.69-.086.576-.05,1.318.05.358.458.2.385.243.248.3.1.294.149.316.086.141.62.023.4.407.2.082.236-.036.162-.1.124-.057.175-.071.382-.209.187.005-.062.349.037.361.037,1.044.348.159.4.147-.062.951.135.723.161.453.075.588.149.61-.05.8.21.221.311-.107.212-.289.135-.407.089-.232.372-.1.447.016.693.062.758.244.746.1.582.136.348.124.434.4.371.7.5.44.362.261.621.385.346.181.412.226.358.215.5.639-.062.837-.223.421.162,1.717.185.678-.025.735v.516l-.025.446-.135.577-.237.464-.434.429-.261.356-.175.306-.073.843-.027.775-.011.934-.3.407-.484.363-.175.288-.024.276-.123.312-.224.119-.423.1-.345.084-.174.3-.286.069-.5-.1-.608-.04-.486.135-.756.358-.4.447-.682.52-.658.593-.5.911-.658,1.183-.3.6-.15.2-.248.141-.113.267-.112.576-.074.871-.038.888-.037.327-.061.272-.173.312-.185.214-.26.051-.238-.051-.3-.2-.346-.175-.473-.159-.186.011-.347.068-.2.029-.719.277-.112.486-.135.668-.312,1.221-.21,1.346-.273,1.352-.175.933-.248.56-.794.855-.271.147-.225.317-.05,1.5-.137.486-.173.172-.3-.212-.42-.248-.348-.323-.236-.289-.36-.157-.372-.073-.31-.04-1.079.011-.694.04-.36.078-.2.114-.063.283-.2.763-.089.752.027.8-.461.871-.633.634-.372.775-.285.446-.1.447.111.458.014.475-.062.255-.758.152-1.823.944-.919.589-.4.034-.26-.243-.47-.521-.236-.193-.373-.055-.7-.046-.4-.027-.558-.079-.336-.187-.384-.266-.223-.113-.173-.44-.1-.435-.111-.334-.6-.294-.621-.209-.669-.057-.547-.016-.867.074-.746-.091-1.562-.339-.646-.294-1.054-.294-.881-.267-.744-.186-.857-.124-1.077.08-.708.175-.535.26-.31.1-.46.073-.223-.322-.249-.226-.37-.09-.248-.012-.087-.1-.062-.267.062-.379.062-.384.038-.39-.062-.182-.435-.068-.174-.163-.037-.357-.062-.2-.285-.057-.421.006-.311.107-.138.243-.334.1-.646-.125-.272-.408-.123-.265-.223-.254-.372-.136-.521-.1-.721-.177-.5-.141-.471-.1-.3.028-.162.13-.394.553-.187.4-.175.38-.346.135-.224.091-.3.13-.436.146-.087.25-.05.695-.087.47-.918.989-.321.4-.2.4-.159,1.16-.037.419-.151.374-.247.214-.312.305-.4.148-.224.237-.212.3-.135.226-.237.294-.249.095-.26-.084-.26-.175-.15-.25-.162-.542-.112-.329-.321-.514-.174-.267-.175-.2-.571-.559-.334-.5-.335-.345-.3-.164-.285.074-.087.2-.062.384-.124.214-.248.175-.448.3-.2.159-.707.186-.634-.04-.508-.062-.634-.186-.681-.018-.621-.068-.284.193-.062.215v.663l.3,1.261-.225.672-.111.272-.311.344-.546.431-.2.548-.149.644-.111.413-.323.493-.633.463-.458.384-.225.38-.234.735-.185.317-.286.2-.31.024-.434-.1-.337-.188-.447-.106-.1.031-.348-.733-.249-.6-.1-1.447-.15-1.008.211-2.262.024-1.3.97-3.8.732-2.149.36-1.256,1.141-1.176.459-.487.374-1.8.731-1.221-.186-.588-.371-.023-.658-.2-.014-.667-.049-3.891-.235-.6-1.414-.951-1.031-.792-1.154-.509-2.06-.035-.658.012-.457.294-.535.1-.421-.452-.248-.939-.509-1.832-.459-.158-.782.011-.4-.305v-.61l.074-.464.275-.5.223-.442-.2-.441-.434-.532-.473-1.073-.693-2.093-.062-1.628-.173-1.98-.808-.441-.7-.046-.93-.158-.272-.544-.074-.678v-.848l-.26-1.03-.2-2-.173-.984-.014-.294-.359-.216-1.005-.034-.77.08-.832.4-.681.26-.446-.384-.324-.6.087-.544.309-.407.436-.351.323-.5-1.079-.4-1.4-.079-1.661.046-1.764.023-1.041-.135-.05-.8.234-.8.224-.542.162-.588-.038-.634-.384-.35-.557-.475-.447-.283-.807-.226-.993.1-.237-.249-.237-.476-1.178-.215-.6.057-1.377.045-2.122.079-.062,2-.013.464-.346-.022-.536.011-.248.272.161.283.609.4.523.226-1.045.893-.482.363-.312.429-1.362.747-.421-.158-.708-.633-1.043-.612-.83-.746-.187-.77-.148-1.267.013-.9.073-1.019-.161-1.7,1.351.317.683-.091.249-.5.347-1.425-.286-.814" transform="translate(-2063.699 -669.873)"  stroke="#fff" stroke-linecap="square" stroke-linejoin="bevel" stroke-width="1" fill-rule="evenodd"/>
      <text id="337" transform="translate(40.305 52.906)" fill="#fff" font-size="13"  font-family="OpenSans-Bold, Open Sans" font-weight="700"><tspan x="-21.154" y="0"></tspan></text>
    </g>
  </g>
</svg>
