<svg xmlns="http://www.w3.org/2000/svg" width="347.065" height="300.997" viewBox="0 0 347.065 300.997">
  <g id="Group_5" data-name="Group 5" transform="translate(-1040.204 -1277.657)">
    <g id="_226_Karanja" data-name="226 Karanja" transform="translate(1269.589 1278.328)">
      <path id="talId226" fill="#7DB8EC" title="Karanja Taluka" data-name="Karanja Taluka" d="M1788.825,797.592l-1.308-.487-.707-.137-.421-.549-.527-.713-1.715-1.11-1.323-.439-.753-.124-.541-.3-.6-.357-.691-.193-.617.013-1.037.1-.9.027-.72-.124-.032-.973.42-.453.076-.767-.136-1.482.3-1.371-.21-3.428-.316-.11-.511.686-.8.726-.452.7-.57.521.089-.85.12-1.042-.331-.59-.423-.11-1.022-.1-.842-.109-.692.041-.693.274-1.157.7-.226.59-.076.809v1.262l.512.821.03.605-.061.63-.2.356-1.475,1.083-1.984.644-1.2.029-.992-.289-1.235-.4-.676-.22-.5-.577-.376-.89-.272-.617-.436-.439-1.384-.166-.36-1.15-.5-.1-.81.493-.587.206-.723-.179-.872-.327-.889-.371-.632-.26-.556-.494-.405-1.179.014-.973-.5-.659-.211-.547-.076-.7-.075-.712-.121-1.139.919-.253.376-.2.075-.474.046-.577.284-1.227.03-.521-.134-.5-.24-.754.81-1.1.543-.816,1.023-1.152.706-.07.526.083.933.1.887.006.347-.212.03-.4.045-.931-.075-1.379-.437-.37-.285-.371-.631-.37-.707-.225-.8-.193-.691-.2-.827-.15-.512-.247-.571-.123-.693-.227.271-.713.212-.336.224-.46.167-.6-.031-.664v-.7l.874.131,1.428.1.842.234.526.1,1.1-.035,1.7-.247,2.031-.035.8.077.526.041.842-.013.557-.384.662.081.647.075.706.11.3.206.149.445.045,1.482.09.775v.41l-.03.44-.09.26-.286.6.014.809.091.089.784-.22.809-.219,1.371-.323,1.007-.247.436-1.405.091-1.289.15-1.493.2-.185.8-.461.331-.713.647-1.912.648-2.455.931-3.064.286-1.27-.947-.041-.5.014-.693.035-.375.246-.435.384-.618.123-.437-.219-1.052-.076h-.708l-.949.008-.585-.254-.406-.226-1.04.034-.06.788-.015.638-.075.437-.451.432-.662.179-.857-.241-.857-.239-.8-.179-.467-.041-.841-.1-.466-.342-.888.034-1.066-.433-.6-.157-.482-.109-.752-.22-.617-.137-.451-.385.014-.129.166-1.254.136-1.228.167-1.228.735-1.55.391-1.131.255-.48-.045-.391L1758.2,747l-.361-.2-.436-.014-.782-.062.21-3.127.21-1.974.227-1.763.226-.946.089-.692.316-.4.737.521,1.174.782,1.082.465,1.309.418,1.715.343.721.014.272-.2.254-.418.226-.549.213-.714.39-1.091.661-1.26.466-.137.753-.193.976-.171,1.656-.212.978-.132.466-.142.932-.034.843.158.646.26.964-.3.18-.337.677-.419.633-.465,1.323-.589,1.308-.823.873-.878.167-.4.074-.384-.135-.342-.241-.638-.031-1.3-.316-.946-.044-.466.03-.473.165-.377.572-.411.468-.308,1.156-.536,3.535.028.406.31,1.083-.047,5.024.129.783-.048.467-.13.315-.357.511-.514.437-.268.571-.295.422-.212.48-.507.2-1.53-.032-.56-.1-.4-.3-.281-.332-.109-.465.089-.436.068-.288.048-.374.022-.271-.172-.181-.521-.526-1.055-.391-.529-.617-.906-.9-.782-.511-.636-.527-.528-.585-.5-1.564.068-.571-.076h-.843l-.542-.246-.9-.1-.737-.047-.8-.082-.435-.048-.617-.254-.257-.129-.09-.343.061-.281.391-.261.361-.412.539-.714.542-.6.288-.617.3-.4.391-1.172.5-.185.48-.137.316-.214.211-.41.347-.317.931.035,1.28.268.977.116.647.007.542.314,1.233.138h.723l.466-.192.1-.391.227-.343,1.352-.019.483-.09.421-.253.42-.1.557.447.752.109,1.415.17,1.7.145.754-.239.587-.33.449-.535.573-.9,1.249-1.879.33-.809.045-.528v-.419l.03-.486.287-.447.361-.075.647.083.843.568.661.384.617.3.617.686.374.6.423,1.33.225.83.136.48.226.48.181.069.571-.008.692-.027.512-.247.407-.823.286-.528.315-.563.285-.767.032-1.152-.257-.412-.345-.274-.136-.357-.075-.424.09-.522.436-.062,1.053.11,2.151-.225,1.173-.166,1.55-.157,1.85-.076-.119-1.172-.061-.721-.165-.575-.076-.5-.181-.734-.616-.849-.511-.035-1.009-.1-.5-.006-1.143-.056-.331-.342-.617-.082-.526-.021-.42.007-.391-.014-.242-.247.091-.31.271-.362.24-.294.662-.069,1.068-.041,2.272-.316,1.263-.027.872-.212,1.354-.289,1.341-.129.706.322.9.33.452.137.8.274.723.137.646.179.586.027.422-.494.391-.521.226-.466.315-.59.467-.412h.691l.557.1.422-.054.361-.618.226-.863-.06-1.22.18-.823.738-.507.345-.342-.165-.48-.227-.6-.045-.59.5-.275,3.144.1.707.013.21.069.286.349.271.447.465.458.316.239.407.171.678.076.782.213.827.177.632.337,1.624.609.811.158,1.188.11.814.137,1.052.137,1.324.4,1.158.26.949.44-.137.547-.375.727-.271.617.046,1.016-.137.876.271.742.528.6.676.4.587.4.015.729.195,1.1-.48,1.63-.392,1.345-.556,1.933-.241.754.045.823.766.536-.241,2.935.378.753.45.014.994-.041,2.6-.646.752-.246.527-.014.691.329.06.6-.315.657-.527.385-.5.59-.407.781-.1,1.152,1.354.26.676.164.963.262.241,2.549-.254.85-.318.37-.405.343-.556.479-.181.44-.03.672-.24.577-.332.4-.5.356-.407.973-.421,1.235-.015.609-.209,1.11-.091,2.372-.1.481-.242.034-.437.061-.1.48-.226.837-.436,1.975-.646,1.59-1.145,2.208-.362.863-.224.625-.316.273-.466.2-.105.719-.3,1.138-.361.63-.24.576-.091.5v.52l.436.145.9.212,1.654.2,1.564.219,2.272.079-.226,1.66-.121,1.393-.51,2.082-.346,1.059-.723,1.615-.375,2.008-.152.763.06.488,1.115.044,1.037.223.768.045.57-.134.482-.459.557-.585.587-.283.978-.429,1.233-.9,1.294-.2,1.654.051,1.746.468,1.5.7.887.273.662.327V755l-.841.97-.362.393-1.43.163-.858.022-.947.155-.646.149-.873.193-.77.17-.855.689-.453.7-.436,1.532-.376,2.756-.151.379-.8.044-1.1.459-.707.585-.136.454-.016.289.286.192.6.03v.444l-.317.749-.12.629-.06.719-.15,2.171-.361.689-.482.652-.587.711-.166,4.726-.616.948-.437.993-.662,1.112-.421.311-.617.015-.541-.156-.467-.363-.6-.459-1.052-.571-1.459-.7-1.64-.889-1.052-.3-.948-.415.029-.657-.27-.412-.5.44-.333.329-.361.315.332.727v.7l-.316.561-.3.384-.527.056-.856-.11-.74.494-.586.959-1.067,1.152.5.6.54.425.182.919.181,1.221v.823l-.693.547-.9.906-1.114.737-.872.092-.557.131.091,1.083.345,1.228.678.719.36.618.016,1.357-.106.555-.541-.151-.648-.651-.871-.335-.632-.166-.631-.11-.466.206-.361.344-.091,1.474-.181.946-.42.686-.647.733-.768.713-.391.227-.1.349-.588.062-.978-.877-.707-1.042-.391-.74-.468-1.056-.119-.631-.423-.878-.554.1-.587.453-.5.507-.6.8-1.307.041-.738-.37-.721-.754-1.055-.783-2.015-1.139-1.022-.247-1.865-.259-1.279.205-2.047.207-2.15.493-1.022.383-.5.453-.736,1-.241.919-.182.906-.075,1.013-.3.591-.616.315-.423.178-1.232-.357-.435-.616.1-1.727.017-1.892.042-.782-.345-.919-.391-.85-1.323-1.124-.95.028-.991.439-.437.9-.105,1.316-1.188,1.906-.405.809-.467.849-.345.769-.2.589-.5.96-.736.548-.753.3-.512.027-.633-.329-.1-.48-.5-.424-1.941-.535-1.895-.96-.646-.164-.453.027-.51.351-.844.856-.677.72" transform="translate(-1751.94 -685.943)"  stroke="#fff" stroke-linecap="square" stroke-linejoin="bevel" stroke-width="1" fill-rule="evenodd"/>
      <text id="talId226count" transform="translate(43.982 74.651)" fill="#fff" font-size="10"  font-family="OpenSans-Bold, Open Sans" font-weight="700"><tspan x="0" y="0"></tspan></text>
    </g>
    <g id="_229_Manora" data-name="229 Manora" transform="translate(1281.995 1381.372)">
      <path id="talId229" fill="#7DB8EC"  title="Manora Taluka" data-name="Manora Taluka" d="M1858.087,815.856l-.391.507-.241.72-.149.7-.528.912-1.264,3.311-1.188,2.728-.5,1.084-.137,1.235.016.617.24.356.391.165.6.144.212.172-.135.426-.468,1.761-1.368,1.193-.963.96-.572,1.358-.4.692-.227.445.315.268.435.131.467.116.331.219-.18,2.392.165.659.3.295.437.185.15.445.046.281.6.027,1.565-.062.48-.4.738-.014.812.323.721.35.829.7.753.433.419.062.529-.056.419-.089.588.212.075.487-.256.37-.332.9-.1,1.193-.18.905-.2,1.254-.391,1.014-.211.48-.061.439.136.453.181.315.21.13,1.745.185.228.316-.107.493-.1.563-.182.9-.208.673-.407.672-1.655,3.161-.8,1.432-.074,1.583-.255,1.858-.046,1.433-.224,1.124-.272.193-.4.343-.135.383-.181.33-.648.253-.677.069-.376.041-.526.275-.572.912-.121.986-.06.616v1.475l-.586,2.311-.377.707-.872.24-.843.356-.631.383-.722.892-.211.5-.1.863-.121,1.493-.8.839-.586.431-.421.344-.135.493-.016.425-.075.61-1.294,1.1-.4.638-.317.492-.2.357-.315,1.893-.151.808-.046.439-.24.123-.647-.705-.451-.563-.737-.26-.752.158-.874.177-.676.233-.753.1-.781.441-.557.464-.494.058-.513.014-.857.247-.436-.024-.331-.244-.33-.254-.363-.165-.331,0-.256.134-.361.312-1.052.97-.512.234-.271-.028-.3-.247-.451-.234-.377.056-.495.287-.256.241-.271.445-.271.288-.36.027-.347-.218-.572-.262-.588-.369-1.473-1.727-.376-.844v-.41l-.347-.323-.405-.041-.345.021-.467-.089-.09-.776-.421-.137-.165-.089-.241-.439-.346-.239-.346.013-.407.11-.315.1-.392-.254-.678-1.426.016-.727.044-.521.105-.33-.029-.337-.332-.349-.315-.782-.408-.671-.45-.9-.557-.378-.556-.335-.271-.241-1.189-.842-.481-.619-.572-.85-.6-1.5-.663-.74-.992-.665-.617-.9-.512-.734-.391-.672-.18-1.035-.166-.767-.406-.2-.451.2-.692.309-.541.213-.632.3-.723.274-1.368.672-1.189.411-.857.351-.557.239-.362.151-.662.323-.9,1.268-.347.485-.422.276-.735.191-.676.207-1.008-.083-.376-.336-.2-.35-.3-.48-.348-.2-.48-.185h-.376l-.406.234-.377.281-.465.363-1.113.891-.633.885-1.6,1.268-.856.72-1.143.035-.933.081-.631-.027-.421-.1-.422-.177-.617-.165-1.76-.328-.828-.254-.767-.075-1.128-.282-1.187-.343-.9-.26-.708-.15-.5-.144-.466-.255-.422-.453-.512-.1-1.173-.322-.557-.308-.526-.329-.316-.335-.3-.364-.5-.1-.841.048-1.761-.042-.9.09-.993-.165-.361-.273-1.173-.646-1.265.144-.887-.067-.511-.276-.542-.52-.932-.721-.662-.493-1.038-.59-.662-.314-.542-.536-.542-.48-.377-.212-.435-.611-1.233-1.029-.016-.794.406-1.028-.044-.837-.255-.753-.031-.48v-.975l-.09-.793.2-.577.813-.412.751-.931.3-.659.255-.52.693-.22.781-.413.618-.327.917-.179.782.027.737.027.918-.137,2.39-2.1.722-.989.226-.671.151-.741-.361-.273-.5.329-.481.549-.932-.1-.181-.645-.03-.507.346-.466.557-.357.2-.506.061-.467-.316-.617-1.1-.013-.512-.783v-1.029l.271-.974.557-.726.738-.644.8-.385,1.188-.342,1.159-.109,1.729.218.92.289.541.054.752-.027,1.1-.7.722-.424.526-.522-.091-2.152-1.037-.548-1.144-1.865-.827-.617-.527-.535-.481-.891-.453-.59-.314-.439-.724-.274-.615.124-.437.219-.436.027-.526-.3-.332-.959-.045-1.069.452-.33,1.911-2.1,2.225-2.742,1.565-1.906.435-.892,4.048.4,2.031.192.707.26,1.474-.177.287-.467.164-.919.393-1.18.029-1.152-.451-.493.045-.836.436-1.48.271-.81-.075-.768-.677-.274-2,.15-1.443.015h-1.038l-.211-1.056.121-.973.557-.316,1.053-.3.948-.123,1.187-.3.136-2.249-.781-1.235-1.265-.753-1.534-1.043-.978-1.056.437-.808.722-.672.933-.069.783-.425.888-.616.57-.289,2.151-.713.737-.986.542-.412.736,1.564.979,1.343.677.685.736.481,1.445.343,2.2.464,3.279-.123,1.2-.7.617-.782.286-.877.331-.852L1801.3,799l.452-.917-.9-1.029-1.173-.316-2.333-.507-1.083-.274-1.188-.275-.451-.26.541-.576.573-.508,1.052-.549.947-.48.828-.4,1.88-1.48.09-3.58.422-4.566.016-3.525.241-2.961.119-1.7V773.2l-1.88-.535-1.88-.89-.843-.343-.826.07-.422.177-.585-.054-.573-.343-.721-.137-.784-.056-.555.056.059.411.362.453.331.411.135.865-.616.328-.933-.068-.526-.316-.467-.6-.361-.287-.557-.26-.947-.316-.708-.013-1.8-.123-.587.178-.091.672-.224.726-.586-.48-.513-1.029-.118-1.44.058-1,.032-.905.3-.877.452-1.742.721-.987.376-.439.135-.439-.48-.37-.857-.287-.227-.185.679-.721.841-.855.511-.351.452-.027.645.164,1.9.96,1.94.535.5.424.106.48.631.33.513-.027.75-.3.738-.548.5-.959.2-.59.346-.769.466-.85.405-.81,1.191-1.906.1-1.316.436-.9.993-.439.947-.027,1.324,1.123.393.85.344.918-.045.782-.014,1.893-.1,1.727.434.616,1.234.357.421-.178.616-.316.3-.589.076-1.014.18-.906.242-.918.737-1,.5-.453,1.023-.384,2.152-.493,2.045-.207,1.278-.206,1.865.26,1.024.247,2.014,1.139,1.054.781.722.753.738.371,1.308-.041.6-.795.5-.508.586-.452.558-.1.421.878.121.63.466,1.056.392.74.706,1.042.979.877.586-.062.121,1.035-.272,1.3-.255.959.149,1.467.239,2.118.452,1.289.466,1.037.33.273.331.322-.436,1.172-.947.843-1.641,1.686-.269.337.3.568-.272.92.106.713.046.486-.06.461-.557,1.959.061.646.119.842.016.542.164,2.152.06.555.527.139.842-.077.572-.3.557.52.421.426.632.287.646.056.648.082-.046,1.674.5,1.15-.091,1.07-.045.7.557.851.3,1,.241.41.842.356.6.357.6.563.029,7.46.829.027.9.054.811.138.979.247,1.158.389.407.2.059.432-.151.329-.255.4.06.63.3,1.193.076.432-.045,1.056.286.487.692.239.525.043.573.067,1.263.275,1.626.1,1.113.027.812-.006.768.617.888.815.948,1.1,1.188,1.185.557.248,2.331-.069,1.759.287.5.179.841.027.648.117.677.171.211.494v.582" transform="translate(-1760.28 -754.51)"  stroke="#fff" stroke-linecap="square" stroke-linejoin="bevel" stroke-width="1" fill-rule="evenodd"/>
      <text id="talId229count" transform="translate(39.576 78.607)" fill="#fff" font-size="10"  font-family="OpenSans-Bold, Open Sans" font-weight="700"><tspan x="0" y="0"></tspan></text>
    </g>
    <g id="_228_Mangrulpir" data-name="228 Mangrulpir" transform="translate(1212.38 1364.83)">
      <path id="talId228" fill="#7DB8EC" title="Mangrulpir Taluka" data-name="Mangrulpir Taluka" d="M1785.4,871.118l-.287.212.3.665.286.268.362.349.255.405.165.44.029.322-.059.412-.1.384-.812,1.584-.436.5-.421.426-.377.357-.36.329-.376.185-.422.143-.511.123-.618.206-.706-.3-.646-.191-.6-.412-.317-.493-.013-2.235.058-.52.091-.769-.18-1-.526-.712-.708-.07-1.189-.191-.767.014-.616.192-.422.495-.42.493-.543.548-.692.166-.887-.056-.6-.081-.783-.413-.767-.739.029-.507,1.114-2.455.255-1.22.091-1.4.181-2.386.526-1.865.09-.973-2.03-.809-.842-.6-.528-.63-.706-1.193-.572-1.469-1.007-.617-1.144-.274-1.2-.383-1.835-.892-1.022-.8-1.264-.931-.917-1.208-.512-.274-1.623-.164-1.61-.589-.9-.576-.993-.55-.106-.616.256-1.014,1.024-2.715.841-.865,1.536-1.521-1.55-.562-1.2-.343-.993-.179-1.127-.2-1.085.027-.977-.37-.873-.123-.134-.29v-.561l.031-.549-.031-.452-.646-.261-.692-.356-.783-.657-.647-.714-1.037-1.1-.106-.671.241-.7.36-.234.648-.6-.361-.536-.03-1-.045-.631-.06-.535.33-.287.467-.138.886-.013v-.754l.136-.329.527-.439.361-.328.24-.576-.225-.466-.935.137-.511-.233-.691-.33-.617-.11-.466-.288-.225-1.343-.571-.96-.242-.782-.225-.727.211-.728.436-.726.752-1.138,1.7-2.029.466-.753.181-.783-.03-1.016-.225-.89-.242-.549-.45-.794-.376-.549.061-.4.45-.865-1.851.44-1.849.027-2.664.083-1.218-.164-1.293-.233-1.144-.343-1.187-.246-.6-.22.09-2.195.045-1.453.376-1.027.314-.838.528-1.357,1.219-2.893-.135-1.275-.451-.783-.285-.85.752-6.773-.241-.863-.828.054-1.368-.177-1.039-.275-1.082-.342-1.1-.206-.932-.137-.632-.206-.211-1.014-.376-.563-.706-.342-.708-.164-1.986-1.056-1.038-.932-.346-.466-.106-1.962-1.008-.22-3.4-.754-2.211-.233-1.248-.452-.257-1.344-.149-.643-.436-.742-1.414-1.04-1.218-1.455-.753-.775.3-.071.2-.144.1-.229.076-.645.165-.686.406-.672,1.2-1.083.467-.282.166-.315.1-.425.091-.5-.15-.4-.181-.432-.045-.316.09-.37.151-.212.3-.013.661.075,2.241.075.663.055.723-.076.812-.054.8-.295,1.068.067.481.357.287.165.5.076.586.083.51-.077.421-.2.407-.26.255-.357.377-.541.736-.4.768-1.013.677-1.337.225-.549.3-.762.226-1.027.181-1.68.076-.542-.212-.308-.346-.048-.54.014-.452.226-.453.027.046-.493-.241-1.263-.12-.384-.346-.321-.48-.166-.482-.083-.631-.143v-1l.075-.822.571-1.714.136-.638.075-.616.226-.5.962-.027.452-.062.406-.206.618-.493.194-.144.662-.02.8.02.872.09.616.1.467.225.332.432.225.46.3.391.405-.193.453-.24.572-.322,1.279.289.571.013.543-.212.66-.1.979.035.2-2.5.407-1.132.284-1.412.121-2.5.1-.3.287-.439.27-.349.558.088.6.035.481-.008.964-.336.691.006.782.214,1.084.225-.151,2.592v1.021l.227.646.721.295.421.252.782.234,2.2.316.587-.043.542-.088.315-.309.392-.1.586.152-.105,1.371-.031,1,.226.993.692,1.612.391,1.042.406,2,.511.9.678,1.42.676,1.823,1.173,1.061.437.193.421.048.527-.137.45-.09.736-.178,1.431-.616.3-.474.255-.486.031-.645-.046-2.3.2-1.52.15-1.364.316-1.482.316-.049.588.075.722-.046.435-.315.558-.48.811-.075.526-.008.512-.1.347-.172.271-.253.09-.406.211-.233.405.056.376.363.723.281.557.013.118,1.139.075.713.076.7.212.548.5.659-.016.973.407,1.18.555.493.633.26.888.371.872.328.722.179.587-.206.813-.493.5.1.362,1.151,1.383.166.436.438.271.617.376.891.5.575.676.22,1.234.4.992.288,1.2-.028,1.986-.645,1.473-1.083.2-.356.06-.63-.029-.6-.513-.821v-1.262l.076-.81.226-.589,1.158-.7.692-.274.693-.041.842.11,1.022.095.423.11.33.59-.121,1.042-.09.85.572-.52.451-.7.8-.726.512-.685.316.11.211,3.428-.3,1.371.136,1.481-.075.767-.422.453.03.973.721.124.9-.028,1.039-.1.616-.013.692.192.6.357.541.3.753.123,1.323.439,1.715,1.111.527.713.421.549.707.136,1.307.488.226.185.858.287.481.371-.135.439-.377.44-.722.987-.451,1.742-.3.877-.03.9-.06,1,.12,1.439.512,1.029.585.48.227-.727.091-.672.585-.178,1.806.124.706.013.948.316.557.26.361.287.467.6.526.316.934.067.615-.328-.136-.865-.33-.411-.361-.452-.059-.411.556-.056.783.056.722.137.572.342.585.055.421-.177.829-.07.842.343,1.879.891,1.882.536v1.905l-.121,1.7-.24,2.961-.015,3.525-.421,4.565-.091,3.58-1.88,1.48-.827.4-.947.479-1.054.549-.571.507-.54.576.45.26,1.188.276,1.083.274,2.332.506,1.174.316.9,1.029-.453.918.255,2.988-.331.851-.285.877-.617.782-1.2.7-3.279.123-2.2-.465-1.443-.343-.738-.48-.677-.686-.977-1.343-.737-1.565-.542.412-.738.987-2.15.713-.572.288-.888.617-.782.424-.934.069-.721.672-.437.808.977,1.056,1.535,1.043,1.263.754.784,1.234-.137,2.249-1.189.3-.947.124-1.054.3-.557.316-.119.973.21,1.056h1.038l1.443-.015,2-.151.678.274.075.768-.27.81-.436,1.479-.047.837.451.493-.028,1.152-.393,1.18-.164.918-.286.466-1.475.177-.706-.26-2.031-.192-4.047-.4-.435.892-1.565,1.906-2.227,2.742-1.91,2.1-.452.329.045,1.07.332.96.526.3.437-.027.438-.219.616-.123.722.274.316.439.451.59.48.891.527.535.829.617,1.142,1.865,1.038.548.091,2.153-.527.522-.723.424-1.1.7-.753.027-.541-.055-.917-.289-1.729-.218-1.16.109-1.188.342-.8.385-.736.644-.557.727-.272.973v1.029l.514.782,1.1.014.315.617-.061.466-.195.507-.557.357-.346.466.031.507.179.645.933.1.482-.549.5-.329.36.274-.151.742-.224.671-.722.988-2.392,2.1-.917.137-.737-.027-.783-.027-.917.179-.618.328-.782.412-.691.22-.256.52-.3.659-.752.931-.811.412-.2.576.09.794v.975l.031.479.255.754.043.836-.4,1.028.015.794,1.232,1.029.438.611" transform="translate(-1713.829 -743.398)"  stroke="#fff" stroke-linecap="square" stroke-linejoin="bevel" stroke-width="1" fill-rule="evenodd"/>
      <text id="talId228count" transform="translate(34.189 64.149)" fill="#fff" font-size="10"  font-family="OpenSans-Bold, Open Sans" font-weight="700"><tspan x="0" y="0"></tspan></text>
    </g>
    <g id="_227_Malegaon" data-name="227 Malegaon" transform="translate(1106.235 1373.101)">
      <path id="talId227" fill="#7DB8EC" title="Malegaon Taluka" data-name="Malegaon Taluka" d="M1704.462,878.852l-1.113-.014-.9-.219-.783-.274-.421-.37-.556-.206-.555.083-.964.028-1.158-.056-.647-.15-.347-.7.407-.274.542-.439.376-.562.226-.781.24-1.235-.21-.946-.363-1.055-5.655.3-.466,1.1-.135.946-.874.619-1.459-.329-1.01-.426-1.08-.177-.482.068-.766.536-.512.534-1.053.74-.826.1-.467-.7.256-.74.12-.686-.166-.59-.286-1.426.256-.521.45-.6.813-1.467-.376-.755-1.415-.164-.752-.11-1.037-.453-.751-.726-.407-1.357-.782-1.235-1.55-.383-.511.383-.661.686-.618.672-.571.713-.948.027-1.172-.3-.692-.288-1.024-.823L1669.7,863.8l-.722-1.714-1.325-.507-1.353-.426-1.4-.137-.9.027-.677-.452-1.489-.137-1.443-.357-.572.179-.526.233-.648-.426-.647-1.056-.677-.919-.633-.986-.06-.63-.405-.989-.3-.794-.361-1.345-.226-1.384.2-.439.21-.549-.406-1.631.467-.726.691-.44.783-.535,1.128-.247,1.158.466.918.823.511.645.6.534,1.112-.137,1.85-.645.782-.493.226-.508.031-5,1.173-.48,1.174-.316,1.669-.164.919-.069.6-.493.18-2.592.361-.836.075-.89-.422-.659-1.367-.411-.857-.562-.633-.754-1.038-1.455-.18-.876-.556-1.6-.587-1.289-.436-.975-.572-.781-.284-1.043-.5-.562.422-.4.256-.548-.331-.631-.8-.083-.466.123-.331.426-.15,2.126-.36,1.029-.587,1.673-.708,1.384-.376,1.083-.255,1.659-.692.713-.766.33-.5-.04-.737-1.029-.691-.576-1.458-1.207-.557-.589-.949-.6-1.052-.534-2.361-.673-1.188-.287-1.5-.33-1.248-.673-.857-.274-.858-.274-.678-.206-1.112-.528.089-.384-.045-.46.151-.563.572-1.041.391-.4.648-.555.8-.865.828-1.027.15-.466.423-1,.316-.746.149-1.777.03-1.008-.136-.857-.239-.6-.106-1.15-.06-.447-.21-.41-.136-.357.076-.377.194-.266.257-.186.3-.247.467-.349.225-.863-.18-.48-.2-.576-.165-.521-.121-.362-.631-1.046-.964-1.526.828-.123.347-.056.66-.247,1.31-.177.644-.2.619-1.083.8-.979.692-.823-.09-.446-.135-.247-.316-.2-.271-.412.09-.439.347-.534.617-.35.571.385,1.234-.042,1.339.329.421-.137.225-.268.224-.287.24-.275.287-.171.225.047.406.315.678.035.871.378.964.87.736,1.364.2,2.552.136.871.226.52.134.391.212.391.587.418,1.022.665.768-.479.587-.584.541-.761.738-.657.3-.412-.03-.431-.361-.3-.452-.171-.331-.206v-.753l.271-.727.3-.522.9-.582,1.369-.946,1.368-.973.828-.81.512-.179.527-.109.676-.652,1.475-1.137.571-.418.5-.26.377-.179.15-.288-.165-.275-.272-.191-.255-.035-.421.076-.2.062-.512.027-.315-.062-.451-.213-1.129-.555-.978-.562-.723-.335-.136-.35v-.658l.151-.445.3-.357.376-.3.406-2.016.481-1.734,1.459-1.317,1.67-1.946,1.428-1.517.858-.363.586-.192.331-.123.06-.426-.06-.342.12-.624.255-.878.391-.39.676-.22.6.075.45.123.451.411.392.309.406.246.677.123.165-.288.2-1.255.345-2.166.541-.515.151-.186.286-.11.33-.048.42.158.662.364.708.569,1.307.554.663.062,1.473.212.5-.028.481-.116.6-.665.692-.275.692-.234.692-.3.6-.062.452.035.587-.09.692-.266,1.069-.233.631-.166.3-.185.091-.308-.2-.315-.707-.692-.408-.472-.315-.728.03-.41.12-.364.226-.165h.572l.421.027.361.144.451.021.256-.275-.076-.671.015-.988-.015-.357.046-.2.347-.206.87-.233.361-.056.316-.234.165-.328.182-1.035.361-.262.225.021.347.1.3.1.422.15.466-.048.3-.268.015-.314-.242-.933-.24-.679-.166-.4-.211-.473-.256-.645-.18-1.062.36-.3.572-.1.556-.137.512-.13.526-.185.617-.2.285-.81.467-.445.224-.075.5.054.392.166.467.177.511.2.932.109.121-.273.075-.48-.015-.383-.031-1.454v-.993l-.014-2.895.209-.966,1.2-1.05.452-.643.407-.836.181-.426.224-.7.076-.692.076-.4.3-.254.435-.158.677-.129,1.1.068,2.421.22,1.625.316,1.866.3,1.97.321.738.22.8.185.18.378.1,1.008-.2,1.124-.766,1.008-.526,1.618-1.595,1.227-.587.829-.241,1.043-.256.925.016.316.166.541.391.611.556,1.365.165.884.09.609.031.6-.09.789-.617,1.775-.315.4-.3.747-.376.932.782.11h.227l.27.1.421.413.6.437.421.227.376-.035.076-.458.211-.467.6-.13,1.114-.239.992-.076,1.28-.267,1.113-.124,1.881.124,1.038-.124.676-.241.812-.329.572-.947.467-1.062.525-1.083.136-.6.03-1.289.121-.911-.031-.645-.181-.445-.165-.467-.045-.424.075-.241.255-.034.467.118.617.164,1.188.268.813.281.36.178.227.343.224.522.286.528.406.094.453-.225,1.157-.22.843.617.36.275.317.081.525-.13.527-.275v.611l-.03.527-.076.411.119.728.964.979.556.515.33.144h.813l.361-.22.346-.225.51-.363.03.843-.076.788-.135,1.576-.046.4.377.034.24-.062.3-.016.3.061.241.333.06.315.016.264.015.411-.106.357.2.394.437.509.088.288.167.278.2.164.226.168.227.072.256,0,.751.774L1751.3,775l1.414,1.041.436.742.15.644.256,1.343,1.249.453,2.211.234,3.4.753,1.007.22.106,1.962.346.465,1.038.933,1.986,1.056.705.164.707.343.377.563.21,1.015.631.205.934.137,1.1.206,1.082.343,1.038.274,1.368.177.827-.054.241.864-.752,6.773.285.85.453.783.135,1.276-1.219,2.893-.526,1.357-.316.838-.376,1.028-.045,1.453-.089,2.194.6.22,1.19.247,1.142.343,1.295.233,1.218.164-1.308,3.565-2.075,3.977-1.386-.015-1.654-.234-.752-.123-1.324-.9-1.4-1.1-.842-.823-2.874-1.715-.51.343-.631.356-.965.179-.811-.109-.9-.247-.617-.522-.134-.823-.315-.837-.918-.493-2.783-.823-1.805-.274-1.339-.069-3.445-.863-.661-.07-1.1.906-1.067.919-.061,7.981.8.027.873-.177.527-.3.781-.26.783-.287.572-.139.826.123,1.324.329,1.113.384.783.865-.466,2.029-.543,1.343-.72,1.343-1.415,1.208-.51.349-.541.59-.408.74.3,1.769.286.721.015,1.426-.481,1.453-.031.933-.061,1.247-1.218,1.249-.271.541-.6.459-.95.322-1.609.782-.466.363-.39.314-.074.432-.287.418-.182-.033-.466-.351-.45-.651-2.258-1.858-1.758-.178-.9.007-.633-.022-.09-.212-.061-.472-.059-.488-.18-.287-.422-.021-.318.171-.375.5-.512.657-1.866,2.03-.737.308-1.714.029-.859-.289-.917-.013-1.128.007h-.677l-.9-.206-.857-.227-1.068.227-.917.514-.422.124-.692.1-.587.192-.044.9.015,2.723-.062,1.145-.375.9.014,1.659.376.981.3.561.12.343-.1.453-.542.37-.9.137-1.1.179-.781.308-.677.534-.12.9,1.233.536,1.083.753.226.453-.046,1.961-.135,1.713.016,1.385-.285.274-.121.384.09.364.3.315.3.316.091.445-.1.557-.422.142-.556.1-.527-.383-.556-.227-.436.624.044.584-.044.493-.362.329-.436-.138-.962-.275-.963-.254-1.067-.349-.858-.576-1.655-.034-1.007.123-.512.337-.541.973-1.25,1.975.076,1.714-.212.664-.314.555-.332,1.1.06.679.3,1.021.361.9.255.823-.285,1.673-.046.418-.193.55-.016,1.1-.451,1.426-.045.6-.075.514-.376.335-.436.192-.932.575-.9.954" transform="translate(-1643.42 -748.74)"  stroke="#fff" stroke-linecap="square" stroke-linejoin="bevel" stroke-width="1" fill-rule="evenodd"/>
      <text id="talId227count" transform="translate(37.336 77.878)" fill="#fff" font-size="10"  font-family="OpenSans-Bold, Open Sans" font-weight="700"><tspan x="0" y="0"></tspan></text>
    </g>
    <g id="_230_Risod" data-name="230 Risod" transform="translate(1041.1 1448.919)">
      <path id="talId230" fill="#7DB8EC" title="Risod Taluka" data-name="Risod Taluka" d="M1728.984,875.347l-.813-.448-.75-.713-.633-.857-.737-.858-.617-.665-.527-.555-.1-.216-.225-.267-.345-.152-.363-.068-.3.127-.346.223-.075.26v.385l-.119.671-.046.866-.332,1.506-.708,2.346-.631.3-2.12.259-1.566.261-1.307.37-2.393,2.18-.9.8-1.277.287-1.714.1-1.745.029-.227.327-.527.714-.992.329-1.324.384-1.759.8-1.535.4-1.127.48-.693,1.1-3.836,1.863-2.587,1.153.045,3.016-.3.48-.241.248-.255.438-.753.712-.391-.41-.541-.632-2.844-.519-2.06-.261-1.159-.082-.405-.4-.031-.987-2.136-.508-1.309-.3-3.746-.522-2.136-.328-1.475-.015-.6.247-1.113,1.481-.511,2-1.445,4.318-1.505,3.319-1.382.056-3.341-.206-3.339-.452-3.534-.494-2.393-.274-1.775-.742-.15,2.029-.226,1.619-.151,2.825-.45,1.137-.362,1.042-.571.919-.555.877-.724.042-1.413-.59-2.3-1.193-1.128-.425-1.159,2.948-.512,1.289.362,1.96-.03,2.256-.36,2.29-.542,2.455-2.542.124-1.248.234-.844.418-1.488.2-1.219-.1-1.189-.166-.976-.171-.858-.15-.827-.439-.585-.234-.708-.233-.618-.212-.841.054-.692.35-.376.37-.106.528-.271.459-.767,1.082-.194.434v.375l.166.57.061.472-.256.612-.587.863-1.022,2.449-1.986,1.06-4.995-1.211-4.738-5.85.181-.22.271-.274.24-.453.677-1.726.872-1.42.812-1.426.468-.788.36-.748.255-.925-.075-.577-.136-.576-.2-.486-.555-.761-.318-.323-.662-.419-.54-.233-.736.029-1.235.3-1.172.144-1.474-.056-1.023.035-.24.091-.287.3-.27.309-.285.445-.331.452-.362.227-.465.5-.347.364-.436.419-.345.116-.526.076-.632-.2-1.384-.37-.392-.115-.466-.172-.557-.1-.33-.314.092-1.255-.045-.541.09-.522.21-.171.316-.164.167-.349.18-1.05.03-1.076-.03-.583-.121-.706-.271-.37-.15-.385-.3-.767-.076-.364-.167-.541-.2-.336-.317-.328-.39-.322-.257-.268-.044-.357.181-.362.466.013.617.116.451.123.693.185.617.13.752.137,1.429-.206.617-.04.465-.26.316-.289.588-.376.662-.425,1.007-.912.542-.432.076-.446.074-.809.03-.878-.089-.931-.121-.576-.044-1.091-.045-1.782-.361-.631-.09-.426-.046-.453.2-.528.152-.308.42-.452,1.247-.624.439-.281.751-.417.616-.206.542-.062,1.639-.432.873-.069,1.219.09.106-.631.09-.513.121-1.037.2-1.145.166-.343.059-.37-.18-.547-.406-.241-.406-.22-.6-.191-.6-.152-.736-.211-1.022-.248-.573-.391-.165-.3.06-.362.271-.426,1.2-1.734,1.219-2.008.526-1.055.391-2.3.225-2.119.046-1.912.043-1.872.483-1.565.466-1.391.121-.938.029-2.482.09-.844-.18-.438-.346-.171-.947.04-1.114-.082-1.142-.048-1.023-.076-.978-.088-1.4-.027-.843-.075-1.052-.084-1.008-.26-.858-.206-.692-.1-.812-.2.016-1,.42-1.392.347-1.988.315-1.995.421-1.31.015-.576.059-.575.091-.494.1-.481.106-.451.121-.158h.3l.559.232.33.24.2.418-.03.431.09.625.332.8.2.507.06.514.09.3.09.17.271.077.165-.015.287-.116.377-.137.421-.007.332.069.406.1.361.11.511-.015.633-.1v-1.562l.06-2.838.421-1.434.241-1.324.4-.485.648-.569.511-.528.571-.351.6-.4-.271-1.268-.1-1.227-.375-1.715.045-.746.135-.6.782-.72.8-.514.5-.349.435-.412.287-.665.18-.52.24-.494.422-.187.466-.062,1.069.219,1.006.282,2.046.425.766.068.994.144,1.038.322.933-.186.631-.191,1.369-.185,1.309.142.662-.068.557-.2.751-.357.783-.218.5-.144.632-.164.874-.281,1.683.027.829.316.3.459.331.136.48-.027.708-.466.406-.336.391-.069.437.022.8-.076.993-.522,1.579-.172.707.1,1.052.24.436.021.481-.228.181-.5-.09-1.179.271-2.539.134-2.289.27-2.249.152-2.139-.106-.479-.435-.3-.512-.206-.723-.287-.6-.261-.481-.192-.692-.124-.135-.309.167-1.062.135-.742.091-1.206-.121-.719-.376-1.372.089-1.07-.18-.445-.526-.74-.182-1.3-.209-.858-.045-.521.1-.919.242-1.866.135-.431.421-.335.5-.22.511-.165.811-.2,1.639-.068,2.032-.007,1.385-.013,1.126.506.9.309,1.249.357,1.2.315.646-.04.436-.152.512-.314.226-.405.587-1.57.572-1.11,1.1-1.358.315-.37,1.068-.41.994.171.585.033.588.144.392.2.316.166.286-.11,1.112.529.677.206.858.273.856.273,1.25.672,1.5.329,1.188.288,2.361.672,1.053.535.948.6.557.59,1.458,1.206.691.576.738,1.029.5.041.767-.33.693-.712.255-1.659.375-1.084.708-1.383.586-1.673.361-1.029.152-2.125.329-.426.466-.124.8.083.332.629-.257.549-.422.4.5.562.285,1.042.57.781.437.975.587,1.289.558,1.6.18.877,1.037,1.454.634.754.856.563,1.369.41.421.659-.074.891-.361.836-.18,2.592-.6.493-.918.07-1.67.164-1.173.316-1.174.48-.03,5-.226.506-.783.494-1.848.645-1.114.137-.6-.534-.511-.645-.918-.823-1.158-.467-1.128.246-.781.536-.692.439-.467.727.407,1.631-.212.549-.2.439.226,1.384.361,1.345.3.794.406.988.06.63.632.987.677.919.647,1.056.647.425.528-.233.57-.178,1.443.356,1.49.136.675.454.9-.028,1.4.137,1.353.426,1.324.507.723,1.713,1.926,1.043,1.022.822.692.288,1.172.3.948-.027.572-.713.617-.673.662-.685.512-.384,1.549.384.782,1.235.406,1.356.752.727,1.038.452.751.11,1.415.164.375.755-.811,1.467-.452.6-.257.52.287,1.427.165.589-.12.686-.256.74.467.7.826-.1,1.053-.74.512-.535.766-.536.482-.067,1.082.177,1.008.425,1.459.329.873-.618.136-.947.466-1.1,5.656-.3.363,1.054.211.946-.242,1.236-.225.78-.376.562-.541.44-.406.274.347.7.647.151,1.158.056.962-.027.557-.083.557.206.421.37.782.273.9.22,1.112.013.542.659.06,4.663-.135.712-.255.727-.243.713.5.781.708,1.318.345,1.788.316.754.135.893.287.212.9.2.375.425.45.631.136.618-.031,1.472-.466,1.921-.119,1.274-.332,1.036-.5,1.138" transform="translate(-1600.1 -799.184)"  stroke="#fff" stroke-linecap="square" stroke-linejoin="bevel" stroke-width="1" fill-rule="evenodd"/>
      <text id="talId230count" transform="translate(51.471 69.06)" fill="#fff" font-size="10"  font-family="OpenSans-Bold, Open Sans" font-weight="700"><tspan x="0" y="0"></tspan></text>
    </g>
    <g id="_231_Washim" data-name="231 Washim" transform="translate(1167.579 1432.377)">
      <path id="talId231" fill="#7DB8EC" title="Washim Taluka" data-name="Washim Taluka" d="M1686.688,880.881l.5-1.138.332-1.037.121-1.274.467-1.92.029-1.473-.135-.618-.45-.63-.376-.426-.9-.2-.286-.212-.134-.892-.317-.754-.345-1.788-.708-1.318-.5-.781.24-.713.257-.726.135-.713-.06-4.662-.541-.659.9-.955.934-.574.435-.193.377-.336.076-.514.044-.6.451-1.426.015-1.1.2-.549.045-.418.287-1.674-.257-.822-.361-.9-.3-1.021-.06-.68.331-1.1.316-.556.211-.664-.075-1.714,1.247-1.975.542-.973.511-.337,1.008-.124,1.654.034.858.577,1.07.349.961.254.963.274.436.138.362-.33.045-.493-.045-.584.436-.624.557.227.526.383.555-.1.423-.142.1-.557-.09-.445-.3-.315-.3-.315-.091-.364.121-.383.285-.274-.014-1.385.135-1.713.045-1.961-.225-.453-1.083-.753-1.234-.536.12-.9.678-.534.783-.309,1.1-.179.9-.137.541-.37.105-.453-.121-.343-.3-.56-.376-.982-.015-1.659.378-.9.059-1.145-.016-2.722.047-.9.586-.192.692-.1.421-.124.917-.514,1.069-.227.856.227.9.205h.677l1.129-.007.917.013.856.289,1.717-.029.736-.308,1.864-2.029.512-.657.377-.5.314-.171.422.021.18.287.059.487.061.472.09.212.632.021.9-.006,1.761.177,2.256,1.858.452.652.466.35.181.034.286-.419.075-.432.391-.314.467-.363,1.609-.783.946-.322.6-.459.271-.541,1.218-1.249.06-1.248.03-.932.482-1.453-.016-1.426-.286-.721-.3-1.768.405-.74.542-.591.512-.348,1.413-1.207.722-1.343.542-1.344.466-2.029-.781-.865-1.114-.384-1.323-.329-.828-.123-.571.138-.784.287-.781.261-.528.3-.871.177-.8-.027.06-7.98,1.069-.919,1.1-.905.662.069,3.444.863,1.34.07,1.8.274,2.785.823.915.493.317.837.136.822.617.522.9.246.813.11.964-.179.632-.357.512-.342,2.871,1.714.844.823,1.4,1.1,1.325.9.75.123,1.656.234,1.383.015,2.078-3.977,1.307-3.566,2.663-.082,1.849-.028,1.85-.438-.451.864-.059.4.376.549.452.794.24.549.225.89.03,1.015-.181.782-.467.754-1.7,2.029-.753,1.138-.436.727-.211.726.227.726.24.783.571.96.227,1.343.465.287.618.11.69.33.511.234.934-.137.226.466-.241.577-.361.327-.527.439-.135.331v.753l-.888.013-.466.139-.331.287.061.534.044.632.031,1,.362.535-.648.6-.362.232-.241.7.105.67,1.038,1.1.648.714.782.658.693.356.647.26.03.453-.03.549v.561l.135.289.873.123.978.371,1.083-.028,1.128.2.993.179,1.2.343,1.549.563-1.534,1.521-.843.865-1.023,2.714-.255,1.014.1.617.994.549.9.577,1.61.589,1.624.164.511.274.917,1.208,1.263.931,1.023.8,1.835.893,1.2.383,1.143.274,1.009.617.571,1.468.707,1.193.527.631.843.6,2.029.81-.09.973-.526,1.865-.181,2.385-.091,1.4-.255,1.22-1.113,2.454-.03.507.767.74.784.412.6.081.887.056.693-.165.542-.548.421-.493.421-.495.616-.191.768-.013,1.189.191.707.069.527.712.18,1-.09.769-.061.52.015,2.236.316.493.6.412.648.191.707.295-.391.33-.06.4v.844l-.091.316-.21.212-.226.15-.03.344.151.932.12.995.149.453.332.253.255.275.631.486.527.274.046.774.571.255.5.281.693.555.707.576.6.6.661.624.106.6.014.439-.181.411-.33.645-1.113,1.789-1.2,1.927-1.143,1.871-.436.584-.407.287-.18.439-.33.308-.03.3.164.774.105.389v.33l-.015.418-.06.275-.194.129-.227-.054-.271-.056-.361-.054-.317-.131-.24-.006-.226.1v.33l.015.253-.164.323-.24.234-.362.177-.33.144-.317.178-.482.2-.33-.04-.376-.006-.12.156-.031.227.076.177.076.214.075.28-.164.233-.317.206-.317.321-.331.57-.5,1.206.015,1.467-.2,1.042-.06.391-.074.534-.152,1.994-.015.838.27.623.121.431-.24.386-.209.177-.5.1h-.347l-.3-.164-.527-.1-.255.124-.333.281-.1.281-.061.384-.286,1.247-.3.85-.42,1.056-.376.6-.271.507-.24.2-.166-.212-.21-.322-.512-.281-.617-.274-.588-.24-.631-.111-1.413-.308-.527-.069-.571-.061-.287.254-.121.453-.091.281-.09.458-.06.459-.015.5-.136,1.406-.256.6-.18.672-.241.515-.631,1.083-.393.555-.961.555-2.859,1.373-.316.156.181,1.494-.076,2.317-.181,2.2-.361.912-.044.67-.2-.384-.647-.68-.526-.226-.451-.179-.556-.156-.572-.186-.421-.048-.407.124-.3.253-.195.4-.045.589-.015.8-.015.645.075,1.892.06,1.064-.105.767-.284.445-.3.419-.361.192-.211.062-.362-.1-.662-.377-.825-.534-.437-.4-.362-.02-.481.04-.3.157-.452.577-.406.726-.754.686-.449.3-.391.432-.392.192-.39.089-.5.034-.8.192-.241.3-.316.356-.286.062-.376.026-.257-.054-.269-.6-.21-.614-.091-.563.045-.28.272-.4.6-.623,1.2-.929,1.022-.751.135-.386-.014-.193-.076-.439-.256-.476-.737-.593-.392-.309-.271-.2-.286-.392-.181-.4-.105-1.07.031-1.171-.106-1.616-.075-1.729.075-.557.212-.339.03-.222.045-.252-.075-.229-.166-.3-.255-.383-.2-.3-.481-.161-.451-.045-.527-.025-.572.093-.646.2-.391.08-.422-.012-.616-.016-.858-.1-.375-.107-.663-.244-.255-.031-.631,0-.572.1-.557.033-.361-.054-.346-.14-.315-.257-.453-.632-.33-.794-.166-.385-.15-.812.061-.407.18-.223.3-.333.27-.634.121-.884.226-.634.21-.8.061-.477.015-.388-.166-.856-.09-1.069.031-.281.09-.214.239-.256.376-.147.346-.058h.438l.27-.08.241-.2.2-.282.016-.415-.032-.34-.12-.462-.376-.7-.406-.491-.376-.381-.572-.609-.917-1.056-.224-.4-.272-.6-.151-.357-.151-.267-.316-.22-.316-.188-.24-.047-.286-.033-.166-.01-.361.014-.317.11-.225.142-.225.2-.3.281-.211.4-.286.4-.227.229-.27.173-.662.351-.617.214-.421.148-.211.083-.467.157-.346.132-.39.146-.407.114-.3.11-.211.151-.316.165-.165.1-.181.187-.136.225-.076.124-.149.328-.136.295-.089.247-.121.71-.076.51-.224.769-.226.753-.107.4-.209.246-.407.265-.332.19-.54.189-.331.06-.212.024-.345-.024-.422-.06-.6-.176-.9-.291-.362-.111-.241-.083-.391,0-.466.1-.6.248-.692.335-.361.244-.917.887-.39.357-1.308.96-1.129,1-.316.172-.272.223-.241.332-.06.477.045.347.076.373.135.425-.075.555-.014.219-.091.285-.314.244-.588.295-.587.043-.556.035-.361-.031-.348-.084-.33-.066-.3-.005-.587.164-.54.414-.242.268-.315.123-.407.079h-.361l-.586-.127-.555.017-.286.05-.317.2-.738.576-.389.439-.422.247-.315.4-.331.49-.226.147-.256.075-.3-.03-1.1-.482-.737-.426-.378-.048-.329-.035-.257-.075-.136-.236-.166-.408.2-.817.135-1.11-.12-.552-.421-.52-.466-.45-.963-.863-.858-.909-.557-.758-.241-.534-.076-.388.166-.589.391-.949.2-.644-.045-.318-.151-.395-.21-.209-.6-.167-.557-.183-.617-.207-.542-.26-.421-.241-.466-.311-.738-.644-.271-.269-.106-.174-.03-.21-.015-.268.03-.495.18-.5.181-.593-.059-.323-.047-.208-.09-.167-.15-.154-.165-.134-.345-.18-.753-.229-.481-.178-.255-.071-.181-.2-.059-.251-.047-.23-.047-.464-.044-.355-.03-.765.06-.381-.1-.322-.27-.343-.332-.1-.21-.113-.452-.155-.391-.1-.526-.329-.675-.268-.3-.086-.331-.01-.361.048-.436.1-.45.014-.5-.069-.451-.127-.347-.241-.406-.389-.345-.378-.6-.707-.2-.26-.166-.847.016-.346-.211-.356-.377-.1-.451-.079-.677-.151-.436-.123-.512-.134-.48.021-.346.059-.5.116-.406.151-.211.281-.24.46-.331.593-.39.563-.362.352-.286.189-.662.006-.721-.081-.512-.206-.752-.415" transform="translate(-1683.98 -788.208)"  stroke="#fff" stroke-linecap="square" stroke-linejoin="bevel" stroke-width="1" fill-rule="evenodd"/>
      <text id="talId231count" transform="translate(40.992 70.602)" fill="#fff" font-size="10"  font-family="OpenSans-Bold, Open Sans" font-weight="700"><tspan x="0" y="0"></tspan></text>
    </g>
  </g>
</svg>
