<svg xmlns="http://www.w3.org/2000/svg" width="415.159" height="300.779" viewBox="0 0 415.159 300.779">
  <g id="yavatmal" transform="translate(-315.693 -1184.481)">
    <g id="_198_Babhulgaon" data-name="198 Babhulgaon" transform="translate(470.906 1185.154)">
      <path id="talId198" fill="#7DB8EC" title="Babhulgaon" data-name="Babhulgaon" d="M1891.47,714.311l.093-.063.188-.052.116-.093.052-.116.1-.105.136-.066.126-.093.052-.172-.032-.215.314-.285.167-.186.354-.286.251.081.179.1.24.057.24-.214.2-.176.2-.2.2-.371.094.015.167-.225.157-.252.189-.253.052-.229-.021-.175-.052-.229-.042-.2.012-.238.093-.133.157.038.093.134.272.076.126.043.072-.024.2-.1.23-.128.492,0,.367-.029.343-.071.5-.067h.365l.3-.024.261-.1.24-.109.292-.077.251-.024.23-.024.219.015.365.033.167-.005.094-.141-.062-.258-.041-.214.334-.257.26-.319.534-.315-.041-.214-.167-.309-.116-.186-.156-.21-.377-.285-.575-.843.105-.29.2-.233.27-.272.252-.2.3-.148.032-.534.188-1.333.146-.347.094-.339.24-.381.973-.08.554-.062.449-.02.084-.2-.041-.49.02-.381.095-.343.168-.224.815-.2.523-.095,1.453-.21,1.17-.138.376-.076.084-.072.063-.161.209-.114.312.018.409.067.324-.1.429-.148.626-.09.272.166.251.243.178.214.271.224.293.09.387.091.209.076.009.215-.063.219.095.2.271.047.19-.018.281-.138.1-.32-.021-.462.073-.153.167-.032.125-.005.178-.181.031-.257.105-.215.209-.133.209-.029.271.034.345.142.064.243-.011.248.135.181.283-.114.522.1.387.124.481.29.376.234.324.328v.767l-.052.285-.116.225-.229.205-.313.318-.094.814-.2,1.549-.241.594-.188.715.062.166.116.091.281-.081.3-.124.313-.129.345-.114.23.056.146.214.2.311.69.18.449-.01.492-.133.229-.19.075-.272.093-.719.3-.653,1.087.053,1.526.052.46-.052.4-.039.365-.233.105-.4.178-.734-.22-.281-.4-.214-.377-.214-.291-.181-.137-.262.053-.31.208-.305.251-.209.533-.167.836.009.491.043.366.172.294.162.26.115.272.138.9.143,1.014.138.491.076.542.033.387-.076.169-.286v-.662l.01-.4.229-.547.313-.119.387-.005.4-.019.554-.048.46-.119.449-.219.314-.214.491-.063.408-.038.4.123.24.139.314.138.261-.167.041-.281.031-.9.127-.271.168-.339.125-.281.251-.11.409.058.376.167.219.095.482.157.5.091.994.081.783.076.628.015.3-.029.24-.276.136-.214.354-.272.482-.233.083-.609-.042-1.176.031-.624.1-.5.8-.11.553-.1.461-.07.417-.048.712.029,1.033.2.272.023.345.291.271.386.366.3.356.224.418.257.4.148.3.086.283-.081.313-.076.4.071.636.267.261.081.366.077.366.109.376-.058.052-.276-.021-.2v-.262l.021-.31.241-.8.188-.52.2-.323.126-.277v-.276l.084-.143.334,0,.345.038.46.1.6.1.742.02,1.661.09.032.353.126.362-.106.51-.2.481-.376.4-.846.576-.7.667-.313.219-.052.352.041.453.146.6.356.786.261.319v.324l-.157.734-.96,1.329-.491.576-1.14,1.115-.94.7-.586.462-.26.268-.115.295.031.391.125.305.252.566.231.362.125.639.052.591-.052,1.191-.1,1.062-.042,1.286.042.734.156.924.972,1.171.293.829.168.553-.178.5-.208.152-.1.133-.032.238.041.186.219.257.345.452.2.458.491.909.116.462-.011.729-.041.639.052.324.219.21.449.233.408.219.586.538.449.215.239.171.116.276.115.486.062.566.116.3.47.6.188.242.24.172.334.124.471.043.533,0,.72-.166.648-.244.6.177.229.4.157.353.241.31.178.069-.209.765-.251.943-.167.953.167.552.251.458.4.276.689.2.209.161.1.485-.21.572-.513.315-.678-.1-1.2-.467-.544-.648-.146-.572-.178-.5-.2-.533-.272-.267-.606-.247-.324.343-.376.38-.428-.065-.482-.439-.6-.181-.355.524-.827,1.486-.72,1.658-.46,1.477-.032.7.189.639-.136.41-.314.419-.209,1.143-.543,1.162-1.211,1.924-.229.476-.063.981-.2.466-.44.133-.668.077-.544-.086-.9-.381-1.787-.133-.783.019-1.067.229-.887.056-.22.914-.219.868-.46,1.657-.177,1.276-.146.658-.533.391h-.282l-.492-.144-.772-.41-1.39-.361-.7-.1-.783-.181-.806-.048-.053.5.021.724-.083.447-2.1,1.715-.93.81-.575.457-.459.752-.471.421-.5-.029-.533-.191-.826-.219-1.16-.133-.334.019-.293-.229-.4-.162-.605.048-.868.028-.522-.191.857-1.258.67-.637.406-.629.3-.447.428-.62.095-.438-.294-.162-.4.352-.335.505-.418.343-.533.153-.709.524-2,1.743-.8.762-.6.238-.575-.134-1.285-.248-.825-.229-.733-.066.095-.458,1.255-1.724v-.552l.115-.5.188-.41.136-.572.084-1-.732-.286-.857-.352-1.171-.457-1.808-.81-.627-.323-.439-.42-.512-.209-.366.238-.136.447-.052.372-.137.3-.333.419-.345.173-.586.076-.521-.01-.157-.286.011-.419v-.5l-.345-.314-1.17-.676-1.286-.372-.711-.295-.731-.286-.554-.056-.794-.058-.24-.476.073-.524-.052-.705-.114-1.724-.356-.276-.586-.067-.51-.229-.763-.343-.24-.295.02-.448.105-.285.209-.4v-.372l-.439-.152-.607-.067-.186.371-.158.467-.314.076-.448-.057-.366.373-.178.437-.459.524-.189-.257-.343-.6-2.081-.276-1,.114-1.025-.058-1.1-.3-.689-.3,1.14-1.657.042-.619-.095-1.076-.375-2.706-.334-.963.072-.571.21-.391.365-.172.419-.056.564-.1.647-.333.366-.457-.135-2.733-.188-1.333-.021-.486.157-.991-.773-.286-.732-.133-.752-.448-.564-.257-.512-.123-.491-.182-.314-.037-.209-.028-.031-1.392-.24-.981-.063-1,.011-.572-.794-.3-.565-.362-.48-.352-.678-.478" transform="translate(-1891.47 -692.671)"  stroke="#fff" stroke-linecap="square" stroke-linejoin="bevel" stroke-width="1" fill-rule="evenodd"/>
      <text id="talId198count" transform="translate(17.02 32)" fill="#fff" font-size="10"  font-family="OpenSans-Bold, Open Sans" font-weight="700"><tspan x="0" y="0"></tspan></text>
    </g>
    <g id="_206_Ner" data-name="206 Ner" transform="translate(396.594 1202.655)">
      <path id="talId206" fill="#7DB8EC"  title="Ner" data-name="Ner" d="M1821.5,748.028l.116-3.283.407-.494.335-.452.25-.479.1-1.508.042-.5.083-.437.22-.52v-.308l-.419-.021-.2-.134.011-.2.094-.315.491-.407.763-.318.554-.031.105-.263.26-1.915.3-1.065.314-.484.6-.478.532-.118.606-.134.45-.1.658-.108.6-.016.993-.113.25-.272.586-.674v-2.326l-.46-.227-.617-.191-1.043-.484-1.213-.325-1.149-.036-.9.139-.857.622-.679.3-.407.2-.387.406-.334.319-.4.093-.532-.031-.722-.154-.772-.031-.042-.34.1-.53.261-1.395.5-1.122.239-.736.356-1.447.084-.968.156-1.154.795-.036.711.034.533-.043.208-1.114.272-.139.241-.151.209-.229.124-.3-.01-.438.146-.82.209-.324.315-.1.314.037.293.086.209-.047.376-.115.429.095.376.2.929.263.763.048.365.022.418,0,.439-.057.406-.081-.01.09-.011.724.02.276v.3l.115.247.23.09.43.21.7.353.459.21.441.2.406.172.866.129,1.266-.153.491-.014.461.086.594.181.659.242,1.023.477.367.114.563.287.356-.086.461-.191.354-.1.752-.009.543.391.242.971.407.562.271.534.439.838.888.886.472.038,1.128-.143,1.379.229.533.153.323.523.167.467h.179l.428-.153.762-.229.575-.218.522-.315.346-.257.344-.343.157-.391.366-.858.616-1.42.147-.428.2-.352.325-.439.522-.133.7-.21.491-.076.638-.086.4-.3.053-.611.21-.828.146-.5.125-.609.032-.611.032-.381.062-.39.136-.239.209-.275.5-.019.512.162.689.248,1.014.732.439.505.386.438.691.562.784.648.8.609.605.562.335.028.345-.333.471-.419.4-.305.334-.419-.041-.324-.313-.847-.052-.553-.074-.4.042-.652.011-1.215.47-.043.659-.023.918-.214,1.516-.562.544-.428.345-.225.314-.324-.021-.576-.095-.953-.157-.475-.021-.929.01-.362.084-.338.8-.243.458.048.377.091.313.238.178.124.178.1.334.018.167-.1.179-.209.146-.333.261-.867.115-.3.125-.262.167-.2.188-.166.167-.33.116-.3.041-.353.094-.18.313-.076.9.067.209-.009.585-.014.126.029.146.281.24.334.344.533.157.214.334.253.252.095.272.067.271.1.251.053.448.143.221.4.23.334.189.277.229.319.177.285.177.3.084.142.555.057.187.486.084.585.041.558-.208.624-.063.533-.208.458-.188.371-.063.32.052.19.094.091.282.023.271.039.241.285-.053.877-.115,1.242-.847,1.663-.146.5-.062.262-.074.372.031.276.084.29.156.181.251.057.126-.238.126-.161.3-.09.554.038.23.048.334.119.094.267-.021.305-.031.257v.224l.125.114.23-.01.271-.09.292-.105.2-.233.177-.386.01-.666.064-.292.166-.2.252-.128.228-.242-.02-.705.072-.367.085-.272.3-.166.283-.082.481-.08.312-.11.45-.057.325.182.219-.1.094-.052.126-.2.031-.248.114-.153.241.082.032.2.157.186.1-.043.115-.143.22-.134.345.072.042.171-.031.3v.238l.176.124.24-.162.261-.186.545-.346.428-.348.375-.367.251-.29.189-.224.471-.167.689-.052.387-.076.292-.162.314-.248.229-.162.2-.238.167-.194.211-.357.386-.534.115-.166-.011-.244-.094-.314-.126-.558-.073-.257-.094-.333.188-.252.063-.108.094-.176.021-.168.052-.153.094-.164.146-.248.679.479.481.352.563.361.795.3-.009.571.062,1,.24.981.031,1.391.208.028.314.037.491.182.514.123.563.257.753.448.731.132.774.286-.157.991.021.485.188,1.334.135,2.733-.366.457-.649.333-.563.1-.418.057-.366.171-.209.391-.074.571.335.963.376,2.705.095,1.077-.043.619-1.139,1.657-.534-.076-.554.076-.563.162-.733.1-.626-.028-.794-.333-.533-.447-.773-.3-.408.009-.668.21-.711.248-.93.485-.784.228-.125.753-.011.467.105.619.062.5-.156.371.345,1.076.062.514.052.458.178.342.408.276.543.259.669.313.461.134.25.248.094.352.3.3,1.076.562.073,1.086.125.581.272.562.408.637.418.477.511.134.774.171.731.143.783.037.921-.067.606.077.48.648,1.432.981.774.648.689.933.439.343.764.972-.712,1.5-1.213,1.715-1.515,2.172-.617,1.124-.6,1.239-.084.9-.052.6-.3.286-.294.4.23.43.052.437-.062.8.041.523.523.047.5-.056.449.152.523.9.2.905.387.647.239.591-.636.1-.847.067-1.108-.124-1.421.067-.868-.305-.291.133-.565.6.01.877-.428.438-.523-.01-.721-.009-.721.038-.46.171-.156.4-.231.342-.439.343-.125.677-.345.819-.46,1.123-1.714-.067-2.006-.028.135-2.524-.511-.38-1.013-.638-1.7-1.715-2.153.039-.731.037-.545.372-.668.3-1.013-.075-.46-.191.052-.371-.313-.5-4.808.143-.815.039-.941.114-.627.572-1.086-.068-.909.3-.324.028-.272-.238-.063-.39.021-.448v-.667l.074-.514.1-.534-.115-.257-.679-.009-.564.247-.01.5-.178.762-.21.02-.584-.085-.606-.354-.6-.123-1.023.285-1.474-.228-.574-.172-.649-.114-.533-.134-.354.4-.062.515.031.59-.02.39-.251.458-.335.457-.564.3-.5-.095-.815-.239-1.19-.333.3-.648.188-.428-.188-.638-.1-.124-.24-.372-.041-.514.093-.391.146-.4.084-.4-.042-.41-.281-.363-.261-.618-.418-1.163-.157-.543-.282-.39-.648-.723-.334-.3-.534-.153-.314.048-.594.162-.272-.143-.471-.18-.387.086-.543.19-.616.372-.251-.439-.136-.5-.281-.877-.5-.428-.47-.447-.293-.5-.586-.905-.6-.829-.783.028-.533.238-.628.438-.574.248-.848.2-.918.152-.836.248-.878,1.2-.073-.218v-.667l-.376-.981-.355-.667-.408-.8-.262-.647-.312-.639-.334-.286-.836-.334-1.337-.476-.638-.286-.575-.029-.627.581-.689,1.314-.461.1-.418-.095-.521-.172-.932-.362-1.055-.22-1.882-.456-.354.142-.544.162-.48-.047-.533-.277-.439-.581-.472-.657-.072-.734.02-1.247-.012-.129-.073-.328-.156-.191-.21-.142-.345-.22-.418-.342-.46-.325-.48-.043-.762.243-.543.2-.5.3-.565-.005-.554,0-.679.025-.9-.029" transform="translate(-1820.09 -709.119)"  stroke="#fff" stroke-linecap="square" stroke-linejoin="bevel" stroke-width="1" fill-rule="evenodd"/>
      <text id="talId206count" transform="translate(37.33 35.499)" fill="#fff" font-size="10"  font-family="OpenSans-Bold, Open Sans" font-weight="700"><tspan x="0" y="0"></tspan></text>
    </g>
    <g id="_85_Darwha" data-name="85 Darwha" transform="translate(379.631 1240.349)">
      <path id="talId85" fill="#7DB8EC"  title="Darwha" data-name="Darwha" d="M1892.774,804.567l-.617-.082-.511-.152-.659-.086-.407.067-.407.409-.2.363-.041.428-.188.276-.273.229-.4.171-.063,1.534-1.306.142-.919.077-.815.134-1.234.095-1.276-.01-.909.276-.522.353-.627.343-.574.362-.408.276-.251.2-.261.524-.386.333-.471.1-.513-.077-.637-.151-.6-.324-1.192-.619-.93.009-.24.006-.438-.024-.847-.058-.533-.056-.346-.125-.052-.467v-.533l-.178-.229-.408-.114-.481-.067-.512.19-.407.419-.575.467-1.588.886-1.432-.039-1.066.048-.7-.028-.594-.106-.147-.342-.408-.124-.282.228-.533.314-2.455.019-.617.067-.638-.114-.522-.524-.658-.439-.543-.41-.178-.409-.114-.572-.209-.429-.879-.532-2.016-.02-.564-.485-.492-.353-.574-.276-.795-.086-.511-.219-1.005-.286-.95.029-.46.277-.365.4-.252.268-.522-.143-.335-.505-.459-.162-.775.056-.867.048-.48.019-1.171.381-.533.467-.3.133-.241-.477.032-.5.01-.476-.324-.381-.522-.191-.66-.381-.7-.257-1.412-1.087-.574-.419-.365-.41-.158-.553-.2-.4-.428-.143-1.171.048-.7.1-.742.19-.49.268-.471.142-.471.115-.375.333-1.317,1.591-.867-.219-.962-.3-.888-.382-.627-.724-.6-.828-.271-.828-.283-.695-.208-.667-.324-.752-.617-.372v-.4l-.146-.343-.471-.119-.449-.082-.585-.019-.344-.124-1.223-.2-1.62.048-.387-.173-.825-.824-.66-.767-.615-.567-.533-.428-.566,0-.771-.019-1.129-.071-.878-.192-.4-.047-.366-.029-.481-.166-.2-.339.032-.734-.052-.3-.209-.829-.042-.438.179-.276.1-.229-.041-.3-.282-.139-.805-.271-.679-.171-.563-.1-.628-.038-.574-.019-.021-5.182-.418-.391-.419-.247-.584-.248-.166-.285-.21-.7-.386-.59.031-.486.063-.743-.345-.8.031-1.164-.448-.056-.45-.039-.439-.2-.293-.3-.386-.362-.4.209-.586.054-.365-.1-.041-.385-.115-1.5-.011-.376-.084-.585-.041-.449.385-1.361.043-.32-.032-.337-.072-.5.188-.638-.208-.395.187-.234,1.14-1.172.658-.586.3-.814-.231-.223-.23-.19-.323-.72-.313-.9-.167-1.472-.1-1.019.177-.667.188-.9-.083-.719.073-.243.271-.157.534-.5.449-.509.294-.477.125-.657.062-1.024.251-.238.323-.143.441.076.437.116.606.232.45.453.376.1.073-.386-.01-.943-.25-.429-.47-.5-.242-.853-.062-.753.387-.091.606-.064.773-.512.627-.629.48-.38V751.7l-.125-.849-.125-.637-.376-.3-.344-.419.742-.8.407-.666.513-.343.594.076.367-.038.209-.266.219-.39v-.486l-.229-.505.251-.219.23-.229.344-.305.188.286-.021.457.659.288.732.206,1.138.617,1.014.484.731.4.418.318.324.252.377.109.429-.01.293-.216.459-.772.3-.69.427-.658.9.028.678-.024.554,0,.565,0,.5-.3.545-.2.763-.242.48.043.46.324.417.343.345.22.208.142.157.191.073.328.011.129-.021,1.248.073.733.471.657.438.581.532.277.481.047.543-.162.356-.142,1.882.457,1.054.219.931.362.522.172.417.095.46-.1.69-1.315.628-.581.574.029.638.285,1.338.476.836.334.334.285.313.638.261.648.407.8.356.667.376.981v.667l.073.218.878-1.2.836-.248.919-.153.846-.2.576-.248.627-.438.533-.238.784-.028.6.828.585.9.293.5.47.447.5.428.282.877.136.505.251.439.616-.372.544-.19.387-.086.47.181.272.143.6-.162.314-.049.533.153.335.3.648.723.282.391.157.544.418,1.161.261.619.282.362.041.41-.083.4-.147.4-.093.392.042.514.24.372.1.123.188.638-.188.428-.3.648,1.192.333.814.239.5.095.564-.3.334-.457.251-.457.021-.39-.032-.591.063-.515.356-.4.532.133.648.114.575.173,1.474.228,1.023-.285.6.123.6.353.586.086.209-.02.178-.762.011-.5.563-.248.679.009.116.257-.1.534-.073.514v.667l-.021.448.062.39.271.238.323-.028.909-.3,1.087.067.627-.572.941-.113.815-.039,4.807-.142.313.5-.052.371.46.191,1.013.075.669-.3.542-.372.733-.038,2.152-.039,1.7,1.715,1.014.638.513.38-.137,2.524,2.007.028,1.714.067.125.639-.031,1.2.1.557.1.519.261.286.46.472.3.4.5.48-.188.624-.115,1.467-.063.372-.293.318-.472.48-.03,1.044.053.214.24.142.251.338.23.462.73.662,1.912-.033.073.2.084.529.188.5.23.319.115.257-.073.291-.167.271-.1.266.084.434.469.357.607.553.69.485.794.248.417.8.21.214.334.072.219.129.042.342-.072.267-.2.3-.147.309.3.4.522.781.219.377.179.571-.136,2.448-.167.443-.753.253-3.846-.119-.052-.172.272-.977.125-.5.115-.423.031-.381-.47-.223-2.09.024-.345.01-.22.176-.219.052-.262-.286-.1-.352-.1-.438-.429-.171-.428.08-.053.3-.011.59-.314.548-.282.258-.7.552-.2.305.063.22.25.181.24-.115.4-.12.44-.037.22.167-.052.414-.272.248-.648.085-.459.386-.313.229-.137.4-.377.433-.553.362-.2.414-.083.4-.23.519-.691.682-.186.2.041.195.135.239.21.22.146.232.042.281.021.425.46.485.271.3.25.386.2.339.376.162.575-.043.523.185.46.263.24.338.168.529.073.895-.053.463-.261.881" transform="translate(-1803.97 -745.33)"  stroke="#fff" stroke-linecap="square" stroke-linejoin="bevel" stroke-width="1" fill-rule="evenodd"/>
      <text id="talId85count" transform="translate(35.293 40.805)" fill="#fff" font-size="10"  font-family="OpenSans-Bold, Open Sans" font-weight="700"><tspan x="0" y="0"></tspan></text>
    </g>
    <g id="_41_Yavatmal" data-name="41 Yavatmal" transform="translate(464.444 1227.564)">
      <path id="talId41" fill="#7DB8EC" title="Yavatmal" data-name="Yavatmal" d="M1929.308,823.491l-.209.015-.46.2-.3.181-.376.271-.346.186-.428-.072-.366-.27-.439-.354-.449-.609-.606-.691-.617-.338-.731-.02-.6.01-.45-.123-.491-.215-.7-.186-.418.076-.366.114-.459.153-.46.158-.313.114-.241.033-.407-.038-.889.067-.658.187-.564.119-.513.086-.313-.029-1.264-.281-.774-.168-.4-.1-.366-.3-.146-.257-.125-.205-.335-.066-.271-.028-.387-.052-.137-.138-.3-.419-.314-.344-.354-.152-.461-.024-.366.052-.4.119-1.243.319-.449.015-.4-.1-.448-.2-.406-.225-1.047-.824-.532-.49-.241-.367-.294-.581-.469-.3-.575-.172-.439.043-.387.1-1.213.491-.564.009-.376-.024-.429-.028-.335.01-.333,0-.407-.038-.407-.32-.105-.228-.1-.358-.095-.786-.219-.558-.178-.347-.219-.248-.575-.586-.387-.324-.271-.162-.22-.138-.313-.024-.377-.052-.364-.09-.251-.229-.46-.81-.375-.59-.283-.32-.324-.3-.24-.162-.816-.695-.334-.481-.292-.52-.281-1.291-.221-.343-.4-.415-.155-.361-.157-.615-.375-.063-.356-.1-.23-.148-.261-.229-.073-.181-.324-.591.261-.881.051-.463-.072-.895-.168-.528-.24-.339-.459-.262-.523-.185-.574.043-.376-.163-.2-.338-.25-.386-.271-.3-.46-.485-.021-.424-.042-.281-.146-.233-.209-.219-.135-.238-.042-.2.189-.2.689-.682.231-.519.084-.395.2-.415.554-.362.377-.434.135-.395.313-.229.46-.386.648-.086.271-.248.053-.413-.219-.168-.439.038-.4.12-.241.115-.25-.181-.063-.22.2-.3.7-.552.28-.258.314-.548.011-.591.052-.3.428-.08.429.171.105.438.1.352.26.286.22-.053.22-.177.344-.009,2.09-.024.47.223-.032.382-.114.423-.126.5-.272.978.053.171,3.845.119.752-.253.167-.444.136-2.447-.177-.571-.219-.376-.524-.782-.3-.4.146-.309.2-.3.073-.266-.041-.343-.22-.129-.334-.072-.209-.214-.418-.8-.795-.248-.69-.485-.606-.552-.471-.358-.082-.433.1-.267.168-.272.072-.291-.115-.256-.229-.319-.188-.5-.084-.529-.073-.2-1.914.033-.731-.663-.23-.462-.251-.339-.241-.142-.052-.214.031-1.045.471-.48.292-.319.063-.372.114-1.467.188-.624-.5-.48-.3-.4-.461-.472-.262-.285-.1-.519-.1-.557.031-1.2-.125-.638.459-1.124.345-.819.125-.677.44-.342.229-.343.157-.4.46-.172.722-.037.721.009.522.01.427-.438-.01-.876.565-.6.292-.133.866.305,1.422-.067,1.107.124.847-.067.639-.095-.242-.592-.387-.647-.2-.9-.522-.905-.449-.152-.5.057-.524-.047-.041-.524.062-.8-.052-.438-.23-.429.291-.4.3-.286.053-.6.083-.9.606-1.238.617-1.124,1.516-2.172,1.211-1.715.71-1.5-.762-.972-.439-.343-.69-.933-.773-.648-1.431-.982-.481-.648-.605-.076-.92.067-.783-.038-.733-.143-.772-.171-.513-.134-.418-.477-.407-.638-.272-.562-.125-.581-.073-1.086-1.076-.562-.3-.3-.095-.352-.25-.248-.46-.134-.669-.313-.543-.258-.408-.276-.177-.343-.052-.458-.063-.514-.345-1.076.157-.371-.062-.5-.105-.62.01-.467.126-.753.784-.228.93-.486.71-.248.669-.21.407-.01.774.3.533.447.794.334.626.028.731-.1.566-.162.552-.076.534.076.689.3,1.1.295,1.024.057,1-.114,2.079.276.345.6.189.258.459-.524.177-.438.367-.372.45.058.313-.076.156-.467.188-.371.606.067.439.151v.372l-.208.4-.1.285-.022.448.241.295.762.343.512.229.585.067.355.276.115,1.724.052.705-.072.524.24.476.794.057.555.057.732.286.711.295,1.286.372,1.17.676.345.315v.5l-.011.419.157.285.523.01.584-.076.346-.173.334-.419.136-.3.052-.372.136-.447.366-.238.512.209.44.42.626.323,1.808.81,1.17.458.857.352.732.286-.084,1-.135.571-.188.41-.115.5v.552l-1.254,1.724-.095.458.732.066.826.229,1.285.248.574.134.6-.238.8-.762,2-1.743.71-.525.533-.153.418-.342.335-.505.4-.352.293.162-.094.438-.429.619-.3.447-.407.629-.669.637-.857,1.258.522.19.867-.029.606-.048.4.162.293.229.334-.019,1.159.133.826.22.533.19.5.029.47-.42.459-.752.574-.456.93-.81,2.1-1.715.083-.447-.021-.724.052-.5.8.048.785.181.7.1,1.39.362.773.409.492.143h.281l.073.844.054,1.395-.376.391.229.315.094.5-.031.438-.073.553-.145.456-.042.467.315.447.543.486.856.591,1.035.553,1.17.847.334.657.272.038.532-.029.45.2.063.39-.052.5-.115.181-.084.7-.073.858.073.477.23.39.084.382.167,1.829-.229.685-.177.486-.189.439.595.285,1.14.1,1.171-.009.523.067.908.714.857,1.01.178.553-.231.5-.27.477-.387.561-.376.581-.554.648-.522.448-.763,1.38-.219.657-.062.43.1.352.659.22.554.151.47.21.481.428.23.611.96,1.1.733.3.721.191.71.218-.094.629-.2.572-.262.533-.533.839-.094,2.847V783.2l.3.438.857.076.553-.1.606-.057.785.038.345.171.512.419.021.4,1.871-.219,3.228-.457,1-.114.469.239.471.38.2.324.083.839-.418,1.124-.26.791-.575,1.562.062.714.23.59.053.629.041.41.763.095.659-.152.866-.123.387-.067,1.693-.476.375-.153.376.61.063.657.043.734v.762l.114,1.067.157.771.543.7,1.119.486.919.322.7.286,3.073,1.62.689,1.19.408,1.514-.314,1.629-.542,1.315.8.828.908.924,1.255,1.715,1.306,1.9.93,1.086-.094.176-.052.8.052.652.136,1.062-.209.267-.429.148-.365.224-.659.319-.543.243-.365.143-.3.048-.4-.248-.209-.224-.24-.343-.209-.333-.323-.253-.827-.481-.062-.381.032-.343-.094-.414-.188-.277-.282-.709-.524-.5-.909-.294-.9-.086-.815.056-.532.247-.47.286-.532.1h-.921l-1.5.019-.722.4-.732.2-.469.153-.376-.19-.7-.134-.386.753-.157.333-.638-.019-.586-.123-.543-.076-.68-.03-1.024-.075-1.379-.01-.554,1.6-.219.9-.188.543-.168.552-.167.63-.219.294-.345-.153-.282-.409-.469-.2-.377-.038-.313-.123-.293-.361-.4.085-.293.181-1.557.419-1.694.162h-1.243l-.867-.019-1.891.162-.722.247-.22.419.136.572.074.627.063.562.041.629.231,1.238-.972.3-1.316-.086-1.275-.1-.774-.143-.94-.114-.816-.067-1.932-.324-.544.229-.313.381-.208.476.02.543.021.5-.387.286-.553-.019-.658-.1-.6-.161-.564-.267-.419-.2-.46-.1-.24.21-.837.9-.751-.429-.92-.515-.24-.361-.105-.553-.334-.38-.565.009-.323.19-.419.562-.114.638-.2.8-.084.714-.429.553-.511-.076-.732-.048-.574-.01" transform="translate(-1885.239 -733.216)"  stroke="#fff" stroke-linecap="square" stroke-linejoin="bevel" stroke-width="1" fill-rule="evenodd"/>
      <text id="talId41count" data-name="Yavatmal" transform="translate(29.481 58.59)" fill="#fff" font-size="10"  font-family="OpenSans-Bold, Open Sans" font-weight="700"><tspan x="0" y="0"></tspan></text>
    </g>
    <g id="_86_Kalamb" data-name="86 Kalamb" transform="translate(522.331 1218.809)">
      <path id="talId86" fill="#7DB8EC"  title="Kalamb" data-name="Kalamb" d="M1940.8,746.312l.533-.39.145-.657.178-1.276.46-1.658.219-.867.219-.915.888-.056,1.066-.228.784-.019,1.787.132.9.382.542.085.669-.076.439-.134.2-.466.063-.981.23-.476,1.212-1.924.543-1.162.209-1.143.313-.419.137-.409-.188-.639.031-.705.461-1.477.719-1.657.828-1.486.354-.524.6.18.48.439.428.066.377-.38.322-.343.608.248.27.267.2.533.178.5.146.572.544.648,1.2.467.679.1.512-.315.208-.571-.1-.486-.208-.161-.689-.2-.4-.276-.251-.458-.167-.552.167-.953.251-.943.209-.765.147.059.584.177.628.124.553.386.25.253.482.248,1,.095.6.062.367.048.4.18.659.291.5.21.563.157.742.191.648.162.836.376.679.406.449.248.346.251.272.32.188.509.429.724.617.538.354.21.377.181.366.09h.313l.376-.166h.1l.135-.171.135-.2.169-.338.177-.253.2-.123.282-.067.313.033.492.19,1.117.4.679.233.555.242.428.415.189.539.187.7.125.266.231.334.46.171.532.024.66.048.552.138.763.357.825.509.617.334.585.162.952.115,1-.143.711-.2.564-.2,1.221-.624.169-.143.47-.261.481-.1.605-.014.543.247.335.358.554.519.313.2.555.181.856.015.543-.23.888-.566.742-.387.564-.475.49-.429.472-.448.438-.633.357-.277.438-.157.741-.186,1.213-.047.576.08.449.091.324.19.554.382.659.452.3.138.438.086.607.086.438,0,.523-.176.711-.272h.324l.365.147.136.51-.031.281.02.462.114.471.356.39.534.324.427.224.2.343-.93.309-.627.229-.617.247-.7.581-.325.63-.082.981-.1.657.115.762.157,1.3-.241.618-.188.315-.523.382-.627.19-.626.171-.784.324-.167,1.847-.731,2.048-.272.847-.229.43-.314.019-.627-.134-.8-.3-.8-.191-.869,1.172-.156.611-.293.428-.4.162-.439.028-.418-.313-.344-.229-.367.257-.24.543-.449.981-.554,1.305.042.953-.555,2.257-.229.82-.334.791-1.358.8-.909.867-1.39.591-.575.238-.658.4-.606-.067-.512-.238-.324.162.188.447.24.553-.3.563-.333,1.8-.408.542.073.372.919.562,1.15,1.115,1.609,1.676,1.076,1.876.334.762.387.162.847.247,1.233.5,1.881.678.345.466.188.819-.094,1.134.574-.324.356-.3.386-.362.512-.391.523-.456.689-.3.627.019.648.143.72.382,1,.885,1,1.238,1.056,2.163.638,1.809.752,2.315.01,3.239.042.714-.324.391-1.076-.1-.972-.019-1.357.428-.325,1.076-.2,1.181-.106,1.4.408.048.449.067.773.172.814.171.826.123.782.305.807.315-.063.714-.471,1.286-.586,1.058-1.045,2.171-.533-.077-.334-.238-.366.229-.542.238v2.581l-.136.525-.313.514-.648.752-1.086.7-1.254-.01-.522-.1-.732-.343-.6-1.153-.46-.429-.971-.457-.752-.325-.345.333-.282.591-.982,1.83-.313.676-.032.514.21.382.344.438.367.428.365.229.22.162-.022.324-.408.229-.586.114-.763.315-1.2.866-.48.229-.689.257-.576.124-1.056.38-.523.458.053.391.115.6.428.781v1.219l-.71.4-.356.428-.292.915-.293.4-.408.143-.126-.286-.4-.714-1.19-.143-.753-.039-.806-.334-1.306-.1-2.027.086-.931-1.086-1.3-1.905-1.255-1.714-.909-.924-.8-.829.545-1.315.312-1.629-.408-1.514-.689-1.19-3.073-1.62-.7-.286-.92-.323-1.118-.486-.544-.7-.156-.771-.115-1.067V792.9l-.041-.734-.064-.657-.376-.611-.377.153-1.693.476-.386.067-.868.124-.658.153-.763-.1-.042-.41-.051-.629-.231-.591-.062-.713.574-1.562.261-.791.419-1.124-.084-.839-.2-.324-.471-.38-.47-.239-1,.114-3.228.458-1.87.219-.02-.4-.512-.419-.346-.171-.782-.039-.607.058-.554.1-.857-.076-.3-.438V780.4l.095-2.848.534-.839.26-.534.2-.571.095-.629-.711-.219-.723-.192-.73-.294-.962-1.1-.229-.61-.48-.428-.471-.21-.553-.151-.658-.22-.107-.352.064-.429.219-.658.763-1.38.523-.448.554-.648.375-.581.387-.562.272-.476.229-.5-.177-.553-.857-1.009-.909-.715-.523-.067-1.17.009-1.139-.1-.595-.286.187-.439.178-.486.23-.686-.167-1.829-.084-.382-.23-.39-.073-.476.073-.858.083-.7.116-.181.052-.5-.064-.391-.449-.2-.533.029-.271-.039-.334-.657-1.171-.847-1.034-.553-.858-.59-.543-.486-.315-.447.043-.467.145-.456.075-.554.03-.438-.093-.5-.231-.315.377-.391-.053-1.4-.073-.844" transform="translate(-1940.549 -724.791)"  stroke="#fff" stroke-linecap="square" stroke-linejoin="bevel" stroke-width="1" fill-rule="evenodd"/>
      <text id="talId86count" transform="translate(18.594 49.344)" fill="#fff" font-size="10"  font-family="OpenSans-Bold, Open Sans" font-weight="700"><tspan x="0" y="0"></tspan></text>
    </g>
    <g id="_20_Ralegaon" data-name="20 Ralegaon" transform="translate(568.344 1229.684)">
      <path id="talId20" fill="#7DB8EC" title="Ralegaon" data-name="Ralegaon" d="M2006.811,734.934l.157.6.093.483.105.5.491.6.146.38.012.881-.042.482.062.367.178.38.479.476.69.762.471.372.606.233.534.5.124.348.011.715-.272.89-.054.819.064.348.219.433.428.605.679.739.377.309.5.724.471.528,1.2.324.367.11.511.538.574.547.419.863.3.6.407.324,1.316.582,1.41.748.438.18.491.186.357.062.532-.082.638-.024,1.108.125,1.242.157,1.338.177.6-.005.261-.114.283-.2.2-.271-.114-.557-.25-.6.125-.49.2-.576.24-.182.251-.1.314-.02.323.186.116.514.01.424.062.4.2.314.281.2.324.08.251.11.471.038,1.107-.034.71-.151.9-.158.73-.067,1.036.024.48.124.324.138.3.206.1.261.01.391-.094.538-.428.839-.219.319-.052.181.072.315.178.247.209.319.262.3.469.214,1.088.471.677.409.409.443.167.563.073.924.25,1.285.219.734.408.662.731.8.721.676,1.3.752.636.619.428.81.377.743,1.014.814.282.362.146.376-.032.567-.167.952.021.61.084.333.365.361.648.4.784.176.888.21.409.123.458.205.491.386.272.571.147.6.094.434.167.933.02.391-.063.505-.1.253-.2.162-.241.285-.115.5.135.553.094.691.147.619-.22.929-.24.486-.147.371-.135.59.3.515.23.242.325.1h.209l.491-.1.512.071.584.176.847.462.48.147.721.215.44.152.366.143.25.27.178.715.157.676.261.715.513.3.344.058.449-.085.3-.2.3-.252.207-.181.272-.143.376-.186.523-.024.732.277.752.252.533.177.471.114.354.039.366-.057.376-.086.407-.11.471-.157.575-.472.45-.328.344-.156.584-.029.607.148.544.224.438.147-.126,1.057-.135,1.914-.219,1.886-.576,1.248-.386,2.049-.417.4-.47.181-.136.419-.293.219-.512.447-.031,2.363-.042.476.021.858.229.552.408.638-.053.571-.553,1.525-.229.324-.292.1-.753-.115-.458-.333-.242.058-.481.591-.763,1.057-.354.049-.764-.058h-.71l-1.463-.067-.638,1.743-.239,2.106-.44,2.629-.125.962-.616.4-.888.372-.868.352-1.15,1.114-.271.287-.689.38-1.516.363-1.6,1.067-.491.428-.532.81-.451.8-.522-.733-.741-.439-1.015-.972-1.85-1.371-2.006-1.934-1.234-.743-.574.172-.491-.124-.418-.41-.387-.639-.376-.475-.857-.83-.669-.609-.647-.3-.838-.029-1.628.9-.826,1.248-.9.724-.418.514-.114.515.166.561.147.706-.073,1.153-.8,1.447-.657,1.057-.679.449-.386.019-.544-.2-.356.333-.24.582-.2.676.156.523.281.372.115.686-1.4.9-.751.315-.858-.162-2.057-.448-1.214-.428-1.7-.762.177-.257.763-.648,1.87-1.525.616-.667.451-.5.24-.371.2-.752-.021-.839-.857-1.133-1.8-1.515-.69-.429-.992-.381-1.118-.476-1.17-.59-.628-.277-.187.353-.021.656-.032.934-.386.333-1.066.7-.555.191-.763.828-.146.41-.324.152h-.387l-.772-.143-.356-.3-.429.391-.647-.048.021-2.876.229-.544.2-.581.146-.562-.052-.553-.335-.466-.3-3.115.094-.5.167-.419.177-.581-.125-.59-.334-.286-.816-.152-.668-.153-1.16-.142-1-.085-1.055.028-.4-.781-.262-.582-.178-.561-.083-.515-.093-.685-.158-.362-.334-.3-.387-.266-.3-.41-.115-.6-.042-.829-.26-.953,1.044-2.171.586-1.057.47-1.287.063-.713-.8-.314-.784-.306-.827-.123-.815-.171-.773-.171-.45-.067-.406-.048.1-1.4.2-1.181.325-1.076,1.358-.429.972.019,1.077.1.323-.391-.041-.714-.01-3.239-.753-2.316-.638-1.809-1.055-2.163-1-1.239-1-.885-.721-.381-.648-.143-.627-.019-.689.3-.522.456-.512.391-.387.362-.354.3-.576.324.094-1.134-.188-.819-.344-.466-1.882-.677-1.233-.5-.846-.247-.387-.162-.335-.762-1.075-1.877-1.61-1.676-1.149-1.114-.919-.562-.073-.372.408-.542.335-1.8.3-.562-.241-.553-.188-.447.325-.162.511.239.605.066.658-.4.576-.238,1.389-.59.909-.868,1.359-.8.334-.791.23-.819.554-2.257-.042-.953.555-1.305.449-.981.24-.542.367-.257.344.229.418.313.438-.028.4-.162.293-.428.156-.61.868-1.172.805.192.8.3.627.134.313-.019.23-.43.272-.847.733-2.048.167-1.847.784-.324.627-.171.626-.19.522-.382.188-.314.24-.619-.155-1.3-.115-.762.094-.658.083-.981.323-.629.7-.581.615-.248.626-.229.931-.309" transform="translate(-1984.219 -734.934)"  stroke="#fff" stroke-linecap="square" stroke-linejoin="bevel" stroke-width="1" fill-rule="evenodd"/>
      <text id="talId20count" transform="translate(28.58 51.47)" fill="#fff" font-size="10"  font-family="OpenSans-Bold, Open Sans" font-weight="700"><tspan x="0" y="0"></tspan></text>
    </g>
    <g id="_36_Maregaon" data-name="36 Maregaon" transform="translate(615.383 1279.428)">
      <path id="talId36" fill="#7DB8EC" title="Maregaon" data-name="Maregaon" d="M2044.044,815.435l.449-.8.534-.81.492-.429,1.6-1.067,1.516-.363.689-.38.272-.287,1.149-1.114.868-.352.888-.372.618-.4.124-.962.439-2.629.24-2.106.638-1.743,1.464.067h.709l.763.057.355-.048.764-1.057.48-.59.239-.058.461.333.752.115.292-.095.229-.324.555-1.524.052-.572-.408-.638-.23-.552-.022-.858.042-.475.032-2.363.511-.448.292-.219.137-.419.469-.18.419-.4.387-2.048.573-1.248.219-1.887.137-1.914.124-1.058.441.1.3.024.376-.071.356-.158.522-.2.219-.025.2.028h.763l1.475,1.849.513.826.646,1.009.93.642.461.406.293.23.083.224.084.254.042.388-.022.5-.147.216-.491.622-.356.371-.28.295-.377.356-.23.34-.042.362.042.335.3,1.006.189.526.366.469.334.3.627.13.688.067,1.036-.119,2.361-.1.71-.093,1.055-.316,1.328-.366.886-.114.869-.066,1.191.1,1.118.227,1.327.464,1.881.315.983.051.9-.051.89-.063.565-.2.69-.268,1.21-.645.773-.155.555-.042.616.031.314.031.626.36.167.372v.474l-.1.666.156,1.873.085.335.5.485.66.46.648.325.543.217.428.181.345.3.4.433.156.484-.126.352-.073.433.147.469.292.361.743.263.814.3,1.494.687,1.067.459.417.383.367.432.1.346-.042.542-.335.717-.2.423-.365.376-.3.346-.334.393-.135.325.031.366.135.548.158.562.135.423.147.387.177.361-.042.289-1.13-.308-1.6-.619-.762-.372-.94-.391-.659-.218-.45.333.022,3.562-.126.705-.311.41-.619.181-1.055-.077-.889-.009-.813.076-.742.371-.554.648-.042.743-.02,1.124-.931,1.514-.4.181-.564.152-.24.324-.167.381.125.3.135.4-.24.41-1.223,1.133h-.72l-.827-.039-.825-.067-.366.344-.208.828.115.658.355.847.292,1.334-.167.886-.5.028-.552-.038-.743.067-.594.228-.158.886-.47.877-.021.333-.219.5-.481.428-.125,1.868-.095.485-.439.515-.573.228-.7.133-.721.229-.825.361,1.191,1.849.47.78.471.772.281.724.074.639-.847.771-.387.162-.731.191-.816-.124-.354-.4-.272-.38-.25.428-.157.123-.345-.266-.314-.038-.187.286-.083.591.345,1.219.218.572.178.476.032.933-.8,1.372-.448,1.324-.586.371-.668.038-.806.143-.72.324-.691.5-.135.495-.083.886-.032,1.087-.145.3-.523.258-.419.048-.919.076-.91.209-.511.323-.492.477-.219.78.105.591.794.524.188,1.124.229.525.292.3.408.524.335.391.439.39.512.095.439.105.127.333-.2.695-1,1.333-.262.925-.542.771.113,3.429-.2.229-1.234.153-.846.247-.48.143-.523.143-.595.123-.136-.382-.011-.542.073-.6.021-.571.115-.458.314-.532.083-.344-.533-.209-.543-.19-.177.038-.231-.3-.251-.323-.646-.287-.533-.524-.115-.524-.627-.4-.146-.553-.22-2.106-6.416.086-.294-.371v-.571l.041-.762.085-.486.2-.428.105-.43-.272-.609-1.034-.61-.826-.161-.889.285-.605-.086-.8-.076-.7-.276-.3-.514.292-1.677.3-.648-.083-.371-.49-.324-.649-.41-.972-.514-1.106-.648-.712-.514-.564.047-.794.268-1.6.657-.555.218.105.562.178.476.2.562.219.762-.271.486-.294.1-.667.162-.805.208-1.129.259-.887.151-.868.152-1,.191-.638.152-.116-.219-.229-.458-.24-.523-.691-.8-.9.342-1.16.4-2.059.62-1.808.856.032-1.991.617-4.391-.116-.448-.3-.524-.723-1-.072-1.228v-.429l-.178-.439-.292-.352-.471-.4-.688-.609.657-.924,1.578-3.42.44-1.009.439-1.238.794-.906.4-.486.324-.581.178-.419-.105-.4-.679-.247-.1-.3-.24-1.6-.178-.848.094-.476.2-.476.282-.573.564-.762.553-.514.471.095.555-.181.02-.361-.407-.335-.147-.523.521-1.22-.052-1.019.219-.419.471-.3.481-.209.741-.067,1.212-.028.857.018.794-.228.388-1.877.031-.657.627-.667.877-.561.962-.43,1.149-.4" transform="translate(-2029.08 -782.883)"  stroke="#fff" stroke-linecap="square" stroke-linejoin="bevel" stroke-width="1" fill-rule="evenodd"/>
      <text id="talId36count" transform="translate(15.541 47.726)" fill="#fff" font-size="10"  font-family="OpenSans-Bold, Open Sans" font-weight="700"><tspan x="0" y="0"></tspan></text>
    </g>
    <g id="_35_Wani" data-name="35 Wani" transform="translate(652.752 1305.223)">
      <path id="talId35" fill="#7DB8EC" title="Wani" data-name="Wani" d="M2067.357,863.3l1.233-.153.2-.229-.115-3.429.543-.771.262-.925,1-1.333.2-.695-.126-.333-.437-.105-.512-.1-.439-.39-.334-.391-.407-.525-.292-.3-.231-.524-.188-1.125-.793-.524-.1-.59.219-.781.491-.477.513-.324.909-.209.918-.076.419-.048.521-.257.148-.306.03-1.085.085-.886.137-.5.687-.505.722-.324.806-.142.668-.039.585-.371.45-1.325.8-1.372-.03-.933-.179-.477-.219-.572-.346-1.219.084-.59.188-.285.313.037.347.267.156-.123.248-.429.274.38.354.4.816.124.731-.191.387-.162.846-.771-.073-.638-.282-.725-.469-.771-.47-.781-1.193-1.849.826-.361.722-.229.7-.133.573-.228.441-.516.094-.485.127-1.867.479-.429.221-.495.02-.334.471-.877.156-.886.6-.228.74-.067.554.037.5-.028.168-.886-.293-1.333-.355-.848-.116-.657.209-.829.365-.343.825.066.825.039h.722l1.223-1.133.239-.41-.135-.4-.124-.3.166-.381.24-.324.563-.152.4-.181.929-1.514.023-1.124.041-.743.555-.648.74-.371.815-.076.89.01,1.055.076.616-.181.314-.409.124-.705-.021-3.563.449-.333.661.218.938.391.764.372,1.6.619,1.127.308-.25.46-.481,1.047-.093.413-.021.335.093.346.357.33.605.377.868.454.544.021.261.009.418.156.533.32.782.562.6.9.451.877.385.894-.167.438-.229.34-.251.136-.315.045-.376-.015-.408-.02-.334.052-.377.34-.1.448-.135,1.611-.083.537-.054.376-.051.3.125.316.231.36.375.259.241.252.659.165.67.011.563-.13.5-.273.438-.279.46-.237.44-.093.4.01,1.043.258.668.326.6.288.574.609.356.439.961.722.469.474.733.424.6.5.26.149.376.393.325.376.48.66,1.014,1.222.826,1.074.427.49.564.432.4.234.365.123.786.248.385.2.365.4.052.4.032.578-.135.573-.251.532-.3.341-.22.712.052.665.169.288.386.269.332.175.481.17,1.486.2.742-.191.354-.149.471-.532.46-.035.417.2.418.3.294.319.261.382.052.966-.147.567-.041.423v.3l.051.279.272.382.679.8.407.65.471,1.337.137.645.052.691-.136.66-.042.852.116.439.343.464.3.408,1.179,1.006.44.274.49.025.743.026.628.309.719.5.837.511.272.382.093.474.073.542.282,1.285.335.732.271,1.12-.04.161-.063.237-.167.268-.2.129-.367.011-.511-.192-.336-.114-.523-.02-.343.051-.386.2-.43.284-1.065.825-.284.368-.031.319-.022.367-.02.32.774.077.826.211.771.253.921.48.46.454.2.552-.009.423-.136.45-.408.619-.606,1.12-.281.258-.323.221-.345.226-1.2.754-.574.4-.208.32-.191.511.191.7.02.6-.042.453-.25,1.46-.042,1.787.22.968.427,1.166.345.266.21.021.167,0,.21-.078.355-.219.315-.052.281.021.157.077.218.171.532.694.326.627.554.729.377.3.146.152.533.119.835.17,1.181.281.69.219.908.39.762.24,1.214.315.908.175.972.139.386.1.128.155.007.179-.083.227-.647,1.842-.325.536-.261.372-.3.32-.239.35-.293.268-.346.289-.228.527-.356.867-.19.537-.345.474-.322.3-.472.176-1.295.392-.595.238-.377.319-.346.443-.355.568-.876,1.631-.4.453-.565.361-.481.279-.408.185-.552.063-.482.248-.491.112-.575.032-.386-.372-.23-.267-.187.247-.116.341-.22.474-.218,1.465-.961,1.744-1.382,1.135-1.556,1.342-.971.042-.837.041-.762-.03-1.033-.372-.691-.4-.68-.392-.333-.01-.753.041-.449.164-1.077.578-.314.609-.116.671-.374.866-.325.8-.334.557-.65.578-.783.247-.419.011-.458-.062-.524-.289-.531-.578-.43-.392-.481-.166-1.378-.082-1.736-.031-.982.176-1.044-.011-1.129-.206-1.054-.072-.8-.032-1.117.134-.837.135-.332.144-.442.258-1.17.8-.887.723-.69.661-.459.526-.43.764-.616.939-.8.981-.187,1.249.282,1.135.313.557.491.455.554.382.48.361-.868.389-.2.028-.615-.114-.912-.257-.729-.286-1.287-.646-.782-.305-.157-.39-.031-.554.054-.571,1.242.1.125-.18.063-.42-.083-.6-.448-.762.011-.629.02-.581v-.409l-.323-.315-.335-.362-.449-.315-.314-.571-.272-.7.064-.5-.251-1.086.47-.009.857-.106.587-.1.5-.171.333-.362v-.448l-.072-.505-.177-.629-.345-.533-.542-.153-.587-.086-.752-.01-.428-.209-.169-.61-2.266-.771-.919-.666-.344-.172-.3.2-.3.067-.3.066-.41-.02-.513-.2-.261-.21-.229.229-.418.277-.24-.067-.021-.419.115-.477.313-.382.3-.047.367-.057.512-.276-.052-.448-.209-.324-1.025-.866-.137-.933-.605-.067-.576-.057-.763-.172-.93-.067-.021-1.982.178-2.5.6-.039.576-.152.177-.4-.157-.5-.408-.449-.783-.581-.594-.209-1.433-.057-.618-1.029-.1-.276-.083-.486-.178-.477-.281-.256-.784.134-.187.542.094.944-.063.591-.261.333-.261.534-.387.419-.575.095-.4-.219-.677-.352-.9-.648-.96-.429.018-.972.075-1.171.051-.81.21-.352,1.347-.877,1.328.039,2.225.257.647-.124.355-.362.168-.534-.116-.581.032-.5.68-.257.743-.028.4.113.313.153.513.19.49-.1.252-.3-.094-.9-.763-.829-.292-.714-.481-.286-.564-.086-.659.03-.981.077-.3-.3-1.075-.077-1.8-.018-1.033.047-.534-.353-.439-.219-.719-.142-1.181-.172-.449.248-.032,2.038-.554-.1-.8-.153-2.351-.514-.972-.057-.93-.238-1.066-.257-.4-.41-.115-.561.126-.476.626-.7.44-.123.532-.019.659.047.333-.095.325-.982-.011-.685.011-.477-.4-.343-.409-.162-.447.333-.46-.019-.146-.439.01-.533.094-.438.241-.486.344-.715.126-1.162" transform="translate(-2065.359 -807.744)"  stroke="#fff" stroke-linecap="square" stroke-linejoin="bevel" stroke-width="1" fill-rule="evenodd"/>
      <text id="talId35count" transform="translate(29.172 53.931)" fill="#fff" font-size="10"  font-family="OpenSans-Bold, Open Sans" font-weight="700"><tspan x="0" y="0"></tspan></text>
    </g>
    <g id="_109_Zari_Jamani" data-name="109 Zari Jamani" transform="translate(602.227 1342.663)">
      <path id="talId109" fill="#7DB8EC" title="Zari Jamani" data-name="Zari Jamani" d="M2031.826,849.07l1.808-.857,2.058-.62,1.159-.4.9-.343.689.8.24.523.231.458.115.218.637-.152,1-.191.868-.153.888-.152,1.129-.258.8-.208.67-.162.291-.1.272-.486-.22-.762-.2-.563-.178-.476-.1-.562.554-.218,1.6-.657.794-.268.564-.047.711.514,1.108.648.971.514.648.409.491.324.083.371-.3.648-.292,1.677.3.514.7.276.8.076.606.085.887-.285.826.162,1.034.609.272.609-.1.429-.2.429-.085.486-.042.762v.571l.293.371,6.416-.085.22,2.105.146.553.627.4.115.524.533.523.648.287.251.323.229.3.178-.038.544.191.533.209-.084.343-.315.533-.115.458-.02.572-.073.6.01.543.136.381.6-.123.522-.143.481-.143.846-.248-.125,1.162-.344.715-.24.486-.094.437-.011.533.146.44.459.018.449-.333.408.162.4.343-.009.476.009.685-.324.981-.334.1-.657-.047-.533.019-.44.123-.626.7-.126.476.115.561.4.41,1.067.257.929.238.972.057,2.351.514.8.153.555.1.03-2.038.449-.248,1.181.172.721.141.439.22.534.353,1.033-.048,1.8.019,1.076.077.3.3.982-.076.659-.029.564.086.481.287.293.713.762.829.093.905-.25.3-.491.1-.512-.19-.314-.152-.4-.114-.742.028-.68.257-.031.5.115.581-.167.534-.355.362-.649.124-2.224-.257-1.328-.039-1.348.877-.208.352-.052.81-.073,1.171-.021.972.96.429.9.648.679.352.4.22.574-.095.388-.419.261-.534.261-.333.063-.591-.094-.944.189-.542.782-.134.282.257.178.477.083.486.1.276.616,1.029,1.432.057.6.209.783.581.406.449.158.5-.178.4-.576.152-.594.039-.178,2.505.021,1.981.929.067.763.172.575.057.605.067.136.932,1.024.866.209.324.052.449-.512.276-.364.058-.3.047-.314.381-.116.477.022.419.24.066.418-.276.231-.229.26.21.513.2.408.02.3-.066.3-.067.3-.2.345.172.92.667,2.267.771.169.61.426.209.753.009.584.086.545.152.345.534.178.628.073.505v.448l-.334.362-.5.171-.584.1-.858.106-.469.009.25,1.086-.063.5.273.7.313.571.45.315.333.361.324.315v.409l-.021.581-.01.629.45.762.083.6-.062.42-.126.181-1.243-.1-.053.571.032.553.156.39.784.306,1.286.647.732.286.909.257.617.114.2-.028.867-.389.146.114.534.464.177,1.094-.229,1.166-.387.557-.43.319-.355.144-.983.031-1.054-.144-1.118-.082-.931.03-.835.186-1.117.444-1.037.99-.6.589-.629.288-.763.124h-.606l-.678-.165-.555-.361-.6-.288-.71-.5-.711-.754-.312-.135-.512.042-.544-.155-.281-.412-.042-.743.157-.827.188-.815.114-.557V906.6l-.114-.309-.564-.341-.815-.226-.482-.083-.49-.114-.5-.176-.752-.227-.616-.114-.574.011-.732.124-1.192,1.032-.3.259-.408.2-.564.361-.825.195h-.063l-.032-.008-.062-.017-.054,0-.562.136-.262.081-.366.066-.251.087-.209.148-.219.185-.219.212-.344.266-.335.181-.439-.137-.427-.169-.178-.142-.136-.1-.135-.123-.115-.205-.094-.216-.409-.2-.25-.061-.334,0-.365.136-.4.253-.637.46-.481.252-.47.174-.126,0-.323-.036-.209-.069-.094.016-.114.086-.094-.015-.2-.048-.471-.233-.292-.181-.324-.281-.262-.284-.042-.221-.01-.255v-.157l-.042-.739-.022-.207-.063-.067-.23-.169-.125-.095-.052-.091V905.2l-.021-.221-.062-.155-.262-.308-.229-.231-.252-.407-.271-.37-.167-.128-.2-.114-.179-.082-.167-.1-.125-.054-.314-.082-.721-.106-.4-.065-.481.005-.4.069-.3.118-.637.327-.617.478-.417.372-.292.257-.387.174-.377.078-.458.015-.262-.06-.251-.1-.262-.119-.25-.208-.2-.319-.146-.25L2057,903.3l-.4-.363-.408-.29-.4-.237-.386-.119-.324-.069-.512-.007-.376.018-.428.136-.909.428-.282.214-.167.184-.135.186-.136.1-.052.069-.052.066-.01.056v.094l.042.085.063.128v.077l-.053.138-.26.713-.273.685-.356.329-.345.167-.4,0-.428-.043-.627-.257-1.044-.492-.43-.242-.2-.151-.189-.152-.229-.367-.3-.909-.135-.468-.4-1.06-.24-.56-.251-.216-.3-.209-3.815-1.3L2038.2,898.4l-1.547-.242-.365.005-.147-.013L2036,898.1l-.125-.043-.261-.162-.335-.259-.626-.37-.471-.3-.209-.162-.115-.1-.168-.046-.239-.018-.48.021-.44-.059-.7-.136-.753-.042-1.453-.092-1.527-.412-1.492-.967.25-.727.042-.38v-.419l-.011-.5-.052-.638-.4-.229-.731-.19-1.266-.106-.868-.285.052-2.248.3-.1.566-.039.188-.276-.01-.419-.4-.286-.512-.438-.178-.743-.354-2.192-.168-.437-.5-.63-.971-.829-.262-.485-.083-.819-1.5-.363-.827-.2-.541-.428-.544-.62-.408-.514-.24-.658-.344-1.143.376-2.134.073-.7.209-1.714.011-2.477.084-.743.188-.171.879-.354,1.619-.361.01-.41-.188-.353-.209-.467-.021-.487.209-1.266.219-.437.774-.372.544.019.355.162.345-.114.354-.5,1.077-1.791.647-.352.563-.324.305-.372.344-.447.25-.486.136-.59.147-.162.636-.229.5-.181.636-.143.334-.428-.084-.914.032-.866.251-1.5-.011-1.809.712-.143.5-.162.323-.334.314-.458.386-.514.492-.624.157-.339.135-.309.126-.428-.042-.534.094-.719.188-.5" transform="translate(-2016.841 -843.431)"  stroke="#fff" stroke-linecap="square" stroke-linejoin="bevel" stroke-width="1" fill-rule="evenodd"/>
      <text id="talId109count" data-name="Zari Jamani" transform="translate(18.697 41.491)" fill="#fff" font-size="10"  font-family="OpenSans-Bold, Open Sans" font-weight="700"><tspan x="0" y="0"> </tspan></text>
    </g>
    <g id="_203_Kelapur" data-name="203 Kelapur" transform="translate(563.029 1289.754)">
      <path id="talId203" fill="#7DB8EC" title="Kelapur" data-name="Kelapur" d="M2020.477,896.4l-.263.122-.177.067-.178.04-.313.014-.408-.078-.585-.239-.71-.267-.983-.51-.438-.2-1.276-.408-.345-.1-.4-.035-.313-.009-.437.047-.764.165-.574.3-.408.2-.983.333-.439.183-.428.067-.972.019-.658.062-.574-.05-.878.015-.168.031-.147.04-.269.277-.178.155-.346.429-.208.223-.188.236-.084.173-.042.541-.01.579.042,1.679-.92,1.219-1.285.336-1.495.075-.857-.126-.344-.141-.346-.332-.282-.319-.115-.393-.052-.541-.125-.753-.115-.379-.106-.29-.2-.315-.114-.281-.253-.427-.355-.388-.449-.467-.408-.37-.261-.162-.324-.136-.323-.031-.325.005-.187.066-.2.077-.1,0-.126,0-.178.076-.387.169-.408.13-.554.253-.732.271-.4.05-1.14-.026-.752-.036-1.233.035-.135-.021-.514-.115-.709-.163-.754-.217-.543-.164-.449-.165-.209-.078-.229-.107-.293-.174-.439-.385-.335-.3-.334-.3-.575-.472-.334-.321-.512-.245-1.013-.682-.753-.585-.638-.586-.115-.118-.418-.463-.6-.519-.543-.523-.272-.324.428-.45.219-.248.283-.343.407-.229.418.029.49.247.648.267.721-.629.2-.372.063-.41-.01-.419.135-.276.387-.077.418-.1.377-.5.094-1.791.052-.562-.115-.542-.073-.343.115-.525.094-.448.251-.438.5-.448.491-.438.586-.428.492-.305.51-.152.544.124.273.295.241.495.354.658.564.449,1.568-1.439.355-.467.241-.3.5-.229.354.058.23.285.491.076.71.076.649-.21.784-1.79.042-.381-.231-.467-.407-.323-.481-.42.042-.133.71-.572.3-.219.628-.18.438.039.533.037.543-.047.126-.257-1.056-1.6-.448-.771-.565-.705-.439-.543.3-.285.543-.486.638-1.191.041-.332-.261-.467-.376-.143-.491-.229-.1-.39-.114-.5-.534-.657-.585-.048-.251-.266-.126-.467-.178-.61-.481-.152-1.63-1.267-.219-.192-.681-.352-.678-.266-1-.239-1.087-.2-1.159-.286-1.245-.077-.052-1.162-.021-1.62.408-1.238.407-3.229.032-.734.03-.533.22-.41.628-.524.532-1.571.763-2.982.532-1.573.2-.247.115-.733-.407-.314-.764-.287-.648-.1-.282-.342.126-.352.427-.4.367-.363.5-.361.564-.267.606-.391.941-2.229.512-.086.387-.134.271-.438.325-.543.365-.342.471-.571-.314-.971-.313-.61-.314-.734-.3-.38-.72-.353-.523-.038-.5-.067-.8-.209-.668-.019-.419.114-.648.266-.323.153-.554-.058-.021-.295-.083-.61-.032-.667.722-1.458,1.212-1.8,1.077-2.315.1-.3.293-.286.48-.1.418.153.5.275.48.3.5.191.471.057.5-.3.2-1.248.053-.39.4-.277.555.029.909.21.668.161.491-.123.219-.41.074-.477.064-.486.25-.248.346-.018.407-.02.27-.237-.251-1.115-.741-1.324-.982-1.572-.544-.9-.292-.391.084-.371.147-.525.092-.428.1-.5.25-.5.241-.447-.292-.449-.733-.181.334-.572.346-.324.5-.218.659-.116.439-.067.344-.41.273-.762.115-.619-.1-.61-.219-.619-.418-.333-.9-.067-.605-.685-.262-.553-.2-.419-.156-1.257-.544.038-.523.028-.679-.142-.993-.257-1.128-.077-.794.1-.544.276-.564.3-.606-.229-.762-.477-.409-.218-.47-.448-.334-.514v-1.219l-.429-.781-.116-.6-.052-.391.523-.458,1.055-.38.574-.125.69-.257.481-.229,1.2-.866.762-.315.585-.114.409-.23.02-.324-.219-.162-.366-.229-.366-.428-.344-.438-.21-.381.032-.514.313-.676.982-1.829.283-.591.344-.333.753.324.972.458.461.428.6,1.153.73.343.524.1,1.253.01,1.087-.695.648-.753.314-.514.135-.525v-2.582l.543-.238.367-.229.334.238.533.076.261.954.042.828.116.6.3.409.387.266.334.3.157.361.094.685.083.516.178.561.262.582.4.78,1.055-.028,1,.086,1.16.142.67.152.814.153.334.286.125.59-.178.581-.168.419-.093.5.3,3.115.334.466.052.553-.147.562-.2.581-.231.543-.021,2.876.648.048.43-.391.354.3.774.143h.386l.324-.152.146-.41.763-.829.554-.192,1.065-.7.386-.333.032-.934.021-.656.188-.354.628.277,1.171.59,1.118.476.993.381.689.428,1.8,1.516.856,1.133.021.839-.2.753-.24.371-.449.5-.618.667-1.869,1.525-.763.648-.178.257,1.7.762,1.211.429,2.059.448.857.162.752-.315,1.4-.9-.116-.685-.281-.372-.158-.523.2-.676.24-.582.356-.334.543.2.387-.019.679-.449.658-1.057.794-1.448.073-1.152-.146-.706-.167-.561.115-.515.418-.515.9-.724.826-1.248,1.631-.9.836.029.647.295.669.61.856.829.377.476.387.639.417.41.491.124.575-.172,1.234.743,2.005,1.934,1.851,1.371,1.014.972.741.439.523.732-1.151.4-.961.429-.878.561-.627.667-.031.658-.387,1.876-.794.229-.856-.019-1.213.028-.741.067-.481.208-.469.3-.22.419.053,1.019-.523,1.22.147.523.408.335-.021.362-.554.181-.471-.1-.553.514-.565.762-.282.571-.2.477-.094.477.177.847.241,1.6.1.3.681.248.1.4-.178.419-.325.581-.4.486-.794.905-.44,1.239-.437,1.009-1.579,3.421-.659.924.691.609.47.4.293.352.177.439v.428l.075,1.23.72,1,.3.524.115.449-.617,4.391-.031,1.991-.188.5-.094.719.042.534-.124.429-.137.309-.156.339-.491.624-.387.514-.313.458-.324.334-.5.162-.71.143.011,1.809-.251,1.5-.032.866.084.915-.335.428-.637.143-.5.181-.639.229-.146.161-.137.591-.25.485-.344.447-.3.372-.563.324-.648.352-1.076,1.791-.356.5-.345.114-.356-.162-.542-.019-.773.372-.219.438-.21,1.267.023.486.207.468.188.351-.011.41-1.618.361-.878.353-.188.172-.084.743-.011,2.476-.209,1.715-.073.7-.377,2.133.346,1.144.24.657.407.514.544.62.544.429.825.2,1.494.363.084.818.261.486.971.829.5.629.167.438.355,2.191.177.743.512.438.4.286.01.419-.188.276-.564.039-.3.1-.052,2.248.867.285,1.264.105.732.19.4.229.053.638.01.505v.419l-.042.38-.251.727-1.347-.629-1.213-.4-1.662.242-1.954-.265-.94.043-.3.049-.324.088-.073.028" transform="translate(-1979.22 -792.621)"  stroke="#fff" stroke-linecap="square" stroke-linejoin="bevel" stroke-width="1" fill-rule="evenodd"/>
      <text id="talId203count" transform="translate(18.897 61.4)" fill="#fff" font-size="10"  font-family="OpenSans-Bold, Open Sans" font-weight="700"><tspan x="0" y="0"></tspan></text>
    </g>
    <g id="_19_Ghatanji" data-name="19 Ghatanji" transform="translate(497.023 1304.43)">
      <path id="talId19" fill="#7DB8EC" title="Ghatanji" data-name="Ghatanji" d="M1981.041,807.34l2.028-.086,1.307.1.8.333.753.038,1.191.143.4.714.125.286.407-.143.293-.4.293-.914.355-.428.711-.4.334.514.471.448.407.218.764.477.605.229.564-.3.544-.276.794-.1,1.128.076.993.257.679.141.524-.028.543-.038.156,1.257.2.419.26.553.607.686.9.067.418.334.219.619.105.61-.116.619-.271.762-.345.41-.438.067-.659.115-.5.218-.344.324-.334.572.729.18.294.448-.241.447-.251.505-.093.5-.093.429-.147.524-.083.371.293.391.542.905.983,1.571.742,1.324.251,1.115-.273.237-.407.019-.344.019-.251.248-.062.486-.073.476-.22.41-.491.123-.669-.162-.91-.21-.554-.028-.4.277-.052.389-.2,1.248-.5.3-.469-.057-.5-.19-.481-.3-.5-.276-.418-.152-.482.1-.292.286-.1.3-1.077,2.315-1.212,1.8-.72,1.457.031.667.083.611.021.295.554.058.324-.153.648-.266.418-.115.669.02.8.209.5.067.523.038.72.354.3.38.314.734.314.611.313.971-.47.571-.366.343-.324.544-.272.438-.386.133-.513.086-.939,2.229-.608.391-.564.266-.5.362-.367.363-.429.4-.126.352.282.342.648.1.762.286.408.315-.116.733-.2.248-.534,1.573-.762,2.981-.534,1.571-.626.524-.22.409-.031.533-.031.734-.408,3.229-.408,1.238.021,1.62.053,1.162,1.245.076,1.159.286,1.087.2,1,.238.68.266.678.353.221.191,1.63,1.266.48.153.177.608.127.467.25.266.585.049.533.657.115.5.105.39.49.229.376.143.262.467-.042.333-.638,1.19-.542.486-.3.285.44.544.564.705.449.771,1.055,1.6-.125.257-.543.048-.533-.037-.439-.039-.626.181-.3.22-.71.572-.042.133.481.42.409.323.23.466-.042.382-.785,1.79-.647.211-.71-.076-.492-.077-.23-.285-.356-.057-.5.228-.24.3-.354.467-1.568,1.439-.564-.448-.356-.657-.241-.5-.271-.3-.544-.124-.512.152-.491.3-.585.428-.491.438-.5.449-.251.438-.094.447-.115.525.073.343.114.543-.052.562-.093,1.791-.376.5-.418.1-.386.076-.136.276.01.419-.062.409-.2.372-.721.63-.649-.268-.491-.248-.418-.028-.407.229-.283.343-.219.247-.428.451-.365-.285-.3-.176-.313-.169-.1-.1-.126-.273-.136-.5-.564-2.035.011-1.433-.157-.86.053-.695.219-.745-.042-.516-.251-.549-.376-.477-.231-.2-.3-.045-.931.214-.909.042-.773-.2-1.055-.517-.794-.035-1.882.207-2.5-.139-1-.374-.731-.444-.649-.653-.47-.77-.167-.451.021-.484.292-.588.534-.526.742-.542.491-.43.032-.5-.168-.609-.49-.887-.481-.461-.71-.21-.962-.111-1.149.156-1.128.345-1.15.325-1.662.458-2.142.809-1.055.578-.451.48-.2.376-.116.7-.094,1.3.01,1.42-.042.67-.177.728-.773,1.386-.721.761-.951.692-1.4.516-1.755.375-.461.047-.313-.045-.292-.146-.387-.427-.847-1.179-.325-.668-.25-1.229v-.46l.313-.722.689-.819.889-1.043.552-.577.586-.67.325-.632.126-.5.021-.662-.115-1.146-.178-1.307-.323-.874-.168-.51-.262-.252-.313-.076-.4.1-.554.257-.732.641-.9,1.011-.468.792-.483.433-.511.253-.7.173-.72-.04-.961-.091-.628.051-.323.152-.251-.5-.168-.695.095-2.144-.136-.486-.241-.514-.648-.506-.532-.352-.638-.315-1.118-.276-1.286-.134-1.725-.181-.345-.181-.48-.4-.314-.4-.188-.5.1-.315.419-.371.428-.191.335-.21.074-.382-.116-.514-.114-.419-.3-.476-.219-.362-.429-.514-1.672-1.124-.743-.667-.595-.838-.335-.439-.271-.5-.271-.5-.313-.561-.168-.381-.219-.076-.46.219-.439.076-.292-.353-.45-.1-.46-.362v-1.009l.21-.458.251-.514.021-.476.042-.609.021-.458-.4-.153-.5.3-.522-.114-1.432-.8-.4-.257-.313-.372-.2-.639-.1-.475-.178-.468-.2-.333-.366-.285-.544-.067-.333.141-.491.125-.419-.21-.627-.323-.94-1.42v-.619l-.146-.305-.3-.209-.523-.534.042-2.792.042-.581.2-.628.167-.858-.44-.123-.659-.152-.763-.305-.752-.343-.846-.419-.659-.248-.616-.39-.052-.4.146-.419.24-.666.815-1.514.229-.5.283-.3.406-.21,1.1-.106,1.044-.514,1.589-.648.731-.037.951-.1.931-.1.773.01.639.324.5.363.657.114.712-.257.072-1.6.429-.324.1-.429.176-.525.261-1.038.189-1.5.042-1.372-.011-1.048-.492-1.543-.166-.258-.576-.7-.115-.447-.177-.629-.03-.638.145-1.038.095-1.534.575.009.731.048.512.077.428-.553.083-.715.2-.8.116-.638.418-.563.324-.19.564-.009.334.38.1.553.24.362.92.515.753.429.836-.9.241-.21.46.095.417.2.563.267.6.162.659.1.553.019.387-.285-.02-.5-.021-.543.208-.476.313-.381.544-.229,1.934.325.813.067.941.114.773.143,1.275.1,1.317.086.971-.3-.23-1.239-.042-.629-.062-.562-.073-.628-.135-.572.219-.419.72-.248,1.891-.162.867.019h1.243l1.693-.162,1.556-.419.294-.181.4-.086.293.362.313.123.377.039.47.2.283.409.345.153.219-.295.168-.629.167-.553.188-.542.22-.9.553-1.6,1.38.011,1.025.075.679.029.543.076.585.124.638.019.157-.334.387-.752.7.134.377.19.471-.153.73-.2.722-.4,1.505-.019h.919l.534-.1.469-.287.534-.247.815-.056.9.086.908.295.523.5.283.71.188.276.093.414-.03.343.063.382.825.48.324.253.209.333.24.343.209.223.4.248.3-.047.366-.143.543-.243.659-.319.366-.224.427-.147.209-.268-.136-1.062-.051-.652.051-.8.094-.176" transform="translate(-1916.23 -806.541)"  stroke="#fff" stroke-linecap="square" stroke-linejoin="bevel" stroke-width="1" fill-rule="evenodd"/>
      <text id="talId19count" transform="translate(28.902 42.724)" fill="#fff" font-size="10"  font-family="OpenSans-Bold, Open Sans" font-weight="700"><tspan x="0" y="0"></tspan></text>
    </g>
    <g id="_43_Arni" data-name="43 Arni" transform="translate(444.428 1299.247)">
      <path id="talId43" fill="#7DB8EC" title="Arni" data-name="Arni" d="M1944.165,875.772l-.24.351-.4.4-.742.228-.981.211-.722.232-.868.207-.5.056-.408-.019-.314-.15-.47-.383-.721-.861-.063-.073-.146-.25-.376-.182-.606-.232-.815-.156-1.013-.013-.858-.056-1.306-.162-.658-.182-.878-.289-1.223-.545-.627.025-.585.075-.449.358-.324.395-.406.582-.5.884-.523.984-.073.117-.125.183-.324.213-.241.081-.45.032-.71.039-.523.03-.638.144-.522.15-1.327.4-.491.087-.5.032-.93-.047-.711-.156-1.358-.394-.48-.029-.733-.044-1.254-.138-.554-.226-.157-.063-.418-.348-.439-.339-.637-.746-1.484-1.429-.47-.668-.334-.537-.178-.824-.1-.3.031-.256.031-.1.146-.312-.063-.271-.1-.2-.261-.206-.387-.238-.543-.179-.356.064-1,.243-1.2.376-1.16.269-.7.193-1.118.486-.7.375-.366.49-.156.288-.042.119-.146.522-.146.146-.324.142-.335.133-.887.109-.2,0-.919-.156-.011-.005-.679-.287-.941-.316-.637-.117-.168-.03-2.3.493-1.672.172-1.14.45-.773.179-.605.116-.334,0-.419,0-.585-.1-.533-.1-.543-.36-.387-.142-.512-.052-.23.057-.177.046-.356.185-.4.334-.585.518-.261.389-.167.255-.314.765-.251.378-.219.321-.293.4-.449.33-.355.188-.281.039-.722-.016-.7-.091-.5.045-.67.23-.145-.386-.261-.218-1-.229-.031-.676.062-.391.251-.266.3-.354-.052-.609-.094-.553-.4-.781-.544-.867-.679-.523-.136-.257.346-.305.449-.39-.168-.439-.46-.542-.387-.362-.626-.01-.429.315-.387-.248-.867-.771-.429-.781.031-1.105.031-.791.042-.476.2-.276.4-.342.345-.486-.408-.009-.753-.1-.375-.057-.554-.3-1.558-1.7-.533-.5-.815-1.135-.983-1.113-.355-.743.345-1.277-.042-.857,1.318-.667.939-.076,2.091-.134,1.2.077,1.275.247,1.2.171.9-.343,1.443-.134,1.065-.152.439-.724v-2.992l.23-1.239.271-1.047.262-.972-.3-.782-.668-.3-.973-.324-1.106-.343h-.857l-1.181-.076-.543-.305-.22-1.1-.815-2.287-.251-.78-.116-.916-.24-.78-.732-.82-.533-.877-.564-.552.019-.534-.312-.838-.648.039-.679.075-.784-.171-.721-.686-1.432-.857-.647-.515.25-.438.209-.781-.042-.877v-.724l-.135-.781-.774-.115v-.647l-.062-.972-.074-1.524.022-1.466v-.915l.031-.971.022-.953.072-.876-.125-.99-.346-.572-1.107-.229.041-.819,1.213-1.715.2-1.143-.095-.952-.293-.724-.281-.667-.252-.877-.135-1.352.668-.267.764-.362.647-.4.575-.456.492-.477.783-.457.909-.191.763-.477.46-1.2-.095-2.529.24-.006.93-.009,1.192.619.6.324.637.151.512.076.471-.095.385-.333.262-.524.251-.2.408-.276.575-.362.627-.344.523-.352.91-.276,1.274.009,1.234-.1.815-.134.919-.076,1.306-.142.063-1.534.4-.171.272-.229.188-.276.042-.429.2-.362.407-.41.408-.066.658.086.512.153.617.081.324.591.073.181.26.229.231.147.354.1.377.063.157.614.156.362.4.415.22.343.282,1.29.293.519.333.481.816.695.241.162.323.3.282.32.375.59.461.81.25.229.365.09.377.052.314.024.22.138.271.162.386.324.575.586.22.247.178.347.219.558.094.786.1.357.106.228.407.32.409.038.333,0,.334-.009.43.028.376.024.564-.01,1.213-.491.386-.095.439-.043.575.171.47.3.293.581.241.367.532.49,1.045.823.408.225.449.2.4.1.451-.014,1.243-.318.4-.119.364-.052.461.024.355.152.314.343.3.419.136.138.386.052.273.028.334.067.125.2.146.257.365.3.4.1.773.167,1.265.281.313.028.513-.086.564-.119.657-.186.889-.067.407.039.24-.034.314-.114.46-.158.459-.152.366-.114.418-.076.7.186.492.214.449.123.595-.01.732.02.616.337.607.691.449.609.439.353.365.271.43.072.345-.186.376-.271.3-.181.46-.2.209-.015-.094,1.534-.147,1.038.032.638.177.629.115.447.575.695.167.258.491,1.543.011,1.048-.041,1.372-.188,1.5-.262,1.037-.177.525-.094.428-.428.324-.073,1.6-.71.257-.658-.114-.5-.363-.64-.324-.772-.01-.93.1-.951.095-.731.038-1.588.648-1.045.514-1.1.106-.408.209-.282.306-.23.5-.815,1.514-.24.667-.146.419.052.4.617.39.659.248.847.419.752.343.762.305.658.152.439.123-.167.858-.2.628-.042.582-.042,2.791.522.534.3.209.147.305v.619l.939,1.421.628.322.418.21.49-.124.334-.142.544.067.365.286.2.333.177.468.1.475.2.638.314.373.4.256,1.432.8.521.114.5-.306.4.153-.021.458-.042.609-.021.477-.251.514-.21.458v1.01l.461.361.448.095.293.353.438-.076.462-.22.218.077.168.381.313.561.273.5.272.5.334.439.6.838.742.666,1.673,1.125.428.514.22.362.3.477.115.419.115.514-.073.381-.334.21-.429.19-.417.371-.1.315.188.5.313.4.481.4.346.181,1.723.181,1.285.134,1.118.276.638.314.532.352.648.505.241.515.135.486-.094,2.143.167.695.251.5-.136.066-.385.264-1.025,1.146" transform="translate(-1865.8 -801.708)"  stroke="#fff" stroke-linecap="square" stroke-linejoin="bevel" stroke-width="1" fill-rule="evenodd"/>
      <text id="talId43count" transform="translate(27.498 44.907)" fill="#fff" font-size="10"  font-family="OpenSans-Bold, Open Sans" font-weight="700"><tspan x="0" y="0"></tspan></text>
    </g>
    <g id="_38_Digras" data-name="38 Digras" transform="translate(393.363 1292.64)">
      <path id="talId38" fill="#7DB8EC"  title="Digras" data-name="Digras" d="M1871.782,861.011l-.283.247-.115.5.021.392.1.609-.313,1.3-.346.462-.365-.018-.335-.125-.563-.181-.283-.024-2.507-.281-2.3-.133-1.358-.076-.856-.124-.679-.114-.5-.2-.47-.409-.355-.5-.146-.705-.052-.591.02-.847.2-.743.022-.9-.4-.381-1.452-.753-.919-.334-.576-.3-.532-.142-.356.19-.669.095-.637-.028-.774-.02-.584-.029-.439-.294-.522-.687-.428-.533-1.62-1.81.125-1.076-.25-.782-.324-.342-.68-.077-.386.219-.575.476-.627.056-.585-.3-.805-.505-.47-.258-.71.1-1.391.313-1.181.076-.888.039-.387.1-.711.334-.2.466-.011.419-.114.561-.293.734-.4.238-.7-.153-.449-.209-1.035-.3-.532-.79-.858-.229-1.2-.372-.837-.191-.95-.114-.68-.142-1.191-.324-1.181-.934-.668-.59-.324-.43-.105-.38,1.254-.676.272-.667-.94-.115-.554-.058-.689-.294-.387.028-.219.3-.022.457-.344.228-.468.077-.629.305-.8,1.409-.868.963-.794.438-.71.276-.825.067-.618-.3-.585-.142-.628.037-1.138-.342.251-.5-.1-.734-.116-.629-.041-.618-.042-.762.011-1.572-.054-.687-.439-.257-.418-.076-.44-.257-.805-.581.033-.3.1-.561.22-1.315.136-.248.219-.342.282-.443.9-.767.053-.425.01-.294.094-.343.293-.238.406-.3.554-.582.083-1.037.074-.6.146-.349.5-.619.438-.266.586-.248.605-.166.262-.491.408-1.605V831.9l.041-.428.085-.685.4-.633.365-.192.261-.028.47-.048.449-.177.126-.228.093-.267.282-.238.189-.133.158-.781.03-1,.179-1.29.053-1.1.552-1,1.15-2.2.282-.467.146-.468.126-.628.073-.391.073-.343-.157-.22-1.213-.129-.147-.09-.125-.219-.094-.314.041-.305.146-.334.272-.7.135-.871.126-.629.073-.829.229-.624.178-.257-.053-.339-.407-.147-.292.062-.366.039-.294-.043-.521-.3-.575-.484-.5-.244-.565-.224-.511.009-.335.276-1.086.043-.419-.019-.03-.2-.105-.31-.3-.129-.209-.2-.115-.458.126-1.661-.23-.153-.323-.081-.3-.091-.219-.186.155-.309.282-.481.4-.944.668-.667.95-.828.325-1.224.094-.3-.146-.119-.418-.1-.272-.114-.168-.247-.01-.429.094-.858.345-.753.824-1.9.879-2.3.366-.634.1-.485.168-.5.272-.352.617.372.324.752.209.667.282.695.271.829.6.829.627.724.889.382.962.3.867.22,1.318-1.59.375-.333.471-.115.471-.142.49-.268.743-.19.7-.095,1.171-.048.428.143.2.4.157.553.366.41.574.419,1.413,1.086.7.257.659.381.522.191.324.381-.01.475-.032.5.241.477.3-.133.532-.467,1.171-.382.48-.018.867-.049.774-.056.459.162.335.505.522.143.252-.267.365-.4.459-.277.952-.028,1,.285.512.22.793.085.576.276.491.353.563.485,2.017.02.877.533.21.428.114.572.178.41.544.409.657.439.522.523.637.114.617-.067,2.456-.019.533-.315.282-.227.407.123.147.343.6.105.7.028,1.067-.048,1.432.039,1.589-.886.574-.468.407-.419.513-.19.479.066.408.115.178.229v.533l.053.467.345.124.532.057.848.057.437.024.094,2.529-.459,1.2-.763.477-.908.191-.784.457-.491.477-.575.456-.648.4-.764.362-.668.267.136,1.352.25.877.282.667.293.724.094.952-.2,1.143-1.211,1.715-.042.819,1.107.229.344.572.126.991-.074.875-.021.953-.031.971v.915l-.02,1.466.073,1.525.063.971v.646l.774.116.136.78v.725l.041.877-.208.781-.251.438.648.516,1.432.857.721.686.784.171.679-.076.647-.038.314.838-.02.534.564.551.532.877.733.819.24.781.115.915.251.781.816,2.286.219,1.1.542.305,1.181.077h.858l1.107.343.971.324.67.3.3.782-.261.972-.273,1.047-.229,1.238V856.4l-.438.723-1.067.153-1.441.134-.9.343-1.2-.171-1.275-.248-1.2-.076-2.089.134-.941.076-1.317.667.042.857-.345,1.276.356.744" transform="translate(-1816.949 -795.292)"  stroke="#fff" stroke-linecap="square" stroke-linejoin="bevel" stroke-width="1" fill-rule="evenodd"/>
      <text id="talId38count" transform="translate(23.561 42.514)" fill="#fff" font-size="10"  font-family="OpenSans-Bold, Open Sans" font-weight="700"><tspan x="0" y="0"></tspan></text>
    </g>
    <g id="_204_Mahagaon" data-name="204 Mahagaon" transform="translate(391.209 1344.547)">
      <path id="talId204" fill="#7DB8EC"  title="Mahagaon" data-name="Mahagaon" d="M1819.248,848.909l1.14.343.627-.038.585.142.617.3.826-.067.711-.276.794-.438.867-.963.8-1.41.627-.305.469-.076.345-.229.02-.457.221-.3.388-.029.689.295.554.058.94.115-.272.666-1.255.676.1.38.325.429.669.591,1.181.933,1.191.324.679.143.951.114.836.191,1.2.372.857.228.534.79,1.034.3.449.209.7.152.4-.238.291-.734.116-.561.011-.419.2-.467.711-.333.387-.1.888-.039,1.181-.077,1.39-.313.711-.1.469.258.805.505.585.3.627-.056.574-.477.387-.22.679.077.323.343.252.782-.126,1.077,1.62,1.81.428.533.523.687.439.295.584.028.774.02.638.028.668-.1.356-.19.532.142.576.3.919.333,1.453.752.4.382-.021.9-.2.743-.022.847.054.59.145.706.356.5.471.409.5.2.681.114.857.124,1.358.076,2.3.132,2.507.281.282.024.564.181.335.124.365.019.346-.462.314-1.3-.105-.609-.02-.391.114-.5.282-.248.984,1.114.815,1.134.533.505,1.556,1.694.553.3.377.057.752.095.408.01-.345.485-.4.343-.2.276-.042.476-.031.791-.031,1.105.429.782.867.771.387.248.429-.315.626.01.387.363.46.542.167.439-.45.39-.345.305.135.257.679.523.544.868.4.78.094.553.053.609-.3.353-.251.266-.063.391.032.676,1,.229.261.218.146.386-.4.276.062.362-.031.249-.135.208-.23.159-.481.171-.721.168-1.171.272-.742.265-.826.554-.752.518-.8.864-.2.3-.617,1.147-.491.642-.617.832-.47.981-.419,1.043-.343.449-.262.3-.617.475-.4.55-.126.494-.2.613-.334.852-.22,1.291-.01.531.031.523.084.669-.021.32-.2.311-.376.5-1.1.906-1.944,2.033-1.108,1.173-.281.577-.01.421.355,1.4.188.586.356.96.218.375.972.467.513.274.4.285.188.3.157.265.125.456.052,1.008-.041.693-.3.764-.5,1.14-.145.563-.2.528-.094.815.041.217.073.4.125.382.438.551.5.485.366.1.189-.02.793-.123.366-.169.563-.291.4.032.324.285.115.247.137.3.22,1.068.156.421.794.551.492.505.866.887.314.162.24-.083.241-.086.3-.3.219-.48.21-.433.166-.233.314-.2.469-.088.5.059.365.109.461.156.48.272,1.16.46.24-.058.262-.155.365-.259.617-.479.637-.531.439-.443.438-.238.365-.015.366-.018.377.076.417.155.439.167.492.36.45.327.292.2.282.117.387.177.429.206.209.181.386.394.46.577.335.473.24.408.471.627.271.459.241.439.157.288.177.343.157.363.051.2-.762.3-.292.305-.283.628-.114.953-.23.553-.481.743-.439.857-.282.4-.26,1.028.449.344.941.438h.773l.554.285.083.4-.273.533-.4.552-.71.8-1.161.21-.188-.591-.742-.114.146-.61.826-.953-2.77.1.021-.457-.021-.724-.324-.685-.22-.534-.314-.914-.512-.19-.742-.058-1.119-.361-.1-.82-.972-1.01-1.118-.952-2.132-1.867-.5-.7-.3-.533-.491-.228-.626.533.354.762-.073.59-.6,2.1-.21.724-.648.533-.647-.267-.764-.457-.742-.572-.533-.457-1.317-.343-.741.095-.377.838-.208,1.125-.209,1.942-.533,1.181-.835.114h-.6l-1.41.019-.365.438-.418.629-.24.057-1.056.038-.836.286-.668.61h-.775l-1.431.762-.439.934-.229.952-.576.477-.772.248-.627-.172-.972-.248-2.008-.057-.418,1.238.3.362.48.439.47.609-.333.267h-.429l-.45-.151-.993-.611-.6.381-.564.38-.6.439-.91.59-.731-.19-.773.362-.847.361-.815.419-.44.477-.689.438-.439-.229.084-.476.283-.667.594-1.962.23-1.315-.063-1.067-.25-.685-.491-.419-.628-.572-.5-.59-.354-.1-.439.838-.387.552-.773.381-.763-.4-1.107-.59-2.039-.553-4.483-1.6-1.213-.438-1.483-.553-1.244-.438-2.194-.476-1.537-.553-.209-1.067-.156-.19-.67-.19-1.065-.305-.816-.381-.668-.419-.649-.609-.9-.743-.741-.229-.972.266-.857.152-.031-.628-.116-1.182.4-.171,1.087-.247.647-1.2-3.97-.267.219-.658.115-.447.1-.571.136-.7.628-1.353.794-.79,1.035-.905.094-1.057.073-.381.157-.456.24-.5.2-.333-.009-.391-.534-.095-.4-.048-.418-.38-.2-.372.532-.819.4-.438.4-.5.262-.457.1-.534.491-.495.335-.648-1.609-1.229-.94-.171-.711-.22-.585-.343-.345-.391-.083-.3.23-.381.469-.172.723-.294.449-.259.543-.266.209-.5.408-1.781v-.8l-.041-.781.208-.171.868-.3.721-.363.459-.591.074-.476-.293-.7.25-.381-.094-.667-.585-.247-.408-.9-.021-.876-.4-.571-.251-.515.042-.5.344-.248.744-.056.459-.306-.365-.743.073-.7.062-1.372.021-.457.073-.591.168-.781-.168-.629-.972-.419.136-.629.283-.857.23-.933-.345-.476-.993-.667L1819.73,877l.3-.343.387-.551.115-2.058.042-1.486.188-1.524.262-1.41-.116-1.3-.721-.5-1.066-.114-1.567.419-2.049.648-.877-1.181.417-.724,1.317-.162.815-.867.407-.333.45-.657.125-.514.2-.59-.031-.429-.428-.657-.2-.5-.324-.648-.146-.382.021-.551.011-.534-.083-.438-.3-.7-.228-1.343.042-.458.166-.333.2-.438-.063-.533-.177-.458-.459-.352-.493-.333-.261-.41-.01-.524.053-.475.218-.963.21-.447.241-.382.3-.229.544-.046.5-.058.21-.257.386-1.248.46-.333.533-.381" transform="translate(-1814.63 -845.099)"  stroke="#fff" stroke-linecap="square" stroke-linejoin="bevel" stroke-width="1" fill-rule="evenodd"/>
      <text id="talId204count" transform="translate(14.715 49.606)" fill="#fff" font-size="10"  font-family="OpenSans-Bold, Open Sans" font-weight="700"><tspan x="0" y="0"></tspan></text>
    </g>
    <g id="_37_Pusad" data-name="37 Pusad" transform="translate(316.628 1327.316)">
      <path id="talId37" fill="#7DB8EC"  title="Pusad" data-name="Pusad" d="M1822.442,849.665l-.532.381-.46.334-.387,1.247-.208.258-.5.057-.543.048-.3.228-.241.381-.21.447-.218.962-.052.476.01.525.26.409.492.334.46.352.177.457.062.534-.2.437-.167.333-.043.458.23,1.342.3.706.084.438-.012.534-.019.552.146.381.324.648.2.5.43.657.031.429-.2.59-.126.514-.449.657-.406.334-.816.867-1.317.162-.418.724.879,1.18,2.047-.648,1.568-.419,1.067.114.72.5.115,1.3-.261,1.41-.188,1.524-.042,1.486-.116,2.057-.386.552-.3.343,1.39.858.992.666.346.476-.23.934-.282.857-.137.629.974.419.166.629-.166.781-.074.591-.02.458-.064,1.372-.073.7.366.743-.46.305-.743.057-.344.247-.042.5.252.515.4.572.021.876.408.9.586.248.093.667-.25.381.293.7-.074.476-.458.591-.721.362-.868.3-.209.172.042.782v.8l-.408,1.781-.208.5-.543.266-.449.258-.722.295-.471.171-.229.382.084.294.345.391.585.342.71.22.94.172,1.609,1.228-.334.649-.491.495-.1.533-.262.457-.4.5-.4.437-.534.819.2.371.418.381.4.048.533.1.011.391-.2.333-.239.5-.157.456-.073.382-.094,1.057-1.035.905-.793.79-.629,1.353-.135.7-.1.572-.115.447-.22.657-.5.011-.293.167-.093.257.01.3-.283.3-.437.2-.889.615-.24.295.009.367-.031.429-.188.233-.439.085-.366-.242-.429-.362-.334-.338-.135-.257-.292-.515-.335-.663-.4-.823-.479-.272-.566-.3-.617-.319-.543-.057-.5-.115-.491-.143-.439-.309-.21-.328-.146-.349-.188-.357-.293-.2-1.15-.214-.6.038-.208-.1-.146-.6.1-.242.219-.32.24-.281.691-.872.293-.437-.01-.309-.481-.486-.053-.2-.262-.852-.553-.592-.512-.285-.742-.143-.637.171-.742.22-.616.19-.7.172-.616.115-1.244-.076-.573-.3-.638-.524-.46-.6-.4-.449-.554-.409-.574-.181h-.691l-.731.124-.628.143-.532.171-.764.287-.732.847-.01.381.073.6-.115.715-.283.6-.313.572-.544.477-.689.542-.407.419.606,1.2.417.733.524.667.375.447.407.572-.365.534-.417.343-.315.419-.053.533.19.477.553.458-.062.876,1.118.752,1.087.4,1.294.419.555.372.25.486.031.572-.721.666-.637.429-.585.1-.45-.114-.511-.134-.513.6-.261.43-.072.7-1.965-.057.083.9.021.658-.826.782-.47.2-.031-.083-.1-.279-.041-.108-.147-.06-.23-.056-.356-.028-.4-.017-.407-.03-.272.016-.229,0-.367.033-.262.014-.24.026-.324.043-.293.06-.146.043-.094.075-.094.089-.074.067-.072.052-.125.018-.231-.069-.365-.2-.187-.125-.063-.074-.042-.133-.032-.133.012-.127.02-.147v-.139l-.02-.089-.116-.151-.126-.109-.187-.07-.147-.018-.187.018-.22.019-.188.051-.345.132-.314.085-.324.081-.449.129-.3.047-.272.034-.2,0-.283,0-.313-.052-.24-.095-.3-.188-.376-.322-.659-.561-.449-.393-.22-.119-.083-.033-.136-.013-.219-.013-.218.006-.21.031-.219.036-.157.005-.167-.031-.116-.131-.115-.195-.114-.269-.084-.434.094-.16.063-.209.178-.215.585-.538.334-.181.157-.093.094-.125.073-.2-.042-.312-.135-.329-.209-.358-.167-.266-.062-.414-.031-.448-.073-.4-.2-.21-.22-.2-.218-.123-.314-.162-.3-.239v-.275l-.01-.253-.053-.41-.157-.466-.2-.7-.115-.367-.135-.139-.325-.09-.281-.082-.178-.162-.177-.29-.115-.371-.711-.48-.46-.024-.45-.168-.491-.114-.658-.167-.763-.429-.313-.276-.115-.138-.052-.149v-.323l.011-.286.093-.29.021-.324-.24-.286-.438-.248-.335-.053-.439.139-.533.453-1.065.8-.4.605-.522.343-.2.19-.136.367-.011.223-.041.449-.21.361-.271.329-.847.19-.417.018-.544-.067-.576-.138-.511-.171-.283-.5.136-.324.219-.343.095-.424.04-.466-.146-.491-.187-.358-.262-.39-.293-.324-.167-.534.042-1.147.146-.324.125-.2.313-.363.325-.561.511-1.773.1-.471.23-.242.156-.087.357.053.741.047.555-.019.574.005h.47l.377.052.438-.043.273-.149.5-.966.073-.952-.052-.43-.2-.338-.3-.363-.365-.076-.858.11-1.546-.185-.314-.162-.491-.162-.523-.1-.741-.147-.188-.181-.334-.362-.126-.571.617-1.8.313-1.115.408-1.786.094-.357.167-.2.314-.056.439-.015.262-.043.2-.114.063-.333-.053-.4-.208-.633-.136-.438-.2-.382-.366-.285-.376-.129-.376.086-.533,0-.867.093-.387-.043-.344-.171-.555-.339-.324-.106-.418-.065-.251-.036-.356.078-.449.3-.355.531-.282.277-.293.319-.261.229-.188.178-.408,0-.156-.015-.271-.093-.271-.221-.137-.2-.219-.272-.273-.45-.146-.222-.27-.154-.252-.079-.365-.135-.156-.11-.168-.219-.261-.495-.125-.244-.115-.319.01-.59.053-.2.219-.233.293-.162.335-.136.68-.069.678.1.607.1.554.1.366.054.25.005.22-.043.126-.236-.1-.538-.167-.288-.292-.515-.346-.551-.3-.263-.3-.26-.147-.483.084-.285.126-.139.2-.121.2-.155.146-.181.638-.238.3-.112.219-.134.147-.121.073-.172v-.176l-.084-.255-.073-.4-.178-.252-.147-.153-.208-.117-.189-.03-.345.011-.492.015-.6,0-.24-.026-.261.012-.324-.083-.2-.09-.23-.134-.2-.214-.146-.393v-.212l-.032-.219.1-.5.24-.518-.021-.324-.031-.209-.042-.175-.146-.166-.147-.169-.146-.1-.209-.056-.25-.007-.3-.024-.491-.031-.3.007-.492-.062-.459-.2-.334-.288-.263-.293-.3-.465-.345-.762-.2-.25-.135-.136-.231-.152-.156-.112-.251-.119-.4-.057-.492.045-.241.181-.606.449-.469.4-.3.283-.272.24-.773.124-.418-.028-.575-.084-.574-.117-.293-.043-.271-.06-.231-.085-.146-.166-.157-.37-.218-.59-.126-.46.01-.235v-.235l.042-.344.115-.174.135-.083.387-.171.4-.012.5.1.73.166.742.124.355.046.313.067.23.071.188-.009.126-.045.1-.1.052-.221.021-.507-.22-.769-.23-.5-.073-.162-.041-.165-.01-.146.042-.164.126-.207.25-.283.2-.386.042-.26-.01-.232-.053-.339-.042-.142-.094-.16-.126-.1-.157-.06-.272-.034-.355.045-.24.084-.209.143-.283.216-.313.284-.366.418-.48.521-.513.41-.282.186-.387.192-.188.1-.282.05-.188.009-.272-.019-.523-.141-.291-.106-.273-.117-.229-.13-.168-.208-.072-.225-.043-.257-.063-1.367.031-.465.251-.634.127-1.527.051-1.609-.126-1.038.22-.109,1.985-.954.669-.385.272-.386.439-.752.167-.358.125-.467.178-.414.094-.977.01-.348.041-.319.063-.319.063-.2.083-.315.2-.177.4.043.366.048.982.214.438.076.408.167.428.19.357.2.146.224.114.147.168-.138.188-.352.262-.415.292-.734.209-.591.2-.866.042-.267.072-.2.23-.2.177-.086.367.067.21.114h.24l.344-.067.145-.123.168-.267-.084-.3-.188-.432.01-.582.1-1.386.053-.371.041-.272.137-.724-.011-1.019.346-.838.23-.4.218-.223.219-.143.115-.162-.053-.194-.052-.149-.053-.123.021-.157.084-.109.262,0,.23.029.334-.138.22-.123.23-.1.251-.124.167-.161.115-.225-.01-.175v-.229l.156-.071.167,0,.22.091.251.038.188.038.155.038.136-.09.043-.191.01-.291v-.229l-.073-.271-.116-.539.021-.21.23-.214.126-.305.283-.2.3-.405.795-1.3.835-1.339.774-1.242.231-.449.125-.285-.01-.3-.074-.414-.459-.434-.418-.419-.491-.4-.482-.385-.345-.2-.4-.177-.03-.538-.368-.19-.439-.338-.178-.191-.229-.176-.1-.315-.084-.691-.106-.648.022-.238.156-.1.148-.147.062-.22v-.586l.042-.276.271-.229.428-.143.357-.085.293-.1.26-.129.251-.228.261-.248.292-.3.3-.347.563-1.1.073-.266.042-.286-.021-.224-.115-.3-.177-.281-.25-.243-.2-.186-.21-.462.2-.147.261.147.376.334.377.372.46.219.719.41.461.343.648.5.376.362.356.191.616.047.878-.1.815.448.25.19.691.115.626-.062,1.224.029.584-.033.345.071.21.252.219.234.364.229.387.214.816.223.355.071.292.315.324.176.345.1.491.1.627.181.825.238.783.2.534.052.574.176,1.222.228.428.115.293.123.293.067.438.019.648-.056.794-.024.6-.5,1.106-.881.439-.614.773-.619.324-.253.261-.2.283-.162h.262l.333.128.24.138.208.333.136.244.262.233.7.057.47-.143.513-.133.292-.191.24-.338.628-.881.46-.225.25-.1.387-.166.6-.244.825-.285.952-.467.5-.19.439-.205.377-.148.479-.215.315-.142.281.138.115.533.125.719.272.467.355.51.429.624.69.462.459.513.418,1.044.4.59.335.43.824.585.188.168.387.232.387.262.313.624.283.466.219.544.23.242.021.234-.073.229-.032.361-.01.505.471.99.272.177.218-.067.283-.076.24-.009.241.167.166.305.115.061.293.1.063.54.324.061.239-.014.282.028.24.225v.285l.262.586,1.025,1.2.407.257.4.182.241.152.251-.018.188-.2.188-.31.177-.167.344-.2.262-.039.314.162.209.171.188.019.356-.162.732-.674.25-.216.177-.093.231,0,.251.114.23.177.23.169.3.016.6-.171.355-.009.346-.041.386-.322.544-.306.522-.07.47-.162.606-.123.523-.11.512.181.314.391.449.49.167-.085.8.581.44.258.418.076.438.257.052.686-.01,1.572.042.761.043.619.114.629.105.734-.252.5" transform="translate(-1743.68 -828.304)"  stroke="#fff" stroke-linecap="square" stroke-linejoin="bevel" stroke-width="1" fill-rule="evenodd"/>
      <text id="talId37count" transform="translate(34.297 53.838)" fill="#fff" font-size="10"  font-family="OpenSans-Bold, Open Sans" font-weight="700"><tspan x="0" y="0"></tspan></text>
    </g>
    <g id="_40_Umarkhed" data-name="40 Umarkhed" transform="translate(365.487 1405.697)">
      <path id="talId40" fill="#7DB8EC"  title="Umarkhed" data-name="Umarkhed" d="M1790.289,924.624l.469-.2.826-.782-.021-.658-.083-.9,1.964.058.073-.7.261-.43.512-.6.512.133.45.115.585-.1.638-.428.721-.667-.032-.572-.251-.486-.552-.372-1.3-.419-1.088-.4-1.117-.752.062-.876-.553-.458-.189-.476.052-.533.314-.419.418-.343.365-.534-.408-.572-.376-.446-.522-.667-.418-.734-.607-1.2.409-.419.69-.542.543-.477.314-.571.282-.6.114-.714-.072-.6.011-.382.73-.847.763-.286.532-.171.627-.142.732-.125h.69l.575.181.554.41.4.448.46.6.637.523.575.3,1.244.076.617-.115.7-.172.617-.19.742-.219.637-.171.742.143.512.285.553.591.261.852.053.2.48.486.011.309-.293.438-.689.872-.24.281-.22.32-.1.242.147.6.208.1.6-.037,1.149.214.293.2.188.357.147.348.208.328.44.31.49.143.5.115.543.057.616.319.566.3.48.272.4.823.334.663.292.514.136.257.334.338.428.363.366.242.439-.086.188-.233.031-.429-.01-.366.24-.3.889-.615.439-.2.281-.294-.011-.3.095-.257.292-.166.5-.011,3.972.268-.648,1.2-1.087.247-.4.171.115,1.182.031.628.858-.152.972-.267.742.229.9.743.648.609.669.419.815.382,1.066.3.669.191.156.19.209,1.067,1.536.553,2.195.476,1.243.439,1.484.553,1.213.438,4.483,1.6,2.038.553,1.108.591.762.4.774-.382.387-.552.438-.839.356.1.5.591.626.572.491.419.253.685.062,1.068-.23,1.314-.6,1.962-.282.667-.083.477.439.229.691-.439.438-.476.815-.42.845-.361.774-.362.732.191.91-.591.6-.439.564-.38.6-.381.993.61.45.151h.428l.334-.266-.47-.609-.48-.44-.3-.361.419-1.239,2,.058.972.247.627.171.774-.248.576-.476.23-.952.438-.935,1.432-.762h.773l.67-.609.834-.286,1.056-.037.241-.058.418-.629.365-.437,1.41-.019h.6l.836-.115.533-1.181.208-1.943.209-1.124.377-.839.742-.1,1.318.343.532.457.743.571.763.458.648.266.648-.533.208-.724.6-2.1.073-.59-.355-.762.626-.533.492.228.3.534.5.7,2.131,1.868,1.118.952.971,1.01.1.819,1.118.362.742.057.513.19.313.915.22.534.323.685.022.725-.022.457,2.77-.1-.825.953-.146.609.741.114.188.591,1.16-.211.711-.8.4-.552.272-.534-.084-.4-.554-.285h-.773l-.941-.438-.45-.344.262-1.029.282-.4.439-.857.48-.743.229-.553.116-.953.283-.628.291-.305.763-.3.052.23.2.371.293.469.188.26.3.115.7.208.094.017.219.136.46.154.208-.026.712.046.293.091.2.161.262.293.219.305.073.2.335.836.125.47.011.391-.021.165-.293.611-.157.412-.073.373-.01.323.031.359.126.325.3.376.376.216.648.319.731.273.438.329.5.124.5-.023.385.037.283-.048,1.829-1.2.992-1.15.523-.407.9-.548.721-.351.783-.586.712-.34,1.1-.18.785.1.908.245.471.1.637.123.722.355.522,1.1.315.77.3.97.156.676.022.374-.052.248-.073.221-.314.629-.022.388.011.368.147.241.292.214.346.16.135.056.773.091.637.054.293.047.47.107.408.341.481.5.553.717.355.515.3.8.062.488.053.409.2.448.094.087.627.682.554.414.471.148.689.1.429-.074.543-.063.261-.223.2-.4-.021-.887-.011-.382.083-.375.209-.348.315-.3.323-.181.679-.95.377-.315.428-.046.428.087.554.261.837.4,1.1.549.439.04.429-.167.313-.181.177-.321.073-.448.167-.8.168-.562.074-.4.156-.24.273-.114.637.04.669.18.657.321.7.269,1.369.427,1.2.289,1.015.293.837.242.438.181.354.28.261.248.345.168,1.087.127,1,.093.469.474.23.388.2.348.052.361.074.221.167.342.167.22.242.382.218.415.208.341.136.308.032.281.042.354.114.382.209.9.534.789.353.462.263.342.2.26.208.623-.094.582-.062.414-.126.289-.125.281-.084.294-.147.623-.219.455-.229.355-.2.321-.074.435-.052.441.126,1.258.167.408.115.314-.03.421-.116.154-.177.228-.45.8-.241.24-.23.221-.187.221-.125.214-.032.254-.03.3.145.368.617.95.22.448.041.381-.01.567.01.487-.041.519-.157.292-.189.246-.261.228-.323.18-.346.122-.731.122-.449-.016-.439.007-.418-.017-.23.052-.208.18-.376.221-.24-.033-.209-.047-.376-.053-.366.12-.166.207-.293.308-.565.435-.95.421-.649.187-.469.115-.1.026-.439.06-.638.013-.554-.234-.469-.22-.68-.295-.909-.193-.773-.289-.732-.173-.209.014-.668.168-.3.226-.189.195-.093.108-.272.582-.043.194.115.434.451.69.481.549.584.461.942.676.439.408.177.308.293.4.02.36v.429l.012.428V961l-.116.5-.219.4-.272.275-.177.252-.219.212-.356.146-.741.388-.45.345-.23.242-.115.118-.073.2-.042.232-.032.326-.282,1.225-.189,1.245-.062.445-.094.329-.136.171-.25.189-.45.445-.167.288-.262.35-.01.236-.053.673-.479.29-.628.117-.4.021-.48-.049-.9-.43-.7-.24-.261.034-.324.2-.47.441-.794.822-.534.5-.1.093-.481.513-.816.67-.428.362-.387.283-.345.225-.762.65-.241.308-.166.244-.283.214-.23.122-.188.049-.052,0-.178-.016-.271-.078-.335-.259-1.107-.781-.513-.474-.261-.513-.439-.411-.522-.336-.753-.313-.668-.45-.637-.732-.616-.86-.5-.655-.22-.407-.646-.473-.408-.21-.4-.1-.669-.068-.449.048-.293.069-.261.1-.627.591-.167.337-.252.82-.061.254-.053.435.031.372.136.758-.021.523v.469l.136,1.441-.031.527-.042.514-.22.611-.2.283-.168.157-.292.143-.386.118-.22.107-.168-.008-.136-.084-.188-.133-.241-.053-.292.066-.2.01-.177.007-.91-.234-.71-.129-.513-.153-.354-.154-.753-.316-.826-.738-.345-.609-.072-.42.083-.42.763-.809.355-.521.135-.371-.052-.373-.125-.5-.241-.384-.574-.613-.837-.868-.794-1.07-.471-.964-.23-.713-.188-.924-.084-.68-.042-.58-.241-.343-.24-.1-.573-.078-.764-.093-.795-.273-.292-.136-.512-.005-.345.024-.272.055-.313.1-.208.142-.3.205-.554.66-.294.488-.177.25-.9,1.118-.137.177-.2.156-.323.025-.125-.093-.231-.367-.062-.4-.126-.366-.209-.337-.356-.342-.626-.43-.9-.556-.565-.474-.815-.5-.564-.239-.251-.175-.179-.137-.407-.342-.135-.22-.1-.195-.157-.26-.053-1.006-.177-.767-.293-.69-.062-.244-.063-.283-.063-.073-.178-.107-.376-.029-.241.005-.344.117-.408.45-.146.259-.136.47-.145.463-.106.3-.1.239-.157.224-.658.25-.5.171-.345.142-.2.1-.324.274-.168.2-.127.186-.031.151-.052.289.01.391v.708l-.01.3-.094.361-.084.387-.138.883-.208.19-.271.093-.219.044-.115.019-.355-.009-.356-.119-.272-.165-.135-.156-.125-.177-.032-.224.042-.581.156-.866-.032-.376-.052-.3-.063-.2-.136-.122-.491-.1-.47-.033-.354-.039-.377-.01-.282-.03-.323-.181-.522-.4-.638-.62-.283-.147-.313-.079-.281,0-.251.019-.2.108-.564.387-.817.8-.6.674-.711.8-.229.342-.116.24-.041.553.229.96.147.768.094.663.063.58-.093.547-.1.3-.157.377-.272.48-.156.173-.251.156-.4.235-.3-.014-.627.006-.72.073-.345.08-.106.041-.156.086-.094.156-.293.445-.1.153-.011.138.052.227.126.229.346.514.375.6.251.571.365.508.544.511.377.308.782.453.492.318.44.329.229.293.062.239.137.3.083.382-.052.345-.031.13-.062.132-.115.083-.094.038-.188.058-.136.073-.188.049-.366.051-.356.006-.208.086-.105.093-.229.307-.146.165-.282.318-.052.208-.042.38-.115.438-.083.118-.272.259-.219.1-.449.156-.387.038-.47-.052-.355-.045-.156-.08-.012-.007-.523-.334-.521-.381-.167-.3-.1-.521-.147-.8-.093-.64-.137-.452-.1-.425-.1-.262-.271-.432-.24-.373-.261-.277-.219-.19-.188-.156-.22-.2-.324-.09-.324-.028-.188.141-.178.114-.293.346-.115.114-.116.117-.1.139-.042.2-.053.294-.073.692-.084.235-.032.217v.224l.011.266-.02.16-.115.093-.146.006-.523.02-.679-.034-.68-.021-.261.1-.313.01-.293.08-.115.1-.145.132-.324.373-.2.228-.156.191-.5.47-.647.484-.544.224-.387.1-.375.1-.857.374-.586.352-.418.286-.617.194-.063.021-.073.032-.877.447-.691.252-.386.066-.325.027h-.24l-.209-.055-.313-.277-.115-.072-.167-.325-.021-.359-.02-.252-.053-.166-.063-.127-.115-.122-.052-.034-.68-.073-.4.145-.146.177-.2.235-.273.276-.272.084-1.055.045-.637-.052-.89-.267-.24-.155-.094-.055-.177-.052-.345.008-.94-.021-1.348.063-1.453-.371-.6-.271-.345-.136-.178-.136-.042-.221.021-.329.146-.364.042-.386.011-.42v-.287l-.011-.213-.083-.221-.271-.35-.126-.442.021-.272.094-.323.292-.394.471-.334.753-.54.678-.687.524-.393.594-.424.178-.395v-.206l-.01-.343v-.652l.053-.367.062-.174.094-.1.146-.07.157-.046.135,0,.094.038.167.116.135.222.042.118.094.093.4.246.366.112.335.1.1.015.408-.02.313-.121.126-.124.115-.131.073-.146.115-.357.125-.333.241-.192.167-.073.335-.043.125.009.628.126.24.011.168-.049.125-.1.125-.116.22-.275.313-.291.063-.2v-.144l-.062-.105-.168-.205-.428-.412-.251-.258-.125-.149-.168-.362-.094-.4-.042-.267v-.154l.012-.083.135-.355.136-.41.1-.184.167-.123.146-.054.168-.058.814-.258.606-.376.511-.336.251-.229.116-.192.23-.434.115-.33.157-.545.116-.446.031-.385v-.191l-.052-.22-.116-.389-.084-.253-.094-.238-.262-.352-.313-.531-.188-.269-.178-.173-.209-.071-.534-.148-.407-.2-.418-.261-.449-.24-.3-.221-.365-.164-.189-.133-.313-.2-.2-.053-.2.025-.2.038-.167.076-.355.131-.544.384-.282.227-.816.6-.208.1-.2.068-.345.074-.367.018-.147.043-.093.014-.188-.061-.1-.113-.345-.31-.2-.435-.115-.578-.073-.227-.127-.182-.365-.17-.72-.429-.827-.5-.4-.252-.334-.137-.3-.02-.251.007-.616.021-.2.009-.585.023-.355,0-.627.077-.355.116-.188.072-.262.094-.5-.068-.324-.118-.491-.182-.648-.356-.229-.179-.418-.334-.356-.294-.375-.13-.9-.264-.356-.086-.6-.242-.188-.086-.272-.157-.188-.187-.146-.164-.135-.055-.1,0-.094.038-.1.111-.168.128-.125.084-.334.038-.147.03-.23-.241-.094-.111-.094-.13-.084-.165-.052-.161v-.151l.146-.259.188-.13.125-.039.158-.046.2-.074.146-.1.252-.206.093-.128.042-.121.042-.154-.042-.283-.272-.648-.439-1.311-.293-.9-.281-.8-.3-.638-.168-.413-.083-.6-.01-.5-.074-.36-.031-.209-.011-.227-.032-.227-.083-.276-.281-.381-.126-.314-.073-.313.01-.381.021-.505-.052-.464.01-.126.032-.079.082-.062.064-.05.157-.1.544-.283.188-.085.125-.11.178-.307.031-.212-.031-.259-.052-.2-.2-.326-.168-.155-.4-.178-.3-.015-.189.019-.219.061-.491.281-.648.51-.26.169-.273.078-.167.045-.167-.038-.115-.1-.1-.225-.083-.367.053-.438.2-.789.073-.464-.042-.471-.042-.386-.2-.658-.115-.528-.083-.205-.22-.321-.25-.157-.168-.041-.23-.038-.314.038-.418.074-.229.047-.22.009-.376-.019-.282-.115-.1-.124-.073-.113-.062-.188-.052-.224-.043-.372.115-.293.167-.2.137-.173.135-.268.209-.4.02-.238-.03-.136-.168-.007-.167.05-.262.019-.262.033-.469.012-.2-.017-.177-.056-.052-.048-.062-.157-.053-.127-.041-.173-.031-.236.052-.458.031-.15.053-.147.114-.234.032-.149-.01-.192-.053-.13-.115-.071-.2-.022-.114.046-.136.177-.115.253-.188.369-.1.174-.2.142-.208.151-.25.153-.471.054-.188-.019-.168-.112-.052-.1-.053-.254v-.2l.032-.107.095-.119.052-.095.022-.112.041-.3-.105-.272-.167-.319-.355-.2-.241-.039-.208-.023-.262.054-.375.178-.3.21-.524.1-.354.019-.209-.133-.094-.22-.073-.532-.157-.534-.147-.3-.219-.247-.189-.123-.24.09-.24.133-.084.186-.052.39-.261.405-.125.242-.355.248-.25.124-.44.176-.616.043h-.5l-.4-.081-.638-.134-.6-.018-.616-.062-.4-.191-.3-.586-.043-.357-.094-.263-.116-.242-.062-.3.072-.3.251-.251-.021-.142-.094-.039-.187.039-.273.092-.637.211-.283.026-.188.017-.157.045-.167.074-.126.054-.125.024-.136-.033-.125-.129-.115-.185-.125-.545-.043-.408-.031-.443-.01-.288-.052-.219-.115-.127-.219-.048-.292.095-.241.139-.167.179-.376.107-.147,0-.522-.077-.648-.165-.669-.19-.564-.13-.565-.075-.322-.071-.4-.179-.261-.132-.23-.168-.251-.148-.293-.14-.323.021-.315.063-.376.142-.188.059-.188.015-.157-.074-.146-.259-.083-.22-.115-.328" transform="translate(-1790.289 -903.31)"  stroke="#fff" stroke-linecap="square" stroke-linejoin="bevel" stroke-width="1" fill-rule="evenodd"/>
      <text id="talId40count" transform="translate(78.438 46.457)" fill="#fff" font-size="10"  font-family="OpenSans-Bold, Open Sans" font-weight="700"><tspan x="0" y="0"></tspan></text>
    </g>
  </g>
</svg>
